<?xml version="1.0" encoding="us-ascii" standalone="no"?><svg xmlns="http://www.w3.org/2000/svg" xmlns:xlink="http://www.w3.org/1999/xlink" contentStyleType="text/css" height="929.6px" preserveAspectRatio="none" style="width:1273px;height:929px;background:#FFFFFF;" version="1.1" viewBox="0 0 1273 929" width="1273.3px" zoomAndPan="magnify"><defs/><g><rect fill="#FFFFFF" height="793.7193" style="stroke:#181818;stroke-width:0.6999999999999998;" width="7" x="63.7" y="65.5348"/><rect fill="#FFFFFF" height="96.2459" style="stroke:#181818;stroke-width:0.6999999999999998;" width="7" x="210.7" y="81.8385"/><rect fill="#FFFFFF" height="21.9037" style="stroke:#181818;stroke-width:0.6999999999999998;" width="7" x="210.7" y="199.9881"/><rect fill="#FFFFFF" height="615.4586" style="stroke:#181818;stroke-width:0.6999999999999998;" width="7" x="210.7" y="243.7955"/><rect fill="#FFFFFF" height="45.4385" style="stroke:#181818;stroke-width:0.6999999999999998;" width="7" x="317.8" y="110.7422"/><rect fill="#FFFFFF" height="571.6512" style="stroke:#181818;stroke-width:0.6999999999999998;" width="7" x="317.8" y="265.6992"/><rect fill="#FFFFFF" height="359.5594" style="stroke:#181818;stroke-width:0.6999999999999998;" width="7" x="321.3" y="293.2029"/><rect fill="#FFFFFF" height="21.9037" style="stroke:#181818;stroke-width:0.6999999999999998;" width="7" x="439.6" y="134.277"/><rect fill="#FFFFFF" height="21.9037" style="stroke:#181818;stroke-width:0.6999999999999998;" width="7" x="597.1" y="450.0289"/><rect fill="#FFFFFF" height="21.9037" style="stroke:#181818;stroke-width:0.6999999999999998;" width="7" x="686" y="318.6066"/><rect fill="#FFFFFF" height="21.9037" style="stroke:#181818;stroke-width:0.6999999999999998;" width="7" x="788.9" y="362.4141"/><rect fill="#FFFFFF" height="21.9037" style="stroke:#181818;stroke-width:0.6999999999999998;" width="7" x="882" y="406.2215"/><rect fill="#FFFFFF" height="89.0148" style="stroke:#181818;stroke-width:0.6999999999999998;" width="7" x="984.2" y="493.8363"/><rect fill="#FFFFFF" height="21.9037" style="stroke:#181818;stroke-width:0.6999999999999998;" width="7" x="1118.6" y="534.1437"/><rect fill="#FFFFFF" height="21.9037" style="stroke:#181818;stroke-width:0.6999999999999998;" width="7" x="1118.6" y="604.7549"/><rect fill="#FFFFFF" height="118.3807" style="stroke:#181818;stroke-width:0.6999999999999998;" width="7" x="1118.6" y="697.066"/><rect fill="none" height="57.3111" style="stroke:#000000;stroke-width:1.0499999999999998;" width="239.75" x="923.65" y="504.3363"/><line style="stroke:#181818;stroke-width:0.3499999999999999;stroke-dasharray:5.0,5.0;" x1="67.2" x2="67.2" y1="58.5348" y2="871.8541"/><line style="stroke:#181818;stroke-width:0.3499999999999999;stroke-dasharray:5.0,5.0;" x1="213.85" x2="213.85" y1="58.5348" y2="871.8541"/><line style="stroke:#181818;stroke-width:0.3499999999999999;stroke-dasharray:5.0,5.0;" x1="320.95" x2="320.95" y1="109.7059" y2="871.8541"/><line style="stroke:#181818;stroke-width:0.3499999999999999;stroke-dasharray:5.0,5.0;" x1="442.75" x2="442.75" y1="58.5348" y2="871.8541"/><line style="stroke:#181818;stroke-width:0.3499999999999999;stroke-dasharray:5.0,5.0;" x1="521.85" x2="521.85" y1="58.5348" y2="871.8541"/><line style="stroke:#181818;stroke-width:0.3499999999999999;stroke-dasharray:5.0,5.0;" x1="600.25" x2="600.25" y1="58.5348" y2="871.8541"/><line style="stroke:#181818;stroke-width:0.3499999999999999;stroke-dasharray:5.0,5.0;" x1="689.15" x2="689.15" y1="58.5348" y2="871.8541"/><line style="stroke:#181818;stroke-width:0.3499999999999999;stroke-dasharray:5.0,5.0;" x1="792.05" x2="792.05" y1="58.5348" y2="871.8541"/><line style="stroke:#181818;stroke-width:0.3499999999999999;stroke-dasharray:5.0,5.0;" x1="885.15" x2="885.15" y1="58.5348" y2="871.8541"/><line style="stroke:#181818;stroke-width:0.3499999999999999;stroke-dasharray:5.0,5.0;" x1="987.35" x2="987.35" y1="58.5348" y2="871.8541"/><line style="stroke:#181818;stroke-width:0.3499999999999999;stroke-dasharray:5.0,5.0;" x1="1122.1" x2="1122.1" y1="58.5348" y2="871.8541"/><line style="stroke:#181818;stroke-width:0.3499999999999999;stroke-dasharray:5.0,5.0;" x1="1255.1" x2="1255.1" y1="731.4508" y2="871.8541"/><text fill="#000000" font-family="sans-serif" font-size="9.8" lengthAdjust="spacing" textLength="123.2" x="3.5" y="56.0752">Human Resources Manager</text><ellipse cx="67.2" cy="9.45" fill="#E3E3E3" rx="5.6" ry="5.6" style="stroke:#181818;stroke-width:0.3499999999999999;"/><path d="M67.2,15.05 L67.2,33.95 M58.1,20.65 L76.3,20.65 M67.2,33.95 L58.1,44.45 M67.2,33.95 L76.3,44.45 " fill="none" style="stroke:#181818;stroke-width:0.3499999999999999;"/><text fill="#000000" font-family="sans-serif" font-size="9.8" lengthAdjust="spacing" textLength="123.2" x="3.5" y="881.7293">Human Resources Manager</text><ellipse cx="67.2" cy="890.1389" fill="#E3E3E3" rx="5.6" ry="5.6" style="stroke:#181818;stroke-width:0.3499999999999999;"/><path d="M67.2,895.7389 L67.2,914.6389 M58.1,901.3389 L76.3,901.3389 M67.2,914.6389 L58.1,925.1389 M67.2,914.6389 L76.3,925.1389 " fill="none" style="stroke:#181818;stroke-width:0.3499999999999999;"/><rect fill="#E3E3E3" height="22.8348" rx="1.75" ry="1.75" style="stroke:#181818;stroke-width:0.3499999999999999;" width="66.5" x="180.95" y="35"/><text fill="#000000" font-family="sans-serif" font-size="9.8" lengthAdjust="spacing" textLength="56.7" x="185.85" y="50.4752">:CreateJobUI</text><rect fill="#E3E3E3" height="22.8348" rx="1.75" ry="1.75" style="stroke:#181818;stroke-width:0.3499999999999999;" width="66.5" x="180.95" y="871.1541"/><text fill="#000000" font-family="sans-serif" font-size="9.8" lengthAdjust="spacing" textLength="56.7" x="185.85" y="886.6293">:CreateJobUI</text><rect fill="#E3E3E3" height="22.8348" rx="1.75" ry="1.75" style="stroke:#181818;stroke-width:0.3499999999999999;" width="101.5" x="270.55" y="871.1541"/><text fill="#000000" font-family="sans-serif" font-size="9.8" lengthAdjust="spacing" textLength="91.7" x="275.45" y="886.6293">:CreateJobController</text><rect fill="#E3E3E3" height="22.8348" rx="1.75" ry="1.75" style="stroke:#181818;stroke-width:0.3499999999999999;" width="67.9" x="409.15" y="35"/><text fill="#000000" font-family="sans-serif" font-size="9.8" lengthAdjust="spacing" textLength="58.1" x="414.05" y="50.4752">:Repositories</text><rect fill="#E3E3E3" height="22.8348" rx="1.75" ry="1.75" style="stroke:#181818;stroke-width:0.3499999999999999;" width="67.9" x="409.15" y="871.1541"/><text fill="#000000" font-family="sans-serif" font-size="9.8" lengthAdjust="spacing" textLength="58.1" x="414.05" y="886.6293">:Repositories</text><rect fill="#E3E3E3" height="35.8695" rx="1.75" ry="1.75" style="stroke:#181818;stroke-width:0.3499999999999999;" width="75.6" x="484.05" y="21.9652"/><text fill="#000000" font-family="sans-serif" font-size="9.8" lengthAdjust="spacing" textLength="57.4" x="493.15" y="37.4404">jobrepository</text><text fill="#000000" font-family="sans-serif" font-size="9.8" lengthAdjust="spacing" textLength="65.8" x="488.95" y="50.4752">:JobRepository</text><rect fill="#E3E3E3" height="35.8695" rx="1.75" ry="1.75" style="stroke:#181818;stroke-width:0.3499999999999999;" width="75.6" x="484.05" y="871.1541"/><text fill="#000000" font-family="sans-serif" font-size="9.8" lengthAdjust="spacing" textLength="57.4" x="493.15" y="886.6293">jobrepository</text><text fill="#000000" font-family="sans-serif" font-size="9.8" lengthAdjust="spacing" textLength="65.8" x="488.95" y="899.6641">:JobRepository</text><rect fill="#E3E3E3" height="35.8695" rx="1.75" ry="1.75" style="stroke:#181818;stroke-width:0.3499999999999999;" width="67.9" x="566.65" y="21.9652"/><text fill="#000000" font-family="sans-serif" font-size="9.8" lengthAdjust="spacing" textLength="51.8" x="574.7" y="37.4404">repositories</text><text fill="#000000" font-family="sans-serif" font-size="9.8" lengthAdjust="spacing" textLength="58.1" x="571.55" y="50.4752">:Repositories</text><rect fill="#E3E3E3" height="35.8695" rx="1.75" ry="1.75" style="stroke:#181818;stroke-width:0.3499999999999999;" width="67.9" x="566.65" y="871.1541"/><text fill="#000000" font-family="sans-serif" font-size="9.8" lengthAdjust="spacing" textLength="51.8" x="574.7" y="886.6293">repositories</text><text fill="#000000" font-family="sans-serif" font-size="9.8" lengthAdjust="spacing" textLength="58.1" x="571.55" y="899.6641">:Repositories</text><rect fill="#E3E3E3" height="22.8348" rx="1.75" ry="1.75" style="stroke:#181818;stroke-width:0.3499999999999999;" width="95.9" x="641.55" y="35"/><text fill="#000000" font-family="sans-serif" font-size="9.8" lengthAdjust="spacing" textLength="86.1" x="646.45" y="50.4752">:ApplicationSession</text><rect fill="#E3E3E3" height="22.8348" rx="1.75" ry="1.75" style="stroke:#181818;stroke-width:0.3499999999999999;" width="95.9" x="641.55" y="871.1541"/><text fill="#000000" font-family="sans-serif" font-size="9.8" lengthAdjust="spacing" textLength="86.1" x="646.45" y="886.6293">:ApplicationSession</text><rect fill="#E3E3E3" height="35.8695" rx="1.75" ry="1.75" style="stroke:#181818;stroke-width:0.3499999999999999;" width="95.9" x="744.45" y="21.9652"/><text fill="#000000" font-family="sans-serif" font-size="9.8" lengthAdjust="spacing" textLength="51.8" x="766.5" y="37.4404">appSession</text><text fill="#000000" font-family="sans-serif" font-size="9.8" lengthAdjust="spacing" textLength="86.1" x="749.35" y="50.4752">:ApplicationSession</text><rect fill="#E3E3E3" height="35.8695" rx="1.75" ry="1.75" style="stroke:#181818;stroke-width:0.3499999999999999;" width="95.9" x="744.45" y="871.1541"/><text fill="#000000" font-family="sans-serif" font-size="9.8" lengthAdjust="spacing" textLength="51.8" x="766.5" y="886.6293">appSession</text><text fill="#000000" font-family="sans-serif" font-size="9.8" lengthAdjust="spacing" textLength="86.1" x="749.35" y="899.6641">:ApplicationSession</text><rect fill="#E3E3E3" height="35.8695" rx="1.75" ry="1.75" style="stroke:#181818;stroke-width:0.3499999999999999;" width="76.3" x="847.35" y="21.9652"/><text fill="#000000" font-family="sans-serif" font-size="9.8" lengthAdjust="spacing" textLength="66.5" x="852.25" y="37.4404">currentSession</text><text fill="#000000" font-family="sans-serif" font-size="9.8" lengthAdjust="spacing" textLength="58.1" x="856.45" y="50.4752">:UserSession</text><rect fill="#E3E3E3" height="35.8695" rx="1.75" ry="1.75" style="stroke:#181818;stroke-width:0.3499999999999999;" width="76.3" x="847.35" y="871.1541"/><text fill="#000000" font-family="sans-serif" font-size="9.8" lengthAdjust="spacing" textLength="66.5" x="852.25" y="886.6293">currentSession</text><text fill="#000000" font-family="sans-serif" font-size="9.8" lengthAdjust="spacing" textLength="58.1" x="856.45" y="899.6641">:UserSession</text><rect fill="#E3E3E3" height="35.8695" rx="1.75" ry="1.75" style="stroke:#181818;stroke-width:0.3499999999999999;" width="114.1" x="930.65" y="21.9652"/><text fill="#000000" font-family="sans-serif" font-size="9.8" lengthAdjust="spacing" textLength="104.3" x="935.55" y="37.4404">organizationRepository:</text><text fill="#000000" font-family="sans-serif" font-size="9.8" lengthAdjust="spacing" textLength="103.6" x="935.9" y="50.4752">OrganizationRepository</text><rect fill="#E3E3E3" height="35.8695" rx="1.75" ry="1.75" style="stroke:#181818;stroke-width:0.3499999999999999;" width="114.1" x="930.65" y="871.1541"/><text fill="#000000" font-family="sans-serif" font-size="9.8" lengthAdjust="spacing" textLength="104.3" x="935.55" y="886.6293">organizationRepository:</text><text fill="#000000" font-family="sans-serif" font-size="9.8" lengthAdjust="spacing" textLength="103.6" x="935.9" y="899.6641">OrganizationRepository</text><rect fill="#E3E3E3" height="35.8695" rx="1.75" ry="1.75" style="stroke:#181818;stroke-width:0.3499999999999999;" width="68.6" x="1087.8" y="21.9652"/><text fill="#000000" font-family="sans-serif" font-size="9.8" lengthAdjust="spacing" textLength="53.9" x="1095.15" y="37.4404">organization</text><text fill="#000000" font-family="sans-serif" font-size="9.8" lengthAdjust="spacing" textLength="58.8" x="1092.7" y="50.4752">:Organization</text><rect fill="#E3E3E3" height="35.8695" rx="1.75" ry="1.75" style="stroke:#181818;stroke-width:0.3499999999999999;" width="68.6" x="1087.8" y="871.1541"/><text fill="#000000" font-family="sans-serif" font-size="9.8" lengthAdjust="spacing" textLength="53.9" x="1095.15" y="886.6293">organization</text><text fill="#000000" font-family="sans-serif" font-size="9.8" lengthAdjust="spacing" textLength="58.8" x="1092.7" y="899.6641">:Organization</text><rect fill="#E3E3E3" height="35.8695" rx="1.75" ry="1.75" style="stroke:#181818;stroke-width:0.3499999999999999;" width="28" x="1241.1" y="871.1541"/><text fill="#000000" font-family="sans-serif" font-size="9.8" lengthAdjust="spacing" textLength="13.3" x="1248.45" y="886.6293">job</text><text fill="#000000" font-family="sans-serif" font-size="9.8" lengthAdjust="spacing" textLength="18.2" x="1246" y="899.6641">:Job</text><rect fill="#FFFFFF" height="793.7193" style="stroke:#181818;stroke-width:0.6999999999999998;" width="7" x="63.7" y="65.5348"/><rect fill="#FFFFFF" height="96.2459" style="stroke:#181818;stroke-width:0.6999999999999998;" width="7" x="210.7" y="81.8385"/><rect fill="#FFFFFF" height="21.9037" style="stroke:#181818;stroke-width:0.6999999999999998;" width="7" x="210.7" y="199.9881"/><rect fill="#FFFFFF" height="615.4586" style="stroke:#181818;stroke-width:0.6999999999999998;" width="7" x="210.7" y="243.7955"/><rect fill="#FFFFFF" height="45.4385" style="stroke:#181818;stroke-width:0.6999999999999998;" width="7" x="317.8" y="110.7422"/><rect fill="#FFFFFF" height="571.6512" style="stroke:#181818;stroke-width:0.6999999999999998;" width="7" x="317.8" y="265.6992"/><rect fill="#FFFFFF" height="359.5594" style="stroke:#181818;stroke-width:0.6999999999999998;" width="7" x="321.3" y="293.2029"/><rect fill="#FFFFFF" height="21.9037" style="stroke:#181818;stroke-width:0.6999999999999998;" width="7" x="439.6" y="134.277"/><rect fill="#FFFFFF" height="21.9037" style="stroke:#181818;stroke-width:0.6999999999999998;" width="7" x="597.1" y="450.0289"/><rect fill="#FFFFFF" height="21.9037" style="stroke:#181818;stroke-width:0.6999999999999998;" width="7" x="686" y="318.6066"/><rect fill="#FFFFFF" height="21.9037" style="stroke:#181818;stroke-width:0.6999999999999998;" width="7" x="788.9" y="362.4141"/><rect fill="#FFFFFF" height="21.9037" style="stroke:#181818;stroke-width:0.6999999999999998;" width="7" x="882" y="406.2215"/><rect fill="#FFFFFF" height="89.0148" style="stroke:#181818;stroke-width:0.6999999999999998;" width="7" x="984.2" y="493.8363"/><rect fill="#FFFFFF" height="21.9037" style="stroke:#181818;stroke-width:0.6999999999999998;" width="7" x="1118.6" y="534.1437"/><rect fill="#FFFFFF" height="21.9037" style="stroke:#181818;stroke-width:0.6999999999999998;" width="7" x="1118.6" y="604.7549"/><rect fill="#FFFFFF" height="118.3807" style="stroke:#181818;stroke-width:0.6999999999999998;" width="7" x="1118.6" y="697.066"/><polygon fill="#181818" points="202.3,79.0385,209.3,81.8385,202.3,84.6385,205.1,81.8385" style="stroke:#181818;stroke-width:0.6999999999999998;"/><line style="stroke:#181818;stroke-width:0.6999999999999998;" x1="70.7" x2="206.5" y1="81.8385" y2="81.8385"/><text fill="#000000" font-family="sans-serif" font-size="9.1" font-weight="bold" lengthAdjust="spacing" textLength="4.9" x="75.6" y="78.1546">1</text><text fill="#000000" font-family="sans-serif" font-size="9.1" lengthAdjust="spacing" textLength="99.4" x="83.3" y="78.1546">asks to create a new job</text><polygon fill="#181818" points="262.15,100.9422,269.15,103.7422,262.15,106.5422,264.95,103.7422" style="stroke:#181818;stroke-width:0.6999999999999998;"/><line style="stroke:#181818;stroke-width:0.6999999999999998;" x1="217.7" x2="266.35" y1="103.7422" y2="103.7422"/><text fill="#000000" font-family="sans-serif" font-size="9.1" font-weight="bold" lengthAdjust="spacing" textLength="4.9" x="222.6" y="100.0583">2</text><text fill="#000000" font-family="sans-serif" font-size="9.1" lengthAdjust="spacing" textLength="25.2" x="230.3" y="100.0583">create</text><rect fill="#E3E3E3" height="22.8348" rx="1.75" ry="1.75" style="stroke:#181818;stroke-width:0.3499999999999999;" width="101.5" x="270.55" y="87.4385"/><text fill="#000000" font-family="sans-serif" font-size="9.8" lengthAdjust="spacing" textLength="91.7" x="275.45" y="102.9137">:CreateJobController</text><polygon fill="#181818" points="431.2,131.477,438.2,134.277,431.2,137.077,434,134.277" style="stroke:#181818;stroke-width:0.6999999999999998;"/><line style="stroke:#181818;stroke-width:0.6999999999999998;" x1="324.8" x2="435.4" y1="134.277" y2="134.277"/><text fill="#000000" font-family="sans-serif" font-size="9.1" font-weight="bold" lengthAdjust="spacing" textLength="4.9" x="329.7" y="130.5931">3</text><text fill="#000000" font-family="sans-serif" font-size="9.1" lengthAdjust="spacing" textLength="75.6" x="337.4" y="130.5931">getJobRepository()</text><polygon fill="#181818" points="329,153.3807,322,156.1807,329,158.9807,326.2,156.1807" style="stroke:#181818;stroke-width:0.6999999999999998;"/><line style="stroke:#181818;stroke-width:0.6999999999999998;stroke-dasharray:2.0,2.0;" x1="324.8" x2="442.4" y1="156.1807" y2="156.1807"/><text fill="#000000" font-family="sans-serif" font-size="9.1" font-weight="bold" lengthAdjust="spacing" textLength="4.9" x="333.2" y="152.4968">4</text><text fill="#000000" font-family="sans-serif" font-size="9.1" lengthAdjust="spacing" textLength="51.8" x="340.9" y="152.4968">jobrepository</text><polygon fill="#181818" points="78.4,175.2844,71.4,178.0844,78.4,180.8844,75.6,178.0844" style="stroke:#181818;stroke-width:0.6999999999999998;"/><line style="stroke:#181818;stroke-width:0.6999999999999998;stroke-dasharray:2.0,2.0;" x1="74.2" x2="213.5" y1="178.0844" y2="178.0844"/><text fill="#000000" font-family="sans-serif" font-size="9.1" font-weight="bold" lengthAdjust="spacing" textLength="4.9" x="82.6" y="174.4005">5</text><text fill="#000000" font-family="sans-serif" font-size="9.1" lengthAdjust="spacing" textLength="84.7" x="90.3" y="174.4005">requests name of job</text><polygon fill="#181818" points="202.3,197.1881,209.3,199.9881,202.3,202.7881,205.1,199.9881" style="stroke:#181818;stroke-width:0.6999999999999998;"/><line style="stroke:#181818;stroke-width:0.6999999999999998;" x1="70.7" x2="206.5" y1="199.9881" y2="199.9881"/><text fill="#000000" font-family="sans-serif" font-size="9.1" font-weight="bold" lengthAdjust="spacing" textLength="4.9" x="75.6" y="196.3042">6</text><text fill="#000000" font-family="sans-serif" font-size="9.1" lengthAdjust="spacing" textLength="90.3" x="83.3" y="196.3042">types requested name</text><polygon fill="#181818" points="78.4,219.0918,71.4,221.8918,78.4,224.6918,75.6,221.8918" style="stroke:#181818;stroke-width:0.6999999999999998;"/><line style="stroke:#181818;stroke-width:0.6999999999999998;stroke-dasharray:2.0,2.0;" x1="74.2" x2="213.5" y1="221.8918" y2="221.8918"/><text fill="#000000" font-family="sans-serif" font-size="9.1" font-weight="bold" lengthAdjust="spacing" textLength="4.9" x="82.6" y="218.2079">7</text><text fill="#000000" font-family="sans-serif" font-size="9.1" lengthAdjust="spacing" textLength="76.3" x="90.3" y="218.2079">shows typed name</text><polygon fill="#181818" points="202.3,240.9955,209.3,243.7955,202.3,246.5955,205.1,243.7955" style="stroke:#181818;stroke-width:0.6999999999999998;"/><line style="stroke:#181818;stroke-width:0.6999999999999998;" x1="70.7" x2="206.5" y1="243.7955" y2="243.7955"/><text fill="#000000" font-family="sans-serif" font-size="9.1" font-weight="bold" lengthAdjust="spacing" textLength="4.9" x="75.6" y="240.1116">8</text><text fill="#000000" font-family="sans-serif" font-size="9.1" lengthAdjust="spacing" textLength="57.4" x="83.3" y="240.1116">submits name</text><polygon fill="#181818" points="309.4,262.8992,316.4,265.6992,309.4,268.4992,312.2,265.6992" style="stroke:#181818;stroke-width:0.6999999999999998;"/><line style="stroke:#181818;stroke-width:0.6999999999999998;" x1="217.7" x2="313.6" y1="265.6992" y2="265.6992"/><text fill="#000000" font-family="sans-serif" font-size="9.1" font-weight="bold" lengthAdjust="spacing" textLength="4.9" x="222.6" y="262.0153">9</text><text fill="#000000" font-family="sans-serif" font-size="9.1" lengthAdjust="spacing" textLength="79.1" x="230.3" y="262.0153">createJob(jobname)</text><line style="stroke:#181818;stroke-width:0.6999999999999998;" x1="324.8" x2="357.7" y1="284.1029" y2="284.1029"/><line style="stroke:#181818;stroke-width:0.6999999999999998;" x1="357.7" x2="357.7" y1="284.1029" y2="293.2029"/><line style="stroke:#181818;stroke-width:0.6999999999999998;" x1="329" x2="357.7" y1="293.2029" y2="293.2029"/><polygon fill="#181818" points="336,290.4029,329,293.2029,336,296.0029,333.2,293.2029" style="stroke:#181818;stroke-width:0.6999999999999998;"/><text fill="#000000" font-family="sans-serif" font-size="9.1" font-weight="bold" lengthAdjust="spacing" textLength="9.8" x="333.2" y="280.419">10</text><text fill="#000000" font-family="sans-serif" font-size="9.1" lengthAdjust="spacing" textLength="92.4" x="345.8" y="280.419">getHRMFromSession()</text><polygon fill="#181818" points="677.6,315.8066,684.6,318.6066,677.6,321.4066,680.4,318.6066" style="stroke:#181818;stroke-width:0.6999999999999998;"/><line style="stroke:#181818;stroke-width:0.6999999999999998;" x1="328.3" x2="681.8" y1="318.6066" y2="318.6066"/><text fill="#000000" font-family="sans-serif" font-size="9.1" font-weight="bold" lengthAdjust="spacing" textLength="9.8" x="333.2" y="314.9228">11</text><text fill="#000000" font-family="sans-serif" font-size="9.1" lengthAdjust="spacing" textLength="52.5" x="345.8" y="314.9228">getInstance()</text><polygon fill="#181818" points="336,337.7104,329,340.5104,336,343.3104,333.2,340.5104" style="stroke:#181818;stroke-width:0.6999999999999998;"/><line style="stroke:#181818;stroke-width:0.6999999999999998;" x1="331.8" x2="688.8" y1="340.5104" y2="340.5104"/><text fill="#000000" font-family="sans-serif" font-size="9.1" font-weight="bold" lengthAdjust="spacing" textLength="9.8" x="340.2" y="336.8265">12</text><text fill="#000000" font-family="sans-serif" font-size="9.1" lengthAdjust="spacing" textLength="47.6" x="352.8" y="336.8265">appSession</text><polygon fill="#181818" points="780.5,359.6141,787.5,362.4141,780.5,365.2141,783.3,362.4141" style="stroke:#181818;stroke-width:0.6999999999999998;"/><line style="stroke:#181818;stroke-width:0.6999999999999998;" x1="328.3" x2="784.7" y1="362.4141" y2="362.4141"/><text fill="#000000" font-family="sans-serif" font-size="9.1" font-weight="bold" lengthAdjust="spacing" textLength="9.8" x="333.2" y="358.7302">13</text><text fill="#000000" font-family="sans-serif" font-size="9.1" lengthAdjust="spacing" textLength="80.5" x="345.8" y="358.7302">getCurrentSession()</text><polygon fill="#181818" points="336,381.5178,329,384.3178,336,387.1178,333.2,384.3178" style="stroke:#181818;stroke-width:0.6999999999999998;"/><line style="stroke:#181818;stroke-width:0.6999999999999998;stroke-dasharray:2.0,2.0;" x1="331.8" x2="791.7" y1="384.3178" y2="384.3178"/><text fill="#000000" font-family="sans-serif" font-size="9.1" font-weight="bold" lengthAdjust="spacing" textLength="9.8" x="340.2" y="380.6339">14</text><text fill="#000000" font-family="sans-serif" font-size="9.1" lengthAdjust="spacing" textLength="60.9" x="352.8" y="380.6339">currentSession</text><polygon fill="#181818" points="873.6,403.4215,880.6,406.2215,873.6,409.0215,876.4,406.2215" style="stroke:#181818;stroke-width:0.6999999999999998;"/><line style="stroke:#181818;stroke-width:0.6999999999999998;" x1="328.3" x2="877.8" y1="406.2215" y2="406.2215"/><text fill="#000000" font-family="sans-serif" font-size="9.1" font-weight="bold" lengthAdjust="spacing" textLength="9.8" x="333.2" y="402.5376">15</text><text fill="#000000" font-family="sans-serif" font-size="9.1" lengthAdjust="spacing" textLength="93.1" x="345.8" y="402.5376">email = getUserEmail()</text><polygon fill="#181818" points="336,425.3252,329,428.1252,336,430.9252,333.2,428.1252" style="stroke:#181818;stroke-width:0.6999999999999998;"/><line style="stroke:#181818;stroke-width:0.6999999999999998;stroke-dasharray:2.0,2.0;" x1="331.8" x2="884.8" y1="428.1252" y2="428.1252"/><text fill="#000000" font-family="sans-serif" font-size="9.1" font-weight="bold" lengthAdjust="spacing" textLength="9.8" x="340.2" y="424.4413">16</text><text fill="#000000" font-family="sans-serif" font-size="9.1" lengthAdjust="spacing" textLength="21.7" x="352.8" y="424.4413">email</text><polygon fill="#181818" points="588.7,447.2289,595.7,450.0289,588.7,452.8289,591.5,450.0289" style="stroke:#181818;stroke-width:0.6999999999999998;"/><line style="stroke:#181818;stroke-width:0.6999999999999998;" x1="328.3" x2="592.9" y1="450.0289" y2="450.0289"/><text fill="#000000" font-family="sans-serif" font-size="9.1" font-weight="bold" lengthAdjust="spacing" textLength="9.8" x="333.2" y="446.345">17</text><text fill="#000000" font-family="sans-serif" font-size="9.1" lengthAdjust="spacing" textLength="134.4" x="345.8" y="446.345">getOrganizationRepository(email)</text><polygon fill="#181818" points="336,469.1326,329,471.9326,336,474.7326,333.2,471.9326" style="stroke:#181818;stroke-width:0.6999999999999998;"/><line style="stroke:#181818;stroke-width:0.6999999999999998;stroke-dasharray:2.0,2.0;" x1="331.8" x2="599.9" y1="471.9326" y2="471.9326"/><text fill="#000000" font-family="sans-serif" font-size="9.1" font-weight="bold" lengthAdjust="spacing" textLength="9.8" x="340.2" y="468.2487">18</text><text fill="#000000" font-family="sans-serif" font-size="9.1" lengthAdjust="spacing" textLength="92.4" x="352.8" y="468.2487">organizationRepository</text><polygon fill="#181818" points="975.8,491.0363,982.8,493.8363,975.8,496.6363,978.6,493.8363" style="stroke:#181818;stroke-width:0.6999999999999998;"/><line style="stroke:#181818;stroke-width:0.6999999999999998;" x1="328.3" x2="980" y1="493.8363" y2="493.8363"/><text fill="#000000" font-family="sans-serif" font-size="9.1" font-weight="bold" lengthAdjust="spacing" textLength="9.8" x="333.2" y="490.1524">19</text><text fill="#000000" font-family="sans-serif" font-size="9.1" lengthAdjust="spacing" textLength="145.6" x="345.8" y="490.1524">getOrganizationByHRMEmail(email)</text><path d="M923.65,504.3363 L974.75,504.3363 L974.75,510.84 L967.75,517.84 L923.65,517.84 L923.65,504.3363 " fill="#EEEEEE" style="stroke:#000000;stroke-width:1.0499999999999998;"/><rect fill="none" height="57.3111" style="stroke:#000000;stroke-width:1.0499999999999998;" width="239.75" x="923.65" y="504.3363"/><text fill="#000000" font-family="sans-serif" font-size="9.1" font-weight="bold" lengthAdjust="spacing" textLength="19.6" x="934.15" y="514.8562">loop</text><text fill="#000000" font-family="sans-serif" font-size="7.7" font-weight="bold" lengthAdjust="spacing" textLength="89.6" x="985.25" y="514.0454">[[for each organization]</text><polygon fill="#181818" points="1110.2,531.3437,1117.2,534.1437,1110.2,536.9437,1113,534.1437" style="stroke:#181818;stroke-width:0.6999999999999998;"/><line style="stroke:#181818;stroke-width:0.6999999999999998;" x1="991.2" x2="1114.4" y1="534.1437" y2="534.1437"/><text fill="#000000" font-family="sans-serif" font-size="9.1" font-weight="bold" lengthAdjust="spacing" textLength="9.8" x="996.1" y="530.4599">20</text><text fill="#000000" font-family="sans-serif" font-size="9.1" lengthAdjust="spacing" textLength="101.5" x="1008.7" y="530.4599">anyHRMHasEmail(email)</text><polygon fill="#181818" points="998.9,553.2475,991.9,556.0475,998.9,558.8475,996.1,556.0475" style="stroke:#181818;stroke-width:0.6999999999999998;"/><line style="stroke:#181818;stroke-width:0.6999999999999998;stroke-dasharray:2.0,2.0;" x1="994.7" x2="1121.4" y1="556.0475" y2="556.0475"/><text fill="#000000" font-family="sans-serif" font-size="9.1" font-weight="bold" lengthAdjust="spacing" textLength="9.8" x="1003.1" y="552.3636">21</text><text fill="#000000" font-family="sans-serif" font-size="9.1" lengthAdjust="spacing" textLength="37.1" x="1015.7" y="552.3636">true/false</text><polygon fill="#181818" points="336,580.0512,329,582.8512,336,585.6512,333.2,582.8512" style="stroke:#181818;stroke-width:0.6999999999999998;"/><line style="stroke:#181818;stroke-width:0.6999999999999998;stroke-dasharray:2.0,2.0;" x1="331.8" x2="987" y1="582.8512" y2="582.8512"/><text fill="#000000" font-family="sans-serif" font-size="9.1" font-weight="bold" lengthAdjust="spacing" textLength="9.8" x="340.2" y="579.1673">22</text><text fill="#000000" font-family="sans-serif" font-size="9.1" lengthAdjust="spacing" textLength="49" x="352.8" y="579.1673">organization</text><polygon fill="#181818" points="1110.2,601.9549,1117.2,604.7549,1110.2,607.5549,1113,604.7549" style="stroke:#181818;stroke-width:0.6999999999999998;"/><line style="stroke:#181818;stroke-width:0.6999999999999998;" x1="328.3" x2="1114.4" y1="604.7549" y2="604.7549"/><text fill="#000000" font-family="sans-serif" font-size="9.1" font-weight="bold" lengthAdjust="spacing" textLength="9.8" x="333.2" y="601.071">23</text><text fill="#000000" font-family="sans-serif" font-size="9.1" lengthAdjust="spacing" textLength="94.5" x="345.8" y="601.071">getHRMByEmail(email)</text><polygon fill="#181818" points="336,623.8586,329,626.6586,336,629.4586,333.2,626.6586" style="stroke:#181818;stroke-width:0.6999999999999998;"/><line style="stroke:#181818;stroke-width:0.6999999999999998;stroke-dasharray:2.0,2.0;" x1="331.8" x2="1121.4" y1="626.6586" y2="626.6586"/><text fill="#000000" font-family="sans-serif" font-size="9.1" font-weight="bold" lengthAdjust="spacing" textLength="9.8" x="340.2" y="622.9747">24</text><text fill="#000000" font-family="sans-serif" font-size="9.1" lengthAdjust="spacing" textLength="15.4" x="352.8" y="622.9747">hrm</text><line style="stroke:#181818;stroke-width:0.6999999999999998;stroke-dasharray:2.0,2.0;" x1="328.3" x2="357.7" y1="652.0623" y2="652.0623"/><line style="stroke:#181818;stroke-width:0.6999999999999998;stroke-dasharray:2.0,2.0;" x1="357.7" x2="357.7" y1="652.0623" y2="661.1623"/><line style="stroke:#181818;stroke-width:0.6999999999999998;stroke-dasharray:2.0,2.0;" x1="324.8" x2="357.7" y1="661.1623" y2="661.1623"/><polygon fill="#181818" points="331.8,658.3623,324.8,661.1623,331.8,663.9623,329,661.1623" style="stroke:#181818;stroke-width:0.6999999999999998;"/><text fill="#000000" font-family="sans-serif" font-size="9.1" font-weight="bold" lengthAdjust="spacing" textLength="9.8" x="333.2" y="648.3784">25</text><text fill="#000000" font-family="sans-serif" font-size="9.1" lengthAdjust="spacing" textLength="15.4" x="345.8" y="648.3784">hrm</text><polygon fill="#181818" points="1110.2,694.266,1117.2,697.066,1110.2,699.866,1113,697.066" style="stroke:#181818;stroke-width:0.6999999999999998;"/><line style="stroke:#181818;stroke-width:0.6999999999999998;" x1="324.8" x2="1114.4" y1="697.066" y2="697.066"/><text fill="#000000" font-family="sans-serif" font-size="9.1" font-weight="bold" lengthAdjust="spacing" textLength="9.8" x="329.7" y="693.3821">26</text><text fill="#000000" font-family="sans-serif" font-size="9.1" lengthAdjust="spacing" textLength="83.3" x="342.3" y="693.3821">creatJob(name, hrm)</text><polygon fill="#181818" points="1232.7,716.1697,1239.7,718.9697,1232.7,721.7697,1235.5,718.9697" style="stroke:#181818;stroke-width:0.6999999999999998;"/><line style="stroke:#181818;stroke-width:0.6999999999999998;" x1="1125.6" x2="1236.9" y1="718.9697" y2="718.9697"/><text fill="#000000" font-family="sans-serif" font-size="9.1" font-weight="bold" lengthAdjust="spacing" textLength="9.8" x="1130.5" y="715.2858">27</text><text fill="#000000" font-family="sans-serif" font-size="9.1" lengthAdjust="spacing" textLength="86.1" x="1143.1" y="715.2858">create(jobname, hrm)</text><rect fill="#E3E3E3" height="35.8695" rx="1.75" ry="1.75" style="stroke:#181818;stroke-width:0.3499999999999999;" width="28" x="1241.1" y="702.666"/><text fill="#000000" font-family="sans-serif" font-size="9.8" lengthAdjust="spacing" textLength="13.3" x="1248.45" y="718.1412">job</text><text fill="#000000" font-family="sans-serif" font-size="9.8" lengthAdjust="spacing" textLength="18.2" x="1246" y="731.176">:Job</text><line style="stroke:#181818;stroke-width:0.6999999999999998;" x1="1125.6" x2="1155" y1="762.5393" y2="762.5393"/><line style="stroke:#181818;stroke-width:0.6999999999999998;" x1="1155" x2="1155" y1="762.5393" y2="771.6393"/><line style="stroke:#181818;stroke-width:0.6999999999999998;" x1="1126.3" x2="1155" y1="771.6393" y2="771.6393"/><polygon fill="#181818" points="1133.3,768.8393,1126.3,771.6393,1133.3,774.4393,1130.5,771.6393" style="stroke:#181818;stroke-width:0.6999999999999998;"/><text fill="#000000" font-family="sans-serif" font-size="9.1" font-weight="bold" lengthAdjust="spacing" textLength="9.8" x="1130.5" y="758.8554">28</text><text fill="#000000" font-family="sans-serif" font-size="9.1" lengthAdjust="spacing" textLength="61.6" x="1143.1" y="758.8554">validateJob(job)</text><polygon fill="#181818" points="529.55,790.743,522.55,793.543,529.55,796.343,526.75,793.543" style="stroke:#181818;stroke-width:0.6999999999999998;"/><line style="stroke:#181818;stroke-width:0.6999999999999998;" x1="525.35" x2="1117.9" y1="793.543" y2="793.543"/><text fill="#000000" font-family="sans-serif" font-size="9.1" font-weight="bold" lengthAdjust="spacing" textLength="9.8" x="533.75" y="789.8591">29</text><text fill="#000000" font-family="sans-serif" font-size="9.1" lengthAdjust="spacing" textLength="46.2" x="546.35" y="789.8591">addJob(job)</text><polygon fill="#181818" points="332.5,812.6467,325.5,815.4467,332.5,818.2467,329.7,815.4467" style="stroke:#181818;stroke-width:0.6999999999999998;"/><line style="stroke:#181818;stroke-width:0.6999999999999998;" x1="328.3" x2="1121.4" y1="815.4467" y2="815.4467"/><text fill="#000000" font-family="sans-serif" font-size="9.1" font-weight="bold" lengthAdjust="spacing" textLength="9.8" x="336.7" y="811.7628">30</text><text fill="#000000" font-family="sans-serif" font-size="9.1" lengthAdjust="spacing" textLength="11.9" x="349.3" y="811.7628">job</text><polygon fill="#181818" points="225.4,834.5504,218.4,837.3504,225.4,840.1504,222.6,837.3504" style="stroke:#181818;stroke-width:0.6999999999999998;"/><line style="stroke:#181818;stroke-width:0.6999999999999998;stroke-dasharray:2.0,2.0;" x1="221.2" x2="320.6" y1="837.3504" y2="837.3504"/><text fill="#000000" font-family="sans-serif" font-size="9.1" font-weight="bold" lengthAdjust="spacing" textLength="9.8" x="229.6" y="833.6665">31</text><text fill="#000000" font-family="sans-serif" font-size="9.1" lengthAdjust="spacing" textLength="11.9" x="242.2" y="833.6665">job</text><polygon fill="#181818" points="74.9,856.4541,67.9,859.2541,74.9,862.0541,72.1,859.2541" style="stroke:#181818;stroke-width:0.6999999999999998;"/><line style="stroke:#181818;stroke-width:0.6999999999999998;stroke-dasharray:2.0,2.0;" x1="70.7" x2="213.5" y1="859.2541" y2="859.2541"/><text fill="#000000" font-family="sans-serif" font-size="9.1" font-weight="bold" lengthAdjust="spacing" textLength="9.8" x="79.1" y="855.5702">32</text><text fill="#000000" font-family="sans-serif" font-size="9.1" lengthAdjust="spacing" textLength="110.6" x="91.7" y="855.5702">displays operation success</text><!--SRC=[bLTDRzim3BthLn2zD0qQx6vW1RAi7obQj73QqmeCYgqaMct9a-Hs6VhZHycEOyUIq-cIn28V7wbdKj6lN1HKqHnoAMIoKJ9dO5J9Y6vs2fgyqZLRc6t6GB74KB7EsWPwGrFvpiKQLZJJZ11Q6YdAVCaK8QSRdZ9OIMcMyW-XYP4AJcxAd0g8cPQbIfY6UoemWZe1gc7w_PuWhk49BwWmS1BD5AE6tShbyznPFCz31ZCfZ99PLaFDdkAx0zEO5L9p9C6PTZRDW-s2sxoGUTVbbrognkP5H1Xcx-CWRkEkXsh5G8TUoCUxwTC1hMbHP3oXXaknO5hZXxFyENryx5hIegWD43dWrNDAIgMOC7l7PyrKssDnkLXC7xfEKgsfu7yT-ZxXw4KyU3SSZdyhZ8jKsYuLHdpTEu2gx6xxQHfVNas9LH9_mrDtUY5GB_m1amjK24He_Ah1I4YSEe22OE-0O7lh1WCLHKwXjH1WWZWMBaBD_owPDXfIQYYC55inB6V2pY5bEb6yiDpF0RXOIPNJ35v4TyUmP2FmeBBkuxHKjFgMI6tEI9l0QStQIVYGsOLxF1uZjygiOz5avNmxMtRPfnR28tp4MpFJ4VZeh0VGuFjUdPwrNRvGapgB23elMCy_POFn1ioxwVjFL53iTtBbP77WRZLnA2cpBR1RrTuiTUwafoHlIBsHxze1jDoEXDFbCkSrIt-OlHeQBU3nZJ0TwtD6ZkXXfuKQ00__9hw_mY5GDuU3q-yYXOHbcvR3cWkDio9XGnfo7Swd6Ri1ZKRsRM_en1rOMF4xNhDEEnnYv_1yx1ovXbstlmunz0Bk-5LTE0AMKvx1LqlLDkfB-tE8PTszlKIhlHPN1pv4SOSMf6d7bwkZlzkFN8G1kcxyUSdQdHPL_mGQubv11vdx2VTo-RR5jw2g-h5S0WFFcrqcPG4_S4G04jvqilFQs-N7Txd4rtR62SlrXkf1kdtQE6E3LbLWX9y4IsPR8LuIlrJtlH16ws1iG9y94odvdxptlMgmVEt8dpoXHYFnzQuHVjj-KWIXQkwAM5FUg9mSgL60LXWZEE_i-lZu8C4StRImmy9EYdCB76ZsNbukjOlwDZOUxuRFRl9uy5fUBluRpNYwdrT1uziOPPwcnyoQkmGPAcbJpkTvr0pzK2tz5y88KgwBZ6uro89LDpYSr0d-Zz6-eTxk_dXL_GS0]--></g></svg>