<?xml version="1.0" encoding="us-ascii" standalone="no"?><svg xmlns="http://www.w3.org/2000/svg" xmlns:xlink="http://www.w3.org/1999/xlink" contentStyleType="text/css" height="735px" preserveAspectRatio="none" style="width:684px;height:735px;background:#FFFFFF;" version="1.1" viewBox="0 0 684 735" width="684px" zoomAndPan="magnify"><defs/><g><!--class Job--><g id="elem_Job"><rect codeLine="11" fill="#F1F1F1" height="66.6211" id="Job" rx="2.5" ry="2.5" style="stroke:#181818;stroke-width:0.5;" width="97" x="331" y="370"/><ellipse cx="365.35" cy="386" fill="#ADD1B2" rx="11" ry="11" style="stroke:#181818;stroke-width:1.0;"/><path d="M368.1156,381.875 Q368.2719,381.6563 368.4594,381.5469 Q368.6469,381.4375 368.8656,381.4375 Q369.2406,381.4375 369.475,381.7031 Q369.7094,381.9531 369.7094,382.5625 L369.7094,384.0156 Q369.7094,384.625 369.475,384.8906 Q369.2406,385.1563 368.8656,385.1563 Q368.5219,385.1563 368.3188,384.9531 Q368.1156,384.7656 368.0063,384.25 Q367.9594,383.8906 367.7719,383.7031 Q367.4438,383.3281 366.8344,383.1094 Q366.225,382.8906 365.6,382.8906 Q364.8344,382.8906 364.1938,383.2188 Q363.5688,383.5469 363.0688,384.2969 Q362.5844,385.0469 362.5844,386.0781 L362.5844,387.1719 Q362.5844,388.4063 363.475,389.2344 Q364.3656,390.0469 365.9594,390.0469 Q366.8969,390.0469 367.5531,389.7969 Q367.9438,389.6406 368.3656,389.2031 Q368.6313,388.9375 368.7719,388.8594 Q368.9281,388.7813 369.1313,388.7813 Q369.4594,388.7813 369.7094,389.0469 Q369.975,389.2969 369.975,389.6406 Q369.975,389.9844 369.6313,390.3906 Q369.1313,390.9688 368.3344,391.2969 Q367.2563,391.75 365.9594,391.75 Q364.4438,391.75 363.2406,391.125 Q362.2563,390.625 361.5688,389.5625 Q360.8813,388.4844 360.8813,387.2031 L360.8813,386.0469 Q360.8813,384.7188 361.4906,383.5781 Q362.1156,382.4219 363.2094,381.8125 Q364.3031,381.1875 365.5375,381.1875 Q366.2719,381.1875 366.9125,381.3594 Q367.5688,381.5156 368.1156,381.875 Z " fill="#000000"/><text fill="#000000" font-family="sans-serif" font-size="14" lengthAdjust="spacing" textLength="22" x="383.65" y="391.7969">Job</text><line style="stroke:#181818;stroke-width:0.5;" x1="332" x2="427" y1="402" y2="402"/><text fill="#000000" font-family="sans-serif" font-size="14" lengthAdjust="spacing" textLength="85" x="337" y="421.1074">-name: String</text><line style="stroke:#181818;stroke-width:0.5;" x1="332" x2="427" y1="428.6211" y2="428.6211"/></g><!--class JobManager--><g id="elem_JobManager"><rect codeLine="15" fill="#F1F1F1" height="66.6211" id="JobManager" rx="2.5" ry="2.5" style="stroke:#181818;stroke-width:0.5;" width="231" x="248" y="662"/><ellipse cx="320.25" cy="678" fill="#ADD1B2" rx="11" ry="11" style="stroke:#181818;stroke-width:1.0;"/><path d="M323.0156,673.875 Q323.1719,673.6563 323.3594,673.5469 Q323.5469,673.4375 323.7656,673.4375 Q324.1406,673.4375 324.375,673.7031 Q324.6094,673.9531 324.6094,674.5625 L324.6094,676.0156 Q324.6094,676.625 324.375,676.8906 Q324.1406,677.1563 323.7656,677.1563 Q323.4219,677.1563 323.2188,676.9531 Q323.0156,676.7656 322.9063,676.25 Q322.8594,675.8906 322.6719,675.7031 Q322.3438,675.3281 321.7344,675.1094 Q321.125,674.8906 320.5,674.8906 Q319.7344,674.8906 319.0938,675.2188 Q318.4688,675.5469 317.9688,676.2969 Q317.4844,677.0469 317.4844,678.0781 L317.4844,679.1719 Q317.4844,680.4063 318.375,681.2344 Q319.2656,682.0469 320.8594,682.0469 Q321.7969,682.0469 322.4531,681.7969 Q322.8438,681.6406 323.2656,681.2031 Q323.5313,680.9375 323.6719,680.8594 Q323.8281,680.7813 324.0313,680.7813 Q324.3594,680.7813 324.6094,681.0469 Q324.875,681.2969 324.875,681.6406 Q324.875,681.9844 324.5313,682.3906 Q324.0313,682.9688 323.2344,683.2969 Q322.1563,683.75 320.8594,683.75 Q319.3438,683.75 318.1406,683.125 Q317.1563,682.625 316.4688,681.5625 Q315.7813,680.4844 315.7813,679.2031 L315.7813,678.0469 Q315.7813,676.7188 316.3906,675.5781 Q317.0156,674.4219 318.1094,673.8125 Q319.2031,673.1875 320.4375,673.1875 Q321.1719,673.1875 321.8125,673.3594 Q322.4688,673.5156 323.0156,673.875 Z " fill="#000000"/><text fill="#000000" font-family="sans-serif" font-size="14" lengthAdjust="spacing" textLength="78" x="340.75" y="683.7969">JobManager</text><line style="stroke:#181818;stroke-width:0.5;" x1="249" x2="478" y1="694" y2="694"/><line style="stroke:#181818;stroke-width:0.5;" x1="249" x2="478" y1="702" y2="702"/><text fill="#000000" font-family="sans-serif" font-size="14" lengthAdjust="spacing" textLength="219" x="254" y="721.1074">+createJob(name: String): boolean</text></g><!--class HRManager--><g id="elem_HRManager"><rect codeLine="19" fill="#F1F1F1" height="66.6211" id="HRManager" rx="2.5" ry="2.5" style="stroke:#181818;stroke-width:0.5;" width="147" x="425" y="516"/><ellipse cx="458" cy="532" fill="#ADD1B2" rx="11" ry="11" style="stroke:#181818;stroke-width:1.0;"/><path d="M460.7656,527.875 Q460.9219,527.6563 461.1094,527.5469 Q461.2969,527.4375 461.5156,527.4375 Q461.8906,527.4375 462.125,527.7031 Q462.3594,527.9531 462.3594,528.5625 L462.3594,530.0156 Q462.3594,530.625 462.125,530.8906 Q461.8906,531.1563 461.5156,531.1563 Q461.1719,531.1563 460.9688,530.9531 Q460.7656,530.7656 460.6563,530.25 Q460.6094,529.8906 460.4219,529.7031 Q460.0938,529.3281 459.4844,529.1094 Q458.875,528.8906 458.25,528.8906 Q457.4844,528.8906 456.8438,529.2188 Q456.2188,529.5469 455.7188,530.2969 Q455.2344,531.0469 455.2344,532.0781 L455.2344,533.1719 Q455.2344,534.4063 456.125,535.2344 Q457.0156,536.0469 458.6094,536.0469 Q459.5469,536.0469 460.2031,535.7969 Q460.5938,535.6406 461.0156,535.2031 Q461.2813,534.9375 461.4219,534.8594 Q461.5781,534.7813 461.7813,534.7813 Q462.1094,534.7813 462.3594,535.0469 Q462.625,535.2969 462.625,535.6406 Q462.625,535.9844 462.2813,536.3906 Q461.7813,536.9688 460.9844,537.2969 Q459.9063,537.75 458.6094,537.75 Q457.0938,537.75 455.8906,537.125 Q454.9063,536.625 454.2188,535.5625 Q453.5313,534.4844 453.5313,533.2031 L453.5313,532.0469 Q453.5313,530.7188 454.1406,529.5781 Q454.7656,528.4219 455.8594,527.8125 Q456.9531,527.1875 458.1875,527.1875 Q458.9219,527.1875 459.5625,527.3594 Q460.2188,527.5156 460.7656,527.875 Z " fill="#000000"/><text fill="#000000" font-family="sans-serif" font-size="14" lengthAdjust="spacing" textLength="75" x="476" y="537.7969">HRManager</text><line style="stroke:#181818;stroke-width:0.5;" x1="426" x2="571" y1="548" y2="548"/><line style="stroke:#181818;stroke-width:0.5;" x1="426" x2="571" y1="556" y2="556"/><text fill="#000000" font-family="sans-serif" font-size="14" lengthAdjust="spacing" textLength="135" x="431" y="575.1074">+manageSkills(): void</text></g><!--class Repositories--><g id="elem_Repositories"><rect fill="#F1F1F1" height="48" id="Repositories" rx="2.5" ry="2.5" style="stroke:#181818;stroke-width:0.5;" width="111" x="428" y="7"/><ellipse cx="443" cy="23" fill="#ADD1B2" rx="11" ry="11" style="stroke:#181818;stroke-width:1.0;"/><path d="M445.7656,18.875 Q445.9219,18.6563 446.1094,18.5469 Q446.2969,18.4375 446.5156,18.4375 Q446.8906,18.4375 447.125,18.7031 Q447.3594,18.9531 447.3594,19.5625 L447.3594,21.0156 Q447.3594,21.625 447.125,21.8906 Q446.8906,22.1563 446.5156,22.1563 Q446.1719,22.1563 445.9688,21.9531 Q445.7656,21.7656 445.6563,21.25 Q445.6094,20.8906 445.4219,20.7031 Q445.0938,20.3281 444.4844,20.1094 Q443.875,19.8906 443.25,19.8906 Q442.4844,19.8906 441.8438,20.2188 Q441.2188,20.5469 440.7188,21.2969 Q440.2344,22.0469 440.2344,23.0781 L440.2344,24.1719 Q440.2344,25.4063 441.125,26.2344 Q442.0156,27.0469 443.6094,27.0469 Q444.5469,27.0469 445.2031,26.7969 Q445.5938,26.6406 446.0156,26.2031 Q446.2813,25.9375 446.4219,25.8594 Q446.5781,25.7813 446.7813,25.7813 Q447.1094,25.7813 447.3594,26.0469 Q447.625,26.2969 447.625,26.6406 Q447.625,26.9844 447.2813,27.3906 Q446.7813,27.9688 445.9844,28.2969 Q444.9063,28.75 443.6094,28.75 Q442.0938,28.75 440.8906,28.125 Q439.9063,27.625 439.2188,26.5625 Q438.5313,25.4844 438.5313,24.2031 L438.5313,23.0469 Q438.5313,21.7188 439.1406,20.5781 Q439.7656,19.4219 440.8594,18.8125 Q441.9531,18.1875 443.1875,18.1875 Q443.9219,18.1875 444.5625,18.3594 Q445.2188,18.5156 445.7656,18.875 Z " fill="#000000"/><text fill="#000000" font-family="sans-serif" font-size="14" lengthAdjust="spacing" textLength="79" x="457" y="28.7969">Repositories</text><line style="stroke:#181818;stroke-width:0.5;" x1="429" x2="538" y1="39" y2="39"/><line style="stroke:#181818;stroke-width:0.5;" x1="429" x2="538" y1="47" y2="47"/></g><!--class ApplicationSession--><g id="elem_ApplicationSession"><rect fill="#F1F1F1" height="48" id="ApplicationSession" rx="2.5" ry="2.5" style="stroke:#181818;stroke-width:0.5;" width="151" x="90" y="116"/><ellipse cx="105" cy="132" fill="#ADD1B2" rx="11" ry="11" style="stroke:#181818;stroke-width:1.0;"/><path d="M107.7656,127.875 Q107.9219,127.6563 108.1094,127.5469 Q108.2969,127.4375 108.5156,127.4375 Q108.8906,127.4375 109.125,127.7031 Q109.3594,127.9531 109.3594,128.5625 L109.3594,130.0156 Q109.3594,130.625 109.125,130.8906 Q108.8906,131.1563 108.5156,131.1563 Q108.1719,131.1563 107.9688,130.9531 Q107.7656,130.7656 107.6563,130.25 Q107.6094,129.8906 107.4219,129.7031 Q107.0938,129.3281 106.4844,129.1094 Q105.875,128.8906 105.25,128.8906 Q104.4844,128.8906 103.8438,129.2188 Q103.2188,129.5469 102.7188,130.2969 Q102.2344,131.0469 102.2344,132.0781 L102.2344,133.1719 Q102.2344,134.4063 103.125,135.2344 Q104.0156,136.0469 105.6094,136.0469 Q106.5469,136.0469 107.2031,135.7969 Q107.5938,135.6406 108.0156,135.2031 Q108.2813,134.9375 108.4219,134.8594 Q108.5781,134.7813 108.7813,134.7813 Q109.1094,134.7813 109.3594,135.0469 Q109.625,135.2969 109.625,135.6406 Q109.625,135.9844 109.2813,136.3906 Q108.7813,136.9688 107.9844,137.2969 Q106.9063,137.75 105.6094,137.75 Q104.0938,137.75 102.8906,137.125 Q101.9063,136.625 101.2188,135.5625 Q100.5313,134.4844 100.5313,133.2031 L100.5313,132.0469 Q100.5313,130.7188 101.1406,129.5781 Q101.7656,128.4219 102.8594,127.8125 Q103.9531,127.1875 105.1875,127.1875 Q105.9219,127.1875 106.5625,127.3594 Q107.2188,127.5156 107.7656,127.875 Z " fill="#000000"/><text fill="#000000" font-family="sans-serif" font-size="14" lengthAdjust="spacing" textLength="119" x="119" y="137.7969">ApplicationSession</text><line style="stroke:#181818;stroke-width:0.5;" x1="91" x2="240" y1="148" y2="148"/><line style="stroke:#181818;stroke-width:0.5;" x1="91" x2="240" y1="156" y2="156"/></g><!--class CreateJobUI--><g id="elem_CreateJobUI"><rect fill="#F1F1F1" height="48" id="CreateJobUI" rx="2.5" ry="2.5" style="stroke:#181818;stroke-width:0.5;" width="109" x="7" y="7"/><ellipse cx="22" cy="23" fill="#ADD1B2" rx="11" ry="11" style="stroke:#181818;stroke-width:1.0;"/><path d="M24.7656,18.875 Q24.9219,18.6563 25.1094,18.5469 Q25.2969,18.4375 25.5156,18.4375 Q25.8906,18.4375 26.125,18.7031 Q26.3594,18.9531 26.3594,19.5625 L26.3594,21.0156 Q26.3594,21.625 26.125,21.8906 Q25.8906,22.1563 25.5156,22.1563 Q25.1719,22.1563 24.9688,21.9531 Q24.7656,21.7656 24.6563,21.25 Q24.6094,20.8906 24.4219,20.7031 Q24.0938,20.3281 23.4844,20.1094 Q22.875,19.8906 22.25,19.8906 Q21.4844,19.8906 20.8438,20.2188 Q20.2188,20.5469 19.7188,21.2969 Q19.2344,22.0469 19.2344,23.0781 L19.2344,24.1719 Q19.2344,25.4063 20.125,26.2344 Q21.0156,27.0469 22.6094,27.0469 Q23.5469,27.0469 24.2031,26.7969 Q24.5938,26.6406 25.0156,26.2031 Q25.2813,25.9375 25.4219,25.8594 Q25.5781,25.7813 25.7813,25.7813 Q26.1094,25.7813 26.3594,26.0469 Q26.625,26.2969 26.625,26.6406 Q26.625,26.9844 26.2813,27.3906 Q25.7813,27.9688 24.9844,28.2969 Q23.9063,28.75 22.6094,28.75 Q21.0938,28.75 19.8906,28.125 Q18.9063,27.625 18.2188,26.5625 Q17.5313,25.4844 17.5313,24.2031 L17.5313,23.0469 Q17.5313,21.7188 18.1406,20.5781 Q18.7656,19.4219 19.8594,18.8125 Q20.9531,18.1875 22.1875,18.1875 Q22.9219,18.1875 23.5625,18.3594 Q24.2188,18.5156 24.7656,18.875 Z " fill="#000000"/><text fill="#000000" font-family="sans-serif" font-size="14" lengthAdjust="spacing" textLength="77" x="36" y="28.7969">CreateJobUI</text><line style="stroke:#181818;stroke-width:0.5;" x1="8" x2="115" y1="39" y2="39"/><line style="stroke:#181818;stroke-width:0.5;" x1="8" x2="115" y1="47" y2="47"/></g><!--class CreateJobController--><g id="elem_CreateJobController"><rect fill="#F1F1F1" height="48" id="CreateJobController" rx="2.5" ry="2.5" style="stroke:#181818;stroke-width:0.5;" width="159" x="151" y="7"/><ellipse cx="166" cy="23" fill="#ADD1B2" rx="11" ry="11" style="stroke:#181818;stroke-width:1.0;"/><path d="M168.7656,18.875 Q168.9219,18.6563 169.1094,18.5469 Q169.2969,18.4375 169.5156,18.4375 Q169.8906,18.4375 170.125,18.7031 Q170.3594,18.9531 170.3594,19.5625 L170.3594,21.0156 Q170.3594,21.625 170.125,21.8906 Q169.8906,22.1563 169.5156,22.1563 Q169.1719,22.1563 168.9688,21.9531 Q168.7656,21.7656 168.6563,21.25 Q168.6094,20.8906 168.4219,20.7031 Q168.0938,20.3281 167.4844,20.1094 Q166.875,19.8906 166.25,19.8906 Q165.4844,19.8906 164.8438,20.2188 Q164.2188,20.5469 163.7188,21.2969 Q163.2344,22.0469 163.2344,23.0781 L163.2344,24.1719 Q163.2344,25.4063 164.125,26.2344 Q165.0156,27.0469 166.6094,27.0469 Q167.5469,27.0469 168.2031,26.7969 Q168.5938,26.6406 169.0156,26.2031 Q169.2813,25.9375 169.4219,25.8594 Q169.5781,25.7813 169.7813,25.7813 Q170.1094,25.7813 170.3594,26.0469 Q170.625,26.2969 170.625,26.6406 Q170.625,26.9844 170.2813,27.3906 Q169.7813,27.9688 168.9844,28.2969 Q167.9063,28.75 166.6094,28.75 Q165.0938,28.75 163.8906,28.125 Q162.9063,27.625 162.2188,26.5625 Q161.5313,25.4844 161.5313,24.2031 L161.5313,23.0469 Q161.5313,21.7188 162.1406,20.5781 Q162.7656,19.4219 163.8594,18.8125 Q164.9531,18.1875 166.1875,18.1875 Q166.9219,18.1875 167.5625,18.3594 Q168.2188,18.5156 168.7656,18.875 Z " fill="#000000"/><text fill="#000000" font-family="sans-serif" font-size="14" lengthAdjust="spacing" textLength="127" x="180" y="28.7969">CreateJobController</text><line style="stroke:#181818;stroke-width:0.5;" x1="152" x2="309" y1="39" y2="39"/><line style="stroke:#181818;stroke-width:0.5;" x1="152" x2="309" y1="47" y2="47"/></g><!--class OrganizationRepository--><g id="elem_OrganizationRepository"><rect fill="#F1F1F1" height="48" id="OrganizationRepository" rx="2.5" ry="2.5" style="stroke:#181818;stroke-width:0.5;" width="180" x="497.5" y="116"/><ellipse cx="512.5" cy="132" fill="#ADD1B2" rx="11" ry="11" style="stroke:#181818;stroke-width:1.0;"/><path d="M515.2656,127.875 Q515.4219,127.6563 515.6094,127.5469 Q515.7969,127.4375 516.0156,127.4375 Q516.3906,127.4375 516.625,127.7031 Q516.8594,127.9531 516.8594,128.5625 L516.8594,130.0156 Q516.8594,130.625 516.625,130.8906 Q516.3906,131.1563 516.0156,131.1563 Q515.6719,131.1563 515.4688,130.9531 Q515.2656,130.7656 515.1563,130.25 Q515.1094,129.8906 514.9219,129.7031 Q514.5938,129.3281 513.9844,129.1094 Q513.375,128.8906 512.75,128.8906 Q511.9844,128.8906 511.3438,129.2188 Q510.7188,129.5469 510.2188,130.2969 Q509.7344,131.0469 509.7344,132.0781 L509.7344,133.1719 Q509.7344,134.4063 510.625,135.2344 Q511.5156,136.0469 513.1094,136.0469 Q514.0469,136.0469 514.7031,135.7969 Q515.0938,135.6406 515.5156,135.2031 Q515.7813,134.9375 515.9219,134.8594 Q516.0781,134.7813 516.2813,134.7813 Q516.6094,134.7813 516.8594,135.0469 Q517.125,135.2969 517.125,135.6406 Q517.125,135.9844 516.7813,136.3906 Q516.2813,136.9688 515.4844,137.2969 Q514.4063,137.75 513.1094,137.75 Q511.5938,137.75 510.3906,137.125 Q509.4063,136.625 508.7188,135.5625 Q508.0313,134.4844 508.0313,133.2031 L508.0313,132.0469 Q508.0313,130.7188 508.6406,129.5781 Q509.2656,128.4219 510.3594,127.8125 Q511.4531,127.1875 512.6875,127.1875 Q513.4219,127.1875 514.0625,127.3594 Q514.7188,127.5156 515.2656,127.875 Z " fill="#000000"/><text fill="#000000" font-family="sans-serif" font-size="14" lengthAdjust="spacing" textLength="148" x="526.5" y="137.7969">OrganizationRepository</text><line style="stroke:#181818;stroke-width:0.5;" x1="498.5" x2="676.5" y1="148" y2="148"/><line style="stroke:#181818;stroke-width:0.5;" x1="498.5" x2="676.5" y1="156" y2="156"/></g><!--class Organization--><g id="elem_Organization"><rect fill="#F1F1F1" height="48" id="Organization" rx="2.5" ry="2.5" style="stroke:#181818;stroke-width:0.5;" width="112" x="393.5" y="243"/><ellipse cx="408.5" cy="259" fill="#ADD1B2" rx="11" ry="11" style="stroke:#181818;stroke-width:1.0;"/><path d="M411.2656,254.875 Q411.4219,254.6563 411.6094,254.5469 Q411.7969,254.4375 412.0156,254.4375 Q412.3906,254.4375 412.625,254.7031 Q412.8594,254.9531 412.8594,255.5625 L412.8594,257.0156 Q412.8594,257.625 412.625,257.8906 Q412.3906,258.1563 412.0156,258.1563 Q411.6719,258.1563 411.4688,257.9531 Q411.2656,257.7656 411.1563,257.25 Q411.1094,256.8906 410.9219,256.7031 Q410.5938,256.3281 409.9844,256.1094 Q409.375,255.8906 408.75,255.8906 Q407.9844,255.8906 407.3438,256.2188 Q406.7188,256.5469 406.2188,257.2969 Q405.7344,258.0469 405.7344,259.0781 L405.7344,260.1719 Q405.7344,261.4063 406.625,262.2344 Q407.5156,263.0469 409.1094,263.0469 Q410.0469,263.0469 410.7031,262.7969 Q411.0938,262.6406 411.5156,262.2031 Q411.7813,261.9375 411.9219,261.8594 Q412.0781,261.7813 412.2813,261.7813 Q412.6094,261.7813 412.8594,262.0469 Q413.125,262.2969 413.125,262.6406 Q413.125,262.9844 412.7813,263.3906 Q412.2813,263.9688 411.4844,264.2969 Q410.4063,264.75 409.1094,264.75 Q407.5938,264.75 406.3906,264.125 Q405.4063,263.625 404.7188,262.5625 Q404.0313,261.4844 404.0313,260.2031 L404.0313,259.0469 Q404.0313,257.7188 404.6406,256.5781 Q405.2656,255.4219 406.3594,254.8125 Q407.4531,254.1875 408.6875,254.1875 Q409.4219,254.1875 410.0625,254.3594 Q410.7188,254.5156 411.2656,254.875 Z " fill="#000000"/><text fill="#000000" font-family="sans-serif" font-size="14" lengthAdjust="spacing" textLength="80" x="422.5" y="264.7969">Organization</text><line style="stroke:#181818;stroke-width:0.5;" x1="394.5" x2="504.5" y1="275" y2="275"/><line style="stroke:#181818;stroke-width:0.5;" x1="394.5" x2="504.5" y1="283" y2="283"/></g><!--class UserSession--><g id="elem_UserSession"><rect fill="#F1F1F1" height="48" id="UserSession" rx="2.5" ry="2.5" style="stroke:#181818;stroke-width:0.5;" width="111" x="14" y="243"/><ellipse cx="29" cy="259" fill="#ADD1B2" rx="11" ry="11" style="stroke:#181818;stroke-width:1.0;"/><path d="M31.7656,254.875 Q31.9219,254.6563 32.1094,254.5469 Q32.2969,254.4375 32.5156,254.4375 Q32.8906,254.4375 33.125,254.7031 Q33.3594,254.9531 33.3594,255.5625 L33.3594,257.0156 Q33.3594,257.625 33.125,257.8906 Q32.8906,258.1563 32.5156,258.1563 Q32.1719,258.1563 31.9688,257.9531 Q31.7656,257.7656 31.6563,257.25 Q31.6094,256.8906 31.4219,256.7031 Q31.0938,256.3281 30.4844,256.1094 Q29.875,255.8906 29.25,255.8906 Q28.4844,255.8906 27.8438,256.2188 Q27.2188,256.5469 26.7188,257.2969 Q26.2344,258.0469 26.2344,259.0781 L26.2344,260.1719 Q26.2344,261.4063 27.125,262.2344 Q28.0156,263.0469 29.6094,263.0469 Q30.5469,263.0469 31.2031,262.7969 Q31.5938,262.6406 32.0156,262.2031 Q32.2813,261.9375 32.4219,261.8594 Q32.5781,261.7813 32.7813,261.7813 Q33.1094,261.7813 33.3594,262.0469 Q33.625,262.2969 33.625,262.6406 Q33.625,262.9844 33.2813,263.3906 Q32.7813,263.9688 31.9844,264.2969 Q30.9063,264.75 29.6094,264.75 Q28.0938,264.75 26.8906,264.125 Q25.9063,263.625 25.2188,262.5625 Q24.5313,261.4844 24.5313,260.2031 L24.5313,259.0469 Q24.5313,257.7188 25.1406,256.5781 Q25.7656,255.4219 26.8594,254.8125 Q27.9531,254.1875 29.1875,254.1875 Q29.9219,254.1875 30.5625,254.3594 Q31.2188,254.5156 31.7656,254.875 Z " fill="#000000"/><text fill="#000000" font-family="sans-serif" font-size="14" lengthAdjust="spacing" textLength="79" x="43" y="264.7969">UserSession</text><line style="stroke:#181818;stroke-width:0.5;" x1="15" x2="124" y1="275" y2="275"/><line style="stroke:#181818;stroke-width:0.5;" x1="15" x2="124" y1="283" y2="283"/></g><!--link JobManager to Job--><g id="link_JobManager_Job"><path codeLine="23" d="M360.29,661.95 C357.04,629.04 352.5,583 352.5,583 C352.5,583 352.5,516 352.5,516 C352.5,516 362.2378,475.7914 370.2078,442.8814 " fill="none" id="JobManager-to-Job" style="stroke:#181818;stroke-width:1.0;"/><polygon fill="#181818" points="371.62,437.05,365.614,444.8557,370.4431,441.9095,373.3893,446.7386,371.62,437.05" style="stroke:#181818;stroke-width:1.0;"/><text fill="#000000" font-family="sans-serif" font-size="13" lengthAdjust="spacing" textLength="53" x="353.5" y="555.0283">Manages</text></g><!--link HRManager to JobManager--><g id="link_HRManager_JobManager"><path codeLine="24" d="M467.87,583.18 C445.77,606.74 420.1847,634.0438 398.1147,657.5738 " fill="none" id="HRManager-to-JobManager" style="stroke:#181818;stroke-width:1.0;"/><polygon fill="#181818" points="394.01,661.95,403.0845,658.1221,397.4306,658.3031,397.2496,652.6492,394.01,661.95" style="stroke:#181818;stroke-width:1.0;"/><text fill="#000000" font-family="sans-serif" font-size="13" lengthAdjust="spacing" textLength="30" x="439.5" y="628.0283">Uses</text></g><!--link Repositories to Repositories--><g id="link_Repositories_Repositories"><path codeLine="27" d="M539.18,20.88 C558.44,20.77 574,24.14 574,31 C574,37.86 564.4399,41.2643 545.1799,41.1543 " fill="none" id="Repositories-to-Repositories" style="stroke:#181818;stroke-width:1.0;"/><polygon fill="#181818" points="539.18,41.12,548.157,45.1713,544.1799,41.1486,548.2027,37.1715,539.18,41.12" style="stroke:#181818;stroke-width:1.0;"/><text fill="#000000" font-family="sans-serif" font-size="13" lengthAdjust="spacing" textLength="49" x="580" y="36.5283">instance</text></g><!--link ApplicationSession to ApplicationSession--><g id="link_ApplicationSession_ApplicationSession"><path codeLine="28" d="M241.16,129.97 C261,130.57 276,133.91 276,140 C276,146.09 266.9973,149.2486 247.1573,149.8486 " fill="none" id="ApplicationSession-to-ApplicationSession" style="stroke:#181818;stroke-width:1.0;"/><polygon fill="#181818" points="241.16,150.03,250.2768,153.7561,246.1577,149.8789,250.035,145.7598,241.16,150.03" style="stroke:#181818;stroke-width:1.0;"/><text fill="#000000" font-family="sans-serif" font-size="13" lengthAdjust="spacing" textLength="49" x="282" y="145.5283">instance</text></g><!--link CreateJobUI to CreateJobController--><g id="link_CreateJobUI_CreateJobController"><path codeLine="30" d="M116.44,31 C117.34,31 117.83,31 117.83,31 C117.83,31 129.41,31 144.93,31 " fill="none" id="CreateJobUI-to-CreateJobController" style="stroke:#181818;stroke-width:1.0;stroke-dasharray:7.0,7.0;"/><polygon fill="#181818" points="150.93,31,141.93,27,145.93,31,141.93,35,150.93,31" style="stroke:#181818;stroke-width:1.0;"/></g><!--link CreateJobController to Repositories--><g id="link_CreateJobController_Repositories"><path codeLine="32" d="M310.2,31 C348.44,31 387.32,31 421.83,31 " fill="none" id="CreateJobController-to-Repositories" style="stroke:#181818;stroke-width:1.0;stroke-dasharray:7.0,7.0;"/><polygon fill="#181818" points="427.83,31,418.83,27,422.83,31,418.83,35,427.83,31" style="stroke:#181818;stroke-width:1.0;"/><text fill="#000000" font-family="sans-serif" font-size="13" lengthAdjust="spacing" textLength="67" x="335.5" y="24.0283">repositories</text></g><!--link Repositories to OrganizationRepository--><g id="link_Repositories_OrganizationRepository"><path codeLine="34" d="M506.07,55.22 C523.51,73.16 543.3577,93.5878 560.7977,111.5278 " fill="none" id="Repositories-to-OrganizationRepository" style="stroke:#181818;stroke-width:1.0;"/><polygon fill="#181818" points="564.98,115.83,561.5747,106.5886,561.4948,112.2449,555.8385,112.1649,564.98,115.83" style="stroke:#181818;stroke-width:1.0;"/><text fill="#000000" font-family="sans-serif" font-size="13" lengthAdjust="spacing" textLength="7" x="551.6376" y="104.9305">1</text></g><!--link OrganizationRepository to Organization--><g id="link_OrganizationRepository_Organization"><path codeLine="36" d="M561.87,164.22 C537.08,186.67 504.1869,216.4719 479.4469,238.8819 " fill="none" id="OrganizationRepository-to-Organization" style="stroke:#181818;stroke-width:1.0;"/><polygon fill="#181818" points="475,242.91,484.3557,239.8325,478.7057,239.5533,478.9849,233.9033,475,242.91" style="stroke:#181818;stroke-width:1.0;"/><text fill="#000000" font-family="sans-serif" font-size="13" lengthAdjust="spacing" textLength="5" x="475.8938" y="231.6244">*</text></g><!--link ApplicationSession to UserSession--><g id="link_ApplicationSession_UserSession"><path codeLine="37" d="M147.67,164.22 C130.43,186.67 108.1045,215.7413 90.8945,238.1513 " fill="none" id="ApplicationSession-to-UserSession" style="stroke:#181818;stroke-width:1.0;"/><polygon fill="#181818" points="87.24,242.91,95.8941,238.2083,90.2854,238.9444,89.5493,233.3357,87.24,242.91" style="stroke:#181818;stroke-width:1.0;"/><text fill="#000000" font-family="sans-serif" font-size="13" lengthAdjust="spacing" textLength="72" x="123.5" y="209.0283">userSession</text><text fill="#000000" font-family="sans-serif" font-size="13" lengthAdjust="spacing" textLength="7" x="83.889" y="231.6244">1</text></g><!--link CreateJobController to Organization--><g id="link_CreateJobController_Organization"><path codeLine="39" d="M260.02,55.18 C291.69,80.04 337.5,116 337.5,116 C337.5,116 397.2397,196.0127 428.6597,238.0827 " fill="none" id="CreateJobController-to-Organization" style="stroke:#181818;stroke-width:1.0;stroke-dasharray:7.0,7.0;"/><polygon fill="#181818" points="432.25,242.89,430.0694,233.2856,429.2581,238.884,423.6597,238.0726,432.25,242.89" style="stroke:#181818;stroke-width:1.0;"/><text fill="#000000" font-family="sans-serif" font-size="13" lengthAdjust="spacing" textLength="70" x="372.5" y="145.5283">organization</text><text fill="#000000" font-family="sans-serif" font-size="13" lengthAdjust="spacing" textLength="7" x="419.9328" y="231.5993">1</text></g><!--link CreateJobController to ApplicationSession--><g id="link_CreateJobController_ApplicationSession"><path codeLine="40" d="M216.4,55.22 C205.49,73.16 193.5834,92.761 182.6934,110.701 " fill="none" id="CreateJobController-to-ApplicationSession" style="stroke:#181818;stroke-width:1.0;stroke-dasharray:7.0,7.0;"/><polygon fill="#181818" points="179.58,115.83,187.6695,110.2121,182.1745,111.5558,180.8308,106.0609,179.58,115.83" style="stroke:#181818;stroke-width:1.0;"/></g><!--link CreateJobController to UserSession--><g id="link_CreateJobController_UserSession"><path codeLine="41" d="M186.91,55.18 C140.14,80.04 72.5,116 72.5,116 C72.5,116 70.9198,194.8212 70.0798,236.8912 " fill="none" id="CreateJobController-to-UserSession" style="stroke:#181818;stroke-width:1.0;stroke-dasharray:7.0,7.0;"/><polygon fill="#181818" points="69.96,242.89,74.1389,233.9716,70.0598,237.891,66.1405,233.8119,69.96,242.89" style="stroke:#181818;stroke-width:1.0;"/></g><!--link Organization to Job--><g id="link_Organization_Job"><path codeLine="42" d="M435.12,291.09 C426.23,305.37 416.5,321 416.5,321 C416.5,321 407.1099,341.6865 396.8199,364.3565 " fill="none" id="Organization-to-Job" style="stroke:#181818;stroke-width:1.0;"/><polygon fill="#181818" points="394.34,369.82,401.7022,363.278,396.4066,365.2671,394.4175,359.9714,394.34,369.82" style="stroke:#181818;stroke-width:1.0;"/><text fill="#000000" font-family="sans-serif" font-size="13" lengthAdjust="spacing" textLength="54" x="417.5" y="336.0283">attributes</text><text fill="#000000" font-family="sans-serif" font-size="13" lengthAdjust="spacing" textLength="7" x="423.7618" y="313.0976">1</text><text fill="#000000" font-family="sans-serif" font-size="13" lengthAdjust="spacing" textLength="5" x="391.7694" y="358.6101">*</text></g><!--link Job to HRManager--><g id="link_Job_HRManager"><path codeLine="43" d="M392.33,437.18 C401.23,459.85 411.5,486 411.5,486 C411.5,486 427.2074,497.2788 448.3474,512.4688 " fill="none" id="Job-to-HRManager" style="stroke:#181818;stroke-width:1.0;"/><polygon fill="#181818" points="453.22,515.97,448.2452,507.4699,449.1595,513.0524,443.577,513.9667,453.22,515.97" style="stroke:#181818;stroke-width:1.0;"/><text fill="#000000" font-family="sans-serif" font-size="13" lengthAdjust="spacing" textLength="59" x="412.5" y="482.0283">createdBy</text></g><!--link Organization to HRManager--><g id="link_Organization_HRManager"><path codeLine="45" d="M461.26,291.09 C468.54,305.37 476.5,321 476.5,321 C476.5,321 488.6818,447.0279 494.7718,509.9279 " fill="none" id="Organization-to-HRManager" style="stroke:#181818;stroke-width:1.0;"/><polygon fill="#181818" points="495.35,515.9,498.4641,506.5564,494.8682,510.9233,490.5013,507.3274,495.35,515.9" style="stroke:#181818;stroke-width:1.0;"/><text fill="#000000" font-family="sans-serif" font-size="13" lengthAdjust="spacing" textLength="49" x="488.5" y="409.0283">employs</text><text fill="#000000" font-family="sans-serif" font-size="13" lengthAdjust="spacing" textLength="5" x="489.2377" y="504.7058">*</text></g><!--SRC=[TLB1Ri8m3BtxAomki4sWxTe34kCo9asJgFY0q9eIaSPL4ZQLQV- -f1GQkiAbijzxzdl1OtkGkX96b5Yovcnlk2HqvaZG8PN83gAWrDMAq53cX2vKJB1xaVEtr0NkXB8negGcLrU45Qiw530U0DauXaYLAM7jmZaZjqT7gunrAa-4pm1ZHJk7Zj78Okymby6EP0tGQF2Tj_W3w7zJrAAa15C_HHVm6p4-XFPnJ4jymioGSEI1IInvI73Bh4ZeJlosxclBfauFKYaxyP8lbddWHskcqtdOck2vOQ6Rqa9jcU36UXXWJHLRwTX8ikWfDtM2Kbl_5sG4YwfICXFX0LAordy2Uw0RQM1vIRjPuMoErtB9sXbMYap4wPg1s_DXeh9lsliOlOpmqnH2orDZvage0ORxPzdZhMmmPJlUlvVfCXwxwaw4sNzNNiVnjdkw_oxkKYDNDq6RtPU8uL8J59SZj-5Y6h2xZgIzpForzsBN8J6NoafnRU4F]--></g></svg>