<?xml version="1.0" encoding="us-ascii" standalone="no"?><svg xmlns="http://www.w3.org/2000/svg" xmlns:xlink="http://www.w3.org/1999/xlink" contentStyleType="text/css" height="1344px" preserveAspectRatio="none" style="width:1378px;height:1344px;background:#FFFFFF;" version="1.1" viewBox="0 0 1378 1344" width="1378px" zoomAndPan="magnify"><defs/><g><!--class ApplicationSession--><g id="elem_ApplicationSession"><rect codeLine="11" fill="#F1F1F1" height="85.2422" id="ApplicationSession" rx="2.5" ry="2.5" style="stroke:#181818;stroke-width:0.5;" width="151" x="1124.5" y="217.5"/><ellipse cx="1139.5" cy="233.5" fill="#ADD1B2" rx="11" ry="11" style="stroke:#181818;stroke-width:1.0;"/><path d="M1142.2656,229.375 Q1142.4219,229.1563 1142.6094,229.0469 Q1142.7969,228.9375 1143.0156,228.9375 Q1143.3906,228.9375 1143.625,229.2031 Q1143.8594,229.4531 1143.8594,230.0625 L1143.8594,231.5156 Q1143.8594,232.125 1143.625,232.3906 Q1143.3906,232.6563 1143.0156,232.6563 Q1142.6719,232.6563 1142.4688,232.4531 Q1142.2656,232.2656 1142.1563,231.75 Q1142.1094,231.3906 1141.9219,231.2031 Q1141.5938,230.8281 1140.9844,230.6094 Q1140.375,230.3906 1139.75,230.3906 Q1138.9844,230.3906 1138.3438,230.7188 Q1137.7188,231.0469 1137.2188,231.7969 Q1136.7344,232.5469 1136.7344,233.5781 L1136.7344,234.6719 Q1136.7344,235.9063 1137.625,236.7344 Q1138.5156,237.5469 1140.1094,237.5469 Q1141.0469,237.5469 1141.7031,237.2969 Q1142.0938,237.1406 1142.5156,236.7031 Q1142.7813,236.4375 1142.9219,236.3594 Q1143.0781,236.2813 1143.2813,236.2813 Q1143.6094,236.2813 1143.8594,236.5469 Q1144.125,236.7969 1144.125,237.1406 Q1144.125,237.4844 1143.7813,237.8906 Q1143.2813,238.4688 1142.4844,238.7969 Q1141.4063,239.25 1140.1094,239.25 Q1138.5938,239.25 1137.3906,238.625 Q1136.4063,238.125 1135.7188,237.0625 Q1135.0313,235.9844 1135.0313,234.7031 L1135.0313,233.5469 Q1135.0313,232.2188 1135.6406,231.0781 Q1136.2656,229.9219 1137.3594,229.3125 Q1138.4531,228.6875 1139.6875,228.6875 Q1140.4219,228.6875 1141.0625,228.8594 Q1141.7188,229.0156 1142.2656,229.375 Z " fill="#000000"/><text fill="#000000" font-family="sans-serif" font-size="14" lengthAdjust="spacing" textLength="119" x="1153.5" y="239.2969">ApplicationSession</text><line style="stroke:#181818;stroke-width:0.5;" x1="1125.5" x2="1274.5" y1="249.5" y2="249.5"/><line style="stroke:#181818;stroke-width:0.5;" x1="1125.5" x2="1274.5" y1="257.5" y2="257.5"/><text fill="#000000" font-family="sans-serif" font-size="14" lengthAdjust="spacing" textLength="128" x="1130.5" y="276.6074">+static getInstance()</text><text fill="#000000" font-family="sans-serif" font-size="14" lengthAdjust="spacing" textLength="136" x="1130.5" y="295.2285">+getCurrentSession()</text></g><!--class UserSession--><g id="elem_UserSession"><rect codeLine="17" fill="#F1F1F1" height="66.6211" id="UserSession" rx="2.5" ry="2.5" style="stroke:#181818;stroke-width:0.5;" width="113" x="1061.5" y="428"/><ellipse cx="1077.4" cy="444" fill="#ADD1B2" rx="11" ry="11" style="stroke:#181818;stroke-width:1.0;"/><path d="M1080.1656,439.875 Q1080.3219,439.6563 1080.5094,439.5469 Q1080.6969,439.4375 1080.9156,439.4375 Q1081.2906,439.4375 1081.525,439.7031 Q1081.7594,439.9531 1081.7594,440.5625 L1081.7594,442.0156 Q1081.7594,442.625 1081.525,442.8906 Q1081.2906,443.1563 1080.9156,443.1563 Q1080.5719,443.1563 1080.3688,442.9531 Q1080.1656,442.7656 1080.0563,442.25 Q1080.0094,441.8906 1079.8219,441.7031 Q1079.4938,441.3281 1078.8844,441.1094 Q1078.275,440.8906 1077.65,440.8906 Q1076.8844,440.8906 1076.2438,441.2188 Q1075.6188,441.5469 1075.1188,442.2969 Q1074.6344,443.0469 1074.6344,444.0781 L1074.6344,445.1719 Q1074.6344,446.4063 1075.525,447.2344 Q1076.4156,448.0469 1078.0094,448.0469 Q1078.9469,448.0469 1079.6031,447.7969 Q1079.9938,447.6406 1080.4156,447.2031 Q1080.6813,446.9375 1080.8219,446.8594 Q1080.9781,446.7813 1081.1813,446.7813 Q1081.5094,446.7813 1081.7594,447.0469 Q1082.025,447.2969 1082.025,447.6406 Q1082.025,447.9844 1081.6813,448.3906 Q1081.1813,448.9688 1080.3844,449.2969 Q1079.3063,449.75 1078.0094,449.75 Q1076.4938,449.75 1075.2906,449.125 Q1074.3063,448.625 1073.6188,447.5625 Q1072.9313,446.4844 1072.9313,445.2031 L1072.9313,444.0469 Q1072.9313,442.7188 1073.5406,441.5781 Q1074.1656,440.4219 1075.2594,439.8125 Q1076.3531,439.1875 1077.5875,439.1875 Q1078.3219,439.1875 1078.9625,439.3594 Q1079.6188,439.5156 1080.1656,439.875 Z " fill="#000000"/><text fill="#000000" font-family="sans-serif" font-size="14" lengthAdjust="spacing" textLength="79" x="1091.6" y="449.7969">UserSession</text><line style="stroke:#181818;stroke-width:0.5;" x1="1062.5" x2="1173.5" y1="460" y2="460"/><line style="stroke:#181818;stroke-width:0.5;" x1="1062.5" x2="1173.5" y1="468" y2="468"/><text fill="#000000" font-family="sans-serif" font-size="14" lengthAdjust="spacing" textLength="101" x="1067.5" y="487.1074">+getUserEmail()</text></g><!--class Job--><g id="elem_Job"><rect codeLine="22" fill="#F1F1F1" height="66.6211" id="Job" rx="2.5" ry="2.5" style="stroke:#181818;stroke-width:0.5;" width="97" x="242.5" y="1271"/><ellipse cx="276.85" cy="1287" fill="#ADD1B2" rx="11" ry="11" style="stroke:#181818;stroke-width:1.0;"/><path d="M279.6156,1282.875 Q279.7719,1282.6563 279.9594,1282.5469 Q280.1469,1282.4375 280.3656,1282.4375 Q280.7406,1282.4375 280.975,1282.7031 Q281.2094,1282.9531 281.2094,1283.5625 L281.2094,1285.0156 Q281.2094,1285.625 280.975,1285.8906 Q280.7406,1286.1563 280.3656,1286.1563 Q280.0219,1286.1563 279.8188,1285.9531 Q279.6156,1285.7656 279.5063,1285.25 Q279.4594,1284.8906 279.2719,1284.7031 Q278.9438,1284.3281 278.3344,1284.1094 Q277.725,1283.8906 277.1,1283.8906 Q276.3344,1283.8906 275.6938,1284.2188 Q275.0688,1284.5469 274.5688,1285.2969 Q274.0844,1286.0469 274.0844,1287.0781 L274.0844,1288.1719 Q274.0844,1289.4063 274.975,1290.2344 Q275.8656,1291.0469 277.4594,1291.0469 Q278.3969,1291.0469 279.0531,1290.7969 Q279.4438,1290.6406 279.8656,1290.2031 Q280.1313,1289.9375 280.2719,1289.8594 Q280.4281,1289.7813 280.6313,1289.7813 Q280.9594,1289.7813 281.2094,1290.0469 Q281.475,1290.2969 281.475,1290.6406 Q281.475,1290.9844 281.1313,1291.3906 Q280.6313,1291.9688 279.8344,1292.2969 Q278.7563,1292.75 277.4594,1292.75 Q275.9438,1292.75 274.7406,1292.125 Q273.7563,1291.625 273.0688,1290.5625 Q272.3813,1289.4844 272.3813,1288.2031 L272.3813,1287.0469 Q272.3813,1285.7188 272.9906,1284.5781 Q273.6156,1283.4219 274.7094,1282.8125 Q275.8031,1282.1875 277.0375,1282.1875 Q277.7719,1282.1875 278.4125,1282.3594 Q279.0688,1282.5156 279.6156,1282.875 Z " fill="#000000"/><text fill="#000000" font-family="sans-serif" font-size="14" lengthAdjust="spacing" textLength="22" x="295.15" y="1292.7969">Job</text><line style="stroke:#181818;stroke-width:0.5;" x1="243.5" x2="338.5" y1="1303" y2="1303"/><text fill="#000000" font-family="sans-serif" font-size="14" lengthAdjust="spacing" textLength="85" x="248.5" y="1322.1074">-name: String</text><line style="stroke:#181818;stroke-width:0.5;" x1="243.5" x2="338.5" y1="1329.6211" y2="1329.6211"/></g><!--class JobRepository--><g id="elem_JobRepository"><rect codeLine="26" fill="#F1F1F1" height="141.1055" id="JobRepository" rx="2.5" ry="2.5" style="stroke:#181818;stroke-width:0.5;" width="226" x="653" y="391"/><ellipse cx="716.75" cy="407" fill="#ADD1B2" rx="11" ry="11" style="stroke:#181818;stroke-width:1.0;"/><path d="M719.5156,402.875 Q719.6719,402.6563 719.8594,402.5469 Q720.0469,402.4375 720.2656,402.4375 Q720.6406,402.4375 720.875,402.7031 Q721.1094,402.9531 721.1094,403.5625 L721.1094,405.0156 Q721.1094,405.625 720.875,405.8906 Q720.6406,406.1563 720.2656,406.1563 Q719.9219,406.1563 719.7188,405.9531 Q719.5156,405.7656 719.4063,405.25 Q719.3594,404.8906 719.1719,404.7031 Q718.8438,404.3281 718.2344,404.1094 Q717.625,403.8906 717,403.8906 Q716.2344,403.8906 715.5938,404.2188 Q714.9688,404.5469 714.4688,405.2969 Q713.9844,406.0469 713.9844,407.0781 L713.9844,408.1719 Q713.9844,409.4063 714.875,410.2344 Q715.7656,411.0469 717.3594,411.0469 Q718.2969,411.0469 718.9531,410.7969 Q719.3438,410.6406 719.7656,410.2031 Q720.0313,409.9375 720.1719,409.8594 Q720.3281,409.7813 720.5313,409.7813 Q720.8594,409.7813 721.1094,410.0469 Q721.375,410.2969 721.375,410.6406 Q721.375,410.9844 721.0313,411.3906 Q720.5313,411.9688 719.7344,412.2969 Q718.6563,412.75 717.3594,412.75 Q715.8438,412.75 714.6406,412.125 Q713.6563,411.625 712.9688,410.5625 Q712.2813,409.4844 712.2813,408.2031 L712.2813,407.0469 Q712.2813,405.7188 712.8906,404.5781 Q713.5156,403.4219 714.6094,402.8125 Q715.7031,402.1875 716.9375,402.1875 Q717.6719,402.1875 718.3125,402.3594 Q718.9688,402.5156 719.5156,402.875 Z " fill="#000000"/><text fill="#000000" font-family="sans-serif" font-size="14" lengthAdjust="spacing" textLength="90" x="737.25" y="412.7969">JobRepository</text><line style="stroke:#181818;stroke-width:0.5;" x1="654" x2="878" y1="423" y2="423"/><text fill="#000000" font-family="sans-serif" font-size="14" lengthAdjust="spacing" textLength="95" x="659" y="442.1074">-List&lt;Job&gt; jobs</text><line style="stroke:#181818;stroke-width:0.5;" x1="654" x2="878" y1="449.6211" y2="449.6211"/><text fill="#000000" font-family="sans-serif" font-size="14" lengthAdjust="spacing" textLength="182" x="659" y="468.7285">+Optional&lt;Job&gt; add(Job job)</text><text fill="#000000" font-family="sans-serif" font-size="14" lengthAdjust="spacing" textLength="189" x="659" y="487.3496">+boolean validateJob(Job job)</text><text fill="#000000" font-family="sans-serif" font-size="14" lengthAdjust="spacing" textLength="131" x="659" y="505.9707">+List&lt;Job&gt; getJobs()</text><text fill="#000000" font-family="sans-serif" font-size="14" lengthAdjust="spacing" textLength="214" x="659" y="524.5918">+Job getJobByName(String name)</text></g><!--class Organization--><g id="elem_Organization"><rect codeLine="34" fill="#F1F1F1" height="234.2109" id="Organization" rx="2.5" ry="2.5" style="stroke:#181818;stroke-width:0.5;" width="263" x="243.5" y="611"/><ellipse cx="330.75" cy="627" fill="#ADD1B2" rx="11" ry="11" style="stroke:#181818;stroke-width:1.0;"/><path d="M333.5156,622.875 Q333.6719,622.6563 333.8594,622.5469 Q334.0469,622.4375 334.2656,622.4375 Q334.6406,622.4375 334.875,622.7031 Q335.1094,622.9531 335.1094,623.5625 L335.1094,625.0156 Q335.1094,625.625 334.875,625.8906 Q334.6406,626.1563 334.2656,626.1563 Q333.9219,626.1563 333.7188,625.9531 Q333.5156,625.7656 333.4063,625.25 Q333.3594,624.8906 333.1719,624.7031 Q332.8438,624.3281 332.2344,624.1094 Q331.625,623.8906 331,623.8906 Q330.2344,623.8906 329.5938,624.2188 Q328.9688,624.5469 328.4688,625.2969 Q327.9844,626.0469 327.9844,627.0781 L327.9844,628.1719 Q327.9844,629.4063 328.875,630.2344 Q329.7656,631.0469 331.3594,631.0469 Q332.2969,631.0469 332.9531,630.7969 Q333.3438,630.6406 333.7656,630.2031 Q334.0313,629.9375 334.1719,629.8594 Q334.3281,629.7813 334.5313,629.7813 Q334.8594,629.7813 335.1094,630.0469 Q335.375,630.2969 335.375,630.6406 Q335.375,630.9844 335.0313,631.3906 Q334.5313,631.9688 333.7344,632.2969 Q332.6563,632.75 331.3594,632.75 Q329.8438,632.75 328.6406,632.125 Q327.6563,631.625 326.9688,630.5625 Q326.2813,629.4844 326.2813,628.2031 L326.2813,627.0469 Q326.2813,625.7188 326.8906,624.5781 Q327.5156,623.4219 328.6094,622.8125 Q329.7031,622.1875 330.9375,622.1875 Q331.6719,622.1875 332.3125,622.3594 Q332.9688,622.5156 333.5156,622.875 Z " fill="#000000"/><text fill="#000000" font-family="sans-serif" font-size="14" lengthAdjust="spacing" textLength="80" x="351.25" y="632.7969">Organization</text><line style="stroke:#181818;stroke-width:0.5;" x1="244.5" x2="505.5" y1="643" y2="643"/><text fill="#000000" font-family="sans-serif" font-size="14" lengthAdjust="spacing" textLength="81" x="249.5" y="662.1074">-String name</text><text fill="#000000" font-family="sans-serif" font-size="14" lengthAdjust="spacing" textLength="114" x="249.5" y="680.7285">-String vatNumber</text><text fill="#000000" font-family="sans-serif" font-size="14" lengthAdjust="spacing" textLength="97" x="249.5" y="699.3496">-String address</text><text fill="#000000" font-family="sans-serif" font-size="14" lengthAdjust="spacing" textLength="86" x="249.5" y="717.9707">-String phone</text><text fill="#000000" font-family="sans-serif" font-size="14" lengthAdjust="spacing" textLength="79" x="249.5" y="736.5918">-String email</text><line style="stroke:#181818;stroke-width:0.5;" x1="244.5" x2="505.5" y1="744.1055" y2="744.1055"/><text fill="#000000" font-family="sans-serif" font-size="14" lengthAdjust="spacing" textLength="251" x="249.5" y="763.2129">+Optional&lt;Job&gt; createJob(String name)</text><text fill="#000000" font-family="sans-serif" font-size="14" lengthAdjust="spacing" textLength="164" x="249.5" y="781.834">+boolean addJob(Job job)</text><text fill="#000000" font-family="sans-serif" font-size="14" lengthAdjust="spacing" textLength="189" x="249.5" y="800.4551">+boolean validateJob(Job job)</text><text fill="#000000" font-family="sans-serif" font-size="14" lengthAdjust="spacing" textLength="232" x="249.5" y="819.0762">+boolean jobsDoNotContain(Job job)</text><text fill="#000000" font-family="sans-serif" font-size="14" lengthAdjust="spacing" textLength="168" x="249.5" y="837.6973">+boolean equals(Object o)</text></g><!--class OrganizationRepository--><g id="elem_OrganizationRepository"><rect codeLine="47" fill="#F1F1F1" height="85.2422" id="OrganizationRepository" rx="2.5" ry="2.5" style="stroke:#181818;stroke-width:0.5;" width="248" x="370" y="419"/><ellipse cx="415.75" cy="435" fill="#ADD1B2" rx="11" ry="11" style="stroke:#181818;stroke-width:1.0;"/><path d="M418.5156,430.875 Q418.6719,430.6563 418.8594,430.5469 Q419.0469,430.4375 419.2656,430.4375 Q419.6406,430.4375 419.875,430.7031 Q420.1094,430.9531 420.1094,431.5625 L420.1094,433.0156 Q420.1094,433.625 419.875,433.8906 Q419.6406,434.1563 419.2656,434.1563 Q418.9219,434.1563 418.7188,433.9531 Q418.5156,433.7656 418.4063,433.25 Q418.3594,432.8906 418.1719,432.7031 Q417.8438,432.3281 417.2344,432.1094 Q416.625,431.8906 416,431.8906 Q415.2344,431.8906 414.5938,432.2188 Q413.9688,432.5469 413.4688,433.2969 Q412.9844,434.0469 412.9844,435.0781 L412.9844,436.1719 Q412.9844,437.4063 413.875,438.2344 Q414.7656,439.0469 416.3594,439.0469 Q417.2969,439.0469 417.9531,438.7969 Q418.3438,438.6406 418.7656,438.2031 Q419.0313,437.9375 419.1719,437.8594 Q419.3281,437.7813 419.5313,437.7813 Q419.8594,437.7813 420.1094,438.0469 Q420.375,438.2969 420.375,438.6406 Q420.375,438.9844 420.0313,439.3906 Q419.5313,439.9688 418.7344,440.2969 Q417.6563,440.75 416.3594,440.75 Q414.8438,440.75 413.6406,440.125 Q412.6563,439.625 411.9688,438.5625 Q411.2813,437.4844 411.2813,436.2031 L411.2813,435.0469 Q411.2813,433.7188 411.8906,432.5781 Q412.5156,431.4219 413.6094,430.8125 Q414.7031,430.1875 415.9375,430.1875 Q416.6719,430.1875 417.3125,430.3594 Q417.9688,430.5156 418.5156,430.875 Z " fill="#000000"/><text fill="#000000" font-family="sans-serif" font-size="14" lengthAdjust="spacing" textLength="148" x="436.25" y="440.7969">OrganizationRepository</text><line style="stroke:#181818;stroke-width:0.5;" x1="371" x2="617" y1="451" y2="451"/><line style="stroke:#181818;stroke-width:0.5;" x1="371" x2="617" y1="459" y2="459"/><text fill="#000000" font-family="sans-serif" font-size="14" lengthAdjust="spacing" textLength="169" x="376" y="478.1074">+findByName(String name)</text><text fill="#000000" font-family="sans-serif" font-size="14" lengthAdjust="spacing" textLength="236" x="376" y="496.7285">+findByVatNumber(String vatNumber)</text></g><!--class Repositories--><g id="elem_Repositories"><rect codeLine="52" fill="#F1F1F1" height="103.8633" id="Repositories" rx="2.5" ry="2.5" style="stroke:#181818;stroke-width:0.5;" width="358" x="581" y="208"/><ellipse cx="716.25" cy="224" fill="#ADD1B2" rx="11" ry="11" style="stroke:#181818;stroke-width:1.0;"/><path d="M719.0156,219.875 Q719.1719,219.6563 719.3594,219.5469 Q719.5469,219.4375 719.7656,219.4375 Q720.1406,219.4375 720.375,219.7031 Q720.6094,219.9531 720.6094,220.5625 L720.6094,222.0156 Q720.6094,222.625 720.375,222.8906 Q720.1406,223.1563 719.7656,223.1563 Q719.4219,223.1563 719.2188,222.9531 Q719.0156,222.7656 718.9063,222.25 Q718.8594,221.8906 718.6719,221.7031 Q718.3438,221.3281 717.7344,221.1094 Q717.125,220.8906 716.5,220.8906 Q715.7344,220.8906 715.0938,221.2188 Q714.4688,221.5469 713.9688,222.2969 Q713.4844,223.0469 713.4844,224.0781 L713.4844,225.1719 Q713.4844,226.4063 714.375,227.2344 Q715.2656,228.0469 716.8594,228.0469 Q717.7969,228.0469 718.4531,227.7969 Q718.8438,227.6406 719.2656,227.2031 Q719.5313,226.9375 719.6719,226.8594 Q719.8281,226.7813 720.0313,226.7813 Q720.3594,226.7813 720.6094,227.0469 Q720.875,227.2969 720.875,227.6406 Q720.875,227.9844 720.5313,228.3906 Q720.0313,228.9688 719.2344,229.2969 Q718.1563,229.75 716.8594,229.75 Q715.3438,229.75 714.1406,229.125 Q713.1563,228.625 712.4688,227.5625 Q711.7813,226.4844 711.7813,225.2031 L711.7813,224.0469 Q711.7813,222.7188 712.3906,221.5781 Q713.0156,220.4219 714.1094,219.8125 Q715.2031,219.1875 716.4375,219.1875 Q717.1719,219.1875 717.8125,219.3594 Q718.4688,219.5156 719.0156,219.875 Z " fill="#000000"/><text fill="#000000" font-family="sans-serif" font-size="14" lengthAdjust="spacing" textLength="79" x="736.75" y="229.7969">Repositories</text><line style="stroke:#181818;stroke-width:0.5;" x1="582" x2="938" y1="240" y2="240"/><line style="stroke:#181818;stroke-width:0.5;" x1="582" x2="938" y1="248" y2="248"/><text fill="#000000" font-family="sans-serif" font-size="14" lengthAdjust="spacing" textLength="182" x="587" y="267.1074">+getInstance() : Repositories</text><text fill="#000000" font-family="sans-serif" font-size="14" lengthAdjust="spacing" textLength="230" x="587" y="285.7285">+getJobRepository() : JobRepository</text><text fill="#000000" font-family="sans-serif" font-size="14" lengthAdjust="spacing" textLength="346" x="587" y="304.3496">+getOrganizationRepository() : OrganizationRepository</text></g><!--class CreateJobController--><g id="elem_CreateJobController"><rect codeLine="58" fill="#F1F1F1" height="122.4844" id="CreateJobController" rx="2.5" ry="2.5" style="stroke:#181818;stroke-width:0.5;" width="453" x="533.5" y="7"/><ellipse cx="692.25" cy="23" fill="#ADD1B2" rx="11" ry="11" style="stroke:#181818;stroke-width:1.0;"/><path d="M695.0156,18.875 Q695.1719,18.6563 695.3594,18.5469 Q695.5469,18.4375 695.7656,18.4375 Q696.1406,18.4375 696.375,18.7031 Q696.6094,18.9531 696.6094,19.5625 L696.6094,21.0156 Q696.6094,21.625 696.375,21.8906 Q696.1406,22.1563 695.7656,22.1563 Q695.4219,22.1563 695.2188,21.9531 Q695.0156,21.7656 694.9063,21.25 Q694.8594,20.8906 694.6719,20.7031 Q694.3438,20.3281 693.7344,20.1094 Q693.125,19.8906 692.5,19.8906 Q691.7344,19.8906 691.0938,20.2188 Q690.4688,20.5469 689.9688,21.2969 Q689.4844,22.0469 689.4844,23.0781 L689.4844,24.1719 Q689.4844,25.4063 690.375,26.2344 Q691.2656,27.0469 692.8594,27.0469 Q693.7969,27.0469 694.4531,26.7969 Q694.8438,26.6406 695.2656,26.2031 Q695.5313,25.9375 695.6719,25.8594 Q695.8281,25.7813 696.0313,25.7813 Q696.3594,25.7813 696.6094,26.0469 Q696.875,26.2969 696.875,26.6406 Q696.875,26.9844 696.5313,27.3906 Q696.0313,27.9688 695.2344,28.2969 Q694.1563,28.75 692.8594,28.75 Q691.3438,28.75 690.1406,28.125 Q689.1563,27.625 688.4688,26.5625 Q687.7813,25.4844 687.7813,24.2031 L687.7813,23.0469 Q687.7813,21.7188 688.3906,20.5781 Q689.0156,19.4219 690.1094,18.8125 Q691.2031,18.1875 692.4375,18.1875 Q693.1719,18.1875 693.8125,18.3594 Q694.4688,18.5156 695.0156,18.875 Z " fill="#000000"/><text fill="#000000" font-family="sans-serif" font-size="14" lengthAdjust="spacing" textLength="127" x="712.75" y="28.7969">CreateJobController</text><line style="stroke:#181818;stroke-width:0.5;" x1="534.5" x2="985.5" y1="39" y2="39"/><text fill="#000000" font-family="sans-serif" font-size="14" lengthAdjust="spacing" textLength="185" x="539.5" y="58.1074">JobRepository jobRepository,</text><line style="stroke:#181818;stroke-width:0.5;" x1="534.5" x2="985.5" y1="65.6211" y2="65.6211"/><text fill="#000000" font-family="sans-serif" font-size="14" lengthAdjust="spacing" textLength="441" x="539.5" y="84.7285">+CreateJobController(OrganizationRepository organizationRepository,</text><text fill="#000000" font-family="sans-serif" font-size="14" lengthAdjust="spacing" textLength="324" x="539.5" y="103.3496">AuthenticationRepository authenticationRepository)</text><text fill="#000000" font-family="sans-serif" font-size="14" lengthAdjust="spacing" textLength="317" x="539.5" y="121.9707">+Optional&lt;Job&gt; createJob(String name, HRM hrm)</text></g><!--class CreateJobUI--><g id="elem_CreateJobUI"><rect codeLine="65" fill="#F1F1F1" height="66.6211" id="CreateJobUI" rx="2.5" ry="2.5" style="stroke:#181818;stroke-width:0.5;" width="136" x="362" y="34.5"/><ellipse cx="389.15" cy="50.5" fill="#ADD1B2" rx="11" ry="11" style="stroke:#181818;stroke-width:1.0;"/><path d="M391.9156,46.375 Q392.0719,46.1563 392.2594,46.0469 Q392.4469,45.9375 392.6656,45.9375 Q393.0406,45.9375 393.275,46.2031 Q393.5094,46.4531 393.5094,47.0625 L393.5094,48.5156 Q393.5094,49.125 393.275,49.3906 Q393.0406,49.6563 392.6656,49.6563 Q392.3219,49.6563 392.1188,49.4531 Q391.9156,49.2656 391.8063,48.75 Q391.7594,48.3906 391.5719,48.2031 Q391.2438,47.8281 390.6344,47.6094 Q390.025,47.3906 389.4,47.3906 Q388.6344,47.3906 387.9938,47.7188 Q387.3688,48.0469 386.8688,48.7969 Q386.3844,49.5469 386.3844,50.5781 L386.3844,51.6719 Q386.3844,52.9063 387.275,53.7344 Q388.1656,54.5469 389.7594,54.5469 Q390.6969,54.5469 391.3531,54.2969 Q391.7438,54.1406 392.1656,53.7031 Q392.4313,53.4375 392.5719,53.3594 Q392.7281,53.2813 392.9313,53.2813 Q393.2594,53.2813 393.5094,53.5469 Q393.775,53.7969 393.775,54.1406 Q393.775,54.4844 393.4313,54.8906 Q392.9313,55.4688 392.1344,55.7969 Q391.0563,56.25 389.7594,56.25 Q388.2438,56.25 387.0406,55.625 Q386.0563,55.125 385.3688,54.0625 Q384.6813,52.9844 384.6813,51.7031 L384.6813,50.5469 Q384.6813,49.2188 385.2906,48.0781 Q385.9156,46.9219 387.0094,46.3125 Q388.1031,45.6875 389.3375,45.6875 Q390.0719,45.6875 390.7125,45.8594 Q391.3688,46.0156 391.9156,46.375 Z " fill="#000000"/><text fill="#000000" font-family="sans-serif" font-size="14" lengthAdjust="spacing" textLength="77" x="405.85" y="56.2969">CreateJobUI</text><line style="stroke:#181818;stroke-width:0.5;" x1="363" x2="497" y1="66.5" y2="66.5"/><line style="stroke:#181818;stroke-width:0.5;" x1="363" x2="497" y1="74.5" y2="74.5"/><text fill="#000000" font-family="sans-serif" font-size="14" lengthAdjust="spacing" textLength="124" x="368" y="93.6074">+requestJobName()</text></g><!--class HRManager--><g id="elem_HRManager"><rect codeLine="69" fill="#F1F1F1" height="141.1055" id="HRManager" rx="2.5" ry="2.5" style="stroke:#181818;stroke-width:0.5;" width="144" x="68" y="924"/><ellipse cx="99.65" cy="940" fill="#ADD1B2" rx="11" ry="11" style="stroke:#181818;stroke-width:1.0;"/><path d="M102.4156,935.875 Q102.5719,935.6563 102.7594,935.5469 Q102.9469,935.4375 103.1656,935.4375 Q103.5406,935.4375 103.775,935.7031 Q104.0094,935.9531 104.0094,936.5625 L104.0094,938.0156 Q104.0094,938.625 103.775,938.8906 Q103.5406,939.1563 103.1656,939.1563 Q102.8219,939.1563 102.6188,938.9531 Q102.4156,938.7656 102.3063,938.25 Q102.2594,937.8906 102.0719,937.7031 Q101.7438,937.3281 101.1344,937.1094 Q100.525,936.8906 99.9,936.8906 Q99.1344,936.8906 98.4938,937.2188 Q97.8688,937.5469 97.3688,938.2969 Q96.8844,939.0469 96.8844,940.0781 L96.8844,941.1719 Q96.8844,942.4063 97.775,943.2344 Q98.6656,944.0469 100.2594,944.0469 Q101.1969,944.0469 101.8531,943.7969 Q102.2438,943.6406 102.6656,943.2031 Q102.9313,942.9375 103.0719,942.8594 Q103.2281,942.7813 103.4313,942.7813 Q103.7594,942.7813 104.0094,943.0469 Q104.275,943.2969 104.275,943.6406 Q104.275,943.9844 103.9313,944.3906 Q103.4313,944.9688 102.6344,945.2969 Q101.5563,945.75 100.2594,945.75 Q98.7438,945.75 97.5406,945.125 Q96.5563,944.625 95.8688,943.5625 Q95.1813,942.4844 95.1813,941.2031 L95.1813,940.0469 Q95.1813,938.7188 95.7906,937.5781 Q96.4156,936.4219 97.5094,935.8125 Q98.6031,935.1875 99.8375,935.1875 Q100.5719,935.1875 101.2125,935.3594 Q101.8688,935.5156 102.4156,935.875 Z " fill="#000000"/><text fill="#000000" font-family="sans-serif" font-size="14" lengthAdjust="spacing" textLength="75" x="117.35" y="945.7969">HRManager</text><line style="stroke:#181818;stroke-width:0.5;" x1="69" x2="211" y1="956" y2="956"/><text fill="#000000" font-family="sans-serif" font-size="14" lengthAdjust="spacing" textLength="81" x="74" y="975.1074">-String name</text><text fill="#000000" font-family="sans-serif" font-size="14" lengthAdjust="spacing" textLength="92" x="74" y="993.7285">-int vatNumber</text><text fill="#000000" font-family="sans-serif" font-size="14" lengthAdjust="spacing" textLength="79" x="74" y="1012.3496">-String email</text><text fill="#000000" font-family="sans-serif" font-size="14" lengthAdjust="spacing" textLength="112" x="74" y="1030.9707">-int phonenumber</text><line style="stroke:#181818;stroke-width:0.5;" x1="69" x2="211" y1="1038.4844" y2="1038.4844"/><text fill="#000000" font-family="sans-serif" font-size="14" lengthAdjust="spacing" textLength="132" x="74" y="1057.5918">+manageJobs(): void</text></g><!--class JobManager--><g id="elem_JobManager"><rect fill="#F1F1F1" height="48" id="JobManager" rx="2.5" ry="2.5" style="stroke:#181818;stroke-width:0.5;" width="110" x="236" y="1144"/><ellipse cx="251" cy="1160" fill="#ADD1B2" rx="11" ry="11" style="stroke:#181818;stroke-width:1.0;"/><path d="M253.7656,1155.875 Q253.9219,1155.6563 254.1094,1155.5469 Q254.2969,1155.4375 254.5156,1155.4375 Q254.8906,1155.4375 255.125,1155.7031 Q255.3594,1155.9531 255.3594,1156.5625 L255.3594,1158.0156 Q255.3594,1158.625 255.125,1158.8906 Q254.8906,1159.1563 254.5156,1159.1563 Q254.1719,1159.1563 253.9688,1158.9531 Q253.7656,1158.7656 253.6563,1158.25 Q253.6094,1157.8906 253.4219,1157.7031 Q253.0938,1157.3281 252.4844,1157.1094 Q251.875,1156.8906 251.25,1156.8906 Q250.4844,1156.8906 249.8438,1157.2188 Q249.2188,1157.5469 248.7188,1158.2969 Q248.2344,1159.0469 248.2344,1160.0781 L248.2344,1161.1719 Q248.2344,1162.4063 249.125,1163.2344 Q250.0156,1164.0469 251.6094,1164.0469 Q252.5469,1164.0469 253.2031,1163.7969 Q253.5938,1163.6406 254.0156,1163.2031 Q254.2813,1162.9375 254.4219,1162.8594 Q254.5781,1162.7813 254.7813,1162.7813 Q255.1094,1162.7813 255.3594,1163.0469 Q255.625,1163.2969 255.625,1163.6406 Q255.625,1163.9844 255.2813,1164.3906 Q254.7813,1164.9688 253.9844,1165.2969 Q252.9063,1165.75 251.6094,1165.75 Q250.0938,1165.75 248.8906,1165.125 Q247.9063,1164.625 247.2188,1163.5625 Q246.5313,1162.4844 246.5313,1161.2031 L246.5313,1160.0469 Q246.5313,1158.7188 247.1406,1157.5781 Q247.7656,1156.4219 248.8594,1155.8125 Q249.9531,1155.1875 251.1875,1155.1875 Q251.9219,1155.1875 252.5625,1155.3594 Q253.2188,1155.5156 253.7656,1155.875 Z " fill="#000000"/><text fill="#000000" font-family="sans-serif" font-size="14" lengthAdjust="spacing" textLength="78" x="265" y="1165.7969">JobManager</text><line style="stroke:#181818;stroke-width:0.5;" x1="237" x2="345" y1="1176" y2="1176"/><line style="stroke:#181818;stroke-width:0.5;" x1="237" x2="345" y1="1184" y2="1184"/></g><g id="elem_GMN15"><path d="M1021.5,45.5 L1021.5,64 L986.66,68 L1021.5,72 L1021.5,90.082 A0,0 0 0 0 1021.5,90.082 L1298.5,90.082 A0,0 0 0 0 1298.5,90.082 L1298.5,55.5 L1288.5,45.5 L1021.5,45.5 A0,0 0 0 0 1021.5,45.5 " fill="#FEFFDD" style="stroke:#181818;stroke-width:0.5;"/><path d="M1288.5,45.5 L1288.5,55.5 L1298.5,55.5 L1288.5,45.5 " fill="#FEFFDD" style="stroke:#181818;stroke-width:0.5;"/><text fill="#000000" font-family="sans-serif" font-size="13" lengthAdjust="spacing" textLength="256" x="1027.5" y="64.5283">- Job name is obtained from the HRM's input</text><text fill="#000000" font-family="sans-serif" font-size="13" lengthAdjust="spacing" textLength="168" x="1027.5" y="81.8193">- Updates the Job Repository</text></g><g id="elem_GMN18"><path d="M247,981 L247,990.5 L212.33,994.5 L247,998.5 L247,1008.291 A0,0 0 0 0 247,1008.291 L425,1008.291 A0,0 0 0 0 425,1008.291 L425,991 L415,981 L247,981 A0,0 0 0 0 247,981 " fill="#FEFFDD" style="stroke:#181818;stroke-width:0.5;"/><path d="M415,981 L415,991 L425,991 L415,981 " fill="#FEFFDD" style="stroke:#181818;stroke-width:0.5;"/><text fill="#000000" font-family="sans-serif" font-size="13" lengthAdjust="spacing" textLength="157" x="253" y="1000.0283">- HRM initiates job creation</text></g><g id="elem_GMN21"><path d="M59.5,45.5 L59.5,90.082 L326.5,90.082 L326.5,55.5 L316.5,45.5 L59.5,45.5 " fill="#FEFFDD" style="stroke:#181818;stroke-width:0.5;"/><path d="M316.5,45.5 L316.5,55.5 L326.5,55.5 L316.5,45.5 " fill="#FEFFDD" style="stroke:#181818;stroke-width:1.0;"/><text fill="#000000" font-family="sans-serif" font-size="13" lengthAdjust="spacing" textLength="246" x="65.5" y="64.5283">- UI for HRM to input and confirm job name</text><text fill="#000000" font-family="sans-serif" font-size="13" lengthAdjust="spacing" textLength="239" x="65.5" y="81.8193">- Communicates with CreateJobController</text></g><g id="elem_GMN24"><path d="M6,705.5 L6,750.082 A0,0 0 0 0 6,750.082 L208,750.082 A0,0 0 0 0 208,750.082 L208,732 L243.22,728 L208,724 L208,715.5 L198,705.5 L6,705.5 A0,0 0 0 0 6,705.5 " fill="#FEFFDD" style="stroke:#181818;stroke-width:0.5;"/><path d="M198,705.5 L198,715.5 L208,715.5 L198,705.5 " fill="#FEFFDD" style="stroke:#181818;stroke-width:0.5;"/><text fill="#000000" font-family="sans-serif" font-size="13" lengthAdjust="spacing" textLength="89" x="12" y="724.5283">- Manages jobs</text><text fill="#000000" font-family="sans-serif" font-size="13" lengthAdjust="spacing" textLength="181" x="12" y="741.8193">- Handles organizational details</text></g><!--link JobManager to Job--><g id="link_JobManager_Job"><path codeLine="77" d="M291,1192.12 C291,1213.83 291,1240.52 291,1264.87 " fill="none" id="JobManager-to-Job" style="stroke:#181818;stroke-width:1.0;"/><polygon fill="#181818" points="291,1270.87,295,1261.87,291,1265.87,287,1261.87,291,1270.87" style="stroke:#181818;stroke-width:1.0;"/><text fill="#000000" font-family="sans-serif" font-size="13" lengthAdjust="spacing" textLength="53" x="292" y="1237.0283">Manages</text></g><!--link HRManager to JobManager--><g id="link_HRManager_JobManager"><path codeLine="78" d="M201.42,1065.26 C226.08,1093.26 248.8445,1119.1273 266.6345,1139.3273 " fill="none" id="HRManager-to-JobManager" style="stroke:#181818;stroke-width:1.0;"/><polygon fill="#181818" points="270.6,1143.83,267.6535,1134.4322,267.2954,1140.0777,261.6499,1139.7196,270.6,1143.83" style="stroke:#181818;stroke-width:1.0;"/><text fill="#000000" font-family="sans-serif" font-size="13" lengthAdjust="spacing" textLength="30" x="244" y="1110.0283">Uses</text></g><!--link GMN21 to CreateJobUI--><g id="link_GMN21_CreateJobUI"><path d="M326.87,68 C340.35,68 351,68 351,68 C351,68 355.34,68 361.98,68 " fill="none" id="GMN21-CreateJobUI" style="stroke:#181818;stroke-width:1.0;stroke-dasharray:7.0,7.0;"/></g><!--link Repositories to Repositories--><g id="link_Repositories_Repositories"><path codeLine="99" d="M939.13,245.55 C960.24,248.2 974,253.01 974,260 C974,266.99 966.1933,271.0527 945.0833,273.7027 " fill="none" id="Repositories-to-Repositories" style="stroke:#181818;stroke-width:1.0;"/><polygon fill="#181818" points="939.13,274.45,948.5581,277.2979,944.0911,273.8272,947.5617,269.3602,939.13,274.45" style="stroke:#181818;stroke-width:1.0;"/><text fill="#000000" font-family="sans-serif" font-size="13" lengthAdjust="spacing" textLength="49" x="980" y="265.5283">instance</text></g><!--link ApplicationSession to ApplicationSession--><g id="link_ApplicationSession_ApplicationSession"><path codeLine="100" d="M1275.66,243.29 C1295.5,244.28 1310.5,249.85 1310.5,260 C1310.5,270.15 1301.4925,275.421 1281.6525,276.411 " fill="none" id="ApplicationSession-to-ApplicationSession" style="stroke:#181818;stroke-width:1.0;"/><polygon fill="#181818" points="1275.66,276.71,1284.8482,280.2565,1280.6538,276.4608,1284.4495,272.2664,1275.66,276.71" style="stroke:#181818;stroke-width:1.0;"/><text fill="#000000" font-family="sans-serif" font-size="13" lengthAdjust="spacing" textLength="49" x="1316.5" y="265.5283">instance</text></g><!--link CreateJobUI to CreateJobController--><g id="link_CreateJobUI_CreateJobController"><path codeLine="102" d="M498.1,68 C512.52,68 519.66,68 527.24,68 " fill="none" id="CreateJobUI-to-CreateJobController" style="stroke:#181818;stroke-width:1.0;stroke-dasharray:7.0,7.0;"/><polygon fill="#181818" points="533.24,68,524.24,64,528.24,68,524.24,72,533.24,68" style="stroke:#181818;stroke-width:1.0;"/></g><!--link CreateJobController to Repositories--><g id="link_CreateJobController_Repositories"><path codeLine="104" d="M760,129.12 C760,154.45 760,177.62 760,201.9 " fill="none" id="CreateJobController-to-Repositories" style="stroke:#181818;stroke-width:1.0;"/><polygon fill="#181818" points="760,207.9,764,198.9,760,202.9,756,198.9,760,207.9" style="stroke:#181818;stroke-width:1.0;"/><text fill="#000000" font-family="sans-serif" font-size="13" lengthAdjust="spacing" textLength="108" x="761" y="174.0283">retrieves instances</text></g><!--link Repositories to JobRepository--><g id="link_Repositories_JobRepository"><path codeLine="106" d="M761.54,312.12 C762.26,336.01 762.9392,358.8427 763.7192,384.7127 " fill="none" id="Repositories-to-JobRepository" style="stroke:#181818;stroke-width:1.0;"/><polygon fill="#181818" points="763.9,390.71,767.6269,381.5935,763.7493,385.7123,759.6306,381.8346,763.9,390.71" style="stroke:#181818;stroke-width:1.0;"/><text fill="#000000" font-family="sans-serif" font-size="13" lengthAdjust="spacing" textLength="56" x="764" y="357.0283">accesses</text></g><!--link Repositories to OrganizationRepository--><g id="link_Repositories_OrganizationRepository"><path codeLine="107" d="M632.64,312.07 C592.31,328.24 558,342 558,342 C558,342 537.8415,379.3209 519.4115,413.4409 " fill="none" id="Repositories-to-OrganizationRepository" style="stroke:#181818;stroke-width:1.0;"/><polygon fill="#181818" points="516.56,418.72,524.3567,412.7024,518.9363,414.3208,517.3179,408.9003,516.56,418.72" style="stroke:#181818;stroke-width:1.0;"/><text fill="#000000" font-family="sans-serif" font-size="13" lengthAdjust="spacing" textLength="56" x="559" y="357.0283">accesses</text></g><!--link Repositories to OrganizationRepository--><g id="link_Repositories_OrganizationRepository"><path codeLine="111" d="M691.84,312.12 C647.67,345.25 595.65,384.26 554.25,415.31 " fill="none" id="Repositories-to-OrganizationRepository-1" style="stroke:#181818;stroke-width:1.0;"/><polygon fill="#181818" points="549.45,418.91,559.05,416.71,553.45,415.91,554.25,410.31,549.45,418.91" style="stroke:#181818;stroke-width:1.0;"/><text fill="#000000" font-family="sans-serif" font-size="13" lengthAdjust="spacing" textLength="7" x="550.7295" y="407.7997">1</text></g><!--link CreateJobController to OrganizationRepository--><g id="link_CreateJobController_OrganizationRepository"><path codeLine="109" d="M616.74,129.16 C527.29,166.73 429,208 429,208 C429,208 429,312 429,312 C429,312 454.0946,369.3233 473.3146,413.2433 " fill="none" id="CreateJobController-to-OrganizationRepository" style="stroke:#181818;stroke-width:1.0;stroke-dasharray:7.0,7.0;"/><polygon fill="#181818" points="475.72,418.74,475.7763,408.8913,473.7155,414.1594,468.4474,412.0986,475.72,418.74" style="stroke:#181818;stroke-width:1.0;"/><text fill="#000000" font-family="sans-serif" font-size="13" lengthAdjust="spacing" textLength="132" x="430" y="265.5283">organizationRepository</text></g><!--link OrganizationRepository to Organization--><g id="link_OrganizationRepository_Organization"><path codeLine="113" d="M475.28,504.12 C462.32,532.92 446.8414,567.3081 429.7214,605.3681 " fill="none" id="OrganizationRepository-to-Organization" style="stroke:#181818;stroke-width:1.0;"/><polygon fill="#181818" points="427.26,610.84,434.6,604.273,429.3111,606.2801,427.3041,600.9912,427.26,610.84" style="stroke:#181818;stroke-width:1.0;"/><text fill="#000000" font-family="sans-serif" font-size="13" lengthAdjust="spacing" textLength="46" x="450" y="577.0283">persists</text><text fill="#000000" font-family="sans-serif" font-size="13" lengthAdjust="spacing" textLength="5" x="425.4478" y="599.8208">*</text></g><!--link ApplicationSession to UserSession--><g id="link_ApplicationSession_UserSession"><path codeLine="114" d="M1182.81,302.82 C1167.5,340.07 1147.6912,388.2606 1133.6612,422.3906 " fill="none" id="ApplicationSession-to-UserSession" style="stroke:#181818;stroke-width:1.0;"/><polygon fill="#181818" points="1131.38,427.94,1138.5015,421.1367,1133.281,423.3155,1131.1022,418.0951,1131.38,427.94" style="stroke:#181818;stroke-width:1.0;"/><text fill="#000000" font-family="sans-serif" font-size="13" lengthAdjust="spacing" textLength="72" x="1168" y="357.0283">userSession</text><text fill="#000000" font-family="sans-serif" font-size="13" lengthAdjust="spacing" textLength="7" x="1126.3251" y="416.7537">1</text></g><!--link CreateJobController to Organization--><g id="link_CreateJobController_Organization"><path codeLine="116" d="M581.91,129.03 C532.93,145.54 493,159 493,159 C493,159 421,208 421,208 C421,208 363,342 363,342 C363,342 352,391 352,391 C352,391 352,532 352,532 C352,532 355.6566,563.0314 360.5866,604.7914 " fill="none" id="CreateJobController-to-Organization" style="stroke:#181818;stroke-width:1.0;stroke-dasharray:7.0,7.0;"/><polygon fill="#181818" points="361.29,610.75,364.2072,601.3431,360.7038,605.7845,356.2624,602.281,361.29,610.75" style="stroke:#181818;stroke-width:1.0;"/><text fill="#000000" font-family="sans-serif" font-size="13" lengthAdjust="spacing" textLength="70" x="364" y="357.0283">organization</text><text fill="#000000" font-family="sans-serif" font-size="13" lengthAdjust="spacing" textLength="7" x="353.1875" y="599.725">1</text></g><!--link CreateJobController to ApplicationSession--><g id="link_CreateJobController_ApplicationSession"><path codeLine="117" d="M984.78,129.03 C1046.6,145.54 1097,159 1097,159 C1097,159 1124.6055,185.8002 1152.9055,213.2802 " fill="none" id="CreateJobController-to-ApplicationSession" style="stroke:#181818;stroke-width:1.0;stroke-dasharray:7.0,7.0;"/><polygon fill="#181818" points="1157.21,217.46,1153.5397,208.3206,1153.6229,213.9768,1147.9666,214.06,1157.21,217.46" style="stroke:#181818;stroke-width:1.0;"/></g><!--link CreateJobController to UserSession--><g id="link_CreateJobController_UserSession"><path codeLine="118" d="M879.02,129.16 C953.34,166.73 1035,208 1035,208 C1035,208 1082.9069,353.7299 1105.3569,422.0499 " fill="none" id="CreateJobController-to-UserSession" style="stroke:#181818;stroke-width:1.0;stroke-dasharray:7.0,7.0;"/><polygon fill="#181818" points="1107.23,427.75,1108.2205,417.9511,1105.6691,422.9999,1100.6203,420.4485,1107.23,427.75" style="stroke:#181818;stroke-width:1.0;"/></g><!--link Organization to Job--><g id="link_Organization_Job"><path codeLine="119" d="M414.94,845.25 C429.29,887.01 442,924 442,924 C442,924 442,1065 442,1065 C442,1065 354,1241 354,1241 C354,1241 343.478,1251.4328 328.238,1266.5628 " fill="none" id="Organization-to-Job" style="stroke:#181818;stroke-width:1.0;"/><polygon fill="#181818" points="323.98,1270.79,333.1851,1267.2878,327.5283,1267.2673,327.5488,1261.6105,323.98,1270.79" style="stroke:#181818;stroke-width:1.0;"/><text fill="#000000" font-family="sans-serif" font-size="13" lengthAdjust="spacing" textLength="30" x="428" y="1110.0283">owns</text><text fill="#000000" font-family="sans-serif" font-size="13" lengthAdjust="spacing" textLength="7" x="410.2744" y="867.3367">1</text><text fill="#000000" font-family="sans-serif" font-size="13" lengthAdjust="spacing" textLength="5" x="324.7903" y="1259.8359">*</text></g><!--link Job to HRManager--><g id="link_Job_HRManager"><path codeLine="120" d="M251.88,1270.95 C212.33,1238.04 157,1192 157,1192 C157,1192 151.4272,1127.5577 146.5372,1071.0377 " fill="none" id="Job-to-HRManager" style="stroke:#181818;stroke-width:1.0;"/><polygon fill="#181818" points="146.02,1065.06,142.8107,1074.3713,146.451,1070.0414,150.7809,1073.6817,146.02,1065.06" style="stroke:#181818;stroke-width:1.0;"/><text fill="#000000" font-family="sans-serif" font-size="13" lengthAdjust="spacing" textLength="59" x="158" y="1173.5283">createdBy</text></g><!--link Organization to HRManager--><g id="link_Organization_HRManager"><path codeLine="122" d="M271.93,845.01 C248,871.94 227.255,895.2945 205.755,919.4945 " fill="none" id="Organization-to-HRManager" style="stroke:#181818;stroke-width:1.0;"/><polygon fill="#181818" points="201.77,923.98,210.7379,919.9085,205.0909,920.2421,204.7572,914.5951,201.77,923.98" style="stroke:#181818;stroke-width:1.0;"/><text fill="#000000" font-family="sans-serif" font-size="13" lengthAdjust="spacing" textLength="49" x="245" y="890.0283">employs</text><text fill="#000000" font-family="sans-serif" font-size="13" lengthAdjust="spacing" textLength="5" x="202.8822" y="912.869">*</text></g><!--SRC=[ZLPDRzim3BthLn2x95cROhiQGu6k6x0CMmiqoEwApIHgPScJv1JfiFy-IhOJsP7NvjAAVFnw8YbFx9DG5JUyX58hdU-CBX6SgP6TD1NFd_WMb-uW4GpcZgkjZ05snmlzBDGMDbpQM2E5GdUe42ej3_x09WcbDawpo2gNtDeRvunOrmuNkLPByOBmWR69n8q3fy68xSv18NmwGYl6WWtSL9KKEVUY9LhhDNyOqEy2h2Dn3bjq2qN_gnodirP5ijlQ65IkDIBDtyxbog8P-Y83B_vQSY5Zx7UzXWOp1yLBp619HQXj3_60bRR2QNC8s3dy4DPz8iKrFEgrPJx0VULBuB8HywAOUjUadWNrMck9NC6UIr5mXwJi0qukALNwQwUDt8CQoUV37IKuRV8BoKPrt9ijL-8byDWc6G7ZyvwxkxfSeuc5bAyXnc9HjTEgPuYUkqIjkS6se5vgSTNa_gpWLndf09xYB_fEkrkj71SgZSBVDNNoz7xzIFq5UeIQmKrUm4Qe8aNiIVUhusiw932ASVGhqBQUUsqBMG_I0Ngz5L0zIGTBLn3mQTKfiTlkSZnvHak9fiqlePcEKAMJuiimDg_y-jFp69_UP7zJknrDURiX8bTyH35xQuTUmhU7dx0pvIp1rchHicIehz3wYmez4c79cYjQiWsVP_D60g5SRzhEHwa5XL5JHnY5BOFhPWraiDUYy87ftCMSpwyzjnaq0ijEwRIgzfZvTMWPKzfXkuFr9dNvOTJzQFa2G5ZGQpzjMC26dXWWjdt94qiPLxKBw5Nb1zS6dRUC6X1L0JxaCF0npU30tu1GmedWXhgZkIg_k0SEmYiI9xvQD2aiOADDS4HlJ4WDE9dI2xGHfWm-ZnlmLfTbhNpBKBHduNP97aOYnxCHlBNCTqy0LKE19GdYSU4I2YGUfOtyzhO5tLRld54LpTfWvs-ZHoUaaGsBU_ZgEbaXIss5ENqGgFDa35BBuXxjCOGT5j0QzaSz0vuJrlTU4ZsoQYApP9PNL_ynJU-fOReK_Dt7TsERauru3sRl-sOKia9ZwUMsoRjg8qNV8sHHHrydeoKE4nmKDsgN-9eQWyPVIRrGFdPNhPzg2lsih5y-GNnQD5cxMEcHxDDsD8-nM5PI7opx1m00]--></g></svg>