<?xml version="1.0" encoding="us-ascii" standalone="no"?><svg xmlns="http://www.w3.org/2000/svg" xmlns:xlink="http://www.w3.org/1999/xlink" contentStyleType="text/css" height="360px" preserveAspectRatio="none" style="width:512px;height:360px;background:#FFFFFF;" version="1.1" viewBox="0 0 512 360" width="512px" zoomAndPan="magnify"><defs/><g><rect fill="#FFFFFF" height="204.4063" style="stroke:#181818;stroke-width:1.0;" width="10" x="162" y="90.5332"/><rect fill="#FFFFFF" height="164.1152" style="stroke:#181818;stroke-width:1.0;" width="10" x="162" y="90.5332"/><line style="stroke:#181818;stroke-width:0.5;stroke-dasharray:5.0,5.0;" x1="162" x2="162" y1="57.2422" y2="303.9395"/><line style="stroke:#181818;stroke-width:0.5;stroke-dasharray:5.0,5.0;" x1="368" x2="368" y1="165.9453" y2="303.9395"/><line style="stroke:#181818;stroke-width:0.5;stroke-dasharray:5.0,5.0;" x1="452" x2="452" y1="57.2422" y2="303.9395"/><rect fill="#E3E3E3" height="51.2422" rx="2.5" ry="2.5" style="stroke:#181818;stroke-width:0.5;" width="98" x="113" y="5"/><text fill="#000000" font-family="sans-serif" font-size="14" lengthAdjust="spacing" textLength="77" x="123.5" y="27.1074">organization</text><text fill="#000000" font-family="sans-serif" font-size="14" lengthAdjust="spacing" textLength="84" x="120" y="45.7285">:Organization</text><rect fill="#E3E3E3" height="51.2422" rx="2.5" ry="2.5" style="stroke:#181818;stroke-width:0.5;" width="98" x="113" y="302.9395"/><text fill="#000000" font-family="sans-serif" font-size="14" lengthAdjust="spacing" textLength="77" x="123.5" y="325.0469">organization</text><text fill="#000000" font-family="sans-serif" font-size="14" lengthAdjust="spacing" textLength="84" x="120" y="343.668">:Organization</text><rect fill="#E3E3E3" height="51.2422" rx="2.5" ry="2.5" style="stroke:#181818;stroke-width:0.5;" width="40" x="348" y="302.9395"/><text fill="#000000" font-family="sans-serif" font-size="14" lengthAdjust="spacing" textLength="19" x="358.5" y="325.0469">job</text><text fill="#000000" font-family="sans-serif" font-size="14" lengthAdjust="spacing" textLength="26" x="355" y="343.668">:Job</text><rect fill="#E3E3E3" height="51.2422" rx="2.5" ry="2.5" style="stroke:#181818;stroke-width:0.5;" width="108" x="398" y="5"/><text fill="#000000" font-family="sans-serif" font-size="14" lengthAdjust="spacing" textLength="82" x="411" y="27.1074">jobrepository</text><text fill="#000000" font-family="sans-serif" font-size="14" lengthAdjust="spacing" textLength="94" x="405" y="45.7285">:JobRepository</text><rect fill="#E3E3E3" height="51.2422" rx="2.5" ry="2.5" style="stroke:#181818;stroke-width:0.5;" width="108" x="398" y="302.9395"/><text fill="#000000" font-family="sans-serif" font-size="14" lengthAdjust="spacing" textLength="82" x="411" y="325.0469">jobrepository</text><text fill="#000000" font-family="sans-serif" font-size="14" lengthAdjust="spacing" textLength="94" x="405" y="343.668">:JobRepository</text><rect fill="#FFFFFF" height="204.4063" style="stroke:#181818;stroke-width:1.0;" width="10" x="162" y="90.5332"/><rect fill="#FFFFFF" height="164.1152" style="stroke:#181818;stroke-width:1.0;" width="10" x="162" y="90.5332"/><polygon fill="#181818" points="145,86.5332,155,90.5332,145,94.5332,149,90.5332" style="stroke:#181818;stroke-width:1.0;"/><line style="stroke:#181818;stroke-width:1.0;" x1="0" x2="151" y1="90.5332" y2="90.5332"/><text fill="#000000" font-family="sans-serif" font-size="13" font-weight="bold" lengthAdjust="spacing" textLength="14" x="7" y="85.2705">16</text><text fill="#000000" font-family="sans-serif" font-size="13" lengthAdjust="spacing" textLength="113" x="25" y="85.2705">createJob(jobname)</text><polygon fill="#181818" points="336,144.1152,346,148.1152,336,152.1152,340,148.1152" style="stroke:#181818;stroke-width:1.0;"/><line style="stroke:#181818;stroke-width:1.0;" x1="172" x2="342" y1="148.1152" y2="148.1152"/><text fill="#000000" font-family="sans-serif" font-size="13" font-weight="bold" lengthAdjust="spacing" textLength="25" x="179" y="142.8525">16.1</text><text fill="#000000" font-family="sans-serif" font-size="13" lengthAdjust="spacing" textLength="123" x="208" y="142.8525">create(jobname, hrm)</text><rect fill="#E3E3E3" height="51.2422" rx="2.5" ry="2.5" style="stroke:#181818;stroke-width:0.5;" width="40" x="348" y="124.8242"/><text fill="#000000" font-family="sans-serif" font-size="14" lengthAdjust="spacing" textLength="19" x="358.5" y="146.9316">job</text><text fill="#000000" font-family="sans-serif" font-size="14" lengthAdjust="spacing" textLength="26" x="355" y="165.5527">:Job</text><line style="stroke:#181818;stroke-width:1.0;" x1="172" x2="214" y1="210.3574" y2="210.3574"/><line style="stroke:#181818;stroke-width:1.0;" x1="214" x2="214" y1="210.3574" y2="223.3574"/><line style="stroke:#181818;stroke-width:1.0;" x1="173" x2="214" y1="223.3574" y2="223.3574"/><polygon fill="#181818" points="183,219.3574,173,223.3574,183,227.3574,179,223.3574" style="stroke:#181818;stroke-width:1.0;"/><text fill="#000000" font-family="sans-serif" font-size="13" font-weight="bold" lengthAdjust="spacing" textLength="25" x="179" y="205.0947">16.2</text><text fill="#000000" font-family="sans-serif" font-size="13" lengthAdjust="spacing" textLength="88" x="208" y="205.0947">validateJob(job)</text><polygon fill="#181818" points="440,250.6484,450,254.6484,440,258.6484,444,254.6484" style="stroke:#181818;stroke-width:1.0;"/><line style="stroke:#181818;stroke-width:1.0;" x1="167" x2="446" y1="254.6484" y2="254.6484"/><text fill="#000000" font-family="sans-serif" font-size="13" font-weight="bold" lengthAdjust="spacing" textLength="25" x="174" y="249.3857">16.3</text><text fill="#000000" font-family="sans-serif" font-size="13" lengthAdjust="spacing" textLength="66" x="203" y="249.3857">addJob(job)</text><polygon fill="#181818" points="11,281.9395,1,285.9395,11,289.9395,7,285.9395" style="stroke:#181818;stroke-width:1.0;"/><line style="stroke:#181818;stroke-width:1.0;" x1="5" x2="156" y1="285.9395" y2="285.9395"/><text fill="#000000" font-family="sans-serif" font-size="13" font-weight="bold" lengthAdjust="spacing" textLength="25" x="17" y="280.6768">16.4</text><text fill="#000000" font-family="sans-serif" font-size="13" lengthAdjust="spacing" textLength="17" x="46" y="280.6768">job</text><!--SRC=[XO_1JiCm38RlUGfh9pOnf5quL0XfcW2fbqc58nStDMss9gwST6WyFMccbQqSvblixuj_-xrn7GfQiEnODyAM84XFoe-J3lKUQteFnvP0I0TqTNi9-0Oh_ZQkXYziFIaLsy5eqw4BC6EfqPaV38RTfyks5yyPe8TjyNOjxBYCNCvb6d-iYvVNzJz2g6Dl0ilnn1RZErbveHJsWLrlIn9OFQhbyx0f0os4WQ9n5tznQ6a-8HzM2dKmXqYbR12h5kuxs2GLegjKQWzrnOxTQSKXn0IdOnQBSunpXdjenCvlsId_0LjJ_LrmKygB3B2gHdpaAvf4Vrgc1RlXl5y0]--></g></svg>