<?xml version="1.0" encoding="us-ascii" standalone="no"?><svg xmlns="http://www.w3.org/2000/svg" xmlns:xlink="http://www.w3.org/1999/xlink" contentStyleType="text/css" height="1291px" preserveAspectRatio="none" style="width:1802px;height:1291px;background:#FFFFFF;" version="1.1" viewBox="0 0 1802 1291" width="1802px" zoomAndPan="magnify"><defs/><g><rect fill="#FFFFFF" height="1096.3027" style="stroke:#181818;stroke-width:1.0;" width="10" x="91" y="93.6211"/><rect fill="#FFFFFF" height="137.4941" style="stroke:#181818;stroke-width:1.0;" width="10" x="301" y="116.9121"/><rect fill="#FFFFFF" height="904.2266" style="stroke:#181818;stroke-width:1.0;" width="10" x="301" y="285.6973"/><rect fill="#FFFFFF" height="64.9121" style="stroke:#181818;stroke-width:1.0;" width="10" x="454" y="158.2031"/><rect fill="#FFFFFF" height="841.6445" style="stroke:#181818;stroke-width:1.0;" width="10" x="454" y="316.9883"/><rect fill="#FFFFFF" height="513.6563" style="stroke:#181818;stroke-width:1.0;" width="10" x="459" y="381.2793"/><rect fill="#FFFFFF" height="31.291" style="stroke:#181818;stroke-width:1.0;" width="10" x="728" y="191.8242"/><rect fill="#FFFFFF" height="31.291" style="stroke:#181818;stroke-width:1.0;" width="10" x="728" y="605.3164"/><rect fill="#FFFFFF" height="31.291" style="stroke:#181818;stroke-width:1.0;" width="10" x="973" y="417.5703"/><rect fill="#FFFFFF" height="31.291" style="stroke:#181818;stroke-width:1.0;" width="10" x="1120" y="480.1523"/><rect fill="#FFFFFF" height="31.291" style="stroke:#181818;stroke-width:1.0;" width="10" x="1253" y="542.7344"/><rect fill="#FFFFFF" height="127.1641" style="stroke:#181818;stroke-width:1.0;" width="10" x="1399" y="667.8984"/><rect fill="#FFFFFF" height="31.291" style="stroke:#181818;stroke-width:1.0;" width="10" x="1591" y="725.4805"/><rect fill="#FFFFFF" height="31.291" style="stroke:#181818;stroke-width:1.0;" width="10" x="1591" y="826.3535"/><rect fill="#FFFFFF" height="169.1152" style="stroke:#181818;stroke-width:1.0;" width="10" x="1591" y="958.2266"/><rect fill="none" height="81.873" style="stroke:#000000;stroke-width:1.5;" width="342.5" x="1312.5" y="682.8984"/><line style="stroke:#181818;stroke-width:0.5;stroke-dasharray:5.0,5.0;" x1="96" x2="96" y1="83.6211" y2="1207.9238"/><line style="stroke:#181818;stroke-width:0.5;stroke-dasharray:5.0,5.0;" x1="305.5" x2="305.5" y1="83.6211" y2="1207.9238"/><line style="stroke:#181818;stroke-width:0.5;stroke-dasharray:5.0,5.0;" x1="458.5" x2="458.5" y1="156.7227" y2="1207.9238"/><line style="stroke:#181818;stroke-width:0.5;stroke-dasharray:5.0,5.0;" x1="625.5" x2="625.5" y1="83.6211" y2="1207.9238"/><line style="stroke:#181818;stroke-width:0.5;stroke-dasharray:5.0,5.0;" x1="732.5" x2="732.5" y1="83.6211" y2="1207.9238"/><line style="stroke:#181818;stroke-width:0.5;stroke-dasharray:5.0,5.0;" x1="845.5" x2="845.5" y1="83.6211" y2="1207.9238"/><line style="stroke:#181818;stroke-width:0.5;stroke-dasharray:5.0,5.0;" x1="977.5" x2="977.5" y1="83.6211" y2="1207.9238"/><line style="stroke:#181818;stroke-width:0.5;stroke-dasharray:5.0,5.0;" x1="1124.5" x2="1124.5" y1="83.6211" y2="1207.9238"/><line style="stroke:#181818;stroke-width:0.5;stroke-dasharray:5.0,5.0;" x1="1257.5" x2="1257.5" y1="83.6211" y2="1207.9238"/><line style="stroke:#181818;stroke-width:0.5;stroke-dasharray:5.0,5.0;" x1="1403.5" x2="1403.5" y1="83.6211" y2="1207.9238"/><line style="stroke:#181818;stroke-width:0.5;stroke-dasharray:5.0,5.0;" x1="1596" x2="1596" y1="83.6211" y2="1207.9238"/><line style="stroke:#181818;stroke-width:0.5;stroke-dasharray:5.0,5.0;" x1="1776" x2="1776" y1="1007.3477" y2="1207.9238"/><text fill="#000000" font-family="sans-serif" font-size="14" lengthAdjust="spacing" textLength="176" x="5" y="80.1074">Human Resources Manager</text><ellipse cx="96" cy="13.5" fill="#E3E3E3" rx="8" ry="8" style="stroke:#181818;stroke-width:0.5;"/><path d="M96,21.5 L96,48.5 M83,29.5 L109,29.5 M96,48.5 L83,63.5 M96,48.5 L109,63.5 " fill="none" style="stroke:#181818;stroke-width:0.5;"/><text fill="#000000" font-family="sans-serif" font-size="14" lengthAdjust="spacing" textLength="176" x="5" y="1222.0313">Human Resources Manager</text><ellipse cx="96" cy="1234.0449" fill="#E3E3E3" rx="8" ry="8" style="stroke:#181818;stroke-width:0.5;"/><path d="M96,1242.0449 L96,1269.0449 M83,1250.0449 L109,1250.0449 M96,1269.0449 L83,1284.0449 M96,1269.0449 L109,1284.0449 " fill="none" style="stroke:#181818;stroke-width:0.5;"/><rect fill="#E3E3E3" height="32.6211" rx="2.5" ry="2.5" style="stroke:#181818;stroke-width:0.5;" width="95" x="258.5" y="50"/><text fill="#000000" font-family="sans-serif" font-size="14" lengthAdjust="spacing" textLength="81" x="265.5" y="72.1074">:CreateJobUI</text><rect fill="#E3E3E3" height="32.6211" rx="2.5" ry="2.5" style="stroke:#181818;stroke-width:0.5;" width="95" x="258.5" y="1206.9238"/><text fill="#000000" font-family="sans-serif" font-size="14" lengthAdjust="spacing" textLength="81" x="265.5" y="1229.0313">:CreateJobUI</text><rect fill="#E3E3E3" height="32.6211" rx="2.5" ry="2.5" style="stroke:#181818;stroke-width:0.5;" width="145" x="386.5" y="1206.9238"/><text fill="#000000" font-family="sans-serif" font-size="14" lengthAdjust="spacing" textLength="131" x="393.5" y="1229.0313">:CreateJobController</text><rect fill="#E3E3E3" height="32.6211" rx="2.5" ry="2.5" style="stroke:#181818;stroke-width:0.5;" width="97" x="577.5" y="50"/><text fill="#000000" font-family="sans-serif" font-size="14" lengthAdjust="spacing" textLength="83" x="584.5" y="72.1074">:Repositories</text><rect fill="#E3E3E3" height="32.6211" rx="2.5" ry="2.5" style="stroke:#181818;stroke-width:0.5;" width="97" x="577.5" y="1206.9238"/><text fill="#000000" font-family="sans-serif" font-size="14" lengthAdjust="spacing" textLength="83" x="584.5" y="1229.0313">:Repositories</text><rect fill="#E3E3E3" height="51.2422" rx="2.5" ry="2.5" style="stroke:#181818;stroke-width:0.5;" width="97" x="684.5" y="31.3789"/><text fill="#000000" font-family="sans-serif" font-size="14" lengthAdjust="spacing" textLength="74" x="696" y="53.4863">repositories</text><text fill="#000000" font-family="sans-serif" font-size="14" lengthAdjust="spacing" textLength="83" x="691.5" y="72.1074">:Repositories</text><rect fill="#E3E3E3" height="51.2422" rx="2.5" ry="2.5" style="stroke:#181818;stroke-width:0.5;" width="97" x="684.5" y="1206.9238"/><text fill="#000000" font-family="sans-serif" font-size="14" lengthAdjust="spacing" textLength="74" x="696" y="1229.0313">repositories</text><text fill="#000000" font-family="sans-serif" font-size="14" lengthAdjust="spacing" textLength="83" x="691.5" y="1247.6523">:Repositories</text><rect fill="#E3E3E3" height="51.2422" rx="2.5" ry="2.5" style="stroke:#181818;stroke-width:0.5;" width="108" x="791.5" y="31.3789"/><text fill="#000000" font-family="sans-serif" font-size="14" lengthAdjust="spacing" textLength="82" x="804.5" y="53.4863">jobrepository</text><text fill="#000000" font-family="sans-serif" font-size="14" lengthAdjust="spacing" textLength="94" x="798.5" y="72.1074">:JobRepository</text><rect fill="#E3E3E3" height="51.2422" rx="2.5" ry="2.5" style="stroke:#181818;stroke-width:0.5;" width="108" x="791.5" y="1206.9238"/><text fill="#000000" font-family="sans-serif" font-size="14" lengthAdjust="spacing" textLength="82" x="804.5" y="1229.0313">jobrepository</text><text fill="#000000" font-family="sans-serif" font-size="14" lengthAdjust="spacing" textLength="94" x="798.5" y="1247.6523">:JobRepository</text><rect fill="#E3E3E3" height="32.6211" rx="2.5" ry="2.5" style="stroke:#181818;stroke-width:0.5;" width="137" x="909.5" y="50"/><text fill="#000000" font-family="sans-serif" font-size="14" lengthAdjust="spacing" textLength="123" x="916.5" y="72.1074">:ApplicationSession</text><rect fill="#E3E3E3" height="32.6211" rx="2.5" ry="2.5" style="stroke:#181818;stroke-width:0.5;" width="137" x="909.5" y="1206.9238"/><text fill="#000000" font-family="sans-serif" font-size="14" lengthAdjust="spacing" textLength="123" x="916.5" y="1229.0313">:ApplicationSession</text><rect fill="#E3E3E3" height="51.2422" rx="2.5" ry="2.5" style="stroke:#181818;stroke-width:0.5;" width="137" x="1056.5" y="31.3789"/><text fill="#000000" font-family="sans-serif" font-size="14" lengthAdjust="spacing" textLength="74" x="1088" y="53.4863">appSession</text><text fill="#000000" font-family="sans-serif" font-size="14" lengthAdjust="spacing" textLength="123" x="1063.5" y="72.1074">:ApplicationSession</text><rect fill="#E3E3E3" height="51.2422" rx="2.5" ry="2.5" style="stroke:#181818;stroke-width:0.5;" width="137" x="1056.5" y="1206.9238"/><text fill="#000000" font-family="sans-serif" font-size="14" lengthAdjust="spacing" textLength="74" x="1088" y="1229.0313">appSession</text><text fill="#000000" font-family="sans-serif" font-size="14" lengthAdjust="spacing" textLength="123" x="1063.5" y="1247.6523">:ApplicationSession</text><rect fill="#E3E3E3" height="51.2422" rx="2.5" ry="2.5" style="stroke:#181818;stroke-width:0.5;" width="109" x="1203.5" y="31.3789"/><text fill="#000000" font-family="sans-serif" font-size="14" lengthAdjust="spacing" textLength="95" x="1210.5" y="53.4863">currentSession</text><text fill="#000000" font-family="sans-serif" font-size="14" lengthAdjust="spacing" textLength="83" x="1216.5" y="72.1074">:UserSession</text><rect fill="#E3E3E3" height="51.2422" rx="2.5" ry="2.5" style="stroke:#181818;stroke-width:0.5;" width="109" x="1203.5" y="1206.9238"/><text fill="#000000" font-family="sans-serif" font-size="14" lengthAdjust="spacing" textLength="95" x="1210.5" y="1229.0313">currentSession</text><text fill="#000000" font-family="sans-serif" font-size="14" lengthAdjust="spacing" textLength="83" x="1216.5" y="1247.6523">:UserSession</text><rect fill="#E3E3E3" height="51.2422" rx="2.5" ry="2.5" style="stroke:#181818;stroke-width:0.5;" width="163" x="1322.5" y="31.3789"/><text fill="#000000" font-family="sans-serif" font-size="14" lengthAdjust="spacing" textLength="149" x="1329.5" y="53.4863">organizationRepository:</text><text fill="#000000" font-family="sans-serif" font-size="14" lengthAdjust="spacing" textLength="148" x="1330" y="72.1074">OrganizationRepository</text><rect fill="#E3E3E3" height="51.2422" rx="2.5" ry="2.5" style="stroke:#181818;stroke-width:0.5;" width="163" x="1322.5" y="1206.9238"/><text fill="#000000" font-family="sans-serif" font-size="14" lengthAdjust="spacing" textLength="149" x="1329.5" y="1229.0313">organizationRepository:</text><text fill="#000000" font-family="sans-serif" font-size="14" lengthAdjust="spacing" textLength="148" x="1330" y="1247.6523">OrganizationRepository</text><rect fill="#E3E3E3" height="51.2422" rx="2.5" ry="2.5" style="stroke:#181818;stroke-width:0.5;" width="98" x="1547" y="31.3789"/><text fill="#000000" font-family="sans-serif" font-size="14" lengthAdjust="spacing" textLength="77" x="1557.5" y="53.4863">organization</text><text fill="#000000" font-family="sans-serif" font-size="14" lengthAdjust="spacing" textLength="84" x="1554" y="72.1074">:Organization</text><rect fill="#E3E3E3" height="51.2422" rx="2.5" ry="2.5" style="stroke:#181818;stroke-width:0.5;" width="98" x="1547" y="1206.9238"/><text fill="#000000" font-family="sans-serif" font-size="14" lengthAdjust="spacing" textLength="77" x="1557.5" y="1229.0313">organization</text><text fill="#000000" font-family="sans-serif" font-size="14" lengthAdjust="spacing" textLength="84" x="1554" y="1247.6523">:Organization</text><rect fill="#E3E3E3" height="51.2422" rx="2.5" ry="2.5" style="stroke:#181818;stroke-width:0.5;" width="40" x="1756" y="1206.9238"/><text fill="#000000" font-family="sans-serif" font-size="14" lengthAdjust="spacing" textLength="19" x="1766.5" y="1229.0313">job</text><text fill="#000000" font-family="sans-serif" font-size="14" lengthAdjust="spacing" textLength="26" x="1763" y="1247.6523">:Job</text><rect fill="#FFFFFF" height="1096.3027" style="stroke:#181818;stroke-width:1.0;" width="10" x="91" y="93.6211"/><rect fill="#FFFFFF" height="137.4941" style="stroke:#181818;stroke-width:1.0;" width="10" x="301" y="116.9121"/><rect fill="#FFFFFF" height="904.2266" style="stroke:#181818;stroke-width:1.0;" width="10" x="301" y="285.6973"/><rect fill="#FFFFFF" height="64.9121" style="stroke:#181818;stroke-width:1.0;" width="10" x="454" y="158.2031"/><rect fill="#FFFFFF" height="841.6445" style="stroke:#181818;stroke-width:1.0;" width="10" x="454" y="316.9883"/><rect fill="#FFFFFF" height="513.6563" style="stroke:#181818;stroke-width:1.0;" width="10" x="459" y="381.2793"/><rect fill="#FFFFFF" height="31.291" style="stroke:#181818;stroke-width:1.0;" width="10" x="728" y="191.8242"/><rect fill="#FFFFFF" height="31.291" style="stroke:#181818;stroke-width:1.0;" width="10" x="728" y="605.3164"/><rect fill="#FFFFFF" height="31.291" style="stroke:#181818;stroke-width:1.0;" width="10" x="973" y="417.5703"/><rect fill="#FFFFFF" height="31.291" style="stroke:#181818;stroke-width:1.0;" width="10" x="1120" y="480.1523"/><rect fill="#FFFFFF" height="31.291" style="stroke:#181818;stroke-width:1.0;" width="10" x="1253" y="542.7344"/><rect fill="#FFFFFF" height="127.1641" style="stroke:#181818;stroke-width:1.0;" width="10" x="1399" y="667.8984"/><rect fill="#FFFFFF" height="31.291" style="stroke:#181818;stroke-width:1.0;" width="10" x="1591" y="725.4805"/><rect fill="#FFFFFF" height="31.291" style="stroke:#181818;stroke-width:1.0;" width="10" x="1591" y="826.3535"/><rect fill="#FFFFFF" height="169.1152" style="stroke:#181818;stroke-width:1.0;" width="10" x="1591" y="958.2266"/><polygon fill="#181818" points="289,112.9121,299,116.9121,289,120.9121,293,116.9121" style="stroke:#181818;stroke-width:1.0;"/><line style="stroke:#181818;stroke-width:1.0;" x1="101" x2="295" y1="116.9121" y2="116.9121"/><text fill="#000000" font-family="sans-serif" font-size="13" font-weight="bold" lengthAdjust="spacing" textLength="7" x="108" y="111.6494">1</text><text fill="#000000" font-family="sans-serif" font-size="13" lengthAdjust="spacing" textLength="142" x="119" y="111.6494">asks to create a new job</text><polygon fill="#181818" points="374.5,144.2031,384.5,148.2031,374.5,152.2031,378.5,148.2031" style="stroke:#181818;stroke-width:1.0;"/><line style="stroke:#181818;stroke-width:1.0;" x1="311" x2="380.5" y1="148.2031" y2="148.2031"/><text fill="#000000" font-family="sans-serif" font-size="13" font-weight="bold" lengthAdjust="spacing" textLength="7" x="318" y="142.9404">2</text><text fill="#000000" font-family="sans-serif" font-size="13" lengthAdjust="spacing" textLength="36" x="329" y="142.9404">create</text><rect fill="#E3E3E3" height="32.6211" rx="2.5" ry="2.5" style="stroke:#181818;stroke-width:0.5;" width="145" x="386.5" y="124.9121"/><text fill="#000000" font-family="sans-serif" font-size="14" lengthAdjust="spacing" textLength="131" x="393.5" y="147.0195">:CreateJobController</text><polygon fill="#181818" points="716,187.8242,726,191.8242,716,195.8242,720,191.8242" style="stroke:#181818;stroke-width:1.0;"/><line style="stroke:#181818;stroke-width:1.0;" x1="464" x2="722" y1="191.8242" y2="191.8242"/><text fill="#000000" font-family="sans-serif" font-size="13" font-weight="bold" lengthAdjust="spacing" textLength="7" x="471" y="186.5615">3</text><text fill="#000000" font-family="sans-serif" font-size="13" lengthAdjust="spacing" textLength="108" x="482" y="186.5615">getJobRepository()</text><polygon fill="#181818" points="470,219.1152,460,223.1152,470,227.1152,466,223.1152" style="stroke:#181818;stroke-width:1.0;"/><line style="stroke:#181818;stroke-width:1.0;" x1="464" x2="732" y1="223.1152" y2="223.1152"/><text fill="#000000" font-family="sans-serif" font-size="13" font-weight="bold" lengthAdjust="spacing" textLength="7" x="476" y="217.8525">4</text><text fill="#000000" font-family="sans-serif" font-size="13" lengthAdjust="spacing" textLength="79" x="487" y="217.8525">jobRepository</text><polygon fill="#181818" points="112,250.4063,102,254.4063,112,258.4063,108,254.4063" style="stroke:#181818;stroke-width:1.0;"/><line style="stroke:#181818;stroke-width:1.0;stroke-dasharray:2.0,2.0;" x1="106" x2="305" y1="254.4063" y2="254.4063"/><text fill="#000000" font-family="sans-serif" font-size="13" font-weight="bold" lengthAdjust="spacing" textLength="7" x="118" y="249.1436">5</text><text fill="#000000" font-family="sans-serif" font-size="13" lengthAdjust="spacing" textLength="86" x="129" y="249.1436">requests name</text><polygon fill="#181818" points="289,281.6973,299,285.6973,289,289.6973,293,285.6973" style="stroke:#181818;stroke-width:1.0;"/><line style="stroke:#181818;stroke-width:1.0;" x1="101" x2="295" y1="285.6973" y2="285.6973"/><text fill="#000000" font-family="sans-serif" font-size="13" font-weight="bold" lengthAdjust="spacing" textLength="7" x="108" y="280.4346">6</text><text fill="#000000" font-family="sans-serif" font-size="13" lengthAdjust="spacing" textLength="129" x="119" y="280.4346">types requested name</text><polygon fill="#181818" points="442,312.9883,452,316.9883,442,320.9883,446,316.9883" style="stroke:#181818;stroke-width:1.0;"/><line style="stroke:#181818;stroke-width:1.0;" x1="311" x2="448" y1="316.9883" y2="316.9883"/><text fill="#000000" font-family="sans-serif" font-size="13" font-weight="bold" lengthAdjust="spacing" textLength="7" x="318" y="311.7256">7</text><text fill="#000000" font-family="sans-serif" font-size="13" lengthAdjust="spacing" textLength="113" x="329" y="311.7256">createJob(jobname)</text><line style="stroke:#181818;stroke-width:1.0;" x1="464" x2="511" y1="368.2793" y2="368.2793"/><line style="stroke:#181818;stroke-width:1.0;" x1="511" x2="511" y1="368.2793" y2="381.2793"/><line style="stroke:#181818;stroke-width:1.0;" x1="470" x2="511" y1="381.2793" y2="381.2793"/><polygon fill="#181818" points="480,377.2793,470,381.2793,480,385.2793,476,381.2793" style="stroke:#181818;stroke-width:1.0;"/><text fill="#000000" font-family="sans-serif" font-size="13" font-weight="bold" lengthAdjust="spacing" textLength="7" x="476" y="363.0166">8</text><text fill="#000000" font-family="sans-serif" font-size="13" lengthAdjust="spacing" textLength="132" x="487" y="363.0166">getHRMFromSession()</text><polygon fill="#181818" points="961,413.5703,971,417.5703,961,421.5703,965,417.5703" style="stroke:#181818;stroke-width:1.0;"/><line style="stroke:#181818;stroke-width:1.0;" x1="469" x2="967" y1="417.5703" y2="417.5703"/><text fill="#000000" font-family="sans-serif" font-size="13" font-weight="bold" lengthAdjust="spacing" textLength="7" x="476" y="412.3076">9</text><text fill="#000000" font-family="sans-serif" font-size="13" lengthAdjust="spacing" textLength="75" x="487" y="412.3076">getInstance()</text><polygon fill="#181818" points="480,444.8613,470,448.8613,480,452.8613,476,448.8613" style="stroke:#181818;stroke-width:1.0;"/><line style="stroke:#181818;stroke-width:1.0;" x1="474" x2="977" y1="448.8613" y2="448.8613"/><text fill="#000000" font-family="sans-serif" font-size="13" font-weight="bold" lengthAdjust="spacing" textLength="14" x="486" y="443.5986">10</text><text fill="#000000" font-family="sans-serif" font-size="13" lengthAdjust="spacing" textLength="68" x="504" y="443.5986">appSession</text><polygon fill="#181818" points="1108,476.1523,1118,480.1523,1108,484.1523,1112,480.1523" style="stroke:#181818;stroke-width:1.0;"/><line style="stroke:#181818;stroke-width:1.0;" x1="469" x2="1114" y1="480.1523" y2="480.1523"/><text fill="#000000" font-family="sans-serif" font-size="13" font-weight="bold" lengthAdjust="spacing" textLength="14" x="476" y="474.8896">11</text><text fill="#000000" font-family="sans-serif" font-size="13" lengthAdjust="spacing" textLength="115" x="494" y="474.8896">getCurrentSession()</text><polygon fill="#181818" points="480,507.4434,470,511.4434,480,515.4434,476,511.4434" style="stroke:#181818;stroke-width:1.0;"/><line style="stroke:#181818;stroke-width:1.0;stroke-dasharray:2.0,2.0;" x1="474" x2="1124" y1="511.4434" y2="511.4434"/><text fill="#000000" font-family="sans-serif" font-size="13" font-weight="bold" lengthAdjust="spacing" textLength="14" x="486" y="506.1807">12</text><text fill="#000000" font-family="sans-serif" font-size="13" lengthAdjust="spacing" textLength="87" x="504" y="506.1807">currentSession</text><polygon fill="#181818" points="1241,538.7344,1251,542.7344,1241,546.7344,1245,542.7344" style="stroke:#181818;stroke-width:1.0;"/><line style="stroke:#181818;stroke-width:1.0;" x1="469" x2="1247" y1="542.7344" y2="542.7344"/><text fill="#000000" font-family="sans-serif" font-size="13" font-weight="bold" lengthAdjust="spacing" textLength="14" x="476" y="537.4717">13</text><text fill="#000000" font-family="sans-serif" font-size="13" lengthAdjust="spacing" textLength="133" x="494" y="537.4717">email = getUserEmail()</text><polygon fill="#181818" points="480,570.0254,470,574.0254,480,578.0254,476,574.0254" style="stroke:#181818;stroke-width:1.0;"/><line style="stroke:#181818;stroke-width:1.0;stroke-dasharray:2.0,2.0;" x1="474" x2="1257" y1="574.0254" y2="574.0254"/><text fill="#000000" font-family="sans-serif" font-size="13" font-weight="bold" lengthAdjust="spacing" textLength="14" x="486" y="568.7627">14</text><text fill="#000000" font-family="sans-serif" font-size="13" lengthAdjust="spacing" textLength="31" x="504" y="568.7627">email</text><polygon fill="#181818" points="716,601.3164,726,605.3164,716,609.3164,720,605.3164" style="stroke:#181818;stroke-width:1.0;"/><line style="stroke:#181818;stroke-width:1.0;" x1="469" x2="722" y1="605.3164" y2="605.3164"/><text fill="#000000" font-family="sans-serif" font-size="13" font-weight="bold" lengthAdjust="spacing" textLength="14" x="476" y="600.0537">15</text><text fill="#000000" font-family="sans-serif" font-size="13" lengthAdjust="spacing" textLength="192" x="494" y="600.0537">getOrganizationRepository(email)</text><polygon fill="#181818" points="480,632.6074,470,636.6074,480,640.6074,476,636.6074" style="stroke:#181818;stroke-width:1.0;"/><line style="stroke:#181818;stroke-width:1.0;stroke-dasharray:2.0,2.0;" x1="474" x2="732" y1="636.6074" y2="636.6074"/><text fill="#000000" font-family="sans-serif" font-size="13" font-weight="bold" lengthAdjust="spacing" textLength="14" x="486" y="631.3447">16</text><text fill="#000000" font-family="sans-serif" font-size="13" lengthAdjust="spacing" textLength="132" x="504" y="631.3447">organizationRepository</text><polygon fill="#181818" points="1387,663.8984,1397,667.8984,1387,671.8984,1391,667.8984" style="stroke:#181818;stroke-width:1.0;"/><line style="stroke:#181818;stroke-width:1.0;" x1="469" x2="1393" y1="667.8984" y2="667.8984"/><text fill="#000000" font-family="sans-serif" font-size="13" font-weight="bold" lengthAdjust="spacing" textLength="14" x="476" y="662.6357">17</text><text fill="#000000" font-family="sans-serif" font-size="13" lengthAdjust="spacing" textLength="208" x="494" y="662.6357">getOrganizationByHRMEmail(email)</text><path d="M1312.5,682.8984 L1385.5,682.8984 L1385.5,692.1895 L1375.5,702.1895 L1312.5,702.1895 L1312.5,682.8984 " fill="#EEEEEE" style="stroke:#000000;stroke-width:1.5;"/><rect fill="none" height="81.873" style="stroke:#000000;stroke-width:1.5;" width="342.5" x="1312.5" y="682.8984"/><text fill="#000000" font-family="sans-serif" font-size="13" font-weight="bold" lengthAdjust="spacing" textLength="28" x="1327.5" y="697.9268">loop</text><text fill="#000000" font-family="sans-serif" font-size="11" font-weight="bold" lengthAdjust="spacing" textLength="128" x="1400.5" y="696.7686">[[for each organization]</text><polygon fill="#181818" points="1579,721.4805,1589,725.4805,1579,729.4805,1583,725.4805" style="stroke:#181818;stroke-width:1.0;"/><line style="stroke:#181818;stroke-width:1.0;" x1="1409" x2="1585" y1="725.4805" y2="725.4805"/><text fill="#000000" font-family="sans-serif" font-size="13" font-weight="bold" lengthAdjust="spacing" textLength="14" x="1416" y="720.2178">18</text><text fill="#000000" font-family="sans-serif" font-size="13" lengthAdjust="spacing" textLength="145" x="1434" y="720.2178">anyHRMHasEmail(email)</text><polygon fill="#181818" points="1420,752.7715,1410,756.7715,1420,760.7715,1416,756.7715" style="stroke:#181818;stroke-width:1.0;"/><line style="stroke:#181818;stroke-width:1.0;stroke-dasharray:2.0,2.0;" x1="1414" x2="1595" y1="756.7715" y2="756.7715"/><text fill="#000000" font-family="sans-serif" font-size="13" font-weight="bold" lengthAdjust="spacing" textLength="14" x="1426" y="751.5088">19</text><text fill="#000000" font-family="sans-serif" font-size="13" lengthAdjust="spacing" textLength="53" x="1444" y="751.5088">true/false</text><polygon fill="#181818" points="480,791.0625,470,795.0625,480,799.0625,476,795.0625" style="stroke:#181818;stroke-width:1.0;"/><line style="stroke:#181818;stroke-width:1.0;stroke-dasharray:2.0,2.0;" x1="474" x2="1403" y1="795.0625" y2="795.0625"/><text fill="#000000" font-family="sans-serif" font-size="13" font-weight="bold" lengthAdjust="spacing" textLength="14" x="486" y="789.7998">20</text><text fill="#000000" font-family="sans-serif" font-size="13" lengthAdjust="spacing" textLength="70" x="504" y="789.7998">organization</text><polygon fill="#181818" points="1579,822.3535,1589,826.3535,1579,830.3535,1583,826.3535" style="stroke:#181818;stroke-width:1.0;"/><line style="stroke:#181818;stroke-width:1.0;" x1="469" x2="1585" y1="826.3535" y2="826.3535"/><text fill="#000000" font-family="sans-serif" font-size="13" font-weight="bold" lengthAdjust="spacing" textLength="14" x="476" y="821.0908">21</text><text fill="#000000" font-family="sans-serif" font-size="13" lengthAdjust="spacing" textLength="135" x="494" y="821.0908">getHRMByEmail(email)</text><polygon fill="#181818" points="480,853.6445,470,857.6445,480,861.6445,476,857.6445" style="stroke:#181818;stroke-width:1.0;"/><line style="stroke:#181818;stroke-width:1.0;stroke-dasharray:2.0,2.0;" x1="474" x2="1595" y1="857.6445" y2="857.6445"/><text fill="#000000" font-family="sans-serif" font-size="13" font-weight="bold" lengthAdjust="spacing" textLength="14" x="486" y="852.3818">22</text><text fill="#000000" font-family="sans-serif" font-size="13" lengthAdjust="spacing" textLength="22" x="504" y="852.3818">hrm</text><line style="stroke:#181818;stroke-width:1.0;stroke-dasharray:2.0,2.0;" x1="469" x2="511" y1="893.9355" y2="893.9355"/><line style="stroke:#181818;stroke-width:1.0;stroke-dasharray:2.0,2.0;" x1="511" x2="511" y1="893.9355" y2="906.9355"/><line style="stroke:#181818;stroke-width:1.0;stroke-dasharray:2.0,2.0;" x1="464" x2="511" y1="906.9355" y2="906.9355"/><polygon fill="#181818" points="474,902.9355,464,906.9355,474,910.9355,470,906.9355" style="stroke:#181818;stroke-width:1.0;"/><text fill="#000000" font-family="sans-serif" font-size="13" font-weight="bold" lengthAdjust="spacing" textLength="14" x="476" y="888.6729">23</text><text fill="#000000" font-family="sans-serif" font-size="13" lengthAdjust="spacing" textLength="22" x="494" y="888.6729">hrm</text><polygon fill="#181818" points="1579,954.2266,1589,958.2266,1579,962.2266,1583,958.2266" style="stroke:#181818;stroke-width:1.0;"/><line style="stroke:#181818;stroke-width:1.0;" x1="464" x2="1585" y1="958.2266" y2="958.2266"/><text fill="#000000" font-family="sans-serif" font-size="13" font-weight="bold" lengthAdjust="spacing" textLength="14" x="471" y="952.9639">24</text><text fill="#000000" font-family="sans-serif" font-size="13" lengthAdjust="spacing" textLength="113" x="489" y="952.9639">createJob(jobname)</text><polygon fill="#181818" points="1744,985.5176,1754,989.5176,1744,993.5176,1748,989.5176" style="stroke:#181818;stroke-width:1.0;"/><line style="stroke:#181818;stroke-width:1.0;" x1="1601" x2="1750" y1="989.5176" y2="989.5176"/><text fill="#000000" font-family="sans-serif" font-size="13" font-weight="bold" lengthAdjust="spacing" textLength="14" x="1608" y="984.2549">25</text><text fill="#000000" font-family="sans-serif" font-size="13" lengthAdjust="spacing" textLength="113" x="1626" y="984.2549">createJob(jobname)</text><rect fill="#E3E3E3" height="51.2422" rx="2.5" ry="2.5" style="stroke:#181818;stroke-width:0.5;" width="40" x="1756" y="966.2266"/><text fill="#000000" font-family="sans-serif" font-size="14" lengthAdjust="spacing" textLength="19" x="1766.5" y="988.334">job</text><text fill="#000000" font-family="sans-serif" font-size="14" lengthAdjust="spacing" textLength="26" x="1763" y="1006.9551">:Job</text><line style="stroke:#181818;stroke-width:1.0;" x1="1601" x2="1643" y1="1051.7598" y2="1051.7598"/><line style="stroke:#181818;stroke-width:1.0;" x1="1643" x2="1643" y1="1051.7598" y2="1064.7598"/><line style="stroke:#181818;stroke-width:1.0;" x1="1602" x2="1643" y1="1064.7598" y2="1064.7598"/><polygon fill="#181818" points="1612,1060.7598,1602,1064.7598,1612,1068.7598,1608,1064.7598" style="stroke:#181818;stroke-width:1.0;"/><text fill="#000000" font-family="sans-serif" font-size="13" font-weight="bold" lengthAdjust="spacing" textLength="14" x="1608" y="1046.4971">26</text><text fill="#000000" font-family="sans-serif" font-size="13" lengthAdjust="spacing" textLength="88" x="1626" y="1046.4971">validateJob(job)</text><polygon fill="#181818" points="856.5,1092.0508,846.5,1096.0508,856.5,1100.0508,852.5,1096.0508" style="stroke:#181818;stroke-width:1.0;"/><line style="stroke:#181818;stroke-width:1.0;" x1="850.5" x2="1590" y1="1096.0508" y2="1096.0508"/><text fill="#000000" font-family="sans-serif" font-size="13" font-weight="bold" lengthAdjust="spacing" textLength="14" x="862.5" y="1090.7881">27</text><text fill="#000000" font-family="sans-serif" font-size="13" lengthAdjust="spacing" textLength="66" x="880.5" y="1090.7881">addJob(job)</text><polygon fill="#181818" points="475,1123.3418,465,1127.3418,475,1131.3418,471,1127.3418" style="stroke:#181818;stroke-width:1.0;"/><line style="stroke:#181818;stroke-width:1.0;stroke-dasharray:2.0,2.0;" x1="469" x2="1595" y1="1127.3418" y2="1127.3418"/><text fill="#000000" font-family="sans-serif" font-size="13" font-weight="bold" lengthAdjust="spacing" textLength="14" x="481" y="1122.0791">28</text><text fill="#000000" font-family="sans-serif" font-size="13" lengthAdjust="spacing" textLength="17" x="499" y="1122.0791">job</text><polygon fill="#181818" points="322,1154.6328,312,1158.6328,322,1162.6328,318,1158.6328" style="stroke:#181818;stroke-width:1.0;"/><line style="stroke:#181818;stroke-width:1.0;stroke-dasharray:2.0,2.0;" x1="316" x2="458" y1="1158.6328" y2="1158.6328"/><text fill="#000000" font-family="sans-serif" font-size="13" font-weight="bold" lengthAdjust="spacing" textLength="14" x="328" y="1153.3701">29</text><text fill="#000000" font-family="sans-serif" font-size="13" lengthAdjust="spacing" textLength="17" x="346" y="1153.3701">job</text><polygon fill="#181818" points="107,1185.9238,97,1189.9238,107,1193.9238,103,1189.9238" style="stroke:#181818;stroke-width:1.0;"/><line style="stroke:#181818;stroke-width:1.0;stroke-dasharray:2.0,2.0;" x1="101" x2="305" y1="1189.9238" y2="1189.9238"/><text fill="#000000" font-family="sans-serif" font-size="13" font-weight="bold" lengthAdjust="spacing" textLength="14" x="113" y="1184.6611">30</text><text fill="#000000" font-family="sans-serif" font-size="13" lengthAdjust="spacing" textLength="158" x="131" y="1184.6611">displays operation success</text><!--SRC=[bLPTRziW57tdLw2-D8rKxJtIAdbPFpArQcKtJwiq4Picj3PuWDjbwe_V1N_RO7T-YGBt7CuzN2weLyPp8ac6Cy55V90YerZBWYBLpEGaVYLx6kbZIh6aiIPydtO3r84auftnFNucgQ88aK8BNcGxAX4wFR24ucSXz4xyGIJMGkAJco8Z78TKYKB6LE4xmc45UOA9mi7tEmIyciKi9rpZazLQKgBf3x7RRcp4TkCBM0kkfKZJYchz6DuEGaEQ2yL01AFAnZG3nuYPl41v7o8xY2S-9dYu3HxxY1UnQq17W82mTXMBYSA1h23FKnOJpGIFg5BmO-D-1GyF_KYIvrK047jG8r1SI4cvRe5RHMKN4Lr6KN3V1mcv9vpzjUoj_DKJltTEM1xtb9yNf7GX9KTuFRApDD5EFmRXvLM0J2MnDzXrMoy8Ln_ymUSNK25u1S6l2ck1OriTc61Etp6GjT4D1rGKEiMT3mZEWSVGhQ3cVnTKQOKJeWbUS9BHCzIDFgsMiFKsfBcmmyib49LXg1VIQB3WtfJzpB0XCMK657kgU-MqE1j3HjIsHDrnbhRI2FGlNMut8g5zti5Ouu7RGcFU46BS7swUFkRG5oeOJLhS2DNtkN4PN5f0DltDcZ3xu-C3kNolIC7tc_3k2lfZTMu6niziOyrc3hGbst05VJIcZlrhgEpfTss1cQYrGPqtBG5Dx9KbymkhTQrxhM9AdULpgRFY6dNztZEbq4bOwoixr0hJZB0KVpLIJHExD7-dL5QTpIcqdEjejUHJ4cisD7LAhO_kJhYmAqp8zP_Kyg0sKjtT6SqTLhzoj-1HBj-ES0nAr-ToyLm6pknI8NByyndU1Y3uqClEsz_S_3QNyDhqVswqtX0rANSi6-uVVq-r2mFzkTSoqxpW0VMbV0lvE3eROnPqXL2UeF_9ksrMa_PrL_xa3ZKr4bxNdV3RyPD5u7EpDh6IV90Pcl788ylFCRoLFjNlROuJLyXyTZQpY-gXibmwsNmWk_eRILdI8lpHKGXLdYHj79fnkVVwcREuiNUxAP5JtheVJokSC9MdvAYmoAcqXOPL4SERNxbU0TtR09vr_m00]--></g></svg>