<?xml version="1.0" encoding="us-ascii" standalone="no"?><svg xmlns="http://www.w3.org/2000/svg" xmlns:xlink="http://www.w3.org/1999/xlink" contentStyleType="text/css" height="760px" preserveAspectRatio="none" style="width:719px;height:760px;background:#FFFFFF;" version="1.1" viewBox="0 0 719 760" width="719px" zoomAndPan="magnify"><defs/><g><rect fill="#FFFFFF" height="565.5391" style="stroke:#181818;stroke-width:1.0;" width="10" x="91" y="93.6211"/><rect fill="#FFFFFF" height="74.9121" style="stroke:#181818;stroke-width:1.0;" width="10" x="301" y="116.9121"/><rect fill="#FFFFFF" height="31.291" style="stroke:#181818;stroke-width:1.0;" width="10" x="301" y="223.1152"/><rect fill="#FFFFFF" height="373.4629" style="stroke:#181818;stroke-width:1.0;" width="10" x="301" y="285.6973"/><rect fill="#FFFFFF" height="310.8809" style="stroke:#181818;stroke-width:1.0;" width="10" x="449.5" y="316.9883"/><rect fill="#FFFFFF" height="106.5039" style="stroke:#181818;stroke-width:1.0;" width="10" x="454.5" y="356.2793"/><rect fill="#FFFFFF" height="95.5039" style="stroke:#181818;stroke-width:1.0;" width="10" x="656.5" y="501.0742"/><line style="stroke:#181818;stroke-width:0.5;stroke-dasharray:5.0,5.0;" x1="96" x2="96" y1="83.6211" y2="677.1602"/><line style="stroke:#181818;stroke-width:0.5;stroke-dasharray:5.0,5.0;" x1="305.5" x2="305.5" y1="83.6211" y2="677.1602"/><line style="stroke:#181818;stroke-width:0.5;stroke-dasharray:5.0,5.0;" x1="454" x2="454" y1="156.7227" y2="677.1602"/><line style="stroke:#181818;stroke-width:0.5;stroke-dasharray:5.0,5.0;" x1="661.5" x2="661.5" y1="83.6211" y2="677.1602"/><text fill="#000000" font-family="sans-serif" font-size="14" lengthAdjust="spacing" textLength="176" x="5" y="80.1074">Human Resources Manager</text><ellipse cx="96" cy="13.5" fill="#E3E3E3" rx="8" ry="8" style="stroke:#181818;stroke-width:0.5;"/><path d="M96,21.5 L96,48.5 M83,29.5 L109,29.5 M96,48.5 L83,63.5 M96,48.5 L109,63.5 " fill="none" style="stroke:#181818;stroke-width:0.5;"/><text fill="#000000" font-family="sans-serif" font-size="14" lengthAdjust="spacing" textLength="176" x="5" y="691.2676">Human Resources Manager</text><ellipse cx="96" cy="703.2813" fill="#E3E3E3" rx="8" ry="8" style="stroke:#181818;stroke-width:0.5;"/><path d="M96,711.2813 L96,738.2813 M83,719.2813 L109,719.2813 M96,738.2813 L83,753.2813 M96,738.2813 L109,753.2813 " fill="none" style="stroke:#181818;stroke-width:0.5;"/><rect fill="#E3E3E3" height="32.6211" rx="2.5" ry="2.5" style="stroke:#181818;stroke-width:0.5;" width="95" x="258.5" y="50"/><text fill="#000000" font-family="sans-serif" font-size="14" lengthAdjust="spacing" textLength="81" x="265.5" y="72.1074">:CreateJobUI</text><rect fill="#E3E3E3" height="32.6211" rx="2.5" ry="2.5" style="stroke:#181818;stroke-width:0.5;" width="95" x="258.5" y="676.1602"/><text fill="#000000" font-family="sans-serif" font-size="14" lengthAdjust="spacing" textLength="81" x="265.5" y="698.2676">:CreateJobUI</text><rect fill="#E3E3E3" height="32.6211" rx="2.5" ry="2.5" style="stroke:#181818;stroke-width:0.5;" width="145" x="382" y="676.1602"/><text fill="#000000" font-family="sans-serif" font-size="14" lengthAdjust="spacing" textLength="131" x="389" y="698.2676">:CreateJobController</text><rect fill="#E3E3E3" height="51.2422" rx="2.5" ry="2.5" style="stroke:#181818;stroke-width:0.5;" width="98" x="612.5" y="31.3789"/><text fill="#000000" font-family="sans-serif" font-size="14" lengthAdjust="spacing" textLength="77" x="623" y="53.4863">organization</text><text fill="#000000" font-family="sans-serif" font-size="14" lengthAdjust="spacing" textLength="84" x="619.5" y="72.1074">:Organization</text><rect fill="#E3E3E3" height="51.2422" rx="2.5" ry="2.5" style="stroke:#181818;stroke-width:0.5;" width="98" x="612.5" y="676.1602"/><text fill="#000000" font-family="sans-serif" font-size="14" lengthAdjust="spacing" textLength="77" x="623" y="698.2676">organization</text><text fill="#000000" font-family="sans-serif" font-size="14" lengthAdjust="spacing" textLength="84" x="619.5" y="716.8887">:Organization</text><rect fill="#FFFFFF" height="565.5391" style="stroke:#181818;stroke-width:1.0;" width="10" x="91" y="93.6211"/><rect fill="#FFFFFF" height="74.9121" style="stroke:#181818;stroke-width:1.0;" width="10" x="301" y="116.9121"/><rect fill="#FFFFFF" height="31.291" style="stroke:#181818;stroke-width:1.0;" width="10" x="301" y="223.1152"/><rect fill="#FFFFFF" height="373.4629" style="stroke:#181818;stroke-width:1.0;" width="10" x="301" y="285.6973"/><rect fill="#FFFFFF" height="310.8809" style="stroke:#181818;stroke-width:1.0;" width="10" x="449.5" y="316.9883"/><rect fill="#FFFFFF" height="106.5039" style="stroke:#181818;stroke-width:1.0;" width="10" x="454.5" y="356.2793"/><rect fill="#FFFFFF" height="95.5039" style="stroke:#181818;stroke-width:1.0;" width="10" x="656.5" y="501.0742"/><polygon fill="#181818" points="289,112.9121,299,116.9121,289,120.9121,293,116.9121" style="stroke:#181818;stroke-width:1.0;"/><line style="stroke:#181818;stroke-width:1.0;" x1="101" x2="295" y1="116.9121" y2="116.9121"/><text fill="#000000" font-family="sans-serif" font-size="13" font-weight="bold" lengthAdjust="spacing" textLength="7" x="108" y="111.6494">1</text><text fill="#000000" font-family="sans-serif" font-size="13" lengthAdjust="spacing" textLength="150" x="119" y="111.6494">asks to create a new task</text><polygon fill="#181818" points="370,144.2031,380,148.2031,370,152.2031,374,148.2031" style="stroke:#181818;stroke-width:1.0;"/><line style="stroke:#181818;stroke-width:1.0;" x1="311" x2="376" y1="148.2031" y2="148.2031"/><text fill="#000000" font-family="sans-serif" font-size="13" font-weight="bold" lengthAdjust="spacing" textLength="7" x="318" y="142.9404">2</text><text fill="#000000" font-family="sans-serif" font-size="13" lengthAdjust="spacing" textLength="36" x="329" y="142.9404">create</text><rect fill="#E3E3E3" height="32.6211" rx="2.5" ry="2.5" style="stroke:#181818;stroke-width:0.5;" width="145" x="382" y="124.9121"/><text fill="#000000" font-family="sans-serif" font-size="14" lengthAdjust="spacing" textLength="131" x="389" y="147.0195">:CreateJobController</text><polygon fill="#181818" points="112,187.8242,102,191.8242,112,195.8242,108,191.8242" style="stroke:#181818;stroke-width:1.0;"/><line style="stroke:#181818;stroke-width:1.0;stroke-dasharray:2.0,2.0;" x1="106" x2="305" y1="191.8242" y2="191.8242"/><text fill="#000000" font-family="sans-serif" font-size="13" font-weight="bold" lengthAdjust="spacing" textLength="7" x="118" y="186.5615">3</text><text fill="#000000" font-family="sans-serif" font-size="13" lengthAdjust="spacing" textLength="125" x="129" y="186.5615">requests name for job</text><polygon fill="#181818" points="289,219.1152,299,223.1152,289,227.1152,293,223.1152" style="stroke:#181818;stroke-width:1.0;"/><line style="stroke:#181818;stroke-width:1.0;" x1="101" x2="295" y1="223.1152" y2="223.1152"/><text fill="#000000" font-family="sans-serif" font-size="13" font-weight="bold" lengthAdjust="spacing" textLength="7" x="108" y="217.8525">4</text><text fill="#000000" font-family="sans-serif" font-size="13" lengthAdjust="spacing" textLength="129" x="119" y="217.8525">types requested name</text><polygon fill="#181818" points="112,250.4063,102,254.4063,112,258.4063,108,254.4063" style="stroke:#181818;stroke-width:1.0;"/><line style="stroke:#181818;stroke-width:1.0;stroke-dasharray:2.0,2.0;" x1="106" x2="305" y1="254.4063" y2="254.4063"/><text fill="#000000" font-family="sans-serif" font-size="13" font-weight="bold" lengthAdjust="spacing" textLength="7" x="118" y="249.1436">5</text><text fill="#000000" font-family="sans-serif" font-size="13" lengthAdjust="spacing" textLength="109" x="129" y="249.1436">shows typed name</text><polygon fill="#181818" points="289,281.6973,299,285.6973,289,289.6973,293,285.6973" style="stroke:#181818;stroke-width:1.0;"/><line style="stroke:#181818;stroke-width:1.0;" x1="101" x2="295" y1="285.6973" y2="285.6973"/><text fill="#000000" font-family="sans-serif" font-size="13" font-weight="bold" lengthAdjust="spacing" textLength="7" x="108" y="280.4346">6</text><text fill="#000000" font-family="sans-serif" font-size="13" lengthAdjust="spacing" textLength="82" x="119" y="280.4346">submits name</text><polygon fill="#181818" points="437.5,312.9883,447.5,316.9883,437.5,320.9883,441.5,316.9883" style="stroke:#181818;stroke-width:1.0;"/><line style="stroke:#181818;stroke-width:1.0;" x1="311" x2="443.5" y1="316.9883" y2="316.9883"/><text fill="#000000" font-family="sans-serif" font-size="13" font-weight="bold" lengthAdjust="spacing" textLength="7" x="318" y="311.7256">7</text><text fill="#000000" font-family="sans-serif" font-size="13" lengthAdjust="spacing" textLength="96" x="329" y="311.7256">createJob(name)</text><line style="stroke:#181818;stroke-width:1.0;" x1="459.5" x2="506.5" y1="343.2793" y2="343.2793"/><line style="stroke:#181818;stroke-width:1.0;" x1="506.5" x2="506.5" y1="343.2793" y2="356.2793"/><line style="stroke:#181818;stroke-width:1.0;" x1="465.5" x2="506.5" y1="356.2793" y2="356.2793"/><polygon fill="#181818" points="475.5,352.2793,465.5,356.2793,475.5,360.2793,471.5,356.2793" style="stroke:#181818;stroke-width:1.0;"/><text fill="#000000" font-family="sans-serif" font-size="13" font-weight="bold" lengthAdjust="spacing" textLength="7" x="471.5" y="338.0166">8</text><text fill="#000000" font-family="sans-serif" font-size="13" lengthAdjust="spacing" textLength="161" x="482.5" y="338.0166">getEmployeeFromSession()</text><rect fill="none" height="59.2129" style="stroke:#000000;stroke-width:1.5;" width="151" x="379" y="369.2793"/><path d="M379,369.2793 L441,369.2793 L441,378.2793 L431,388.2793 L379,388.2793 L379,369.2793 " fill="#EEEEEE" style="stroke:#000000;stroke-width:2.0;"/><text fill="#000000" font-family="sans-serif" font-size="13" font-weight="bold" lengthAdjust="spacing" textLength="17" x="392" y="385.3076">ref</text><text fill="#000000" font-family="sans-serif" font-size="12" lengthAdjust="spacing" textLength="77" x="416" y="405.2285">Get Employee</text><text fill="#000000" font-family="sans-serif" font-size="12" lengthAdjust="spacing" textLength="3" x="453" y="421.1895">&#160;</text><line style="stroke:#181818;stroke-width:1.0;" x1="464.5" x2="506.5" y1="461.7832" y2="461.7832"/><line style="stroke:#181818;stroke-width:1.0;" x1="506.5" x2="506.5" y1="461.7832" y2="474.7832"/><line style="stroke:#181818;stroke-width:1.0;" x1="459.5" x2="506.5" y1="474.7832" y2="474.7832"/><polygon fill="#181818" points="469.5,470.7832,459.5,474.7832,469.5,478.7832,465.5,474.7832" style="stroke:#181818;stroke-width:1.0;"/><text fill="#000000" font-family="sans-serif" font-size="13" font-weight="bold" lengthAdjust="spacing" textLength="7" x="471.5" y="456.5205">9</text><text fill="#000000" font-family="sans-serif" font-size="13" lengthAdjust="spacing" textLength="56" x="482.5" y="456.5205">employee</text><polygon fill="#181818" points="644.5,497.0742,654.5,501.0742,644.5,505.0742,648.5,501.0742" style="stroke:#181818;stroke-width:1.0;"/><line style="stroke:#181818;stroke-width:1.0;" x1="459.5" x2="650.5" y1="501.0742" y2="501.0742"/><text fill="#000000" font-family="sans-serif" font-size="13" font-weight="bold" lengthAdjust="spacing" textLength="14" x="466.5" y="495.8115">10</text><text fill="#000000" font-family="sans-serif" font-size="13" lengthAdjust="spacing" textLength="160" x="484.5" y="495.8115">createJob(name, employee)</text><rect fill="none" height="59.2129" style="stroke:#000000;stroke-width:1.5;" width="104" x="609.5" y="509.0742"/><path d="M609.5,509.0742 L671.5,509.0742 L671.5,518.0742 L661.5,528.0742 L609.5,528.0742 L609.5,509.0742 " fill="#EEEEEE" style="stroke:#000000;stroke-width:2.0;"/><text fill="#000000" font-family="sans-serif" font-size="13" font-weight="bold" lengthAdjust="spacing" textLength="17" x="622.5" y="525.1025">ref</text><text fill="#000000" font-family="sans-serif" font-size="12" lengthAdjust="spacing" textLength="60" x="631.5" y="545.0234">Create Job</text><text fill="#000000" font-family="sans-serif" font-size="12" lengthAdjust="spacing" textLength="3" x="660" y="560.9844">&#160;</text><polygon fill="#181818" points="470.5,592.5781,460.5,596.5781,470.5,600.5781,466.5,596.5781" style="stroke:#181818;stroke-width:1.0;"/><line style="stroke:#181818;stroke-width:1.0;stroke-dasharray:2.0,2.0;" x1="464.5" x2="660.5" y1="596.5781" y2="596.5781"/><text fill="#000000" font-family="sans-serif" font-size="13" font-weight="bold" lengthAdjust="spacing" textLength="14" x="476.5" y="591.3154">11</text><text fill="#000000" font-family="sans-serif" font-size="13" lengthAdjust="spacing" textLength="17" x="494.5" y="591.3154">job</text><polygon fill="#181818" points="322,623.8691,312,627.8691,322,631.8691,318,627.8691" style="stroke:#181818;stroke-width:1.0;"/><line style="stroke:#181818;stroke-width:1.0;stroke-dasharray:2.0,2.0;" x1="316" x2="453.5" y1="627.8691" y2="627.8691"/><text fill="#000000" font-family="sans-serif" font-size="13" font-weight="bold" lengthAdjust="spacing" textLength="14" x="328" y="622.6064">12</text><text fill="#000000" font-family="sans-serif" font-size="13" lengthAdjust="spacing" textLength="17" x="346" y="622.6064">job</text><polygon fill="#181818" points="107,655.1602,97,659.1602,107,663.1602,103,659.1602" style="stroke:#181818;stroke-width:1.0;"/><line style="stroke:#181818;stroke-width:1.0;stroke-dasharray:2.0,2.0;" x1="101" x2="305" y1="659.1602" y2="659.1602"/><text fill="#000000" font-family="sans-serif" font-size="13" font-weight="bold" lengthAdjust="spacing" textLength="14" x="113" y="653.8975">13</text><text fill="#000000" font-family="sans-serif" font-size="13" lengthAdjust="spacing" textLength="158" x="131" y="653.8975">displays operation success</text><!--SRC=[ZLJ1SjD03BtlLsXoeUt03_Z031EWbA7JcPJUkCYsuYonLsQrRWXVZtQTk4xj17JoIdfFUbgjPMjTYnuRQDXniV7S40JVaP4XqcAnnOeUmxucy5G4T5KzJf0Dbhophe8rraB6O1VOTKrEtfWt6riIh9b3phyD5e4zBBvq3JfOaN3d2nAuHwSL_09GuCF7UwEymHQsHHTWaIqzOQ2ld3_TfOodktC9ItR1SrqVg9RVLzzEKzbNwEmV39RT3vSzZ8u9yR2wDR59-wo4gHK3Qle1xzvhOSWqQoiG68fK510SxI2ejqyTmDfbSaHJeC9ZEpStIj53JyCQZrKodV2lZYG8E6pYu3pyv3obbZGX7pSMzgsEyW2dCk4ljpJKb0tl916COFye9rtUs4ER_wDyqAttT1L1rqFIW4mNDhYZ9UGBGqNXKzFMl2VwhBlwI29wTLVN9vWBTD4yhO6VoVTXcB5R2d0iCyMJAoF7nF-gLJeIZ7D6CpslLPVmzQpU3dHdfAR5FQiqHkU4zWy7jCgipAbJYTBQ73GUDtD6tgIXNbtQdel0oQsyR6e6fPMsnhq0j-JJizKzBFGN8dChEph6f_mN]--></g></svg>