<?xml version="1.0" encoding="us-ascii" standalone="no"?><svg xmlns="http://www.w3.org/2000/svg" xmlns:xlink="http://www.w3.org/1999/xlink" contentStyleType="text/css" height="919px" preserveAspectRatio="none" style="width:1539px;height:919px;background:#FFFFFF;" version="1.1" viewBox="0 0 1539 919" width="1539px" zoomAndPan="magnify"><defs/><g><rect fill="#FFFFFF" height="725.1113" style="stroke:#181818;stroke-width:1.0;" width="10" x="78.5" y="93.6211"/><rect fill="#FFFFFF" height="701.8203" style="stroke:#181818;stroke-width:1.0;" width="10" x="415.5" y="116.9121"/><rect fill="#FFFFFF" height="326.9102" style="stroke:#181818;stroke-width:1.0;" width="10" x="668.5" y="158.2031"/><rect fill="#FFFFFF" height="90.543" style="stroke:#181818;stroke-width:1.0;" width="10" x="673.5" y="356.2793"/><rect fill="#FFFFFF" height="271.0371" style="stroke:#181818;stroke-width:1.0;" width="10" x="668.5" y="516.4043"/><rect fill="#FFFFFF" height="31.291" style="stroke:#181818;stroke-width:1.0;" width="10" x="836.5" y="191.8242"/><rect fill="#FFFFFF" height="31.291" style="stroke:#181818;stroke-width:1.0;" width="10" x="943.5" y="254.4063"/><rect fill="#FFFFFF" height="208.4551" style="stroke:#181818;stroke-width:1.0;" width="10" x="1085" y="547.6953"/><rect fill="#FFFFFF" height="42.291" style="stroke:#181818;stroke-width:1.0;" width="10" x="1090" y="586.9863"/><rect fill="#FFFFFF" height="42.291" style="stroke:#181818;stroke-width:1.0;" width="10" x="1090" y="675.5684"/><line style="stroke:#181818;stroke-width:0.5;stroke-dasharray:5.0,5.0;" x1="83" x2="83" y1="83.6211" y2="836.7324"/><line style="stroke:#181818;stroke-width:0.5;stroke-dasharray:5.0,5.0;" x1="420" x2="420" y1="83.6211" y2="836.7324"/><line style="stroke:#181818;stroke-width:0.5;stroke-dasharray:5.0,5.0;" x1="673" x2="673" y1="156.7227" y2="836.7324"/><line style="stroke:#181818;stroke-width:0.5;stroke-dasharray:5.0,5.0;" x1="841" x2="841" y1="83.6211" y2="836.7324"/><line style="stroke:#181818;stroke-width:0.5;stroke-dasharray:5.0,5.0;" x1="948" x2="948" y1="83.6211" y2="836.7324"/><line style="stroke:#181818;stroke-width:0.5;stroke-dasharray:5.0,5.0;" x1="1090" x2="1090" y1="83.6211" y2="836.7324"/><text fill="#000000" font-family="sans-serif" font-size="14" lengthAdjust="spacing" textLength="151" x="5" y="80.1074">Green Spaces Manager</text><ellipse cx="83.5" cy="13.5" fill="#E3E3E3" rx="8" ry="8" style="stroke:#181818;stroke-width:0.5;"/><path d="M83.5,21.5 L83.5,48.5 M70.5,29.5 L96.5,29.5 M83.5,48.5 L70.5,63.5 M83.5,48.5 L96.5,63.5 " fill="none" style="stroke:#181818;stroke-width:0.5;"/><text fill="#000000" font-family="sans-serif" font-size="14" lengthAdjust="spacing" textLength="151" x="5" y="850.8398">Green Spaces Manager</text><ellipse cx="83.5" cy="862.8535" fill="#E3E3E3" rx="8" ry="8" style="stroke:#181818;stroke-width:0.5;"/><path d="M83.5,870.8535 L83.5,897.8535 M70.5,878.8535 L96.5,878.8535 M83.5,897.8535 L70.5,912.8535 M83.5,897.8535 L96.5,912.8535 " fill="none" style="stroke:#181818;stroke-width:0.5;"/><rect fill="#E3E3E3" height="32.6211" rx="2.5" ry="2.5" style="stroke:#181818;stroke-width:0.5;" width="131" x="355" y="50"/><text fill="#000000" font-family="sans-serif" font-size="14" lengthAdjust="spacing" textLength="117" x="362" y="72.1074">:ListManagedGSUI</text><rect fill="#E3E3E3" height="32.6211" rx="2.5" ry="2.5" style="stroke:#181818;stroke-width:0.5;" width="131" x="355" y="835.7324"/><text fill="#000000" font-family="sans-serif" font-size="14" lengthAdjust="spacing" textLength="117" x="362" y="857.8398">:ListManagedGSUI</text><rect fill="#E3E3E3" height="32.6211" rx="2.5" ry="2.5" style="stroke:#181818;stroke-width:0.5;" width="181" x="583" y="835.7324"/><text fill="#000000" font-family="sans-serif" font-size="14" lengthAdjust="spacing" textLength="167" x="590" y="857.8398">:ListManagedGSController</text><rect fill="#E3E3E3" height="32.6211" rx="2.5" ry="2.5" style="stroke:#181818;stroke-width:0.5;" width="97" x="793" y="50"/><text fill="#000000" font-family="sans-serif" font-size="14" lengthAdjust="spacing" textLength="83" x="800" y="72.1074">:Repositories</text><rect fill="#E3E3E3" height="32.6211" rx="2.5" ry="2.5" style="stroke:#181818;stroke-width:0.5;" width="97" x="793" y="835.7324"/><text fill="#000000" font-family="sans-serif" font-size="14" lengthAdjust="spacing" textLength="83" x="800" y="857.8398">:Repositories</text><rect fill="#E3E3E3" height="51.2422" rx="2.5" ry="2.5" style="stroke:#181818;stroke-width:0.5;" width="97" x="900" y="31.3789"/><text fill="#000000" font-family="sans-serif" font-size="14" lengthAdjust="spacing" textLength="74" x="911.5" y="53.4863">repositories</text><text fill="#000000" font-family="sans-serif" font-size="14" lengthAdjust="spacing" textLength="83" x="907" y="72.1074">:Repositories</text><rect fill="#E3E3E3" height="51.2422" rx="2.5" ry="2.5" style="stroke:#181818;stroke-width:0.5;" width="97" x="900" y="835.7324"/><text fill="#000000" font-family="sans-serif" font-size="14" lengthAdjust="spacing" textLength="74" x="911.5" y="857.8398">repositories</text><text fill="#000000" font-family="sans-serif" font-size="14" lengthAdjust="spacing" textLength="83" x="907" y="876.4609">:Repositories</text><rect fill="#E3E3E3" height="51.2422" rx="2.5" ry="2.5" style="stroke:#181818;stroke-width:0.5;" width="166" x="1007" y="31.3789"/><text fill="#000000" font-family="sans-serif" font-size="14" lengthAdjust="spacing" textLength="145" x="1017.5" y="53.4863">greenSpaceRepository</text><text fill="#000000" font-family="sans-serif" font-size="14" lengthAdjust="spacing" textLength="152" x="1014" y="72.1074">:GreenSpaceRepository</text><rect fill="#E3E3E3" height="51.2422" rx="2.5" ry="2.5" style="stroke:#181818;stroke-width:0.5;" width="166" x="1007" y="835.7324"/><text fill="#000000" font-family="sans-serif" font-size="14" lengthAdjust="spacing" textLength="145" x="1017.5" y="857.8398">greenSpaceRepository</text><text fill="#000000" font-family="sans-serif" font-size="14" lengthAdjust="spacing" textLength="152" x="1014" y="876.4609">:GreenSpaceRepository</text><rect fill="#FFFFFF" height="725.1113" style="stroke:#181818;stroke-width:1.0;" width="10" x="78.5" y="93.6211"/><rect fill="#FFFFFF" height="701.8203" style="stroke:#181818;stroke-width:1.0;" width="10" x="415.5" y="116.9121"/><rect fill="#FFFFFF" height="326.9102" style="stroke:#181818;stroke-width:1.0;" width="10" x="668.5" y="158.2031"/><rect fill="#FFFFFF" height="90.543" style="stroke:#181818;stroke-width:1.0;" width="10" x="673.5" y="356.2793"/><rect fill="#FFFFFF" height="271.0371" style="stroke:#181818;stroke-width:1.0;" width="10" x="668.5" y="516.4043"/><rect fill="#FFFFFF" height="31.291" style="stroke:#181818;stroke-width:1.0;" width="10" x="836.5" y="191.8242"/><rect fill="#FFFFFF" height="31.291" style="stroke:#181818;stroke-width:1.0;" width="10" x="943.5" y="254.4063"/><rect fill="#FFFFFF" height="208.4551" style="stroke:#181818;stroke-width:1.0;" width="10" x="1085" y="547.6953"/><rect fill="#FFFFFF" height="42.291" style="stroke:#181818;stroke-width:1.0;" width="10" x="1090" y="586.9863"/><rect fill="#FFFFFF" height="42.291" style="stroke:#181818;stroke-width:1.0;" width="10" x="1090" y="675.5684"/><polygon fill="#181818" points="403.5,112.9121,413.5,116.9121,403.5,120.9121,407.5,116.9121" style="stroke:#181818;stroke-width:1.0;"/><line style="stroke:#181818;stroke-width:1.0;" x1="88.5" x2="409.5" y1="116.9121" y2="116.9121"/><text fill="#000000" font-family="sans-serif" font-size="13" font-weight="bold" lengthAdjust="spacing" textLength="7" x="95.5" y="111.6494">1</text><text fill="#000000" font-family="sans-serif" font-size="13" lengthAdjust="spacing" textLength="271" x="106.5" y="111.6494">asks to list all green spaces managed by them</text><polygon fill="#181818" points="571,144.2031,581,148.2031,571,152.2031,575,148.2031" style="stroke:#181818;stroke-width:1.0;"/><line style="stroke:#181818;stroke-width:1.0;" x1="425.5" x2="577" y1="148.2031" y2="148.2031"/><text fill="#000000" font-family="sans-serif" font-size="13" font-weight="bold" lengthAdjust="spacing" textLength="7" x="432.5" y="142.9404">2</text><text fill="#000000" font-family="sans-serif" font-size="13" lengthAdjust="spacing" textLength="36" x="443.5" y="142.9404">create</text><rect fill="#E3E3E3" height="32.6211" rx="2.5" ry="2.5" style="stroke:#181818;stroke-width:0.5;" width="181" x="583" y="124.9121"/><text fill="#000000" font-family="sans-serif" font-size="14" lengthAdjust="spacing" textLength="167" x="590" y="147.0195">:ListManagedGSController</text><polygon fill="#181818" points="824.5,187.8242,834.5,191.8242,824.5,195.8242,828.5,191.8242" style="stroke:#181818;stroke-width:1.0;"/><line style="stroke:#181818;stroke-width:1.0;" x1="678.5" x2="830.5" y1="191.8242" y2="191.8242"/><text fill="#000000" font-family="sans-serif" font-size="13" font-weight="bold" lengthAdjust="spacing" textLength="7" x="685.5" y="186.5615">3</text><text fill="#000000" font-family="sans-serif" font-size="13" lengthAdjust="spacing" textLength="75" x="696.5" y="186.5615">getInstance()</text><polygon fill="#181818" points="689.5,219.1152,679.5,223.1152,689.5,227.1152,685.5,223.1152" style="stroke:#181818;stroke-width:1.0;"/><line style="stroke:#181818;stroke-width:1.0;stroke-dasharray:2.0,2.0;" x1="683.5" x2="840.5" y1="223.1152" y2="223.1152"/><text fill="#000000" font-family="sans-serif" font-size="13" font-weight="bold" lengthAdjust="spacing" textLength="7" x="695.5" y="217.8525">4</text><text fill="#000000" font-family="sans-serif" font-size="13" lengthAdjust="spacing" textLength="67" x="706.5" y="217.8525">repositories</text><polygon fill="#181818" points="931.5,250.4063,941.5,254.4063,931.5,258.4063,935.5,254.4063" style="stroke:#181818;stroke-width:1.0;"/><line style="stroke:#181818;stroke-width:1.0;" x1="678.5" x2="937.5" y1="254.4063" y2="254.4063"/><text fill="#000000" font-family="sans-serif" font-size="13" font-weight="bold" lengthAdjust="spacing" textLength="7" x="685.5" y="249.1436">5</text><text fill="#000000" font-family="sans-serif" font-size="13" lengthAdjust="spacing" textLength="160" x="696.5" y="249.1436">getGreenSpaceRepository()</text><polygon fill="#181818" points="689.5,281.6973,679.5,285.6973,689.5,289.6973,685.5,285.6973" style="stroke:#181818;stroke-width:1.0;"/><line style="stroke:#181818;stroke-width:1.0;stroke-dasharray:2.0,2.0;" x1="683.5" x2="947.5" y1="285.6973" y2="285.6973"/><text fill="#000000" font-family="sans-serif" font-size="13" font-weight="bold" lengthAdjust="spacing" textLength="7" x="695.5" y="280.4346">6</text><text fill="#000000" font-family="sans-serif" font-size="13" lengthAdjust="spacing" textLength="134" x="706.5" y="280.4346">GreenSpaceRepository</text><polygon fill="#181818" points="436.5,312.9883,426.5,316.9883,436.5,320.9883,432.5,316.9883" style="stroke:#181818;stroke-width:1.0;"/><line style="stroke:#181818;stroke-width:1.0;stroke-dasharray:2.0,2.0;" x1="430.5" x2="667.5" y1="316.9883" y2="316.9883"/><text fill="#000000" font-family="sans-serif" font-size="13" font-weight="bold" lengthAdjust="spacing" textLength="7" x="442.5" y="311.7256">7</text><text fill="#000000" font-family="sans-serif" font-size="13" lengthAdjust="spacing" textLength="134" x="453.5" y="311.7256">GreenSpaceRepository</text><line style="stroke:#181818;stroke-width:1.0;" x1="678.5" x2="725.5" y1="343.2793" y2="343.2793"/><line style="stroke:#181818;stroke-width:1.0;" x1="725.5" x2="725.5" y1="343.2793" y2="356.2793"/><line style="stroke:#181818;stroke-width:1.0;" x1="684.5" x2="725.5" y1="356.2793" y2="356.2793"/><polygon fill="#181818" points="694.5,352.2793,684.5,356.2793,694.5,360.2793,690.5,356.2793" style="stroke:#181818;stroke-width:1.0;"/><text fill="#000000" font-family="sans-serif" font-size="13" font-weight="bold" lengthAdjust="spacing" textLength="7" x="690.5" y="338.0166">8</text><text fill="#000000" font-family="sans-serif" font-size="13" lengthAdjust="spacing" textLength="133" x="701.5" y="338.0166">getGSMFromSession()</text><rect fill="none" height="43.252" style="stroke:#000000;stroke-width:1.5;" width="187" x="580" y="369.2793"/><path d="M580,369.2793 L642,369.2793 L642,378.2793 L632,388.2793 L580,388.2793 L580,369.2793 " fill="#EEEEEE" style="stroke:#000000;stroke-width:2.0;"/><text fill="#000000" font-family="sans-serif" font-size="13" font-weight="bold" lengthAdjust="spacing" textLength="17" x="593" y="385.3076">ref</text><text fill="#000000" font-family="sans-serif" font-size="12" lengthAdjust="spacing" textLength="48" x="649.5" y="405.2285">Get GSM</text><line style="stroke:#181818;stroke-width:1.0;stroke-dasharray:2.0,2.0;" x1="683.5" x2="725.5" y1="445.8223" y2="445.8223"/><line style="stroke:#181818;stroke-width:1.0;stroke-dasharray:2.0,2.0;" x1="725.5" x2="725.5" y1="445.8223" y2="458.8223"/><line style="stroke:#181818;stroke-width:1.0;stroke-dasharray:2.0,2.0;" x1="678.5" x2="725.5" y1="458.8223" y2="458.8223"/><polygon fill="#181818" points="688.5,454.8223,678.5,458.8223,688.5,462.8223,684.5,458.8223" style="stroke:#181818;stroke-width:1.0;"/><text fill="#000000" font-family="sans-serif" font-size="13" font-weight="bold" lengthAdjust="spacing" textLength="7" x="690.5" y="440.5596">9</text><text fill="#000000" font-family="sans-serif" font-size="13" lengthAdjust="spacing" textLength="25" x="701.5" y="440.5596">gsm</text><polygon fill="#181818" points="436.5,481.1133,426.5,485.1133,436.5,489.1133,432.5,485.1133" style="stroke:#181818;stroke-width:1.0;"/><line style="stroke:#181818;stroke-width:1.0;stroke-dasharray:2.0,2.0;" x1="430.5" x2="672.5" y1="485.1133" y2="485.1133"/><text fill="#000000" font-family="sans-serif" font-size="13" font-weight="bold" lengthAdjust="spacing" textLength="14" x="442.5" y="479.8506">10</text><text fill="#000000" font-family="sans-serif" font-size="13" lengthAdjust="spacing" textLength="25" x="460.5" y="479.8506">gsm</text><polygon fill="#181818" points="656.5,512.4043,666.5,516.4043,656.5,520.4043,660.5,516.4043" style="stroke:#181818;stroke-width:1.0;"/><line style="stroke:#181818;stroke-width:1.0;" x1="425.5" x2="662.5" y1="516.4043" y2="516.4043"/><text fill="#000000" font-family="sans-serif" font-size="13" font-weight="bold" lengthAdjust="spacing" textLength="14" x="432.5" y="511.1416">11</text><text fill="#000000" font-family="sans-serif" font-size="13" lengthAdjust="spacing" textLength="206" x="450.5" y="511.1416">produceManagedGSList(GSM gsm)</text><polygon fill="#181818" points="1073,543.6953,1083,547.6953,1073,551.6953,1077,547.6953" style="stroke:#181818;stroke-width:1.0;"/><line style="stroke:#181818;stroke-width:1.0;" x1="678.5" x2="1079" y1="547.6953" y2="547.6953"/><text fill="#000000" font-family="sans-serif" font-size="13" font-weight="bold" lengthAdjust="spacing" textLength="14" x="685.5" y="542.4326">12</text><text fill="#000000" font-family="sans-serif" font-size="13" lengthAdjust="spacing" textLength="217" x="703.5" y="542.4326">getManagedGreenSpaces(GSM gsm)</text><line style="stroke:#181818;stroke-width:1.0;" x1="1095" x2="1142" y1="573.9863" y2="573.9863"/><line style="stroke:#181818;stroke-width:1.0;" x1="1142" x2="1142" y1="573.9863" y2="586.9863"/><line style="stroke:#181818;stroke-width:1.0;" x1="1101" x2="1142" y1="586.9863" y2="586.9863"/><polygon fill="#181818" points="1111,582.9863,1101,586.9863,1111,590.9863,1107,586.9863" style="stroke:#181818;stroke-width:1.0;"/><text fill="#000000" font-family="sans-serif" font-size="13" font-weight="bold" lengthAdjust="spacing" textLength="14" x="1107" y="568.7236">13</text><text fill="#000000" font-family="sans-serif" font-size="13" lengthAdjust="spacing" textLength="217" x="1125" y="568.7236">getManagedGreenSpaces(GSM gsm)</text><line style="stroke:#181818;stroke-width:1.0;stroke-dasharray:2.0,2.0;" x1="1100" x2="1142" y1="628.2773" y2="628.2773"/><line style="stroke:#181818;stroke-width:1.0;stroke-dasharray:2.0,2.0;" x1="1142" x2="1142" y1="628.2773" y2="641.2773"/><line style="stroke:#181818;stroke-width:1.0;stroke-dasharray:2.0,2.0;" x1="1095" x2="1142" y1="641.2773" y2="641.2773"/><polygon fill="#181818" points="1105,637.2773,1095,641.2773,1105,645.2773,1101,641.2773" style="stroke:#181818;stroke-width:1.0;"/><text fill="#000000" font-family="sans-serif" font-size="13" font-weight="bold" lengthAdjust="spacing" textLength="14" x="1107" y="623.0146">14</text><text fill="#000000" font-family="sans-serif" font-size="13" lengthAdjust="spacing" textLength="132" x="1125" y="623.0146">managedGreenSpaces</text><line style="stroke:#181818;stroke-width:1.0;" x1="1095" x2="1142" y1="662.5684" y2="662.5684"/><line style="stroke:#181818;stroke-width:1.0;" x1="1142" x2="1142" y1="662.5684" y2="675.5684"/><line style="stroke:#181818;stroke-width:1.0;" x1="1101" x2="1142" y1="675.5684" y2="675.5684"/><polygon fill="#181818" points="1111,671.5684,1101,675.5684,1111,679.5684,1107,675.5684" style="stroke:#181818;stroke-width:1.0;"/><text fill="#000000" font-family="sans-serif" font-size="13" font-weight="bold" lengthAdjust="spacing" textLength="14" x="1107" y="657.3057">15</text><text fill="#000000" font-family="sans-serif" font-size="13" lengthAdjust="spacing" textLength="407" x="1125" y="657.3057">sortManagedGreenSpaces(List&lt;GreenSpace&gt; managedGreenSpaces)</text><line style="stroke:#181818;stroke-width:1.0;stroke-dasharray:2.0,2.0;" x1="1100" x2="1142" y1="716.8594" y2="716.8594"/><line style="stroke:#181818;stroke-width:1.0;stroke-dasharray:2.0,2.0;" x1="1142" x2="1142" y1="716.8594" y2="729.8594"/><line style="stroke:#181818;stroke-width:1.0;stroke-dasharray:2.0,2.0;" x1="1095" x2="1142" y1="729.8594" y2="729.8594"/><polygon fill="#181818" points="1105,725.8594,1095,729.8594,1105,733.8594,1101,729.8594" style="stroke:#181818;stroke-width:1.0;"/><text fill="#000000" font-family="sans-serif" font-size="13" font-weight="bold" lengthAdjust="spacing" textLength="14" x="1107" y="711.5967">16</text><text fill="#000000" font-family="sans-serif" font-size="13" lengthAdjust="spacing" textLength="132" x="1125" y="711.5967">managedGreenSpaces</text><polygon fill="#181818" points="689.5,752.1504,679.5,756.1504,689.5,760.1504,685.5,756.1504" style="stroke:#181818;stroke-width:1.0;"/><line style="stroke:#181818;stroke-width:1.0;stroke-dasharray:2.0,2.0;" x1="683.5" x2="1089" y1="756.1504" y2="756.1504"/><text fill="#000000" font-family="sans-serif" font-size="13" font-weight="bold" lengthAdjust="spacing" textLength="14" x="695.5" y="750.8877">17</text><text fill="#000000" font-family="sans-serif" font-size="13" lengthAdjust="spacing" textLength="132" x="713.5" y="750.8877">managedGreenSpaces</text><polygon fill="#181818" points="436.5,783.4414,426.5,787.4414,436.5,791.4414,432.5,787.4414" style="stroke:#181818;stroke-width:1.0;"/><line style="stroke:#181818;stroke-width:1.0;stroke-dasharray:2.0,2.0;" x1="430.5" x2="672.5" y1="787.4414" y2="787.4414"/><text fill="#000000" font-family="sans-serif" font-size="13" font-weight="bold" lengthAdjust="spacing" textLength="14" x="442.5" y="782.1787">18</text><text fill="#000000" font-family="sans-serif" font-size="13" lengthAdjust="spacing" textLength="132" x="460.5" y="782.1787">managedGreenSpaces</text><polygon fill="#181818" points="94.5,814.7324,84.5,818.7324,94.5,822.7324,90.5,818.7324" style="stroke:#181818;stroke-width:1.0;"/><line style="stroke:#181818;stroke-width:1.0;stroke-dasharray:2.0,2.0;" x1="88.5" x2="419.5" y1="818.7324" y2="818.7324"/><text fill="#000000" font-family="sans-serif" font-size="13" font-weight="bold" lengthAdjust="spacing" textLength="14" x="100.5" y="813.4697">19</text><text fill="#000000" font-family="sans-serif" font-size="13" lengthAdjust="spacing" textLength="285" x="118.5" y="813.4697">shows list of green spaces managed by the GSM</text><!--SRC=[hPRDRk8m4CVlVeeH5w0IBu1MI5LN6o61j2BjRIyc6I0YiLdRjClRxzZv9Yu9BRx56VzcvZ_Z3trCn8ahda4cXOmEIcO8HfsHwUhFYKT7liVGN584XP7XOfys3VI1n_8Z4NlOyLGZO_nif3XdMrICZGz9ZB2JqcpbFyOZ8nMC0eKe82GoQbXpGNWr0gxX-UUQ4TGaKNBYmi1elagqoItY87nREgktvIsZ5ocCacbQ85zUDwihymsUf4ueaWIriwacBc5YawFmsqjKOyKVqGNyNZs_jbViROekmnfEAmFFj2C4uOPPUP9tRj3fmA0Oz06p1MKDSx8yQZ0IKieOU9g2ymCwbpBBDO3j1Sm1infHWKawDeR68EgCuDR7dAhxzupQQ8YvuJ0HFCCfQrgF8uKMuqIznYpSzDCJWN8prZAfOd2BMx-Qm_wrB4zD2Bn7inIQMZ32oVHJnlMeNFiAFPXYXo-gMP6vrQ_kYy7O6ByHNgcMRS1S7b-73PMg2iJrS_yQvxLCdzpxVBDx171-UnVaIPTRmklqhgBsorlaP-KDrx_eb0nHwqIAEtfmeFAtDyTzG-4Ev3kgxdRz-WZGq5crVX0DHVoeP5kDKTPBPm-YDtgqg52x2PsdZb6TMtq-al59oVWSONLZsUjhGg9QofGDQ8coBUdIS4rPaggTeBku5jBTDftIXfklG0U2ItBMmR8ROlS6ggNoHMeb_L5FB3nk-xVkxIY-csLVrf_AM7IHnmKRgcAZUNjZlUvg_-k1Ad6G7pf_cCZThNT9TNuqoFPTqlYqxv__]--></g></svg>