<?xml version="1.0" encoding="us-ascii" standalone="no"?><svg xmlns="http://www.w3.org/2000/svg" xmlns:xlink="http://www.w3.org/1999/xlink" contentStyleType="text/css" height="963px" preserveAspectRatio="none" style="width:1824px;height:963px;background:#FFFFFF;" version="1.1" viewBox="0 0 1824 963" width="1824px" zoomAndPan="magnify"><defs/><g><!--class ApplicationSession--><g id="elem_ApplicationSession"><rect codeLine="11" fill="#F1F1F1" height="85.2422" id="ApplicationSession" rx="2.5" ry="2.5" style="stroke:#181818;stroke-width:0.5;" width="151" x="725" y="264"/><ellipse cx="740" cy="280" fill="#ADD1B2" rx="11" ry="11" style="stroke:#181818;stroke-width:1.0;"/><path d="M742.7656,275.875 Q742.9219,275.6563 743.1094,275.5469 Q743.2969,275.4375 743.5156,275.4375 Q743.8906,275.4375 744.125,275.7031 Q744.3594,275.9531 744.3594,276.5625 L744.3594,278.0156 Q744.3594,278.625 744.125,278.8906 Q743.8906,279.1563 743.5156,279.1563 Q743.1719,279.1563 742.9688,278.9531 Q742.7656,278.7656 742.6563,278.25 Q742.6094,277.8906 742.4219,277.7031 Q742.0938,277.3281 741.4844,277.1094 Q740.875,276.8906 740.25,276.8906 Q739.4844,276.8906 738.8438,277.2188 Q738.2188,277.5469 737.7188,278.2969 Q737.2344,279.0469 737.2344,280.0781 L737.2344,281.1719 Q737.2344,282.4063 738.125,283.2344 Q739.0156,284.0469 740.6094,284.0469 Q741.5469,284.0469 742.2031,283.7969 Q742.5938,283.6406 743.0156,283.2031 Q743.2813,282.9375 743.4219,282.8594 Q743.5781,282.7813 743.7813,282.7813 Q744.1094,282.7813 744.3594,283.0469 Q744.625,283.2969 744.625,283.6406 Q744.625,283.9844 744.2813,284.3906 Q743.7813,284.9688 742.9844,285.2969 Q741.9063,285.75 740.6094,285.75 Q739.0938,285.75 737.8906,285.125 Q736.9063,284.625 736.2188,283.5625 Q735.5313,282.4844 735.5313,281.2031 L735.5313,280.0469 Q735.5313,278.7188 736.1406,277.5781 Q736.7656,276.4219 737.8594,275.8125 Q738.9531,275.1875 740.1875,275.1875 Q740.9219,275.1875 741.5625,275.3594 Q742.2188,275.5156 742.7656,275.875 Z " fill="#000000"/><text fill="#000000" font-family="sans-serif" font-size="14" lengthAdjust="spacing" textLength="119" x="754" y="285.7969">ApplicationSession</text><line style="stroke:#181818;stroke-width:0.5;" x1="726" x2="875" y1="296" y2="296"/><line style="stroke:#181818;stroke-width:0.5;" x1="726" x2="875" y1="304" y2="304"/><text fill="#000000" font-family="sans-serif" font-size="14" lengthAdjust="spacing" textLength="128" x="731" y="323.1074">+static getInstance()</text><text fill="#000000" font-family="sans-serif" font-size="14" lengthAdjust="spacing" textLength="136" x="731" y="341.7285">+getCurrentSession()</text></g><!--class UserSession--><g id="elem_UserSession"><rect codeLine="17" fill="#F1F1F1" height="66.6211" id="UserSession" rx="2.5" ry="2.5" style="stroke:#181818;stroke-width:0.5;" width="113" x="744" y="483.5"/><ellipse cx="759.9" cy="499.5" fill="#ADD1B2" rx="11" ry="11" style="stroke:#181818;stroke-width:1.0;"/><path d="M762.6656,495.375 Q762.8219,495.1563 763.0094,495.0469 Q763.1969,494.9375 763.4156,494.9375 Q763.7906,494.9375 764.025,495.2031 Q764.2594,495.4531 764.2594,496.0625 L764.2594,497.5156 Q764.2594,498.125 764.025,498.3906 Q763.7906,498.6563 763.4156,498.6563 Q763.0719,498.6563 762.8688,498.4531 Q762.6656,498.2656 762.5563,497.75 Q762.5094,497.3906 762.3219,497.2031 Q761.9938,496.8281 761.3844,496.6094 Q760.775,496.3906 760.15,496.3906 Q759.3844,496.3906 758.7438,496.7188 Q758.1188,497.0469 757.6188,497.7969 Q757.1344,498.5469 757.1344,499.5781 L757.1344,500.6719 Q757.1344,501.9063 758.025,502.7344 Q758.9156,503.5469 760.5094,503.5469 Q761.4469,503.5469 762.1031,503.2969 Q762.4938,503.1406 762.9156,502.7031 Q763.1813,502.4375 763.3219,502.3594 Q763.4781,502.2813 763.6813,502.2813 Q764.0094,502.2813 764.2594,502.5469 Q764.525,502.7969 764.525,503.1406 Q764.525,503.4844 764.1813,503.8906 Q763.6813,504.4688 762.8844,504.7969 Q761.8063,505.25 760.5094,505.25 Q758.9938,505.25 757.7906,504.625 Q756.8063,504.125 756.1188,503.0625 Q755.4313,501.9844 755.4313,500.7031 L755.4313,499.5469 Q755.4313,498.2188 756.0406,497.0781 Q756.6656,495.9219 757.7594,495.3125 Q758.8531,494.6875 760.0875,494.6875 Q760.8219,494.6875 761.4625,494.8594 Q762.1188,495.0156 762.6656,495.375 Z " fill="#000000"/><text fill="#000000" font-family="sans-serif" font-size="14" lengthAdjust="spacing" textLength="79" x="774.1" y="505.2969">UserSession</text><line style="stroke:#181818;stroke-width:0.5;" x1="745" x2="856" y1="515.5" y2="515.5"/><line style="stroke:#181818;stroke-width:0.5;" x1="745" x2="856" y1="523.5" y2="523.5"/><text fill="#000000" font-family="sans-serif" font-size="14" lengthAdjust="spacing" textLength="101" x="750" y="542.6074">+getUserEmail()</text></g><!--class GreenSpace--><g id="elem_GreenSpace"><rect codeLine="22" fill="#F1F1F1" height="271.4531" id="GreenSpace" rx="2.5" ry="2.5" style="stroke:#181818;stroke-width:0.5;" width="538" x="352.5" y="685"/><ellipse cx="577.25" cy="701" fill="#ADD1B2" rx="11" ry="11" style="stroke:#181818;stroke-width:1.0;"/><path d="M580.0156,696.875 Q580.1719,696.6563 580.3594,696.5469 Q580.5469,696.4375 580.7656,696.4375 Q581.1406,696.4375 581.375,696.7031 Q581.6094,696.9531 581.6094,697.5625 L581.6094,699.0156 Q581.6094,699.625 581.375,699.8906 Q581.1406,700.1563 580.7656,700.1563 Q580.4219,700.1563 580.2188,699.9531 Q580.0156,699.7656 579.9063,699.25 Q579.8594,698.8906 579.6719,698.7031 Q579.3438,698.3281 578.7344,698.1094 Q578.125,697.8906 577.5,697.8906 Q576.7344,697.8906 576.0938,698.2188 Q575.4688,698.5469 574.9688,699.2969 Q574.4844,700.0469 574.4844,701.0781 L574.4844,702.1719 Q574.4844,703.4063 575.375,704.2344 Q576.2656,705.0469 577.8594,705.0469 Q578.7969,705.0469 579.4531,704.7969 Q579.8438,704.6406 580.2656,704.2031 Q580.5313,703.9375 580.6719,703.8594 Q580.8281,703.7813 581.0313,703.7813 Q581.3594,703.7813 581.6094,704.0469 Q581.875,704.2969 581.875,704.6406 Q581.875,704.9844 581.5313,705.3906 Q581.0313,705.9688 580.2344,706.2969 Q579.1563,706.75 577.8594,706.75 Q576.3438,706.75 575.1406,706.125 Q574.1563,705.625 573.4688,704.5625 Q572.7813,703.4844 572.7813,702.2031 L572.7813,701.0469 Q572.7813,699.7188 573.3906,698.5781 Q574.0156,697.4219 575.1094,696.8125 Q576.2031,696.1875 577.4375,696.1875 Q578.1719,696.1875 578.8125,696.3594 Q579.4688,696.5156 580.0156,696.875 Z " fill="#000000"/><text fill="#000000" font-family="sans-serif" font-size="14" lengthAdjust="spacing" textLength="80" x="597.75" y="706.7969">GreenSpace</text><line style="stroke:#181818;stroke-width:0.5;" x1="353.5" x2="889.5" y1="717" y2="717"/><text fill="#000000" font-family="sans-serif" font-size="14" lengthAdjust="spacing" textLength="85" x="358.5" y="736.1074">-name: String</text><text fill="#000000" font-family="sans-serif" font-size="14" lengthAdjust="spacing" textLength="77" x="358.5" y="754.7285">-type: String</text><text fill="#000000" font-family="sans-serif" font-size="14" lengthAdjust="spacing" textLength="85" x="358.5" y="773.3496">-area: double</text><text fill="#000000" font-family="sans-serif" font-size="14" lengthAdjust="spacing" textLength="70" x="358.5" y="791.9707">-gsm: GSM</text><line style="stroke:#181818;stroke-width:0.5;" x1="353.5" x2="889.5" y1="799.4844" y2="799.4844"/><text fill="#000000" font-family="sans-serif" font-size="14" lengthAdjust="spacing" textLength="334" x="358.5" y="818.5918">+GreenSpace(String name, String type, double area)</text><text fill="#000000" font-family="sans-serif" font-size="14" lengthAdjust="spacing" textLength="289" x="358.5" y="837.2129">+void validateGreenSpaceName(String name)</text><text fill="#000000" font-family="sans-serif" font-size="14" lengthAdjust="spacing" textLength="277" x="358.5" y="855.834">+void validateGreenSpaceType(String type)</text><text fill="#000000" font-family="sans-serif" font-size="14" lengthAdjust="spacing" textLength="283" x="358.5" y="874.4551">+void validateGreenSpaceArea(double area)</text><text fill="#000000" font-family="sans-serif" font-size="14" lengthAdjust="spacing" textLength="168" x="358.5" y="893.0762">+boolean equals(Object o)</text><text fill="#000000" font-family="sans-serif" font-size="14" lengthAdjust="spacing" textLength="102" x="358.5" y="911.6973">+int hashCode()</text><text fill="#000000" font-family="sans-serif" font-size="14" lengthAdjust="spacing" textLength="136" x="358.5" y="930.3184">+GreenSpace clone()</text><text fill="#000000" font-family="sans-serif" font-size="14" lengthAdjust="spacing" textLength="526" x="358.5" y="948.9395">+boolean isOfNameTypeAndArea(String name, String type, double area, GSM gsm)</text></g><!--class GreenSpaceRepository--><g id="elem_GreenSpaceRepository"><rect codeLine="37" fill="#F1F1F1" height="178.3477" id="GreenSpaceRepository" rx="2.5" ry="2.5" style="stroke:#181818;stroke-width:0.5;" width="616" x="892.5" y="428"/><ellipse cx="1122.25" cy="444" fill="#ADD1B2" rx="11" ry="11" style="stroke:#181818;stroke-width:1.0;"/><path d="M1125.0156,439.875 Q1125.1719,439.6563 1125.3594,439.5469 Q1125.5469,439.4375 1125.7656,439.4375 Q1126.1406,439.4375 1126.375,439.7031 Q1126.6094,439.9531 1126.6094,440.5625 L1126.6094,442.0156 Q1126.6094,442.625 1126.375,442.8906 Q1126.1406,443.1563 1125.7656,443.1563 Q1125.4219,443.1563 1125.2188,442.9531 Q1125.0156,442.7656 1124.9063,442.25 Q1124.8594,441.8906 1124.6719,441.7031 Q1124.3438,441.3281 1123.7344,441.1094 Q1123.125,440.8906 1122.5,440.8906 Q1121.7344,440.8906 1121.0938,441.2188 Q1120.4688,441.5469 1119.9688,442.2969 Q1119.4844,443.0469 1119.4844,444.0781 L1119.4844,445.1719 Q1119.4844,446.4063 1120.375,447.2344 Q1121.2656,448.0469 1122.8594,448.0469 Q1123.7969,448.0469 1124.4531,447.7969 Q1124.8438,447.6406 1125.2656,447.2031 Q1125.5313,446.9375 1125.6719,446.8594 Q1125.8281,446.7813 1126.0313,446.7813 Q1126.3594,446.7813 1126.6094,447.0469 Q1126.875,447.2969 1126.875,447.6406 Q1126.875,447.9844 1126.5313,448.3906 Q1126.0313,448.9688 1125.2344,449.2969 Q1124.1563,449.75 1122.8594,449.75 Q1121.3438,449.75 1120.1406,449.125 Q1119.1563,448.625 1118.4688,447.5625 Q1117.7813,446.4844 1117.7813,445.2031 L1117.7813,444.0469 Q1117.7813,442.7188 1118.3906,441.5781 Q1119.0156,440.4219 1120.1094,439.8125 Q1121.2031,439.1875 1122.4375,439.1875 Q1123.1719,439.1875 1123.8125,439.3594 Q1124.4688,439.5156 1125.0156,439.875 Z " fill="#000000"/><text fill="#000000" font-family="sans-serif" font-size="14" lengthAdjust="spacing" textLength="148" x="1142.75" y="449.7969">GreenSpaceRepository</text><line style="stroke:#181818;stroke-width:0.5;" x1="893.5" x2="1507.5" y1="460" y2="460"/><text fill="#000000" font-family="sans-serif" font-size="14" lengthAdjust="spacing" textLength="211" x="898.5" y="479.1074">-List&lt;GreenSpace&gt; greenSpaces</text><line style="stroke:#181818;stroke-width:0.5;" x1="893.5" x2="1507.5" y1="486.6211" y2="486.6211"/><text fill="#000000" font-family="sans-serif" font-size="14" lengthAdjust="spacing" textLength="604" x="898.5" y="505.7285">+Optional&lt;GreenSpace&gt; registerGreenSpace(String name, String type, double area, GSM gsm)</text><text fill="#000000" font-family="sans-serif" font-size="14" lengthAdjust="spacing" textLength="338" x="898.5" y="524.3496">+boolean addGreenSpace(GreenSpace greenSpace)</text><text fill="#000000" font-family="sans-serif" font-size="14" lengthAdjust="spacing" textLength="363" x="898.5" y="542.9707">+boolean validateGreenSpace(GreenSpace greenSpace)</text><text fill="#000000" font-family="sans-serif" font-size="14" lengthAdjust="spacing" textLength="367" x="898.5" y="561.5918">+List&lt;GreenSpace&gt; getManagedGreenSpaces(GSM gsm)</text><text fill="#000000" font-family="sans-serif" font-size="14" lengthAdjust="spacing" textLength="578" x="898.5" y="580.2129">+List&lt;GreenSpace&gt; sortManagedGreenSpaces(List&lt;GreenSpace&gt; managedGreenSpaces)</text><text fill="#000000" font-family="sans-serif" font-size="14" lengthAdjust="spacing" textLength="262" x="898.5" y="598.834">+List&lt;GreenSpace&gt; getGreenSpaceList()</text></g><!--class Repositories--><g id="elem_Repositories"><rect codeLine="47" fill="#F1F1F1" height="85.2422" id="Repositories" rx="2.5" ry="2.5" style="stroke:#181818;stroke-width:0.5;" width="358" x="1264.5" y="264"/><ellipse cx="1399.75" cy="280" fill="#ADD1B2" rx="11" ry="11" style="stroke:#181818;stroke-width:1.0;"/><path d="M1402.5156,275.875 Q1402.6719,275.6563 1402.8594,275.5469 Q1403.0469,275.4375 1403.2656,275.4375 Q1403.6406,275.4375 1403.875,275.7031 Q1404.1094,275.9531 1404.1094,276.5625 L1404.1094,278.0156 Q1404.1094,278.625 1403.875,278.8906 Q1403.6406,279.1563 1403.2656,279.1563 Q1402.9219,279.1563 1402.7188,278.9531 Q1402.5156,278.7656 1402.4063,278.25 Q1402.3594,277.8906 1402.1719,277.7031 Q1401.8438,277.3281 1401.2344,277.1094 Q1400.625,276.8906 1400,276.8906 Q1399.2344,276.8906 1398.5938,277.2188 Q1397.9688,277.5469 1397.4688,278.2969 Q1396.9844,279.0469 1396.9844,280.0781 L1396.9844,281.1719 Q1396.9844,282.4063 1397.875,283.2344 Q1398.7656,284.0469 1400.3594,284.0469 Q1401.2969,284.0469 1401.9531,283.7969 Q1402.3438,283.6406 1402.7656,283.2031 Q1403.0313,282.9375 1403.1719,282.8594 Q1403.3281,282.7813 1403.5313,282.7813 Q1403.8594,282.7813 1404.1094,283.0469 Q1404.375,283.2969 1404.375,283.6406 Q1404.375,283.9844 1404.0313,284.3906 Q1403.5313,284.9688 1402.7344,285.2969 Q1401.6563,285.75 1400.3594,285.75 Q1398.8438,285.75 1397.6406,285.125 Q1396.6563,284.625 1395.9688,283.5625 Q1395.2813,282.4844 1395.2813,281.2031 L1395.2813,280.0469 Q1395.2813,278.7188 1395.8906,277.5781 Q1396.5156,276.4219 1397.6094,275.8125 Q1398.7031,275.1875 1399.9375,275.1875 Q1400.6719,275.1875 1401.3125,275.3594 Q1401.9688,275.5156 1402.5156,275.875 Z " fill="#000000"/><text fill="#000000" font-family="sans-serif" font-size="14" lengthAdjust="spacing" textLength="79" x="1420.25" y="285.7969">Repositories</text><line style="stroke:#181818;stroke-width:0.5;" x1="1265.5" x2="1621.5" y1="296" y2="296"/><line style="stroke:#181818;stroke-width:0.5;" x1="1265.5" x2="1621.5" y1="304" y2="304"/><text fill="#000000" font-family="sans-serif" font-size="14" lengthAdjust="spacing" textLength="182" x="1270.5" y="323.1074">+getInstance() : Repositories</text><text fill="#000000" font-family="sans-serif" font-size="14" lengthAdjust="spacing" textLength="346" x="1270.5" y="341.7285">+getGreenSpaceRepository() : GreenSpaceRepository</text></g><!--class ListManagedGSUI--><g id="elem_ListManagedGSUI"><rect codeLine="52" fill="#F1F1F1" height="159.7266" id="ListManagedGSUI" rx="2.5" ry="2.5" style="stroke:#181818;stroke-width:0.5;" width="279" x="374" y="16"/><ellipse cx="452.75" cy="32" fill="#ADD1B2" rx="11" ry="11" style="stroke:#181818;stroke-width:1.0;"/><path d="M455.5156,27.875 Q455.6719,27.6563 455.8594,27.5469 Q456.0469,27.4375 456.2656,27.4375 Q456.6406,27.4375 456.875,27.7031 Q457.1094,27.9531 457.1094,28.5625 L457.1094,30.0156 Q457.1094,30.625 456.875,30.8906 Q456.6406,31.1563 456.2656,31.1563 Q455.9219,31.1563 455.7188,30.9531 Q455.5156,30.7656 455.4063,30.25 Q455.3594,29.8906 455.1719,29.7031 Q454.8438,29.3281 454.2344,29.1094 Q453.625,28.8906 453,28.8906 Q452.2344,28.8906 451.5938,29.2188 Q450.9688,29.5469 450.4688,30.2969 Q449.9844,31.0469 449.9844,32.0781 L449.9844,33.1719 Q449.9844,34.4063 450.875,35.2344 Q451.7656,36.0469 453.3594,36.0469 Q454.2969,36.0469 454.9531,35.7969 Q455.3438,35.6406 455.7656,35.2031 Q456.0313,34.9375 456.1719,34.8594 Q456.3281,34.7813 456.5313,34.7813 Q456.8594,34.7813 457.1094,35.0469 Q457.375,35.2969 457.375,35.6406 Q457.375,35.9844 457.0313,36.3906 Q456.5313,36.9688 455.7344,37.2969 Q454.6563,37.75 453.3594,37.75 Q451.8438,37.75 450.6406,37.125 Q449.6563,36.625 448.9688,35.5625 Q448.2813,34.4844 448.2813,33.2031 L448.2813,32.0469 Q448.2813,30.7188 448.8906,29.5781 Q449.5156,28.4219 450.6094,27.8125 Q451.7031,27.1875 452.9375,27.1875 Q453.6719,27.1875 454.3125,27.3594 Q454.9688,27.5156 455.5156,27.875 Z " fill="#000000"/><text fill="#000000" font-family="sans-serif" font-size="14" lengthAdjust="spacing" textLength="113" x="473.25" y="37.7969">ListManagedGSUI</text><line style="stroke:#181818;stroke-width:0.5;" x1="375" x2="652" y1="48" y2="48"/><text fill="#000000" font-family="sans-serif" font-size="14" lengthAdjust="spacing" textLength="235" x="380" y="67.1074">-controller: ListManagedGSController</text><text fill="#000000" font-family="sans-serif" font-size="14" lengthAdjust="spacing" textLength="70" x="380" y="85.7285">-gsm: GSM</text><line style="stroke:#181818;stroke-width:0.5;" x1="375" x2="652" y1="93.2422" y2="93.2422"/><text fill="#000000" font-family="sans-serif" font-size="14" lengthAdjust="spacing" textLength="267" x="380" y="112.3496">+ListManagedGSController getController()</text><text fill="#000000" font-family="sans-serif" font-size="14" lengthAdjust="spacing" textLength="69" x="380" y="130.9707">+void run()</text><text fill="#000000" font-family="sans-serif" font-size="14" lengthAdjust="spacing" textLength="104" x="380" y="149.5918">+GSM getGSM()</text><text fill="#000000" font-family="sans-serif" font-size="14" lengthAdjust="spacing" textLength="262" x="380" y="168.2129">+void produceManagedGSList(GSM gsm)</text></g><!--class ListManagedGSController--><g id="elem_ListManagedGSController"><rect codeLine="61" fill="#F1F1F1" height="178.3477" id="ListManagedGSController" rx="2.5" ry="2.5" style="stroke:#181818;stroke-width:0.5;" width="817" x="688" y="7"/><ellipse cx="1010.75" cy="23" fill="#ADD1B2" rx="11" ry="11" style="stroke:#181818;stroke-width:1.0;"/><path d="M1013.5156,18.875 Q1013.6719,18.6563 1013.8594,18.5469 Q1014.0469,18.4375 1014.2656,18.4375 Q1014.6406,18.4375 1014.875,18.7031 Q1015.1094,18.9531 1015.1094,19.5625 L1015.1094,21.0156 Q1015.1094,21.625 1014.875,21.8906 Q1014.6406,22.1563 1014.2656,22.1563 Q1013.9219,22.1563 1013.7188,21.9531 Q1013.5156,21.7656 1013.4063,21.25 Q1013.3594,20.8906 1013.1719,20.7031 Q1012.8438,20.3281 1012.2344,20.1094 Q1011.625,19.8906 1011,19.8906 Q1010.2344,19.8906 1009.5938,20.2188 Q1008.9688,20.5469 1008.4688,21.2969 Q1007.9844,22.0469 1007.9844,23.0781 L1007.9844,24.1719 Q1007.9844,25.4063 1008.875,26.2344 Q1009.7656,27.0469 1011.3594,27.0469 Q1012.2969,27.0469 1012.9531,26.7969 Q1013.3438,26.6406 1013.7656,26.2031 Q1014.0313,25.9375 1014.1719,25.8594 Q1014.3281,25.7813 1014.5313,25.7813 Q1014.8594,25.7813 1015.1094,26.0469 Q1015.375,26.2969 1015.375,26.6406 Q1015.375,26.9844 1015.0313,27.3906 Q1014.5313,27.9688 1013.7344,28.2969 Q1012.6563,28.75 1011.3594,28.75 Q1009.8438,28.75 1008.6406,28.125 Q1007.6563,27.625 1006.9688,26.5625 Q1006.2813,25.4844 1006.2813,24.2031 L1006.2813,23.0469 Q1006.2813,21.7188 1006.8906,20.5781 Q1007.5156,19.4219 1008.6094,18.8125 Q1009.7031,18.1875 1010.9375,18.1875 Q1011.6719,18.1875 1012.3125,18.3594 Q1012.9688,18.5156 1013.5156,18.875 Z " fill="#000000"/><text fill="#000000" font-family="sans-serif" font-size="14" lengthAdjust="spacing" textLength="163" x="1031.25" y="28.7969">ListManagedGSController</text><line style="stroke:#181818;stroke-width:0.5;" x1="689" x2="1504" y1="39" y2="39"/><text fill="#000000" font-family="sans-serif" font-size="14" lengthAdjust="spacing" textLength="306" x="694" y="58.1074">-greenSpaceRepository: GreenSpaceRepository</text><text fill="#000000" font-family="sans-serif" font-size="14" lengthAdjust="spacing" textLength="328" x="694" y="76.7285">-authenticationRepository: AuthenticationRepository</text><line style="stroke:#181818;stroke-width:0.5;" x1="689" x2="1504" y1="84.2422" y2="84.2422"/><text fill="#000000" font-family="sans-serif" font-size="14" lengthAdjust="spacing" textLength="805" x="694" y="103.3496">+ListManagedGSController(GreenSpaceRepository greenSpaceRepository, AuthenticationRepository authenticationRepository)</text><text fill="#000000" font-family="sans-serif" font-size="14" lengthAdjust="spacing" textLength="338" x="694" y="121.9707">+GreenSpaceRepository getGreenSpaceRepository()</text><text fill="#000000" font-family="sans-serif" font-size="14" lengthAdjust="spacing" textLength="358" x="694" y="140.5918">+AuthenticationRepository getAuthenticationRepository()</text><text fill="#000000" font-family="sans-serif" font-size="14" lengthAdjust="spacing" textLength="367" x="694" y="159.2129">+List&lt;GreenSpace&gt; getManagedGreenSpaces(GSM gsm)</text><text fill="#000000" font-family="sans-serif" font-size="14" lengthAdjust="spacing" textLength="187" x="694" y="177.834">+GSM getGSMFromSession()</text></g><g id="elem_GMN9"><path d="M1540,82.5 L1540,92 L1505.26,96 L1540,100 L1540,109.791 A0,0 0 0 0 1540,109.791 L1817,109.791 A0,0 0 0 0 1817,109.791 L1817,92.5 L1807,82.5 L1540,82.5 A0,0 0 0 0 1540,82.5 " fill="#FEFFDD" style="stroke:#181818;stroke-width:0.5;"/><path d="M1807,82.5 L1807,92.5 L1817,92.5 L1807,82.5 " fill="#FEFFDD" style="stroke:#181818;stroke-width:0.5;"/><text fill="#000000" font-family="sans-serif" font-size="13" lengthAdjust="spacing" textLength="256" x="1546" y="101.5283">- Fetches the list of managed Green Spaces</text></g><g id="elem_GMN12"><path d="M6,65 L6,126.873 A0,0 0 0 0 6,126.873 L339,126.873 A0,0 0 0 0 339,126.873 L339,100 L373.72,96 L339,92 L339,75 L329,65 L6,65 A0,0 0 0 0 6,65 " fill="#FEFFDD" style="stroke:#181818;stroke-width:0.5;"/><path d="M329,65 L329,75 L339,75 L329,65 " fill="#FEFFDD" style="stroke:#181818;stroke-width:0.5;"/><text fill="#000000" font-family="sans-serif" font-size="13" lengthAdjust="spacing" textLength="296" x="12" y="84.0283">- UI that shows the GSM's managed Green Spaces</text><text fill="#000000" font-family="sans-serif" font-size="13" lengthAdjust="spacing" textLength="274" x="12" y="101.3193">- Communicates with ListManagedGSController</text><text fill="#000000" font-family="sans-serif" font-size="13" lengthAdjust="spacing" textLength="312" x="12" y="118.6104">- Receives repositories from ListManagedGSController</text></g><!--link ListManagedGSUI to GreenSpace--><g id="link_ListManagedGSUI_GreenSpace"><path codeLine="81" d="M525.32,176.04 C543.61,298.43 578.1228,529.316 600.5028,679.006 " fill="none" id="ListManagedGSUI-to-GreenSpace" style="stroke:#181818;stroke-width:1.0;"/><polygon fill="#181818" points="601.39,684.94,604.0152,675.4475,600.6507,679.995,596.1032,676.6304,601.39,684.94" style="stroke:#181818;stroke-width:1.0;"/><text fill="#000000" font-family="sans-serif" font-size="13" lengthAdjust="spacing" textLength="24" x="559.5" y="394.0283">lists</text></g><!--link Repositories to Repositories--><g id="link_Repositories_Repositories"><path codeLine="83" d="M1622.63,293.33 C1643.74,295.74 1657.5,300.13 1657.5,306.5 C1657.5,312.87 1649.7013,316.5794 1628.5913,318.9894 " fill="none" id="Repositories-to-Repositories" style="stroke:#181818;stroke-width:1.0;"/><polygon fill="#181818" points="1622.63,319.67,1632.0256,322.6233,1627.5977,319.1029,1631.1182,314.675,1622.63,319.67" style="stroke:#181818;stroke-width:1.0;"/><text fill="#000000" font-family="sans-serif" font-size="13" lengthAdjust="spacing" textLength="49" x="1663.5" y="312.0283">instance</text></g><!--link ApplicationSession to ApplicationSession--><g id="link_ApplicationSession_ApplicationSession"><path codeLine="84" d="M876.16,291.27 C896,292.17 911,297.25 911,306.5 C911,315.75 901.9938,320.5581 882.1538,321.4581 " fill="none" id="ApplicationSession-to-ApplicationSession" style="stroke:#181818;stroke-width:1.0;"/><polygon fill="#181818" points="876.16,321.73,885.332,325.318,881.1549,321.5034,884.9695,317.3263,876.16,321.73" style="stroke:#181818;stroke-width:1.0;"/><text fill="#000000" font-family="sans-serif" font-size="13" lengthAdjust="spacing" textLength="49" x="917" y="312.0283">instance</text></g><!--link ListManagedGSUI to ListManagedGSController--><g id="link_ListManagedGSUI_ListManagedGSController"><path codeLine="86" d="M653.18,96 C666.58,96 672.63,96 681.99,96 " fill="none" id="ListManagedGSUI-to-ListManagedGSController" style="stroke:#181818;stroke-width:1.0;stroke-dasharray:7.0,7.0;"/><polygon fill="#181818" points="687.99,96,678.99,92,682.99,96,678.99,100,687.99,96" style="stroke:#181818;stroke-width:1.0;"/></g><!--link ListManagedGSController to Repositories--><g id="link_ListManagedGSController_Repositories"><path codeLine="88" d="M1243.16,185.12 C1288.66,212.46 1331.5467,238.2302 1369.1667,260.8302 " fill="none" id="ListManagedGSController-to-Repositories" style="stroke:#181818;stroke-width:1.0;"/><polygon fill="#181818" points="1374.31,263.92,1368.655,255.8565,1370.0239,261.3452,1364.5352,262.7142,1374.31,263.92" style="stroke:#181818;stroke-width:1.0;"/><text fill="#000000" font-family="sans-serif" font-size="13" lengthAdjust="spacing" textLength="108" x="1321.5" y="230.0283">retrieves instances</text></g><!--link Repositories to GreenSpaceRepository--><g id="link_Repositories_GreenSpaceRepository"><path codeLine="90" d="M1394.91,349.19 C1368.59,371.77 1339.5932,396.6525 1307.7932,423.9425 " fill="none" id="Repositories-to-GreenSpaceRepository" style="stroke:#181818;stroke-width:1.0;"/><polygon fill="#181818" points="1303.24,427.85,1312.6748,425.0243,1307.0343,424.5938,1307.4648,418.9533,1303.24,427.85" style="stroke:#181818;stroke-width:1.0;"/><text fill="#000000" font-family="sans-serif" font-size="13" lengthAdjust="spacing" textLength="56" x="1358.5" y="394.0283">accesses</text></g><!--link ListManagedGSController to GreenSpaceRepository--><g id="link_ListManagedGSController_GreenSpaceRepository"><path codeLine="92" d="M1102.8,185.14 C1107.99,257.81 1114.5,349 1114.5,349 C1114.5,349 1131.603,382.2158 1152.233,422.2758 " fill="none" id="ListManagedGSController-to-GreenSpaceRepository" style="stroke:#181818;stroke-width:1.0;stroke-dasharray:7.0,7.0;"/><polygon fill="#181818" points="1154.98,427.61,1154.4156,417.7773,1152.6908,423.1648,1147.3033,421.44,1154.98,427.61" style="stroke:#181818;stroke-width:1.0;"/><text fill="#000000" font-family="sans-serif" font-size="13" lengthAdjust="spacing" textLength="131" x="1115.5" y="312.0283">greenSpaceRepository</text></g><!--link ApplicationSession to UserSession--><g id="link_ApplicationSession_UserSession"><path codeLine="94" d="M800.5,349.19 C800.5,388.65 800.5,441.07 800.5,477.28 " fill="none" id="ApplicationSession-to-UserSession" style="stroke:#181818;stroke-width:1.0;"/><polygon fill="#181818" points="800.5,483.28,804.5,474.28,800.5,478.28,796.5,474.28,800.5,483.28" style="stroke:#181818;stroke-width:1.0;"/><text fill="#000000" font-family="sans-serif" font-size="13" lengthAdjust="spacing" textLength="72" x="801.5" y="394.0283">userSession</text><text fill="#000000" font-family="sans-serif" font-size="13" lengthAdjust="spacing" textLength="7" x="792.8328" y="472.324">1</text></g><!--link ListManagedGSController to ApplicationSession--><g id="link_ListManagedGSController_ApplicationSession"><path codeLine="96" d="M971.4,185.12 C932.58,212.46 896.526,237.8659 864.426,260.4659 " fill="none" id="ListManagedGSController-to-ApplicationSession" style="stroke:#181818;stroke-width:1.0;stroke-dasharray:7.0,7.0;"/><polygon fill="#181818" points="859.52,263.92,869.1818,262.0095,863.6084,261.0416,864.5763,255.4682,859.52,263.92" style="stroke:#181818;stroke-width:1.0;"/></g><!--link ListManagedGSController to UserSession--><g id="link_ListManagedGSController_UserSession"><path codeLine="97" d="M1053.13,185.14 C1017.37,257.81 972.5,349 972.5,349 C972.5,349 874.5,428 874.5,428 C874.5,428 852.9516,453.6179 831.9116,478.6379 " fill="none" id="ListManagedGSController-to-UserSession" style="stroke:#181818;stroke-width:1.0;stroke-dasharray:7.0,7.0;"/><polygon fill="#181818" points="828.05,483.23,836.9039,478.9162,831.268,479.4032,830.7811,473.7674,828.05,483.23" style="stroke:#181818;stroke-width:1.0;"/></g><!--link GreenSpaceRepository to GreenSpace--><g id="link_GreenSpaceRepository_GreenSpace"><path codeLine="99" d="M1031.47,606.02 C983.99,630.74 936.572,655.4393 885.152,682.2093 " fill="none" id="GreenSpaceRepository-to-GreenSpace" style="stroke:#181818;stroke-width:1.0;"/><polygon fill="#181818" points="879.83,684.98,889.6601,684.3719,884.265,682.6711,885.9658,677.276,879.83,684.98" style="stroke:#181818;stroke-width:1.0;"/><text fill="#000000" font-family="sans-serif" font-size="13" lengthAdjust="spacing" textLength="36" x="964.5" y="651.0283">stores</text></g><!--SRC=[dLR1Rjim3BthAuHTug59iLsDeK0Gh4M0TGNgzGCKcx6rsf8doIsoOVy-IbPYEPRJRJd58j_Z8obAMkXdBbgcM4CRAMHUATa0DQe3CbXQbZ-p4Z9pg84go0qJPHqww8eLyfMBakvPhKDBpGMOGmkqbVN1Vf15n2YLaIH0vJNJUcsCuhlEm3QN8kC_WNuWP573tb0ZgU9bPMZ1hHmk1I4EGzTjM_ESsQKCjBQMNuJYxufgWyivBS5i1VuNEIJllGdNDfrI88m7eUNtaV99WphdGe1T_jmmNeU-Tmf0P5WleBthYWhMG4epp4MKVidcVBR45B2K5hBROM7xfL8tARtBxdt8WJhfaOvvwMaSvz8JEBPZRY-I5_I5rRnW1WQIhmWEYTvm_uRqIH3g3VSr2aWYOdPIri04XHyTRfJaOVSTsqVbqSo5eHNJrKOMGtE2ckQr58FXICRrmzwcOpMkHU5Y_rM9bhQyjixH3Zv2ApKtKXrSBrVq2zVcqs2_eUNfloPMq4DhznshHquAIiI1-jV-1UB2P5bH14n1RGOnOy2qEPTGqnp1t3E1qn-4rSb8sWIZSPuZe8bVC_6P5p5yMciuSwS-ST2kKrVZ6QVfoENe46kqSuuPXcWs-Z6tx6dhjmQUK4R9kWQLZZqs9mCvc-chEKTt6fs-ahuaRivK9_odgp_caDs7zbR9eilXnEagDTtYSt7xLCf8-ZD5SGTNPoeyD_sP6qBMCvPBkIVHyOj9MixopqhofOj6cDiF3Z8R2M5pjkJ_vsbexYtUngCRIKW3_kgJ-uixxHPCNk50e3gyPxNpz_FMbu3wWmj4GIsj9tVtwpdtqzPnudOt5JDutSlNdXarBdISrm8sicawOMk3IbwvgIvAVeGS-0jwgd2YzrY3MTWW_dmkLwkReDMfgu4cP7HOeCleEyKBg3yroFGTORqZgm5cek7wPbOucHl25Jwan5IO0hmcm1Rd66wIZ0T6ztTAMOuGRL5paQ-lPy6n0IJH6g60Tn_VXMycX7V12-fY-CZhxP9x-38ZKUddkq3Zggt17m00]--></g></svg>