<?xml version="1.0" encoding="us-ascii" standalone="no"?><svg xmlns="http://www.w3.org/2000/svg" xmlns:xlink="http://www.w3.org/1999/xlink" contentStyleType="text/css" height="739px" preserveAspectRatio="none" style="width:1778px;height:739px;background:#FFFFFF;" version="1.1" viewBox="0 0 1778 739" width="1778px" zoomAndPan="magnify"><defs/><g><rect fill="#FFFFFF" height="574.3555" style="stroke:#181818;stroke-width:1.0;" width="10" x="236" y="90.5332"/><rect fill="#FFFFFF" height="163.4941" style="stroke:#181818;stroke-width:1.0;" width="10" x="482" y="148.1152"/><rect fill="#FFFFFF" height="42.291" style="stroke:#181818;stroke-width:1.0;" width="10" x="487" y="231.0273"/><rect fill="#FFFFFF" height="283.6973" style="stroke:#181818;stroke-width:1.0;" width="10" x="913" y="342.9004"/><rect fill="#FFFFFF" height="36.291" style="stroke:#181818;stroke-width:1.0;" width="10" x="918" y="483.3945"/><rect fill="none" height="529.0645" style="stroke:#000000;stroke-width:1.5;" width="1631.5" x="140.5" y="105.5332"/><rect fill="none" height="169.7852" style="stroke:#000000;stroke-width:1.5;" width="896" x="866" y="401.5215"/><line style="stroke:#181818;stroke-width:0.5;stroke-dasharray:5.0,5.0;" x1="240.5" x2="240.5" y1="57.2422" y2="682.8887"/><line style="stroke:#181818;stroke-width:0.5;stroke-dasharray:5.0,5.0;" x1="486.5" x2="486.5" y1="57.2422" y2="682.8887"/><line style="stroke:#181818;stroke-width:0.5;stroke-dasharray:5.0,5.0;" x1="918" x2="918" y1="57.2422" y2="682.8887"/><line style="stroke:#181818;stroke-width:0.5;stroke-dasharray:5.0,5.0;" x1="1279" x2="1279" y1="187.9258" y2="682.8887"/><line style="stroke:#181818;stroke-width:0.5;stroke-dasharray:5.0,5.0;" x1="1464" x2="1464" y1="382.7109" y2="682.8887"/><line style="stroke:#181818;stroke-width:0.5;stroke-dasharray:5.0,5.0;" x1="1660" x2="1660" y1="528.2051" y2="682.8887"/><rect fill="#E3E3E3" height="32.6211" rx="2.5" ry="2.5" style="stroke:#181818;stroke-width:0.5;" width="181" x="150.5" y="23.6211"/><text fill="#000000" font-family="sans-serif" font-size="14" lengthAdjust="spacing" textLength="167" x="157.5" y="45.7285">:ListManagedGSController</text><rect fill="#E3E3E3" height="32.6211" rx="2.5" ry="2.5" style="stroke:#181818;stroke-width:0.5;" width="181" x="150.5" y="681.8887"/><text fill="#000000" font-family="sans-serif" font-size="14" lengthAdjust="spacing" textLength="167" x="157.5" y="703.9961">:ListManagedGSController</text><rect fill="#E3E3E3" height="51.2422" rx="2.5" ry="2.5" style="stroke:#181818;stroke-width:0.5;" width="225" x="374.5" y="5"/><text fill="#000000" font-family="sans-serif" font-size="14" lengthAdjust="spacing" textLength="211" x="381.5" y="27.1074">managedGreenSpaceRepository:</text><text fill="#000000" font-family="sans-serif" font-size="14" lengthAdjust="spacing" textLength="148" x="413" y="45.7285">GreenSpaceRepository</text><rect fill="#E3E3E3" height="51.2422" rx="2.5" ry="2.5" style="stroke:#181818;stroke-width:0.5;" width="225" x="374.5" y="681.8887"/><text fill="#000000" font-family="sans-serif" font-size="14" lengthAdjust="spacing" textLength="211" x="381.5" y="703.9961">managedGreenSpaceRepository:</text><text fill="#000000" font-family="sans-serif" font-size="14" lengthAdjust="spacing" textLength="148" x="413" y="722.6172">GreenSpaceRepository</text><rect fill="#E3E3E3" height="32.6211" rx="2.5" ry="2.5" style="stroke:#181818;stroke-width:0.5;" width="84" x="876" y="23.6211"/><text fill="#000000" font-family="sans-serif" font-size="14" lengthAdjust="spacing" textLength="70" x="883" y="45.7285">ListMapper</text><rect fill="#E3E3E3" height="32.6211" rx="2.5" ry="2.5" style="stroke:#181818;stroke-width:0.5;" width="84" x="876" y="681.8887"/><text fill="#000000" font-family="sans-serif" font-size="14" lengthAdjust="spacing" textLength="70" x="883" y="703.9961">ListMapper</text><rect fill="#E3E3E3" height="32.6211" rx="2.5" ry="2.5" style="stroke:#181818;stroke-width:0.5;" width="160" x="1199" y="681.8887"/><text fill="#000000" font-family="sans-serif" font-size="14" lengthAdjust="spacing" textLength="146" x="1206" y="703.9961">managedGreenSpaces</text><rect fill="#E3E3E3" height="32.6211" rx="2.5" ry="2.5" style="stroke:#181818;stroke-width:0.5;" width="190" x="1369" y="681.8887"/><text fill="#000000" font-family="sans-serif" font-size="14" lengthAdjust="spacing" textLength="176" x="1376" y="703.9961">managedGreenSpacesDTO</text><rect fill="#E3E3E3" height="32.6211" rx="2.5" ry="2.5" style="stroke:#181818;stroke-width:0.5;" width="183" x="1569" y="681.8887"/><text fill="#000000" font-family="sans-serif" font-size="14" lengthAdjust="spacing" textLength="169" x="1576" y="703.9961">managedGreenSpaceDTO</text><rect fill="#FFFFFF" height="574.3555" style="stroke:#181818;stroke-width:1.0;" width="10" x="236" y="90.5332"/><rect fill="#FFFFFF" height="163.4941" style="stroke:#181818;stroke-width:1.0;" width="10" x="482" y="148.1152"/><rect fill="#FFFFFF" height="42.291" style="stroke:#181818;stroke-width:1.0;" width="10" x="487" y="231.0273"/><rect fill="#FFFFFF" height="283.6973" style="stroke:#181818;stroke-width:1.0;" width="10" x="913" y="342.9004"/><rect fill="#FFFFFF" height="36.291" style="stroke:#181818;stroke-width:1.0;" width="10" x="918" y="483.3945"/><polygon fill="#181818" points="224,86.5332,234,90.5332,224,94.5332,228,90.5332" style="stroke:#181818;stroke-width:1.0;"/><line style="stroke:#181818;stroke-width:1.0;" x1="0" x2="230" y1="90.5332" y2="90.5332"/><text fill="#000000" font-family="sans-serif" font-size="13" lengthAdjust="spacing" textLength="217" x="7" y="85.2705">getManagedGreenSpaces(GSM gsm)</text><path d="M140.5,105.5332 L383.5,105.5332 L383.5,114.8242 L373.5,124.8242 L140.5,124.8242 L140.5,105.5332 " fill="#EEEEEE" style="stroke:#000000;stroke-width:1.5;"/><rect fill="none" height="529.0645" style="stroke:#000000;stroke-width:1.5;" width="1631.5" x="140.5" y="105.5332"/><text fill="#000000" font-family="sans-serif" font-size="13" font-weight="bold" lengthAdjust="spacing" textLength="198" x="155.5" y="120.5615">Get Managed Green Space List</text><polygon fill="#181818" points="470,144.1152,480,148.1152,470,152.1152,474,148.1152" style="stroke:#181818;stroke-width:1.0;"/><line style="stroke:#181818;stroke-width:1.0;" x1="246" x2="476" y1="148.1152" y2="148.1152"/><text fill="#000000" font-family="sans-serif" font-size="13" lengthAdjust="spacing" textLength="217" x="253" y="142.8525">getManagedGreenSpaces(GSM gsm)</text><polygon fill="#181818" points="1187,175.4063,1197,179.4063,1187,183.4063,1191,179.4063" style="stroke:#181818;stroke-width:1.0;"/><line style="stroke:#181818;stroke-width:1.0;" x1="492" x2="1193" y1="179.4063" y2="179.4063"/><text fill="#000000" font-family="sans-serif" font-size="13" lengthAdjust="spacing" textLength="103" x="499" y="174.1436">create(GSM gsm)</text><rect fill="#E3E3E3" height="32.6211" rx="2.5" ry="2.5" style="stroke:#181818;stroke-width:0.5;" width="160" x="1199" y="156.1152"/><text fill="#000000" font-family="sans-serif" font-size="14" lengthAdjust="spacing" textLength="146" x="1206" y="178.2227">managedGreenSpaces</text><line style="stroke:#181818;stroke-width:1.0;" x1="492" x2="539" y1="218.0273" y2="218.0273"/><line style="stroke:#181818;stroke-width:1.0;" x1="539" x2="539" y1="218.0273" y2="231.0273"/><line style="stroke:#181818;stroke-width:1.0;" x1="498" x2="539" y1="231.0273" y2="231.0273"/><polygon fill="#181818" points="508,227.0273,498,231.0273,508,235.0273,504,231.0273" style="stroke:#181818;stroke-width:1.0;"/><text fill="#000000" font-family="sans-serif" font-size="13" lengthAdjust="spacing" textLength="407" x="504" y="212.7646">sortManagedGreenSpaces(List&lt;GreenSpace&gt; managedGreenSpaces)</text><line style="stroke:#181818;stroke-width:1.0;stroke-dasharray:2.0,2.0;" x1="497" x2="539" y1="272.3184" y2="272.3184"/><line style="stroke:#181818;stroke-width:1.0;stroke-dasharray:2.0,2.0;" x1="539" x2="539" y1="272.3184" y2="285.3184"/><line style="stroke:#181818;stroke-width:1.0;stroke-dasharray:2.0,2.0;" x1="492" x2="539" y1="285.3184" y2="285.3184"/><polygon fill="#181818" points="502,281.3184,492,285.3184,502,289.3184,498,285.3184" style="stroke:#181818;stroke-width:1.0;"/><text fill="#000000" font-family="sans-serif" font-size="13" lengthAdjust="spacing" textLength="132" x="504" y="267.0557">managedGreenSpaces</text><polygon fill="#181818" points="257,307.6094,247,311.6094,257,315.6094,253,311.6094" style="stroke:#181818;stroke-width:1.0;"/><line style="stroke:#181818;stroke-width:1.0;stroke-dasharray:2.0,2.0;" x1="251" x2="486" y1="311.6094" y2="311.6094"/><text fill="#000000" font-family="sans-serif" font-size="13" lengthAdjust="spacing" textLength="132" x="263" y="306.3467">managedGreenSpaces</text><polygon fill="#181818" points="901,338.9004,911,342.9004,901,346.9004,905,342.9004" style="stroke:#181818;stroke-width:1.0;"/><line style="stroke:#181818;stroke-width:1.0;" x1="246" x2="907" y1="342.9004" y2="342.9004"/><text fill="#000000" font-family="sans-serif" font-size="13" lengthAdjust="spacing" textLength="177" x="253" y="337.6377">toDTO(managedGreenSpaces)</text><polygon fill="#181818" points="1357,370.1914,1367,374.1914,1357,378.1914,1361,374.1914" style="stroke:#181818;stroke-width:1.0;"/><line style="stroke:#181818;stroke-width:1.0;" x1="923" x2="1363" y1="374.1914" y2="374.1914"/><text fill="#000000" font-family="sans-serif" font-size="13" lengthAdjust="spacing" textLength="44" x="930" y="368.9287">create()</text><rect fill="#E3E3E3" height="32.6211" rx="2.5" ry="2.5" style="stroke:#181818;stroke-width:0.5;" width="190" x="1369" y="350.9004"/><text fill="#000000" font-family="sans-serif" font-size="14" lengthAdjust="spacing" textLength="176" x="1376" y="373.0078">managedGreenSpacesDTO</text><path d="M866,401.5215 L939,401.5215 L939,410.8125 L929,420.8125 L866,420.8125 L866,401.5215 " fill="#EEEEEE" style="stroke:#000000;stroke-width:1.5;"/><rect fill="none" height="169.7852" style="stroke:#000000;stroke-width:1.5;" width="896" x="866" y="401.5215"/><text fill="#000000" font-family="sans-serif" font-size="13" font-weight="bold" lengthAdjust="spacing" textLength="28" x="881" y="416.5498">loop</text><text fill="#000000" font-family="sans-serif" font-size="11" font-weight="bold" lengthAdjust="spacing" textLength="315" x="954" y="415.3916">[for each managedGreenSpace in managedGreenSpaces]</text><polygon fill="#181818" points="1267,440.1035,1277,444.1035,1267,448.1035,1271,444.1035" style="stroke:#181818;stroke-width:1.0;"/><line style="stroke:#181818;stroke-width:1.0;" x1="923" x2="1273" y1="444.1035" y2="444.1035"/><text fill="#000000" font-family="sans-serif" font-size="13" lengthAdjust="spacing" textLength="29" x="930" y="438.8408">get(i)</text><line style="stroke:#181818;stroke-width:1.0;" x1="923" x2="970" y1="470.3945" y2="470.3945"/><line style="stroke:#181818;stroke-width:1.0;" x1="970" x2="970" y1="470.3945" y2="483.3945"/><line style="stroke:#181818;stroke-width:1.0;" x1="929" x2="970" y1="483.3945" y2="483.3945"/><polygon fill="#181818" points="939,479.3945,929,483.3945,939,487.3945,935,483.3945" style="stroke:#181818;stroke-width:1.0;"/><text fill="#000000" font-family="sans-serif" font-size="13" lengthAdjust="spacing" textLength="337" x="935" y="465.1318">managedGreenSpaceDTO = toDTO(managedGreenSpace)</text><polygon fill="#181818" points="1557,515.6855,1567,519.6855,1557,523.6855,1561,519.6855" style="stroke:#181818;stroke-width:1.0;"/><line style="stroke:#181818;stroke-width:1.0;stroke-dasharray:2.0,2.0;" x1="923" x2="1563" y1="519.6855" y2="519.6855"/><text fill="#000000" font-family="sans-serif" font-size="13" lengthAdjust="spacing" textLength="169" x="930" y="514.4229">create(managedGreenSpace)</text><rect fill="#E3E3E3" height="32.6211" rx="2.5" ry="2.5" style="stroke:#181818;stroke-width:0.5;" width="183" x="1569" y="496.3945"/><text fill="#000000" font-family="sans-serif" font-size="14" lengthAdjust="spacing" textLength="169" x="1576" y="518.502">managedGreenSpaceDTO</text><polygon fill="#181818" points="1452,559.3066,1462,563.3066,1452,567.3066,1456,563.3066" style="stroke:#181818;stroke-width:1.0;"/><line style="stroke:#181818;stroke-width:1.0;" x1="923" x2="1458" y1="563.3066" y2="563.3066"/><text fill="#000000" font-family="sans-serif" font-size="13" lengthAdjust="spacing" textLength="154" x="930" y="558.0439">add(managedGreenSpace)</text><polygon fill="#181818" points="257,622.5977,247,626.5977,257,630.5977,253,626.5977" style="stroke:#181818;stroke-width:1.0;"/><line style="stroke:#181818;stroke-width:1.0;stroke-dasharray:2.0,2.0;" x1="251" x2="917" y1="626.5977" y2="626.5977"/><text fill="#000000" font-family="sans-serif" font-size="13" lengthAdjust="spacing" textLength="158" x="263" y="621.335">managedGreenSpacesDTO</text><polygon fill="#181818" points="11,660.8887,1,664.8887,11,668.8887,7,664.8887" style="stroke:#181818;stroke-width:1.0;"/><line style="stroke:#181818;stroke-width:1.0;stroke-dasharray:2.0,2.0;" x1="5" x2="240" y1="664.8887" y2="664.8887"/><text fill="#000000" font-family="sans-serif" font-size="13" lengthAdjust="spacing" textLength="158" x="17" y="659.626">managedGreenSpacesDTO</text><!--SRC=[fLHDZu8m4BtpAoPxKXF_GEDwSHCka4t0uruQ6B4HMjBMtPZuuxV5Yh2MZxXp8ktZlJSpdL4dncigQGMLu28xIb4XQ7d6GBKtDSrEjC1KNqe4YPccl2Yx07MakVXXl803BHK69io5PXchATVmHYAcT4ov8Sd3T2Uubg8iKRu1LR3R9r4VNZcaHEIf4SS4Qw6O5l92lhZlk24AqwJFSrEjQoSKnHCooj5CmJxsdmvflYR0BTP20t2ntZPf0m4eiAtCGs4HfZ4KgbgsVpo2PffzKustmjcJGefp3I5gS4pGK4731ROAjYFWZyQ7yMEgzvATlYVRWo6GLMY4LYi2cKI3doIUv4e8A25zdctUcyV15fuREIWx5VFplPjy5dzLEyUUkhTgVkw1uxjF-nBc6_rZ8nXzN55CG0ip0elPJMZPpTZw4L5yUmA6jlEYbWFeKeWQ3aA2yNrypX8OzwK-hapik2pOSXHcS_Uj1NWVAic_AcADzIiobx_JqJar9q3pV3Ovydnm2Lslrs1u6bnIRbzwjt4mPrXiJa5hnNvirkjnsixVpR8DVW40]--></g></svg>