<?xml version="1.0" encoding="us-ascii" standalone="no"?><svg xmlns="http://www.w3.org/2000/svg" xmlns:xlink="http://www.w3.org/1999/xlink" contentStyleType="text/css" height="1045px" preserveAspectRatio="none" style="width:1546px;height:1045px;background:#FFFFFF;" version="1.1" viewBox="0 0 1546 1045" width="1546px" zoomAndPan="magnify"><defs/><g><rect fill="#FFFFFF" height="850.2754" style="stroke:#181818;stroke-width:1.0;" width="10" x="78.5" y="93.6211"/><rect fill="#FFFFFF" height="826.9844" style="stroke:#181818;stroke-width:1.0;" width="10" x="415.5" y="116.9121"/><rect fill="#FFFFFF" height="452.0742" style="stroke:#181818;stroke-width:1.0;" width="10" x="668.5" y="158.2031"/><rect fill="#FFFFFF" height="90.543" style="stroke:#181818;stroke-width:1.0;" width="10" x="673.5" y="481.4434"/><rect fill="#FFFFFF" height="271.0371" style="stroke:#181818;stroke-width:1.0;" width="10" x="668.5" y="641.5684"/><rect fill="#FFFFFF" height="31.291" style="stroke:#181818;stroke-width:1.0;" width="10" x="843.5" y="191.8242"/><rect fill="#FFFFFF" height="31.291" style="stroke:#181818;stroke-width:1.0;" width="10" x="950.5" y="254.4063"/><rect fill="#FFFFFF" height="31.291" style="stroke:#181818;stroke-width:1.0;" width="10" x="1092" y="379.5703"/><rect fill="#FFFFFF" height="208.4551" style="stroke:#181818;stroke-width:1.0;" width="10" x="1092" y="672.8594"/><rect fill="#FFFFFF" height="42.291" style="stroke:#181818;stroke-width:1.0;" width="10" x="1097" y="712.1504"/><rect fill="#FFFFFF" height="42.291" style="stroke:#181818;stroke-width:1.0;" width="10" x="1097" y="800.7324"/><line style="stroke:#181818;stroke-width:0.5;stroke-dasharray:5.0,5.0;" x1="83" x2="83" y1="83.6211" y2="961.8965"/><line style="stroke:#181818;stroke-width:0.5;stroke-dasharray:5.0,5.0;" x1="420" x2="420" y1="83.6211" y2="961.8965"/><line style="stroke:#181818;stroke-width:0.5;stroke-dasharray:5.0,5.0;" x1="673" x2="673" y1="156.7227" y2="961.8965"/><line style="stroke:#181818;stroke-width:0.5;stroke-dasharray:5.0,5.0;" x1="848" x2="848" y1="83.6211" y2="961.8965"/><line style="stroke:#181818;stroke-width:0.5;stroke-dasharray:5.0,5.0;" x1="955" x2="955" y1="83.6211" y2="961.8965"/><line style="stroke:#181818;stroke-width:0.5;stroke-dasharray:5.0,5.0;" x1="1097" x2="1097" y1="83.6211" y2="961.8965"/><text fill="#000000" font-family="sans-serif" font-size="14" lengthAdjust="spacing" textLength="151" x="5" y="80.1074">Green Spaces Manager</text><ellipse cx="83.5" cy="13.5" fill="#E3E3E3" rx="8" ry="8" style="stroke:#181818;stroke-width:0.5;"/><path d="M83.5,21.5 L83.5,48.5 M70.5,29.5 L96.5,29.5 M83.5,48.5 L70.5,63.5 M83.5,48.5 L96.5,63.5 " fill="none" style="stroke:#181818;stroke-width:0.5;"/><text fill="#000000" font-family="sans-serif" font-size="14" lengthAdjust="spacing" textLength="151" x="5" y="976.0039">Green Spaces Manager</text><ellipse cx="83.5" cy="988.0176" fill="#E3E3E3" rx="8" ry="8" style="stroke:#181818;stroke-width:0.5;"/><path d="M83.5,996.0176 L83.5,1023.0176 M70.5,1004.0176 L96.5,1004.0176 M83.5,1023.0176 L70.5,1038.0176 M83.5,1023.0176 L96.5,1038.0176 " fill="none" style="stroke:#181818;stroke-width:0.5;"/><rect fill="#E3E3E3" height="32.6211" rx="2.5" ry="2.5" style="stroke:#181818;stroke-width:0.5;" width="131" x="355" y="50"/><text fill="#000000" font-family="sans-serif" font-size="14" lengthAdjust="spacing" textLength="117" x="362" y="72.1074">:ListManagedGSUI</text><rect fill="#E3E3E3" height="32.6211" rx="2.5" ry="2.5" style="stroke:#181818;stroke-width:0.5;" width="131" x="355" y="960.8965"/><text fill="#000000" font-family="sans-serif" font-size="14" lengthAdjust="spacing" textLength="117" x="362" y="983.0039">:ListManagedGSUI</text><rect fill="#E3E3E3" height="32.6211" rx="2.5" ry="2.5" style="stroke:#181818;stroke-width:0.5;" width="181" x="583" y="960.8965"/><text fill="#000000" font-family="sans-serif" font-size="14" lengthAdjust="spacing" textLength="167" x="590" y="983.0039">:ListManagedGSController</text><rect fill="#E3E3E3" height="32.6211" rx="2.5" ry="2.5" style="stroke:#181818;stroke-width:0.5;" width="97" x="800" y="50"/><text fill="#000000" font-family="sans-serif" font-size="14" lengthAdjust="spacing" textLength="83" x="807" y="72.1074">:Repositories</text><rect fill="#E3E3E3" height="32.6211" rx="2.5" ry="2.5" style="stroke:#181818;stroke-width:0.5;" width="97" x="800" y="960.8965"/><text fill="#000000" font-family="sans-serif" font-size="14" lengthAdjust="spacing" textLength="83" x="807" y="983.0039">:Repositories</text><rect fill="#E3E3E3" height="51.2422" rx="2.5" ry="2.5" style="stroke:#181818;stroke-width:0.5;" width="97" x="907" y="31.3789"/><text fill="#000000" font-family="sans-serif" font-size="14" lengthAdjust="spacing" textLength="74" x="918.5" y="53.4863">repositories</text><text fill="#000000" font-family="sans-serif" font-size="14" lengthAdjust="spacing" textLength="83" x="914" y="72.1074">:Repositories</text><rect fill="#E3E3E3" height="51.2422" rx="2.5" ry="2.5" style="stroke:#181818;stroke-width:0.5;" width="97" x="907" y="960.8965"/><text fill="#000000" font-family="sans-serif" font-size="14" lengthAdjust="spacing" textLength="74" x="918.5" y="983.0039">repositories</text><text fill="#000000" font-family="sans-serif" font-size="14" lengthAdjust="spacing" textLength="83" x="914" y="1001.625">:Repositories</text><rect fill="#E3E3E3" height="51.2422" rx="2.5" ry="2.5" style="stroke:#181818;stroke-width:0.5;" width="166" x="1014" y="31.3789"/><text fill="#000000" font-family="sans-serif" font-size="14" lengthAdjust="spacing" textLength="145" x="1024.5" y="53.4863">greenSpaceRepository</text><text fill="#000000" font-family="sans-serif" font-size="14" lengthAdjust="spacing" textLength="152" x="1021" y="72.1074">:GreenSpaceRepository</text><rect fill="#E3E3E3" height="51.2422" rx="2.5" ry="2.5" style="stroke:#181818;stroke-width:0.5;" width="166" x="1014" y="960.8965"/><text fill="#000000" font-family="sans-serif" font-size="14" lengthAdjust="spacing" textLength="145" x="1024.5" y="983.0039">greenSpaceRepository</text><text fill="#000000" font-family="sans-serif" font-size="14" lengthAdjust="spacing" textLength="152" x="1021" y="1001.625">:GreenSpaceRepository</text><rect fill="#FFFFFF" height="850.2754" style="stroke:#181818;stroke-width:1.0;" width="10" x="78.5" y="93.6211"/><rect fill="#FFFFFF" height="826.9844" style="stroke:#181818;stroke-width:1.0;" width="10" x="415.5" y="116.9121"/><rect fill="#FFFFFF" height="452.0742" style="stroke:#181818;stroke-width:1.0;" width="10" x="668.5" y="158.2031"/><rect fill="#FFFFFF" height="90.543" style="stroke:#181818;stroke-width:1.0;" width="10" x="673.5" y="481.4434"/><rect fill="#FFFFFF" height="271.0371" style="stroke:#181818;stroke-width:1.0;" width="10" x="668.5" y="641.5684"/><rect fill="#FFFFFF" height="31.291" style="stroke:#181818;stroke-width:1.0;" width="10" x="843.5" y="191.8242"/><rect fill="#FFFFFF" height="31.291" style="stroke:#181818;stroke-width:1.0;" width="10" x="950.5" y="254.4063"/><rect fill="#FFFFFF" height="31.291" style="stroke:#181818;stroke-width:1.0;" width="10" x="1092" y="379.5703"/><rect fill="#FFFFFF" height="208.4551" style="stroke:#181818;stroke-width:1.0;" width="10" x="1092" y="672.8594"/><rect fill="#FFFFFF" height="42.291" style="stroke:#181818;stroke-width:1.0;" width="10" x="1097" y="712.1504"/><rect fill="#FFFFFF" height="42.291" style="stroke:#181818;stroke-width:1.0;" width="10" x="1097" y="800.7324"/><polygon fill="#181818" points="403.5,112.9121,413.5,116.9121,403.5,120.9121,407.5,116.9121" style="stroke:#181818;stroke-width:1.0;"/><line style="stroke:#181818;stroke-width:1.0;" x1="88.5" x2="409.5" y1="116.9121" y2="116.9121"/><text fill="#000000" font-family="sans-serif" font-size="13" font-weight="bold" lengthAdjust="spacing" textLength="7" x="95.5" y="111.6494">1</text><text fill="#000000" font-family="sans-serif" font-size="13" lengthAdjust="spacing" textLength="271" x="106.5" y="111.6494">asks to list all green spaces managed by them</text><polygon fill="#181818" points="571,144.2031,581,148.2031,571,152.2031,575,148.2031" style="stroke:#181818;stroke-width:1.0;"/><line style="stroke:#181818;stroke-width:1.0;" x1="425.5" x2="577" y1="148.2031" y2="148.2031"/><text fill="#000000" font-family="sans-serif" font-size="13" font-weight="bold" lengthAdjust="spacing" textLength="7" x="432.5" y="142.9404">2</text><text fill="#000000" font-family="sans-serif" font-size="13" lengthAdjust="spacing" textLength="36" x="443.5" y="142.9404">create</text><rect fill="#E3E3E3" height="32.6211" rx="2.5" ry="2.5" style="stroke:#181818;stroke-width:0.5;" width="181" x="583" y="124.9121"/><text fill="#000000" font-family="sans-serif" font-size="14" lengthAdjust="spacing" textLength="167" x="590" y="147.0195">:ListManagedGSController</text><polygon fill="#181818" points="831.5,187.8242,841.5,191.8242,831.5,195.8242,835.5,191.8242" style="stroke:#181818;stroke-width:1.0;"/><line style="stroke:#181818;stroke-width:1.0;" x1="678.5" x2="837.5" y1="191.8242" y2="191.8242"/><text fill="#000000" font-family="sans-serif" font-size="13" font-weight="bold" lengthAdjust="spacing" textLength="7" x="685.5" y="186.5615">3</text><text fill="#000000" font-family="sans-serif" font-size="13" lengthAdjust="spacing" textLength="75" x="696.5" y="186.5615">getInstance()</text><polygon fill="#181818" points="689.5,219.1152,679.5,223.1152,689.5,227.1152,685.5,223.1152" style="stroke:#181818;stroke-width:1.0;"/><line style="stroke:#181818;stroke-width:1.0;stroke-dasharray:2.0,2.0;" x1="683.5" x2="847.5" y1="223.1152" y2="223.1152"/><text fill="#000000" font-family="sans-serif" font-size="13" font-weight="bold" lengthAdjust="spacing" textLength="7" x="695.5" y="217.8525">4</text><text fill="#000000" font-family="sans-serif" font-size="13" lengthAdjust="spacing" textLength="67" x="706.5" y="217.8525">repositories</text><polygon fill="#181818" points="938.5,250.4063,948.5,254.4063,938.5,258.4063,942.5,254.4063" style="stroke:#181818;stroke-width:1.0;"/><line style="stroke:#181818;stroke-width:1.0;" x1="678.5" x2="944.5" y1="254.4063" y2="254.4063"/><text fill="#000000" font-family="sans-serif" font-size="13" font-weight="bold" lengthAdjust="spacing" textLength="7" x="685.5" y="249.1436">5</text><text fill="#000000" font-family="sans-serif" font-size="13" lengthAdjust="spacing" textLength="160" x="696.5" y="249.1436">getGreenSpaceRepository()</text><polygon fill="#181818" points="689.5,281.6973,679.5,285.6973,689.5,289.6973,685.5,285.6973" style="stroke:#181818;stroke-width:1.0;"/><line style="stroke:#181818;stroke-width:1.0;stroke-dasharray:2.0,2.0;" x1="683.5" x2="954.5" y1="285.6973" y2="285.6973"/><text fill="#000000" font-family="sans-serif" font-size="13" font-weight="bold" lengthAdjust="spacing" textLength="7" x="695.5" y="280.4346">6</text><text fill="#000000" font-family="sans-serif" font-size="13" lengthAdjust="spacing" textLength="134" x="706.5" y="280.4346">GreenSpaceRepository</text><polygon fill="#181818" points="436.5,312.9883,426.5,316.9883,436.5,320.9883,432.5,316.9883" style="stroke:#181818;stroke-width:1.0;"/><line style="stroke:#181818;stroke-width:1.0;stroke-dasharray:2.0,2.0;" x1="430.5" x2="667.5" y1="316.9883" y2="316.9883"/><text fill="#000000" font-family="sans-serif" font-size="13" font-weight="bold" lengthAdjust="spacing" textLength="7" x="442.5" y="311.7256">7</text><text fill="#000000" font-family="sans-serif" font-size="13" lengthAdjust="spacing" textLength="134" x="453.5" y="311.7256">GreenSpaceRepository</text><polygon fill="#181818" points="656.5,344.2793,666.5,348.2793,656.5,352.2793,660.5,348.2793" style="stroke:#181818;stroke-width:1.0;"/><line style="stroke:#181818;stroke-width:1.0;" x1="425.5" x2="662.5" y1="348.2793" y2="348.2793"/><text fill="#000000" font-family="sans-serif" font-size="13" font-weight="bold" lengthAdjust="spacing" textLength="7" x="432.5" y="343.0166">8</text><text fill="#000000" font-family="sans-serif" font-size="13" lengthAdjust="spacing" textLength="119" x="443.5" y="343.0166">getGreenSpaceList()</text><polygon fill="#181818" points="1080,375.5703,1090,379.5703,1080,383.5703,1084,379.5703" style="stroke:#181818;stroke-width:1.0;"/><line style="stroke:#181818;stroke-width:1.0;" x1="678.5" x2="1086" y1="379.5703" y2="379.5703"/><text fill="#000000" font-family="sans-serif" font-size="13" font-weight="bold" lengthAdjust="spacing" textLength="7" x="685.5" y="374.3076">9</text><text fill="#000000" font-family="sans-serif" font-size="13" lengthAdjust="spacing" textLength="119" x="696.5" y="374.3076">getGreenSpaceList()</text><polygon fill="#181818" points="689.5,406.8613,679.5,410.8613,689.5,414.8613,685.5,410.8613" style="stroke:#181818;stroke-width:1.0;"/><line style="stroke:#181818;stroke-width:1.0;stroke-dasharray:2.0,2.0;" x1="683.5" x2="1096" y1="410.8613" y2="410.8613"/><text fill="#000000" font-family="sans-serif" font-size="13" font-weight="bold" lengthAdjust="spacing" textLength="14" x="695.5" y="405.5986">10</text><text fill="#000000" font-family="sans-serif" font-size="13" lengthAdjust="spacing" textLength="76" x="713.5" y="405.5986">greenSpaces</text><polygon fill="#181818" points="436.5,438.1523,426.5,442.1523,436.5,446.1523,432.5,442.1523" style="stroke:#181818;stroke-width:1.0;"/><line style="stroke:#181818;stroke-width:1.0;stroke-dasharray:2.0,2.0;" x1="430.5" x2="667.5" y1="442.1523" y2="442.1523"/><text fill="#000000" font-family="sans-serif" font-size="13" font-weight="bold" lengthAdjust="spacing" textLength="14" x="442.5" y="436.8896">11</text><text fill="#000000" font-family="sans-serif" font-size="13" lengthAdjust="spacing" textLength="76" x="460.5" y="436.8896">greenSpaces</text><line style="stroke:#181818;stroke-width:1.0;" x1="678.5" x2="725.5" y1="468.4434" y2="468.4434"/><line style="stroke:#181818;stroke-width:1.0;" x1="725.5" x2="725.5" y1="468.4434" y2="481.4434"/><line style="stroke:#181818;stroke-width:1.0;" x1="684.5" x2="725.5" y1="481.4434" y2="481.4434"/><polygon fill="#181818" points="694.5,477.4434,684.5,481.4434,694.5,485.4434,690.5,481.4434" style="stroke:#181818;stroke-width:1.0;"/><text fill="#000000" font-family="sans-serif" font-size="13" font-weight="bold" lengthAdjust="spacing" textLength="14" x="690.5" y="463.1807">12</text><text fill="#000000" font-family="sans-serif" font-size="13" lengthAdjust="spacing" textLength="133" x="708.5" y="463.1807">getGSMFromSession()</text><rect fill="none" height="43.252" style="stroke:#000000;stroke-width:1.5;" width="187" x="580" y="494.4434"/><path d="M580,494.4434 L642,494.4434 L642,503.4434 L632,513.4434 L580,513.4434 L580,494.4434 " fill="#EEEEEE" style="stroke:#000000;stroke-width:2.0;"/><text fill="#000000" font-family="sans-serif" font-size="13" font-weight="bold" lengthAdjust="spacing" textLength="17" x="593" y="510.4717">ref</text><text fill="#000000" font-family="sans-serif" font-size="12" lengthAdjust="spacing" textLength="48" x="649.5" y="530.3926">Get GSM</text><line style="stroke:#181818;stroke-width:1.0;stroke-dasharray:2.0,2.0;" x1="683.5" x2="725.5" y1="570.9863" y2="570.9863"/><line style="stroke:#181818;stroke-width:1.0;stroke-dasharray:2.0,2.0;" x1="725.5" x2="725.5" y1="570.9863" y2="583.9863"/><line style="stroke:#181818;stroke-width:1.0;stroke-dasharray:2.0,2.0;" x1="678.5" x2="725.5" y1="583.9863" y2="583.9863"/><polygon fill="#181818" points="688.5,579.9863,678.5,583.9863,688.5,587.9863,684.5,583.9863" style="stroke:#181818;stroke-width:1.0;"/><text fill="#000000" font-family="sans-serif" font-size="13" font-weight="bold" lengthAdjust="spacing" textLength="14" x="690.5" y="565.7236">13</text><text fill="#000000" font-family="sans-serif" font-size="13" lengthAdjust="spacing" textLength="25" x="708.5" y="565.7236">gsm</text><polygon fill="#181818" points="436.5,606.2773,426.5,610.2773,436.5,614.2773,432.5,610.2773" style="stroke:#181818;stroke-width:1.0;"/><line style="stroke:#181818;stroke-width:1.0;stroke-dasharray:2.0,2.0;" x1="430.5" x2="672.5" y1="610.2773" y2="610.2773"/><text fill="#000000" font-family="sans-serif" font-size="13" font-weight="bold" lengthAdjust="spacing" textLength="14" x="442.5" y="605.0146">14</text><text fill="#000000" font-family="sans-serif" font-size="13" lengthAdjust="spacing" textLength="25" x="460.5" y="605.0146">gsm</text><polygon fill="#181818" points="656.5,637.5684,666.5,641.5684,656.5,645.5684,660.5,641.5684" style="stroke:#181818;stroke-width:1.0;"/><line style="stroke:#181818;stroke-width:1.0;" x1="425.5" x2="662.5" y1="641.5684" y2="641.5684"/><text fill="#000000" font-family="sans-serif" font-size="13" font-weight="bold" lengthAdjust="spacing" textLength="14" x="432.5" y="636.3057">15</text><text fill="#000000" font-family="sans-serif" font-size="13" lengthAdjust="spacing" textLength="206" x="450.5" y="636.3057">produceManagedGSList(GSM gsm)</text><polygon fill="#181818" points="1080,668.8594,1090,672.8594,1080,676.8594,1084,672.8594" style="stroke:#181818;stroke-width:1.0;"/><line style="stroke:#181818;stroke-width:1.0;" x1="678.5" x2="1086" y1="672.8594" y2="672.8594"/><text fill="#000000" font-family="sans-serif" font-size="13" font-weight="bold" lengthAdjust="spacing" textLength="14" x="685.5" y="667.5967">16</text><text fill="#000000" font-family="sans-serif" font-size="13" lengthAdjust="spacing" textLength="217" x="703.5" y="667.5967">getManagedGreenSpaces(GSM gsm)</text><line style="stroke:#181818;stroke-width:1.0;" x1="1102" x2="1149" y1="699.1504" y2="699.1504"/><line style="stroke:#181818;stroke-width:1.0;" x1="1149" x2="1149" y1="699.1504" y2="712.1504"/><line style="stroke:#181818;stroke-width:1.0;" x1="1108" x2="1149" y1="712.1504" y2="712.1504"/><polygon fill="#181818" points="1118,708.1504,1108,712.1504,1118,716.1504,1114,712.1504" style="stroke:#181818;stroke-width:1.0;"/><text fill="#000000" font-family="sans-serif" font-size="13" font-weight="bold" lengthAdjust="spacing" textLength="14" x="1114" y="693.8877">17</text><text fill="#000000" font-family="sans-serif" font-size="13" lengthAdjust="spacing" textLength="217" x="1132" y="693.8877">getManagedGreenSpaces(GSM gsm)</text><line style="stroke:#181818;stroke-width:1.0;stroke-dasharray:2.0,2.0;" x1="1107" x2="1149" y1="753.4414" y2="753.4414"/><line style="stroke:#181818;stroke-width:1.0;stroke-dasharray:2.0,2.0;" x1="1149" x2="1149" y1="753.4414" y2="766.4414"/><line style="stroke:#181818;stroke-width:1.0;stroke-dasharray:2.0,2.0;" x1="1102" x2="1149" y1="766.4414" y2="766.4414"/><polygon fill="#181818" points="1112,762.4414,1102,766.4414,1112,770.4414,1108,766.4414" style="stroke:#181818;stroke-width:1.0;"/><text fill="#000000" font-family="sans-serif" font-size="13" font-weight="bold" lengthAdjust="spacing" textLength="14" x="1114" y="748.1787">18</text><text fill="#000000" font-family="sans-serif" font-size="13" lengthAdjust="spacing" textLength="132" x="1132" y="748.1787">managedGreenSpaces</text><line style="stroke:#181818;stroke-width:1.0;" x1="1102" x2="1149" y1="787.7324" y2="787.7324"/><line style="stroke:#181818;stroke-width:1.0;" x1="1149" x2="1149" y1="787.7324" y2="800.7324"/><line style="stroke:#181818;stroke-width:1.0;" x1="1108" x2="1149" y1="800.7324" y2="800.7324"/><polygon fill="#181818" points="1118,796.7324,1108,800.7324,1118,804.7324,1114,800.7324" style="stroke:#181818;stroke-width:1.0;"/><text fill="#000000" font-family="sans-serif" font-size="13" font-weight="bold" lengthAdjust="spacing" textLength="14" x="1114" y="782.4697">19</text><text fill="#000000" font-family="sans-serif" font-size="13" lengthAdjust="spacing" textLength="407" x="1132" y="782.4697">sortManagedGreenSpaces(List&lt;GreenSpace&gt; managedGreenSpaces)</text><line style="stroke:#181818;stroke-width:1.0;stroke-dasharray:2.0,2.0;" x1="1107" x2="1149" y1="842.0234" y2="842.0234"/><line style="stroke:#181818;stroke-width:1.0;stroke-dasharray:2.0,2.0;" x1="1149" x2="1149" y1="842.0234" y2="855.0234"/><line style="stroke:#181818;stroke-width:1.0;stroke-dasharray:2.0,2.0;" x1="1102" x2="1149" y1="855.0234" y2="855.0234"/><polygon fill="#181818" points="1112,851.0234,1102,855.0234,1112,859.0234,1108,855.0234" style="stroke:#181818;stroke-width:1.0;"/><text fill="#000000" font-family="sans-serif" font-size="13" font-weight="bold" lengthAdjust="spacing" textLength="14" x="1114" y="836.7607">20</text><text fill="#000000" font-family="sans-serif" font-size="13" lengthAdjust="spacing" textLength="132" x="1132" y="836.7607">managedGreenSpaces</text><polygon fill="#181818" points="689.5,877.3145,679.5,881.3145,689.5,885.3145,685.5,881.3145" style="stroke:#181818;stroke-width:1.0;"/><line style="stroke:#181818;stroke-width:1.0;stroke-dasharray:2.0,2.0;" x1="683.5" x2="1096" y1="881.3145" y2="881.3145"/><text fill="#000000" font-family="sans-serif" font-size="13" font-weight="bold" lengthAdjust="spacing" textLength="14" x="695.5" y="876.0518">21</text><text fill="#000000" font-family="sans-serif" font-size="13" lengthAdjust="spacing" textLength="132" x="713.5" y="876.0518">managedGreenSpaces</text><polygon fill="#181818" points="436.5,908.6055,426.5,912.6055,436.5,916.6055,432.5,912.6055" style="stroke:#181818;stroke-width:1.0;"/><line style="stroke:#181818;stroke-width:1.0;stroke-dasharray:2.0,2.0;" x1="430.5" x2="672.5" y1="912.6055" y2="912.6055"/><text fill="#000000" font-family="sans-serif" font-size="13" font-weight="bold" lengthAdjust="spacing" textLength="14" x="442.5" y="907.3428">22</text><text fill="#000000" font-family="sans-serif" font-size="13" lengthAdjust="spacing" textLength="132" x="460.5" y="907.3428">managedGreenSpaces</text><polygon fill="#181818" points="94.5,939.8965,84.5,943.8965,94.5,947.8965,90.5,943.8965" style="stroke:#181818;stroke-width:1.0;"/><line style="stroke:#181818;stroke-width:1.0;stroke-dasharray:2.0,2.0;" x1="88.5" x2="419.5" y1="943.8965" y2="943.8965"/><text fill="#000000" font-family="sans-serif" font-size="13" font-weight="bold" lengthAdjust="spacing" textLength="14" x="100.5" y="938.6338">23</text><text fill="#000000" font-family="sans-serif" font-size="13" lengthAdjust="spacing" textLength="285" x="118.5" y="938.6338">shows list of green spaces managed by the GSM</text><!--SRC=[lLR1Zjem4BtxAqPSM5RY1r25jDgg20caYkpUUZ790169JMspM_w-OuSa3acJqD3wXZD-C-_Dys1zZCM9Avv2AeKC3qgc24QTaUdYouc7Hxx7m5mI18MXuMAV-07wm2Fv6Oizx7YYaJ5-DbASqoqgniQ7E4BOIMcsyXVZeP4AHWk5A20WPDImveBWrGYuXfUlQqQW9WxZ4nS6HhDLh4qM4Is2zwMBUb-s1RrAOPHCaYlawzjcTHE-mPFKCLKIetOnnSObY2qvAhzwH7adVeWwmFVLorlrnDvIT0nBS3gvQDXs28jWmwmyyGStw7HWS5tq0wPpOWqpYZngC18IOWmyIS3b0Pr9cMOQmFO2ve1f2L40atHi3DuYr2c1snmpwkxFCsgZ8UA6mvFWAKwO7pqE5LeO9-ejpDnjFpyJK1R6AY553UvmvPE_x5UBrT0J0jwZMGfD5WpnQV97ZDjLf6vgT6yKkvggcbwPM_rAN_I6ZN10URbQre2PF4qEwojLKOZpS_SPbpMdJ-cRShDx171vEmzafFChyNT9UmXIUlfMMJjlxh1VQ-VeulyB-49IErWUeKRBiXGy5vIZJm_3zOpn7rXKNUMJOCE0QottB1Milz5_Re1Qnr8CxVcze_Q-fN07yWDLVVWFS0uQQktwGMWeeaUHhHWYxvTE7uJk6VlQeHlpsKore99RPJATb8pE8HRl7pSzI5IBCc4zBE5D8cVA7Acy0NMuseXXZKFXVj2Um3boMeDb7LEajL0jLLEbLj8lvSQy8MttrMslOYZBBjQiOsWtf61zLVJCsrdhhQkRtwBKYOFyrDapL-xQNhd5_F2GxIlN-sbVqxy1]--></g></svg>