<?xml version="1.0" encoding="us-ascii" standalone="no"?><svg xmlns="http://www.w3.org/2000/svg" xmlns:xlink="http://www.w3.org/1999/xlink" contentStyleType="text/css" height="1444px" preserveAspectRatio="none" style="width:2726px;height:1444px;background:#FFFFFF;" version="1.1" viewBox="0 0 2726 1444" width="2726px" zoomAndPan="magnify"><defs/><g><rect fill="#FFFFFF" height="1249.7578" style="stroke:#181818;stroke-width:1.0;" width="10" x="123.5" y="93.6211"/><rect fill="#FFFFFF" height="92.2031" style="stroke:#181818;stroke-width:1.0;" width="10" x="571.5" y="116.9121"/><rect fill="#FFFFFF" height="31.291" style="stroke:#181818;stroke-width:1.0;" width="10" x="571.5" y="240.4063"/><rect fill="#FFFFFF" height="1040.3906" style="stroke:#181818;stroke-width:1.0;" width="10" x="571.5" y="302.9883"/><rect fill="#FFFFFF" height="960.5176" style="stroke:#181818;stroke-width:1.0;" width="10" x="1017.5" y="351.5703"/><rect fill="#FFFFFF" height="513.6563" style="stroke:#181818;stroke-width:1.0;" width="10" x="1022.5" y="415.8613"/><rect fill="#FFFFFF" height="31.291" style="stroke:#181818;stroke-width:1.0;" width="10" x="1290.5" y="639.8984"/><rect fill="#FFFFFF" height="31.291" style="stroke:#181818;stroke-width:1.0;" width="10" x="1559.5" y="452.1523"/><rect fill="#FFFFFF" height="31.291" style="stroke:#181818;stroke-width:1.0;" width="10" x="1706.5" y="514.7344"/><rect fill="#FFFFFF" height="31.291" style="stroke:#181818;stroke-width:1.0;" width="10" x="1839.5" y="577.3164"/><rect fill="#FFFFFF" height="127.1641" style="stroke:#181818;stroke-width:1.0;" width="10" x="1985.5" y="702.4805"/><rect fill="#FFFFFF" height="31.291" style="stroke:#181818;stroke-width:1.0;" width="10" x="2176.5" y="760.0625"/><rect fill="#FFFFFF" height="31.291" style="stroke:#181818;stroke-width:1.0;" width="10" x="2176.5" y="860.9355"/><rect fill="#FFFFFF" height="270.6973" style="stroke:#181818;stroke-width:1.0;" width="10" x="2176.5" y="1010.0996"/><rect fill="#FFFFFF" height="130.873" style="stroke:#181818;stroke-width:1.0;" width="10" x="2181.5" y="1111.6328"/><rect fill="#FFFFFF" height="42.291" style="stroke:#181818;stroke-width:1.0;" width="10" x="2186.5" y="1155.9238"/><rect fill="none" height="81.873" style="stroke:#000000;stroke-width:1.5;" width="341.5" x="1899" y="717.4805"/><line style="stroke:#181818;stroke-width:0.5;stroke-dasharray:5.0,5.0;" x1="128" x2="128" y1="83.6211" y2="1361.3789"/><line style="stroke:#181818;stroke-width:0.5;stroke-dasharray:5.0,5.0;" x1="576" x2="576" y1="83.6211" y2="1361.3789"/><line style="stroke:#181818;stroke-width:0.5;stroke-dasharray:5.0,5.0;" x1="1022" x2="1022" y1="156.7227" y2="1361.3789"/><line style="stroke:#181818;stroke-width:0.5;stroke-dasharray:5.0,5.0;" x1="1188" x2="1188" y1="83.6211" y2="1361.3789"/><line style="stroke:#181818;stroke-width:0.5;stroke-dasharray:5.0,5.0;" x1="1295" x2="1295" y1="83.6211" y2="1361.3789"/><line style="stroke:#181818;stroke-width:0.5;stroke-dasharray:5.0,5.0;" x1="1420" x2="1420" y1="83.6211" y2="1361.3789"/><line style="stroke:#181818;stroke-width:0.5;stroke-dasharray:5.0,5.0;" x1="1564" x2="1564" y1="83.6211" y2="1361.3789"/><line style="stroke:#181818;stroke-width:0.5;stroke-dasharray:5.0,5.0;" x1="1711" x2="1711" y1="83.6211" y2="1361.3789"/><line style="stroke:#181818;stroke-width:0.5;stroke-dasharray:5.0,5.0;" x1="1844" x2="1844" y1="83.6211" y2="1361.3789"/><line style="stroke:#181818;stroke-width:0.5;stroke-dasharray:5.0,5.0;" x1="1990" x2="1990" y1="83.6211" y2="1361.3789"/><line style="stroke:#181818;stroke-width:0.5;stroke-dasharray:5.0,5.0;" x1="2181.5" x2="2181.5" y1="83.6211" y2="1361.3789"/><line style="stroke:#181818;stroke-width:0.5;stroke-dasharray:5.0,5.0;" x1="2688.5" x2="2688.5" y1="1059.2207" y2="1361.3789"/><text fill="#000000" font-family="sans-serif" font-size="14" lengthAdjust="spacing" textLength="241" x="5" y="80.1074">Vehicle and Equipment Fleet Maneger</text><ellipse cx="128.5" cy="13.5" fill="#E3E3E3" rx="8" ry="8" style="stroke:#181818;stroke-width:0.5;"/><path d="M128.5,21.5 L128.5,48.5 M115.5,29.5 L141.5,29.5 M128.5,48.5 L115.5,63.5 M128.5,48.5 L141.5,63.5 " fill="none" style="stroke:#181818;stroke-width:0.5;"/><text fill="#000000" font-family="sans-serif" font-size="14" lengthAdjust="spacing" textLength="241" x="5" y="1375.4863">Vehicle and Equipment Fleet Maneger</text><ellipse cx="128.5" cy="1387.5" fill="#E3E3E3" rx="8" ry="8" style="stroke:#181818;stroke-width:0.5;"/><path d="M128.5,1395.5 L128.5,1422.5 M115.5,1403.5 L141.5,1403.5 M128.5,1422.5 L115.5,1437.5 M128.5,1422.5 L141.5,1437.5 " fill="none" style="stroke:#181818;stroke-width:0.5;"/><rect fill="#E3E3E3" height="32.6211" rx="2.5" ry="2.5" style="stroke:#181818;stroke-width:0.5;" width="159" x="497" y="50"/><text fill="#000000" font-family="sans-serif" font-size="14" lengthAdjust="spacing" textLength="145" x="504" y="72.1074">:VehicleResgistrationUI</text><rect fill="#E3E3E3" height="32.6211" rx="2.5" ry="2.5" style="stroke:#181818;stroke-width:0.5;" width="159" x="497" y="1360.3789"/><text fill="#000000" font-family="sans-serif" font-size="14" lengthAdjust="spacing" textLength="145" x="504" y="1382.4863">:VehicleResgistrationUI</text><rect fill="#E3E3E3" height="32.6211" rx="2.5" ry="2.5" style="stroke:#181818;stroke-width:0.5;" width="179" x="933" y="1360.3789"/><text fill="#000000" font-family="sans-serif" font-size="14" lengthAdjust="spacing" textLength="165" x="940" y="1382.4863">:RegisterVehicleController</text><rect fill="#E3E3E3" height="32.6211" rx="2.5" ry="2.5" style="stroke:#181818;stroke-width:0.5;" width="97" x="1140" y="50"/><text fill="#000000" font-family="sans-serif" font-size="14" lengthAdjust="spacing" textLength="83" x="1147" y="72.1074">:Repositories</text><rect fill="#E3E3E3" height="32.6211" rx="2.5" ry="2.5" style="stroke:#181818;stroke-width:0.5;" width="97" x="1140" y="1360.3789"/><text fill="#000000" font-family="sans-serif" font-size="14" lengthAdjust="spacing" textLength="83" x="1147" y="1382.4863">:Repositories</text><rect fill="#E3E3E3" height="51.2422" rx="2.5" ry="2.5" style="stroke:#181818;stroke-width:0.5;" width="97" x="1247" y="31.3789"/><text fill="#000000" font-family="sans-serif" font-size="14" lengthAdjust="spacing" textLength="74" x="1258.5" y="53.4863">repositories</text><text fill="#000000" font-family="sans-serif" font-size="14" lengthAdjust="spacing" textLength="83" x="1254" y="72.1074">:Repositories</text><rect fill="#E3E3E3" height="51.2422" rx="2.5" ry="2.5" style="stroke:#181818;stroke-width:0.5;" width="97" x="1247" y="1360.3789"/><text fill="#000000" font-family="sans-serif" font-size="14" lengthAdjust="spacing" textLength="74" x="1258.5" y="1382.4863">repositories</text><text fill="#000000" font-family="sans-serif" font-size="14" lengthAdjust="spacing" textLength="83" x="1254" y="1401.1074">:Repositories</text><rect fill="#E3E3E3" height="51.2422" rx="2.5" ry="2.5" style="stroke:#181818;stroke-width:0.5;" width="132" x="1354" y="31.3789"/><text fill="#000000" font-family="sans-serif" font-size="14" lengthAdjust="spacing" textLength="112" x="1364" y="53.4863">vehicleRepository</text><text fill="#000000" font-family="sans-serif" font-size="14" lengthAdjust="spacing" textLength="118" x="1361" y="72.1074">:VehicleRepository</text><rect fill="#E3E3E3" height="51.2422" rx="2.5" ry="2.5" style="stroke:#181818;stroke-width:0.5;" width="132" x="1354" y="1360.3789"/><text fill="#000000" font-family="sans-serif" font-size="14" lengthAdjust="spacing" textLength="112" x="1364" y="1382.4863">vehicleRepository</text><text fill="#000000" font-family="sans-serif" font-size="14" lengthAdjust="spacing" textLength="118" x="1361" y="1401.1074">:VehicleRepository</text><rect fill="#E3E3E3" height="32.6211" rx="2.5" ry="2.5" style="stroke:#181818;stroke-width:0.5;" width="137" x="1496" y="50"/><text fill="#000000" font-family="sans-serif" font-size="14" lengthAdjust="spacing" textLength="123" x="1503" y="72.1074">:ApplicationSession</text><rect fill="#E3E3E3" height="32.6211" rx="2.5" ry="2.5" style="stroke:#181818;stroke-width:0.5;" width="137" x="1496" y="1360.3789"/><text fill="#000000" font-family="sans-serif" font-size="14" lengthAdjust="spacing" textLength="123" x="1503" y="1382.4863">:ApplicationSession</text><rect fill="#E3E3E3" height="51.2422" rx="2.5" ry="2.5" style="stroke:#181818;stroke-width:0.5;" width="137" x="1643" y="31.3789"/><text fill="#000000" font-family="sans-serif" font-size="14" lengthAdjust="spacing" textLength="74" x="1674.5" y="53.4863">appSession</text><text fill="#000000" font-family="sans-serif" font-size="14" lengthAdjust="spacing" textLength="123" x="1650" y="72.1074">:ApplicationSession</text><rect fill="#E3E3E3" height="51.2422" rx="2.5" ry="2.5" style="stroke:#181818;stroke-width:0.5;" width="137" x="1643" y="1360.3789"/><text fill="#000000" font-family="sans-serif" font-size="14" lengthAdjust="spacing" textLength="74" x="1674.5" y="1382.4863">appSession</text><text fill="#000000" font-family="sans-serif" font-size="14" lengthAdjust="spacing" textLength="123" x="1650" y="1401.1074">:ApplicationSession</text><rect fill="#E3E3E3" height="51.2422" rx="2.5" ry="2.5" style="stroke:#181818;stroke-width:0.5;" width="109" x="1790" y="31.3789"/><text fill="#000000" font-family="sans-serif" font-size="14" lengthAdjust="spacing" textLength="95" x="1797" y="53.4863">currentSession</text><text fill="#000000" font-family="sans-serif" font-size="14" lengthAdjust="spacing" textLength="83" x="1803" y="72.1074">:UserSession</text><rect fill="#E3E3E3" height="51.2422" rx="2.5" ry="2.5" style="stroke:#181818;stroke-width:0.5;" width="109" x="1790" y="1360.3789"/><text fill="#000000" font-family="sans-serif" font-size="14" lengthAdjust="spacing" textLength="95" x="1797" y="1382.4863">currentSession</text><text fill="#000000" font-family="sans-serif" font-size="14" lengthAdjust="spacing" textLength="83" x="1803" y="1401.1074">:UserSession</text><rect fill="#E3E3E3" height="51.2422" rx="2.5" ry="2.5" style="stroke:#181818;stroke-width:0.5;" width="163" x="1909" y="31.3789"/><text fill="#000000" font-family="sans-serif" font-size="14" lengthAdjust="spacing" textLength="149" x="1916" y="53.4863">organizationRepository:</text><text fill="#000000" font-family="sans-serif" font-size="14" lengthAdjust="spacing" textLength="148" x="1916.5" y="72.1074">OrganizationRepository</text><rect fill="#E3E3E3" height="51.2422" rx="2.5" ry="2.5" style="stroke:#181818;stroke-width:0.5;" width="163" x="1909" y="1360.3789"/><text fill="#000000" font-family="sans-serif" font-size="14" lengthAdjust="spacing" textLength="149" x="1916" y="1382.4863">organizationRepository:</text><text fill="#000000" font-family="sans-serif" font-size="14" lengthAdjust="spacing" textLength="148" x="1916.5" y="1401.1074">OrganizationRepository</text><rect fill="#E3E3E3" height="51.2422" rx="2.5" ry="2.5" style="stroke:#181818;stroke-width:0.5;" width="98" x="2132.5" y="31.3789"/><text fill="#000000" font-family="sans-serif" font-size="14" lengthAdjust="spacing" textLength="77" x="2143" y="53.4863">organization</text><text fill="#000000" font-family="sans-serif" font-size="14" lengthAdjust="spacing" textLength="84" x="2139.5" y="72.1074">:Organization</text><rect fill="#E3E3E3" height="51.2422" rx="2.5" ry="2.5" style="stroke:#181818;stroke-width:0.5;" width="98" x="2132.5" y="1360.3789"/><text fill="#000000" font-family="sans-serif" font-size="14" lengthAdjust="spacing" textLength="77" x="2143" y="1382.4863">organization</text><text fill="#000000" font-family="sans-serif" font-size="14" lengthAdjust="spacing" textLength="84" x="2139.5" y="1401.1074">:Organization</text><rect fill="#E3E3E3" height="51.2422" rx="2.5" ry="2.5" style="stroke:#181818;stroke-width:0.5;" width="64" x="2656.5" y="1360.3789"/><text fill="#000000" font-family="sans-serif" font-size="14" lengthAdjust="spacing" textLength="44" x="2666.5" y="1382.4863">vehicle</text><text fill="#000000" font-family="sans-serif" font-size="14" lengthAdjust="spacing" textLength="50" x="2663.5" y="1401.1074">:Vehicle</text><rect fill="#FFFFFF" height="1249.7578" style="stroke:#181818;stroke-width:1.0;" width="10" x="123.5" y="93.6211"/><rect fill="#FFFFFF" height="92.2031" style="stroke:#181818;stroke-width:1.0;" width="10" x="571.5" y="116.9121"/><rect fill="#FFFFFF" height="31.291" style="stroke:#181818;stroke-width:1.0;" width="10" x="571.5" y="240.4063"/><rect fill="#FFFFFF" height="1040.3906" style="stroke:#181818;stroke-width:1.0;" width="10" x="571.5" y="302.9883"/><rect fill="#FFFFFF" height="960.5176" style="stroke:#181818;stroke-width:1.0;" width="10" x="1017.5" y="351.5703"/><rect fill="#FFFFFF" height="513.6563" style="stroke:#181818;stroke-width:1.0;" width="10" x="1022.5" y="415.8613"/><rect fill="#FFFFFF" height="31.291" style="stroke:#181818;stroke-width:1.0;" width="10" x="1290.5" y="639.8984"/><rect fill="#FFFFFF" height="31.291" style="stroke:#181818;stroke-width:1.0;" width="10" x="1559.5" y="452.1523"/><rect fill="#FFFFFF" height="31.291" style="stroke:#181818;stroke-width:1.0;" width="10" x="1706.5" y="514.7344"/><rect fill="#FFFFFF" height="31.291" style="stroke:#181818;stroke-width:1.0;" width="10" x="1839.5" y="577.3164"/><rect fill="#FFFFFF" height="127.1641" style="stroke:#181818;stroke-width:1.0;" width="10" x="1985.5" y="702.4805"/><rect fill="#FFFFFF" height="31.291" style="stroke:#181818;stroke-width:1.0;" width="10" x="2176.5" y="760.0625"/><rect fill="#FFFFFF" height="31.291" style="stroke:#181818;stroke-width:1.0;" width="10" x="2176.5" y="860.9355"/><rect fill="#FFFFFF" height="270.6973" style="stroke:#181818;stroke-width:1.0;" width="10" x="2176.5" y="1010.0996"/><rect fill="#FFFFFF" height="130.873" style="stroke:#181818;stroke-width:1.0;" width="10" x="2181.5" y="1111.6328"/><rect fill="#FFFFFF" height="42.291" style="stroke:#181818;stroke-width:1.0;" width="10" x="2186.5" y="1155.9238"/><polygon fill="#181818" points="559.5,112.9121,569.5,116.9121,559.5,120.9121,563.5,116.9121" style="stroke:#181818;stroke-width:1.0;"/><line style="stroke:#181818;stroke-width:1.0;" x1="133.5" x2="565.5" y1="116.9121" y2="116.9121"/><text fill="#000000" font-family="sans-serif" font-size="13" font-weight="bold" lengthAdjust="spacing" textLength="7" x="140.5" y="111.6494">1</text><text fill="#000000" font-family="sans-serif" font-size="13" lengthAdjust="spacing" textLength="144" x="151.5" y="111.6494">asks to register a vehicle</text><polygon fill="#181818" points="921,144.2031,931,148.2031,921,152.2031,925,148.2031" style="stroke:#181818;stroke-width:1.0;"/><line style="stroke:#181818;stroke-width:1.0;" x1="581.5" x2="927" y1="148.2031" y2="148.2031"/><text fill="#000000" font-family="sans-serif" font-size="13" font-weight="bold" lengthAdjust="spacing" textLength="7" x="588.5" y="142.9404">2</text><text fill="#000000" font-family="sans-serif" font-size="13" lengthAdjust="spacing" textLength="36" x="599.5" y="142.9404">create</text><rect fill="#E3E3E3" height="32.6211" rx="2.5" ry="2.5" style="stroke:#181818;stroke-width:0.5;" width="179" x="933" y="124.9121"/><text fill="#000000" font-family="sans-serif" font-size="14" lengthAdjust="spacing" textLength="165" x="940" y="147.0195">:RegisterVehicleController</text><polygon fill="#181818" points="144.5,205.1152,134.5,209.1152,144.5,213.1152,140.5,209.1152" style="stroke:#181818;stroke-width:1.0;"/><line style="stroke:#181818;stroke-width:1.0;stroke-dasharray:2.0,2.0;" x1="138.5" x2="575.5" y1="209.1152" y2="209.1152"/><text fill="#000000" font-family="sans-serif" font-size="13" font-weight="bold" lengthAdjust="spacing" textLength="7" x="150.5" y="195.207">3</text><text fill="#000000" font-family="sans-serif" font-size="13" lengthAdjust="spacing" textLength="399" x="161.5" y="186.5615">requests data (Brand, Model, Type, Tare, Gross Weight, Current Km,</text><text fill="#000000" font-family="sans-serif" font-size="13" lengthAdjust="spacing" textLength="392" x="161.5" y="203.8525">Register Date, Acquisition Date, Maintenance/Check-up Frequency)</text><polygon fill="#181818" points="559.5,236.4063,569.5,240.4063,559.5,244.4063,563.5,240.4063" style="stroke:#181818;stroke-width:1.0;"/><line style="stroke:#181818;stroke-width:1.0;" x1="133.5" x2="565.5" y1="240.4063" y2="240.4063"/><text fill="#000000" font-family="sans-serif" font-size="13" font-weight="bold" lengthAdjust="spacing" textLength="7" x="140.5" y="235.1436">4</text><text fill="#000000" font-family="sans-serif" font-size="13" lengthAdjust="spacing" textLength="122" x="151.5" y="235.1436">types requested data</text><polygon fill="#181818" points="144.5,267.6973,134.5,271.6973,144.5,275.6973,140.5,271.6973" style="stroke:#181818;stroke-width:1.0;"/><line style="stroke:#181818;stroke-width:1.0;stroke-dasharray:2.0,2.0;" x1="138.5" x2="575.5" y1="271.6973" y2="271.6973"/><text fill="#000000" font-family="sans-serif" font-size="13" font-weight="bold" lengthAdjust="spacing" textLength="7" x="150.5" y="266.4346">5</text><text fill="#000000" font-family="sans-serif" font-size="13" lengthAdjust="spacing" textLength="236" x="161.5" y="266.4346">shows all data and requests confirmation</text><polygon fill="#181818" points="559.5,298.9883,569.5,302.9883,559.5,306.9883,563.5,302.9883" style="stroke:#181818;stroke-width:1.0;"/><line style="stroke:#181818;stroke-width:1.0;" x1="133.5" x2="565.5" y1="302.9883" y2="302.9883"/><text fill="#000000" font-family="sans-serif" font-size="13" font-weight="bold" lengthAdjust="spacing" textLength="7" x="140.5" y="297.7256">6</text><text fill="#000000" font-family="sans-serif" font-size="13" lengthAdjust="spacing" textLength="99" x="151.5" y="297.7256">confirmation data</text><polygon fill="#181818" points="1005.5,347.5703,1015.5,351.5703,1005.5,355.5703,1009.5,351.5703" style="stroke:#181818;stroke-width:1.0;"/><line style="stroke:#181818;stroke-width:1.0;" x1="581.5" x2="1011.5" y1="351.5703" y2="351.5703"/><text fill="#000000" font-family="sans-serif" font-size="13" font-weight="bold" lengthAdjust="spacing" textLength="7" x="588.5" y="337.6621">7</text><text fill="#000000" font-family="sans-serif" font-size="13" lengthAdjust="spacing" textLength="402" x="599.5" y="329.0166">registerVehicle(Brand, Model, Type, Tare, Gross Weight, Current Km,</text><text fill="#000000" font-family="sans-serif" font-size="13" lengthAdjust="spacing" textLength="392" x="599.5" y="346.3076">Register Date, Acquisition Date, Maintenance/Check-up Frequency)</text><line style="stroke:#181818;stroke-width:1.0;" x1="1027.5" x2="1074.5" y1="402.8613" y2="402.8613"/><line style="stroke:#181818;stroke-width:1.0;" x1="1074.5" x2="1074.5" y1="402.8613" y2="415.8613"/><line style="stroke:#181818;stroke-width:1.0;" x1="1033.5" x2="1074.5" y1="415.8613" y2="415.8613"/><polygon fill="#181818" points="1043.5,411.8613,1033.5,415.8613,1043.5,419.8613,1039.5,415.8613" style="stroke:#181818;stroke-width:1.0;"/><text fill="#000000" font-family="sans-serif" font-size="13" font-weight="bold" lengthAdjust="spacing" textLength="7" x="1039.5" y="397.5986">8</text><text fill="#000000" font-family="sans-serif" font-size="13" lengthAdjust="spacing" textLength="131" x="1050.5" y="397.5986">getVFMFromSession()</text><polygon fill="#181818" points="1547.5,448.1523,1557.5,452.1523,1547.5,456.1523,1551.5,452.1523" style="stroke:#181818;stroke-width:1.0;"/><line style="stroke:#181818;stroke-width:1.0;" x1="1032.5" x2="1553.5" y1="452.1523" y2="452.1523"/><text fill="#000000" font-family="sans-serif" font-size="13" font-weight="bold" lengthAdjust="spacing" textLength="7" x="1039.5" y="446.8896">9</text><text fill="#000000" font-family="sans-serif" font-size="13" lengthAdjust="spacing" textLength="75" x="1050.5" y="446.8896">getInstance()</text><polygon fill="#181818" points="1043.5,479.4434,1033.5,483.4434,1043.5,487.4434,1039.5,483.4434" style="stroke:#181818;stroke-width:1.0;"/><line style="stroke:#181818;stroke-width:1.0;" x1="1037.5" x2="1563.5" y1="483.4434" y2="483.4434"/><text fill="#000000" font-family="sans-serif" font-size="13" font-weight="bold" lengthAdjust="spacing" textLength="14" x="1049.5" y="478.1807">10</text><text fill="#000000" font-family="sans-serif" font-size="13" lengthAdjust="spacing" textLength="68" x="1067.5" y="478.1807">appSession</text><polygon fill="#181818" points="1694.5,510.7344,1704.5,514.7344,1694.5,518.7344,1698.5,514.7344" style="stroke:#181818;stroke-width:1.0;"/><line style="stroke:#181818;stroke-width:1.0;" x1="1032.5" x2="1700.5" y1="514.7344" y2="514.7344"/><text fill="#000000" font-family="sans-serif" font-size="13" font-weight="bold" lengthAdjust="spacing" textLength="14" x="1039.5" y="509.4717">11</text><text fill="#000000" font-family="sans-serif" font-size="13" lengthAdjust="spacing" textLength="115" x="1057.5" y="509.4717">getCurrentSession()</text><polygon fill="#181818" points="1043.5,542.0254,1033.5,546.0254,1043.5,550.0254,1039.5,546.0254" style="stroke:#181818;stroke-width:1.0;"/><line style="stroke:#181818;stroke-width:1.0;stroke-dasharray:2.0,2.0;" x1="1037.5" x2="1710.5" y1="546.0254" y2="546.0254"/><text fill="#000000" font-family="sans-serif" font-size="13" font-weight="bold" lengthAdjust="spacing" textLength="14" x="1049.5" y="540.7627">12</text><text fill="#000000" font-family="sans-serif" font-size="13" lengthAdjust="spacing" textLength="87" x="1067.5" y="540.7627">currentSession</text><polygon fill="#181818" points="1827.5,573.3164,1837.5,577.3164,1827.5,581.3164,1831.5,577.3164" style="stroke:#181818;stroke-width:1.0;"/><line style="stroke:#181818;stroke-width:1.0;" x1="1032.5" x2="1833.5" y1="577.3164" y2="577.3164"/><text fill="#000000" font-family="sans-serif" font-size="13" font-weight="bold" lengthAdjust="spacing" textLength="14" x="1039.5" y="572.0537">13</text><text fill="#000000" font-family="sans-serif" font-size="13" lengthAdjust="spacing" textLength="133" x="1057.5" y="572.0537">email = getUserEmail()</text><polygon fill="#181818" points="1043.5,604.6074,1033.5,608.6074,1043.5,612.6074,1039.5,608.6074" style="stroke:#181818;stroke-width:1.0;"/><line style="stroke:#181818;stroke-width:1.0;stroke-dasharray:2.0,2.0;" x1="1037.5" x2="1843.5" y1="608.6074" y2="608.6074"/><text fill="#000000" font-family="sans-serif" font-size="13" font-weight="bold" lengthAdjust="spacing" textLength="14" x="1049.5" y="603.3447">14</text><text fill="#000000" font-family="sans-serif" font-size="13" lengthAdjust="spacing" textLength="31" x="1067.5" y="603.3447">email</text><polygon fill="#181818" points="1278.5,635.8984,1288.5,639.8984,1278.5,643.8984,1282.5,639.8984" style="stroke:#181818;stroke-width:1.0;"/><line style="stroke:#181818;stroke-width:1.0;" x1="1032.5" x2="1284.5" y1="639.8984" y2="639.8984"/><text fill="#000000" font-family="sans-serif" font-size="13" font-weight="bold" lengthAdjust="spacing" textLength="14" x="1039.5" y="634.6357">15</text><text fill="#000000" font-family="sans-serif" font-size="13" lengthAdjust="spacing" textLength="192" x="1057.5" y="634.6357">getOrganizationRepository(email)</text><polygon fill="#181818" points="1043.5,667.1895,1033.5,671.1895,1043.5,675.1895,1039.5,671.1895" style="stroke:#181818;stroke-width:1.0;"/><line style="stroke:#181818;stroke-width:1.0;stroke-dasharray:2.0,2.0;" x1="1037.5" x2="1294.5" y1="671.1895" y2="671.1895"/><text fill="#000000" font-family="sans-serif" font-size="13" font-weight="bold" lengthAdjust="spacing" textLength="14" x="1049.5" y="665.9268">16</text><text fill="#000000" font-family="sans-serif" font-size="13" lengthAdjust="spacing" textLength="132" x="1067.5" y="665.9268">organizationRepository</text><polygon fill="#181818" points="1973.5,698.4805,1983.5,702.4805,1973.5,706.4805,1977.5,702.4805" style="stroke:#181818;stroke-width:1.0;"/><line style="stroke:#181818;stroke-width:1.0;" x1="1032.5" x2="1979.5" y1="702.4805" y2="702.4805"/><text fill="#000000" font-family="sans-serif" font-size="13" font-weight="bold" lengthAdjust="spacing" textLength="14" x="1039.5" y="697.2178">17</text><text fill="#000000" font-family="sans-serif" font-size="13" lengthAdjust="spacing" textLength="207" x="1057.5" y="697.2178">getOrganizationByVFMEmail(email)</text><path d="M1899,717.4805 L1972,717.4805 L1972,726.7715 L1962,736.7715 L1899,736.7715 L1899,717.4805 " fill="#EEEEEE" style="stroke:#000000;stroke-width:1.5;"/><rect fill="none" height="81.873" style="stroke:#000000;stroke-width:1.5;" width="341.5" x="1899" y="717.4805"/><text fill="#000000" font-family="sans-serif" font-size="13" font-weight="bold" lengthAdjust="spacing" textLength="28" x="1914" y="732.5088">loop</text><text fill="#000000" font-family="sans-serif" font-size="11" font-weight="bold" lengthAdjust="spacing" textLength="128" x="1987" y="731.3506">[[for each organization]</text><polygon fill="#181818" points="2164.5,756.0625,2174.5,760.0625,2164.5,764.0625,2168.5,760.0625" style="stroke:#181818;stroke-width:1.0;"/><line style="stroke:#181818;stroke-width:1.0;" x1="1995.5" x2="2170.5" y1="760.0625" y2="760.0625"/><text fill="#000000" font-family="sans-serif" font-size="13" font-weight="bold" lengthAdjust="spacing" textLength="14" x="2002.5" y="754.7998">18</text><text fill="#000000" font-family="sans-serif" font-size="13" lengthAdjust="spacing" textLength="144" x="2020.5" y="754.7998">anyVFMHasEmail(email)</text><polygon fill="#181818" points="2006.5,787.3535,1996.5,791.3535,2006.5,795.3535,2002.5,791.3535" style="stroke:#181818;stroke-width:1.0;"/><line style="stroke:#181818;stroke-width:1.0;stroke-dasharray:2.0,2.0;" x1="2000.5" x2="2180.5" y1="791.3535" y2="791.3535"/><text fill="#000000" font-family="sans-serif" font-size="13" font-weight="bold" lengthAdjust="spacing" textLength="14" x="2012.5" y="786.0908">19</text><text fill="#000000" font-family="sans-serif" font-size="13" lengthAdjust="spacing" textLength="53" x="2030.5" y="786.0908">true/false</text><polygon fill="#181818" points="1043.5,825.6445,1033.5,829.6445,1043.5,833.6445,1039.5,829.6445" style="stroke:#181818;stroke-width:1.0;"/><line style="stroke:#181818;stroke-width:1.0;stroke-dasharray:2.0,2.0;" x1="1037.5" x2="1989.5" y1="829.6445" y2="829.6445"/><text fill="#000000" font-family="sans-serif" font-size="13" font-weight="bold" lengthAdjust="spacing" textLength="14" x="1049.5" y="824.3818">20</text><text fill="#000000" font-family="sans-serif" font-size="13" lengthAdjust="spacing" textLength="70" x="1067.5" y="824.3818">organization</text><polygon fill="#181818" points="2164.5,856.9355,2174.5,860.9355,2164.5,864.9355,2168.5,860.9355" style="stroke:#181818;stroke-width:1.0;"/><line style="stroke:#181818;stroke-width:1.0;" x1="1032.5" x2="2170.5" y1="860.9355" y2="860.9355"/><text fill="#000000" font-family="sans-serif" font-size="13" font-weight="bold" lengthAdjust="spacing" textLength="14" x="1039.5" y="855.6729">21</text><text fill="#000000" font-family="sans-serif" font-size="13" lengthAdjust="spacing" textLength="134" x="1057.5" y="855.6729">getVFMByEmail(email)</text><polygon fill="#181818" points="1043.5,888.2266,1033.5,892.2266,1043.5,896.2266,1039.5,892.2266" style="stroke:#181818;stroke-width:1.0;"/><line style="stroke:#181818;stroke-width:1.0;stroke-dasharray:2.0,2.0;" x1="1037.5" x2="2180.5" y1="892.2266" y2="892.2266"/><text fill="#000000" font-family="sans-serif" font-size="13" font-weight="bold" lengthAdjust="spacing" textLength="14" x="1049.5" y="886.9639">22</text><text fill="#000000" font-family="sans-serif" font-size="13" lengthAdjust="spacing" textLength="28" x="1067.5" y="886.9639">VFM</text><line style="stroke:#181818;stroke-width:1.0;stroke-dasharray:2.0,2.0;" x1="1032.5" x2="1074.5" y1="928.5176" y2="928.5176"/><line style="stroke:#181818;stroke-width:1.0;stroke-dasharray:2.0,2.0;" x1="1074.5" x2="1074.5" y1="928.5176" y2="941.5176"/><line style="stroke:#181818;stroke-width:1.0;stroke-dasharray:2.0,2.0;" x1="1027.5" x2="1074.5" y1="941.5176" y2="941.5176"/><polygon fill="#181818" points="1037.5,937.5176,1027.5,941.5176,1037.5,945.5176,1033.5,941.5176" style="stroke:#181818;stroke-width:1.0;"/><text fill="#000000" font-family="sans-serif" font-size="13" font-weight="bold" lengthAdjust="spacing" textLength="14" x="1039.5" y="923.2549">23</text><text fill="#000000" font-family="sans-serif" font-size="13" lengthAdjust="spacing" textLength="28" x="1057.5" y="923.2549">VFM</text><polygon fill="#181818" points="2164.5,1006.0996,2174.5,1010.0996,2164.5,1014.0996,2168.5,1010.0996" style="stroke:#181818;stroke-width:1.0;"/><line style="stroke:#181818;stroke-width:1.0;" x1="1027.5" x2="2170.5" y1="1010.0996" y2="1010.0996"/><text fill="#000000" font-family="sans-serif" font-size="13" font-weight="bold" lengthAdjust="spacing" textLength="14" x="1034.5" y="996.1914">24</text><text fill="#000000" font-family="sans-serif" font-size="13" lengthAdjust="spacing" textLength="395" x="1052.5" y="987.5459">createVehicle(Brand, Model, Type, Tare, Gross Weight, Current Km,</text><text fill="#000000" font-family="sans-serif" font-size="13" lengthAdjust="spacing" textLength="428" x="1052.5" y="1004.8369">Register Date, Acquisition Date, Maintenance/Check-up Frequency, VFM)</text><polygon fill="#181818" points="2644.5,1054.6816,2654.5,1058.6816,2644.5,1062.6816,2648.5,1058.6816" style="stroke:#181818;stroke-width:1.0;"/><line style="stroke:#181818;stroke-width:1.0;" x1="2186.5" x2="2650.5" y1="1058.6816" y2="1058.6816"/><text fill="#000000" font-family="sans-serif" font-size="13" font-weight="bold" lengthAdjust="spacing" textLength="14" x="2193.5" y="1044.7734">25</text><text fill="#000000" font-family="sans-serif" font-size="13" lengthAdjust="spacing" textLength="395" x="2211.5" y="1036.1279">createVehicle(Brand, Model, Type, Tare, Gross Weight, Current Km,</text><text fill="#000000" font-family="sans-serif" font-size="13" lengthAdjust="spacing" textLength="428" x="2211.5" y="1053.4189">Register Date, Acquisition Date, Maintenance/Check-up Frequency, VFM)</text><rect fill="#E3E3E3" height="51.2422" rx="2.5" ry="2.5" style="stroke:#181818;stroke-width:0.5;" width="64" x="2656.5" y="1018.0996"/><text fill="#000000" font-family="sans-serif" font-size="14" lengthAdjust="spacing" textLength="44" x="2666.5" y="1040.207">vehicle</text><text fill="#000000" font-family="sans-serif" font-size="14" lengthAdjust="spacing" textLength="50" x="2663.5" y="1058.8281">:Vehicle</text><line style="stroke:#181818;stroke-width:1.0;" x1="2186.5" x2="2233.5" y1="1098.6328" y2="1098.6328"/><line style="stroke:#181818;stroke-width:1.0;" x1="2233.5" x2="2233.5" y1="1098.6328" y2="1111.6328"/><line style="stroke:#181818;stroke-width:1.0;" x1="2192.5" x2="2233.5" y1="1111.6328" y2="1111.6328"/><polygon fill="#181818" points="2202.5,1107.6328,2192.5,1111.6328,2202.5,1115.6328,2198.5,1111.6328" style="stroke:#181818;stroke-width:1.0;"/><text fill="#000000" font-family="sans-serif" font-size="13" font-weight="bold" lengthAdjust="spacing" textLength="14" x="2198.5" y="1093.3701">26</text><text fill="#000000" font-family="sans-serif" font-size="13" lengthAdjust="spacing" textLength="115" x="2216.5" y="1093.3701">addVehicle (vehicle)</text><line style="stroke:#181818;stroke-width:1.0;" x1="2191.5" x2="2238.5" y1="1142.9238" y2="1142.9238"/><line style="stroke:#181818;stroke-width:1.0;" x1="2238.5" x2="2238.5" y1="1142.9238" y2="1155.9238"/><line style="stroke:#181818;stroke-width:1.0;" x1="2197.5" x2="2238.5" y1="1155.9238" y2="1155.9238"/><polygon fill="#181818" points="2207.5,1151.9238,2197.5,1155.9238,2207.5,1159.9238,2203.5,1155.9238" style="stroke:#181818;stroke-width:1.0;"/><text fill="#000000" font-family="sans-serif" font-size="13" font-weight="bold" lengthAdjust="spacing" textLength="14" x="2203.5" y="1137.6611">27</text><text fill="#000000" font-family="sans-serif" font-size="13" lengthAdjust="spacing" textLength="137" x="2221.5" y="1137.6611">validateVehicle (vehicle)</text><line style="stroke:#181818;stroke-width:1.0;stroke-dasharray:2.0,2.0;" x1="2196.5" x2="2238.5" y1="1197.2148" y2="1197.2148"/><line style="stroke:#181818;stroke-width:1.0;stroke-dasharray:2.0,2.0;" x1="2238.5" x2="2238.5" y1="1197.2148" y2="1210.2148"/><line style="stroke:#181818;stroke-width:1.0;stroke-dasharray:2.0,2.0;" x1="2191.5" x2="2238.5" y1="1210.2148" y2="1210.2148"/><polygon fill="#181818" points="2201.5,1206.2148,2191.5,1210.2148,2201.5,1214.2148,2197.5,1210.2148" style="stroke:#181818;stroke-width:1.0;"/><text fill="#000000" font-family="sans-serif" font-size="13" font-weight="bold" lengthAdjust="spacing" textLength="14" x="2203.5" y="1191.9521">28</text><text fill="#000000" font-family="sans-serif" font-size="13" lengthAdjust="spacing" textLength="4" x="2221.5" y="1191.9521">&#160;</text><line style="stroke:#181818;stroke-width:1.0;stroke-dasharray:2.0,2.0;" x1="2191.5" x2="2233.5" y1="1241.5059" y2="1241.5059"/><line style="stroke:#181818;stroke-width:1.0;stroke-dasharray:2.0,2.0;" x1="2233.5" x2="2233.5" y1="1241.5059" y2="1254.5059"/><line style="stroke:#181818;stroke-width:1.0;stroke-dasharray:2.0,2.0;" x1="2186.5" x2="2233.5" y1="1254.5059" y2="1254.5059"/><polygon fill="#181818" points="2196.5,1250.5059,2186.5,1254.5059,2196.5,1258.5059,2192.5,1254.5059" style="stroke:#181818;stroke-width:1.0;"/><text fill="#000000" font-family="sans-serif" font-size="13" font-weight="bold" lengthAdjust="spacing" textLength="14" x="2198.5" y="1236.2432">29</text><text fill="#000000" font-family="sans-serif" font-size="13" lengthAdjust="spacing" textLength="4" x="2216.5" y="1236.2432">&#160;</text><polygon fill="#181818" points="1038.5,1276.7969,1028.5,1280.7969,1038.5,1284.7969,1034.5,1280.7969" style="stroke:#181818;stroke-width:1.0;"/><line style="stroke:#181818;stroke-width:1.0;stroke-dasharray:2.0,2.0;" x1="1032.5" x2="2180.5" y1="1280.7969" y2="1280.7969"/><text fill="#000000" font-family="sans-serif" font-size="13" font-weight="bold" lengthAdjust="spacing" textLength="14" x="1044.5" y="1275.5342">30</text><text fill="#000000" font-family="sans-serif" font-size="13" lengthAdjust="spacing" textLength="39" x="1062.5" y="1275.5342">vehicle</text><polygon fill="#181818" points="592.5,1308.0879,582.5,1312.0879,592.5,1316.0879,588.5,1312.0879" style="stroke:#181818;stroke-width:1.0;"/><line style="stroke:#181818;stroke-width:1.0;stroke-dasharray:2.0,2.0;" x1="586.5" x2="1021.5" y1="1312.0879" y2="1312.0879"/><text fill="#000000" font-family="sans-serif" font-size="13" font-weight="bold" lengthAdjust="spacing" textLength="14" x="598.5" y="1306.8252">31</text><text fill="#000000" font-family="sans-serif" font-size="13" lengthAdjust="spacing" textLength="39" x="616.5" y="1306.8252">vehicle</text><polygon fill="#181818" points="139.5,1339.3789,129.5,1343.3789,139.5,1347.3789,135.5,1343.3789" style="stroke:#181818;stroke-width:1.0;"/><line style="stroke:#181818;stroke-width:1.0;stroke-dasharray:2.0,2.0;" x1="133.5" x2="575.5" y1="1343.3789" y2="1343.3789"/><text fill="#000000" font-family="sans-serif" font-size="13" font-weight="bold" lengthAdjust="spacing" textLength="14" x="145.5" y="1338.1162">32</text><text fill="#000000" font-family="sans-serif" font-size="13" lengthAdjust="spacing" textLength="158" x="163.5" y="1338.1162">displays operation success</text><!--SRC=[pPV1Rjiu48RlUef1Baa31RqRs02EcsI3hT70Jho73R1WgR55H2PLaahNYppy3Yd9bYnAygA7LeV45cT-VZFa36dpAcJEDDl2Lad5Kwss25ON69dzICxuAzlWqkuo18tSChd9cWOcPOdwBkG6rYmp64Mii4eMsw-ee-Wy5Gd2MYdxLVqJCMwLXhCLfeAJ6fC9t7uhHBv5QU4kGxGmPn8tgC-06PX-caSqXnLSv8mipYQLvmBDHXYhcHLAFZzuu-U78zi5EXlKbSzCIQjLbbNQYzMiOvyh8mXGe2bDwXUxfN0nKrG_xA8R7Y-oA_3uUVhKzdYhGwwLoMrr_CxxhXP7UDCypmJtILgYCVJFs_qzVNniMx8yhmn8lCUhuyGBhMdT3exF1dNJOtcxN4w_j9sKtZ0f_lNg1_p9Y_mI7F0wuQ5-NK9fkfGQY_jWMW_9B5DOVexSJXLlpABVWn5K3ts1gslQQZ0XwrS3Lb59bDiC6BpLthNzNeKsPtGEZOSahaZ92Kv8ubk1nXf8c6LmeN6Db5cECIHek1Qv2oC647Ajz9Pby2BR8nPvAcdDilRhf2Wh90QkZFqGDG7EkKP7DdjQV8wEoQvTULnU4bff5KMdijzeAkeOvYh1B8QdNKv1F35DV- -rCWR-HB59RGopSlF07zkOegbB5JxHP35CEJK5McL2hzxCcP0M9QEaV9obo5-lYXpk_DoIxmwH9TXA-V6QMU8nDJ8cdZdgB5GmJfEgxmPObfM1kjQr3vqhkHQqC0uuEW6ZQNy2WryDd-fMG_lPkTxpkbRQtY7lx- -jxuv_7yO6xUfkVaTdJTKiBjexiwqBHqybvNgObtgGnZhK8v6Ma6zu47ZSG0L61RrlWXtRndfwhLwicchMwer3R5uknERHQhPshntY2-fLT6L3dW1kcSZWDmVgUlQj-ph4M3No86OvTY3rsaE0jLWVf3i1VGx3RV_2Jp00wq_G8AeREO26Jw8XybAvZpkCsudaPaURlypuM2Gzvrumjaof7FwYum68Dsq55xHtJrZVnxAuToUSTAo_CpE8syMcexRNgfoOvAzwK-RwD5r1FvQtoJwDnhgu2KCcA9Fe_yIzxr23sMjEVE82rJjaSLztlvlTYLkWBvTr2ajWKen64XI6wbLeU7VQS4ztz-6LzuMVUaB5BfYU8oMO2P_Bw_hkTtdvgqRHOFMvPabI_vAwgAwU7mBzQRHEcfflB1F98VQ6y6ZDZrPxZytOHXtJ6FDlbqhdZZucKTV9yyF1UQ1ImXVb2IJ2v1dR6L0vbhToC0NdTA27RepD0vr-WFm7]--></g></svg>