<?xml version="1.0" encoding="us-ascii" standalone="no"?><svg xmlns="http://www.w3.org/2000/svg" xmlns:xlink="http://www.w3.org/1999/xlink" contentStyleType="text/css" height="486px" preserveAspectRatio="none" style="width:1036px;height:486px;background:#FFFFFF;" version="1.1" viewBox="0 0 1036 486" width="1036px" zoomAndPan="magnify"><defs/><g><rect fill="#FFFFFF" height="303.9883" style="stroke:#181818;stroke-width:1.0;" width="10" x="465" y="107.8242"/><rect fill="#FFFFFF" height="130.873" style="stroke:#181818;stroke-width:1.0;" width="10" x="470" y="235.6484"/><rect fill="#FFFFFF" height="42.291" style="stroke:#181818;stroke-width:1.0;" width="10" x="475" y="279.9395"/><rect fill="none" height="258.6973" style="stroke:#000000;stroke-width:1.5;" width="619" x="411" y="122.8242"/><line style="stroke:#181818;stroke-width:0.5;stroke-dasharray:5.0,5.0;" x1="470" x2="470" y1="57.2422" y2="429.8125"/><line style="stroke:#181818;stroke-width:0.5;stroke-dasharray:5.0,5.0;" x1="988" x2="988" y1="183.2363" y2="429.8125"/><rect fill="#E3E3E3" height="51.2422" rx="2.5" ry="2.5" style="stroke:#181818;stroke-width:0.5;" width="98" x="421" y="5"/><text fill="#000000" font-family="sans-serif" font-size="14" lengthAdjust="spacing" textLength="77" x="431.5" y="27.1074">organization</text><text fill="#000000" font-family="sans-serif" font-size="14" lengthAdjust="spacing" textLength="84" x="428" y="45.7285">:Organization</text><rect fill="#E3E3E3" height="51.2422" rx="2.5" ry="2.5" style="stroke:#181818;stroke-width:0.5;" width="98" x="421" y="428.8125"/><text fill="#000000" font-family="sans-serif" font-size="14" lengthAdjust="spacing" textLength="77" x="431.5" y="450.9199">organization</text><text fill="#000000" font-family="sans-serif" font-size="14" lengthAdjust="spacing" textLength="84" x="428" y="469.541">:Organization</text><rect fill="#E3E3E3" height="51.2422" rx="2.5" ry="2.5" style="stroke:#181818;stroke-width:0.5;" width="64" x="956" y="428.8125"/><text fill="#000000" font-family="sans-serif" font-size="14" lengthAdjust="spacing" textLength="44" x="966" y="450.9199">vehicle</text><text fill="#000000" font-family="sans-serif" font-size="14" lengthAdjust="spacing" textLength="50" x="963" y="469.541">:Vehicle</text><rect fill="#FFFFFF" height="303.9883" style="stroke:#181818;stroke-width:1.0;" width="10" x="465" y="107.8242"/><rect fill="#FFFFFF" height="130.873" style="stroke:#181818;stroke-width:1.0;" width="10" x="470" y="235.6484"/><rect fill="#FFFFFF" height="42.291" style="stroke:#181818;stroke-width:1.0;" width="10" x="475" y="279.9395"/><polygon fill="#181818" points="453,103.8242,463,107.8242,453,111.8242,457,107.8242" style="stroke:#181818;stroke-width:1.0;"/><line style="stroke:#181818;stroke-width:1.0;" x1="0" x2="459" y1="107.8242" y2="107.8242"/><text fill="#000000" font-family="sans-serif" font-size="13" font-weight="bold" lengthAdjust="spacing" textLength="14" x="7" y="93.916">10</text><text fill="#000000" font-family="sans-serif" font-size="13" lengthAdjust="spacing" textLength="395" x="25" y="85.2705">createVehicle(Brand, Model, Type, Tare, Gross Weight, Current Km,</text><text fill="#000000" font-family="sans-serif" font-size="13" lengthAdjust="spacing" textLength="428" x="25" y="102.5615">Register Date, Acquisition Date, Maintenance/Check-up Frequency, VFM)</text><path d="M411,122.8242 L531,122.8242 L531,132.1152 L521,142.1152 L411,142.1152 L411,122.8242 " fill="#EEEEEE" style="stroke:#000000;stroke-width:1.5;"/><rect fill="none" height="258.6973" style="stroke:#000000;stroke-width:1.5;" width="619" x="411" y="122.8242"/><text fill="#000000" font-family="sans-serif" font-size="13" font-weight="bold" lengthAdjust="spacing" textLength="75" x="426" y="137.8525">Create Task</text><polygon fill="#181818" points="944,178.6973,954,182.6973,944,186.6973,948,182.6973" style="stroke:#181818;stroke-width:1.0;"/><line style="stroke:#181818;stroke-width:1.0;" x1="475" x2="950" y1="182.6973" y2="182.6973"/><text fill="#000000" font-family="sans-serif" font-size="13" font-weight="bold" lengthAdjust="spacing" textLength="25" x="482" y="168.7891">10.1</text><text fill="#000000" font-family="sans-serif" font-size="13" lengthAdjust="spacing" textLength="395" x="511" y="160.1436">createVehicle(Brand, Model, Type, Tare, Gross Weight, Current Km,</text><text fill="#000000" font-family="sans-serif" font-size="13" lengthAdjust="spacing" textLength="428" x="511" y="177.4346">Register Date, Acquisition Date, Maintenance/Check-up Frequency, VFM)</text><rect fill="#E3E3E3" height="51.2422" rx="2.5" ry="2.5" style="stroke:#181818;stroke-width:0.5;" width="64" x="956" y="142.1152"/><text fill="#000000" font-family="sans-serif" font-size="14" lengthAdjust="spacing" textLength="44" x="966" y="164.2227">vehicle</text><text fill="#000000" font-family="sans-serif" font-size="14" lengthAdjust="spacing" textLength="50" x="963" y="182.8438">:Vehicle</text><line style="stroke:#181818;stroke-width:1.0;" x1="475" x2="522" y1="222.6484" y2="222.6484"/><line style="stroke:#181818;stroke-width:1.0;" x1="522" x2="522" y1="222.6484" y2="235.6484"/><line style="stroke:#181818;stroke-width:1.0;" x1="481" x2="522" y1="235.6484" y2="235.6484"/><polygon fill="#181818" points="491,231.6484,481,235.6484,491,239.6484,487,235.6484" style="stroke:#181818;stroke-width:1.0;"/><text fill="#000000" font-family="sans-serif" font-size="13" font-weight="bold" lengthAdjust="spacing" textLength="25" x="487" y="217.3857">10.2</text><text fill="#000000" font-family="sans-serif" font-size="13" lengthAdjust="spacing" textLength="111" x="516" y="217.3857">addVehicle(vehicle)</text><line style="stroke:#181818;stroke-width:1.0;" x1="480" x2="527" y1="266.9395" y2="266.9395"/><line style="stroke:#181818;stroke-width:1.0;" x1="527" x2="527" y1="266.9395" y2="279.9395"/><line style="stroke:#181818;stroke-width:1.0;" x1="486" x2="527" y1="279.9395" y2="279.9395"/><polygon fill="#181818" points="496,275.9395,486,279.9395,496,283.9395,492,279.9395" style="stroke:#181818;stroke-width:1.0;"/><text fill="#000000" font-family="sans-serif" font-size="13" font-weight="bold" lengthAdjust="spacing" textLength="25" x="492" y="261.6768">10.3</text><text fill="#000000" font-family="sans-serif" font-size="13" lengthAdjust="spacing" textLength="133" x="521" y="261.6768">validateVehicle(vehicle)</text><line style="stroke:#181818;stroke-width:1.0;stroke-dasharray:2.0,2.0;" x1="485" x2="527" y1="321.2305" y2="321.2305"/><line style="stroke:#181818;stroke-width:1.0;stroke-dasharray:2.0,2.0;" x1="527" x2="527" y1="321.2305" y2="334.2305"/><line style="stroke:#181818;stroke-width:1.0;stroke-dasharray:2.0,2.0;" x1="480" x2="527" y1="334.2305" y2="334.2305"/><polygon fill="#181818" points="490,330.2305,480,334.2305,490,338.2305,486,334.2305" style="stroke:#181818;stroke-width:1.0;"/><text fill="#000000" font-family="sans-serif" font-size="13" font-weight="bold" lengthAdjust="spacing" textLength="25" x="492" y="315.9678">10.4</text><text fill="#000000" font-family="sans-serif" font-size="13" lengthAdjust="spacing" textLength="4" x="521" y="315.9678">&#160;</text><line style="stroke:#181818;stroke-width:1.0;stroke-dasharray:2.0,2.0;" x1="480" x2="522" y1="365.5215" y2="365.5215"/><line style="stroke:#181818;stroke-width:1.0;stroke-dasharray:2.0,2.0;" x1="522" x2="522" y1="365.5215" y2="378.5215"/><line style="stroke:#181818;stroke-width:1.0;stroke-dasharray:2.0,2.0;" x1="475" x2="522" y1="378.5215" y2="378.5215"/><polygon fill="#181818" points="485,374.5215,475,378.5215,485,382.5215,481,378.5215" style="stroke:#181818;stroke-width:1.0;"/><text fill="#000000" font-family="sans-serif" font-size="13" font-weight="bold" lengthAdjust="spacing" textLength="25" x="487" y="360.2588">10.5</text><text fill="#000000" font-family="sans-serif" font-size="13" lengthAdjust="spacing" textLength="4" x="516" y="360.2588">&#160;</text><polygon fill="#181818" points="11,407.8125,1,411.8125,11,415.8125,7,411.8125" style="stroke:#181818;stroke-width:1.0;"/><line style="stroke:#181818;stroke-width:1.0;stroke-dasharray:2.0,2.0;" x1="5" x2="469" y1="411.8125" y2="411.8125"/><text fill="#000000" font-family="sans-serif" font-size="13" font-weight="bold" lengthAdjust="spacing" textLength="14" x="17" y="406.5498">11</text><text fill="#000000" font-family="sans-serif" font-size="13" lengthAdjust="spacing" textLength="39" x="35" y="406.5498">vehicle</text><!--SRC=[pLAnJiCm5Dpz5K-TQ9K0NIk414NjWAfA1PMbowlzIAmapwdj59Mlnqb3IGE85G-MVRuxtyLncUOIBHPG63OojQOWyBOYuKud9SeC4thoXvp0alJ8ITubk1ILUTESm2lcZeG8iDTIbyWU1iOcoFeTlJQyuScoinq0EbYkvkU2FQLQvXIuw-EgeRLh8R3oXgjYInR6roA-hGqc82sXfvPqSM-HLGGBeoYFuFbGKfZHXdbkZNFmGZf9VGJJobeATpuM4MnuHObsFlW-1Ai8xkIkqaxNGLjaWPezCRAagsbACekh4cQMTXMnF4ImdYs6lO2NOu7IwttGDqqXZCIQe9isYKCibua6haUWGAZKzXYD_bEnNiRciwDIdz7QPnj-bVbM_2U7FUPQTHgURBg2NvrERaUxipD5PpBnbwR7ho5YTTHrttJS83TntBY41ksVsR_l0m00]--></g></svg>