<?xml version="1.0" encoding="us-ascii" standalone="no"?><svg xmlns="http://www.w3.org/2000/svg" xmlns:xlink="http://www.w3.org/1999/xlink" contentStyleType="text/css" height="643.2px" preserveAspectRatio="none" style="width:1533px;height:643px;background:#FFFFFF;" version="1.1" viewBox="0 0 1533 643" width="1533.6px" zoomAndPan="magnify"><defs/><g><!--class VehicleFleetManager--><g id="elem_VehicleFleetManager"><rect codeLine="7" fill="#F1F1F1" height="73.4906" id="VehicleFleetManager" rx="1.5" ry="1.5" style="stroke:#181818;stroke-width:0.3;" width="99.6" x="232.8" y="4.2"/><ellipse cx="241.8" cy="13.8" fill="#ADD1B2" rx="6.6" ry="6.6" style="stroke:#181818;stroke-width:0.6;"/><path d="M243.4594,11.325 Q243.5531,11.1938 243.6656,11.1281 Q243.7781,11.0625 243.9094,11.0625 Q244.1344,11.0625 244.275,11.2219 Q244.4156,11.3719 244.4156,11.7375 L244.4156,12.6094 Q244.4156,12.975 244.275,13.1344 Q244.1344,13.2938 243.9094,13.2938 Q243.7031,13.2938 243.5812,13.1719 Q243.4594,13.0594 243.3937,12.75 Q243.3656,12.5344 243.2531,12.4219 Q243.0562,12.1969 242.6906,12.0656 Q242.325,11.9344 241.95,11.9344 Q241.4906,11.9344 241.1063,12.1313 Q240.7313,12.3281 240.4312,12.7781 Q240.1406,13.2281 240.1406,13.8469 L240.1406,14.5031 Q240.1406,15.2437 240.675,15.7406 Q241.2094,16.2281 242.1656,16.2281 Q242.7281,16.2281 243.1219,16.0781 Q243.3563,15.9844 243.6094,15.7219 Q243.7687,15.5625 243.8531,15.5156 Q243.9469,15.4688 244.0688,15.4688 Q244.2656,15.4688 244.4156,15.6281 Q244.575,15.7781 244.575,15.9844 Q244.575,16.1906 244.3687,16.4344 Q244.0688,16.7813 243.5906,16.9781 Q242.9438,17.25 242.1656,17.25 Q241.2563,17.25 240.5344,16.875 Q239.9438,16.575 239.5313,15.9375 Q239.1187,15.2906 239.1187,14.5219 L239.1187,13.8281 Q239.1187,13.0313 239.4844,12.3469 Q239.8594,11.6531 240.5156,11.2875 Q241.1719,10.9125 241.9125,10.9125 Q242.3531,10.9125 242.7375,11.0156 Q243.1313,11.1094 243.4594,11.325 Z " fill="#000000"/><text fill="#000000" font-family="sans-serif" font-size="8.4" lengthAdjust="spacing" textLength="80.4" x="250.2" y="17.2781">VehicleFleetManager</text><line style="stroke:#181818;stroke-width:0.3;" x1="233.4" x2="331.8" y1="23.4" y2="23.4"/><text fill="#000000" font-family="sans-serif" font-size="8.4" lengthAdjust="spacing" textLength="48.6" x="236.4" y="34.8645">-String name</text><text fill="#000000" font-family="sans-serif" font-size="8.4" lengthAdjust="spacing" textLength="47.4" x="236.4" y="46.0371">-String email</text><text fill="#000000" font-family="sans-serif" font-size="8.4" lengthAdjust="spacing" textLength="51.6" x="236.4" y="57.2098">-String phone</text><line style="stroke:#181818;stroke-width:0.3;" x1="233.4" x2="331.8" y1="61.718" y2="61.718"/><text fill="#000000" font-family="sans-serif" font-size="8.4" lengthAdjust="spacing" textLength="67.2" x="236.4" y="73.1824">+registerVehicle()</text></g><!--class Vehicle--><g id="elem_Vehicle"><rect codeLine="14" fill="#F1F1F1" height="140.5266" id="Vehicle" rx="1.5" ry="1.5" style="stroke:#181818;stroke-width:0.3;" width="467.4" x="307.5" y="498.6"/><ellipse cx="524.85" cy="508.2" fill="#ADD1B2" rx="6.6" ry="6.6" style="stroke:#181818;stroke-width:0.6;"/><path d="M526.5094,505.725 Q526.6031,505.5938 526.7156,505.5281 Q526.8281,505.4625 526.9594,505.4625 Q527.1844,505.4625 527.325,505.6219 Q527.4656,505.7719 527.4656,506.1375 L527.4656,507.0094 Q527.4656,507.375 527.325,507.5344 Q527.1844,507.6937 526.9594,507.6937 Q526.7531,507.6937 526.6313,507.5719 Q526.5094,507.4594 526.4438,507.15 Q526.4156,506.9344 526.3031,506.8219 Q526.1062,506.5969 525.7406,506.4656 Q525.375,506.3344 525,506.3344 Q524.5406,506.3344 524.1563,506.5313 Q523.7813,506.7281 523.4812,507.1781 Q523.1906,507.6281 523.1906,508.2469 L523.1906,508.9031 Q523.1906,509.6437 523.725,510.1406 Q524.2594,510.6281 525.2156,510.6281 Q525.7781,510.6281 526.1719,510.4781 Q526.4063,510.3844 526.6594,510.1219 Q526.8188,509.9625 526.9031,509.9156 Q526.9969,509.8688 527.1188,509.8688 Q527.3156,509.8688 527.4656,510.0281 Q527.625,510.1781 527.625,510.3844 Q527.625,510.5906 527.4187,510.8344 Q527.1188,511.1813 526.6406,511.3781 Q525.9938,511.65 525.2156,511.65 Q524.3063,511.65 523.5844,511.275 Q522.9938,510.975 522.5813,510.3375 Q522.1687,509.6906 522.1687,508.9219 L522.1687,508.2281 Q522.1687,507.4313 522.5344,506.7469 Q522.9094,506.0531 523.5656,505.6875 Q524.2219,505.3125 524.9625,505.3125 Q525.4031,505.3125 525.7875,505.4156 Q526.1813,505.5094 526.5094,505.725 Z " fill="#000000"/><text fill="#000000" font-family="sans-serif" font-size="8.4" lengthAdjust="spacing" textLength="27.6" x="537.15" y="511.6781">Vehicle</text><line style="stroke:#181818;stroke-width:0.3;" x1="308.1" x2="774.3" y1="517.8" y2="517.8"/><text fill="#000000" font-family="sans-serif" font-size="8.4" lengthAdjust="spacing" textLength="49.8" x="311.1" y="529.2645">-String brand</text><text fill="#000000" font-family="sans-serif" font-size="8.4" lengthAdjust="spacing" textLength="50.4" x="311.1" y="540.4371">-String model</text><text fill="#000000" font-family="sans-serif" font-size="8.4" lengthAdjust="spacing" textLength="43.8" x="311.1" y="551.6098">-String type</text><text fill="#000000" font-family="sans-serif" font-size="8.4" lengthAdjust="spacing" textLength="73.8" x="311.1" y="562.7824">-Double tareWeight</text><text fill="#000000" font-family="sans-serif" font-size="8.4" lengthAdjust="spacing" textLength="79.8" x="311.1" y="573.9551">-Double grossWeight</text><text fill="#000000" font-family="sans-serif" font-size="8.4" lengthAdjust="spacing" textLength="53.4" x="311.1" y="585.1277">-Int currentKm</text><text fill="#000000" font-family="sans-serif" font-size="8.4" lengthAdjust="spacing" textLength="61.2" x="311.1" y="596.3004">-Int registerDate</text><text fill="#000000" font-family="sans-serif" font-size="8.4" lengthAdjust="spacing" textLength="72.6" x="311.1" y="607.473">-Int acquisitionDate</text><text fill="#000000" font-family="sans-serif" font-size="8.4" lengthAdjust="spacing" textLength="103.8" x="311.1" y="618.6457">-Int maintenanceFrequency</text><line style="stroke:#181818;stroke-width:0.3;" x1="308.1" x2="774.3" y1="623.1539" y2="623.1539"/><text fill="#000000" font-family="sans-serif" font-size="8.4" lengthAdjust="spacing" textLength="460.2" x="311.1" y="634.6184">+Vehicle(brand, model, type, tareWeight, grossWeight, currentKm, registerDate, acquisitionDate, maintenanceFrequency)</text></g><!--class VehicleRepository--><g id="elem_VehicleRepository"><rect codeLine="27" fill="#F1F1F1" height="51.1453" id="VehicleRepository" rx="1.5" ry="1.5" style="stroke:#181818;stroke-width:0.3;" width="141.6" x="668.4" y="400.2"/><ellipse cx="702.45" cy="409.8" fill="#ADD1B2" rx="6.6" ry="6.6" style="stroke:#181818;stroke-width:0.6;"/><path d="M704.1094,407.325 Q704.2031,407.1937 704.3156,407.1281 Q704.4281,407.0625 704.5594,407.0625 Q704.7844,407.0625 704.925,407.2219 Q705.0656,407.3719 705.0656,407.7375 L705.0656,408.6094 Q705.0656,408.975 704.925,409.1344 Q704.7844,409.2938 704.5594,409.2938 Q704.3531,409.2938 704.2312,409.1719 Q704.1094,409.0594 704.0437,408.75 Q704.0156,408.5344 703.9031,408.4219 Q703.7063,408.1969 703.3406,408.0656 Q702.975,407.9344 702.6,407.9344 Q702.1406,407.9344 701.7563,408.1312 Q701.3813,408.3281 701.0813,408.7781 Q700.7906,409.2281 700.7906,409.8469 L700.7906,410.5031 Q700.7906,411.2438 701.325,411.7406 Q701.8594,412.2281 702.8156,412.2281 Q703.3781,412.2281 703.7719,412.0781 Q704.0063,411.9844 704.2594,411.7219 Q704.4187,411.5625 704.5031,411.5156 Q704.5969,411.4688 704.7188,411.4688 Q704.9156,411.4688 705.0656,411.6281 Q705.225,411.7781 705.225,411.9844 Q705.225,412.1906 705.0188,412.4344 Q704.7188,412.7813 704.2406,412.9781 Q703.5938,413.25 702.8156,413.25 Q701.9063,413.25 701.1844,412.875 Q700.5938,412.575 700.1813,411.9375 Q699.7688,411.2906 699.7688,410.5219 L699.7688,409.8281 Q699.7688,409.0313 700.1344,408.3469 Q700.5094,407.6531 701.1656,407.2875 Q701.8219,406.9125 702.5625,406.9125 Q703.0031,406.9125 703.3875,407.0156 Q703.7813,407.1094 704.1094,407.325 Z " fill="#000000"/><text fill="#000000" font-family="sans-serif" font-size="8.4" lengthAdjust="spacing" textLength="68.4" x="714.75" y="413.2781">VehicleRepository</text><line style="stroke:#181818;stroke-width:0.3;" x1="669" x2="809.4" y1="419.4" y2="419.4"/><line style="stroke:#181818;stroke-width:0.3;" x1="669" x2="809.4" y1="424.2" y2="424.2"/><text fill="#000000" font-family="sans-serif" font-size="8.4" lengthAdjust="spacing" textLength="118.2" x="672" y="435.6645">+boolean save(Vehicle vehicle)</text><text fill="#000000" font-family="sans-serif" font-size="8.4" lengthAdjust="spacing" textLength="134.4" x="672" y="446.8371">+Vehicle findByModel(String model)</text></g><!--class Organization--><g id="elem_Organization"><rect codeLine="32" fill="#F1F1F1" height="129.3539" id="Organization" rx="1.5" ry="1.5" style="stroke:#181818;stroke-width:0.3;" width="169.2" x="410.4" y="223.2"/><ellipse cx="468.45" cy="232.8" fill="#ADD1B2" rx="6.6" ry="6.6" style="stroke:#181818;stroke-width:0.6;"/><path d="M470.1094,230.325 Q470.2031,230.1938 470.3156,230.1281 Q470.4281,230.0625 470.5594,230.0625 Q470.7844,230.0625 470.925,230.2219 Q471.0656,230.3719 471.0656,230.7375 L471.0656,231.6094 Q471.0656,231.975 470.925,232.1344 Q470.7844,232.2938 470.5594,232.2938 Q470.3531,232.2938 470.2313,232.1719 Q470.1094,232.0594 470.0438,231.75 Q470.0156,231.5344 469.9031,231.4219 Q469.7062,231.1969 469.3406,231.0656 Q468.975,230.9344 468.6,230.9344 Q468.1406,230.9344 467.7562,231.1313 Q467.3812,231.3281 467.0812,231.7781 Q466.7906,232.2281 466.7906,232.8469 L466.7906,233.5031 Q466.7906,234.2437 467.325,234.7406 Q467.8594,235.2281 468.8156,235.2281 Q469.3781,235.2281 469.7719,235.0781 Q470.0062,234.9844 470.2594,234.7219 Q470.4188,234.5625 470.5031,234.5156 Q470.5969,234.4688 470.7188,234.4688 Q470.9156,234.4688 471.0656,234.6281 Q471.225,234.7781 471.225,234.9844 Q471.225,235.1906 471.0187,235.4344 Q470.7188,235.7813 470.2406,235.9781 Q469.5938,236.25 468.8156,236.25 Q467.9063,236.25 467.1844,235.875 Q466.5938,235.575 466.1813,234.9375 Q465.7687,234.2906 465.7687,233.5219 L465.7687,232.8281 Q465.7687,232.0313 466.1344,231.3469 Q466.5094,230.6531 467.1656,230.2875 Q467.8219,229.9125 468.5625,229.9125 Q469.0031,229.9125 469.3875,230.0156 Q469.7813,230.1094 470.1094,230.325 Z " fill="#000000"/><text fill="#000000" font-family="sans-serif" font-size="8.4" lengthAdjust="spacing" textLength="48" x="480.75" y="236.2781">Organization</text><line style="stroke:#181818;stroke-width:0.3;" x1="411" x2="579" y1="242.4" y2="242.4"/><text fill="#000000" font-family="sans-serif" font-size="8.4" lengthAdjust="spacing" textLength="48.6" x="414" y="253.8645">-String name</text><text fill="#000000" font-family="sans-serif" font-size="8.4" lengthAdjust="spacing" textLength="68.4" x="414" y="265.0371">-String vatNumber</text><text fill="#000000" font-family="sans-serif" font-size="8.4" lengthAdjust="spacing" textLength="58.2" x="414" y="276.2098">-String address</text><text fill="#000000" font-family="sans-serif" font-size="8.4" lengthAdjust="spacing" textLength="51.6" x="414" y="287.3824">-String phone</text><text fill="#000000" font-family="sans-serif" font-size="8.4" lengthAdjust="spacing" textLength="47.4" x="414" y="298.5551">-String email</text><text fill="#000000" font-family="sans-serif" font-size="8.4" lengthAdjust="spacing" textLength="72" x="414" y="309.7277">-List&lt;Vehicle&gt; fleet</text><line style="stroke:#181818;stroke-width:0.3;" x1="411" x2="579" y1="314.2359" y2="314.2359"/><text fill="#000000" font-family="sans-serif" font-size="8.4" lengthAdjust="spacing" textLength="109.2" x="414" y="325.7004">+addVehicle(Vehicle vehicle)</text><text fill="#000000" font-family="sans-serif" font-size="8.4" lengthAdjust="spacing" textLength="162" x="414" y="336.873">+Vehicle findVehicleByModel(String model)</text><text fill="#000000" font-family="sans-serif" font-size="8.4" lengthAdjust="spacing" textLength="94.8" x="414" y="348.0457">+List&lt;Vehicle&gt; getFleet()</text></g><!--class OrganizationRepository--><g id="elem_OrganizationRepository"><rect codeLine="44" fill="#F1F1F1" height="51.1453" id="OrganizationRepository" rx="1.5" ry="1.5" style="stroke:#181818;stroke-width:0.3;" width="148.8" x="498.6" y="400.2"/><ellipse cx="526.05" cy="409.8" fill="#ADD1B2" rx="6.6" ry="6.6" style="stroke:#181818;stroke-width:0.6;"/><path d="M527.7094,407.325 Q527.8031,407.1937 527.9156,407.1281 Q528.0281,407.0625 528.1594,407.0625 Q528.3844,407.0625 528.525,407.2219 Q528.6656,407.3719 528.6656,407.7375 L528.6656,408.6094 Q528.6656,408.975 528.525,409.1344 Q528.3844,409.2938 528.1594,409.2938 Q527.9531,409.2938 527.8313,409.1719 Q527.7094,409.0594 527.6438,408.75 Q527.6156,408.5344 527.5031,408.4219 Q527.3063,408.1969 526.9406,408.0656 Q526.575,407.9344 526.2,407.9344 Q525.7406,407.9344 525.3562,408.1312 Q524.9812,408.3281 524.6813,408.7781 Q524.3906,409.2281 524.3906,409.8469 L524.3906,410.5031 Q524.3906,411.2438 524.925,411.7406 Q525.4594,412.2281 526.4156,412.2281 Q526.9781,412.2281 527.3719,412.0781 Q527.6062,411.9844 527.8594,411.7219 Q528.0188,411.5625 528.1031,411.5156 Q528.1969,411.4688 528.3188,411.4688 Q528.5156,411.4688 528.6656,411.6281 Q528.825,411.7781 528.825,411.9844 Q528.825,412.1906 528.6188,412.4344 Q528.3188,412.7813 527.8406,412.9781 Q527.1938,413.25 526.4156,413.25 Q525.5063,413.25 524.7844,412.875 Q524.1938,412.575 523.7813,411.9375 Q523.3688,411.2906 523.3688,410.5219 L523.3688,409.8281 Q523.3688,409.0313 523.7344,408.3469 Q524.1094,407.6531 524.7656,407.2875 Q525.4219,406.9125 526.1625,406.9125 Q526.6031,406.9125 526.9875,407.0156 Q527.3813,407.1094 527.7094,407.325 Z " fill="#000000"/><text fill="#000000" font-family="sans-serif" font-size="8.4" lengthAdjust="spacing" textLength="88.8" x="538.35" y="413.2781">OrganizationRepository</text><line style="stroke:#181818;stroke-width:0.3;" x1="499.2" x2="646.8" y1="419.4" y2="419.4"/><line style="stroke:#181818;stroke-width:0.3;" x1="499.2" x2="646.8" y1="424.2" y2="424.2"/><text fill="#000000" font-family="sans-serif" font-size="8.4" lengthAdjust="spacing" textLength="101.4" x="502.2" y="435.6645">+findByName(String name)</text><text fill="#000000" font-family="sans-serif" font-size="8.4" lengthAdjust="spacing" textLength="141.6" x="502.2" y="446.8371">+findByVatNumber(String vatNumber)</text></g><!--class Repositories--><g id="elem_Repositories"><rect codeLine="49" fill="#F1F1F1" height="62.318" id="Repositories" rx="1.5" ry="1.5" style="stroke:#181818;stroke-width:0.3;" width="214.8" x="608.4" y="256.8"/><ellipse cx="689.55" cy="266.4" fill="#ADD1B2" rx="6.6" ry="6.6" style="stroke:#181818;stroke-width:0.6;"/><path d="M691.2094,263.925 Q691.3031,263.7938 691.4156,263.7281 Q691.5281,263.6625 691.6594,263.6625 Q691.8844,263.6625 692.025,263.8219 Q692.1656,263.9719 692.1656,264.3375 L692.1656,265.2094 Q692.1656,265.575 692.025,265.7344 Q691.8844,265.8938 691.6594,265.8938 Q691.4531,265.8938 691.3313,265.7719 Q691.2094,265.6594 691.1438,265.35 Q691.1156,265.1344 691.0031,265.0219 Q690.8063,264.7969 690.4406,264.6656 Q690.075,264.5344 689.7,264.5344 Q689.2406,264.5344 688.8562,264.7313 Q688.4812,264.9281 688.1813,265.3781 Q687.8906,265.8281 687.8906,266.4469 L687.8906,267.1031 Q687.8906,267.8438 688.425,268.3406 Q688.9594,268.8281 689.9156,268.8281 Q690.4781,268.8281 690.8719,268.6781 Q691.1062,268.5844 691.3594,268.3219 Q691.5188,268.1625 691.6031,268.1156 Q691.6969,268.0687 691.8188,268.0687 Q692.0156,268.0687 692.1656,268.2281 Q692.325,268.3781 692.325,268.5844 Q692.325,268.7906 692.1188,269.0344 Q691.8188,269.3812 691.3406,269.5781 Q690.6938,269.85 689.9156,269.85 Q689.0063,269.85 688.2844,269.475 Q687.6938,269.175 687.2813,268.5375 Q686.8688,267.8906 686.8688,267.1219 L686.8688,266.4281 Q686.8688,265.6312 687.2344,264.9469 Q687.6094,264.2531 688.2656,263.8875 Q688.9219,263.5125 689.6625,263.5125 Q690.1031,263.5125 690.4875,263.6156 Q690.8813,263.7094 691.2094,263.925 Z " fill="#000000"/><text fill="#000000" font-family="sans-serif" font-size="8.4" lengthAdjust="spacing" textLength="47.4" x="701.85" y="269.8781">Repositories</text><line style="stroke:#181818;stroke-width:0.3;" x1="609" x2="822.6" y1="276" y2="276"/><line style="stroke:#181818;stroke-width:0.3;" x1="609" x2="822.6" y1="280.8" y2="280.8"/><text fill="#000000" font-family="sans-serif" font-size="8.4" lengthAdjust="spacing" textLength="109.2" x="612" y="292.2645">+getInstance() : Repositories</text><text fill="#000000" font-family="sans-serif" font-size="8.4" lengthAdjust="spacing" textLength="166.8" x="612" y="303.4371">+getVehicleRepository() : VehicleRepository</text><text fill="#000000" font-family="sans-serif" font-size="8.4" lengthAdjust="spacing" textLength="207.6" x="612" y="314.6098">+getOrganizationRepository() : OrganizationRepository</text></g><!--class RegisterVehicleController--><g id="elem_RegisterVehicleController"><rect codeLine="55" fill="#F1F1F1" height="51.1453" id="RegisterVehicleController" rx="1.5" ry="1.5" style="stroke:#181818;stroke-width:0.3;" width="873.6" x="418.2" y="124.8"/><ellipse cx="804.15" cy="134.4" fill="#ADD1B2" rx="6.6" ry="6.6" style="stroke:#181818;stroke-width:0.6;"/><path d="M805.8094,131.925 Q805.9031,131.7938 806.0156,131.7281 Q806.1281,131.6625 806.2594,131.6625 Q806.4844,131.6625 806.625,131.8219 Q806.7656,131.9719 806.7656,132.3375 L806.7656,133.2094 Q806.7656,133.575 806.625,133.7344 Q806.4844,133.8937 806.2594,133.8937 Q806.0531,133.8937 805.9313,133.7719 Q805.8094,133.6594 805.7438,133.35 Q805.7156,133.1344 805.6031,133.0219 Q805.4063,132.7969 805.0406,132.6656 Q804.675,132.5344 804.3,132.5344 Q803.8406,132.5344 803.4563,132.7313 Q803.0813,132.9281 802.7813,133.3781 Q802.4906,133.8281 802.4906,134.4469 L802.4906,135.1031 Q802.4906,135.8438 803.025,136.3406 Q803.5594,136.8281 804.5156,136.8281 Q805.0781,136.8281 805.4719,136.6781 Q805.7063,136.5844 805.9594,136.3219 Q806.1188,136.1625 806.2031,136.1156 Q806.2969,136.0688 806.4187,136.0688 Q806.6156,136.0688 806.7656,136.2281 Q806.925,136.3781 806.925,136.5844 Q806.925,136.7906 806.7188,137.0344 Q806.4187,137.3813 805.9406,137.5781 Q805.2937,137.85 804.5156,137.85 Q803.6062,137.85 802.8844,137.475 Q802.2937,137.175 801.8813,136.5375 Q801.4688,135.8906 801.4688,135.1219 L801.4688,134.4281 Q801.4688,133.6313 801.8344,132.9469 Q802.2094,132.2531 802.8656,131.8875 Q803.5219,131.5125 804.2625,131.5125 Q804.7031,131.5125 805.0875,131.6156 Q805.4812,131.7094 805.8094,131.925 Z " fill="#000000"/><text fill="#000000" font-family="sans-serif" font-size="8.4" lengthAdjust="spacing" textLength="96.6" x="816.45" y="137.8781">RegisterVehicleController</text><line style="stroke:#181818;stroke-width:0.3;" x1="418.8" x2="1291.2" y1="144" y2="144"/><text fill="#000000" font-family="sans-serif" font-size="8.4" lengthAdjust="spacing" textLength="101.4" x="421.8" y="155.4645">+RegisterVehicleController</text><line style="stroke:#181818;stroke-width:0.3;" x1="418.8" x2="1291.2" y1="159.9727" y2="159.9727"/><text fill="#000000" font-family="sans-serif" font-size="8.4" lengthAdjust="spacing" textLength="866.4" x="421.8" y="171.4371">+Vehicle registerVehicle(VehicleFleetMnager manager, String brand, String model, String type, Double tareWeight, Double grossWeight, Integer currentKm, Date registerDate, Date acquisitionDate, Integer maintenanceFrequency)</text></g><!--class VehicleRegistrationUI--><g id="elem_VehicleRegistrationUI"><rect codeLine="60" fill="#F1F1F1" height="28.8" id="VehicleRegistrationUI" rx="1.5" ry="1.5" style="stroke:#181818;stroke-width:0.3;" width="99.6" x="232.8" y="135.9"/><ellipse cx="241.8" cy="145.5" fill="#ADD1B2" rx="6.6" ry="6.6" style="stroke:#181818;stroke-width:0.6;"/><path d="M243.4594,143.025 Q243.5531,142.8937 243.6656,142.8281 Q243.7781,142.7625 243.9094,142.7625 Q244.1344,142.7625 244.275,142.9219 Q244.4156,143.0719 244.4156,143.4375 L244.4156,144.3094 Q244.4156,144.675 244.275,144.8344 Q244.1344,144.9938 243.9094,144.9938 Q243.7031,144.9938 243.5812,144.8719 Q243.4594,144.7594 243.3937,144.45 Q243.3656,144.2344 243.2531,144.1219 Q243.0562,143.8969 242.6906,143.7656 Q242.325,143.6344 241.95,143.6344 Q241.4906,143.6344 241.1063,143.8312 Q240.7313,144.0281 240.4312,144.4781 Q240.1406,144.9281 240.1406,145.5469 L240.1406,146.2031 Q240.1406,146.9438 240.675,147.4406 Q241.2094,147.9281 242.1656,147.9281 Q242.7281,147.9281 243.1219,147.7781 Q243.3563,147.6844 243.6094,147.4219 Q243.7687,147.2625 243.8531,147.2156 Q243.9469,147.1688 244.0688,147.1688 Q244.2656,147.1688 244.4156,147.3281 Q244.575,147.4781 244.575,147.6844 Q244.575,147.8906 244.3687,148.1344 Q244.0688,148.4813 243.5906,148.6781 Q242.9438,148.95 242.1656,148.95 Q241.2563,148.95 240.5344,148.575 Q239.9438,148.275 239.5313,147.6375 Q239.1187,146.9906 239.1187,146.2219 L239.1187,145.5281 Q239.1187,144.7313 239.4844,144.0469 Q239.8594,143.3531 240.5156,142.9875 Q241.1719,142.6125 241.9125,142.6125 Q242.3531,142.6125 242.7375,142.7156 Q243.1313,142.8094 243.4594,143.025 Z " fill="#000000"/><text fill="#000000" font-family="sans-serif" font-size="8.4" lengthAdjust="spacing" textLength="80.4" x="250.2" y="148.9781">VehicleRegistrationUI</text><line style="stroke:#181818;stroke-width:0.3;" x1="233.4" x2="331.8" y1="155.1" y2="155.1"/><line style="stroke:#181818;stroke-width:0.3;" x1="233.4" x2="331.8" y1="159.9" y2="159.9"/></g><g id="elem_GMN10"><path d="M1313.1,131.7 L1313.1,147.9 L1291.818,150.3 L1313.1,152.7 L1313.1,168.8238 A0,0 0 0 0 1313.1,168.8238 L1529.7,168.8238 A0,0 0 0 0 1529.7,168.8238 L1529.7,137.7 L1523.7,131.7 L1313.1,131.7 A0,0 0 0 0 1313.1,131.7 " fill="#FEFFDD" style="stroke:#181818;stroke-width:0.3;"/><path d="M1523.7,131.7 L1523.7,137.7 L1529.7,137.7 L1523.7,131.7 " fill="#FEFFDD" style="stroke:#181818;stroke-width:0.3;"/><text fill="#000000" font-family="sans-serif" font-size="7.8" lengthAdjust="spacing" textLength="175.2" x="1316.7" y="143.117">- Vehicle details are obtained from the VFM's input</text><text fill="#000000" font-family="sans-serif" font-size="7.8" lengthAdjust="spacing" textLength="204" x="1316.7" y="153.4916">- Registration triggers persistence in the VehicleRepository</text><text fill="#000000" font-family="sans-serif" font-size="7.8" lengthAdjust="spacing" textLength="115.2" x="1316.7" y="163.8662">- Updates the Organization's fleet</text></g><g id="elem_GMN13"><path d="M35.7,136.8 L35.7,163.5492 L211.5,163.5492 L211.5,142.8 L205.5,136.8 L35.7,136.8 " fill="#FEFFDD" style="stroke:#181818;stroke-width:0.3;"/><path d="M205.5,136.8 L205.5,142.8 L211.5,142.8 L205.5,136.8 " fill="#FEFFDD" style="stroke:#181818;stroke-width:0.6;"/><text fill="#000000" font-family="sans-serif" font-size="7.8" lengthAdjust="spacing" textLength="121.2" x="39.3" y="148.217">- UI for VFM to input vehicle details</text><text fill="#000000" font-family="sans-serif" font-size="7.8" lengthAdjust="spacing" textLength="163.2" x="39.3" y="158.5916">- Communicates with RegisterVehicleController</text></g><g id="elem_GMN16"><path d="M268.2,274.5 L268.2,301.2492 A0,0 0 0 0 268.2,301.2492 L389.4,301.2492 A0,0 0 0 0 389.4,301.2492 L389.4,290.4 L410.142,288 L389.4,285.6 L389.4,280.5 L383.4,274.5 L268.2,274.5 A0,0 0 0 0 268.2,274.5 " fill="#FEFFDD" style="stroke:#181818;stroke-width:0.3;"/><path d="M383.4,274.5 L383.4,280.5 L389.4,280.5 L383.4,274.5 " fill="#FEFFDD" style="stroke:#181818;stroke-width:0.3;"/><text fill="#000000" font-family="sans-serif" font-size="7.8" lengthAdjust="spacing" textLength="105" x="271.8" y="285.917">- Manages the fleet of vehicles</text><text fill="#000000" font-family="sans-serif" font-size="7.8" lengthAdjust="spacing" textLength="108.6" x="271.8" y="296.2916">- Handles organizational details</text></g><g id="elem_GMN19"><path d="M34.2,27.3 L34.2,54.0492 L211.8,54.0492 L211.8,33.3 L205.8,27.3 L34.2,27.3 " fill="#FEFFDD" style="stroke:#181818;stroke-width:0.3;"/><path d="M205.8,27.3 L205.8,33.3 L211.8,33.3 L205.8,27.3 " fill="#FEFFDD" style="stroke:#181818;stroke-width:0.6;"/><text fill="#000000" font-family="sans-serif" font-size="7.8" lengthAdjust="spacing" textLength="165" x="37.8" y="38.717">- Responsible for managing vehicle registrations</text><text fill="#000000" font-family="sans-serif" font-size="7.8" lengthAdjust="spacing" textLength="130.8" x="37.8" y="49.0916">- Interfaces with the UI and controllers</text></g><!--link GMN13 to VehicleRegistrationUI--><g id="link_GMN13_VehicleRegistrationUI"><path d="M211.656,150.3 C221.514,150.3 229.602,150.3 229.602,150.3 C229.602,150.3 230.766,150.3 232.758,150.3 " fill="none" id="GMN13-VehicleRegistrationUI" style="stroke:#181818;stroke-width:0.6;stroke-dasharray:7.0,7.0;"/></g><!--link GMN19 to VehicleFleetManager--><g id="link_GMN19_VehicleFleetManager"><path d="M211.98,40.8 C221.604,40.8 229.398,40.8 229.398,40.8 C229.398,40.8 230.634,40.8 232.728,40.8 " fill="none" id="GMN19-VehicleFleetManager" style="stroke:#181818;stroke-width:0.6;stroke-dasharray:7.0,7.0;"/></g><!--link VehicleFleetManager to VehicleRegistrationUI--><g id="link_VehicleFleetManager_VehicleRegistrationUI"><path codeLine="85" d="M282.6,77.46 C282.6,97.398 282.6,117.432 282.6,132.096 " fill="none" id="VehicleFleetManager-to-VehicleRegistrationUI" style="stroke:#181818;stroke-width:0.6;"/><polygon fill="#181818" points="282.6,135.696,285,130.296,282.6,132.696,280.2,130.296,282.6,135.696" style="stroke:#181818;stroke-width:0.6;"/><text fill="#000000" font-family="sans-serif" font-size="7.8" lengthAdjust="spacing" textLength="46.2" x="283.2" y="104.417">interacts with</text></g><!--link VehicleRegistrationUI to RegisterVehicleController--><g id="link_VehicleRegistrationUI_RegisterVehicleController"><path codeLine="86" d="M309.504,135.786 C335.154,121.944 369.9,103.2 369.9,103.2 C369.9,103.2 418.5,103.2 418.5,103.2 C418.5,103.2 512.2348,113.3137 614.9668,124.4017 " fill="none" id="VehicleRegistrationUI-to-RegisterVehicleController" style="stroke:#181818;stroke-width:0.6;"/><polygon fill="#181818" points="618.546,124.788,613.4347,121.8224,615.5633,124.4661,612.9196,126.5947,618.546,124.788" style="stroke:#181818;stroke-width:0.6;"/><text fill="#000000" font-family="sans-serif" font-size="7.8" lengthAdjust="spacing" textLength="47.4" x="370.5" y="104.417">sends data to</text></g><!--link RegisterVehicleController to Repositories--><g id="link_RegisterVehicleController_Repositories"><path codeLine="87" d="M807.534,175.854 C789.582,185.292 773.4,193.8 773.4,193.8 C773.4,193.8 753.3448,226.386 736.5448,253.686 " fill="none" id="RegisterVehicleController-to-Repositories" style="stroke:#181818;stroke-width:0.6;"/><polygon fill="#181818" points="734.658,256.752,739.5321,253.4109,736.2303,254.197,735.4441,250.8952,734.658,256.752" style="stroke:#181818;stroke-width:0.6;"/><text fill="#000000" font-family="sans-serif" font-size="7.8" lengthAdjust="spacing" textLength="64.8" x="774" y="202.817">retrieves instances</text></g><!--link Repositories to VehicleRepository--><g id="link_Repositories_VehicleRepository"><path codeLine="88" d="M721.05,319.236 C725.226,343.602 730.3895,373.7198 734.2955,396.4958 " fill="none" id="Repositories-to-VehicleRepository" style="stroke:#181818;stroke-width:0.6;"/><polygon fill="#181818" points="734.904,400.044,736.3567,394.316,734.3969,397.0872,731.6258,395.1274,734.904,400.044" style="stroke:#181818;stroke-width:0.6;"/><text fill="#000000" font-family="sans-serif" font-size="7.8" lengthAdjust="spacing" textLength="33.6" x="732" y="379.817">accesses</text></g><!--link Repositories to OrganizationRepository--><g id="link_Repositories_OrganizationRepository"><path codeLine="89" d="M683.754,319.236 C658.26,343.602 625.6423,374.7804 601.8163,397.5564 " fill="none" id="Repositories-to-OrganizationRepository" style="stroke:#181818;stroke-width:0.6;"/><polygon fill="#181818" points="599.214,400.044,604.7758,398.0475,601.3826,397.971,601.459,394.5778,599.214,400.044" style="stroke:#181818;stroke-width:0.6;"/><text fill="#000000" font-family="sans-serif" font-size="7.8" lengthAdjust="spacing" textLength="33.6" x="627.6" y="379.817">accesses</text></g><!--link Organization to Vehicle--><g id="link_Organization_Vehicle"><path codeLine="90" d="M483.252,352.872 C478.716,377.682 474.6,400.2 474.6,400.2 C474.6,400.2 474.6,451.2 474.6,451.2 C474.6,451.2 485.4551,470.2653 499.7171,495.3213 " fill="none" id="Organization-to-Vehicle" style="stroke:#181818;stroke-width:0.6;"/><polygon fill="#181818" points="501.498,498.45,500.9125,492.5698,500.014,495.8428,496.7409,494.9442,501.498,498.45" style="stroke:#181818;stroke-width:0.6;"/><text fill="#000000" font-family="sans-serif" font-size="7.8" lengthAdjust="spacing" textLength="12.6" x="475.2" y="429.017">has</text></g><!--reverse link Organization to OrganizationRepository--><g id="link_Organization_OrganizationRepository"><path codeLine="91" d="M533.5009,355.9792 C543.1069,372.7792 551.106,386.784 558.738,400.14 " fill="none" id="Organization-backto-OrganizationRepository" style="stroke:#181818;stroke-width:0.6;stroke-dasharray:7.0,7.0;"/><polygon fill="#181818" points="531.714,352.854,532.3109,358.7331,533.2031,355.4583,536.4779,356.3505,531.714,352.854" style="stroke:#181818;stroke-width:0.6;"/><text fill="#000000" font-family="sans-serif" font-size="7.8" lengthAdjust="spacing" textLength="27.6" x="547.8" y="379.817">persists</text></g><!--link VehicleFleetManager to Organization--><g id="link_VehicleFleetManager_Organization"><path codeLine="93" d="M317.418,77.418 C326.994,87.324 334.8,95.4 334.8,95.4 C334.8,95.4 385.2,175.8 385.2,175.8 C385.2,175.8 404.8333,195.7517 429.2413,220.5617 " fill="none" id="VehicleFleetManager-to-Organization" style="stroke:#181818;stroke-width:0.6;"/><polygon fill="#181818" points="431.766,223.128,429.6898,217.5954,429.6621,220.9894,426.2681,220.9617,431.766,223.128" style="stroke:#181818;stroke-width:0.6;"/><text fill="#000000" font-family="sans-serif" font-size="7.8" lengthAdjust="spacing" textLength="21.6" x="385.8" y="153.617">part of</text></g><!--link VehicleFleetManager to Vehicle--><g id="link_VehicleFleetManager_Vehicle"><path codeLine="94" d="M232.776,71.292 C226.71,74.934 222.6,77.4 222.6,77.4 C222.6,77.4 25.2,124.8 25.2,124.8 C25.2,124.8 3.6,149.7 3.6,149.7 C3.6,149.7 3.6,149.7 3.6,426.3 C3.6,426.3 158.8972,467.2912 303.8752,505.5592 " fill="none" id="VehicleFleetManager-to-Vehicle" style="stroke:#181818;stroke-width:0.6;"/><polygon fill="#181818" points="307.356,506.478,302.7473,502.7793,304.4553,505.7124,301.5223,507.4204,307.356,506.478" style="stroke:#181818;stroke-width:0.6;"/><text fill="#000000" font-family="sans-serif" font-size="7.8" lengthAdjust="spacing" textLength="30" x="4.2" y="291.317">registers</text></g><!--link VehicleRepository to Vehicle--><g id="link_VehicleRepository_Vehicle"><path codeLine="96" d="M704.256,451.344 C685.77,464.592 664.9901,479.4808 641.4161,496.3768 " fill="none" id="VehicleRepository-to-Vehicle" style="stroke:#181818;stroke-width:0.6;stroke-dasharray:7.0,7.0;"/><polygon fill="#181818" points="638.49,498.474,644.2772,497.2789,640.9284,496.7264,641.481,493.3775,638.49,498.474" style="stroke:#181818;stroke-width:0.6;"/><text fill="#000000" font-family="sans-serif" font-size="7.8" lengthAdjust="spacing" textLength="27.6" x="675.6" y="478.217">persists</text></g><!--link RegisterVehicleController to Vehicle--><g id="link_RegisterVehicleController_Vehicle"><path codeLine="97" d="M852.402,175.86 C846.786,229.878 834,352.8 834,352.8 C834,352.8 820.8,451.2 820.8,451.2 C820.8,451.2 770.9609,472.0522 711.0029,497.1442 " fill="none" id="RegisterVehicleController-to-Vehicle" style="stroke:#181818;stroke-width:0.6;stroke-dasharray:7.0,7.0;"/><polygon fill="#181818" points="707.682,498.534,713.5899,498.6633,710.4494,497.3758,711.7369,494.2354,707.682,498.534" style="stroke:#181818;stroke-width:0.6;"/><text fill="#000000" font-family="sans-serif" font-size="7.8" lengthAdjust="spacing" textLength="25.8" x="831.6" y="379.817">creates</text></g><!--link RegisterVehicleController to Organization--><g id="link_RegisterVehicleController_Organization"><path codeLine="98" d="M766.446,175.83 C692.19,196.74 598.2,223.2 598.2,223.2 C598.2,223.2 593.7563,225.9596 582.8063,232.7756 " fill="none" id="RegisterVehicleController-to-Organization" style="stroke:#181818;stroke-width:0.6;stroke-dasharray:7.0,7.0;"/><polygon fill="#181818" points="579.75,234.678,585.6027,233.8619,582.2969,233.0926,583.0661,229.7869,579.75,234.678" style="stroke:#181818;stroke-width:0.6;"/><text fill="#000000" font-family="sans-serif" font-size="7.8" lengthAdjust="spacing" textLength="44.4" x="696.6" y="202.817">updates fleet</text></g><!--SRC=[ZLNVJzim47xFNt5lj295Uwucf0s4g3QOD0HxTfDBOf7OmNQAohJ_VMSx2NQR55wWET-Fx_jyTpxJproqJB466YbaLYdP81ZLOV9-qhBicPNuOFOrWiBCC57MeOEkM2vVkIYXOBKEJsekqEnRX5RMU_iHd6Krq_gRCOflEuERJ8e7_eRm9KdS2JnXnRCQRsf4SyS48L3mDm5OmGF5K3716Wo_iM6y3Wrj9ONrE2VK9TS6LPzpiKp-7PI9KsyL4tbeQ6IEKMxBodrVosvBuOOf_8Eyh4neBPNKEZ1lX86iKmg5-T6CbW7TDJCu6bdsqd7D3PSYiXD9OL0maU6DmfSEHRPt70Tk3dlg4QSEPngWIqDCwJkOD4AH7fPF9-iUo_WRMqbHKksTeEUmbR969a2p7Iu6hNV-_pB43GKN-VVzdOMz25KFYlnI9HFyZLbKftjXnynzrsnHXKQMvmgrdcgHYIRwIMfyxS5TGc7RqE6bB8FK7_BfVq_JiivnaHADQ_V53ESZTRrczqH-4GYn3CwU1Y4MXye4DSQy77MVcQ1iX3RskXTBM4SkWyFHdJlF8-lWFit4nKmVXG2Z-RsImYXPr_r6E9y_ZsxaS0j46yOlcCOlcZHQ16cq1T9m1QJ7yvzE37zgHnTjWM3Wx5mTJ9qp7OtU4FlP4RGPbTFoSKC2MGyXRIqB1MHnKgxLA5UEXcP10p43kQNV0dCew8K0Ko4ytToTQQ1btldL5fQb5uINX5X3ItziAO9ClZvmeZzMyDZcn5KxZx0Rg8OVFHGvM1OzbneBHsMIjC-uWK8gYnECz427GHseERyhsJITu9ah_yfDTKAU6H0XO9VJlrUUZODllVhYlkejzHNz1Xc4ide4Tffj-2RsukjM2irjsrdIhetTj4Ujx_NHmrk2gc3PGDf29Sa85cGZuH38r7kyedTVh2vdMcyDjbyLouolaKoxhLnVKfRvAL-39Y0Qg4SOtMOoxpaWYbRQclXJI-8ERSVwhQQJoEM8oRXfrpIGvAxd8cOMT10MFLiZss7Crb2ns2V8Sc5l_Y8kGX7zMEdJjt8On9HjeizSf5FCI_nU8uHr4RgEQEQl9Gx85Dff-y3_07xNRmY_3lu3]--></g></svg>