<?xml version="1.0" encoding="us-ascii" standalone="no"?><svg xmlns="http://www.w3.org/2000/svg" xmlns:xlink="http://www.w3.org/1999/xlink" contentStyleType="text/css" height="380px" preserveAspectRatio="none" style="width:2994px;height:380px;background:#FFFFFF;" version="1.1" viewBox="0 0 2994 380" width="2994px" zoomAndPan="magnify"><defs/><g><rect fill="#FFFFFF" height="215.4063" style="stroke:#181818;stroke-width:1.0;" width="10" x="1442" y="90.5332"/><rect fill="#FFFFFF" height="42.291" style="stroke:#181818;stroke-width:1.0;" width="10" x="1447" y="218.3574"/><rect fill="none" height="170.1152" style="stroke:#000000;stroke-width:1.5;" width="1600" x="1388" y="105.5332"/><line style="stroke:#181818;stroke-width:0.5;stroke-dasharray:5.0,5.0;" x1="1447" x2="1447" y1="57.2422" y2="323.9395"/><line style="stroke:#181818;stroke-width:0.5;stroke-dasharray:5.0,5.0;" x1="2946" x2="2946" y1="165.9453" y2="323.9395"/><rect fill="#E3E3E3" height="51.2422" rx="2.5" ry="2.5" style="stroke:#181818;stroke-width:0.5;" width="98" x="1398" y="5"/><text fill="#000000" font-family="sans-serif" font-size="14" lengthAdjust="spacing" textLength="77" x="1408.5" y="27.1074">organization</text><text fill="#000000" font-family="sans-serif" font-size="14" lengthAdjust="spacing" textLength="84" x="1405" y="45.7285">:Organization</text><rect fill="#E3E3E3" height="51.2422" rx="2.5" ry="2.5" style="stroke:#181818;stroke-width:0.5;" width="98" x="1398" y="322.9395"/><text fill="#000000" font-family="sans-serif" font-size="14" lengthAdjust="spacing" textLength="77" x="1408.5" y="345.0469">organization</text><text fill="#000000" font-family="sans-serif" font-size="14" lengthAdjust="spacing" textLength="84" x="1405" y="363.668">:Organization</text><rect fill="#E3E3E3" height="51.2422" rx="2.5" ry="2.5" style="stroke:#181818;stroke-width:0.5;" width="64" x="2914" y="322.9395"/><text fill="#000000" font-family="sans-serif" font-size="14" lengthAdjust="spacing" textLength="44" x="2924" y="345.0469">vehicle</text><text fill="#000000" font-family="sans-serif" font-size="14" lengthAdjust="spacing" textLength="50" x="2921" y="363.668">:Vehicle</text><rect fill="#FFFFFF" height="215.4063" style="stroke:#181818;stroke-width:1.0;" width="10" x="1442" y="90.5332"/><rect fill="#FFFFFF" height="42.291" style="stroke:#181818;stroke-width:1.0;" width="10" x="1447" y="218.3574"/><polygon fill="#181818" points="1430,86.5332,1440,90.5332,1430,94.5332,1434,90.5332" style="stroke:#181818;stroke-width:1.0;"/><line style="stroke:#181818;stroke-width:1.0;" x1="0" x2="1436" y1="90.5332" y2="90.5332"/><text fill="#000000" font-family="sans-serif" font-size="13" lengthAdjust="spacing" textLength="1423" x="7" y="85.2705">addVehicle(vehicleModel,vehicleBrand,vehicleType, vehicleTareWeight, vehicleGrossWeight, vehicleCurrentKm, vehicleRegisterDate, vehicleAcquisitionDate, vehicleMaintenanceFrequencyKm, vehiclePlateNumber, vehicleLastMaintenanceDate, vfm)</text><path d="M1388,105.5332 L1527,105.5332 L1527,114.8242 L1517,124.8242 L1388,124.8242 L1388,105.5332 " fill="#EEEEEE" style="stroke:#000000;stroke-width:1.5;"/><rect fill="none" height="170.1152" style="stroke:#000000;stroke-width:1.5;" width="1600" x="1388" y="105.5332"/><text fill="#000000" font-family="sans-serif" font-size="13" font-weight="bold" lengthAdjust="spacing" textLength="94" x="1403" y="120.5615">Create Vehicle</text><polygon fill="#181818" points="2902,144.1152,2912,148.1152,2902,152.1152,2906,148.1152" style="stroke:#181818;stroke-width:1.0;"/><line style="stroke:#181818;stroke-width:1.0;" x1="1452" x2="2908" y1="148.1152" y2="148.1152"/><text fill="#000000" font-family="sans-serif" font-size="13" lengthAdjust="spacing" textLength="1438" x="1459" y="142.8525">createVehicle(vehicleModel,vehicleBrand,vehicleType, vehicleTareWeight, vehicleGrossWeight, vehicleCurrentKm, vehicleRegisterDate, vehicleAcquisitionDate, vehicleMaintenanceFrequencyKm, vehiclePlateNumber, vehicleLastMaintenanceDate, vfm)</text><rect fill="#E3E3E3" height="51.2422" rx="2.5" ry="2.5" style="stroke:#181818;stroke-width:0.5;" width="64" x="2914" y="124.8242"/><text fill="#000000" font-family="sans-serif" font-size="14" lengthAdjust="spacing" textLength="44" x="2924" y="146.9316">vehicle</text><text fill="#000000" font-family="sans-serif" font-size="14" lengthAdjust="spacing" textLength="50" x="2921" y="165.5527">:Vehicle</text><line style="stroke:#181818;stroke-width:1.0;" x1="1452" x2="1499" y1="205.3574" y2="205.3574"/><line style="stroke:#181818;stroke-width:1.0;" x1="1499" x2="1499" y1="205.3574" y2="218.3574"/><line style="stroke:#181818;stroke-width:1.0;" x1="1458" x2="1499" y1="218.3574" y2="218.3574"/><polygon fill="#181818" points="1468,214.3574,1458,218.3574,1468,222.3574,1464,218.3574" style="stroke:#181818;stroke-width:1.0;"/><text fill="#000000" font-family="sans-serif" font-size="13" lengthAdjust="spacing" textLength="111" x="1464" y="200.0947">addVehicle(vehicle)</text><line style="stroke:#181818;stroke-width:1.0;" x1="1457" x2="1499" y1="259.6484" y2="259.6484"/><line style="stroke:#181818;stroke-width:1.0;" x1="1499" x2="1499" y1="259.6484" y2="272.6484"/><line style="stroke:#181818;stroke-width:1.0;" x1="1452" x2="1499" y1="272.6484" y2="272.6484"/><polygon fill="#181818" points="1462,268.6484,1452,272.6484,1462,276.6484,1458,272.6484" style="stroke:#181818;stroke-width:1.0;"/><text fill="#000000" font-family="sans-serif" font-size="13" lengthAdjust="spacing" textLength="133" x="1464" y="254.3857">validateVehicle(vehicle)</text><polygon fill="#181818" points="11,301.9395,1,305.9395,11,309.9395,7,305.9395" style="stroke:#181818;stroke-width:1.0;"/><line style="stroke:#181818;stroke-width:1.0;stroke-dasharray:2.0,2.0;" x1="5" x2="1446" y1="305.9395" y2="305.9395"/><text fill="#000000" font-family="sans-serif" font-size="13" lengthAdjust="spacing" textLength="39" x="17" y="300.6768">vehicle</text><!--SRC=[vL91JiCm4Bpx5HOdMhKVY10I5D43bAA2uC9biRUErMIThfsYydhSr4sJ5bw0JpkpCoFjo7vbgGA6KfQEdChPbIW3roXykwb0hS3WIzWMA1bL0395L-1pqExBaf5BA3mA4UbWbQs0WhnmR83iDmJhw8EoUGTUIF1olfZs3HlChIemQj_sKoDBin3Zwvqbaw1ruYwJO-Oq5gC4RXb87y3hjiAHF01WV4Thyj1IKtRUdt2JcXafF9Gjiq1ZVK2-Wt1Ckr7hsdgxEwV7py1IG09IUC-uhf7KjfFrN4JnKrr-8hVS8_ZGiQMuPJaG0bImcuYRjcHyXbrToGdZZcoxaUb5bOmz9NuupAHgbF-ci9CY_lWmWsDZPmN_bh21mkhp6WSzWyPULhD3qllXQZnk4hF32U9K_WC0]--></g></svg>