<?xml version="1.0" encoding="us-ascii" standalone="no"?><svg xmlns="http://www.w3.org/2000/svg" xmlns:xlink="http://www.w3.org/1999/xlink" contentStyleType="text/css" height="1637px" preserveAspectRatio="none" style="width:1739px;height:1637px;background:#FFFFFF;" version="1.1" viewBox="0 0 1739 1637" width="1739px" zoomAndPan="magnify"><defs/><g><rect fill="#FFFFFF" height="1442.5137" style="stroke:#181818;stroke-width:1.0;" width="10" x="78.5" y="93.6211"/><rect fill="#FFFFFF" height="649.8203" style="stroke:#181818;stroke-width:1.0;" width="10" x="436.5" y="116.9121"/><rect fill="#FFFFFF" height="219.0371" style="stroke:#181818;stroke-width:1.0;" width="10" x="436.5" y="798.0234"/><rect fill="#FFFFFF" height="127.1641" style="stroke:#181818;stroke-width:1.0;" width="10" x="436.5" y="1048.3516"/><rect fill="#FFFFFF" height="329.3281" style="stroke:#181818;stroke-width:1.0;" width="10" x="436.5" y="1206.8066"/><rect fill="#FFFFFF" height="577.2383" style="stroke:#181818;stroke-width:1.0;" width="10" x="759.5" y="158.2031"/><rect fill="#FFFFFF" height="90.543" style="stroke:#181818;stroke-width:1.0;" width="10" x="764.5" y="262.4063"/><rect fill="#FFFFFF" height="93.873" style="stroke:#181818;stroke-width:1.0;" width="10" x="759.5" y="891.8965"/><rect fill="#FFFFFF" height="274.7461" style="stroke:#181818;stroke-width:1.0;" width="10" x="759.5" y="1238.0977"/><rect fill="#FFFFFF" height="31.291" style="stroke:#181818;stroke-width:1.0;" width="10" x="927.5" y="191.8242"/><rect fill="#FFFFFF" height="31.291" style="stroke:#181818;stroke-width:1.0;" width="10" x="1034.5" y="391.2402"/><rect fill="#FFFFFF" height="31.291" style="stroke:#181818;stroke-width:1.0;" width="10" x="1034.5" y="453.8223"/><rect fill="#FFFFFF" height="31.291" style="stroke:#181818;stroke-width:1.0;" width="10" x="1160.5" y="547.6953"/><rect fill="#FFFFFF" height="31.291" style="stroke:#181818;stroke-width:1.0;" width="10" x="1304" y="923.1875"/><rect fill="#FFFFFF" height="38.291" style="stroke:#181818;stroke-width:1.0;" width="10" x="1304" y="1105.9336"/><rect fill="#FFFFFF" height="31.291" style="stroke:#181818;stroke-width:1.0;" width="10" x="1411.5" y="672.8594"/><rect fill="#FFFFFF" height="31.291" style="stroke:#181818;stroke-width:1.0;" width="10" x="1411.5" y="829.3145"/><rect fill="#FFFFFF" height="250.7461" style="stroke:#181818;stroke-width:1.0;" width="10" x="1501" y="1294.3887"/><rect fill="#FFFFFF" height="42.291" style="stroke:#181818;stroke-width:1.0;" width="10" x="1506" y="1359.9707"/><rect fill="#FFFFFF" height="42.291" style="stroke:#181818;stroke-width:1.0;" width="10" x="1506" y="1448.5527"/><rect fill="none" height="50.582" style="stroke:#000000;stroke-width:1.5;" width="1016" x="369" y="1063.3516"/><rect fill="none" height="196.4551" style="stroke:#000000;stroke-width:1.5;" width="285" x="1448" y="1309.3887"/><line style="stroke:#181818;stroke-width:0.5;stroke-dasharray:5.0,5.0;" x1="83" x2="83" y1="83.6211" y2="1554.1348"/><line style="stroke:#181818;stroke-width:0.5;stroke-dasharray:5.0,5.0;" x1="441" x2="441" y1="83.6211" y2="1554.1348"/><line style="stroke:#181818;stroke-width:0.5;stroke-dasharray:5.0,5.0;" x1="764" x2="764" y1="156.7227" y2="1554.1348"/><line style="stroke:#181818;stroke-width:0.5;stroke-dasharray:5.0,5.0;" x1="932" x2="932" y1="83.6211" y2="1554.1348"/><line style="stroke:#181818;stroke-width:0.5;stroke-dasharray:5.0,5.0;" x1="1039" x2="1039" y1="83.6211" y2="1554.1348"/><line style="stroke:#181818;stroke-width:0.5;stroke-dasharray:5.0,5.0;" x1="1165" x2="1165" y1="83.6211" y2="1554.1348"/><line style="stroke:#181818;stroke-width:0.5;stroke-dasharray:5.0,5.0;" x1="1309" x2="1309" y1="83.6211" y2="1554.1348"/><line style="stroke:#181818;stroke-width:0.5;stroke-dasharray:5.0,5.0;" x1="1416" x2="1416" y1="83.6211" y2="1554.1348"/><line style="stroke:#181818;stroke-width:0.5;stroke-dasharray:5.0,5.0;" x1="1506" x2="1506" y1="83.6211" y2="1554.1348"/><text fill="#000000" font-family="sans-serif" font-size="14" lengthAdjust="spacing" textLength="151" x="5" y="80.1074">Green Spaces Manager</text><ellipse cx="83.5" cy="13.5" fill="#E3E3E3" rx="8" ry="8" style="stroke:#181818;stroke-width:0.5;"/><path d="M83.5,21.5 L83.5,48.5 M70.5,29.5 L96.5,29.5 M83.5,48.5 L70.5,63.5 M83.5,48.5 L96.5,63.5 " fill="none" style="stroke:#181818;stroke-width:0.5;"/><text fill="#000000" font-family="sans-serif" font-size="14" lengthAdjust="spacing" textLength="151" x="5" y="1568.2422">Green Spaces Manager</text><ellipse cx="83.5" cy="1580.2559" fill="#E3E3E3" rx="8" ry="8" style="stroke:#181818;stroke-width:0.5;"/><path d="M83.5,1588.2559 L83.5,1615.2559 M70.5,1596.2559 L96.5,1596.2559 M83.5,1615.2559 L70.5,1630.2559 M83.5,1615.2559 L96.5,1630.2559 " fill="none" style="stroke:#181818;stroke-width:0.5;"/><rect fill="#E3E3E3" height="32.6211" rx="2.5" ry="2.5" style="stroke:#181818;stroke-width:0.5;" width="125" x="379" y="50"/><text fill="#000000" font-family="sans-serif" font-size="14" lengthAdjust="spacing" textLength="111" x="386" y="72.1074">:AssignVehiclesUI</text><rect fill="#E3E3E3" height="32.6211" rx="2.5" ry="2.5" style="stroke:#181818;stroke-width:0.5;" width="125" x="379" y="1553.1348"/><text fill="#000000" font-family="sans-serif" font-size="14" lengthAdjust="spacing" textLength="111" x="386" y="1575.2422">:AssignVehiclesUI</text><rect fill="#E3E3E3" height="32.6211" rx="2.5" ry="2.5" style="stroke:#181818;stroke-width:0.5;" width="175" x="677" y="1553.1348"/><text fill="#000000" font-family="sans-serif" font-size="14" lengthAdjust="spacing" textLength="161" x="684" y="1575.2422">:AssignVehiclesController</text><rect fill="#E3E3E3" height="32.6211" rx="2.5" ry="2.5" style="stroke:#181818;stroke-width:0.5;" width="97" x="884" y="50"/><text fill="#000000" font-family="sans-serif" font-size="14" lengthAdjust="spacing" textLength="83" x="891" y="72.1074">:Repositories</text><rect fill="#E3E3E3" height="32.6211" rx="2.5" ry="2.5" style="stroke:#181818;stroke-width:0.5;" width="97" x="884" y="1553.1348"/><text fill="#000000" font-family="sans-serif" font-size="14" lengthAdjust="spacing" textLength="83" x="891" y="1575.2422">:Repositories</text><rect fill="#E3E3E3" height="51.2422" rx="2.5" ry="2.5" style="stroke:#181818;stroke-width:0.5;" width="97" x="991" y="31.3789"/><text fill="#000000" font-family="sans-serif" font-size="14" lengthAdjust="spacing" textLength="74" x="1002.5" y="53.4863">repositories</text><text fill="#000000" font-family="sans-serif" font-size="14" lengthAdjust="spacing" textLength="83" x="998" y="72.1074">:Repositories</text><rect fill="#E3E3E3" height="51.2422" rx="2.5" ry="2.5" style="stroke:#181818;stroke-width:0.5;" width="97" x="991" y="1553.1348"/><text fill="#000000" font-family="sans-serif" font-size="14" lengthAdjust="spacing" textLength="74" x="1002.5" y="1575.2422">repositories</text><text fill="#000000" font-family="sans-serif" font-size="14" lengthAdjust="spacing" textLength="83" x="998" y="1593.8633">:Repositories</text><rect fill="#E3E3E3" height="51.2422" rx="2.5" ry="2.5" style="stroke:#181818;stroke-width:0.5;" width="135" x="1098" y="31.3789"/><text fill="#000000" font-family="sans-serif" font-size="14" lengthAdjust="spacing" textLength="116" x="1107.5" y="53.4863">agendaRepository</text><text fill="#000000" font-family="sans-serif" font-size="14" lengthAdjust="spacing" textLength="121" x="1105" y="72.1074">:AgendaRepository</text><rect fill="#E3E3E3" height="51.2422" rx="2.5" ry="2.5" style="stroke:#181818;stroke-width:0.5;" width="135" x="1098" y="1553.1348"/><text fill="#000000" font-family="sans-serif" font-size="14" lengthAdjust="spacing" textLength="116" x="1107.5" y="1575.2422">agendaRepository</text><text fill="#000000" font-family="sans-serif" font-size="14" lengthAdjust="spacing" textLength="121" x="1105" y="1593.8633">:AgendaRepository</text><rect fill="#E3E3E3" height="51.2422" rx="2.5" ry="2.5" style="stroke:#181818;stroke-width:0.5;" width="132" x="1243" y="31.3789"/><text fill="#000000" font-family="sans-serif" font-size="14" lengthAdjust="spacing" textLength="112" x="1253" y="53.4863">vehicleRepository</text><text fill="#000000" font-family="sans-serif" font-size="14" lengthAdjust="spacing" textLength="118" x="1250" y="72.1074">:VehicleRepository</text><rect fill="#E3E3E3" height="51.2422" rx="2.5" ry="2.5" style="stroke:#181818;stroke-width:0.5;" width="132" x="1243" y="1553.1348"/><text fill="#000000" font-family="sans-serif" font-size="14" lengthAdjust="spacing" textLength="112" x="1253" y="1575.2422">vehicleRepository</text><text fill="#000000" font-family="sans-serif" font-size="14" lengthAdjust="spacing" textLength="118" x="1250" y="1593.8633">:VehicleRepository</text><rect fill="#E3E3E3" height="32.6211" rx="2.5" ry="2.5" style="stroke:#181818;stroke-width:0.5;" width="63" x="1385" y="50"/><text fill="#000000" font-family="sans-serif" font-size="14" lengthAdjust="spacing" textLength="49" x="1392" y="72.1074">Agenda</text><rect fill="#E3E3E3" height="32.6211" rx="2.5" ry="2.5" style="stroke:#181818;stroke-width:0.5;" width="63" x="1385" y="1553.1348"/><text fill="#000000" font-family="sans-serif" font-size="14" lengthAdjust="spacing" textLength="49" x="1392" y="1575.2422">Agenda</text><rect fill="#E3E3E3" height="32.6211" rx="2.5" ry="2.5" style="stroke:#181818;stroke-width:0.5;" width="96" x="1458" y="50"/><text fill="#000000" font-family="sans-serif" font-size="14" lengthAdjust="spacing" textLength="82" x="1465" y="72.1074">AgendaEntry</text><rect fill="#E3E3E3" height="32.6211" rx="2.5" ry="2.5" style="stroke:#181818;stroke-width:0.5;" width="96" x="1458" y="1553.1348"/><text fill="#000000" font-family="sans-serif" font-size="14" lengthAdjust="spacing" textLength="82" x="1465" y="1575.2422">AgendaEntry</text><rect fill="#FFFFFF" height="1442.5137" style="stroke:#181818;stroke-width:1.0;" width="10" x="78.5" y="93.6211"/><rect fill="#FFFFFF" height="649.8203" style="stroke:#181818;stroke-width:1.0;" width="10" x="436.5" y="116.9121"/><rect fill="#FFFFFF" height="219.0371" style="stroke:#181818;stroke-width:1.0;" width="10" x="436.5" y="798.0234"/><rect fill="#FFFFFF" height="127.1641" style="stroke:#181818;stroke-width:1.0;" width="10" x="436.5" y="1048.3516"/><rect fill="#FFFFFF" height="329.3281" style="stroke:#181818;stroke-width:1.0;" width="10" x="436.5" y="1206.8066"/><rect fill="#FFFFFF" height="577.2383" style="stroke:#181818;stroke-width:1.0;" width="10" x="759.5" y="158.2031"/><rect fill="#FFFFFF" height="90.543" style="stroke:#181818;stroke-width:1.0;" width="10" x="764.5" y="262.4063"/><rect fill="#FFFFFF" height="93.873" style="stroke:#181818;stroke-width:1.0;" width="10" x="759.5" y="891.8965"/><rect fill="#FFFFFF" height="274.7461" style="stroke:#181818;stroke-width:1.0;" width="10" x="759.5" y="1238.0977"/><rect fill="#FFFFFF" height="31.291" style="stroke:#181818;stroke-width:1.0;" width="10" x="927.5" y="191.8242"/><rect fill="#FFFFFF" height="31.291" style="stroke:#181818;stroke-width:1.0;" width="10" x="1034.5" y="391.2402"/><rect fill="#FFFFFF" height="31.291" style="stroke:#181818;stroke-width:1.0;" width="10" x="1034.5" y="453.8223"/><rect fill="#FFFFFF" height="31.291" style="stroke:#181818;stroke-width:1.0;" width="10" x="1160.5" y="547.6953"/><rect fill="#FFFFFF" height="31.291" style="stroke:#181818;stroke-width:1.0;" width="10" x="1304" y="923.1875"/><rect fill="#FFFFFF" height="38.291" style="stroke:#181818;stroke-width:1.0;" width="10" x="1304" y="1105.9336"/><rect fill="#FFFFFF" height="31.291" style="stroke:#181818;stroke-width:1.0;" width="10" x="1411.5" y="672.8594"/><rect fill="#FFFFFF" height="31.291" style="stroke:#181818;stroke-width:1.0;" width="10" x="1411.5" y="829.3145"/><rect fill="#FFFFFF" height="250.7461" style="stroke:#181818;stroke-width:1.0;" width="10" x="1501" y="1294.3887"/><rect fill="#FFFFFF" height="42.291" style="stroke:#181818;stroke-width:1.0;" width="10" x="1506" y="1359.9707"/><rect fill="#FFFFFF" height="42.291" style="stroke:#181818;stroke-width:1.0;" width="10" x="1506" y="1448.5527"/><polygon fill="#181818" points="424.5,112.9121,434.5,116.9121,424.5,120.9121,428.5,116.9121" style="stroke:#181818;stroke-width:1.0;"/><line style="stroke:#181818;stroke-width:1.0;" x1="88.5" x2="430.5" y1="116.9121" y2="116.9121"/><text fill="#000000" font-family="sans-serif" font-size="13" font-weight="bold" lengthAdjust="spacing" textLength="7" x="95.5" y="111.6494">1</text><text fill="#000000" font-family="sans-serif" font-size="13" lengthAdjust="spacing" textLength="285" x="106.5" y="111.6494">asks to assign vehicles to an entry in the Agenda</text><polygon fill="#181818" points="665,144.2031,675,148.2031,665,152.2031,669,148.2031" style="stroke:#181818;stroke-width:1.0;"/><line style="stroke:#181818;stroke-width:1.0;" x1="446.5" x2="671" y1="148.2031" y2="148.2031"/><text fill="#000000" font-family="sans-serif" font-size="13" font-weight="bold" lengthAdjust="spacing" textLength="7" x="453.5" y="142.9404">2</text><text fill="#000000" font-family="sans-serif" font-size="13" lengthAdjust="spacing" textLength="36" x="464.5" y="142.9404">create</text><rect fill="#E3E3E3" height="32.6211" rx="2.5" ry="2.5" style="stroke:#181818;stroke-width:0.5;" width="175" x="677" y="124.9121"/><text fill="#000000" font-family="sans-serif" font-size="14" lengthAdjust="spacing" textLength="161" x="684" y="147.0195">:AssignVehiclesController</text><polygon fill="#181818" points="915.5,187.8242,925.5,191.8242,915.5,195.8242,919.5,191.8242" style="stroke:#181818;stroke-width:1.0;"/><line style="stroke:#181818;stroke-width:1.0;" x1="769.5" x2="921.5" y1="191.8242" y2="191.8242"/><text fill="#000000" font-family="sans-serif" font-size="13" font-weight="bold" lengthAdjust="spacing" textLength="7" x="776.5" y="186.5615">3</text><text fill="#000000" font-family="sans-serif" font-size="13" lengthAdjust="spacing" textLength="75" x="787.5" y="186.5615">getInstance()</text><polygon fill="#181818" points="780.5,219.1152,770.5,223.1152,780.5,227.1152,776.5,223.1152" style="stroke:#181818;stroke-width:1.0;"/><line style="stroke:#181818;stroke-width:1.0;stroke-dasharray:2.0,2.0;" x1="774.5" x2="931.5" y1="223.1152" y2="223.1152"/><text fill="#000000" font-family="sans-serif" font-size="13" font-weight="bold" lengthAdjust="spacing" textLength="7" x="786.5" y="217.8525">4</text><text fill="#000000" font-family="sans-serif" font-size="13" lengthAdjust="spacing" textLength="67" x="797.5" y="217.8525">repositories</text><line style="stroke:#181818;stroke-width:1.0;" x1="769.5" x2="816.5" y1="249.4063" y2="249.4063"/><line style="stroke:#181818;stroke-width:1.0;" x1="816.5" x2="816.5" y1="249.4063" y2="262.4063"/><line style="stroke:#181818;stroke-width:1.0;" x1="775.5" x2="816.5" y1="262.4063" y2="262.4063"/><polygon fill="#181818" points="785.5,258.4063,775.5,262.4063,785.5,266.4063,781.5,262.4063" style="stroke:#181818;stroke-width:1.0;"/><text fill="#000000" font-family="sans-serif" font-size="13" font-weight="bold" lengthAdjust="spacing" textLength="7" x="781.5" y="244.1436">5</text><text fill="#000000" font-family="sans-serif" font-size="13" lengthAdjust="spacing" textLength="133" x="792.5" y="244.1436">getGSMFromSession()</text><rect fill="none" height="43.252" style="stroke:#000000;stroke-width:1.5;" width="181" x="674" y="275.4063"/><path d="M674,275.4063 L736,275.4063 L736,284.4063 L726,294.4063 L674,294.4063 L674,275.4063 " fill="#EEEEEE" style="stroke:#000000;stroke-width:2.0;"/><text fill="#000000" font-family="sans-serif" font-size="13" font-weight="bold" lengthAdjust="spacing" textLength="17" x="687" y="291.4346">ref</text><text fill="#000000" font-family="sans-serif" font-size="12" lengthAdjust="spacing" textLength="48" x="740.5" y="311.3555">Get GSM</text><line style="stroke:#181818;stroke-width:1.0;stroke-dasharray:2.0,2.0;" x1="774.5" x2="816.5" y1="351.9492" y2="351.9492"/><line style="stroke:#181818;stroke-width:1.0;stroke-dasharray:2.0,2.0;" x1="816.5" x2="816.5" y1="351.9492" y2="364.9492"/><line style="stroke:#181818;stroke-width:1.0;stroke-dasharray:2.0,2.0;" x1="769.5" x2="816.5" y1="364.9492" y2="364.9492"/><polygon fill="#181818" points="779.5,360.9492,769.5,364.9492,779.5,368.9492,775.5,364.9492" style="stroke:#181818;stroke-width:1.0;"/><text fill="#000000" font-family="sans-serif" font-size="13" font-weight="bold" lengthAdjust="spacing" textLength="7" x="781.5" y="346.6865">6</text><text fill="#000000" font-family="sans-serif" font-size="13" lengthAdjust="spacing" textLength="25" x="792.5" y="346.6865">gsm</text><polygon fill="#181818" points="1022.5,387.2402,1032.5,391.2402,1022.5,395.2402,1026.5,391.2402" style="stroke:#181818;stroke-width:1.0;"/><line style="stroke:#181818;stroke-width:1.0;" x1="769.5" x2="1028.5" y1="391.2402" y2="391.2402"/><text fill="#000000" font-family="sans-serif" font-size="13" font-weight="bold" lengthAdjust="spacing" textLength="7" x="776.5" y="385.9775">7</text><text fill="#000000" font-family="sans-serif" font-size="13" lengthAdjust="spacing" textLength="131" x="787.5" y="385.9775">getVehicleRepository()</text><polygon fill="#181818" points="780.5,418.5313,770.5,422.5313,780.5,426.5313,776.5,422.5313" style="stroke:#181818;stroke-width:1.0;"/><line style="stroke:#181818;stroke-width:1.0;" x1="774.5" x2="1038.5" y1="422.5313" y2="422.5313"/><text fill="#000000" font-family="sans-serif" font-size="13" font-weight="bold" lengthAdjust="spacing" textLength="7" x="786.5" y="417.2686">8</text><text fill="#000000" font-family="sans-serif" font-size="13" lengthAdjust="spacing" textLength="105" x="797.5" y="417.2686">VehicleRepository</text><polygon fill="#181818" points="1022.5,449.8223,1032.5,453.8223,1022.5,457.8223,1026.5,453.8223" style="stroke:#181818;stroke-width:1.0;"/><line style="stroke:#181818;stroke-width:1.0;" x1="769.5" x2="1028.5" y1="453.8223" y2="453.8223"/><text fill="#000000" font-family="sans-serif" font-size="13" font-weight="bold" lengthAdjust="spacing" textLength="7" x="776.5" y="448.5596">9</text><text fill="#000000" font-family="sans-serif" font-size="13" lengthAdjust="spacing" textLength="132" x="787.5" y="448.5596">getAgendaRepository()</text><polygon fill="#181818" points="780.5,481.1133,770.5,485.1133,780.5,489.1133,776.5,485.1133" style="stroke:#181818;stroke-width:1.0;"/><line style="stroke:#181818;stroke-width:1.0;" x1="774.5" x2="1038.5" y1="485.1133" y2="485.1133"/><text fill="#000000" font-family="sans-serif" font-size="13" font-weight="bold" lengthAdjust="spacing" textLength="14" x="786.5" y="479.8506">10</text><text fill="#000000" font-family="sans-serif" font-size="13" lengthAdjust="spacing" textLength="106" x="804.5" y="479.8506">AgendaRepository</text><polygon fill="#181818" points="747.5,512.4043,757.5,516.4043,747.5,520.4043,751.5,516.4043" style="stroke:#181818;stroke-width:1.0;"/><line style="stroke:#181818;stroke-width:1.0;" x1="446.5" x2="753.5" y1="516.4043" y2="516.4043"/><text fill="#000000" font-family="sans-serif" font-size="13" font-weight="bold" lengthAdjust="spacing" textLength="14" x="453.5" y="511.1416">11</text><text fill="#000000" font-family="sans-serif" font-size="13" lengthAdjust="spacing" textLength="141" x="471.5" y="511.1416">getAgendaByGSM(gsm)</text><polygon fill="#181818" points="1148.5,543.6953,1158.5,547.6953,1148.5,551.6953,1152.5,547.6953" style="stroke:#181818;stroke-width:1.0;"/><line style="stroke:#181818;stroke-width:1.0;" x1="769.5" x2="1154.5" y1="547.6953" y2="547.6953"/><text fill="#000000" font-family="sans-serif" font-size="13" font-weight="bold" lengthAdjust="spacing" textLength="14" x="776.5" y="542.4326">12</text><text fill="#000000" font-family="sans-serif" font-size="13" lengthAdjust="spacing" textLength="141" x="794.5" y="542.4326">getAgendaByGSM(gsm)</text><polygon fill="#181818" points="780.5,574.9863,770.5,578.9863,780.5,582.9863,776.5,578.9863" style="stroke:#181818;stroke-width:1.0;"/><line style="stroke:#181818;stroke-width:1.0;stroke-dasharray:2.0,2.0;" x1="774.5" x2="1164.5" y1="578.9863" y2="578.9863"/><text fill="#000000" font-family="sans-serif" font-size="13" font-weight="bold" lengthAdjust="spacing" textLength="14" x="786.5" y="573.7236">13</text><text fill="#000000" font-family="sans-serif" font-size="13" lengthAdjust="spacing" textLength="42" x="804.5" y="573.7236">agenda</text><polygon fill="#181818" points="457.5,606.2773,447.5,610.2773,457.5,614.2773,453.5,610.2773" style="stroke:#181818;stroke-width:1.0;"/><line style="stroke:#181818;stroke-width:1.0;stroke-dasharray:2.0,2.0;" x1="451.5" x2="758.5" y1="610.2773" y2="610.2773"/><text fill="#000000" font-family="sans-serif" font-size="13" font-weight="bold" lengthAdjust="spacing" textLength="14" x="463.5" y="605.0146">14</text><text fill="#000000" font-family="sans-serif" font-size="13" lengthAdjust="spacing" textLength="42" x="481.5" y="605.0146">agenda</text><polygon fill="#181818" points="747.5,637.5684,757.5,641.5684,747.5,645.5684,751.5,641.5684" style="stroke:#181818;stroke-width:1.0;"/><line style="stroke:#181818;stroke-width:1.0;" x1="446.5" x2="753.5" y1="641.5684" y2="641.5684"/><text fill="#000000" font-family="sans-serif" font-size="13" font-weight="bold" lengthAdjust="spacing" textLength="14" x="453.5" y="636.3057">15</text><text fill="#000000" font-family="sans-serif" font-size="13" lengthAdjust="spacing" textLength="111" x="471.5" y="636.3057">getAgendaEntries()</text><polygon fill="#181818" points="1399.5,668.8594,1409.5,672.8594,1399.5,676.8594,1403.5,672.8594" style="stroke:#181818;stroke-width:1.0;"/><line style="stroke:#181818;stroke-width:1.0;" x1="769.5" x2="1405.5" y1="672.8594" y2="672.8594"/><text fill="#000000" font-family="sans-serif" font-size="13" font-weight="bold" lengthAdjust="spacing" textLength="14" x="776.5" y="667.5967">16</text><text fill="#000000" font-family="sans-serif" font-size="13" lengthAdjust="spacing" textLength="111" x="794.5" y="667.5967">getAgendaEntries()</text><polygon fill="#181818" points="780.5,700.1504,770.5,704.1504,780.5,708.1504,776.5,704.1504" style="stroke:#181818;stroke-width:1.0;"/><line style="stroke:#181818;stroke-width:1.0;stroke-dasharray:2.0,2.0;" x1="774.5" x2="1415.5" y1="704.1504" y2="704.1504"/><text fill="#000000" font-family="sans-serif" font-size="13" font-weight="bold" lengthAdjust="spacing" textLength="14" x="786.5" y="698.8877">17</text><text fill="#000000" font-family="sans-serif" font-size="13" lengthAdjust="spacing" textLength="83" x="804.5" y="698.8877">agendaEntries</text><polygon fill="#181818" points="457.5,731.4414,447.5,735.4414,457.5,739.4414,453.5,735.4414" style="stroke:#181818;stroke-width:1.0;"/><line style="stroke:#181818;stroke-width:1.0;stroke-dasharray:2.0,2.0;" x1="451.5" x2="763.5" y1="735.4414" y2="735.4414"/><text fill="#000000" font-family="sans-serif" font-size="13" font-weight="bold" lengthAdjust="spacing" textLength="14" x="463.5" y="730.1787">18</text><text fill="#000000" font-family="sans-serif" font-size="13" lengthAdjust="spacing" textLength="83" x="481.5" y="730.1787">agendaEntries</text><polygon fill="#181818" points="99.5,762.7324,89.5,766.7324,99.5,770.7324,95.5,766.7324" style="stroke:#181818;stroke-width:1.0;"/><line style="stroke:#181818;stroke-width:1.0;stroke-dasharray:2.0,2.0;" x1="93.5" x2="440.5" y1="766.7324" y2="766.7324"/><text fill="#000000" font-family="sans-serif" font-size="13" font-weight="bold" lengthAdjust="spacing" textLength="14" x="105.5" y="761.4697">19</text><text fill="#000000" font-family="sans-serif" font-size="13" lengthAdjust="spacing" textLength="251" x="123.5" y="761.4697">shows list of entries and asks to select one</text><polygon fill="#181818" points="424.5,794.0234,434.5,798.0234,424.5,802.0234,428.5,798.0234" style="stroke:#181818;stroke-width:1.0;"/><line style="stroke:#181818;stroke-width:1.0;" x1="88.5" x2="430.5" y1="798.0234" y2="798.0234"/><text fill="#000000" font-family="sans-serif" font-size="13" font-weight="bold" lengthAdjust="spacing" textLength="14" x="95.5" y="792.7607">20</text><text fill="#000000" font-family="sans-serif" font-size="13" lengthAdjust="spacing" textLength="75" x="113.5" y="792.7607">selects entry</text><polygon fill="#181818" points="1399.5,825.3145,1409.5,829.3145,1399.5,833.3145,1403.5,829.3145" style="stroke:#181818;stroke-width:1.0;"/><line style="stroke:#181818;stroke-width:1.0;" x1="446.5" x2="1405.5" y1="829.3145" y2="829.3145"/><text fill="#000000" font-family="sans-serif" font-size="13" font-weight="bold" lengthAdjust="spacing" textLength="14" x="453.5" y="824.0518">21</text><text fill="#000000" font-family="sans-serif" font-size="13" lengthAdjust="spacing" textLength="106" x="471.5" y="824.0518">get(selectedIndex)</text><polygon fill="#181818" points="457.5,856.6055,447.5,860.6055,457.5,864.6055,453.5,860.6055" style="stroke:#181818;stroke-width:1.0;"/><line style="stroke:#181818;stroke-width:1.0;stroke-dasharray:2.0,2.0;" x1="451.5" x2="1415.5" y1="860.6055" y2="860.6055"/><text fill="#000000" font-family="sans-serif" font-size="13" font-weight="bold" lengthAdjust="spacing" textLength="14" x="463.5" y="855.3428">22</text><text fill="#000000" font-family="sans-serif" font-size="13" lengthAdjust="spacing" textLength="73" x="481.5" y="855.3428">agendaEntry</text><polygon fill="#181818" points="747.5,887.8965,757.5,891.8965,747.5,895.8965,751.5,891.8965" style="stroke:#181818;stroke-width:1.0;"/><line style="stroke:#181818;stroke-width:1.0;" x1="446.5" x2="753.5" y1="891.8965" y2="891.8965"/><text fill="#000000" font-family="sans-serif" font-size="13" font-weight="bold" lengthAdjust="spacing" textLength="14" x="453.5" y="886.6338">23</text><text fill="#000000" font-family="sans-serif" font-size="13" lengthAdjust="spacing" textLength="90" x="471.5" y="886.6338">getVehicleList()</text><polygon fill="#181818" points="1292,919.1875,1302,923.1875,1292,927.1875,1296,923.1875" style="stroke:#181818;stroke-width:1.0;"/><line style="stroke:#181818;stroke-width:1.0;" x1="769.5" x2="1298" y1="923.1875" y2="923.1875"/><text fill="#000000" font-family="sans-serif" font-size="13" font-weight="bold" lengthAdjust="spacing" textLength="14" x="776.5" y="917.9248">24</text><text fill="#000000" font-family="sans-serif" font-size="13" lengthAdjust="spacing" textLength="90" x="794.5" y="917.9248">getVehicleList()</text><polygon fill="#181818" points="780.5,950.4785,770.5,954.4785,780.5,958.4785,776.5,954.4785" style="stroke:#181818;stroke-width:1.0;"/><line style="stroke:#181818;stroke-width:1.0;stroke-dasharray:2.0,2.0;" x1="774.5" x2="1308" y1="954.4785" y2="954.4785"/><text fill="#000000" font-family="sans-serif" font-size="13" font-weight="bold" lengthAdjust="spacing" textLength="14" x="786.5" y="949.2158">25</text><text fill="#000000" font-family="sans-serif" font-size="13" lengthAdjust="spacing" textLength="46" x="804.5" y="949.2158">vehicles</text><polygon fill="#181818" points="457.5,981.7695,447.5,985.7695,457.5,989.7695,453.5,985.7695" style="stroke:#181818;stroke-width:1.0;"/><line style="stroke:#181818;stroke-width:1.0;stroke-dasharray:2.0,2.0;" x1="451.5" x2="763.5" y1="985.7695" y2="985.7695"/><text fill="#000000" font-family="sans-serif" font-size="13" font-weight="bold" lengthAdjust="spacing" textLength="14" x="463.5" y="980.5068">26</text><text fill="#000000" font-family="sans-serif" font-size="13" lengthAdjust="spacing" textLength="46" x="481.5" y="980.5068">vehicles</text><polygon fill="#181818" points="99.5,1013.0605,89.5,1017.0605,99.5,1021.0605,95.5,1017.0605" style="stroke:#181818;stroke-width:1.0;"/><line style="stroke:#181818;stroke-width:1.0;stroke-dasharray:2.0,2.0;" x1="93.5" x2="440.5" y1="1017.0605" y2="1017.0605"/><text fill="#000000" font-family="sans-serif" font-size="13" font-weight="bold" lengthAdjust="spacing" textLength="14" x="105.5" y="1011.7979">27</text><text fill="#000000" font-family="sans-serif" font-size="13" lengthAdjust="spacing" textLength="306" x="123.5" y="1011.7979">shows list of vehicles and asks to select one or more</text><polygon fill="#181818" points="424.5,1044.3516,434.5,1048.3516,424.5,1052.3516,428.5,1048.3516" style="stroke:#181818;stroke-width:1.0;"/><line style="stroke:#181818;stroke-width:1.0;" x1="88.5" x2="430.5" y1="1048.3516" y2="1048.3516"/><text fill="#000000" font-family="sans-serif" font-size="13" font-weight="bold" lengthAdjust="spacing" textLength="14" x="95.5" y="1043.0889">28</text><text fill="#000000" font-family="sans-serif" font-size="13" lengthAdjust="spacing" textLength="85" x="113.5" y="1043.0889">selects vehicle</text><path d="M369,1063.3516 L442,1063.3516 L442,1072.6426 L432,1082.6426 L369,1082.6426 L369,1063.3516 " fill="#EEEEEE" style="stroke:#000000;stroke-width:1.5;"/><rect fill="none" height="50.582" style="stroke:#000000;stroke-width:1.5;" width="1016" x="369" y="1063.3516"/><text fill="#000000" font-family="sans-serif" font-size="13" font-weight="bold" lengthAdjust="spacing" textLength="28" x="384" y="1078.3799">loop</text><text fill="#000000" font-family="sans-serif" font-size="11" font-weight="bold" lengthAdjust="spacing" textLength="146" x="457" y="1077.2217">[for each selected vehicle]</text><polygon fill="#181818" points="1292,1101.9336,1302,1105.9336,1292,1109.9336,1296,1105.9336" style="stroke:#181818;stroke-width:1.0;"/><line style="stroke:#181818;stroke-width:1.0;" x1="446.5" x2="1298" y1="1105.9336" y2="1105.9336"/><text fill="#000000" font-family="sans-serif" font-size="13" font-weight="bold" lengthAdjust="spacing" textLength="14" x="453.5" y="1100.6709">29</text><text fill="#000000" font-family="sans-serif" font-size="13" lengthAdjust="spacing" textLength="106" x="471.5" y="1100.6709">get(selectedIndex)</text><polygon fill="#181818" points="457.5,1140.2246,447.5,1144.2246,457.5,1148.2246,453.5,1144.2246" style="stroke:#181818;stroke-width:1.0;"/><line style="stroke:#181818;stroke-width:1.0;stroke-dasharray:2.0,2.0;" x1="451.5" x2="1308" y1="1144.2246" y2="1144.2246"/><text fill="#000000" font-family="sans-serif" font-size="13" font-weight="bold" lengthAdjust="spacing" textLength="14" x="463.5" y="1138.9619">30</text><text fill="#000000" font-family="sans-serif" font-size="13" lengthAdjust="spacing" textLength="99" x="481.5" y="1138.9619">selectedVehicles</text><polygon fill="#181818" points="99.5,1171.5156,89.5,1175.5156,99.5,1179.5156,95.5,1175.5156" style="stroke:#181818;stroke-width:1.0;"/><line style="stroke:#181818;stroke-width:1.0;stroke-dasharray:2.0,2.0;" x1="93.5" x2="440.5" y1="1175.5156" y2="1175.5156"/><text fill="#000000" font-family="sans-serif" font-size="13" font-weight="bold" lengthAdjust="spacing" textLength="14" x="105.5" y="1170.2529">31</text><text fill="#000000" font-family="sans-serif" font-size="13" lengthAdjust="spacing" textLength="219" x="123.5" y="1170.2529">shows data and requests confirmation</text><polygon fill="#181818" points="424.5,1202.8066,434.5,1206.8066,424.5,1210.8066,428.5,1206.8066" style="stroke:#181818;stroke-width:1.0;"/><line style="stroke:#181818;stroke-width:1.0;" x1="88.5" x2="430.5" y1="1206.8066" y2="1206.8066"/><text fill="#000000" font-family="sans-serif" font-size="13" font-weight="bold" lengthAdjust="spacing" textLength="14" x="95.5" y="1201.5439">32</text><text fill="#000000" font-family="sans-serif" font-size="13" lengthAdjust="spacing" textLength="78" x="113.5" y="1201.5439">confirms data</text><polygon fill="#181818" points="747.5,1234.0977,757.5,1238.0977,747.5,1242.0977,751.5,1238.0977" style="stroke:#181818;stroke-width:1.0;"/><line style="stroke:#181818;stroke-width:1.0;" x1="446.5" x2="753.5" y1="1238.0977" y2="1238.0977"/><text fill="#000000" font-family="sans-serif" font-size="13" font-weight="bold" lengthAdjust="spacing" textLength="14" x="453.5" y="1232.835">33</text><text fill="#000000" font-family="sans-serif" font-size="13" lengthAdjust="spacing" textLength="276" x="471.5" y="1232.835">assignVehicles(agendaEntry, selectedVehicles)</text><polygon fill="#181818" points="1489,1290.3887,1499,1294.3887,1489,1298.3887,1493,1294.3887" style="stroke:#181818;stroke-width:1.0;"/><line style="stroke:#181818;stroke-width:1.0;" x1="769.5" x2="1495" y1="1294.3887" y2="1294.3887"/><text fill="#000000" font-family="sans-serif" font-size="13" font-weight="bold" lengthAdjust="spacing" textLength="14" x="776.5" y="1289.126">34</text><text fill="#000000" font-family="sans-serif" font-size="13" lengthAdjust="spacing" textLength="269" x="794.5" y="1289.126">assignVehicle(agendaEntry, selectedVehicles)</text><path d="M1448,1309.3887 L1521,1309.3887 L1521,1318.6797 L1511,1328.6797 L1448,1328.6797 L1448,1309.3887 " fill="#EEEEEE" style="stroke:#000000;stroke-width:1.5;"/><rect fill="none" height="196.4551" style="stroke:#000000;stroke-width:1.5;" width="285" x="1448" y="1309.3887"/><text fill="#000000" font-family="sans-serif" font-size="13" font-weight="bold" lengthAdjust="spacing" textLength="28" x="1463" y="1324.417">loop</text><text fill="#000000" font-family="sans-serif" font-size="11" font-weight="bold" lengthAdjust="spacing" textLength="95" x="1536" y="1323.2588">[for each vehicle]</text><line style="stroke:#181818;stroke-width:1.0;" x1="1511" x2="1558" y1="1346.9707" y2="1346.9707"/><line style="stroke:#181818;stroke-width:1.0;" x1="1558" x2="1558" y1="1346.9707" y2="1359.9707"/><line style="stroke:#181818;stroke-width:1.0;" x1="1517" x2="1558" y1="1359.9707" y2="1359.9707"/><polygon fill="#181818" points="1527,1355.9707,1517,1359.9707,1527,1363.9707,1523,1359.9707" style="stroke:#181818;stroke-width:1.0;"/><text fill="#000000" font-family="sans-serif" font-size="13" font-weight="bold" lengthAdjust="spacing" textLength="14" x="1523" y="1341.708">35</text><text fill="#000000" font-family="sans-serif" font-size="13" lengthAdjust="spacing" textLength="180" x="1541" y="1341.708">validateVehicle(Vehicle vehicle)</text><line style="stroke:#181818;stroke-width:1.0;stroke-dasharray:2.0,2.0;" x1="1516" x2="1558" y1="1401.2617" y2="1401.2617"/><line style="stroke:#181818;stroke-width:1.0;stroke-dasharray:2.0,2.0;" x1="1558" x2="1558" y1="1401.2617" y2="1414.2617"/><line style="stroke:#181818;stroke-width:1.0;stroke-dasharray:2.0,2.0;" x1="1511" x2="1558" y1="1414.2617" y2="1414.2617"/><polygon fill="#181818" points="1521,1410.2617,1511,1414.2617,1521,1418.2617,1517,1414.2617" style="stroke:#181818;stroke-width:1.0;"/><text fill="#000000" font-family="sans-serif" font-size="13" font-weight="bold" lengthAdjust="spacing" textLength="14" x="1523" y="1395.999">36</text><text fill="#000000" font-family="sans-serif" font-size="13" lengthAdjust="spacing" textLength="22" x="1541" y="1395.999">true</text><line style="stroke:#181818;stroke-width:1.0;" x1="1511" x2="1558" y1="1435.5527" y2="1435.5527"/><line style="stroke:#181818;stroke-width:1.0;" x1="1558" x2="1558" y1="1435.5527" y2="1448.5527"/><line style="stroke:#181818;stroke-width:1.0;" x1="1517" x2="1558" y1="1448.5527" y2="1448.5527"/><polygon fill="#181818" points="1527,1444.5527,1517,1448.5527,1527,1452.5527,1523,1448.5527" style="stroke:#181818;stroke-width:1.0;"/><text fill="#000000" font-family="sans-serif" font-size="13" font-weight="bold" lengthAdjust="spacing" textLength="14" x="1523" y="1430.29">37</text><text fill="#000000" font-family="sans-serif" font-size="13" lengthAdjust="spacing" textLength="111" x="1541" y="1430.29">addVehicle(vehicle)</text><line style="stroke:#181818;stroke-width:1.0;stroke-dasharray:2.0,2.0;" x1="1516" x2="1558" y1="1489.8438" y2="1489.8438"/><line style="stroke:#181818;stroke-width:1.0;stroke-dasharray:2.0,2.0;" x1="1558" x2="1558" y1="1489.8438" y2="1502.8438"/><line style="stroke:#181818;stroke-width:1.0;stroke-dasharray:2.0,2.0;" x1="1511" x2="1558" y1="1502.8438" y2="1502.8438"/><polygon fill="#181818" points="1521,1498.8438,1511,1502.8438,1521,1506.8438,1517,1502.8438" style="stroke:#181818;stroke-width:1.0;"/><text fill="#000000" font-family="sans-serif" font-size="13" font-weight="bold" lengthAdjust="spacing" textLength="14" x="1523" y="1484.5811">38</text><text fill="#000000" font-family="sans-serif" font-size="13" lengthAdjust="spacing" textLength="22" x="1541" y="1484.5811">true</text><polygon fill="#181818" points="94.5,1532.1348,84.5,1536.1348,94.5,1540.1348,90.5,1536.1348" style="stroke:#181818;stroke-width:1.0;"/><line style="stroke:#181818;stroke-width:1.0;stroke-dasharray:2.0,2.0;" x1="88.5" x2="440.5" y1="1536.1348" y2="1536.1348"/><text fill="#000000" font-family="sans-serif" font-size="13" font-weight="bold" lengthAdjust="spacing" textLength="14" x="100.5" y="1530.8721">39</text><text fill="#000000" font-family="sans-serif" font-size="13" lengthAdjust="spacing" textLength="158" x="118.5" y="1530.8721">displays operation success</text><!--SRC=[lLZDRk8m4BxxAKQzb5RR5-1GYMsx2AciLj1oseit6I1gi5dRq2BruNTY9y7v0mTLwmkgu_a-pwzdgjyIiUMARs0ZXOpMIcuGZDeXq-MNBO_U-0hdvf0YA8mC5wlKFw3NF9RlYLZ1agSQ6UCx8yLkymSLOzVh94POIcd-o0_68oCLN8qLee0v8QE6AHS4hww0QnWzJXc1cYHAjbmOk1gEj4vMOe7h94fHlqxiiTV9oLCFKXWbqpG7VNYPFTVEpt0hTK9tIL3RC-N6OPvawf42LH7bIVmMJO1VpwENgWGf9M9-12QfKMtBwJohoksT5XN1HNtFIYvgaWxUWOxRFZsHNPpeqy-NsUXnn3AF97jkq9gUGRxe3xYx9pl3a4w_QJ2IVZCRGtuzjoK0CqX819WrOLYM8qm9JWvZr-0jGhuZWendI47rTuVQQ8YvuJ0GV8Ctp3zz7IdCOAmdwp3tTllsbe3SCLOvKjx12bS- -Ilxcc6r1081hz1CXAR8Zt1mqubHNoLrMtG5esIhxLPtkUQP_Ox160mRunTThx2S_RMc6i-dFwYIp94YHeeU1WjrLcCfN8BSesf6oCarHWDqsN012kz-Zikjuvb7Ry81F1y56AHmH5QAd2CQPIFK5oMjBMldPIpbKSa6B-kZQW1dKzLwQVrFcjPflrhHOu7pjFn-eA0TK2JT19ffD6kNxf-Nz5Y5IurcNf5op-55iK-aOJdctgly4Gerh1y_sGD9HVHCy9Hc7VUNFIerFdr30lVA1lSfMAZTpb2qsQqdXIjBkR4hZxfUotSDQQ8DoALj4mYMEeQuR2WqfjHDWXJ8QgXPk-0W_KR4dTUkvM2D_Y8egfpR2ySD72J64n7ZHz-ASSwyDK_MZ7nWVRDWp0Buwd6Tb-9dyaD8IUpv01UPi9XTmbQIBGAgocBcvqFHXR8U1WnXgQR49In7mvr8XxA9Riy7e25f8rLhNhIrw4LcvB2j_NUVfYMLSaipcmAYNaEH90tu7XbN1CX56TSMBxq4UxTjUR1vniLu4HeCtU5NxBBEKSY5YPs3ij0e9wD8YcMYDjnGGyqw23mdLuxuaPBZE8hsESaMtzPomYjJzi2hPTyQLhfX0INby_Epkb7KatmyhL66CbPOYqctExwxmZgNhDndpzE4J8V5ZVBV0YFmxI-dxrEdItgVt_vl9Z3WEbdQ5EDnOSX1foudRThloYtN34hQanFHCPE642Twc_A31hb5PTC6z2wAQ2HjAwh-C_iuPVy0]--></g></svg>