<?xml version="1.0" encoding="us-ascii" standalone="no"?><svg xmlns="http://www.w3.org/2000/svg" xmlns:xlink="http://www.w3.org/1999/xlink" contentStyleType="text/css" height="1622px" preserveAspectRatio="none" style="width:1739px;height:1622px;background:#FFFFFF;" version="1.1" viewBox="0 0 1739 1622" width="1739px" zoomAndPan="magnify"><defs/><g><rect fill="#FFFFFF" height="1428.1836" style="stroke:#181818;stroke-width:1.0;" width="10" x="78.5" y="93.6211"/><rect fill="#FFFFFF" height="635.4902" style="stroke:#181818;stroke-width:1.0;" width="10" x="436.5" y="116.9121"/><rect fill="#FFFFFF" height="219.0371" style="stroke:#181818;stroke-width:1.0;" width="10" x="436.5" y="783.6934"/><rect fill="#FFFFFF" height="127.1641" style="stroke:#181818;stroke-width:1.0;" width="10" x="436.5" y="1034.0215"/><rect fill="#FFFFFF" height="329.3281" style="stroke:#181818;stroke-width:1.0;" width="10" x="436.5" y="1192.4766"/><rect fill="#FFFFFF" height="562.9082" style="stroke:#181818;stroke-width:1.0;" width="10" x="759.5" y="158.2031"/><rect fill="#FFFFFF" height="90.543" style="stroke:#181818;stroke-width:1.0;" width="10" x="764.5" y="262.4063"/><rect fill="#FFFFFF" height="93.873" style="stroke:#181818;stroke-width:1.0;" width="10" x="759.5" y="877.5664"/><rect fill="#FFFFFF" height="274.7461" style="stroke:#181818;stroke-width:1.0;" width="10" x="759.5" y="1223.7676"/><rect fill="#FFFFFF" height="31.291" style="stroke:#181818;stroke-width:1.0;" width="10" x="927.5" y="191.8242"/><rect fill="#FFFFFF" height="31.291" style="stroke:#181818;stroke-width:1.0;" width="10" x="1034.5" y="391.2402"/><rect fill="#FFFFFF" height="31.291" style="stroke:#181818;stroke-width:1.0;" width="10" x="1034.5" y="453.8223"/><rect fill="#FFFFFF" height="31.291" style="stroke:#181818;stroke-width:1.0;" width="10" x="1160.5" y="547.6953"/><rect fill="#FFFFFF" height="31.291" style="stroke:#181818;stroke-width:1.0;" width="10" x="1304" y="908.8574"/><rect fill="#FFFFFF" height="38.291" style="stroke:#181818;stroke-width:1.0;" width="10" x="1304" y="1091.6035"/><rect fill="#FFFFFF" height="31.291" style="stroke:#181818;stroke-width:1.0;" width="10" x="1411.5" y="814.9844"/><rect fill="#FFFFFF" height="250.7461" style="stroke:#181818;stroke-width:1.0;" width="10" x="1501" y="1280.0586"/><rect fill="#FFFFFF" height="42.291" style="stroke:#181818;stroke-width:1.0;" width="10" x="1506" y="1345.6406"/><rect fill="#FFFFFF" height="42.291" style="stroke:#181818;stroke-width:1.0;" width="10" x="1506" y="1434.2227"/><rect fill="none" height="50.582" style="stroke:#000000;stroke-width:1.5;" width="1016" x="369" y="1049.0215"/><rect fill="none" height="196.4551" style="stroke:#000000;stroke-width:1.5;" width="285" x="1448" y="1295.0586"/><line style="stroke:#181818;stroke-width:0.5;stroke-dasharray:5.0,5.0;" x1="83" x2="83" y1="83.6211" y2="1539.8047"/><line style="stroke:#181818;stroke-width:0.5;stroke-dasharray:5.0,5.0;" x1="441" x2="441" y1="83.6211" y2="1539.8047"/><line style="stroke:#181818;stroke-width:0.5;stroke-dasharray:5.0,5.0;" x1="764" x2="764" y1="156.7227" y2="1539.8047"/><line style="stroke:#181818;stroke-width:0.5;stroke-dasharray:5.0,5.0;" x1="932" x2="932" y1="83.6211" y2="1539.8047"/><line style="stroke:#181818;stroke-width:0.5;stroke-dasharray:5.0,5.0;" x1="1039" x2="1039" y1="83.6211" y2="1539.8047"/><line style="stroke:#181818;stroke-width:0.5;stroke-dasharray:5.0,5.0;" x1="1165" x2="1165" y1="83.6211" y2="1539.8047"/><line style="stroke:#181818;stroke-width:0.5;stroke-dasharray:5.0,5.0;" x1="1309" x2="1309" y1="83.6211" y2="1539.8047"/><line style="stroke:#181818;stroke-width:0.5;stroke-dasharray:5.0,5.0;" x1="1416" x2="1416" y1="83.6211" y2="1539.8047"/><line style="stroke:#181818;stroke-width:0.5;stroke-dasharray:5.0,5.0;" x1="1506" x2="1506" y1="83.6211" y2="1539.8047"/><text fill="#000000" font-family="sans-serif" font-size="14" lengthAdjust="spacing" textLength="151" x="5" y="80.1074">Green Spaces Manager</text><ellipse cx="83.5" cy="13.5" fill="#E3E3E3" rx="8" ry="8" style="stroke:#181818;stroke-width:0.5;"/><path d="M83.5,21.5 L83.5,48.5 M70.5,29.5 L96.5,29.5 M83.5,48.5 L70.5,63.5 M83.5,48.5 L96.5,63.5 " fill="none" style="stroke:#181818;stroke-width:0.5;"/><text fill="#000000" font-family="sans-serif" font-size="14" lengthAdjust="spacing" textLength="151" x="5" y="1553.9121">Green Spaces Manager</text><ellipse cx="83.5" cy="1565.9258" fill="#E3E3E3" rx="8" ry="8" style="stroke:#181818;stroke-width:0.5;"/><path d="M83.5,1573.9258 L83.5,1600.9258 M70.5,1581.9258 L96.5,1581.9258 M83.5,1600.9258 L70.5,1615.9258 M83.5,1600.9258 L96.5,1615.9258 " fill="none" style="stroke:#181818;stroke-width:0.5;"/><rect fill="#E3E3E3" height="32.6211" rx="2.5" ry="2.5" style="stroke:#181818;stroke-width:0.5;" width="125" x="379" y="50"/><text fill="#000000" font-family="sans-serif" font-size="14" lengthAdjust="spacing" textLength="111" x="386" y="72.1074">:AssignVehiclesUI</text><rect fill="#E3E3E3" height="32.6211" rx="2.5" ry="2.5" style="stroke:#181818;stroke-width:0.5;" width="125" x="379" y="1538.8047"/><text fill="#000000" font-family="sans-serif" font-size="14" lengthAdjust="spacing" textLength="111" x="386" y="1560.9121">:AssignVehiclesUI</text><rect fill="#E3E3E3" height="32.6211" rx="2.5" ry="2.5" style="stroke:#181818;stroke-width:0.5;" width="175" x="677" y="1538.8047"/><text fill="#000000" font-family="sans-serif" font-size="14" lengthAdjust="spacing" textLength="161" x="684" y="1560.9121">:AssignVehiclesController</text><rect fill="#E3E3E3" height="32.6211" rx="2.5" ry="2.5" style="stroke:#181818;stroke-width:0.5;" width="97" x="884" y="50"/><text fill="#000000" font-family="sans-serif" font-size="14" lengthAdjust="spacing" textLength="83" x="891" y="72.1074">:Repositories</text><rect fill="#E3E3E3" height="32.6211" rx="2.5" ry="2.5" style="stroke:#181818;stroke-width:0.5;" width="97" x="884" y="1538.8047"/><text fill="#000000" font-family="sans-serif" font-size="14" lengthAdjust="spacing" textLength="83" x="891" y="1560.9121">:Repositories</text><rect fill="#E3E3E3" height="51.2422" rx="2.5" ry="2.5" style="stroke:#181818;stroke-width:0.5;" width="97" x="991" y="31.3789"/><text fill="#000000" font-family="sans-serif" font-size="14" lengthAdjust="spacing" textLength="74" x="1002.5" y="53.4863">repositories</text><text fill="#000000" font-family="sans-serif" font-size="14" lengthAdjust="spacing" textLength="83" x="998" y="72.1074">:Repositories</text><rect fill="#E3E3E3" height="51.2422" rx="2.5" ry="2.5" style="stroke:#181818;stroke-width:0.5;" width="97" x="991" y="1538.8047"/><text fill="#000000" font-family="sans-serif" font-size="14" lengthAdjust="spacing" textLength="74" x="1002.5" y="1560.9121">repositories</text><text fill="#000000" font-family="sans-serif" font-size="14" lengthAdjust="spacing" textLength="83" x="998" y="1579.5332">:Repositories</text><rect fill="#E3E3E3" height="51.2422" rx="2.5" ry="2.5" style="stroke:#181818;stroke-width:0.5;" width="135" x="1098" y="31.3789"/><text fill="#000000" font-family="sans-serif" font-size="14" lengthAdjust="spacing" textLength="116" x="1107.5" y="53.4863">agendaRepository</text><text fill="#000000" font-family="sans-serif" font-size="14" lengthAdjust="spacing" textLength="121" x="1105" y="72.1074">:AgendaRepository</text><rect fill="#E3E3E3" height="51.2422" rx="2.5" ry="2.5" style="stroke:#181818;stroke-width:0.5;" width="135" x="1098" y="1538.8047"/><text fill="#000000" font-family="sans-serif" font-size="14" lengthAdjust="spacing" textLength="116" x="1107.5" y="1560.9121">agendaRepository</text><text fill="#000000" font-family="sans-serif" font-size="14" lengthAdjust="spacing" textLength="121" x="1105" y="1579.5332">:AgendaRepository</text><rect fill="#E3E3E3" height="51.2422" rx="2.5" ry="2.5" style="stroke:#181818;stroke-width:0.5;" width="132" x="1243" y="31.3789"/><text fill="#000000" font-family="sans-serif" font-size="14" lengthAdjust="spacing" textLength="112" x="1253" y="53.4863">vehicleRepository</text><text fill="#000000" font-family="sans-serif" font-size="14" lengthAdjust="spacing" textLength="118" x="1250" y="72.1074">:VehicleRepository</text><rect fill="#E3E3E3" height="51.2422" rx="2.5" ry="2.5" style="stroke:#181818;stroke-width:0.5;" width="132" x="1243" y="1538.8047"/><text fill="#000000" font-family="sans-serif" font-size="14" lengthAdjust="spacing" textLength="112" x="1253" y="1560.9121">vehicleRepository</text><text fill="#000000" font-family="sans-serif" font-size="14" lengthAdjust="spacing" textLength="118" x="1250" y="1579.5332">:VehicleRepository</text><rect fill="#E3E3E3" height="32.6211" rx="2.5" ry="2.5" style="stroke:#181818;stroke-width:0.5;" width="63" x="1385" y="50"/><text fill="#000000" font-family="sans-serif" font-size="14" lengthAdjust="spacing" textLength="49" x="1392" y="72.1074">Agenda</text><rect fill="#E3E3E3" height="32.6211" rx="2.5" ry="2.5" style="stroke:#181818;stroke-width:0.5;" width="63" x="1385" y="1538.8047"/><text fill="#000000" font-family="sans-serif" font-size="14" lengthAdjust="spacing" textLength="49" x="1392" y="1560.9121">Agenda</text><rect fill="#E3E3E3" height="32.6211" rx="2.5" ry="2.5" style="stroke:#181818;stroke-width:0.5;" width="96" x="1458" y="50"/><text fill="#000000" font-family="sans-serif" font-size="14" lengthAdjust="spacing" textLength="82" x="1465" y="72.1074">AgendaEntry</text><rect fill="#E3E3E3" height="32.6211" rx="2.5" ry="2.5" style="stroke:#181818;stroke-width:0.5;" width="96" x="1458" y="1538.8047"/><text fill="#000000" font-family="sans-serif" font-size="14" lengthAdjust="spacing" textLength="82" x="1465" y="1560.9121">AgendaEntry</text><rect fill="#FFFFFF" height="1428.1836" style="stroke:#181818;stroke-width:1.0;" width="10" x="78.5" y="93.6211"/><rect fill="#FFFFFF" height="635.4902" style="stroke:#181818;stroke-width:1.0;" width="10" x="436.5" y="116.9121"/><rect fill="#FFFFFF" height="219.0371" style="stroke:#181818;stroke-width:1.0;" width="10" x="436.5" y="783.6934"/><rect fill="#FFFFFF" height="127.1641" style="stroke:#181818;stroke-width:1.0;" width="10" x="436.5" y="1034.0215"/><rect fill="#FFFFFF" height="329.3281" style="stroke:#181818;stroke-width:1.0;" width="10" x="436.5" y="1192.4766"/><rect fill="#FFFFFF" height="562.9082" style="stroke:#181818;stroke-width:1.0;" width="10" x="759.5" y="158.2031"/><rect fill="#FFFFFF" height="90.543" style="stroke:#181818;stroke-width:1.0;" width="10" x="764.5" y="262.4063"/><rect fill="#FFFFFF" height="93.873" style="stroke:#181818;stroke-width:1.0;" width="10" x="759.5" y="877.5664"/><rect fill="#FFFFFF" height="274.7461" style="stroke:#181818;stroke-width:1.0;" width="10" x="759.5" y="1223.7676"/><rect fill="#FFFFFF" height="31.291" style="stroke:#181818;stroke-width:1.0;" width="10" x="927.5" y="191.8242"/><rect fill="#FFFFFF" height="31.291" style="stroke:#181818;stroke-width:1.0;" width="10" x="1034.5" y="391.2402"/><rect fill="#FFFFFF" height="31.291" style="stroke:#181818;stroke-width:1.0;" width="10" x="1034.5" y="453.8223"/><rect fill="#FFFFFF" height="31.291" style="stroke:#181818;stroke-width:1.0;" width="10" x="1160.5" y="547.6953"/><rect fill="#FFFFFF" height="31.291" style="stroke:#181818;stroke-width:1.0;" width="10" x="1304" y="908.8574"/><rect fill="#FFFFFF" height="38.291" style="stroke:#181818;stroke-width:1.0;" width="10" x="1304" y="1091.6035"/><rect fill="#FFFFFF" height="31.291" style="stroke:#181818;stroke-width:1.0;" width="10" x="1411.5" y="814.9844"/><rect fill="#FFFFFF" height="250.7461" style="stroke:#181818;stroke-width:1.0;" width="10" x="1501" y="1280.0586"/><rect fill="#FFFFFF" height="42.291" style="stroke:#181818;stroke-width:1.0;" width="10" x="1506" y="1345.6406"/><rect fill="#FFFFFF" height="42.291" style="stroke:#181818;stroke-width:1.0;" width="10" x="1506" y="1434.2227"/><polygon fill="#181818" points="424.5,112.9121,434.5,116.9121,424.5,120.9121,428.5,116.9121" style="stroke:#181818;stroke-width:1.0;"/><line style="stroke:#181818;stroke-width:1.0;" x1="88.5" x2="430.5" y1="116.9121" y2="116.9121"/><text fill="#000000" font-family="sans-serif" font-size="13" font-weight="bold" lengthAdjust="spacing" textLength="7" x="95.5" y="111.6494">1</text><text fill="#000000" font-family="sans-serif" font-size="13" lengthAdjust="spacing" textLength="285" x="106.5" y="111.6494">asks to assign vehicles to an entry in the Agenda</text><polygon fill="#181818" points="665,144.2031,675,148.2031,665,152.2031,669,148.2031" style="stroke:#181818;stroke-width:1.0;"/><line style="stroke:#181818;stroke-width:1.0;" x1="446.5" x2="671" y1="148.2031" y2="148.2031"/><text fill="#000000" font-family="sans-serif" font-size="13" font-weight="bold" lengthAdjust="spacing" textLength="7" x="453.5" y="142.9404">2</text><text fill="#000000" font-family="sans-serif" font-size="13" lengthAdjust="spacing" textLength="36" x="464.5" y="142.9404">create</text><rect fill="#E3E3E3" height="32.6211" rx="2.5" ry="2.5" style="stroke:#181818;stroke-width:0.5;" width="175" x="677" y="124.9121"/><text fill="#000000" font-family="sans-serif" font-size="14" lengthAdjust="spacing" textLength="161" x="684" y="147.0195">:AssignVehiclesController</text><polygon fill="#181818" points="915.5,187.8242,925.5,191.8242,915.5,195.8242,919.5,191.8242" style="stroke:#181818;stroke-width:1.0;"/><line style="stroke:#181818;stroke-width:1.0;" x1="769.5" x2="921.5" y1="191.8242" y2="191.8242"/><text fill="#000000" font-family="sans-serif" font-size="13" font-weight="bold" lengthAdjust="spacing" textLength="7" x="776.5" y="186.5615">3</text><text fill="#000000" font-family="sans-serif" font-size="13" lengthAdjust="spacing" textLength="75" x="787.5" y="186.5615">getInstance()</text><polygon fill="#181818" points="780.5,219.1152,770.5,223.1152,780.5,227.1152,776.5,223.1152" style="stroke:#181818;stroke-width:1.0;"/><line style="stroke:#181818;stroke-width:1.0;stroke-dasharray:2.0,2.0;" x1="774.5" x2="931.5" y1="223.1152" y2="223.1152"/><text fill="#000000" font-family="sans-serif" font-size="13" font-weight="bold" lengthAdjust="spacing" textLength="7" x="786.5" y="217.8525">4</text><text fill="#000000" font-family="sans-serif" font-size="13" lengthAdjust="spacing" textLength="67" x="797.5" y="217.8525">repositories</text><line style="stroke:#181818;stroke-width:1.0;" x1="769.5" x2="816.5" y1="249.4063" y2="249.4063"/><line style="stroke:#181818;stroke-width:1.0;" x1="816.5" x2="816.5" y1="249.4063" y2="262.4063"/><line style="stroke:#181818;stroke-width:1.0;" x1="775.5" x2="816.5" y1="262.4063" y2="262.4063"/><polygon fill="#181818" points="785.5,258.4063,775.5,262.4063,785.5,266.4063,781.5,262.4063" style="stroke:#181818;stroke-width:1.0;"/><text fill="#000000" font-family="sans-serif" font-size="13" font-weight="bold" lengthAdjust="spacing" textLength="7" x="781.5" y="244.1436">5</text><text fill="#000000" font-family="sans-serif" font-size="13" lengthAdjust="spacing" textLength="133" x="792.5" y="244.1436">getGSMFromSession()</text><rect fill="none" height="43.252" style="stroke:#000000;stroke-width:1.5;" width="181" x="674" y="275.4063"/><path d="M674,275.4063 L736,275.4063 L736,284.4063 L726,294.4063 L674,294.4063 L674,275.4063 " fill="#EEEEEE" style="stroke:#000000;stroke-width:2.0;"/><text fill="#000000" font-family="sans-serif" font-size="13" font-weight="bold" lengthAdjust="spacing" textLength="17" x="687" y="291.4346">ref</text><text fill="#000000" font-family="sans-serif" font-size="12" lengthAdjust="spacing" textLength="48" x="740.5" y="311.3555">Get GSM</text><line style="stroke:#181818;stroke-width:1.0;stroke-dasharray:2.0,2.0;" x1="774.5" x2="816.5" y1="351.9492" y2="351.9492"/><line style="stroke:#181818;stroke-width:1.0;stroke-dasharray:2.0,2.0;" x1="816.5" x2="816.5" y1="351.9492" y2="364.9492"/><line style="stroke:#181818;stroke-width:1.0;stroke-dasharray:2.0,2.0;" x1="769.5" x2="816.5" y1="364.9492" y2="364.9492"/><polygon fill="#181818" points="779.5,360.9492,769.5,364.9492,779.5,368.9492,775.5,364.9492" style="stroke:#181818;stroke-width:1.0;"/><text fill="#000000" font-family="sans-serif" font-size="13" font-weight="bold" lengthAdjust="spacing" textLength="7" x="781.5" y="346.6865">6</text><text fill="#000000" font-family="sans-serif" font-size="13" lengthAdjust="spacing" textLength="25" x="792.5" y="346.6865">gsm</text><polygon fill="#181818" points="1022.5,387.2402,1032.5,391.2402,1022.5,395.2402,1026.5,391.2402" style="stroke:#181818;stroke-width:1.0;"/><line style="stroke:#181818;stroke-width:1.0;" x1="769.5" x2="1028.5" y1="391.2402" y2="391.2402"/><text fill="#000000" font-family="sans-serif" font-size="13" font-weight="bold" lengthAdjust="spacing" textLength="7" x="776.5" y="385.9775">7</text><text fill="#000000" font-family="sans-serif" font-size="13" lengthAdjust="spacing" textLength="131" x="787.5" y="385.9775">getVehicleRepository()</text><polygon fill="#181818" points="780.5,418.5313,770.5,422.5313,780.5,426.5313,776.5,422.5313" style="stroke:#181818;stroke-width:1.0;"/><line style="stroke:#181818;stroke-width:1.0;" x1="774.5" x2="1038.5" y1="422.5313" y2="422.5313"/><text fill="#000000" font-family="sans-serif" font-size="13" font-weight="bold" lengthAdjust="spacing" textLength="7" x="786.5" y="417.2686">8</text><text fill="#000000" font-family="sans-serif" font-size="13" lengthAdjust="spacing" textLength="105" x="797.5" y="417.2686">VehicleRepository</text><polygon fill="#181818" points="1022.5,449.8223,1032.5,453.8223,1022.5,457.8223,1026.5,453.8223" style="stroke:#181818;stroke-width:1.0;"/><line style="stroke:#181818;stroke-width:1.0;" x1="769.5" x2="1028.5" y1="453.8223" y2="453.8223"/><text fill="#000000" font-family="sans-serif" font-size="13" font-weight="bold" lengthAdjust="spacing" textLength="7" x="776.5" y="448.5596">9</text><text fill="#000000" font-family="sans-serif" font-size="13" lengthAdjust="spacing" textLength="132" x="787.5" y="448.5596">getAgendaRepository()</text><polygon fill="#181818" points="780.5,481.1133,770.5,485.1133,780.5,489.1133,776.5,485.1133" style="stroke:#181818;stroke-width:1.0;"/><line style="stroke:#181818;stroke-width:1.0;" x1="774.5" x2="1038.5" y1="485.1133" y2="485.1133"/><text fill="#000000" font-family="sans-serif" font-size="13" font-weight="bold" lengthAdjust="spacing" textLength="14" x="786.5" y="479.8506">10</text><text fill="#000000" font-family="sans-serif" font-size="13" lengthAdjust="spacing" textLength="106" x="804.5" y="479.8506">AgendaRepository</text><polygon fill="#181818" points="747.5,512.4043,757.5,516.4043,747.5,520.4043,751.5,516.4043" style="stroke:#181818;stroke-width:1.0;"/><line style="stroke:#181818;stroke-width:1.0;" x1="446.5" x2="753.5" y1="516.4043" y2="516.4043"/><text fill="#000000" font-family="sans-serif" font-size="13" font-weight="bold" lengthAdjust="spacing" textLength="14" x="453.5" y="511.1416">11</text><text fill="#000000" font-family="sans-serif" font-size="13" lengthAdjust="spacing" textLength="141" x="471.5" y="511.1416">getAgendaByGSM(gsm)</text><polygon fill="#181818" points="1148.5,543.6953,1158.5,547.6953,1148.5,551.6953,1152.5,547.6953" style="stroke:#181818;stroke-width:1.0;"/><line style="stroke:#181818;stroke-width:1.0;" x1="769.5" x2="1154.5" y1="547.6953" y2="547.6953"/><text fill="#000000" font-family="sans-serif" font-size="13" font-weight="bold" lengthAdjust="spacing" textLength="14" x="776.5" y="542.4326">12</text><text fill="#000000" font-family="sans-serif" font-size="13" lengthAdjust="spacing" textLength="141" x="794.5" y="542.4326">getAgendaByGSM(gsm)</text><polygon fill="#181818" points="780.5,574.9863,770.5,578.9863,780.5,582.9863,776.5,578.9863" style="stroke:#181818;stroke-width:1.0;"/><line style="stroke:#181818;stroke-width:1.0;stroke-dasharray:2.0,2.0;" x1="774.5" x2="1164.5" y1="578.9863" y2="578.9863"/><text fill="#000000" font-family="sans-serif" font-size="13" font-weight="bold" lengthAdjust="spacing" textLength="14" x="786.5" y="573.7236">13</text><text fill="#000000" font-family="sans-serif" font-size="13" lengthAdjust="spacing" textLength="42" x="804.5" y="573.7236">agenda</text><polygon fill="#181818" points="457.5,606.2773,447.5,610.2773,457.5,614.2773,453.5,610.2773" style="stroke:#181818;stroke-width:1.0;"/><line style="stroke:#181818;stroke-width:1.0;stroke-dasharray:2.0,2.0;" x1="451.5" x2="758.5" y1="610.2773" y2="610.2773"/><text fill="#000000" font-family="sans-serif" font-size="13" font-weight="bold" lengthAdjust="spacing" textLength="14" x="463.5" y="605.0146">14</text><text fill="#000000" font-family="sans-serif" font-size="13" lengthAdjust="spacing" textLength="42" x="481.5" y="605.0146">agenda</text><polygon fill="#181818" points="747.5,637.5684,757.5,641.5684,747.5,645.5684,751.5,641.5684" style="stroke:#181818;stroke-width:1.0;"/><line style="stroke:#181818;stroke-width:1.0;" x1="446.5" x2="753.5" y1="641.5684" y2="641.5684"/><text fill="#000000" font-family="sans-serif" font-size="13" font-weight="bold" lengthAdjust="spacing" textLength="14" x="453.5" y="636.3057">15</text><text fill="#000000" font-family="sans-serif" font-size="13" lengthAdjust="spacing" textLength="111" x="471.5" y="636.3057">getAgendaEntries()</text><rect fill="none" height="43.252" style="stroke:#000000;stroke-width:1.5;" width="181" x="674" y="649.5684"/><path d="M674,649.5684 L736,649.5684 L736,658.5684 L726,668.5684 L674,668.5684 L674,649.5684 " fill="#EEEEEE" style="stroke:#000000;stroke-width:2.0;"/><text fill="#000000" font-family="sans-serif" font-size="13" font-weight="bold" lengthAdjust="spacing" textLength="17" x="687" y="665.5967">ref</text><text fill="#000000" font-family="sans-serif" font-size="12" lengthAdjust="spacing" textLength="106" x="711.5" y="685.5176">Get Agenda Entries</text><polygon fill="#181818" points="457.5,717.1113,447.5,721.1113,457.5,725.1113,453.5,721.1113" style="stroke:#181818;stroke-width:1.0;"/><line style="stroke:#181818;stroke-width:1.0;stroke-dasharray:2.0,2.0;" x1="451.5" x2="763.5" y1="721.1113" y2="721.1113"/><text fill="#000000" font-family="sans-serif" font-size="13" font-weight="bold" lengthAdjust="spacing" textLength="14" x="463.5" y="715.8486">16</text><text fill="#000000" font-family="sans-serif" font-size="13" lengthAdjust="spacing" textLength="83" x="481.5" y="715.8486">agendaEntries</text><polygon fill="#181818" points="99.5,748.4023,89.5,752.4023,99.5,756.4023,95.5,752.4023" style="stroke:#181818;stroke-width:1.0;"/><line style="stroke:#181818;stroke-width:1.0;stroke-dasharray:2.0,2.0;" x1="93.5" x2="440.5" y1="752.4023" y2="752.4023"/><text fill="#000000" font-family="sans-serif" font-size="13" font-weight="bold" lengthAdjust="spacing" textLength="14" x="105.5" y="747.1396">17</text><text fill="#000000" font-family="sans-serif" font-size="13" lengthAdjust="spacing" textLength="251" x="123.5" y="747.1396">shows list of entries and asks to select one</text><polygon fill="#181818" points="424.5,779.6934,434.5,783.6934,424.5,787.6934,428.5,783.6934" style="stroke:#181818;stroke-width:1.0;"/><line style="stroke:#181818;stroke-width:1.0;" x1="88.5" x2="430.5" y1="783.6934" y2="783.6934"/><text fill="#000000" font-family="sans-serif" font-size="13" font-weight="bold" lengthAdjust="spacing" textLength="14" x="95.5" y="778.4307">18</text><text fill="#000000" font-family="sans-serif" font-size="13" lengthAdjust="spacing" textLength="75" x="113.5" y="778.4307">selects entry</text><polygon fill="#181818" points="1399.5,810.9844,1409.5,814.9844,1399.5,818.9844,1403.5,814.9844" style="stroke:#181818;stroke-width:1.0;"/><line style="stroke:#181818;stroke-width:1.0;" x1="446.5" x2="1405.5" y1="814.9844" y2="814.9844"/><text fill="#000000" font-family="sans-serif" font-size="13" font-weight="bold" lengthAdjust="spacing" textLength="14" x="453.5" y="809.7217">19</text><text fill="#000000" font-family="sans-serif" font-size="13" lengthAdjust="spacing" textLength="106" x="471.5" y="809.7217">get(selectedIndex)</text><polygon fill="#181818" points="457.5,842.2754,447.5,846.2754,457.5,850.2754,453.5,846.2754" style="stroke:#181818;stroke-width:1.0;"/><line style="stroke:#181818;stroke-width:1.0;stroke-dasharray:2.0,2.0;" x1="451.5" x2="1415.5" y1="846.2754" y2="846.2754"/><text fill="#000000" font-family="sans-serif" font-size="13" font-weight="bold" lengthAdjust="spacing" textLength="14" x="463.5" y="841.0127">20</text><text fill="#000000" font-family="sans-serif" font-size="13" lengthAdjust="spacing" textLength="73" x="481.5" y="841.0127">agendaEntry</text><polygon fill="#181818" points="747.5,873.5664,757.5,877.5664,747.5,881.5664,751.5,877.5664" style="stroke:#181818;stroke-width:1.0;"/><line style="stroke:#181818;stroke-width:1.0;" x1="446.5" x2="753.5" y1="877.5664" y2="877.5664"/><text fill="#000000" font-family="sans-serif" font-size="13" font-weight="bold" lengthAdjust="spacing" textLength="14" x="453.5" y="872.3037">21</text><text fill="#000000" font-family="sans-serif" font-size="13" lengthAdjust="spacing" textLength="90" x="471.5" y="872.3037">getVehicleList()</text><polygon fill="#181818" points="1292,904.8574,1302,908.8574,1292,912.8574,1296,908.8574" style="stroke:#181818;stroke-width:1.0;"/><line style="stroke:#181818;stroke-width:1.0;" x1="769.5" x2="1298" y1="908.8574" y2="908.8574"/><text fill="#000000" font-family="sans-serif" font-size="13" font-weight="bold" lengthAdjust="spacing" textLength="14" x="776.5" y="903.5947">22</text><text fill="#000000" font-family="sans-serif" font-size="13" lengthAdjust="spacing" textLength="90" x="794.5" y="903.5947">getVehicleList()</text><polygon fill="#181818" points="780.5,936.1484,770.5,940.1484,780.5,944.1484,776.5,940.1484" style="stroke:#181818;stroke-width:1.0;"/><line style="stroke:#181818;stroke-width:1.0;stroke-dasharray:2.0,2.0;" x1="774.5" x2="1308" y1="940.1484" y2="940.1484"/><text fill="#000000" font-family="sans-serif" font-size="13" font-weight="bold" lengthAdjust="spacing" textLength="14" x="786.5" y="934.8857">23</text><text fill="#000000" font-family="sans-serif" font-size="13" lengthAdjust="spacing" textLength="46" x="804.5" y="934.8857">vehicles</text><polygon fill="#181818" points="457.5,967.4395,447.5,971.4395,457.5,975.4395,453.5,971.4395" style="stroke:#181818;stroke-width:1.0;"/><line style="stroke:#181818;stroke-width:1.0;stroke-dasharray:2.0,2.0;" x1="451.5" x2="763.5" y1="971.4395" y2="971.4395"/><text fill="#000000" font-family="sans-serif" font-size="13" font-weight="bold" lengthAdjust="spacing" textLength="14" x="463.5" y="966.1768">24</text><text fill="#000000" font-family="sans-serif" font-size="13" lengthAdjust="spacing" textLength="46" x="481.5" y="966.1768">vehicles</text><polygon fill="#181818" points="99.5,998.7305,89.5,1002.7305,99.5,1006.7305,95.5,1002.7305" style="stroke:#181818;stroke-width:1.0;"/><line style="stroke:#181818;stroke-width:1.0;stroke-dasharray:2.0,2.0;" x1="93.5" x2="440.5" y1="1002.7305" y2="1002.7305"/><text fill="#000000" font-family="sans-serif" font-size="13" font-weight="bold" lengthAdjust="spacing" textLength="14" x="105.5" y="997.4678">25</text><text fill="#000000" font-family="sans-serif" font-size="13" lengthAdjust="spacing" textLength="306" x="123.5" y="997.4678">shows list of vehicles and asks to select one or more</text><polygon fill="#181818" points="424.5,1030.0215,434.5,1034.0215,424.5,1038.0215,428.5,1034.0215" style="stroke:#181818;stroke-width:1.0;"/><line style="stroke:#181818;stroke-width:1.0;" x1="88.5" x2="430.5" y1="1034.0215" y2="1034.0215"/><text fill="#000000" font-family="sans-serif" font-size="13" font-weight="bold" lengthAdjust="spacing" textLength="14" x="95.5" y="1028.7588">26</text><text fill="#000000" font-family="sans-serif" font-size="13" lengthAdjust="spacing" textLength="85" x="113.5" y="1028.7588">selects vehicle</text><path d="M369,1049.0215 L442,1049.0215 L442,1058.3125 L432,1068.3125 L369,1068.3125 L369,1049.0215 " fill="#EEEEEE" style="stroke:#000000;stroke-width:1.5;"/><rect fill="none" height="50.582" style="stroke:#000000;stroke-width:1.5;" width="1016" x="369" y="1049.0215"/><text fill="#000000" font-family="sans-serif" font-size="13" font-weight="bold" lengthAdjust="spacing" textLength="28" x="384" y="1064.0498">loop</text><text fill="#000000" font-family="sans-serif" font-size="11" font-weight="bold" lengthAdjust="spacing" textLength="146" x="457" y="1062.8916">[for each selected vehicle]</text><polygon fill="#181818" points="1292,1087.6035,1302,1091.6035,1292,1095.6035,1296,1091.6035" style="stroke:#181818;stroke-width:1.0;"/><line style="stroke:#181818;stroke-width:1.0;" x1="446.5" x2="1298" y1="1091.6035" y2="1091.6035"/><text fill="#000000" font-family="sans-serif" font-size="13" font-weight="bold" lengthAdjust="spacing" textLength="14" x="453.5" y="1086.3408">27</text><text fill="#000000" font-family="sans-serif" font-size="13" lengthAdjust="spacing" textLength="106" x="471.5" y="1086.3408">get(selectedIndex)</text><polygon fill="#181818" points="457.5,1125.8945,447.5,1129.8945,457.5,1133.8945,453.5,1129.8945" style="stroke:#181818;stroke-width:1.0;"/><line style="stroke:#181818;stroke-width:1.0;stroke-dasharray:2.0,2.0;" x1="451.5" x2="1308" y1="1129.8945" y2="1129.8945"/><text fill="#000000" font-family="sans-serif" font-size="13" font-weight="bold" lengthAdjust="spacing" textLength="14" x="463.5" y="1124.6318">28</text><text fill="#000000" font-family="sans-serif" font-size="13" lengthAdjust="spacing" textLength="99" x="481.5" y="1124.6318">selectedVehicles</text><polygon fill="#181818" points="99.5,1157.1855,89.5,1161.1855,99.5,1165.1855,95.5,1161.1855" style="stroke:#181818;stroke-width:1.0;"/><line style="stroke:#181818;stroke-width:1.0;stroke-dasharray:2.0,2.0;" x1="93.5" x2="440.5" y1="1161.1855" y2="1161.1855"/><text fill="#000000" font-family="sans-serif" font-size="13" font-weight="bold" lengthAdjust="spacing" textLength="14" x="105.5" y="1155.9229">29</text><text fill="#000000" font-family="sans-serif" font-size="13" lengthAdjust="spacing" textLength="219" x="123.5" y="1155.9229">shows data and requests confirmation</text><polygon fill="#181818" points="424.5,1188.4766,434.5,1192.4766,424.5,1196.4766,428.5,1192.4766" style="stroke:#181818;stroke-width:1.0;"/><line style="stroke:#181818;stroke-width:1.0;" x1="88.5" x2="430.5" y1="1192.4766" y2="1192.4766"/><text fill="#000000" font-family="sans-serif" font-size="13" font-weight="bold" lengthAdjust="spacing" textLength="14" x="95.5" y="1187.2139">30</text><text fill="#000000" font-family="sans-serif" font-size="13" lengthAdjust="spacing" textLength="78" x="113.5" y="1187.2139">confirms data</text><polygon fill="#181818" points="747.5,1219.7676,757.5,1223.7676,747.5,1227.7676,751.5,1223.7676" style="stroke:#181818;stroke-width:1.0;"/><line style="stroke:#181818;stroke-width:1.0;" x1="446.5" x2="753.5" y1="1223.7676" y2="1223.7676"/><text fill="#000000" font-family="sans-serif" font-size="13" font-weight="bold" lengthAdjust="spacing" textLength="14" x="453.5" y="1218.5049">31</text><text fill="#000000" font-family="sans-serif" font-size="13" lengthAdjust="spacing" textLength="276" x="471.5" y="1218.5049">assignVehicles(agendaEntry, selectedVehicles)</text><polygon fill="#181818" points="1489,1276.0586,1499,1280.0586,1489,1284.0586,1493,1280.0586" style="stroke:#181818;stroke-width:1.0;"/><line style="stroke:#181818;stroke-width:1.0;" x1="769.5" x2="1495" y1="1280.0586" y2="1280.0586"/><text fill="#000000" font-family="sans-serif" font-size="13" font-weight="bold" lengthAdjust="spacing" textLength="14" x="776.5" y="1274.7959">32</text><text fill="#000000" font-family="sans-serif" font-size="13" lengthAdjust="spacing" textLength="269" x="794.5" y="1274.7959">assignVehicle(agendaEntry, selectedVehicles)</text><path d="M1448,1295.0586 L1521,1295.0586 L1521,1304.3496 L1511,1314.3496 L1448,1314.3496 L1448,1295.0586 " fill="#EEEEEE" style="stroke:#000000;stroke-width:1.5;"/><rect fill="none" height="196.4551" style="stroke:#000000;stroke-width:1.5;" width="285" x="1448" y="1295.0586"/><text fill="#000000" font-family="sans-serif" font-size="13" font-weight="bold" lengthAdjust="spacing" textLength="28" x="1463" y="1310.0869">loop</text><text fill="#000000" font-family="sans-serif" font-size="11" font-weight="bold" lengthAdjust="spacing" textLength="95" x="1536" y="1308.9287">[for each vehicle]</text><line style="stroke:#181818;stroke-width:1.0;" x1="1511" x2="1558" y1="1332.6406" y2="1332.6406"/><line style="stroke:#181818;stroke-width:1.0;" x1="1558" x2="1558" y1="1332.6406" y2="1345.6406"/><line style="stroke:#181818;stroke-width:1.0;" x1="1517" x2="1558" y1="1345.6406" y2="1345.6406"/><polygon fill="#181818" points="1527,1341.6406,1517,1345.6406,1527,1349.6406,1523,1345.6406" style="stroke:#181818;stroke-width:1.0;"/><text fill="#000000" font-family="sans-serif" font-size="13" font-weight="bold" lengthAdjust="spacing" textLength="14" x="1523" y="1327.3779">33</text><text fill="#000000" font-family="sans-serif" font-size="13" lengthAdjust="spacing" textLength="180" x="1541" y="1327.3779">validateVehicle(Vehicle vehicle)</text><line style="stroke:#181818;stroke-width:1.0;stroke-dasharray:2.0,2.0;" x1="1516" x2="1558" y1="1386.9316" y2="1386.9316"/><line style="stroke:#181818;stroke-width:1.0;stroke-dasharray:2.0,2.0;" x1="1558" x2="1558" y1="1386.9316" y2="1399.9316"/><line style="stroke:#181818;stroke-width:1.0;stroke-dasharray:2.0,2.0;" x1="1511" x2="1558" y1="1399.9316" y2="1399.9316"/><polygon fill="#181818" points="1521,1395.9316,1511,1399.9316,1521,1403.9316,1517,1399.9316" style="stroke:#181818;stroke-width:1.0;"/><text fill="#000000" font-family="sans-serif" font-size="13" font-weight="bold" lengthAdjust="spacing" textLength="14" x="1523" y="1381.6689">34</text><text fill="#000000" font-family="sans-serif" font-size="13" lengthAdjust="spacing" textLength="22" x="1541" y="1381.6689">true</text><line style="stroke:#181818;stroke-width:1.0;" x1="1511" x2="1558" y1="1421.2227" y2="1421.2227"/><line style="stroke:#181818;stroke-width:1.0;" x1="1558" x2="1558" y1="1421.2227" y2="1434.2227"/><line style="stroke:#181818;stroke-width:1.0;" x1="1517" x2="1558" y1="1434.2227" y2="1434.2227"/><polygon fill="#181818" points="1527,1430.2227,1517,1434.2227,1527,1438.2227,1523,1434.2227" style="stroke:#181818;stroke-width:1.0;"/><text fill="#000000" font-family="sans-serif" font-size="13" font-weight="bold" lengthAdjust="spacing" textLength="14" x="1523" y="1415.96">35</text><text fill="#000000" font-family="sans-serif" font-size="13" lengthAdjust="spacing" textLength="111" x="1541" y="1415.96">addVehicle(vehicle)</text><line style="stroke:#181818;stroke-width:1.0;stroke-dasharray:2.0,2.0;" x1="1516" x2="1558" y1="1475.5137" y2="1475.5137"/><line style="stroke:#181818;stroke-width:1.0;stroke-dasharray:2.0,2.0;" x1="1558" x2="1558" y1="1475.5137" y2="1488.5137"/><line style="stroke:#181818;stroke-width:1.0;stroke-dasharray:2.0,2.0;" x1="1511" x2="1558" y1="1488.5137" y2="1488.5137"/><polygon fill="#181818" points="1521,1484.5137,1511,1488.5137,1521,1492.5137,1517,1488.5137" style="stroke:#181818;stroke-width:1.0;"/><text fill="#000000" font-family="sans-serif" font-size="13" font-weight="bold" lengthAdjust="spacing" textLength="14" x="1523" y="1470.251">36</text><text fill="#000000" font-family="sans-serif" font-size="13" lengthAdjust="spacing" textLength="22" x="1541" y="1470.251">true</text><polygon fill="#181818" points="94.5,1517.8047,84.5,1521.8047,94.5,1525.8047,90.5,1521.8047" style="stroke:#181818;stroke-width:1.0;"/><line style="stroke:#181818;stroke-width:1.0;stroke-dasharray:2.0,2.0;" x1="88.5" x2="440.5" y1="1521.8047" y2="1521.8047"/><text fill="#000000" font-family="sans-serif" font-size="13" font-weight="bold" lengthAdjust="spacing" textLength="14" x="100.5" y="1516.542">37</text><text fill="#000000" font-family="sans-serif" font-size="13" lengthAdjust="spacing" textLength="158" x="118.5" y="1516.542">displays operation success</text><!--SRC=[lLZDJkCm4BxxAKPSA6Xv0Gv8MM0h95YjMkXfBoQPjX6ftRLTe18FlnCxIPt4BKuNhIyLZkSRpymtFqQ_v6BD5L_1IWgPBfLS8HYrGQQRBskUll05JissG52O6YuMXNz0BtacttAnW3alD3B6DqQApUeP5MEdopn3c4jfdkKxuwcH2ax62b70b91HmmCN1AzEW6j8RXuOWPeypTTS63YvJBJE5sA6opmjK3_TsMDFTmTFNKjXb2oA2lJwSNBVEJ_1jTGvtIL7RSyq6zjfNff71hH5b2VnM_G1VjqdZsq9CafaV0TCKabdozayQSkzEYjQWhFkdfMSTIGTl0CTXpxTab-SwEtFnqboax0o8lahDsXTpw1Qz0TSN96VuP9ElsWmadvB7qDrFRSb04j8o0MO9M5OBJkO1fm2nax1MuHyGGfAFPT4gZyRr4P3nWs7aU0hF6F-wTDKOGbZ8zc5kRBRv-S4v8wnrf7c3bQuzSbVvTSIAq040bwWkHEQc9_Yw6mlHdSrgaFiYaOfL-XM5vNbfVzsP8o6pV2BhbTxplvQLusd3p-eaaoH62F508V51gkt5Cv1lgBgC-JW6gC1kcoy0D5xME0gxtZkqQju02z64Gwf0r6M8XU8Njc8ZKMZrfQrpsMiofsHFRriYAaHElkcTalhVxAqg_Qh3TqLEC_AxriYxOYOT1RffcGIbXwUbzIiugMIYLUaN3iyYlkaD2x7NB-gcb2iOtt-b0sIYkWdv8clDcM1SSXGGRD_AYyXIsE0UuMaSa-h3UkbVDDGvDg0dDl6Jh3KuxDc1D1OqFm7KY3he9ODta7weuCxhzsGm7eJGHGFNA2IiGlJo45YTYSoV1-QupGLHKcGje2JjsmeRySiGb-NYLNnlASun1InWIspBWcpoJ7Q6cMpY3emc_YDhvuRsG07ncXffyGnMdQEEv0EpTWRpWUWPyrAgc1UX8RgEZCgsE34F6JCAAHSqojB0QbUGfqaFVW16LSJvAYC2_5baE3WGQiYc-TSp6QnPDXFltgNxNsyE9hObqj9ZUOjaqenpzMA6ng1sHu5Nf1RHtocL3XEHVXbOujli9pmrhjuvDMoRpqldR68alBnyT7UgEj9zQ3ig8pLsD9QlqttytiVhIl9rdrUUP6Jwx2-KVLROnmcTEzE1qytwdtzzhyfaOJRgoLa6CzgHuxssdBGfyEk7BXcLD8UVCFiCkaIibol2xxL8DUeRDg0tgGfFI93HTLlipSFx2y0]--></g></svg>