<?xml version="1.0" encoding="us-ascii" standalone="no"?><svg xmlns="http://www.w3.org/2000/svg" xmlns:xlink="http://www.w3.org/1999/xlink" contentStyleType="text/css" height="1440px" preserveAspectRatio="none" style="width:2737px;height:1440px;background:#FFFFFF;" version="1.1" viewBox="0 0 2737 1440" width="2737px" zoomAndPan="magnify"><defs/><g><!--class ApplicationSession--><g id="elem_ApplicationSession"><rect codeLine="9" fill="#F1F1F1" height="85.2422" id="ApplicationSession" rx="2.5" ry="2.5" style="stroke:#181818;stroke-width:0.5;" width="151" x="2448.5" y="343.5"/><ellipse cx="2463.5" cy="359.5" fill="#ADD1B2" rx="11" ry="11" style="stroke:#181818;stroke-width:1.0;"/><path d="M2466.2656,355.375 Q2466.4219,355.1563 2466.6094,355.0469 Q2466.7969,354.9375 2467.0156,354.9375 Q2467.3906,354.9375 2467.625,355.2031 Q2467.8594,355.4531 2467.8594,356.0625 L2467.8594,357.5156 Q2467.8594,358.125 2467.625,358.3906 Q2467.3906,358.6563 2467.0156,358.6563 Q2466.6719,358.6563 2466.4688,358.4531 Q2466.2656,358.2656 2466.1563,357.75 Q2466.1094,357.3906 2465.9219,357.2031 Q2465.5938,356.8281 2464.9844,356.6094 Q2464.375,356.3906 2463.75,356.3906 Q2462.9844,356.3906 2462.3438,356.7188 Q2461.7188,357.0469 2461.2188,357.7969 Q2460.7344,358.5469 2460.7344,359.5781 L2460.7344,360.6719 Q2460.7344,361.9063 2461.625,362.7344 Q2462.5156,363.5469 2464.1094,363.5469 Q2465.0469,363.5469 2465.7031,363.2969 Q2466.0938,363.1406 2466.5156,362.7031 Q2466.7813,362.4375 2466.9219,362.3594 Q2467.0781,362.2813 2467.2813,362.2813 Q2467.6094,362.2813 2467.8594,362.5469 Q2468.125,362.7969 2468.125,363.1406 Q2468.125,363.4844 2467.7813,363.8906 Q2467.2813,364.4688 2466.4844,364.7969 Q2465.4063,365.25 2464.1094,365.25 Q2462.5938,365.25 2461.3906,364.625 Q2460.4063,364.125 2459.7188,363.0625 Q2459.0313,361.9844 2459.0313,360.7031 L2459.0313,359.5469 Q2459.0313,358.2188 2459.6406,357.0781 Q2460.2656,355.9219 2461.3594,355.3125 Q2462.4531,354.6875 2463.6875,354.6875 Q2464.4219,354.6875 2465.0625,354.8594 Q2465.7188,355.0156 2466.2656,355.375 Z " fill="#000000"/><text fill="#000000" font-family="sans-serif" font-size="14" lengthAdjust="spacing" textLength="119" x="2477.5" y="365.2969">ApplicationSession</text><line style="stroke:#181818;stroke-width:0.5;" x1="2449.5" x2="2598.5" y1="375.5" y2="375.5"/><line style="stroke:#181818;stroke-width:0.5;" x1="2449.5" x2="2598.5" y1="383.5" y2="383.5"/><text fill="#000000" font-family="sans-serif" font-size="14" lengthAdjust="spacing" textLength="128" x="2454.5" y="402.6074">+static getInstance()</text><text fill="#000000" font-family="sans-serif" font-size="14" lengthAdjust="spacing" textLength="136" x="2454.5" y="421.2285">+getCurrentSession()</text></g><!--class UserSession--><g id="elem_UserSession"><rect codeLine="15" fill="#F1F1F1" height="66.6211" id="UserSession" rx="2.5" ry="2.5" style="stroke:#181818;stroke-width:0.5;" width="113" x="2378.5" y="582"/><ellipse cx="2394.4" cy="598" fill="#ADD1B2" rx="11" ry="11" style="stroke:#181818;stroke-width:1.0;"/><path d="M2397.1656,593.875 Q2397.3219,593.6563 2397.5094,593.5469 Q2397.6969,593.4375 2397.9156,593.4375 Q2398.2906,593.4375 2398.525,593.7031 Q2398.7594,593.9531 2398.7594,594.5625 L2398.7594,596.0156 Q2398.7594,596.625 2398.525,596.8906 Q2398.2906,597.1563 2397.9156,597.1563 Q2397.5719,597.1563 2397.3688,596.9531 Q2397.1656,596.7656 2397.0563,596.25 Q2397.0094,595.8906 2396.8219,595.7031 Q2396.4938,595.3281 2395.8844,595.1094 Q2395.275,594.8906 2394.65,594.8906 Q2393.8844,594.8906 2393.2438,595.2188 Q2392.6188,595.5469 2392.1188,596.2969 Q2391.6344,597.0469 2391.6344,598.0781 L2391.6344,599.1719 Q2391.6344,600.4063 2392.525,601.2344 Q2393.4156,602.0469 2395.0094,602.0469 Q2395.9469,602.0469 2396.6031,601.7969 Q2396.9938,601.6406 2397.4156,601.2031 Q2397.6813,600.9375 2397.8219,600.8594 Q2397.9781,600.7813 2398.1813,600.7813 Q2398.5094,600.7813 2398.7594,601.0469 Q2399.025,601.2969 2399.025,601.6406 Q2399.025,601.9844 2398.6813,602.3906 Q2398.1813,602.9688 2397.3844,603.2969 Q2396.3063,603.75 2395.0094,603.75 Q2393.4938,603.75 2392.2906,603.125 Q2391.3063,602.625 2390.6188,601.5625 Q2389.9313,600.4844 2389.9313,599.2031 L2389.9313,598.0469 Q2389.9313,596.7188 2390.5406,595.5781 Q2391.1656,594.4219 2392.2594,593.8125 Q2393.3531,593.1875 2394.5875,593.1875 Q2395.3219,593.1875 2395.9625,593.3594 Q2396.6188,593.5156 2397.1656,593.875 Z " fill="#000000"/><text fill="#000000" font-family="sans-serif" font-size="14" lengthAdjust="spacing" textLength="79" x="2408.6" y="603.7969">UserSession</text><line style="stroke:#181818;stroke-width:0.5;" x1="2379.5" x2="2490.5" y1="614" y2="614"/><line style="stroke:#181818;stroke-width:0.5;" x1="2379.5" x2="2490.5" y1="622" y2="622"/><text fill="#000000" font-family="sans-serif" font-size="14" lengthAdjust="spacing" textLength="101" x="2384.5" y="641.1074">+getUserEmail()</text></g><!--class Vehicle--><g id="elem_Vehicle"><rect codeLine="20" fill="#F1F1F1" height="271.4531" id="Vehicle" rx="2.5" ry="2.5" style="stroke:#181818;stroke-width:0.5;" width="218" x="7" y="830.5"/><ellipse cx="88.75" cy="846.5" fill="#ADD1B2" rx="11" ry="11" style="stroke:#181818;stroke-width:1.0;"/><path d="M91.5156,842.375 Q91.6719,842.1563 91.8594,842.0469 Q92.0469,841.9375 92.2656,841.9375 Q92.6406,841.9375 92.875,842.2031 Q93.1094,842.4531 93.1094,843.0625 L93.1094,844.5156 Q93.1094,845.125 92.875,845.3906 Q92.6406,845.6563 92.2656,845.6563 Q91.9219,845.6563 91.7188,845.4531 Q91.5156,845.2656 91.4063,844.75 Q91.3594,844.3906 91.1719,844.2031 Q90.8438,843.8281 90.2344,843.6094 Q89.625,843.3906 89,843.3906 Q88.2344,843.3906 87.5938,843.7188 Q86.9688,844.0469 86.4688,844.7969 Q85.9844,845.5469 85.9844,846.5781 L85.9844,847.6719 Q85.9844,848.9063 86.875,849.7344 Q87.7656,850.5469 89.3594,850.5469 Q90.2969,850.5469 90.9531,850.2969 Q91.3438,850.1406 91.7656,849.7031 Q92.0313,849.4375 92.1719,849.3594 Q92.3281,849.2813 92.5313,849.2813 Q92.8594,849.2813 93.1094,849.5469 Q93.375,849.7969 93.375,850.1406 Q93.375,850.4844 93.0313,850.8906 Q92.5313,851.4688 91.7344,851.7969 Q90.6563,852.25 89.3594,852.25 Q87.8438,852.25 86.6406,851.625 Q85.6563,851.125 84.9688,850.0625 Q84.2813,848.9844 84.2813,847.7031 L84.2813,846.5469 Q84.2813,845.2188 84.8906,844.0781 Q85.5156,842.9219 86.6094,842.3125 Q87.7031,841.6875 88.9375,841.6875 Q89.6719,841.6875 90.3125,841.8594 Q90.9688,842.0156 91.5156,842.375 Z " fill="#000000"/><text fill="#000000" font-family="sans-serif" font-size="14" lengthAdjust="spacing" textLength="46" x="109.25" y="852.2969">Vehicle</text><line style="stroke:#181818;stroke-width:0.5;" x1="8" x2="224" y1="862.5" y2="862.5"/><text fill="#000000" font-family="sans-serif" font-size="14" lengthAdjust="spacing" textLength="83" x="13" y="881.6074">-String brand</text><text fill="#000000" font-family="sans-serif" font-size="14" lengthAdjust="spacing" textLength="84" x="13" y="900.2285">-String model</text><text fill="#000000" font-family="sans-serif" font-size="14" lengthAdjust="spacing" textLength="73" x="13" y="918.8496">-String type</text><text fill="#000000" font-family="sans-serif" font-size="14" lengthAdjust="spacing" textLength="123" x="13" y="937.4707">-Double tareWeight</text><text fill="#000000" font-family="sans-serif" font-size="14" lengthAdjust="spacing" textLength="133" x="13" y="956.0918">-Double grossWeight</text><text fill="#000000" font-family="sans-serif" font-size="14" lengthAdjust="spacing" textLength="89" x="13" y="974.7129">-int currentKm</text><text fill="#000000" font-family="sans-serif" font-size="14" lengthAdjust="spacing" textLength="151" x="13" y="993.334">-LocalDate registerDate</text><text fill="#000000" font-family="sans-serif" font-size="14" lengthAdjust="spacing" textLength="170" x="13" y="1011.9551">-LocalDate acquisitionDate</text><text fill="#000000" font-family="sans-serif" font-size="14" lengthAdjust="spacing" textLength="173" x="13" y="1030.5762">-int maintenanceFrequency</text><text fill="#000000" font-family="sans-serif" font-size="14" lengthAdjust="spacing" textLength="126" x="13" y="1049.1973">-String plateNumber</text><text fill="#000000" font-family="sans-serif" font-size="14" lengthAdjust="spacing" textLength="206" x="13" y="1067.8184">-LocalDate lastMaintenanceDate</text><line style="stroke:#181818;stroke-width:0.5;" x1="8" x2="224" y1="1075.332" y2="1075.332"/><text fill="#000000" font-family="sans-serif" font-size="14" lengthAdjust="spacing" textLength="165" x="13" y="1094.4395">+validateTrait(Object trait)</text></g><!--class VehicleRepository--><g id="elem_VehicleRepository"><rect codeLine="35" fill="#F1F1F1" height="196.9688" id="VehicleRepository" rx="2.5" ry="2.5" style="stroke:#181818;stroke-width:0.5;" width="535" x="1474.5" y="517"/><ellipse cx="1680.75" cy="533" fill="#ADD1B2" rx="11" ry="11" style="stroke:#181818;stroke-width:1.0;"/><path d="M1683.5156,528.875 Q1683.6719,528.6563 1683.8594,528.5469 Q1684.0469,528.4375 1684.2656,528.4375 Q1684.6406,528.4375 1684.875,528.7031 Q1685.1094,528.9531 1685.1094,529.5625 L1685.1094,531.0156 Q1685.1094,531.625 1684.875,531.8906 Q1684.6406,532.1563 1684.2656,532.1563 Q1683.9219,532.1563 1683.7188,531.9531 Q1683.5156,531.7656 1683.4063,531.25 Q1683.3594,530.8906 1683.1719,530.7031 Q1682.8438,530.3281 1682.2344,530.1094 Q1681.625,529.8906 1681,529.8906 Q1680.2344,529.8906 1679.5938,530.2188 Q1678.9688,530.5469 1678.4688,531.2969 Q1677.9844,532.0469 1677.9844,533.0781 L1677.9844,534.1719 Q1677.9844,535.4063 1678.875,536.2344 Q1679.7656,537.0469 1681.3594,537.0469 Q1682.2969,537.0469 1682.9531,536.7969 Q1683.3438,536.6406 1683.7656,536.2031 Q1684.0313,535.9375 1684.1719,535.8594 Q1684.3281,535.7813 1684.5313,535.7813 Q1684.8594,535.7813 1685.1094,536.0469 Q1685.375,536.2969 1685.375,536.6406 Q1685.375,536.9844 1685.0313,537.3906 Q1684.5313,537.9688 1683.7344,538.2969 Q1682.6563,538.75 1681.3594,538.75 Q1679.8438,538.75 1678.6406,538.125 Q1677.6563,537.625 1676.9688,536.5625 Q1676.2813,535.4844 1676.2813,534.2031 L1676.2813,533.0469 Q1676.2813,531.7188 1676.8906,530.5781 Q1677.5156,529.4219 1678.6094,528.8125 Q1679.7031,528.1875 1680.9375,528.1875 Q1681.6719,528.1875 1682.3125,528.3594 Q1682.9688,528.5156 1683.5156,528.875 Z " fill="#000000"/><text fill="#000000" font-family="sans-serif" font-size="14" lengthAdjust="spacing" textLength="114" x="1701.25" y="538.7969">VehicleRepository</text><line style="stroke:#181818;stroke-width:0.5;" x1="1475.5" x2="2008.5" y1="549" y2="549"/><text fill="#000000" font-family="sans-serif" font-size="14" lengthAdjust="spacing" textLength="144" x="1480.5" y="568.1074">-List&lt;Vehicle&gt; vehicles</text><line style="stroke:#181818;stroke-width:0.5;" x1="1475.5" x2="2008.5" y1="575.6211" y2="575.6211"/><text fill="#000000" font-family="sans-serif" font-size="14" lengthAdjust="spacing" textLength="351" x="1480.5" y="594.7285">+Vehicle getVehiclebyPlateNumber(String plateNumber)</text><text fill="#000000" font-family="sans-serif" font-size="14" lengthAdjust="spacing" textLength="262" x="1480.5" y="613.3496">+boolean validateVehicle(Vehicle vehicle)</text><text fill="#000000" font-family="sans-serif" font-size="14" lengthAdjust="spacing" textLength="179" x="1480.5" y="631.9707">+List&lt;Vehicle&gt; getVehicles()</text><text fill="#000000" font-family="sans-serif" font-size="14" lengthAdjust="spacing" textLength="474" x="1480.5" y="650.5918">+boolean registerMaintenance(plateNumber, currentKm, maintenanceDate)</text><text fill="#000000" font-family="sans-serif" font-size="14" lengthAdjust="spacing" textLength="523" x="1480.5" y="669.2129">+Optional&lt;Vehicle&gt; createVehicle(String model,String brand, String type, VFM vfm)</text><text fill="#000000" font-family="sans-serif" font-size="14" lengthAdjust="spacing" textLength="237" x="1480.5" y="687.834">+boolean addVehicle(Vehicle vehicle)</text><text fill="#000000" font-family="sans-serif" font-size="14" lengthAdjust="spacing" textLength="306" x="1480.5" y="706.4551">+boolean vehiclesDoNotContain(Vehicle vehicle)</text></g><!--class AgendaEntry--><g id="elem_AgendaEntry"><rect codeLine="46" fill="#F1F1F1" height="345.9375" id="AgendaEntry" rx="2.5" ry="2.5" style="stroke:#181818;stroke-width:0.5;" width="743" x="328.5" y="793"/><ellipse cx="654.75" cy="809" fill="#ADD1B2" rx="11" ry="11" style="stroke:#181818;stroke-width:1.0;"/><path d="M657.5156,804.875 Q657.6719,804.6563 657.8594,804.5469 Q658.0469,804.4375 658.2656,804.4375 Q658.6406,804.4375 658.875,804.7031 Q659.1094,804.9531 659.1094,805.5625 L659.1094,807.0156 Q659.1094,807.625 658.875,807.8906 Q658.6406,808.1563 658.2656,808.1563 Q657.9219,808.1563 657.7188,807.9531 Q657.5156,807.7656 657.4063,807.25 Q657.3594,806.8906 657.1719,806.7031 Q656.8438,806.3281 656.2344,806.1094 Q655.625,805.8906 655,805.8906 Q654.2344,805.8906 653.5938,806.2188 Q652.9688,806.5469 652.4688,807.2969 Q651.9844,808.0469 651.9844,809.0781 L651.9844,810.1719 Q651.9844,811.4063 652.875,812.2344 Q653.7656,813.0469 655.3594,813.0469 Q656.2969,813.0469 656.9531,812.7969 Q657.3438,812.6406 657.7656,812.2031 Q658.0313,811.9375 658.1719,811.8594 Q658.3281,811.7813 658.5313,811.7813 Q658.8594,811.7813 659.1094,812.0469 Q659.375,812.2969 659.375,812.6406 Q659.375,812.9844 659.0313,813.3906 Q658.5313,813.9688 657.7344,814.2969 Q656.6563,814.75 655.3594,814.75 Q653.8438,814.75 652.6406,814.125 Q651.6563,813.625 650.9688,812.5625 Q650.2813,811.4844 650.2813,810.2031 L650.2813,809.0469 Q650.2813,807.7188 650.8906,806.5781 Q651.5156,805.4219 652.6094,804.8125 Q653.7031,804.1875 654.9375,804.1875 Q655.6719,804.1875 656.3125,804.3594 Q656.9688,804.5156 657.5156,804.875 Z " fill="#000000"/><text fill="#000000" font-family="sans-serif" font-size="14" lengthAdjust="spacing" textLength="82" x="675.25" y="814.7969">AgendaEntry</text><line style="stroke:#181818;stroke-width:0.5;" x1="329.5" x2="1070.5" y1="825" y2="825"/><text fill="#000000" font-family="sans-serif" font-size="14" lengthAdjust="spacing" textLength="72" x="334.5" y="844.1074">-title: String</text><text fill="#000000" font-family="sans-serif" font-size="14" lengthAdjust="spacing" textLength="147" x="334.5" y="862.7285">-taskDescription: String</text><text fill="#000000" font-family="sans-serif" font-size="14" lengthAdjust="spacing" textLength="101" x="334.5" y="881.3496">-urgency: String</text><text fill="#000000" font-family="sans-serif" font-size="14" lengthAdjust="spacing" textLength="102" x="334.5" y="899.9707">-duration: String</text><text fill="#000000" font-family="sans-serif" font-size="14" lengthAdjust="spacing" textLength="241" x="334.5" y="918.5918">-associatedGreenSpace: GreenSpace</text><text fill="#000000" font-family="sans-serif" font-size="14" lengthAdjust="spacing" textLength="173" x="334.5" y="937.2129">-associatedVehicle: Vehicle</text><text fill="#000000" font-family="sans-serif" font-size="14" lengthAdjust="spacing" textLength="218" x="334.5" y="955.834">-associatedVehicles: List&lt;Vehicle&gt;</text><text fill="#000000" font-family="sans-serif" font-size="14" lengthAdjust="spacing" textLength="88" x="334.5" y="974.4551">-status: String</text><text fill="#000000" font-family="sans-serif" font-size="14" lengthAdjust="spacing" textLength="135" x="334.5" y="993.0762">-startDate: LocalDate</text><line style="stroke:#181818;stroke-width:0.5;" x1="329.5" x2="1070.5" y1="1000.5898" y2="1000.5898"/><text fill="#000000" font-family="sans-serif" font-size="14" lengthAdjust="spacing" textLength="731" x="334.5" y="1019.6973">+AgendaEntry(String title, String taskDescription, String urgency, String duration, String status, LocalDate startDate)</text><text fill="#000000" font-family="sans-serif" font-size="14" lengthAdjust="spacing" textLength="338" x="334.5" y="1038.3184">+boolean addGreenSpace(GreenSpace greenSpace)</text><text fill="#000000" font-family="sans-serif" font-size="14" lengthAdjust="spacing" textLength="237" x="334.5" y="1056.9395">+boolean addVehicle(Vehicle vehicle)</text><text fill="#000000" font-family="sans-serif" font-size="14" lengthAdjust="spacing" textLength="237" x="334.5" y="1075.5605">+boolean addVehicle(Vehicle vehicle)</text><text fill="#000000" font-family="sans-serif" font-size="14" lengthAdjust="spacing" textLength="168" x="334.5" y="1094.1816">+boolean equals(Object o)</text><text fill="#000000" font-family="sans-serif" font-size="14" lengthAdjust="spacing" textLength="102" x="334.5" y="1112.8027">+int hashCode()</text><text fill="#000000" font-family="sans-serif" font-size="14" lengthAdjust="spacing" textLength="138" x="334.5" y="1131.4238">+AgendaEntry clone()</text></g><!--class Agenda--><g id="elem_Agenda"><rect codeLine="65" fill="#F1F1F1" height="215.5898" id="Agenda" rx="2.5" ry="2.5" style="stroke:#181818;stroke-width:0.5;" width="315" x="1251.5" y="1218"/><ellipse cx="1380.25" cy="1234" fill="#ADD1B2" rx="11" ry="11" style="stroke:#181818;stroke-width:1.0;"/><path d="M1383.0156,1229.875 Q1383.1719,1229.6563 1383.3594,1229.5469 Q1383.5469,1229.4375 1383.7656,1229.4375 Q1384.1406,1229.4375 1384.375,1229.7031 Q1384.6094,1229.9531 1384.6094,1230.5625 L1384.6094,1232.0156 Q1384.6094,1232.625 1384.375,1232.8906 Q1384.1406,1233.1563 1383.7656,1233.1563 Q1383.4219,1233.1563 1383.2188,1232.9531 Q1383.0156,1232.7656 1382.9063,1232.25 Q1382.8594,1231.8906 1382.6719,1231.7031 Q1382.3438,1231.3281 1381.7344,1231.1094 Q1381.125,1230.8906 1380.5,1230.8906 Q1379.7344,1230.8906 1379.0938,1231.2188 Q1378.4688,1231.5469 1377.9688,1232.2969 Q1377.4844,1233.0469 1377.4844,1234.0781 L1377.4844,1235.1719 Q1377.4844,1236.4063 1378.375,1237.2344 Q1379.2656,1238.0469 1380.8594,1238.0469 Q1381.7969,1238.0469 1382.4531,1237.7969 Q1382.8438,1237.6406 1383.2656,1237.2031 Q1383.5313,1236.9375 1383.6719,1236.8594 Q1383.8281,1236.7813 1384.0313,1236.7813 Q1384.3594,1236.7813 1384.6094,1237.0469 Q1384.875,1237.2969 1384.875,1237.6406 Q1384.875,1237.9844 1384.5313,1238.3906 Q1384.0313,1238.9688 1383.2344,1239.2969 Q1382.1563,1239.75 1380.8594,1239.75 Q1379.3438,1239.75 1378.1406,1239.125 Q1377.1563,1238.625 1376.4688,1237.5625 Q1375.7813,1236.4844 1375.7813,1235.2031 L1375.7813,1234.0469 Q1375.7813,1232.7188 1376.3906,1231.5781 Q1377.0156,1230.4219 1378.1094,1229.8125 Q1379.2031,1229.1875 1380.4375,1229.1875 Q1381.1719,1229.1875 1381.8125,1229.3594 Q1382.4688,1229.5156 1383.0156,1229.875 Z " fill="#000000"/><text fill="#000000" font-family="sans-serif" font-size="14" lengthAdjust="spacing" textLength="49" x="1400.75" y="1239.7969">Agenda</text><line style="stroke:#181818;stroke-width:0.5;" x1="1252.5" x2="1565.5" y1="1250" y2="1250"/><text fill="#000000" font-family="sans-serif" font-size="14" lengthAdjust="spacing" textLength="176" x="1257.5" y="1269.1074">-entries: List&lt;AgendaEntry&gt;</text><text fill="#000000" font-family="sans-serif" font-size="14" lengthAdjust="spacing" textLength="70" x="1257.5" y="1287.7285">-gsm: GSM</text><line style="stroke:#181818;stroke-width:0.5;" x1="1252.5" x2="1565.5" y1="1295.2422" y2="1295.2422"/><text fill="#000000" font-family="sans-serif" font-size="14" lengthAdjust="spacing" textLength="303" x="1257.5" y="1314.3496">+Agenda(List&lt;AgendaEntry&gt; entries, GSM gsm)</text><text fill="#000000" font-family="sans-serif" font-size="14" lengthAdjust="spacing" textLength="199" x="1257.5" y="1332.9707">+boolean addEntry(Entry entry)</text><text fill="#000000" font-family="sans-serif" font-size="14" lengthAdjust="spacing" textLength="283" x="1257.5" y="1351.5918">+boolean postponeEntry(AgendaEntry entry)</text><text fill="#000000" font-family="sans-serif" font-size="14" lengthAdjust="spacing" textLength="265" x="1257.5" y="1370.2129">+boolean cancelEntry(AgendaEntry entry)</text><text fill="#000000" font-family="sans-serif" font-size="14" lengthAdjust="spacing" textLength="168" x="1257.5" y="1388.834">+boolean equals(Object o)</text><text fill="#000000" font-family="sans-serif" font-size="14" lengthAdjust="spacing" textLength="102" x="1257.5" y="1407.4551">+int hashCode()</text><text fill="#000000" font-family="sans-serif" font-size="14" lengthAdjust="spacing" textLength="138" x="1257.5" y="1426.0762">+AgendaEntry clone()</text></g><!--class AgendaRepository--><g id="elem_AgendaRepository"><rect codeLine="77" fill="#F1F1F1" height="141.1055" id="AgendaRepository" rx="2.5" ry="2.5" style="stroke:#181818;stroke-width:0.5;" width="260" x="2045" y="545"/><ellipse cx="2112.25" cy="561" fill="#ADD1B2" rx="11" ry="11" style="stroke:#181818;stroke-width:1.0;"/><path d="M2115.0156,556.875 Q2115.1719,556.6563 2115.3594,556.5469 Q2115.5469,556.4375 2115.7656,556.4375 Q2116.1406,556.4375 2116.375,556.7031 Q2116.6094,556.9531 2116.6094,557.5625 L2116.6094,559.0156 Q2116.6094,559.625 2116.375,559.8906 Q2116.1406,560.1563 2115.7656,560.1563 Q2115.4219,560.1563 2115.2188,559.9531 Q2115.0156,559.7656 2114.9063,559.25 Q2114.8594,558.8906 2114.6719,558.7031 Q2114.3438,558.3281 2113.7344,558.1094 Q2113.125,557.8906 2112.5,557.8906 Q2111.7344,557.8906 2111.0938,558.2188 Q2110.4688,558.5469 2109.9688,559.2969 Q2109.4844,560.0469 2109.4844,561.0781 L2109.4844,562.1719 Q2109.4844,563.4063 2110.375,564.2344 Q2111.2656,565.0469 2112.8594,565.0469 Q2113.7969,565.0469 2114.4531,564.7969 Q2114.8438,564.6406 2115.2656,564.2031 Q2115.5313,563.9375 2115.6719,563.8594 Q2115.8281,563.7813 2116.0313,563.7813 Q2116.3594,563.7813 2116.6094,564.0469 Q2116.875,564.2969 2116.875,564.6406 Q2116.875,564.9844 2116.5313,565.3906 Q2116.0313,565.9688 2115.2344,566.2969 Q2114.1563,566.75 2112.8594,566.75 Q2111.3438,566.75 2110.1406,566.125 Q2109.1563,565.625 2108.4688,564.5625 Q2107.7813,563.4844 2107.7813,562.2031 L2107.7813,561.0469 Q2107.7813,559.7188 2108.3906,558.5781 Q2109.0156,557.4219 2110.1094,556.8125 Q2111.2031,556.1875 2112.4375,556.1875 Q2113.1719,556.1875 2113.8125,556.3594 Q2114.4688,556.5156 2115.0156,556.875 Z " fill="#000000"/><text fill="#000000" font-family="sans-serif" font-size="14" lengthAdjust="spacing" textLength="117" x="2132.75" y="566.7969">AgendaRepository</text><line style="stroke:#181818;stroke-width:0.5;" x1="2046" x2="2304" y1="577" y2="577"/><text fill="#000000" font-family="sans-serif" font-size="14" lengthAdjust="spacing" textLength="151" x="2051" y="596.1074">-List&lt;Agenda&gt; agendas</text><line style="stroke:#181818;stroke-width:0.5;" x1="2046" x2="2304" y1="603.6211" y2="603.6211"/><text fill="#000000" font-family="sans-serif" font-size="14" lengthAdjust="spacing" textLength="247" x="2051" y="622.7285">+boolean addAgenda(Agenda agenda)</text><text fill="#000000" font-family="sans-serif" font-size="14" lengthAdjust="spacing" textLength="185" x="2051" y="641.3496">+List&lt;Agenda&gt; getAgendas()</text><text fill="#000000" font-family="sans-serif" font-size="14" lengthAdjust="spacing" textLength="248" x="2051" y="659.9707">+Agenda getAgendaByGSM(GSM gsm)</text><text fill="#000000" font-family="sans-serif" font-size="14" lengthAdjust="spacing" textLength="247" x="2051" y="678.5918">+boolean addAgenda(Agenda agenda)</text></g><!--class Repositories--><g id="elem_Repositories"><rect codeLine="85" fill="#F1F1F1" height="103.8633" id="Repositories" rx="2.5" ry="2.5" style="stroke:#181818;stroke-width:0.5;" width="296" x="1791" y="334"/><ellipse cx="1895.25" cy="350" fill="#ADD1B2" rx="11" ry="11" style="stroke:#181818;stroke-width:1.0;"/><path d="M1898.0156,345.875 Q1898.1719,345.6563 1898.3594,345.5469 Q1898.5469,345.4375 1898.7656,345.4375 Q1899.1406,345.4375 1899.375,345.7031 Q1899.6094,345.9531 1899.6094,346.5625 L1899.6094,348.0156 Q1899.6094,348.625 1899.375,348.8906 Q1899.1406,349.1563 1898.7656,349.1563 Q1898.4219,349.1563 1898.2188,348.9531 Q1898.0156,348.7656 1897.9063,348.25 Q1897.8594,347.8906 1897.6719,347.7031 Q1897.3438,347.3281 1896.7344,347.1094 Q1896.125,346.8906 1895.5,346.8906 Q1894.7344,346.8906 1894.0938,347.2188 Q1893.4688,347.5469 1892.9688,348.2969 Q1892.4844,349.0469 1892.4844,350.0781 L1892.4844,351.1719 Q1892.4844,352.4063 1893.375,353.2344 Q1894.2656,354.0469 1895.8594,354.0469 Q1896.7969,354.0469 1897.4531,353.7969 Q1897.8438,353.6406 1898.2656,353.2031 Q1898.5313,352.9375 1898.6719,352.8594 Q1898.8281,352.7813 1899.0313,352.7813 Q1899.3594,352.7813 1899.6094,353.0469 Q1899.875,353.2969 1899.875,353.6406 Q1899.875,353.9844 1899.5313,354.3906 Q1899.0313,354.9688 1898.2344,355.2969 Q1897.1563,355.75 1895.8594,355.75 Q1894.3438,355.75 1893.1406,355.125 Q1892.1563,354.625 1891.4688,353.5625 Q1890.7813,352.4844 1890.7813,351.2031 L1890.7813,350.0469 Q1890.7813,348.7188 1891.3906,347.5781 Q1892.0156,346.4219 1893.1094,345.8125 Q1894.2031,345.1875 1895.4375,345.1875 Q1896.1719,345.1875 1896.8125,345.3594 Q1897.4688,345.5156 1898.0156,345.875 Z " fill="#000000"/><text fill="#000000" font-family="sans-serif" font-size="14" lengthAdjust="spacing" textLength="79" x="1915.75" y="355.7969">Repositories</text><line style="stroke:#181818;stroke-width:0.5;" x1="1792" x2="2086" y1="366" y2="366"/><line style="stroke:#181818;stroke-width:0.5;" x1="1792" x2="2086" y1="374" y2="374"/><text fill="#000000" font-family="sans-serif" font-size="14" lengthAdjust="spacing" textLength="182" x="1797" y="393.1074">+getInstance() : Repositories</text><text fill="#000000" font-family="sans-serif" font-size="14" lengthAdjust="spacing" textLength="278" x="1797" y="411.7285">+getVehicleRepository() : VehicleRepository</text><text fill="#000000" font-family="sans-serif" font-size="14" lengthAdjust="spacing" textLength="284" x="1797" y="430.3496">+getAgendaRepository() : AgendaRepository</text></g><!--class AssignVehiclesUI--><g id="elem_AssignVehiclesUI"><rect codeLine="91" fill="#F1F1F1" height="234.2109" id="AssignVehiclesUI" rx="2.5" ry="2.5" style="stroke:#181818;stroke-width:0.5;" width="274" x="1004" y="21"/><ellipse cx="1083.25" cy="37" fill="#ADD1B2" rx="11" ry="11" style="stroke:#181818;stroke-width:1.0;"/><path d="M1086.0156,32.875 Q1086.1719,32.6563 1086.3594,32.5469 Q1086.5469,32.4375 1086.7656,32.4375 Q1087.1406,32.4375 1087.375,32.7031 Q1087.6094,32.9531 1087.6094,33.5625 L1087.6094,35.0156 Q1087.6094,35.625 1087.375,35.8906 Q1087.1406,36.1563 1086.7656,36.1563 Q1086.4219,36.1563 1086.2188,35.9531 Q1086.0156,35.7656 1085.9063,35.25 Q1085.8594,34.8906 1085.6719,34.7031 Q1085.3438,34.3281 1084.7344,34.1094 Q1084.125,33.8906 1083.5,33.8906 Q1082.7344,33.8906 1082.0938,34.2188 Q1081.4688,34.5469 1080.9688,35.2969 Q1080.4844,36.0469 1080.4844,37.0781 L1080.4844,38.1719 Q1080.4844,39.4063 1081.375,40.2344 Q1082.2656,41.0469 1083.8594,41.0469 Q1084.7969,41.0469 1085.4531,40.7969 Q1085.8438,40.6406 1086.2656,40.2031 Q1086.5313,39.9375 1086.6719,39.8594 Q1086.8281,39.7813 1087.0313,39.7813 Q1087.3594,39.7813 1087.6094,40.0469 Q1087.875,40.2969 1087.875,40.6406 Q1087.875,40.9844 1087.5313,41.3906 Q1087.0313,41.9688 1086.2344,42.2969 Q1085.1563,42.75 1083.8594,42.75 Q1082.3438,42.75 1081.1406,42.125 Q1080.1563,41.625 1079.4688,40.5625 Q1078.7813,39.4844 1078.7813,38.2031 L1078.7813,37.0469 Q1078.7813,35.7188 1079.3906,34.5781 Q1080.0156,33.4219 1081.1094,32.8125 Q1082.2031,32.1875 1083.4375,32.1875 Q1084.1719,32.1875 1084.8125,32.3594 Q1085.4688,32.5156 1086.0156,32.875 Z " fill="#000000"/><text fill="#000000" font-family="sans-serif" font-size="14" lengthAdjust="spacing" textLength="107" x="1103.75" y="42.7969">AssignVehiclesUI</text><line style="stroke:#181818;stroke-width:0.5;" x1="1005" x2="1277" y1="53" y2="53"/><text fill="#000000" font-family="sans-serif" font-size="14" lengthAdjust="spacing" textLength="229" x="1010" y="72.1074">-controller: AssignVehiclesController</text><text fill="#000000" font-family="sans-serif" font-size="14" lengthAdjust="spacing" textLength="210" x="1010" y="90.7285">-selectedVehicles: List&lt;Vehicles&gt;</text><text fill="#000000" font-family="sans-serif" font-size="14" lengthAdjust="spacing" textLength="176" x="1010" y="109.3496">-agendaEntry: AgendaEntry</text><text fill="#000000" font-family="sans-serif" font-size="14" lengthAdjust="spacing" textLength="262" x="1010" y="127.9707">+PERGUNTAR AO PROFESSOR PPROG</text><line style="stroke:#181818;stroke-width:0.5;" x1="1005" x2="1277" y1="135.4844" y2="135.4844"/><text fill="#000000" font-family="sans-serif" font-size="14" lengthAdjust="spacing" textLength="261" x="1010" y="154.5918">+AssignVehiclesController getController()</text><text fill="#000000" font-family="sans-serif" font-size="14" lengthAdjust="spacing" textLength="69" x="1010" y="173.2129">+void run()</text><text fill="#000000" font-family="sans-serif" font-size="14" lengthAdjust="spacing" textLength="119" x="1010" y="191.834">+void submitData()</text><text fill="#000000" font-family="sans-serif" font-size="14" lengthAdjust="spacing" textLength="126" x="1010" y="210.4551">+void requestData()</text><text fill="#000000" font-family="sans-serif" font-size="14" lengthAdjust="spacing" textLength="234" x="1010" y="229.0762">+AgendaEntry requestAgendaEntry()</text><text fill="#000000" font-family="sans-serif" font-size="14" lengthAdjust="spacing" textLength="169" x="1010" y="247.6973">+Vehicle requestVehicles()</text></g><!--class AssignVehiclesController--><g id="elem_AssignVehiclesController"><rect codeLine="104" fill="#F1F1F1" height="215.5898" id="AssignVehiclesController" rx="2.5" ry="2.5" style="stroke:#181818;stroke-width:0.5;" width="989" x="1741.5" y="30"/><ellipse cx="2153.25" cy="46" fill="#ADD1B2" rx="11" ry="11" style="stroke:#181818;stroke-width:1.0;"/><path d="M2156.0156,41.875 Q2156.1719,41.6563 2156.3594,41.5469 Q2156.5469,41.4375 2156.7656,41.4375 Q2157.1406,41.4375 2157.375,41.7031 Q2157.6094,41.9531 2157.6094,42.5625 L2157.6094,44.0156 Q2157.6094,44.625 2157.375,44.8906 Q2157.1406,45.1563 2156.7656,45.1563 Q2156.4219,45.1563 2156.2188,44.9531 Q2156.0156,44.7656 2155.9063,44.25 Q2155.8594,43.8906 2155.6719,43.7031 Q2155.3438,43.3281 2154.7344,43.1094 Q2154.125,42.8906 2153.5,42.8906 Q2152.7344,42.8906 2152.0938,43.2188 Q2151.4688,43.5469 2150.9688,44.2969 Q2150.4844,45.0469 2150.4844,46.0781 L2150.4844,47.1719 Q2150.4844,48.4063 2151.375,49.2344 Q2152.2656,50.0469 2153.8594,50.0469 Q2154.7969,50.0469 2155.4531,49.7969 Q2155.8438,49.6406 2156.2656,49.2031 Q2156.5313,48.9375 2156.6719,48.8594 Q2156.8281,48.7813 2157.0313,48.7813 Q2157.3594,48.7813 2157.6094,49.0469 Q2157.875,49.2969 2157.875,49.6406 Q2157.875,49.9844 2157.5313,50.3906 Q2157.0313,50.9688 2156.2344,51.2969 Q2155.1563,51.75 2153.8594,51.75 Q2152.3438,51.75 2151.1406,51.125 Q2150.1563,50.625 2149.4688,49.5625 Q2148.7813,48.4844 2148.7813,47.2031 L2148.7813,46.0469 Q2148.7813,44.7188 2149.3906,43.5781 Q2150.0156,42.4219 2151.1094,41.8125 Q2152.2031,41.1875 2153.4375,41.1875 Q2154.1719,41.1875 2154.8125,41.3594 Q2155.4688,41.5156 2156.0156,41.875 Z " fill="#000000"/><text fill="#000000" font-family="sans-serif" font-size="14" lengthAdjust="spacing" textLength="157" x="2173.75" y="51.7969">AssignVehiclesController</text><line style="stroke:#181818;stroke-width:0.5;" x1="1742.5" x2="2729.5" y1="62" y2="62"/><text fill="#000000" font-family="sans-serif" font-size="14" lengthAdjust="spacing" textLength="239" x="1747.5" y="81.1074">-vehicleRepository: VehicleRepository</text><text fill="#000000" font-family="sans-serif" font-size="14" lengthAdjust="spacing" textLength="246" x="1747.5" y="99.7285">-agendaRepository: AgendaRepository</text><text fill="#000000" font-family="sans-serif" font-size="14" lengthAdjust="spacing" textLength="328" x="1747.5" y="118.3496">-authenticationRepository: AuthenticationRepository</text><line style="stroke:#181818;stroke-width:0.5;" x1="1742.5" x2="2729.5" y1="125.8633" y2="125.8633"/><text fill="#000000" font-family="sans-serif" font-size="14" lengthAdjust="spacing" textLength="977" x="1747.5" y="144.9707">+AssignVehiclesController(vehicleRepository VehicleRepository, AgendaRepository agendaRepository, AuthenticationRepository authenticationRepository)</text><text fill="#000000" font-family="sans-serif" font-size="14" lengthAdjust="spacing" textLength="270" x="1747.5" y="163.5918">+VehicleRepository getVehicleRepository()</text><text fill="#000000" font-family="sans-serif" font-size="14" lengthAdjust="spacing" textLength="276" x="1747.5" y="182.2129">+AgendaRepository getAgendaRepository()</text><text fill="#000000" font-family="sans-serif" font-size="14" lengthAdjust="spacing" textLength="358" x="1747.5" y="200.834">+AuthenticationRepository getAuthenticationRepository()</text><text fill="#000000" font-family="sans-serif" font-size="14" lengthAdjust="spacing" textLength="580" x="1747.5" y="219.4551">+Optional&lt;AgendaEntry&gt; assignVehicle(AgendaEntry entry, List&lt;Vehicle&gt; selectedVehicles)</text><text fill="#000000" font-family="sans-serif" font-size="14" lengthAdjust="spacing" textLength="187" x="1747.5" y="238.0762">+GSM getGSMFromSession()</text></g><!--class GSM--><g id="elem_GSM"><rect codeLine="116" fill="#F1F1F1" height="122.4844" id="GSM" rx="2.5" ry="2.5" style="stroke:#181818;stroke-width:0.5;" width="124" x="815" y="77"/><ellipse cx="857.45" cy="93" fill="#ADD1B2" rx="11" ry="11" style="stroke:#181818;stroke-width:1.0;"/><path d="M860.2156,88.875 Q860.3719,88.6563 860.5594,88.5469 Q860.7469,88.4375 860.9656,88.4375 Q861.3406,88.4375 861.575,88.7031 Q861.8094,88.9531 861.8094,89.5625 L861.8094,91.0156 Q861.8094,91.625 861.575,91.8906 Q861.3406,92.1563 860.9656,92.1563 Q860.6219,92.1563 860.4188,91.9531 Q860.2156,91.7656 860.1063,91.25 Q860.0594,90.8906 859.8719,90.7031 Q859.5438,90.3281 858.9344,90.1094 Q858.325,89.8906 857.7,89.8906 Q856.9344,89.8906 856.2938,90.2188 Q855.6688,90.5469 855.1688,91.2969 Q854.6844,92.0469 854.6844,93.0781 L854.6844,94.1719 Q854.6844,95.4063 855.575,96.2344 Q856.4656,97.0469 858.0594,97.0469 Q858.9969,97.0469 859.6531,96.7969 Q860.0438,96.6406 860.4656,96.2031 Q860.7313,95.9375 860.8719,95.8594 Q861.0281,95.7813 861.2313,95.7813 Q861.5594,95.7813 861.8094,96.0469 Q862.075,96.2969 862.075,96.6406 Q862.075,96.9844 861.7313,97.3906 Q861.2313,97.9688 860.4344,98.2969 Q859.3563,98.75 858.0594,98.75 Q856.5438,98.75 855.3406,98.125 Q854.3563,97.625 853.6688,96.5625 Q852.9813,95.4844 852.9813,94.2031 L852.9813,93.0469 Q852.9813,91.7188 853.5906,90.5781 Q854.2156,89.4219 855.3094,88.8125 Q856.4031,88.1875 857.6375,88.1875 Q858.3719,88.1875 859.0125,88.3594 Q859.6688,88.5156 860.2156,88.875 Z " fill="#000000"/><text fill="#000000" font-family="sans-serif" font-size="14" lengthAdjust="spacing" textLength="31" x="877.55" y="98.7969">GSM</text><line style="stroke:#181818;stroke-width:0.5;" x1="816" x2="938" y1="109" y2="109"/><text fill="#000000" font-family="sans-serif" font-size="14" lengthAdjust="spacing" textLength="81" x="821" y="128.1074">-String name</text><text fill="#000000" font-family="sans-serif" font-size="14" lengthAdjust="spacing" textLength="92" x="821" y="146.7285">-int vatNumber</text><text fill="#000000" font-family="sans-serif" font-size="14" lengthAdjust="spacing" textLength="79" x="821" y="165.3496">-String email</text><text fill="#000000" font-family="sans-serif" font-size="14" lengthAdjust="spacing" textLength="112" x="821" y="183.9707">-int phonenumber</text><line style="stroke:#181818;stroke-width:0.5;" x1="816" x2="938" y1="191.4844" y2="191.4844"/></g><g id="elem_GMN13"><path d="M1313.5,115.5 L1313.5,160.082 A0,0 0 0 0 1313.5,160.082 L1706.5,160.082 A0,0 0 0 0 1706.5,160.082 L1706.5,142 L1741.22,138 L1706.5,134 L1706.5,125.5 L1696.5,115.5 L1313.5,115.5 A0,0 0 0 0 1313.5,115.5 " fill="#FEFFDD" style="stroke:#181818;stroke-width:0.5;"/><path d="M1696.5,115.5 L1696.5,125.5 L1706.5,125.5 L1696.5,115.5 " fill="#FEFFDD" style="stroke:#181818;stroke-width:0.5;"/><text fill="#000000" font-family="sans-serif" font-size="13" lengthAdjust="spacing" textLength="372" x="1319.5" y="134.5283">- Selected AgendaEntry and vehicles are read from GSM's input.</text><text fill="#000000" font-family="sans-serif" font-size="13" lengthAdjust="spacing" textLength="161" x="1319.5" y="151.8193">- Updates the AgendaEntry.</text></g><g id="elem_GMN16"><path d="M15.5,115.5 L15.5,160.082 L402.5,160.082 L402.5,125.5 L392.5,115.5 L15.5,115.5 " fill="#FEFFDD" style="stroke:#181818;stroke-width:0.5;"/><path d="M392.5,115.5 L392.5,125.5 L402.5,125.5 L392.5,115.5 " fill="#FEFFDD" style="stroke:#181818;stroke-width:1.0;"/><text fill="#000000" font-family="sans-serif" font-size="13" lengthAdjust="spacing" textLength="366" x="21.5" y="134.5283">- Responsible for assigning Vehicles to an Entry in the Agenda.</text><text fill="#000000" font-family="sans-serif" font-size="13" lengthAdjust="spacing" textLength="250" x="21.5" y="151.8193">- Communicates with the AssignVehiclesUI</text></g><g id="elem_GMN19"><path d="M438,107 L438,168.873 L780,168.873 L780,117 L770,107 L438,107 " fill="#FEFFDD" style="stroke:#181818;stroke-width:0.5;"/><path d="M770,107 L770,117 L780,117 L770,107 " fill="#FEFFDD" style="stroke:#181818;stroke-width:1.0;"/><text fill="#000000" font-family="sans-serif" font-size="13" lengthAdjust="spacing" textLength="321" x="444" y="126.0283">- UI for GSM to assign vehicles to entries in the Agenda</text><text fill="#000000" font-family="sans-serif" font-size="13" lengthAdjust="spacing" textLength="271" x="444" y="143.3193">- Communicates with AssignVehiclesController</text><text fill="#000000" font-family="sans-serif" font-size="13" lengthAdjust="spacing" textLength="309" x="444" y="160.6104">- Receives repositories from AssignVehiclesController</text></g><g id="elem_GMN22"><path d="M1106.5,952.5 L1106.5,962 L1071.62,966 L1106.5,970 L1106.5,979.791 A0,0 0 0 0 1106.5,979.791 L1355.5,979.791 A0,0 0 0 0 1355.5,979.791 L1355.5,962.5 L1345.5,952.5 L1106.5,952.5 A0,0 0 0 0 1106.5,952.5 " fill="#FEFFDD" style="stroke:#181818;stroke-width:0.5;"/><path d="M1345.5,952.5 L1345.5,962.5 L1355.5,962.5 L1345.5,952.5 " fill="#FEFFDD" style="stroke:#181818;stroke-width:0.5;"/><text fill="#000000" font-family="sans-serif" font-size="13" lengthAdjust="spacing" textLength="228" x="1112.5" y="971.5283">- Registered by the GSM in the Agenda</text></g><!--link GMN16 to GSM--><g id="link_GMN16_GSM"><path d="M248.02,115.46 C313.28,77.76 437.5,6 437.5,6 C437.5,6 779.5,6 779.5,6 C779.5,6 797,21 797,21 C797,21 815.77,48.45 835.13,76.76 " fill="none" id="GMN16-GSM" style="stroke:#181818;stroke-width:1.0;stroke-dasharray:7.0,7.0;"/></g><!--link GMN19 to AssignVehiclesUI--><g id="link_GMN19_AssignVehiclesUI"><path d="M657.44,106.88 C718.2,67.86 814.5,6 814.5,6 C814.5,6 938.5,6 938.5,6 C938.5,6 967.72,25.05 1003.97,48.67 " fill="none" id="GMN19-AssignVehiclesUI" style="stroke:#181818;stroke-width:1.0;stroke-dasharray:7.0,7.0;"/></g><!--link GSM to Vehicle--><g id="link_GSM_Vehicle"><path codeLine="143" d="M835.59,199.04 C816.07,227.34 797,255 797,255 C797,255 421.5732,646.4098 229.1932,846.9898 " fill="none" id="GSM-to-Vehicle" style="stroke:#181818;stroke-width:1.0;"/><polygon fill="#181818" points="225.04,851.32,234.1566,847.5935,228.501,847.7115,228.383,842.0559,225.04,851.32" style="stroke:#181818;stroke-width:1.0;"/><text fill="#000000" font-family="sans-serif" font-size="13" lengthAdjust="spacing" textLength="45" x="589" y="483.0283">assigns</text></g><!--link Vehicle to AgendaEntry--><g id="link_Vehicle_AgendaEntry"><path codeLine="144" d="M225.16,966 C255.95,966 285.27,966 322.45,966 " fill="none" id="Vehicle-to-AgendaEntry" style="stroke:#181818;stroke-width:1.0;"/><polygon fill="#181818" points="328.45,966,319.45,962,323.45,966,319.45,970,328.45,966" style="stroke:#181818;stroke-width:1.0;"/><text fill="#000000" font-family="sans-serif" font-size="13" lengthAdjust="spacing" textLength="67" x="243.25" y="959.0283">assigned to</text></g><!--link GSM to Agenda--><g id="link_GSM_Agenda"><path codeLine="145" d="M933.42,199.04 C960.01,227.34 986,255 986,255 C986,255 1409,385 1409,385 C1409,385 1409,385 1409,967 C1409,967 1409,1106.14 1409,1211.59 " fill="none" id="GSM-to-Agenda" style="stroke:#181818;stroke-width:1.0;"/><polygon fill="#181818" points="1409,1217.59,1413,1208.59,1409,1212.59,1405,1208.59,1409,1217.59" style="stroke:#181818;stroke-width:1.0;"/><text fill="#000000" font-family="sans-serif" font-size="13" lengthAdjust="spacing" textLength="28" x="1410" y="621.0283">uses</text></g><!--link AgendaEntry to Agenda--><g id="link_AgendaEntry_Agenda"><path codeLine="146" d="M1040.74,1139.05 C1114.39,1176.24 1183.4641,1211.1155 1245.9641,1242.6755 " fill="none" id="AgendaEntry-to-Agenda" style="stroke:#181818;stroke-width:1.0;"/><polygon fill="#181818" points="1251.32,1245.38,1245.0892,1237.7526,1246.8568,1243.1262,1241.4831,1244.8938,1251.32,1245.38" style="stroke:#181818;stroke-width:1.0;"/><text fill="#000000" font-family="sans-serif" font-size="13" lengthAdjust="spacing" textLength="51" x="1120" y="1184.0283">shown in</text></g><!--link GSM to AssignVehiclesUI--><g id="link_GSM_AssignVehiclesUI"><path codeLine="147" d="M939.23,138 C958.82,138 975.28,138 997.95,138 " fill="none" id="GSM-to-AssignVehiclesUI" style="stroke:#181818;stroke-width:1.0;"/><polygon fill="#181818" points="1003.95,138,994.95,134,998.95,138,994.95,142,1003.95,138" style="stroke:#181818;stroke-width:1.0;"/><text fill="#000000" font-family="sans-serif" font-size="13" lengthAdjust="spacing" textLength="28" x="957.5" y="131.0283">uses</text></g><!--link Repositories to Repositories--><g id="link_Repositories_Repositories"><path codeLine="149" d="M2087.27,370.9 C2108.07,373.36 2122,378.4 2122,386 C2122,393.6 2114.0285,397.9353 2093.2285,400.3953 " fill="none" id="Repositories-to-Repositories" style="stroke:#181818;stroke-width:1.0;"/><polygon fill="#181818" points="2087.27,401.1,2096.6775,404.0153,2092.2354,400.5127,2095.7379,396.0706,2087.27,401.1" style="stroke:#181818;stroke-width:1.0;"/><text fill="#000000" font-family="sans-serif" font-size="13" lengthAdjust="spacing" textLength="49" x="2128" y="391.5283">instance</text></g><!--link ApplicationSession to ApplicationSession--><g id="link_ApplicationSession_ApplicationSession"><path codeLine="150" d="M2599.66,369.29 C2619.5,370.28 2634.5,375.85 2634.5,386 C2634.5,396.15 2625.4925,401.421 2605.6525,402.411 " fill="none" id="ApplicationSession-to-ApplicationSession" style="stroke:#181818;stroke-width:1.0;"/><polygon fill="#181818" points="2599.66,402.71,2608.8482,406.2565,2604.6538,402.4608,2608.4495,398.2664,2599.66,402.71" style="stroke:#181818;stroke-width:1.0;"/><text fill="#000000" font-family="sans-serif" font-size="13" lengthAdjust="spacing" textLength="49" x="2640.5" y="391.5283">instance</text></g><!--link AssignVehiclesUI to AssignVehiclesController--><g id="link_AssignVehiclesUI_AssignVehiclesController"><path codeLine="152" d="M1278.18,33.03 C1298.89,17.18 1313.5,6 1313.5,6 C1313.5,6 1706.5,6 1706.5,6 C1706.5,6 1739.8482,14.3084 1796.8782,28.5284 " fill="none" id="AssignVehiclesUI-to-AssignVehiclesController" style="stroke:#181818;stroke-width:1.0;stroke-dasharray:7.0,7.0;"/><polygon fill="#181818" points="1802.7,29.98,1794.9351,23.9214,1797.8485,28.7703,1792.9996,31.6838,1802.7,29.98" style="stroke:#181818;stroke-width:1.0;"/></g><!--link AssignVehiclesController to Repositories--><g id="link_AssignVehiclesController_Repositories"><path codeLine="154" d="M2106.6,246.18 C2069.86,276.61 2036.1605,304.5224 2005.4505,329.9624 " fill="none" id="AssignVehiclesController-to-Repositories" style="stroke:#181818;stroke-width:1.0;"/><polygon fill="#181818" points="2000.83,333.79,2010.3125,331.1289,2004.6804,330.6003,2005.209,324.9682,2000.83,333.79" style="stroke:#181818;stroke-width:1.0;"/><text fill="#000000" font-family="sans-serif" font-size="13" lengthAdjust="spacing" textLength="108" x="2054" y="300.0283">retrieves instances</text></g><!--link Repositories to AgendaRepository--><g id="link_Repositories_AgendaRepository"><path codeLine="156" d="M1991.96,438.06 C2024.58,469.5 2062.5206,506.0655 2098.2106,540.4755 " fill="none" id="Repositories-to-AgendaRepository" style="stroke:#181818;stroke-width:1.0;"/><polygon fill="#181818" points="2102.53,544.64,2098.8272,535.5137,2098.9305,541.1696,2093.2746,541.2729,2102.53,544.64" style="stroke:#181818;stroke-width:1.0;"/><text fill="#000000" font-family="sans-serif" font-size="13" lengthAdjust="spacing" textLength="56" x="2037" y="483.0283">accesses</text></g><!--link Repositories to VehicleRepository--><g id="link_Repositories_VehicleRepository"><path codeLine="157" d="M1894.79,438.06 C1874.6,461.37 1853.9079,485.2744 1830.3779,512.4444 " fill="none" id="Repositories-to-VehicleRepository" style="stroke:#181818;stroke-width:1.0;"/><polygon fill="#181818" points="1826.45,516.98,1835.3656,512.7953,1829.7233,513.2004,1829.3182,507.558,1826.45,516.98" style="stroke:#181818;stroke-width:1.0;"/><text fill="#000000" font-family="sans-serif" font-size="13" lengthAdjust="spacing" textLength="56" x="1865" y="483.0283">accesses</text></g><!--link AssignVehiclesController to VehicleRepository--><g id="link_AssignVehiclesController_VehicleRepository"><path codeLine="159" d="M1925.26,246.06 C1793.59,291.42 1670,334 1670,334 C1670,334 1670,438 1670,438 C1670,438 1683.2939,470.5844 1699.9439,511.4044 " fill="none" id="AssignVehiclesController-to-VehicleRepository" style="stroke:#181818;stroke-width:1.0;stroke-dasharray:7.0,7.0;"/><polygon fill="#181818" points="1702.21,516.96,1702.5146,507.1159,1700.3216,512.3303,1695.1071,510.1373,1702.21,516.96" style="stroke:#181818;stroke-width:1.0;"/><text fill="#000000" font-family="sans-serif" font-size="13" lengthAdjust="spacing" textLength="101" x="1671" y="391.5283">vehicleRepository</text></g><!--link AssignVehiclesController to AgendaRepository--><g id="link_AssignVehiclesController_AgendaRepository"><path codeLine="160" d="M2222.27,246.01 C2210.56,337.34 2194.8137,460.0888 2184.7237,538.7188 " fill="none" id="AssignVehiclesController-to-AgendaRepository" style="stroke:#181818;stroke-width:1.0;stroke-dasharray:7.0,7.0;"/><polygon fill="#181818" points="2183.96,544.67,2189.073,536.2523,2184.5964,539.7107,2181.138,535.2341,2183.96,544.67" style="stroke:#181818;stroke-width:1.0;"/><text fill="#000000" font-family="sans-serif" font-size="13" lengthAdjust="spacing" textLength="104" x="2212" y="391.5283">agendaRepository</text></g><!--link ApplicationSession to UserSession--><g id="link_ApplicationSession_UserSession"><path codeLine="162" d="M2507.68,428.73 C2490.41,472.85 2465.7267,535.9627 2449.9467,576.2827 " fill="none" id="ApplicationSession-to-UserSession" style="stroke:#181818;stroke-width:1.0;"/><polygon fill="#181818" points="2447.76,581.87,2454.765,574.9468,2449.5823,577.2139,2447.3152,572.0312,2447.76,581.87" style="stroke:#181818;stroke-width:1.0;"/><text fill="#000000" font-family="sans-serif" font-size="13" lengthAdjust="spacing" textLength="72" x="2491" y="483.0283">userSession</text><text fill="#000000" font-family="sans-serif" font-size="13" lengthAdjust="spacing" textLength="7" x="2442.5831" y="570.6699">1</text></g><!--link AssignVehiclesController to ApplicationSession--><g id="link_AssignVehiclesController_ApplicationSession"><path codeLine="164" d="M2371.91,246.26 C2399.88,268.33 2421,285 2421,285 C2421,285 2448.6055,311.8002 2476.9055,339.2802 " fill="none" id="AssignVehiclesController-to-ApplicationSession" style="stroke:#181818;stroke-width:1.0;stroke-dasharray:7.0,7.0;"/><polygon fill="#181818" points="2481.21,343.46,2477.5397,334.3206,2477.6229,339.9768,2471.9666,340.06,2481.21,343.46" style="stroke:#181818;stroke-width:1.0;"/></g><!--link AssignVehiclesController to UserSession--><g id="link_AssignVehiclesController_UserSession"><path codeLine="165" d="M2284.93,246.2 C2305.61,291.51 2325,334 2325,334 C2325,334 2390.9592,502.1943 2419.9792,576.1843 " fill="none" id="AssignVehiclesController-to-UserSession" style="stroke:#181818;stroke-width:1.0;stroke-dasharray:7.0,7.0;"/><polygon fill="#181818" points="2422.17,581.77,2422.6076,571.9309,2420.3443,577.1152,2415.16,574.8519,2422.17,581.77" style="stroke:#181818;stroke-width:1.0;"/></g><!--link VehicleRepository to Vehicle--><g id="link_VehicleRepository_Vehicle"><path codeLine="167" d="M1474.49,704.91 C1457.48,710.54 1447,714 1447,714 C1447,714 311,793 311,793 C311,793 274.2499,825.4213 229.6899,864.7213 " fill="none" id="VehicleRepository-to-Vehicle" style="stroke:#181818;stroke-width:1.0;stroke-dasharray:7.0,7.0;"/><polygon fill="#181818" points="225.19,868.69,234.5857,865.7368,228.9399,865.3827,229.294,859.737,225.19,868.69" style="stroke:#181818;stroke-width:1.0;"/><text fill="#000000" font-family="sans-serif" font-size="13" lengthAdjust="spacing" textLength="36" x="1016" y="759.0283">stores</text></g><!--link AgendaRepository to Agenda--><g id="link_AgendaRepository_Agenda"><path codeLine="168" d="M2099.81,686.05 C1965.61,810.17 1688.4648,1066.516 1529.3448,1213.686 " fill="none" id="AgendaRepository-to-Agenda" style="stroke:#181818;stroke-width:1.0;stroke-dasharray:7.0,7.0;"/><polygon fill="#181818" points="1524.94,1217.76,1534.2632,1214.5855,1528.6107,1214.365,1528.8312,1208.7124,1524.94,1217.76" style="stroke:#181818;stroke-width:1.0;"/><text fill="#000000" font-family="sans-serif" font-size="13" lengthAdjust="spacing" textLength="36" x="1978" y="971.5283">stores</text></g><!--SRC=[hLXBR-Cs4BxhLn1xYO8uHdir2WDkNWYwUS3URC-qHDji959BKWxSel-zmuUaaIXv5ulc4cdcc-4t3mufN-XtBYggQ4bAAMHsKB9anAYQ9PscejaxtREDEHMCA9OPAlO51kW3pUK75tkoeuN6ce8BPauL8vKiJlObkHXHIcLaWgooWcgzCaRnRMtOOoR5Xl_Do2z9uZHaLLK5pwZXe61Qmx_aduJ0tnNH1iGPsJFpAE1PP2oz32gGtTHACM624MZ-RLo-QQQ6li30YkzAoWkC_SeEF8DKMDmrsG1DY7ohgCYne9GvAx30XkhURsMz1ND35VkJyVt1OEbUIQsHc0j3Ca_xZz99FikC5hVKs5hikJPCsPU1YcRVQgwvJL6hjQuW5c6Oi8cvL-nRpKHsmYIh0j3FTRbbQk0HGZTFdNNmUaMEjE0vl7nHb9lqPViND0Xq4Bp4ALkpIW8fgKuXUP-1_sz1kIH7_w2TtoRBK8Nmk3szTkpIcF2bizjAMJ0gMbx1E6tyXKKykBz-jvHE-ywQJAC4f6ZbMLUY6KwnJP9tz5BPKj2YMonJ3B73JJF3BJN3xJCZN- -Vo75NzjdHF3yRPPkI4DojV9RcHWe3J6EBjcYhFHCvlHCcbCiMp71Ji4NWrCYeVhzbEbFS1JdGrcflcsmWpMj5Hy2mhCmuv2L_K8o93OmUMArxZc21_Q9fboc0NlHh7N1sNDHwG0A4ojZIBRhs3oC1fQGfcSj8LwL-Bbfvo4BxtiJV2ZoJ6TfmBOrcWA5oTnb9kqUO7StZYCcP3lav94mFcFRDZfUDsawP0zM76sZbTlRYLieAALWQzLdROh2D56yBXYoRekrr2JsnUUhvJYDqusXciTPe95HVIS_Bmaz33CmhKm5V3yHXZC8pk-kB7mJ_pmaS7wvUjoJK_TV3kH6I5qhWGMWqDjOm6VrZCnY3GIl__GH9Jb6YVs2Lbd_B7Ahbk5_r3t2ow44QG7IeE6GaRU33B3dqK8YI2fU1lMZ6nzjZI2fSHeoIHS7KOW2vQJKEg5a1PPqQG7hfGBGhwmBNsETumhsxoRHleI17oNEYQe5VTRqjkHqXj0Uonxx6OjnSGOi7tMNlF0w0mK7vUhT-U7l-ibgJrGjvNR_StsqsBslo2eyFKpb54VdS7eUb6wzcapQCY-heOBKvmCuBLyKUV49pDkzfn2-cDuituv3iR7BrISAz2Y3y-2P0DUrZuntWeLDqhCc4BXrSQtg3b-84ndDmDhXs3NUAT-rc2JFmxnu-IaQkx1RWpepsyYfeoRp0pj0ZDUr5jiCmUvllGDK1PgdmCF0ifBtfiXsCuztvxRq9f7kR1-vhxIMBmFKUDWlDoGxuMxON6fQiQZDt3jugUplL1FABVSmJU2IMnu2DE_2kOH1gE8yqjzyAEwb2hcra3L5Y910XdX4NQ86vTN0Zox8Mjg00_U3cu063QJV58iAvK1uT5LiGkxQ3T7a0KJY9-soSQSpcRDRNB6Fy2525ZmoNu4cxGIJAVbgvKF2ujQxz5HzAkZqvcZQUFkFEbTLTNoz9U__qKUka6PEWM-7XxlNW73vr6sCFM91Qmw66-mWhzK5-2E3XhPPH1O9vqZj40TTxNu03VvecySUpynfBaKqI7ORpvNJ2ayanVvr3B34tnMnx75s3-1MZU89XDDKWiHd0RGP63UAPYIocYSxduwRH2N3UnHZTuK4rMX1W_kdNJ_XN2UBgtFv6yPrrunz8pkBnhnz973VA1lGZYDfs7O3QdlMO_m00]--></g></svg>