<?xml version="1.0" encoding="us-ascii" standalone="no"?><svg xmlns="http://www.w3.org/2000/svg" xmlns:xlink="http://www.w3.org/1999/xlink" contentStyleType="text/css" height="1674px" preserveAspectRatio="none" style="width:2116px;height:1674px;background:#FFFFFF;" version="1.1" viewBox="0 0 2116 1674" width="2116px" zoomAndPan="magnify"><defs/><g><!--class ApplicationSession--><g id="elem_ApplicationSession"><rect codeLine="9" fill="#F1F1F1" height="85.2422" id="ApplicationSession" rx="2.5" ry="2.5" style="stroke:#181818;stroke-width:0.5;" width="151" x="1827" y="325.5"/><ellipse cx="1842" cy="341.5" fill="#ADD1B2" rx="11" ry="11" style="stroke:#181818;stroke-width:1.0;"/><path d="M1844.7656,337.375 Q1844.9219,337.1563 1845.1094,337.0469 Q1845.2969,336.9375 1845.5156,336.9375 Q1845.8906,336.9375 1846.125,337.2031 Q1846.3594,337.4531 1846.3594,338.0625 L1846.3594,339.5156 Q1846.3594,340.125 1846.125,340.3906 Q1845.8906,340.6563 1845.5156,340.6563 Q1845.1719,340.6563 1844.9688,340.4531 Q1844.7656,340.2656 1844.6563,339.75 Q1844.6094,339.3906 1844.4219,339.2031 Q1844.0938,338.8281 1843.4844,338.6094 Q1842.875,338.3906 1842.25,338.3906 Q1841.4844,338.3906 1840.8438,338.7188 Q1840.2188,339.0469 1839.7188,339.7969 Q1839.2344,340.5469 1839.2344,341.5781 L1839.2344,342.6719 Q1839.2344,343.9063 1840.125,344.7344 Q1841.0156,345.5469 1842.6094,345.5469 Q1843.5469,345.5469 1844.2031,345.2969 Q1844.5938,345.1406 1845.0156,344.7031 Q1845.2813,344.4375 1845.4219,344.3594 Q1845.5781,344.2813 1845.7813,344.2813 Q1846.1094,344.2813 1846.3594,344.5469 Q1846.625,344.7969 1846.625,345.1406 Q1846.625,345.4844 1846.2813,345.8906 Q1845.7813,346.4688 1844.9844,346.7969 Q1843.9063,347.25 1842.6094,347.25 Q1841.0938,347.25 1839.8906,346.625 Q1838.9063,346.125 1838.2188,345.0625 Q1837.5313,343.9844 1837.5313,342.7031 L1837.5313,341.5469 Q1837.5313,340.2188 1838.1406,339.0781 Q1838.7656,337.9219 1839.8594,337.3125 Q1840.9531,336.6875 1842.1875,336.6875 Q1842.9219,336.6875 1843.5625,336.8594 Q1844.2188,337.0156 1844.7656,337.375 Z " fill="#000000"/><text fill="#000000" font-family="sans-serif" font-size="14" lengthAdjust="spacing" textLength="119" x="1856" y="347.2969">ApplicationSession</text><line style="stroke:#181818;stroke-width:0.5;" x1="1828" x2="1977" y1="357.5" y2="357.5"/><line style="stroke:#181818;stroke-width:0.5;" x1="1828" x2="1977" y1="365.5" y2="365.5"/><text fill="#000000" font-family="sans-serif" font-size="14" lengthAdjust="spacing" textLength="128" x="1833" y="384.6074">+static getInstance()</text><text fill="#000000" font-family="sans-serif" font-size="14" lengthAdjust="spacing" textLength="136" x="1833" y="403.2285">+getCurrentSession()</text></g><!--class UserSession--><g id="elem_UserSession"><rect codeLine="15" fill="#F1F1F1" height="66.6211" id="UserSession" rx="2.5" ry="2.5" style="stroke:#181818;stroke-width:0.5;" width="113" x="1761" y="564"/><ellipse cx="1776.9" cy="580" fill="#ADD1B2" rx="11" ry="11" style="stroke:#181818;stroke-width:1.0;"/><path d="M1779.6656,575.875 Q1779.8219,575.6563 1780.0094,575.5469 Q1780.1969,575.4375 1780.4156,575.4375 Q1780.7906,575.4375 1781.025,575.7031 Q1781.2594,575.9531 1781.2594,576.5625 L1781.2594,578.0156 Q1781.2594,578.625 1781.025,578.8906 Q1780.7906,579.1563 1780.4156,579.1563 Q1780.0719,579.1563 1779.8688,578.9531 Q1779.6656,578.7656 1779.5563,578.25 Q1779.5094,577.8906 1779.3219,577.7031 Q1778.9938,577.3281 1778.3844,577.1094 Q1777.775,576.8906 1777.15,576.8906 Q1776.3844,576.8906 1775.7438,577.2188 Q1775.1188,577.5469 1774.6188,578.2969 Q1774.1344,579.0469 1774.1344,580.0781 L1774.1344,581.1719 Q1774.1344,582.4063 1775.025,583.2344 Q1775.9156,584.0469 1777.5094,584.0469 Q1778.4469,584.0469 1779.1031,583.7969 Q1779.4938,583.6406 1779.9156,583.2031 Q1780.1813,582.9375 1780.3219,582.8594 Q1780.4781,582.7813 1780.6813,582.7813 Q1781.0094,582.7813 1781.2594,583.0469 Q1781.525,583.2969 1781.525,583.6406 Q1781.525,583.9844 1781.1813,584.3906 Q1780.6813,584.9688 1779.8844,585.2969 Q1778.8063,585.75 1777.5094,585.75 Q1775.9938,585.75 1774.7906,585.125 Q1773.8063,584.625 1773.1188,583.5625 Q1772.4313,582.4844 1772.4313,581.2031 L1772.4313,580.0469 Q1772.4313,578.7188 1773.0406,577.5781 Q1773.6656,576.4219 1774.7594,575.8125 Q1775.8531,575.1875 1777.0875,575.1875 Q1777.8219,575.1875 1778.4625,575.3594 Q1779.1188,575.5156 1779.6656,575.875 Z " fill="#000000"/><text fill="#000000" font-family="sans-serif" font-size="14" lengthAdjust="spacing" textLength="79" x="1791.1" y="585.7969">UserSession</text><line style="stroke:#181818;stroke-width:0.5;" x1="1762" x2="1873" y1="596" y2="596"/><line style="stroke:#181818;stroke-width:0.5;" x1="1762" x2="1873" y1="604" y2="604"/><text fill="#000000" font-family="sans-serif" font-size="14" lengthAdjust="spacing" textLength="101" x="1767" y="623.1074">+getUserEmail()</text></g><!--class Vehicle--><g id="elem_Vehicle"><rect codeLine="20" fill="#F1F1F1" height="271.4531" id="Vehicle" rx="2.5" ry="2.5" style="stroke:#181818;stroke-width:0.5;" width="218" x="1123.5" y="1021"/><ellipse cx="1205.25" cy="1037" fill="#ADD1B2" rx="11" ry="11" style="stroke:#181818;stroke-width:1.0;"/><path d="M1208.0156,1032.875 Q1208.1719,1032.6563 1208.3594,1032.5469 Q1208.5469,1032.4375 1208.7656,1032.4375 Q1209.1406,1032.4375 1209.375,1032.7031 Q1209.6094,1032.9531 1209.6094,1033.5625 L1209.6094,1035.0156 Q1209.6094,1035.625 1209.375,1035.8906 Q1209.1406,1036.1563 1208.7656,1036.1563 Q1208.4219,1036.1563 1208.2188,1035.9531 Q1208.0156,1035.7656 1207.9063,1035.25 Q1207.8594,1034.8906 1207.6719,1034.7031 Q1207.3438,1034.3281 1206.7344,1034.1094 Q1206.125,1033.8906 1205.5,1033.8906 Q1204.7344,1033.8906 1204.0938,1034.2188 Q1203.4688,1034.5469 1202.9688,1035.2969 Q1202.4844,1036.0469 1202.4844,1037.0781 L1202.4844,1038.1719 Q1202.4844,1039.4063 1203.375,1040.2344 Q1204.2656,1041.0469 1205.8594,1041.0469 Q1206.7969,1041.0469 1207.4531,1040.7969 Q1207.8438,1040.6406 1208.2656,1040.2031 Q1208.5313,1039.9375 1208.6719,1039.8594 Q1208.8281,1039.7813 1209.0313,1039.7813 Q1209.3594,1039.7813 1209.6094,1040.0469 Q1209.875,1040.2969 1209.875,1040.6406 Q1209.875,1040.9844 1209.5313,1041.3906 Q1209.0313,1041.9688 1208.2344,1042.2969 Q1207.1563,1042.75 1205.8594,1042.75 Q1204.3438,1042.75 1203.1406,1042.125 Q1202.1563,1041.625 1201.4688,1040.5625 Q1200.7813,1039.4844 1200.7813,1038.2031 L1200.7813,1037.0469 Q1200.7813,1035.7188 1201.3906,1034.5781 Q1202.0156,1033.4219 1203.1094,1032.8125 Q1204.2031,1032.1875 1205.4375,1032.1875 Q1206.1719,1032.1875 1206.8125,1032.3594 Q1207.4688,1032.5156 1208.0156,1032.875 Z " fill="#000000"/><text fill="#000000" font-family="sans-serif" font-size="14" lengthAdjust="spacing" textLength="46" x="1225.75" y="1042.7969">Vehicle</text><line style="stroke:#181818;stroke-width:0.5;" x1="1124.5" x2="1340.5" y1="1053" y2="1053"/><text fill="#000000" font-family="sans-serif" font-size="14" lengthAdjust="spacing" textLength="83" x="1129.5" y="1072.1074">-String brand</text><text fill="#000000" font-family="sans-serif" font-size="14" lengthAdjust="spacing" textLength="84" x="1129.5" y="1090.7285">-String model</text><text fill="#000000" font-family="sans-serif" font-size="14" lengthAdjust="spacing" textLength="73" x="1129.5" y="1109.3496">-String type</text><text fill="#000000" font-family="sans-serif" font-size="14" lengthAdjust="spacing" textLength="123" x="1129.5" y="1127.9707">-Double tareWeight</text><text fill="#000000" font-family="sans-serif" font-size="14" lengthAdjust="spacing" textLength="133" x="1129.5" y="1146.5918">-Double grossWeight</text><text fill="#000000" font-family="sans-serif" font-size="14" lengthAdjust="spacing" textLength="89" x="1129.5" y="1165.2129">-int currentKm</text><text fill="#000000" font-family="sans-serif" font-size="14" lengthAdjust="spacing" textLength="151" x="1129.5" y="1183.834">-LocalDate registerDate</text><text fill="#000000" font-family="sans-serif" font-size="14" lengthAdjust="spacing" textLength="170" x="1129.5" y="1202.4551">-LocalDate acquisitionDate</text><text fill="#000000" font-family="sans-serif" font-size="14" lengthAdjust="spacing" textLength="173" x="1129.5" y="1221.0762">-int maintenanceFrequency</text><text fill="#000000" font-family="sans-serif" font-size="14" lengthAdjust="spacing" textLength="126" x="1129.5" y="1239.6973">-String plateNumber</text><text fill="#000000" font-family="sans-serif" font-size="14" lengthAdjust="spacing" textLength="206" x="1129.5" y="1258.3184">-LocalDate lastMaintenanceDate</text><line style="stroke:#181818;stroke-width:0.5;" x1="1124.5" x2="1340.5" y1="1265.832" y2="1265.832"/><text fill="#000000" font-family="sans-serif" font-size="14" lengthAdjust="spacing" textLength="165" x="1129.5" y="1284.9395">+validateTrait(Object trait)</text></g><!--class VehicleRepository--><g id="elem_VehicleRepository"><rect codeLine="35" fill="#F1F1F1" height="196.9688" id="VehicleRepository" rx="2.5" ry="2.5" style="stroke:#181818;stroke-width:0.5;" width="535" x="823" y="499"/><ellipse cx="1029.25" cy="515" fill="#ADD1B2" rx="11" ry="11" style="stroke:#181818;stroke-width:1.0;"/><path d="M1032.0156,510.875 Q1032.1719,510.6563 1032.3594,510.5469 Q1032.5469,510.4375 1032.7656,510.4375 Q1033.1406,510.4375 1033.375,510.7031 Q1033.6094,510.9531 1033.6094,511.5625 L1033.6094,513.0156 Q1033.6094,513.625 1033.375,513.8906 Q1033.1406,514.1563 1032.7656,514.1563 Q1032.4219,514.1563 1032.2188,513.9531 Q1032.0156,513.7656 1031.9063,513.25 Q1031.8594,512.8906 1031.6719,512.7031 Q1031.3438,512.3281 1030.7344,512.1094 Q1030.125,511.8906 1029.5,511.8906 Q1028.7344,511.8906 1028.0938,512.2188 Q1027.4688,512.5469 1026.9688,513.2969 Q1026.4844,514.0469 1026.4844,515.0781 L1026.4844,516.1719 Q1026.4844,517.4063 1027.375,518.2344 Q1028.2656,519.0469 1029.8594,519.0469 Q1030.7969,519.0469 1031.4531,518.7969 Q1031.8438,518.6406 1032.2656,518.2031 Q1032.5313,517.9375 1032.6719,517.8594 Q1032.8281,517.7813 1033.0313,517.7813 Q1033.3594,517.7813 1033.6094,518.0469 Q1033.875,518.2969 1033.875,518.6406 Q1033.875,518.9844 1033.5313,519.3906 Q1033.0313,519.9688 1032.2344,520.2969 Q1031.1563,520.75 1029.8594,520.75 Q1028.3438,520.75 1027.1406,520.125 Q1026.1563,519.625 1025.4688,518.5625 Q1024.7813,517.4844 1024.7813,516.2031 L1024.7813,515.0469 Q1024.7813,513.7188 1025.3906,512.5781 Q1026.0156,511.4219 1027.1094,510.8125 Q1028.2031,510.1875 1029.4375,510.1875 Q1030.1719,510.1875 1030.8125,510.3594 Q1031.4688,510.5156 1032.0156,510.875 Z " fill="#000000"/><text fill="#000000" font-family="sans-serif" font-size="14" lengthAdjust="spacing" textLength="114" x="1049.75" y="520.7969">VehicleRepository</text><line style="stroke:#181818;stroke-width:0.5;" x1="824" x2="1357" y1="531" y2="531"/><text fill="#000000" font-family="sans-serif" font-size="14" lengthAdjust="spacing" textLength="144" x="829" y="550.1074">-List&lt;Vehicle&gt; vehicles</text><line style="stroke:#181818;stroke-width:0.5;" x1="824" x2="1357" y1="557.6211" y2="557.6211"/><text fill="#000000" font-family="sans-serif" font-size="14" lengthAdjust="spacing" textLength="351" x="829" y="576.7285">+Vehicle getVehiclebyPlateNumber(String plateNumber)</text><text fill="#000000" font-family="sans-serif" font-size="14" lengthAdjust="spacing" textLength="262" x="829" y="595.3496">+boolean validateVehicle(Vehicle vehicle)</text><text fill="#000000" font-family="sans-serif" font-size="14" lengthAdjust="spacing" textLength="179" x="829" y="613.9707">+List&lt;Vehicle&gt; getVehicles()</text><text fill="#000000" font-family="sans-serif" font-size="14" lengthAdjust="spacing" textLength="474" x="829" y="632.5918">+boolean registerMaintenance(plateNumber, currentKm, maintenanceDate)</text><text fill="#000000" font-family="sans-serif" font-size="14" lengthAdjust="spacing" textLength="523" x="829" y="651.2129">+Optional&lt;Vehicle&gt; createVehicle(String model,String brand, String type, VFM vfm)</text><text fill="#000000" font-family="sans-serif" font-size="14" lengthAdjust="spacing" textLength="237" x="829" y="669.834">+boolean addVehicle(Vehicle vehicle)</text><text fill="#000000" font-family="sans-serif" font-size="14" lengthAdjust="spacing" textLength="306" x="829" y="688.4551">+boolean vehiclesDoNotContain(Vehicle vehicle)</text></g><!--class AgendaEntry--><g id="elem_AgendaEntry"><rect codeLine="46" fill="#F1F1F1" height="345.9375" id="AgendaEntry" rx="2.5" ry="2.5" style="stroke:#181818;stroke-width:0.5;" width="743" x="935" y="1322"/><ellipse cx="1261.25" cy="1338" fill="#ADD1B2" rx="11" ry="11" style="stroke:#181818;stroke-width:1.0;"/><path d="M1264.0156,1333.875 Q1264.1719,1333.6563 1264.3594,1333.5469 Q1264.5469,1333.4375 1264.7656,1333.4375 Q1265.1406,1333.4375 1265.375,1333.7031 Q1265.6094,1333.9531 1265.6094,1334.5625 L1265.6094,1336.0156 Q1265.6094,1336.625 1265.375,1336.8906 Q1265.1406,1337.1563 1264.7656,1337.1563 Q1264.4219,1337.1563 1264.2188,1336.9531 Q1264.0156,1336.7656 1263.9063,1336.25 Q1263.8594,1335.8906 1263.6719,1335.7031 Q1263.3438,1335.3281 1262.7344,1335.1094 Q1262.125,1334.8906 1261.5,1334.8906 Q1260.7344,1334.8906 1260.0938,1335.2188 Q1259.4688,1335.5469 1258.9688,1336.2969 Q1258.4844,1337.0469 1258.4844,1338.0781 L1258.4844,1339.1719 Q1258.4844,1340.4063 1259.375,1341.2344 Q1260.2656,1342.0469 1261.8594,1342.0469 Q1262.7969,1342.0469 1263.4531,1341.7969 Q1263.8438,1341.6406 1264.2656,1341.2031 Q1264.5313,1340.9375 1264.6719,1340.8594 Q1264.8281,1340.7813 1265.0313,1340.7813 Q1265.3594,1340.7813 1265.6094,1341.0469 Q1265.875,1341.2969 1265.875,1341.6406 Q1265.875,1341.9844 1265.5313,1342.3906 Q1265.0313,1342.9688 1264.2344,1343.2969 Q1263.1563,1343.75 1261.8594,1343.75 Q1260.3438,1343.75 1259.1406,1343.125 Q1258.1563,1342.625 1257.4688,1341.5625 Q1256.7813,1340.4844 1256.7813,1339.2031 L1256.7813,1338.0469 Q1256.7813,1336.7188 1257.3906,1335.5781 Q1258.0156,1334.4219 1259.1094,1333.8125 Q1260.2031,1333.1875 1261.4375,1333.1875 Q1262.1719,1333.1875 1262.8125,1333.3594 Q1263.4688,1333.5156 1264.0156,1333.875 Z " fill="#000000"/><text fill="#000000" font-family="sans-serif" font-size="14" lengthAdjust="spacing" textLength="82" x="1281.75" y="1343.7969">AgendaEntry</text><line style="stroke:#181818;stroke-width:0.5;" x1="936" x2="1677" y1="1354" y2="1354"/><text fill="#000000" font-family="sans-serif" font-size="14" lengthAdjust="spacing" textLength="72" x="941" y="1373.1074">-title: String</text><text fill="#000000" font-family="sans-serif" font-size="14" lengthAdjust="spacing" textLength="147" x="941" y="1391.7285">-taskDescription: String</text><text fill="#000000" font-family="sans-serif" font-size="14" lengthAdjust="spacing" textLength="101" x="941" y="1410.3496">-urgency: String</text><text fill="#000000" font-family="sans-serif" font-size="14" lengthAdjust="spacing" textLength="102" x="941" y="1428.9707">-duration: String</text><text fill="#000000" font-family="sans-serif" font-size="14" lengthAdjust="spacing" textLength="241" x="941" y="1447.5918">-associatedGreenSpace: GreenSpace</text><text fill="#000000" font-family="sans-serif" font-size="14" lengthAdjust="spacing" textLength="173" x="941" y="1466.2129">-associatedVehicle: Vehicle</text><text fill="#000000" font-family="sans-serif" font-size="14" lengthAdjust="spacing" textLength="218" x="941" y="1484.834">-associatedVehicles: List&lt;Vehicle&gt;</text><text fill="#000000" font-family="sans-serif" font-size="14" lengthAdjust="spacing" textLength="88" x="941" y="1503.4551">-status: String</text><text fill="#000000" font-family="sans-serif" font-size="14" lengthAdjust="spacing" textLength="135" x="941" y="1522.0762">-startDate: LocalDate</text><line style="stroke:#181818;stroke-width:0.5;" x1="936" x2="1677" y1="1529.5898" y2="1529.5898"/><text fill="#000000" font-family="sans-serif" font-size="14" lengthAdjust="spacing" textLength="731" x="941" y="1548.6973">+AgendaEntry(String title, String taskDescription, String urgency, String duration, String status, LocalDate startDate)</text><text fill="#000000" font-family="sans-serif" font-size="14" lengthAdjust="spacing" textLength="338" x="941" y="1567.3184">+boolean addGreenSpace(GreenSpace greenSpace)</text><text fill="#000000" font-family="sans-serif" font-size="14" lengthAdjust="spacing" textLength="237" x="941" y="1585.9395">+boolean addVehicle(Vehicle vehicle)</text><text fill="#000000" font-family="sans-serif" font-size="14" lengthAdjust="spacing" textLength="237" x="941" y="1604.5605">+boolean addVehicle(Vehicle vehicle)</text><text fill="#000000" font-family="sans-serif" font-size="14" lengthAdjust="spacing" textLength="168" x="941" y="1623.1816">+boolean equals(Object o)</text><text fill="#000000" font-family="sans-serif" font-size="14" lengthAdjust="spacing" textLength="102" x="941" y="1641.8027">+int hashCode()</text><text fill="#000000" font-family="sans-serif" font-size="14" lengthAdjust="spacing" textLength="138" x="941" y="1660.4238">+AgendaEntry clone()</text></g><!--class Agenda--><g id="elem_Agenda"><rect codeLine="65" fill="#F1F1F1" height="215.5898" id="Agenda" rx="2.5" ry="2.5" style="stroke:#181818;stroke-width:0.5;" width="315" x="1310" y="775"/><ellipse cx="1438.75" cy="791" fill="#ADD1B2" rx="11" ry="11" style="stroke:#181818;stroke-width:1.0;"/><path d="M1441.5156,786.875 Q1441.6719,786.6563 1441.8594,786.5469 Q1442.0469,786.4375 1442.2656,786.4375 Q1442.6406,786.4375 1442.875,786.7031 Q1443.1094,786.9531 1443.1094,787.5625 L1443.1094,789.0156 Q1443.1094,789.625 1442.875,789.8906 Q1442.6406,790.1563 1442.2656,790.1563 Q1441.9219,790.1563 1441.7188,789.9531 Q1441.5156,789.7656 1441.4063,789.25 Q1441.3594,788.8906 1441.1719,788.7031 Q1440.8438,788.3281 1440.2344,788.1094 Q1439.625,787.8906 1439,787.8906 Q1438.2344,787.8906 1437.5938,788.2188 Q1436.9688,788.5469 1436.4688,789.2969 Q1435.9844,790.0469 1435.9844,791.0781 L1435.9844,792.1719 Q1435.9844,793.4063 1436.875,794.2344 Q1437.7656,795.0469 1439.3594,795.0469 Q1440.2969,795.0469 1440.9531,794.7969 Q1441.3438,794.6406 1441.7656,794.2031 Q1442.0313,793.9375 1442.1719,793.8594 Q1442.3281,793.7813 1442.5313,793.7813 Q1442.8594,793.7813 1443.1094,794.0469 Q1443.375,794.2969 1443.375,794.6406 Q1443.375,794.9844 1443.0313,795.3906 Q1442.5313,795.9688 1441.7344,796.2969 Q1440.6563,796.75 1439.3594,796.75 Q1437.8438,796.75 1436.6406,796.125 Q1435.6563,795.625 1434.9688,794.5625 Q1434.2813,793.4844 1434.2813,792.2031 L1434.2813,791.0469 Q1434.2813,789.7188 1434.8906,788.5781 Q1435.5156,787.4219 1436.6094,786.8125 Q1437.7031,786.1875 1438.9375,786.1875 Q1439.6719,786.1875 1440.3125,786.3594 Q1440.9688,786.5156 1441.5156,786.875 Z " fill="#000000"/><text fill="#000000" font-family="sans-serif" font-size="14" lengthAdjust="spacing" textLength="49" x="1459.25" y="796.7969">Agenda</text><line style="stroke:#181818;stroke-width:0.5;" x1="1311" x2="1624" y1="807" y2="807"/><text fill="#000000" font-family="sans-serif" font-size="14" lengthAdjust="spacing" textLength="176" x="1316" y="826.1074">-entries: List&lt;AgendaEntry&gt;</text><text fill="#000000" font-family="sans-serif" font-size="14" lengthAdjust="spacing" textLength="70" x="1316" y="844.7285">-gsm: GSM</text><line style="stroke:#181818;stroke-width:0.5;" x1="1311" x2="1624" y1="852.2422" y2="852.2422"/><text fill="#000000" font-family="sans-serif" font-size="14" lengthAdjust="spacing" textLength="303" x="1316" y="871.3496">+Agenda(List&lt;AgendaEntry&gt; entries, GSM gsm)</text><text fill="#000000" font-family="sans-serif" font-size="14" lengthAdjust="spacing" textLength="199" x="1316" y="889.9707">+boolean addEntry(Entry entry)</text><text fill="#000000" font-family="sans-serif" font-size="14" lengthAdjust="spacing" textLength="283" x="1316" y="908.5918">+boolean postponeEntry(AgendaEntry entry)</text><text fill="#000000" font-family="sans-serif" font-size="14" lengthAdjust="spacing" textLength="265" x="1316" y="927.2129">+boolean cancelEntry(AgendaEntry entry)</text><text fill="#000000" font-family="sans-serif" font-size="14" lengthAdjust="spacing" textLength="168" x="1316" y="945.834">+boolean equals(Object o)</text><text fill="#000000" font-family="sans-serif" font-size="14" lengthAdjust="spacing" textLength="102" x="1316" y="964.4551">+int hashCode()</text><text fill="#000000" font-family="sans-serif" font-size="14" lengthAdjust="spacing" textLength="138" x="1316" y="983.0762">+AgendaEntry clone()</text></g><!--class AgendaRepository--><g id="elem_AgendaRepository"><rect codeLine="77" fill="#F1F1F1" height="141.1055" id="AgendaRepository" rx="2.5" ry="2.5" style="stroke:#181818;stroke-width:0.5;" width="260" x="1393.5" y="527"/><ellipse cx="1460.75" cy="543" fill="#ADD1B2" rx="11" ry="11" style="stroke:#181818;stroke-width:1.0;"/><path d="M1463.5156,538.875 Q1463.6719,538.6563 1463.8594,538.5469 Q1464.0469,538.4375 1464.2656,538.4375 Q1464.6406,538.4375 1464.875,538.7031 Q1465.1094,538.9531 1465.1094,539.5625 L1465.1094,541.0156 Q1465.1094,541.625 1464.875,541.8906 Q1464.6406,542.1563 1464.2656,542.1563 Q1463.9219,542.1563 1463.7188,541.9531 Q1463.5156,541.7656 1463.4063,541.25 Q1463.3594,540.8906 1463.1719,540.7031 Q1462.8438,540.3281 1462.2344,540.1094 Q1461.625,539.8906 1461,539.8906 Q1460.2344,539.8906 1459.5938,540.2188 Q1458.9688,540.5469 1458.4688,541.2969 Q1457.9844,542.0469 1457.9844,543.0781 L1457.9844,544.1719 Q1457.9844,545.4063 1458.875,546.2344 Q1459.7656,547.0469 1461.3594,547.0469 Q1462.2969,547.0469 1462.9531,546.7969 Q1463.3438,546.6406 1463.7656,546.2031 Q1464.0313,545.9375 1464.1719,545.8594 Q1464.3281,545.7813 1464.5313,545.7813 Q1464.8594,545.7813 1465.1094,546.0469 Q1465.375,546.2969 1465.375,546.6406 Q1465.375,546.9844 1465.0313,547.3906 Q1464.5313,547.9688 1463.7344,548.2969 Q1462.6563,548.75 1461.3594,548.75 Q1459.8438,548.75 1458.6406,548.125 Q1457.6563,547.625 1456.9688,546.5625 Q1456.2813,545.4844 1456.2813,544.2031 L1456.2813,543.0469 Q1456.2813,541.7188 1456.8906,540.5781 Q1457.5156,539.4219 1458.6094,538.8125 Q1459.7031,538.1875 1460.9375,538.1875 Q1461.6719,538.1875 1462.3125,538.3594 Q1462.9688,538.5156 1463.5156,538.875 Z " fill="#000000"/><text fill="#000000" font-family="sans-serif" font-size="14" lengthAdjust="spacing" textLength="117" x="1481.25" y="548.7969">AgendaRepository</text><line style="stroke:#181818;stroke-width:0.5;" x1="1394.5" x2="1652.5" y1="559" y2="559"/><text fill="#000000" font-family="sans-serif" font-size="14" lengthAdjust="spacing" textLength="151" x="1399.5" y="578.1074">-List&lt;Agenda&gt; agendas</text><line style="stroke:#181818;stroke-width:0.5;" x1="1394.5" x2="1652.5" y1="585.6211" y2="585.6211"/><text fill="#000000" font-family="sans-serif" font-size="14" lengthAdjust="spacing" textLength="247" x="1399.5" y="604.7285">+boolean addAgenda(Agenda agenda)</text><text fill="#000000" font-family="sans-serif" font-size="14" lengthAdjust="spacing" textLength="185" x="1399.5" y="623.3496">+List&lt;Agenda&gt; getAgendas()</text><text fill="#000000" font-family="sans-serif" font-size="14" lengthAdjust="spacing" textLength="248" x="1399.5" y="641.9707">+Agenda getAgendaByGSM(GSM gsm)</text><text fill="#000000" font-family="sans-serif" font-size="14" lengthAdjust="spacing" textLength="247" x="1399.5" y="660.5918">+boolean addAgenda(Agenda agenda)</text></g><!--class Repositories--><g id="elem_Repositories"><rect codeLine="85" fill="#F1F1F1" height="103.8633" id="Repositories" rx="2.5" ry="2.5" style="stroke:#181818;stroke-width:0.5;" width="296" x="1169.5" y="316"/><ellipse cx="1273.75" cy="332" fill="#ADD1B2" rx="11" ry="11" style="stroke:#181818;stroke-width:1.0;"/><path d="M1276.5156,327.875 Q1276.6719,327.6563 1276.8594,327.5469 Q1277.0469,327.4375 1277.2656,327.4375 Q1277.6406,327.4375 1277.875,327.7031 Q1278.1094,327.9531 1278.1094,328.5625 L1278.1094,330.0156 Q1278.1094,330.625 1277.875,330.8906 Q1277.6406,331.1563 1277.2656,331.1563 Q1276.9219,331.1563 1276.7188,330.9531 Q1276.5156,330.7656 1276.4063,330.25 Q1276.3594,329.8906 1276.1719,329.7031 Q1275.8438,329.3281 1275.2344,329.1094 Q1274.625,328.8906 1274,328.8906 Q1273.2344,328.8906 1272.5938,329.2188 Q1271.9688,329.5469 1271.4688,330.2969 Q1270.9844,331.0469 1270.9844,332.0781 L1270.9844,333.1719 Q1270.9844,334.4063 1271.875,335.2344 Q1272.7656,336.0469 1274.3594,336.0469 Q1275.2969,336.0469 1275.9531,335.7969 Q1276.3438,335.6406 1276.7656,335.2031 Q1277.0313,334.9375 1277.1719,334.8594 Q1277.3281,334.7813 1277.5313,334.7813 Q1277.8594,334.7813 1278.1094,335.0469 Q1278.375,335.2969 1278.375,335.6406 Q1278.375,335.9844 1278.0313,336.3906 Q1277.5313,336.9688 1276.7344,337.2969 Q1275.6563,337.75 1274.3594,337.75 Q1272.8438,337.75 1271.6406,337.125 Q1270.6563,336.625 1269.9688,335.5625 Q1269.2813,334.4844 1269.2813,333.2031 L1269.2813,332.0469 Q1269.2813,330.7188 1269.8906,329.5781 Q1270.5156,328.4219 1271.6094,327.8125 Q1272.7031,327.1875 1273.9375,327.1875 Q1274.6719,327.1875 1275.3125,327.3594 Q1275.9688,327.5156 1276.5156,327.875 Z " fill="#000000"/><text fill="#000000" font-family="sans-serif" font-size="14" lengthAdjust="spacing" textLength="79" x="1294.25" y="337.7969">Repositories</text><line style="stroke:#181818;stroke-width:0.5;" x1="1170.5" x2="1464.5" y1="348" y2="348"/><line style="stroke:#181818;stroke-width:0.5;" x1="1170.5" x2="1464.5" y1="356" y2="356"/><text fill="#000000" font-family="sans-serif" font-size="14" lengthAdjust="spacing" textLength="182" x="1175.5" y="375.1074">+getInstance() : Repositories</text><text fill="#000000" font-family="sans-serif" font-size="14" lengthAdjust="spacing" textLength="278" x="1175.5" y="393.7285">+getVehicleRepository() : VehicleRepository</text><text fill="#000000" font-family="sans-serif" font-size="14" lengthAdjust="spacing" textLength="284" x="1175.5" y="412.3496">+getAgendaRepository() : AgendaRepository</text></g><!--class AssignVehiclesUI--><g id="elem_AssignVehiclesUI"><rect codeLine="91" fill="#F1F1F1" height="215.5898" id="AssignVehiclesUI" rx="2.5" ry="2.5" style="stroke:#181818;stroke-width:0.5;" width="273" x="812" y="21"/><ellipse cx="890.75" cy="37" fill="#ADD1B2" rx="11" ry="11" style="stroke:#181818;stroke-width:1.0;"/><path d="M893.5156,32.875 Q893.6719,32.6563 893.8594,32.5469 Q894.0469,32.4375 894.2656,32.4375 Q894.6406,32.4375 894.875,32.7031 Q895.1094,32.9531 895.1094,33.5625 L895.1094,35.0156 Q895.1094,35.625 894.875,35.8906 Q894.6406,36.1563 894.2656,36.1563 Q893.9219,36.1563 893.7188,35.9531 Q893.5156,35.7656 893.4063,35.25 Q893.3594,34.8906 893.1719,34.7031 Q892.8438,34.3281 892.2344,34.1094 Q891.625,33.8906 891,33.8906 Q890.2344,33.8906 889.5938,34.2188 Q888.9688,34.5469 888.4688,35.2969 Q887.9844,36.0469 887.9844,37.0781 L887.9844,38.1719 Q887.9844,39.4063 888.875,40.2344 Q889.7656,41.0469 891.3594,41.0469 Q892.2969,41.0469 892.9531,40.7969 Q893.3438,40.6406 893.7656,40.2031 Q894.0313,39.9375 894.1719,39.8594 Q894.3281,39.7813 894.5313,39.7813 Q894.8594,39.7813 895.1094,40.0469 Q895.375,40.2969 895.375,40.6406 Q895.375,40.9844 895.0313,41.3906 Q894.5313,41.9688 893.7344,42.2969 Q892.6563,42.75 891.3594,42.75 Q889.8438,42.75 888.6406,42.125 Q887.6563,41.625 886.9688,40.5625 Q886.2813,39.4844 886.2813,38.2031 L886.2813,37.0469 Q886.2813,35.7188 886.8906,34.5781 Q887.5156,33.4219 888.6094,32.8125 Q889.7031,32.1875 890.9375,32.1875 Q891.6719,32.1875 892.3125,32.3594 Q892.9688,32.5156 893.5156,32.875 Z " fill="#000000"/><text fill="#000000" font-family="sans-serif" font-size="14" lengthAdjust="spacing" textLength="107" x="911.25" y="42.7969">AssignVehiclesUI</text><line style="stroke:#181818;stroke-width:0.5;" x1="813" x2="1084" y1="53" y2="53"/><text fill="#000000" font-family="sans-serif" font-size="14" lengthAdjust="spacing" textLength="229" x="818" y="72.1074">-controller: AssignVehiclesController</text><text fill="#000000" font-family="sans-serif" font-size="14" lengthAdjust="spacing" textLength="210" x="818" y="90.7285">-selectedVehicles: List&lt;Vehicles&gt;</text><text fill="#000000" font-family="sans-serif" font-size="14" lengthAdjust="spacing" textLength="176" x="818" y="109.3496">-agendaEntry: AgendaEntry</text><line style="stroke:#181818;stroke-width:0.5;" x1="813" x2="1084" y1="116.8633" y2="116.8633"/><text fill="#000000" font-family="sans-serif" font-size="14" lengthAdjust="spacing" textLength="261" x="818" y="135.9707">+AssignVehiclesController getController()</text><text fill="#000000" font-family="sans-serif" font-size="14" lengthAdjust="spacing" textLength="69" x="818" y="154.5918">+void run()</text><text fill="#000000" font-family="sans-serif" font-size="14" lengthAdjust="spacing" textLength="119" x="818" y="173.2129">+void submitData()</text><text fill="#000000" font-family="sans-serif" font-size="14" lengthAdjust="spacing" textLength="126" x="818" y="191.834">+void requestData()</text><text fill="#000000" font-family="sans-serif" font-size="14" lengthAdjust="spacing" textLength="234" x="818" y="210.4551">+AgendaEntry requestAgendaEntry()</text><text fill="#000000" font-family="sans-serif" font-size="14" lengthAdjust="spacing" textLength="169" x="818" y="229.0762">+Vehicle requestVehicles()</text></g><!--class AssignVehiclesController--><g id="elem_AssignVehiclesController"><rect codeLine="103" fill="#F1F1F1" height="215.5898" id="AssignVehiclesController" rx="2.5" ry="2.5" style="stroke:#181818;stroke-width:0.5;" width="989" x="1120" y="21"/><ellipse cx="1531.75" cy="37" fill="#ADD1B2" rx="11" ry="11" style="stroke:#181818;stroke-width:1.0;"/><path d="M1534.5156,32.875 Q1534.6719,32.6563 1534.8594,32.5469 Q1535.0469,32.4375 1535.2656,32.4375 Q1535.6406,32.4375 1535.875,32.7031 Q1536.1094,32.9531 1536.1094,33.5625 L1536.1094,35.0156 Q1536.1094,35.625 1535.875,35.8906 Q1535.6406,36.1563 1535.2656,36.1563 Q1534.9219,36.1563 1534.7188,35.9531 Q1534.5156,35.7656 1534.4063,35.25 Q1534.3594,34.8906 1534.1719,34.7031 Q1533.8438,34.3281 1533.2344,34.1094 Q1532.625,33.8906 1532,33.8906 Q1531.2344,33.8906 1530.5938,34.2188 Q1529.9688,34.5469 1529.4688,35.2969 Q1528.9844,36.0469 1528.9844,37.0781 L1528.9844,38.1719 Q1528.9844,39.4063 1529.875,40.2344 Q1530.7656,41.0469 1532.3594,41.0469 Q1533.2969,41.0469 1533.9531,40.7969 Q1534.3438,40.6406 1534.7656,40.2031 Q1535.0313,39.9375 1535.1719,39.8594 Q1535.3281,39.7813 1535.5313,39.7813 Q1535.8594,39.7813 1536.1094,40.0469 Q1536.375,40.2969 1536.375,40.6406 Q1536.375,40.9844 1536.0313,41.3906 Q1535.5313,41.9688 1534.7344,42.2969 Q1533.6563,42.75 1532.3594,42.75 Q1530.8438,42.75 1529.6406,42.125 Q1528.6563,41.625 1527.9688,40.5625 Q1527.2813,39.4844 1527.2813,38.2031 L1527.2813,37.0469 Q1527.2813,35.7188 1527.8906,34.5781 Q1528.5156,33.4219 1529.6094,32.8125 Q1530.7031,32.1875 1531.9375,32.1875 Q1532.6719,32.1875 1533.3125,32.3594 Q1533.9688,32.5156 1534.5156,32.875 Z " fill="#000000"/><text fill="#000000" font-family="sans-serif" font-size="14" lengthAdjust="spacing" textLength="157" x="1552.25" y="42.7969">AssignVehiclesController</text><line style="stroke:#181818;stroke-width:0.5;" x1="1121" x2="2108" y1="53" y2="53"/><text fill="#000000" font-family="sans-serif" font-size="14" lengthAdjust="spacing" textLength="239" x="1126" y="72.1074">-vehicleRepository: VehicleRepository</text><text fill="#000000" font-family="sans-serif" font-size="14" lengthAdjust="spacing" textLength="246" x="1126" y="90.7285">-agendaRepository: AgendaRepository</text><text fill="#000000" font-family="sans-serif" font-size="14" lengthAdjust="spacing" textLength="328" x="1126" y="109.3496">-authenticationRepository: AuthenticationRepository</text><line style="stroke:#181818;stroke-width:0.5;" x1="1121" x2="2108" y1="116.8633" y2="116.8633"/><text fill="#000000" font-family="sans-serif" font-size="14" lengthAdjust="spacing" textLength="977" x="1126" y="135.9707">+AssignVehiclesController(vehicleRepository VehicleRepository, AgendaRepository agendaRepository, AuthenticationRepository authenticationRepository)</text><text fill="#000000" font-family="sans-serif" font-size="14" lengthAdjust="spacing" textLength="270" x="1126" y="154.5918">+VehicleRepository getVehicleRepository()</text><text fill="#000000" font-family="sans-serif" font-size="14" lengthAdjust="spacing" textLength="276" x="1126" y="173.2129">+AgendaRepository getAgendaRepository()</text><text fill="#000000" font-family="sans-serif" font-size="14" lengthAdjust="spacing" textLength="358" x="1126" y="191.834">+AuthenticationRepository getAuthenticationRepository()</text><text fill="#000000" font-family="sans-serif" font-size="14" lengthAdjust="spacing" textLength="580" x="1126" y="210.4551">+Optional&lt;AgendaEntry&gt; assignVehicle(AgendaEntry entry, List&lt;Vehicle&gt; selectedVehicles)</text><text fill="#000000" font-family="sans-serif" font-size="14" lengthAdjust="spacing" textLength="187" x="1126" y="229.0762">+GSM getGSMFromSession()</text></g><g id="elem_GMN12"><path d="M6,106.5 L6,151.082 L399,151.082 L399,116.5 L389,106.5 L6,106.5 " fill="#FEFFDD" style="stroke:#181818;stroke-width:0.5;"/><path d="M389,106.5 L389,116.5 L399,116.5 L389,106.5 " fill="#FEFFDD" style="stroke:#181818;stroke-width:1.0;"/><text fill="#000000" font-family="sans-serif" font-size="13" lengthAdjust="spacing" textLength="372" x="12" y="125.5283">- Selected AgendaEntry and vehicles are read from GSM's input.</text><text fill="#000000" font-family="sans-serif" font-size="13" lengthAdjust="spacing" textLength="161" x="12" y="142.8193">- Updates the AgendaEntry.</text></g><g id="elem_GMN15"><path d="M434.5,98 L434.5,159.873 A0,0 0 0 0 434.5,159.873 L776.5,159.873 A0,0 0 0 0 776.5,159.873 L776.5,133 L811.97,129 L776.5,125 L776.5,108 L766.5,98 L434.5,98 A0,0 0 0 0 434.5,98 " fill="#FEFFDD" style="stroke:#181818;stroke-width:0.5;"/><path d="M766.5,98 L766.5,108 L776.5,108 L766.5,98 " fill="#FEFFDD" style="stroke:#181818;stroke-width:0.5;"/><text fill="#000000" font-family="sans-serif" font-size="13" lengthAdjust="spacing" textLength="321" x="440.5" y="117.0283">- UI for GSM to assign vehicles to entries in the Agenda</text><text fill="#000000" font-family="sans-serif" font-size="13" lengthAdjust="spacing" textLength="271" x="440.5" y="134.3193">- Communicates with AssignVehiclesController</text><text fill="#000000" font-family="sans-serif" font-size="13" lengthAdjust="spacing" textLength="309" x="440.5" y="151.6104">- Receives repositories from AssignVehiclesController</text></g><g id="elem_GMN18"><path d="M1713,1481.5 L1713,1491 L1678.12,1495 L1713,1499 L1713,1508.791 A0,0 0 0 0 1713,1508.791 L1962,1508.791 A0,0 0 0 0 1962,1508.791 L1962,1491.5 L1952,1481.5 L1713,1481.5 A0,0 0 0 0 1713,1481.5 " fill="#FEFFDD" style="stroke:#181818;stroke-width:0.5;"/><path d="M1952,1481.5 L1952,1491.5 L1962,1491.5 L1952,1481.5 " fill="#FEFFDD" style="stroke:#181818;stroke-width:0.5;"/><text fill="#000000" font-family="sans-serif" font-size="13" lengthAdjust="spacing" textLength="228" x="1719" y="1500.5283">- Registered by the GSM in the Agenda</text></g><!--link GMN12 to AssignVehiclesController--><g id="link_GMN12_AssignVehiclesController"><path d="M244.96,106.44 C311.79,70.93 434,6 434,6 C434,6 1085,6 1085,6 C1085,6 1110.11,11.83 1149.4,20.96 " fill="none" id="GMN12-AssignVehiclesController" style="stroke:#181818;stroke-width:1.0;stroke-dasharray:7.0,7.0;"/></g><!--link Vehicle to AgendaEntry--><g id="link_Vehicle_AgendaEntry"><path codeLine="130" d="M1262.17,1292.43 C1264.3,1302.12 1265.1816,1306.1 1267.3516,1315.97 " fill="none" id="Vehicle-to-AgendaEntry" style="stroke:#181818;stroke-width:1.0;"/><polygon fill="#181818" points="1268.64,1321.83,1270.6141,1312.181,1267.5664,1316.9466,1262.8007,1313.8989,1268.64,1321.83" style="stroke:#181818;stroke-width:1.0;"/><text fill="#000000" font-family="sans-serif" font-size="13" lengthAdjust="spacing" textLength="67" x="1197.4" y="1303.1583">assigned to</text></g><!--link Agenda to AgendaEntry--><g id="link_Agenda_AgendaEntry"><path codeLine="132" d="M1439.18,991.3 C1415.07,1082.66 1381.5113,1209.8087 1353.4713,1316.0387 " fill="none" id="Agenda-to-AgendaEntry" style="stroke:#181818;stroke-width:1.0;"/><polygon fill="#181818" points="1351.94,1321.84,1358.1045,1314.1589,1353.2161,1317.0056,1350.3694,1312.1172,1351.94,1321.84" style="stroke:#181818;stroke-width:1.0;"/><text fill="#000000" font-family="sans-serif" font-size="13" lengthAdjust="spacing" textLength="37" x="1430.5" y="1162.0283">shows</text></g><!--link Repositories to Repositories--><g id="link_Repositories_Repositories"><path codeLine="134" d="M1465.77,352.9 C1486.57,355.36 1500.5,360.4 1500.5,368 C1500.5,375.6 1492.5285,379.9353 1471.7285,382.3953 " fill="none" id="Repositories-to-Repositories" style="stroke:#181818;stroke-width:1.0;"/><polygon fill="#181818" points="1465.77,383.1,1475.1775,386.0153,1470.7354,382.5127,1474.2379,378.0706,1465.77,383.1" style="stroke:#181818;stroke-width:1.0;"/><text fill="#000000" font-family="sans-serif" font-size="13" lengthAdjust="spacing" textLength="49" x="1506.5" y="373.5283">instance</text></g><!--link ApplicationSession to ApplicationSession--><g id="link_ApplicationSession_ApplicationSession"><path codeLine="135" d="M1978.16,351.29 C1998,352.28 2013,357.85 2013,368 C2013,378.15 2003.9925,383.421 1984.1525,384.411 " fill="none" id="ApplicationSession-to-ApplicationSession" style="stroke:#181818;stroke-width:1.0;"/><polygon fill="#181818" points="1978.16,384.71,1987.3482,388.2565,1983.1538,384.4608,1986.9495,380.2664,1978.16,384.71" style="stroke:#181818;stroke-width:1.0;"/><text fill="#000000" font-family="sans-serif" font-size="13" lengthAdjust="spacing" textLength="49" x="2019" y="373.5283">instance</text></g><!--link AssignVehiclesUI to AssignVehiclesController--><g id="link_AssignVehiclesUI_AssignVehiclesController"><path codeLine="137" d="M1085.3,129 C1097.44,129 1103.14,129 1113.78,129 " fill="none" id="AssignVehiclesUI-to-AssignVehiclesController" style="stroke:#181818;stroke-width:1.0;stroke-dasharray:7.0,7.0;"/><polygon fill="#181818" points="1119.78,129,1110.78,125,1114.78,129,1110.78,133,1119.78,129" style="stroke:#181818;stroke-width:1.0;"/></g><!--link AssignVehiclesController to Repositories--><g id="link_AssignVehiclesController_Repositories"><path codeLine="139" d="M1480.34,237.06 C1445.9,264.54 1415.1198,289.0975 1386.1098,312.2475 " fill="none" id="AssignVehiclesController-to-Repositories" style="stroke:#181818;stroke-width:1.0;"/><polygon fill="#181818" points="1381.42,315.99,1390.9496,313.5028,1385.3282,312.8713,1385.9597,307.2498,1381.42,315.99" style="stroke:#181818;stroke-width:1.0;"/><text fill="#000000" font-family="sans-serif" font-size="13" lengthAdjust="spacing" textLength="108" x="1440.5" y="282.0283">retrieves instances</text></g><!--link Repositories to AgendaRepository--><g id="link_Repositories_AgendaRepository"><path codeLine="141" d="M1363.73,420.06 C1392.2,451.5 1425.0633,487.7819 1456.2133,522.1919 " fill="none" id="Repositories-to-AgendaRepository" style="stroke:#181818;stroke-width:1.0;"/><polygon fill="#181818" points="1460.24,526.64,1457.1654,517.2834,1456.8844,522.9332,1451.2345,522.6523,1460.24,526.64" style="stroke:#181818;stroke-width:1.0;"/><text fill="#000000" font-family="sans-serif" font-size="13" lengthAdjust="spacing" textLength="56" x="1403.5" y="465.0283">accesses</text></g><!--link Repositories to VehicleRepository--><g id="link_Repositories_VehicleRepository"><path codeLine="142" d="M1266.56,420.06 C1243.29,443.37 1219.1579,467.5627 1192.0479,494.7327 " fill="none" id="Repositories-to-VehicleRepository" style="stroke:#181818;stroke-width:1.0;"/><polygon fill="#181818" points="1187.81,498.98,1196.9985,495.4343,1191.3416,495.4406,1191.3354,489.7837,1187.81,498.98" style="stroke:#181818;stroke-width:1.0;"/><text fill="#000000" font-family="sans-serif" font-size="13" lengthAdjust="spacing" textLength="56" x="1232.5" y="465.0283">accesses</text></g><!--link AssignVehiclesController to VehicleRepository--><g id="link_AssignVehiclesController_VehicleRepository"><path codeLine="144" d="M1288.53,237.12 C1162.72,278.47 1048.5,316 1048.5,316 C1048.5,316 1048.5,420 1048.5,420 C1048.5,420 1056.1915,452.3029 1065.9015,493.1229 " fill="none" id="AssignVehiclesController-to-VehicleRepository" style="stroke:#181818;stroke-width:1.0;stroke-dasharray:7.0,7.0;"/><polygon fill="#181818" points="1067.29,498.96,1069.0987,489.2786,1066.1329,494.0957,1061.3158,491.13,1067.29,498.96" style="stroke:#181818;stroke-width:1.0;"/><text fill="#000000" font-family="sans-serif" font-size="13" lengthAdjust="spacing" textLength="101" x="1049.5" y="373.5283">vehicleRepository</text></g><!--link AssignVehiclesController to AgendaRepository--><g id="link_AssignVehiclesController_AgendaRepository"><path codeLine="145" d="M1594.92,237.16 C1579.82,319.77 1561.5,420 1561.5,420 C1561.5,420 1550.3633,471.7345 1539.7233,521.1345 " fill="none" id="AssignVehiclesController-to-AgendaRepository" style="stroke:#181818;stroke-width:1.0;stroke-dasharray:7.0,7.0;"/><polygon fill="#181818" points="1538.46,527,1544.2653,519.044,1539.5128,522.1121,1536.4447,517.3595,1538.46,527" style="stroke:#181818;stroke-width:1.0;"/><text fill="#000000" font-family="sans-serif" font-size="13" lengthAdjust="spacing" textLength="104" x="1581.5" y="373.5283">agendaRepository</text></g><!--link ApplicationSession to UserSession--><g id="link_ApplicationSession_UserSession"><path codeLine="147" d="M1886.91,410.73 C1870.42,454.85 1846.8606,517.9297 1831.7906,558.2497 " fill="none" id="ApplicationSession-to-UserSession" style="stroke:#181818;stroke-width:1.0;"/><polygon fill="#181818" points="1829.69,563.87,1836.5878,556.84,1831.4405,559.1864,1829.0941,554.0392,1829.69,563.87" style="stroke:#181818;stroke-width:1.0;"/><text fill="#000000" font-family="sans-serif" font-size="13" lengthAdjust="spacing" textLength="72" x="1870.5" y="465.0283">userSession</text><text fill="#000000" font-family="sans-serif" font-size="13" lengthAdjust="spacing" textLength="7" x="1824.4008" y="552.6699">1</text></g><!--link AssignVehiclesController to ApplicationSession--><g id="link_AssignVehiclesController_ApplicationSession"><path codeLine="149" d="M1759.36,237.27 C1782.76,254.61 1799.5,267 1799.5,267 C1799.5,267 1827.1055,293.8002 1855.4055,321.2802 " fill="none" id="AssignVehiclesController-to-ApplicationSession" style="stroke:#181818;stroke-width:1.0;stroke-dasharray:7.0,7.0;"/><polygon fill="#181818" points="1859.71,325.46,1856.0397,316.3206,1856.1229,321.9768,1850.4666,322.06,1859.71,325.46" style="stroke:#181818;stroke-width:1.0;"/></g><!--link AssignVehiclesController to UserSession--><g id="link_AssignVehiclesController_UserSession"><path codeLine="150" d="M1661.07,237.02 C1706.96,342.47 1771.8862,491.6682 1800.9162,558.3882 " fill="none" id="AssignVehiclesController-to-UserSession" style="stroke:#181818;stroke-width:1.0;stroke-dasharray:7.0,7.0;"/><polygon fill="#181818" points="1803.31,563.89,1803.3871,554.0414,1801.3151,559.3052,1796.0514,557.2332,1803.31,563.89" style="stroke:#181818;stroke-width:1.0;"/></g><!--link VehicleRepository to Vehicle--><g id="link_VehicleRepository_Vehicle"><path codeLine="152" d="M1115.4,696.16 C1138.34,786.17 1171.1275,914.776 1196.6775,1014.976 " fill="none" id="VehicleRepository-to-Vehicle" style="stroke:#181818;stroke-width:1.0;stroke-dasharray:7.0,7.0;"/><polygon fill="#181818" points="1198.16,1020.79,1199.8122,1011.0807,1196.9246,1015.945,1192.0603,1013.0574,1198.16,1020.79" style="stroke:#181818;stroke-width:1.0;"/><text fill="#000000" font-family="sans-serif" font-size="13" lengthAdjust="spacing" textLength="36" x="1127.5" y="741.0283">stores</text></g><!--link AgendaRepository to Agenda--><g id="link_AgendaRepository_Agenda"><path codeLine="153" d="M1509.73,668.21 C1503.38,700.35 1496.8731,733.3238 1489.8131,769.0538 " fill="none" id="AgendaRepository-to-Agenda" style="stroke:#181818;stroke-width:1.0;stroke-dasharray:7.0,7.0;"/><polygon fill="#181818" points="1488.65,774.94,1494.3187,766.8861,1489.6192,770.0348,1486.4705,765.3353,1488.65,774.94" style="stroke:#181818;stroke-width:1.0;"/><text fill="#000000" font-family="sans-serif" font-size="13" lengthAdjust="spacing" textLength="36" x="1498.5" y="741.0283">stores</text></g><!--SRC=[hLTHR-Cs37xthn3kfIxg1jjhC0JeqkiGx7etNAwtPyLM7Assv9Fa5Dcm_pvAbcpQihF3iBp48ZzIv4UAbc_qAnSDLRGcjHGoFobPCs9Kov91qz3ybPPiRouL8uhbXegomW1zeeLyuw8aHrffhAcuOERICDB8wc8NoSsCKYeZ4sILLrJh1sCKFxI6xN8fzlnFHdv84gSX3qrJyPmQ3WgcDVmbVoK4VdT46n3df6Hc9-1Pv2ozzIgGRLkbc33U23H_1vSlcgcfBp2mulSrvHN6VcKddWCL5dTFzX0cP7vGL1HOKCk2LLXWKtNhHzaUmDnGnNvdl3mPB2sLr1g9kJ0axyB-jNQI3pAdrICrjXObruOfkvYeQFwjvPfRYdgjTGMv2CE49UP9iMyj4_a51zbKWFxOrWUc9XuXTVCyM7klT-HCArx0uekYtAIV3dz0Wq07mIAcx3Dh90GbrSMJzm7Y_yahD-JSFMZdDx0CLV2FXyjlGtHf7F2jipj8MJ4g-hYySHhy-Kqwy7Z_OIkTZfq5fX41ATev6qgKOOejIPsZJuqj1Qs6pNB5K7IuQJBSKXbkdunyVNecvsCzZeuMnTKiUqfySe_oepHRAGn46blqHNiecIZeUs5ykMp133SLM_kOWepgrqUcSyLTaXDjgqhRP1DfqIew0uPjPSw1b-8NnPZOm-Y1tORd2EQZNuTsMGBezRZM7cV7HQidGO1G6LkwzT3-VYGWIaB972D3bSPSz7BFGhyE-VU2Bf8C7RW-Z330KBa7HjBX4MP7U9mnkT8X_mq9qmEcVJZnCgZjb3bHVTf2A_Up5xTINad1qgZF-XQ3OwHuNp1a6OfMwXfwOlyyyfr6wE0eirXhD9DgLyakBWk_J34mhqm3yNP0dCOiFBUdllfEyFzCuFnmxNGRGjs_diuDJvulGGT2ep5OmsJi7iDWz0Qz_ESBa9mYehzZbpx-FdAebelzRlm29-iH902Ybuf3Hj80dxBaq5CX8XKk0wK8u-Dbvqc5ouXHiggOMayWsrxZW9fLKDQb0QGt3aI7igvnZJkE5zoxcqo_yWKvIruGrGgyrEsXvdQ4q178llOr5kFcybeyw6v7xsCFG2_A1SfGm1rrvsbbveiLMC6ug4mErfeJ72n_4np15pHNQKsZ-EBmilYiJOFD5dTV37X4CCBFzpWgsHWRDtW7NGh7cYpeqicjPJHNAIOm7dFPv5OrFGYTQpSgc86_9_Zc6Dt8XRJNJNQ4cNYyViRstlMeW-7IrDzq2DoneMDfGOwmYztqHiE0RLgpSWvU6dj5r0HOm3vM2JmI6yVLQ5vsdPCTEKhbCZBIipD402B_8eADqKRET2lhkXMMVb2_SNEwdkzdbZD-1gZ24zEbjcWtoKJPBmkN2fusrdLtmmKo3nSNfird7F7WAWo3-mtsi_R9Wm_xGUV7_VqKf4_oJIV9QEe3PhHUmzRT-4_YhpstRIn5DaaqlLURPOgInS5r3z-r8evDCLlGiojfjsEKZpUCpYbmb0DSWyMiGJm5aCLoeAlLl6aqqwwxc0jtEdfd2mAHl_ln7VwC1jCMVLJ_oxxn5_rLFFvSJ-Ay4HlGRY02xgBKXdnxp3y0]--></g></svg>