<?xml version="1.0" encoding="us-ascii" standalone="no"?><svg xmlns="http://www.w3.org/2000/svg" xmlns:xlink="http://www.w3.org/1999/xlink" contentStyleType="text/css" height="650px" preserveAspectRatio="none" style="width:1035px;height:650px;background:#FFFFFF;" version="1.1" viewBox="0 0 1035 650" width="1035px" zoomAndPan="magnify"><defs/><g><rect fill="#FFFFFF" height="485.7734" style="stroke:#181818;stroke-width:1.0;" width="10" x="130" y="90.5332"/><rect fill="#FFFFFF" height="74.9121" style="stroke:#181818;stroke-width:1.0;" width="10" x="294.5" y="148.1152"/><rect fill="#FFFFFF" height="283.6973" style="stroke:#181818;stroke-width:1.0;" width="10" x="413.5" y="254.3184"/><rect fill="#FFFFFF" height="36.291" style="stroke:#181818;stroke-width:1.0;" width="10" x="418.5" y="394.8125"/><rect fill="none" height="440.4824" style="stroke:#000000;stroke-width:1.5;" width="992" x="37.5" y="105.5332"/><rect fill="none" height="169.7852" style="stroke:#000000;stroke-width:1.5;" width="653" x="366.5" y="312.9395"/><line style="stroke:#181818;stroke-width:0.5;stroke-dasharray:5.0,5.0;" x1="134.5" x2="134.5" y1="57.2422" y2="594.3066"/><line style="stroke:#181818;stroke-width:0.5;stroke-dasharray:5.0,5.0;" x1="299.5" x2="299.5" y1="57.2422" y2="594.3066"/><line style="stroke:#181818;stroke-width:0.5;stroke-dasharray:5.0,5.0;" x1="418.5" x2="418.5" y1="57.2422" y2="594.3066"/><line style="stroke:#181818;stroke-width:0.5;stroke-dasharray:5.0,5.0;" x1="675.5" x2="675.5" y1="187.9258" y2="594.3066"/><line style="stroke:#181818;stroke-width:0.5;stroke-dasharray:5.0,5.0;" x1="806.5" x2="806.5" y1="294.1289" y2="594.3066"/><line style="stroke:#181818;stroke-width:0.5;stroke-dasharray:5.0,5.0;" x1="946.5" x2="946.5" y1="439.623" y2="594.3066"/><rect fill="#E3E3E3" height="32.6211" rx="2.5" ry="2.5" style="stroke:#181818;stroke-width:0.5;" width="175" x="47.5" y="23.6211"/><text fill="#000000" font-family="sans-serif" font-size="14" lengthAdjust="spacing" textLength="161" x="54.5" y="45.7285">:AssignVehiclesController</text><rect fill="#E3E3E3" height="32.6211" rx="2.5" ry="2.5" style="stroke:#181818;stroke-width:0.5;" width="175" x="47.5" y="593.3066"/><text fill="#000000" font-family="sans-serif" font-size="14" lengthAdjust="spacing" textLength="161" x="54.5" y="615.4141">:AssignVehiclesController</text><rect fill="#E3E3E3" height="51.2422" rx="2.5" ry="2.5" style="stroke:#181818;stroke-width:0.5;" width="134" x="232.5" y="5"/><text fill="#000000" font-family="sans-serif" font-size="14" lengthAdjust="spacing" textLength="120" x="239.5" y="27.1074">agendaRepository:</text><text fill="#000000" font-family="sans-serif" font-size="14" lengthAdjust="spacing" textLength="117" x="241" y="45.7285">AgendaRepository</text><rect fill="#E3E3E3" height="51.2422" rx="2.5" ry="2.5" style="stroke:#181818;stroke-width:0.5;" width="134" x="232.5" y="593.3066"/><text fill="#000000" font-family="sans-serif" font-size="14" lengthAdjust="spacing" textLength="120" x="239.5" y="615.4141">agendaRepository:</text><text fill="#000000" font-family="sans-serif" font-size="14" lengthAdjust="spacing" textLength="117" x="241" y="634.0352">AgendaRepository</text><rect fill="#E3E3E3" height="32.6211" rx="2.5" ry="2.5" style="stroke:#181818;stroke-width:0.5;" width="84" x="376.5" y="23.6211"/><text fill="#000000" font-family="sans-serif" font-size="14" lengthAdjust="spacing" textLength="70" x="383.5" y="45.7285">ListMapper</text><rect fill="#E3E3E3" height="32.6211" rx="2.5" ry="2.5" style="stroke:#181818;stroke-width:0.5;" width="84" x="376.5" y="593.3066"/><text fill="#000000" font-family="sans-serif" font-size="14" lengthAdjust="spacing" textLength="70" x="383.5" y="615.4141">ListMapper</text><rect fill="#E3E3E3" height="32.6211" rx="2.5" ry="2.5" style="stroke:#181818;stroke-width:0.5;" width="106" x="622.5" y="593.3066"/><text fill="#000000" font-family="sans-serif" font-size="14" lengthAdjust="spacing" textLength="92" x="629.5" y="615.4141">agendaEntries</text><rect fill="#E3E3E3" height="32.6211" rx="2.5" ry="2.5" style="stroke:#181818;stroke-width:0.5;" width="136" x="738.5" y="593.3066"/><text fill="#000000" font-family="sans-serif" font-size="14" lengthAdjust="spacing" textLength="122" x="745.5" y="615.4141">agendaEntriesDTO</text><rect fill="#E3E3E3" height="32.6211" rx="2.5" ry="2.5" style="stroke:#181818;stroke-width:0.5;" width="125" x="884.5" y="593.3066"/><text fill="#000000" font-family="sans-serif" font-size="14" lengthAdjust="spacing" textLength="111" x="891.5" y="615.4141">agendaEntryDTO</text><rect fill="#FFFFFF" height="485.7734" style="stroke:#181818;stroke-width:1.0;" width="10" x="130" y="90.5332"/><rect fill="#FFFFFF" height="74.9121" style="stroke:#181818;stroke-width:1.0;" width="10" x="294.5" y="148.1152"/><rect fill="#FFFFFF" height="283.6973" style="stroke:#181818;stroke-width:1.0;" width="10" x="413.5" y="254.3184"/><rect fill="#FFFFFF" height="36.291" style="stroke:#181818;stroke-width:1.0;" width="10" x="418.5" y="394.8125"/><polygon fill="#181818" points="118,86.5332,128,90.5332,118,94.5332,122,90.5332" style="stroke:#181818;stroke-width:1.0;"/><line style="stroke:#181818;stroke-width:1.0;" x1="0" x2="124" y1="90.5332" y2="90.5332"/><text fill="#000000" font-family="sans-serif" font-size="13" lengthAdjust="spacing" textLength="111" x="7" y="85.2705">getAgendaEntries()</text><path d="M37.5,105.5332 L204.5,105.5332 L204.5,114.8242 L194.5,124.8242 L37.5,124.8242 L37.5,105.5332 " fill="#EEEEEE" style="stroke:#000000;stroke-width:1.5;"/><rect fill="none" height="440.4824" style="stroke:#000000;stroke-width:1.5;" width="992" x="37.5" y="105.5332"/><text fill="#000000" font-family="sans-serif" font-size="13" font-weight="bold" lengthAdjust="spacing" textLength="122" x="52.5" y="120.5615">Get Agenda Entries</text><polygon fill="#181818" points="282.5,144.1152,292.5,148.1152,282.5,152.1152,286.5,148.1152" style="stroke:#181818;stroke-width:1.0;"/><line style="stroke:#181818;stroke-width:1.0;" x1="140" x2="288.5" y1="148.1152" y2="148.1152"/><text fill="#000000" font-family="sans-serif" font-size="13" lengthAdjust="spacing" textLength="111" x="147" y="142.8525">getAgendaEntries()</text><polygon fill="#181818" points="610.5,175.4063,620.5,179.4063,610.5,183.4063,614.5,179.4063" style="stroke:#181818;stroke-width:1.0;"/><line style="stroke:#181818;stroke-width:1.0;" x1="304.5" x2="616.5" y1="179.4063" y2="179.4063"/><text fill="#000000" font-family="sans-serif" font-size="13" lengthAdjust="spacing" textLength="44" x="311.5" y="174.1436">create()</text><rect fill="#E3E3E3" height="32.6211" rx="2.5" ry="2.5" style="stroke:#181818;stroke-width:0.5;" width="106" x="622.5" y="156.1152"/><text fill="#000000" font-family="sans-serif" font-size="14" lengthAdjust="spacing" textLength="92" x="629.5" y="178.2227">agendaEntries</text><polygon fill="#181818" points="151,219.0273,141,223.0273,151,227.0273,147,223.0273" style="stroke:#181818;stroke-width:1.0;"/><line style="stroke:#181818;stroke-width:1.0;stroke-dasharray:2.0,2.0;" x1="145" x2="298.5" y1="223.0273" y2="223.0273"/><text fill="#000000" font-family="sans-serif" font-size="13" lengthAdjust="spacing" textLength="83" x="157" y="217.7646">agendaEntries</text><polygon fill="#181818" points="401.5,250.3184,411.5,254.3184,401.5,258.3184,405.5,254.3184" style="stroke:#181818;stroke-width:1.0;"/><line style="stroke:#181818;stroke-width:1.0;" x1="140" x2="407.5" y1="254.3184" y2="254.3184"/><text fill="#000000" font-family="sans-serif" font-size="13" lengthAdjust="spacing" textLength="128" x="147" y="249.0557">toDTO(agendaEntries)</text><polygon fill="#181818" points="726.5,281.6094,736.5,285.6094,726.5,289.6094,730.5,285.6094" style="stroke:#181818;stroke-width:1.0;"/><line style="stroke:#181818;stroke-width:1.0;" x1="423.5" x2="732.5" y1="285.6094" y2="285.6094"/><text fill="#000000" font-family="sans-serif" font-size="13" lengthAdjust="spacing" textLength="44" x="430.5" y="280.3467">create()</text><rect fill="#E3E3E3" height="32.6211" rx="2.5" ry="2.5" style="stroke:#181818;stroke-width:0.5;" width="136" x="738.5" y="262.3184"/><text fill="#000000" font-family="sans-serif" font-size="14" lengthAdjust="spacing" textLength="122" x="745.5" y="284.4258">agendaEntriesDTO</text><path d="M366.5,312.9395 L439.5,312.9395 L439.5,322.2305 L429.5,332.2305 L366.5,332.2305 L366.5,312.9395 " fill="#EEEEEE" style="stroke:#000000;stroke-width:1.5;"/><rect fill="none" height="169.7852" style="stroke:#000000;stroke-width:1.5;" width="653" x="366.5" y="312.9395"/><text fill="#000000" font-family="sans-serif" font-size="13" font-weight="bold" lengthAdjust="spacing" textLength="28" x="381.5" y="327.9678">loop</text><text fill="#000000" font-family="sans-serif" font-size="11" font-weight="bold" lengthAdjust="spacing" textLength="180" x="454.5" y="326.8096">[for each entry in agendaEntries]</text><polygon fill="#181818" points="663.5,351.5215,673.5,355.5215,663.5,359.5215,667.5,355.5215" style="stroke:#181818;stroke-width:1.0;"/><line style="stroke:#181818;stroke-width:1.0;" x1="423.5" x2="669.5" y1="355.5215" y2="355.5215"/><text fill="#000000" font-family="sans-serif" font-size="13" lengthAdjust="spacing" textLength="29" x="430.5" y="350.2588">get(i)</text><line style="stroke:#181818;stroke-width:1.0;" x1="423.5" x2="470.5" y1="381.8125" y2="381.8125"/><line style="stroke:#181818;stroke-width:1.0;" x1="470.5" x2="470.5" y1="381.8125" y2="394.8125"/><line style="stroke:#181818;stroke-width:1.0;" x1="429.5" x2="470.5" y1="394.8125" y2="394.8125"/><polygon fill="#181818" points="439.5,390.8125,429.5,394.8125,439.5,398.8125,435.5,394.8125" style="stroke:#181818;stroke-width:1.0;"/><text fill="#000000" font-family="sans-serif" font-size="13" lengthAdjust="spacing" textLength="233" x="435.5" y="376.5498">agendaEntryDTO = toDTO(agendaEntry)</text><polygon fill="#181818" points="872.5,427.1035,882.5,431.1035,872.5,435.1035,876.5,431.1035" style="stroke:#181818;stroke-width:1.0;"/><line style="stroke:#181818;stroke-width:1.0;stroke-dasharray:2.0,2.0;" x1="423.5" x2="878.5" y1="431.1035" y2="431.1035"/><text fill="#000000" font-family="sans-serif" font-size="13" lengthAdjust="spacing" textLength="117" x="430.5" y="425.8408">create(agendaEntry)</text><rect fill="#E3E3E3" height="32.6211" rx="2.5" ry="2.5" style="stroke:#181818;stroke-width:0.5;" width="125" x="884.5" y="407.8125"/><text fill="#000000" font-family="sans-serif" font-size="14" lengthAdjust="spacing" textLength="111" x="891.5" y="429.9199">agendaEntryDTO</text><polygon fill="#181818" points="794.5,470.7246,804.5,474.7246,794.5,478.7246,798.5,474.7246" style="stroke:#181818;stroke-width:1.0;"/><line style="stroke:#181818;stroke-width:1.0;" x1="423.5" x2="800.5" y1="474.7246" y2="474.7246"/><text fill="#000000" font-family="sans-serif" font-size="13" lengthAdjust="spacing" textLength="128" x="430.5" y="469.4619">add(agendaEntryDTO)</text><polygon fill="#181818" points="151,534.0156,141,538.0156,151,542.0156,147,538.0156" style="stroke:#181818;stroke-width:1.0;"/><line style="stroke:#181818;stroke-width:1.0;stroke-dasharray:2.0,2.0;" x1="145" x2="417.5" y1="538.0156" y2="538.0156"/><text fill="#000000" font-family="sans-serif" font-size="13" lengthAdjust="spacing" textLength="109" x="157" y="532.7529">agendaEntriesDTO</text><polygon fill="#181818" points="11,572.3066,1,576.3066,11,580.3066,7,576.3066" style="stroke:#181818;stroke-width:1.0;"/><line style="stroke:#181818;stroke-width:1.0;stroke-dasharray:2.0,2.0;" x1="5" x2="134" y1="576.3066" y2="576.3066"/><text fill="#000000" font-family="sans-serif" font-size="13" lengthAdjust="spacing" textLength="109" x="17" y="571.0439">agendaEntriesDTO</text><!--SRC=[fLF1QiCm3BtdAyHEQQ4_4BP1QCik2OEsxBIBITJ4DBMDxMu4-l5JqYoDipejJ2TZFptfFKlcm8LYcXtXA8NCIYsF25QVC33zYsBPWHMujNM5e36pJ1JL461AbijlBWhOiyfWG44FbcTSCM7XAOgDuONum99d5Pgb55RBgaBz1Cp0ShT9N3mL4pdRe9A6Mwdhw5F4ewisSxVQk8a9DpPbIdNCINgBTqtLEPeM4Q-t4v3LxlqNHKSViBx26bG0NInUMsaGGO4s7lA6invq3PPP_iKiNlneRWejJmhUqC8b6xhqnb_mHLkIIfCtZrOUDz3OwgdGi18v6JAVHv1f93nnJe0x5o9mdBsTaAFRmwJ098t0Id8yT9Wz0djYcedRY2Jjb17b0-8gAHNifGRgkGHivW2u6AcyKwdzdv3F9d6DJdVOuEMFyFfVijjkNDdtgGUVzP2df2BFGrU9XveWtXa_dyyJqz-fwVPklCp-l96OeE-YEJml5bx6GMAxjy4F]--></g></svg>