<?xml version="1.0" encoding="us-ascii" standalone="no"?><svg xmlns="http://www.w3.org/2000/svg" xmlns:xlink="http://www.w3.org/1999/xlink" contentStyleType="text/css" height="439.5px" preserveAspectRatio="none" style="width:535px;height:439px;background:#FFFFFF;" version="1.1" viewBox="0 0 535 439" width="535.5px" zoomAndPan="magnify"><defs/><g><!--class Organization--><g id="elem_Organization"><rect codeLine="16" fill="#F1F1F1" height="64.8633" id="Organization" rx="1.25" ry="1.25" style="stroke:#181818;stroke-width:0.25;" width="50.5" x="169" y="3.5"/><text fill="#000000" font-family="sans-serif" font-size="7" lengthAdjust="spacing" textLength="40" x="174.25" y="13.5537">Organization</text><line style="stroke:#181818;stroke-width:0.25;" x1="169.5" x2="219" y1="17.8105" y2="17.8105"/><text fill="#000000" font-family="sans-serif" font-size="7" lengthAdjust="spacing" textLength="17.5" x="172" y="27.3643">name</text><text fill="#000000" font-family="sans-serif" font-size="7" lengthAdjust="spacing" textLength="34" x="172" y="36.6748">vatNumber</text><text fill="#000000" font-family="sans-serif" font-size="7" lengthAdjust="spacing" textLength="23.5" x="172" y="45.9854">website</text><text fill="#000000" font-family="sans-serif" font-size="7" lengthAdjust="spacing" textLength="44.5" x="172" y="55.2959">phoneNumber</text><text fill="#000000" font-family="sans-serif" font-size="7" lengthAdjust="spacing" textLength="16.5" x="172" y="64.6064">email</text></g><!--class Collaborator--><g id="elem_Collaborator"><rect codeLine="24" fill="#F1F1F1" height="64.8633" id="Collaborator" rx="1.25" ry="1.25" style="stroke:#181818;stroke-width:0.25;" width="81.5" x="3.5" y="211.5"/><text fill="#000000" font-family="sans-serif" font-size="7" lengthAdjust="spacing" textLength="39" x="24.75" y="221.5537">Collaborator</text><line style="stroke:#181818;stroke-width:0.25;" x1="4" x2="84.5" y1="225.8105" y2="225.8105"/><text fill="#000000" font-family="sans-serif" font-size="7" lengthAdjust="spacing" textLength="17.5" x="6.5" y="235.3643">name</text><text fill="#000000" font-family="sans-serif" font-size="7" lengthAdjust="spacing" textLength="28" x="6.5" y="244.6748">birthdate</text><text fill="#000000" font-family="sans-serif" font-size="7" lengthAdjust="spacing" textLength="47.5" x="6.5" y="253.9854">admission date</text><text fill="#000000" font-family="sans-serif" font-size="7" lengthAdjust="spacing" textLength="25.5" x="6.5" y="263.2959">address</text><text fill="#000000" font-family="sans-serif" font-size="7" lengthAdjust="spacing" textLength="75.5" x="6.5" y="272.6064">ID doc type and number</text></g><!--class HRM--><g id="elem_HRM"><rect codeLine="33" fill="#F1F1F1" height="55.5527" id="HRM" rx="1.25" ry="1.25" style="stroke:#181818;stroke-width:0.25;" width="30.5" x="179" y="108"/><text fill="#000000" font-family="sans-serif" font-size="7" lengthAdjust="spacing" textLength="15" x="186.75" y="118.0537">HRM</text><line style="stroke:#181818;stroke-width:0.25;" x1="179.5" x2="209" y1="122.3105" y2="122.3105"/><text fill="#000000" font-family="sans-serif" font-size="7" lengthAdjust="spacing" textLength="17.5" x="182" y="131.8643">name</text><text fill="#000000" font-family="sans-serif" font-size="7" lengthAdjust="spacing" textLength="16.5" x="182" y="141.1748">email</text><text fill="#000000" font-family="sans-serif" font-size="7" lengthAdjust="spacing" textLength="24.5" x="182" y="150.4854">position</text><text fill="#000000" font-family="sans-serif" font-size="7" lengthAdjust="spacing" textLength="20" x="182" y="159.7959">phone</text></g><!--class FM--><g id="elem_FM"><rect codeLine="40" fill="#F1F1F1" height="55.5527" id="FM" rx="1.25" ry="1.25" style="stroke:#181818;stroke-width:0.25;" width="30.5" x="371" y="216.25"/><text fill="#000000" font-family="sans-serif" font-size="7" lengthAdjust="spacing" textLength="10" x="381.25" y="226.3037">FM</text><line style="stroke:#181818;stroke-width:0.25;" x1="371.5" x2="401" y1="230.5605" y2="230.5605"/><text fill="#000000" font-family="sans-serif" font-size="7" lengthAdjust="spacing" textLength="17.5" x="374" y="240.1143">name</text><text fill="#000000" font-family="sans-serif" font-size="7" lengthAdjust="spacing" textLength="16.5" x="374" y="249.4248">email</text><text fill="#000000" font-family="sans-serif" font-size="7" lengthAdjust="spacing" textLength="24.5" x="374" y="258.7354">position</text><text fill="#000000" font-family="sans-serif" font-size="7" lengthAdjust="spacing" textLength="20" x="374" y="268.0459">phone</text></g><!--class Skill--><g id="elem_Skill"><rect codeLine="47" fill="#F1F1F1" height="27.6211" id="Skill" rx="1.25" ry="1.25" style="stroke:#181818;stroke-width:0.25;" width="23.5" x="141.5" y="408.5"/><text fill="#000000" font-family="sans-serif" font-size="7" lengthAdjust="spacing" textLength="12.5" x="147" y="418.5537">Skill</text><line style="stroke:#181818;stroke-width:0.25;" x1="142" x2="164.5" y1="422.8105" y2="422.8105"/><text fill="#000000" font-family="sans-serif" font-size="7" lengthAdjust="spacing" textLength="17.5" x="144.5" y="432.3643">name</text></g><!--class Job--><g id="elem_Job"><rect codeLine="51" fill="#F1F1F1" height="27.6211" id="Job" rx="1.25" ry="1.25" style="stroke:#181818;stroke-width:0.25;" width="23.5" x="150.5" y="230.25"/><text fill="#000000" font-family="sans-serif" font-size="7" lengthAdjust="spacing" textLength="11" x="156.75" y="240.3037">Job</text><line style="stroke:#181818;stroke-width:0.25;" x1="151" x2="173.5" y1="244.5605" y2="244.5605"/><text fill="#000000" font-family="sans-serif" font-size="7" lengthAdjust="spacing" textLength="17.5" x="153.5" y="254.1143">name</text></g><!--class System--><g id="elem_System"><rect codeLine="55" fill="#F1F1F1" height="18.3105" id="System" rx="1.25" ry="1.25" style="stroke:#181818;stroke-width:0.25;" width="26" x="325.25" y="126.5"/><text fill="#000000" font-family="sans-serif" font-size="7" lengthAdjust="spacing" textLength="23" x="326.75" y="136.5537">System</text><line style="stroke:#181818;stroke-width:0.25;" x1="325.75" x2="350.75" y1="140.8105" y2="140.8105"/></g><!--class Team--><g id="elem_Team"><rect codeLine="59" fill="#F1F1F1" height="36.9316" id="Team" rx="1.25" ry="1.25" style="stroke:#181818;stroke-width:0.25;" width="47" x="281.25" y="225.5"/><text fill="#000000" font-family="sans-serif" font-size="7" lengthAdjust="spacing" textLength="18" x="295.75" y="235.5537">Team</text><line style="stroke:#181818;stroke-width:0.25;" x1="281.75" x2="327.75" y1="239.8105" y2="239.8105"/><text fill="#000000" font-family="sans-serif" font-size="7" lengthAdjust="spacing" textLength="41" x="284.25" y="249.3643">collaborators</text><text fill="#000000" font-family="sans-serif" font-size="7" lengthAdjust="spacing" textLength="22" x="284.25" y="258.6748">skill list</text></g><!--class Vehicle--><g id="elem_Vehicle"><rect codeLine="70" fill="#F1F1F1" height="102.1055" id="Vehicle" rx="1.25" ry="1.25" style="stroke:#181818;stroke-width:0.25;" width="111" x="421.25" y="291.5"/><text fill="#000000" font-family="sans-serif" font-size="7" lengthAdjust="spacing" textLength="23" x="465.25" y="301.5537">Vehicle</text><line style="stroke:#181818;stroke-width:0.25;" x1="421.75" x2="531.75" y1="305.8105" y2="305.8105"/><text fill="#000000" font-family="sans-serif" font-size="7" lengthAdjust="spacing" textLength="18.5" x="424.25" y="315.3643">brand</text><text fill="#000000" font-family="sans-serif" font-size="7" lengthAdjust="spacing" textLength="19" x="424.25" y="324.6748">model</text><text fill="#000000" font-family="sans-serif" font-size="7" lengthAdjust="spacing" textLength="13.5" x="424.25" y="333.9854">type</text><text fill="#000000" font-family="sans-serif" font-size="7" lengthAdjust="spacing" textLength="12.5" x="424.25" y="343.2959">tare</text><text fill="#000000" font-family="sans-serif" font-size="7" lengthAdjust="spacing" textLength="39.5" x="424.25" y="352.6064">gross weight</text><text fill="#000000" font-family="sans-serif" font-size="7" lengthAdjust="spacing" textLength="34.5" x="424.25" y="361.917">current KM</text><text fill="#000000" font-family="sans-serif" font-size="7" lengthAdjust="spacing" textLength="40" x="424.25" y="371.2275">register date</text><text fill="#000000" font-family="sans-serif" font-size="7" lengthAdjust="spacing" textLength="49.5" x="424.25" y="380.5381">acquisition date</text><text fill="#000000" font-family="sans-serif" font-size="7" lengthAdjust="spacing" textLength="105" x="424.25" y="389.8486">maintenance/check-up frequency</text></g><!--class Checkup--><g id="elem_Checkup"><rect codeLine="82" fill="#F1F1F1" height="27.6211" id="Checkup" rx="1.25" ry="1.25" style="stroke:#181818;stroke-width:0.25;" width="31" x="415.75" y="408.5"/><text fill="#000000" font-family="sans-serif" font-size="7" lengthAdjust="spacing" textLength="28" x="417.25" y="418.5537">Checkup</text><line style="stroke:#181818;stroke-width:0.25;" x1="416.25" x2="446.25" y1="422.8105" y2="422.8105"/><text fill="#000000" font-family="sans-serif" font-size="7" lengthAdjust="spacing" textLength="14" x="418.75" y="432.3643">date</text></g><!--class List--><g id="elem_List"><rect codeLine="86" fill="#F1F1F1" height="27.6211" id="List" rx="1.25" ry="1.25" style="stroke:#181818;stroke-width:0.25;" width="94.5" x="254.5" y="408.5"/><text fill="#000000" font-family="sans-serif" font-size="7" lengthAdjust="spacing" textLength="11" x="296.25" y="418.5537">List</text><line style="stroke:#181818;stroke-width:0.25;" x1="255" x2="348.5" y1="422.8105" y2="422.8105"/><text fill="#000000" font-family="sans-serif" font-size="7" lengthAdjust="spacing" textLength="88.5" x="257.5" y="432.3643">vehicles that need check-up</text></g><!--class PostalAddress--><g id="elem_PostalAddress"><rect fill="#F1F1F1" height="18.3105" id="PostalAddress" rx="1.25" ry="1.25" style="stroke:#181818;stroke-width:0.25;" width="48.5" x="66" y="26.75"/><text fill="#000000" font-family="sans-serif" font-size="7" lengthAdjust="spacing" textLength="45.5" x="67.5" y="36.8037">PostalAddress</text><line style="stroke:#181818;stroke-width:0.25;" x1="66.5" x2="114" y1="41.0605" y2="41.0605"/></g><!--link Organization to HRM--><g id="link_Organization_HRM"><path codeLine="92" d="M194.25,68.56 C194.25,81.29 194.25,95.775 194.25,107.985 " fill="none" id="Organization-HRM" style="stroke:#181818;stroke-width:0.5;"/><polygon fill="#000000" points="196.75,90.8228,198.2195,86.3002,195.2805,86.3002,196.75,90.8228" style="stroke:#000000;stroke-width:0.5;"/><text fill="#000000" font-family="sans-serif" font-size="6.5" lengthAdjust="spacing" textLength="10.5" x="201.25" y="91.0142">has</text><text fill="#000000" font-family="sans-serif" font-size="6.5" lengthAdjust="spacing" textLength="3.5" x="190.5695" y="79.3847">1</text><text fill="#000000" font-family="sans-serif" font-size="6.5" lengthAdjust="spacing" textLength="10" x="183.6094" y="102.4032">1..*</text></g><!--link Organization to FM--><g id="link_Organization_FM"><path codeLine="93" d="M219.545,39.98 C256.385,46.455 324.26,63.94 359.75,108 C384.595,138.85 388.41,186.33 387.99,216.12 " fill="none" id="Organization-FM" style="stroke:#181818;stroke-width:0.5;"/><polygon fill="#000000" points="387.4779,137.6295,385.4141,133.3454,383.2901,135.3766,387.4779,137.6295" style="stroke:#000000;stroke-width:0.5;"/><text fill="#000000" font-family="sans-serif" font-size="6.5" lengthAdjust="spacing" textLength="10.5" x="390.25" y="138.5142">has</text><text fill="#000000" font-family="sans-serif" font-size="6.5" lengthAdjust="spacing" textLength="3.5" x="223.5172" y="38.4752">1</text><text fill="#000000" font-family="sans-serif" font-size="6.5" lengthAdjust="spacing" textLength="10" x="377.5723" y="210.5234">1..*</text></g><!--link Collaborator to Organization--><g id="link_Collaborator_Organization"><path codeLine="94" d="M67.455,211.48 C95.605,172.625 142.795,107.51 170.975,68.615 " fill="none" id="Collaborator-Organization" style="stroke:#181818;stroke-width:0.5;"/><polygon fill="#000000" points="142.7831,137.8472,146.6267,135.0472,144.2468,133.3228,142.7831,137.8472" style="stroke:#000000;stroke-width:0.5;"/><text fill="#000000" font-family="sans-serif" font-size="6.5" lengthAdjust="spacing" textLength="10.5" x="148.75" y="138.5142">has</text><text fill="#000000" font-family="sans-serif" font-size="6.5" lengthAdjust="spacing" textLength="10" x="59.56" y="205.7589">1..*</text><text fill="#000000" font-family="sans-serif" font-size="6.5" lengthAdjust="spacing" textLength="3.5" x="164.8943" y="79.4454">1</text></g><!--link HRM to Collaborator--><g id="link_HRM_Collaborator"><path codeLine="95" d="M178.935,145.19 C165.05,153.445 144.16,166.245 126.75,178.5 C112.21,188.735 96.78,200.6 83.245,211.37 " fill="none" id="HRM-Collaborator" style="stroke:#181818;stroke-width:0.5;"/><polygon fill="#000000" points="127.1938,188.9948,131.7493,187.6309,130.0776,185.2137,127.1938,188.9948" style="stroke:#000000;stroke-width:0.5;"/><text fill="#000000" font-family="sans-serif" font-size="6.5" lengthAdjust="spacing" textLength="25" x="133.75" y="190.2642">registers</text><text fill="#000000" font-family="sans-serif" font-size="6.5" lengthAdjust="spacing" textLength="3.5" x="171.4887" y="144.9151">1</text><text fill="#000000" font-family="sans-serif" font-size="6.5" lengthAdjust="spacing" textLength="10" x="76.9632" y="205.8658">1..*</text></g><!--link HRM to Skill--><g id="link_HRM_Skill"><path codeLine="96" d="M200.71,163.615 C210.8,212.705 225.44,317.69 187.25,393.5 C182.45,403.025 172.84,410.535 165.055,415.41 " fill="none" id="HRM-Skill" style="stroke:#181818;stroke-width:0.5;"/><polygon fill="#000000" points="214.3995,246.5481,216.4885,242.2762,213.5786,241.8642,214.3995,246.5481" style="stroke:#000000;stroke-width:0.5;"/><text fill="#000000" font-family="sans-serif" font-size="6.5" lengthAdjust="spacing" textLength="21.5" x="219.25" y="246.7642">creates</text><text fill="#000000" font-family="sans-serif" font-size="6.5" lengthAdjust="spacing" textLength="3.5" x="197.784" y="174.5488">1</text><text fill="#000000" font-family="sans-serif" font-size="6.5" lengthAdjust="spacing" textLength="10" x="168.9412" y="411.3624">1..*</text></g><!--link HRM to Job--><g id="link_HRM_Job"><path codeLine="97" d="M178.9,155.845 C174.36,162.65 169.9,170.575 167.25,178.5 C161.505,195.675 160.99,216.77 161.41,230.18 " fill="none" id="HRM-Job" style="stroke:#181818;stroke-width:0.5;"/><polygon fill="#000000" points="169.1774,190.0063,171.6436,185.9405,168.7828,185.2674,169.1774,190.0063" style="stroke:#000000;stroke-width:0.5;"/><text fill="#000000" font-family="sans-serif" font-size="6.5" lengthAdjust="spacing" textLength="21.5" x="174.25" y="190.2642">creates</text><text fill="#000000" font-family="sans-serif" font-size="6.5" lengthAdjust="spacing" textLength="3.5" x="171.4456" y="158.034">1</text><text fill="#000000" font-family="sans-serif" font-size="6.5" lengthAdjust="spacing" textLength="10" x="150.0595" y="224.5183">1..*</text></g><!--link Job to Collaborator--><g id="link_Job_Collaborator"><path codeLine="98" d="M150.43,244 C135.24,244 108.075,244 85.025,244 " fill="none" id="Job-Collaborator" style="stroke:#181818;stroke-width:0.5;"/><polygon fill="#000000" points="93.75,237.8228,98.2725,239.2922,98.2725,236.3533,93.75,237.8228" style="stroke:#000000;stroke-width:0.5;"/><text fill="#000000" font-family="sans-serif" font-size="6.5" lengthAdjust="spacing" textLength="40.5" x="100.75" y="240.5142">is assigned to</text><text fill="#000000" font-family="sans-serif" font-size="6.5" lengthAdjust="spacing" textLength="10" x="136.5404" y="251.9998">1..*</text><text fill="#000000" font-family="sans-serif" font-size="6.5" lengthAdjust="spacing" textLength="3.5" x="88.9453" y="242.1354">1</text></g><!--link Collaborator to Skill--><g id="link_Collaborator_Skill"><path codeLine="99" d="M63.99,276.6 C88.16,315.905 127.99,380.67 145.065,408.44 " fill="none" id="Collaborator-Skill" style="stroke:#181818;stroke-width:0.5;"/><polygon fill="#000000" points="136.4404,340.4432,137.5577,345.0654,140.0612,343.5259,136.4404,340.4432" style="stroke:#000000;stroke-width:0.5;"/><text fill="#000000" font-family="sans-serif" font-size="6.5" lengthAdjust="spacing" textLength="40.5" x="142.25" y="345.2642">is assigned to</text><text fill="#000000" font-family="sans-serif" font-size="6.5" lengthAdjust="spacing" textLength="3.5" x="62.3452" y="287.4289">1</text><text fill="#000000" font-family="sans-serif" font-size="6.5" lengthAdjust="spacing" textLength="10" x="132.016" y="402.7806">1..*</text></g><!--link System to HRM--><g id="link_System_HRM"><path codeLine="100" d="M325.23,135.75 C298.59,135.75 237.97,135.75 209.525,135.75 " fill="none" id="System-HRM" style="stroke:#181818;stroke-width:0.5;"/><polygon fill="#000000" points="223.125,129.5728,218.6025,128.1033,218.6025,131.0422,223.125,129.5728" style="stroke:#000000;stroke-width:0.5;"/><text fill="#000000" font-family="sans-serif" font-size="6.5" lengthAdjust="spacing" textLength="91" x="225.125" y="132.2642">provides team size and skills to</text><text fill="#000000" font-family="sans-serif" font-size="6.5" lengthAdjust="spacing" textLength="3.5" x="317.7606" y="133.167">1</text><text fill="#000000" font-family="sans-serif" font-size="6.5" lengthAdjust="spacing" textLength="3.5" x="213.462" y="133.2921">1</text></g><!--link System to Team--><g id="link_System_Team"><path codeLine="101" d="M335.51,145.025 C330.04,162.535 317.675,202.125 310.395,225.42 " fill="none" id="System-Team" style="stroke:#181818;stroke-width:0.5;"/><polygon fill="#000000" points="326.5045,189.959,329.2557,186.0804,326.4505,185.204,326.5045,189.959" style="stroke:#000000;stroke-width:0.5;"/><text fill="#000000" font-family="sans-serif" font-size="6.5" lengthAdjust="spacing" textLength="28.5" x="331.75" y="190.2642">generates</text><text fill="#000000" font-family="sans-serif" font-size="6.5" lengthAdjust="spacing" textLength="3.5" x="330.7472" y="155.8902">1</text><text fill="#000000" font-family="sans-serif" font-size="6.5" lengthAdjust="spacing" textLength="3.5" x="307.5888" y="219.8866">1</text></g><!--link HRM to Team--><g id="link_HRM_Team"><path codeLine="102" d="M209.525,163.25 C216.52,174.28 225.44,186.72 235.25,196.5 C248.865,210.075 266.92,222.145 281.21,230.655 " fill="none" id="HRM-Team" style="stroke:#181818;stroke-width:0.5;"/><text fill="#000000" font-family="sans-serif" font-size="6.5" lengthAdjust="spacing" textLength="2" x="274.5" y="186.0142">&#160;</text><polygon fill="#000000" points="236.4287,190.2557,238.7168,194.4243,240.7301,192.2832,236.4287,190.2557" style="stroke:#000000;stroke-width:0.5;"/><text fill="#000000" font-family="sans-serif" font-size="6.5" lengthAdjust="spacing" textLength="73" x="242.25" y="194.6597">is accepted or refused by</text><text fill="#000000" font-family="sans-serif" font-size="6.5" lengthAdjust="spacing" textLength="3.5" x="207.8424" y="174.5368">1</text><text fill="#000000" font-family="sans-serif" font-size="6.5" lengthAdjust="spacing" textLength="3.5" x="273.6794" y="226.382">1</text></g><!--link FM to Vehicle--><g id="link_FM_Vehicle"><path codeLine="103" d="M401.6,261.04 C409.47,269.515 419.52,280.34 429.69,291.3 " fill="none" id="FM-Vehicle" style="stroke:#181818;stroke-width:0.5;"/><polygon fill="#000000" points="386.4808,281.895,384.4809,277.5807,382.327,279.5802,386.4808,281.895" style="stroke:#000000;stroke-width:0.5;"/><text fill="#000000" font-family="sans-serif" font-size="6.5" lengthAdjust="spacing" textLength="25" x="389.28" y="282.7542">registers</text><text fill="#000000" font-family="sans-serif" font-size="6.5" lengthAdjust="spacing" textLength="3.5" x="405.5544" y="262.5226">1</text><text fill="#000000" font-family="sans-serif" font-size="6.5" lengthAdjust="spacing" textLength="10" x="416.0295" y="285.9167">1..*</text></g><!--link FM to Checkup--><g id="link_FM_Checkup"><path codeLine="104" d="M381.685,271.88 C376.045,309.185 368.535,373.62 380.25,393.5 C387.855,406.405 403.71,413.83 415.74,417.8 " fill="none" id="FM-Checkup" style="stroke:#181818;stroke-width:0.5;"/><polygon fill="#000000" points="383.3182,345.0073,383.7213,340.2692,380.8593,340.9371,383.3182,345.0073" style="stroke:#000000;stroke-width:0.5;"/><text fill="#000000" font-family="sans-serif" font-size="6.5" lengthAdjust="spacing" textLength="25" x="387.25" y="345.2642">registers</text><text fill="#000000" font-family="sans-serif" font-size="6.5" lengthAdjust="spacing" textLength="3.5" x="377.4154" y="282.8157">1</text><text fill="#000000" font-family="sans-serif" font-size="6.5" lengthAdjust="spacing" textLength="10" x="401.7021" y="414.6038">1..*</text></g><!--link Vehicle to Checkup--><g id="link_Vehicle_Checkup"><path codeLine="105" d="M447.55,393.54 C444.4,398.995 441.43,404.135 438.91,408.495 " fill="none" id="Vehicle-Checkup" style="stroke:#181818;stroke-width:0.5;"/><polygon fill="#000000" points="446.7406,404.083,443.2058,407.2639,445.7506,408.7341,446.7406,404.083" style="stroke:#000000;stroke-width:0.5;"/><text fill="#000000" font-family="sans-serif" font-size="6.5" lengthAdjust="spacing" textLength="30" x="449.99" y="408.9392">belongs to</text><text fill="#000000" font-family="sans-serif" font-size="6.5" lengthAdjust="spacing" textLength="3.5" x="442.8322" y="402.8641">1</text><text fill="#000000" font-family="sans-serif" font-size="6.5" lengthAdjust="spacing" textLength="10" x="429.5251" y="402.8483">1..*</text></g><!--link FM to List--><g id="link_FM_List"><path codeLine="106" d="M370.945,255.09 C361.315,261.58 348.525,269.88 336.75,276.5 C323.41,284 314.08,278.66 305.75,291.5 C282.05,328.035 291.73,383.275 297.99,408.43 " fill="none" id="FM-List" style="stroke:#181818;stroke-width:0.5;"/><polygon fill="#000000" points="307.1759,344.8303,310.4459,341.3777,307.792,340.1151,307.1759,344.8303" style="stroke:#000000;stroke-width:0.5;"/><text fill="#000000" font-family="sans-serif" font-size="6.5" lengthAdjust="spacing" textLength="57" x="312.75" y="345.2642">requests creation of</text><text fill="#000000" font-family="sans-serif" font-size="6.5" lengthAdjust="spacing" textLength="3.5" x="363.501" y="255.1966">1</text><text fill="#000000" font-family="sans-serif" font-size="6.5" lengthAdjust="spacing" textLength="10" x="285.9643" y="402.7683">1..*</text></g><!--link PostalAddress to Organization--><g id="link_PostalAddress_Organization"><path codeLine="108" d="M114.5,36 C130.83,36 152.315,36 168.87,36 " fill="none" id="PostalAddress-Organization" style="stroke:#181818;stroke-width:0.5;"/><polygon fill="#000000" points="123.25,29.8228,127.7725,31.2922,127.7725,28.3533,123.25,29.8228" style="stroke:#000000;stroke-width:0.5;"/><text fill="#000000" font-family="sans-serif" font-size="6.5" lengthAdjust="spacing" textLength="29.5" x="130.25" y="32.5142">located At</text><text fill="#000000" font-family="sans-serif" font-size="6.5" lengthAdjust="spacing" textLength="3.5" x="118.4813" y="33.889">1</text><text fill="#000000" font-family="sans-serif" font-size="6.5" lengthAdjust="spacing" textLength="3.5" x="161.5548" y="33.9363">1</text></g><!--SRC=[dLJ1Rjim3BtxAuXSiWr8jrw3eK3H8bYtTIkMRQTTP9csXSYIAz4Dqc7_Fago7ISrTbXEZFX8FZwIzZjbMk540uqrLjREDWZaEipyw6c5t8aAjtJG20ub2LFfAS3Neh1xPIeeXVQOBOykhGpIeKMmZcgRBJMM16J1gQecA5H8fwoP99DQU7zDv5JU4Tv9QxRg6U5TLgi2GIedkNQq6-IKXS-o9IbYQhUs4Sh0lIrGysDC10zQK6bT0x-p9S2gG2-TQcFDvPyiIw2lhX96FOlmp43Wdn4DHkD9q9UkoT75VtlClQBaQMjhSE93Bg-pCUcDrLharWcoxZnfhbYEGlI9HD4exqFjoLFXqFjeimGa984ofOLNZSqLDojCaGg-ZfYxMoYiX2XrS9b4QoJpuTlzEOT4DpPYkQUWoDZLCN3pdt7RdT9w4ZawFjfyxdbxy8HXIiUdxoYQlhYSQ9b4yI4_hvUd4D0F-uT7bmRTfryU2KUpPTJUkc8o-vzOArwfL2TtB5wqchX5mGgQ9aEuP5JESk0UmmudUfrpQ0W-tSU_3YlcnLIEuvIFdKfY7H_3jX8QOII-bJNAtQfheNJusA6HXyaY1H-x4iKOFle-Sw7UyPGQyK2r83281GnPeqJZ9Imk5x1QmUBDudJnrr0BFvBdyAlve1jcK5btu802IpvmpyYJJ0FuykA2yM7tKkvPs8ZR_1CMlnmzSdfQGqYe4f7peA6j4-Y8ZTkw1kcGUvk7yDvE0IVN7P5JWX6iFF28L6LOIlxalP-9EIVm8cJaqMTVz8UoXjRP9_uAyhZ3cVZmZGo77-_2X-2hhB-fGPL5lAWrL6ZGpVKv07wPm4DAR8bvC5U7PUVPp0zCQNEcStz0SAhnvbo_OOjFOKFmwUH6Q8xQciedBLwaZCiVyl75UF9fEc5ZRCcfPvPe5F71UXBwEdraEOMsKeHUhua3_m80]--></g></svg>