<?xml version="1.0" encoding="us-ascii" standalone="no"?><svg xmlns="http://www.w3.org/2000/svg" xmlns:xlink="http://www.w3.org/1999/xlink" contentStyleType="text/css" height="752.5px" preserveAspectRatio="none" style="width:679px;height:752px;background:#FFFFFF;" version="1.1" viewBox="0 0 679 752" width="679.7px" zoomAndPan="magnify"><defs/><g><rect fill="#FFFFFF" height="616.7561" style="stroke:#181818;stroke-width:0.6999999999999998;" width="7" x="63.7" y="65.5348"/><rect fill="#FFFFFF" height="52.4385" style="stroke:#181818;stroke-width:0.6999999999999998;" width="7" x="329" y="81.8385"/><rect fill="#FFFFFF" height="143.2949" style="stroke:#181818;stroke-width:0.6999999999999998;" width="7" x="329" y="156.1807"/><rect fill="#FFFFFF" height="360.9115" style="stroke:#181818;stroke-width:0.6999999999999998;" width="7" x="329" y="321.3793"/><rect fill="#FFFFFF" height="166.8297" style="stroke:#181818;stroke-width:0.6999999999999998;" width="7" x="468.3" y="110.7422"/><rect fill="#FFFFFF" height="99.4875" style="stroke:#181818;stroke-width:0.6999999999999998;" width="7" x="468.3" y="343.283"/><rect fill="#FFFFFF" height="190.1129" style="stroke:#181818;stroke-width:0.6999999999999998;" width="7" x="468.3" y="470.2742"/><rect fill="#FFFFFF" height="66.8527" style="stroke:#181818;stroke-width:0.6999999999999998;" width="7" x="629.3" y="571.6307"/><line style="stroke:#181818;stroke-width:0.3499999999999999;stroke-dasharray:5.0,5.0;" x1="67.2" x2="67.2" y1="58.5348" y2="694.8908"/><line style="stroke:#181818;stroke-width:0.3499999999999999;stroke-dasharray:5.0,5.0;" x1="332.15" x2="332.15" y1="58.5348" y2="694.8908"/><line style="stroke:#181818;stroke-width:0.3499999999999999;stroke-dasharray:5.0,5.0;" x1="471.45" x2="471.45" y1="109.7059" y2="694.8908"/><line style="stroke:#181818;stroke-width:0.3499999999999999;stroke-dasharray:5.0,5.0;" x1="632.8" x2="632.8" y1="58.5348" y2="694.8908"/><text fill="#000000" font-family="sans-serif" font-size="9.8" lengthAdjust="spacing" textLength="123.2" x="3.5" y="56.0752">Human Resources Manager</text><ellipse cx="67.2" cy="9.45" fill="#E3E3E3" rx="5.6" ry="5.6" style="stroke:#181818;stroke-width:0.3499999999999999;"/><path d="M67.2,15.05 L67.2,33.95 M58.1,20.65 L76.3,20.65 M67.2,33.95 L58.1,44.45 M67.2,33.95 L76.3,44.45 " fill="none" style="stroke:#181818;stroke-width:0.3499999999999999;"/><text fill="#000000" font-family="sans-serif" font-size="9.8" lengthAdjust="spacing" textLength="123.2" x="3.5" y="704.766">Human Resources Manager</text><ellipse cx="67.2" cy="713.1756" fill="#E3E3E3" rx="5.6" ry="5.6" style="stroke:#181818;stroke-width:0.3499999999999999;"/><path d="M67.2,718.7756 L67.2,737.6756 M58.1,724.3756 L76.3,724.3756 M67.2,737.6756 L58.1,748.1756 M67.2,737.6756 L76.3,748.1756 " fill="none" style="stroke:#181818;stroke-width:0.3499999999999999;"/><rect fill="#E3E3E3" height="22.8348" rx="1.75" ry="1.75" style="stroke:#181818;stroke-width:0.3499999999999999;" width="67.9" x="298.55" y="35"/><text fill="#000000" font-family="sans-serif" font-size="9.8" lengthAdjust="spacing" textLength="58.1" x="303.45" y="50.4752">:AssignSkillUI</text><rect fill="#E3E3E3" height="22.8348" rx="1.75" ry="1.75" style="stroke:#181818;stroke-width:0.3499999999999999;" width="67.9" x="298.55" y="694.1908"/><text fill="#000000" font-family="sans-serif" font-size="9.8" lengthAdjust="spacing" textLength="58.1" x="303.45" y="709.666">:AssignSkillUI</text><rect fill="#E3E3E3" height="22.8348" rx="1.75" ry="1.75" style="stroke:#181818;stroke-width:0.3499999999999999;" width="102.9" x="420.35" y="694.1908"/><text fill="#000000" font-family="sans-serif" font-size="9.8" lengthAdjust="spacing" textLength="93.1" x="425.25" y="709.666">:AssignSkillController</text><rect fill="#E3E3E3" height="35.8695" rx="1.75" ry="1.75" style="stroke:#181818;stroke-width:0.3499999999999999;" width="68.6" x="598.5" y="21.9652"/><text fill="#000000" font-family="sans-serif" font-size="9.8" lengthAdjust="spacing" textLength="53.9" x="605.85" y="37.4404">organization</text><text fill="#000000" font-family="sans-serif" font-size="9.8" lengthAdjust="spacing" textLength="58.8" x="603.4" y="50.4752">:Organization</text><rect fill="#E3E3E3" height="35.8695" rx="1.75" ry="1.75" style="stroke:#181818;stroke-width:0.3499999999999999;" width="68.6" x="598.5" y="694.1908"/><text fill="#000000" font-family="sans-serif" font-size="9.8" lengthAdjust="spacing" textLength="53.9" x="605.85" y="709.666">organization</text><text fill="#000000" font-family="sans-serif" font-size="9.8" lengthAdjust="spacing" textLength="58.8" x="603.4" y="722.7008">:Organization</text><rect fill="#FFFFFF" height="616.7561" style="stroke:#181818;stroke-width:0.6999999999999998;" width="7" x="63.7" y="65.5348"/><rect fill="#FFFFFF" height="52.4385" style="stroke:#181818;stroke-width:0.6999999999999998;" width="7" x="329" y="81.8385"/><rect fill="#FFFFFF" height="143.2949" style="stroke:#181818;stroke-width:0.6999999999999998;" width="7" x="329" y="156.1807"/><rect fill="#FFFFFF" height="360.9115" style="stroke:#181818;stroke-width:0.6999999999999998;" width="7" x="329" y="321.3793"/><rect fill="#FFFFFF" height="166.8297" style="stroke:#181818;stroke-width:0.6999999999999998;" width="7" x="468.3" y="110.7422"/><rect fill="#FFFFFF" height="99.4875" style="stroke:#181818;stroke-width:0.6999999999999998;" width="7" x="468.3" y="343.283"/><rect fill="#FFFFFF" height="190.1129" style="stroke:#181818;stroke-width:0.6999999999999998;" width="7" x="468.3" y="470.2742"/><rect fill="#FFFFFF" height="66.8527" style="stroke:#181818;stroke-width:0.6999999999999998;" width="7" x="629.3" y="571.6307"/><polygon fill="#181818" points="320.6,79.0385,327.6,81.8385,320.6,84.6385,323.4,81.8385" style="stroke:#181818;stroke-width:0.6999999999999998;"/><line style="stroke:#181818;stroke-width:0.6999999999999998;" x1="70.7" x2="324.8" y1="81.8385" y2="81.8385"/><text fill="#000000" font-family="sans-serif" font-size="9.1" font-weight="bold" lengthAdjust="spacing" textLength="4.9" x="75.6" y="78.1546">1</text><text fill="#000000" font-family="sans-serif" font-size="9.1" lengthAdjust="spacing" textLength="154" x="83.3" y="78.1546">asks to assign a skill to a collaborator</text><polygon fill="#181818" points="411.95,100.9422,418.95,103.7422,411.95,106.5422,414.75,103.7422" style="stroke:#181818;stroke-width:0.6999999999999998;"/><line style="stroke:#181818;stroke-width:0.6999999999999998;" x1="336" x2="416.15" y1="103.7422" y2="103.7422"/><text fill="#000000" font-family="sans-serif" font-size="9.1" font-weight="bold" lengthAdjust="spacing" textLength="4.9" x="340.9" y="100.0583">2</text><text fill="#000000" font-family="sans-serif" font-size="9.1" lengthAdjust="spacing" textLength="25.2" x="348.6" y="100.0583">create</text><rect fill="#E3E3E3" height="22.8348" rx="1.75" ry="1.75" style="stroke:#181818;stroke-width:0.3499999999999999;" width="102.9" x="420.35" y="87.4385"/><text fill="#000000" font-family="sans-serif" font-size="9.8" lengthAdjust="spacing" textLength="93.1" x="425.25" y="102.9137">:AssignSkillController</text><polygon fill="#181818" points="78.4,131.477,71.4,134.277,78.4,137.077,75.6,134.277" style="stroke:#181818;stroke-width:0.6999999999999998;"/><line style="stroke:#181818;stroke-width:0.6999999999999998;stroke-dasharray:2.0,2.0;" x1="74.2" x2="331.8" y1="134.277" y2="134.277"/><text fill="#000000" font-family="sans-serif" font-size="9.1" font-weight="bold" lengthAdjust="spacing" textLength="4.9" x="82.6" y="130.5931">3</text><text fill="#000000" font-family="sans-serif" font-size="9.1" lengthAdjust="spacing" textLength="233.8" x="90.3" y="130.5931">shows list of collaborators and asks to select one or more</text><polygon fill="#181818" points="320.6,153.3807,327.6,156.1807,320.6,158.9807,323.4,156.1807" style="stroke:#181818;stroke-width:0.6999999999999998;"/><line style="stroke:#181818;stroke-width:0.6999999999999998;" x1="70.7" x2="324.8" y1="156.1807" y2="156.1807"/><text fill="#000000" font-family="sans-serif" font-size="9.1" font-weight="bold" lengthAdjust="spacing" textLength="4.9" x="75.6" y="152.4968">4</text><text fill="#000000" font-family="sans-serif" font-size="9.1" lengthAdjust="spacing" textLength="89.6" x="83.3" y="152.4968">selects collaborator(s)</text><polygon fill="#181818" points="459.9,175.2844,466.9,178.0844,459.9,180.8844,462.7,178.0844" style="stroke:#181818;stroke-width:0.6999999999999998;"/><line style="stroke:#181818;stroke-width:0.6999999999999998;" x1="336" x2="464.1" y1="178.0844" y2="178.0844"/><text fill="#000000" font-family="sans-serif" font-size="9.1" font-weight="bold" lengthAdjust="spacing" textLength="4.9" x="340.9" y="174.4005">5</text><text fill="#000000" font-family="sans-serif" font-size="9.1" lengthAdjust="spacing" textLength="107.8" x="348.6" y="174.4005">getCollaborator(ID number)</text><polygon fill="#181818" points="624.4,197.1881,631.4,199.9881,624.4,202.7881,627.2,199.9881" style="stroke:#181818;stroke-width:0.6999999999999998;"/><line style="stroke:#181818;stroke-width:0.6999999999999998;" x1="475.3" x2="628.6" y1="199.9881" y2="199.9881"/><text fill="#000000" font-family="sans-serif" font-size="9.1" font-weight="bold" lengthAdjust="spacing" textLength="4.9" x="480.2" y="196.3042">6</text><text fill="#000000" font-family="sans-serif" font-size="9.1" lengthAdjust="spacing" textLength="107.8" x="487.9" y="196.3042">getCollaborator(ID number)</text><rect fill="none" height="30.2764" style="stroke:#000000;stroke-width:1.0499999999999998;" width="79.1" x="596.4" y="205.5881"/><path d="M596.4,205.5881 L639.8,205.5881 L639.8,211.8881 L632.8,218.8881 L596.4,218.8881 L596.4,205.5881 " fill="#EEEEEE" style="stroke:#000000;stroke-width:1.3999999999999997;"/><text fill="#000000" font-family="sans-serif" font-size="9.1" font-weight="bold" lengthAdjust="spacing" textLength="11.9" x="605.5" y="216.8079">ref</text><text fill="#000000" font-family="sans-serif" font-size="8.4" lengthAdjust="spacing" textLength="73.5" x="599.2" y="230.7525">Get Collaborator(s)</text><polygon fill="#181818" points="483,252.8682,476,255.6682,483,258.4682,480.2,255.6682" style="stroke:#181818;stroke-width:0.6999999999999998;"/><line style="stroke:#181818;stroke-width:0.6999999999999998;" x1="478.8" x2="632.1" y1="255.6682" y2="255.6682"/><text fill="#000000" font-family="sans-serif" font-size="9.1" font-weight="bold" lengthAdjust="spacing" textLength="4.9" x="487.2" y="251.9843">7</text><text fill="#000000" font-family="sans-serif" font-size="9.1" lengthAdjust="spacing" textLength="51.8" x="494.9" y="251.9843">collaborators</text><polygon fill="#181818" points="343.7,274.7719,336.7,277.5719,343.7,280.3719,340.9,277.5719" style="stroke:#181818;stroke-width:0.6999999999999998;"/><line style="stroke:#181818;stroke-width:0.6999999999999998;" x1="339.5" x2="471.1" y1="277.5719" y2="277.5719"/><text fill="#000000" font-family="sans-serif" font-size="9.1" font-weight="bold" lengthAdjust="spacing" textLength="4.9" x="347.9" y="273.888">8</text><text fill="#000000" font-family="sans-serif" font-size="9.1" lengthAdjust="spacing" textLength="51.8" x="355.6" y="273.888">collaborators</text><polygon fill="#181818" points="78.4,296.6756,71.4,299.4756,78.4,302.2756,75.6,299.4756" style="stroke:#181818;stroke-width:0.6999999999999998;"/><line style="stroke:#181818;stroke-width:0.6999999999999998;stroke-dasharray:2.0,2.0;" x1="74.2" x2="331.8" y1="299.4756" y2="299.4756"/><text fill="#000000" font-family="sans-serif" font-size="9.1" font-weight="bold" lengthAdjust="spacing" textLength="4.9" x="82.6" y="295.7917">9</text><text fill="#000000" font-family="sans-serif" font-size="9.1" lengthAdjust="spacing" textLength="203" x="90.3" y="295.7917">shows list of skills and asks to select one or more</text><polygon fill="#181818" points="320.6,318.5793,327.6,321.3793,320.6,324.1793,323.4,321.3793" style="stroke:#181818;stroke-width:0.6999999999999998;"/><line style="stroke:#181818;stroke-width:0.6999999999999998;" x1="70.7" x2="324.8" y1="321.3793" y2="321.3793"/><text fill="#000000" font-family="sans-serif" font-size="9.1" font-weight="bold" lengthAdjust="spacing" textLength="9.8" x="75.6" y="317.6954">10</text><text fill="#000000" font-family="sans-serif" font-size="9.1" lengthAdjust="spacing" textLength="58.8" x="88.2" y="317.6954">selects skill(s)</text><polygon fill="#181818" points="459.9,340.483,466.9,343.283,459.9,346.083,462.7,343.283" style="stroke:#181818;stroke-width:0.6999999999999998;"/><line style="stroke:#181818;stroke-width:0.6999999999999998;" x1="336" x2="464.1" y1="343.283" y2="343.283"/><text fill="#000000" font-family="sans-serif" font-size="9.1" font-weight="bold" lengthAdjust="spacing" textLength="9.8" x="340.9" y="339.5991">11</text><text fill="#000000" font-family="sans-serif" font-size="9.1" lengthAdjust="spacing" textLength="74.2" x="353.5" y="339.5991">getSkill(skillname)</text><polygon fill="#181818" points="624.4,362.3867,631.4,365.1867,624.4,367.9867,627.2,365.1867" style="stroke:#181818;stroke-width:0.6999999999999998;"/><line style="stroke:#181818;stroke-width:0.6999999999999998;" x1="475.3" x2="628.6" y1="365.1867" y2="365.1867"/><text fill="#000000" font-family="sans-serif" font-size="9.1" font-weight="bold" lengthAdjust="spacing" textLength="9.8" x="480.2" y="361.5028">12</text><text fill="#000000" font-family="sans-serif" font-size="9.1" lengthAdjust="spacing" textLength="74.2" x="492.8" y="361.5028">getSkill(skillname)</text><rect fill="none" height="30.2764" style="stroke:#000000;stroke-width:1.0499999999999998;" width="72.8" x="596.4" y="370.7867"/><path d="M596.4,370.7867 L639.8,370.7867 L639.8,377.0867 L632.8,384.0867 L596.4,384.0867 L596.4,370.7867 " fill="#EEEEEE" style="stroke:#000000;stroke-width:1.3999999999999997;"/><text fill="#000000" font-family="sans-serif" font-size="9.1" font-weight="bold" lengthAdjust="spacing" textLength="11.9" x="605.5" y="382.0065">ref</text><text fill="#000000" font-family="sans-serif" font-size="8.4" lengthAdjust="spacing" textLength="42" x="611.8" y="395.9512">Get Skill(s)</text><polygon fill="#181818" points="483,418.0668,476,420.8668,483,423.6668,480.2,420.8668" style="stroke:#181818;stroke-width:0.6999999999999998;"/><line style="stroke:#181818;stroke-width:0.6999999999999998;" x1="478.8" x2="632.1" y1="420.8668" y2="420.8668"/><text fill="#000000" font-family="sans-serif" font-size="9.1" font-weight="bold" lengthAdjust="spacing" textLength="9.8" x="487.2" y="417.1829">13</text><text fill="#000000" font-family="sans-serif" font-size="9.1" lengthAdjust="spacing" textLength="21" x="499.8" y="417.1829">skills</text><polygon fill="#181818" points="343.7,439.9705,336.7,442.7705,343.7,445.5705,340.9,442.7705" style="stroke:#181818;stroke-width:0.6999999999999998;"/><line style="stroke:#181818;stroke-width:0.6999999999999998;" x1="339.5" x2="471.1" y1="442.7705" y2="442.7705"/><text fill="#000000" font-family="sans-serif" font-size="9.1" font-weight="bold" lengthAdjust="spacing" textLength="9.8" x="347.9" y="439.0866">14</text><text fill="#000000" font-family="sans-serif" font-size="9.1" lengthAdjust="spacing" textLength="21" x="360.5" y="439.0866">skills</text><line style="stroke:#181818;stroke-width:0.6999999999999998;" x1="471.8" x2="504.7" y1="461.1742" y2="461.1742"/><line style="stroke:#181818;stroke-width:0.6999999999999998;" x1="504.7" x2="504.7" y1="461.1742" y2="470.2742"/><line style="stroke:#181818;stroke-width:0.6999999999999998;" x1="476" x2="504.7" y1="470.2742" y2="470.2742"/><polygon fill="#181818" points="483,467.4742,476,470.2742,483,473.0742,480.2,470.2742" style="stroke:#181818;stroke-width:0.6999999999999998;"/><text fill="#000000" font-family="sans-serif" font-size="9.1" font-weight="bold" lengthAdjust="spacing" textLength="9.8" x="480.2" y="457.4903">15</text><text fill="#000000" font-family="sans-serif" font-size="9.1" lengthAdjust="spacing" textLength="112.7" x="492.8" y="457.4903">getEmployeeFromSession()</text><rect fill="none" height="41.449" style="stroke:#000000;stroke-width:1.0499999999999998;" width="107.1" x="418.25" y="479.3742"/><path d="M418.25,479.3742 L461.65,479.3742 L461.65,485.6742 L454.65,492.6742 L418.25,492.6742 L418.25,479.3742 " fill="#EEEEEE" style="stroke:#000000;stroke-width:1.3999999999999997;"/><text fill="#000000" font-family="sans-serif" font-size="9.1" font-weight="bold" lengthAdjust="spacing" textLength="11.9" x="427.35" y="490.594">ref</text><text fill="#000000" font-family="sans-serif" font-size="8.4" lengthAdjust="spacing" textLength="53.9" x="444.85" y="504.5387">Get Employee</text><text fill="#000000" font-family="sans-serif" font-size="8.4" lengthAdjust="spacing" textLength="2.1" x="470.75" y="515.7113">&#160;</text><line style="stroke:#181818;stroke-width:0.6999999999999998;" x1="475.3" x2="504.7" y1="540.627" y2="540.627"/><line style="stroke:#181818;stroke-width:0.6999999999999998;" x1="504.7" x2="504.7" y1="540.627" y2="549.727"/><line style="stroke:#181818;stroke-width:0.6999999999999998;" x1="476" x2="504.7" y1="549.727" y2="549.727"/><polygon fill="#181818" points="483,546.927,476,549.727,483,552.527,480.2,549.727" style="stroke:#181818;stroke-width:0.6999999999999998;"/><text fill="#000000" font-family="sans-serif" font-size="9.1" font-weight="bold" lengthAdjust="spacing" textLength="9.8" x="480.2" y="536.9431">16</text><text fill="#000000" font-family="sans-serif" font-size="9.1" lengthAdjust="spacing" textLength="39.2" x="492.8" y="536.9431">employee</text><polygon fill="#181818" points="620.9,568.8307,627.9,571.6307,620.9,574.4307,623.7,571.6307" style="stroke:#181818;stroke-width:0.6999999999999998;"/><line style="stroke:#181818;stroke-width:0.6999999999999998;" x1="475.3" x2="625.1" y1="571.6307" y2="571.6307"/><text fill="#000000" font-family="sans-serif" font-size="9.1" font-weight="bold" lengthAdjust="spacing" textLength="9.8" x="480.2" y="567.9468">17</text><text fill="#000000" font-family="sans-serif" font-size="9.1" lengthAdjust="spacing" textLength="128.1" x="492.8" y="567.9468">assignSkill(collaborators, skills)</text><rect fill="none" height="41.449" style="stroke:#000000;stroke-width:1.0499999999999998;" width="72.8" x="596.4" y="577.2307"/><path d="M596.4,577.2307 L639.8,577.2307 L639.8,583.5307 L632.8,590.5307 L596.4,590.5307 L596.4,577.2307 " fill="#EEEEEE" style="stroke:#000000;stroke-width:1.3999999999999997;"/><text fill="#000000" font-family="sans-serif" font-size="9.1" font-weight="bold" lengthAdjust="spacing" textLength="11.9" x="605.5" y="588.4505">ref</text><text fill="#000000" font-family="sans-serif" font-size="8.4" lengthAdjust="spacing" textLength="49.7" x="607.95" y="602.3951">Assign Skills</text><text fill="#000000" font-family="sans-serif" font-size="8.4" lengthAdjust="spacing" textLength="2.1" x="631.75" y="613.5678">&#160;</text><polygon fill="#181818" points="483,635.6834,476,638.4834,483,641.2834,480.2,638.4834" style="stroke:#181818;stroke-width:0.6999999999999998;"/><line style="stroke:#181818;stroke-width:0.6999999999999998;stroke-dasharray:2.0,2.0;" x1="478.8" x2="632.1" y1="638.4834" y2="638.4834"/><text fill="#000000" font-family="sans-serif" font-size="9.1" font-weight="bold" lengthAdjust="spacing" textLength="9.8" x="487.2" y="634.7995">18</text><text fill="#000000" font-family="sans-serif" font-size="9.1" lengthAdjust="spacing" textLength="81.2" x="499.8" y="634.7995">changedcollaborator</text><polygon fill="#181818" points="343.7,657.5871,336.7,660.3871,343.7,663.1871,340.9,660.3871" style="stroke:#181818;stroke-width:0.6999999999999998;"/><line style="stroke:#181818;stroke-width:0.6999999999999998;stroke-dasharray:2.0,2.0;" x1="339.5" x2="471.1" y1="660.3871" y2="660.3871"/><text fill="#000000" font-family="sans-serif" font-size="9.1" font-weight="bold" lengthAdjust="spacing" textLength="9.8" x="347.9" y="656.7032">19</text><text fill="#000000" font-family="sans-serif" font-size="9.1" lengthAdjust="spacing" textLength="81.2" x="360.5" y="656.7032">changedcollaborator</text><polygon fill="#181818" points="74.9,679.4908,67.9,682.2908,74.9,685.0908,72.1,682.2908" style="stroke:#181818;stroke-width:0.6999999999999998;"/><line style="stroke:#181818;stroke-width:0.6999999999999998;stroke-dasharray:2.0,2.0;" x1="70.7" x2="331.8" y1="682.2908" y2="682.2908"/><text fill="#000000" font-family="sans-serif" font-size="9.1" font-weight="bold" lengthAdjust="spacing" textLength="9.8" x="79.1" y="678.6069">20</text><text fill="#000000" font-family="sans-serif" font-size="9.1" lengthAdjust="spacing" textLength="110.6" x="91.7" y="678.6069">displays operation success</text><!--SRC=[hLN1Rjim3BthAuXUrXJR3_Wme4ZNBi2A0ibwsqMn6KU8B1gIt2xx-b5oOikpZQJ0T4XiYU_naK-ItK6PMbfPGKM6yhsb2i7R1eNhLcgP7sI96t_K21PpBqsfqm2tbmMzArF2Jcg7GiZ6ascgBLeXFkrLWR0ZyblwBMJkoSBDzwQI1jRegB4vEdYMXZFO6v0ExX-U1VDwbQjQ6WytsRrpgZIRWzBwTHLZNbVp8KiotfBM9xhbp_MFOJ3PKXhrHtf5vfV9NfBNY7XPFuaWLBr9Zr6E01xy05- -Sch8EEhWm1F_XxGWmONCSGPopYstP2LNsY8xBfOT9y9W7cOBwkxkc36to17zSeU9-WSeXWKj6VUTtXrevJpGRf3NWJH5fzAXPjU0308tloABaQ_0aR2qnXRb1hotRd5DHOmkqIzJuEe1sXsn43qYnZA6EtujnE8Ew0rjTEay-OGUbXComq1JzEYGgDSuw9YOq1NxC8mwXoJDkzgXk4d-fpMHy4EUR5f4-3MomiMb_JPoQ4HmsPbDglA29MsBPhquBS-QqAsaoBxwRrMjwOZuoDVS1ldiahbT330pRHZL69TXOeI2psd6UAuyS8pc_v6A7S5aGToox7JrjBqTRD7FfoxD51PljzcwKk_IqTwlhPLkigxnP7GsEMrx_cvWCRWUq_34p976jlAu2pv4DBAfFvqP5ChLMXuTK8qsNl_Wcfm_Hsxg32QluPFm5m00]--></g></svg>