<?xml version="1.0" encoding="us-ascii" standalone="no"?><svg xmlns="http://www.w3.org/2000/svg" xmlns:xlink="http://www.w3.org/1999/xlink" contentStyleType="text/css" height="137.6px" preserveAspectRatio="none" style="width:237px;height:137px;background:#FFFFFF;" version="1.1" viewBox="0 0 237 137" width="237.9px" zoomAndPan="magnify"><defs/><g><!--class ApplicationSession--><g id="elem_ApplicationSession"><rect codeLine="11" fill="#F1F1F1" height="8.5242" id="ApplicationSession" rx="0.25" ry="0.25" style="stroke:#181818;stroke-width:0.05000000000000001;" width="15.1" x="86.35" y="25.7763"/><ellipse cx="87.85" cy="27.3763" fill="#ADD1B2" rx="1.1" ry="1.1" style="stroke:#181818;stroke-width:0.10000000000000002;"/><path d="M88.1266,26.9638 Q88.1422,26.9419 88.1609,26.931 Q88.1797,26.92 88.2016,26.92 Q88.2391,26.92 88.2625,26.9466 Q88.2859,26.9716 88.2859,27.0325 L88.2859,27.1778 Q88.2859,27.2388 88.2625,27.2653 Q88.2391,27.2919 88.2016,27.2919 Q88.1672,27.2919 88.1469,27.2716 Q88.1266,27.2528 88.1156,27.2013 Q88.1109,27.1653 88.0922,27.1466 Q88.0594,27.1091 87.9984,27.0872 Q87.9375,27.0653 87.875,27.0653 Q87.7984,27.0653 87.7344,27.0981 Q87.6719,27.131 87.6219,27.206 Q87.5734,27.281 87.5734,27.3841 L87.5734,27.4935 Q87.5734,27.6169 87.6625,27.6997 Q87.7516,27.781 87.9109,27.781 Q88.0047,27.781 88.0703,27.756 Q88.1094,27.7403 88.1516,27.6966 Q88.1781,27.67 88.1922,27.6622 Q88.2078,27.6544 88.2281,27.6544 Q88.2609,27.6544 88.2859,27.681 Q88.3125,27.706 88.3125,27.7403 Q88.3125,27.7747 88.2781,27.8153 Q88.2281,27.8731 88.1484,27.906 Q88.0406,27.9513 87.9109,27.9513 Q87.7594,27.9513 87.6391,27.8888 Q87.5406,27.8388 87.4719,27.7325 Q87.4031,27.6247 87.4031,27.4966 L87.4031,27.381 Q87.4031,27.2481 87.4641,27.1341 Q87.5266,27.0185 87.6359,26.9575 Q87.7453,26.895 87.8688,26.895 Q87.9422,26.895 88.0063,26.9122 Q88.0719,26.9278 88.1266,26.9638 Z " fill="#000000"/><text fill="#000000" font-family="sans-serif" font-size="1.4" lengthAdjust="spacing" textLength="11.9" x="89.25" y="27.956">ApplicationSession</text><line style="stroke:#181818;stroke-width:0.05000000000000001;" x1="86.45" x2="101.35" y1="28.9763" y2="28.9763"/><line style="stroke:#181818;stroke-width:0.05000000000000001;" x1="86.45" x2="101.35" y1="29.7763" y2="29.7763"/><text fill="#000000" font-family="sans-serif" font-size="1.4" lengthAdjust="spacing" textLength="12.8" x="86.95" y="31.687">+static getInstance()</text><text fill="#000000" font-family="sans-serif" font-size="1.4" lengthAdjust="spacing" textLength="13.6" x="86.95" y="33.5491">+getCurrentSession()</text></g><!--class UserSession--><g id="elem_UserSession"><rect codeLine="17" fill="#F1F1F1" height="6.6621" id="UserSession" rx="0.25" ry="0.25" style="stroke:#181818;stroke-width:0.05000000000000001;" width="11.3" x="79.25" y="48.6763"/><ellipse cx="80.84" cy="50.2763" fill="#ADD1B2" rx="1.1" ry="1.1" style="stroke:#181818;stroke-width:0.10000000000000002;"/><path d="M81.1166,49.8638 Q81.1322,49.8419 81.1509,49.831 Q81.1697,49.82 81.1916,49.82 Q81.2291,49.82 81.2525,49.8466 Q81.2759,49.8716 81.2759,49.9325 L81.2759,50.0778 Q81.2759,50.1388 81.2525,50.1653 Q81.2291,50.1919 81.1916,50.1919 Q81.1572,50.1919 81.1369,50.1716 Q81.1166,50.1528 81.1056,50.1013 Q81.1009,50.0653 81.0822,50.0466 Q81.0494,50.0091 80.9884,49.9872 Q80.9275,49.9653 80.865,49.9653 Q80.7884,49.9653 80.7244,49.9981 Q80.6619,50.031 80.6119,50.106 Q80.5634,50.181 80.5634,50.2841 L80.5634,50.3935 Q80.5634,50.5169 80.6525,50.5997 Q80.7416,50.681 80.9009,50.681 Q80.9947,50.681 81.0603,50.656 Q81.0994,50.6403 81.1416,50.5966 Q81.1681,50.57 81.1822,50.5622 Q81.1978,50.5544 81.2181,50.5544 Q81.2509,50.5544 81.2759,50.581 Q81.3025,50.606 81.3025,50.6403 Q81.3025,50.6747 81.2681,50.7153 Q81.2181,50.7731 81.1384,50.806 Q81.0306,50.8513 80.9009,50.8513 Q80.7494,50.8513 80.6291,50.7888 Q80.5306,50.7388 80.4619,50.6325 Q80.3931,50.5247 80.3931,50.3966 L80.3931,50.281 Q80.3931,50.1481 80.4541,50.0341 Q80.5166,49.9185 80.6259,49.8575 Q80.7353,49.795 80.8588,49.795 Q80.9322,49.795 80.9963,49.8122 Q81.0619,49.8278 81.1166,49.8638 Z " fill="#000000"/><text fill="#000000" font-family="sans-serif" font-size="1.4" lengthAdjust="spacing" textLength="7.9" x="82.26" y="50.856">UserSession</text><line style="stroke:#181818;stroke-width:0.05000000000000001;" x1="79.35" x2="90.45" y1="51.8763" y2="51.8763"/><line style="stroke:#181818;stroke-width:0.05000000000000001;" x1="79.35" x2="90.45" y1="52.6763" y2="52.6763"/><text fill="#000000" font-family="sans-serif" font-size="1.4" lengthAdjust="spacing" textLength="10.1" x="79.85" y="54.587">+getUserEmail()</text></g><!--class Collaborator--><g id="elem_Collaborator"><rect codeLine="22" fill="#F1F1F1" height="19.6969" id="Collaborator" rx="0.25" ry="0.25" style="stroke:#181818;stroke-width:0.05000000000000001;" width="15.7" x="122.35" y="117.2763"/><ellipse cx="125.965" cy="118.8763" fill="#ADD1B2" rx="1.1" ry="1.1" style="stroke:#181818;stroke-width:0.10000000000000002;"/><path d="M126.2416,118.4638 Q126.2572,118.4419 126.2759,118.431 Q126.2947,118.42 126.3166,118.42 Q126.3541,118.42 126.3775,118.4466 Q126.4009,118.4716 126.4009,118.5325 L126.4009,118.6778 Q126.4009,118.7388 126.3775,118.7653 Q126.3541,118.7919 126.3166,118.7919 Q126.2822,118.7919 126.2619,118.7716 Q126.2416,118.7528 126.2306,118.7013 Q126.2259,118.6653 126.2072,118.6466 Q126.1744,118.6091 126.1134,118.5872 Q126.0525,118.5653 125.99,118.5653 Q125.9134,118.5653 125.8494,118.5981 Q125.7869,118.631 125.7369,118.706 Q125.6884,118.781 125.6884,118.8841 L125.6884,118.9935 Q125.6884,119.1169 125.7775,119.1997 Q125.8666,119.281 126.0259,119.281 Q126.1197,119.281 126.1853,119.256 Q126.2244,119.2403 126.2666,119.1966 Q126.2931,119.17 126.3072,119.1622 Q126.3228,119.1544 126.3431,119.1544 Q126.3759,119.1544 126.4009,119.181 Q126.4275,119.206 126.4275,119.2403 Q126.4275,119.2747 126.3931,119.3153 Q126.3431,119.3731 126.2634,119.406 Q126.1556,119.4513 126.0259,119.4513 Q125.8744,119.4513 125.7541,119.3888 Q125.6556,119.3388 125.5869,119.2325 Q125.5181,119.1247 125.5181,118.9966 L125.5181,118.881 Q125.5181,118.7481 125.5791,118.6341 Q125.6416,118.5185 125.7509,118.4575 Q125.8603,118.395 125.9838,118.395 Q126.0572,118.395 126.1213,118.4122 Q126.1869,118.4278 126.2416,118.4638 Z " fill="#000000"/><text fill="#000000" font-family="sans-serif" font-size="1.4" lengthAdjust="spacing" textLength="7.8" x="127.835" y="119.456">Collaborator</text><line style="stroke:#181818;stroke-width:0.05000000000000001;" x1="122.45" x2="137.95" y1="120.4763" y2="120.4763"/><text fill="#000000" font-family="sans-serif" font-size="1.4" lengthAdjust="spacing" textLength="8.5" x="122.95" y="122.387">-name: String</text><text fill="#000000" font-family="sans-serif" font-size="1.4" lengthAdjust="spacing" textLength="10.6" x="122.95" y="124.2491">-birthdate: String</text><text fill="#000000" font-family="sans-serif" font-size="1.4" lengthAdjust="spacing" textLength="14.5" x="122.95" y="126.1112">-admission date: String</text><text fill="#000000" font-family="sans-serif" font-size="1.4" lengthAdjust="spacing" textLength="10.1" x="122.95" y="127.9733">-address: String</text><text fill="#000000" font-family="sans-serif" font-size="1.4" lengthAdjust="spacing" textLength="12.2" x="122.95" y="129.8354">-mobile Contact: int</text><text fill="#000000" font-family="sans-serif" font-size="1.4" lengthAdjust="spacing" textLength="13.3" x="122.95" y="131.6976">-email contact: String</text><text fill="#000000" font-family="sans-serif" font-size="1.4" lengthAdjust="spacing" textLength="12.1" x="122.95" y="133.5597">-ID doc type: String</text><text fill="#000000" font-family="sans-serif" font-size="1.4" lengthAdjust="spacing" textLength="9.3" x="122.95" y="135.4218">-ID number: int</text><line style="stroke:#181818;stroke-width:0.05000000000000001;" x1="122.45" x2="137.95" y1="136.1731" y2="136.1731"/></g><!--class SkillAssigner--><g id="elem_SkillAssigner"><rect codeLine="33" fill="#F1F1F1" height="10.3863" id="SkillAssigner" rx="0.25" ry="0.25" style="stroke:#181818;stroke-width:0.05000000000000001;" width="27.5" x="104.35" y="84.3763"/><ellipse cx="113.675" cy="85.9763" fill="#ADD1B2" rx="1.1" ry="1.1" style="stroke:#181818;stroke-width:0.10000000000000002;"/><path d="M113.9516,85.5638 Q113.9672,85.5419 113.9859,85.531 Q114.0047,85.52 114.0266,85.52 Q114.0641,85.52 114.0875,85.5466 Q114.1109,85.5716 114.1109,85.6325 L114.1109,85.7778 Q114.1109,85.8388 114.0875,85.8653 Q114.0641,85.8919 114.0266,85.8919 Q113.9922,85.8919 113.9719,85.8716 Q113.9516,85.8528 113.9406,85.8013 Q113.9359,85.7653 113.9172,85.7466 Q113.8844,85.7091 113.8234,85.6872 Q113.7625,85.6653 113.7,85.6653 Q113.6234,85.6653 113.5594,85.6981 Q113.4969,85.731 113.4469,85.806 Q113.3984,85.881 113.3984,85.9841 L113.3984,86.0935 Q113.3984,86.2169 113.4875,86.2997 Q113.5766,86.381 113.7359,86.381 Q113.8297,86.381 113.8953,86.356 Q113.9344,86.3403 113.9766,86.2966 Q114.0031,86.27 114.0172,86.2622 Q114.0328,86.2544 114.0531,86.2544 Q114.0859,86.2544 114.1109,86.281 Q114.1375,86.306 114.1375,86.3403 Q114.1375,86.3747 114.1031,86.4153 Q114.0531,86.4731 113.9734,86.506 Q113.8656,86.5513 113.7359,86.5513 Q113.5844,86.5513 113.4641,86.4888 Q113.3656,86.4388 113.2969,86.3325 Q113.2281,86.2247 113.2281,86.0966 L113.2281,85.981 Q113.2281,85.8481 113.2891,85.7341 Q113.3516,85.6185 113.4609,85.5575 Q113.5703,85.495 113.6938,85.495 Q113.7672,85.495 113.8313,85.5122 Q113.8969,85.5278 113.9516,85.5638 Z " fill="#000000"/><text fill="#000000" font-family="sans-serif" font-size="1.4" lengthAdjust="spacing" textLength="8" x="115.725" y="86.556">SkillAssigner</text><line style="stroke:#181818;stroke-width:0.05000000000000001;" x1="104.45" x2="131.75" y1="87.5763" y2="87.5763"/><line style="stroke:#181818;stroke-width:0.05000000000000001;" x1="104.45" x2="131.75" y1="88.3763" y2="88.3763"/><text fill="#000000" font-family="sans-serif" font-size="1.4" lengthAdjust="spacing" textLength="26.3" x="104.95" y="90.287">+getCollaborator(ID number: int): boolean</text><text fill="#000000" font-family="sans-serif" font-size="1.4" lengthAdjust="spacing" textLength="20.2" x="104.95" y="92.1491">+getSkill(name: String): boolean</text><text fill="#000000" font-family="sans-serif" font-size="1.4" lengthAdjust="spacing" textLength="11.8" x="104.95" y="94.0112">+assignSkill(): void</text></g><!--class Skill--><g id="elem_Skill"><rect codeLine="39" fill="#F1F1F1" height="6.6621" id="Skill" rx="0.25" ry="0.25" style="stroke:#181818;stroke-width:0.05000000000000001;" width="9.7" x="125.35" y="102.6763"/><ellipse cx="128.65" cy="104.2763" fill="#ADD1B2" rx="1.1" ry="1.1" style="stroke:#181818;stroke-width:0.10000000000000002;"/><path d="M128.9266,103.8638 Q128.9422,103.8419 128.9609,103.831 Q128.9797,103.82 129.0016,103.82 Q129.0391,103.82 129.0625,103.8466 Q129.0859,103.8716 129.0859,103.9325 L129.0859,104.0778 Q129.0859,104.1388 129.0625,104.1653 Q129.0391,104.1919 129.0016,104.1919 Q128.9672,104.1919 128.9469,104.1716 Q128.9266,104.1528 128.9156,104.1013 Q128.9109,104.0653 128.8922,104.0466 Q128.8594,104.0091 128.7984,103.9872 Q128.7375,103.9653 128.675,103.9653 Q128.5984,103.9653 128.5344,103.9981 Q128.4719,104.031 128.4219,104.106 Q128.3734,104.181 128.3734,104.2841 L128.3734,104.3935 Q128.3734,104.5169 128.4625,104.5997 Q128.5516,104.681 128.7109,104.681 Q128.8047,104.681 128.8703,104.656 Q128.9094,104.6403 128.9516,104.5966 Q128.9781,104.57 128.9922,104.5622 Q129.0078,104.5544 129.0281,104.5544 Q129.0609,104.5544 129.0859,104.581 Q129.1125,104.606 129.1125,104.6403 Q129.1125,104.6747 129.0781,104.7153 Q129.0281,104.7731 128.9484,104.806 Q128.8406,104.8513 128.7109,104.8513 Q128.5594,104.8513 128.4391,104.7888 Q128.3406,104.7388 128.2719,104.6325 Q128.2031,104.5247 128.2031,104.3966 L128.2031,104.281 Q128.2031,104.1481 128.2641,104.0341 Q128.3266,103.9185 128.4359,103.8575 Q128.5453,103.795 128.6688,103.795 Q128.7422,103.795 128.8063,103.8122 Q128.8719,103.8278 128.9266,103.8638 Z " fill="#000000"/><text fill="#000000" font-family="sans-serif" font-size="1.4" lengthAdjust="spacing" textLength="2.5" x="130.45" y="104.856">Skill</text><line style="stroke:#181818;stroke-width:0.05000000000000001;" x1="125.45" x2="134.95" y1="105.8763" y2="105.8763"/><text fill="#000000" font-family="sans-serif" font-size="1.4" lengthAdjust="spacing" textLength="8.5" x="125.95" y="107.787">-name: String</text><line style="stroke:#181818;stroke-width:0.05000000000000001;" x1="125.45" x2="134.95" y1="108.5384" y2="108.5384"/></g><!--class HRManager--><g id="elem_HRManager"><rect codeLine="43" fill="#F1F1F1" height="6.6621" id="HRManager" rx="0.25" ry="0.25" style="stroke:#181818;stroke-width:0.05000000000000001;" width="20" x="88.1" y="69.7763"/><ellipse cx="93.925" cy="71.3763" fill="#ADD1B2" rx="1.1" ry="1.1" style="stroke:#181818;stroke-width:0.10000000000000002;"/><path d="M94.2016,70.9638 Q94.2172,70.9419 94.2359,70.931 Q94.2547,70.92 94.2766,70.92 Q94.3141,70.92 94.3375,70.9466 Q94.3609,70.9716 94.3609,71.0325 L94.3609,71.1778 Q94.3609,71.2388 94.3375,71.2653 Q94.3141,71.2919 94.2766,71.2919 Q94.2422,71.2919 94.2219,71.2716 Q94.2016,71.2528 94.1906,71.2013 Q94.1859,71.1653 94.1672,71.1466 Q94.1344,71.1091 94.0734,71.0872 Q94.0125,71.0653 93.95,71.0653 Q93.8734,71.0653 93.8094,71.0981 Q93.7469,71.131 93.6969,71.206 Q93.6484,71.281 93.6484,71.3841 L93.6484,71.4935 Q93.6484,71.6169 93.7375,71.6997 Q93.8266,71.781 93.9859,71.781 Q94.0797,71.781 94.1453,71.756 Q94.1844,71.7403 94.2266,71.6966 Q94.2531,71.67 94.2672,71.6622 Q94.2828,71.6544 94.3031,71.6544 Q94.3359,71.6544 94.3609,71.681 Q94.3875,71.706 94.3875,71.7403 Q94.3875,71.7747 94.3531,71.8153 Q94.3031,71.8731 94.2234,71.906 Q94.1156,71.9513 93.9859,71.9513 Q93.8344,71.9513 93.7141,71.8888 Q93.6156,71.8388 93.5469,71.7325 Q93.4781,71.6247 93.4781,71.4966 L93.4781,71.381 Q93.4781,71.2481 93.5391,71.1341 Q93.6016,71.0185 93.7109,70.9575 Q93.8203,70.895 93.9438,70.895 Q94.0172,70.895 94.0813,70.9122 Q94.1469,70.9278 94.2016,70.9638 Z " fill="#000000"/><text fill="#000000" font-family="sans-serif" font-size="1.4" lengthAdjust="spacing" textLength="7.5" x="95.975" y="71.956">HRManager</text><line style="stroke:#181818;stroke-width:0.05000000000000001;" x1="88.2" x2="108" y1="72.9763" y2="72.9763"/><line style="stroke:#181818;stroke-width:0.05000000000000001;" x1="88.2" x2="108" y1="73.7763" y2="73.7763"/><text fill="#000000" font-family="sans-serif" font-size="1.4" lengthAdjust="spacing" textLength="18.8" x="88.7" y="75.687">+manageCollaborators(): void</text></g><!--class CollaboratorRepository--><g id="elem_CollaboratorRepository"><rect codeLine="47" fill="#F1F1F1" height="8.5242" id="CollaboratorRepository" rx="0.25" ry="0.25" style="stroke:#181818;stroke-width:0.05000000000000001;" width="27.2" x="210" y="8.3763"/><ellipse cx="215.875" cy="9.9763" fill="#ADD1B2" rx="1.1" ry="1.1" style="stroke:#181818;stroke-width:0.10000000000000002;"/><path d="M216.1516,9.5638 Q216.1672,9.5419 216.1859,9.531 Q216.2047,9.52 216.2266,9.52 Q216.2641,9.52 216.2875,9.5466 Q216.3109,9.5716 216.3109,9.6325 L216.3109,9.7778 Q216.3109,9.8388 216.2875,9.8653 Q216.2641,9.8919 216.2266,9.8919 Q216.1922,9.8919 216.1719,9.8716 Q216.1516,9.8528 216.1406,9.8013 Q216.1359,9.7653 216.1172,9.7466 Q216.0844,9.7091 216.0234,9.6872 Q215.9625,9.6653 215.9,9.6653 Q215.8234,9.6653 215.7594,9.6981 Q215.6969,9.731 215.6469,9.806 Q215.5984,9.881 215.5984,9.9841 L215.5984,10.0935 Q215.5984,10.2169 215.6875,10.2997 Q215.7766,10.381 215.9359,10.381 Q216.0297,10.381 216.0953,10.356 Q216.1344,10.3403 216.1766,10.2966 Q216.2031,10.27 216.2172,10.2622 Q216.2328,10.2544 216.2531,10.2544 Q216.2859,10.2544 216.3109,10.281 Q216.3375,10.306 216.3375,10.3403 Q216.3375,10.3747 216.3031,10.4153 Q216.2531,10.4731 216.1734,10.506 Q216.0656,10.5513 215.9359,10.5513 Q215.7844,10.5513 215.6641,10.4888 Q215.5656,10.4388 215.4969,10.3325 Q215.4281,10.2247 215.4281,10.0966 L215.4281,9.981 Q215.4281,9.8481 215.4891,9.7341 Q215.5516,9.6185 215.6609,9.5575 Q215.7703,9.495 215.8938,9.495 Q215.9672,9.495 216.0313,9.5122 Q216.0969,9.5278 216.1516,9.5638 Z " fill="#000000"/><text fill="#000000" font-family="sans-serif" font-size="1.4" lengthAdjust="spacing" textLength="14.6" x="217.925" y="10.556">CollaboratorRepository</text><line style="stroke:#181818;stroke-width:0.05000000000000001;" x1="210.1" x2="237.1" y1="11.5763" y2="11.5763"/><line style="stroke:#181818;stroke-width:0.05000000000000001;" x1="210.1" x2="237.1" y1="12.3763" y2="12.3763"/><text fill="#000000" font-family="sans-serif" font-size="1.4" lengthAdjust="spacing" textLength="26" x="210.6" y="14.287">+boolean save(Collaborator collaborator)</text><text fill="#000000" font-family="sans-serif" font-size="1.4" lengthAdjust="spacing" textLength="23.2" x="210.6" y="16.1491">+Collaborator findByID(int IDnumber)</text></g><!--class Organization--><g id="elem_Organization"><rect codeLine="52" fill="#F1F1F1" height="19.6969" id="Organization" rx="0.25" ry="0.25" style="stroke:#181818;stroke-width:0.05000000000000001;" width="32.2" x="121.4" y="42.1763"/><ellipse cx="133.075" cy="43.7763" fill="#ADD1B2" rx="1.1" ry="1.1" style="stroke:#181818;stroke-width:0.10000000000000002;"/><path d="M133.3516,43.3638 Q133.3672,43.3419 133.3859,43.331 Q133.4047,43.32 133.4266,43.32 Q133.4641,43.32 133.4875,43.3466 Q133.5109,43.3716 133.5109,43.4325 L133.5109,43.5778 Q133.5109,43.6388 133.4875,43.6653 Q133.4641,43.6919 133.4266,43.6919 Q133.3922,43.6919 133.3719,43.6716 Q133.3516,43.6528 133.3406,43.6013 Q133.3359,43.5653 133.3172,43.5466 Q133.2844,43.5091 133.2234,43.4872 Q133.1625,43.4653 133.1,43.4653 Q133.0234,43.4653 132.9594,43.4981 Q132.8969,43.531 132.8469,43.606 Q132.7984,43.681 132.7984,43.7841 L132.7984,43.8935 Q132.7984,44.0169 132.8875,44.0997 Q132.9766,44.181 133.1359,44.181 Q133.2297,44.181 133.2953,44.156 Q133.3344,44.1403 133.3766,44.0966 Q133.4031,44.07 133.4172,44.0622 Q133.4328,44.0544 133.4531,44.0544 Q133.4859,44.0544 133.5109,44.081 Q133.5375,44.106 133.5375,44.1403 Q133.5375,44.1747 133.5031,44.2153 Q133.4531,44.2731 133.3734,44.306 Q133.2656,44.3513 133.1359,44.3513 Q132.9844,44.3513 132.8641,44.2888 Q132.7656,44.2388 132.6969,44.1325 Q132.6281,44.0247 132.6281,43.8966 L132.6281,43.781 Q132.6281,43.6481 132.6891,43.5341 Q132.7516,43.4185 132.8609,43.3575 Q132.9703,43.295 133.0938,43.295 Q133.1672,43.295 133.2313,43.3122 Q133.2969,43.3278 133.3516,43.3638 Z " fill="#000000"/><text fill="#000000" font-family="sans-serif" font-size="1.4" lengthAdjust="spacing" textLength="8" x="135.125" y="44.356">Organization</text><line style="stroke:#181818;stroke-width:0.05000000000000001;" x1="121.5" x2="153.5" y1="45.3763" y2="45.3763"/><text fill="#000000" font-family="sans-serif" font-size="1.4" lengthAdjust="spacing" textLength="8.1" x="122" y="47.287">-String name</text><text fill="#000000" font-family="sans-serif" font-size="1.4" lengthAdjust="spacing" textLength="11.4" x="122" y="49.1491">-String vatNumber</text><text fill="#000000" font-family="sans-serif" font-size="1.4" lengthAdjust="spacing" textLength="9.7" x="122" y="51.0112">-String address</text><text fill="#000000" font-family="sans-serif" font-size="1.4" lengthAdjust="spacing" textLength="8.6" x="122" y="52.8733">-String phone</text><text fill="#000000" font-family="sans-serif" font-size="1.4" lengthAdjust="spacing" textLength="7.9" x="122" y="54.7354">-String email</text><line style="stroke:#181818;stroke-width:0.05000000000000001;" x1="121.5" x2="153.5" y1="55.4868" y2="55.4868"/><text fill="#000000" font-family="sans-serif" font-size="1.4" lengthAdjust="spacing" textLength="30.1" x="122" y="57.3976">+assignSkill(Collaborator collaborator, Skill skill)</text><text fill="#000000" font-family="sans-serif" font-size="1.4" lengthAdjust="spacing" textLength="31" x="122" y="59.2597">+Collaborator findCollaboratorByID(int IDnumber)</text><text fill="#000000" font-family="sans-serif" font-size="1.4" lengthAdjust="spacing" textLength="22.3" x="122" y="61.1218">+Skill findSkillByName(String name)</text></g><!--class OrganizationRepository--><g id="elem_OrganizationRepository"><rect codeLine="63" fill="#F1F1F1" height="8.5242" id="OrganizationRepository" rx="0.25" ry="0.25" style="stroke:#181818;stroke-width:0.05000000000000001;" width="24.8" x="154" y="25.7763"/><ellipse cx="158.575" cy="27.3763" fill="#ADD1B2" rx="1.1" ry="1.1" style="stroke:#181818;stroke-width:0.10000000000000002;"/><path d="M158.8516,26.9638 Q158.8672,26.9419 158.8859,26.931 Q158.9047,26.92 158.9266,26.92 Q158.9641,26.92 158.9875,26.9466 Q159.0109,26.9716 159.0109,27.0325 L159.0109,27.1778 Q159.0109,27.2388 158.9875,27.2653 Q158.9641,27.2919 158.9266,27.2919 Q158.8922,27.2919 158.8719,27.2716 Q158.8516,27.2528 158.8406,27.2013 Q158.8359,27.1653 158.8172,27.1466 Q158.7844,27.1091 158.7234,27.0872 Q158.6625,27.0653 158.6,27.0653 Q158.5234,27.0653 158.4594,27.0981 Q158.3969,27.131 158.3469,27.206 Q158.2984,27.281 158.2984,27.3841 L158.2984,27.4935 Q158.2984,27.6169 158.3875,27.6997 Q158.4766,27.781 158.6359,27.781 Q158.7297,27.781 158.7953,27.756 Q158.8344,27.7403 158.8766,27.6966 Q158.9031,27.67 158.9172,27.6622 Q158.9328,27.6544 158.9531,27.6544 Q158.9859,27.6544 159.0109,27.681 Q159.0375,27.706 159.0375,27.7403 Q159.0375,27.7747 159.0031,27.8153 Q158.9531,27.8731 158.8734,27.906 Q158.7656,27.9513 158.6359,27.9513 Q158.4844,27.9513 158.3641,27.8888 Q158.2656,27.8388 158.1969,27.7325 Q158.1281,27.6247 158.1281,27.4966 L158.1281,27.381 Q158.1281,27.2481 158.1891,27.1341 Q158.2516,27.0185 158.3609,26.9575 Q158.4703,26.895 158.5938,26.895 Q158.6672,26.895 158.7313,26.9122 Q158.7969,26.9278 158.8516,26.9638 Z " fill="#000000"/><text fill="#000000" font-family="sans-serif" font-size="1.4" lengthAdjust="spacing" textLength="14.8" x="160.625" y="27.956">OrganizationRepository</text><line style="stroke:#181818;stroke-width:0.05000000000000001;" x1="154.1" x2="178.7" y1="28.9763" y2="28.9763"/><line style="stroke:#181818;stroke-width:0.05000000000000001;" x1="154.1" x2="178.7" y1="29.7763" y2="29.7763"/><text fill="#000000" font-family="sans-serif" font-size="1.4" lengthAdjust="spacing" textLength="16.9" x="154.6" y="31.687">+findByName(String name)</text><text fill="#000000" font-family="sans-serif" font-size="1.4" lengthAdjust="spacing" textLength="23.6" x="154.6" y="33.5491">+findByVatNumber(String vatNumber)</text></g><!--class Repositories--><g id="elem_Repositories"><rect codeLine="68" fill="#F1F1F1" height="14.1105" id="Repositories" rx="0.25" ry="0.25" style="stroke:#181818;stroke-width:0.05000000000000001;" width="35.8" x="162.8" y="5.5763"/><ellipse cx="176.325" cy="7.1763" fill="#ADD1B2" rx="1.1" ry="1.1" style="stroke:#181818;stroke-width:0.10000000000000002;"/><path d="M176.6016,6.7638 Q176.6172,6.7419 176.6359,6.731 Q176.6547,6.72 176.6766,6.72 Q176.7141,6.72 176.7375,6.7466 Q176.7609,6.7716 176.7609,6.8325 L176.7609,6.9778 Q176.7609,7.0388 176.7375,7.0653 Q176.7141,7.0919 176.6766,7.0919 Q176.6422,7.0919 176.6219,7.0716 Q176.6016,7.0528 176.5906,7.0013 Q176.5859,6.9653 176.5672,6.9466 Q176.5344,6.9091 176.4734,6.8872 Q176.4125,6.8653 176.35,6.8653 Q176.2734,6.8653 176.2094,6.8981 Q176.1469,6.931 176.0969,7.006 Q176.0484,7.081 176.0484,7.1841 L176.0484,7.2935 Q176.0484,7.4169 176.1375,7.4997 Q176.2266,7.581 176.3859,7.581 Q176.4797,7.581 176.5453,7.556 Q176.5844,7.5403 176.6266,7.4966 Q176.6531,7.47 176.6672,7.4622 Q176.6828,7.4544 176.7031,7.4544 Q176.7359,7.4544 176.7609,7.481 Q176.7875,7.506 176.7875,7.5403 Q176.7875,7.5747 176.7531,7.6153 Q176.7031,7.6731 176.6234,7.706 Q176.5156,7.7513 176.3859,7.7513 Q176.2344,7.7513 176.1141,7.6888 Q176.0156,7.6388 175.9469,7.5325 Q175.8781,7.4247 175.8781,7.2966 L175.8781,7.181 Q175.8781,7.0481 175.9391,6.9341 Q176.0016,6.8185 176.1109,6.7575 Q176.2203,6.695 176.3438,6.695 Q176.4172,6.695 176.4813,6.7122 Q176.5469,6.7278 176.6016,6.7638 Z " fill="#000000"/><text fill="#000000" font-family="sans-serif" font-size="1.4" lengthAdjust="spacing" textLength="7.9" x="178.375" y="7.756">Repositories</text><line style="stroke:#181818;stroke-width:0.05000000000000001;" x1="162.9" x2="198.5" y1="8.7763" y2="8.7763"/><line style="stroke:#181818;stroke-width:0.05000000000000001;" x1="162.9" x2="198.5" y1="9.5763" y2="9.5763"/><text fill="#000000" font-family="sans-serif" font-size="1.4" lengthAdjust="spacing" textLength="18.2" x="163.4" y="11.487">+getInstance() : Repositories</text><text fill="#000000" font-family="sans-serif" font-size="1.4" lengthAdjust="spacing" textLength="34.2" x="163.4" y="13.3491">+getCollaboratorRepository() : CollaboratorRepository</text><text fill="#000000" font-family="sans-serif" font-size="1.4" lengthAdjust="spacing" textLength="23.6" x="163.4" y="15.2112">+getSkillRepository() : SkillRepository</text><text fill="#000000" font-family="sans-serif" font-size="1.4" lengthAdjust="spacing" textLength="34.6" x="163.4" y="17.0733">+getOrganizationRepository() : OrganizationRepository</text><text fill="#000000" font-family="sans-serif" font-size="1.4" lengthAdjust="spacing" textLength="31" x="163.4" y="18.9354">+Collaborator findCollaboratorByID(int IDnumber)</text></g><!--class AssignSkillController--><g id="elem_AssignSkillController"><rect codeLine="76" fill="#F1F1F1" height="6.6621" id="AssignSkillController" rx="0.25" ry="0.25" style="stroke:#181818;stroke-width:0.05000000000000001;" width="55.4" x="57.6" y="9.2763"/><ellipse cx="78.425" cy="10.8763" fill="#ADD1B2" rx="1.1" ry="1.1" style="stroke:#181818;stroke-width:0.10000000000000002;"/><path d="M78.7016,10.4638 Q78.7172,10.4419 78.7359,10.431 Q78.7547,10.42 78.7766,10.42 Q78.8141,10.42 78.8375,10.4466 Q78.8609,10.4716 78.8609,10.5325 L78.8609,10.6778 Q78.8609,10.7388 78.8375,10.7653 Q78.8141,10.7919 78.7766,10.7919 Q78.7422,10.7919 78.7219,10.7716 Q78.7016,10.7528 78.6906,10.7013 Q78.6859,10.6653 78.6672,10.6466 Q78.6344,10.6091 78.5734,10.5872 Q78.5125,10.5653 78.45,10.5653 Q78.3734,10.5653 78.3094,10.5981 Q78.2469,10.631 78.1969,10.706 Q78.1484,10.781 78.1484,10.8841 L78.1484,10.9935 Q78.1484,11.1169 78.2375,11.1997 Q78.3266,11.281 78.4859,11.281 Q78.5797,11.281 78.6453,11.256 Q78.6844,11.2403 78.7266,11.1966 Q78.7531,11.17 78.7672,11.1622 Q78.7828,11.1544 78.8031,11.1544 Q78.8359,11.1544 78.8609,11.181 Q78.8875,11.206 78.8875,11.2403 Q78.8875,11.2747 78.8531,11.3153 Q78.8031,11.3731 78.7234,11.406 Q78.6156,11.4513 78.4859,11.4513 Q78.3344,11.4513 78.2141,11.3888 Q78.1156,11.3388 78.0469,11.2325 Q77.9781,11.1247 77.9781,10.9966 L77.9781,10.881 Q77.9781,10.7481 78.0391,10.6341 Q78.1016,10.5185 78.2109,10.4575 Q78.3203,10.395 78.4438,10.395 Q78.5172,10.395 78.5813,10.4122 Q78.6469,10.4278 78.7016,10.4638 Z " fill="#000000"/><text fill="#000000" font-family="sans-serif" font-size="1.4" lengthAdjust="spacing" textLength="12.9" x="80.475" y="11.456">AssignSkillController</text><line style="stroke:#181818;stroke-width:0.05000000000000001;" x1="57.7" x2="112.9" y1="12.4763" y2="12.4763"/><line style="stroke:#181818;stroke-width:0.05000000000000001;" x1="57.7" x2="112.9" y1="13.2763" y2="13.2763"/><text fill="#000000" font-family="sans-serif" font-size="1.4" lengthAdjust="spacing" textLength="54.2" x="58.2" y="15.187">+AssignSkillController(organizationRepository, skillRepository, collaboratorRepository)</text></g><!--class AssignSkillUI--><g id="elem_AssignSkillUI"><rect fill="#F1F1F1" height="4.8" id="AssignSkillUI" rx="0.25" ry="0.25" style="stroke:#181818;stroke-width:0.05000000000000001;" width="11.1" x="42.95" y="10.2263"/><ellipse cx="44.45" cy="11.8263" fill="#ADD1B2" rx="1.1" ry="1.1" style="stroke:#181818;stroke-width:0.10000000000000002;"/><path d="M44.7266,11.4138 Q44.7422,11.3919 44.7609,11.381 Q44.7797,11.37 44.8016,11.37 Q44.8391,11.37 44.8625,11.3966 Q44.8859,11.4216 44.8859,11.4825 L44.8859,11.6278 Q44.8859,11.6888 44.8625,11.7153 Q44.8391,11.7419 44.8016,11.7419 Q44.7672,11.7419 44.7469,11.7216 Q44.7266,11.7028 44.7156,11.6513 Q44.7109,11.6153 44.6922,11.5966 Q44.6594,11.5591 44.5984,11.5372 Q44.5375,11.5153 44.475,11.5153 Q44.3984,11.5153 44.3344,11.5481 Q44.2719,11.581 44.2219,11.656 Q44.1734,11.731 44.1734,11.8341 L44.1734,11.9435 Q44.1734,12.0669 44.2625,12.1497 Q44.3516,12.231 44.5109,12.231 Q44.6047,12.231 44.6703,12.206 Q44.7094,12.1903 44.7516,12.1466 Q44.7781,12.12 44.7922,12.1122 Q44.8078,12.1044 44.8281,12.1044 Q44.8609,12.1044 44.8859,12.131 Q44.9125,12.156 44.9125,12.1903 Q44.9125,12.2247 44.8781,12.2653 Q44.8281,12.3231 44.7484,12.356 Q44.6406,12.4013 44.5109,12.4013 Q44.3594,12.4013 44.2391,12.3388 Q44.1406,12.2888 44.0719,12.1825 Q44.0031,12.0747 44.0031,11.9466 L44.0031,11.831 Q44.0031,11.6981 44.0641,11.5841 Q44.1266,11.4685 44.2359,11.4075 Q44.3453,11.345 44.4688,11.345 Q44.5422,11.345 44.6063,11.3622 Q44.6719,11.3778 44.7266,11.4138 Z " fill="#000000"/><text fill="#000000" font-family="sans-serif" font-size="1.4" lengthAdjust="spacing" textLength="7.9" x="45.85" y="12.406">AssignSkillUI</text><line style="stroke:#181818;stroke-width:0.05000000000000001;" x1="43.05" x2="53.95" y1="13.4263" y2="13.4263"/><line style="stroke:#181818;stroke-width:0.05000000000000001;" x1="43.05" x2="53.95" y1="14.2263" y2="14.2263"/></g><g id="elem_GMN31"><path d="M116.5,10.3763 L116.5,12.2263 L113.007,12.6263 L116.5,13.0263 L116.5,14.8345 A0,0 0 0 0 116.5,14.8345 L159.3,14.8345 A0,0 0 0 0 159.3,14.8345 L159.3,11.3763 L158.3,10.3763 L116.5,10.3763 A0,0 0 0 0 116.5,10.3763 " fill="#FEFFDD" style="stroke:#181818;stroke-width:0.05000000000000001;"/><path d="M158.3,10.3763 L158.3,11.3763 L159.3,11.3763 L158.3,10.3763 " fill="#FEFFDD" style="stroke:#181818;stroke-width:0.05000000000000001;"/><text fill="#000000" font-family="sans-serif" font-size="1.3" lengthAdjust="spacing" textLength="40.7" x="117.1" y="12.2791">- Collaborator ID and Skill name are obtained from the HRM's selection</text><text fill="#000000" font-family="sans-serif" font-size="1.3" lengthAdjust="spacing" textLength="21.7" x="117.1" y="14.0082">- Updates the Collaborator Repository</text></g><g id="elem_GMN34"><path d="M111.65,71.7763 L111.65,72.7263 L108.118,73.1263 L111.65,73.5263 L111.65,74.5054 A0,0 0 0 0 111.65,74.5054 L132.15,74.5054 A0,0 0 0 0 132.15,74.5054 L132.15,72.7763 L131.15,71.7763 L111.65,71.7763 A0,0 0 0 0 111.65,71.7763 " fill="#FEFFDD" style="stroke:#181818;stroke-width:0.05000000000000001;"/><path d="M131.15,71.7763 L131.15,72.7763 L132.15,72.7763 L131.15,71.7763 " fill="#FEFFDD" style="stroke:#181818;stroke-width:0.05000000000000001;"/><text fill="#000000" font-family="sans-serif" font-size="1.3" lengthAdjust="spacing" textLength="18.4" x="112.25" y="73.6791">- HRM initiates skill assignment</text></g><g id="elem_GMN37"><path d="M0.6,10.3763 L0.6,14.8345 A0,0 0 0 0 0.6,14.8345 L39.4,14.8345 A0,0 0 0 0 39.4,14.8345 L39.4,13.0263 L42.939,12.6263 L39.4,12.2263 L39.4,11.3763 L38.4,10.3763 L0.6,10.3763 A0,0 0 0 0 0.6,10.3763 " fill="#FEFFDD" style="stroke:#181818;stroke-width:0.05000000000000001;"/><path d="M38.4,10.3763 L38.4,11.3763 L39.4,11.3763 L38.4,10.3763 " fill="#FEFFDD" style="stroke:#181818;stroke-width:0.05000000000000001;"/><text fill="#000000" font-family="sans-serif" font-size="1.3" lengthAdjust="spacing" textLength="36.7" x="1.2" y="12.2791">- UI for HRM to select collaborator(s) and skill(s) to be assigned</text><text fill="#000000" font-family="sans-serif" font-size="1.3" lengthAdjust="spacing" textLength="24.6" x="1.2" y="14.0082">- Communicates with AssignSkillController</text></g><g id="elem_GMN40"><path d="M95.95,49.7763 L95.95,54.2345 A0,0 0 0 0 95.95,54.2345 L117.85,54.2345 A0,0 0 0 0 117.85,54.2345 L117.85,52.4263 L121.399,52.0263 L117.85,51.6263 L117.85,50.7763 L116.85,49.7763 L95.95,49.7763 A0,0 0 0 0 95.95,49.7763 " fill="#FEFFDD" style="stroke:#181818;stroke-width:0.05000000000000001;"/><path d="M116.85,49.7763 L116.85,50.7763 L117.85,50.7763 L116.85,49.7763 " fill="#FEFFDD" style="stroke:#181818;stroke-width:0.05000000000000001;"/><text fill="#000000" font-family="sans-serif" font-size="1.3" lengthAdjust="spacing" textLength="19.8" x="96.55" y="51.6791">- Manages skills and collaborators</text><text fill="#000000" font-family="sans-serif" font-size="1.3" lengthAdjust="spacing" textLength="18.1" x="96.55" y="53.4082">- Handles organizational details</text></g><!--link SkillAssigner to Skill--><g id="link_SkillAssigner_Skill"><path codeLine="80" d="M121.929,94.8183 C123.839,97.3843 126.094,100.4113 127.766,102.6573 " fill="none" id="SkillAssigner-Skill" style="stroke:#181818;stroke-width:0.10000000000000002;"/><text fill="#000000" font-family="sans-serif" font-size="1.3" lengthAdjust="spacing" textLength="4.5" x="125.3" y="99.2791">assigns</text></g><!--link Skill to Collaborator--><g id="link_Skill_Collaborator"><path codeLine="81" d="M130.2,109.3923 C130.2,111.5163 130.2,113.8073 130.2,116.6343 " fill="none" id="Skill-to-Collaborator" style="stroke:#181818;stroke-width:0.10000000000000002;"/><polygon fill="#181818" points="130.2,117.2343,130.6,116.3343,130.2,116.7343,129.8,116.3343,130.2,117.2343" style="stroke:#181818;stroke-width:0.10000000000000002;"/><text fill="#000000" font-family="sans-serif" font-size="1.3" lengthAdjust="spacing" textLength="1.1" x="130.3" y="113.8791">to</text></g><!--link HRManager to SkillAssigner--><g id="link_HRManager_SkillAssigner"><path codeLine="82" d="M102.147,76.5143 C104.921,78.7683 108.1893,81.4239 111.3473,83.9899 " fill="none" id="HRManager-to-SkillAssigner" style="stroke:#181818;stroke-width:0.10000000000000002;"/><polygon fill="#181818" points="111.813,84.3683,111.3668,83.4903,111.425,84.053,110.8623,84.1112,111.813,84.3683" style="stroke:#181818;stroke-width:0.10000000000000002;"/><text fill="#000000" font-family="sans-serif" font-size="1.3" lengthAdjust="spacing" textLength="3" x="108.2" y="80.9791">Uses</text></g><!--link Repositories to Repositories--><g id="link_Repositories_Repositories"><path codeLine="85" d="M198.613,11.0203 C200.724,11.3143 202.1,11.8503 202.1,12.6263 C202.1,13.4023 201.3183,13.8555 199.2073,14.1495 " fill="none" id="Repositories-to-Repositories" style="stroke:#181818;stroke-width:0.10000000000000002;"/><polygon fill="#181818" points="198.613,14.2323,199.5596,14.5043,199.1082,14.1633,199.4492,13.7119,198.613,14.2323" style="stroke:#181818;stroke-width:0.10000000000000002;"/><text fill="#000000" font-family="sans-serif" font-size="1.3" lengthAdjust="spacing" textLength="4.9" x="202.7" y="13.1791">instance</text></g><!--link ApplicationSession to ApplicationSession--><g id="link_ApplicationSession_ApplicationSession"><path codeLine="86" d="M101.466,28.6893 C103.45,28.7683 104.95,29.2143 104.95,30.0263 C104.95,30.8383 104.0495,31.2604 102.0655,31.3394 " fill="none" id="ApplicationSession-to-ApplicationSession" style="stroke:#181818;stroke-width:0.10000000000000002;"/><polygon fill="#181818" points="101.466,31.3633,102.3812,31.7271,101.9656,31.3434,102.3494,30.9278,101.466,31.3633" style="stroke:#181818;stroke-width:0.10000000000000002;"/><text fill="#000000" font-family="sans-serif" font-size="1.3" lengthAdjust="spacing" textLength="4.9" x="105.55" y="30.5791">instance</text></g><!--link AssignSkillUI to AssignSkillController--><g id="link_AssignSkillUI_AssignSkillController"><path codeLine="87" d="M54.059,12.6263 C55.264,12.6263 55.898,12.6263 56.974,12.6263 " fill="none" id="AssignSkillUI-to-AssignSkillController" style="stroke:#181818;stroke-width:0.10000000000000002;stroke-dasharray:7.0,7.0;"/><polygon fill="#181818" points="57.574,12.6263,56.674,12.2263,57.074,12.6263,56.674,13.0263,57.574,12.6263" style="stroke:#181818;stroke-width:0.10000000000000002;"/></g><!--link AssignSkillController to Repositories--><g id="link_AssignSkillController_Repositories"><path codeLine="89" d="M99.359,9.2663 C106.957,7.4503 114.8,5.5763 114.8,5.5763 C114.8,5.5763 134.45,2.4763 134.45,2.4763 C134.45,2.4763 141.35,2.4763 141.35,2.4763 C141.35,2.4763 161.1,5.5763 161.1,5.5763 C161.1,5.5763 161.1683,5.6014 162.2063,5.9744 " fill="none" id="AssignSkillController-to-Repositories" style="stroke:#181818;stroke-width:0.10000000000000002;stroke-dasharray:7.0,7.0;"/><polygon fill="#181818" points="162.771,6.1773,162.0593,5.4965,162.3005,6.0082,161.7888,6.2493,162.771,6.1773" style="stroke:#181818;stroke-width:0.10000000000000002;"/><text fill="#000000" font-family="sans-serif" font-size="1.3" lengthAdjust="spacing" textLength="6.7" x="134.55" y="2.1791">repositories</text></g><!--link Repositories to OrganizationRepository--><g id="link_Repositories_OrganizationRepository"><path codeLine="91" d="M174.884,19.7223 C173.182,21.7683 171.7606,23.4789 170.2546,25.2899 " fill="none" id="Repositories-to-OrganizationRepository" style="stroke:#181818;stroke-width:0.10000000000000002;"/><polygon fill="#181818" points="169.871,25.7513,170.754,25.315,170.1907,25.3668,170.1389,24.8035,169.871,25.7513" style="stroke:#181818;stroke-width:0.10000000000000002;"/><text fill="#000000" font-family="sans-serif" font-size="1.3" lengthAdjust="spacing" textLength="0.7" x="169.6684" y="24.6377">1</text></g><!--link OrganizationRepository to Organization--><g id="link_OrganizationRepository_Organization"><path codeLine="93" d="M160.896,34.2783 C157.924,36.5203 154.598,39.029 150.924,41.8 " fill="none" id="OrganizationRepository-to-Organization" style="stroke:#181818;stroke-width:0.10000000000000002;"/><polygon fill="#181818" points="150.445,42.1613,151.4044,41.9387,150.8442,41.8602,150.9227,41.3,150.445,42.1613" style="stroke:#181818;stroke-width:0.10000000000000002;"/><text fill="#000000" font-family="sans-serif" font-size="1.3" lengthAdjust="spacing" textLength="0.5" x="150.917" y="41.045">*</text></g><!--link ApplicationSession to UserSession--><g id="link_ApplicationSession_UserSession"><path codeLine="94" d="M92.186,34.2783 C90.462,38.4533 88.068,44.2527 86.484,48.0887 " fill="none" id="ApplicationSession-to-UserSession" style="stroke:#181818;stroke-width:0.10000000000000002;"/><polygon fill="#181818" points="86.255,48.6433,86.9682,47.9641,86.4458,48.1811,86.2288,47.6587,86.255,48.6433" style="stroke:#181818;stroke-width:0.10000000000000002;"/><text fill="#000000" font-family="sans-serif" font-size="1.3" lengthAdjust="spacing" textLength="7.2" x="90.8" y="38.7791">userSession</text><text fill="#000000" font-family="sans-serif" font-size="1.3" lengthAdjust="spacing" textLength="0.7" x="85.7466" y="47.5456">1</text></g><!--link AssignSkillController to Organization--><g id="link_AssignSkillController_Organization"><path codeLine="96" d="M91.744,15.9853 C99.386,19.8513 111.1,25.7763 111.1,25.7763 C111.1,25.7763 119.7078,34.302 127.2058,41.73 " fill="none" id="AssignSkillController-to-Organization" style="stroke:#181818;stroke-width:0.10000000000000002;stroke-dasharray:7.0,7.0;"/><polygon fill="#181818" points="127.632,42.1523,127.2741,41.2347,127.2768,41.8004,126.7111,41.803,127.632,42.1523" style="stroke:#181818;stroke-width:0.10000000000000002;"/><text fill="#000000" font-family="sans-serif" font-size="1.3" lengthAdjust="spacing" textLength="7" x="119.6" y="30.5791">organization</text><text fill="#000000" font-family="sans-serif" font-size="1.3" lengthAdjust="spacing" textLength="0.7" x="126.1497" y="41.0353">1</text></g><!--link AssignSkillController to ApplicationSession--><g id="link_AssignSkillController_ApplicationSession"><path codeLine="97" d="M86.938,16.0023 C88.322,18.7703 90.0447,22.2146 91.5427,25.2116 " fill="none" id="AssignSkillController-to-ApplicationSession" style="stroke:#181818;stroke-width:0.10000000000000002;stroke-dasharray:7.0,7.0;"/><polygon fill="#181818" points="91.811,25.7483,91.7664,24.7644,91.5875,25.301,91.0508,25.1221,91.811,25.7483" style="stroke:#181818;stroke-width:0.10000000000000002;"/></g><!--link AssignSkillController to UserSession--><g id="link_AssignSkillController_UserSession"><path codeLine="98" d="M85.125,15.9853 C84.918,19.8513 84.6,25.7763 84.6,25.7763 C84.6,25.7763 84.6,34.2763 84.6,34.2763 C84.6,34.2763 84.7479,42.9434 84.8339,48.0484 " fill="none" id="AssignSkillController-to-UserSession" style="stroke:#181818;stroke-width:0.10000000000000002;stroke-dasharray:7.0,7.0;"/><polygon fill="#181818" points="84.844,48.6483,85.2288,47.7417,84.8356,48.1483,84.4289,47.7551,84.844,48.6483" style="stroke:#181818;stroke-width:0.10000000000000002;"/></g><!--link Collaborator to HRManager--><g id="link_Collaborator_HRManager"><path codeLine="99" d="M122.328,117.8283 C114.17,108.2953 102.6,94.7763 102.6,94.7763 C102.6,94.7763 100.1646,83.1156 98.9056,77.0866 " fill="none" id="Collaborator-to-HRManager" style="stroke:#181818;stroke-width:0.10000000000000002;"/><polygon fill="#181818" points="98.783,76.4993,98.5754,77.462,98.8852,76.9887,99.3585,77.2985,98.783,76.4993" style="stroke:#181818;stroke-width:0.10000000000000002;"/><text fill="#000000" font-family="sans-serif" font-size="1.3" lengthAdjust="spacing" textLength="7.5" x="106.6" y="99.2791">registered by</text></g><!--link Organization to HRManager--><g id="link_Organization_HRManager"><path codeLine="101" d="M121.382,60.9053 C120.283,61.5043 119.6,61.8763 119.6,61.8763 C119.6,61.8763 111.2557,66.2041 104.9087,69.4951 " fill="none" id="Organization-to-HRManager" style="stroke:#181818;stroke-width:0.10000000000000002;"/><polygon fill="#181818" points="104.376,69.7713,105.3591,69.7121,104.8199,69.5411,104.9909,69.0019,104.376,69.7713" style="stroke:#181818;stroke-width:0.10000000000000002;"/><text fill="#000000" font-family="sans-serif" font-size="1.3" lengthAdjust="spacing" textLength="4.9" x="113.3" y="66.3791">employs</text><text fill="#000000" font-family="sans-serif" font-size="1.3" lengthAdjust="spacing" textLength="0.5" x="105.0624" y="68.6528">*</text></g><!--link Organization to Collaborator--><g id="link_Organization_Collaborator"><path codeLine="102" d="M141.617,61.9033 C143.907,67.3423 146.3,73.0263 146.3,73.0263 C146.3,73.0263 146.3,73.0263 146.3,106.1263 C146.3,106.1263 142.2882,111.335 138.0972,116.774 " fill="none" id="Organization-to-Collaborator" style="stroke:#181818;stroke-width:0.10000000000000002;"/><polygon fill="#181818" points="137.731,117.2493,138.5972,116.7805,138.0362,116.8532,137.9635,116.2922,137.731,117.2493" style="stroke:#181818;stroke-width:0.10000000000000002;"/><text fill="#000000" font-family="sans-serif" font-size="1.3" lengthAdjust="spacing" textLength="4.9" x="146.4" y="90.1291">employs</text><text fill="#000000" font-family="sans-serif" font-size="1.3" lengthAdjust="spacing" textLength="0.5" x="137.7657" y="116.1655">*</text></g><!--link Organization to Skill--><g id="link_Organization_Skill"><path codeLine="103" d="M136.608,61.8843 C135.456,74.4743 133.6,94.7763 133.6,94.7763 C133.6,94.7763 132.3709,98.8063 131.3679,102.0973 " fill="none" id="Organization-to-Skill" style="stroke:#181818;stroke-width:0.10000000000000002;"/><polygon fill="#181818" points="131.193,102.6713,131.838,101.927,131.3388,102.193,131.0728,101.6938,131.193,102.6713" style="stroke:#181818;stroke-width:0.10000000000000002;"/><text fill="#000000" font-family="sans-serif" font-size="1.3" lengthAdjust="spacing" textLength="3" x="135" y="80.9791">owns</text><text fill="#000000" font-family="sans-serif" font-size="1.3" lengthAdjust="spacing" textLength="0.5" x="130.8393" y="101.5528">*</text></g><!--SRC=[dLPDRzmW4BtpAqQvn6cQgBtkeT8chTGzj9MoIk_OdlMYOB20JRIj-jyxW7SDNgnApI5QvkFDcySOkBOlGWtSy1vwhNIpDxf7SEQ0RF8Cl7dX7MxTKI8OR1nNdKm3x9wt-ase3dPSsjGZXK9t7106BOz-mQuBJcsSPabM8xcrQ-UCg0yEDurMM_4BuGDZrn9t3fm68xgzWrPuEa8hna8Eh8T1YePxqnQjzPxV3EZl5gmZSmCTkesYtwh1wcPqaUtnO0mgDoQHvyy9yjcYcMDHWZT_wRcGQUoZbfBNsd2d3SJWEr2ynnLigHlLZQPQ6BTlkPlRUTkBK0cApjOGZvcrrxMWRNdKol76hK0eDthGiuFcvCYoDf-XrGruzIyzwj3NQ2BKkRNjYv1oJUGwXQVUed99prMUVRE2Mck9N4tX0QTADRc8ug5A32JdgnRjZ4TPstFCrwTlND74JZpxi4wfsalerFs4WxQ2VXmZnks98rZ-YbMsqKsok8d1cNydLFjmt7okI1BIDmf4WLGuZZhyC1rNubUOsrZlRcmgT9WPNhdx7X0owpWScMtOQvNdXf5W5o8lTlD-bDlw_qkjfOPIcpufmlZeyElX-9tQgf8M5-Mut8WePm5WSluyQLJDHSlgdB45sXDwTZx0AejXfPcV28RuiejbupzBcTdEiMKPGahPzPyRD0codeR27oY64ayVqMtPMUaYa_TnP593KnGcbiyFbxkxACbg758R_MJ_b3Mteek0JT-wTsT0AtzsMyPOjiyKbQtzIHNtcrtU7ZwwO4rp9bMUDt3_gImJOsLfxo_8c7JUPio9pDN7gwNDPmkVJKXxbwSLMntXamkF-1oIws-fYVjBNfIfitgBcOKhUpaulOopEVVafr7mCdR2EZJOGZsJvYn86e_z8FNHbWEpIl-8ZQDAtR_Ht3Ab7Ovl5RrR60r_FcSLw1BbgXsH_Da6tD0ZgNQS7amjxEYD1cwFdl-r1OjoV0DveEV1lnniy6UWoQ0WWNjYStfdFG8IhMZAXHC1BtpEu_VOqqDf3XBUPNcBpvl8Q0Cxgk_XwDqMsMQ7GMLlGh-XX5zGM8rZBMn7VVh-eFoO49StuVOBMYwmoaRVuyL6nxPiA9zIib41CaiAIWUPIsYHDaBQgTPV]--></g></svg>