<?xml version="1.0" encoding="us-ascii" standalone="no"?><svg xmlns="http://www.w3.org/2000/svg" xmlns:xlink="http://www.w3.org/1999/xlink" contentStyleType="text/css" height="184px" preserveAspectRatio="none" style="width:196px;height:184px;background:#FFFFFF;" version="1.1" viewBox="0 0 196 184" width="196px" zoomAndPan="magnify"><defs/><g><rect fill="#FFFFFF" height="89.582" style="stroke:#181818;stroke-width:1.0;" width="10" x="48.5" y="48.6211"/><line style="stroke:#181818;stroke-width:0.5;stroke-dasharray:5.0,5.0;" x1="53" x2="53" y1="38.6211" y2="147.2031"/><rect fill="#E3E3E3" height="32.6211" rx="2.5" ry="2.5" style="stroke:#181818;stroke-width:0.5;" width="97" x="5" y="5"/><text fill="#000000" font-family="sans-serif" font-size="14" lengthAdjust="spacing" textLength="83" x="12" y="27.1074">:AssignSkillUI</text><rect fill="#E3E3E3" height="32.6211" rx="2.5" ry="2.5" style="stroke:#181818;stroke-width:0.5;" width="97" x="5" y="146.2031"/><text fill="#000000" font-family="sans-serif" font-size="14" lengthAdjust="spacing" textLength="83" x="12" y="168.3105">:AssignSkillUI</text><rect fill="#FFFFFF" height="89.582" style="stroke:#181818;stroke-width:1.0;" width="10" x="48.5" y="48.6211"/><line style="stroke:#181818;stroke-width:1.0;" x1="58.5" x2="100.5" y1="71.9121" y2="71.9121"/><line style="stroke:#181818;stroke-width:1.0;" x1="100.5" x2="100.5" y1="71.9121" y2="84.9121"/><line style="stroke:#181818;stroke-width:1.0;" x1="59.5" x2="100.5" y1="84.9121" y2="84.9121"/><polygon fill="#181818" points="69.5,80.9121,59.5,84.9121,69.5,88.9121,65.5,84.9121" style="stroke:#181818;stroke-width:1.0;"/><text fill="#000000" font-family="sans-serif" font-size="13" lengthAdjust="spacing" textLength="124" x="65.5" y="66.6494">get(collaboratorindex)</text><line style="stroke:#181818;stroke-width:1.0;stroke-dasharray:2.0,2.0;" x1="58.5" x2="100.5" y1="116.2031" y2="116.2031"/><line style="stroke:#181818;stroke-width:1.0;stroke-dasharray:2.0,2.0;" x1="100.5" x2="100.5" y1="116.2031" y2="129.2031"/><line style="stroke:#181818;stroke-width:1.0;stroke-dasharray:2.0,2.0;" x1="59.5" x2="100.5" y1="129.2031" y2="129.2031"/><polygon fill="#181818" points="69.5,125.2031,59.5,129.2031,69.5,133.2031,65.5,129.2031" style="stroke:#181818;stroke-width:1.0;"/><text fill="#000000" font-family="sans-serif" font-size="13" lengthAdjust="spacing" textLength="123" x="65.5" y="110.9404">selectedcollaborators</text><!--SRC=[LOwn3i8m34HtVuNL2GP-e0CIO-Ug7s1Iarfraoes1VwU3gWADznmTqywcoMjL6Z19QSSff8NHYzF1ZkQbS9CaNl_A6FXu9IYrWERQCmlIH4VfCO0U-mIPANasBGtCucfdqLrw1eamw43F4J1PIFd_tJey7BTlSN8VWfPbUwvaESYQUJt6QfjXVmOOzr_ybXp1W1V]--></g></svg>