<?xml version="1.0" encoding="us-ascii" standalone="no"?><svg xmlns="http://www.w3.org/2000/svg" xmlns:xlink="http://www.w3.org/1999/xlink" contentStyleType="text/css" height="397px" preserveAspectRatio="none" style="width:892px;height:397px;background:#FFFFFF;" version="1.1" viewBox="0 0 892 397" width="892px" zoomAndPan="magnify"><defs/><g><rect fill="#FFFFFF" height="224.4063" style="stroke:#181818;stroke-width:1.0;" width="10" x="401" y="107.8242"/><rect fill="#FFFFFF" height="96.582" style="stroke:#181818;stroke-width:1.0;" width="10" x="406" y="235.6484"/><rect fill="#FFFFFF" height="43.291" style="stroke:#181818;stroke-width:1.0;" width="10" x="411" y="279.9395"/><rect fill="none" height="170.1152" style="stroke:#000000;stroke-width:1.5;" width="539" x="347" y="122.8242"/><line style="stroke:#181818;stroke-width:0.5;stroke-dasharray:5.0,5.0;" x1="406" x2="406" y1="57.2422" y2="341.2305"/><line style="stroke:#181818;stroke-width:0.5;stroke-dasharray:5.0,5.0;" x1="828" x2="828" y1="183.2363" y2="341.2305"/><rect fill="#E3E3E3" height="51.2422" rx="2.5" ry="2.5" style="stroke:#181818;stroke-width:0.5;" width="98" x="357" y="5"/><text fill="#000000" font-family="sans-serif" font-size="14" lengthAdjust="spacing" textLength="77" x="367.5" y="27.1074">organization</text><text fill="#000000" font-family="sans-serif" font-size="14" lengthAdjust="spacing" textLength="84" x="364" y="45.7285">:Organization</text><rect fill="#E3E3E3" height="51.2422" rx="2.5" ry="2.5" style="stroke:#181818;stroke-width:0.5;" width="98" x="357" y="340.2305"/><text fill="#000000" font-family="sans-serif" font-size="14" lengthAdjust="spacing" textLength="77" x="367.5" y="362.3379">organization</text><text fill="#000000" font-family="sans-serif" font-size="14" lengthAdjust="spacing" textLength="84" x="364" y="380.959">:Organization</text><rect fill="#E3E3E3" height="51.2422" rx="2.5" ry="2.5" style="stroke:#181818;stroke-width:0.5;" width="96" x="780" y="340.2305"/><text fill="#000000" font-family="sans-serif" font-size="14" lengthAdjust="spacing" textLength="75" x="790.5" y="362.3379">collaborator</text><text fill="#000000" font-family="sans-serif" font-size="14" lengthAdjust="spacing" textLength="82" x="787" y="380.959">:Collaborator</text><rect fill="#FFFFFF" height="224.4063" style="stroke:#181818;stroke-width:1.0;" width="10" x="401" y="107.8242"/><rect fill="#FFFFFF" height="96.582" style="stroke:#181818;stroke-width:1.0;" width="10" x="406" y="235.6484"/><rect fill="#FFFFFF" height="43.291" style="stroke:#181818;stroke-width:1.0;" width="10" x="411" y="279.9395"/><polygon fill="#181818" points="389,103.8242,399,107.8242,389,111.8242,393,107.8242" style="stroke:#181818;stroke-width:1.0;"/><line style="stroke:#181818;stroke-width:1.0;" x1="0" x2="395" y1="107.8242" y2="107.8242"/><text fill="#000000" font-family="sans-serif" font-size="13" font-weight="bold" lengthAdjust="spacing" textLength="14" x="7" y="93.916">16</text><text fill="#000000" font-family="sans-serif" font-size="13" lengthAdjust="spacing" textLength="360" x="25" y="85.2705">registerCollaborator(name, birthdate, admission date, address,</text><text fill="#000000" font-family="sans-serif" font-size="13" lengthAdjust="spacing" textLength="316" x="25" y="102.5615">mobile contact, email contact, ID doc type, ID number)</text><path d="M347,122.8242 L467,122.8242 L467,132.1152 L457,142.1152 L347,142.1152 L347,122.8242 " fill="#EEEEEE" style="stroke:#000000;stroke-width:1.5;"/><rect fill="none" height="170.1152" style="stroke:#000000;stroke-width:1.5;" width="539" x="347" y="122.8242"/><text fill="#000000" font-family="sans-serif" font-size="13" font-weight="bold" lengthAdjust="spacing" textLength="75" x="362" y="137.8525">Create Task</text><polygon fill="#181818" points="768,178.6973,778,182.6973,768,186.6973,772,182.6973" style="stroke:#181818;stroke-width:1.0;"/><line style="stroke:#181818;stroke-width:1.0;" x1="411" x2="774" y1="182.6973" y2="182.6973"/><text fill="#000000" font-family="sans-serif" font-size="13" font-weight="bold" lengthAdjust="spacing" textLength="25" x="418" y="168.7891">16.1</text><text fill="#000000" font-family="sans-serif" font-size="13" lengthAdjust="spacing" textLength="284" x="447" y="160.1436">create(name, birthdate, admission date, address,</text><text fill="#000000" font-family="sans-serif" font-size="13" lengthAdjust="spacing" textLength="316" x="447" y="177.4346">mobile contact, email contact, ID doc type, ID number)</text><rect fill="#E3E3E3" height="51.2422" rx="2.5" ry="2.5" style="stroke:#181818;stroke-width:0.5;" width="96" x="780" y="142.1152"/><text fill="#000000" font-family="sans-serif" font-size="14" lengthAdjust="spacing" textLength="75" x="790.5" y="164.2227">collaborator</text><text fill="#000000" font-family="sans-serif" font-size="14" lengthAdjust="spacing" textLength="82" x="787" y="182.8438">:Collaborator</text><line style="stroke:#181818;stroke-width:1.0;" x1="411" x2="458" y1="222.6484" y2="222.6484"/><line style="stroke:#181818;stroke-width:1.0;" x1="458" x2="458" y1="222.6484" y2="235.6484"/><line style="stroke:#181818;stroke-width:1.0;" x1="417" x2="458" y1="235.6484" y2="235.6484"/><polygon fill="#181818" points="427,231.6484,417,235.6484,427,239.6484,423,235.6484" style="stroke:#181818;stroke-width:1.0;"/><text fill="#000000" font-family="sans-serif" font-size="13" font-weight="bold" lengthAdjust="spacing" textLength="25" x="423" y="217.3857">16.2</text><text fill="#000000" font-family="sans-serif" font-size="13" lengthAdjust="spacing" textLength="169" x="452" y="217.3857">addCollaborator (collaborator)</text><line style="stroke:#181818;stroke-width:1.0;" x1="416" x2="463" y1="266.9395" y2="266.9395"/><line style="stroke:#181818;stroke-width:1.0;" x1="463" x2="463" y1="266.9395" y2="279.9395"/><line style="stroke:#181818;stroke-width:1.0;" x1="422" x2="463" y1="279.9395" y2="279.9395"/><polygon fill="#181818" points="432,275.9395,422,279.9395,432,283.9395,428,279.9395" style="stroke:#181818;stroke-width:1.0;"/><text fill="#000000" font-family="sans-serif" font-size="13" font-weight="bold" lengthAdjust="spacing" textLength="25" x="428" y="261.6768">16.3</text><text fill="#000000" font-family="sans-serif" font-size="13" lengthAdjust="spacing" textLength="143" x="457" y="261.6768">validateSkill(collaborator)</text><polygon fill="#181818" points="11,319.2305,1,323.2305,11,327.2305,7,323.2305" style="stroke:#181818;stroke-width:1.0;"/><line style="stroke:#181818;stroke-width:1.0;stroke-dasharray:2.0,2.0;" x1="5" x2="400" y1="323.2305" y2="323.2305"/><text fill="#000000" font-family="sans-serif" font-size="13" font-weight="bold" lengthAdjust="spacing" textLength="14" x="17" y="317.9678">17</text><text fill="#000000" font-family="sans-serif" font-size="13" lengthAdjust="spacing" textLength="67" x="35" y="317.9678">collaborator</text><!--SRC=[lL5DQm8n4BtdLmoULBJWfGKf1QjG2eK5xT7BR7QwEsm-bYHhiR- -sKXhr9wRKzvatflt9hvbqw533TeQAnjdDK5mFGd_-zAXRB6cNJWg0aSoeAbLtk0RhEmdcne-K7aI8fO3I-xG11XPLwFXBmnipTuiYmoE03qKsvTBWhHAOMaT1kiYOPt1H5WNRwldOhlQ55iXi0_MzBea1ujxCNyQv9RHPSq-aCkvOuEQPb2o2qs58Lwnqknzz04_k7Ba_GpsHjkIOrffJK0PPa0QMPtXwmOgAo4SEqhWv61oPUTk8M8t7w9uIWdnrCxs7QmT3SLtzAr8vU745eW1idZJwH9aQlqFyrS-qYAZQhv36EUVCpbxlydvbzW15GzcToqhTQMKSsx4o5IdKVbw7rBbSJvFC-AYCZrHqOM8-0O0]--></g></svg>