<?xml version="1.0" encoding="us-ascii" standalone="no"?><svg xmlns="http://www.w3.org/2000/svg" xmlns:xlink="http://www.w3.org/1999/xlink" contentStyleType="text/css" height="1950px" preserveAspectRatio="none" style="width:2696px;height:1950px;background:#FFFFFF;" version="1.1" viewBox="0 0 2696 1950" width="2696px" zoomAndPan="magnify"><defs/><g><rect fill="#FFFFFF" height="1756.1719" style="stroke:#181818;stroke-width:1.0;" width="10" x="91" y="93.6211"/><rect fill="#FFFFFF" height="356.5313" style="stroke:#181818;stroke-width:1.0;" width="10" x="526" y="116.9121"/><rect fill="#FFFFFF" height="245.0371" style="stroke:#181818;stroke-width:1.0;" width="10" x="526" y="504.7344"/><rect fill="#FFFFFF" height="1068.7305" style="stroke:#181818;stroke-width:1.0;" width="10" x="526" y="781.0625"/><rect fill="#FFFFFF" height="250.3281" style="stroke:#181818;stroke-width:1.0;" width="10" x="1062" y="191.8242"/><rect fill="#FFFFFF" height="854.9844" style="stroke:#181818;stroke-width:1.0;" width="10" x="1062" y="963.5176"/><rect fill="#FFFFFF" height="513.6563" style="stroke:#181818;stroke-width:1.0;" width="10" x="1067" y="1027.8086"/><rect fill="#FFFFFF" height="31.291" style="stroke:#181818;stroke-width:1.0;" width="10" x="1376.5" y="379.5703"/><rect fill="#FFFFFF" height="31.291" style="stroke:#181818;stroke-width:1.0;" width="10" x="1524" y="655.8984"/><rect fill="#FFFFFF" height="31.291" style="stroke:#181818;stroke-width:1.0;" width="10" x="1638" y="223.1152"/><rect fill="#FFFFFF" height="31.291" style="stroke:#181818;stroke-width:1.0;" width="10" x="1638" y="285.6973"/><rect fill="#FFFFFF" height="31.291" style="stroke:#181818;stroke-width:1.0;" width="10" x="1638" y="1251.8457"/><rect fill="#FFFFFF" height="31.291" style="stroke:#181818;stroke-width:1.0;" width="10" x="1765" y="1064.0996"/><rect fill="#FFFFFF" height="31.291" style="stroke:#181818;stroke-width:1.0;" width="10" x="1912" y="1126.6816"/><rect fill="#FFFFFF" height="31.291" style="stroke:#181818;stroke-width:1.0;" width="10" x="2045" y="1189.2637"/><rect fill="#FFFFFF" height="127.1641" style="stroke:#181818;stroke-width:1.0;" width="10" x="2191" y="1314.4277"/><rect fill="#FFFFFF" height="31.291" style="stroke:#181818;stroke-width:1.0;" width="10" x="2383" y="1372.0098"/><rect fill="#FFFFFF" height="31.291" style="stroke:#181818;stroke-width:1.0;" width="10" x="2383" y="1472.8828"/><rect fill="#FFFFFF" height="182.4551" style="stroke:#181818;stroke-width:1.0;" width="10" x="2383" y="1604.7559"/><rect fill="none" height="81.873" style="stroke:#000000;stroke-width:1.5;" width="342.5" x="2104.5" y="1329.4277"/><line style="stroke:#181818;stroke-width:0.5;stroke-dasharray:5.0,5.0;" x1="96" x2="96" y1="83.6211" y2="1867.793"/><line style="stroke:#181818;stroke-width:0.5;stroke-dasharray:5.0,5.0;" x1="530.5" x2="530.5" y1="83.6211" y2="1867.793"/><line style="stroke:#181818;stroke-width:0.5;stroke-dasharray:5.0,5.0;" x1="1066.5" x2="1066.5" y1="156.7227" y2="1867.793"/><line style="stroke:#181818;stroke-width:0.5;stroke-dasharray:5.0,5.0;" x1="1240.5" x2="1240.5" y1="83.6211" y2="1867.793"/><line style="stroke:#181818;stroke-width:0.5;stroke-dasharray:5.0,5.0;" x1="1381.5" x2="1381.5" y1="83.6211" y2="1867.793"/><line style="stroke:#181818;stroke-width:0.5;stroke-dasharray:5.0,5.0;" x1="1528.5" x2="1528.5" y1="83.6211" y2="1867.793"/><line style="stroke:#181818;stroke-width:0.5;stroke-dasharray:5.0,5.0;" x1="1642.5" x2="1642.5" y1="83.6211" y2="1867.793"/><line style="stroke:#181818;stroke-width:0.5;stroke-dasharray:5.0,5.0;" x1="1769.5" x2="1769.5" y1="83.6211" y2="1867.793"/><line style="stroke:#181818;stroke-width:0.5;stroke-dasharray:5.0,5.0;" x1="1916.5" x2="1916.5" y1="83.6211" y2="1867.793"/><line style="stroke:#181818;stroke-width:0.5;stroke-dasharray:5.0,5.0;" x1="2049.5" x2="2049.5" y1="83.6211" y2="1867.793"/><line style="stroke:#181818;stroke-width:0.5;stroke-dasharray:5.0,5.0;" x1="2195.5" x2="2195.5" y1="83.6211" y2="1867.793"/><line style="stroke:#181818;stroke-width:0.5;stroke-dasharray:5.0,5.0;" x1="2388" x2="2388" y1="83.6211" y2="1867.793"/><line style="stroke:#181818;stroke-width:0.5;stroke-dasharray:5.0,5.0;" x1="2629" x2="2629" y1="83.6211" y2="1867.793"/><text fill="#000000" font-family="sans-serif" font-size="14" lengthAdjust="spacing" textLength="176" x="5" y="80.1074">Human Resources Manager</text><ellipse cx="96" cy="13.5" fill="#E3E3E3" rx="8" ry="8" style="stroke:#181818;stroke-width:0.5;"/><path d="M96,21.5 L96,48.5 M83,29.5 L109,29.5 M96,48.5 L83,63.5 M96,48.5 L109,63.5 " fill="none" style="stroke:#181818;stroke-width:0.5;"/><text fill="#000000" font-family="sans-serif" font-size="14" lengthAdjust="spacing" textLength="176" x="5" y="1881.9004">Human Resources Manager</text><ellipse cx="96" cy="1893.9141" fill="#E3E3E3" rx="8" ry="8" style="stroke:#181818;stroke-width:0.5;"/><path d="M96,1901.9141 L96,1928.9141 M83,1909.9141 L109,1909.9141 M96,1928.9141 L83,1943.9141 M96,1928.9141 L109,1943.9141 " fill="none" style="stroke:#181818;stroke-width:0.5;"/><rect fill="#E3E3E3" height="32.6211" rx="2.5" ry="2.5" style="stroke:#181818;stroke-width:0.5;" width="97" x="482.5" y="50"/><text fill="#000000" font-family="sans-serif" font-size="14" lengthAdjust="spacing" textLength="83" x="489.5" y="72.1074">:AssignSkillUI</text><rect fill="#E3E3E3" height="32.6211" rx="2.5" ry="2.5" style="stroke:#181818;stroke-width:0.5;" width="97" x="482.5" y="1866.793"/><text fill="#000000" font-family="sans-serif" font-size="14" lengthAdjust="spacing" textLength="83" x="489.5" y="1888.9004">:AssignSkillUI</text><rect fill="#E3E3E3" height="32.6211" rx="2.5" ry="2.5" style="stroke:#181818;stroke-width:0.5;" width="147" x="993.5" y="1866.793"/><text fill="#000000" font-family="sans-serif" font-size="14" lengthAdjust="spacing" textLength="133" x="1000.5" y="1888.9004">:AssignSkillController</text><rect fill="#E3E3E3" height="32.6211" rx="2.5" ry="2.5" style="stroke:#181818;stroke-width:0.5;" width="97" x="1192.5" y="50"/><text fill="#000000" font-family="sans-serif" font-size="14" lengthAdjust="spacing" textLength="83" x="1199.5" y="72.1074">:Repositories</text><rect fill="#E3E3E3" height="32.6211" rx="2.5" ry="2.5" style="stroke:#181818;stroke-width:0.5;" width="97" x="1192.5" y="1866.793"/><text fill="#000000" font-family="sans-serif" font-size="14" lengthAdjust="spacing" textLength="83" x="1199.5" y="1888.9004">:Repositories</text><rect fill="#E3E3E3" height="51.2422" rx="2.5" ry="2.5" style="stroke:#181818;stroke-width:0.5;" width="164" x="1299.5" y="31.3789"/><text fill="#000000" font-family="sans-serif" font-size="14" lengthAdjust="spacing" textLength="142" x="1310.5" y="53.4863">:collaboratorrepository</text><text fill="#000000" font-family="sans-serif" font-size="14" lengthAdjust="spacing" textLength="150" x="1306.5" y="72.1074">:CollaboratorRepository</text><rect fill="#E3E3E3" height="51.2422" rx="2.5" ry="2.5" style="stroke:#181818;stroke-width:0.5;" width="164" x="1299.5" y="1866.793"/><text fill="#000000" font-family="sans-serif" font-size="14" lengthAdjust="spacing" textLength="142" x="1310.5" y="1888.9004">:collaboratorrepository</text><text fill="#000000" font-family="sans-serif" font-size="14" lengthAdjust="spacing" textLength="150" x="1306.5" y="1907.5215">:CollaboratorRepository</text><rect fill="#E3E3E3" height="51.2422" rx="2.5" ry="2.5" style="stroke:#181818;stroke-width:0.5;" width="111" x="1473.5" y="31.3789"/><text fill="#000000" font-family="sans-serif" font-size="14" lengthAdjust="spacing" textLength="86" x="1486" y="53.4863">skillrepository</text><text fill="#000000" font-family="sans-serif" font-size="14" lengthAdjust="spacing" textLength="97" x="1480.5" y="72.1074">:SkillRepository</text><rect fill="#E3E3E3" height="51.2422" rx="2.5" ry="2.5" style="stroke:#181818;stroke-width:0.5;" width="111" x="1473.5" y="1866.793"/><text fill="#000000" font-family="sans-serif" font-size="14" lengthAdjust="spacing" textLength="86" x="1486" y="1888.9004">skillrepository</text><text fill="#000000" font-family="sans-serif" font-size="14" lengthAdjust="spacing" textLength="97" x="1480.5" y="1907.5215">:SkillRepository</text><rect fill="#E3E3E3" height="51.2422" rx="2.5" ry="2.5" style="stroke:#181818;stroke-width:0.5;" width="97" x="1594.5" y="31.3789"/><text fill="#000000" font-family="sans-serif" font-size="14" lengthAdjust="spacing" textLength="74" x="1606" y="53.4863">repositories</text><text fill="#000000" font-family="sans-serif" font-size="14" lengthAdjust="spacing" textLength="83" x="1601.5" y="72.1074">:Repositories</text><rect fill="#E3E3E3" height="51.2422" rx="2.5" ry="2.5" style="stroke:#181818;stroke-width:0.5;" width="97" x="1594.5" y="1866.793"/><text fill="#000000" font-family="sans-serif" font-size="14" lengthAdjust="spacing" textLength="74" x="1606" y="1888.9004">repositories</text><text fill="#000000" font-family="sans-serif" font-size="14" lengthAdjust="spacing" textLength="83" x="1601.5" y="1907.5215">:Repositories</text><rect fill="#E3E3E3" height="32.6211" rx="2.5" ry="2.5" style="stroke:#181818;stroke-width:0.5;" width="137" x="1701.5" y="50"/><text fill="#000000" font-family="sans-serif" font-size="14" lengthAdjust="spacing" textLength="123" x="1708.5" y="72.1074">:ApplicationSession</text><rect fill="#E3E3E3" height="32.6211" rx="2.5" ry="2.5" style="stroke:#181818;stroke-width:0.5;" width="137" x="1701.5" y="1866.793"/><text fill="#000000" font-family="sans-serif" font-size="14" lengthAdjust="spacing" textLength="123" x="1708.5" y="1888.9004">:ApplicationSession</text><rect fill="#E3E3E3" height="51.2422" rx="2.5" ry="2.5" style="stroke:#181818;stroke-width:0.5;" width="137" x="1848.5" y="31.3789"/><text fill="#000000" font-family="sans-serif" font-size="14" lengthAdjust="spacing" textLength="74" x="1880" y="53.4863">appSession</text><text fill="#000000" font-family="sans-serif" font-size="14" lengthAdjust="spacing" textLength="123" x="1855.5" y="72.1074">:ApplicationSession</text><rect fill="#E3E3E3" height="51.2422" rx="2.5" ry="2.5" style="stroke:#181818;stroke-width:0.5;" width="137" x="1848.5" y="1866.793"/><text fill="#000000" font-family="sans-serif" font-size="14" lengthAdjust="spacing" textLength="74" x="1880" y="1888.9004">appSession</text><text fill="#000000" font-family="sans-serif" font-size="14" lengthAdjust="spacing" textLength="123" x="1855.5" y="1907.5215">:ApplicationSession</text><rect fill="#E3E3E3" height="51.2422" rx="2.5" ry="2.5" style="stroke:#181818;stroke-width:0.5;" width="109" x="1995.5" y="31.3789"/><text fill="#000000" font-family="sans-serif" font-size="14" lengthAdjust="spacing" textLength="95" x="2002.5" y="53.4863">currentSession</text><text fill="#000000" font-family="sans-serif" font-size="14" lengthAdjust="spacing" textLength="83" x="2008.5" y="72.1074">:UserSession</text><rect fill="#E3E3E3" height="51.2422" rx="2.5" ry="2.5" style="stroke:#181818;stroke-width:0.5;" width="109" x="1995.5" y="1866.793"/><text fill="#000000" font-family="sans-serif" font-size="14" lengthAdjust="spacing" textLength="95" x="2002.5" y="1888.9004">currentSession</text><text fill="#000000" font-family="sans-serif" font-size="14" lengthAdjust="spacing" textLength="83" x="2008.5" y="1907.5215">:UserSession</text><rect fill="#E3E3E3" height="51.2422" rx="2.5" ry="2.5" style="stroke:#181818;stroke-width:0.5;" width="163" x="2114.5" y="31.3789"/><text fill="#000000" font-family="sans-serif" font-size="14" lengthAdjust="spacing" textLength="149" x="2121.5" y="53.4863">organizationRepository:</text><text fill="#000000" font-family="sans-serif" font-size="14" lengthAdjust="spacing" textLength="148" x="2122" y="72.1074">OrganizationRepository</text><rect fill="#E3E3E3" height="51.2422" rx="2.5" ry="2.5" style="stroke:#181818;stroke-width:0.5;" width="163" x="2114.5" y="1866.793"/><text fill="#000000" font-family="sans-serif" font-size="14" lengthAdjust="spacing" textLength="149" x="2121.5" y="1888.9004">organizationRepository:</text><text fill="#000000" font-family="sans-serif" font-size="14" lengthAdjust="spacing" textLength="148" x="2122" y="1907.5215">OrganizationRepository</text><rect fill="#E3E3E3" height="51.2422" rx="2.5" ry="2.5" style="stroke:#181818;stroke-width:0.5;" width="98" x="2339" y="31.3789"/><text fill="#000000" font-family="sans-serif" font-size="14" lengthAdjust="spacing" textLength="77" x="2349.5" y="53.4863">organization</text><text fill="#000000" font-family="sans-serif" font-size="14" lengthAdjust="spacing" textLength="84" x="2346" y="72.1074">:Organization</text><rect fill="#E3E3E3" height="51.2422" rx="2.5" ry="2.5" style="stroke:#181818;stroke-width:0.5;" width="98" x="2339" y="1866.793"/><text fill="#000000" font-family="sans-serif" font-size="14" lengthAdjust="spacing" textLength="77" x="2349.5" y="1888.9004">organization</text><text fill="#000000" font-family="sans-serif" font-size="14" lengthAdjust="spacing" textLength="84" x="2346" y="1907.5215">:Organization</text><rect fill="#E3E3E3" height="32.6211" rx="2.5" ry="2.5" style="stroke:#181818;stroke-width:0.5;" width="122" x="2568" y="50"/><text fill="#000000" font-family="sans-serif" font-size="14" lengthAdjust="spacing" textLength="108" x="2575" y="72.1074">COLABORADOR</text><rect fill="#E3E3E3" height="32.6211" rx="2.5" ry="2.5" style="stroke:#181818;stroke-width:0.5;" width="122" x="2568" y="1866.793"/><text fill="#000000" font-family="sans-serif" font-size="14" lengthAdjust="spacing" textLength="108" x="2575" y="1888.9004">COLABORADOR</text><rect fill="#FFFFFF" height="1756.1719" style="stroke:#181818;stroke-width:1.0;" width="10" x="91" y="93.6211"/><rect fill="#FFFFFF" height="356.5313" style="stroke:#181818;stroke-width:1.0;" width="10" x="526" y="116.9121"/><rect fill="#FFFFFF" height="245.0371" style="stroke:#181818;stroke-width:1.0;" width="10" x="526" y="504.7344"/><rect fill="#FFFFFF" height="1068.7305" style="stroke:#181818;stroke-width:1.0;" width="10" x="526" y="781.0625"/><rect fill="#FFFFFF" height="250.3281" style="stroke:#181818;stroke-width:1.0;" width="10" x="1062" y="191.8242"/><rect fill="#FFFFFF" height="854.9844" style="stroke:#181818;stroke-width:1.0;" width="10" x="1062" y="963.5176"/><rect fill="#FFFFFF" height="513.6563" style="stroke:#181818;stroke-width:1.0;" width="10" x="1067" y="1027.8086"/><rect fill="#FFFFFF" height="31.291" style="stroke:#181818;stroke-width:1.0;" width="10" x="1376.5" y="379.5703"/><rect fill="#FFFFFF" height="31.291" style="stroke:#181818;stroke-width:1.0;" width="10" x="1524" y="655.8984"/><rect fill="#FFFFFF" height="31.291" style="stroke:#181818;stroke-width:1.0;" width="10" x="1638" y="223.1152"/><rect fill="#FFFFFF" height="31.291" style="stroke:#181818;stroke-width:1.0;" width="10" x="1638" y="285.6973"/><rect fill="#FFFFFF" height="31.291" style="stroke:#181818;stroke-width:1.0;" width="10" x="1638" y="1251.8457"/><rect fill="#FFFFFF" height="31.291" style="stroke:#181818;stroke-width:1.0;" width="10" x="1765" y="1064.0996"/><rect fill="#FFFFFF" height="31.291" style="stroke:#181818;stroke-width:1.0;" width="10" x="1912" y="1126.6816"/><rect fill="#FFFFFF" height="31.291" style="stroke:#181818;stroke-width:1.0;" width="10" x="2045" y="1189.2637"/><rect fill="#FFFFFF" height="127.1641" style="stroke:#181818;stroke-width:1.0;" width="10" x="2191" y="1314.4277"/><rect fill="#FFFFFF" height="31.291" style="stroke:#181818;stroke-width:1.0;" width="10" x="2383" y="1372.0098"/><rect fill="#FFFFFF" height="31.291" style="stroke:#181818;stroke-width:1.0;" width="10" x="2383" y="1472.8828"/><rect fill="#FFFFFF" height="182.4551" style="stroke:#181818;stroke-width:1.0;" width="10" x="2383" y="1604.7559"/><polygon fill="#181818" points="514,112.9121,524,116.9121,514,120.9121,518,116.9121" style="stroke:#181818;stroke-width:1.0;"/><line style="stroke:#181818;stroke-width:1.0;" x1="101" x2="520" y1="116.9121" y2="116.9121"/><text fill="#000000" font-family="sans-serif" font-size="13" font-weight="bold" lengthAdjust="spacing" textLength="7" x="108" y="111.6494">1</text><text fill="#000000" font-family="sans-serif" font-size="13" lengthAdjust="spacing" textLength="224" x="119" y="111.6494">asks to assign a skill to a collaborator.</text><polygon fill="#181818" points="981.5,144.2031,991.5,148.2031,981.5,152.2031,985.5,148.2031" style="stroke:#181818;stroke-width:1.0;"/><line style="stroke:#181818;stroke-width:1.0;" x1="536" x2="987.5" y1="148.2031" y2="148.2031"/><text fill="#000000" font-family="sans-serif" font-size="13" font-weight="bold" lengthAdjust="spacing" textLength="7" x="543" y="142.9404">2</text><text fill="#000000" font-family="sans-serif" font-size="13" lengthAdjust="spacing" textLength="36" x="554" y="142.9404">create</text><rect fill="#E3E3E3" height="32.6211" rx="2.5" ry="2.5" style="stroke:#181818;stroke-width:0.5;" width="147" x="993.5" y="124.9121"/><text fill="#000000" font-family="sans-serif" font-size="14" lengthAdjust="spacing" textLength="133" x="1000.5" y="147.0195">:AssignSkillController</text><polygon fill="#181818" points="1050,187.8242,1060,191.8242,1050,195.8242,1054,191.8242" style="stroke:#181818;stroke-width:1.0;"/><line style="stroke:#181818;stroke-width:1.0;" x1="536" x2="1056" y1="191.8242" y2="191.8242"/><text fill="#000000" font-family="sans-serif" font-size="13" font-weight="bold" lengthAdjust="spacing" textLength="7" x="543" y="186.5615">3</text><text fill="#000000" font-family="sans-serif" font-size="13" lengthAdjust="spacing" textLength="157" x="554" y="186.5615">getCollaboratorRepository()</text><polygon fill="#181818" points="1626,219.1152,1636,223.1152,1626,227.1152,1630,223.1152" style="stroke:#181818;stroke-width:1.0;"/><line style="stroke:#181818;stroke-width:1.0;" x1="1072" x2="1632" y1="223.1152" y2="223.1152"/><text fill="#000000" font-family="sans-serif" font-size="13" font-weight="bold" lengthAdjust="spacing" textLength="7" x="1079" y="217.8525">4</text><text fill="#000000" font-family="sans-serif" font-size="13" lengthAdjust="spacing" textLength="157" x="1090" y="217.8525">getCollaboratorRepository()</text><polygon fill="#181818" points="1083,250.4063,1073,254.4063,1083,258.4063,1079,254.4063" style="stroke:#181818;stroke-width:1.0;"/><line style="stroke:#181818;stroke-width:1.0;" x1="1077" x2="1642" y1="254.4063" y2="254.4063"/><text fill="#000000" font-family="sans-serif" font-size="13" font-weight="bold" lengthAdjust="spacing" textLength="7" x="1089" y="249.1436">5</text><text fill="#000000" font-family="sans-serif" font-size="13" lengthAdjust="spacing" textLength="124" x="1100" y="249.1436">collaboratorrepository</text><polygon fill="#181818" points="1626,281.6973,1636,285.6973,1626,289.6973,1630,285.6973" style="stroke:#181818;stroke-width:1.0;"/><line style="stroke:#181818;stroke-width:1.0;" x1="1072" x2="1632" y1="285.6973" y2="285.6973"/><text fill="#000000" font-family="sans-serif" font-size="13" font-weight="bold" lengthAdjust="spacing" textLength="7" x="1079" y="280.4346">6</text><text fill="#000000" font-family="sans-serif" font-size="13" lengthAdjust="spacing" textLength="113" x="1090" y="280.4346">getSkillRepository()</text><polygon fill="#181818" points="1083,312.9883,1073,316.9883,1083,320.9883,1079,316.9883" style="stroke:#181818;stroke-width:1.0;"/><line style="stroke:#181818;stroke-width:1.0;" x1="1077" x2="1642" y1="316.9883" y2="316.9883"/><text fill="#000000" font-family="sans-serif" font-size="13" font-weight="bold" lengthAdjust="spacing" textLength="7" x="1089" y="311.7256">7</text><text fill="#000000" font-family="sans-serif" font-size="13" lengthAdjust="spacing" textLength="80" x="1100" y="311.7256">skillrepository</text><polygon fill="#181818" points="1050,344.2793,1060,348.2793,1050,352.2793,1054,348.2793" style="stroke:#181818;stroke-width:1.0;"/><line style="stroke:#181818;stroke-width:1.0;" x1="536" x2="1056" y1="348.2793" y2="348.2793"/><text fill="#000000" font-family="sans-serif" font-size="13" font-weight="bold" lengthAdjust="spacing" textLength="7" x="543" y="343.0166">8</text><text fill="#000000" font-family="sans-serif" font-size="13" lengthAdjust="spacing" textLength="116" x="554" y="343.0166">getCollaboratorList()</text><polygon fill="#181818" points="1364.5,375.5703,1374.5,379.5703,1364.5,383.5703,1368.5,379.5703" style="stroke:#181818;stroke-width:1.0;"/><line style="stroke:#181818;stroke-width:1.0;" x1="1072" x2="1370.5" y1="379.5703" y2="379.5703"/><text fill="#000000" font-family="sans-serif" font-size="13" font-weight="bold" lengthAdjust="spacing" textLength="7" x="1079" y="374.3076">9</text><text fill="#000000" font-family="sans-serif" font-size="13" lengthAdjust="spacing" textLength="116" x="1090" y="374.3076">getCollaboratorList()</text><polygon fill="#181818" points="1083,406.8613,1073,410.8613,1083,414.8613,1079,410.8613" style="stroke:#181818;stroke-width:1.0;"/><line style="stroke:#181818;stroke-width:1.0;" x1="1077" x2="1380.5" y1="410.8613" y2="410.8613"/><text fill="#000000" font-family="sans-serif" font-size="13" font-weight="bold" lengthAdjust="spacing" textLength="14" x="1089" y="405.5986">10</text><text fill="#000000" font-family="sans-serif" font-size="13" lengthAdjust="spacing" textLength="74" x="1107" y="405.5986">collaborators</text><polygon fill="#181818" points="547,438.1523,537,442.1523,547,446.1523,543,442.1523" style="stroke:#181818;stroke-width:1.0;"/><line style="stroke:#181818;stroke-width:1.0;" x1="541" x2="1066" y1="442.1523" y2="442.1523"/><text fill="#000000" font-family="sans-serif" font-size="13" font-weight="bold" lengthAdjust="spacing" textLength="14" x="553" y="436.8896">11</text><text fill="#000000" font-family="sans-serif" font-size="13" lengthAdjust="spacing" textLength="74" x="571" y="436.8896">collaborators</text><polygon fill="#181818" points="112,469.4434,102,473.4434,112,477.4434,108,473.4434" style="stroke:#181818;stroke-width:1.0;"/><line style="stroke:#181818;stroke-width:1.0;stroke-dasharray:2.0,2.0;" x1="106" x2="530" y1="473.4434" y2="473.4434"/><text fill="#000000" font-family="sans-serif" font-size="13" font-weight="bold" lengthAdjust="spacing" textLength="14" x="118" y="468.1807">12</text><text fill="#000000" font-family="sans-serif" font-size="13" lengthAdjust="spacing" textLength="383" x="136" y="468.1807">shows list of existing collaborators and asks to select one or more</text><polygon fill="#181818" points="514,500.7344,524,504.7344,514,508.7344,518,504.7344" style="stroke:#181818;stroke-width:1.0;"/><line style="stroke:#181818;stroke-width:1.0;" x1="101" x2="520" y1="504.7344" y2="504.7344"/><text fill="#000000" font-family="sans-serif" font-size="13" font-weight="bold" lengthAdjust="spacing" textLength="14" x="108" y="499.4717">13</text><text fill="#000000" font-family="sans-serif" font-size="13" lengthAdjust="spacing" textLength="128" x="126" y="499.4717">selects collaborator(s)</text><line style="stroke:#181818;stroke-width:1.0;" x1="536" x2="578" y1="536.0254" y2="536.0254"/><line style="stroke:#181818;stroke-width:1.0;" x1="578" x2="578" y1="536.0254" y2="549.0254"/><line style="stroke:#181818;stroke-width:1.0;" x1="537" x2="578" y1="549.0254" y2="549.0254"/><polygon fill="#181818" points="547,545.0254,537,549.0254,547,553.0254,543,549.0254" style="stroke:#181818;stroke-width:1.0;"/><text fill="#000000" font-family="sans-serif" font-size="13" font-weight="bold" lengthAdjust="spacing" textLength="14" x="543" y="530.7627">14</text><text fill="#000000" font-family="sans-serif" font-size="13" lengthAdjust="spacing" textLength="124" x="561" y="530.7627">get(collaboratorindex)</text><line style="stroke:#181818;stroke-width:1.0;stroke-dasharray:2.0,2.0;" x1="536" x2="578" y1="580.3164" y2="580.3164"/><line style="stroke:#181818;stroke-width:1.0;stroke-dasharray:2.0,2.0;" x1="578" x2="578" y1="580.3164" y2="593.3164"/><line style="stroke:#181818;stroke-width:1.0;stroke-dasharray:2.0,2.0;" x1="537" x2="578" y1="593.3164" y2="593.3164"/><polygon fill="#181818" points="547,589.3164,537,593.3164,547,597.3164,543,593.3164" style="stroke:#181818;stroke-width:1.0;"/><text fill="#000000" font-family="sans-serif" font-size="13" font-weight="bold" lengthAdjust="spacing" textLength="14" x="543" y="575.0537">15</text><text fill="#000000" font-family="sans-serif" font-size="13" lengthAdjust="spacing" textLength="123" x="561" y="575.0537">selectedcollaborators</text><polygon fill="#181818" points="1055,620.6074,1065,624.6074,1055,628.6074,1059,624.6074" style="stroke:#181818;stroke-width:1.0;"/><line style="stroke:#181818;stroke-width:1.0;" x1="536" x2="1061" y1="624.6074" y2="624.6074"/><text fill="#000000" font-family="sans-serif" font-size="13" font-weight="bold" lengthAdjust="spacing" textLength="14" x="543" y="619.3447">16</text><text fill="#000000" font-family="sans-serif" font-size="13" lengthAdjust="spacing" textLength="72" x="561" y="619.3447">getSkillList()</text><polygon fill="#181818" points="1512,651.8984,1522,655.8984,1512,659.8984,1516,655.8984" style="stroke:#181818;stroke-width:1.0;"/><line style="stroke:#181818;stroke-width:1.0;" x1="1067" x2="1518" y1="655.8984" y2="655.8984"/><text fill="#000000" font-family="sans-serif" font-size="13" font-weight="bold" lengthAdjust="spacing" textLength="14" x="1074" y="650.6357">17</text><text fill="#000000" font-family="sans-serif" font-size="13" lengthAdjust="spacing" textLength="72" x="1092" y="650.6357">getSkillList()</text><polygon fill="#181818" points="1078,683.1895,1068,687.1895,1078,691.1895,1074,687.1895" style="stroke:#181818;stroke-width:1.0;"/><line style="stroke:#181818;stroke-width:1.0;" x1="1072" x2="1528" y1="687.1895" y2="687.1895"/><text fill="#000000" font-family="sans-serif" font-size="13" font-weight="bold" lengthAdjust="spacing" textLength="14" x="1084" y="681.9268">18</text><text fill="#000000" font-family="sans-serif" font-size="13" lengthAdjust="spacing" textLength="30" x="1102" y="681.9268">skills</text><polygon fill="#181818" points="547,714.4805,537,718.4805,547,722.4805,543,718.4805" style="stroke:#181818;stroke-width:1.0;"/><line style="stroke:#181818;stroke-width:1.0;" x1="541" x2="1066" y1="718.4805" y2="718.4805"/><text fill="#000000" font-family="sans-serif" font-size="13" font-weight="bold" lengthAdjust="spacing" textLength="14" x="553" y="713.2178">19</text><text fill="#000000" font-family="sans-serif" font-size="13" lengthAdjust="spacing" textLength="30" x="571" y="713.2178">skills</text><polygon fill="#181818" points="112,745.7715,102,749.7715,112,753.7715,108,749.7715" style="stroke:#181818;stroke-width:1.0;"/><line style="stroke:#181818;stroke-width:1.0;stroke-dasharray:2.0,2.0;" x1="106" x2="530" y1="749.7715" y2="749.7715"/><text fill="#000000" font-family="sans-serif" font-size="13" font-weight="bold" lengthAdjust="spacing" textLength="14" x="118" y="744.5088">20</text><text fill="#000000" font-family="sans-serif" font-size="13" lengthAdjust="spacing" textLength="339" x="136" y="744.5088">shows list of existing skills and asks to select one or more</text><polygon fill="#181818" points="514,777.0625,524,781.0625,514,785.0625,518,781.0625" style="stroke:#181818;stroke-width:1.0;"/><line style="stroke:#181818;stroke-width:1.0;" x1="101" x2="520" y1="781.0625" y2="781.0625"/><text fill="#000000" font-family="sans-serif" font-size="13" font-weight="bold" lengthAdjust="spacing" textLength="14" x="108" y="775.7998">21</text><text fill="#000000" font-family="sans-serif" font-size="13" lengthAdjust="spacing" textLength="84" x="126" y="775.7998">selects skill(s)</text><line style="stroke:#181818;stroke-width:1.0;" x1="536" x2="578" y1="812.3535" y2="812.3535"/><line style="stroke:#181818;stroke-width:1.0;" x1="578" x2="578" y1="812.3535" y2="825.3535"/><line style="stroke:#181818;stroke-width:1.0;" x1="537" x2="578" y1="825.3535" y2="825.3535"/><polygon fill="#181818" points="547,821.3535,537,825.3535,547,829.3535,543,825.3535" style="stroke:#181818;stroke-width:1.0;"/><text fill="#000000" font-family="sans-serif" font-size="13" font-weight="bold" lengthAdjust="spacing" textLength="14" x="543" y="807.0908">22</text><text fill="#000000" font-family="sans-serif" font-size="13" lengthAdjust="spacing" textLength="241" x="561" y="807.0908">add(skills.get(skillIndex).getName().trim())</text><line style="stroke:#181818;stroke-width:1.0;stroke-dasharray:2.0,2.0;" x1="536" x2="578" y1="856.6445" y2="856.6445"/><line style="stroke:#181818;stroke-width:1.0;stroke-dasharray:2.0,2.0;" x1="578" x2="578" y1="856.6445" y2="869.6445"/><line style="stroke:#181818;stroke-width:1.0;stroke-dasharray:2.0,2.0;" x1="537" x2="578" y1="869.6445" y2="869.6445"/><polygon fill="#181818" points="547,865.6445,537,869.6445,547,873.6445,543,869.6445" style="stroke:#181818;stroke-width:1.0;"/><text fill="#000000" font-family="sans-serif" font-size="13" font-weight="bold" lengthAdjust="spacing" textLength="14" x="543" y="851.3818">23</text><text fill="#000000" font-family="sans-serif" font-size="13" lengthAdjust="spacing" textLength="115" x="561" y="851.3818">selectedSkillNames</text><polygon fill="#181818" points="112,896.9355,102,900.9355,112,904.9355,108,900.9355" style="stroke:#181818;stroke-width:1.0;"/><line style="stroke:#181818;stroke-width:1.0;" x1="106" x2="525" y1="900.9355" y2="900.9355"/><text fill="#000000" font-family="sans-serif" font-size="13" font-weight="bold" lengthAdjust="spacing" textLength="14" x="118" y="895.6729">24</text><text fill="#000000" font-family="sans-serif" font-size="13" lengthAdjust="spacing" textLength="272" x="136" y="895.6729">shows selected data and requests confirmation</text><polygon fill="#181818" points="514,928.2266,524,932.2266,514,936.2266,518,932.2266" style="stroke:#181818;stroke-width:1.0;"/><line style="stroke:#181818;stroke-width:1.0;" x1="101" x2="520" y1="932.2266" y2="932.2266"/><text fill="#000000" font-family="sans-serif" font-size="13" font-weight="bold" lengthAdjust="spacing" textLength="14" x="108" y="926.9639">25</text><text fill="#000000" font-family="sans-serif" font-size="13" lengthAdjust="spacing" textLength="78" x="126" y="926.9639">confirms data</text><polygon fill="#181818" points="1050,959.5176,1060,963.5176,1050,967.5176,1054,963.5176" style="stroke:#181818;stroke-width:1.0;"/><line style="stroke:#181818;stroke-width:1.0;" x1="536" x2="1056" y1="963.5176" y2="963.5176"/><text fill="#000000" font-family="sans-serif" font-size="13" font-weight="bold" lengthAdjust="spacing" textLength="14" x="543" y="958.2549">26</text><text fill="#000000" font-family="sans-serif" font-size="13" lengthAdjust="spacing" textLength="489" x="561" y="958.2549">assignSkillsToCollaborator(selectedCollaborator.getIDNumber(), selectedSkillNames)</text><line style="stroke:#181818;stroke-width:1.0;" x1="1072" x2="1119" y1="1014.8086" y2="1014.8086"/><line style="stroke:#181818;stroke-width:1.0;" x1="1119" x2="1119" y1="1014.8086" y2="1027.8086"/><line style="stroke:#181818;stroke-width:1.0;" x1="1078" x2="1119" y1="1027.8086" y2="1027.8086"/><polygon fill="#181818" points="1088,1023.8086,1078,1027.8086,1088,1031.8086,1084,1027.8086" style="stroke:#181818;stroke-width:1.0;"/><text fill="#000000" font-family="sans-serif" font-size="13" font-weight="bold" lengthAdjust="spacing" textLength="14" x="1084" y="1009.5459">27</text><text fill="#000000" font-family="sans-serif" font-size="13" lengthAdjust="spacing" textLength="132" x="1102" y="1009.5459">getHRMFromSession()</text><polygon fill="#181818" points="1753,1060.0996,1763,1064.0996,1753,1068.0996,1757,1064.0996" style="stroke:#181818;stroke-width:1.0;"/><line style="stroke:#181818;stroke-width:1.0;" x1="1077" x2="1759" y1="1064.0996" y2="1064.0996"/><text fill="#000000" font-family="sans-serif" font-size="13" font-weight="bold" lengthAdjust="spacing" textLength="14" x="1084" y="1058.8369">28</text><text fill="#000000" font-family="sans-serif" font-size="13" lengthAdjust="spacing" textLength="75" x="1102" y="1058.8369">getInstance()</text><polygon fill="#181818" points="1088,1091.3906,1078,1095.3906,1088,1099.3906,1084,1095.3906" style="stroke:#181818;stroke-width:1.0;"/><line style="stroke:#181818;stroke-width:1.0;" x1="1082" x2="1769" y1="1095.3906" y2="1095.3906"/><text fill="#000000" font-family="sans-serif" font-size="13" font-weight="bold" lengthAdjust="spacing" textLength="14" x="1094" y="1090.1279">29</text><text fill="#000000" font-family="sans-serif" font-size="13" lengthAdjust="spacing" textLength="68" x="1112" y="1090.1279">appSession</text><polygon fill="#181818" points="1900,1122.6816,1910,1126.6816,1900,1130.6816,1904,1126.6816" style="stroke:#181818;stroke-width:1.0;"/><line style="stroke:#181818;stroke-width:1.0;" x1="1077" x2="1906" y1="1126.6816" y2="1126.6816"/><text fill="#000000" font-family="sans-serif" font-size="13" font-weight="bold" lengthAdjust="spacing" textLength="14" x="1084" y="1121.4189">30</text><text fill="#000000" font-family="sans-serif" font-size="13" lengthAdjust="spacing" textLength="115" x="1102" y="1121.4189">getCurrentSession()</text><polygon fill="#181818" points="1088,1153.9727,1078,1157.9727,1088,1161.9727,1084,1157.9727" style="stroke:#181818;stroke-width:1.0;"/><line style="stroke:#181818;stroke-width:1.0;stroke-dasharray:2.0,2.0;" x1="1082" x2="1916" y1="1157.9727" y2="1157.9727"/><text fill="#000000" font-family="sans-serif" font-size="13" font-weight="bold" lengthAdjust="spacing" textLength="14" x="1094" y="1152.71">31</text><text fill="#000000" font-family="sans-serif" font-size="13" lengthAdjust="spacing" textLength="87" x="1112" y="1152.71">currentSession</text><polygon fill="#181818" points="2033,1185.2637,2043,1189.2637,2033,1193.2637,2037,1189.2637" style="stroke:#181818;stroke-width:1.0;"/><line style="stroke:#181818;stroke-width:1.0;" x1="1077" x2="2039" y1="1189.2637" y2="1189.2637"/><text fill="#000000" font-family="sans-serif" font-size="13" font-weight="bold" lengthAdjust="spacing" textLength="14" x="1084" y="1184.001">32</text><text fill="#000000" font-family="sans-serif" font-size="13" lengthAdjust="spacing" textLength="133" x="1102" y="1184.001">email = getUserEmail()</text><polygon fill="#181818" points="1088,1216.5547,1078,1220.5547,1088,1224.5547,1084,1220.5547" style="stroke:#181818;stroke-width:1.0;"/><line style="stroke:#181818;stroke-width:1.0;stroke-dasharray:2.0,2.0;" x1="1082" x2="2049" y1="1220.5547" y2="1220.5547"/><text fill="#000000" font-family="sans-serif" font-size="13" font-weight="bold" lengthAdjust="spacing" textLength="14" x="1094" y="1215.292">33</text><text fill="#000000" font-family="sans-serif" font-size="13" lengthAdjust="spacing" textLength="31" x="1112" y="1215.292">email</text><polygon fill="#181818" points="1626,1247.8457,1636,1251.8457,1626,1255.8457,1630,1251.8457" style="stroke:#181818;stroke-width:1.0;"/><line style="stroke:#181818;stroke-width:1.0;" x1="1077" x2="1632" y1="1251.8457" y2="1251.8457"/><text fill="#000000" font-family="sans-serif" font-size="13" font-weight="bold" lengthAdjust="spacing" textLength="14" x="1084" y="1246.583">34</text><text fill="#000000" font-family="sans-serif" font-size="13" lengthAdjust="spacing" textLength="192" x="1102" y="1246.583">getOrganizationRepository(email)</text><polygon fill="#181818" points="1088,1279.1367,1078,1283.1367,1088,1287.1367,1084,1283.1367" style="stroke:#181818;stroke-width:1.0;"/><line style="stroke:#181818;stroke-width:1.0;stroke-dasharray:2.0,2.0;" x1="1082" x2="1642" y1="1283.1367" y2="1283.1367"/><text fill="#000000" font-family="sans-serif" font-size="13" font-weight="bold" lengthAdjust="spacing" textLength="14" x="1094" y="1277.874">35</text><text fill="#000000" font-family="sans-serif" font-size="13" lengthAdjust="spacing" textLength="132" x="1112" y="1277.874">organizationRepository</text><polygon fill="#181818" points="2179,1310.4277,2189,1314.4277,2179,1318.4277,2183,1314.4277" style="stroke:#181818;stroke-width:1.0;"/><line style="stroke:#181818;stroke-width:1.0;" x1="1077" x2="2185" y1="1314.4277" y2="1314.4277"/><text fill="#000000" font-family="sans-serif" font-size="13" font-weight="bold" lengthAdjust="spacing" textLength="14" x="1084" y="1309.165">36</text><text fill="#000000" font-family="sans-serif" font-size="13" lengthAdjust="spacing" textLength="208" x="1102" y="1309.165">getOrganizationByHRMEmail(email)</text><path d="M2104.5,1329.4277 L2177.5,1329.4277 L2177.5,1338.7188 L2167.5,1348.7188 L2104.5,1348.7188 L2104.5,1329.4277 " fill="#EEEEEE" style="stroke:#000000;stroke-width:1.5;"/><rect fill="none" height="81.873" style="stroke:#000000;stroke-width:1.5;" width="342.5" x="2104.5" y="1329.4277"/><text fill="#000000" font-family="sans-serif" font-size="13" font-weight="bold" lengthAdjust="spacing" textLength="28" x="2119.5" y="1344.4561">loop</text><text fill="#000000" font-family="sans-serif" font-size="11" font-weight="bold" lengthAdjust="spacing" textLength="128" x="2192.5" y="1343.2979">[[for each organization]</text><polygon fill="#181818" points="2371,1368.0098,2381,1372.0098,2371,1376.0098,2375,1372.0098" style="stroke:#181818;stroke-width:1.0;"/><line style="stroke:#181818;stroke-width:1.0;" x1="2201" x2="2377" y1="1372.0098" y2="1372.0098"/><text fill="#000000" font-family="sans-serif" font-size="13" font-weight="bold" lengthAdjust="spacing" textLength="14" x="2208" y="1366.7471">37</text><text fill="#000000" font-family="sans-serif" font-size="13" lengthAdjust="spacing" textLength="145" x="2226" y="1366.7471">anyHRMHasEmail(email)</text><polygon fill="#181818" points="2212,1399.3008,2202,1403.3008,2212,1407.3008,2208,1403.3008" style="stroke:#181818;stroke-width:1.0;"/><line style="stroke:#181818;stroke-width:1.0;stroke-dasharray:2.0,2.0;" x1="2206" x2="2387" y1="1403.3008" y2="1403.3008"/><text fill="#000000" font-family="sans-serif" font-size="13" font-weight="bold" lengthAdjust="spacing" textLength="14" x="2218" y="1398.0381">38</text><text fill="#000000" font-family="sans-serif" font-size="13" lengthAdjust="spacing" textLength="53" x="2236" y="1398.0381">true/false</text><polygon fill="#181818" points="1088,1437.5918,1078,1441.5918,1088,1445.5918,1084,1441.5918" style="stroke:#181818;stroke-width:1.0;"/><line style="stroke:#181818;stroke-width:1.0;stroke-dasharray:2.0,2.0;" x1="1082" x2="2195" y1="1441.5918" y2="1441.5918"/><text fill="#000000" font-family="sans-serif" font-size="13" font-weight="bold" lengthAdjust="spacing" textLength="14" x="1094" y="1436.3291">39</text><text fill="#000000" font-family="sans-serif" font-size="13" lengthAdjust="spacing" textLength="70" x="1112" y="1436.3291">organization</text><polygon fill="#181818" points="2371,1468.8828,2381,1472.8828,2371,1476.8828,2375,1472.8828" style="stroke:#181818;stroke-width:1.0;"/><line style="stroke:#181818;stroke-width:1.0;" x1="1077" x2="2377" y1="1472.8828" y2="1472.8828"/><text fill="#000000" font-family="sans-serif" font-size="13" font-weight="bold" lengthAdjust="spacing" textLength="14" x="1084" y="1467.6201">40</text><text fill="#000000" font-family="sans-serif" font-size="13" lengthAdjust="spacing" textLength="135" x="1102" y="1467.6201">getHRMByEmail(email)</text><polygon fill="#181818" points="1088,1500.1738,1078,1504.1738,1088,1508.1738,1084,1504.1738" style="stroke:#181818;stroke-width:1.0;"/><line style="stroke:#181818;stroke-width:1.0;stroke-dasharray:2.0,2.0;" x1="1082" x2="2387" y1="1504.1738" y2="1504.1738"/><text fill="#000000" font-family="sans-serif" font-size="13" font-weight="bold" lengthAdjust="spacing" textLength="14" x="1094" y="1498.9111">41</text><text fill="#000000" font-family="sans-serif" font-size="13" lengthAdjust="spacing" textLength="22" x="1112" y="1498.9111">hrm</text><line style="stroke:#181818;stroke-width:1.0;stroke-dasharray:2.0,2.0;" x1="1077" x2="1119" y1="1540.4648" y2="1540.4648"/><line style="stroke:#181818;stroke-width:1.0;stroke-dasharray:2.0,2.0;" x1="1119" x2="1119" y1="1540.4648" y2="1553.4648"/><line style="stroke:#181818;stroke-width:1.0;stroke-dasharray:2.0,2.0;" x1="1072" x2="1119" y1="1553.4648" y2="1553.4648"/><polygon fill="#181818" points="1082,1549.4648,1072,1553.4648,1082,1557.4648,1078,1553.4648" style="stroke:#181818;stroke-width:1.0;"/><text fill="#000000" font-family="sans-serif" font-size="13" font-weight="bold" lengthAdjust="spacing" textLength="14" x="1084" y="1535.2021">42</text><text fill="#000000" font-family="sans-serif" font-size="13" lengthAdjust="spacing" textLength="22" x="1102" y="1535.2021">hrm</text><polygon fill="#181818" points="2371,1600.7559,2381,1604.7559,2371,1608.7559,2375,1604.7559" style="stroke:#181818;stroke-width:1.0;"/><line style="stroke:#181818;stroke-width:1.0;" x1="1072" x2="2377" y1="1604.7559" y2="1604.7559"/><text fill="#000000" font-family="sans-serif" font-size="13" font-weight="bold" lengthAdjust="spacing" textLength="14" x="1079" y="1599.4932">43</text><text fill="#000000" font-family="sans-serif" font-size="13" lengthAdjust="spacing" textLength="489" x="1097" y="1599.4932">assignSkillsToCollaborator(selectedCollaborator.getIDNumber(), selectedSkillNames)</text><line style="stroke:#181818;stroke-width:1.0;" x1="2393" x2="2435" y1="1636.0469" y2="1636.0469"/><line style="stroke:#181818;stroke-width:1.0;" x1="2435" x2="2435" y1="1636.0469" y2="1649.0469"/><line style="stroke:#181818;stroke-width:1.0;" x1="2394" x2="2435" y1="1649.0469" y2="1649.0469"/><polygon fill="#181818" points="2404,1645.0469,2394,1649.0469,2404,1653.0469,2400,1649.0469" style="stroke:#181818;stroke-width:1.0;"/><text fill="#000000" font-family="sans-serif" font-size="13" font-weight="bold" lengthAdjust="spacing" textLength="14" x="2400" y="1630.7842">44</text><text fill="#000000" font-family="sans-serif" font-size="13" lengthAdjust="spacing" textLength="191" x="2418" y="1630.7842">validateSkill(selectedSkillNames)</text><line style="stroke:#181818;stroke-width:1.0;" x1="2393" x2="2435" y1="1680.3379" y2="1680.3379"/><line style="stroke:#181818;stroke-width:1.0;" x1="2435" x2="2435" y1="1680.3379" y2="1693.3379"/><line style="stroke:#181818;stroke-width:1.0;" x1="2394" x2="2435" y1="1693.3379" y2="1693.3379"/><polygon fill="#181818" points="2404,1689.3379,2394,1693.3379,2404,1697.3379,2400,1693.3379" style="stroke:#181818;stroke-width:1.0;"/><text fill="#000000" font-family="sans-serif" font-size="13" font-weight="bold" lengthAdjust="spacing" textLength="14" x="2400" y="1675.0752">45</text><text fill="#000000" font-family="sans-serif" font-size="13" lengthAdjust="spacing" textLength="199" x="2418" y="1675.0752">validateCollaborator(collaboratorID)</text><polygon fill="#181818" points="2617,1720.6289,2627,1724.6289,2617,1728.6289,2621,1724.6289" style="stroke:#181818;stroke-width:1.0;"/><line style="stroke:#181818;stroke-width:1.0;" x1="2393" x2="2623" y1="1724.6289" y2="1724.6289"/><text fill="#000000" font-family="sans-serif" font-size="13" font-weight="bold" lengthAdjust="spacing" textLength="14" x="2400" y="1719.3662">46</text><text fill="#000000" font-family="sans-serif" font-size="13" lengthAdjust="spacing" textLength="167" x="2418" y="1719.3662">addskill(selectedSkillNames)</text><polygon fill="#181818" points="1392.5,1751.9199,1382.5,1755.9199,1392.5,1759.9199,1388.5,1755.9199" style="stroke:#181818;stroke-width:1.0;"/><line style="stroke:#181818;stroke-width:1.0;" x1="1386.5" x2="2382" y1="1755.9199" y2="1755.9199"/><text fill="#000000" font-family="sans-serif" font-size="13" font-weight="bold" lengthAdjust="spacing" textLength="14" x="1398.5" y="1750.6572">47</text><text fill="#000000" font-family="sans-serif" font-size="13" lengthAdjust="spacing" textLength="183" x="1416.5" y="1750.6572">updateCollaborator(collaborator)</text><polygon fill="#181818" points="1083,1783.2109,1073,1787.2109,1083,1791.2109,1079,1787.2109" style="stroke:#181818;stroke-width:1.0;"/><line style="stroke:#181818;stroke-width:1.0;stroke-dasharray:2.0,2.0;" x1="1077" x2="2387" y1="1787.2109" y2="1787.2109"/><text fill="#000000" font-family="sans-serif" font-size="13" font-weight="bold" lengthAdjust="spacing" textLength="14" x="1089" y="1781.9482">48</text><text fill="#000000" font-family="sans-serif" font-size="13" lengthAdjust="spacing" textLength="119" x="1107" y="1781.9482">assignedcollaborator</text><polygon fill="#181818" points="547,1814.502,537,1818.502,547,1822.502,543,1818.502" style="stroke:#181818;stroke-width:1.0;"/><line style="stroke:#181818;stroke-width:1.0;stroke-dasharray:2.0,2.0;" x1="541" x2="1066" y1="1818.502" y2="1818.502"/><text fill="#000000" font-family="sans-serif" font-size="13" font-weight="bold" lengthAdjust="spacing" textLength="14" x="553" y="1813.2393">49</text><text fill="#000000" font-family="sans-serif" font-size="13" lengthAdjust="spacing" textLength="119" x="571" y="1813.2393">assignedcollaborator</text><polygon fill="#181818" points="107,1845.793,97,1849.793,107,1853.793,103,1849.793" style="stroke:#181818;stroke-width:1.0;"/><line style="stroke:#181818;stroke-width:1.0;stroke-dasharray:2.0,2.0;" x1="101" x2="530" y1="1849.793" y2="1849.793"/><text fill="#000000" font-family="sans-serif" font-size="13" font-weight="bold" lengthAdjust="spacing" textLength="14" x="113" y="1844.5303">50</text><text fill="#000000" font-family="sans-serif" font-size="13" lengthAdjust="spacing" textLength="158" x="131" y="1844.5303">displays operation success</text><!--SRC=[lLTBRziu4BxpLn2vn2ussRk1BU3ORM8WgGCfEMs11IFHDX69r99o6o_outSuUb4oARl5TdMn9Svyyyr3CoFpAcJ1DCjfhgHATbhbd9PwpubfJmgMlB8jZyj3ngdcISdaDdC5p8wbwhkGMxfXcU64i7sfv3v_uPgGovr8ETqeLRweDyAIKcbwSRVFcQGHDsgl4sxe0vDWGLzGPkXy-K00jnI9A9WiwSLiRepOolXLPDdp2cMULs6HXPAbLbbMmosUelk1SCGBPGGG4ToWJFlW40lh6x0Vg2G0o5wKPY2aM-clShPm3ZgOodBK1p6MNKyP-Gwque6MTiY2oX7tn_lvqp0OHP69X9L2oPX3O9H4oR_cZuzzILOKjG0W1xIEb98zH42MdUApuThLY3_5yNpTLr9wowJu1z4xXsTVvTfxW3Z-ep0kK75LAepebjYY4zzOoR6q2AqlkA5N7w6Kw0maNmqj5VpQCgACOgxm2NLJVzsfjw1GY-IIEXSWNW6mnP_1-_BtdflIq9ILZ4uao_cKkDANYUOM1kjq2FCH7t_u042L6Ec9KByyI6zvwQ_CoJICqBg4NC9opOMsmAOjmP-r6UI0TNsU7jhlVFU_g-T1fVn72Hm7OV1M_y_U3xhCV-1sLrX7ERuNfdJyQsAnY4v9TgKMTSOMKMV8JQ8X7fuznThky-eSnRQuUo-gsQdlXcP0aweDvM_mnqwq7XnbCcrxXU4Pp4Ag9ASmqdAbEHbOifrXs6agBTF3dPWgC4UANVIjPn3HYQicPChVfdt9MhIomjD-C4RJYbKRo6SS1KLQph6JZzX99DQZDn5n88DXZIfrP-Uk0lg9f950qX2mpjQ9PB4qdLJshstUyEyA4sRlly0Oc4olIotooNGyXHXqAs_pHreRhkEDQ3LZhBljr4cKt0YTuq0ySgi-h6QJWrqbZdKhbNbIYrwzrWRTXzQjrV8BRdsJwMyU_lsmERbihlVtT-9hhTrCkuiUFiEAMcyRWyvwOdmrQ7ODGh2LDB3A9jpJe5iet9by7TCUEB5g5oaoqbeHB4oiuRNeBLXZx13Fnmx9TRsq1pZ6q0lOTW7SwsQKvqnaz0zBrQv-d-pj6Cjw7_GIhSuShWW-Hh518sE36EFetnydQ664RdZqLfEsfUhVQSd9sHfaxYTyvClD0Lw3AkgdV0ciq5xlCgKA-kS6sY8GtlMy2ouHVdpq9RgrUxMqNE-O6QLxJDjkxQCBYuM_2eOCBDjlsD-hpz4pbXvhq2V2PKf-nE-kMOs6pxLyPeRQ6ebkcqvuSpYp24BHR89OKzxfd9o8KO1M6CExTvtgz-ZZhna_WUYCnAUcyurb0iOaZwiLu0Jw64BF5NT1MosFGMg0nVf-VhEEvijrXAk5EPj50m1w-sBK_DGJXK65L3dfhvM4d5ilRQtWVkI36giS_nVsZAR251ax6AeAhl4recQV933hV9kTE-kM3-HV]--></g></svg>