<?xml version="1.0" encoding="us-ascii" standalone="no"?><svg xmlns="http://www.w3.org/2000/svg" xmlns:xlink="http://www.w3.org/1999/xlink" contentStyleType="text/css" height="1143.8px" preserveAspectRatio="none" style="width:1438px;height:1143px;background:#FFFFFF;" version="1.1" viewBox="0 0 1438 1143" width="1438.5px" zoomAndPan="magnify"><defs/><g><rect fill="#FFFFFF" height="1007.6869" style="stroke:#181818;stroke-width:0.6999999999999998;" width="7" x="63.7" y="65.5348"/><rect fill="#FFFFFF" height="74.3422" style="stroke:#181818;stroke-width:0.6999999999999998;" width="7" x="363.3" y="81.8385"/><rect fill="#FFFFFF" height="132.8223" style="stroke:#181818;stroke-width:0.6999999999999998;" width="7" x="363.3" y="178.0844"/><rect fill="#FFFFFF" height="740.4113" style="stroke:#181818;stroke-width:0.6999999999999998;" width="7" x="363.3" y="332.8104"/><rect fill="#FFFFFF" height="65.7111" style="stroke:#181818;stroke-width:0.6999999999999998;" width="7" x="499.1" y="218.3918"/><rect fill="#FFFFFF" height="678.2002" style="stroke:#181818;stroke-width:0.6999999999999998;" width="7" x="499.1" y="373.1178"/><rect fill="#FFFFFF" height="359.5594" style="stroke:#181818;stroke-width:0.6999999999999998;" width="7" x="502.6" y="510.6363"/><rect fill="#FFFFFF" height="21.9037" style="stroke:#181818;stroke-width:0.6999999999999998;" width="7" x="716.1" y="667.4623"/><rect fill="#FFFFFF" height="21.9037" style="stroke:#181818;stroke-width:0.6999999999999998;" width="7" x="805" y="536.04"/><rect fill="#FFFFFF" height="21.9037" style="stroke:#181818;stroke-width:0.6999999999999998;" width="7" x="907.9" y="579.8475"/><rect fill="#FFFFFF" height="21.9037" style="stroke:#181818;stroke-width:0.6999999999999998;" width="7" x="1001" y="623.6549"/><rect fill="#FFFFFF" height="89.0148" style="stroke:#181818;stroke-width:0.6999999999999998;" width="7" x="1103.2" y="711.2697"/><rect fill="#FFFFFF" height="21.9037" style="stroke:#181818;stroke-width:0.6999999999999998;" width="7" x="1257.9" y="240.2955"/><rect fill="#FFFFFF" height="21.9037" style="stroke:#181818;stroke-width:0.6999999999999998;" width="7" x="1257.9" y="395.0215"/><rect fill="#FFFFFF" height="21.9037" style="stroke:#181818;stroke-width:0.6999999999999998;" width="7" x="1257.9" y="751.5771"/><rect fill="#FFFFFF" height="21.9037" style="stroke:#181818;stroke-width:0.6999999999999998;" width="7" x="1257.9" y="822.1883"/><rect fill="#FFFFFF" height="165.0223" style="stroke:#181818;stroke-width:0.6999999999999998;" width="7" x="1257.9" y="914.4994"/><rect fill="#FFFFFF" height="137.5186" style="stroke:#181818;stroke-width:0.6999999999999998;" width="7" x="1261.4" y="942.0031"/><rect fill="#FFFFFF" height="25.4037" style="stroke:#181818;stroke-width:0.6999999999999998;" width="7" x="1264.9" y="1004.0105"/><rect fill="none" height="101.1186" style="stroke:#000000;stroke-width:1.0499999999999998;" width="976.85" x="325.85" y="188.5844"/><rect fill="none" height="79.2148" style="stroke:#000000;stroke-width:1.0499999999999998;" width="976.85" x="325.85" y="343.3104"/><rect fill="none" height="57.3111" style="stroke:#000000;stroke-width:1.0499999999999998;" width="260.05" x="1042.65" y="721.7697"/><line style="stroke:#181818;stroke-width:0.3499999999999999;stroke-dasharray:5.0,5.0;" x1="67.2" x2="67.2" y1="58.5348" y2="1085.8217"/><line style="stroke:#181818;stroke-width:0.3499999999999999;stroke-dasharray:5.0,5.0;" x1="366.45" x2="366.45" y1="58.5348" y2="1085.8217"/><line style="stroke:#181818;stroke-width:0.3499999999999999;stroke-dasharray:5.0,5.0;" x1="502.25" x2="502.25" y1="109.7059" y2="1085.8217"/><line style="stroke:#181818;stroke-width:0.3499999999999999;stroke-dasharray:5.0,5.0;" x1="644.35" x2="644.35" y1="58.5348" y2="1085.8217"/><line style="stroke:#181818;stroke-width:0.3499999999999999;stroke-dasharray:5.0,5.0;" x1="719.25" x2="719.25" y1="58.5348" y2="1085.8217"/><line style="stroke:#181818;stroke-width:0.3499999999999999;stroke-dasharray:5.0,5.0;" x1="808.15" x2="808.15" y1="58.5348" y2="1085.8217"/><line style="stroke:#181818;stroke-width:0.3499999999999999;stroke-dasharray:5.0,5.0;" x1="911.05" x2="911.05" y1="58.5348" y2="1085.8217"/><line style="stroke:#181818;stroke-width:0.3499999999999999;stroke-dasharray:5.0,5.0;" x1="1004.15" x2="1004.15" y1="58.5348" y2="1085.8217"/><line style="stroke:#181818;stroke-width:0.3499999999999999;stroke-dasharray:5.0,5.0;" x1="1106.35" x2="1106.35" y1="58.5348" y2="1085.8217"/><line style="stroke:#181818;stroke-width:0.3499999999999999;stroke-dasharray:5.0,5.0;" x1="1261.4" x2="1261.4" y1="58.5348" y2="1085.8217"/><text fill="#000000" font-family="sans-serif" font-size="9.8" lengthAdjust="spacing" textLength="123.2" x="3.5" y="56.0752">Human Resources Manager</text><ellipse cx="67.2" cy="9.45" fill="#E3E3E3" rx="5.6" ry="5.6" style="stroke:#181818;stroke-width:0.3499999999999999;"/><path d="M67.2,15.05 L67.2,33.95 M58.1,20.65 L76.3,20.65 M67.2,33.95 L58.1,44.45 M67.2,33.95 L76.3,44.45 " fill="none" style="stroke:#181818;stroke-width:0.3499999999999999;"/><text fill="#000000" font-family="sans-serif" font-size="9.8" lengthAdjust="spacing" textLength="123.2" x="3.5" y="1095.6969">Human Resources Manager</text><ellipse cx="67.2" cy="1104.1064" fill="#E3E3E3" rx="5.6" ry="5.6" style="stroke:#181818;stroke-width:0.3499999999999999;"/><path d="M67.2,1109.7064 L67.2,1128.6064 M58.1,1115.3064 L76.3,1115.3064 M67.2,1128.6064 L58.1,1139.1064 M67.2,1128.6064 L76.3,1139.1064 " fill="none" style="stroke:#181818;stroke-width:0.3499999999999999;"/><rect fill="#E3E3E3" height="22.8348" rx="1.75" ry="1.75" style="stroke:#181818;stroke-width:0.3499999999999999;" width="67.9" x="332.85" y="35"/><text fill="#000000" font-family="sans-serif" font-size="9.8" lengthAdjust="spacing" textLength="58.1" x="337.75" y="50.4752">:AssignSkillUI</text><rect fill="#E3E3E3" height="22.8348" rx="1.75" ry="1.75" style="stroke:#181818;stroke-width:0.3499999999999999;" width="67.9" x="332.85" y="1085.1217"/><text fill="#000000" font-family="sans-serif" font-size="9.8" lengthAdjust="spacing" textLength="58.1" x="337.75" y="1100.5969">:AssignSkillUI</text><rect fill="#E3E3E3" height="22.8348" rx="1.75" ry="1.75" style="stroke:#181818;stroke-width:0.3499999999999999;" width="102.9" x="451.15" y="1085.1217"/><text fill="#000000" font-family="sans-serif" font-size="9.8" lengthAdjust="spacing" textLength="93.1" x="456.05" y="1100.5969">:AssignSkillController</text><rect fill="#E3E3E3" height="22.8348" rx="1.75" ry="1.75" style="stroke:#181818;stroke-width:0.3499999999999999;" width="67.9" x="610.75" y="35"/><text fill="#000000" font-family="sans-serif" font-size="9.8" lengthAdjust="spacing" textLength="58.1" x="615.65" y="50.4752">:Repositories</text><rect fill="#E3E3E3" height="22.8348" rx="1.75" ry="1.75" style="stroke:#181818;stroke-width:0.3499999999999999;" width="67.9" x="610.75" y="1085.1217"/><text fill="#000000" font-family="sans-serif" font-size="9.8" lengthAdjust="spacing" textLength="58.1" x="615.65" y="1100.5969">:Repositories</text><rect fill="#E3E3E3" height="35.8695" rx="1.75" ry="1.75" style="stroke:#181818;stroke-width:0.3499999999999999;" width="67.9" x="685.65" y="21.9652"/><text fill="#000000" font-family="sans-serif" font-size="9.8" lengthAdjust="spacing" textLength="51.8" x="693.7" y="37.4404">repositories</text><text fill="#000000" font-family="sans-serif" font-size="9.8" lengthAdjust="spacing" textLength="58.1" x="690.55" y="50.4752">:Repositories</text><rect fill="#E3E3E3" height="35.8695" rx="1.75" ry="1.75" style="stroke:#181818;stroke-width:0.3499999999999999;" width="67.9" x="685.65" y="1085.1217"/><text fill="#000000" font-family="sans-serif" font-size="9.8" lengthAdjust="spacing" textLength="51.8" x="693.7" y="1100.5969">repositories</text><text fill="#000000" font-family="sans-serif" font-size="9.8" lengthAdjust="spacing" textLength="58.1" x="690.55" y="1113.6316">:Repositories</text><rect fill="#E3E3E3" height="22.8348" rx="1.75" ry="1.75" style="stroke:#181818;stroke-width:0.3499999999999999;" width="95.9" x="760.55" y="35"/><text fill="#000000" font-family="sans-serif" font-size="9.8" lengthAdjust="spacing" textLength="86.1" x="765.45" y="50.4752">:ApplicationSession</text><rect fill="#E3E3E3" height="22.8348" rx="1.75" ry="1.75" style="stroke:#181818;stroke-width:0.3499999999999999;" width="95.9" x="760.55" y="1085.1217"/><text fill="#000000" font-family="sans-serif" font-size="9.8" lengthAdjust="spacing" textLength="86.1" x="765.45" y="1100.5969">:ApplicationSession</text><rect fill="#E3E3E3" height="35.8695" rx="1.75" ry="1.75" style="stroke:#181818;stroke-width:0.3499999999999999;" width="95.9" x="863.45" y="21.9652"/><text fill="#000000" font-family="sans-serif" font-size="9.8" lengthAdjust="spacing" textLength="51.8" x="885.5" y="37.4404">appSession</text><text fill="#000000" font-family="sans-serif" font-size="9.8" lengthAdjust="spacing" textLength="86.1" x="868.35" y="50.4752">:ApplicationSession</text><rect fill="#E3E3E3" height="35.8695" rx="1.75" ry="1.75" style="stroke:#181818;stroke-width:0.3499999999999999;" width="95.9" x="863.45" y="1085.1217"/><text fill="#000000" font-family="sans-serif" font-size="9.8" lengthAdjust="spacing" textLength="51.8" x="885.5" y="1100.5969">appSession</text><text fill="#000000" font-family="sans-serif" font-size="9.8" lengthAdjust="spacing" textLength="86.1" x="868.35" y="1113.6316">:ApplicationSession</text><rect fill="#E3E3E3" height="35.8695" rx="1.75" ry="1.75" style="stroke:#181818;stroke-width:0.3499999999999999;" width="76.3" x="966.35" y="21.9652"/><text fill="#000000" font-family="sans-serif" font-size="9.8" lengthAdjust="spacing" textLength="66.5" x="971.25" y="37.4404">currentSession</text><text fill="#000000" font-family="sans-serif" font-size="9.8" lengthAdjust="spacing" textLength="58.1" x="975.45" y="50.4752">:UserSession</text><rect fill="#E3E3E3" height="35.8695" rx="1.75" ry="1.75" style="stroke:#181818;stroke-width:0.3499999999999999;" width="76.3" x="966.35" y="1085.1217"/><text fill="#000000" font-family="sans-serif" font-size="9.8" lengthAdjust="spacing" textLength="66.5" x="971.25" y="1100.5969">currentSession</text><text fill="#000000" font-family="sans-serif" font-size="9.8" lengthAdjust="spacing" textLength="58.1" x="975.45" y="1113.6316">:UserSession</text><rect fill="#E3E3E3" height="35.8695" rx="1.75" ry="1.75" style="stroke:#181818;stroke-width:0.3499999999999999;" width="114.1" x="1049.65" y="21.9652"/><text fill="#000000" font-family="sans-serif" font-size="9.8" lengthAdjust="spacing" textLength="104.3" x="1054.55" y="37.4404">organizationRepository:</text><text fill="#000000" font-family="sans-serif" font-size="9.8" lengthAdjust="spacing" textLength="103.6" x="1054.9" y="50.4752">OrganizationRepository</text><rect fill="#E3E3E3" height="35.8695" rx="1.75" ry="1.75" style="stroke:#181818;stroke-width:0.3499999999999999;" width="114.1" x="1049.65" y="1085.1217"/><text fill="#000000" font-family="sans-serif" font-size="9.8" lengthAdjust="spacing" textLength="104.3" x="1054.55" y="1100.5969">organizationRepository:</text><text fill="#000000" font-family="sans-serif" font-size="9.8" lengthAdjust="spacing" textLength="103.6" x="1054.9" y="1113.6316">OrganizationRepository</text><rect fill="#E3E3E3" height="35.8695" rx="1.75" ry="1.75" style="stroke:#181818;stroke-width:0.3499999999999999;" width="68.6" x="1227.1" y="21.9652"/><text fill="#000000" font-family="sans-serif" font-size="9.8" lengthAdjust="spacing" textLength="53.9" x="1234.45" y="37.4404">organization</text><text fill="#000000" font-family="sans-serif" font-size="9.8" lengthAdjust="spacing" textLength="58.8" x="1232" y="50.4752">:Organization</text><rect fill="#E3E3E3" height="35.8695" rx="1.75" ry="1.75" style="stroke:#181818;stroke-width:0.3499999999999999;" width="68.6" x="1227.1" y="1085.1217"/><text fill="#000000" font-family="sans-serif" font-size="9.8" lengthAdjust="spacing" textLength="53.9" x="1234.45" y="1100.5969">organization</text><text fill="#000000" font-family="sans-serif" font-size="9.8" lengthAdjust="spacing" textLength="58.8" x="1232" y="1113.6316">:Organization</text><rect fill="#FFFFFF" height="1007.6869" style="stroke:#181818;stroke-width:0.6999999999999998;" width="7" x="63.7" y="65.5348"/><rect fill="#FFFFFF" height="74.3422" style="stroke:#181818;stroke-width:0.6999999999999998;" width="7" x="363.3" y="81.8385"/><rect fill="#FFFFFF" height="132.8223" style="stroke:#181818;stroke-width:0.6999999999999998;" width="7" x="363.3" y="178.0844"/><rect fill="#FFFFFF" height="740.4113" style="stroke:#181818;stroke-width:0.6999999999999998;" width="7" x="363.3" y="332.8104"/><rect fill="#FFFFFF" height="65.7111" style="stroke:#181818;stroke-width:0.6999999999999998;" width="7" x="499.1" y="218.3918"/><rect fill="#FFFFFF" height="678.2002" style="stroke:#181818;stroke-width:0.6999999999999998;" width="7" x="499.1" y="373.1178"/><rect fill="#FFFFFF" height="359.5594" style="stroke:#181818;stroke-width:0.6999999999999998;" width="7" x="502.6" y="510.6363"/><rect fill="#FFFFFF" height="21.9037" style="stroke:#181818;stroke-width:0.6999999999999998;" width="7" x="716.1" y="667.4623"/><rect fill="#FFFFFF" height="21.9037" style="stroke:#181818;stroke-width:0.6999999999999998;" width="7" x="805" y="536.04"/><rect fill="#FFFFFF" height="21.9037" style="stroke:#181818;stroke-width:0.6999999999999998;" width="7" x="907.9" y="579.8475"/><rect fill="#FFFFFF" height="21.9037" style="stroke:#181818;stroke-width:0.6999999999999998;" width="7" x="1001" y="623.6549"/><rect fill="#FFFFFF" height="89.0148" style="stroke:#181818;stroke-width:0.6999999999999998;" width="7" x="1103.2" y="711.2697"/><rect fill="#FFFFFF" height="21.9037" style="stroke:#181818;stroke-width:0.6999999999999998;" width="7" x="1257.9" y="240.2955"/><rect fill="#FFFFFF" height="21.9037" style="stroke:#181818;stroke-width:0.6999999999999998;" width="7" x="1257.9" y="395.0215"/><rect fill="#FFFFFF" height="21.9037" style="stroke:#181818;stroke-width:0.6999999999999998;" width="7" x="1257.9" y="751.5771"/><rect fill="#FFFFFF" height="21.9037" style="stroke:#181818;stroke-width:0.6999999999999998;" width="7" x="1257.9" y="822.1883"/><rect fill="#FFFFFF" height="165.0223" style="stroke:#181818;stroke-width:0.6999999999999998;" width="7" x="1257.9" y="914.4994"/><rect fill="#FFFFFF" height="137.5186" style="stroke:#181818;stroke-width:0.6999999999999998;" width="7" x="1261.4" y="942.0031"/><rect fill="#FFFFFF" height="25.4037" style="stroke:#181818;stroke-width:0.6999999999999998;" width="7" x="1264.9" y="1004.0105"/><polygon fill="#181818" points="354.9,79.0385,361.9,81.8385,354.9,84.6385,357.7,81.8385" style="stroke:#181818;stroke-width:0.6999999999999998;"/><line style="stroke:#181818;stroke-width:0.6999999999999998;" x1="70.7" x2="359.1" y1="81.8385" y2="81.8385"/><text fill="#000000" font-family="sans-serif" font-size="9.1" font-weight="bold" lengthAdjust="spacing" textLength="4.9" x="75.6" y="78.1546">1</text><text fill="#000000" font-family="sans-serif" font-size="9.1" lengthAdjust="spacing" textLength="156.8" x="83.3" y="78.1546">asks to assign a skill to a collaborator.</text><polygon fill="#181818" points="442.75,100.9422,449.75,103.7422,442.75,106.5422,445.55,103.7422" style="stroke:#181818;stroke-width:0.6999999999999998;"/><line style="stroke:#181818;stroke-width:0.6999999999999998;" x1="370.3" x2="446.95" y1="103.7422" y2="103.7422"/><text fill="#000000" font-family="sans-serif" font-size="9.1" font-weight="bold" lengthAdjust="spacing" textLength="4.9" x="375.2" y="100.0583">2</text><text fill="#000000" font-family="sans-serif" font-size="9.1" lengthAdjust="spacing" textLength="25.2" x="382.9" y="100.0583">create</text><rect fill="#E3E3E3" height="22.8348" rx="1.75" ry="1.75" style="stroke:#181818;stroke-width:0.3499999999999999;" width="102.9" x="451.15" y="87.4385"/><text fill="#000000" font-family="sans-serif" font-size="9.8" lengthAdjust="spacing" textLength="93.1" x="456.05" y="102.9137">:AssignSkillController</text><polygon fill="#181818" points="494.2,131.477,501.2,134.277,494.2,137.077,497,134.277" style="stroke:#181818;stroke-width:0.6999999999999998;"/><line style="stroke:#181818;stroke-width:0.6999999999999998;" x1="370.3" x2="498.4" y1="134.277" y2="134.277"/><text fill="#000000" font-family="sans-serif" font-size="9.1" font-weight="bold" lengthAdjust="spacing" textLength="4.9" x="375.2" y="130.5931">3</text><text fill="#000000" font-family="sans-serif" font-size="9.1" lengthAdjust="spacing" textLength="92.4" x="382.9" y="130.5931">showColabboratorList()</text><polygon fill="#181818" points="78.4,153.3807,71.4,156.1807,78.4,158.9807,75.6,156.1807" style="stroke:#181818;stroke-width:0.6999999999999998;"/><line style="stroke:#181818;stroke-width:0.6999999999999998;stroke-dasharray:2.0,2.0;" x1="74.2" x2="366.1" y1="156.1807" y2="156.1807"/><text fill="#000000" font-family="sans-serif" font-size="9.1" font-weight="bold" lengthAdjust="spacing" textLength="4.9" x="82.6" y="152.4968">4</text><text fill="#000000" font-family="sans-serif" font-size="9.1" lengthAdjust="spacing" textLength="268.1" x="90.3" y="152.4968">shows list of existing collaborators and asks to select one or more</text><polygon fill="#181818" points="354.9,175.2844,361.9,178.0844,354.9,180.8844,357.7,178.0844" style="stroke:#181818;stroke-width:0.6999999999999998;"/><line style="stroke:#181818;stroke-width:0.6999999999999998;" x1="70.7" x2="359.1" y1="178.0844" y2="178.0844"/><text fill="#000000" font-family="sans-serif" font-size="9.1" font-weight="bold" lengthAdjust="spacing" textLength="4.9" x="75.6" y="174.4005">5</text><text fill="#000000" font-family="sans-serif" font-size="9.1" lengthAdjust="spacing" textLength="89.6" x="83.3" y="174.4005">selects collaborator(s)</text><path d="M325.85,188.5844 L430.85,188.5844 L430.85,195.0881 L423.85,202.0881 L325.85,202.0881 L325.85,188.5844 " fill="#EEEEEE" style="stroke:#000000;stroke-width:1.0499999999999998;"/><rect fill="none" height="101.1186" style="stroke:#000000;stroke-width:1.0499999999999998;" width="976.85" x="325.85" y="188.5844"/><text fill="#000000" font-family="sans-serif" font-size="9.1" font-weight="bold" lengthAdjust="spacing" textLength="73.5" x="336.35" y="199.1042">Get Collaborator</text><polygon fill="#181818" points="490.7,215.5918,497.7,218.3918,490.7,221.1918,493.5,218.3918" style="stroke:#181818;stroke-width:0.6999999999999998;"/><line style="stroke:#181818;stroke-width:0.6999999999999998;" x1="370.3" x2="494.9" y1="218.3918" y2="218.3918"/><text fill="#000000" font-family="sans-serif" font-size="9.1" font-weight="bold" lengthAdjust="spacing" textLength="4.9" x="375.2" y="214.7079">6</text><text fill="#000000" font-family="sans-serif" font-size="9.1" lengthAdjust="spacing" textLength="107.8" x="382.9" y="214.7079">getCollaborator(ID number)</text><polygon fill="#181818" points="1249.5,237.4955,1256.5,240.2955,1249.5,243.0955,1252.3,240.2955" style="stroke:#181818;stroke-width:0.6999999999999998;"/><line style="stroke:#181818;stroke-width:0.6999999999999998;" x1="506.1" x2="1253.7" y1="240.2955" y2="240.2955"/><text fill="#000000" font-family="sans-serif" font-size="9.1" font-weight="bold" lengthAdjust="spacing" textLength="4.9" x="511" y="236.6116">7</text><text fill="#000000" font-family="sans-serif" font-size="9.1" lengthAdjust="spacing" textLength="107.8" x="518.7" y="236.6116">getCollaborator(ID number)</text><polygon fill="#181818" points="513.8,259.3992,506.8,262.1992,513.8,264.9992,511,262.1992" style="stroke:#181818;stroke-width:0.6999999999999998;"/><line style="stroke:#181818;stroke-width:0.6999999999999998;" x1="509.6" x2="1260.7" y1="262.1992" y2="262.1992"/><text fill="#000000" font-family="sans-serif" font-size="9.1" font-weight="bold" lengthAdjust="spacing" textLength="4.9" x="518" y="258.5153">8</text><text fill="#000000" font-family="sans-serif" font-size="9.1" lengthAdjust="spacing" textLength="46.9" x="525.7" y="258.5153">collaborator</text><polygon fill="#181818" points="494.2,281.3029,501.2,284.1029,494.2,286.9029,497,284.1029" style="stroke:#181818;stroke-width:0.6999999999999998;"/><line style="stroke:#181818;stroke-width:0.6999999999999998;" x1="370.3" x2="498.4" y1="284.1029" y2="284.1029"/><text fill="#000000" font-family="sans-serif" font-size="9.1" font-weight="bold" lengthAdjust="spacing" textLength="4.9" x="375.2" y="280.419">9</text><text fill="#000000" font-family="sans-serif" font-size="9.1" lengthAdjust="spacing" textLength="58.8" x="382.9" y="280.419">showSkillList()</text><polygon fill="#181818" points="78.4,308.1066,71.4,310.9066,78.4,313.7066,75.6,310.9066" style="stroke:#181818;stroke-width:0.6999999999999998;"/><line style="stroke:#181818;stroke-width:0.6999999999999998;stroke-dasharray:2.0,2.0;" x1="74.2" x2="366.1" y1="310.9066" y2="310.9066"/><text fill="#000000" font-family="sans-serif" font-size="9.1" font-weight="bold" lengthAdjust="spacing" textLength="9.8" x="82.6" y="307.2228">10</text><text fill="#000000" font-family="sans-serif" font-size="9.1" lengthAdjust="spacing" textLength="237.3" x="95.2" y="307.2228">shows list of existing skills and asks to select one or more</text><polygon fill="#181818" points="354.9,330.0104,361.9,332.8104,354.9,335.6104,357.7,332.8104" style="stroke:#181818;stroke-width:0.6999999999999998;"/><line style="stroke:#181818;stroke-width:0.6999999999999998;" x1="70.7" x2="359.1" y1="332.8104" y2="332.8104"/><text fill="#000000" font-family="sans-serif" font-size="9.1" font-weight="bold" lengthAdjust="spacing" textLength="9.8" x="75.6" y="329.1265">11</text><text fill="#000000" font-family="sans-serif" font-size="9.1" lengthAdjust="spacing" textLength="58.8" x="88.2" y="329.1265">selects skill(s)</text><path d="M325.85,343.3104 L395.15,343.3104 L395.15,349.8141 L388.15,356.8141 L325.85,356.8141 L325.85,343.3104 " fill="#EEEEEE" style="stroke:#000000;stroke-width:1.0499999999999998;"/><rect fill="none" height="79.2148" style="stroke:#000000;stroke-width:1.0499999999999998;" width="976.85" x="325.85" y="343.3104"/><text fill="#000000" font-family="sans-serif" font-size="9.1" font-weight="bold" lengthAdjust="spacing" textLength="37.8" x="336.35" y="353.8302">Get Skill</text><polygon fill="#181818" points="490.7,370.3178,497.7,373.1178,490.7,375.9178,493.5,373.1178" style="stroke:#181818;stroke-width:0.6999999999999998;"/><line style="stroke:#181818;stroke-width:0.6999999999999998;" x1="370.3" x2="494.9" y1="373.1178" y2="373.1178"/><text fill="#000000" font-family="sans-serif" font-size="9.1" font-weight="bold" lengthAdjust="spacing" textLength="9.8" x="375.2" y="369.4339">12</text><text fill="#000000" font-family="sans-serif" font-size="9.1" lengthAdjust="spacing" textLength="74.2" x="387.8" y="369.4339">getSkill(skillname)</text><polygon fill="#181818" points="1249.5,392.2215,1256.5,395.0215,1249.5,397.8215,1252.3,395.0215" style="stroke:#181818;stroke-width:0.6999999999999998;"/><line style="stroke:#181818;stroke-width:0.6999999999999998;" x1="506.1" x2="1253.7" y1="395.0215" y2="395.0215"/><text fill="#000000" font-family="sans-serif" font-size="9.1" font-weight="bold" lengthAdjust="spacing" textLength="9.8" x="511" y="391.3376">13</text><text fill="#000000" font-family="sans-serif" font-size="9.1" lengthAdjust="spacing" textLength="74.2" x="523.6" y="391.3376">getSkill(skillname)</text><polygon fill="#181818" points="513.8,414.1252,506.8,416.9252,513.8,419.7252,511,416.9252" style="stroke:#181818;stroke-width:0.6999999999999998;"/><line style="stroke:#181818;stroke-width:0.6999999999999998;" x1="509.6" x2="1260.7" y1="416.9252" y2="416.9252"/><text fill="#000000" font-family="sans-serif" font-size="9.1" font-weight="bold" lengthAdjust="spacing" textLength="9.8" x="518" y="413.2413">14</text><text fill="#000000" font-family="sans-serif" font-size="9.1" lengthAdjust="spacing" textLength="16.1" x="530.6" y="413.2413">skill</text><polygon fill="#181818" points="78.4,440.9289,71.4,443.7289,78.4,446.5289,75.6,443.7289" style="stroke:#181818;stroke-width:0.6999999999999998;"/><line style="stroke:#181818;stroke-width:0.6999999999999998;" x1="74.2" x2="362.6" y1="443.7289" y2="443.7289"/><text fill="#000000" font-family="sans-serif" font-size="9.1" font-weight="bold" lengthAdjust="spacing" textLength="9.8" x="82.6" y="440.045">15</text><text fill="#000000" font-family="sans-serif" font-size="9.1" lengthAdjust="spacing" textLength="190.4" x="95.2" y="440.045">shows selected data and requests confirmation</text><polygon fill="#181818" points="354.9,462.8326,361.9,465.6326,354.9,468.4326,357.7,465.6326" style="stroke:#181818;stroke-width:0.6999999999999998;"/><line style="stroke:#181818;stroke-width:0.6999999999999998;" x1="70.7" x2="359.1" y1="465.6326" y2="465.6326"/><text fill="#000000" font-family="sans-serif" font-size="9.1" font-weight="bold" lengthAdjust="spacing" textLength="9.8" x="75.6" y="461.9487">16</text><text fill="#000000" font-family="sans-serif" font-size="9.1" lengthAdjust="spacing" textLength="54.6" x="88.2" y="461.9487">confirms data</text><line style="stroke:#181818;stroke-width:0.6999999999999998;" x1="506.1" x2="539" y1="501.5363" y2="501.5363"/><line style="stroke:#181818;stroke-width:0.6999999999999998;" x1="539" x2="539" y1="501.5363" y2="510.6363"/><line style="stroke:#181818;stroke-width:0.6999999999999998;" x1="510.3" x2="539" y1="510.6363" y2="510.6363"/><polygon fill="#181818" points="517.3,507.8363,510.3,510.6363,517.3,513.4363,514.5,510.6363" style="stroke:#181818;stroke-width:0.6999999999999998;"/><text fill="#000000" font-family="sans-serif" font-size="9.1" font-weight="bold" lengthAdjust="spacing" textLength="9.8" x="514.5" y="497.8524">17</text><text fill="#000000" font-family="sans-serif" font-size="9.1" lengthAdjust="spacing" textLength="112.7" x="527.1" y="497.8524">getEmployeeFromSession()</text><polygon fill="#181818" points="796.6,533.24,803.6,536.04,796.6,538.84,799.4,536.04" style="stroke:#181818;stroke-width:0.6999999999999998;"/><line style="stroke:#181818;stroke-width:0.6999999999999998;" x1="509.6" x2="800.8" y1="536.04" y2="536.04"/><text fill="#000000" font-family="sans-serif" font-size="9.1" font-weight="bold" lengthAdjust="spacing" textLength="9.8" x="514.5" y="532.3562">18</text><text fill="#000000" font-family="sans-serif" font-size="9.1" lengthAdjust="spacing" textLength="52.5" x="527.1" y="532.3562">getInstance()</text><polygon fill="#181818" points="517.3,555.1437,510.3,557.9437,517.3,560.7437,514.5,557.9437" style="stroke:#181818;stroke-width:0.6999999999999998;"/><line style="stroke:#181818;stroke-width:0.6999999999999998;" x1="513.1" x2="807.8" y1="557.9437" y2="557.9437"/><text fill="#000000" font-family="sans-serif" font-size="9.1" font-weight="bold" lengthAdjust="spacing" textLength="9.8" x="521.5" y="554.2599">19</text><text fill="#000000" font-family="sans-serif" font-size="9.1" lengthAdjust="spacing" textLength="47.6" x="534.1" y="554.2599">appSession</text><polygon fill="#181818" points="899.5,577.0475,906.5,579.8475,899.5,582.6475,902.3,579.8475" style="stroke:#181818;stroke-width:0.6999999999999998;"/><line style="stroke:#181818;stroke-width:0.6999999999999998;" x1="509.6" x2="903.7" y1="579.8475" y2="579.8475"/><text fill="#000000" font-family="sans-serif" font-size="9.1" font-weight="bold" lengthAdjust="spacing" textLength="9.8" x="514.5" y="576.1636">20</text><text fill="#000000" font-family="sans-serif" font-size="9.1" lengthAdjust="spacing" textLength="80.5" x="527.1" y="576.1636">getCurrentSession()</text><polygon fill="#181818" points="517.3,598.9512,510.3,601.7512,517.3,604.5512,514.5,601.7512" style="stroke:#181818;stroke-width:0.6999999999999998;"/><line style="stroke:#181818;stroke-width:0.6999999999999998;stroke-dasharray:2.0,2.0;" x1="513.1" x2="910.7" y1="601.7512" y2="601.7512"/><text fill="#000000" font-family="sans-serif" font-size="9.1" font-weight="bold" lengthAdjust="spacing" textLength="9.8" x="521.5" y="598.0673">21</text><text fill="#000000" font-family="sans-serif" font-size="9.1" lengthAdjust="spacing" textLength="60.9" x="534.1" y="598.0673">currentSession</text><polygon fill="#181818" points="992.6,620.8549,999.6,623.6549,992.6,626.4549,995.4,623.6549" style="stroke:#181818;stroke-width:0.6999999999999998;"/><line style="stroke:#181818;stroke-width:0.6999999999999998;" x1="509.6" x2="996.8" y1="623.6549" y2="623.6549"/><text fill="#000000" font-family="sans-serif" font-size="9.1" font-weight="bold" lengthAdjust="spacing" textLength="9.8" x="514.5" y="619.971">22</text><text fill="#000000" font-family="sans-serif" font-size="9.1" lengthAdjust="spacing" textLength="93.1" x="527.1" y="619.971">email = getUserEmail()</text><polygon fill="#181818" points="517.3,642.7586,510.3,645.5586,517.3,648.3586,514.5,645.5586" style="stroke:#181818;stroke-width:0.6999999999999998;"/><line style="stroke:#181818;stroke-width:0.6999999999999998;stroke-dasharray:2.0,2.0;" x1="513.1" x2="1003.8" y1="645.5586" y2="645.5586"/><text fill="#000000" font-family="sans-serif" font-size="9.1" font-weight="bold" lengthAdjust="spacing" textLength="9.8" x="521.5" y="641.8747">23</text><text fill="#000000" font-family="sans-serif" font-size="9.1" lengthAdjust="spacing" textLength="21.7" x="534.1" y="641.8747">email</text><polygon fill="#181818" points="707.7,664.6623,714.7,667.4623,707.7,670.2623,710.5,667.4623" style="stroke:#181818;stroke-width:0.6999999999999998;"/><line style="stroke:#181818;stroke-width:0.6999999999999998;" x1="509.6" x2="711.9" y1="667.4623" y2="667.4623"/><text fill="#000000" font-family="sans-serif" font-size="9.1" font-weight="bold" lengthAdjust="spacing" textLength="9.8" x="514.5" y="663.7784">24</text><text fill="#000000" font-family="sans-serif" font-size="9.1" lengthAdjust="spacing" textLength="134.4" x="527.1" y="663.7784">getOrganizationRepository(email)</text><polygon fill="#181818" points="517.3,686.566,510.3,689.366,517.3,692.166,514.5,689.366" style="stroke:#181818;stroke-width:0.6999999999999998;"/><line style="stroke:#181818;stroke-width:0.6999999999999998;stroke-dasharray:2.0,2.0;" x1="513.1" x2="718.9" y1="689.366" y2="689.366"/><text fill="#000000" font-family="sans-serif" font-size="9.1" font-weight="bold" lengthAdjust="spacing" textLength="9.8" x="521.5" y="685.6821">25</text><text fill="#000000" font-family="sans-serif" font-size="9.1" lengthAdjust="spacing" textLength="92.4" x="534.1" y="685.6821">organizationRepository</text><polygon fill="#181818" points="1094.8,708.4697,1101.8,711.2697,1094.8,714.0697,1097.6,711.2697" style="stroke:#181818;stroke-width:0.6999999999999998;"/><line style="stroke:#181818;stroke-width:0.6999999999999998;" x1="509.6" x2="1099" y1="711.2697" y2="711.2697"/><text fill="#000000" font-family="sans-serif" font-size="9.1" font-weight="bold" lengthAdjust="spacing" textLength="9.8" x="514.5" y="707.5858">26</text><text fill="#000000" font-family="sans-serif" font-size="9.1" lengthAdjust="spacing" textLength="165.9" x="527.1" y="707.5858">getOrganizationByEmployeeEmail(email)</text><path d="M1042.65,721.7697 L1093.75,721.7697 L1093.75,728.2734 L1086.75,735.2734 L1042.65,735.2734 L1042.65,721.7697 " fill="#EEEEEE" style="stroke:#000000;stroke-width:1.0499999999999998;"/><rect fill="none" height="57.3111" style="stroke:#000000;stroke-width:1.0499999999999998;" width="260.05" x="1042.65" y="721.7697"/><text fill="#000000" font-family="sans-serif" font-size="9.1" font-weight="bold" lengthAdjust="spacing" textLength="19.6" x="1053.15" y="732.2896">loop</text><text fill="#000000" font-family="sans-serif" font-size="7.7" font-weight="bold" lengthAdjust="spacing" textLength="89.6" x="1104.25" y="731.4788">[[for each organization]</text><polygon fill="#181818" points="1249.5,748.7771,1256.5,751.5771,1249.5,754.3771,1252.3,751.5771" style="stroke:#181818;stroke-width:0.6999999999999998;"/><line style="stroke:#181818;stroke-width:0.6999999999999998;" x1="1110.2" x2="1253.7" y1="751.5771" y2="751.5771"/><text fill="#000000" font-family="sans-serif" font-size="9.1" font-weight="bold" lengthAdjust="spacing" textLength="9.8" x="1115.1" y="747.8933">27</text><text fill="#000000" font-family="sans-serif" font-size="9.1" lengthAdjust="spacing" textLength="121.8" x="1127.7" y="747.8933">anyEmployeeHasEmail(email)</text><polygon fill="#181818" points="1117.9,770.6809,1110.9,773.4809,1117.9,776.2809,1115.1,773.4809" style="stroke:#181818;stroke-width:0.6999999999999998;"/><line style="stroke:#181818;stroke-width:0.6999999999999998;stroke-dasharray:2.0,2.0;" x1="1113.7" x2="1260.7" y1="773.4809" y2="773.4809"/><text fill="#000000" font-family="sans-serif" font-size="9.1" font-weight="bold" lengthAdjust="spacing" textLength="9.8" x="1122.1" y="769.797">28</text><text fill="#000000" font-family="sans-serif" font-size="9.1" lengthAdjust="spacing" textLength="37.1" x="1134.7" y="769.797">true/false</text><polygon fill="#181818" points="517.3,797.4846,510.3,800.2846,517.3,803.0846,514.5,800.2846" style="stroke:#181818;stroke-width:0.6999999999999998;"/><line style="stroke:#181818;stroke-width:0.6999999999999998;stroke-dasharray:2.0,2.0;" x1="513.1" x2="1106" y1="800.2846" y2="800.2846"/><text fill="#000000" font-family="sans-serif" font-size="9.1" font-weight="bold" lengthAdjust="spacing" textLength="9.8" x="521.5" y="796.6007">29</text><text fill="#000000" font-family="sans-serif" font-size="9.1" lengthAdjust="spacing" textLength="49" x="534.1" y="796.6007">organization</text><polygon fill="#181818" points="1249.5,819.3883,1256.5,822.1883,1249.5,824.9883,1252.3,822.1883" style="stroke:#181818;stroke-width:0.6999999999999998;"/><line style="stroke:#181818;stroke-width:0.6999999999999998;" x1="509.6" x2="1253.7" y1="822.1883" y2="822.1883"/><text fill="#000000" font-family="sans-serif" font-size="9.1" font-weight="bold" lengthAdjust="spacing" textLength="9.8" x="514.5" y="818.5044">30</text><text fill="#000000" font-family="sans-serif" font-size="9.1" lengthAdjust="spacing" textLength="114.8" x="527.1" y="818.5044">getEmployeeByEmail(email)</text><polygon fill="#181818" points="517.3,841.292,510.3,844.092,517.3,846.892,514.5,844.092" style="stroke:#181818;stroke-width:0.6999999999999998;"/><line style="stroke:#181818;stroke-width:0.6999999999999998;stroke-dasharray:2.0,2.0;" x1="513.1" x2="1260.7" y1="844.092" y2="844.092"/><text fill="#000000" font-family="sans-serif" font-size="9.1" font-weight="bold" lengthAdjust="spacing" textLength="9.8" x="521.5" y="840.4081">31</text><text fill="#000000" font-family="sans-serif" font-size="9.1" lengthAdjust="spacing" textLength="39.2" x="534.1" y="840.4081">employee</text><line style="stroke:#181818;stroke-width:0.6999999999999998;stroke-dasharray:2.0,2.0;" x1="509.6" x2="539" y1="869.4957" y2="869.4957"/><line style="stroke:#181818;stroke-width:0.6999999999999998;stroke-dasharray:2.0,2.0;" x1="539" x2="539" y1="869.4957" y2="878.5957"/><line style="stroke:#181818;stroke-width:0.6999999999999998;stroke-dasharray:2.0,2.0;" x1="506.1" x2="539" y1="878.5957" y2="878.5957"/><polygon fill="#181818" points="513.1,875.7957,506.1,878.5957,513.1,881.3957,510.3,878.5957" style="stroke:#181818;stroke-width:0.6999999999999998;"/><text fill="#000000" font-family="sans-serif" font-size="9.1" font-weight="bold" lengthAdjust="spacing" textLength="9.8" x="514.5" y="865.8118">32</text><text fill="#000000" font-family="sans-serif" font-size="9.1" lengthAdjust="spacing" textLength="39.2" x="527.1" y="865.8118">employee</text><polygon fill="#181818" points="1249.5,911.6994,1256.5,914.4994,1249.5,917.2994,1252.3,914.4994" style="stroke:#181818;stroke-width:0.6999999999999998;"/><line style="stroke:#181818;stroke-width:0.6999999999999998;" x1="506.1" x2="1253.7" y1="914.4994" y2="914.4994"/><text fill="#000000" font-family="sans-serif" font-size="9.1" font-weight="bold" lengthAdjust="spacing" textLength="9.8" x="511" y="910.8155">33</text><text fill="#000000" font-family="sans-serif" font-size="9.1" lengthAdjust="spacing" textLength="135.1" x="523.6" y="910.8155">assignSkill(ID number, skillname)</text><line style="stroke:#181818;stroke-width:0.6999999999999998;" x1="1264.9" x2="1297.8" y1="932.9031" y2="932.9031"/><line style="stroke:#181818;stroke-width:0.6999999999999998;" x1="1297.8" x2="1297.8" y1="932.9031" y2="942.0031"/><line style="stroke:#181818;stroke-width:0.6999999999999998;" x1="1269.1" x2="1297.8" y1="942.0031" y2="942.0031"/><polygon fill="#181818" points="1276.1,939.2031,1269.1,942.0031,1276.1,944.8031,1273.3,942.0031" style="stroke:#181818;stroke-width:0.6999999999999998;"/><text fill="#000000" font-family="sans-serif" font-size="9.1" font-weight="bold" lengthAdjust="spacing" textLength="9.8" x="1273.3" y="929.2192">34</text><text fill="#000000" font-family="sans-serif" font-size="9.1" lengthAdjust="spacing" textLength="147.7" x="1285.9" y="929.2192">saveChanges (ID number, skillname)</text><line style="stroke:#181818;stroke-width:0.6999999999999998;" x1="1268.4" x2="1297.8" y1="967.4068" y2="967.4068"/><line style="stroke:#181818;stroke-width:0.6999999999999998;" x1="1297.8" x2="1297.8" y1="967.4068" y2="976.5068"/><line style="stroke:#181818;stroke-width:0.6999999999999998;" x1="1269.1" x2="1297.8" y1="976.5068" y2="976.5068"/><polygon fill="#181818" points="1276.1,973.7068,1269.1,976.5068,1276.1,979.3068,1273.3,976.5068" style="stroke:#181818;stroke-width:0.6999999999999998;"/><text fill="#000000" font-family="sans-serif" font-size="9.1" font-weight="bold" lengthAdjust="spacing" textLength="9.8" x="1273.3" y="963.7229">35</text><text fill="#000000" font-family="sans-serif" font-size="9.1" lengthAdjust="spacing" textLength="125.3" x="1285.9" y="963.7229">validateCollaborator(ID number)</text><line style="stroke:#181818;stroke-width:0.6999999999999998;" x1="1268.4" x2="1301.3" y1="994.9105" y2="994.9105"/><line style="stroke:#181818;stroke-width:0.6999999999999998;" x1="1301.3" x2="1301.3" y1="994.9105" y2="1004.0105"/><line style="stroke:#181818;stroke-width:0.6999999999999998;" x1="1272.6" x2="1301.3" y1="1004.0105" y2="1004.0105"/><polygon fill="#181818" points="1279.6,1001.2105,1272.6,1004.0105,1279.6,1006.8105,1276.8,1004.0105" style="stroke:#181818;stroke-width:0.6999999999999998;"/><text fill="#000000" font-family="sans-serif" font-size="9.1" font-weight="bold" lengthAdjust="spacing" textLength="9.8" x="1276.8" y="991.2267">36</text><text fill="#000000" font-family="sans-serif" font-size="9.1" lengthAdjust="spacing" textLength="91.7" x="1289.4" y="991.2267">validateSkill(skillname)</text><polygon fill="#181818" points="513.8,1026.6143,506.8,1029.4143,513.8,1032.2143,511,1029.4143" style="stroke:#181818;stroke-width:0.6999999999999998;"/><line style="stroke:#181818;stroke-width:0.6999999999999998;stroke-dasharray:2.0,2.0;" x1="509.6" x2="1260.7" y1="1029.4143" y2="1029.4143"/><text fill="#000000" font-family="sans-serif" font-size="9.1" font-weight="bold" lengthAdjust="spacing" textLength="9.8" x="518" y="1025.7304">37</text><text fill="#000000" font-family="sans-serif" font-size="9.1" lengthAdjust="spacing" textLength="83.3" x="530.6" y="1025.7304">assignedcollaborator</text><polygon fill="#181818" points="378,1048.518,371,1051.318,378,1054.118,375.2,1051.318" style="stroke:#181818;stroke-width:0.6999999999999998;"/><line style="stroke:#181818;stroke-width:0.6999999999999998;stroke-dasharray:2.0,2.0;" x1="373.8" x2="501.9" y1="1051.318" y2="1051.318"/><text fill="#000000" font-family="sans-serif" font-size="9.1" font-weight="bold" lengthAdjust="spacing" textLength="9.8" x="382.2" y="1047.6341">38</text><text fill="#000000" font-family="sans-serif" font-size="9.1" lengthAdjust="spacing" textLength="83.3" x="394.8" y="1047.6341">assignedcollaborator</text><polygon fill="#181818" points="74.9,1070.4217,67.9,1073.2217,74.9,1076.0217,72.1,1073.2217" style="stroke:#181818;stroke-width:0.6999999999999998;"/><line style="stroke:#181818;stroke-width:0.6999999999999998;stroke-dasharray:2.0,2.0;" x1="70.7" x2="366.1" y1="1073.2217" y2="1073.2217"/><text fill="#000000" font-family="sans-serif" font-size="9.1" font-weight="bold" lengthAdjust="spacing" textLength="9.8" x="79.1" y="1069.5378">39</text><text fill="#000000" font-family="sans-serif" font-size="9.1" lengthAdjust="spacing" textLength="110.6" x="91.7" y="1069.5378">displays operation success</text><!--SRC=[dLV1Rjiu4BthAmQvn2asktS3My1rqzH0YWPnSsg01IEDRI8IgIMfj5xautT8oH8fax9R7H9Bd7byyuQS8VKB5pLJh89A2fdlbAmGZ6emq_r8pV8NjiMrsPS82dF3nBRq3VIE5V875rlOi59Zbh76ID5KpwYox7B72uIDbEPP_inORgI2YyzDnGGye9QDob735oPe1dK1JCFYuvUCS0tFUSs4WOlvGck-5UiNNfQFAsVpk4gRBAKmIfPb1xVyzd0tCdx0McfEH3XgPzD_sA-vZOtOXoxAytWInm3tTujlOqPrNVAS6Ix56ecT5CxodyNzVMZ9whep8EI4rv5JtYY5mWoEZngLxx6-MQyNNqCdgRPCyFyS-X3o_4byZGuudFXG6fUe-2ujniDjPZFFNvb1bzyCkeTUuFezvHFcPFcYmKZwRtC93BHDf_i2EIMKFKl5QFO_1_SUb1P4TWdUGuZN16pnvxHe_srG6mq5CmncWbLubVdMbxb22-CMonZclVlyxXq1jMO9Ypbj1FbZAOben_IEQpExobg-0IDhgQ6aSP0Rm9_qm-uVFqmDJ1IzA1fBsdaW1G9je4ggbaM1WGHZILil7U3ET1lxaUDMoQQ6MpImzCm7iOT82NcBnhUQhJv2k-ElZfCJgDh_S404IAlZ5_7iUZg2ip03FJ_WtiGJoot9Q60sCwwETCcBEFVne2ZEJgrRpB-HKnjZbaYhm-poEKxda4qNJJgDwnR4_Wqtng_cxpJG6ObpxbCPwpJF-aXyrLjXi6WtkjMwt_gv51kkAbUL3W2-fjruMoDwrVldxUqjU3z4F-XuKzMbt2D-eXxQLU9PM6L2GOCX7zAs28Uu4ffwROuZc03AzHE8F7PWg4n3apaozZHsO6bY1rxBeFbCiNDuCNQENCykx6PJ3AE01tvjpvi3LeoNyBUbQjlYZNsTOjdroYZHTipZwi2dA1xGaZJjOS7f6E-jCpV315rts8YIjICUrNY_d-BUGYUPnmaVnV9XVzWBhVId0agSCQ8XbbBMy7r3zP9Oxu8Ge_QkmaJnXzh5H4_uCzEJdACbBMarrBUaU3IzFMx_rPwSKnYZEXWpEVIYSuCVQjUaXlxCPwR9Qmn1ORJBugpba9Bqe6J76plSx8HQ2O8dWCRz_gnku49cmrraECRy0P76c6oEezxeO3LxnUMExbvqNqhWPjEY9ZNjPdXb9QVkXwSEOgVyamU1TBgp4xbkDSKYZvvCJoMzJ_ZZAW4rbVdujM8E1TTroVOQP8tAxGhGJKxNMHqxcljDZ6v0_mC0]--></g></svg>