<?xml version="1.0" encoding="us-ascii" standalone="no"?><svg xmlns="http://www.w3.org/2000/svg" xmlns:xlink="http://www.w3.org/1999/xlink" contentStyleType="text/css" height="845px" preserveAspectRatio="none" style="width:1569px;height:845px;background:#FFFFFF;" version="1.1" viewBox="0 0 1569 845" width="1569px" zoomAndPan="magnify"><defs/><g><!--class ApplicationSession--><g id="elem_ApplicationSession"><rect codeLine="11" fill="#F1F1F1" height="85.2422" id="ApplicationSession" rx="2.5" ry="2.5" style="stroke:#181818;stroke-width:0.5;" width="151" x="84" y="266.7627"/><ellipse cx="99" cy="282.7627" fill="#ADD1B2" rx="11" ry="11" style="stroke:#181818;stroke-width:1.0;"/><path d="M101.7656,278.6377 Q101.9219,278.4189 102.1094,278.3096 Q102.2969,278.2002 102.5156,278.2002 Q102.8906,278.2002 103.125,278.4658 Q103.3594,278.7158 103.3594,279.3252 L103.3594,280.7783 Q103.3594,281.3877 103.125,281.6533 Q102.8906,281.9189 102.5156,281.9189 Q102.1719,281.9189 101.9688,281.7158 Q101.7656,281.5283 101.6563,281.0127 Q101.6094,280.6533 101.4219,280.4658 Q101.0938,280.0908 100.4844,279.8721 Q99.875,279.6533 99.25,279.6533 Q98.4844,279.6533 97.8438,279.9814 Q97.2188,280.3096 96.7188,281.0596 Q96.2344,281.8096 96.2344,282.8408 L96.2344,283.9346 Q96.2344,285.1689 97.125,285.9971 Q98.0156,286.8096 99.6094,286.8096 Q100.5469,286.8096 101.2031,286.5596 Q101.5938,286.4033 102.0156,285.9658 Q102.2813,285.7002 102.4219,285.6221 Q102.5781,285.5439 102.7813,285.5439 Q103.1094,285.5439 103.3594,285.8096 Q103.625,286.0596 103.625,286.4033 Q103.625,286.7471 103.2813,287.1533 Q102.7813,287.7314 101.9844,288.0596 Q100.9063,288.5127 99.6094,288.5127 Q98.0938,288.5127 96.8906,287.8877 Q95.9063,287.3877 95.2188,286.3252 Q94.5313,285.2471 94.5313,283.9658 L94.5313,282.8096 Q94.5313,281.4814 95.1406,280.3408 Q95.7656,279.1846 96.8594,278.5752 Q97.9531,277.9502 99.1875,277.9502 Q99.9219,277.9502 100.5625,278.1221 Q101.2188,278.2783 101.7656,278.6377 Z " fill="#000000"/><text fill="#000000" font-family="sans-serif" font-size="14" lengthAdjust="spacing" textLength="119" x="113" y="288.5596">ApplicationSession</text><line style="stroke:#181818;stroke-width:0.5;" x1="85" x2="234" y1="298.7627" y2="298.7627"/><line style="stroke:#181818;stroke-width:0.5;" x1="85" x2="234" y1="306.7627" y2="306.7627"/><text fill="#000000" font-family="sans-serif" font-size="14" lengthAdjust="spacing" textLength="128" x="90" y="325.8701">+static getInstance()</text><text fill="#000000" font-family="sans-serif" font-size="14" lengthAdjust="spacing" textLength="136" x="90" y="344.4912">+getCurrentSession()</text></g><!--class UserSession--><g id="elem_UserSession"><rect codeLine="17" fill="#F1F1F1" height="66.6211" id="UserSession" rx="2.5" ry="2.5" style="stroke:#181818;stroke-width:0.5;" width="113" x="7" y="551.7627"/><ellipse cx="22.9" cy="567.7627" fill="#ADD1B2" rx="11" ry="11" style="stroke:#181818;stroke-width:1.0;"/><path d="M25.6656,563.6377 Q25.8219,563.4189 26.0094,563.3096 Q26.1969,563.2002 26.4156,563.2002 Q26.7906,563.2002 27.025,563.4658 Q27.2594,563.7158 27.2594,564.3252 L27.2594,565.7783 Q27.2594,566.3877 27.025,566.6533 Q26.7906,566.9189 26.4156,566.9189 Q26.0719,566.9189 25.8688,566.7158 Q25.6656,566.5283 25.5563,566.0127 Q25.5094,565.6533 25.3219,565.4658 Q24.9938,565.0908 24.3844,564.8721 Q23.775,564.6533 23.15,564.6533 Q22.3844,564.6533 21.7438,564.9814 Q21.1188,565.3096 20.6188,566.0596 Q20.1344,566.8096 20.1344,567.8408 L20.1344,568.9346 Q20.1344,570.1689 21.025,570.9971 Q21.9156,571.8096 23.5094,571.8096 Q24.4469,571.8096 25.1031,571.5596 Q25.4938,571.4033 25.9156,570.9658 Q26.1813,570.7002 26.3219,570.6221 Q26.4781,570.5439 26.6813,570.5439 Q27.0094,570.5439 27.2594,570.8096 Q27.525,571.0596 27.525,571.4033 Q27.525,571.7471 27.1813,572.1533 Q26.6813,572.7314 25.8844,573.0596 Q24.8063,573.5127 23.5094,573.5127 Q21.9938,573.5127 20.7906,572.8877 Q19.8063,572.3877 19.1188,571.3252 Q18.4313,570.2471 18.4313,568.9658 L18.4313,567.8096 Q18.4313,566.4814 19.0406,565.3408 Q19.6656,564.1846 20.7594,563.5752 Q21.8531,562.9502 23.0875,562.9502 Q23.8219,562.9502 24.4625,563.1221 Q25.1188,563.2783 25.6656,563.6377 Z " fill="#000000"/><text fill="#000000" font-family="sans-serif" font-size="14" lengthAdjust="spacing" textLength="79" x="37.1" y="573.5596">UserSession</text><line style="stroke:#181818;stroke-width:0.5;" x1="8" x2="119" y1="583.7627" y2="583.7627"/><line style="stroke:#181818;stroke-width:0.5;" x1="8" x2="119" y1="591.7627" y2="591.7627"/><text fill="#000000" font-family="sans-serif" font-size="14" lengthAdjust="spacing" textLength="101" x="13" y="610.8701">+getUserEmail()</text></g><!--class VehicleFleetManager--><g id="elem_VehicleFleetManager"><rect codeLine="22" fill="#F1F1F1" height="103.8633" id="VehicleFleetManager" rx="2.5" ry="2.5" style="stroke:#181818;stroke-width:0.5;" width="166" x="1396.5" y="55.7627"/><ellipse cx="1411.5" cy="71.7627" fill="#ADD1B2" rx="11" ry="11" style="stroke:#181818;stroke-width:1.0;"/><path d="M1414.2656,67.6377 Q1414.4219,67.4189 1414.6094,67.3096 Q1414.7969,67.2002 1415.0156,67.2002 Q1415.3906,67.2002 1415.625,67.4658 Q1415.8594,67.7158 1415.8594,68.3252 L1415.8594,69.7783 Q1415.8594,70.3877 1415.625,70.6533 Q1415.3906,70.9189 1415.0156,70.9189 Q1414.6719,70.9189 1414.4688,70.7158 Q1414.2656,70.5283 1414.1563,70.0127 Q1414.1094,69.6533 1413.9219,69.4658 Q1413.5938,69.0908 1412.9844,68.8721 Q1412.375,68.6533 1411.75,68.6533 Q1410.9844,68.6533 1410.3438,68.9814 Q1409.7188,69.3096 1409.2188,70.0596 Q1408.7344,70.8096 1408.7344,71.8408 L1408.7344,72.9346 Q1408.7344,74.1689 1409.625,74.9971 Q1410.5156,75.8096 1412.1094,75.8096 Q1413.0469,75.8096 1413.7031,75.5596 Q1414.0938,75.4033 1414.5156,74.9658 Q1414.7813,74.7002 1414.9219,74.6221 Q1415.0781,74.5439 1415.2813,74.5439 Q1415.6094,74.5439 1415.8594,74.8096 Q1416.125,75.0596 1416.125,75.4033 Q1416.125,75.7471 1415.7813,76.1533 Q1415.2813,76.7314 1414.4844,77.0596 Q1413.4063,77.5127 1412.1094,77.5127 Q1410.5938,77.5127 1409.3906,76.8877 Q1408.4063,76.3877 1407.7188,75.3252 Q1407.0313,74.2471 1407.0313,72.9658 L1407.0313,71.8096 Q1407.0313,70.4814 1407.6406,69.3408 Q1408.2656,68.1846 1409.3594,67.5752 Q1410.4531,66.9502 1411.6875,66.9502 Q1412.4219,66.9502 1413.0625,67.1221 Q1413.7188,67.2783 1414.2656,67.6377 Z " fill="#000000"/><text fill="#000000" font-family="sans-serif" font-size="14" lengthAdjust="spacing" textLength="134" x="1425.5" y="77.5596">VehicleFleetManager</text><line style="stroke:#181818;stroke-width:0.5;" x1="1397.5" x2="1561.5" y1="87.7627" y2="87.7627"/><text fill="#000000" font-family="sans-serif" font-size="14" lengthAdjust="spacing" textLength="81" x="1402.5" y="106.8701">-String name</text><text fill="#000000" font-family="sans-serif" font-size="14" lengthAdjust="spacing" textLength="79" x="1402.5" y="125.4912">-String email</text><text fill="#000000" font-family="sans-serif" font-size="14" lengthAdjust="spacing" textLength="86" x="1402.5" y="144.1123">-String phone</text><line style="stroke:#181818;stroke-width:0.5;" x1="1397.5" x2="1561.5" y1="151.626" y2="151.626"/></g><!--class Vehicle--><g id="elem_Vehicle"><rect codeLine="28" fill="#F1F1F1" height="252.832" id="Vehicle" rx="2.5" ry="2.5" style="stroke:#181818;stroke-width:0.5;" width="218" x="258.5" y="458.7627"/><ellipse cx="340.25" cy="474.7627" fill="#ADD1B2" rx="11" ry="11" style="stroke:#181818;stroke-width:1.0;"/><path d="M343.0156,470.6377 Q343.1719,470.4189 343.3594,470.3096 Q343.5469,470.2002 343.7656,470.2002 Q344.1406,470.2002 344.375,470.4658 Q344.6094,470.7158 344.6094,471.3252 L344.6094,472.7783 Q344.6094,473.3877 344.375,473.6533 Q344.1406,473.9189 343.7656,473.9189 Q343.4219,473.9189 343.2188,473.7158 Q343.0156,473.5283 342.9063,473.0127 Q342.8594,472.6533 342.6719,472.4658 Q342.3438,472.0908 341.7344,471.8721 Q341.125,471.6533 340.5,471.6533 Q339.7344,471.6533 339.0938,471.9814 Q338.4688,472.3096 337.9688,473.0596 Q337.4844,473.8096 337.4844,474.8408 L337.4844,475.9346 Q337.4844,477.1689 338.375,477.9971 Q339.2656,478.8096 340.8594,478.8096 Q341.7969,478.8096 342.4531,478.5596 Q342.8438,478.4033 343.2656,477.9658 Q343.5313,477.7002 343.6719,477.6221 Q343.8281,477.5439 344.0313,477.5439 Q344.3594,477.5439 344.6094,477.8096 Q344.875,478.0596 344.875,478.4033 Q344.875,478.7471 344.5313,479.1533 Q344.0313,479.7314 343.2344,480.0596 Q342.1563,480.5127 340.8594,480.5127 Q339.3438,480.5127 338.1406,479.8877 Q337.1563,479.3877 336.4688,478.3252 Q335.7813,477.2471 335.7813,475.9658 L335.7813,474.8096 Q335.7813,473.4814 336.3906,472.3408 Q337.0156,471.1846 338.1094,470.5752 Q339.2031,469.9502 340.4375,469.9502 Q341.1719,469.9502 341.8125,470.1221 Q342.4688,470.2783 343.0156,470.6377 Z " fill="#000000"/><text fill="#000000" font-family="sans-serif" font-size="14" lengthAdjust="spacing" textLength="46" x="360.75" y="480.5596">Vehicle</text><line style="stroke:#181818;stroke-width:0.5;" x1="259.5" x2="475.5" y1="490.7627" y2="490.7627"/><text fill="#000000" font-family="sans-serif" font-size="14" lengthAdjust="spacing" textLength="83" x="264.5" y="509.8701">-String brand</text><text fill="#000000" font-family="sans-serif" font-size="14" lengthAdjust="spacing" textLength="84" x="264.5" y="528.4912">-String model</text><text fill="#000000" font-family="sans-serif" font-size="14" lengthAdjust="spacing" textLength="73" x="264.5" y="547.1123">-String type</text><text fill="#000000" font-family="sans-serif" font-size="14" lengthAdjust="spacing" textLength="123" x="264.5" y="565.7334">-Double tareWeight</text><text fill="#000000" font-family="sans-serif" font-size="14" lengthAdjust="spacing" textLength="133" x="264.5" y="584.3545">-Double grossWeight</text><text fill="#000000" font-family="sans-serif" font-size="14" lengthAdjust="spacing" textLength="89" x="264.5" y="602.9756">-Int currentKm</text><text fill="#000000" font-family="sans-serif" font-size="14" lengthAdjust="spacing" textLength="151" x="264.5" y="621.5967">-LocalDate registerDate</text><text fill="#000000" font-family="sans-serif" font-size="14" lengthAdjust="spacing" textLength="170" x="264.5" y="640.2178">-LocalDate acquisitionDate</text><text fill="#000000" font-family="sans-serif" font-size="14" lengthAdjust="spacing" textLength="173" x="264.5" y="658.8389">-Int maintenanceFrequency</text><text fill="#000000" font-family="sans-serif" font-size="14" lengthAdjust="spacing" textLength="113" x="264.5" y="677.46">-String plateName</text><text fill="#000000" font-family="sans-serif" font-size="14" lengthAdjust="spacing" textLength="206" x="264.5" y="696.0811">-LocalDate lastMaintenanceDate</text><line style="stroke:#181818;stroke-width:0.5;" x1="259.5" x2="475.5" y1="703.5947" y2="703.5947"/></g><!--class Organization--><g id="elem_Organization"><rect codeLine="42" fill="#F1F1F1" height="234.2109" id="Organization" rx="2.5" ry="2.5" style="stroke:#181818;stroke-width:0.5;" width="447" x="854" y="468.2627"/><ellipse cx="1033.25" cy="484.2627" fill="#ADD1B2" rx="11" ry="11" style="stroke:#181818;stroke-width:1.0;"/><path d="M1036.0156,480.1377 Q1036.1719,479.9189 1036.3594,479.8096 Q1036.5469,479.7002 1036.7656,479.7002 Q1037.1406,479.7002 1037.375,479.9658 Q1037.6094,480.2158 1037.6094,480.8252 L1037.6094,482.2783 Q1037.6094,482.8877 1037.375,483.1533 Q1037.1406,483.4189 1036.7656,483.4189 Q1036.4219,483.4189 1036.2188,483.2158 Q1036.0156,483.0283 1035.9063,482.5127 Q1035.8594,482.1533 1035.6719,481.9658 Q1035.3438,481.5908 1034.7344,481.3721 Q1034.125,481.1533 1033.5,481.1533 Q1032.7344,481.1533 1032.0938,481.4814 Q1031.4688,481.8096 1030.9688,482.5596 Q1030.4844,483.3096 1030.4844,484.3408 L1030.4844,485.4346 Q1030.4844,486.6689 1031.375,487.4971 Q1032.2656,488.3096 1033.8594,488.3096 Q1034.7969,488.3096 1035.4531,488.0596 Q1035.8438,487.9033 1036.2656,487.4658 Q1036.5313,487.2002 1036.6719,487.1221 Q1036.8281,487.0439 1037.0313,487.0439 Q1037.3594,487.0439 1037.6094,487.3096 Q1037.875,487.5596 1037.875,487.9033 Q1037.875,488.2471 1037.5313,488.6533 Q1037.0313,489.2314 1036.2344,489.5596 Q1035.1563,490.0127 1033.8594,490.0127 Q1032.3438,490.0127 1031.1406,489.3877 Q1030.1563,488.8877 1029.4688,487.8252 Q1028.7813,486.7471 1028.7813,485.4658 L1028.7813,484.3096 Q1028.7813,482.9814 1029.3906,481.8408 Q1030.0156,480.6846 1031.1094,480.0752 Q1032.2031,479.4502 1033.4375,479.4502 Q1034.1719,479.4502 1034.8125,479.6221 Q1035.4688,479.7783 1036.0156,480.1377 Z " fill="#000000"/><text fill="#000000" font-family="sans-serif" font-size="14" lengthAdjust="spacing" textLength="80" x="1053.75" y="490.0596">Organization</text><line style="stroke:#181818;stroke-width:0.5;" x1="855" x2="1300" y1="500.2627" y2="500.2627"/><text fill="#000000" font-family="sans-serif" font-size="14" lengthAdjust="spacing" textLength="81" x="860" y="519.3701">-String name</text><text fill="#000000" font-family="sans-serif" font-size="14" lengthAdjust="spacing" textLength="114" x="860" y="537.9912">-String vatNumber</text><text fill="#000000" font-family="sans-serif" font-size="14" lengthAdjust="spacing" textLength="97" x="860" y="556.6123">-String address</text><text fill="#000000" font-family="sans-serif" font-size="14" lengthAdjust="spacing" textLength="86" x="860" y="575.2334">-String phone</text><text fill="#000000" font-family="sans-serif" font-size="14" lengthAdjust="spacing" textLength="79" x="860" y="593.8545">-String email</text><text fill="#000000" font-family="sans-serif" font-size="14" lengthAdjust="spacing" textLength="144" x="860" y="612.4756">-List&lt;Vehicle&gt; vehicles</text><text fill="#000000" font-family="sans-serif" font-size="14" lengthAdjust="spacing" textLength="359" x="860" y="631.0967">-Map&lt;Vehicle, List&lt;Maintenance&gt;&gt; maintenanceRecords</text><line style="stroke:#181818;stroke-width:0.5;" x1="855" x2="1300" y1="638.6104" y2="638.6104"/><text fill="#000000" font-family="sans-serif" font-size="14" lengthAdjust="spacing" textLength="182" x="860" y="657.7178">+addVehicle(Vehicle vehicle)</text><text fill="#000000" font-family="sans-serif" font-size="14" lengthAdjust="spacing" textLength="391" x="860" y="676.3389">+addMaintenance(Vehicle vehicle, Maintenance maintenance)</text><text fill="#000000" font-family="sans-serif" font-size="14" lengthAdjust="spacing" textLength="435" x="860" y="694.96">+List&lt;Maintenance&gt; getVehicleMaintenanceRecords(Vehicle vehicle)</text></g><!--class VehicleRepository--><g id="elem_VehicleRepository"><rect codeLine="55" fill="#F1F1F1" height="141.1055" id="VehicleRepository" rx="2.5" ry="2.5" style="stroke:#181818;stroke-width:0.5;" width="363" x="421" y="238.7627"/><ellipse cx="541.25" cy="254.7627" fill="#ADD1B2" rx="11" ry="11" style="stroke:#181818;stroke-width:1.0;"/><path d="M544.0156,250.6377 Q544.1719,250.4189 544.3594,250.3096 Q544.5469,250.2002 544.7656,250.2002 Q545.1406,250.2002 545.375,250.4658 Q545.6094,250.7158 545.6094,251.3252 L545.6094,252.7783 Q545.6094,253.3877 545.375,253.6533 Q545.1406,253.9189 544.7656,253.9189 Q544.4219,253.9189 544.2188,253.7158 Q544.0156,253.5283 543.9063,253.0127 Q543.8594,252.6533 543.6719,252.4658 Q543.3438,252.0908 542.7344,251.8721 Q542.125,251.6533 541.5,251.6533 Q540.7344,251.6533 540.0938,251.9814 Q539.4688,252.3096 538.9688,253.0596 Q538.4844,253.8096 538.4844,254.8408 L538.4844,255.9346 Q538.4844,257.1689 539.375,257.9971 Q540.2656,258.8096 541.8594,258.8096 Q542.7969,258.8096 543.4531,258.5596 Q543.8438,258.4033 544.2656,257.9658 Q544.5313,257.7002 544.6719,257.6221 Q544.8281,257.5439 545.0313,257.5439 Q545.3594,257.5439 545.6094,257.8096 Q545.875,258.0596 545.875,258.4033 Q545.875,258.7471 545.5313,259.1533 Q545.0313,259.7314 544.2344,260.0596 Q543.1563,260.5127 541.8594,260.5127 Q540.3438,260.5127 539.1406,259.8877 Q538.1563,259.3877 537.4688,258.3252 Q536.7813,257.2471 536.7813,255.9658 L536.7813,254.8096 Q536.7813,253.4814 537.3906,252.3408 Q538.0156,251.1846 539.1094,250.5752 Q540.2031,249.9502 541.4375,249.9502 Q542.1719,249.9502 542.8125,250.1221 Q543.4688,250.2783 544.0156,250.6377 Z " fill="#000000"/><text fill="#000000" font-family="sans-serif" font-size="14" lengthAdjust="spacing" textLength="114" x="561.75" y="260.5596">VehicleRepository</text><line style="stroke:#181818;stroke-width:0.5;" x1="422" x2="783" y1="270.7627" y2="270.7627"/><text fill="#000000" font-family="sans-serif" font-size="14" lengthAdjust="spacing" textLength="144" x="427" y="289.8701">-List&lt;Vehicle&gt; vehicles</text><line style="stroke:#181818;stroke-width:0.5;" x1="422" x2="783" y1="297.3838" y2="297.3838"/><text fill="#000000" font-family="sans-serif" font-size="14" lengthAdjust="spacing" textLength="351" x="427" y="316.4912">+Vehicle getVehiclebyPlateNumber(String plateNumber)</text><text fill="#000000" font-family="sans-serif" font-size="14" lengthAdjust="spacing" textLength="255" x="427" y="335.1123">+Optional&lt;Vehicle&gt; add(Vehicle vehicle)</text><text fill="#000000" font-family="sans-serif" font-size="14" lengthAdjust="spacing" textLength="262" x="427" y="353.7334">+boolean validateVehicle(Vehicle vehicle)</text><text fill="#000000" font-family="sans-serif" font-size="14" lengthAdjust="spacing" textLength="179" x="427" y="372.3545">+List&lt;Vehicle&gt; getVehicles()</text></g><!--class OrganizationRepository--><g id="elem_OrganizationRepository"><rect codeLine="63" fill="#F1F1F1" height="103.8633" id="OrganizationRepository" rx="2.5" ry="2.5" style="stroke:#181818;stroke-width:0.5;" width="332" x="961.5" y="257.2627"/><ellipse cx="1049.25" cy="273.2627" fill="#ADD1B2" rx="11" ry="11" style="stroke:#181818;stroke-width:1.0;"/><path d="M1052.0156,269.1377 Q1052.1719,268.9189 1052.3594,268.8096 Q1052.5469,268.7002 1052.7656,268.7002 Q1053.1406,268.7002 1053.375,268.9658 Q1053.6094,269.2158 1053.6094,269.8252 L1053.6094,271.2783 Q1053.6094,271.8877 1053.375,272.1533 Q1053.1406,272.4189 1052.7656,272.4189 Q1052.4219,272.4189 1052.2188,272.2158 Q1052.0156,272.0283 1051.9063,271.5127 Q1051.8594,271.1533 1051.6719,270.9658 Q1051.3438,270.5908 1050.7344,270.3721 Q1050.125,270.1533 1049.5,270.1533 Q1048.7344,270.1533 1048.0938,270.4814 Q1047.4688,270.8096 1046.9688,271.5596 Q1046.4844,272.3096 1046.4844,273.3408 L1046.4844,274.4346 Q1046.4844,275.6689 1047.375,276.4971 Q1048.2656,277.3096 1049.8594,277.3096 Q1050.7969,277.3096 1051.4531,277.0596 Q1051.8438,276.9033 1052.2656,276.4658 Q1052.5313,276.2002 1052.6719,276.1221 Q1052.8281,276.0439 1053.0313,276.0439 Q1053.3594,276.0439 1053.6094,276.3096 Q1053.875,276.5596 1053.875,276.9033 Q1053.875,277.2471 1053.5313,277.6533 Q1053.0313,278.2314 1052.2344,278.5596 Q1051.1563,279.0127 1049.8594,279.0127 Q1048.3438,279.0127 1047.1406,278.3877 Q1046.1563,277.8877 1045.4688,276.8252 Q1044.7813,275.7471 1044.7813,274.4658 L1044.7813,273.3096 Q1044.7813,271.9814 1045.3906,270.8408 Q1046.0156,269.6846 1047.1094,269.0752 Q1048.2031,268.4502 1049.4375,268.4502 Q1050.1719,268.4502 1050.8125,268.6221 Q1051.4688,268.7783 1052.0156,269.1377 Z " fill="#000000"/><text fill="#000000" font-family="sans-serif" font-size="14" lengthAdjust="spacing" textLength="148" x="1069.75" y="279.0596">OrganizationRepository</text><line style="stroke:#181818;stroke-width:0.5;" x1="962.5" x2="1292.5" y1="289.2627" y2="289.2627"/><line style="stroke:#181818;stroke-width:0.5;" x1="962.5" x2="1292.5" y1="297.2627" y2="297.2627"/><text fill="#000000" font-family="sans-serif" font-size="14" lengthAdjust="spacing" textLength="264" x="967.5" y="316.3701">+boolean save(Organization organization)</text><text fill="#000000" font-family="sans-serif" font-size="14" lengthAdjust="spacing" textLength="253" x="967.5" y="334.9912">+Organization findByName(String name)</text><text fill="#000000" font-family="sans-serif" font-size="14" lengthAdjust="spacing" textLength="320" x="967.5" y="353.6123">+Organization findByVatNumber(String vatNumber)</text></g><!--class Repositories--><g id="elem_Repositories"><rect codeLine="69" fill="#F1F1F1" height="103.8633" id="Repositories" rx="2.5" ry="2.5" style="stroke:#181818;stroke-width:0.5;" width="358" x="924.5" y="55.7627"/><ellipse cx="1059.75" cy="71.7627" fill="#ADD1B2" rx="11" ry="11" style="stroke:#181818;stroke-width:1.0;"/><path d="M1062.5156,67.6377 Q1062.6719,67.4189 1062.8594,67.3096 Q1063.0469,67.2002 1063.2656,67.2002 Q1063.6406,67.2002 1063.875,67.4658 Q1064.1094,67.7158 1064.1094,68.3252 L1064.1094,69.7783 Q1064.1094,70.3877 1063.875,70.6533 Q1063.6406,70.9189 1063.2656,70.9189 Q1062.9219,70.9189 1062.7188,70.7158 Q1062.5156,70.5283 1062.4063,70.0127 Q1062.3594,69.6533 1062.1719,69.4658 Q1061.8438,69.0908 1061.2344,68.8721 Q1060.625,68.6533 1060,68.6533 Q1059.2344,68.6533 1058.5938,68.9814 Q1057.9688,69.3096 1057.4688,70.0596 Q1056.9844,70.8096 1056.9844,71.8408 L1056.9844,72.9346 Q1056.9844,74.1689 1057.875,74.9971 Q1058.7656,75.8096 1060.3594,75.8096 Q1061.2969,75.8096 1061.9531,75.5596 Q1062.3438,75.4033 1062.7656,74.9658 Q1063.0313,74.7002 1063.1719,74.6221 Q1063.3281,74.5439 1063.5313,74.5439 Q1063.8594,74.5439 1064.1094,74.8096 Q1064.375,75.0596 1064.375,75.4033 Q1064.375,75.7471 1064.0313,76.1533 Q1063.5313,76.7314 1062.7344,77.0596 Q1061.6563,77.5127 1060.3594,77.5127 Q1058.8438,77.5127 1057.6406,76.8877 Q1056.6563,76.3877 1055.9688,75.3252 Q1055.2813,74.2471 1055.2813,72.9658 L1055.2813,71.8096 Q1055.2813,70.4814 1055.8906,69.3408 Q1056.5156,68.1846 1057.6094,67.5752 Q1058.7031,66.9502 1059.9375,66.9502 Q1060.6719,66.9502 1061.3125,67.1221 Q1061.9688,67.2783 1062.5156,67.6377 Z " fill="#000000"/><text fill="#000000" font-family="sans-serif" font-size="14" lengthAdjust="spacing" textLength="79" x="1080.25" y="77.5596">Repositories</text><line style="stroke:#181818;stroke-width:0.5;" x1="925.5" x2="1281.5" y1="87.7627" y2="87.7627"/><line style="stroke:#181818;stroke-width:0.5;" x1="925.5" x2="1281.5" y1="95.7627" y2="95.7627"/><text fill="#000000" font-family="sans-serif" font-size="14" lengthAdjust="spacing" textLength="182" x="930.5" y="114.8701">+getInstance() : Repositories</text><text fill="#000000" font-family="sans-serif" font-size="14" lengthAdjust="spacing" textLength="278" x="930.5" y="133.4912">+getVehicleRepository() : VehicleRepository</text><text fill="#000000" font-family="sans-serif" font-size="14" lengthAdjust="spacing" textLength="346" x="930.5" y="152.1123">+getOrganizationRepository() : OrganizationRepository</text></g><!--class ProduceMaintenanceListController--><g id="elem_ProduceMaintenanceListController"><rect codeLine="75" fill="#F1F1F1" height="85.2422" id="ProduceMaintenanceListController" rx="2.5" ry="2.5" style="stroke:#181818;stroke-width:0.5;" width="282" x="378.5" y="65.2627"/><ellipse cx="407.9" cy="81.2627" fill="#ADD1B2" rx="11" ry="11" style="stroke:#181818;stroke-width:1.0;"/><path d="M410.6656,77.1377 Q410.8219,76.9189 411.0094,76.8096 Q411.1969,76.7002 411.4156,76.7002 Q411.7906,76.7002 412.025,76.9658 Q412.2594,77.2158 412.2594,77.8252 L412.2594,79.2783 Q412.2594,79.8877 412.025,80.1533 Q411.7906,80.4189 411.4156,80.4189 Q411.0719,80.4189 410.8688,80.2158 Q410.6656,80.0283 410.5563,79.5127 Q410.5094,79.1533 410.3219,78.9658 Q409.9938,78.5908 409.3844,78.3721 Q408.775,78.1533 408.15,78.1533 Q407.3844,78.1533 406.7438,78.4814 Q406.1188,78.8096 405.6188,79.5596 Q405.1344,80.3096 405.1344,81.3408 L405.1344,82.4346 Q405.1344,83.6689 406.025,84.4971 Q406.9156,85.3096 408.5094,85.3096 Q409.4469,85.3096 410.1031,85.0596 Q410.4938,84.9033 410.9156,84.4658 Q411.1813,84.2002 411.3219,84.1221 Q411.4781,84.0439 411.6813,84.0439 Q412.0094,84.0439 412.2594,84.3096 Q412.525,84.5596 412.525,84.9033 Q412.525,85.2471 412.1813,85.6533 Q411.6813,86.2314 410.8844,86.5596 Q409.8063,87.0127 408.5094,87.0127 Q406.9938,87.0127 405.7906,86.3877 Q404.8063,85.8877 404.1188,84.8252 Q403.4313,83.7471 403.4313,82.4658 L403.4313,81.3096 Q403.4313,79.9814 404.0406,78.8408 Q404.6656,77.6846 405.7594,77.0752 Q406.8531,76.4502 408.0875,76.4502 Q408.8219,76.4502 409.4625,76.6221 Q410.1188,76.7783 410.6656,77.1377 Z " fill="#000000"/><text fill="#000000" font-family="sans-serif" font-size="14" lengthAdjust="spacing" textLength="218" x="425.1" y="87.0596">ProduceMaintenanceListController</text><line style="stroke:#181818;stroke-width:0.5;" x1="379.5" x2="659.5" y1="97.2627" y2="97.2627"/><line style="stroke:#181818;stroke-width:0.5;" x1="379.5" x2="659.5" y1="105.2627" y2="105.2627"/><text fill="#000000" font-family="sans-serif" font-size="14" lengthAdjust="spacing" textLength="270" x="384.5" y="124.3701">+VehicleRepository getVehicleRepository()</text><text fill="#000000" font-family="sans-serif" font-size="14" lengthAdjust="spacing" textLength="179" x="384.5" y="142.9912">+List&lt;Vehicle&gt; getVehicles()</text></g><!--class ProduceMaintenanceListUI--><g id="elem_ProduceMaintenanceListUI"><rect codeLine="96" fill="#F1F1F1" height="85.2422" id="ProduceMaintenanceListUI" rx="2.5" ry="2.5" style="stroke:#181818;stroke-width:0.5;" width="282" x="61.5" y="65.2627"/><ellipse cx="114.25" cy="81.2627" fill="#ADD1B2" rx="11" ry="11" style="stroke:#181818;stroke-width:1.0;"/><path d="M117.0156,77.1377 Q117.1719,76.9189 117.3594,76.8096 Q117.5469,76.7002 117.7656,76.7002 Q118.1406,76.7002 118.375,76.9658 Q118.6094,77.2158 118.6094,77.8252 L118.6094,79.2783 Q118.6094,79.8877 118.375,80.1533 Q118.1406,80.4189 117.7656,80.4189 Q117.4219,80.4189 117.2188,80.2158 Q117.0156,80.0283 116.9063,79.5127 Q116.8594,79.1533 116.6719,78.9658 Q116.3438,78.5908 115.7344,78.3721 Q115.125,78.1533 114.5,78.1533 Q113.7344,78.1533 113.0938,78.4814 Q112.4688,78.8096 111.9688,79.5596 Q111.4844,80.3096 111.4844,81.3408 L111.4844,82.4346 Q111.4844,83.6689 112.375,84.4971 Q113.2656,85.3096 114.8594,85.3096 Q115.7969,85.3096 116.4531,85.0596 Q116.8438,84.9033 117.2656,84.4658 Q117.5313,84.2002 117.6719,84.1221 Q117.8281,84.0439 118.0313,84.0439 Q118.3594,84.0439 118.6094,84.3096 Q118.875,84.5596 118.875,84.9033 Q118.875,85.2471 118.5313,85.6533 Q118.0313,86.2314 117.2344,86.5596 Q116.1563,87.0127 114.8594,87.0127 Q113.3438,87.0127 112.1406,86.3877 Q111.1563,85.8877 110.4688,84.8252 Q109.7813,83.7471 109.7813,82.4658 L109.7813,81.3096 Q109.7813,79.9814 110.3906,78.8408 Q111.0156,77.6846 112.1094,77.0752 Q113.2031,76.4502 114.4375,76.4502 Q115.1719,76.4502 115.8125,76.6221 Q116.4688,76.7783 117.0156,77.1377 Z " fill="#000000"/><text fill="#000000" font-family="sans-serif" font-size="14" lengthAdjust="spacing" textLength="168" x="134.75" y="87.0596">ProduceMaintenanceListUI</text><line style="stroke:#181818;stroke-width:0.5;" x1="62.5" x2="342.5" y1="97.2627" y2="97.2627"/><line style="stroke:#181818;stroke-width:0.5;" x1="62.5" x2="342.5" y1="105.2627" y2="105.2627"/><text fill="#000000" font-family="sans-serif" font-size="14" lengthAdjust="spacing" textLength="270" x="67.5" y="124.3701">+VehicleRepository getVehicleRepository()</text><text fill="#000000" font-family="sans-serif" font-size="14" lengthAdjust="spacing" textLength="179" x="67.5" y="142.9912">+List&lt;Vehicle&gt; getVehicles()</text></g><g id="elem_GMN12"><path d="M695.5,68.2627 L695.5,103.7627 L660.53,107.7627 L695.5,111.7627 L695.5,147.4268 A0,0 0 0 0 695.5,147.4268 L889.5,147.4268 A0,0 0 0 0 889.5,147.4268 L889.5,78.2627 L879.5,68.2627 L695.5,68.2627 A0,0 0 0 0 695.5,68.2627 " fill="#FEFFDD" style="stroke:#181818;stroke-width:0.5;"/><path d="M879.5,68.2627 L879.5,78.2627 L889.5,78.2627 L879.5,68.2627 " fill="#FEFFDD" style="stroke:#181818;stroke-width:0.5;"/><text fill="#000000" font-family="sans-serif" font-size="13" lengthAdjust="spacing" textLength="133" x="701.5" y="87.291">- userEmail is obtained</text><text fill="#000000" font-family="sans-serif" font-size="13" lengthAdjust="spacing" textLength="125" x="701.5" y="104.582">from the user session</text><text fill="#000000" font-family="sans-serif" font-size="13" lengthAdjust="spacing" textLength="123" x="701.5" y="121.873">- categoryDescription</text><text fill="#000000" font-family="sans-serif" font-size="13" lengthAdjust="spacing" textLength="173" x="701.5" y="139.1641">is retrieved from selected data</text></g><g id="elem_GMN15"><path d="M511.5,571.7627 L511.5,599.0537 A0,0 0 0 0 511.5,599.0537 L769.5,599.0537 A0,0 0 0 0 769.5,599.0537 L769.5,581.7627 L759.5,571.7627 L642.72,571.7627 L612.19,380.1127 L634.72,571.7627 L511.5,571.7627 A0,0 0 0 0 511.5,571.7627 " fill="#FEFFDD" style="stroke:#181818;stroke-width:0.5;"/><path d="M759.5,571.7627 L759.5,581.7627 L769.5,581.7627 L759.5,571.7627 " fill="#FEFFDD" style="stroke:#181818;stroke-width:0.5;"/><text fill="#000000" font-family="sans-serif" font-size="13" lengthAdjust="spacing" textLength="237" x="517.5" y="590.791">- used for displaying the maintenance list</text></g><!--class VFM--><g id="elem_VFM"><rect fill="#F1F1F1" height="48" id="VFM" rx="2.5" ry="2.5" style="stroke:#181818;stroke-width:0.5;" width="61" x="1047" y="790.7627"/><ellipse cx="1062" cy="806.7627" fill="#ADD1B2" rx="11" ry="11" style="stroke:#181818;stroke-width:1.0;"/><path d="M1064.7656,802.6377 Q1064.9219,802.4189 1065.1094,802.3096 Q1065.2969,802.2002 1065.5156,802.2002 Q1065.8906,802.2002 1066.125,802.4658 Q1066.3594,802.7158 1066.3594,803.3252 L1066.3594,804.7783 Q1066.3594,805.3877 1066.125,805.6533 Q1065.8906,805.9189 1065.5156,805.9189 Q1065.1719,805.9189 1064.9688,805.7158 Q1064.7656,805.5283 1064.6563,805.0127 Q1064.6094,804.6533 1064.4219,804.4658 Q1064.0938,804.0908 1063.4844,803.8721 Q1062.875,803.6533 1062.25,803.6533 Q1061.4844,803.6533 1060.8438,803.9814 Q1060.2188,804.3096 1059.7188,805.0596 Q1059.2344,805.8096 1059.2344,806.8408 L1059.2344,807.9346 Q1059.2344,809.1689 1060.125,809.9971 Q1061.0156,810.8096 1062.6094,810.8096 Q1063.5469,810.8096 1064.2031,810.5596 Q1064.5938,810.4033 1065.0156,809.9658 Q1065.2813,809.7002 1065.4219,809.6221 Q1065.5781,809.5439 1065.7813,809.5439 Q1066.1094,809.5439 1066.3594,809.8096 Q1066.625,810.0596 1066.625,810.4033 Q1066.625,810.7471 1066.2813,811.1533 Q1065.7813,811.7314 1064.9844,812.0596 Q1063.9063,812.5127 1062.6094,812.5127 Q1061.0938,812.5127 1059.8906,811.8877 Q1058.9063,811.3877 1058.2188,810.3252 Q1057.5313,809.2471 1057.5313,807.9658 L1057.5313,806.8096 Q1057.5313,805.4814 1058.1406,804.3408 Q1058.7656,803.1846 1059.8594,802.5752 Q1060.9531,801.9502 1062.1875,801.9502 Q1062.9219,801.9502 1063.5625,802.1221 Q1064.2188,802.2783 1064.7656,802.6377 Z " fill="#000000"/><text fill="#000000" font-family="sans-serif" font-size="14" lengthAdjust="spacing" textLength="29" x="1076" y="812.5596">VFM</text><line style="stroke:#181818;stroke-width:0.5;" x1="1048" x2="1107" y1="822.7627" y2="822.7627"/><line style="stroke:#181818;stroke-width:0.5;" x1="1048" x2="1107" y1="830.7627" y2="830.7627"/></g><!--link Repositories to Repositories--><g id="link_Repositories_Repositories"><path codeLine="99" d="M1282.63,93.3127 C1303.74,95.9627 1317.5,100.7727 1317.5,107.7627 C1317.5,114.7527 1309.6933,118.8154 1288.5833,121.4654 " fill="none" id="Repositories-to-Repositories" style="stroke:#181818;stroke-width:1.0;"/><polygon fill="#181818" points="1282.63,122.2127,1292.0581,125.0605,1287.5911,121.5899,1291.0617,117.1228,1282.63,122.2127" style="stroke:#181818;stroke-width:1.0;"/><text fill="#000000" font-family="sans-serif" font-size="13" lengthAdjust="spacing" textLength="49" x="1323.5" y="113.291">instance</text></g><!--link ApplicationSession to ApplicationSession--><g id="link_ApplicationSession_ApplicationSession"><path codeLine="100" d="M235.16,288.8327 C255,290.0427 270,296.8527 270,309.2627 C270,321.6727 260.9889,328.1174 241.1489,329.3274 " fill="none" id="ApplicationSession-to-ApplicationSession" style="stroke:#181818;stroke-width:1.0;"/><polygon fill="#181818" points="235.16,329.6927,244.3868,333.1374,240.1507,329.3883,243.8998,325.1522,235.16,329.6927" style="stroke:#181818;stroke-width:1.0;"/><text fill="#000000" font-family="sans-serif" font-size="13" lengthAdjust="spacing" textLength="49" x="276" y="314.791">instance</text></g><!--link ProduceMaintenanceListUI to ProduceMaintenanceListController--><g id="link_ProduceMaintenanceListUI_ProduceMaintenanceListController"><path codeLine="102" d="M343.65,107.7627 C354.8,107.7627 361.11,107.7627 372.27,107.7627 " fill="none" id="ProduceMaintenanceListUI-to-ProduceMaintenanceListController" style="stroke:#181818;stroke-width:1.0;stroke-dasharray:7.0,7.0;"/><polygon fill="#181818" points="378.27,107.7627,369.27,103.7627,373.27,107.7627,369.27,111.7627,378.27,107.7627" style="stroke:#181818;stroke-width:1.0;"/></g><!--link ProduceMaintenanceListController to Repositories--><g id="link_ProduceMaintenanceListController_Repositories"><path codeLine="104" d="M637.7,65.1427 C697.67,43.5127 758,21.7627 758,21.7627 C758,21.7627 827,21.7627 827,21.7627 C827,21.7627 872.3207,35.8608 930.5507,53.9708 " fill="none" id="ProduceMaintenanceListController-to-Repositories" style="stroke:#181818;stroke-width:1.0;stroke-dasharray:7.0,7.0;"/><polygon fill="#181818" points="936.28,55.7527,928.8739,49.2604,931.5056,54.2678,926.4981,56.8994,936.28,55.7527" style="stroke:#181818;stroke-width:1.0;"/><text fill="#000000" font-family="sans-serif" font-size="13" lengthAdjust="spacing" textLength="67" x="759" y="21.791">repositories</text></g><!--link Repositories to VehicleRepository--><g id="link_Repositories_VehicleRepository"><path codeLine="106" d="M1080.98,159.9327 C1070.16,184.5427 1059.5,208.7627 1059.5,208.7627 C1059.5,208.7627 811.5,238.7627 811.5,238.7627 C811.5,238.7627 806.4631,240.4384 789.8731,245.9584 " fill="none" id="Repositories-to-VehicleRepository" style="stroke:#181818;stroke-width:1.0;"/><polygon fill="#181818" points="784.18,247.8527,793.9825,248.8067,788.9243,246.2741,791.4568,241.2159,784.18,247.8527" style="stroke:#181818;stroke-width:1.0;"/><text fill="#000000" font-family="sans-serif" font-size="13" lengthAdjust="spacing" textLength="7" x="791.9923" y="241.9356">1</text></g><!--link ProduceMaintenanceListController to Vehicle--><g id="link_ProduceMaintenanceListController_Vehicle"><path codeLine="108" d="M482.16,150.6127 C448.25,188.6127 403.5,238.7627 403.5,238.7627 C403.5,238.7627 391.5116,353.795 381.2216,452.585 " fill="none" id="ProduceMaintenanceListController-to-Vehicle" style="stroke:#181818;stroke-width:1.0;stroke-dasharray:7.0,7.0;"/><polygon fill="#181818" points="380.6,458.5527,385.5109,450.0155,381.118,453.5796,377.5539,449.1867,380.6,458.5527" style="stroke:#181818;stroke-width:1.0;"/></g><!--link ProduceMaintenanceListController to OrganizationRepository--><g id="link_ProduceMaintenanceListController_OrganizationRepository"><path codeLine="109" d="M648.15,150.2927 C665.52,155.8927 677.5,159.7627 677.5,159.7627 C677.5,159.7627 880.5,189.7627 880.5,189.7627 C880.5,189.7627 948.7006,222.4768 1015.5506,254.5568 " fill="none" id="ProduceMaintenanceListController-to-OrganizationRepository" style="stroke:#181818;stroke-width:1.0;stroke-dasharray:7.0,7.0;"/><polygon fill="#181818" points="1020.96,257.1527,1014.5765,249.6526,1016.4522,254.9895,1011.1153,256.8652,1020.96,257.1527" style="stroke:#181818;stroke-width:1.0;"/><text fill="#000000" font-family="sans-serif" font-size="13" lengthAdjust="spacing" textLength="132" x="916.5" y="204.791">organizationRepository</text></g><!--link ProduceMaintenanceListController to VehicleRepository--><g id="link_ProduceMaintenanceListController_VehicleRepository"><path codeLine="110" d="M536.9,150.5827 C547.5,176.0627 559.0054,203.723 571.2154,233.073 " fill="none" id="ProduceMaintenanceListController-to-VehicleRepository" style="stroke:#181818;stroke-width:1.0;stroke-dasharray:7.0,7.0;"/><polygon fill="#181818" points="573.52,238.6127,573.7562,228.7667,571.5995,233.9962,566.3699,231.8395,573.52,238.6127" style="stroke:#181818;stroke-width:1.0;"/><text fill="#000000" font-family="sans-serif" font-size="13" lengthAdjust="spacing" textLength="105" x="562.5" y="204.791">VehicleRepository</text></g><!--link Repositories to OrganizationRepository--><g id="link_Repositories_OrganizationRepository"><path codeLine="112" d="M1109.65,159.8827 C1113.23,189.6627 1117.0248,221.1555 1120.6048,250.9755 " fill="none" id="Repositories-to-OrganizationRepository" style="stroke:#181818;stroke-width:1.0;"/><polygon fill="#181818" points="1121.32,256.9327,1124.2187,247.5201,1120.724,251.9683,1116.2757,248.4737,1121.32,256.9327" style="stroke:#181818;stroke-width:1.0;"/><text fill="#000000" font-family="sans-serif" font-size="13" lengthAdjust="spacing" textLength="7" x="1113.0192" y="245.8157">1</text></g><!--link OrganizationRepository to Organization--><g id="link_OrganizationRepository_Organization"><path codeLine="114" d="M1118.15,361.4827 C1112.66,391.6027 1106.5469,425.0901 1099.7469,462.3601 " fill="none" id="OrganizationRepository-to-Organization" style="stroke:#181818;stroke-width:1.0;"/><polygon fill="#181818" points="1098.67,468.2627,1104.2204,460.1268,1099.5674,463.3439,1096.3504,458.6909,1098.67,468.2627" style="stroke:#181818;stroke-width:1.0;"/><text fill="#000000" font-family="sans-serif" font-size="13" lengthAdjust="spacing" textLength="5" x="1094.9244" y="456.8617">*</text></g><!--link ApplicationSession to UserSession--><g id="link_ApplicationSession_UserSession"><path codeLine="115" d="M144.92,351.8727 C125.72,406.6727 94.3547,496.2105 76.8847,546.0505 " fill="none" id="ApplicationSession-to-UserSession" style="stroke:#181818;stroke-width:1.0;"/><polygon fill="#181818" points="74.9,551.7127,81.6519,544.5425,76.5539,546.9942,74.1023,541.8962,74.9,551.7127" style="stroke:#181818;stroke-width:1.0;"/><text fill="#000000" font-family="sans-serif" font-size="13" lengthAdjust="spacing" textLength="72" x="124.5" y="424.791">userSession</text><text fill="#000000" font-family="sans-serif" font-size="13" lengthAdjust="spacing" textLength="7" x="69.4553" y="540.5284">1</text></g><!--link ProduceMaintenanceListController to Organization--><g id="link_ProduceMaintenanceListController_Organization"><path codeLine="117" d="M609.89,150.4327 C692.37,188.4527 801.5,238.7627 801.5,238.7627 C801.5,238.7627 872.5,379.7627 872.5,379.7627 C872.5,379.7627 910.5218,417.6956 956.6818,463.7356 " fill="none" id="ProduceMaintenanceListController-to-Organization" style="stroke:#181818;stroke-width:1.0;stroke-dasharray:7.0,7.0;"/><polygon fill="#181818" points="960.93,467.9727,957.3825,458.7849,957.3899,464.4418,951.733,464.4491,960.93,467.9727" style="stroke:#181818;stroke-width:1.0;"/><text fill="#000000" font-family="sans-serif" font-size="13" lengthAdjust="spacing" textLength="70" x="873.5" y="314.791">organization</text><text fill="#000000" font-family="sans-serif" font-size="13" lengthAdjust="spacing" textLength="7" x="946.238" y="456.9452">1</text></g><!--link ProduceMaintenanceListController to ApplicationSession--><g id="link_ProduceMaintenanceListController_ApplicationSession"><path codeLine="118" d="M428.15,150.3327 C384.45,170.2227 341.5,189.7627 341.5,189.7627 C341.5,189.7627 280.8779,229.2285 228.4379,263.3785 " fill="none" id="ProduceMaintenanceListController-to-ApplicationSession" style="stroke:#181818;stroke-width:1.0;stroke-dasharray:7.0,7.0;"/><polygon fill="#181818" points="223.41,266.6527,233.1346,265.0932,227.5999,263.9242,228.769,258.3894,223.41,266.6527" style="stroke:#181818;stroke-width:1.0;"/></g><!--link ProduceMaintenanceListController to UserSession--><g id="link_ProduceMaintenanceListController_UserSession"><path codeLine="119" d="M390.03,150.2927 C372.56,155.8927 360.5,159.7627 360.5,159.7627 C360.5,159.7627 66.5,238.7627 66.5,238.7627 C66.5,238.7627 64.5823,459.7529 63.8323,545.7629 " fill="none" id="ProduceMaintenanceListController-to-UserSession" style="stroke:#181818;stroke-width:1.0;stroke-dasharray:7.0,7.0;"/><polygon fill="#181818" points="63.78,551.7627,67.8583,542.7979,63.8236,546.7629,59.8586,542.7282,63.78,551.7627" style="stroke:#181818;stroke-width:1.0;"/></g><!--link VehicleRepository to Vehicle--><g id="link_VehicleRepository_Vehicle"><path codeLine="120" d="M542.59,380.1127 C522.06,404.0527 502.3171,427.0792 479.1671,454.0592 " fill="none" id="VehicleRepository-to-Vehicle" style="stroke:#181818;stroke-width:1.0;"/><polygon fill="#181818" points="475.26,458.6127,484.1563,454.3872,478.5159,454.8181,478.085,449.1777,475.26,458.6127" style="stroke:#181818;stroke-width:1.0;"/><text fill="#000000" font-family="sans-serif" font-size="13" lengthAdjust="spacing" textLength="43" x="514.5" y="424.791">Vehicle</text><text fill="#000000" font-family="sans-serif" font-size="13" lengthAdjust="spacing" textLength="7" x="529.3481" y="401.9612">1</text><text fill="#000000" font-family="sans-serif" font-size="13" lengthAdjust="spacing" textLength="5" x="476.6743" y="447.4193">*</text></g><!--link Organization to VFM--><g id="link_Organization_VFM"><path codeLine="122" d="M1077.5,702.3427 C1077.5,735.8627 1077.5,763.1127 1077.5,784.4427 " fill="none" id="Organization-to-VFM" style="stroke:#181818;stroke-width:1.0;"/><polygon fill="#181818" points="1077.5,790.4427,1081.5,781.4427,1077.5,785.4427,1073.5,781.4427,1077.5,790.4427" style="stroke:#181818;stroke-width:1.0;"/><text fill="#000000" font-family="sans-serif" font-size="13" lengthAdjust="spacing" textLength="49" x="1078.5" y="756.791">employs</text><text fill="#000000" font-family="sans-serif" font-size="13" lengthAdjust="spacing" textLength="5" x="1071.8906" y="779.5066">*</text></g><!--SRC=[jLR9Rjim4BthAuXSuZGBscjG64YJ1Z0Q9q6Cf6UA6ij4A58XAHTAqN_laA9iQd7i7kgJESlZcpT3KiVcbSkIQbgGGad5LbeLGAok8DbwIifUQGuBMmiW6fYbCXTnW5dHJFtYCYTBAapi4Lo2hKiWfHArMoJ78qwbhKgYB2QeCLVMQfvM5cPCoGL_1_8vIOu5B2snYcYUhop9kAF3bKmIdqEkob9mHfrf0SOup- -4uE-K68jcHdAmCud_9OF9IN2XxRhI6gGDIUZvqq8-6z1zB4nmvky5vIAEVO4LPm9k1O2TKucYQU9opia2Yq5z92qWNeD3Y0tbIg58VS0kIAgfp693eJBee3XL_Vf6LIccMwhX9pZ9OckkbJ6HUIOjOOqEFmflkLECYXjgNTjpRYnej-YvA7khkE5EyutNGM5fqe9qIjzgUAj0ihfJgi3e-rQGBHuMZk9jSZtcHf07dLF9tts7FvPsJUrzLQIWOoFDCesz72e-sfCxBFbhQC6Kh9i_JVASbgtdh8cBA4-dSV5Fm9JENDgfspzaJThM1jYJrX_Xz6FEIEICjsYI1pJSd0Q8-O3Fa41_wfwWLDXNfUkWz4uzJZU3kjqnhHzzWtqF9fsUUrF3-Q5qdQHY2uiIZ6kJAYM0Icoiu1d2V2Xab-gMbOcFQpnClMAtsncwXabdx5Iq25N4xYMNsRVQ3VOa6isTWI_jd4xwWnintR3ZO0A_paL6BZiXRS2WaJvoO6t3n_NmEUEkBS57hRAAnMFcEd2jfDLAY70DHeCIoJtECuGVrCVnpPzd_sbJgTo5w1yWjTnRkSSy9rNxNX1kY4ejXaFcVKjySubTWGyX9ZmrJHO-PP0ZjHimJ7D_Lhm7CJJWkC0QiWR0WC2d45TuD6W2CYEEPY2RAcin1jcEzJxGGo2byKarU4Xh_ugiEfSCljV6HiXxjKUfEdDxFktEyINXOO2JuRljeaUiKKwoS-kBwVwk97idzc90LyT7R53RqPUZ4NaFs0St2dc71U-ujYux5rD4uLyOTF16gkaM7QhUSJaaEuZwj4_TjD492F3H5nYIggBliSDAwrFiANKOoCYNvK5vyUVZK6D7hPMZVSSskdS5tCRTpZ46YbAesYH_0G00]--></g></svg>