<?xml version="1.0" encoding="us-ascii" standalone="no"?><svg xmlns="http://www.w3.org/2000/svg" xmlns:xlink="http://www.w3.org/1999/xlink" contentStyleType="text/css" height="711.2px" preserveAspectRatio="none" style="width:928px;height:711px;background:#FFFFFF;" version="1.1" viewBox="0 0 928 711" width="928px" zoomAndPan="magnify"><defs/><g><rect fill="#FFFFFF" height="555.5609" style="stroke:#181818;stroke-width:0.8000000000000002;" width="8" x="59.2" y="74.8969"/><rect fill="#FFFFFF" height="536.9281" style="stroke:#181818;stroke-width:0.8000000000000002;" width="8" x="308.8" y="93.5297"/><rect fill="#FFFFFF" height="50.0656" style="stroke:#181818;stroke-width:0.8000000000000002;" width="8" x="485.6" y="153.4594"/><rect fill="#FFFFFF" height="50.0656" style="stroke:#181818;stroke-width:0.8000000000000002;" width="8" x="485.6" y="228.5578"/><rect fill="#FFFFFF" height="334.0016" style="stroke:#181818;stroke-width:0.8000000000000002;" width="8" x="485.6" y="303.6563"/><rect fill="#FFFFFF" height="72.4344" style="stroke:#181818;stroke-width:0.8000000000000002;" width="8" x="489.6" y="355.0891"/><rect fill="#FFFFFF" height="25.0328" style="stroke:#181818;stroke-width:0.8000000000000002;" width="8" x="712.4" y="178.4922"/><rect fill="#FFFFFF" height="25.0328" style="stroke:#181818;stroke-width:0.8000000000000002;" width="8" x="712.4" y="253.5906"/><rect fill="#FFFFFF" height="122.2359" style="stroke:#181818;stroke-width:0.8000000000000002;" width="8" x="811.2" y="458.1563"/><line style="stroke:#181818;stroke-width:0.4000000000000001;stroke-dasharray:5.0,5.0;" x1="63.2" x2="63.2" y1="66.8969" y2="644.8578"/><line style="stroke:#181818;stroke-width:0.4000000000000001;stroke-dasharray:5.0,5.0;" x1="312.8" x2="312.8" y1="66.8969" y2="644.8578"/><line style="stroke:#181818;stroke-width:0.4000000000000001;stroke-dasharray:5.0,5.0;" x1="489.6" x2="489.6" y1="125.3781" y2="644.8578"/><line style="stroke:#181818;stroke-width:0.4000000000000001;stroke-dasharray:5.0,5.0;" x1="630.4" x2="630.4" y1="66.8969" y2="644.8578"/><line style="stroke:#181818;stroke-width:0.4000000000000001;stroke-dasharray:5.0,5.0;" x1="716" x2="716" y1="66.8969" y2="644.8578"/><line style="stroke:#181818;stroke-width:0.4000000000000001;stroke-dasharray:5.0,5.0;" x1="815.2" x2="815.2" y1="66.8969" y2="644.8578"/><line style="stroke:#181818;stroke-width:0.4000000000000001;stroke-dasharray:5.0,5.0;" x1="899.2" x2="899.2" y1="66.8969" y2="644.8578"/><text fill="#000000" font-family="sans-serif" font-size="11.2" lengthAdjust="spacing" textLength="113.6" x="4" y="64.0859">Vehicle Fleet Manager</text><ellipse cx="63.2" cy="10.8" fill="#E3E3E3" rx="6.4" ry="6.4" style="stroke:#181818;stroke-width:0.4000000000000001;"/><path d="M63.2,17.2 L63.2,38.8 M52.8,23.6 L73.6,23.6 M63.2,38.8 L52.8,50.8 M63.2,38.8 L73.6,50.8 " fill="none" style="stroke:#181818;stroke-width:0.4000000000000001;"/><text fill="#000000" font-family="sans-serif" font-size="11.2" lengthAdjust="spacing" textLength="113.6" x="4" y="656.1438">Vehicle Fleet Manager</text><ellipse cx="63.2" cy="665.7547" fill="#E3E3E3" rx="6.4" ry="6.4" style="stroke:#181818;stroke-width:0.4000000000000001;"/><path d="M63.2,672.1547 L63.2,693.7547 M52.8,678.5547 L73.6,678.5547 M63.2,693.7547 L52.8,705.7547 M63.2,693.7547 L73.6,705.7547 " fill="none" style="stroke:#181818;stroke-width:0.4000000000000001;"/><rect fill="#E3E3E3" height="26.0969" rx="2" ry="2" style="stroke:#181818;stroke-width:0.4000000000000001;" width="148.8" x="238.4" y="40"/><text fill="#000000" font-family="sans-serif" font-size="11.2" lengthAdjust="spacing" textLength="137.6" x="244" y="57.6859">:ProduceMaintenanceListUI</text><rect fill="#E3E3E3" height="26.0969" rx="2" ry="2" style="stroke:#181818;stroke-width:0.4000000000000001;" width="148.8" x="238.4" y="644.0578"/><text fill="#000000" font-family="sans-serif" font-size="11.2" lengthAdjust="spacing" textLength="137.6" x="244" y="661.7438">:ProduceMaintenanceListUI</text><rect fill="#E3E3E3" height="26.0969" rx="2" ry="2" style="stroke:#181818;stroke-width:0.4000000000000001;" width="188.8" x="395.2" y="644.0578"/><text fill="#000000" font-family="sans-serif" font-size="11.2" lengthAdjust="spacing" textLength="177.6" x="400.8" y="661.7438">:ProduceMaintenanceListController</text><rect fill="#E3E3E3" height="26.0969" rx="2" ry="2" style="stroke:#181818;stroke-width:0.4000000000000001;" width="77.6" x="592" y="40"/><text fill="#000000" font-family="sans-serif" font-size="11.2" lengthAdjust="spacing" textLength="66.4" x="597.6" y="57.6859">:Repositories</text><rect fill="#E3E3E3" height="26.0969" rx="2" ry="2" style="stroke:#181818;stroke-width:0.4000000000000001;" width="77.6" x="592" y="644.0578"/><text fill="#000000" font-family="sans-serif" font-size="11.2" lengthAdjust="spacing" textLength="66.4" x="597.6" y="661.7438">:Repositories</text><rect fill="#E3E3E3" height="40.9938" rx="2" ry="2" style="stroke:#181818;stroke-width:0.4000000000000001;" width="77.6" x="677.6" y="25.1031"/><text fill="#000000" font-family="sans-serif" font-size="11.2" lengthAdjust="spacing" textLength="59.2" x="686.8" y="42.7891">repositories</text><text fill="#000000" font-family="sans-serif" font-size="11.2" lengthAdjust="spacing" textLength="66.4" x="683.2" y="57.6859">:Repositories</text><rect fill="#E3E3E3" height="40.9938" rx="2" ry="2" style="stroke:#181818;stroke-width:0.4000000000000001;" width="77.6" x="677.6" y="644.0578"/><text fill="#000000" font-family="sans-serif" font-size="11.2" lengthAdjust="spacing" textLength="59.2" x="686.8" y="661.7438">repositories</text><text fill="#000000" font-family="sans-serif" font-size="11.2" lengthAdjust="spacing" textLength="66.4" x="683.2" y="676.6406">:Repositories</text><rect fill="#E3E3E3" height="40.9938" rx="2" ry="2" style="stroke:#181818;stroke-width:0.4000000000000001;" width="104" x="763.2" y="25.1031"/><text fill="#000000" font-family="sans-serif" font-size="11.2" lengthAdjust="spacing" textLength="92.8" x="768.8" y="42.7891">vehicleRepository:</text><text fill="#000000" font-family="sans-serif" font-size="11.2" lengthAdjust="spacing" textLength="91.2" x="769.6" y="57.6859">VehicleRepository</text><rect fill="#E3E3E3" height="40.9938" rx="2" ry="2" style="stroke:#181818;stroke-width:0.4000000000000001;" width="104" x="763.2" y="644.0578"/><text fill="#000000" font-family="sans-serif" font-size="11.2" lengthAdjust="spacing" textLength="92.8" x="768.8" y="661.7438">vehicleRepository:</text><text fill="#000000" font-family="sans-serif" font-size="11.2" lengthAdjust="spacing" textLength="91.2" x="769.6" y="676.6406">VehicleRepository</text><rect fill="#E3E3E3" height="26.0969" rx="2" ry="2" style="stroke:#181818;stroke-width:0.4000000000000001;" width="48" x="875.2" y="40"/><text fill="#000000" font-family="sans-serif" font-size="11.2" lengthAdjust="spacing" textLength="36.8" x="880.8" y="57.6859">Vehicle</text><rect fill="#E3E3E3" height="26.0969" rx="2" ry="2" style="stroke:#181818;stroke-width:0.4000000000000001;" width="48" x="875.2" y="644.0578"/><text fill="#000000" font-family="sans-serif" font-size="11.2" lengthAdjust="spacing" textLength="36.8" x="880.8" y="661.7438">Vehicle</text><rect fill="#FFFFFF" height="555.5609" style="stroke:#181818;stroke-width:0.8000000000000002;" width="8" x="59.2" y="74.8969"/><rect fill="#FFFFFF" height="536.9281" style="stroke:#181818;stroke-width:0.8000000000000002;" width="8" x="308.8" y="93.5297"/><rect fill="#FFFFFF" height="50.0656" style="stroke:#181818;stroke-width:0.8000000000000002;" width="8" x="485.6" y="153.4594"/><rect fill="#FFFFFF" height="50.0656" style="stroke:#181818;stroke-width:0.8000000000000002;" width="8" x="485.6" y="228.5578"/><rect fill="#FFFFFF" height="334.0016" style="stroke:#181818;stroke-width:0.8000000000000002;" width="8" x="485.6" y="303.6563"/><rect fill="#FFFFFF" height="72.4344" style="stroke:#181818;stroke-width:0.8000000000000002;" width="8" x="489.6" y="355.0891"/><rect fill="#FFFFFF" height="25.0328" style="stroke:#181818;stroke-width:0.8000000000000002;" width="8" x="712.4" y="178.4922"/><rect fill="#FFFFFF" height="25.0328" style="stroke:#181818;stroke-width:0.8000000000000002;" width="8" x="712.4" y="253.5906"/><rect fill="#FFFFFF" height="122.2359" style="stroke:#181818;stroke-width:0.8000000000000002;" width="8" x="811.2" y="458.1563"/><polygon fill="#181818" points="299.2,90.3297,307.2,93.5297,299.2,96.7297,302.4,93.5297" style="stroke:#181818;stroke-width:0.8000000000000002;"/><line style="stroke:#181818;stroke-width:0.8000000000000002;" x1="67.2" x2="304" y1="93.5297" y2="93.5297"/><text fill="#000000" font-family="sans-serif" font-size="10.4" font-weight="bold" lengthAdjust="spacing" textLength="5.6" x="72.8" y="89.3195">1</text><text fill="#000000" font-family="sans-serif" font-size="10.4" lengthAdjust="spacing" textLength="217.6" x="81.6" y="89.3195">asks to list the vehicles that need maintenance</text><polygon fill="#181818" points="385.6,115.3625,393.6,118.5625,385.6,121.7625,388.8,118.5625" style="stroke:#181818;stroke-width:0.8000000000000002;"/><line style="stroke:#181818;stroke-width:0.8000000000000002;" x1="316.8" x2="390.4" y1="118.5625" y2="118.5625"/><text fill="#000000" font-family="sans-serif" font-size="10.4" font-weight="bold" lengthAdjust="spacing" textLength="5.6" x="322.4" y="114.3523">2</text><text fill="#000000" font-family="sans-serif" font-size="10.4" lengthAdjust="spacing" textLength="28.8" x="331.2" y="114.3523">create</text><rect fill="#E3E3E3" height="26.0969" rx="2" ry="2" style="stroke:#181818;stroke-width:0.4000000000000001;" width="188.8" x="395.2" y="99.9297"/><text fill="#000000" font-family="sans-serif" font-size="11.2" lengthAdjust="spacing" textLength="177.6" x="400.8" y="117.6156">:ProduceMaintenanceListController</text><polygon fill="#181818" points="476,150.2594,484,153.4594,476,156.6594,479.2,153.4594" style="stroke:#181818;stroke-width:0.8000000000000002;"/><line style="stroke:#181818;stroke-width:0.8000000000000002;" x1="316.8" x2="480.8" y1="153.4594" y2="153.4594"/><text fill="#000000" font-family="sans-serif" font-size="10.4" font-weight="bold" lengthAdjust="spacing" textLength="5.6" x="322.4" y="149.2492">3</text><text fill="#000000" font-family="sans-serif" font-size="10.4" lengthAdjust="spacing" textLength="104.8" x="331.2" y="149.2492">getVehicleRepository()</text><polygon fill="#181818" points="702.8,175.2922,710.8,178.4922,702.8,181.6922,706,178.4922" style="stroke:#181818;stroke-width:0.8000000000000002;"/><line style="stroke:#181818;stroke-width:0.8000000000000002;" x1="493.6" x2="707.6" y1="178.4922" y2="178.4922"/><text fill="#000000" font-family="sans-serif" font-size="10.4" font-weight="bold" lengthAdjust="spacing" textLength="5.6" x="499.2" y="174.282">4</text><text fill="#000000" font-family="sans-serif" font-size="10.4" lengthAdjust="spacing" textLength="104.8" x="508" y="174.282">getVehicleRepository()</text><polygon fill="#181818" points="498.4,200.325,490.4,203.525,498.4,206.725,495.2,203.525" style="stroke:#181818;stroke-width:0.8000000000000002;"/><line style="stroke:#181818;stroke-width:0.8000000000000002;stroke-dasharray:2.0,2.0;" x1="493.6" x2="715.6" y1="203.525" y2="203.525"/><text fill="#000000" font-family="sans-serif" font-size="10.4" font-weight="bold" lengthAdjust="spacing" textLength="5.6" x="503.2" y="199.3148">5</text><text fill="#000000" font-family="sans-serif" font-size="10.4" lengthAdjust="spacing" textLength="80.8" x="512" y="199.3148">vehicleRepository</text><polygon fill="#181818" points="476,225.3578,484,228.5578,476,231.7578,479.2,228.5578" style="stroke:#181818;stroke-width:0.8000000000000002;"/><line style="stroke:#181818;stroke-width:0.8000000000000002;" x1="316.8" x2="480.8" y1="228.5578" y2="228.5578"/><text fill="#000000" font-family="sans-serif" font-size="10.4" font-weight="bold" lengthAdjust="spacing" textLength="5.6" x="322.4" y="224.3477">6</text><text fill="#000000" font-family="sans-serif" font-size="10.4" lengthAdjust="spacing" textLength="60.8" x="331.2" y="224.3477">getVehicles()</text><polygon fill="#181818" points="702.8,250.3906,710.8,253.5906,702.8,256.7906,706,253.5906" style="stroke:#181818;stroke-width:0.8000000000000002;"/><line style="stroke:#181818;stroke-width:0.8000000000000002;" x1="493.6" x2="707.6" y1="253.5906" y2="253.5906"/><text fill="#000000" font-family="sans-serif" font-size="10.4" font-weight="bold" lengthAdjust="spacing" textLength="5.6" x="499.2" y="249.3805">7</text><text fill="#000000" font-family="sans-serif" font-size="10.4" lengthAdjust="spacing" textLength="60.8" x="508" y="249.3805">getVehicles()</text><polygon fill="#181818" points="498.4,275.4234,490.4,278.6234,498.4,281.8234,495.2,278.6234" style="stroke:#181818;stroke-width:0.8000000000000002;"/><line style="stroke:#181818;stroke-width:0.8000000000000002;stroke-dasharray:2.0,2.0;" x1="493.6" x2="715.6" y1="278.6234" y2="278.6234"/><text fill="#000000" font-family="sans-serif" font-size="10.4" font-weight="bold" lengthAdjust="spacing" textLength="5.6" x="503.2" y="274.4133">8</text><text fill="#000000" font-family="sans-serif" font-size="10.4" lengthAdjust="spacing" textLength="36.8" x="512" y="274.4133">vehicles</text><polygon fill="#181818" points="476,300.4563,484,303.6563,476,306.8563,479.2,303.6563" style="stroke:#181818;stroke-width:0.8000000000000002;"/><line style="stroke:#181818;stroke-width:0.8000000000000002;" x1="316.8" x2="480.8" y1="303.6563" y2="303.6563"/><text fill="#000000" font-family="sans-serif" font-size="10.4" font-weight="bold" lengthAdjust="spacing" textLength="5.6" x="322.4" y="299.4461">9</text><text fill="#000000" font-family="sans-serif" font-size="10.4" lengthAdjust="spacing" textLength="119.2" x="331.2" y="299.4461">produceMaintenanecList()</text><line style="stroke:#181818;stroke-width:0.8000000000000002;" x1="493.6" x2="531.2" y1="344.6891" y2="344.6891"/><line style="stroke:#181818;stroke-width:0.8000000000000002;" x1="531.2" x2="531.2" y1="344.6891" y2="355.0891"/><line style="stroke:#181818;stroke-width:0.8000000000000002;" x1="498.4" x2="531.2" y1="355.0891" y2="355.0891"/><polygon fill="#181818" points="506.4,351.8891,498.4,355.0891,506.4,358.2891,503.2,355.0891" style="stroke:#181818;stroke-width:0.8000000000000002;"/><text fill="#000000" font-family="sans-serif" font-size="10.4" font-weight="bold" lengthAdjust="spacing" textLength="11.2" x="503.2" y="340.4789">10</text><text fill="#000000" font-family="sans-serif" font-size="10.4" lengthAdjust="spacing" textLength="104.8" x="517.6" y="340.4789">getVFMFromSession()</text><rect fill="none" height="34.6016" style="stroke:#000000;stroke-width:1.2000000000000002;" width="193.6" x="392.8" y="365.4891"/><path d="M392.8,365.4891 L442.4,365.4891 L442.4,372.6891 L434.4,380.6891 L392.8,380.6891 L392.8,365.4891 " fill="#EEEEEE" style="stroke:#000000;stroke-width:1.6000000000000003;"/><text fill="#000000" font-family="sans-serif" font-size="10.4" font-weight="bold" lengthAdjust="spacing" textLength="13.6" x="403.2" y="378.3117">ref</text><text fill="#000000" font-family="sans-serif" font-size="9.6" lengthAdjust="spacing" textLength="36" x="471.6" y="394.2484">Get VFM</text><line style="stroke:#181818;stroke-width:0.8000000000000002;stroke-dasharray:2.0,2.0;" x1="497.6" x2="531.2" y1="426.7234" y2="426.7234"/><line style="stroke:#181818;stroke-width:0.8000000000000002;stroke-dasharray:2.0,2.0;" x1="531.2" x2="531.2" y1="426.7234" y2="437.1234"/><line style="stroke:#181818;stroke-width:0.8000000000000002;stroke-dasharray:2.0,2.0;" x1="493.6" x2="531.2" y1="437.1234" y2="437.1234"/><polygon fill="#181818" points="501.6,433.9234,493.6,437.1234,501.6,440.3234,498.4,437.1234" style="stroke:#181818;stroke-width:0.8000000000000002;"/><text fill="#000000" font-family="sans-serif" font-size="10.4" font-weight="bold" lengthAdjust="spacing" textLength="11.2" x="503.2" y="422.5133">11</text><text fill="#000000" font-family="sans-serif" font-size="10.4" lengthAdjust="spacing" textLength="15.2" x="517.6" y="422.5133">vfm</text><polygon fill="#181818" points="801.6,454.9563,809.6,458.1563,801.6,461.3563,804.8,458.1563" style="stroke:#181818;stroke-width:0.8000000000000002;"/><line style="stroke:#181818;stroke-width:0.8000000000000002;" x1="493.6" x2="806.4" y1="458.1563" y2="458.1563"/><text fill="#000000" font-family="sans-serif" font-size="10.4" font-weight="bold" lengthAdjust="spacing" textLength="11.2" x="499.2" y="453.9461">12</text><text fill="#000000" font-family="sans-serif" font-size="10.4" lengthAdjust="spacing" textLength="119.2" x="513.6" y="453.9461">produceMaintenanecList()</text><rect fill="none" height="34.6016" style="stroke:#000000;stroke-width:1.2000000000000002;" width="108.8" x="760.8" y="484.5563"/><path d="M760.8,484.5563 L810.4,484.5563 L810.4,491.7563 L802.4,499.7563 L760.8,499.7563 L760.8,484.5563 " fill="#EEEEEE" style="stroke:#000000;stroke-width:1.6000000000000003;"/><text fill="#000000" font-family="sans-serif" font-size="10.4" font-weight="bold" lengthAdjust="spacing" textLength="13.6" x="771.2" y="497.3789">ref</text><text fill="#000000" font-family="sans-serif" font-size="9.6" lengthAdjust="spacing" textLength="75.2" x="777.6" y="513.3156">Get Vehicle Parts</text><rect fill="none" height="34.6016" style="stroke:#000000;stroke-width:1.2000000000000002;" width="108.8" x="760.8" y="523.1578"/><path d="M760.8,523.1578 L810.4,523.1578 L810.4,530.3578 L802.4,538.3578 L760.8,538.3578 L760.8,523.1578 " fill="#EEEEEE" style="stroke:#000000;stroke-width:1.6000000000000003;"/><text fill="#000000" font-family="sans-serif" font-size="10.4" font-weight="bold" lengthAdjust="spacing" textLength="13.6" x="771.2" y="535.9805">ref</text><text fill="#000000" font-family="sans-serif" font-size="9.6" lengthAdjust="spacing" textLength="48" x="791.2" y="551.9172">Create List</text><polygon fill="#181818" points="502.4,577.1922,494.4,580.3922,502.4,583.5922,499.2,580.3922" style="stroke:#181818;stroke-width:0.8000000000000002;"/><line style="stroke:#181818;stroke-width:0.8000000000000002;stroke-dasharray:2.0,2.0;" x1="497.6" x2="814.4" y1="580.3922" y2="580.3922"/><text fill="#000000" font-family="sans-serif" font-size="10.4" font-weight="bold" lengthAdjust="spacing" textLength="11.2" x="507.2" y="576.182">13</text><text fill="#000000" font-family="sans-serif" font-size="10.4" lengthAdjust="spacing" textLength="76" x="521.6" y="576.182">maintenanceList</text><polygon fill="#181818" points="325.6,602.225,317.6,605.425,325.6,608.625,322.4,605.425" style="stroke:#181818;stroke-width:0.8000000000000002;"/><line style="stroke:#181818;stroke-width:0.8000000000000002;stroke-dasharray:2.0,2.0;" x1="320.8" x2="484.8" y1="605.425" y2="605.425"/><text fill="#000000" font-family="sans-serif" font-size="10.4" font-weight="bold" lengthAdjust="spacing" textLength="11.2" x="330.4" y="601.2148">14</text><text fill="#000000" font-family="sans-serif" font-size="10.4" lengthAdjust="spacing" textLength="76" x="344.8" y="601.2148">maintenanceList</text><polygon fill="#181818" points="72,627.2578,64,630.4578,72,633.6578,68.8,630.4578" style="stroke:#181818;stroke-width:0.8000000000000002;"/><line style="stroke:#181818;stroke-width:0.8000000000000002;stroke-dasharray:2.0,2.0;" x1="67.2" x2="312" y1="630.4578" y2="630.4578"/><text fill="#000000" font-family="sans-serif" font-size="10.4" font-weight="bold" lengthAdjust="spacing" textLength="11.2" x="76.8" y="626.2477">15</text><text fill="#000000" font-family="sans-serif" font-size="10.4" lengthAdjust="spacing" textLength="117.6" x="91.2" y="626.2477">displays maintenance list</text><!--SRC=[ZLLDZzem4BtxLuoui5qjVo27bLQqL4YW8bWuSV4w0x58xDHsQ97uyHqxAIG1GdoAv-FDcsTdR0zIvTpm33Ajj4YCpX2SAP3PYoVdui3tk7Ad5C6WS5pjqtg0JNYi_qYrXnrFBJB62wTLaNsXOMoOo1XXfxNxqdyP5quR66mmaOBG9YcYWpbNX6y6m2ryV9ypGdLIo9mh1uDeONHS29npgHmghWJEf7NhQGXVJtj5ZxLoHgTfLMJykPoryfQOQok9d4GROYw6qqhwVgcZPegfPMpLBS1Yzl7Pp3YMNL-HewtQj6qXTxDiPbPHfU_7TBoU_M9UItda3eDc3Af56nYzap0GKVJ1WjEGaWJW4eIA0HaJxa0Xnf1TbRg2NA19NpQ4sYBS4S7xAX5TXjy5McSXvex3Yy4T6YIWDuZH2YDp9xLw0v1gfqt6KzYgfiUXI9GKv6cOuyBmyajewxwnEe6XCEYPXJDiCtiFvjTNubQ6iGSX5B17ToF-IxFMHOPGhE7oAm0He3_fVe0Dq711Rjn-1S1HHJM2ctjpanHZ4xN3Vx-L1yhOE_nxYjDBg2xydbezryrsvZsJhbD6l-vAcBV640e_XchTTgXtFf_PFVLgfpEPJsXIhz1Q-akwBotzbA2FQChjJngtbCrGnO_kyxNISPUnthVeFylDaZAVz__yo6a6TifoQOm2w_RGOlM-B6Y8Dey_D5vF7PVZnDCBghJvK3yrIRBcky8UwTCcVv4spELEbEk4ZI2MDa_voTOpmZHdhNf-JjUs_aNu1m00]--></g></svg>