<?xml version="1.0" encoding="us-ascii" standalone="no"?><svg xmlns="http://www.w3.org/2000/svg" xmlns:xlink="http://www.w3.org/1999/xlink" contentStyleType="text/css" height="901px" preserveAspectRatio="none" style="width:1458px;height:901px;background:#FFFFFF;" version="1.1" viewBox="0 0 1458 901" width="1458px" zoomAndPan="magnify"><defs/><g><!--class ApplicationSession--><g id="elem_ApplicationSession"><rect codeLine="11" fill="#F1F1F1" height="85.2422" id="ApplicationSession" rx="2.5" ry="2.5" style="stroke:#181818;stroke-width:0.5;" width="151" x="7" y="266.7627"/><ellipse cx="22" cy="282.7627" fill="#ADD1B2" rx="11" ry="11" style="stroke:#181818;stroke-width:1.0;"/><path d="M24.7656,278.6377 Q24.9219,278.4189 25.1094,278.3096 Q25.2969,278.2002 25.5156,278.2002 Q25.8906,278.2002 26.125,278.4658 Q26.3594,278.7158 26.3594,279.3252 L26.3594,280.7783 Q26.3594,281.3877 26.125,281.6533 Q25.8906,281.9189 25.5156,281.9189 Q25.1719,281.9189 24.9688,281.7158 Q24.7656,281.5283 24.6563,281.0127 Q24.6094,280.6533 24.4219,280.4658 Q24.0938,280.0908 23.4844,279.8721 Q22.875,279.6533 22.25,279.6533 Q21.4844,279.6533 20.8438,279.9814 Q20.2188,280.3096 19.7188,281.0596 Q19.2344,281.8096 19.2344,282.8408 L19.2344,283.9346 Q19.2344,285.1689 20.125,285.9971 Q21.0156,286.8096 22.6094,286.8096 Q23.5469,286.8096 24.2031,286.5596 Q24.5938,286.4033 25.0156,285.9658 Q25.2813,285.7002 25.4219,285.6221 Q25.5781,285.5439 25.7813,285.5439 Q26.1094,285.5439 26.3594,285.8096 Q26.625,286.0596 26.625,286.4033 Q26.625,286.7471 26.2813,287.1533 Q25.7813,287.7314 24.9844,288.0596 Q23.9063,288.5127 22.6094,288.5127 Q21.0938,288.5127 19.8906,287.8877 Q18.9063,287.3877 18.2188,286.3252 Q17.5313,285.2471 17.5313,283.9658 L17.5313,282.8096 Q17.5313,281.4814 18.1406,280.3408 Q18.7656,279.1846 19.8594,278.5752 Q20.9531,277.9502 22.1875,277.9502 Q22.9219,277.9502 23.5625,278.1221 Q24.2188,278.2783 24.7656,278.6377 Z " fill="#000000"/><text fill="#000000" font-family="sans-serif" font-size="14" lengthAdjust="spacing" textLength="119" x="36" y="288.5596">ApplicationSession</text><line style="stroke:#181818;stroke-width:0.5;" x1="8" x2="157" y1="298.7627" y2="298.7627"/><line style="stroke:#181818;stroke-width:0.5;" x1="8" x2="157" y1="306.7627" y2="306.7627"/><text fill="#000000" font-family="sans-serif" font-size="14" lengthAdjust="spacing" textLength="128" x="13" y="325.8701">+static getInstance()</text><text fill="#000000" font-family="sans-serif" font-size="14" lengthAdjust="spacing" textLength="136" x="13" y="344.4912">+getCurrentSession()</text></g><!--class UserSession--><g id="elem_UserSession"><rect codeLine="17" fill="#F1F1F1" height="66.6211" id="UserSession" rx="2.5" ry="2.5" style="stroke:#181818;stroke-width:0.5;" width="113" x="146" y="551.7627"/><ellipse cx="161.9" cy="567.7627" fill="#ADD1B2" rx="11" ry="11" style="stroke:#181818;stroke-width:1.0;"/><path d="M164.6656,563.6377 Q164.8219,563.4189 165.0094,563.3096 Q165.1969,563.2002 165.4156,563.2002 Q165.7906,563.2002 166.025,563.4658 Q166.2594,563.7158 166.2594,564.3252 L166.2594,565.7783 Q166.2594,566.3877 166.025,566.6533 Q165.7906,566.9189 165.4156,566.9189 Q165.0719,566.9189 164.8688,566.7158 Q164.6656,566.5283 164.5563,566.0127 Q164.5094,565.6533 164.3219,565.4658 Q163.9938,565.0908 163.3844,564.8721 Q162.775,564.6533 162.15,564.6533 Q161.3844,564.6533 160.7438,564.9814 Q160.1188,565.3096 159.6188,566.0596 Q159.1344,566.8096 159.1344,567.8408 L159.1344,568.9346 Q159.1344,570.1689 160.025,570.9971 Q160.9156,571.8096 162.5094,571.8096 Q163.4469,571.8096 164.1031,571.5596 Q164.4938,571.4033 164.9156,570.9658 Q165.1813,570.7002 165.3219,570.6221 Q165.4781,570.5439 165.6813,570.5439 Q166.0094,570.5439 166.2594,570.8096 Q166.525,571.0596 166.525,571.4033 Q166.525,571.7471 166.1813,572.1533 Q165.6813,572.7314 164.8844,573.0596 Q163.8063,573.5127 162.5094,573.5127 Q160.9938,573.5127 159.7906,572.8877 Q158.8063,572.3877 158.1188,571.3252 Q157.4313,570.2471 157.4313,568.9658 L157.4313,567.8096 Q157.4313,566.4814 158.0406,565.3408 Q158.6656,564.1846 159.7594,563.5752 Q160.8531,562.9502 162.0875,562.9502 Q162.8219,562.9502 163.4625,563.1221 Q164.1188,563.2783 164.6656,563.6377 Z " fill="#000000"/><text fill="#000000" font-family="sans-serif" font-size="14" lengthAdjust="spacing" textLength="79" x="176.1" y="573.5596">UserSession</text><line style="stroke:#181818;stroke-width:0.5;" x1="147" x2="258" y1="583.7627" y2="583.7627"/><line style="stroke:#181818;stroke-width:0.5;" x1="147" x2="258" y1="591.7627" y2="591.7627"/><text fill="#000000" font-family="sans-serif" font-size="14" lengthAdjust="spacing" textLength="101" x="152" y="610.8701">+getUserEmail()</text></g><!--class VehicleFleetManager--><g id="elem_VehicleFleetManager"><rect codeLine="22" fill="#F1F1F1" height="103.8633" id="VehicleFleetManager" rx="2.5" ry="2.5" style="stroke:#181818;stroke-width:0.5;" width="166" x="498.5" y="790.7627"/><ellipse cx="513.5" cy="806.7627" fill="#ADD1B2" rx="11" ry="11" style="stroke:#181818;stroke-width:1.0;"/><path d="M516.2656,802.6377 Q516.4219,802.4189 516.6094,802.3096 Q516.7969,802.2002 517.0156,802.2002 Q517.3906,802.2002 517.625,802.4658 Q517.8594,802.7158 517.8594,803.3252 L517.8594,804.7783 Q517.8594,805.3877 517.625,805.6533 Q517.3906,805.9189 517.0156,805.9189 Q516.6719,805.9189 516.4688,805.7158 Q516.2656,805.5283 516.1563,805.0127 Q516.1094,804.6533 515.9219,804.4658 Q515.5938,804.0908 514.9844,803.8721 Q514.375,803.6533 513.75,803.6533 Q512.9844,803.6533 512.3438,803.9814 Q511.7188,804.3096 511.2188,805.0596 Q510.7344,805.8096 510.7344,806.8408 L510.7344,807.9346 Q510.7344,809.1689 511.625,809.9971 Q512.5156,810.8096 514.1094,810.8096 Q515.0469,810.8096 515.7031,810.5596 Q516.0938,810.4033 516.5156,809.9658 Q516.7813,809.7002 516.9219,809.6221 Q517.0781,809.5439 517.2813,809.5439 Q517.6094,809.5439 517.8594,809.8096 Q518.125,810.0596 518.125,810.4033 Q518.125,810.7471 517.7813,811.1533 Q517.2813,811.7314 516.4844,812.0596 Q515.4063,812.5127 514.1094,812.5127 Q512.5938,812.5127 511.3906,811.8877 Q510.4063,811.3877 509.7188,810.3252 Q509.0313,809.2471 509.0313,807.9658 L509.0313,806.8096 Q509.0313,805.4814 509.6406,804.3408 Q510.2656,803.1846 511.3594,802.5752 Q512.4531,801.9502 513.6875,801.9502 Q514.4219,801.9502 515.0625,802.1221 Q515.7188,802.2783 516.2656,802.6377 Z " fill="#000000"/><text fill="#000000" font-family="sans-serif" font-size="14" lengthAdjust="spacing" textLength="134" x="527.5" y="812.5596">VehicleFleetManager</text><line style="stroke:#181818;stroke-width:0.5;" x1="499.5" x2="663.5" y1="822.7627" y2="822.7627"/><text fill="#000000" font-family="sans-serif" font-size="14" lengthAdjust="spacing" textLength="81" x="504.5" y="841.8701">-String name</text><text fill="#000000" font-family="sans-serif" font-size="14" lengthAdjust="spacing" textLength="79" x="504.5" y="860.4912">-String email</text><text fill="#000000" font-family="sans-serif" font-size="14" lengthAdjust="spacing" textLength="86" x="504.5" y="879.1123">-String phone</text><line style="stroke:#181818;stroke-width:0.5;" x1="499.5" x2="663.5" y1="886.626" y2="886.626"/></g><!--class Vehicle--><g id="elem_Vehicle"><rect codeLine="28" fill="#F1F1F1" height="252.832" id="Vehicle" rx="2.5" ry="2.5" style="stroke:#181818;stroke-width:0.5;" width="218" x="923.5" y="458.7627"/><ellipse cx="1005.25" cy="474.7627" fill="#ADD1B2" rx="11" ry="11" style="stroke:#181818;stroke-width:1.0;"/><path d="M1008.0156,470.6377 Q1008.1719,470.4189 1008.3594,470.3096 Q1008.5469,470.2002 1008.7656,470.2002 Q1009.1406,470.2002 1009.375,470.4658 Q1009.6094,470.7158 1009.6094,471.3252 L1009.6094,472.7783 Q1009.6094,473.3877 1009.375,473.6533 Q1009.1406,473.9189 1008.7656,473.9189 Q1008.4219,473.9189 1008.2188,473.7158 Q1008.0156,473.5283 1007.9063,473.0127 Q1007.8594,472.6533 1007.6719,472.4658 Q1007.3438,472.0908 1006.7344,471.8721 Q1006.125,471.6533 1005.5,471.6533 Q1004.7344,471.6533 1004.0938,471.9814 Q1003.4688,472.3096 1002.9688,473.0596 Q1002.4844,473.8096 1002.4844,474.8408 L1002.4844,475.9346 Q1002.4844,477.1689 1003.375,477.9971 Q1004.2656,478.8096 1005.8594,478.8096 Q1006.7969,478.8096 1007.4531,478.5596 Q1007.8438,478.4033 1008.2656,477.9658 Q1008.5313,477.7002 1008.6719,477.6221 Q1008.8281,477.5439 1009.0313,477.5439 Q1009.3594,477.5439 1009.6094,477.8096 Q1009.875,478.0596 1009.875,478.4033 Q1009.875,478.7471 1009.5313,479.1533 Q1009.0313,479.7314 1008.2344,480.0596 Q1007.1563,480.5127 1005.8594,480.5127 Q1004.3438,480.5127 1003.1406,479.8877 Q1002.1563,479.3877 1001.4688,478.3252 Q1000.7813,477.2471 1000.7813,475.9658 L1000.7813,474.8096 Q1000.7813,473.4814 1001.3906,472.3408 Q1002.0156,471.1846 1003.1094,470.5752 Q1004.2031,469.9502 1005.4375,469.9502 Q1006.1719,469.9502 1006.8125,470.1221 Q1007.4688,470.2783 1008.0156,470.6377 Z " fill="#000000"/><text fill="#000000" font-family="sans-serif" font-size="14" lengthAdjust="spacing" textLength="46" x="1025.75" y="480.5596">Vehicle</text><line style="stroke:#181818;stroke-width:0.5;" x1="924.5" x2="1140.5" y1="490.7627" y2="490.7627"/><text fill="#000000" font-family="sans-serif" font-size="14" lengthAdjust="spacing" textLength="83" x="929.5" y="509.8701">-String brand</text><text fill="#000000" font-family="sans-serif" font-size="14" lengthAdjust="spacing" textLength="84" x="929.5" y="528.4912">-String model</text><text fill="#000000" font-family="sans-serif" font-size="14" lengthAdjust="spacing" textLength="73" x="929.5" y="547.1123">-String type</text><text fill="#000000" font-family="sans-serif" font-size="14" lengthAdjust="spacing" textLength="123" x="929.5" y="565.7334">-Double tareWeight</text><text fill="#000000" font-family="sans-serif" font-size="14" lengthAdjust="spacing" textLength="133" x="929.5" y="584.3545">-Double grossWeight</text><text fill="#000000" font-family="sans-serif" font-size="14" lengthAdjust="spacing" textLength="89" x="929.5" y="602.9756">-Int currentKm</text><text fill="#000000" font-family="sans-serif" font-size="14" lengthAdjust="spacing" textLength="151" x="929.5" y="621.5967">-LocalDate registerDate</text><text fill="#000000" font-family="sans-serif" font-size="14" lengthAdjust="spacing" textLength="170" x="929.5" y="640.2178">-LocalDate acquisitionDate</text><text fill="#000000" font-family="sans-serif" font-size="14" lengthAdjust="spacing" textLength="173" x="929.5" y="658.8389">-Int maintenanceFrequency</text><text fill="#000000" font-family="sans-serif" font-size="14" lengthAdjust="spacing" textLength="113" x="929.5" y="677.46">-String plateName</text><text fill="#000000" font-family="sans-serif" font-size="14" lengthAdjust="spacing" textLength="206" x="929.5" y="696.0811">-LocalDate lastMaintenanceDate</text><line style="stroke:#181818;stroke-width:0.5;" x1="924.5" x2="1140.5" y1="703.5947" y2="703.5947"/></g><!--class Organization--><g id="elem_Organization"><rect codeLine="42" fill="#F1F1F1" height="234.2109" id="Organization" rx="2.5" ry="2.5" style="stroke:#181818;stroke-width:0.5;" width="447" x="358" y="468.2627"/><ellipse cx="537.25" cy="484.2627" fill="#ADD1B2" rx="11" ry="11" style="stroke:#181818;stroke-width:1.0;"/><path d="M540.0156,480.1377 Q540.1719,479.9189 540.3594,479.8096 Q540.5469,479.7002 540.7656,479.7002 Q541.1406,479.7002 541.375,479.9658 Q541.6094,480.2158 541.6094,480.8252 L541.6094,482.2783 Q541.6094,482.8877 541.375,483.1533 Q541.1406,483.4189 540.7656,483.4189 Q540.4219,483.4189 540.2188,483.2158 Q540.0156,483.0283 539.9063,482.5127 Q539.8594,482.1533 539.6719,481.9658 Q539.3438,481.5908 538.7344,481.3721 Q538.125,481.1533 537.5,481.1533 Q536.7344,481.1533 536.0938,481.4814 Q535.4688,481.8096 534.9688,482.5596 Q534.4844,483.3096 534.4844,484.3408 L534.4844,485.4346 Q534.4844,486.6689 535.375,487.4971 Q536.2656,488.3096 537.8594,488.3096 Q538.7969,488.3096 539.4531,488.0596 Q539.8438,487.9033 540.2656,487.4658 Q540.5313,487.2002 540.6719,487.1221 Q540.8281,487.0439 541.0313,487.0439 Q541.3594,487.0439 541.6094,487.3096 Q541.875,487.5596 541.875,487.9033 Q541.875,488.2471 541.5313,488.6533 Q541.0313,489.2314 540.2344,489.5596 Q539.1563,490.0127 537.8594,490.0127 Q536.3438,490.0127 535.1406,489.3877 Q534.1563,488.8877 533.4688,487.8252 Q532.7813,486.7471 532.7813,485.4658 L532.7813,484.3096 Q532.7813,482.9814 533.3906,481.8408 Q534.0156,480.6846 535.1094,480.0752 Q536.2031,479.4502 537.4375,479.4502 Q538.1719,479.4502 538.8125,479.6221 Q539.4688,479.7783 540.0156,480.1377 Z " fill="#000000"/><text fill="#000000" font-family="sans-serif" font-size="14" lengthAdjust="spacing" textLength="80" x="557.75" y="490.0596">Organization</text><line style="stroke:#181818;stroke-width:0.5;" x1="359" x2="804" y1="500.2627" y2="500.2627"/><text fill="#000000" font-family="sans-serif" font-size="14" lengthAdjust="spacing" textLength="81" x="364" y="519.3701">-String name</text><text fill="#000000" font-family="sans-serif" font-size="14" lengthAdjust="spacing" textLength="114" x="364" y="537.9912">-String vatNumber</text><text fill="#000000" font-family="sans-serif" font-size="14" lengthAdjust="spacing" textLength="97" x="364" y="556.6123">-String address</text><text fill="#000000" font-family="sans-serif" font-size="14" lengthAdjust="spacing" textLength="86" x="364" y="575.2334">-String phone</text><text fill="#000000" font-family="sans-serif" font-size="14" lengthAdjust="spacing" textLength="79" x="364" y="593.8545">-String email</text><text fill="#000000" font-family="sans-serif" font-size="14" lengthAdjust="spacing" textLength="144" x="364" y="612.4756">-List&lt;Vehicle&gt; vehicles</text><text fill="#000000" font-family="sans-serif" font-size="14" lengthAdjust="spacing" textLength="359" x="364" y="631.0967">-Map&lt;Vehicle, List&lt;Maintenance&gt;&gt; maintenanceRecords</text><line style="stroke:#181818;stroke-width:0.5;" x1="359" x2="804" y1="638.6104" y2="638.6104"/><text fill="#000000" font-family="sans-serif" font-size="14" lengthAdjust="spacing" textLength="182" x="364" y="657.7178">+addVehicle(Vehicle vehicle)</text><text fill="#000000" font-family="sans-serif" font-size="14" lengthAdjust="spacing" textLength="391" x="364" y="676.3389">+addMaintenance(Vehicle vehicle, Maintenance maintenance)</text><text fill="#000000" font-family="sans-serif" font-size="14" lengthAdjust="spacing" textLength="435" x="364" y="694.96">+List&lt;Maintenance&gt; getVehicleMaintenanceRecords(Vehicle vehicle)</text></g><!--class VehicleRepository--><g id="elem_VehicleRepository"><rect codeLine="55" fill="#F1F1F1" height="141.1055" id="VehicleRepository" rx="2.5" ry="2.5" style="stroke:#181818;stroke-width:0.5;" width="363" x="995" y="238.7627"/><ellipse cx="1115.25" cy="254.7627" fill="#ADD1B2" rx="11" ry="11" style="stroke:#181818;stroke-width:1.0;"/><path d="M1118.0156,250.6377 Q1118.1719,250.4189 1118.3594,250.3096 Q1118.5469,250.2002 1118.7656,250.2002 Q1119.1406,250.2002 1119.375,250.4658 Q1119.6094,250.7158 1119.6094,251.3252 L1119.6094,252.7783 Q1119.6094,253.3877 1119.375,253.6533 Q1119.1406,253.9189 1118.7656,253.9189 Q1118.4219,253.9189 1118.2188,253.7158 Q1118.0156,253.5283 1117.9063,253.0127 Q1117.8594,252.6533 1117.6719,252.4658 Q1117.3438,252.0908 1116.7344,251.8721 Q1116.125,251.6533 1115.5,251.6533 Q1114.7344,251.6533 1114.0938,251.9814 Q1113.4688,252.3096 1112.9688,253.0596 Q1112.4844,253.8096 1112.4844,254.8408 L1112.4844,255.9346 Q1112.4844,257.1689 1113.375,257.9971 Q1114.2656,258.8096 1115.8594,258.8096 Q1116.7969,258.8096 1117.4531,258.5596 Q1117.8438,258.4033 1118.2656,257.9658 Q1118.5313,257.7002 1118.6719,257.6221 Q1118.8281,257.5439 1119.0313,257.5439 Q1119.3594,257.5439 1119.6094,257.8096 Q1119.875,258.0596 1119.875,258.4033 Q1119.875,258.7471 1119.5313,259.1533 Q1119.0313,259.7314 1118.2344,260.0596 Q1117.1563,260.5127 1115.8594,260.5127 Q1114.3438,260.5127 1113.1406,259.8877 Q1112.1563,259.3877 1111.4688,258.3252 Q1110.7813,257.2471 1110.7813,255.9658 L1110.7813,254.8096 Q1110.7813,253.4814 1111.3906,252.3408 Q1112.0156,251.1846 1113.1094,250.5752 Q1114.2031,249.9502 1115.4375,249.9502 Q1116.1719,249.9502 1116.8125,250.1221 Q1117.4688,250.2783 1118.0156,250.6377 Z " fill="#000000"/><text fill="#000000" font-family="sans-serif" font-size="14" lengthAdjust="spacing" textLength="114" x="1135.75" y="260.5596">VehicleRepository</text><line style="stroke:#181818;stroke-width:0.5;" x1="996" x2="1357" y1="270.7627" y2="270.7627"/><text fill="#000000" font-family="sans-serif" font-size="14" lengthAdjust="spacing" textLength="144" x="1001" y="289.8701">-List&lt;Vehicle&gt; vehicles</text><line style="stroke:#181818;stroke-width:0.5;" x1="996" x2="1357" y1="297.3838" y2="297.3838"/><text fill="#000000" font-family="sans-serif" font-size="14" lengthAdjust="spacing" textLength="351" x="1001" y="316.4912">+Vehicle getVehiclebyPlateNumber(String plateNumber)</text><text fill="#000000" font-family="sans-serif" font-size="14" lengthAdjust="spacing" textLength="255" x="1001" y="335.1123">+Optional&lt;Vehicle&gt; add(Vehicle vehicle)</text><text fill="#000000" font-family="sans-serif" font-size="14" lengthAdjust="spacing" textLength="262" x="1001" y="353.7334">+boolean validateVehicle(Vehicle vehicle)</text><text fill="#000000" font-family="sans-serif" font-size="14" lengthAdjust="spacing" textLength="179" x="1001" y="372.3545">+List&lt;Vehicle&gt; getVehicles()</text></g><!--class OrganizationRepository--><g id="elem_OrganizationRepository"><rect codeLine="63" fill="#F1F1F1" height="103.8633" id="OrganizationRepository" rx="2.5" ry="2.5" style="stroke:#181818;stroke-width:0.5;" width="332" x="485.5" y="257.2627"/><ellipse cx="573.25" cy="273.2627" fill="#ADD1B2" rx="11" ry="11" style="stroke:#181818;stroke-width:1.0;"/><path d="M576.0156,269.1377 Q576.1719,268.9189 576.3594,268.8096 Q576.5469,268.7002 576.7656,268.7002 Q577.1406,268.7002 577.375,268.9658 Q577.6094,269.2158 577.6094,269.8252 L577.6094,271.2783 Q577.6094,271.8877 577.375,272.1533 Q577.1406,272.4189 576.7656,272.4189 Q576.4219,272.4189 576.2188,272.2158 Q576.0156,272.0283 575.9063,271.5127 Q575.8594,271.1533 575.6719,270.9658 Q575.3438,270.5908 574.7344,270.3721 Q574.125,270.1533 573.5,270.1533 Q572.7344,270.1533 572.0938,270.4814 Q571.4688,270.8096 570.9688,271.5596 Q570.4844,272.3096 570.4844,273.3408 L570.4844,274.4346 Q570.4844,275.6689 571.375,276.4971 Q572.2656,277.3096 573.8594,277.3096 Q574.7969,277.3096 575.4531,277.0596 Q575.8438,276.9033 576.2656,276.4658 Q576.5313,276.2002 576.6719,276.1221 Q576.8281,276.0439 577.0313,276.0439 Q577.3594,276.0439 577.6094,276.3096 Q577.875,276.5596 577.875,276.9033 Q577.875,277.2471 577.5313,277.6533 Q577.0313,278.2314 576.2344,278.5596 Q575.1563,279.0127 573.8594,279.0127 Q572.3438,279.0127 571.1406,278.3877 Q570.1563,277.8877 569.4688,276.8252 Q568.7813,275.7471 568.7813,274.4658 L568.7813,273.3096 Q568.7813,271.9814 569.3906,270.8408 Q570.0156,269.6846 571.1094,269.0752 Q572.2031,268.4502 573.4375,268.4502 Q574.1719,268.4502 574.8125,268.6221 Q575.4688,268.7783 576.0156,269.1377 Z " fill="#000000"/><text fill="#000000" font-family="sans-serif" font-size="14" lengthAdjust="spacing" textLength="148" x="593.75" y="279.0596">OrganizationRepository</text><line style="stroke:#181818;stroke-width:0.5;" x1="486.5" x2="816.5" y1="289.2627" y2="289.2627"/><line style="stroke:#181818;stroke-width:0.5;" x1="486.5" x2="816.5" y1="297.2627" y2="297.2627"/><text fill="#000000" font-family="sans-serif" font-size="14" lengthAdjust="spacing" textLength="264" x="491.5" y="316.3701">+boolean save(Organization organization)</text><text fill="#000000" font-family="sans-serif" font-size="14" lengthAdjust="spacing" textLength="253" x="491.5" y="334.9912">+Organization findByName(String name)</text><text fill="#000000" font-family="sans-serif" font-size="14" lengthAdjust="spacing" textLength="320" x="491.5" y="353.6123">+Organization findByVatNumber(String vatNumber)</text></g><!--class Repositories--><g id="elem_Repositories"><rect codeLine="69" fill="#F1F1F1" height="103.8633" id="Repositories" rx="2.5" ry="2.5" style="stroke:#181818;stroke-width:0.5;" width="358" x="997.5" y="55.7627"/><ellipse cx="1132.75" cy="71.7627" fill="#ADD1B2" rx="11" ry="11" style="stroke:#181818;stroke-width:1.0;"/><path d="M1135.5156,67.6377 Q1135.6719,67.4189 1135.8594,67.3096 Q1136.0469,67.2002 1136.2656,67.2002 Q1136.6406,67.2002 1136.875,67.4658 Q1137.1094,67.7158 1137.1094,68.3252 L1137.1094,69.7783 Q1137.1094,70.3877 1136.875,70.6533 Q1136.6406,70.9189 1136.2656,70.9189 Q1135.9219,70.9189 1135.7188,70.7158 Q1135.5156,70.5283 1135.4063,70.0127 Q1135.3594,69.6533 1135.1719,69.4658 Q1134.8438,69.0908 1134.2344,68.8721 Q1133.625,68.6533 1133,68.6533 Q1132.2344,68.6533 1131.5938,68.9814 Q1130.9688,69.3096 1130.4688,70.0596 Q1129.9844,70.8096 1129.9844,71.8408 L1129.9844,72.9346 Q1129.9844,74.1689 1130.875,74.9971 Q1131.7656,75.8096 1133.3594,75.8096 Q1134.2969,75.8096 1134.9531,75.5596 Q1135.3438,75.4033 1135.7656,74.9658 Q1136.0313,74.7002 1136.1719,74.6221 Q1136.3281,74.5439 1136.5313,74.5439 Q1136.8594,74.5439 1137.1094,74.8096 Q1137.375,75.0596 1137.375,75.4033 Q1137.375,75.7471 1137.0313,76.1533 Q1136.5313,76.7314 1135.7344,77.0596 Q1134.6563,77.5127 1133.3594,77.5127 Q1131.8438,77.5127 1130.6406,76.8877 Q1129.6563,76.3877 1128.9688,75.3252 Q1128.2813,74.2471 1128.2813,72.9658 L1128.2813,71.8096 Q1128.2813,70.4814 1128.8906,69.3408 Q1129.5156,68.1846 1130.6094,67.5752 Q1131.7031,66.9502 1132.9375,66.9502 Q1133.6719,66.9502 1134.3125,67.1221 Q1134.9688,67.2783 1135.5156,67.6377 Z " fill="#000000"/><text fill="#000000" font-family="sans-serif" font-size="14" lengthAdjust="spacing" textLength="79" x="1153.25" y="77.5596">Repositories</text><line style="stroke:#181818;stroke-width:0.5;" x1="998.5" x2="1354.5" y1="87.7627" y2="87.7627"/><line style="stroke:#181818;stroke-width:0.5;" x1="998.5" x2="1354.5" y1="95.7627" y2="95.7627"/><text fill="#000000" font-family="sans-serif" font-size="14" lengthAdjust="spacing" textLength="182" x="1003.5" y="114.8701">+getInstance() : Repositories</text><text fill="#000000" font-family="sans-serif" font-size="14" lengthAdjust="spacing" textLength="278" x="1003.5" y="133.4912">+getVehicleRepository() : VehicleRepository</text><text fill="#000000" font-family="sans-serif" font-size="14" lengthAdjust="spacing" textLength="346" x="1003.5" y="152.1123">+getOrganizationRepository() : OrganizationRepository</text></g><!--class ProduceMaintenanceListController--><g id="elem_ProduceMaintenanceListController"><rect codeLine="75" fill="#F1F1F1" height="85.2422" id="ProduceMaintenanceListController" rx="2.5" ry="2.5" style="stroke:#181818;stroke-width:0.5;" width="282" x="451.5" y="65.2627"/><ellipse cx="480.9" cy="81.2627" fill="#ADD1B2" rx="11" ry="11" style="stroke:#181818;stroke-width:1.0;"/><path d="M483.6656,77.1377 Q483.8219,76.9189 484.0094,76.8096 Q484.1969,76.7002 484.4156,76.7002 Q484.7906,76.7002 485.025,76.9658 Q485.2594,77.2158 485.2594,77.8252 L485.2594,79.2783 Q485.2594,79.8877 485.025,80.1533 Q484.7906,80.4189 484.4156,80.4189 Q484.0719,80.4189 483.8688,80.2158 Q483.6656,80.0283 483.5563,79.5127 Q483.5094,79.1533 483.3219,78.9658 Q482.9938,78.5908 482.3844,78.3721 Q481.775,78.1533 481.15,78.1533 Q480.3844,78.1533 479.7438,78.4814 Q479.1188,78.8096 478.6188,79.5596 Q478.1344,80.3096 478.1344,81.3408 L478.1344,82.4346 Q478.1344,83.6689 479.025,84.4971 Q479.9156,85.3096 481.5094,85.3096 Q482.4469,85.3096 483.1031,85.0596 Q483.4938,84.9033 483.9156,84.4658 Q484.1813,84.2002 484.3219,84.1221 Q484.4781,84.0439 484.6813,84.0439 Q485.0094,84.0439 485.2594,84.3096 Q485.525,84.5596 485.525,84.9033 Q485.525,85.2471 485.1813,85.6533 Q484.6813,86.2314 483.8844,86.5596 Q482.8063,87.0127 481.5094,87.0127 Q479.9938,87.0127 478.7906,86.3877 Q477.8063,85.8877 477.1188,84.8252 Q476.4313,83.7471 476.4313,82.4658 L476.4313,81.3096 Q476.4313,79.9814 477.0406,78.8408 Q477.6656,77.6846 478.7594,77.0752 Q479.8531,76.4502 481.0875,76.4502 Q481.8219,76.4502 482.4625,76.6221 Q483.1188,76.7783 483.6656,77.1377 Z " fill="#000000"/><text fill="#000000" font-family="sans-serif" font-size="14" lengthAdjust="spacing" textLength="218" x="498.1" y="87.0596">ProduceMaintenanceListController</text><line style="stroke:#181818;stroke-width:0.5;" x1="452.5" x2="732.5" y1="97.2627" y2="97.2627"/><line style="stroke:#181818;stroke-width:0.5;" x1="452.5" x2="732.5" y1="105.2627" y2="105.2627"/><text fill="#000000" font-family="sans-serif" font-size="14" lengthAdjust="spacing" textLength="270" x="457.5" y="124.3701">+VehicleRepository getVehicleRepository()</text><text fill="#000000" font-family="sans-serif" font-size="14" lengthAdjust="spacing" textLength="179" x="457.5" y="142.9912">+List&lt;Vehicle&gt; getVehicles()</text></g><!--class ProduceMaintenanceListUI--><g id="elem_ProduceMaintenanceListUI"><rect codeLine="96" fill="#F1F1F1" height="85.2422" id="ProduceMaintenanceListUI" rx="2.5" ry="2.5" style="stroke:#181818;stroke-width:0.5;" width="282" x="729.5" y="800.2627"/><ellipse cx="782.25" cy="816.2627" fill="#ADD1B2" rx="11" ry="11" style="stroke:#181818;stroke-width:1.0;"/><path d="M785.0156,812.1377 Q785.1719,811.9189 785.3594,811.8096 Q785.5469,811.7002 785.7656,811.7002 Q786.1406,811.7002 786.375,811.9658 Q786.6094,812.2158 786.6094,812.8252 L786.6094,814.2783 Q786.6094,814.8877 786.375,815.1533 Q786.1406,815.4189 785.7656,815.4189 Q785.4219,815.4189 785.2188,815.2158 Q785.0156,815.0283 784.9063,814.5127 Q784.8594,814.1533 784.6719,813.9658 Q784.3438,813.5908 783.7344,813.3721 Q783.125,813.1533 782.5,813.1533 Q781.7344,813.1533 781.0938,813.4814 Q780.4688,813.8096 779.9688,814.5596 Q779.4844,815.3096 779.4844,816.3408 L779.4844,817.4346 Q779.4844,818.6689 780.375,819.4971 Q781.2656,820.3096 782.8594,820.3096 Q783.7969,820.3096 784.4531,820.0596 Q784.8438,819.9033 785.2656,819.4658 Q785.5313,819.2002 785.6719,819.1221 Q785.8281,819.0439 786.0313,819.0439 Q786.3594,819.0439 786.6094,819.3096 Q786.875,819.5596 786.875,819.9033 Q786.875,820.2471 786.5313,820.6533 Q786.0313,821.2314 785.2344,821.5596 Q784.1563,822.0127 782.8594,822.0127 Q781.3438,822.0127 780.1406,821.3877 Q779.1563,820.8877 778.4688,819.8252 Q777.7813,818.7471 777.7813,817.4658 L777.7813,816.3096 Q777.7813,814.9814 778.3906,813.8408 Q779.0156,812.6846 780.1094,812.0752 Q781.2031,811.4502 782.4375,811.4502 Q783.1719,811.4502 783.8125,811.6221 Q784.4688,811.7783 785.0156,812.1377 Z " fill="#000000"/><text fill="#000000" font-family="sans-serif" font-size="14" lengthAdjust="spacing" textLength="168" x="802.75" y="822.0596">ProduceMaintenanceListUI</text><line style="stroke:#181818;stroke-width:0.5;" x1="730.5" x2="1010.5" y1="832.2627" y2="832.2627"/><line style="stroke:#181818;stroke-width:0.5;" x1="730.5" x2="1010.5" y1="840.2627" y2="840.2627"/><text fill="#000000" font-family="sans-serif" font-size="14" lengthAdjust="spacing" textLength="270" x="735.5" y="859.3701">+VehicleRepository getVehicleRepository()</text><text fill="#000000" font-family="sans-serif" font-size="14" lengthAdjust="spacing" textLength="179" x="735.5" y="877.9912">+List&lt;Vehicle&gt; getVehicles()</text></g><g id="elem_GMN12"><path d="M768.5,68.2627 L768.5,103.7627 L733.53,107.7627 L768.5,111.7627 L768.5,147.4268 A0,0 0 0 0 768.5,147.4268 L962.5,147.4268 A0,0 0 0 0 962.5,147.4268 L962.5,78.2627 L952.5,68.2627 L768.5,68.2627 A0,0 0 0 0 768.5,68.2627 " fill="#FEFFDD" style="stroke:#181818;stroke-width:0.5;"/><path d="M952.5,68.2627 L952.5,78.2627 L962.5,78.2627 L952.5,68.2627 " fill="#FEFFDD" style="stroke:#181818;stroke-width:0.5;"/><text fill="#000000" font-family="sans-serif" font-size="13" lengthAdjust="spacing" textLength="133" x="774.5" y="87.291">- userEmail is obtained</text><text fill="#000000" font-family="sans-serif" font-size="13" lengthAdjust="spacing" textLength="125" x="774.5" y="104.582">from the user session</text><text fill="#000000" font-family="sans-serif" font-size="13" lengthAdjust="spacing" textLength="123" x="774.5" y="121.873">- categoryDescription</text><text fill="#000000" font-family="sans-serif" font-size="13" lengthAdjust="spacing" textLength="173" x="774.5" y="139.1641">is retrieved from selected data</text></g><g id="elem_GMN15"><path d="M1176.5,571.7627 L1176.5,599.0537 A0,0 0 0 0 1176.5,599.0537 L1434.5,599.0537 A0,0 0 0 0 1434.5,599.0537 L1434.5,581.7627 L1424.5,571.7627 L1303.45,571.7627 L1209.39,380.1127 L1295.45,571.7627 L1176.5,571.7627 A0,0 0 0 0 1176.5,571.7627 " fill="#FEFFDD" style="stroke:#181818;stroke-width:0.5;"/><path d="M1424.5,571.7627 L1424.5,581.7627 L1434.5,581.7627 L1424.5,571.7627 " fill="#FEFFDD" style="stroke:#181818;stroke-width:0.5;"/><text fill="#000000" font-family="sans-serif" font-size="13" lengthAdjust="spacing" textLength="237" x="1182.5" y="590.791">- used for displaying the maintenance list</text></g><!--link Repositories to Repositories--><g id="link_Repositories_Repositories"><path codeLine="99" d="M1355.63,93.3127 C1376.74,95.9627 1390.5,100.7727 1390.5,107.7627 C1390.5,114.7527 1382.6933,118.8154 1361.5833,121.4654 " fill="none" id="Repositories-to-Repositories" style="stroke:#181818;stroke-width:1.0;"/><polygon fill="#181818" points="1355.63,122.2127,1365.0581,125.0605,1360.5911,121.5899,1364.0617,117.1228,1355.63,122.2127" style="stroke:#181818;stroke-width:1.0;"/><text fill="#000000" font-family="sans-serif" font-size="13" lengthAdjust="spacing" textLength="49" x="1396.5" y="113.291">instance</text></g><!--link ApplicationSession to ApplicationSession--><g id="link_ApplicationSession_ApplicationSession"><path codeLine="100" d="M158.16,288.8327 C178,290.0427 193,296.8527 193,309.2627 C193,321.6727 183.9889,328.1174 164.1489,329.3274 " fill="none" id="ApplicationSession-to-ApplicationSession" style="stroke:#181818;stroke-width:1.0;"/><polygon fill="#181818" points="158.16,329.6927,167.3868,333.1374,163.1507,329.3883,166.8998,325.1522,158.16,329.6927" style="stroke:#181818;stroke-width:1.0;"/><text fill="#000000" font-family="sans-serif" font-size="13" lengthAdjust="spacing" textLength="49" x="199" y="314.791">instance</text></g><!--link ProduceMaintenanceListUI to ProduceMaintenanceListController--><g id="link_ProduceMaintenanceListUI_ProduceMaintenanceListController"><path codeLine="102" d="M868.07,799.8427 C860.13,663.0927 835.5,238.7627 835.5,238.7627 C835.5,238.7627 763.5,189.7627 763.5,189.7627 C763.5,189.7627 727.6624,172.7912 685.6724,152.9012 " fill="none" id="ProduceMaintenanceListUI-to-ProduceMaintenanceListController" style="stroke:#181818;stroke-width:1.0;stroke-dasharray:7.0,7.0;"/><polygon fill="#181818" points="680.25,150.3327,686.6713,157.8004,684.7687,152.4731,690.096,150.5705,680.25,150.3327" style="stroke:#181818;stroke-width:1.0;"/></g><!--link ProduceMaintenanceListController to Repositories--><g id="link_ProduceMaintenanceListController_Repositories"><path codeLine="104" d="M710.7,65.1427 C770.67,43.5127 831,21.7627 831,21.7627 C831,21.7627 900,21.7627 900,21.7627 C900,21.7627 945.3207,35.8608 1003.5507,53.9708 " fill="none" id="ProduceMaintenanceListController-to-Repositories" style="stroke:#181818;stroke-width:1.0;stroke-dasharray:7.0,7.0;"/><polygon fill="#181818" points="1009.28,55.7527,1001.8739,49.2604,1004.5056,54.2678,999.4981,56.8994,1009.28,55.7527" style="stroke:#181818;stroke-width:1.0;"/><text fill="#000000" font-family="sans-serif" font-size="13" lengthAdjust="spacing" textLength="67" x="832" y="21.791">repositories</text></g><!--link Repositories to VehicleRepository--><g id="link_Repositories_VehicleRepository"><path codeLine="106" d="M1176.5,159.8827 C1176.5,183.7727 1176.5,206.6027 1176.5,232.4727 " fill="none" id="Repositories-to-VehicleRepository" style="stroke:#181818;stroke-width:1.0;"/><polygon fill="#181818" points="1176.5,238.4727,1180.5,229.4727,1176.5,233.4727,1172.5,229.4727,1176.5,238.4727" style="stroke:#181818;stroke-width:1.0;"/><text fill="#000000" font-family="sans-serif" font-size="13" lengthAdjust="spacing" textLength="7" x="1169.1391" y="227.3338">1</text></g><!--link ProduceMaintenanceListController to Vehicle--><g id="link_ProduceMaintenanceListController_Vehicle"><path codeLine="108" d="M721.97,150.2927 C739.44,155.8927 751.5,159.7627 751.5,159.7627 C751.5,159.7627 896.5,189.7627 896.5,189.7627 C896.5,189.7627 947.4245,337.4703 987.2345,452.9503 " fill="none" id="ProduceMaintenanceListController-to-Vehicle" style="stroke:#181818;stroke-width:1.0;stroke-dasharray:7.0,7.0;"/><polygon fill="#181818" points="989.19,458.6227,990.0384,448.8104,987.5604,453.8957,982.4752,451.4177,989.19,458.6227" style="stroke:#181818;stroke-width:1.0;"/></g><!--link ProduceMaintenanceListController to OrganizationRepository--><g id="link_ProduceMaintenanceListController_OrganizationRepository"><path codeLine="109" d="M604.87,150.5827 C614.03,181.5527 624.8472,218.1594 634.6172,251.1694 " fill="none" id="ProduceMaintenanceListController-to-OrganizationRepository" style="stroke:#181818;stroke-width:1.0;stroke-dasharray:7.0,7.0;"/><polygon fill="#181818" points="636.32,256.9227,637.6013,247.1575,634.901,252.1283,629.9303,249.428,636.32,256.9227" style="stroke:#181818;stroke-width:1.0;"/><text fill="#000000" font-family="sans-serif" font-size="13" lengthAdjust="spacing" textLength="132" x="622.5" y="204.791">organizationRepository</text></g><!--link ProduceMaintenanceListController to VehicleRepository--><g id="link_ProduceMaintenanceListController_VehicleRepository"><path codeLine="110" d="M721.97,150.2927 C739.44,155.8927 751.5,159.7627 751.5,159.7627 C751.5,159.7627 962.5,189.7627 962.5,189.7627 C962.5,189.7627 998.9509,209.9464 1045.5309,235.7364 " fill="none" id="ProduceMaintenanceListController-to-VehicleRepository" style="stroke:#181818;stroke-width:1.0;stroke-dasharray:7.0,7.0;"/><polygon fill="#181818" points="1050.78,238.6427,1044.8438,230.7838,1046.4057,236.2208,1040.9688,237.7827,1050.78,238.6427" style="stroke:#181818;stroke-width:1.0;"/><text fill="#000000" font-family="sans-serif" font-size="13" lengthAdjust="spacing" textLength="105" x="994.5" y="204.791">VehicleRepository</text></g><!--link Repositories to OrganizationRepository--><g id="link_Repositories_OrganizationRepository"><path codeLine="112" d="M1143.75,159.9327 C1128,184.5427 1112.5,208.7627 1112.5,208.7627 C1112.5,208.7627 955.575,242.6369 823.475,271.1469 " fill="none" id="Repositories-to-OrganizationRepository" style="stroke:#181818;stroke-width:1.0;"/><polygon fill="#181818" points="817.61,272.4127,827.2513,274.424,822.4975,271.3579,825.5636,266.604,817.61,272.4127" style="stroke:#181818;stroke-width:1.0;"/><text fill="#000000" font-family="sans-serif" font-size="13" lengthAdjust="spacing" textLength="7" x="825.2955" y="267.3958">1</text></g><!--link OrganizationRepository to Organization--><g id="link_OrganizationRepository_Organization"><path codeLine="114" d="M638.42,361.4827 C630.72,391.6027 622.1449,425.1793 612.6249,462.4493 " fill="none" id="OrganizationRepository-to-Organization" style="stroke:#181818;stroke-width:1.0;"/><polygon fill="#181818" points="611.14,468.2627,617.2429,460.5326,612.3774,463.4182,609.4918,458.5527,611.14,468.2627" style="stroke:#181818;stroke-width:1.0;"/><text fill="#000000" font-family="sans-serif" font-size="13" lengthAdjust="spacing" textLength="5" x="607.9635" y="456.8617">*</text></g><!--link ApplicationSession to UserSession--><g id="link_ApplicationSession_UserSession"><path codeLine="115" d="M100.73,351.8727 C124.72,406.6727 164.0128,496.3768 185.8428,546.2168 " fill="none" id="ApplicationSession-to-UserSession" style="stroke:#181818;stroke-width:1.0;"/><polygon fill="#181818" points="188.25,551.7127,188.3031,541.864,186.244,547.1328,180.9752,545.0736,188.25,551.7127" style="stroke:#181818;stroke-width:1.0;"/><text fill="#000000" font-family="sans-serif" font-size="13" lengthAdjust="spacing" textLength="72" x="133.5" y="424.791">userSession</text><text fill="#000000" font-family="sans-serif" font-size="13" lengthAdjust="spacing" textLength="7" x="177.7555" y="540.5284">1</text></g><!--link ProduceMaintenanceListController to Organization--><g id="link_ProduceMaintenanceListController_Organization"><path codeLine="117" d="M529.36,150.4327 C471.73,188.4527 395.5,238.7627 395.5,238.7627 C395.5,238.7627 395.5,379.7627 395.5,379.7627 C395.5,379.7627 429.8126,417.4943 471.6926,463.5343 " fill="none" id="ProduceMaintenanceListController-to-Organization" style="stroke:#181818;stroke-width:1.0;stroke-dasharray:7.0,7.0;"/><polygon fill="#181818" points="475.73,467.9727,472.6329,458.6235,472.3655,464.274,466.715,464.0067,475.73,467.9727" style="stroke:#181818;stroke-width:1.0;"/><text fill="#000000" font-family="sans-serif" font-size="13" lengthAdjust="spacing" textLength="70" x="396.5" y="314.791">organization</text><text fill="#000000" font-family="sans-serif" font-size="13" lengthAdjust="spacing" textLength="7" x="461.7299" y="456.9452">1</text></g><!--link ProduceMaintenanceListController to ApplicationSession--><g id="link_ProduceMaintenanceListController_ApplicationSession"><path codeLine="118" d="M451.49,143.5827 C362.6,165.5427 264.5,189.7627 264.5,189.7627 C264.5,189.7627 203.8779,229.2285 151.4379,263.3785 " fill="none" id="ProduceMaintenanceListController-to-ApplicationSession" style="stroke:#181818;stroke-width:1.0;stroke-dasharray:7.0,7.0;"/><polygon fill="#181818" points="146.41,266.6527,156.1346,265.0932,150.5999,263.9242,151.769,258.3894,146.41,266.6527" style="stroke:#181818;stroke-width:1.0;"/></g><!--link ProduceMaintenanceListController to UserSession--><g id="link_ProduceMaintenanceListController_UserSession"><path codeLine="119" d="M512.22,150.4527 C473.99,170.2927 436.5,189.7627 436.5,189.7627 C436.5,189.7627 387.5,238.7627 387.5,238.7627 C387.5,238.7627 268.7925,460.4634 222.7325,546.4734 " fill="none" id="ProduceMaintenanceListController-to-UserSession" style="stroke:#181818;stroke-width:1.0;stroke-dasharray:7.0,7.0;"/><polygon fill="#181818" points="219.9,551.7627,227.675,545.7171,222.2604,547.3549,220.6226,541.9404,219.9,551.7627" style="stroke:#181818;stroke-width:1.0;"/></g><!--link VehicleRepository to Vehicle--><g id="link_VehicleRepository_Vehicle"><path codeLine="120" d="M1139.79,380.1127 C1127.21,404.0527 1115.5014,426.3216 1101.3214,453.3016 " fill="none" id="VehicleRepository-to-Vehicle" style="stroke:#181818;stroke-width:1.0;"/><polygon fill="#181818" points="1098.53,458.6127,1106.2578,452.5069,1100.8562,454.1868,1099.1763,448.7851,1098.53,458.6127" style="stroke:#181818;stroke-width:1.0;"/><text fill="#000000" font-family="sans-serif" font-size="13" lengthAdjust="spacing" textLength="43" x="1122.5" y="424.791">Vehicle</text><text fill="#000000" font-family="sans-serif" font-size="13" lengthAdjust="spacing" textLength="7" x="1128.8318" y="401.9612">1</text><text fill="#000000" font-family="sans-serif" font-size="13" lengthAdjust="spacing" textLength="5" x="1097.4014" y="447.4193">*</text></g><!--link VehicleFleetManager to ProduceMaintenanceListUI--><g id="link_VehicleFleetManager_ProduceMaintenanceListUI"><path codeLine="121" d="M664.7,842.7627 C684.96,842.7627 701.2,842.7627 723.33,842.7627 " fill="none" id="VehicleFleetManager-to-ProduceMaintenanceListUI" style="stroke:#181818;stroke-width:1.0;"/><polygon fill="#181818" points="729.33,842.7627,720.33,838.7627,724.33,842.7627,720.33,846.7627,729.33,842.7627" style="stroke:#181818;stroke-width:1.0;"/><text fill="#000000" font-family="sans-serif" font-size="13" lengthAdjust="spacing" textLength="28" x="683" y="835.791">uses</text><text fill="#000000" font-family="sans-serif" font-size="13" lengthAdjust="spacing" textLength="7" x="672.4217" y="839.053">1</text><text fill="#000000" font-family="sans-serif" font-size="13" lengthAdjust="spacing" textLength="7" x="714.4184" y="839.3275">1</text></g><!--link Organization to VehicleFleetManager--><g id="link_Organization_VehicleFleetManager"><path codeLine="122" d="M581.5,702.4227 C581.5,733.4027 581.5,759.3027 581.5,784.7427 " fill="none" id="Organization-to-VehicleFleetManager" style="stroke:#181818;stroke-width:1.0;"/><polygon fill="#181818" points="581.5,790.7427,585.5,781.7427,581.5,785.7427,577.5,781.7427,581.5,790.7427" style="stroke:#181818;stroke-width:1.0;"/><text fill="#000000" font-family="sans-serif" font-size="13" lengthAdjust="spacing" textLength="49" x="582.5" y="756.791">employs</text><text fill="#000000" font-family="sans-serif" font-size="13" lengthAdjust="spacing" textLength="5" x="576.1641" y="779.6674">*</text></g><!--SRC=[jLR9Rjim4BthAuXSuZGBsgjH64YJ1Z2Q3J6IdYbfB1EXI8MaN2X5_xr3Yh99IOxTGtqoPtbyysP4ybY_Cb5HHKjIIY6pbP8b4ADgIBQUYcQlj825QJWG1PcXek1XW5xHNFvYeY1BodNeuKo0QIeWbUIDNIJ78qwfZ4o2h8nJhI-DKIoj3SmpAHRi7SZd93dci3J4IA9OiJ8aPvOEao99N0wvh2hECcfD2z3QUdud17-dH1iqPwG0CnVuNsGmEV4kj5tLIe4mFWazVph8PmsgZuK9rlozf8o7iI-mOXc76mvWxgX0qHInEUTaWSMWFeAM4Ax18eI6QYLHf3vW398gAlBGKCeS8XIhgbjVoph5T4CL_0GhMMWjbDGwCC-58Lchmu_IMMvbHlarDRRj1TC6b5tqN3HxgvbcLlEDrq9XQSA0i4hVA7YhGMHDL2h7wFjEa2qU5exYRN8TvaQG1rLGmTvTXp-MTatDVLsce48ZpNE5lHmgFjgJMopvgs_1ZApRFsto7QqwpraR5r2UpSBYdo2JAhTfftP_dpNfMkjXJpf_WDEFEIE1CzoYJHxGi7Fg8Uu6V8O4-bFt19N4lahLUALtwd6w6TJjZcdpw1hiUZ29UkvCBUU7odQIyYqiIZ2kJIeb1ogmiPpb2FEXa37LBIiTVgxXCFMAtMwdwHecqTZ9OE6h2DrB9l9lZHtiIJ2QEmDVkZcTz0StOBfXnq1xVj51HgPHI1SmQAIB75Yxy74zNCwuQqlmKScypi8ninsuai8eoRa_1eD12UGUv-d33-hZ-ERFy_-qgP3sG7GNa5pkhTnXdfEwkoy8qqIc1iCXTxubthd4hC254EslcZOBhp8eaDerw4mnzwqu3s8em761DUGjW0QELo6kyDEW2OYSM9gUR2gDmHXaEzPxJm-1fC8hLUD7shXRP1KTCdXVQnCWxzKUfOhczdmMp_6KC3_0oV3Ujj4ZrY0dsRdrnMn_LvAz4tineAl2JsnGsz6Nen5v3zW7D_9vXmNlEBQcqS4KKFWN1X7UI3LnqRxg7OT3ieEeI_iKfurEW8SFNc18gWxUOuULrgVOK-ema96NvK5vuVDngB6bridHtMCRtPEnvwJBQ6lQDVzE8nsftzyaWfpYawVYij79Nm00]--></g></svg>