<?xml version="1.0" encoding="us-ascii" standalone="no"?><svg xmlns="http://www.w3.org/2000/svg" xmlns:xlink="http://www.w3.org/1999/xlink" contentStyleType="text/css" height="970px" preserveAspectRatio="none" style="width:1865px;height:970px;background:#FFFFFF;" version="1.1" viewBox="0 0 1865 970" width="1865px" zoomAndPan="magnify"><defs/><g><rect fill="#FFFFFF" height="775.2852" style="stroke:#181818;stroke-width:1.0;" width="10" x="74" y="93.6211"/><rect fill="#FFFFFF" height="751.9941" style="stroke:#181818;stroke-width:1.0;" width="10" x="386" y="116.9121"/><rect fill="#FFFFFF" height="358.541" style="stroke:#181818;stroke-width:1.0;" width="10" x="607" y="191.8242"/><rect fill="#FFFFFF" height="264.668" style="stroke:#181818;stroke-width:1.0;" width="10" x="612" y="285.6973"/><rect fill="#FFFFFF" height="170.7949" style="stroke:#181818;stroke-width:1.0;" width="10" x="617" y="379.5703"/><rect fill="#FFFFFF" height="106.5039" style="stroke:#181818;stroke-width:1.0;" width="10" x="622" y="443.8613"/><rect fill="#FFFFFF" height="31.291" style="stroke:#181818;stroke-width:1.0;" width="10" x="897" y="223.1152"/><rect fill="#FFFFFF" height="31.291" style="stroke:#181818;stroke-width:1.0;" width="10" x="897" y="316.9883"/><rect fill="#FFFFFF" height="116.4551" style="stroke:#181818;stroke-width:1.0;" width="10" x="1809.5" y="721.1602"/><rect fill="none" height="83.5039" style="stroke:#000000;stroke-width:1.5;" width="206" x="288" y="597.3652"/><line style="stroke:#181818;stroke-width:0.5;stroke-dasharray:5.0,5.0;" x1="79" x2="79" y1="83.6211" y2="886.9063"/><line style="stroke:#181818;stroke-width:0.5;stroke-dasharray:5.0,5.0;" x1="391" x2="391" y1="83.6211" y2="886.9063"/><line style="stroke:#181818;stroke-width:0.5;stroke-dasharray:5.0,5.0;" x1="612" x2="612" y1="156.7227" y2="886.9063"/><line style="stroke:#181818;stroke-width:0.5;stroke-dasharray:5.0,5.0;" x1="794.5" x2="794.5" y1="83.6211" y2="886.9063"/><line style="stroke:#181818;stroke-width:0.5;stroke-dasharray:5.0,5.0;" x1="901.5" x2="901.5" y1="83.6211" y2="886.9063"/><line style="stroke:#181818;stroke-width:0.5;stroke-dasharray:5.0,5.0;" x1="1025.5" x2="1025.5" y1="83.6211" y2="886.9063"/><line style="stroke:#181818;stroke-width:0.5;stroke-dasharray:5.0,5.0;" x1="1168.5" x2="1168.5" y1="83.6211" y2="886.9063"/><line style="stroke:#181818;stroke-width:0.5;stroke-dasharray:5.0,5.0;" x1="1315.5" x2="1315.5" y1="83.6211" y2="886.9063"/><line style="stroke:#181818;stroke-width:0.5;stroke-dasharray:5.0,5.0;" x1="1448.5" x2="1448.5" y1="83.6211" y2="886.9063"/><line style="stroke:#181818;stroke-width:0.5;stroke-dasharray:5.0,5.0;" x1="1594.5" x2="1594.5" y1="83.6211" y2="886.9063"/><line style="stroke:#181818;stroke-width:0.5;stroke-dasharray:5.0,5.0;" x1="1735.5" x2="1735.5" y1="83.6211" y2="886.9063"/><line style="stroke:#181818;stroke-width:0.5;stroke-dasharray:5.0,5.0;" x1="1814.5" x2="1814.5" y1="728.9902" y2="886.9063"/><text fill="#000000" font-family="sans-serif" font-size="14" lengthAdjust="spacing" textLength="142" x="5" y="80.1074">Vehicle Fleet Manager</text><ellipse cx="79" cy="13.5" fill="#E3E3E3" rx="8" ry="8" style="stroke:#181818;stroke-width:0.5;"/><path d="M79,21.5 L79,48.5 M66,29.5 L92,29.5 M79,48.5 L66,63.5 M79,48.5 L92,63.5 " fill="none" style="stroke:#181818;stroke-width:0.5;"/><text fill="#000000" font-family="sans-serif" font-size="14" lengthAdjust="spacing" textLength="142" x="5" y="901.0137">Vehicle Fleet Manager</text><ellipse cx="79" cy="913.0273" fill="#E3E3E3" rx="8" ry="8" style="stroke:#181818;stroke-width:0.5;"/><path d="M79,921.0273 L79,948.0273 M66,929.0273 L92,929.0273 M79,948.0273 L66,963.0273 M79,948.0273 L92,963.0273 " fill="none" style="stroke:#181818;stroke-width:0.5;"/><rect fill="#E3E3E3" height="32.6211" rx="2.5" ry="2.5" style="stroke:#181818;stroke-width:0.5;" width="186" x="298" y="50"/><text fill="#000000" font-family="sans-serif" font-size="14" lengthAdjust="spacing" textLength="172" x="305" y="72.1074">:ProduceMaintenanceListUI</text><rect fill="#E3E3E3" height="32.6211" rx="2.5" ry="2.5" style="stroke:#181818;stroke-width:0.5;" width="186" x="298" y="885.9063"/><text fill="#000000" font-family="sans-serif" font-size="14" lengthAdjust="spacing" textLength="172" x="305" y="908.0137">:ProduceMaintenanceListUI</text><rect fill="#E3E3E3" height="32.6211" rx="2.5" ry="2.5" style="stroke:#181818;stroke-width:0.5;" width="236" x="494" y="885.9063"/><text fill="#000000" font-family="sans-serif" font-size="14" lengthAdjust="spacing" textLength="222" x="501" y="908.0137">:ProduceMaintenanceListController</text><rect fill="#E3E3E3" height="32.6211" rx="2.5" ry="2.5" style="stroke:#181818;stroke-width:0.5;" width="97" x="746.5" y="50"/><text fill="#000000" font-family="sans-serif" font-size="14" lengthAdjust="spacing" textLength="83" x="753.5" y="72.1074">:Repositories</text><rect fill="#E3E3E3" height="32.6211" rx="2.5" ry="2.5" style="stroke:#181818;stroke-width:0.5;" width="97" x="746.5" y="885.9063"/><text fill="#000000" font-family="sans-serif" font-size="14" lengthAdjust="spacing" textLength="83" x="753.5" y="908.0137">:Repositories</text><rect fill="#E3E3E3" height="51.2422" rx="2.5" ry="2.5" style="stroke:#181818;stroke-width:0.5;" width="97" x="853.5" y="31.3789"/><text fill="#000000" font-family="sans-serif" font-size="14" lengthAdjust="spacing" textLength="74" x="865" y="53.4863">repositories</text><text fill="#000000" font-family="sans-serif" font-size="14" lengthAdjust="spacing" textLength="83" x="860.5" y="72.1074">:Repositories</text><rect fill="#E3E3E3" height="51.2422" rx="2.5" ry="2.5" style="stroke:#181818;stroke-width:0.5;" width="97" x="853.5" y="885.9063"/><text fill="#000000" font-family="sans-serif" font-size="14" lengthAdjust="spacing" textLength="74" x="865" y="908.0137">repositories</text><text fill="#000000" font-family="sans-serif" font-size="14" lengthAdjust="spacing" textLength="83" x="860.5" y="926.6348">:Repositories</text><rect fill="#E3E3E3" height="51.2422" rx="2.5" ry="2.5" style="stroke:#181818;stroke-width:0.5;" width="130" x="960.5" y="31.3789"/><text fill="#000000" font-family="sans-serif" font-size="14" lengthAdjust="spacing" textLength="116" x="967.5" y="53.4863">vehicleRepository:</text><text fill="#000000" font-family="sans-serif" font-size="14" lengthAdjust="spacing" textLength="114" x="968.5" y="72.1074">VehicleRepository</text><rect fill="#E3E3E3" height="51.2422" rx="2.5" ry="2.5" style="stroke:#181818;stroke-width:0.5;" width="130" x="960.5" y="885.9063"/><text fill="#000000" font-family="sans-serif" font-size="14" lengthAdjust="spacing" textLength="116" x="967.5" y="908.0137">vehicleRepository:</text><text fill="#000000" font-family="sans-serif" font-size="14" lengthAdjust="spacing" textLength="114" x="968.5" y="926.6348">VehicleRepository</text><rect fill="#E3E3E3" height="32.6211" rx="2.5" ry="2.5" style="stroke:#181818;stroke-width:0.5;" width="137" x="1100.5" y="50"/><text fill="#000000" font-family="sans-serif" font-size="14" lengthAdjust="spacing" textLength="123" x="1107.5" y="72.1074">:ApplicationSession</text><rect fill="#E3E3E3" height="32.6211" rx="2.5" ry="2.5" style="stroke:#181818;stroke-width:0.5;" width="137" x="1100.5" y="885.9063"/><text fill="#000000" font-family="sans-serif" font-size="14" lengthAdjust="spacing" textLength="123" x="1107.5" y="908.0137">:ApplicationSession</text><rect fill="#E3E3E3" height="51.2422" rx="2.5" ry="2.5" style="stroke:#181818;stroke-width:0.5;" width="137" x="1247.5" y="31.3789"/><text fill="#000000" font-family="sans-serif" font-size="14" lengthAdjust="spacing" textLength="74" x="1279" y="53.4863">appSession</text><text fill="#000000" font-family="sans-serif" font-size="14" lengthAdjust="spacing" textLength="123" x="1254.5" y="72.1074">:ApplicationSession</text><rect fill="#E3E3E3" height="51.2422" rx="2.5" ry="2.5" style="stroke:#181818;stroke-width:0.5;" width="137" x="1247.5" y="885.9063"/><text fill="#000000" font-family="sans-serif" font-size="14" lengthAdjust="spacing" textLength="74" x="1279" y="908.0137">appSession</text><text fill="#000000" font-family="sans-serif" font-size="14" lengthAdjust="spacing" textLength="123" x="1254.5" y="926.6348">:ApplicationSession</text><rect fill="#E3E3E3" height="51.2422" rx="2.5" ry="2.5" style="stroke:#181818;stroke-width:0.5;" width="109" x="1394.5" y="31.3789"/><text fill="#000000" font-family="sans-serif" font-size="14" lengthAdjust="spacing" textLength="95" x="1401.5" y="53.4863">currentSession</text><text fill="#000000" font-family="sans-serif" font-size="14" lengthAdjust="spacing" textLength="83" x="1407.5" y="72.1074">:UserSession</text><rect fill="#E3E3E3" height="51.2422" rx="2.5" ry="2.5" style="stroke:#181818;stroke-width:0.5;" width="109" x="1394.5" y="885.9063"/><text fill="#000000" font-family="sans-serif" font-size="14" lengthAdjust="spacing" textLength="95" x="1401.5" y="908.0137">currentSession</text><text fill="#000000" font-family="sans-serif" font-size="14" lengthAdjust="spacing" textLength="83" x="1407.5" y="926.6348">:UserSession</text><rect fill="#E3E3E3" height="51.2422" rx="2.5" ry="2.5" style="stroke:#181818;stroke-width:0.5;" width="163" x="1513.5" y="31.3789"/><text fill="#000000" font-family="sans-serif" font-size="14" lengthAdjust="spacing" textLength="149" x="1520.5" y="53.4863">organizationRepository:</text><text fill="#000000" font-family="sans-serif" font-size="14" lengthAdjust="spacing" textLength="148" x="1521" y="72.1074">OrganizationRepository</text><rect fill="#E3E3E3" height="51.2422" rx="2.5" ry="2.5" style="stroke:#181818;stroke-width:0.5;" width="163" x="1513.5" y="885.9063"/><text fill="#000000" font-family="sans-serif" font-size="14" lengthAdjust="spacing" textLength="149" x="1520.5" y="908.0137">organizationRepository:</text><text fill="#000000" font-family="sans-serif" font-size="14" lengthAdjust="spacing" textLength="148" x="1521" y="926.6348">OrganizationRepository</text><rect fill="#E3E3E3" height="51.2422" rx="2.5" ry="2.5" style="stroke:#181818;stroke-width:0.5;" width="98" x="1686.5" y="31.3789"/><text fill="#000000" font-family="sans-serif" font-size="14" lengthAdjust="spacing" textLength="77" x="1697" y="53.4863">organization</text><text fill="#000000" font-family="sans-serif" font-size="14" lengthAdjust="spacing" textLength="84" x="1693.5" y="72.1074">:Organization</text><rect fill="#E3E3E3" height="51.2422" rx="2.5" ry="2.5" style="stroke:#181818;stroke-width:0.5;" width="98" x="1686.5" y="885.9063"/><text fill="#000000" font-family="sans-serif" font-size="14" lengthAdjust="spacing" textLength="77" x="1697" y="908.0137">organization</text><text fill="#000000" font-family="sans-serif" font-size="14" lengthAdjust="spacing" textLength="84" x="1693.5" y="926.6348">:Organization</text><rect fill="#E3E3E3" height="51.2422" rx="2.5" ry="2.5" style="stroke:#181818;stroke-width:0.5;" width="40" x="1794.5" y="885.9063"/><text fill="#000000" font-family="sans-serif" font-size="14" lengthAdjust="spacing" textLength="17" x="1806" y="908.0137">list</text><text fill="#000000" font-family="sans-serif" font-size="14" lengthAdjust="spacing" textLength="26" x="1801.5" y="926.6348">:List</text><rect fill="#FFFFFF" height="775.2852" style="stroke:#181818;stroke-width:1.0;" width="10" x="74" y="93.6211"/><rect fill="#FFFFFF" height="751.9941" style="stroke:#181818;stroke-width:1.0;" width="10" x="386" y="116.9121"/><rect fill="#FFFFFF" height="358.541" style="stroke:#181818;stroke-width:1.0;" width="10" x="607" y="191.8242"/><rect fill="#FFFFFF" height="264.668" style="stroke:#181818;stroke-width:1.0;" width="10" x="612" y="285.6973"/><rect fill="#FFFFFF" height="170.7949" style="stroke:#181818;stroke-width:1.0;" width="10" x="617" y="379.5703"/><rect fill="#FFFFFF" height="106.5039" style="stroke:#181818;stroke-width:1.0;" width="10" x="622" y="443.8613"/><rect fill="#FFFFFF" height="31.291" style="stroke:#181818;stroke-width:1.0;" width="10" x="897" y="223.1152"/><rect fill="#FFFFFF" height="31.291" style="stroke:#181818;stroke-width:1.0;" width="10" x="897" y="316.9883"/><rect fill="#FFFFFF" height="116.4551" style="stroke:#181818;stroke-width:1.0;" width="10" x="1809.5" y="721.1602"/><polygon fill="#181818" points="374,112.9121,384,116.9121,374,120.9121,378,116.9121" style="stroke:#181818;stroke-width:1.0;"/><line style="stroke:#181818;stroke-width:1.0;" x1="84" x2="380" y1="116.9121" y2="116.9121"/><text fill="#000000" font-family="sans-serif" font-size="13" font-weight="bold" lengthAdjust="spacing" textLength="7" x="91" y="111.6494">1</text><text fill="#000000" font-family="sans-serif" font-size="13" lengthAdjust="spacing" textLength="272" x="102" y="111.6494">asks to list the vehicles that need maintenance</text><polygon fill="#181818" points="482,144.2031,492,148.2031,482,152.2031,486,148.2031" style="stroke:#181818;stroke-width:1.0;"/><line style="stroke:#181818;stroke-width:1.0;" x1="396" x2="488" y1="148.2031" y2="148.2031"/><text fill="#000000" font-family="sans-serif" font-size="13" font-weight="bold" lengthAdjust="spacing" textLength="7" x="403" y="142.9404">2</text><text fill="#000000" font-family="sans-serif" font-size="13" lengthAdjust="spacing" textLength="36" x="414" y="142.9404">create</text><rect fill="#E3E3E3" height="32.6211" rx="2.5" ry="2.5" style="stroke:#181818;stroke-width:0.5;" width="236" x="494" y="124.9121"/><text fill="#000000" font-family="sans-serif" font-size="14" lengthAdjust="spacing" textLength="222" x="501" y="147.0195">:ProduceMaintenanceListController</text><polygon fill="#181818" points="595,187.8242,605,191.8242,595,195.8242,599,191.8242" style="stroke:#181818;stroke-width:1.0;"/><line style="stroke:#181818;stroke-width:1.0;" x1="396" x2="601" y1="191.8242" y2="191.8242"/><text fill="#000000" font-family="sans-serif" font-size="13" font-weight="bold" lengthAdjust="spacing" textLength="7" x="403" y="186.5615">3</text><text fill="#000000" font-family="sans-serif" font-size="13" lengthAdjust="spacing" textLength="131" x="414" y="186.5615">getVehicleRepository()</text><polygon fill="#181818" points="885,219.1152,895,223.1152,885,227.1152,889,223.1152" style="stroke:#181818;stroke-width:1.0;"/><line style="stroke:#181818;stroke-width:1.0;" x1="617" x2="891" y1="223.1152" y2="223.1152"/><text fill="#000000" font-family="sans-serif" font-size="13" font-weight="bold" lengthAdjust="spacing" textLength="7" x="624" y="217.8525">4</text><text fill="#000000" font-family="sans-serif" font-size="13" lengthAdjust="spacing" textLength="131" x="635" y="217.8525">getVehicleRepository()</text><polygon fill="#181818" points="628,250.4063,618,254.4063,628,258.4063,624,254.4063" style="stroke:#181818;stroke-width:1.0;"/><line style="stroke:#181818;stroke-width:1.0;stroke-dasharray:2.0,2.0;" x1="622" x2="901" y1="254.4063" y2="254.4063"/><text fill="#000000" font-family="sans-serif" font-size="13" font-weight="bold" lengthAdjust="spacing" textLength="7" x="634" y="249.1436">5</text><text fill="#000000" font-family="sans-serif" font-size="13" lengthAdjust="spacing" textLength="101" x="645" y="249.1436">vehicleRepository</text><polygon fill="#181818" points="600,281.6973,610,285.6973,600,289.6973,604,285.6973" style="stroke:#181818;stroke-width:1.0;"/><line style="stroke:#181818;stroke-width:1.0;" x1="396" x2="606" y1="285.6973" y2="285.6973"/><text fill="#000000" font-family="sans-serif" font-size="13" font-weight="bold" lengthAdjust="spacing" textLength="7" x="403" y="280.4346">6</text><text fill="#000000" font-family="sans-serif" font-size="13" lengthAdjust="spacing" textLength="76" x="414" y="280.4346">getVehicles()</text><polygon fill="#181818" points="885,312.9883,895,316.9883,885,320.9883,889,316.9883" style="stroke:#181818;stroke-width:1.0;"/><line style="stroke:#181818;stroke-width:1.0;" x1="622" x2="891" y1="316.9883" y2="316.9883"/><text fill="#000000" font-family="sans-serif" font-size="13" font-weight="bold" lengthAdjust="spacing" textLength="7" x="629" y="311.7256">7</text><text fill="#000000" font-family="sans-serif" font-size="13" lengthAdjust="spacing" textLength="76" x="640" y="311.7256">getVehicles()</text><polygon fill="#181818" points="633,344.2793,623,348.2793,633,352.2793,629,348.2793" style="stroke:#181818;stroke-width:1.0;"/><line style="stroke:#181818;stroke-width:1.0;stroke-dasharray:2.0,2.0;" x1="627" x2="901" y1="348.2793" y2="348.2793"/><text fill="#000000" font-family="sans-serif" font-size="13" font-weight="bold" lengthAdjust="spacing" textLength="7" x="639" y="343.0166">8</text><text fill="#000000" font-family="sans-serif" font-size="13" lengthAdjust="spacing" textLength="46" x="650" y="343.0166">vehicles</text><polygon fill="#181818" points="605,375.5703,615,379.5703,605,383.5703,609,379.5703" style="stroke:#181818;stroke-width:1.0;"/><line style="stroke:#181818;stroke-width:1.0;" x1="396" x2="611" y1="379.5703" y2="379.5703"/><text fill="#000000" font-family="sans-serif" font-size="13" font-weight="bold" lengthAdjust="spacing" textLength="7" x="403" y="374.3076">9</text><text fill="#000000" font-family="sans-serif" font-size="13" lengthAdjust="spacing" textLength="149" x="414" y="374.3076">produceMaintenanecList()</text><line style="stroke:#181818;stroke-width:1.0;" x1="627" x2="674" y1="430.8613" y2="430.8613"/><line style="stroke:#181818;stroke-width:1.0;" x1="674" x2="674" y1="430.8613" y2="443.8613"/><line style="stroke:#181818;stroke-width:1.0;" x1="633" x2="674" y1="443.8613" y2="443.8613"/><polygon fill="#181818" points="643,439.8613,633,443.8613,643,447.8613,639,443.8613" style="stroke:#181818;stroke-width:1.0;"/><text fill="#000000" font-family="sans-serif" font-size="13" font-weight="bold" lengthAdjust="spacing" textLength="14" x="639" y="425.5986">10</text><text fill="#000000" font-family="sans-serif" font-size="13" lengthAdjust="spacing" textLength="131" x="657" y="425.5986">getVFMFromSession()</text><rect fill="none" height="59.2129" style="stroke:#000000;stroke-width:1.5;" width="242" x="491" y="456.8613"/><path d="M491,456.8613 L553,456.8613 L553,465.8613 L543,475.8613 L491,475.8613 L491,456.8613 " fill="#EEEEEE" style="stroke:#000000;stroke-width:2.0;"/><text fill="#000000" font-family="sans-serif" font-size="13" font-weight="bold" lengthAdjust="spacing" textLength="17" x="504" y="472.8896">ref</text><text fill="#000000" font-family="sans-serif" font-size="12" lengthAdjust="spacing" textLength="45" x="589.5" y="492.8105">Get VFM</text><text fill="#000000" font-family="sans-serif" font-size="12" lengthAdjust="spacing" textLength="3" x="610.5" y="508.7715">&#160;</text><line style="stroke:#181818;stroke-width:1.0;stroke-dasharray:2.0,2.0;" x1="632" x2="674" y1="549.3652" y2="549.3652"/><line style="stroke:#181818;stroke-width:1.0;stroke-dasharray:2.0,2.0;" x1="674" x2="674" y1="549.3652" y2="562.3652"/><line style="stroke:#181818;stroke-width:1.0;stroke-dasharray:2.0,2.0;" x1="627" x2="674" y1="562.3652" y2="562.3652"/><polygon fill="#181818" points="637,558.3652,627,562.3652,637,566.3652,633,562.3652" style="stroke:#181818;stroke-width:1.0;"/><text fill="#000000" font-family="sans-serif" font-size="13" font-weight="bold" lengthAdjust="spacing" textLength="14" x="639" y="544.1025">11</text><text fill="#000000" font-family="sans-serif" font-size="13" lengthAdjust="spacing" textLength="19" x="657" y="544.1025">vfm</text><path d="M288,597.3652 L361,597.3652 L361,606.6563 L351,616.6563 L288,616.6563 L288,597.3652 " fill="#EEEEEE" style="stroke:#000000;stroke-width:1.5;"/><rect fill="none" height="83.5039" style="stroke:#000000;stroke-width:1.5;" width="206" x="288" y="597.3652"/><text fill="#000000" font-family="sans-serif" font-size="13" font-weight="bold" lengthAdjust="spacing" textLength="28" x="303" y="612.3936">loop</text><text fill="#000000" font-family="sans-serif" font-size="11" font-weight="bold" lengthAdjust="spacing" textLength="99" x="376" y="611.2354">[[for each vehicle]</text><rect fill="none" height="59.2129" style="stroke:#000000;stroke-width:1.5;" width="192" x="295" y="616.6563"/><path d="M295,616.6563 L357,616.6563 L357,625.6563 L347,635.6563 L295,635.6563 L295,616.6563 " fill="#EEEEEE" style="stroke:#000000;stroke-width:2.0;"/><text fill="#000000" font-family="sans-serif" font-size="13" font-weight="bold" lengthAdjust="spacing" textLength="17" x="308" y="632.6846">ref</text><text fill="#000000" font-family="sans-serif" font-size="12" lengthAdjust="spacing" textLength="94" x="344" y="652.6055">Get Vehicle Parts</text><text fill="#000000" font-family="sans-serif" font-size="12" lengthAdjust="spacing" textLength="3" x="389.5" y="668.5664">&#160;</text><polygon fill="#181818" points="1782.5,707.1602,1792.5,711.1602,1782.5,715.1602,1786.5,711.1602" style="stroke:#181818;stroke-width:1.0;"/><line style="stroke:#181818;stroke-width:1.0;" x1="396" x2="1788.5" y1="711.1602" y2="711.1602"/><text fill="#000000" font-family="sans-serif" font-size="13" font-weight="bold" lengthAdjust="spacing" textLength="14" x="403" y="705.8975">12</text><text fill="#000000" font-family="sans-serif" font-size="13" lengthAdjust="spacing" textLength="36" x="421" y="705.8975">create</text><rect fill="#E3E3E3" height="51.2422" rx="2.5" ry="2.5" style="stroke:#181818;stroke-width:0.5;" width="40" x="1794.5" y="687.8691"/><text fill="#000000" font-family="sans-serif" font-size="14" lengthAdjust="spacing" textLength="17" x="1806" y="709.9766">list</text><text fill="#000000" font-family="sans-serif" font-size="14" lengthAdjust="spacing" textLength="26" x="1801.5" y="728.5977">:List</text><rect fill="none" height="59.2129" style="stroke:#000000;stroke-width:1.5;" width="68" x="1791.5" y="750.1113"/><path d="M1791.5,750.1113 L1853.5,750.1113 L1853.5,759.1113 L1843.5,769.1113 L1791.5,769.1113 L1791.5,750.1113 " fill="#EEEEEE" style="stroke:#000000;stroke-width:2.0;"/><text fill="#000000" font-family="sans-serif" font-size="13" font-weight="bold" lengthAdjust="spacing" textLength="17" x="1804.5" y="766.1396">ref</text><text fill="#000000" font-family="sans-serif" font-size="12" lengthAdjust="spacing" textLength="60" x="1795.5" y="786.0605">Create List</text><text fill="#000000" font-family="sans-serif" font-size="12" lengthAdjust="spacing" textLength="3" x="1824" y="802.0215">&#160;</text><polygon fill="#181818" points="407,833.6152,397,837.6152,407,841.6152,403,837.6152" style="stroke:#181818;stroke-width:1.0;"/><line style="stroke:#181818;stroke-width:1.0;stroke-dasharray:2.0,2.0;" x1="401" x2="1813.5" y1="837.6152" y2="837.6152"/><text fill="#000000" font-family="sans-serif" font-size="13" font-weight="bold" lengthAdjust="spacing" textLength="14" x="413" y="832.3525">13</text><text fill="#000000" font-family="sans-serif" font-size="13" lengthAdjust="spacing" textLength="95" x="431" y="832.3525">maintenanceList</text><polygon fill="#181818" points="90,864.9063,80,868.9063,90,872.9063,86,868.9063" style="stroke:#181818;stroke-width:1.0;"/><line style="stroke:#181818;stroke-width:1.0;stroke-dasharray:2.0,2.0;" x1="84" x2="390" y1="868.9063" y2="868.9063"/><text fill="#000000" font-family="sans-serif" font-size="13" font-weight="bold" lengthAdjust="spacing" textLength="14" x="96" y="863.6436">14</text><text fill="#000000" font-family="sans-serif" font-size="13" lengthAdjust="spacing" textLength="147" x="114" y="863.6436">displays maintenance list</text><!--SRC=[jLR1Rjim3BthAuXUqWND3-HG8EZMea221d7RomeCgip4Gct9a-Hi7VhnesGliUmuIG_J9Od4zqG-KcJicrGbDxo0GYijCgCB16SgP7PtKdBnnZUOkFSSmQ1mN6toje7DUAf_IRM1DSyjCiOhfrLLlA9XR9J9566jjNlLlnaNJXkuUCPC2cAxpH4TBBWYVdC1tCBiwu8HgvD2bbmvk9WkZKuhWGikbKF5bS2vjExfFfW_tPzbVQELCphFcqjk7bVp3cw5fRQId9DeWyrkupsHFbwAA8QO5k95zGcMyzbZZDZMKU-Pfo_gkRiNiC-hZdkpiiobu4vgbQ2rz17iVioMozYIbsLZG3uDe7eWKHc3oks1JnPD6v5yIvBPGmpIPiEL_1FOev0U3Xu4diD7mxpaIXjISwpkOa1E2IP3d-TWCBzF7cVCbvhSSeUXf1WqYtx0v9hg1gPa-sR1QV04u3A49a6qcN472Z65Obz8Uv8TDPKV6q5h4U-4wFqjKtehFokqpaBA7OTBWsiacGLUGOfM65dwcAu0f5fhK_0SNbHyub1aYXAOnzjfPNZzJMZhlh2s0oDXq7iMIhphsNNO7e_9jzgC3PYGmGPThpOluxjsCeJBeYE_0X4H-eTm7c546jvFxzYlG3XfN9r2xrdrG2cUO1s8t1xmxypWpnBY6F-PMfpMnHx5zQJPNnE9KdRwAWh_tbh-7z7Zu-E37TAZfVVjufP6JzDoFb5czAP0Rz7qwntWZaOB4NTrGvKEbEhUfUswO0CgzPtuJuTTrNAjI_XEdG88bVtBxd1oTz9GanhEVn2fcSPBwghsM9bvwTWnBUkI2GruF3xSP7OHrstwjFidxE2cRdY-73_bkr-1EoG-38GY_jSmcAncmXnk_5D8fIrp_cxRV678i0wF7n-jdtvG_GK0]--></g></svg>