<?xml version="1.0" encoding="us-ascii" standalone="no"?><svg xmlns="http://www.w3.org/2000/svg" xmlns:xlink="http://www.w3.org/1999/xlink" contentStyleType="text/css" height="730px" preserveAspectRatio="none" style="width:732px;height:730px;background:#FFFFFF;" version="1.1" viewBox="0 0 732 730" width="732px" zoomAndPan="magnify"><defs/><g><rect fill="#FFFFFF" height="597.5293" style="stroke:#181818;stroke-width:1.0;" width="10" x="81" y="67.2422"/><rect fill="#FFFFFF" height="31.291" style="stroke:#181818;stroke-width:1.0;" width="10" x="681" y="116.8242"/><rect fill="#FFFFFF" height="31.291" style="stroke:#181818;stroke-width:1.0;" width="10" x="681" y="179.4063"/><rect fill="#FFFFFF" height="31.291" style="stroke:#181818;stroke-width:1.0;" width="10" x="681" y="241.9883"/><rect fill="#FFFFFF" height="31.291" style="stroke:#181818;stroke-width:1.0;" width="10" x="681" y="304.5703"/><rect fill="#FFFFFF" height="31.291" style="stroke:#181818;stroke-width:1.0;" width="10" x="681" y="367.1523"/><rect fill="#FFFFFF" height="31.291" style="stroke:#181818;stroke-width:1.0;" width="10" x="681" y="429.7344"/><rect fill="#FFFFFF" height="31.291" style="stroke:#181818;stroke-width:1.0;" width="10" x="681" y="492.3164"/><rect fill="#FFFFFF" height="31.291" style="stroke:#181818;stroke-width:1.0;" width="10" x="681" y="554.8984"/><rect fill="#FFFFFF" height="31.291" style="stroke:#181818;stroke-width:1.0;" width="10" x="681" y="617.4805"/><rect fill="none" height="582.5293" style="stroke:#000000;stroke-width:1.5;" width="716" x="10" y="74.2422"/><line style="stroke:#181818;stroke-width:0.5;stroke-dasharray:5.0,5.0;" x1="86" x2="86" y1="57.2422" y2="673.7715"/><line style="stroke:#181818;stroke-width:0.5;stroke-dasharray:5.0,5.0;" x1="686" x2="686" y1="57.2422" y2="673.7715"/><rect fill="#E3E3E3" height="51.2422" rx="2.5" ry="2.5" style="stroke:#181818;stroke-width:0.5;" width="132" x="20" y="5"/><text fill="#000000" font-family="sans-serif" font-size="14" lengthAdjust="spacing" textLength="116" x="28" y="27.1074">:vehicleRepository</text><text fill="#000000" font-family="sans-serif" font-size="14" lengthAdjust="spacing" textLength="118" x="27" y="45.7285">:VehicleRepository</text><rect fill="#E3E3E3" height="51.2422" rx="2.5" ry="2.5" style="stroke:#181818;stroke-width:0.5;" width="132" x="20" y="672.7715"/><text fill="#000000" font-family="sans-serif" font-size="14" lengthAdjust="spacing" textLength="116" x="28" y="694.8789">:vehicleRepository</text><text fill="#000000" font-family="sans-serif" font-size="14" lengthAdjust="spacing" textLength="118" x="27" y="713.5">:VehicleRepository</text><rect fill="#E3E3E3" height="32.6211" rx="2.5" ry="2.5" style="stroke:#181818;stroke-width:0.5;" width="60" x="656" y="23.6211"/><text fill="#000000" font-family="sans-serif" font-size="14" lengthAdjust="spacing" textLength="46" x="663" y="45.7285">Vehicle</text><rect fill="#E3E3E3" height="32.6211" rx="2.5" ry="2.5" style="stroke:#181818;stroke-width:0.5;" width="60" x="656" y="672.7715"/><text fill="#000000" font-family="sans-serif" font-size="14" lengthAdjust="spacing" textLength="46" x="663" y="694.8789">Vehicle</text><rect fill="#FFFFFF" height="597.5293" style="stroke:#181818;stroke-width:1.0;" width="10" x="81" y="67.2422"/><rect fill="#FFFFFF" height="31.291" style="stroke:#181818;stroke-width:1.0;" width="10" x="681" y="116.8242"/><rect fill="#FFFFFF" height="31.291" style="stroke:#181818;stroke-width:1.0;" width="10" x="681" y="179.4063"/><rect fill="#FFFFFF" height="31.291" style="stroke:#181818;stroke-width:1.0;" width="10" x="681" y="241.9883"/><rect fill="#FFFFFF" height="31.291" style="stroke:#181818;stroke-width:1.0;" width="10" x="681" y="304.5703"/><rect fill="#FFFFFF" height="31.291" style="stroke:#181818;stroke-width:1.0;" width="10" x="681" y="367.1523"/><rect fill="#FFFFFF" height="31.291" style="stroke:#181818;stroke-width:1.0;" width="10" x="681" y="429.7344"/><rect fill="#FFFFFF" height="31.291" style="stroke:#181818;stroke-width:1.0;" width="10" x="681" y="492.3164"/><rect fill="#FFFFFF" height="31.291" style="stroke:#181818;stroke-width:1.0;" width="10" x="681" y="554.8984"/><rect fill="#FFFFFF" height="31.291" style="stroke:#181818;stroke-width:1.0;" width="10" x="681" y="617.4805"/><path d="M10,74.2422 L83,74.2422 L83,83.5332 L73,93.5332 L10,93.5332 L10,74.2422 " fill="#EEEEEE" style="stroke:#000000;stroke-width:1.5;"/><rect fill="none" height="582.5293" style="stroke:#000000;stroke-width:1.5;" width="716" x="10" y="74.2422"/><text fill="#000000" font-family="sans-serif" font-size="13" font-weight="bold" lengthAdjust="spacing" textLength="28" x="25" y="89.2705">loop</text><text fill="#000000" font-family="sans-serif" font-size="11" font-weight="bold" lengthAdjust="spacing" textLength="99" x="98" y="88.1123">[[for each vehicle]</text><polygon fill="#181818" points="669,112.8242,679,116.8242,669,120.8242,673,116.8242" style="stroke:#181818;stroke-width:1.0;"/><line style="stroke:#181818;stroke-width:1.0;" x1="91" x2="675" y1="116.8242" y2="116.8242"/><text fill="#000000" font-family="sans-serif" font-size="13" lengthAdjust="spacing" textLength="101" x="98" y="111.5615">getPlateNumber()</text><polygon fill="#181818" points="102,144.1152,92,148.1152,102,152.1152,98,148.1152" style="stroke:#181818;stroke-width:1.0;"/><line style="stroke:#181818;stroke-width:1.0;" x1="96" x2="685" y1="148.1152" y2="148.1152"/><text fill="#000000" font-family="sans-serif" font-size="13" lengthAdjust="spacing" textLength="73" x="108" y="142.8525">plateNumber</text><polygon fill="#181818" points="669,175.4063,679,179.4063,669,183.4063,673,179.4063" style="stroke:#181818;stroke-width:1.0;"/><line style="stroke:#181818;stroke-width:1.0;" x1="91" x2="675" y1="179.4063" y2="179.4063"/><text fill="#000000" font-family="sans-serif" font-size="13" lengthAdjust="spacing" textLength="60" x="98" y="174.1436">getBrand()</text><polygon fill="#181818" points="102,206.6973,92,210.6973,102,214.6973,98,210.6973" style="stroke:#181818;stroke-width:1.0;"/><line style="stroke:#181818;stroke-width:1.0;" x1="96" x2="685" y1="210.6973" y2="210.6973"/><text fill="#000000" font-family="sans-serif" font-size="13" lengthAdjust="spacing" textLength="32" x="108" y="205.4346">brand</text><polygon fill="#181818" points="669,237.9883,679,241.9883,669,245.9883,673,241.9883" style="stroke:#181818;stroke-width:1.0;"/><line style="stroke:#181818;stroke-width:1.0;" x1="91" x2="675" y1="241.9883" y2="241.9883"/><text fill="#000000" font-family="sans-serif" font-size="13" lengthAdjust="spacing" textLength="53" x="98" y="236.7256">getModel</text><polygon fill="#181818" points="102,269.2793,92,273.2793,102,277.2793,98,273.2793" style="stroke:#181818;stroke-width:1.0;"/><line style="stroke:#181818;stroke-width:1.0;" x1="96" x2="685" y1="273.2793" y2="273.2793"/><text fill="#000000" font-family="sans-serif" font-size="13" lengthAdjust="spacing" textLength="35" x="108" y="268.0166">model</text><polygon fill="#181818" points="669,300.5703,679,304.5703,669,308.5703,673,304.5703" style="stroke:#181818;stroke-width:1.0;"/><line style="stroke:#181818;stroke-width:1.0;" x1="91" x2="675" y1="304.5703" y2="304.5703"/><text fill="#000000" font-family="sans-serif" font-size="13" lengthAdjust="spacing" textLength="88" x="98" y="299.3076">getCurrentKm()</text><polygon fill="#181818" points="102,331.8613,92,335.8613,102,339.8613,98,335.8613" style="stroke:#181818;stroke-width:1.0;"/><line style="stroke:#181818;stroke-width:1.0;" x1="96" x2="685" y1="335.8613" y2="335.8613"/><text fill="#000000" font-family="sans-serif" font-size="13" lengthAdjust="spacing" textLength="68" x="108" y="330.5986">currentKm()</text><polygon fill="#181818" points="669,363.1523,679,367.1523,669,371.1523,673,367.1523" style="stroke:#181818;stroke-width:1.0;"/><line style="stroke:#181818;stroke-width:1.0;" x1="91" x2="675" y1="367.1523" y2="367.1523"/><text fill="#000000" font-family="sans-serif" font-size="13" lengthAdjust="spacing" textLength="152" x="98" y="361.8896">getLastMaintenanceDate()</text><polygon fill="#181818" points="102,394.4434,92,398.4434,102,402.4434,98,398.4434" style="stroke:#181818;stroke-width:1.0;"/><line style="stroke:#181818;stroke-width:1.0;" x1="96" x2="685" y1="398.4434" y2="398.4434"/><text fill="#000000" font-family="sans-serif" font-size="13" lengthAdjust="spacing" textLength="122" x="108" y="393.1807">lastMaintenanceDate</text><polygon fill="#181818" points="669,425.7344,679,429.7344,669,433.7344,673,429.7344" style="stroke:#181818;stroke-width:1.0;"/><line style="stroke:#181818;stroke-width:1.0;" x1="91" x2="675" y1="429.7344" y2="429.7344"/><text fill="#000000" font-family="sans-serif" font-size="13" lengthAdjust="spacing" textLength="181" x="98" y="424.4717">getMaintenanceFrequencyKm()</text><polygon fill="#181818" points="102,457.0254,92,461.0254,102,465.0254,98,461.0254" style="stroke:#181818;stroke-width:1.0;"/><line style="stroke:#181818;stroke-width:1.0;" x1="96" x2="685" y1="461.0254" y2="461.0254"/><text fill="#000000" font-family="sans-serif" font-size="13" lengthAdjust="spacing" textLength="155" x="108" y="455.7627">maintenanceFrequencyKm</text><polygon fill="#181818" points="669,488.3164,679,492.3164,669,496.3164,673,492.3164" style="stroke:#181818;stroke-width:1.0;"/><line style="stroke:#181818;stroke-width:1.0;" x1="91" x2="675" y1="492.3164" y2="492.3164"/><text fill="#000000" font-family="sans-serif" font-size="13" lengthAdjust="spacing" textLength="217" x="98" y="487.0537">plusDays(maintenanceFrequencyKm)</text><polygon fill="#181818" points="102,519.6074,92,523.6074,102,527.6074,98,523.6074" style="stroke:#181818;stroke-width:1.0;"/><line style="stroke:#181818;stroke-width:1.0;" x1="96" x2="685" y1="523.6074" y2="523.6074"/><text fill="#000000" font-family="sans-serif" font-size="13" lengthAdjust="spacing" textLength="126" x="108" y="518.3447">nextMaintenanceDate</text><polygon fill="#181818" points="669,550.8984,679,554.8984,669,558.8984,673,554.8984" style="stroke:#181818;stroke-width:1.0;"/><line style="stroke:#181818;stroke-width:1.0;" x1="91" x2="675" y1="554.8984" y2="554.8984"/><text fill="#000000" font-family="sans-serif" font-size="13" lengthAdjust="spacing" textLength="101" x="98" y="549.6357">getPlateNumber()</text><polygon fill="#181818" points="102,582.1895,92,586.1895,102,590.1895,98,586.1895" style="stroke:#181818;stroke-width:1.0;"/><line style="stroke:#181818;stroke-width:1.0;" x1="96" x2="685" y1="586.1895" y2="586.1895"/><text fill="#000000" font-family="sans-serif" font-size="13" lengthAdjust="spacing" textLength="81" x="108" y="580.9268">plateNumber()</text><polygon fill="#181818" points="669,613.4805,679,617.4805,669,621.4805,673,617.4805" style="stroke:#181818;stroke-width:1.0;"/><line style="stroke:#181818;stroke-width:1.0;" x1="91" x2="675" y1="617.4805" y2="617.4805"/><text fill="#000000" font-family="sans-serif" font-size="13" lengthAdjust="spacing" textLength="571" x="98" y="612.2178">plusDays(maintenanceFrequencyKm).until(LocalDate.now(), java.time.temporal.ChronoUnit.DAYS);</text><polygon fill="#181818" points="102,644.7715,92,648.7715,102,652.7715,98,648.7715" style="stroke:#181818;stroke-width:1.0;"/><line style="stroke:#181818;stroke-width:1.0;" x1="96" x2="685" y1="648.7715" y2="648.7715"/><text fill="#000000" font-family="sans-serif" font-size="13" lengthAdjust="spacing" textLength="126" x="108" y="643.5088">nextMaintenanceKms</text><!--SRC=[lLLTJy9047plhxZuL1Bj3wY9YO8c1b03WSJeot8ivUHkxxoxWltt5a6XW7n9xUFUxCpiJdjr8q46B2YcD6a-j5eXypR5mFsS6E0ZIB3jCudC8lT0YLm6k27qzKHGmWOW7GP1aDUzuC80UNOMZt4ekCGM6ks4rpPxfRYxMZjZu5YtLMoTesPdj_VLJkCn0Ex563nEmMpfaLeRzZBGbY7m8PkB5Y1v2xku-cQAMOB-IUPK3wdgeGqhHV12QAwymZMhVX6sOcOMH4LS7tSHhPcwiK3zLJi7MDjYipUb_XrzXDccxgCimwhQJhp9wYwlrTHQ95zNvIoNxqD_n8eRu7mJ17aa88wrlBUS0UIwq6dVbGNtdSNt58bdPOMXDcgTRXmZKrU3p8MRXKgPYV2Zr7ost8Qd6S3i9t3mjxqhZ2WbBsJOq1paT6iHwKbOEMTlC8R82uMHHsMq1HbLyvyWwGu97zMkdzkLoty8igxS7tB4_4OFFW40]--></g></svg>