<?xml version="1.0" encoding="us-ascii" standalone="no"?><svg xmlns="http://www.w3.org/2000/svg" xmlns:xlink="http://www.w3.org/1999/xlink" contentStyleType="text/css" height="948px" preserveAspectRatio="none" style="width:2344px;height:948px;background:#FFFFFF;" version="1.1" viewBox="0 0 2344 948" width="2344px" zoomAndPan="magnify"><defs/><g><!--class ApplicationSession--><g id="elem_ApplicationSession"><rect codeLine="11" fill="#F1F1F1" height="85.2422" id="ApplicationSession" rx="2.5" ry="2.5" style="stroke:#181818;stroke-width:0.5;" width="151" x="1932.5" y="385"/><ellipse cx="1947.5" cy="401" fill="#ADD1B2" rx="11" ry="11" style="stroke:#181818;stroke-width:1.0;"/><path d="M1950.2656,396.875 Q1950.4219,396.6563 1950.6094,396.5469 Q1950.7969,396.4375 1951.0156,396.4375 Q1951.3906,396.4375 1951.625,396.7031 Q1951.8594,396.9531 1951.8594,397.5625 L1951.8594,399.0156 Q1951.8594,399.625 1951.625,399.8906 Q1951.3906,400.1563 1951.0156,400.1563 Q1950.6719,400.1563 1950.4688,399.9531 Q1950.2656,399.7656 1950.1563,399.25 Q1950.1094,398.8906 1949.9219,398.7031 Q1949.5938,398.3281 1948.9844,398.1094 Q1948.375,397.8906 1947.75,397.8906 Q1946.9844,397.8906 1946.3438,398.2188 Q1945.7188,398.5469 1945.2188,399.2969 Q1944.7344,400.0469 1944.7344,401.0781 L1944.7344,402.1719 Q1944.7344,403.4063 1945.625,404.2344 Q1946.5156,405.0469 1948.1094,405.0469 Q1949.0469,405.0469 1949.7031,404.7969 Q1950.0938,404.6406 1950.5156,404.2031 Q1950.7813,403.9375 1950.9219,403.8594 Q1951.0781,403.7813 1951.2813,403.7813 Q1951.6094,403.7813 1951.8594,404.0469 Q1952.125,404.2969 1952.125,404.6406 Q1952.125,404.9844 1951.7813,405.3906 Q1951.2813,405.9688 1950.4844,406.2969 Q1949.4063,406.75 1948.1094,406.75 Q1946.5938,406.75 1945.3906,406.125 Q1944.4063,405.625 1943.7188,404.5625 Q1943.0313,403.4844 1943.0313,402.2031 L1943.0313,401.0469 Q1943.0313,399.7188 1943.6406,398.5781 Q1944.2656,397.4219 1945.3594,396.8125 Q1946.4531,396.1875 1947.6875,396.1875 Q1948.4219,396.1875 1949.0625,396.3594 Q1949.7188,396.5156 1950.2656,396.875 Z " fill="#000000"/><text fill="#000000" font-family="sans-serif" font-size="14" lengthAdjust="spacing" textLength="119" x="1961.5" y="406.7969">ApplicationSession</text><line style="stroke:#181818;stroke-width:0.5;" x1="1933.5" x2="2082.5" y1="417" y2="417"/><line style="stroke:#181818;stroke-width:0.5;" x1="1933.5" x2="2082.5" y1="425" y2="425"/><text fill="#000000" font-family="sans-serif" font-size="14" lengthAdjust="spacing" textLength="128" x="1938.5" y="444.1074">+static getInstance()</text><text fill="#000000" font-family="sans-serif" font-size="14" lengthAdjust="spacing" textLength="136" x="1938.5" y="462.7285">+getCurrentSession()</text></g><!--class UserSession--><g id="elem_UserSession"><rect codeLine="17" fill="#F1F1F1" height="66.6211" id="UserSession" rx="2.5" ry="2.5" style="stroke:#181818;stroke-width:0.5;" width="113" x="1869.5" y="726"/><ellipse cx="1885.4" cy="742" fill="#ADD1B2" rx="11" ry="11" style="stroke:#181818;stroke-width:1.0;"/><path d="M1888.1656,737.875 Q1888.3219,737.6563 1888.5094,737.5469 Q1888.6969,737.4375 1888.9156,737.4375 Q1889.2906,737.4375 1889.525,737.7031 Q1889.7594,737.9531 1889.7594,738.5625 L1889.7594,740.0156 Q1889.7594,740.625 1889.525,740.8906 Q1889.2906,741.1563 1888.9156,741.1563 Q1888.5719,741.1563 1888.3688,740.9531 Q1888.1656,740.7656 1888.0563,740.25 Q1888.0094,739.8906 1887.8219,739.7031 Q1887.4938,739.3281 1886.8844,739.1094 Q1886.275,738.8906 1885.65,738.8906 Q1884.8844,738.8906 1884.2438,739.2188 Q1883.6188,739.5469 1883.1188,740.2969 Q1882.6344,741.0469 1882.6344,742.0781 L1882.6344,743.1719 Q1882.6344,744.4063 1883.525,745.2344 Q1884.4156,746.0469 1886.0094,746.0469 Q1886.9469,746.0469 1887.6031,745.7969 Q1887.9938,745.6406 1888.4156,745.2031 Q1888.6813,744.9375 1888.8219,744.8594 Q1888.9781,744.7813 1889.1813,744.7813 Q1889.5094,744.7813 1889.7594,745.0469 Q1890.025,745.2969 1890.025,745.6406 Q1890.025,745.9844 1889.6813,746.3906 Q1889.1813,746.9688 1888.3844,747.2969 Q1887.3063,747.75 1886.0094,747.75 Q1884.4938,747.75 1883.2906,747.125 Q1882.3063,746.625 1881.6188,745.5625 Q1880.9313,744.4844 1880.9313,743.2031 L1880.9313,742.0469 Q1880.9313,740.7188 1881.5406,739.5781 Q1882.1656,738.4219 1883.2594,737.8125 Q1884.3531,737.1875 1885.5875,737.1875 Q1886.3219,737.1875 1886.9625,737.3594 Q1887.6188,737.5156 1888.1656,737.875 Z " fill="#000000"/><text fill="#000000" font-family="sans-serif" font-size="14" lengthAdjust="spacing" textLength="79" x="1899.6" y="747.7969">UserSession</text><line style="stroke:#181818;stroke-width:0.5;" x1="1870.5" x2="1981.5" y1="758" y2="758"/><line style="stroke:#181818;stroke-width:0.5;" x1="1870.5" x2="1981.5" y1="766" y2="766"/><text fill="#000000" font-family="sans-serif" font-size="14" lengthAdjust="spacing" textLength="101" x="1875.5" y="785.1074">+getUserEmail()</text></g><!--class Collaborator--><g id="elem_Collaborator"><rect codeLine="22" fill="#F1F1F1" height="234.2109" id="Collaborator" rx="2.5" ry="2.5" style="stroke:#181818;stroke-width:0.5;" width="157" x="664.5" y="25.5"/><ellipse cx="700.65" cy="41.5" fill="#ADD1B2" rx="11" ry="11" style="stroke:#181818;stroke-width:1.0;"/><path d="M703.4156,37.375 Q703.5719,37.1563 703.7594,37.0469 Q703.9469,36.9375 704.1656,36.9375 Q704.5406,36.9375 704.775,37.2031 Q705.0094,37.4531 705.0094,38.0625 L705.0094,39.5156 Q705.0094,40.125 704.775,40.3906 Q704.5406,40.6563 704.1656,40.6563 Q703.8219,40.6563 703.6188,40.4531 Q703.4156,40.2656 703.3063,39.75 Q703.2594,39.3906 703.0719,39.2031 Q702.7438,38.8281 702.1344,38.6094 Q701.525,38.3906 700.9,38.3906 Q700.1344,38.3906 699.4938,38.7188 Q698.8688,39.0469 698.3688,39.7969 Q697.8844,40.5469 697.8844,41.5781 L697.8844,42.6719 Q697.8844,43.9063 698.775,44.7344 Q699.6656,45.5469 701.2594,45.5469 Q702.1969,45.5469 702.8531,45.2969 Q703.2438,45.1406 703.6656,44.7031 Q703.9313,44.4375 704.0719,44.3594 Q704.2281,44.2813 704.4313,44.2813 Q704.7594,44.2813 705.0094,44.5469 Q705.275,44.7969 705.275,45.1406 Q705.275,45.4844 704.9313,45.8906 Q704.4313,46.4688 703.6344,46.7969 Q702.5563,47.25 701.2594,47.25 Q699.7438,47.25 698.5406,46.625 Q697.5563,46.125 696.8688,45.0625 Q696.1813,43.9844 696.1813,42.7031 L696.1813,41.5469 Q696.1813,40.2188 696.7906,39.0781 Q697.4156,37.9219 698.5094,37.3125 Q699.6031,36.6875 700.8375,36.6875 Q701.5719,36.6875 702.2125,36.8594 Q702.8688,37.0156 703.4156,37.375 Z " fill="#000000"/><text fill="#000000" font-family="sans-serif" font-size="14" lengthAdjust="spacing" textLength="78" x="719.35" y="47.2969">Collaborator</text><line style="stroke:#181818;stroke-width:0.5;" x1="665.5" x2="820.5" y1="57.5" y2="57.5"/><text fill="#000000" font-family="sans-serif" font-size="14" lengthAdjust="spacing" textLength="85" x="670.5" y="76.6074">-name: String</text><text fill="#000000" font-family="sans-serif" font-size="14" lengthAdjust="spacing" textLength="106" x="670.5" y="95.2285">-birthdate: String</text><text fill="#000000" font-family="sans-serif" font-size="14" lengthAdjust="spacing" textLength="145" x="670.5" y="113.8496">-admission date: String</text><text fill="#000000" font-family="sans-serif" font-size="14" lengthAdjust="spacing" textLength="101" x="670.5" y="132.4707">-address: String</text><text fill="#000000" font-family="sans-serif" font-size="14" lengthAdjust="spacing" textLength="122" x="670.5" y="151.0918">-mobile Contact: int</text><text fill="#000000" font-family="sans-serif" font-size="14" lengthAdjust="spacing" textLength="133" x="670.5" y="169.7129">-email contact: String</text><text fill="#000000" font-family="sans-serif" font-size="14" lengthAdjust="spacing" textLength="134" x="670.5" y="188.334">-taxpayer number: int</text><text fill="#000000" font-family="sans-serif" font-size="14" lengthAdjust="spacing" textLength="121" x="670.5" y="206.9551">-ID doc type: String</text><text fill="#000000" font-family="sans-serif" font-size="14" lengthAdjust="spacing" textLength="93" x="670.5" y="225.5762">-ID number: int</text><line style="stroke:#181818;stroke-width:0.5;" x1="665.5" x2="820.5" y1="233.0898" y2="233.0898"/><text fill="#000000" font-family="sans-serif" font-size="14" lengthAdjust="spacing" textLength="90" x="670.5" y="252.1973">+addSkill(skill)</text></g><!--class CollaboratorRepository--><g id="elem_CollaboratorRepository"><rect codeLine="35" fill="#F1F1F1" height="364.5586" id="CollaboratorRepository" rx="2.5" ry="2.5" style="stroke:#181818;stroke-width:0.5;" width="369" x="901.5" y="577"/><ellipse cx="1008.75" cy="593" fill="#ADD1B2" rx="11" ry="11" style="stroke:#181818;stroke-width:1.0;"/><path d="M1011.5156,588.875 Q1011.6719,588.6563 1011.8594,588.5469 Q1012.0469,588.4375 1012.2656,588.4375 Q1012.6406,588.4375 1012.875,588.7031 Q1013.1094,588.9531 1013.1094,589.5625 L1013.1094,591.0156 Q1013.1094,591.625 1012.875,591.8906 Q1012.6406,592.1563 1012.2656,592.1563 Q1011.9219,592.1563 1011.7188,591.9531 Q1011.5156,591.7656 1011.4063,591.25 Q1011.3594,590.8906 1011.1719,590.7031 Q1010.8438,590.3281 1010.2344,590.1094 Q1009.625,589.8906 1009,589.8906 Q1008.2344,589.8906 1007.5938,590.2188 Q1006.9688,590.5469 1006.4688,591.2969 Q1005.9844,592.0469 1005.9844,593.0781 L1005.9844,594.1719 Q1005.9844,595.4063 1006.875,596.2344 Q1007.7656,597.0469 1009.3594,597.0469 Q1010.2969,597.0469 1010.9531,596.7969 Q1011.3438,596.6406 1011.7656,596.2031 Q1012.0313,595.9375 1012.1719,595.8594 Q1012.3281,595.7813 1012.5313,595.7813 Q1012.8594,595.7813 1013.1094,596.0469 Q1013.375,596.2969 1013.375,596.6406 Q1013.375,596.9844 1013.0313,597.3906 Q1012.5313,597.9688 1011.7344,598.2969 Q1010.6563,598.75 1009.3594,598.75 Q1007.8438,598.75 1006.6406,598.125 Q1005.6563,597.625 1004.9688,596.5625 Q1004.2813,595.4844 1004.2813,594.2031 L1004.2813,593.0469 Q1004.2813,591.7188 1004.8906,590.5781 Q1005.5156,589.4219 1006.6094,588.8125 Q1007.7031,588.1875 1008.9375,588.1875 Q1009.6719,588.1875 1010.3125,588.3594 Q1010.9688,588.5156 1011.5156,588.875 Z " fill="#000000"/><text fill="#000000" font-family="sans-serif" font-size="14" lengthAdjust="spacing" textLength="146" x="1029.25" y="598.7969">CollaboratorRepository</text><line style="stroke:#181818;stroke-width:0.5;" x1="902.5" x2="1269.5" y1="609" y2="609"/><text fill="#000000" font-family="sans-serif" font-size="14" lengthAdjust="spacing" textLength="207" x="907.5" y="628.1074">-List&lt;Collaborator&gt; collaborators</text><line style="stroke:#181818;stroke-width:0.5;" x1="902.5" x2="1269.5" y1="635.6211" y2="635.6211"/><text fill="#000000" font-family="sans-serif" font-size="14" lengthAdjust="spacing" textLength="350" x="907.5" y="654.7285">+Optional&lt;Collaborator&gt; add(Collaborator collaborator)</text><text fill="#000000" font-family="sans-serif" font-size="14" lengthAdjust="spacing" textLength="307" x="907.5" y="673.3496">+Collaborator getCollaboratorByID(int IDnumber)</text><text fill="#000000" font-family="sans-serif" font-size="14" lengthAdjust="spacing" textLength="258" x="907.5" y="691.9707">+List&lt;Collaborator&gt; getCollaboratorList()</text><text fill="#000000" font-family="sans-serif" font-size="14" lengthAdjust="spacing" textLength="277" x="907.5" y="710.5918">+addCollaborator(Collaborator collaborator)</text><text fill="#000000" font-family="sans-serif" font-size="14" lengthAdjust="spacing" textLength="290" x="907.5" y="729.2129">+Optional&lt;Collaborator&gt; registerCollaborator(</text><text fill="#000000" font-family="sans-serif" font-size="14" lengthAdjust="spacing" textLength="84" x="907.5" y="747.834">name: String,</text><text fill="#000000" font-family="sans-serif" font-size="14" lengthAdjust="spacing" textLength="105" x="907.5" y="766.4551">birthdate: String,</text><text fill="#000000" font-family="sans-serif" font-size="14" lengthAdjust="spacing" textLength="140" x="907.5" y="785.0762">admissiondate: String,</text><text fill="#000000" font-family="sans-serif" font-size="14" lengthAdjust="spacing" textLength="100" x="907.5" y="803.6973">address: String,</text><text fill="#000000" font-family="sans-serif" font-size="14" lengthAdjust="spacing" textLength="68" x="907.5" y="822.3184">mobile: int,</text><text fill="#000000" font-family="sans-serif" font-size="14" lengthAdjust="spacing" textLength="82" x="907.5" y="840.9395">email: String,</text><text fill="#000000" font-family="sans-serif" font-size="14" lengthAdjust="spacing" textLength="81" x="907.5" y="859.5605">taxpayer: int,</text><text fill="#000000" font-family="sans-serif" font-size="14" lengthAdjust="spacing" textLength="112" x="907.5" y="878.1816">IDdoctype: String,</text><text fill="#000000" font-family="sans-serif" font-size="14" lengthAdjust="spacing" textLength="89" x="907.5" y="896.8027">IDnumber: int)</text><text fill="#000000" font-family="sans-serif" font-size="14" lengthAdjust="spacing" textLength="357" x="907.5" y="915.4238">+boolean validateCollaborator(Collaborator collaborator)</text><text fill="#000000" font-family="sans-serif" font-size="14" lengthAdjust="spacing" textLength="327" x="907.5" y="934.0449">+void updateCollaborator(Collaborator collaborator)</text></g><!--class Repositories--><g id="elem_Repositories"><rect codeLine="46" fill="#F1F1F1" height="141.1055" id="Repositories" rx="2.5" ry="2.5" style="stroke:#181818;stroke-width:0.5;" width="378" x="897" y="357"/><ellipse cx="1042.25" cy="373" fill="#ADD1B2" rx="11" ry="11" style="stroke:#181818;stroke-width:1.0;"/><path d="M1045.0156,368.875 Q1045.1719,368.6563 1045.3594,368.5469 Q1045.5469,368.4375 1045.7656,368.4375 Q1046.1406,368.4375 1046.375,368.7031 Q1046.6094,368.9531 1046.6094,369.5625 L1046.6094,371.0156 Q1046.6094,371.625 1046.375,371.8906 Q1046.1406,372.1563 1045.7656,372.1563 Q1045.4219,372.1563 1045.2188,371.9531 Q1045.0156,371.7656 1044.9063,371.25 Q1044.8594,370.8906 1044.6719,370.7031 Q1044.3438,370.3281 1043.7344,370.1094 Q1043.125,369.8906 1042.5,369.8906 Q1041.7344,369.8906 1041.0938,370.2188 Q1040.4688,370.5469 1039.9688,371.2969 Q1039.4844,372.0469 1039.4844,373.0781 L1039.4844,374.1719 Q1039.4844,375.4063 1040.375,376.2344 Q1041.2656,377.0469 1042.8594,377.0469 Q1043.7969,377.0469 1044.4531,376.7969 Q1044.8438,376.6406 1045.2656,376.2031 Q1045.5313,375.9375 1045.6719,375.8594 Q1045.8281,375.7813 1046.0313,375.7813 Q1046.3594,375.7813 1046.6094,376.0469 Q1046.875,376.2969 1046.875,376.6406 Q1046.875,376.9844 1046.5313,377.3906 Q1046.0313,377.9688 1045.2344,378.2969 Q1044.1563,378.75 1042.8594,378.75 Q1041.3438,378.75 1040.1406,378.125 Q1039.1563,377.625 1038.4688,376.5625 Q1037.7813,375.4844 1037.7813,374.2031 L1037.7813,373.0469 Q1037.7813,371.7188 1038.3906,370.5781 Q1039.0156,369.4219 1040.1094,368.8125 Q1041.2031,368.1875 1042.4375,368.1875 Q1043.1719,368.1875 1043.8125,368.3594 Q1044.4688,368.5156 1045.0156,368.875 Z " fill="#000000"/><text fill="#000000" font-family="sans-serif" font-size="14" lengthAdjust="spacing" textLength="79" x="1062.75" y="378.7969">Repositories</text><line style="stroke:#181818;stroke-width:0.5;" x1="898" x2="1274" y1="389" y2="389"/><line style="stroke:#181818;stroke-width:0.5;" x1="898" x2="1274" y1="397" y2="397"/><text fill="#000000" font-family="sans-serif" font-size="14" lengthAdjust="spacing" textLength="182" x="903" y="416.1074">+getInstance() : Repositories</text><text fill="#000000" font-family="sans-serif" font-size="14" lengthAdjust="spacing" textLength="342" x="903" y="434.7285">+getCollaboratorRepository() : CollaboratorRepository</text><text fill="#000000" font-family="sans-serif" font-size="14" lengthAdjust="spacing" textLength="258" x="903" y="453.3496">+getTeamRepository() : TeamRepository</text><text fill="#000000" font-family="sans-serif" font-size="14" lengthAdjust="spacing" textLength="248" x="903" y="471.9707">+getTaskRepository() : TaskRepository</text><text fill="#000000" font-family="sans-serif" font-size="14" lengthAdjust="spacing" textLength="366" x="903" y="490.5918">+getAuthenticationRepository() : AuthenticationRepository</text></g><!--class RecordTaskController--><g id="elem_RecordTaskController"><rect codeLine="54" fill="#F1F1F1" height="271.4531" id="RecordTaskController" rx="2.5" ry="2.5" style="stroke:#181818;stroke-width:0.5;" width="1209" x="1128.5" y="7"/><ellipse cx="1659.25" cy="23" fill="#ADD1B2" rx="11" ry="11" style="stroke:#181818;stroke-width:1.0;"/><path d="M1662.0156,18.875 Q1662.1719,18.6563 1662.3594,18.5469 Q1662.5469,18.4375 1662.7656,18.4375 Q1663.1406,18.4375 1663.375,18.7031 Q1663.6094,18.9531 1663.6094,19.5625 L1663.6094,21.0156 Q1663.6094,21.625 1663.375,21.8906 Q1663.1406,22.1563 1662.7656,22.1563 Q1662.4219,22.1563 1662.2188,21.9531 Q1662.0156,21.7656 1661.9063,21.25 Q1661.8594,20.8906 1661.6719,20.7031 Q1661.3438,20.3281 1660.7344,20.1094 Q1660.125,19.8906 1659.5,19.8906 Q1658.7344,19.8906 1658.0938,20.2188 Q1657.4688,20.5469 1656.9688,21.2969 Q1656.4844,22.0469 1656.4844,23.0781 L1656.4844,24.1719 Q1656.4844,25.4063 1657.375,26.2344 Q1658.2656,27.0469 1659.8594,27.0469 Q1660.7969,27.0469 1661.4531,26.7969 Q1661.8438,26.6406 1662.2656,26.2031 Q1662.5313,25.9375 1662.6719,25.8594 Q1662.8281,25.7813 1663.0313,25.7813 Q1663.3594,25.7813 1663.6094,26.0469 Q1663.875,26.2969 1663.875,26.6406 Q1663.875,26.9844 1663.5313,27.3906 Q1663.0313,27.9688 1662.2344,28.2969 Q1661.1563,28.75 1659.8594,28.75 Q1658.3438,28.75 1657.1406,28.125 Q1656.1563,27.625 1655.4688,26.5625 Q1654.7813,25.4844 1654.7813,24.2031 L1654.7813,23.0469 Q1654.7813,21.7188 1655.3906,20.5781 Q1656.0156,19.4219 1657.1094,18.8125 Q1658.2031,18.1875 1659.4375,18.1875 Q1660.1719,18.1875 1660.8125,18.3594 Q1661.4688,18.5156 1662.0156,18.875 Z " fill="#000000"/><text fill="#000000" font-family="sans-serif" font-size="14" lengthAdjust="spacing" textLength="139" x="1679.75" y="28.7969">RecordTaskController</text><line style="stroke:#181818;stroke-width:0.5;" x1="1129.5" x2="2336.5" y1="39" y2="39"/><text fill="#000000" font-family="sans-serif" font-size="14" lengthAdjust="spacing" textLength="216" x="1134.5" y="58.1074">-teamRepository: TeamRepository</text><text fill="#000000" font-family="sans-serif" font-size="14" lengthAdjust="spacing" textLength="302" x="1134.5" y="76.7285">-collaboratorRepository: CollaboratorRepository</text><text fill="#000000" font-family="sans-serif" font-size="14" lengthAdjust="spacing" textLength="206" x="1134.5" y="95.3496">-taskRepository: TaskRepository</text><text fill="#000000" font-family="sans-serif" font-size="14" lengthAdjust="spacing" textLength="328" x="1134.5" y="113.9707">-authenticationRepository: AuthenticationRepository</text><line style="stroke:#181818;stroke-width:0.5;" x1="1129.5" x2="2336.5" y1="121.4844" y2="121.4844"/><text fill="#000000" font-family="sans-serif" font-size="14" lengthAdjust="spacing" textLength="1197" x="1134.5" y="140.5918">+RecordTaskController(TeamRepository teamRepository, CollaboratorRepository collaboratorRepository, TaskRepository taskRepository, AuthenticationRepository authenticationRepository)</text><text fill="#000000" font-family="sans-serif" font-size="14" lengthAdjust="spacing" textLength="250" x="1134.5" y="159.2129">+TeamRepository getTeamRepository()</text><text fill="#000000" font-family="sans-serif" font-size="14" lengthAdjust="spacing" textLength="334" x="1134.5" y="177.834">+CollaboratorRepository getCollaboratorRepository()</text><text fill="#000000" font-family="sans-serif" font-size="14" lengthAdjust="spacing" textLength="240" x="1134.5" y="196.4551">+TaskRepository getTaskRepository()</text><text fill="#000000" font-family="sans-serif" font-size="14" lengthAdjust="spacing" textLength="358" x="1134.5" y="215.0762">+AuthenticationRepository getAuthenticationRepository()</text><text fill="#000000" font-family="sans-serif" font-size="14" lengthAdjust="spacing" textLength="221" x="1134.5" y="233.6973">+void markTaskAsDone(Task task)</text><text fill="#000000" font-family="sans-serif" font-size="14" lengthAdjust="spacing" textLength="281" x="1134.5" y="252.3184">+Collaborator getCollaboratorFromSession()</text><text fill="#000000" font-family="sans-serif" font-size="14" lengthAdjust="spacing" textLength="349" x="1134.5" y="270.9395">+Team getCollaboratorTeam(Collaborator collaborator)</text></g><!--class RecordTaskUI--><g id="elem_RecordTaskUI"><rect codeLine="69" fill="#F1F1F1" height="196.9688" id="RecordTaskUI" rx="2.5" ry="2.5" style="stroke:#181818;stroke-width:0.5;" width="207" x="886.5" y="44"/><ellipse cx="941.25" cy="60" fill="#ADD1B2" rx="11" ry="11" style="stroke:#181818;stroke-width:1.0;"/><path d="M944.0156,55.875 Q944.1719,55.6563 944.3594,55.5469 Q944.5469,55.4375 944.7656,55.4375 Q945.1406,55.4375 945.375,55.7031 Q945.6094,55.9531 945.6094,56.5625 L945.6094,58.0156 Q945.6094,58.625 945.375,58.8906 Q945.1406,59.1563 944.7656,59.1563 Q944.4219,59.1563 944.2188,58.9531 Q944.0156,58.7656 943.9063,58.25 Q943.8594,57.8906 943.6719,57.7031 Q943.3438,57.3281 942.7344,57.1094 Q942.125,56.8906 941.5,56.8906 Q940.7344,56.8906 940.0938,57.2188 Q939.4688,57.5469 938.9688,58.2969 Q938.4844,59.0469 938.4844,60.0781 L938.4844,61.1719 Q938.4844,62.4063 939.375,63.2344 Q940.2656,64.0469 941.8594,64.0469 Q942.7969,64.0469 943.4531,63.7969 Q943.8438,63.6406 944.2656,63.2031 Q944.5313,62.9375 944.6719,62.8594 Q944.8281,62.7813 945.0313,62.7813 Q945.3594,62.7813 945.6094,63.0469 Q945.875,63.2969 945.875,63.6406 Q945.875,63.9844 945.5313,64.3906 Q945.0313,64.9688 944.2344,65.2969 Q943.1563,65.75 941.8594,65.75 Q940.3438,65.75 939.1406,65.125 Q938.1563,64.625 937.4688,63.5625 Q936.7813,62.4844 936.7813,61.2031 L936.7813,60.0469 Q936.7813,58.7188 937.3906,57.5781 Q938.0156,56.4219 939.1094,55.8125 Q940.2031,55.1875 941.4375,55.1875 Q942.1719,55.1875 942.8125,55.3594 Q943.4688,55.5156 944.0156,55.875 Z " fill="#000000"/><text fill="#000000" font-family="sans-serif" font-size="14" lengthAdjust="spacing" textLength="89" x="961.75" y="65.7969">RecordTaskUI</text><line style="stroke:#181818;stroke-width:0.5;" x1="887.5" x2="1092.5" y1="76" y2="76"/><text fill="#000000" font-family="sans-serif" font-size="14" lengthAdjust="spacing" textLength="166" x="892.5" y="95.1074">-collaborator: Collaborator</text><text fill="#000000" font-family="sans-serif" font-size="14" lengthAdjust="spacing" textLength="80" x="892.5" y="113.7285">-team: Team</text><text fill="#000000" font-family="sans-serif" font-size="14" lengthAdjust="spacing" textLength="128" x="892.5" y="132.3496">-selectedTask: Task</text><text fill="#000000" font-family="sans-serif" font-size="14" lengthAdjust="spacing" textLength="195" x="892.5" y="150.9707">-collaboratorTasks: List&lt;Task&gt;</text><line style="stroke:#181818;stroke-width:0.5;" x1="887.5" x2="1092.5" y1="158.4844" y2="158.4844"/><text fill="#000000" font-family="sans-serif" font-size="14" lengthAdjust="spacing" textLength="69" x="892.5" y="177.5918">+void run()</text><text fill="#000000" font-family="sans-serif" font-size="14" lengthAdjust="spacing" textLength="126" x="892.5" y="196.2129">+void requestData()</text><text fill="#000000" font-family="sans-serif" font-size="14" lengthAdjust="spacing" textLength="119" x="892.5" y="214.834">+void submitData()</text><text fill="#000000" font-family="sans-serif" font-size="14" lengthAdjust="spacing" textLength="177" x="892.5" y="233.4551">+List&lt;Task&gt; requestTasks()</text></g><!--class Team--><g id="elem_Team"><rect codeLine="80" fill="#F1F1F1" height="159.7266" id="Team" rx="2.5" ry="2.5" style="stroke:#181818;stroke-width:0.5;" width="262" x="303" y="62.5"/><ellipse cx="411.75" cy="78.5" fill="#ADD1B2" rx="11" ry="11" style="stroke:#181818;stroke-width:1.0;"/><path d="M414.5156,74.375 Q414.6719,74.1563 414.8594,74.0469 Q415.0469,73.9375 415.2656,73.9375 Q415.6406,73.9375 415.875,74.2031 Q416.1094,74.4531 416.1094,75.0625 L416.1094,76.5156 Q416.1094,77.125 415.875,77.3906 Q415.6406,77.6563 415.2656,77.6563 Q414.9219,77.6563 414.7188,77.4531 Q414.5156,77.2656 414.4063,76.75 Q414.3594,76.3906 414.1719,76.2031 Q413.8438,75.8281 413.2344,75.6094 Q412.625,75.3906 412,75.3906 Q411.2344,75.3906 410.5938,75.7188 Q409.9688,76.0469 409.4688,76.7969 Q408.9844,77.5469 408.9844,78.5781 L408.9844,79.6719 Q408.9844,80.9063 409.875,81.7344 Q410.7656,82.5469 412.3594,82.5469 Q413.2969,82.5469 413.9531,82.2969 Q414.3438,82.1406 414.7656,81.7031 Q415.0313,81.4375 415.1719,81.3594 Q415.3281,81.2813 415.5313,81.2813 Q415.8594,81.2813 416.1094,81.5469 Q416.375,81.7969 416.375,82.1406 Q416.375,82.4844 416.0313,82.8906 Q415.5313,83.4688 414.7344,83.7969 Q413.6563,84.25 412.3594,84.25 Q410.8438,84.25 409.6406,83.625 Q408.6563,83.125 407.9688,82.0625 Q407.2813,80.9844 407.2813,79.7031 L407.2813,78.5469 Q407.2813,77.2188 407.8906,76.0781 Q408.5156,74.9219 409.6094,74.3125 Q410.7031,73.6875 411.9375,73.6875 Q412.6719,73.6875 413.3125,73.8594 Q413.9688,74.0156 414.5156,74.375 Z " fill="#000000"/><text fill="#000000" font-family="sans-serif" font-size="14" lengthAdjust="spacing" textLength="36" x="432.25" y="84.2969">Team</text><line style="stroke:#181818;stroke-width:0.5;" x1="304" x2="564" y1="94.5" y2="94.5"/><text fill="#000000" font-family="sans-serif" font-size="14" lengthAdjust="spacing" textLength="211" x="309" y="113.6074">-collaborators: List&lt;Collaborator&gt;</text><text fill="#000000" font-family="sans-serif" font-size="14" lengthAdjust="spacing" textLength="72" x="309" y="132.2285">-teamID: int</text><line style="stroke:#181818;stroke-width:0.5;" x1="304" x2="564" y1="139.7422" y2="139.7422"/><text fill="#000000" font-family="sans-serif" font-size="14" lengthAdjust="spacing" textLength="250" x="309" y="158.8496">+boolean addCollaborator(collaborator)</text><text fill="#000000" font-family="sans-serif" font-size="14" lengthAdjust="spacing" textLength="168" x="309" y="177.4707">+boolean equals(Object o)</text><text fill="#000000" font-family="sans-serif" font-size="14" lengthAdjust="spacing" textLength="102" x="309" y="196.0918">+int hashCode()</text><text fill="#000000" font-family="sans-serif" font-size="14" lengthAdjust="spacing" textLength="92" x="309" y="214.7129">+Team clone()</text></g><!--class TaskRepository--><g id="elem_TaskRepository"><rect codeLine="89" fill="#F1F1F1" height="196.9688" id="TaskRepository" rx="2.5" ry="2.5" style="stroke:#181818;stroke-width:0.5;" width="795" x="71.5" y="661"/><ellipse cx="415.25" cy="677" fill="#ADD1B2" rx="11" ry="11" style="stroke:#181818;stroke-width:1.0;"/><path d="M418.0156,672.875 Q418.1719,672.6563 418.3594,672.5469 Q418.5469,672.4375 418.7656,672.4375 Q419.1406,672.4375 419.375,672.7031 Q419.6094,672.9531 419.6094,673.5625 L419.6094,675.0156 Q419.6094,675.625 419.375,675.8906 Q419.1406,676.1563 418.7656,676.1563 Q418.4219,676.1563 418.2188,675.9531 Q418.0156,675.7656 417.9063,675.25 Q417.8594,674.8906 417.6719,674.7031 Q417.3438,674.3281 416.7344,674.1094 Q416.125,673.8906 415.5,673.8906 Q414.7344,673.8906 414.0938,674.2188 Q413.4688,674.5469 412.9688,675.2969 Q412.4844,676.0469 412.4844,677.0781 L412.4844,678.1719 Q412.4844,679.4063 413.375,680.2344 Q414.2656,681.0469 415.8594,681.0469 Q416.7969,681.0469 417.4531,680.7969 Q417.8438,680.6406 418.2656,680.2031 Q418.5313,679.9375 418.6719,679.8594 Q418.8281,679.7813 419.0313,679.7813 Q419.3594,679.7813 419.6094,680.0469 Q419.875,680.2969 419.875,680.6406 Q419.875,680.9844 419.5313,681.3906 Q419.0313,681.9688 418.2344,682.2969 Q417.1563,682.75 415.8594,682.75 Q414.3438,682.75 413.1406,682.125 Q412.1563,681.625 411.4688,680.5625 Q410.7813,679.4844 410.7813,678.2031 L410.7813,677.0469 Q410.7813,675.7188 411.3906,674.5781 Q412.0156,673.4219 413.1094,672.8125 Q414.2031,672.1875 415.4375,672.1875 Q416.1719,672.1875 416.8125,672.3594 Q417.4688,672.5156 418.0156,672.875 Z " fill="#000000"/><text fill="#000000" font-family="sans-serif" font-size="14" lengthAdjust="spacing" textLength="99" x="435.75" y="682.7969">TaskRepository</text><line style="stroke:#181818;stroke-width:0.5;" x1="72.5" x2="865.5" y1="693" y2="693"/><text fill="#000000" font-family="sans-serif" font-size="14" lengthAdjust="spacing" textLength="111" x="77.5" y="712.1074">-List&lt;Task&gt; tasks</text><line style="stroke:#181818;stroke-width:0.5;" x1="72.5" x2="865.5" y1="719.6211" y2="719.6211"/><text fill="#000000" font-family="sans-serif" font-size="14" lengthAdjust="spacing" textLength="783" x="77.5" y="738.7285">+Optional&lt;Task&gt; createTask(String title, String description, String status, LocalDate startDate, String status, String duration)</text><text fill="#000000" font-family="sans-serif" font-size="14" lengthAdjust="spacing" textLength="189" x="77.5" y="757.3496">+boolean addTask(Task task)</text><text fill="#000000" font-family="sans-serif" font-size="14" lengthAdjust="spacing" textLength="214" x="77.5" y="775.9707">+boolean validateTask(Task task)</text><text fill="#000000" font-family="sans-serif" font-size="14" lengthAdjust="spacing" textLength="227" x="77.5" y="794.5918">+Task getTaskByTeam(Team team)</text><text fill="#000000" font-family="sans-serif" font-size="14" lengthAdjust="spacing" textLength="405" x="77.5" y="813.2129">+List&lt;Task&gt; filterTasksByStatus(List&lt;Task&gt; tasks, String status)</text><text fill="#000000" font-family="sans-serif" font-size="14" lengthAdjust="spacing" textLength="221" x="77.5" y="831.834">+void markTaskAsDone(Task task)</text><text fill="#000000" font-family="sans-serif" font-size="14" lengthAdjust="spacing" textLength="164" x="77.5" y="850.4551">+List&lt;Task&gt; getTaskList()</text></g><!--class Task--><g id="elem_Task"><rect codeLine="100" fill="#F1F1F1" height="234.2109" id="Task" rx="2.5" ry="2.5" style="stroke:#181818;stroke-width:0.5;" width="180" x="7" y="25.5"/><ellipse cx="77.25" cy="41.5" fill="#ADD1B2" rx="11" ry="11" style="stroke:#181818;stroke-width:1.0;"/><path d="M80.0156,37.375 Q80.1719,37.1563 80.3594,37.0469 Q80.5469,36.9375 80.7656,36.9375 Q81.1406,36.9375 81.375,37.2031 Q81.6094,37.4531 81.6094,38.0625 L81.6094,39.5156 Q81.6094,40.125 81.375,40.3906 Q81.1406,40.6563 80.7656,40.6563 Q80.4219,40.6563 80.2188,40.4531 Q80.0156,40.2656 79.9063,39.75 Q79.8594,39.3906 79.6719,39.2031 Q79.3438,38.8281 78.7344,38.6094 Q78.125,38.3906 77.5,38.3906 Q76.7344,38.3906 76.0938,38.7188 Q75.4688,39.0469 74.9688,39.7969 Q74.4844,40.5469 74.4844,41.5781 L74.4844,42.6719 Q74.4844,43.9063 75.375,44.7344 Q76.2656,45.5469 77.8594,45.5469 Q78.7969,45.5469 79.4531,45.2969 Q79.8438,45.1406 80.2656,44.7031 Q80.5313,44.4375 80.6719,44.3594 Q80.8281,44.2813 81.0313,44.2813 Q81.3594,44.2813 81.6094,44.5469 Q81.875,44.7969 81.875,45.1406 Q81.875,45.4844 81.5313,45.8906 Q81.0313,46.4688 80.2344,46.7969 Q79.1563,47.25 77.8594,47.25 Q76.3438,47.25 75.1406,46.625 Q74.1563,46.125 73.4688,45.0625 Q72.7813,43.9844 72.7813,42.7031 L72.7813,41.5469 Q72.7813,40.2188 73.3906,39.0781 Q74.0156,37.9219 75.1094,37.3125 Q76.2031,36.6875 77.4375,36.6875 Q78.1719,36.6875 78.8125,36.8594 Q79.4688,37.0156 80.0156,37.375 Z " fill="#000000"/><text fill="#000000" font-family="sans-serif" font-size="14" lengthAdjust="spacing" textLength="31" x="97.75" y="47.2969">Task</text><line style="stroke:#181818;stroke-width:0.5;" x1="8" x2="186" y1="57.5" y2="57.5"/><text fill="#000000" font-family="sans-serif" font-size="14" lengthAdjust="spacing" textLength="72" x="13" y="76.6074">-title: String</text><text fill="#000000" font-family="sans-serif" font-size="14" lengthAdjust="spacing" textLength="119" x="13" y="95.2285">-description: String</text><text fill="#000000" font-family="sans-serif" font-size="14" lengthAdjust="spacing" textLength="88" x="13" y="113.8496">-status: String</text><text fill="#000000" font-family="sans-serif" font-size="14" lengthAdjust="spacing" textLength="135" x="13" y="132.4707">-startDate: LocalDate</text><text fill="#000000" font-family="sans-serif" font-size="14" lengthAdjust="spacing" textLength="102" x="13" y="151.0918">-duration: String</text><text fill="#000000" font-family="sans-serif" font-size="14" lengthAdjust="spacing" textLength="153" x="13" y="169.7129">-associatedTeam: Team</text><line style="stroke:#181818;stroke-width:0.5;" x1="8" x2="186" y1="177.2266" y2="177.2266"/><text fill="#000000" font-family="sans-serif" font-size="14" lengthAdjust="spacing" textLength="164" x="13" y="196.334">+boolean addTeam(team)</text><text fill="#000000" font-family="sans-serif" font-size="14" lengthAdjust="spacing" textLength="168" x="13" y="214.9551">+boolean equals(Object o)</text><text fill="#000000" font-family="sans-serif" font-size="14" lengthAdjust="spacing" textLength="102" x="13" y="233.5762">+int hashCode()</text><text fill="#000000" font-family="sans-serif" font-size="14" lengthAdjust="spacing" textLength="87" x="13" y="252.1973">+Task clone()</text></g><!--class TeamRepository--><g id="elem_TeamRepository"><rect codeLine="113" fill="#F1F1F1" height="159.7266" id="TeamRepository" rx="2.5" ry="2.5" style="stroke:#181818;stroke-width:0.5;" width="377" x="1305.5" y="679.5"/><ellipse cx="1437.75" cy="695.5" fill="#ADD1B2" rx="11" ry="11" style="stroke:#181818;stroke-width:1.0;"/><path d="M1440.5156,691.375 Q1440.6719,691.1563 1440.8594,691.0469 Q1441.0469,690.9375 1441.2656,690.9375 Q1441.6406,690.9375 1441.875,691.2031 Q1442.1094,691.4531 1442.1094,692.0625 L1442.1094,693.5156 Q1442.1094,694.125 1441.875,694.3906 Q1441.6406,694.6563 1441.2656,694.6563 Q1440.9219,694.6563 1440.7188,694.4531 Q1440.5156,694.2656 1440.4063,693.75 Q1440.3594,693.3906 1440.1719,693.2031 Q1439.8438,692.8281 1439.2344,692.6094 Q1438.625,692.3906 1438,692.3906 Q1437.2344,692.3906 1436.5938,692.7188 Q1435.9688,693.0469 1435.4688,693.7969 Q1434.9844,694.5469 1434.9844,695.5781 L1434.9844,696.6719 Q1434.9844,697.9063 1435.875,698.7344 Q1436.7656,699.5469 1438.3594,699.5469 Q1439.2969,699.5469 1439.9531,699.2969 Q1440.3438,699.1406 1440.7656,698.7031 Q1441.0313,698.4375 1441.1719,698.3594 Q1441.3281,698.2813 1441.5313,698.2813 Q1441.8594,698.2813 1442.1094,698.5469 Q1442.375,698.7969 1442.375,699.1406 Q1442.375,699.4844 1442.0313,699.8906 Q1441.5313,700.4688 1440.7344,700.7969 Q1439.6563,701.25 1438.3594,701.25 Q1436.8438,701.25 1435.6406,700.625 Q1434.6563,700.125 1433.9688,699.0625 Q1433.2813,697.9844 1433.2813,696.7031 L1433.2813,695.5469 Q1433.2813,694.2188 1433.8906,693.0781 Q1434.5156,691.9219 1435.6094,691.3125 Q1436.7031,690.6875 1437.9375,690.6875 Q1438.6719,690.6875 1439.3125,690.8594 Q1439.9688,691.0156 1440.5156,691.375 Z " fill="#000000"/><text fill="#000000" font-family="sans-serif" font-size="14" lengthAdjust="spacing" textLength="104" x="1458.25" y="701.2969">TeamRepository</text><line style="stroke:#181818;stroke-width:0.5;" x1="1306.5" x2="1681.5" y1="711.5" y2="711.5"/><text fill="#000000" font-family="sans-serif" font-size="14" lengthAdjust="spacing" textLength="121" x="1311.5" y="730.6074">-List&lt;Team&gt; teams</text><line style="stroke:#181818;stroke-width:0.5;" x1="1306.5" x2="1681.5" y1="738.1211" y2="738.1211"/><text fill="#000000" font-family="sans-serif" font-size="14" lengthAdjust="spacing" textLength="319" x="1311.5" y="757.2285">+Optional&lt;Team&gt; createTeam(List&lt;Collaborator&gt;)</text><text fill="#000000" font-family="sans-serif" font-size="14" lengthAdjust="spacing" textLength="204" x="1311.5" y="775.8496">+boolean addTeam(Team team)</text><text fill="#000000" font-family="sans-serif" font-size="14" lengthAdjust="spacing" textLength="229" x="1311.5" y="794.4707">+boolean validateTeam(Team team)</text><text fill="#000000" font-family="sans-serif" font-size="14" lengthAdjust="spacing" textLength="365" x="1311.5" y="813.0918">+Team getTeamByCollaborator(Collaborator collaborator)</text><text fill="#000000" font-family="sans-serif" font-size="14" lengthAdjust="spacing" textLength="174" x="1311.5" y="831.7129">+List&lt;Team&gt; getTeamList()</text></g><!--link Task to Team--><g id="link_Task_Team"><path codeLine="122" d="M187.31,142.5 C222.79,142.5 258.22,142.5 296.89,142.5 " fill="none" id="Task-to-Team" style="stroke:#181818;stroke-width:1.0;"/><polygon fill="#181818" points="302.89,142.5,293.89,138.5,297.89,142.5,293.89,146.5,302.89,142.5" style="stroke:#181818;stroke-width:1.0;"/><text fill="#000000" font-family="sans-serif" font-size="13" lengthAdjust="spacing" textLength="79" x="205.5" y="135.5283">assigned with</text></g><!--link Team to Collaborator--><g id="link_Team_Collaborator"><path codeLine="123" d="M565.04,142.5 C598.76,142.5 628.01,142.5 658.15,142.5 " fill="none" id="Team-to-Collaborator" style="stroke:#181818;stroke-width:1.0;"/><polygon fill="#181818" points="664.15,142.5,655.15,138.5,659.15,142.5,655.15,146.5,664.15,142.5" style="stroke:#181818;stroke-width:1.0;"/><text fill="#000000" font-family="sans-serif" font-size="13" lengthAdjust="spacing" textLength="63" x="583.25" y="135.5283">consists of</text></g><!--link Collaborator to RecordTaskUI--><g id="link_Collaborator_RecordTaskUI"><path codeLine="124" d="M821.83,142.5 C842.3,142.5 858.67,142.5 880.21,142.5 " fill="none" id="Collaborator-to-RecordTaskUI" style="stroke:#181818;stroke-width:1.0;"/><polygon fill="#181818" points="886.21,142.5,877.21,138.5,881.21,142.5,877.21,146.5,886.21,142.5" style="stroke:#181818;stroke-width:1.0;"/><text fill="#000000" font-family="sans-serif" font-size="13" lengthAdjust="spacing" textLength="28" x="840" y="135.5283">uses</text></g><!--link Repositories to Repositories--><g id="link_Repositories_Repositories"><path codeLine="126" d="M1275.16,410.09 C1296.31,413.37 1310,419.17 1310,427.5 C1310,435.83 1302.2391,440.7105 1281.0891,443.9905 " fill="none" id="Repositories-to-Repositories" style="stroke:#181818;stroke-width:1.0;"/><polygon fill="#181818" points="1275.16,444.91,1284.6667,447.4835,1280.1009,444.1437,1283.4407,439.578,1275.16,444.91" style="stroke:#181818;stroke-width:1.0;"/><text fill="#000000" font-family="sans-serif" font-size="13" lengthAdjust="spacing" textLength="49" x="1316" y="433.0283">instance</text></g><!--link ApplicationSession to ApplicationSession--><g id="link_ApplicationSession_ApplicationSession"><path codeLine="127" d="M2083.66,407.07 C2103.5,408.28 2118.5,415.09 2118.5,427.5 C2118.5,439.91 2109.4889,446.3548 2089.6489,447.5648 " fill="none" id="ApplicationSession-to-ApplicationSession" style="stroke:#181818;stroke-width:1.0;"/><polygon fill="#181818" points="2083.66,447.93,2092.8868,451.3747,2088.6507,447.6256,2092.3998,443.3895,2083.66,447.93" style="stroke:#181818;stroke-width:1.0;"/><text fill="#000000" font-family="sans-serif" font-size="13" lengthAdjust="spacing" textLength="49" x="2124.5" y="433.0283">instance</text></g><!--link RecordTaskUI to RecordTaskController--><g id="link_RecordTaskUI_RecordTaskController"><path codeLine="129" d="M1093.6,142.5 C1105,142.5 1110.63,142.5 1122.1,142.5 " fill="none" id="RecordTaskUI-to-RecordTaskController" style="stroke:#181818;stroke-width:1.0;stroke-dasharray:7.0,7.0;"/><polygon fill="#181818" points="1128.1,142.5,1119.1,138.5,1123.1,142.5,1119.1,146.5,1128.1,142.5" style="stroke:#181818;stroke-width:1.0;"/></g><!--link RecordTaskController to Repositories--><g id="link_RecordTaskController_Repositories"><path codeLine="131" d="M1425.13,278.16 C1362.75,305.45 1305.0873,330.676 1250.4573,354.566 " fill="none" id="RecordTaskController-to-Repositories" style="stroke:#181818;stroke-width:1.0;"/><polygon fill="#181818" points="1244.96,356.97,1254.8087,357.0289,1249.5411,354.9667,1251.6033,349.6991,1244.96,356.97" style="stroke:#181818;stroke-width:1.0;"/><text fill="#000000" font-family="sans-serif" font-size="13" lengthAdjust="spacing" textLength="108" x="1352" y="323.0283">retrieves instances</text></g><!--link Repositories to CollaboratorRepository--><g id="link_Repositories_CollaboratorRepository"><path codeLine="133" d="M1086,498.08 C1086,521.53 1086,542.89 1086,570.9 " fill="none" id="Repositories-to-CollaboratorRepository" style="stroke:#181818;stroke-width:1.0;"/><polygon fill="#181818" points="1086,576.9,1090,567.9,1086,571.9,1082,567.9,1086,576.9" style="stroke:#181818;stroke-width:1.0;"/><text fill="#000000" font-family="sans-serif" font-size="13" lengthAdjust="spacing" textLength="56" x="1087" y="543.0283">accesses</text></g><!--link Repositories to TeamRepository--><g id="link_Repositories_TeamRepository"><path codeLine="134" d="M1180.79,498.18 C1233.27,536.77 1288,577 1288,577 C1288,577 1344.2282,626.5434 1399.7382,675.4534 " fill="none" id="Repositories-to-TeamRepository" style="stroke:#181818;stroke-width:1.0;"/><polygon fill="#181818" points="1404.24,679.42,1400.1316,670.4689,1400.4885,676.1145,1394.8429,676.4714,1404.24,679.42" style="stroke:#181818;stroke-width:1.0;"/><text fill="#000000" font-family="sans-serif" font-size="13" lengthAdjust="spacing" textLength="56" x="1245" y="543.0283">accesses</text></g><!--link Repositories to TaskRepository--><g id="link_Repositories_TaskRepository"><path codeLine="135" d="M955.9,498.08 C867.52,545.36 754.6508,605.7204 656.8608,658.0204 " fill="none" id="Repositories-to-TaskRepository" style="stroke:#181818;stroke-width:1.0;"/><polygon fill="#181818" points="651.57,660.85,661.3927,660.1328,655.979,658.492,657.6198,653.0783,651.57,660.85" style="stroke:#181818;stroke-width:1.0;"/><text fill="#000000" font-family="sans-serif" font-size="13" lengthAdjust="spacing" textLength="56" x="887" y="543.0283">accesses</text></g><!--link RecordTaskController to TeamRepository--><g id="link_RecordTaskController_TeamRepository"><path codeLine="137" d="M1709.47,278.03 C1691.93,378.31 1671,498 1671,498 C1671,498 1603.2719,597.6771 1551.2019,674.3171 " fill="none" id="RecordTaskController-to-TeamRepository" style="stroke:#181818;stroke-width:1.0;stroke-dasharray:7.0,7.0;"/><polygon fill="#181818" points="1547.83,679.28,1556.1964,674.0835,1550.6399,675.1442,1549.5792,669.5877,1547.83,679.28" style="stroke:#181818;stroke-width:1.0;"/><text fill="#000000" font-family="sans-serif" font-size="13" lengthAdjust="spacing" textLength="91" x="1695" y="433.0283">teamRepository</text></g><!--link RecordTaskController to TaskRepository--><g id="link_RecordTaskController_TaskRepository"><path codeLine="138" d="M1139.42,278.03 C951.17,320.7 791,357 791,357 C791,357 734,498 734,498 C734,498 647.8986,582.6336 572.7086,656.5536 " fill="none" id="RecordTaskController-to-TaskRepository" style="stroke:#181818;stroke-width:1.0;stroke-dasharray:7.0,7.0;"/><polygon fill="#181818" points="568.43,660.76,577.6522,657.3029,571.9955,657.2547,572.0437,651.5981,568.43,660.76" style="stroke:#181818;stroke-width:1.0;"/><text fill="#000000" font-family="sans-serif" font-size="13" lengthAdjust="spacing" textLength="87" x="792" y="433.0283">taskRepository</text></g><!--link RecordTaskController to CollaboratorRepository--><g id="link_RecordTaskController_CollaboratorRepository"><path codeLine="139" d="M1606.27,278.11 C1566.14,320.74 1532,357 1532,357 C1532,357 1470,498 1470,498 C1470,498 1288,577 1288,577 C1288,577 1285.9439,578.8508 1275.2439,588.4608 " fill="none" id="RecordTaskController-to-CollaboratorRepository" style="stroke:#181818;stroke-width:1.0;stroke-dasharray:7.0,7.0;"/><polygon fill="#181818" points="1270.78,592.47,1280.1487,589.4322,1274.4999,589.129,1274.8031,583.4803,1270.78,592.47" style="stroke:#181818;stroke-width:1.0;"/><text fill="#000000" font-family="sans-serif" font-size="13" lengthAdjust="spacing" textLength="129" x="1533" y="433.0283">collaboratorRepository</text></g><!--link ApplicationSession to UserSession--><g id="link_ApplicationSession_UserSession"><path codeLine="141" d="M1997.61,470.29 C1981.07,536.89 1950.5068,659.887 1935.5368,720.137 " fill="none" id="ApplicationSession-to-UserSession" style="stroke:#181818;stroke-width:1.0;"/><polygon fill="#181818" points="1934.09,725.96,1940.1422,718.1901,1935.2957,721.1075,1932.3782,716.261,1934.09,725.96" style="stroke:#181818;stroke-width:1.0;"/><text fill="#000000" font-family="sans-serif" font-size="13" lengthAdjust="spacing" textLength="72" x="1982" y="543.0283">userSession</text><text fill="#000000" font-family="sans-serif" font-size="13" lengthAdjust="spacing" textLength="7" x="1927.9937" y="714.7776">1</text></g><!--link RecordTaskController to ApplicationSession--><g id="link_RecordTaskController_ApplicationSession"><path codeLine="143" d="M1873.85,278.21 C1892.32,295.88 1905,308 1905,308 C1905,308 1938.0937,346.0717 1967.7537,380.1917 " fill="none" id="RecordTaskController-to-ApplicationSession" style="stroke:#181818;stroke-width:1.0;stroke-dasharray:7.0,7.0;"/><polygon fill="#181818" points="1971.69,384.72,1968.8043,375.3034,1968.4097,380.9464,1962.7666,380.5518,1971.69,384.72" style="stroke:#181818;stroke-width:1.0;"/></g><!--link RecordTaskController to UserSession--><g id="link_RecordTaskController_UserSession"><path codeLine="144" d="M1796.68,278.11 C1816.85,320.74 1834,357 1834,357 C1834,357 1895.31,624.5516 1917.21,720.1316 " fill="none" id="RecordTaskController-to-UserSession" style="stroke:#181818;stroke-width:1.0;stroke-dasharray:7.0,7.0;"/><polygon fill="#181818" points="1918.55,725.98,1920.4389,716.314,1917.4333,721.1063,1912.641,718.1007,1918.55,725.98" style="stroke:#181818;stroke-width:1.0;"/></g><!--link TeamRepository to Team--><g id="link_TeamRepository_Team"><path codeLine="146" d="M1472.71,679.28 C1452.12,602.64 1424,498 1424,498 C1424,498 1402,308 1402,308 C1402,308 647,278 647,278 C647,278 610.5734,254.9932 564.2134,225.7232 " fill="none" id="TeamRepository-to-Team" style="stroke:#181818;stroke-width:1.0;stroke-dasharray:7.0,7.0;"/><polygon fill="#181818" points="559.14,222.52,564.6147,230.707,563.3679,225.1893,568.8856,223.9425,559.14,222.52" style="stroke:#181818;stroke-width:1.0;"/><text fill="#000000" font-family="sans-serif" font-size="13" lengthAdjust="spacing" textLength="36" x="1425" y="433.0283">stores</text></g><!--link TaskRepository to Task--><g id="link_TaskRepository_Task"><path codeLine="147" d="M409.84,660.69 C343.88,551.65 240.4053,380.5839 170.2953,264.6739 " fill="none" id="TaskRepository-to-Task" style="stroke:#181818;stroke-width:1.0;stroke-dasharray:7.0,7.0;"/><polygon fill="#181818" points="167.19,259.54,168.4254,269.3111,169.7778,263.8183,175.2706,265.1706,167.19,259.54" style="stroke:#181818;stroke-width:1.0;"/><text fill="#000000" font-family="sans-serif" font-size="13" lengthAdjust="spacing" textLength="36" x="309" y="433.0283">stores</text></g><!--link CollaboratorRepository to Collaborator--><g id="link_CollaboratorRepository_Collaborator"><path codeLine="148" d="M901.22,592.47 C890.52,582.86 884,577 884,577 C884,577 692,498 692,498 C692,498 692,357 692,357 C692,357 701.9063,315.5359 713.8663,265.4559 " fill="none" id="CollaboratorRepository-to-Collaborator" style="stroke:#181818;stroke-width:1.0;stroke-dasharray:7.0,7.0;"/><polygon fill="#181818" points="715.26,259.62,709.2788,267.4447,714.0986,264.4832,717.06,269.303,715.26,259.62" style="stroke:#181818;stroke-width:1.0;"/><text fill="#000000" font-family="sans-serif" font-size="13" lengthAdjust="spacing" textLength="36" x="693" y="433.0283">stores</text></g><!--SRC=[dLXHR-Cs37xthn3kfIwQ5jjhC0HeanqGu803bjtRNXHRJRJ8aa-IUyiE- -yZPSkMP3cthW-jJNwKIEeJIVVENBXigQODQPHKrLchXX6hErPCcfPM5tfY1tiLZ6XMMIfF8WIOCwtLDovFv9KA4se4bynUMqPQ9QxuKjnbb4fRLGHMbQ36F5kh-R6pR5yfUU1_C_9JKTm9zcg9LKJpqzcIcgCxNCcYS3RakMq5hoYA3imOr7ml2Fmy46D1N94Jiti9px9YvVsW0jcsqvf9EnY1vX-_v1V3TBeM6A3uruPo4MAtIWXwL9fQfKaFVYIIDcnD3X2DF0sY8zVsN5ERocdTSBSJoIfh3NuaqaOTEHpBLabBAxicNDf1mz0xKdb5P6NfNoszCararnoP3itsErAhYk3194QWIU4FwDNXmeKe3VvskI3pPFp6McKuF5pxj3oIJzpONqB81boTtapXLl_Sub5IaI1XqpBATMXwtvj6UZpXuFtbkj-L40E4r4Sqs6ISIYmHKGvey29K_T2ZXM0qEy6YJ4ThaJzao9iLlCz8WyAHCND5n1OKzLHnXuUlZX-XtfDYHEntm8IG2Bqm8C4GsL4fmQWaRrHmTEHTQNbJl2PT-owxySQDnEBCE6ezn3USh2E81-IvwU1vbJVydT4cCOX58v2QImgCH1xutDapL9wXQYKcIyeYI42bT8rBOmdGu3oRIe-DNCkuYg0g6_2DHFG598mb4vkhM0lUtuYhBogveChO-IIsrLAvoKUtIXnEubajEhWOa-ybYPSPoWp01NzlaDFl47kUuTe0N8pX9ki6OtSh6welkFYpsId9IdnqcSh5a7h-4KQ9gPrEoKbnABjrrpDC_x9t38-f6nEsyFJlIUzU3HCmBJ2tHC_OsI8eX9hf-W0-Ruen5xhhu_2lx6l7ZDrHIqEnwOuD3wNJKjx4xH5E3IuhtpEtqNiIzOlWQkztOIVsHJXjIxEI6s318vZOoi_7Fo4pH7arjiOpDUUjgbbyU9L08eJEnspimvWwV1yvSiPuJT08Ussb6TH-V2xxDaCijuAjXgP3QcOgpPtDACDfhZChyabLL42w6Keq9fxDC7wPJZkotq-E12bpsoS4p_QsHQ2J3RVnvUfexLA69nN0WhIySW5zt_7XvNfmtfPfrf9eWeN-mmrDDnoy6uQOw0odde6vJoQ_u0GIJU_LNDWVnNew7x_IS0ZfR6kCgZZ5ondUsVICCATJElydZJ7OEOtZiZsZCQWtxYIpD7RQWSReu_pMBf1kYIGpqYq1VKN5lo_NTynT8JUS-yCY4pTSeXutf3yHI18_ILQJRzoU2xSjwBPH0OPl3GFcXgZN8jeTa67rNfFEm2nMHCERmmJlMDhwAQwOVzKXEYCDR8geNJnjiZD5Y0h6fqVucfLpVpG3oh8tUFQxp68O31TwEsIn0YECFMkMaF27yBZq1l1yM4zFcItYCUg6ORfPF34j6oxc8Z-P5TdJXcW__FmX_1OdZaJZb_do_fb_2InYms_z8acLpzuQofk2JwiYoOXFqgXV23pDoOZ_5m00]--></g></svg>