<?xml version="1.0" encoding="us-ascii" standalone="no"?><svg xmlns="http://www.w3.org/2000/svg" xmlns:xlink="http://www.w3.org/1999/xlink" contentStyleType="text/css" height="772px" preserveAspectRatio="none" style="width:1318px;height:772px;background:#FFFFFF;" version="1.1" viewBox="0 0 1318 772" width="1318px" zoomAndPan="magnify"><defs/><g><rect fill="#FFFFFF" height="607.6465" style="stroke:#181818;stroke-width:1.0;" width="10" x="572" y="90.5332"/><rect fill="#FFFFFF" height="170.4941" style="stroke:#181818;stroke-width:1.0;" width="10" x="768" y="174.4063"/><rect fill="#FFFFFF" height="42.291" style="stroke:#181818;stroke-width:1.0;" width="10" x="773" y="264.3184"/><rect fill="#FFFFFF" height="330.9883" style="stroke:#181818;stroke-width:1.0;" width="10" x="1042" y="376.1914"/><rect fill="#FFFFFF" height="36.291" style="stroke:#181818;stroke-width:1.0;" width="10" x="1047" y="516.6855"/><rect fill="none" height="562.3555" style="stroke:#000000;stroke-width:1.5;" width="838" x="474" y="105.5332"/><rect fill="none" height="50.582" style="stroke:#000000;stroke-width:1.5;" width="355.5" x="484" y="131.8242"/><rect fill="none" height="169.7852" style="stroke:#000000;stroke-width:1.5;" width="379" x="923" y="434.8125"/><line style="stroke:#181818;stroke-width:0.5;stroke-dasharray:5.0,5.0;" x1="577" x2="577" y1="57.2422" y2="716.1797"/><line style="stroke:#181818;stroke-width:0.5;stroke-dasharray:5.0,5.0;" x1="772.5" x2="772.5" y1="57.2422" y2="716.1797"/><line style="stroke:#181818;stroke-width:0.5;stroke-dasharray:5.0,5.0;" x1="964" x2="964" y1="221.2168" y2="716.1797"/><line style="stroke:#181818;stroke-width:0.5;stroke-dasharray:5.0,5.0;" x1="1047" x2="1047" y1="57.2422" y2="716.1797"/><line style="stroke:#181818;stroke-width:0.5;stroke-dasharray:5.0,5.0;" x1="1166" x2="1166" y1="416.002" y2="716.1797"/><line style="stroke:#181818;stroke-width:0.5;stroke-dasharray:5.0,5.0;" x1="1257" x2="1257" y1="561.4961" y2="716.1797"/><rect fill="#E3E3E3" height="32.6211" rx="2.5" ry="2.5" style="stroke:#181818;stroke-width:0.5;" width="166" x="494" y="23.6211"/><text fill="#000000" font-family="sans-serif" font-size="14" lengthAdjust="spacing" textLength="152" x="501" y="45.7285">:ConsultTasksController</text><rect fill="#E3E3E3" height="32.6211" rx="2.5" ry="2.5" style="stroke:#181818;stroke-width:0.5;" width="166" x="494" y="715.1797"/><text fill="#000000" font-family="sans-serif" font-size="14" lengthAdjust="spacing" textLength="152" x="501" y="737.2871">:ConsultTasksController</text><rect fill="#E3E3E3" height="51.2422" rx="2.5" ry="2.5" style="stroke:#181818;stroke-width:0.5;" width="113" x="716.5" y="5"/><text fill="#000000" font-family="sans-serif" font-size="14" lengthAdjust="spacing" textLength="98" x="724" y="27.1074">taskRepository:</text><text fill="#000000" font-family="sans-serif" font-size="14" lengthAdjust="spacing" textLength="99" x="723.5" y="45.7285">TaskRepository</text><rect fill="#E3E3E3" height="51.2422" rx="2.5" ry="2.5" style="stroke:#181818;stroke-width:0.5;" width="113" x="716.5" y="715.1797"/><text fill="#000000" font-family="sans-serif" font-size="14" lengthAdjust="spacing" textLength="98" x="724" y="737.2871">taskRepository:</text><text fill="#000000" font-family="sans-serif" font-size="14" lengthAdjust="spacing" textLength="99" x="723.5" y="755.9082">TaskRepository</text><rect fill="#E3E3E3" height="32.6211" rx="2.5" ry="2.5" style="stroke:#181818;stroke-width:0.5;" width="62" x="933" y="715.1797"/><text fill="#000000" font-family="sans-serif" font-size="14" lengthAdjust="spacing" textLength="48" x="940" y="737.2871">taskList</text><rect fill="#E3E3E3" height="32.6211" rx="2.5" ry="2.5" style="stroke:#181818;stroke-width:0.5;" width="84" x="1005" y="23.6211"/><text fill="#000000" font-family="sans-serif" font-size="14" lengthAdjust="spacing" textLength="70" x="1012" y="45.7285">ListMapper</text><rect fill="#E3E3E3" height="32.6211" rx="2.5" ry="2.5" style="stroke:#181818;stroke-width:0.5;" width="84" x="1005" y="715.1797"/><text fill="#000000" font-family="sans-serif" font-size="14" lengthAdjust="spacing" textLength="70" x="1012" y="737.2871">ListMapper</text><rect fill="#E3E3E3" height="32.6211" rx="2.5" ry="2.5" style="stroke:#181818;stroke-width:0.5;" width="92" x="1120" y="715.1797"/><text fill="#000000" font-family="sans-serif" font-size="14" lengthAdjust="spacing" textLength="78" x="1127" y="737.2871">taskListDTO</text><rect fill="#E3E3E3" height="32.6211" rx="2.5" ry="2.5" style="stroke:#181818;stroke-width:0.5;" width="70" x="1222" y="715.1797"/><text fill="#000000" font-family="sans-serif" font-size="14" lengthAdjust="spacing" textLength="56" x="1229" y="737.2871">taskDTO</text><rect fill="#FFFFFF" height="607.6465" style="stroke:#181818;stroke-width:1.0;" width="10" x="572" y="90.5332"/><rect fill="#FFFFFF" height="170.4941" style="stroke:#181818;stroke-width:1.0;" width="10" x="768" y="174.4063"/><rect fill="#FFFFFF" height="42.291" style="stroke:#181818;stroke-width:1.0;" width="10" x="773" y="264.3184"/><rect fill="#FFFFFF" height="330.9883" style="stroke:#181818;stroke-width:1.0;" width="10" x="1042" y="376.1914"/><rect fill="#FFFFFF" height="36.291" style="stroke:#181818;stroke-width:1.0;" width="10" x="1047" y="516.6855"/><polygon fill="#181818" points="560,86.5332,570,90.5332,560,94.5332,564,90.5332" style="stroke:#181818;stroke-width:1.0;"/><line style="stroke:#181818;stroke-width:1.0;" x1="0" x2="566" y1="90.5332" y2="90.5332"/><text fill="#000000" font-family="sans-serif" font-size="13" lengthAdjust="spacing" textLength="553" x="7" y="85.2705">getTasksForCollaborator(Team team, LocalDate firstDate, LocalDate secondDate, String status)</text><path d="M474,105.5332 L684,105.5332 L684,114.8242 L674,124.8242 L474,124.8242 L474,105.5332 " fill="#EEEEEE" style="stroke:#000000;stroke-width:1.5;"/><rect fill="none" height="562.3555" style="stroke:#000000;stroke-width:1.5;" width="838" x="474" y="105.5332"/><text fill="#000000" font-family="sans-serif" font-size="13" font-weight="bold" lengthAdjust="spacing" textLength="165" x="489" y="120.5615">Get Tasks for Collaborator</text><path d="M484,131.8242 L557,131.8242 L557,141.1152 L547,151.1152 L484,151.1152 L484,131.8242 " fill="#EEEEEE" style="stroke:#000000;stroke-width:1.5;"/><rect fill="none" height="50.582" style="stroke:#000000;stroke-width:1.5;" width="355.5" x="484" y="131.8242"/><text fill="#000000" font-family="sans-serif" font-size="13" font-weight="bold" lengthAdjust="spacing" textLength="28" x="499" y="146.8525">loop</text><text fill="#000000" font-family="sans-serif" font-size="11" font-weight="bold" lengthAdjust="spacing" textLength="80" x="572" y="145.6943">[for each task]</text><polygon fill="#181818" points="756,170.4063,766,174.4063,756,178.4063,760,174.4063" style="stroke:#181818;stroke-width:1.0;"/><line style="stroke:#181818;stroke-width:1.0;" x1="582" x2="762" y1="174.4063" y2="174.4063"/><text fill="#000000" font-family="sans-serif" font-size="13" lengthAdjust="spacing" textLength="167" x="589" y="169.1436">getTaskByTeam(Team team)</text><polygon fill="#181818" points="921,208.6973,931,212.6973,921,216.6973,925,212.6973" style="stroke:#181818;stroke-width:1.0;"/><line style="stroke:#181818;stroke-width:1.0;" x1="778" x2="927" y1="212.6973" y2="212.6973"/><text fill="#000000" font-family="sans-serif" font-size="13" lengthAdjust="spacing" textLength="44" x="785" y="207.4346">create()</text><rect fill="#E3E3E3" height="32.6211" rx="2.5" ry="2.5" style="stroke:#181818;stroke-width:0.5;" width="62" x="933" y="189.4063"/><text fill="#000000" font-family="sans-serif" font-size="14" lengthAdjust="spacing" textLength="48" x="940" y="211.5137">taskList</text><line style="stroke:#181818;stroke-width:1.0;" x1="778" x2="825" y1="251.3184" y2="251.3184"/><line style="stroke:#181818;stroke-width:1.0;" x1="825" x2="825" y1="251.3184" y2="264.3184"/><line style="stroke:#181818;stroke-width:1.0;" x1="784" x2="825" y1="264.3184" y2="264.3184"/><polygon fill="#181818" points="794,260.3184,784,264.3184,794,268.3184,790,264.3184" style="stroke:#181818;stroke-width:1.0;"/><text fill="#000000" font-family="sans-serif" font-size="13" lengthAdjust="spacing" textLength="167" x="790" y="246.0557">filterTasksByStatus(taskList)</text><line style="stroke:#181818;stroke-width:1.0;stroke-dasharray:2.0,2.0;" x1="783" x2="825" y1="305.6094" y2="305.6094"/><line style="stroke:#181818;stroke-width:1.0;stroke-dasharray:2.0,2.0;" x1="825" x2="825" y1="305.6094" y2="318.6094"/><line style="stroke:#181818;stroke-width:1.0;stroke-dasharray:2.0,2.0;" x1="778" x2="825" y1="318.6094" y2="318.6094"/><polygon fill="#181818" points="788,314.6094,778,318.6094,788,322.6094,784,318.6094" style="stroke:#181818;stroke-width:1.0;"/><text fill="#000000" font-family="sans-serif" font-size="13" lengthAdjust="spacing" textLength="102" x="790" y="300.3467">collaboratorTasks</text><polygon fill="#181818" points="593,340.9004,583,344.9004,593,348.9004,589,344.9004" style="stroke:#181818;stroke-width:1.0;"/><line style="stroke:#181818;stroke-width:1.0;stroke-dasharray:2.0,2.0;" x1="587" x2="772" y1="344.9004" y2="344.9004"/><text fill="#000000" font-family="sans-serif" font-size="13" lengthAdjust="spacing" textLength="102" x="599" y="339.6377">collaboratorTasks</text><polygon fill="#181818" points="1030,372.1914,1040,376.1914,1030,380.1914,1034,376.1914" style="stroke:#181818;stroke-width:1.0;"/><line style="stroke:#181818;stroke-width:1.0;" x1="582" x2="1036" y1="376.1914" y2="376.1914"/><text fill="#000000" font-family="sans-serif" font-size="13" lengthAdjust="spacing" textLength="147" x="589" y="370.9287">toDTO(collaboratorTasks)</text><polygon fill="#181818" points="1108,403.4824,1118,407.4824,1108,411.4824,1112,407.4824" style="stroke:#181818;stroke-width:1.0;"/><line style="stroke:#181818;stroke-width:1.0;" x1="1052" x2="1114" y1="407.4824" y2="407.4824"/><text fill="#000000" font-family="sans-serif" font-size="13" lengthAdjust="spacing" textLength="44" x="1059" y="402.2197">create()</text><rect fill="#E3E3E3" height="32.6211" rx="2.5" ry="2.5" style="stroke:#181818;stroke-width:0.5;" width="92" x="1120" y="384.1914"/><text fill="#000000" font-family="sans-serif" font-size="14" lengthAdjust="spacing" textLength="78" x="1127" y="406.2988">taskListDTO</text><path d="M923,434.8125 L996,434.8125 L996,444.1035 L986,454.1035 L923,454.1035 L923,434.8125 " fill="#EEEEEE" style="stroke:#000000;stroke-width:1.5;"/><rect fill="none" height="169.7852" style="stroke:#000000;stroke-width:1.5;" width="379" x="923" y="434.8125"/><text fill="#000000" font-family="sans-serif" font-size="13" font-weight="bold" lengthAdjust="spacing" textLength="28" x="938" y="449.8408">loop</text><text fill="#000000" font-family="sans-serif" font-size="11" font-weight="bold" lengthAdjust="spacing" textLength="196" x="1011" y="448.6826">[for each task in collaboratorTasks]</text><polygon fill="#181818" points="975,473.3945,965,477.3945,975,481.3945,971,477.3945" style="stroke:#181818;stroke-width:1.0;"/><line style="stroke:#181818;stroke-width:1.0;" x1="969" x2="1041" y1="477.3945" y2="477.3945"/><text fill="#000000" font-family="sans-serif" font-size="13" lengthAdjust="spacing" textLength="26" x="981" y="472.1318">get()</text><line style="stroke:#181818;stroke-width:1.0;" x1="1052" x2="1099" y1="503.6855" y2="503.6855"/><line style="stroke:#181818;stroke-width:1.0;" x1="1099" x2="1099" y1="503.6855" y2="516.6855"/><line style="stroke:#181818;stroke-width:1.0;" x1="1058" x2="1099" y1="516.6855" y2="516.6855"/><polygon fill="#181818" points="1068,512.6855,1058,516.6855,1068,520.6855,1064,516.6855" style="stroke:#181818;stroke-width:1.0;"/><text fill="#000000" font-family="sans-serif" font-size="13" lengthAdjust="spacing" textLength="70" x="1064" y="498.4229">toDTO(task)</text><polygon fill="#181818" points="1210,548.9766,1220,552.9766,1210,556.9766,1214,552.9766" style="stroke:#181818;stroke-width:1.0;"/><line style="stroke:#181818;stroke-width:1.0;stroke-dasharray:2.0,2.0;" x1="1052" x2="1216" y1="552.9766" y2="552.9766"/><text fill="#000000" font-family="sans-serif" font-size="13" lengthAdjust="spacing" textLength="69" x="1059" y="547.7139">create(task)</text><rect fill="#E3E3E3" height="32.6211" rx="2.5" ry="2.5" style="stroke:#181818;stroke-width:0.5;" width="70" x="1222" y="529.6855"/><text fill="#000000" font-family="sans-serif" font-size="14" lengthAdjust="spacing" textLength="56" x="1229" y="551.793">taskDTO</text><polygon fill="#181818" points="1154,592.5977,1164,596.5977,1154,600.5977,1158,596.5977" style="stroke:#181818;stroke-width:1.0;"/><line style="stroke:#181818;stroke-width:1.0;" x1="1052" x2="1160" y1="596.5977" y2="596.5977"/><text fill="#000000" font-family="sans-serif" font-size="13" lengthAdjust="spacing" textLength="80" x="1059" y="591.335">add(taskDTO)</text><polygon fill="#181818" points="593,655.8887,583,659.8887,593,663.8887,589,659.8887" style="stroke:#181818;stroke-width:1.0;"/><line style="stroke:#181818;stroke-width:1.0;stroke-dasharray:2.0,2.0;" x1="587" x2="1041" y1="659.8887" y2="659.8887"/><text fill="#000000" font-family="sans-serif" font-size="13" lengthAdjust="spacing" textLength="72" x="599" y="654.626">taskListDTO</text><polygon fill="#181818" points="11,694.1797,1,698.1797,11,702.1797,7,698.1797" style="stroke:#181818;stroke-width:1.0;"/><line style="stroke:#181818;stroke-width:1.0;stroke-dasharray:2.0,2.0;" x1="5" x2="576" y1="698.1797" y2="698.1797"/><text fill="#000000" font-family="sans-serif" font-size="13" lengthAdjust="spacing" textLength="72" x="17" y="692.917">taskListDTO</text><!--SRC=[fLJ1Yjim4BtxAuOzsKlp0sOfx6PfBmw5nCTUfhBYY2YIaIPR0lduZcJ7SJPsrb0TZD6yUM_UZ2I_LwP1XmSuM6F5pjc31797cVW-qg3OOoqtTD8Id1I4fjP3WDzXPVygKyCMjPS9BmwG4gf1G_2KBwtnHqqb-htdVt9MQ-cU03qiotLnYoP6hMLZlIBhJlblKzvinApoTNsVL2XFRVGJOmYii6awoM8rdljU_khI-UyUqeT3D85kBRv72v13BLk3FwnRiZ_yOnromMafkKN4dszGM87w7Kd2LZaMvB_XffV2cghTtP0B3VM4TFHPBtTTA4XzXApOmR1JEtjiuASaY7N0rZeOLf8a8pIyjBLD14iKEmXMnt5XHQ_icGTmjVns2XwlHhFf_BxgCC5HX3JLH9r1CqWNpyyv22UP9isIQQrFQQ_hdDkkIRhOdhVJ9lOslOm_-vBfflXvkXTXCPX3bFyolP8pv2uQOIopHMOnNmPTh78WoqS-lMEVQ5XFplTi756isZaowunHtXzFK6R4wsEjU5WdDLhKrMjG-IzxGVFMtWFAmK3cz2m7hAgqUvAo1xTeWkfyFZyulLtrtQCsU1ixklv-lYmMOwY1cVWo9Vy0]--></g></svg>