<?xml version="1.0" encoding="us-ascii" standalone="no"?><svg xmlns="http://www.w3.org/2000/svg" xmlns:xlink="http://www.w3.org/1999/xlink" contentStyleType="text/css" height="1730px" preserveAspectRatio="none" style="width:2052px;height:1730px;background:#FFFFFF;" version="1.1" viewBox="0 0 2052 1730" width="2052px" zoomAndPan="magnify"><defs/><g><rect fill="#FFFFFF" height="1535.377" style="stroke:#181818;stroke-width:1.0;" width="10" x="42" y="93.6211"/><rect fill="#FFFFFF" height="1261.7578" style="stroke:#181818;stroke-width:1.0;" width="10" x="516" y="116.9121"/><rect fill="#FFFFFF" height="93.873" style="stroke:#181818;stroke-width:1.0;" width="10" x="516" y="1409.9609"/><rect fill="#FFFFFF" height="93.873" style="stroke:#181818;stroke-width:1.0;" width="10" x="516" y="1535.125"/><rect fill="#FFFFFF" height="233.0371" style="stroke:#181818;stroke-width:1.0;" width="10" x="773" y="158.2031"/><rect fill="#FFFFFF" height="90.543" style="stroke:#181818;stroke-width:1.0;" width="10" x="778" y="262.4063"/><rect fill="#FFFFFF" height="93.873" style="stroke:#181818;stroke-width:1.0;" width="10" x="773" y="422.5313"/><rect fill="#FFFFFF" height="93.873" style="stroke:#181818;stroke-width:1.0;" width="10" x="773" y="547.6953"/><rect fill="#FFFFFF" height="93.873" style="stroke:#181818;stroke-width:1.0;" width="10" x="773" y="672.8594"/><rect fill="#FFFFFF" height="549.3555" style="stroke:#181818;stroke-width:1.0;" width="10" x="773" y="798.0234"/><rect fill="#FFFFFF" height="62.582" style="stroke:#181818;stroke-width:1.0;" width="10" x="773" y="1566.416"/><rect fill="#FFFFFF" height="31.291" style="stroke:#181818;stroke-width:1.0;" width="10" x="980" y="191.8242"/><rect fill="#FFFFFF" height="31.291" style="stroke:#181818;stroke-width:1.0;" width="10" x="1087" y="453.8223"/><rect fill="#FFFFFF" height="31.291" style="stroke:#181818;stroke-width:1.0;" width="10" x="1087" y="578.9863"/><rect fill="#FFFFFF" height="170.4941" style="stroke:#181818;stroke-width:1.0;" width="10" x="1376" y="855.6055"/><rect fill="#FFFFFF" height="42.291" style="stroke:#181818;stroke-width:1.0;" width="10" x="1381" y="945.5176"/><rect fill="#FFFFFF" height="31.291" style="stroke:#181818;stroke-width:1.0;" width="10" x="1376" y="1597.707"/><rect fill="#FFFFFF" height="31.291" style="stroke:#181818;stroke-width:1.0;" width="10" x="1585" y="704.1504"/><rect fill="#FFFFFF" height="196.7461" style="stroke:#181818;stroke-width:1.0;" width="10" x="1685" y="1441.252"/><rect fill="#FFFFFF" height="258.6973" style="stroke:#181818;stroke-width:1.0;" width="10" x="1768" y="1057.3906"/><rect fill="#FFFFFF" height="36.291" style="stroke:#181818;stroke-width:1.0;" width="10" x="1773" y="1197.8848"/><rect fill="none" height="50.582" style="stroke:#000000;stroke-width:1.5;" width="758" x="689.5" y="813.0234"/><rect fill="none" height="169.7852" style="stroke:#000000;stroke-width:1.5;" width="397" x="1649" y="1116.0117"/><line style="stroke:#181818;stroke-width:0.5;stroke-dasharray:5.0,5.0;" x1="47" x2="47" y1="83.6211" y2="1646.998"/><line style="stroke:#181818;stroke-width:0.5;stroke-dasharray:5.0,5.0;" x1="520.5" x2="520.5" y1="83.6211" y2="1646.998"/><line style="stroke:#181818;stroke-width:0.5;stroke-dasharray:5.0,5.0;" x1="777.5" x2="777.5" y1="156.7227" y2="1646.998"/><line style="stroke:#181818;stroke-width:0.5;stroke-dasharray:5.0,5.0;" x1="984.5" x2="984.5" y1="83.6211" y2="1646.998"/><line style="stroke:#181818;stroke-width:0.5;stroke-dasharray:5.0,5.0;" x1="1091.5" x2="1091.5" y1="83.6211" y2="1646.998"/><line style="stroke:#181818;stroke-width:0.5;stroke-dasharray:5.0,5.0;" x1="1232.5" x2="1232.5" y1="83.6211" y2="1646.998"/><line style="stroke:#181818;stroke-width:0.5;stroke-dasharray:5.0,5.0;" x1="1380.5" x2="1380.5" y1="83.6211" y2="1646.998"/><line style="stroke:#181818;stroke-width:0.5;stroke-dasharray:5.0,5.0;" x1="1590" x2="1590" y1="83.6211" y2="1646.998"/><line style="stroke:#181818;stroke-width:0.5;stroke-dasharray:5.0,5.0;" x1="1690" x2="1690" y1="902.416" y2="1646.998"/><line style="stroke:#181818;stroke-width:0.5;stroke-dasharray:5.0,5.0;" x1="1773" x2="1773" y1="83.6211" y2="1646.998"/><line style="stroke:#181818;stroke-width:0.5;stroke-dasharray:5.0,5.0;" x1="1910" x2="1910" y1="1097.2012" y2="1646.998"/><line style="stroke:#181818;stroke-width:0.5;stroke-dasharray:5.0,5.0;" x1="2001" x2="2001" y1="1242.6953" y2="1646.998"/><text fill="#000000" font-family="sans-serif" font-size="14" lengthAdjust="spacing" textLength="78" x="5" y="80.1074">Collaborator</text><ellipse cx="47" cy="13.5" fill="#E3E3E3" rx="8" ry="8" style="stroke:#181818;stroke-width:0.5;"/><path d="M47,21.5 L47,48.5 M34,29.5 L60,29.5 M47,48.5 L34,63.5 M47,48.5 L60,63.5 " fill="none" style="stroke:#181818;stroke-width:0.5;"/><text fill="#000000" font-family="sans-serif" font-size="14" lengthAdjust="spacing" textLength="78" x="5" y="1661.1055">Collaborator</text><ellipse cx="47" cy="1673.1191" fill="#E3E3E3" rx="8" ry="8" style="stroke:#181818;stroke-width:0.5;"/><path d="M47,1681.1191 L47,1708.1191 M34,1689.1191 L60,1689.1191 M47,1708.1191 L34,1723.1191 M47,1708.1191 L60,1723.1191 " fill="none" style="stroke:#181818;stroke-width:0.5;"/><rect fill="#E3E3E3" height="32.6211" rx="2.5" ry="2.5" style="stroke:#181818;stroke-width:0.5;" width="107" x="467.5" y="50"/><text fill="#000000" font-family="sans-serif" font-size="14" lengthAdjust="spacing" textLength="93" x="474.5" y="72.1074">:RecordTaskUI</text><rect fill="#E3E3E3" height="32.6211" rx="2.5" ry="2.5" style="stroke:#181818;stroke-width:0.5;" width="107" x="467.5" y="1645.998"/><text fill="#000000" font-family="sans-serif" font-size="14" lengthAdjust="spacing" textLength="93" x="474.5" y="1668.1055">:RecordTaskUI</text><rect fill="#E3E3E3" height="32.6211" rx="2.5" ry="2.5" style="stroke:#181818;stroke-width:0.5;" width="157" x="699.5" y="1645.998"/><text fill="#000000" font-family="sans-serif" font-size="14" lengthAdjust="spacing" textLength="143" x="706.5" y="1668.1055">:RecordTaskController</text><rect fill="#E3E3E3" height="32.6211" rx="2.5" ry="2.5" style="stroke:#181818;stroke-width:0.5;" width="97" x="936.5" y="50"/><text fill="#000000" font-family="sans-serif" font-size="14" lengthAdjust="spacing" textLength="83" x="943.5" y="72.1074">:Repositories</text><rect fill="#E3E3E3" height="32.6211" rx="2.5" ry="2.5" style="stroke:#181818;stroke-width:0.5;" width="97" x="936.5" y="1645.998"/><text fill="#000000" font-family="sans-serif" font-size="14" lengthAdjust="spacing" textLength="83" x="943.5" y="1668.1055">:Repositories</text><rect fill="#E3E3E3" height="51.2422" rx="2.5" ry="2.5" style="stroke:#181818;stroke-width:0.5;" width="97" x="1043.5" y="31.3789"/><text fill="#000000" font-family="sans-serif" font-size="14" lengthAdjust="spacing" textLength="74" x="1055" y="53.4863">repositories</text><text fill="#000000" font-family="sans-serif" font-size="14" lengthAdjust="spacing" textLength="83" x="1050.5" y="72.1074">:Repositories</text><rect fill="#E3E3E3" height="51.2422" rx="2.5" ry="2.5" style="stroke:#181818;stroke-width:0.5;" width="97" x="1043.5" y="1645.998"/><text fill="#000000" font-family="sans-serif" font-size="14" lengthAdjust="spacing" textLength="74" x="1055" y="1668.1055">repositories</text><text fill="#000000" font-family="sans-serif" font-size="14" lengthAdjust="spacing" textLength="83" x="1050.5" y="1686.7266">:Repositories</text><rect fill="#E3E3E3" height="51.2422" rx="2.5" ry="2.5" style="stroke:#181818;stroke-width:0.5;" width="164" x="1150.5" y="31.3789"/><text fill="#000000" font-family="sans-serif" font-size="14" lengthAdjust="spacing" textLength="138" x="1163.5" y="53.4863">collaboratorrepository</text><text fill="#000000" font-family="sans-serif" font-size="14" lengthAdjust="spacing" textLength="150" x="1157.5" y="72.1074">:CollaboratorRepository</text><rect fill="#E3E3E3" height="51.2422" rx="2.5" ry="2.5" style="stroke:#181818;stroke-width:0.5;" width="164" x="1150.5" y="1645.998"/><text fill="#000000" font-family="sans-serif" font-size="14" lengthAdjust="spacing" textLength="138" x="1163.5" y="1668.1055">collaboratorrepository</text><text fill="#000000" font-family="sans-serif" font-size="14" lengthAdjust="spacing" textLength="150" x="1157.5" y="1686.7266">:CollaboratorRepository</text><rect fill="#E3E3E3" height="51.2422" rx="2.5" ry="2.5" style="stroke:#181818;stroke-width:0.5;" width="113" x="1324.5" y="31.3789"/><text fill="#000000" font-family="sans-serif" font-size="14" lengthAdjust="spacing" textLength="98" x="1332" y="53.4863">taskRepository:</text><text fill="#000000" font-family="sans-serif" font-size="14" lengthAdjust="spacing" textLength="99" x="1331.5" y="72.1074">TaskRepository</text><rect fill="#E3E3E3" height="51.2422" rx="2.5" ry="2.5" style="stroke:#181818;stroke-width:0.5;" width="113" x="1324.5" y="1645.998"/><text fill="#000000" font-family="sans-serif" font-size="14" lengthAdjust="spacing" textLength="98" x="1332" y="1668.1055">taskRepository:</text><text fill="#000000" font-family="sans-serif" font-size="14" lengthAdjust="spacing" textLength="99" x="1331.5" y="1686.7266">TaskRepository</text><rect fill="#E3E3E3" height="51.2422" rx="2.5" ry="2.5" style="stroke:#181818;stroke-width:0.5;" width="118" x="1531" y="31.3789"/><text fill="#000000" font-family="sans-serif" font-size="14" lengthAdjust="spacing" textLength="103" x="1538.5" y="53.4863">teamRepository:</text><text fill="#000000" font-family="sans-serif" font-size="14" lengthAdjust="spacing" textLength="104" x="1538" y="72.1074">TeamRepository</text><rect fill="#E3E3E3" height="51.2422" rx="2.5" ry="2.5" style="stroke:#181818;stroke-width:0.5;" width="118" x="1531" y="1645.998"/><text fill="#000000" font-family="sans-serif" font-size="14" lengthAdjust="spacing" textLength="103" x="1538.5" y="1668.1055">teamRepository:</text><text fill="#000000" font-family="sans-serif" font-size="14" lengthAdjust="spacing" textLength="104" x="1538" y="1686.7266">TeamRepository</text><rect fill="#E3E3E3" height="32.6211" rx="2.5" ry="2.5" style="stroke:#181818;stroke-width:0.5;" width="62" x="1659" y="1645.998"/><text fill="#000000" font-family="sans-serif" font-size="14" lengthAdjust="spacing" textLength="48" x="1666" y="1668.1055">taskList</text><rect fill="#E3E3E3" height="32.6211" rx="2.5" ry="2.5" style="stroke:#181818;stroke-width:0.5;" width="84" x="1731" y="50"/><text fill="#000000" font-family="sans-serif" font-size="14" lengthAdjust="spacing" textLength="70" x="1738" y="72.1074">ListMapper</text><rect fill="#E3E3E3" height="32.6211" rx="2.5" ry="2.5" style="stroke:#181818;stroke-width:0.5;" width="84" x="1731" y="1645.998"/><text fill="#000000" font-family="sans-serif" font-size="14" lengthAdjust="spacing" textLength="70" x="1738" y="1668.1055">ListMapper</text><rect fill="#E3E3E3" height="32.6211" rx="2.5" ry="2.5" style="stroke:#181818;stroke-width:0.5;" width="92" x="1864" y="1645.998"/><text fill="#000000" font-family="sans-serif" font-size="14" lengthAdjust="spacing" textLength="78" x="1871" y="1668.1055">taskListDTO</text><rect fill="#E3E3E3" height="32.6211" rx="2.5" ry="2.5" style="stroke:#181818;stroke-width:0.5;" width="70" x="1966" y="1645.998"/><text fill="#000000" font-family="sans-serif" font-size="14" lengthAdjust="spacing" textLength="56" x="1973" y="1668.1055">taskDTO</text><rect fill="#FFFFFF" height="1535.377" style="stroke:#181818;stroke-width:1.0;" width="10" x="42" y="93.6211"/><rect fill="#FFFFFF" height="1261.7578" style="stroke:#181818;stroke-width:1.0;" width="10" x="516" y="116.9121"/><rect fill="#FFFFFF" height="93.873" style="stroke:#181818;stroke-width:1.0;" width="10" x="516" y="1409.9609"/><rect fill="#FFFFFF" height="93.873" style="stroke:#181818;stroke-width:1.0;" width="10" x="516" y="1535.125"/><rect fill="#FFFFFF" height="233.0371" style="stroke:#181818;stroke-width:1.0;" width="10" x="773" y="158.2031"/><rect fill="#FFFFFF" height="90.543" style="stroke:#181818;stroke-width:1.0;" width="10" x="778" y="262.4063"/><rect fill="#FFFFFF" height="93.873" style="stroke:#181818;stroke-width:1.0;" width="10" x="773" y="422.5313"/><rect fill="#FFFFFF" height="93.873" style="stroke:#181818;stroke-width:1.0;" width="10" x="773" y="547.6953"/><rect fill="#FFFFFF" height="93.873" style="stroke:#181818;stroke-width:1.0;" width="10" x="773" y="672.8594"/><rect fill="#FFFFFF" height="549.3555" style="stroke:#181818;stroke-width:1.0;" width="10" x="773" y="798.0234"/><rect fill="#FFFFFF" height="62.582" style="stroke:#181818;stroke-width:1.0;" width="10" x="773" y="1566.416"/><rect fill="#FFFFFF" height="31.291" style="stroke:#181818;stroke-width:1.0;" width="10" x="980" y="191.8242"/><rect fill="#FFFFFF" height="31.291" style="stroke:#181818;stroke-width:1.0;" width="10" x="1087" y="453.8223"/><rect fill="#FFFFFF" height="31.291" style="stroke:#181818;stroke-width:1.0;" width="10" x="1087" y="578.9863"/><rect fill="#FFFFFF" height="170.4941" style="stroke:#181818;stroke-width:1.0;" width="10" x="1376" y="855.6055"/><rect fill="#FFFFFF" height="42.291" style="stroke:#181818;stroke-width:1.0;" width="10" x="1381" y="945.5176"/><rect fill="#FFFFFF" height="31.291" style="stroke:#181818;stroke-width:1.0;" width="10" x="1376" y="1597.707"/><rect fill="#FFFFFF" height="31.291" style="stroke:#181818;stroke-width:1.0;" width="10" x="1585" y="704.1504"/><rect fill="#FFFFFF" height="196.7461" style="stroke:#181818;stroke-width:1.0;" width="10" x="1685" y="1441.252"/><rect fill="#FFFFFF" height="258.6973" style="stroke:#181818;stroke-width:1.0;" width="10" x="1768" y="1057.3906"/><rect fill="#FFFFFF" height="36.291" style="stroke:#181818;stroke-width:1.0;" width="10" x="1773" y="1197.8848"/><polygon fill="#181818" points="504,112.9121,514,116.9121,504,120.9121,508,116.9121" style="stroke:#181818;stroke-width:1.0;"/><line style="stroke:#181818;stroke-width:1.0;" x1="52" x2="510" y1="116.9121" y2="116.9121"/><text fill="#000000" font-family="sans-serif" font-size="13" font-weight="bold" lengthAdjust="spacing" textLength="7" x="59" y="111.6494">1</text><text fill="#000000" font-family="sans-serif" font-size="13" lengthAdjust="spacing" textLength="367" x="70" y="111.6494">asks to consult the tasks assigned to them between two dates.</text><polygon fill="#181818" points="687.5,144.2031,697.5,148.2031,687.5,152.2031,691.5,148.2031" style="stroke:#181818;stroke-width:1.0;"/><line style="stroke:#181818;stroke-width:1.0;" x1="526" x2="693.5" y1="148.2031" y2="148.2031"/><text fill="#000000" font-family="sans-serif" font-size="13" font-weight="bold" lengthAdjust="spacing" textLength="7" x="533" y="142.9404">2</text><text fill="#000000" font-family="sans-serif" font-size="13" lengthAdjust="spacing" textLength="36" x="544" y="142.9404">create</text><rect fill="#E3E3E3" height="32.6211" rx="2.5" ry="2.5" style="stroke:#181818;stroke-width:0.5;" width="157" x="699.5" y="124.9121"/><text fill="#000000" font-family="sans-serif" font-size="14" lengthAdjust="spacing" textLength="143" x="706.5" y="147.0195">:RecordTaskController</text><polygon fill="#181818" points="968,187.8242,978,191.8242,968,195.8242,972,191.8242" style="stroke:#181818;stroke-width:1.0;"/><line style="stroke:#181818;stroke-width:1.0;" x1="783" x2="974" y1="191.8242" y2="191.8242"/><text fill="#000000" font-family="sans-serif" font-size="13" font-weight="bold" lengthAdjust="spacing" textLength="7" x="790" y="186.5615">3</text><text fill="#000000" font-family="sans-serif" font-size="13" lengthAdjust="spacing" textLength="75" x="801" y="186.5615">getInstance()</text><polygon fill="#181818" points="794,219.1152,784,223.1152,794,227.1152,790,223.1152" style="stroke:#181818;stroke-width:1.0;"/><line style="stroke:#181818;stroke-width:1.0;stroke-dasharray:2.0,2.0;" x1="788" x2="984" y1="223.1152" y2="223.1152"/><text fill="#000000" font-family="sans-serif" font-size="13" font-weight="bold" lengthAdjust="spacing" textLength="7" x="800" y="217.8525">4</text><text fill="#000000" font-family="sans-serif" font-size="13" lengthAdjust="spacing" textLength="67" x="811" y="217.8525">repositories</text><line style="stroke:#181818;stroke-width:1.0;" x1="783" x2="830" y1="249.4063" y2="249.4063"/><line style="stroke:#181818;stroke-width:1.0;" x1="830" x2="830" y1="249.4063" y2="262.4063"/><line style="stroke:#181818;stroke-width:1.0;" x1="789" x2="830" y1="262.4063" y2="262.4063"/><polygon fill="#181818" points="799,258.4063,789,262.4063,799,266.4063,795,262.4063" style="stroke:#181818;stroke-width:1.0;"/><text fill="#000000" font-family="sans-serif" font-size="13" font-weight="bold" lengthAdjust="spacing" textLength="7" x="795" y="244.1436">5</text><text fill="#000000" font-family="sans-serif" font-size="13" lengthAdjust="spacing" textLength="172" x="806" y="244.1436">getCollaboratorFromSession()</text><rect fill="none" height="43.252" style="stroke:#000000;stroke-width:1.5;" width="163" x="696.5" y="275.4063"/><path d="M696.5,275.4063 L758.5,275.4063 L758.5,284.4063 L748.5,294.4063 L696.5,294.4063 L696.5,275.4063 " fill="#EEEEEE" style="stroke:#000000;stroke-width:2.0;"/><text fill="#000000" font-family="sans-serif" font-size="13" font-weight="bold" lengthAdjust="spacing" textLength="17" x="709.5" y="291.4346">ref</text><text fill="#000000" font-family="sans-serif" font-size="12" lengthAdjust="spacing" textLength="90" x="733" y="311.3555">Get Collaborator</text><line style="stroke:#181818;stroke-width:1.0;stroke-dasharray:2.0,2.0;" x1="788" x2="830" y1="351.9492" y2="351.9492"/><line style="stroke:#181818;stroke-width:1.0;stroke-dasharray:2.0,2.0;" x1="830" x2="830" y1="351.9492" y2="364.9492"/><line style="stroke:#181818;stroke-width:1.0;stroke-dasharray:2.0,2.0;" x1="783" x2="830" y1="364.9492" y2="364.9492"/><polygon fill="#181818" points="793,360.9492,783,364.9492,793,368.9492,789,364.9492" style="stroke:#181818;stroke-width:1.0;"/><text fill="#000000" font-family="sans-serif" font-size="13" font-weight="bold" lengthAdjust="spacing" textLength="7" x="795" y="346.6865">6</text><text fill="#000000" font-family="sans-serif" font-size="13" lengthAdjust="spacing" textLength="67" x="806" y="346.6865">collaborator</text><polygon fill="#181818" points="537,387.2402,527,391.2402,537,395.2402,533,391.2402" style="stroke:#181818;stroke-width:1.0;"/><line style="stroke:#181818;stroke-width:1.0;stroke-dasharray:2.0,2.0;" x1="531" x2="777" y1="391.2402" y2="391.2402"/><text fill="#000000" font-family="sans-serif" font-size="13" font-weight="bold" lengthAdjust="spacing" textLength="7" x="543" y="385.9775">7</text><text fill="#000000" font-family="sans-serif" font-size="13" lengthAdjust="spacing" textLength="67" x="554" y="385.9775">collaborator</text><polygon fill="#181818" points="761,418.5313,771,422.5313,761,426.5313,765,422.5313" style="stroke:#181818;stroke-width:1.0;"/><line style="stroke:#181818;stroke-width:1.0;" x1="526" x2="767" y1="422.5313" y2="422.5313"/><text fill="#000000" font-family="sans-serif" font-size="13" font-weight="bold" lengthAdjust="spacing" textLength="7" x="533" y="417.2686">8</text><text fill="#000000" font-family="sans-serif" font-size="13" lengthAdjust="spacing" textLength="120" x="544" y="417.2686">getTeamRepository()</text><polygon fill="#181818" points="1075,449.8223,1085,453.8223,1075,457.8223,1079,453.8223" style="stroke:#181818;stroke-width:1.0;"/><line style="stroke:#181818;stroke-width:1.0;" x1="783" x2="1081" y1="453.8223" y2="453.8223"/><text fill="#000000" font-family="sans-serif" font-size="13" font-weight="bold" lengthAdjust="spacing" textLength="7" x="790" y="448.5596">9</text><text fill="#000000" font-family="sans-serif" font-size="13" lengthAdjust="spacing" textLength="120" x="801" y="448.5596">getTeamRepository()</text><polygon fill="#181818" points="794,481.1133,784,485.1133,794,489.1133,790,485.1133" style="stroke:#181818;stroke-width:1.0;"/><line style="stroke:#181818;stroke-width:1.0;stroke-dasharray:2.0,2.0;" x1="788" x2="1091" y1="485.1133" y2="485.1133"/><text fill="#000000" font-family="sans-serif" font-size="13" font-weight="bold" lengthAdjust="spacing" textLength="14" x="800" y="479.8506">10</text><text fill="#000000" font-family="sans-serif" font-size="13" lengthAdjust="spacing" textLength="91" x="818" y="479.8506">teamRepository</text><polygon fill="#181818" points="537,512.4043,527,516.4043,537,520.4043,533,516.4043" style="stroke:#181818;stroke-width:1.0;"/><line style="stroke:#181818;stroke-width:1.0;stroke-dasharray:2.0,2.0;" x1="531" x2="777" y1="516.4043" y2="516.4043"/><text fill="#000000" font-family="sans-serif" font-size="13" font-weight="bold" lengthAdjust="spacing" textLength="14" x="543" y="511.1416">11</text><text fill="#000000" font-family="sans-serif" font-size="13" lengthAdjust="spacing" textLength="91" x="561" y="511.1416">teamRepository</text><polygon fill="#181818" points="761,543.6953,771,547.6953,761,551.6953,765,547.6953" style="stroke:#181818;stroke-width:1.0;"/><line style="stroke:#181818;stroke-width:1.0;" x1="526" x2="767" y1="547.6953" y2="547.6953"/><text fill="#000000" font-family="sans-serif" font-size="13" font-weight="bold" lengthAdjust="spacing" textLength="14" x="533" y="542.4326">12</text><text fill="#000000" font-family="sans-serif" font-size="13" lengthAdjust="spacing" textLength="116" x="551" y="542.4326">getTaskRepository()</text><polygon fill="#181818" points="1075,574.9863,1085,578.9863,1075,582.9863,1079,578.9863" style="stroke:#181818;stroke-width:1.0;"/><line style="stroke:#181818;stroke-width:1.0;" x1="783" x2="1081" y1="578.9863" y2="578.9863"/><text fill="#000000" font-family="sans-serif" font-size="13" font-weight="bold" lengthAdjust="spacing" textLength="14" x="790" y="573.7236">13</text><text fill="#000000" font-family="sans-serif" font-size="13" lengthAdjust="spacing" textLength="116" x="808" y="573.7236">getTaskRepository()</text><polygon fill="#181818" points="794,606.2773,784,610.2773,794,614.2773,790,610.2773" style="stroke:#181818;stroke-width:1.0;"/><line style="stroke:#181818;stroke-width:1.0;stroke-dasharray:2.0,2.0;" x1="788" x2="1091" y1="610.2773" y2="610.2773"/><text fill="#000000" font-family="sans-serif" font-size="13" font-weight="bold" lengthAdjust="spacing" textLength="14" x="800" y="605.0146">14</text><text fill="#000000" font-family="sans-serif" font-size="13" lengthAdjust="spacing" textLength="87" x="818" y="605.0146">taskRepository</text><polygon fill="#181818" points="537,637.5684,527,641.5684,537,645.5684,533,641.5684" style="stroke:#181818;stroke-width:1.0;"/><line style="stroke:#181818;stroke-width:1.0;stroke-dasharray:2.0,2.0;" x1="531" x2="777" y1="641.5684" y2="641.5684"/><text fill="#000000" font-family="sans-serif" font-size="13" font-weight="bold" lengthAdjust="spacing" textLength="14" x="543" y="636.3057">15</text><text fill="#000000" font-family="sans-serif" font-size="13" lengthAdjust="spacing" textLength="87" x="561" y="636.3057">taskRepository</text><polygon fill="#181818" points="761,668.8594,771,672.8594,761,676.8594,765,672.8594" style="stroke:#181818;stroke-width:1.0;"/><line style="stroke:#181818;stroke-width:1.0;" x1="526" x2="767" y1="672.8594" y2="672.8594"/><text fill="#000000" font-family="sans-serif" font-size="13" font-weight="bold" lengthAdjust="spacing" textLength="14" x="533" y="667.5967">16</text><text fill="#000000" font-family="sans-serif" font-size="13" lengthAdjust="spacing" textLength="210" x="551" y="667.5967">getTeamByCollaborator(collaborator)</text><polygon fill="#181818" points="1573,700.1504,1583,704.1504,1573,708.1504,1577,704.1504" style="stroke:#181818;stroke-width:1.0;"/><line style="stroke:#181818;stroke-width:1.0;" x1="783" x2="1579" y1="704.1504" y2="704.1504"/><text fill="#000000" font-family="sans-serif" font-size="13" font-weight="bold" lengthAdjust="spacing" textLength="14" x="790" y="698.8877">17</text><text fill="#000000" font-family="sans-serif" font-size="13" lengthAdjust="spacing" textLength="210" x="808" y="698.8877">getTeamByCollaborator(collaborator)</text><polygon fill="#181818" points="794,731.4414,784,735.4414,794,739.4414,790,735.4414" style="stroke:#181818;stroke-width:1.0;"/><line style="stroke:#181818;stroke-width:1.0;stroke-dasharray:2.0,2.0;" x1="788" x2="1589" y1="735.4414" y2="735.4414"/><text fill="#000000" font-family="sans-serif" font-size="13" font-weight="bold" lengthAdjust="spacing" textLength="14" x="800" y="730.1787">18</text><text fill="#000000" font-family="sans-serif" font-size="13" lengthAdjust="spacing" textLength="29" x="818" y="730.1787">team</text><polygon fill="#181818" points="537,762.7324,527,766.7324,537,770.7324,533,766.7324" style="stroke:#181818;stroke-width:1.0;"/><line style="stroke:#181818;stroke-width:1.0;stroke-dasharray:2.0,2.0;" x1="531" x2="777" y1="766.7324" y2="766.7324"/><text fill="#000000" font-family="sans-serif" font-size="13" font-weight="bold" lengthAdjust="spacing" textLength="14" x="543" y="761.4697">19</text><text fill="#000000" font-family="sans-serif" font-size="13" lengthAdjust="spacing" textLength="29" x="561" y="761.4697">team</text><polygon fill="#181818" points="761,794.0234,771,798.0234,761,802.0234,765,798.0234" style="stroke:#181818;stroke-width:1.0;"/><line style="stroke:#181818;stroke-width:1.0;" x1="526" x2="767" y1="798.0234" y2="798.0234"/><text fill="#000000" font-family="sans-serif" font-size="13" font-weight="bold" lengthAdjust="spacing" textLength="14" x="533" y="792.7607">20</text><text fill="#000000" font-family="sans-serif" font-size="13" lengthAdjust="spacing" textLength="167" x="551" y="792.7607">getTaskByTeam(Team team)</text><path d="M689.5,813.0234 L762.5,813.0234 L762.5,822.3145 L752.5,832.3145 L689.5,832.3145 L689.5,813.0234 " fill="#EEEEEE" style="stroke:#000000;stroke-width:1.5;"/><rect fill="none" height="50.582" style="stroke:#000000;stroke-width:1.5;" width="758" x="689.5" y="813.0234"/><text fill="#000000" font-family="sans-serif" font-size="13" font-weight="bold" lengthAdjust="spacing" textLength="28" x="704.5" y="828.0518">loop</text><text fill="#000000" font-family="sans-serif" font-size="11" font-weight="bold" lengthAdjust="spacing" textLength="80" x="777.5" y="826.8936">[for each task]</text><polygon fill="#181818" points="1364,851.6055,1374,855.6055,1364,859.6055,1368,855.6055" style="stroke:#181818;stroke-width:1.0;"/><line style="stroke:#181818;stroke-width:1.0;" x1="783" x2="1370" y1="855.6055" y2="855.6055"/><text fill="#000000" font-family="sans-serif" font-size="13" font-weight="bold" lengthAdjust="spacing" textLength="14" x="790" y="850.3428">21</text><text fill="#000000" font-family="sans-serif" font-size="13" lengthAdjust="spacing" textLength="167" x="808" y="850.3428">getTaskByTeam(Team team)</text><polygon fill="#181818" points="1647,889.8965,1657,893.8965,1647,897.8965,1651,893.8965" style="stroke:#181818;stroke-width:1.0;"/><line style="stroke:#181818;stroke-width:1.0;" x1="1386" x2="1653" y1="893.8965" y2="893.8965"/><text fill="#000000" font-family="sans-serif" font-size="13" font-weight="bold" lengthAdjust="spacing" textLength="14" x="1393" y="888.6338">22</text><text fill="#000000" font-family="sans-serif" font-size="13" lengthAdjust="spacing" textLength="44" x="1411" y="888.6338">create()</text><rect fill="#E3E3E3" height="32.6211" rx="2.5" ry="2.5" style="stroke:#181818;stroke-width:0.5;" width="62" x="1659" y="870.6055"/><text fill="#000000" font-family="sans-serif" font-size="14" lengthAdjust="spacing" textLength="48" x="1666" y="892.7129">taskList</text><line style="stroke:#181818;stroke-width:1.0;" x1="1386" x2="1433" y1="932.5176" y2="932.5176"/><line style="stroke:#181818;stroke-width:1.0;" x1="1433" x2="1433" y1="932.5176" y2="945.5176"/><line style="stroke:#181818;stroke-width:1.0;" x1="1392" x2="1433" y1="945.5176" y2="945.5176"/><polygon fill="#181818" points="1402,941.5176,1392,945.5176,1402,949.5176,1398,945.5176" style="stroke:#181818;stroke-width:1.0;"/><text fill="#000000" font-family="sans-serif" font-size="13" font-weight="bold" lengthAdjust="spacing" textLength="14" x="1398" y="927.2549">23</text><text fill="#000000" font-family="sans-serif" font-size="13" lengthAdjust="spacing" textLength="167" x="1416" y="927.2549">filterTasksByStatus(taskList)</text><line style="stroke:#181818;stroke-width:1.0;stroke-dasharray:2.0,2.0;" x1="1391" x2="1433" y1="986.8086" y2="986.8086"/><line style="stroke:#181818;stroke-width:1.0;stroke-dasharray:2.0,2.0;" x1="1433" x2="1433" y1="986.8086" y2="999.8086"/><line style="stroke:#181818;stroke-width:1.0;stroke-dasharray:2.0,2.0;" x1="1386" x2="1433" y1="999.8086" y2="999.8086"/><polygon fill="#181818" points="1396,995.8086,1386,999.8086,1396,1003.8086,1392,999.8086" style="stroke:#181818;stroke-width:1.0;"/><text fill="#000000" font-family="sans-serif" font-size="13" font-weight="bold" lengthAdjust="spacing" textLength="14" x="1398" y="981.5459">24</text><text fill="#000000" font-family="sans-serif" font-size="13" lengthAdjust="spacing" textLength="102" x="1416" y="981.5459">collaboratorTasks</text><polygon fill="#181818" points="794,1022.0996,784,1026.0996,794,1030.0996,790,1026.0996" style="stroke:#181818;stroke-width:1.0;"/><line style="stroke:#181818;stroke-width:1.0;stroke-dasharray:2.0,2.0;" x1="788" x2="1380" y1="1026.0996" y2="1026.0996"/><text fill="#000000" font-family="sans-serif" font-size="13" font-weight="bold" lengthAdjust="spacing" textLength="14" x="800" y="1020.8369">25</text><text fill="#000000" font-family="sans-serif" font-size="13" lengthAdjust="spacing" textLength="102" x="818" y="1020.8369">collaboratorTasks</text><polygon fill="#181818" points="1756,1053.3906,1766,1057.3906,1756,1061.3906,1760,1057.3906" style="stroke:#181818;stroke-width:1.0;"/><line style="stroke:#181818;stroke-width:1.0;" x1="783" x2="1762" y1="1057.3906" y2="1057.3906"/><text fill="#000000" font-family="sans-serif" font-size="13" font-weight="bold" lengthAdjust="spacing" textLength="14" x="790" y="1052.1279">26</text><text fill="#000000" font-family="sans-serif" font-size="13" lengthAdjust="spacing" textLength="147" x="808" y="1052.1279">toDTO(collaboratorTasks)</text><polygon fill="#181818" points="1852,1084.6816,1862,1088.6816,1852,1092.6816,1856,1088.6816" style="stroke:#181818;stroke-width:1.0;"/><line style="stroke:#181818;stroke-width:1.0;" x1="1778" x2="1858" y1="1088.6816" y2="1088.6816"/><text fill="#000000" font-family="sans-serif" font-size="13" font-weight="bold" lengthAdjust="spacing" textLength="14" x="1785" y="1083.4189">27</text><text fill="#000000" font-family="sans-serif" font-size="13" lengthAdjust="spacing" textLength="44" x="1803" y="1083.4189">create()</text><rect fill="#E3E3E3" height="32.6211" rx="2.5" ry="2.5" style="stroke:#181818;stroke-width:0.5;" width="92" x="1864" y="1065.3906"/><text fill="#000000" font-family="sans-serif" font-size="14" lengthAdjust="spacing" textLength="78" x="1871" y="1087.498">taskListDTO</text><path d="M1649,1116.0117 L1722,1116.0117 L1722,1125.3027 L1712,1135.3027 L1649,1135.3027 L1649,1116.0117 " fill="#EEEEEE" style="stroke:#000000;stroke-width:1.5;"/><rect fill="none" height="169.7852" style="stroke:#000000;stroke-width:1.5;" width="397" x="1649" y="1116.0117"/><text fill="#000000" font-family="sans-serif" font-size="13" font-weight="bold" lengthAdjust="spacing" textLength="28" x="1664" y="1131.04">loop</text><text fill="#000000" font-family="sans-serif" font-size="11" font-weight="bold" lengthAdjust="spacing" textLength="196" x="1737" y="1129.8818">[for each task in collaboratorTasks]</text><polygon fill="#181818" points="1701,1154.5938,1691,1158.5938,1701,1162.5938,1697,1158.5938" style="stroke:#181818;stroke-width:1.0;"/><line style="stroke:#181818;stroke-width:1.0;" x1="1695" x2="1767" y1="1158.5938" y2="1158.5938"/><text fill="#000000" font-family="sans-serif" font-size="13" font-weight="bold" lengthAdjust="spacing" textLength="14" x="1707" y="1153.3311">28</text><text fill="#000000" font-family="sans-serif" font-size="13" lengthAdjust="spacing" textLength="26" x="1725" y="1153.3311">get()</text><line style="stroke:#181818;stroke-width:1.0;" x1="1778" x2="1825" y1="1184.8848" y2="1184.8848"/><line style="stroke:#181818;stroke-width:1.0;" x1="1825" x2="1825" y1="1184.8848" y2="1197.8848"/><line style="stroke:#181818;stroke-width:1.0;" x1="1784" x2="1825" y1="1197.8848" y2="1197.8848"/><polygon fill="#181818" points="1794,1193.8848,1784,1197.8848,1794,1201.8848,1790,1197.8848" style="stroke:#181818;stroke-width:1.0;"/><text fill="#000000" font-family="sans-serif" font-size="13" font-weight="bold" lengthAdjust="spacing" textLength="14" x="1790" y="1179.6221">29</text><text fill="#000000" font-family="sans-serif" font-size="13" lengthAdjust="spacing" textLength="70" x="1808" y="1179.6221">toDTO(task)</text><polygon fill="#181818" points="1954,1230.1758,1964,1234.1758,1954,1238.1758,1958,1234.1758" style="stroke:#181818;stroke-width:1.0;"/><line style="stroke:#181818;stroke-width:1.0;stroke-dasharray:2.0,2.0;" x1="1778" x2="1960" y1="1234.1758" y2="1234.1758"/><text fill="#000000" font-family="sans-serif" font-size="13" font-weight="bold" lengthAdjust="spacing" textLength="14" x="1785" y="1228.9131">30</text><text fill="#000000" font-family="sans-serif" font-size="13" lengthAdjust="spacing" textLength="69" x="1803" y="1228.9131">create(task)</text><rect fill="#E3E3E3" height="32.6211" rx="2.5" ry="2.5" style="stroke:#181818;stroke-width:0.5;" width="70" x="1966" y="1210.8848"/><text fill="#000000" font-family="sans-serif" font-size="14" lengthAdjust="spacing" textLength="56" x="1973" y="1232.9922">taskDTO</text><polygon fill="#181818" points="1898,1273.7969,1908,1277.7969,1898,1281.7969,1902,1277.7969" style="stroke:#181818;stroke-width:1.0;"/><line style="stroke:#181818;stroke-width:1.0;" x1="1778" x2="1904" y1="1277.7969" y2="1277.7969"/><text fill="#000000" font-family="sans-serif" font-size="13" font-weight="bold" lengthAdjust="spacing" textLength="14" x="1785" y="1272.5342">31</text><text fill="#000000" font-family="sans-serif" font-size="13" lengthAdjust="spacing" textLength="80" x="1803" y="1272.5342">add(taskDTO)</text><polygon fill="#181818" points="794,1312.0879,784,1316.0879,794,1320.0879,790,1316.0879" style="stroke:#181818;stroke-width:1.0;"/><line style="stroke:#181818;stroke-width:1.0;stroke-dasharray:2.0,2.0;" x1="788" x2="1772" y1="1316.0879" y2="1316.0879"/><text fill="#000000" font-family="sans-serif" font-size="13" font-weight="bold" lengthAdjust="spacing" textLength="14" x="800" y="1310.8252">32</text><text fill="#000000" font-family="sans-serif" font-size="13" lengthAdjust="spacing" textLength="72" x="818" y="1310.8252">taskListDTO</text><polygon fill="#181818" points="537,1343.3789,527,1347.3789,537,1351.3789,533,1347.3789" style="stroke:#181818;stroke-width:1.0;"/><line style="stroke:#181818;stroke-width:1.0;stroke-dasharray:2.0,2.0;" x1="531" x2="777" y1="1347.3789" y2="1347.3789"/><text fill="#000000" font-family="sans-serif" font-size="13" font-weight="bold" lengthAdjust="spacing" textLength="14" x="543" y="1342.1162">33</text><text fill="#000000" font-family="sans-serif" font-size="13" lengthAdjust="spacing" textLength="72" x="561" y="1342.1162">taskListDTO</text><polygon fill="#181818" points="63,1374.6699,53,1378.6699,63,1382.6699,59,1378.6699" style="stroke:#181818;stroke-width:1.0;"/><line style="stroke:#181818;stroke-width:1.0;stroke-dasharray:2.0,2.0;" x1="57" x2="520" y1="1378.6699" y2="1378.6699"/><text fill="#000000" font-family="sans-serif" font-size="13" font-weight="bold" lengthAdjust="spacing" textLength="14" x="69" y="1373.4072">34</text><text fill="#000000" font-family="sans-serif" font-size="13" lengthAdjust="spacing" textLength="422" x="87" y="1373.4072">shows list of tasks the collaborator is assigned to and asks to select one</text><polygon fill="#181818" points="504,1405.9609,514,1409.9609,504,1413.9609,508,1409.9609" style="stroke:#181818;stroke-width:1.0;"/><line style="stroke:#181818;stroke-width:1.0;" x1="52" x2="510" y1="1409.9609" y2="1409.9609"/><text fill="#000000" font-family="sans-serif" font-size="13" font-weight="bold" lengthAdjust="spacing" textLength="14" x="59" y="1404.6982">35</text><text fill="#000000" font-family="sans-serif" font-size="13" lengthAdjust="spacing" textLength="71" x="77" y="1404.6982">selects task</text><polygon fill="#181818" points="1673,1437.252,1683,1441.252,1673,1445.252,1677,1441.252" style="stroke:#181818;stroke-width:1.0;"/><line style="stroke:#181818;stroke-width:1.0;" x1="526" x2="1679" y1="1441.252" y2="1441.252"/><text fill="#000000" font-family="sans-serif" font-size="13" font-weight="bold" lengthAdjust="spacing" textLength="14" x="533" y="1435.9893">36</text><text fill="#000000" font-family="sans-serif" font-size="13" lengthAdjust="spacing" textLength="106" x="551" y="1435.9893">get(selectedindex)</text><polygon fill="#181818" points="537,1468.543,527,1472.543,537,1476.543,533,1472.543" style="stroke:#181818;stroke-width:1.0;"/><line style="stroke:#181818;stroke-width:1.0;stroke-dasharray:2.0,2.0;" x1="531" x2="1684" y1="1472.543" y2="1472.543"/><text fill="#000000" font-family="sans-serif" font-size="13" font-weight="bold" lengthAdjust="spacing" textLength="14" x="543" y="1467.2803">37</text><text fill="#000000" font-family="sans-serif" font-size="13" lengthAdjust="spacing" textLength="77" x="561" y="1467.2803">selectedTask</text><polygon fill="#181818" points="63,1499.834,53,1503.834,63,1507.834,59,1503.834" style="stroke:#181818;stroke-width:1.0;"/><line style="stroke:#181818;stroke-width:1.0;stroke-dasharray:2.0,2.0;" x1="57" x2="520" y1="1503.834" y2="1503.834"/><text fill="#000000" font-family="sans-serif" font-size="13" font-weight="bold" lengthAdjust="spacing" textLength="14" x="69" y="1498.5713">38</text><text fill="#000000" font-family="sans-serif" font-size="13" lengthAdjust="spacing" textLength="120" x="87" y="1498.5713">asks for confirmation</text><polygon fill="#181818" points="504,1531.125,514,1535.125,504,1539.125,508,1535.125" style="stroke:#181818;stroke-width:1.0;"/><line style="stroke:#181818;stroke-width:1.0;" x1="52" x2="510" y1="1535.125" y2="1535.125"/><text fill="#000000" font-family="sans-serif" font-size="13" font-weight="bold" lengthAdjust="spacing" textLength="14" x="59" y="1529.8623">39</text><text fill="#000000" font-family="sans-serif" font-size="13" lengthAdjust="spacing" textLength="49" x="77" y="1529.8623">confirms</text><polygon fill="#181818" points="761,1562.416,771,1566.416,761,1570.416,765,1566.416" style="stroke:#181818;stroke-width:1.0;"/><line style="stroke:#181818;stroke-width:1.0;" x1="526" x2="767" y1="1566.416" y2="1566.416"/><text fill="#000000" font-family="sans-serif" font-size="13" font-weight="bold" lengthAdjust="spacing" textLength="14" x="533" y="1561.1533">40</text><text fill="#000000" font-family="sans-serif" font-size="13" lengthAdjust="spacing" textLength="188" x="551" y="1561.1533">markTaskAsDone(selectedTask)</text><polygon fill="#181818" points="1364,1593.707,1374,1597.707,1364,1601.707,1368,1597.707" style="stroke:#181818;stroke-width:1.0;"/><line style="stroke:#181818;stroke-width:1.0;" x1="783" x2="1370" y1="1597.707" y2="1597.707"/><text fill="#000000" font-family="sans-serif" font-size="13" font-weight="bold" lengthAdjust="spacing" textLength="14" x="790" y="1592.4443">41</text><text fill="#000000" font-family="sans-serif" font-size="13" lengthAdjust="spacing" textLength="188" x="808" y="1592.4443">markTaskAsDone(selectedTask)</text><polygon fill="#181818" points="58,1624.998,48,1628.998,58,1632.998,54,1628.998" style="stroke:#181818;stroke-width:1.0;"/><line style="stroke:#181818;stroke-width:1.0;stroke-dasharray:2.0,2.0;" x1="52" x2="520" y1="1628.998" y2="1628.998"/><text fill="#000000" font-family="sans-serif" font-size="13" font-weight="bold" lengthAdjust="spacing" textLength="14" x="64" y="1623.7354">42</text><text fill="#000000" font-family="sans-serif" font-size="13" lengthAdjust="spacing" textLength="158" x="82" y="1623.7354">displays operation success</text><!--SRC=[jLVDRkCu3BxhAOXUcWwc-m0v392skui22NRHPcwzg3QJ274ahwHC9s-_bFmJoPOzJehHeOqbyYFvYQ94inUov9eVuA2aodPQ7H2iFY8pxKh9iptVugiz5GWQCylbjWW5p8xdwaF8BMnuOP0nVhHA7W_lg1cxtOaSOQEKVLS_6S-iqd3pg8g2lolDwUi6k875queHc1MPABcqS3D_mKpfVCtD_lkp5_d-F2ZngAJL18aLsEFwPTcJBPKHP4sWyJBjnEbLk738uLX51nfliW_mxtAnZZMo8AXM-qIwORHdkvMhBp66fMZE8lCtkOuclCvwqLL2VeYLeebAwS-4fQKmjbhjyEKMLhmiQqANgxJkq_gVMfr-zKNQPRVAtDwB7zoYtsm6zQ0FkFz6kmjpajqRi0eo9Ssni61tb8n-aXiZjX9pjqgp1tX7-u4emNueo0dK_766R0rHoh1R20PPkITZpkQSKlc_8nfhd3w7cSODQfGPVeKSJQP5QOMINm64t2Xzu0MyoNZ5OhQJ8gELQ3e_qaxxNvaozew53jnc6frdFaMxddtpqr- -a6-LM2JHHkLrewNqS78ED97gP66BzbaQEiiPpkuceFL7wr3gB5s5w4RAs_kQ6hTdvsDubOaSVuFR3TF-lwSsFF9_KL5zHKfW9Qza-lAzJmpARr0_KFTpR_Bu6os4aLs7WZA_FZrghizaPv_s9qY9Jz3R-kKhsM_swbmjgdIB2tudotuHNPEyxaARW1OX-aimNFOWmUx4LnDBnzT3YRcSX36wSpsweajr-51Epui4YHDjZFCvHcraWFqoYyQmEuHVY3pCJYfF7qvX2Pc59oLDqiHTQBQ0NZgVC1OPT8-cb9GpqKboDaxH458_qza4hjCKjsdtS7AXpzmV3pcv71HAbVHKrq3sTZuD1gi5FK9Xei6OKdgyzYw3QCOXEmFq46hUGNHw8fb6PF4oXuqeB6hdXNaulLfkZsRMl4yZFo8NUcWDN9WX7dIWtdH1MfHg9qPXHd4QWfShoWT5B-TP3sjWFvUh66cvgdWaZ9ZAyIsdzsx2_IIoJu0kOhLuTjzXNk2n0uuzxWC4_8q4JVr4di_gHkIENVG4gJq9IctTxmohZJWrNceRvAalWNupCwSMN7qOA0W9rARkcLpt56uaYBYFuZ9lEow31JNseEIvvmZCkZwgrw_DQoKJ5ugaKbMaceIfz30NCiUVTttDTL2MrWrPZJdq7N-Vtv0D7vLBQceaDu9wDzUEiH5UGryJWTOmPhYiEG0_aZVVWUkzytfXdeZXMHX88louBiS5zp8aNrpO44kvC6N1JmOKzVcU8Z37BADEXKszV3g5BC5gyEdQ_ly1]--></g></svg>