<?xml version="1.0" encoding="us-ascii" standalone="no"?><svg xmlns="http://www.w3.org/2000/svg" xmlns:xlink="http://www.w3.org/1999/xlink" contentStyleType="text/css" height="948px" preserveAspectRatio="none" style="width:2682px;height:948px;background:#FFFFFF;" version="1.1" viewBox="0 0 2682 948" width="2682px" zoomAndPan="magnify"><defs/><g><!--class ApplicationSession--><g id="elem_ApplicationSession"><rect codeLine="11" fill="#F1F1F1" height="85.2422" id="ApplicationSession" rx="2.5" ry="2.5" style="stroke:#181818;stroke-width:0.5;" width="151" x="2107" y="385"/><ellipse cx="2122" cy="401" fill="#ADD1B2" rx="11" ry="11" style="stroke:#181818;stroke-width:1.0;"/><path d="M2124.7656,396.875 Q2124.9219,396.6563 2125.1094,396.5469 Q2125.2969,396.4375 2125.5156,396.4375 Q2125.8906,396.4375 2126.125,396.7031 Q2126.3594,396.9531 2126.3594,397.5625 L2126.3594,399.0156 Q2126.3594,399.625 2126.125,399.8906 Q2125.8906,400.1563 2125.5156,400.1563 Q2125.1719,400.1563 2124.9688,399.9531 Q2124.7656,399.7656 2124.6563,399.25 Q2124.6094,398.8906 2124.4219,398.7031 Q2124.0938,398.3281 2123.4844,398.1094 Q2122.875,397.8906 2122.25,397.8906 Q2121.4844,397.8906 2120.8438,398.2188 Q2120.2188,398.5469 2119.7188,399.2969 Q2119.2344,400.0469 2119.2344,401.0781 L2119.2344,402.1719 Q2119.2344,403.4063 2120.125,404.2344 Q2121.0156,405.0469 2122.6094,405.0469 Q2123.5469,405.0469 2124.2031,404.7969 Q2124.5938,404.6406 2125.0156,404.2031 Q2125.2813,403.9375 2125.4219,403.8594 Q2125.5781,403.7813 2125.7813,403.7813 Q2126.1094,403.7813 2126.3594,404.0469 Q2126.625,404.2969 2126.625,404.6406 Q2126.625,404.9844 2126.2813,405.3906 Q2125.7813,405.9688 2124.9844,406.2969 Q2123.9063,406.75 2122.6094,406.75 Q2121.0938,406.75 2119.8906,406.125 Q2118.9063,405.625 2118.2188,404.5625 Q2117.5313,403.4844 2117.5313,402.2031 L2117.5313,401.0469 Q2117.5313,399.7188 2118.1406,398.5781 Q2118.7656,397.4219 2119.8594,396.8125 Q2120.9531,396.1875 2122.1875,396.1875 Q2122.9219,396.1875 2123.5625,396.3594 Q2124.2188,396.5156 2124.7656,396.875 Z " fill="#000000"/><text fill="#000000" font-family="sans-serif" font-size="14" lengthAdjust="spacing" textLength="119" x="2136" y="406.7969">ApplicationSession</text><line style="stroke:#181818;stroke-width:0.5;" x1="2108" x2="2257" y1="417" y2="417"/><line style="stroke:#181818;stroke-width:0.5;" x1="2108" x2="2257" y1="425" y2="425"/><text fill="#000000" font-family="sans-serif" font-size="14" lengthAdjust="spacing" textLength="128" x="2113" y="444.1074">+static getInstance()</text><text fill="#000000" font-family="sans-serif" font-size="14" lengthAdjust="spacing" textLength="136" x="2113" y="462.7285">+getCurrentSession()</text></g><!--class UserSession--><g id="elem_UserSession"><rect codeLine="17" fill="#F1F1F1" height="66.6211" id="UserSession" rx="2.5" ry="2.5" style="stroke:#181818;stroke-width:0.5;" width="113" x="2258" y="726"/><ellipse cx="2273.9" cy="742" fill="#ADD1B2" rx="11" ry="11" style="stroke:#181818;stroke-width:1.0;"/><path d="M2276.6656,737.875 Q2276.8219,737.6563 2277.0094,737.5469 Q2277.1969,737.4375 2277.4156,737.4375 Q2277.7906,737.4375 2278.025,737.7031 Q2278.2594,737.9531 2278.2594,738.5625 L2278.2594,740.0156 Q2278.2594,740.625 2278.025,740.8906 Q2277.7906,741.1563 2277.4156,741.1563 Q2277.0719,741.1563 2276.8688,740.9531 Q2276.6656,740.7656 2276.5563,740.25 Q2276.5094,739.8906 2276.3219,739.7031 Q2275.9938,739.3281 2275.3844,739.1094 Q2274.775,738.8906 2274.15,738.8906 Q2273.3844,738.8906 2272.7438,739.2188 Q2272.1188,739.5469 2271.6188,740.2969 Q2271.1344,741.0469 2271.1344,742.0781 L2271.1344,743.1719 Q2271.1344,744.4063 2272.025,745.2344 Q2272.9156,746.0469 2274.5094,746.0469 Q2275.4469,746.0469 2276.1031,745.7969 Q2276.4938,745.6406 2276.9156,745.2031 Q2277.1813,744.9375 2277.3219,744.8594 Q2277.4781,744.7813 2277.6813,744.7813 Q2278.0094,744.7813 2278.2594,745.0469 Q2278.525,745.2969 2278.525,745.6406 Q2278.525,745.9844 2278.1813,746.3906 Q2277.6813,746.9688 2276.8844,747.2969 Q2275.8063,747.75 2274.5094,747.75 Q2272.9938,747.75 2271.7906,747.125 Q2270.8063,746.625 2270.1188,745.5625 Q2269.4313,744.4844 2269.4313,743.2031 L2269.4313,742.0469 Q2269.4313,740.7188 2270.0406,739.5781 Q2270.6656,738.4219 2271.7594,737.8125 Q2272.8531,737.1875 2274.0875,737.1875 Q2274.8219,737.1875 2275.4625,737.3594 Q2276.1188,737.5156 2276.6656,737.875 Z " fill="#000000"/><text fill="#000000" font-family="sans-serif" font-size="14" lengthAdjust="spacing" textLength="79" x="2288.1" y="747.7969">UserSession</text><line style="stroke:#181818;stroke-width:0.5;" x1="2259" x2="2370" y1="758" y2="758"/><line style="stroke:#181818;stroke-width:0.5;" x1="2259" x2="2370" y1="766" y2="766"/><text fill="#000000" font-family="sans-serif" font-size="14" lengthAdjust="spacing" textLength="101" x="2264" y="785.1074">+getUserEmail()</text></g><!--class Collaborator--><g id="elem_Collaborator"><rect codeLine="22" fill="#F1F1F1" height="234.2109" id="Collaborator" rx="2.5" ry="2.5" style="stroke:#181818;stroke-width:0.5;" width="157" x="1002" y="25.5"/><ellipse cx="1038.15" cy="41.5" fill="#ADD1B2" rx="11" ry="11" style="stroke:#181818;stroke-width:1.0;"/><path d="M1040.9156,37.375 Q1041.0719,37.1563 1041.2594,37.0469 Q1041.4469,36.9375 1041.6656,36.9375 Q1042.0406,36.9375 1042.275,37.2031 Q1042.5094,37.4531 1042.5094,38.0625 L1042.5094,39.5156 Q1042.5094,40.125 1042.275,40.3906 Q1042.0406,40.6563 1041.6656,40.6563 Q1041.3219,40.6563 1041.1188,40.4531 Q1040.9156,40.2656 1040.8063,39.75 Q1040.7594,39.3906 1040.5719,39.2031 Q1040.2438,38.8281 1039.6344,38.6094 Q1039.025,38.3906 1038.4,38.3906 Q1037.6344,38.3906 1036.9938,38.7188 Q1036.3688,39.0469 1035.8688,39.7969 Q1035.3844,40.5469 1035.3844,41.5781 L1035.3844,42.6719 Q1035.3844,43.9063 1036.275,44.7344 Q1037.1656,45.5469 1038.7594,45.5469 Q1039.6969,45.5469 1040.3531,45.2969 Q1040.7438,45.1406 1041.1656,44.7031 Q1041.4313,44.4375 1041.5719,44.3594 Q1041.7281,44.2813 1041.9313,44.2813 Q1042.2594,44.2813 1042.5094,44.5469 Q1042.775,44.7969 1042.775,45.1406 Q1042.775,45.4844 1042.4313,45.8906 Q1041.9313,46.4688 1041.1344,46.7969 Q1040.0563,47.25 1038.7594,47.25 Q1037.2438,47.25 1036.0406,46.625 Q1035.0563,46.125 1034.3688,45.0625 Q1033.6813,43.9844 1033.6813,42.7031 L1033.6813,41.5469 Q1033.6813,40.2188 1034.2906,39.0781 Q1034.9156,37.9219 1036.0094,37.3125 Q1037.1031,36.6875 1038.3375,36.6875 Q1039.0719,36.6875 1039.7125,36.8594 Q1040.3688,37.0156 1040.9156,37.375 Z " fill="#000000"/><text fill="#000000" font-family="sans-serif" font-size="14" lengthAdjust="spacing" textLength="78" x="1056.85" y="47.2969">Collaborator</text><line style="stroke:#181818;stroke-width:0.5;" x1="1003" x2="1158" y1="57.5" y2="57.5"/><text fill="#000000" font-family="sans-serif" font-size="14" lengthAdjust="spacing" textLength="85" x="1008" y="76.6074">-name: String</text><text fill="#000000" font-family="sans-serif" font-size="14" lengthAdjust="spacing" textLength="106" x="1008" y="95.2285">-birthdate: String</text><text fill="#000000" font-family="sans-serif" font-size="14" lengthAdjust="spacing" textLength="145" x="1008" y="113.8496">-admission date: String</text><text fill="#000000" font-family="sans-serif" font-size="14" lengthAdjust="spacing" textLength="101" x="1008" y="132.4707">-address: String</text><text fill="#000000" font-family="sans-serif" font-size="14" lengthAdjust="spacing" textLength="122" x="1008" y="151.0918">-mobile Contact: int</text><text fill="#000000" font-family="sans-serif" font-size="14" lengthAdjust="spacing" textLength="133" x="1008" y="169.7129">-email contact: String</text><text fill="#000000" font-family="sans-serif" font-size="14" lengthAdjust="spacing" textLength="134" x="1008" y="188.334">-taxpayer number: int</text><text fill="#000000" font-family="sans-serif" font-size="14" lengthAdjust="spacing" textLength="121" x="1008" y="206.9551">-ID doc type: String</text><text fill="#000000" font-family="sans-serif" font-size="14" lengthAdjust="spacing" textLength="93" x="1008" y="225.5762">-ID number: int</text><line style="stroke:#181818;stroke-width:0.5;" x1="1003" x2="1158" y1="233.0898" y2="233.0898"/><text fill="#000000" font-family="sans-serif" font-size="14" lengthAdjust="spacing" textLength="90" x="1008" y="252.1973">+addSkill(skill)</text></g><!--class CollaboratorRepository--><g id="elem_CollaboratorRepository"><rect codeLine="35" fill="#F1F1F1" height="364.5586" id="CollaboratorRepository" rx="2.5" ry="2.5" style="stroke:#181818;stroke-width:0.5;" width="369" x="1555" y="577"/><ellipse cx="1662.25" cy="593" fill="#ADD1B2" rx="11" ry="11" style="stroke:#181818;stroke-width:1.0;"/><path d="M1665.0156,588.875 Q1665.1719,588.6563 1665.3594,588.5469 Q1665.5469,588.4375 1665.7656,588.4375 Q1666.1406,588.4375 1666.375,588.7031 Q1666.6094,588.9531 1666.6094,589.5625 L1666.6094,591.0156 Q1666.6094,591.625 1666.375,591.8906 Q1666.1406,592.1563 1665.7656,592.1563 Q1665.4219,592.1563 1665.2188,591.9531 Q1665.0156,591.7656 1664.9063,591.25 Q1664.8594,590.8906 1664.6719,590.7031 Q1664.3438,590.3281 1663.7344,590.1094 Q1663.125,589.8906 1662.5,589.8906 Q1661.7344,589.8906 1661.0938,590.2188 Q1660.4688,590.5469 1659.9688,591.2969 Q1659.4844,592.0469 1659.4844,593.0781 L1659.4844,594.1719 Q1659.4844,595.4063 1660.375,596.2344 Q1661.2656,597.0469 1662.8594,597.0469 Q1663.7969,597.0469 1664.4531,596.7969 Q1664.8438,596.6406 1665.2656,596.2031 Q1665.5313,595.9375 1665.6719,595.8594 Q1665.8281,595.7813 1666.0313,595.7813 Q1666.3594,595.7813 1666.6094,596.0469 Q1666.875,596.2969 1666.875,596.6406 Q1666.875,596.9844 1666.5313,597.3906 Q1666.0313,597.9688 1665.2344,598.2969 Q1664.1563,598.75 1662.8594,598.75 Q1661.3438,598.75 1660.1406,598.125 Q1659.1563,597.625 1658.4688,596.5625 Q1657.7813,595.4844 1657.7813,594.2031 L1657.7813,593.0469 Q1657.7813,591.7188 1658.3906,590.5781 Q1659.0156,589.4219 1660.1094,588.8125 Q1661.2031,588.1875 1662.4375,588.1875 Q1663.1719,588.1875 1663.8125,588.3594 Q1664.4688,588.5156 1665.0156,588.875 Z " fill="#000000"/><text fill="#000000" font-family="sans-serif" font-size="14" lengthAdjust="spacing" textLength="146" x="1682.75" y="598.7969">CollaboratorRepository</text><line style="stroke:#181818;stroke-width:0.5;" x1="1556" x2="1923" y1="609" y2="609"/><text fill="#000000" font-family="sans-serif" font-size="14" lengthAdjust="spacing" textLength="207" x="1561" y="628.1074">-List&lt;Collaborator&gt; collaborators</text><line style="stroke:#181818;stroke-width:0.5;" x1="1556" x2="1923" y1="635.6211" y2="635.6211"/><text fill="#000000" font-family="sans-serif" font-size="14" lengthAdjust="spacing" textLength="350" x="1561" y="654.7285">+Optional&lt;Collaborator&gt; add(Collaborator collaborator)</text><text fill="#000000" font-family="sans-serif" font-size="14" lengthAdjust="spacing" textLength="307" x="1561" y="673.3496">+Collaborator getCollaboratorByID(int IDnumber)</text><text fill="#000000" font-family="sans-serif" font-size="14" lengthAdjust="spacing" textLength="258" x="1561" y="691.9707">+List&lt;Collaborator&gt; getCollaboratorList()</text><text fill="#000000" font-family="sans-serif" font-size="14" lengthAdjust="spacing" textLength="277" x="1561" y="710.5918">+addCollaborator(Collaborator collaborator)</text><text fill="#000000" font-family="sans-serif" font-size="14" lengthAdjust="spacing" textLength="290" x="1561" y="729.2129">+Optional&lt;Collaborator&gt; registerCollaborator(</text><text fill="#000000" font-family="sans-serif" font-size="14" lengthAdjust="spacing" textLength="84" x="1561" y="747.834">name: String,</text><text fill="#000000" font-family="sans-serif" font-size="14" lengthAdjust="spacing" textLength="105" x="1561" y="766.4551">birthdate: String,</text><text fill="#000000" font-family="sans-serif" font-size="14" lengthAdjust="spacing" textLength="140" x="1561" y="785.0762">admissiondate: String,</text><text fill="#000000" font-family="sans-serif" font-size="14" lengthAdjust="spacing" textLength="100" x="1561" y="803.6973">address: String,</text><text fill="#000000" font-family="sans-serif" font-size="14" lengthAdjust="spacing" textLength="68" x="1561" y="822.3184">mobile: int,</text><text fill="#000000" font-family="sans-serif" font-size="14" lengthAdjust="spacing" textLength="82" x="1561" y="840.9395">email: String,</text><text fill="#000000" font-family="sans-serif" font-size="14" lengthAdjust="spacing" textLength="81" x="1561" y="859.5605">taxpayer: int,</text><text fill="#000000" font-family="sans-serif" font-size="14" lengthAdjust="spacing" textLength="112" x="1561" y="878.1816">IDdoctype: String,</text><text fill="#000000" font-family="sans-serif" font-size="14" lengthAdjust="spacing" textLength="89" x="1561" y="896.8027">IDnumber: int)</text><text fill="#000000" font-family="sans-serif" font-size="14" lengthAdjust="spacing" textLength="357" x="1561" y="915.4238">+boolean validateCollaborator(Collaborator collaborator)</text><text fill="#000000" font-family="sans-serif" font-size="14" lengthAdjust="spacing" textLength="327" x="1561" y="934.0449">+void updateCollaborator(Collaborator collaborator)</text></g><!--class Repositories--><g id="elem_Repositories"><rect codeLine="46" fill="#F1F1F1" height="141.1055" id="Repositories" rx="2.5" ry="2.5" style="stroke:#181818;stroke-width:0.5;" width="378" x="1142.5" y="357"/><ellipse cx="1287.75" cy="373" fill="#ADD1B2" rx="11" ry="11" style="stroke:#181818;stroke-width:1.0;"/><path d="M1290.5156,368.875 Q1290.6719,368.6563 1290.8594,368.5469 Q1291.0469,368.4375 1291.2656,368.4375 Q1291.6406,368.4375 1291.875,368.7031 Q1292.1094,368.9531 1292.1094,369.5625 L1292.1094,371.0156 Q1292.1094,371.625 1291.875,371.8906 Q1291.6406,372.1563 1291.2656,372.1563 Q1290.9219,372.1563 1290.7188,371.9531 Q1290.5156,371.7656 1290.4063,371.25 Q1290.3594,370.8906 1290.1719,370.7031 Q1289.8438,370.3281 1289.2344,370.1094 Q1288.625,369.8906 1288,369.8906 Q1287.2344,369.8906 1286.5938,370.2188 Q1285.9688,370.5469 1285.4688,371.2969 Q1284.9844,372.0469 1284.9844,373.0781 L1284.9844,374.1719 Q1284.9844,375.4063 1285.875,376.2344 Q1286.7656,377.0469 1288.3594,377.0469 Q1289.2969,377.0469 1289.9531,376.7969 Q1290.3438,376.6406 1290.7656,376.2031 Q1291.0313,375.9375 1291.1719,375.8594 Q1291.3281,375.7813 1291.5313,375.7813 Q1291.8594,375.7813 1292.1094,376.0469 Q1292.375,376.2969 1292.375,376.6406 Q1292.375,376.9844 1292.0313,377.3906 Q1291.5313,377.9688 1290.7344,378.2969 Q1289.6563,378.75 1288.3594,378.75 Q1286.8438,378.75 1285.6406,378.125 Q1284.6563,377.625 1283.9688,376.5625 Q1283.2813,375.4844 1283.2813,374.2031 L1283.2813,373.0469 Q1283.2813,371.7188 1283.8906,370.5781 Q1284.5156,369.4219 1285.6094,368.8125 Q1286.7031,368.1875 1287.9375,368.1875 Q1288.6719,368.1875 1289.3125,368.3594 Q1289.9688,368.5156 1290.5156,368.875 Z " fill="#000000"/><text fill="#000000" font-family="sans-serif" font-size="14" lengthAdjust="spacing" textLength="79" x="1308.25" y="378.7969">Repositories</text><line style="stroke:#181818;stroke-width:0.5;" x1="1143.5" x2="1519.5" y1="389" y2="389"/><line style="stroke:#181818;stroke-width:0.5;" x1="1143.5" x2="1519.5" y1="397" y2="397"/><text fill="#000000" font-family="sans-serif" font-size="14" lengthAdjust="spacing" textLength="182" x="1148.5" y="416.1074">+getInstance() : Repositories</text><text fill="#000000" font-family="sans-serif" font-size="14" lengthAdjust="spacing" textLength="342" x="1148.5" y="434.7285">+getCollaboratorRepository() : CollaboratorRepository</text><text fill="#000000" font-family="sans-serif" font-size="14" lengthAdjust="spacing" textLength="258" x="1148.5" y="453.3496">+getTeamRepository() : TeamRepository</text><text fill="#000000" font-family="sans-serif" font-size="14" lengthAdjust="spacing" textLength="248" x="1148.5" y="471.9707">+getTaskRepository() : TaskRepository</text><text fill="#000000" font-family="sans-serif" font-size="14" lengthAdjust="spacing" textLength="366" x="1148.5" y="490.5918">+getAuthenticationRepository() : AuthenticationRepository</text></g><!--class RecordTaskController--><g id="elem_RecordTaskController"><rect codeLine="54" fill="#F1F1F1" height="271.4531" id="RecordTaskController" rx="2.5" ry="2.5" style="stroke:#181818;stroke-width:0.5;" width="1209" x="1466" y="7"/><ellipse cx="1996.75" cy="23" fill="#ADD1B2" rx="11" ry="11" style="stroke:#181818;stroke-width:1.0;"/><path d="M1999.5156,18.875 Q1999.6719,18.6563 1999.8594,18.5469 Q2000.0469,18.4375 2000.2656,18.4375 Q2000.6406,18.4375 2000.875,18.7031 Q2001.1094,18.9531 2001.1094,19.5625 L2001.1094,21.0156 Q2001.1094,21.625 2000.875,21.8906 Q2000.6406,22.1563 2000.2656,22.1563 Q1999.9219,22.1563 1999.7188,21.9531 Q1999.5156,21.7656 1999.4063,21.25 Q1999.3594,20.8906 1999.1719,20.7031 Q1998.8438,20.3281 1998.2344,20.1094 Q1997.625,19.8906 1997,19.8906 Q1996.2344,19.8906 1995.5938,20.2188 Q1994.9688,20.5469 1994.4688,21.2969 Q1993.9844,22.0469 1993.9844,23.0781 L1993.9844,24.1719 Q1993.9844,25.4063 1994.875,26.2344 Q1995.7656,27.0469 1997.3594,27.0469 Q1998.2969,27.0469 1998.9531,26.7969 Q1999.3438,26.6406 1999.7656,26.2031 Q2000.0313,25.9375 2000.1719,25.8594 Q2000.3281,25.7813 2000.5313,25.7813 Q2000.8594,25.7813 2001.1094,26.0469 Q2001.375,26.2969 2001.375,26.6406 Q2001.375,26.9844 2001.0313,27.3906 Q2000.5313,27.9688 1999.7344,28.2969 Q1998.6563,28.75 1997.3594,28.75 Q1995.8438,28.75 1994.6406,28.125 Q1993.6563,27.625 1992.9688,26.5625 Q1992.2813,25.4844 1992.2813,24.2031 L1992.2813,23.0469 Q1992.2813,21.7188 1992.8906,20.5781 Q1993.5156,19.4219 1994.6094,18.8125 Q1995.7031,18.1875 1996.9375,18.1875 Q1997.6719,18.1875 1998.3125,18.3594 Q1998.9688,18.5156 1999.5156,18.875 Z " fill="#000000"/><text fill="#000000" font-family="sans-serif" font-size="14" lengthAdjust="spacing" textLength="139" x="2017.25" y="28.7969">RecordTaskController</text><line style="stroke:#181818;stroke-width:0.5;" x1="1467" x2="2674" y1="39" y2="39"/><text fill="#000000" font-family="sans-serif" font-size="14" lengthAdjust="spacing" textLength="216" x="1472" y="58.1074">-teamRepository: TeamRepository</text><text fill="#000000" font-family="sans-serif" font-size="14" lengthAdjust="spacing" textLength="302" x="1472" y="76.7285">-collaboratorRepository: CollaboratorRepository</text><text fill="#000000" font-family="sans-serif" font-size="14" lengthAdjust="spacing" textLength="206" x="1472" y="95.3496">-taskRepository: TaskRepository</text><text fill="#000000" font-family="sans-serif" font-size="14" lengthAdjust="spacing" textLength="328" x="1472" y="113.9707">-authenticationRepository: AuthenticationRepository</text><line style="stroke:#181818;stroke-width:0.5;" x1="1467" x2="2674" y1="121.4844" y2="121.4844"/><text fill="#000000" font-family="sans-serif" font-size="14" lengthAdjust="spacing" textLength="1197" x="1472" y="140.5918">+RecordTaskController(TeamRepository teamRepository, CollaboratorRepository collaboratorRepository, TaskRepository taskRepository, AuthenticationRepository authenticationRepository)</text><text fill="#000000" font-family="sans-serif" font-size="14" lengthAdjust="spacing" textLength="250" x="1472" y="159.2129">+TeamRepository getTeamRepository()</text><text fill="#000000" font-family="sans-serif" font-size="14" lengthAdjust="spacing" textLength="334" x="1472" y="177.834">+CollaboratorRepository getCollaboratorRepository()</text><text fill="#000000" font-family="sans-serif" font-size="14" lengthAdjust="spacing" textLength="240" x="1472" y="196.4551">+TaskRepository getTaskRepository()</text><text fill="#000000" font-family="sans-serif" font-size="14" lengthAdjust="spacing" textLength="358" x="1472" y="215.0762">+AuthenticationRepository getAuthenticationRepository()</text><text fill="#000000" font-family="sans-serif" font-size="14" lengthAdjust="spacing" textLength="688" x="1472" y="233.6973">+List&lt;Task&gt; getTasksForCollaborator(Team team, LocalDate firstDate, LocalDate secondDate, String status)</text><text fill="#000000" font-family="sans-serif" font-size="14" lengthAdjust="spacing" textLength="281" x="1472" y="252.3184">+Collaborator getCollaboratorFromSession()</text><text fill="#000000" font-family="sans-serif" font-size="14" lengthAdjust="spacing" textLength="349" x="1472" y="270.9395">+Team getCollaboratorTeam(Collaborator collaborator)</text></g><!--class RecordTaskUI--><g id="elem_RecordTaskUI"><rect codeLine="69" fill="#F1F1F1" height="178.3477" id="RecordTaskUI" rx="2.5" ry="2.5" style="stroke:#181818;stroke-width:0.5;" width="207" x="1224" y="53.5"/><ellipse cx="1278.75" cy="69.5" fill="#ADD1B2" rx="11" ry="11" style="stroke:#181818;stroke-width:1.0;"/><path d="M1281.5156,65.375 Q1281.6719,65.1563 1281.8594,65.0469 Q1282.0469,64.9375 1282.2656,64.9375 Q1282.6406,64.9375 1282.875,65.2031 Q1283.1094,65.4531 1283.1094,66.0625 L1283.1094,67.5156 Q1283.1094,68.125 1282.875,68.3906 Q1282.6406,68.6563 1282.2656,68.6563 Q1281.9219,68.6563 1281.7188,68.4531 Q1281.5156,68.2656 1281.4063,67.75 Q1281.3594,67.3906 1281.1719,67.2031 Q1280.8438,66.8281 1280.2344,66.6094 Q1279.625,66.3906 1279,66.3906 Q1278.2344,66.3906 1277.5938,66.7188 Q1276.9688,67.0469 1276.4688,67.7969 Q1275.9844,68.5469 1275.9844,69.5781 L1275.9844,70.6719 Q1275.9844,71.9063 1276.875,72.7344 Q1277.7656,73.5469 1279.3594,73.5469 Q1280.2969,73.5469 1280.9531,73.2969 Q1281.3438,73.1406 1281.7656,72.7031 Q1282.0313,72.4375 1282.1719,72.3594 Q1282.3281,72.2813 1282.5313,72.2813 Q1282.8594,72.2813 1283.1094,72.5469 Q1283.375,72.7969 1283.375,73.1406 Q1283.375,73.4844 1283.0313,73.8906 Q1282.5313,74.4688 1281.7344,74.7969 Q1280.6563,75.25 1279.3594,75.25 Q1277.8438,75.25 1276.6406,74.625 Q1275.6563,74.125 1274.9688,73.0625 Q1274.2813,71.9844 1274.2813,70.7031 L1274.2813,69.5469 Q1274.2813,68.2188 1274.8906,67.0781 Q1275.5156,65.9219 1276.6094,65.3125 Q1277.7031,64.6875 1278.9375,64.6875 Q1279.6719,64.6875 1280.3125,64.8594 Q1280.9688,65.0156 1281.5156,65.375 Z " fill="#000000"/><text fill="#000000" font-family="sans-serif" font-size="14" lengthAdjust="spacing" textLength="89" x="1299.25" y="75.2969">RecordTaskUI</text><line style="stroke:#181818;stroke-width:0.5;" x1="1225" x2="1430" y1="85.5" y2="85.5"/><text fill="#000000" font-family="sans-serif" font-size="14" lengthAdjust="spacing" textLength="166" x="1230" y="104.6074">-collaborator: Collaborator</text><text fill="#000000" font-family="sans-serif" font-size="14" lengthAdjust="spacing" textLength="80" x="1230" y="123.2285">-team: Team</text><text fill="#000000" font-family="sans-serif" font-size="14" lengthAdjust="spacing" textLength="195" x="1230" y="141.8496">-collaboratorTasks: List&lt;Task&gt;</text><line style="stroke:#181818;stroke-width:0.5;" x1="1225" x2="1430" y1="149.3633" y2="149.3633"/><text fill="#000000" font-family="sans-serif" font-size="14" lengthAdjust="spacing" textLength="69" x="1230" y="168.4707">+void run()</text><text fill="#000000" font-family="sans-serif" font-size="14" lengthAdjust="spacing" textLength="126" x="1230" y="187.0918">+void requestData()</text><text fill="#000000" font-family="sans-serif" font-size="14" lengthAdjust="spacing" textLength="119" x="1230" y="205.7129">+void submitData()</text><text fill="#000000" font-family="sans-serif" font-size="14" lengthAdjust="spacing" textLength="177" x="1230" y="224.334">+List&lt;Task&gt; requestTasks()</text></g><!--class Team--><g id="elem_Team"><rect codeLine="79" fill="#F1F1F1" height="159.7266" id="Team" rx="2.5" ry="2.5" style="stroke:#181818;stroke-width:0.5;" width="262" x="640.5" y="62.5"/><ellipse cx="749.25" cy="78.5" fill="#ADD1B2" rx="11" ry="11" style="stroke:#181818;stroke-width:1.0;"/><path d="M752.0156,74.375 Q752.1719,74.1563 752.3594,74.0469 Q752.5469,73.9375 752.7656,73.9375 Q753.1406,73.9375 753.375,74.2031 Q753.6094,74.4531 753.6094,75.0625 L753.6094,76.5156 Q753.6094,77.125 753.375,77.3906 Q753.1406,77.6563 752.7656,77.6563 Q752.4219,77.6563 752.2188,77.4531 Q752.0156,77.2656 751.9063,76.75 Q751.8594,76.3906 751.6719,76.2031 Q751.3438,75.8281 750.7344,75.6094 Q750.125,75.3906 749.5,75.3906 Q748.7344,75.3906 748.0938,75.7188 Q747.4688,76.0469 746.9688,76.7969 Q746.4844,77.5469 746.4844,78.5781 L746.4844,79.6719 Q746.4844,80.9063 747.375,81.7344 Q748.2656,82.5469 749.8594,82.5469 Q750.7969,82.5469 751.4531,82.2969 Q751.8438,82.1406 752.2656,81.7031 Q752.5313,81.4375 752.6719,81.3594 Q752.8281,81.2813 753.0313,81.2813 Q753.3594,81.2813 753.6094,81.5469 Q753.875,81.7969 753.875,82.1406 Q753.875,82.4844 753.5313,82.8906 Q753.0313,83.4688 752.2344,83.7969 Q751.1563,84.25 749.8594,84.25 Q748.3438,84.25 747.1406,83.625 Q746.1563,83.125 745.4688,82.0625 Q744.7813,80.9844 744.7813,79.7031 L744.7813,78.5469 Q744.7813,77.2188 745.3906,76.0781 Q746.0156,74.9219 747.1094,74.3125 Q748.2031,73.6875 749.4375,73.6875 Q750.1719,73.6875 750.8125,73.8594 Q751.4688,74.0156 752.0156,74.375 Z " fill="#000000"/><text fill="#000000" font-family="sans-serif" font-size="14" lengthAdjust="spacing" textLength="36" x="769.75" y="84.2969">Team</text><line style="stroke:#181818;stroke-width:0.5;" x1="641.5" x2="901.5" y1="94.5" y2="94.5"/><text fill="#000000" font-family="sans-serif" font-size="14" lengthAdjust="spacing" textLength="211" x="646.5" y="113.6074">-collaborators: List&lt;Collaborator&gt;</text><text fill="#000000" font-family="sans-serif" font-size="14" lengthAdjust="spacing" textLength="72" x="646.5" y="132.2285">-teamID: int</text><line style="stroke:#181818;stroke-width:0.5;" x1="641.5" x2="901.5" y1="139.7422" y2="139.7422"/><text fill="#000000" font-family="sans-serif" font-size="14" lengthAdjust="spacing" textLength="250" x="646.5" y="158.8496">+boolean addCollaborator(collaborator)</text><text fill="#000000" font-family="sans-serif" font-size="14" lengthAdjust="spacing" textLength="168" x="646.5" y="177.4707">+boolean equals(Object o)</text><text fill="#000000" font-family="sans-serif" font-size="14" lengthAdjust="spacing" textLength="102" x="646.5" y="196.0918">+int hashCode()</text><text fill="#000000" font-family="sans-serif" font-size="14" lengthAdjust="spacing" textLength="92" x="646.5" y="214.7129">+Team clone()</text></g><!--class TaskRepository--><g id="elem_TaskRepository"><rect codeLine="88" fill="#F1F1F1" height="196.9688" id="TaskRepository" rx="2.5" ry="2.5" style="stroke:#181818;stroke-width:0.5;" width="795" x="7" y="661"/><ellipse cx="350.75" cy="677" fill="#ADD1B2" rx="11" ry="11" style="stroke:#181818;stroke-width:1.0;"/><path d="M353.5156,672.875 Q353.6719,672.6563 353.8594,672.5469 Q354.0469,672.4375 354.2656,672.4375 Q354.6406,672.4375 354.875,672.7031 Q355.1094,672.9531 355.1094,673.5625 L355.1094,675.0156 Q355.1094,675.625 354.875,675.8906 Q354.6406,676.1563 354.2656,676.1563 Q353.9219,676.1563 353.7188,675.9531 Q353.5156,675.7656 353.4063,675.25 Q353.3594,674.8906 353.1719,674.7031 Q352.8438,674.3281 352.2344,674.1094 Q351.625,673.8906 351,673.8906 Q350.2344,673.8906 349.5938,674.2188 Q348.9688,674.5469 348.4688,675.2969 Q347.9844,676.0469 347.9844,677.0781 L347.9844,678.1719 Q347.9844,679.4063 348.875,680.2344 Q349.7656,681.0469 351.3594,681.0469 Q352.2969,681.0469 352.9531,680.7969 Q353.3438,680.6406 353.7656,680.2031 Q354.0313,679.9375 354.1719,679.8594 Q354.3281,679.7813 354.5313,679.7813 Q354.8594,679.7813 355.1094,680.0469 Q355.375,680.2969 355.375,680.6406 Q355.375,680.9844 355.0313,681.3906 Q354.5313,681.9688 353.7344,682.2969 Q352.6563,682.75 351.3594,682.75 Q349.8438,682.75 348.6406,682.125 Q347.6563,681.625 346.9688,680.5625 Q346.2813,679.4844 346.2813,678.2031 L346.2813,677.0469 Q346.2813,675.7188 346.8906,674.5781 Q347.5156,673.4219 348.6094,672.8125 Q349.7031,672.1875 350.9375,672.1875 Q351.6719,672.1875 352.3125,672.3594 Q352.9688,672.5156 353.5156,672.875 Z " fill="#000000"/><text fill="#000000" font-family="sans-serif" font-size="14" lengthAdjust="spacing" textLength="99" x="371.25" y="682.7969">TaskRepository</text><line style="stroke:#181818;stroke-width:0.5;" x1="8" x2="801" y1="693" y2="693"/><text fill="#000000" font-family="sans-serif" font-size="14" lengthAdjust="spacing" textLength="111" x="13" y="712.1074">-List&lt;Task&gt; tasks</text><line style="stroke:#181818;stroke-width:0.5;" x1="8" x2="801" y1="719.6211" y2="719.6211"/><text fill="#000000" font-family="sans-serif" font-size="14" lengthAdjust="spacing" textLength="783" x="13" y="738.7285">+Optional&lt;Task&gt; createTask(String title, String description, String status, LocalDate startDate, String status, String duration)</text><text fill="#000000" font-family="sans-serif" font-size="14" lengthAdjust="spacing" textLength="189" x="13" y="757.3496">+boolean addTask(Task task)</text><text fill="#000000" font-family="sans-serif" font-size="14" lengthAdjust="spacing" textLength="214" x="13" y="775.9707">+boolean validateTask(Task task)</text><text fill="#000000" font-family="sans-serif" font-size="14" lengthAdjust="spacing" textLength="227" x="13" y="794.5918">+Task getTaskByTeam(Team team)</text><text fill="#000000" font-family="sans-serif" font-size="14" lengthAdjust="spacing" textLength="405" x="13" y="813.2129">+List&lt;Task&gt; filterTasksByStatus(List&lt;Task&gt; tasks, String status)</text><text fill="#000000" font-family="sans-serif" font-size="14" lengthAdjust="spacing" textLength="221" x="13" y="831.834">+void markTaskAsDone(Task task)</text><text fill="#000000" font-family="sans-serif" font-size="14" lengthAdjust="spacing" textLength="164" x="13" y="850.4551">+List&lt;Task&gt; getTaskList()</text></g><!--class Task--><g id="elem_Task"><rect codeLine="99" fill="#F1F1F1" height="234.2109" id="Task" rx="2.5" ry="2.5" style="stroke:#181818;stroke-width:0.5;" width="180" x="927.5" y="642.5"/><ellipse cx="997.75" cy="658.5" fill="#ADD1B2" rx="11" ry="11" style="stroke:#181818;stroke-width:1.0;"/><path d="M1000.5156,654.375 Q1000.6719,654.1563 1000.8594,654.0469 Q1001.0469,653.9375 1001.2656,653.9375 Q1001.6406,653.9375 1001.875,654.2031 Q1002.1094,654.4531 1002.1094,655.0625 L1002.1094,656.5156 Q1002.1094,657.125 1001.875,657.3906 Q1001.6406,657.6563 1001.2656,657.6563 Q1000.9219,657.6563 1000.7188,657.4531 Q1000.5156,657.2656 1000.4063,656.75 Q1000.3594,656.3906 1000.1719,656.2031 Q999.8438,655.8281 999.2344,655.6094 Q998.625,655.3906 998,655.3906 Q997.2344,655.3906 996.5938,655.7188 Q995.9688,656.0469 995.4688,656.7969 Q994.9844,657.5469 994.9844,658.5781 L994.9844,659.6719 Q994.9844,660.9063 995.875,661.7344 Q996.7656,662.5469 998.3594,662.5469 Q999.2969,662.5469 999.9531,662.2969 Q1000.3438,662.1406 1000.7656,661.7031 Q1001.0313,661.4375 1001.1719,661.3594 Q1001.3281,661.2813 1001.5313,661.2813 Q1001.8594,661.2813 1002.1094,661.5469 Q1002.375,661.7969 1002.375,662.1406 Q1002.375,662.4844 1002.0313,662.8906 Q1001.5313,663.4688 1000.7344,663.7969 Q999.6563,664.25 998.3594,664.25 Q996.8438,664.25 995.6406,663.625 Q994.6563,663.125 993.9688,662.0625 Q993.2813,660.9844 993.2813,659.7031 L993.2813,658.5469 Q993.2813,657.2188 993.8906,656.0781 Q994.5156,654.9219 995.6094,654.3125 Q996.7031,653.6875 997.9375,653.6875 Q998.6719,653.6875 999.3125,653.8594 Q999.9688,654.0156 1000.5156,654.375 Z " fill="#000000"/><text fill="#000000" font-family="sans-serif" font-size="14" lengthAdjust="spacing" textLength="31" x="1018.25" y="664.2969">Task</text><line style="stroke:#181818;stroke-width:0.5;" x1="928.5" x2="1106.5" y1="674.5" y2="674.5"/><text fill="#000000" font-family="sans-serif" font-size="14" lengthAdjust="spacing" textLength="72" x="933.5" y="693.6074">-title: String</text><text fill="#000000" font-family="sans-serif" font-size="14" lengthAdjust="spacing" textLength="119" x="933.5" y="712.2285">-description: String</text><text fill="#000000" font-family="sans-serif" font-size="14" lengthAdjust="spacing" textLength="88" x="933.5" y="730.8496">-status: String</text><text fill="#000000" font-family="sans-serif" font-size="14" lengthAdjust="spacing" textLength="135" x="933.5" y="749.4707">-startDate: LocalDate</text><text fill="#000000" font-family="sans-serif" font-size="14" lengthAdjust="spacing" textLength="102" x="933.5" y="768.0918">-duration: String</text><text fill="#000000" font-family="sans-serif" font-size="14" lengthAdjust="spacing" textLength="153" x="933.5" y="786.7129">-associatedTeam: Team</text><line style="stroke:#181818;stroke-width:0.5;" x1="928.5" x2="1106.5" y1="794.2266" y2="794.2266"/><text fill="#000000" font-family="sans-serif" font-size="14" lengthAdjust="spacing" textLength="164" x="933.5" y="813.334">+boolean addTeam(team)</text><text fill="#000000" font-family="sans-serif" font-size="14" lengthAdjust="spacing" textLength="168" x="933.5" y="831.9551">+boolean equals(Object o)</text><text fill="#000000" font-family="sans-serif" font-size="14" lengthAdjust="spacing" textLength="102" x="933.5" y="850.5762">+int hashCode()</text><text fill="#000000" font-family="sans-serif" font-size="14" lengthAdjust="spacing" textLength="87" x="933.5" y="869.1973">+Task clone()</text></g><!--class TeamRepository--><g id="elem_TeamRepository"><rect codeLine="112" fill="#F1F1F1" height="159.7266" id="TeamRepository" rx="2.5" ry="2.5" style="stroke:#181818;stroke-width:0.5;" width="377" x="1143" y="679.5"/><ellipse cx="1275.25" cy="695.5" fill="#ADD1B2" rx="11" ry="11" style="stroke:#181818;stroke-width:1.0;"/><path d="M1278.0156,691.375 Q1278.1719,691.1563 1278.3594,691.0469 Q1278.5469,690.9375 1278.7656,690.9375 Q1279.1406,690.9375 1279.375,691.2031 Q1279.6094,691.4531 1279.6094,692.0625 L1279.6094,693.5156 Q1279.6094,694.125 1279.375,694.3906 Q1279.1406,694.6563 1278.7656,694.6563 Q1278.4219,694.6563 1278.2188,694.4531 Q1278.0156,694.2656 1277.9063,693.75 Q1277.8594,693.3906 1277.6719,693.2031 Q1277.3438,692.8281 1276.7344,692.6094 Q1276.125,692.3906 1275.5,692.3906 Q1274.7344,692.3906 1274.0938,692.7188 Q1273.4688,693.0469 1272.9688,693.7969 Q1272.4844,694.5469 1272.4844,695.5781 L1272.4844,696.6719 Q1272.4844,697.9063 1273.375,698.7344 Q1274.2656,699.5469 1275.8594,699.5469 Q1276.7969,699.5469 1277.4531,699.2969 Q1277.8438,699.1406 1278.2656,698.7031 Q1278.5313,698.4375 1278.6719,698.3594 Q1278.8281,698.2813 1279.0313,698.2813 Q1279.3594,698.2813 1279.6094,698.5469 Q1279.875,698.7969 1279.875,699.1406 Q1279.875,699.4844 1279.5313,699.8906 Q1279.0313,700.4688 1278.2344,700.7969 Q1277.1563,701.25 1275.8594,701.25 Q1274.3438,701.25 1273.1406,700.625 Q1272.1563,700.125 1271.4688,699.0625 Q1270.7813,697.9844 1270.7813,696.7031 L1270.7813,695.5469 Q1270.7813,694.2188 1271.3906,693.0781 Q1272.0156,691.9219 1273.1094,691.3125 Q1274.2031,690.6875 1275.4375,690.6875 Q1276.1719,690.6875 1276.8125,690.8594 Q1277.4688,691.0156 1278.0156,691.375 Z " fill="#000000"/><text fill="#000000" font-family="sans-serif" font-size="14" lengthAdjust="spacing" textLength="104" x="1295.75" y="701.2969">TeamRepository</text><line style="stroke:#181818;stroke-width:0.5;" x1="1144" x2="1519" y1="711.5" y2="711.5"/><text fill="#000000" font-family="sans-serif" font-size="14" lengthAdjust="spacing" textLength="121" x="1149" y="730.6074">-List&lt;Team&gt; teams</text><line style="stroke:#181818;stroke-width:0.5;" x1="1144" x2="1519" y1="738.1211" y2="738.1211"/><text fill="#000000" font-family="sans-serif" font-size="14" lengthAdjust="spacing" textLength="319" x="1149" y="757.2285">+Optional&lt;Team&gt; createTeam(List&lt;Collaborator&gt;)</text><text fill="#000000" font-family="sans-serif" font-size="14" lengthAdjust="spacing" textLength="204" x="1149" y="775.8496">+boolean addTeam(Team team)</text><text fill="#000000" font-family="sans-serif" font-size="14" lengthAdjust="spacing" textLength="229" x="1149" y="794.4707">+boolean validateTeam(Team team)</text><text fill="#000000" font-family="sans-serif" font-size="14" lengthAdjust="spacing" textLength="365" x="1149" y="813.0918">+Team getTeamByCollaborator(Collaborator collaborator)</text><text fill="#000000" font-family="sans-serif" font-size="14" lengthAdjust="spacing" textLength="174" x="1149" y="831.7129">+List&lt;Team&gt; getTeamList()</text></g><!--link Team to Task--><g id="link_Team_Task"><path codeLine="121" d="M777.53,222.62 C785.48,327.09 798.5,498 798.5,498 C798.5,498 863.2087,574.9775 923.6187,646.8275 " fill="none" id="Team-to-Task" style="stroke:#181818;stroke-width:1.0;"/><polygon fill="#181818" points="927.48,651.42,924.7498,641.9571,924.2623,647.5929,918.6265,647.1055,927.48,651.42" style="stroke:#181818;stroke-width:1.0;"/><text fill="#000000" font-family="sans-serif" font-size="13" lengthAdjust="spacing" textLength="67" x="799.5" y="433.0283">assigned to</text></g><!--link Team to Collaborator--><g id="link_Team_Collaborator"><path codeLine="122" d="M902.54,142.5 C936.26,142.5 965.51,142.5 995.65,142.5 " fill="none" id="Team-to-Collaborator" style="stroke:#181818;stroke-width:1.0;"/><polygon fill="#181818" points="1001.65,142.5,992.65,138.5,996.65,142.5,992.65,146.5,1001.65,142.5" style="stroke:#181818;stroke-width:1.0;"/><text fill="#000000" font-family="sans-serif" font-size="13" lengthAdjust="spacing" textLength="63" x="920.75" y="135.5283">consists of</text></g><!--link Collaborator to RecordTaskUI--><g id="link_Collaborator_RecordTaskUI"><path codeLine="123" d="M1159.33,142.5 C1179.8,142.5 1196.17,142.5 1217.71,142.5 " fill="none" id="Collaborator-to-RecordTaskUI" style="stroke:#181818;stroke-width:1.0;"/><polygon fill="#181818" points="1223.71,142.5,1214.71,138.5,1218.71,142.5,1214.71,146.5,1223.71,142.5" style="stroke:#181818;stroke-width:1.0;"/><text fill="#000000" font-family="sans-serif" font-size="13" lengthAdjust="spacing" textLength="28" x="1177.5" y="135.5283">uses</text></g><!--link TaskRepository to Task--><g id="link_TaskRepository_Task"><path codeLine="124" d="M802.24,759.5 C848.59,759.5 885.87,759.5 921.29,759.5 " fill="none" id="TaskRepository-to-Task" style="stroke:#181818;stroke-width:1.0;"/><polygon fill="#181818" points="927.29,759.5,918.29,755.5,922.29,759.5,918.29,763.5,927.29,759.5" style="stroke:#181818;stroke-width:1.0;"/><text fill="#000000" font-family="sans-serif" font-size="13" lengthAdjust="spacing" textLength="89" x="820.25" y="752.5283">changes status</text></g><!--link TaskRepository to Task--><g id="link_TaskRepository_Task"><path codeLine="147" d="M802.23,779.33 C829.09,780.67 845.75,781.5 845.75,781.5 C845.75,781.5 883.75,781.5 883.75,781.5 C883.75,781.5 897.2295,779.2836 921.2495,775.3336 " fill="none" id="TaskRepository-to-Task-1" style="stroke:#181818;stroke-width:1.0;stroke-dasharray:7.0,7.0;"/><polygon fill="#181818" points="927.17,774.36,917.6402,771.8734,922.2363,775.1713,918.9383,779.7674,927.17,774.36" style="stroke:#181818;stroke-width:1.0;"/><text fill="#000000" font-family="sans-serif" font-size="13" lengthAdjust="spacing" textLength="36" x="846.75" y="777.5283">stores</text></g><!--link Repositories to Repositories--><g id="link_Repositories_Repositories"><path codeLine="126" d="M1520.66,410.09 C1541.81,413.37 1555.5,419.17 1555.5,427.5 C1555.5,435.83 1547.7391,440.7105 1526.5891,443.9905 " fill="none" id="Repositories-to-Repositories" style="stroke:#181818;stroke-width:1.0;"/><polygon fill="#181818" points="1520.66,444.91,1530.1667,447.4835,1525.6009,444.1437,1528.9407,439.578,1520.66,444.91" style="stroke:#181818;stroke-width:1.0;"/><text fill="#000000" font-family="sans-serif" font-size="13" lengthAdjust="spacing" textLength="49" x="1561.5" y="433.0283">instance</text></g><!--link ApplicationSession to ApplicationSession--><g id="link_ApplicationSession_ApplicationSession"><path codeLine="127" d="M2258.16,407.07 C2278,408.28 2293,415.09 2293,427.5 C2293,439.91 2283.9889,446.3548 2264.1489,447.5648 " fill="none" id="ApplicationSession-to-ApplicationSession" style="stroke:#181818;stroke-width:1.0;"/><polygon fill="#181818" points="2258.16,447.93,2267.3868,451.3747,2263.1507,447.6256,2266.8998,443.3895,2258.16,447.93" style="stroke:#181818;stroke-width:1.0;"/><text fill="#000000" font-family="sans-serif" font-size="13" lengthAdjust="spacing" textLength="49" x="2299" y="433.0283">instance</text></g><!--link RecordTaskUI to RecordTaskController--><g id="link_RecordTaskUI_RecordTaskController"><path codeLine="129" d="M1431.1,142.5 C1442.5,142.5 1448.13,142.5 1459.6,142.5 " fill="none" id="RecordTaskUI-to-RecordTaskController" style="stroke:#181818;stroke-width:1.0;stroke-dasharray:7.0,7.0;"/><polygon fill="#181818" points="1465.6,142.5,1456.6,138.5,1460.6,142.5,1456.6,146.5,1465.6,142.5" style="stroke:#181818;stroke-width:1.0;"/></g><!--link RecordTaskController to Repositories--><g id="link_RecordTaskController_Repositories"><path codeLine="131" d="M1719.13,278.06 C1647.84,305.36 1581.2532,330.8544 1518.8132,354.7644 " fill="none" id="RecordTaskController-to-Repositories" style="stroke:#181818;stroke-width:1.0;"/><polygon fill="#181818" points="1513.21,356.91,1523.0453,357.427,1517.8794,355.122,1520.1844,349.9561,1513.21,356.91" style="stroke:#181818;stroke-width:1.0;"/><text fill="#000000" font-family="sans-serif" font-size="13" lengthAdjust="spacing" textLength="108" x="1636.5" y="323.0283">retrieves instances</text></g><!--link Repositories to CollaboratorRepository--><g id="link_Repositories_CollaboratorRepository"><path codeLine="133" d="M1428.17,498.18 C1481.69,536.77 1537.5,577 1537.5,577 C1537.5,577 1539.5561,578.8508 1550.2561,588.4608 " fill="none" id="Repositories-to-CollaboratorRepository" style="stroke:#181818;stroke-width:1.0;"/><polygon fill="#181818" points="1554.72,592.47,1550.6969,583.4803,1551.0001,589.129,1545.3513,589.4322,1554.72,592.47" style="stroke:#181818;stroke-width:1.0;"/><text fill="#000000" font-family="sans-serif" font-size="13" lengthAdjust="spacing" textLength="56" x="1494.5" y="543.0283">accesses</text></g><!--link Repositories to TeamRepository--><g id="link_Repositories_TeamRepository"><path codeLine="134" d="M1331.5,498.08 C1331.5,551.12 1331.5,618.21 1331.5,673.46 " fill="none" id="Repositories-to-TeamRepository" style="stroke:#181818;stroke-width:1.0;"/><polygon fill="#181818" points="1331.5,679.46,1335.5,670.46,1331.5,674.46,1327.5,670.46,1331.5,679.46" style="stroke:#181818;stroke-width:1.0;"/><text fill="#000000" font-family="sans-serif" font-size="13" lengthAdjust="spacing" textLength="56" x="1332.5" y="543.0283">accesses</text></g><!--link Repositories to TaskRepository--><g id="link_Repositories_TaskRepository"><path codeLine="135" d="M1142.41,495.04 C1030.14,534.55 909.5,577 909.5,577 C909.5,577 801.1563,615.9405 681.4963,658.9505 " fill="none" id="Repositories-to-TaskRepository" style="stroke:#181818;stroke-width:1.0;"/><polygon fill="#181818" points="675.85,660.98,685.6725,661.7,680.5553,659.2888,682.9665,654.1715,675.85,660.98" style="stroke:#181818;stroke-width:1.0;"/><text fill="#000000" font-family="sans-serif" font-size="13" lengthAdjust="spacing" textLength="56" x="1047.5" y="543.0283">accesses</text></g><!--link RecordTaskController to TeamRepository--><g id="link_RecordTaskController_TeamRepository"><path codeLine="137" d="M1888.29,278.11 C1830.58,320.74 1781.5,357 1781.5,357 C1781.5,357 1731.5,498 1731.5,498 C1731.5,498 1537.5,577 1537.5,577 C1537.5,577 1481.2718,626.5434 1425.7618,675.4534 " fill="none" id="RecordTaskController-to-TeamRepository" style="stroke:#181818;stroke-width:1.0;stroke-dasharray:7.0,7.0;"/><polygon fill="#181818" points="1421.26,679.42,1430.6571,676.4714,1425.0115,676.1145,1425.3684,670.4689,1421.26,679.42" style="stroke:#181818;stroke-width:1.0;"/><text fill="#000000" font-family="sans-serif" font-size="13" lengthAdjust="spacing" textLength="91" x="1782.5" y="433.0283">teamRepository</text></g><!--link RecordTaskController to TaskRepository--><g id="link_RecordTaskController_TaskRepository"><path codeLine="138" d="M1465.79,274.26 C1454.67,276.67 1448.5,278 1448.5,278 C1448.5,278 1035.5,357 1035.5,357 C1035.5,357 979.5,498 979.5,498 C979.5,498 788.5453,584.5141 625.3053,658.4641 " fill="none" id="RecordTaskController-to-TaskRepository" style="stroke:#181818;stroke-width:1.0;stroke-dasharray:7.0,7.0;"/><polygon fill="#181818" points="619.84,660.94,629.6886,660.8697,624.3945,658.8768,626.3874,653.5826,619.84,660.94" style="stroke:#181818;stroke-width:1.0;"/><text fill="#000000" font-family="sans-serif" font-size="13" lengthAdjust="spacing" textLength="87" x="1036.5" y="433.0283">taskRepository</text></g><!--link RecordTaskController to CollaboratorRepository--><g id="link_RecordTaskController_CollaboratorRepository"><path codeLine="139" d="M1998.07,278.08 C1950.88,365.75 1891.5834,475.9265 1840.0534,571.6765 " fill="none" id="RecordTaskController-to-CollaboratorRepository" style="stroke:#181818;stroke-width:1.0;stroke-dasharray:7.0,7.0;"/><polygon fill="#181818" points="1837.21,576.96,1844.9974,570.9304,1839.5795,572.5571,1837.9528,567.1392,1837.21,576.96" style="stroke:#181818;stroke-width:1.0;"/><text fill="#000000" font-family="sans-serif" font-size="13" lengthAdjust="spacing" textLength="129" x="1954.5" y="433.0283">collaboratorRepository</text></g><!--link ApplicationSession to UserSession--><g id="link_ApplicationSession_UserSession"><path codeLine="141" d="M2199.22,470.29 C2225.86,536.89 2275.1517,660.1391 2299.2517,720.3891 " fill="none" id="ApplicationSession-to-UserSession" style="stroke:#181818;stroke-width:1.0;"/><polygon fill="#181818" points="2301.48,725.96,2301.8514,716.1181,2299.623,721.3176,2294.4236,719.0893,2301.48,725.96" style="stroke:#181818;stroke-width:1.0;"/><text fill="#000000" font-family="sans-serif" font-size="13" lengthAdjust="spacing" textLength="72" x="2229.5" y="543.0283">userSession</text><text fill="#000000" font-family="sans-serif" font-size="13" lengthAdjust="spacing" textLength="7" x="2291.2276" y="714.7776">1</text></g><!--link RecordTaskController to ApplicationSession--><g id="link_RecordTaskController_ApplicationSession"><path codeLine="143" d="M2123.88,278.37 C2139.2,317.09 2152.5827,350.9008 2163.8227,379.3108 " fill="none" id="RecordTaskController-to-ApplicationSession" style="stroke:#181818;stroke-width:1.0;stroke-dasharray:7.0,7.0;"/><polygon fill="#181818" points="2166.03,384.89,2166.4385,375.0496,2164.1906,380.2407,2158.9995,377.9927,2166.03,384.89" style="stroke:#181818;stroke-width:1.0;"/></g><!--link RecordTaskController to UserSession--><g id="link_RecordTaskController_UserSession"><path codeLine="144" d="M2249.56,278.11 C2306.27,320.74 2354.5,357 2354.5,357 C2354.5,357 2354.5,498 2354.5,498 C2354.5,498 2331.1804,649.8795 2320.4404,719.8395 " fill="none" id="RecordTaskController-to-UserSession" style="stroke:#181818;stroke-width:1.0;stroke-dasharray:7.0,7.0;"/><polygon fill="#181818" points="2319.53,725.77,2324.8493,717.4812,2320.2887,720.8279,2316.942,716.2673,2319.53,725.77" style="stroke:#181818;stroke-width:1.0;"/></g><!--link TeamRepository to Team--><g id="link_TeamRepository_Team"><path codeLine="146" d="M1241.31,679.42 C1185.53,630.51 1124.5,577 1124.5,577 C1124.5,577 993.5,547 993.5,547 C993.5,547 937.5,498 937.5,498 C937.5,498 871.5,357 871.5,357 C871.5,357 839.595,288.8935 811.135,228.1335 " fill="none" id="TeamRepository-to-Team" style="stroke:#181818;stroke-width:1.0;stroke-dasharray:7.0,7.0;"/><polygon fill="#181818" points="808.59,222.7,808.7852,232.5469,810.7109,227.2279,816.0299,229.1535,808.59,222.7" style="stroke:#181818;stroke-width:1.0;"/><text fill="#000000" font-family="sans-serif" font-size="13" lengthAdjust="spacing" textLength="36" x="938.5" y="433.0283">stores</text></g><!--link CollaboratorRepository to Collaborator--><g id="link_CollaboratorRepository_Collaborator"><path codeLine="148" d="M1702.41,576.89 C1676.86,451.78 1647.5,308 1647.5,308 C1647.5,308 1206.5,278 1206.5,278 C1206.5,278 1188.7919,259.0989 1163.3219,231.9089 " fill="none" id="CollaboratorRepository-to-Collaborator" style="stroke:#181818;stroke-width:1.0;stroke-dasharray:7.0,7.0;"/><polygon fill="#181818" points="1159.22,227.53,1162.4536,236.8329,1162.6382,231.1791,1168.2921,231.3637,1159.22,227.53" style="stroke:#181818;stroke-width:1.0;"/><text fill="#000000" font-family="sans-serif" font-size="13" lengthAdjust="spacing" textLength="36" x="1686.5" y="433.0283">stores</text></g><!--SRC=[dLXDR-Cs4BthLn1xYOCuGNirYW29lGiOM621UlVM2qtHDckAz99KMdVH_zuX9Kf3Yl8YpI6HPjwGy_4u7ENEdeMwK4CRqcYbsSdeXXDdMbwDcWjbPthaEtULd1ZE75L7YG7sH6lzbr17Sg3IOeqKYhlhXPEBbbV_KjqLbDeuNI4h9gcrByuPiMyTtpAjTk8VJdwfgZl93uuuJOmudXofXNT7Q5LLmOQyN2vICEf5Eswjr_oe2Fmy4Ej0pCYHkws2PyNuuhvNWMpT6iELwur0yszSyflb9byB3BpuOqE5nDYrbfBkjQ5E6zA17ucY3L-H7KIZZhreBumxrTJbSbet8kn4YihQW1-PjD5x0MLPQ-KeSoiYbEirt7j7M5GaLex-VQ5NReXgcpqts6ox8RLcn1ScCm9D3d_mNktEGig5zRz3BiWq6R_pYxO27gvTMXx9Ps7TRnZo3AwERxOAgt-v-59IcI5XqqMIQsnwtvacUbzXzFvwtMuM40E4r4NKsnISoYmzOj6ZmGki-gb7Cy4OVeH5kKdM8dyep9ibl4z8uuK3OwQAX2rUr54b5C-_1dvWVIJ5WDXkW0cO29qGaQ2FRA-rv5IHDog5T-HTQNdJeYRjvLrsmuaRY2Mu3THwI4yuMIMG22XpCy3BgcZubTCcCqX50v3QSmvCH17uqheJT9w-QsKcSyeA9O1fK_kbVGimu3mVMuzBN2kuwa6i6F2DH7GD1CTIY2rqh1dlRyJLDPLIK8lK-IosvLoxAKUtp1pEubdEEZWRKxnBCYyBbEc1C_xU86VS8VMymBKUE1l3JTRrng4L-eMVumxsaqvxb0yib659Fcj6vGPEC3a8Ovr_ma8BzLHr9-qwIRYEMrjAHfw2Jp2JZFVocEKSvsMtcaRXo7pRXgEIde6K-LKyHztfcQ13PbOeNTNGqqpREHnV-VUMXznGBBRjlX5OYZBVcuGzy9mHmlzHEB_Ha-I6GSrWky5tTspR-KKsQT882nx1ZBVuilyJ9Y-YezfVfYTgJsjTyxHAJ6h54-TJ_dPXZ3D15xa_ZpPgqDNPQPdXm2N_lEZfv8IJ8xbgRfaHmIOZNC9AHuqha79SfZNXUDoFZg2KXUtzh-1i0HDlmrbWaFMdw_KQ-3kSAGH3QJa82PD2uCFhTHUyNUHPAnwnyQPjg3bxz8lT-CAK_9gU_NxiIMeutZ8-zzciY2gGQJglfiAk5AknFd6blWZvD6ojPW9WzLTyEFCQ-PoEwVoVDFR1JccSDle9ZK7z72fPf77GzZJsFavFxGpfvaWo8TqSCBPE__Vr-ev93NCZkDylCd8ZBFtu71AsyXKIHyLh-5mRDEkapyAbOC7O4dseahq1YPlqYhGMPhUiSGmRiHDyaCBurp6hgfAPC2o5tdt_wuR3QlgnwD45ARAfailZwRaugc0KcieUuIDPJVqn77ZDt-0vxZA9eJUS6HaWrGoCV8gAPXbJVmfFqupWvR2UdWfRfDFP3SDyitGGcpUSpKLvuAkArOPeF_pw0N_Yay2ruOD_Vl_2VnfciVXV25MMgfYz5T1NcodBOv86_KpWUKu6_7y0]--></g></svg>