<?xml version="1.0" encoding="us-ascii" standalone="no"?><svg xmlns="http://www.w3.org/2000/svg" xmlns:xlink="http://www.w3.org/1999/xlink" contentStyleType="text/css" height="617.6px" preserveAspectRatio="none" style="width:782px;height:617px;background:#FFFFFF;" version="1.1" viewBox="0 0 782 617" width="782.4px" zoomAndPan="magnify"><defs/><g><rect fill="#FFFFFF" height="486.1172" style="stroke:#181818;stroke-width:0.8000000000000002;" width="8" x="148.8" y="72.4266"/><rect fill="#FFFFFF" height="136.3953" style="stroke:#181818;stroke-width:0.8000000000000002;" width="8" x="305.6" y="139.525"/><rect fill="#FFFFFF" height="33.8328" style="stroke:#181818;stroke-width:0.8000000000000002;" width="8" x="309.6" y="211.4547"/><rect fill="#FFFFFF" height="264.7906" style="stroke:#181818;stroke-width:0.8000000000000002;" width="8" x="458.4" y="300.9531"/><rect fill="#FFFFFF" height="29.0328" style="stroke:#181818;stroke-width:0.8000000000000002;" width="8" x="462.4" y="413.3484"/><rect fill="none" height="449.8844" style="stroke:#000000;stroke-width:1.2000000000000002;" width="703.6" x="74" y="84.4266"/><rect fill="none" height="40.4656" style="stroke:#000000;stroke-width:1.2000000000000002;" width="280.8" x="82" y="105.4594"/><rect fill="none" height="135.8281" style="stroke:#000000;stroke-width:1.2000000000000002;" width="348.8" x="420.8" y="347.85"/><line style="stroke:#181818;stroke-width:0.4000000000000001;stroke-dasharray:5.0,5.0;" x1="152.4" x2="152.4" y1="45.7938" y2="572.9438"/><line style="stroke:#181818;stroke-width:0.4000000000000001;stroke-dasharray:5.0,5.0;" x1="309.2" x2="309.2" y1="45.7938" y2="572.9438"/><line style="stroke:#181818;stroke-width:0.4000000000000001;stroke-dasharray:5.0,5.0;" x1="462.4" x2="462.4" y1="45.7938" y2="572.9438"/><line style="stroke:#181818;stroke-width:0.4000000000000001;stroke-dasharray:5.0,5.0;" x1="591.2" x2="591.2" y1="176.9734" y2="572.9438"/><line style="stroke:#181818;stroke-width:0.4000000000000001;stroke-dasharray:5.0,5.0;" x1="660.8" x2="660.8" y1="332.8016" y2="572.9438"/><line style="stroke:#181818;stroke-width:0.4000000000000001;stroke-dasharray:5.0,5.0;" x1="733.6" x2="733.6" y1="449.1969" y2="572.9438"/><rect fill="#E3E3E3" height="26.0969" rx="2" ry="2" style="stroke:#181818;stroke-width:0.4000000000000001;" width="125.6" x="90" y="18.8969"/><text fill="#000000" font-family="sans-serif" font-size="11.2" lengthAdjust="spacing" textLength="114.4" x="95.6" y="36.5828">:RecordTaskController</text><rect fill="#E3E3E3" height="26.0969" rx="2" ry="2" style="stroke:#181818;stroke-width:0.4000000000000001;" width="125.6" x="90" y="572.1438"/><text fill="#000000" font-family="sans-serif" font-size="11.2" lengthAdjust="spacing" textLength="114.4" x="95.6" y="589.8297">:RecordTaskController</text><rect fill="#E3E3E3" height="40.9938" rx="2" ry="2" style="stroke:#181818;stroke-width:0.4000000000000001;" width="90.4" x="264.4" y="4"/><text fill="#000000" font-family="sans-serif" font-size="11.2" lengthAdjust="spacing" textLength="78.4" x="270.4" y="21.6859">taskRepository:</text><text fill="#000000" font-family="sans-serif" font-size="11.2" lengthAdjust="spacing" textLength="79.2" x="270" y="36.5828">TaskRepository</text><rect fill="#E3E3E3" height="40.9938" rx="2" ry="2" style="stroke:#181818;stroke-width:0.4000000000000001;" width="90.4" x="264.4" y="572.1438"/><text fill="#000000" font-family="sans-serif" font-size="11.2" lengthAdjust="spacing" textLength="78.4" x="270.4" y="589.8297">taskRepository:</text><text fill="#000000" font-family="sans-serif" font-size="11.2" lengthAdjust="spacing" textLength="79.2" x="270" y="604.7266">TaskRepository</text><rect fill="#E3E3E3" height="26.0969" rx="2" ry="2" style="stroke:#181818;stroke-width:0.4000000000000001;" width="67.2" x="428.8" y="18.8969"/><text fill="#000000" font-family="sans-serif" font-size="11.2" lengthAdjust="spacing" textLength="56" x="434.4" y="36.5828">ListMapper</text><rect fill="#E3E3E3" height="26.0969" rx="2" ry="2" style="stroke:#181818;stroke-width:0.4000000000000001;" width="67.2" x="428.8" y="572.1438"/><text fill="#000000" font-family="sans-serif" font-size="11.2" lengthAdjust="spacing" textLength="56" x="434.4" y="589.8297">ListMapper</text><rect fill="#E3E3E3" height="26.0969" rx="2" ry="2" style="stroke:#181818;stroke-width:0.4000000000000001;" width="49.6" x="566.4" y="572.1438"/><text fill="#000000" font-family="sans-serif" font-size="11.2" lengthAdjust="spacing" textLength="38.4" x="572" y="589.8297">taskList</text><rect fill="#E3E3E3" height="26.0969" rx="2" ry="2" style="stroke:#181818;stroke-width:0.4000000000000001;" width="73.6" x="624" y="572.1438"/><text fill="#000000" font-family="sans-serif" font-size="11.2" lengthAdjust="spacing" textLength="62.4" x="629.6" y="589.8297">taskListDTO</text><rect fill="#E3E3E3" height="26.0969" rx="2" ry="2" style="stroke:#181818;stroke-width:0.4000000000000001;" width="56" x="705.6" y="572.1438"/><text fill="#000000" font-family="sans-serif" font-size="11.2" lengthAdjust="spacing" textLength="44.8" x="711.2" y="589.8297">taskDTO</text><rect fill="#FFFFFF" height="486.1172" style="stroke:#181818;stroke-width:0.8000000000000002;" width="8" x="148.8" y="72.4266"/><rect fill="#FFFFFF" height="136.3953" style="stroke:#181818;stroke-width:0.8000000000000002;" width="8" x="305.6" y="139.525"/><rect fill="#FFFFFF" height="33.8328" style="stroke:#181818;stroke-width:0.8000000000000002;" width="8" x="309.6" y="211.4547"/><rect fill="#FFFFFF" height="264.7906" style="stroke:#181818;stroke-width:0.8000000000000002;" width="8" x="458.4" y="300.9531"/><rect fill="#FFFFFF" height="29.0328" style="stroke:#181818;stroke-width:0.8000000000000002;" width="8" x="462.4" y="413.3484"/><polygon fill="#181818" points="139.2,69.2266,147.2,72.4266,139.2,75.6266,142.4,72.4266" style="stroke:#181818;stroke-width:0.8000000000000002;"/><line style="stroke:#181818;stroke-width:0.8000000000000002;" x1="0" x2="144" y1="72.4266" y2="72.4266"/><text fill="#000000" font-family="sans-serif" font-size="10.4" lengthAdjust="spacing" textLength="133.6" x="5.6" y="68.2164">getTaskByTeam(Team team)</text><path d="M74,84.4266 L242,84.4266 L242,91.8594 L234,99.8594 L74,99.8594 L74,84.4266 " fill="#EEEEEE" style="stroke:#000000;stroke-width:1.2000000000000002;"/><rect fill="none" height="449.8844" style="stroke:#000000;stroke-width:1.2000000000000002;" width="703.6" x="74" y="84.4266"/><text fill="#000000" font-family="sans-serif" font-size="10.4" font-weight="bold" lengthAdjust="spacing" textLength="132" x="86" y="96.4492">Get Tasks for Collaborator</text><path d="M82,105.4594 L140.4,105.4594 L140.4,112.8922 L132.4,120.8922 L82,120.8922 L82,105.4594 " fill="#EEEEEE" style="stroke:#000000;stroke-width:1.2000000000000002;"/><rect fill="none" height="40.4656" style="stroke:#000000;stroke-width:1.2000000000000002;" width="280.8" x="82" y="105.4594"/><text fill="#000000" font-family="sans-serif" font-size="10.4" font-weight="bold" lengthAdjust="spacing" textLength="22.4" x="94" y="117.482">loop</text><text fill="#000000" font-family="sans-serif" font-size="8.8" font-weight="bold" lengthAdjust="spacing" textLength="64" x="152.4" y="116.5555">[for each task]</text><polygon fill="#181818" points="296,136.325,304,139.525,296,142.725,299.2,139.525" style="stroke:#181818;stroke-width:0.8000000000000002;"/><line style="stroke:#181818;stroke-width:0.8000000000000002;" x1="156.8" x2="300.8" y1="139.525" y2="139.525"/><text fill="#000000" font-family="sans-serif" font-size="10.4" lengthAdjust="spacing" textLength="133.6" x="162.4" y="135.3148">getTaskByTeam(Team team)</text><polygon fill="#181818" points="556.8,166.9578,564.8,170.1578,556.8,173.3578,560,170.1578" style="stroke:#181818;stroke-width:0.8000000000000002;"/><line style="stroke:#181818;stroke-width:0.8000000000000002;" x1="313.6" x2="561.6" y1="170.1578" y2="170.1578"/><text fill="#000000" font-family="sans-serif" font-size="10.4" lengthAdjust="spacing" textLength="35.2" x="319.2" y="165.9477">create()</text><rect fill="#E3E3E3" height="26.0969" rx="2" ry="2" style="stroke:#181818;stroke-width:0.4000000000000001;" width="49.6" x="566.4" y="151.525"/><text fill="#000000" font-family="sans-serif" font-size="11.2" lengthAdjust="spacing" textLength="38.4" x="572" y="169.2109">taskList</text><line style="stroke:#181818;stroke-width:0.8000000000000002;" x1="313.6" x2="351.2" y1="201.0547" y2="201.0547"/><line style="stroke:#181818;stroke-width:0.8000000000000002;" x1="351.2" x2="351.2" y1="201.0547" y2="211.4547"/><line style="stroke:#181818;stroke-width:0.8000000000000002;" x1="318.4" x2="351.2" y1="211.4547" y2="211.4547"/><polygon fill="#181818" points="326.4,208.2547,318.4,211.4547,326.4,214.6547,323.2,211.4547" style="stroke:#181818;stroke-width:0.8000000000000002;"/><text fill="#000000" font-family="sans-serif" font-size="10.4" lengthAdjust="spacing" textLength="133.6" x="323.2" y="196.8445">filterTasksByStatus(taskList)</text><line style="stroke:#181818;stroke-width:0.8000000000000002;stroke-dasharray:2.0,2.0;" x1="317.6" x2="351.2" y1="244.4875" y2="244.4875"/><line style="stroke:#181818;stroke-width:0.8000000000000002;stroke-dasharray:2.0,2.0;" x1="351.2" x2="351.2" y1="244.4875" y2="254.8875"/><line style="stroke:#181818;stroke-width:0.8000000000000002;stroke-dasharray:2.0,2.0;" x1="313.6" x2="351.2" y1="254.8875" y2="254.8875"/><polygon fill="#181818" points="321.6,251.6875,313.6,254.8875,321.6,258.0875,318.4,254.8875" style="stroke:#181818;stroke-width:0.8000000000000002;"/><text fill="#000000" font-family="sans-serif" font-size="10.4" lengthAdjust="spacing" textLength="36.8" x="323.2" y="240.2773">taskList</text><polygon fill="#181818" points="165.6,272.7203,157.6,275.9203,165.6,279.1203,162.4,275.9203" style="stroke:#181818;stroke-width:0.8000000000000002;"/><line style="stroke:#181818;stroke-width:0.8000000000000002;stroke-dasharray:2.0,2.0;" x1="160.8" x2="308.8" y1="275.9203" y2="275.9203"/><text fill="#000000" font-family="sans-serif" font-size="10.4" lengthAdjust="spacing" textLength="36.8" x="170.4" y="271.7102">taskList</text><polygon fill="#181818" points="448.8,297.7531,456.8,300.9531,448.8,304.1531,452,300.9531" style="stroke:#181818;stroke-width:0.8000000000000002;"/><line style="stroke:#181818;stroke-width:0.8000000000000002;" x1="156.8" x2="453.6" y1="300.9531" y2="300.9531"/><text fill="#000000" font-family="sans-serif" font-size="10.4" lengthAdjust="spacing" textLength="72.8" x="162.4" y="296.743">toDTO(taskList)</text><polygon fill="#181818" points="614.4,322.7859,622.4,325.9859,614.4,329.1859,617.6,325.9859" style="stroke:#181818;stroke-width:0.8000000000000002;"/><line style="stroke:#181818;stroke-width:0.8000000000000002;" x1="466.4" x2="619.2" y1="325.9859" y2="325.9859"/><text fill="#000000" font-family="sans-serif" font-size="10.4" lengthAdjust="spacing" textLength="35.2" x="472" y="321.7758">create()</text><rect fill="#E3E3E3" height="26.0969" rx="2" ry="2" style="stroke:#181818;stroke-width:0.4000000000000001;" width="73.6" x="624" y="307.3531"/><text fill="#000000" font-family="sans-serif" font-size="11.2" lengthAdjust="spacing" textLength="62.4" x="629.6" y="325.0391">taskListDTO</text><path d="M420.8,347.85 L479.2,347.85 L479.2,355.2828 L471.2,363.2828 L420.8,363.2828 L420.8,347.85 " fill="#EEEEEE" style="stroke:#000000;stroke-width:1.2000000000000002;"/><rect fill="none" height="135.8281" style="stroke:#000000;stroke-width:1.2000000000000002;" width="348.8" x="420.8" y="347.85"/><text fill="#000000" font-family="sans-serif" font-size="10.4" font-weight="bold" lengthAdjust="spacing" textLength="22.4" x="432.8" y="359.8727">loop</text><text fill="#000000" font-family="sans-serif" font-size="8.8" font-weight="bold" lengthAdjust="spacing" textLength="112.8" x="491.2" y="358.9461">[for each task in taskList]</text><polygon fill="#181818" points="581.6,378.7156,589.6,381.9156,581.6,385.1156,584.8,381.9156" style="stroke:#181818;stroke-width:0.8000000000000002;"/><line style="stroke:#181818;stroke-width:0.8000000000000002;" x1="466.4" x2="586.4" y1="381.9156" y2="381.9156"/><text fill="#000000" font-family="sans-serif" font-size="10.4" lengthAdjust="spacing" textLength="23.2" x="472" y="377.7055">get(i)</text><line style="stroke:#181818;stroke-width:0.8000000000000002;" x1="466.4" x2="504" y1="402.9484" y2="402.9484"/><line style="stroke:#181818;stroke-width:0.8000000000000002;" x1="504" x2="504" y1="402.9484" y2="413.3484"/><line style="stroke:#181818;stroke-width:0.8000000000000002;" x1="471.2" x2="504" y1="413.3484" y2="413.3484"/><polygon fill="#181818" points="479.2,410.1484,471.2,413.3484,479.2,416.5484,476,413.3484" style="stroke:#181818;stroke-width:0.8000000000000002;"/><text fill="#000000" font-family="sans-serif" font-size="10.4" lengthAdjust="spacing" textLength="109.6" x="476" y="398.7383">taskDTO = toDTO(task)</text><polygon fill="#181818" points="696,439.1813,704,442.3813,696,445.5813,699.2,442.3813" style="stroke:#181818;stroke-width:0.8000000000000002;"/><line style="stroke:#181818;stroke-width:0.8000000000000002;stroke-dasharray:2.0,2.0;" x1="466.4" x2="700.8" y1="442.3813" y2="442.3813"/><text fill="#000000" font-family="sans-serif" font-size="10.4" lengthAdjust="spacing" textLength="55.2" x="472" y="438.1711">create(task)</text><rect fill="#E3E3E3" height="26.0969" rx="2" ry="2" style="stroke:#181818;stroke-width:0.4000000000000001;" width="56" x="705.6" y="423.7484"/><text fill="#000000" font-family="sans-serif" font-size="11.2" lengthAdjust="spacing" textLength="44.8" x="711.2" y="441.4344">taskDTO</text><polygon fill="#181818" points="651.2,474.0781,659.2,477.2781,651.2,480.4781,654.4,477.2781" style="stroke:#181818;stroke-width:0.8000000000000002;"/><line style="stroke:#181818;stroke-width:0.8000000000000002;" x1="466.4" x2="656" y1="477.2781" y2="477.2781"/><text fill="#000000" font-family="sans-serif" font-size="10.4" lengthAdjust="spacing" textLength="64" x="472" y="473.068">add(taskDTO)</text><polygon fill="#181818" points="165.6,524.7109,157.6,527.9109,165.6,531.1109,162.4,527.9109" style="stroke:#181818;stroke-width:0.8000000000000002;"/><line style="stroke:#181818;stroke-width:0.8000000000000002;stroke-dasharray:2.0,2.0;" x1="160.8" x2="457.6" y1="527.9109" y2="527.9109"/><text fill="#000000" font-family="sans-serif" font-size="10.4" lengthAdjust="spacing" textLength="57.6" x="170.4" y="523.7008">taskListDTO</text><polygon fill="#181818" points="8.8,555.3438,0.8,558.5438,8.8,561.7438,5.6,558.5438" style="stroke:#181818;stroke-width:0.8000000000000002;"/><line style="stroke:#181818;stroke-width:0.8000000000000002;stroke-dasharray:2.0,2.0;" x1="4" x2="152" y1="558.5438" y2="558.5438"/><text fill="#000000" font-family="sans-serif" font-size="10.4" lengthAdjust="spacing" textLength="57.6" x="13.6" y="554.3336">taskListDTO</text><!--SRC=[fLHDRuCm3BtpAwoTe5B_0DecRPsq2zKand4N3rmQ5HAKk9igzSSleK1XfPHfFY0KFpy_VoHc9sI56aiebLJfLgkIWFMUFDDvAantcDCx7me2JIcZp8i-m6mnKzz2vh31mf1dpJfOfA92oN0NnfGgdILeTYibMQkY87q7Q62LnD4GonOKKwMCOAKFuOTC1WTrLF8K3uCYONYDLTMmHkjBJWSv1KVZpfVahV7Rlqj8vtPU3nfRFjObG0WviLFwV4W8IzzzWEqdwA1dmvJ55pATgdSdkLRx2bw9mN4Os2WDAzib_5GQRTcUDq9ZhL2ggi64wHQSp76SirgdrMkRzpUvlrMxxeyYI6PNTBgSBdMqM8IGQh8qVk1Tp_Khx2aEOICA9bstv_dmpiXxuxUZ2suo3SJFozicRfFSZCfeHfQMsatZ5lSimdQiqThIARkSjxhISTfRCew8rgTXMR8PyxhSGH3oNDbqYdeHVH5CmkhIJbSG7df5_gj0btvOu0HbRn9pkXO2PfdVI0ucBiiLgkFnEB6aZVhctUazNmrTTmtlbyinLA-O-W7oVW00]--></g></svg>