<?xml version="1.0" encoding="us-ascii" standalone="no"?><svg xmlns="http://www.w3.org/2000/svg" xmlns:xlink="http://www.w3.org/1999/xlink" contentStyleType="text/css" height="950px" preserveAspectRatio="none" style="width:1397px;height:950px;background:#FFFFFF;" version="1.1" viewBox="0 0 1397 950" width="1397px" zoomAndPan="magnify"><defs/><g><rect fill="#FFFFFF" height="718.0332" style="stroke:#181818;stroke-width:1.0;" width="10" x="75.5" y="112.2422"/><rect fill="#FFFFFF" height="154.4551" style="stroke:#181818;stroke-width:1.0;" width="10" x="516.5" y="135.5332"/><rect fill="#FFFFFF" height="93.873" style="stroke:#181818;stroke-width:1.0;" width="10" x="516.5" y="321.2793"/><rect fill="#FFFFFF" height="31.291" style="stroke:#181818;stroke-width:1.0;" width="10" x="516.5" y="446.4434"/><rect fill="#FFFFFF" height="321.25" style="stroke:#181818;stroke-width:1.0;" width="10" x="516.5" y="509.0254"/><rect fill="#FFFFFF" height="81.873" style="stroke:#181818;stroke-width:1.0;" width="10" x="845.5" y="176.8242"/><rect fill="#FFFFFF" height="281.668" style="stroke:#181818;stroke-width:1.0;" width="10" x="845.5" y="557.6074"/><rect fill="#FFFFFF" height="90.543" style="stroke:#181818;stroke-width:1.0;" width="10" x="850.5" y="596.8984"/><rect fill="#FFFFFF" height="31.291" style="stroke:#181818;stroke-width:1.0;" width="10" x="1250" y="352.5703"/><rect fill="#FFFFFF" height="88.543" style="stroke:#181818;stroke-width:1.0;" width="10" x="1250" y="750.7324"/><line style="stroke:#181818;stroke-width:0.5;stroke-dasharray:5.0,5.0;" x1="80" x2="80" y1="102.2422" y2="848.2754"/><line style="stroke:#181818;stroke-width:0.5;stroke-dasharray:5.0,5.0;" x1="521.5" x2="521.5" y1="102.2422" y2="848.2754"/><line style="stroke:#181818;stroke-width:0.5;stroke-dasharray:5.0,5.0;" x1="850.5" x2="850.5" y1="175.3438" y2="848.2754"/><line style="stroke:#181818;stroke-width:0.5;stroke-dasharray:5.0,5.0;" x1="1023" x2="1023" y1="102.2422" y2="848.2754"/><line style="stroke:#181818;stroke-width:0.5;stroke-dasharray:5.0,5.0;" x1="1130" x2="1130" y1="102.2422" y2="848.2754"/><line style="stroke:#181818;stroke-width:0.5;stroke-dasharray:5.0,5.0;" x1="1255" x2="1255" y1="102.2422" y2="848.2754"/><line style="stroke:#181818;stroke-width:0.5;stroke-dasharray:5.0,5.0;" x1="1361" x2="1361" y1="102.2422" y2="848.2754"/><text fill="#000000" font-family="sans-serif" font-size="14" lengthAdjust="spacing" textLength="145" x="5" y="80.1074">Vehicle and Equipment</text><text fill="#000000" font-family="sans-serif" font-size="14" lengthAdjust="spacing" textLength="92" x="31.5" y="98.7285">Fleet Manager</text><ellipse cx="80.5" cy="13.5" fill="#E3E3E3" rx="8" ry="8" style="stroke:#181818;stroke-width:0.5;"/><path d="M80.5,21.5 L80.5,48.5 M67.5,29.5 L93.5,29.5 M80.5,48.5 L67.5,63.5 M80.5,48.5 L93.5,63.5 " fill="none" style="stroke:#181818;stroke-width:0.5;"/><text fill="#000000" font-family="sans-serif" font-size="14" lengthAdjust="spacing" textLength="145" x="5" y="862.3828">Vehicle and Equipment</text><text fill="#000000" font-family="sans-serif" font-size="14" lengthAdjust="spacing" textLength="92" x="31.5" y="881.0039">Fleet Manager</text><ellipse cx="80.5" cy="893.0176" fill="#E3E3E3" rx="8" ry="8" style="stroke:#181818;stroke-width:0.5;"/><path d="M80.5,901.0176 L80.5,928.0176 M67.5,909.0176 L93.5,909.0176 M80.5,928.0176 L67.5,943.0176 M80.5,928.0176 L93.5,943.0176 " fill="none" style="stroke:#181818;stroke-width:0.5;"/><rect fill="#E3E3E3" height="32.6211" rx="2.5" ry="2.5" style="stroke:#181818;stroke-width:0.5;" width="164" x="439.5" y="68.6211"/><text fill="#000000" font-family="sans-serif" font-size="14" lengthAdjust="spacing" textLength="150" x="446.5" y="90.7285">:RegisterMaintenanceUI</text><rect fill="#E3E3E3" height="32.6211" rx="2.5" ry="2.5" style="stroke:#181818;stroke-width:0.5;" width="164" x="439.5" y="847.2754"/><text fill="#000000" font-family="sans-serif" font-size="14" lengthAdjust="spacing" textLength="150" x="446.5" y="869.3828">:RegisterMaintenanceUI</text><rect fill="#E3E3E3" height="32.6211" rx="2.5" ry="2.5" style="stroke:#181818;stroke-width:0.5;" width="214" x="743.5" y="847.2754"/><text fill="#000000" font-family="sans-serif" font-size="14" lengthAdjust="spacing" textLength="200" x="750.5" y="869.3828">:RegisterMaintenanceController</text><rect fill="#E3E3E3" height="32.6211" rx="2.5" ry="2.5" style="stroke:#181818;stroke-width:0.5;" width="97" x="975" y="68.6211"/><text fill="#000000" font-family="sans-serif" font-size="14" lengthAdjust="spacing" textLength="83" x="982" y="90.7285">:Repositories</text><rect fill="#E3E3E3" height="32.6211" rx="2.5" ry="2.5" style="stroke:#181818;stroke-width:0.5;" width="97" x="975" y="847.2754"/><text fill="#000000" font-family="sans-serif" font-size="14" lengthAdjust="spacing" textLength="83" x="982" y="869.3828">:Repositories</text><rect fill="#E3E3E3" height="51.2422" rx="2.5" ry="2.5" style="stroke:#181818;stroke-width:0.5;" width="97" x="1082" y="50"/><text fill="#000000" font-family="sans-serif" font-size="14" lengthAdjust="spacing" textLength="74" x="1093.5" y="72.1074">repositories</text><text fill="#000000" font-family="sans-serif" font-size="14" lengthAdjust="spacing" textLength="83" x="1089" y="90.7285">:Repositories</text><rect fill="#E3E3E3" height="51.2422" rx="2.5" ry="2.5" style="stroke:#181818;stroke-width:0.5;" width="97" x="1082" y="847.2754"/><text fill="#000000" font-family="sans-serif" font-size="14" lengthAdjust="spacing" textLength="74" x="1093.5" y="869.3828">repositories</text><text fill="#000000" font-family="sans-serif" font-size="14" lengthAdjust="spacing" textLength="83" x="1089" y="888.0039">:Repositories</text><rect fill="#E3E3E3" height="51.2422" rx="2.5" ry="2.5" style="stroke:#181818;stroke-width:0.5;" width="132" x="1189" y="50"/><text fill="#000000" font-family="sans-serif" font-size="14" lengthAdjust="spacing" textLength="112" x="1199" y="72.1074">vehicleRepository</text><text fill="#000000" font-family="sans-serif" font-size="14" lengthAdjust="spacing" textLength="118" x="1196" y="90.7285">:VehicleRepository</text><rect fill="#E3E3E3" height="51.2422" rx="2.5" ry="2.5" style="stroke:#181818;stroke-width:0.5;" width="132" x="1189" y="847.2754"/><text fill="#000000" font-family="sans-serif" font-size="14" lengthAdjust="spacing" textLength="112" x="1199" y="869.3828">vehicleRepository</text><text fill="#000000" font-family="sans-serif" font-size="14" lengthAdjust="spacing" textLength="118" x="1196" y="888.0039">:VehicleRepository</text><rect fill="#E3E3E3" height="32.6211" rx="2.5" ry="2.5" style="stroke:#181818;stroke-width:0.5;" width="60" x="1331" y="68.6211"/><text fill="#000000" font-family="sans-serif" font-size="14" lengthAdjust="spacing" textLength="46" x="1338" y="90.7285">Vehicle</text><rect fill="#E3E3E3" height="32.6211" rx="2.5" ry="2.5" style="stroke:#181818;stroke-width:0.5;" width="60" x="1331" y="847.2754"/><text fill="#000000" font-family="sans-serif" font-size="14" lengthAdjust="spacing" textLength="46" x="1338" y="869.3828">Vehicle</text><rect fill="#FFFFFF" height="718.0332" style="stroke:#181818;stroke-width:1.0;" width="10" x="75.5" y="112.2422"/><rect fill="#FFFFFF" height="154.4551" style="stroke:#181818;stroke-width:1.0;" width="10" x="516.5" y="135.5332"/><rect fill="#FFFFFF" height="93.873" style="stroke:#181818;stroke-width:1.0;" width="10" x="516.5" y="321.2793"/><rect fill="#FFFFFF" height="31.291" style="stroke:#181818;stroke-width:1.0;" width="10" x="516.5" y="446.4434"/><rect fill="#FFFFFF" height="321.25" style="stroke:#181818;stroke-width:1.0;" width="10" x="516.5" y="509.0254"/><rect fill="#FFFFFF" height="81.873" style="stroke:#181818;stroke-width:1.0;" width="10" x="845.5" y="176.8242"/><rect fill="#FFFFFF" height="281.668" style="stroke:#181818;stroke-width:1.0;" width="10" x="845.5" y="557.6074"/><rect fill="#FFFFFF" height="90.543" style="stroke:#181818;stroke-width:1.0;" width="10" x="850.5" y="596.8984"/><rect fill="#FFFFFF" height="31.291" style="stroke:#181818;stroke-width:1.0;" width="10" x="1250" y="352.5703"/><rect fill="#FFFFFF" height="88.543" style="stroke:#181818;stroke-width:1.0;" width="10" x="1250" y="750.7324"/><polygon fill="#181818" points="504.5,131.5332,514.5,135.5332,504.5,139.5332,508.5,135.5332" style="stroke:#181818;stroke-width:1.0;"/><line style="stroke:#181818;stroke-width:1.0;" x1="85.5" x2="510.5" y1="135.5332" y2="135.5332"/><text fill="#000000" font-family="sans-serif" font-size="13" font-weight="bold" lengthAdjust="spacing" textLength="7" x="92.5" y="130.2705">1</text><text fill="#000000" font-family="sans-serif" font-size="13" lengthAdjust="spacing" textLength="260" x="103.5" y="130.2705">asks to register a vehicle's maintenance date</text><polygon fill="#181818" points="731.5,162.8242,741.5,166.8242,731.5,170.8242,735.5,166.8242" style="stroke:#181818;stroke-width:1.0;"/><line style="stroke:#181818;stroke-width:1.0;" x1="526.5" x2="737.5" y1="166.8242" y2="166.8242"/><text fill="#000000" font-family="sans-serif" font-size="13" font-weight="bold" lengthAdjust="spacing" textLength="7" x="533.5" y="161.5615">2</text><text fill="#000000" font-family="sans-serif" font-size="13" lengthAdjust="spacing" textLength="36" x="544.5" y="161.5615">create</text><rect fill="#E3E3E3" height="32.6211" rx="2.5" ry="2.5" style="stroke:#181818;stroke-width:0.5;" width="214" x="743.5" y="143.5332"/><text fill="#000000" font-family="sans-serif" font-size="14" lengthAdjust="spacing" textLength="200" x="750.5" y="165.6406">:RegisterMaintenanceController</text><rect fill="none" height="43.252" style="stroke:#000000;stroke-width:1.5;" width="220" x="740.5" y="187.1543"/><path d="M740.5,187.1543 L802.5,187.1543 L802.5,196.1543 L792.5,206.1543 L740.5,206.1543 L740.5,187.1543 " fill="#EEEEEE" style="stroke:#000000;stroke-width:2.0;"/><text fill="#000000" font-family="sans-serif" font-size="13" font-weight="bold" lengthAdjust="spacing" textLength="17" x="753.5" y="203.1826">ref</text><text fill="#000000" font-family="sans-serif" font-size="12" lengthAdjust="spacing" textLength="69" x="816" y="223.1035">Get Vehicles</text><polygon fill="#181818" points="537.5,254.6973,527.5,258.6973,537.5,262.6973,533.5,258.6973" style="stroke:#181818;stroke-width:1.0;"/><line style="stroke:#181818;stroke-width:1.0;stroke-dasharray:2.0,2.0;" x1="531.5" x2="849.5" y1="258.6973" y2="258.6973"/><text fill="#000000" font-family="sans-serif" font-size="13" font-weight="bold" lengthAdjust="spacing" textLength="7" x="543.5" y="253.4346">3</text><text fill="#000000" font-family="sans-serif" font-size="13" lengthAdjust="spacing" textLength="46" x="554.5" y="253.4346">vehicles</text><polygon fill="#181818" points="96.5,285.9883,86.5,289.9883,96.5,293.9883,92.5,289.9883" style="stroke:#181818;stroke-width:1.0;"/><line style="stroke:#181818;stroke-width:1.0;stroke-dasharray:2.0,2.0;" x1="90.5" x2="520.5" y1="289.9883" y2="289.9883"/><text fill="#000000" font-family="sans-serif" font-size="13" font-weight="bold" lengthAdjust="spacing" textLength="7" x="102.5" y="284.7256">4</text><text fill="#000000" font-family="sans-serif" font-size="13" lengthAdjust="spacing" textLength="396" x="113.5" y="284.7256">shows list of vehicles (by their plate number) and asks to select one.</text><polygon fill="#181818" points="504.5,317.2793,514.5,321.2793,504.5,325.2793,508.5,321.2793" style="stroke:#181818;stroke-width:1.0;"/><line style="stroke:#181818;stroke-width:1.0;" x1="85.5" x2="510.5" y1="321.2793" y2="321.2793"/><text fill="#000000" font-family="sans-serif" font-size="13" font-weight="bold" lengthAdjust="spacing" textLength="7" x="92.5" y="316.0166">5</text><text fill="#000000" font-family="sans-serif" font-size="13" lengthAdjust="spacing" textLength="85" x="103.5" y="316.0166">selects vehicle</text><polygon fill="#181818" points="1238,348.5703,1248,352.5703,1238,356.5703,1242,352.5703" style="stroke:#181818;stroke-width:1.0;"/><line style="stroke:#181818;stroke-width:1.0;" x1="526.5" x2="1244" y1="352.5703" y2="352.5703"/><text fill="#000000" font-family="sans-serif" font-size="13" font-weight="bold" lengthAdjust="spacing" textLength="7" x="533.5" y="347.3076">6</text><text fill="#000000" font-family="sans-serif" font-size="13" lengthAdjust="spacing" textLength="101" x="544.5" y="347.3076">getPlateNumber()</text><polygon fill="#181818" points="537.5,379.8613,527.5,383.8613,537.5,387.8613,533.5,383.8613" style="stroke:#181818;stroke-width:1.0;"/><line style="stroke:#181818;stroke-width:1.0;stroke-dasharray:2.0,2.0;" x1="531.5" x2="1254" y1="383.8613" y2="383.8613"/><text fill="#000000" font-family="sans-serif" font-size="13" font-weight="bold" lengthAdjust="spacing" textLength="7" x="543.5" y="378.5986">7</text><text fill="#000000" font-family="sans-serif" font-size="13" lengthAdjust="spacing" textLength="114" x="554.5" y="378.5986">vehiclePlateNumber</text><polygon fill="#181818" points="96.5,411.1523,86.5,415.1523,96.5,419.1523,92.5,415.1523" style="stroke:#181818;stroke-width:1.0;"/><line style="stroke:#181818;stroke-width:1.0;stroke-dasharray:2.0,2.0;" x1="90.5" x2="520.5" y1="415.1523" y2="415.1523"/><text fill="#000000" font-family="sans-serif" font-size="13" font-weight="bold" lengthAdjust="spacing" textLength="7" x="102.5" y="409.8896">8</text><text fill="#000000" font-family="sans-serif" font-size="13" lengthAdjust="spacing" textLength="287" x="113.5" y="409.8896">requests data (current Km and maintenance date)</text><polygon fill="#181818" points="504.5,442.4434,514.5,446.4434,504.5,450.4434,508.5,446.4434" style="stroke:#181818;stroke-width:1.0;"/><line style="stroke:#181818;stroke-width:1.0;" x1="85.5" x2="510.5" y1="446.4434" y2="446.4434"/><text fill="#000000" font-family="sans-serif" font-size="13" font-weight="bold" lengthAdjust="spacing" textLength="7" x="92.5" y="441.1807">9</text><text fill="#000000" font-family="sans-serif" font-size="13" lengthAdjust="spacing" textLength="61" x="103.5" y="441.1807">types data</text><polygon fill="#181818" points="96.5,473.7344,86.5,477.7344,96.5,481.7344,92.5,477.7344" style="stroke:#181818;stroke-width:1.0;"/><line style="stroke:#181818;stroke-width:1.0;stroke-dasharray:2.0,2.0;" x1="90.5" x2="520.5" y1="477.7344" y2="477.7344"/><text fill="#000000" font-family="sans-serif" font-size="13" font-weight="bold" lengthAdjust="spacing" textLength="14" x="102.5" y="472.4717">10</text><text fill="#000000" font-family="sans-serif" font-size="13" lengthAdjust="spacing" textLength="236" x="120.5" y="472.4717">shows all data and requests confirmation</text><polygon fill="#181818" points="504.5,505.0254,514.5,509.0254,504.5,513.0254,508.5,509.0254" style="stroke:#181818;stroke-width:1.0;"/><line style="stroke:#181818;stroke-width:1.0;" x1="85.5" x2="510.5" y1="509.0254" y2="509.0254"/><text fill="#000000" font-family="sans-serif" font-size="13" font-weight="bold" lengthAdjust="spacing" textLength="14" x="92.5" y="503.7627">11</text><text fill="#000000" font-family="sans-serif" font-size="13" lengthAdjust="spacing" textLength="78" x="110.5" y="503.7627">confirms data</text><polygon fill="#181818" points="833.5,553.6074,843.5,557.6074,833.5,561.6074,837.5,557.6074" style="stroke:#181818;stroke-width:1.0;"/><line style="stroke:#181818;stroke-width:1.0;" x1="526.5" x2="839.5" y1="557.6074" y2="557.6074"/><text fill="#000000" font-family="sans-serif" font-size="13" font-weight="bold" lengthAdjust="spacing" textLength="14" x="533.5" y="543.6992">12</text><text fill="#000000" font-family="sans-serif" font-size="13" lengthAdjust="spacing" textLength="278" x="551.5" y="535.0537">registerMaintenace(plate ID, brand, model, type,</text><text fill="#000000" font-family="sans-serif" font-size="13" lengthAdjust="spacing" textLength="221" x="551.5" y="552.3447">current KMs and date of maintenance)</text><line style="stroke:#181818;stroke-width:1.0;" x1="855.5" x2="902.5" y1="583.8984" y2="583.8984"/><line style="stroke:#181818;stroke-width:1.0;" x1="902.5" x2="902.5" y1="583.8984" y2="596.8984"/><line style="stroke:#181818;stroke-width:1.0;" x1="861.5" x2="902.5" y1="596.8984" y2="596.8984"/><polygon fill="#181818" points="871.5,592.8984,861.5,596.8984,871.5,600.8984,867.5,596.8984" style="stroke:#181818;stroke-width:1.0;"/><text fill="#000000" font-family="sans-serif" font-size="13" font-weight="bold" lengthAdjust="spacing" textLength="14" x="867.5" y="578.6357">13</text><text fill="#000000" font-family="sans-serif" font-size="13" lengthAdjust="spacing" textLength="131" x="885.5" y="578.6357">getVFMFromSession()</text><rect fill="none" height="43.252" style="stroke:#000000;stroke-width:1.5;" width="220" x="740.5" y="609.8984"/><path d="M740.5,609.8984 L802.5,609.8984 L802.5,618.8984 L792.5,628.8984 L740.5,628.8984 L740.5,609.8984 " fill="#EEEEEE" style="stroke:#000000;stroke-width:2.0;"/><text fill="#000000" font-family="sans-serif" font-size="13" font-weight="bold" lengthAdjust="spacing" textLength="17" x="753.5" y="625.9268">ref</text><text fill="#000000" font-family="sans-serif" font-size="12" lengthAdjust="spacing" textLength="45" x="828" y="645.8477">Get VFM</text><line style="stroke:#181818;stroke-width:1.0;stroke-dasharray:2.0,2.0;" x1="860.5" x2="902.5" y1="686.4414" y2="686.4414"/><line style="stroke:#181818;stroke-width:1.0;stroke-dasharray:2.0,2.0;" x1="902.5" x2="902.5" y1="686.4414" y2="699.4414"/><line style="stroke:#181818;stroke-width:1.0;stroke-dasharray:2.0,2.0;" x1="855.5" x2="902.5" y1="699.4414" y2="699.4414"/><polygon fill="#181818" points="865.5,695.4414,855.5,699.4414,865.5,703.4414,861.5,699.4414" style="stroke:#181818;stroke-width:1.0;"/><text fill="#000000" font-family="sans-serif" font-size="13" font-weight="bold" lengthAdjust="spacing" textLength="14" x="867.5" y="681.1787">14</text><text fill="#000000" font-family="sans-serif" font-size="13" lengthAdjust="spacing" textLength="28" x="885.5" y="681.1787">VFM</text><polygon fill="#181818" points="1238,746.7324,1248,750.7324,1238,754.7324,1242,750.7324" style="stroke:#181818;stroke-width:1.0;"/><line style="stroke:#181818;stroke-width:1.0;" x1="855.5" x2="1244" y1="750.7324" y2="750.7324"/><text fill="#000000" font-family="sans-serif" font-size="13" font-weight="bold" lengthAdjust="spacing" textLength="14" x="862.5" y="745.4697">15</text><text fill="#000000" font-family="sans-serif" font-size="13" lengthAdjust="spacing" textLength="342" x="880.5" y="745.4697">registerMaintenance(plateID, currentKm, maintenanceDate)</text><rect fill="none" height="43.252" style="stroke:#000000;stroke-width:1.5;" width="138" x="1186" y="758.7324"/><path d="M1186,758.7324 L1248,758.7324 L1248,767.7324 L1238,777.7324 L1186,777.7324 L1186,758.7324 " fill="#EEEEEE" style="stroke:#000000;stroke-width:2.0;"/><text fill="#000000" font-family="sans-serif" font-size="13" font-weight="bold" lengthAdjust="spacing" textLength="17" x="1199" y="774.7607">ref</text><text fill="#000000" font-family="sans-serif" font-size="12" lengthAdjust="spacing" textLength="113" x="1198.5" y="794.6816">Register Maintenace</text><polygon fill="#181818" points="91.5,826.2754,81.5,830.2754,91.5,834.2754,87.5,830.2754" style="stroke:#181818;stroke-width:1.0;"/><line style="stroke:#181818;stroke-width:1.0;stroke-dasharray:2.0,2.0;" x1="85.5" x2="520.5" y1="830.2754" y2="830.2754"/><text fill="#000000" font-family="sans-serif" font-size="13" font-weight="bold" lengthAdjust="spacing" textLength="14" x="97.5" y="825.0127">16</text><text fill="#000000" font-family="sans-serif" font-size="13" lengthAdjust="spacing" textLength="158" x="115.5" y="825.0127">displays operation success</text><!--SRC=[fLLDJ-Cm4BtxLuouj4LXVq0FI8YFLGNTHGLwuk8wqzOYiOFjbAt4Zz-ndUQhMOgqERNsp9itR-ObzasgWXkUGwwL5bkZSmHdIcIslYcuUECRV7Bx3C6WS5njidQ0tV9KVqYrWJNFB3B6IwTLcQ_GC3RQoXHXhRLRwJ-C2wSDd2rnAmMXSPN2xNifYnoLUrLt6QA3ELTKpfm1jx2ycpCgugIG1LSEpgOBt4ZhqCovL0uLLm9VPY7sPNOwz5ehPtIMLV3Npuk7ewH2Mqai9TeGKn_idwHld5hxxnJJodXLnm2F3rVFtOnTLAn1fhHb_onAjkXcLb7nxdPs_VBmc_avo1rt60HcK3tq1oukIKYOKlIR1QTfu554u51n65d86qKX9PW6eWQcQR0Hj1v2lI3mgviveHjyBz4wwxCvZ0skqI2X9P2Y5KOMJcgL04YrrYRd6Rogxer3iLLIq4tdE2qDZx-4jcx2sWH6mg1d5eRUPtOPZi_FYLiCwqJKNOLSOWjwHvA4VpzfPIkDBKELTX9xZqy8AWI9TuUiBp9IxDPcR41JFxSfsL1_MCXeMg3NDJYCLtjmMvG6Yip3H6DEWlSEGxQOaQz1A_p11YhxMVRt8wROGnrsDFo1PgBGomMbRz0zUZg_0flnP2YyMT85-qgZG6rnf6iB_rHsgzT3hOwqlNKLfQ5jTN2V1nNxReZDdD3FxGkCUF-MRc2yFCiY2L-ufYMqMaloYL_zxnIluhzJFneZQD1zcmeSnuMQtIImCiGdeOz8YbaIUal8ihLESnluUd7yRhO4cx1XZx5XwzHiQ7-eeJlwNZsXjTJsy0h1Dz6xbkxV1elJYx9_xjr-QhKQprVCXu2-y7lxylFpamrfibmSZqSTvkF7KmtYFa_Qsj_Kkphak5eI-dtuaa8p_ADNNREiKqYbfTfx2xh0-486Mmf1anhQphRxI9o_]--></g></svg>