<?xml version="1.0" encoding="us-ascii" standalone="no"?><svg xmlns="http://www.w3.org/2000/svg" xmlns:xlink="http://www.w3.org/1999/xlink" contentStyleType="text/css" height="397px" preserveAspectRatio="none" style="width:674px;height:397px;background:#FFFFFF;" version="1.1" viewBox="0 0 674 397" width="674px" zoomAndPan="magnify"><defs/><g><rect fill="#FFFFFF" height="215.4063" style="stroke:#181818;stroke-width:1.0;" width="10" x="252" y="107.8242"/><rect fill="#FFFFFF" height="42.291" style="stroke:#181818;stroke-width:1.0;" width="10" x="257" y="235.6484"/><rect fill="none" height="170.1152" style="stroke:#000000;stroke-width:1.5;" width="470" x="198" y="122.8242"/><line style="stroke:#181818;stroke-width:0.5;stroke-dasharray:5.0,5.0;" x1="257" x2="257" y1="57.2422" y2="341.2305"/><line style="stroke:#181818;stroke-width:0.5;stroke-dasharray:5.0,5.0;" x1="593" x2="593" y1="183.2363" y2="341.2305"/><rect fill="#E3E3E3" height="51.2422" rx="2.5" ry="2.5" style="stroke:#181818;stroke-width:0.5;" width="98" x="208" y="5"/><text fill="#000000" font-family="sans-serif" font-size="14" lengthAdjust="spacing" textLength="77" x="218.5" y="27.1074">organization</text><text fill="#000000" font-family="sans-serif" font-size="14" lengthAdjust="spacing" textLength="84" x="215" y="45.7285">:Organization</text><rect fill="#E3E3E3" height="51.2422" rx="2.5" ry="2.5" style="stroke:#181818;stroke-width:0.5;" width="98" x="208" y="340.2305"/><text fill="#000000" font-family="sans-serif" font-size="14" lengthAdjust="spacing" textLength="77" x="218.5" y="362.3379">organization</text><text fill="#000000" font-family="sans-serif" font-size="14" lengthAdjust="spacing" textLength="84" x="215" y="380.959">:Organization</text><rect fill="#E3E3E3" height="51.2422" rx="2.5" ry="2.5" style="stroke:#181818;stroke-width:0.5;" width="129" x="529" y="340.2305"/><text fill="#000000" font-family="sans-serif" font-size="14" lengthAdjust="spacing" textLength="111" x="538" y="362.3379">maintenanceDate</text><text fill="#000000" font-family="sans-serif" font-size="14" lengthAdjust="spacing" textLength="115" x="536" y="380.959">:MaintenanceDate</text><rect fill="#FFFFFF" height="215.4063" style="stroke:#181818;stroke-width:1.0;" width="10" x="252" y="107.8242"/><rect fill="#FFFFFF" height="42.291" style="stroke:#181818;stroke-width:1.0;" width="10" x="257" y="235.6484"/><polygon fill="#181818" points="240,103.8242,250,107.8242,240,111.8242,244,107.8242" style="stroke:#181818;stroke-width:1.0;"/><line style="stroke:#181818;stroke-width:1.0;" x1="0" x2="246" y1="107.8242" y2="107.8242"/><text fill="#000000" font-family="sans-serif" font-size="13" font-weight="bold" lengthAdjust="spacing" textLength="7" x="7" y="93.916">8</text><text fill="#000000" font-family="sans-serif" font-size="13" lengthAdjust="spacing" textLength="218" x="18" y="85.2705">createMaintenanceDate(plateNumber,</text><text fill="#000000" font-family="sans-serif" font-size="13" lengthAdjust="spacing" textLength="221" x="18" y="102.5615">current KMs and date of maintenance)</text><path d="M198,122.8242 L404,122.8242 L404,132.1152 L394,142.1152 L198,142.1152 L198,122.8242 " fill="#EEEEEE" style="stroke:#000000;stroke-width:1.5;"/><rect fill="none" height="170.1152" style="stroke:#000000;stroke-width:1.5;" width="470" x="198" y="122.8242"/><text fill="#000000" font-family="sans-serif" font-size="13" font-weight="bold" lengthAdjust="spacing" textLength="161" x="213" y="137.8525">Create Maintenance Date</text><polygon fill="#181818" points="517,178.6973,527,182.6973,517,186.6973,521,182.6973" style="stroke:#181818;stroke-width:1.0;"/><line style="stroke:#181818;stroke-width:1.0;" x1="262" x2="523" y1="182.6973" y2="182.6973"/><text fill="#000000" font-family="sans-serif" font-size="13" font-weight="bold" lengthAdjust="spacing" textLength="18" x="269" y="168.7891">8.1</text><text fill="#000000" font-family="sans-serif" font-size="13" lengthAdjust="spacing" textLength="188" x="291" y="160.1436">createMaintenanceDate(Vehicle,</text><text fill="#000000" font-family="sans-serif" font-size="13" lengthAdjust="spacing" textLength="221" x="291" y="177.4346">current KMs and date of maintenance)</text><rect fill="#E3E3E3" height="51.2422" rx="2.5" ry="2.5" style="stroke:#181818;stroke-width:0.5;" width="129" x="529" y="142.1152"/><text fill="#000000" font-family="sans-serif" font-size="14" lengthAdjust="spacing" textLength="111" x="538" y="164.2227">maintenanceDate</text><text fill="#000000" font-family="sans-serif" font-size="14" lengthAdjust="spacing" textLength="115" x="536" y="182.8438">:MaintenanceDate</text><line style="stroke:#181818;stroke-width:1.0;" x1="262" x2="309" y1="222.6484" y2="222.6484"/><line style="stroke:#181818;stroke-width:1.0;" x1="309" x2="309" y1="222.6484" y2="235.6484"/><line style="stroke:#181818;stroke-width:1.0;" x1="268" x2="309" y1="235.6484" y2="235.6484"/><polygon fill="#181818" points="278,231.6484,268,235.6484,278,239.6484,274,235.6484" style="stroke:#181818;stroke-width:1.0;"/><text fill="#000000" font-family="sans-serif" font-size="13" font-weight="bold" lengthAdjust="spacing" textLength="18" x="274" y="217.3857">8.2</text><text fill="#000000" font-family="sans-serif" font-size="13" lengthAdjust="spacing" textLength="231" x="296" y="217.3857">addMaintenanceDate(maintenanceDate)</text><line style="stroke:#181818;stroke-width:1.0;" x1="267" x2="309" y1="276.9395" y2="276.9395"/><line style="stroke:#181818;stroke-width:1.0;" x1="309" x2="309" y1="276.9395" y2="289.9395"/><line style="stroke:#181818;stroke-width:1.0;" x1="262" x2="309" y1="289.9395" y2="289.9395"/><polygon fill="#181818" points="272,285.9395,262,289.9395,272,293.9395,268,289.9395" style="stroke:#181818;stroke-width:1.0;"/><text fill="#000000" font-family="sans-serif" font-size="13" font-weight="bold" lengthAdjust="spacing" textLength="18" x="274" y="271.6768">8.3</text><text fill="#000000" font-family="sans-serif" font-size="13" lengthAdjust="spacing" textLength="253" x="296" y="271.6768">validateMaintenanceDate(maintenanceDate)</text><polygon fill="#181818" points="11,319.2305,1,323.2305,11,327.2305,7,323.2305" style="stroke:#181818;stroke-width:1.0;"/><line style="stroke:#181818;stroke-width:1.0;stroke-dasharray:2.0,2.0;" x1="5" x2="256" y1="323.2305" y2="323.2305"/><text fill="#000000" font-family="sans-serif" font-size="13" font-weight="bold" lengthAdjust="spacing" textLength="7" x="17" y="317.9678">9</text><text fill="#000000" font-family="sans-serif" font-size="13" lengthAdjust="spacing" textLength="101" x="28" y="317.9678">maintenanceDate</text><!--SRC=[ZL7DIWCn4BxdAOQUjBY2DoqYY1KFKWigddePa-bkQ7QoPBCLVNgJ54esjSKvX6Jo_KtIRpHtwB25rhALZRCjWNS3YNv_qw7SO4rl_jiGE98UkJOve6zGsI_DDQpHz2H4Q7ijTOViOM9TZQn_q6lBAvuji-C4i8VbwzEOqA9cJumiQOwU0cSnxYJQ_FxzKU3WBG_j9pcu5jLTr9g1T1H01UUiCs5zITWBMB4SdAFWzhpe0Lc12hTWrv2PdukH_kMLGEdrDW9ZPWXLEpjqy90C8NE4Q2aI95Q0GqWN8q-dnm9-KAEbeN-7AyJJwAXKALkyPXXgpophOBnZbLjkqMZrnpW7lgS45OsyTn69rMwJ_S9DQjnMLSemWy95b4A_]--></g></svg>