<?xml version="1.0" encoding="us-ascii" standalone="no"?><svg xmlns="http://www.w3.org/2000/svg" xmlns:xlink="http://www.w3.org/1999/xlink" contentStyleType="text/css" height="632px" preserveAspectRatio="none" style="width:2123px;height:632px;background:#FFFFFF;" version="1.1" viewBox="0 0 2123 632" width="2123px" zoomAndPan="magnify"><defs/><g><!--class VehicleFleetManager--><g id="elem_VehicleFleetManager"><rect codeLine="8" fill="#F1F1F1" height="103.8633" id="VehicleFleetManager" rx="2.5" ry="2.5" style="stroke:#181818;stroke-width:0.5;" width="166" x="541" y="7"/><ellipse cx="556" cy="23" fill="#ADD1B2" rx="11" ry="11" style="stroke:#181818;stroke-width:1.0;"/><path d="M558.7656,18.875 Q558.9219,18.6563 559.1094,18.5469 Q559.2969,18.4375 559.5156,18.4375 Q559.8906,18.4375 560.125,18.7031 Q560.3594,18.9531 560.3594,19.5625 L560.3594,21.0156 Q560.3594,21.625 560.125,21.8906 Q559.8906,22.1563 559.5156,22.1563 Q559.1719,22.1563 558.9688,21.9531 Q558.7656,21.7656 558.6563,21.25 Q558.6094,20.8906 558.4219,20.7031 Q558.0938,20.3281 557.4844,20.1094 Q556.875,19.8906 556.25,19.8906 Q555.4844,19.8906 554.8438,20.2188 Q554.2188,20.5469 553.7188,21.2969 Q553.2344,22.0469 553.2344,23.0781 L553.2344,24.1719 Q553.2344,25.4063 554.125,26.2344 Q555.0156,27.0469 556.6094,27.0469 Q557.5469,27.0469 558.2031,26.7969 Q558.5938,26.6406 559.0156,26.2031 Q559.2813,25.9375 559.4219,25.8594 Q559.5781,25.7813 559.7813,25.7813 Q560.1094,25.7813 560.3594,26.0469 Q560.625,26.2969 560.625,26.6406 Q560.625,26.9844 560.2813,27.3906 Q559.7813,27.9688 558.9844,28.2969 Q557.9063,28.75 556.6094,28.75 Q555.0938,28.75 553.8906,28.125 Q552.9063,27.625 552.2188,26.5625 Q551.5313,25.4844 551.5313,24.2031 L551.5313,23.0469 Q551.5313,21.7188 552.1406,20.5781 Q552.7656,19.4219 553.8594,18.8125 Q554.9531,18.1875 556.1875,18.1875 Q556.9219,18.1875 557.5625,18.3594 Q558.2188,18.5156 558.7656,18.875 Z " fill="#000000"/><text fill="#000000" font-family="sans-serif" font-size="14" lengthAdjust="spacing" textLength="134" x="570" y="28.7969">VehicleFleetManager</text><line style="stroke:#181818;stroke-width:0.5;" x1="542" x2="706" y1="39" y2="39"/><rect fill="none" height="6" style="stroke:#C82930;stroke-width:1.0;" width="6" x="549" y="50.8105"/><text fill="#000000" font-family="sans-serif" font-size="14" lengthAdjust="spacing" textLength="76" x="561" y="58.1074">String name</text><rect fill="none" height="6" style="stroke:#C82930;stroke-width:1.0;" width="6" x="549" y="69.4316"/><text fill="#000000" font-family="sans-serif" font-size="14" lengthAdjust="spacing" textLength="74" x="561" y="76.7285">String email</text><rect fill="none" height="6" style="stroke:#C82930;stroke-width:1.0;" width="6" x="549" y="88.0527"/><text fill="#000000" font-family="sans-serif" font-size="14" lengthAdjust="spacing" textLength="81" x="561" y="95.3496">String phone</text><line style="stroke:#181818;stroke-width:0.5;" x1="542" x2="706" y1="102.8633" y2="102.8633"/></g><!--class Vehicle--><g id="elem_Vehicle"><rect codeLine="14" fill="#F1F1F1" height="252.832" id="Vehicle" rx="2.5" ry="2.5" style="stroke:#181818;stroke-width:0.5;" width="227" x="499.5" y="373"/><ellipse cx="585.75" cy="389" fill="#ADD1B2" rx="11" ry="11" style="stroke:#181818;stroke-width:1.0;"/><path d="M588.5156,384.875 Q588.6719,384.6563 588.8594,384.5469 Q589.0469,384.4375 589.2656,384.4375 Q589.6406,384.4375 589.875,384.7031 Q590.1094,384.9531 590.1094,385.5625 L590.1094,387.0156 Q590.1094,387.625 589.875,387.8906 Q589.6406,388.1563 589.2656,388.1563 Q588.9219,388.1563 588.7188,387.9531 Q588.5156,387.7656 588.4063,387.25 Q588.3594,386.8906 588.1719,386.7031 Q587.8438,386.3281 587.2344,386.1094 Q586.625,385.8906 586,385.8906 Q585.2344,385.8906 584.5938,386.2188 Q583.9688,386.5469 583.4688,387.2969 Q582.9844,388.0469 582.9844,389.0781 L582.9844,390.1719 Q582.9844,391.4063 583.875,392.2344 Q584.7656,393.0469 586.3594,393.0469 Q587.2969,393.0469 587.9531,392.7969 Q588.3438,392.6406 588.7656,392.2031 Q589.0313,391.9375 589.1719,391.8594 Q589.3281,391.7813 589.5313,391.7813 Q589.8594,391.7813 590.1094,392.0469 Q590.375,392.2969 590.375,392.6406 Q590.375,392.9844 590.0313,393.3906 Q589.5313,393.9688 588.7344,394.2969 Q587.6563,394.75 586.3594,394.75 Q584.8438,394.75 583.6406,394.125 Q582.6563,393.625 581.9688,392.5625 Q581.2813,391.4844 581.2813,390.2031 L581.2813,389.0469 Q581.2813,387.7188 581.8906,386.5781 Q582.5156,385.4219 583.6094,384.8125 Q584.7031,384.1875 585.9375,384.1875 Q586.6719,384.1875 587.3125,384.3594 Q587.9688,384.5156 588.5156,384.875 Z " fill="#000000"/><text fill="#000000" font-family="sans-serif" font-size="14" lengthAdjust="spacing" textLength="46" x="606.25" y="394.7969">Vehicle</text><line style="stroke:#181818;stroke-width:0.5;" x1="500.5" x2="725.5" y1="405" y2="405"/><rect fill="none" height="6" style="stroke:#C82930;stroke-width:1.0;" width="6" x="507.5" y="416.8105"/><text fill="#000000" font-family="sans-serif" font-size="14" lengthAdjust="spacing" textLength="78" x="519.5" y="424.1074">String brand</text><rect fill="none" height="6" style="stroke:#C82930;stroke-width:1.0;" width="6" x="507.5" y="435.4316"/><text fill="#000000" font-family="sans-serif" font-size="14" lengthAdjust="spacing" textLength="79" x="519.5" y="442.7285">String model</text><rect fill="none" height="6" style="stroke:#C82930;stroke-width:1.0;" width="6" x="507.5" y="454.0527"/><text fill="#000000" font-family="sans-serif" font-size="14" lengthAdjust="spacing" textLength="68" x="519.5" y="461.3496">String type</text><rect fill="none" height="6" style="stroke:#C82930;stroke-width:1.0;" width="6" x="507.5" y="472.6738"/><text fill="#000000" font-family="sans-serif" font-size="14" lengthAdjust="spacing" textLength="118" x="519.5" y="479.9707">Double tareWeight</text><rect fill="none" height="6" style="stroke:#C82930;stroke-width:1.0;" width="6" x="507.5" y="491.2949"/><text fill="#000000" font-family="sans-serif" font-size="14" lengthAdjust="spacing" textLength="128" x="519.5" y="498.5918">Double grossWeight</text><rect fill="none" height="6" style="stroke:#C82930;stroke-width:1.0;" width="6" x="507.5" y="509.916"/><text fill="#000000" font-family="sans-serif" font-size="14" lengthAdjust="spacing" textLength="84" x="519.5" y="517.2129">Int currentKm</text><rect fill="none" height="6" style="stroke:#C82930;stroke-width:1.0;" width="6" x="507.5" y="528.5371"/><text fill="#000000" font-family="sans-serif" font-size="14" lengthAdjust="spacing" textLength="146" x="519.5" y="535.834">LocalDate registerDate</text><rect fill="none" height="6" style="stroke:#C82930;stroke-width:1.0;" width="6" x="507.5" y="547.1582"/><text fill="#000000" font-family="sans-serif" font-size="14" lengthAdjust="spacing" textLength="165" x="519.5" y="554.4551">LocalDate acquisitionDate</text><rect fill="none" height="6" style="stroke:#C82930;stroke-width:1.0;" width="6" x="507.5" y="565.7793"/><text fill="#000000" font-family="sans-serif" font-size="14" lengthAdjust="spacing" textLength="168" x="519.5" y="573.0762">Int maintenanceFrequency</text><rect fill="none" height="6" style="stroke:#C82930;stroke-width:1.0;" width="6" x="507.5" y="584.4004"/><text fill="#000000" font-family="sans-serif" font-size="14" lengthAdjust="spacing" textLength="108" x="519.5" y="591.6973">String plateName</text><rect fill="none" height="6" style="stroke:#C82930;stroke-width:1.0;" width="6" x="507.5" y="603.0215"/><text fill="#000000" font-family="sans-serif" font-size="14" lengthAdjust="spacing" textLength="201" x="519.5" y="610.3184">LocalDate lastMaintenanceDate</text><line style="stroke:#181818;stroke-width:0.5;" x1="500.5" x2="725.5" y1="617.832" y2="617.832"/></g><!--class Organization--><g id="elem_Organization"><rect codeLine="28" fill="#F1F1F1" height="178.3477" id="Organization" rx="2.5" ry="2.5" style="stroke:#181818;stroke-width:0.5;" width="200" x="233" y="410.5"/><ellipse cx="288.75" cy="426.5" fill="#ADD1B2" rx="11" ry="11" style="stroke:#181818;stroke-width:1.0;"/><path d="M291.5156,422.375 Q291.6719,422.1563 291.8594,422.0469 Q292.0469,421.9375 292.2656,421.9375 Q292.6406,421.9375 292.875,422.2031 Q293.1094,422.4531 293.1094,423.0625 L293.1094,424.5156 Q293.1094,425.125 292.875,425.3906 Q292.6406,425.6563 292.2656,425.6563 Q291.9219,425.6563 291.7188,425.4531 Q291.5156,425.2656 291.4063,424.75 Q291.3594,424.3906 291.1719,424.2031 Q290.8438,423.8281 290.2344,423.6094 Q289.625,423.3906 289,423.3906 Q288.2344,423.3906 287.5938,423.7188 Q286.9688,424.0469 286.4688,424.7969 Q285.9844,425.5469 285.9844,426.5781 L285.9844,427.6719 Q285.9844,428.9063 286.875,429.7344 Q287.7656,430.5469 289.3594,430.5469 Q290.2969,430.5469 290.9531,430.2969 Q291.3438,430.1406 291.7656,429.7031 Q292.0313,429.4375 292.1719,429.3594 Q292.3281,429.2813 292.5313,429.2813 Q292.8594,429.2813 293.1094,429.5469 Q293.375,429.7969 293.375,430.1406 Q293.375,430.4844 293.0313,430.8906 Q292.5313,431.4688 291.7344,431.7969 Q290.6563,432.25 289.3594,432.25 Q287.8438,432.25 286.6406,431.625 Q285.6563,431.125 284.9688,430.0625 Q284.2813,428.9844 284.2813,427.7031 L284.2813,426.5469 Q284.2813,425.2188 284.8906,424.0781 Q285.5156,422.9219 286.6094,422.3125 Q287.7031,421.6875 288.9375,421.6875 Q289.6719,421.6875 290.3125,421.8594 Q290.9688,422.0156 291.5156,422.375 Z " fill="#000000"/><text fill="#000000" font-family="sans-serif" font-size="14" lengthAdjust="spacing" textLength="80" x="309.25" y="432.2969">Organization</text><line style="stroke:#181818;stroke-width:0.5;" x1="234" x2="432" y1="442.5" y2="442.5"/><rect fill="none" height="6" style="stroke:#C82930;stroke-width:1.0;" width="6" x="241" y="454.3105"/><text fill="#000000" font-family="sans-serif" font-size="14" lengthAdjust="spacing" textLength="76" x="253" y="461.6074">String name</text><rect fill="none" height="6" style="stroke:#C82930;stroke-width:1.0;" width="6" x="241" y="472.9316"/><text fill="#000000" font-family="sans-serif" font-size="14" lengthAdjust="spacing" textLength="109" x="253" y="480.2285">String vatNumber</text><rect fill="none" height="6" style="stroke:#C82930;stroke-width:1.0;" width="6" x="241" y="491.5527"/><text fill="#000000" font-family="sans-serif" font-size="14" lengthAdjust="spacing" textLength="92" x="253" y="498.8496">String address</text><rect fill="none" height="6" style="stroke:#C82930;stroke-width:1.0;" width="6" x="241" y="510.1738"/><text fill="#000000" font-family="sans-serif" font-size="14" lengthAdjust="spacing" textLength="81" x="253" y="517.4707">String phone</text><rect fill="none" height="6" style="stroke:#C82930;stroke-width:1.0;" width="6" x="241" y="528.7949"/><text fill="#000000" font-family="sans-serif" font-size="14" lengthAdjust="spacing" textLength="74" x="253" y="536.0918">String email</text><rect fill="none" height="6" style="stroke:#C82930;stroke-width:1.0;" width="6" x="241" y="547.416"/><text fill="#000000" font-family="sans-serif" font-size="14" lengthAdjust="spacing" textLength="139" x="253" y="554.7129">List&lt;Vehicle&gt; vehicles</text><line style="stroke:#181818;stroke-width:0.5;" x1="234" x2="432" y1="562.2266" y2="562.2266"/><ellipse cx="244" cy="577.0371" fill="#84BE84" rx="3" ry="3" style="stroke:#038048;stroke-width:1.0;"/><text fill="#000000" font-family="sans-serif" font-size="14" lengthAdjust="spacing" textLength="174" x="253" y="581.334">addVehicle(Vehicle vehicle)</text></g><!--class OrganizationRepository--><g id="elem_OrganizationRepository"><rect codeLine="38" fill="#F1F1F1" height="103.8633" id="OrganizationRepository" rx="2.5" ry="2.5" style="stroke:#181818;stroke-width:0.5;" width="338" x="742" y="7"/><ellipse cx="832.75" cy="23" fill="#ADD1B2" rx="11" ry="11" style="stroke:#181818;stroke-width:1.0;"/><path d="M835.5156,18.875 Q835.6719,18.6563 835.8594,18.5469 Q836.0469,18.4375 836.2656,18.4375 Q836.6406,18.4375 836.875,18.7031 Q837.1094,18.9531 837.1094,19.5625 L837.1094,21.0156 Q837.1094,21.625 836.875,21.8906 Q836.6406,22.1563 836.2656,22.1563 Q835.9219,22.1563 835.7188,21.9531 Q835.5156,21.7656 835.4063,21.25 Q835.3594,20.8906 835.1719,20.7031 Q834.8438,20.3281 834.2344,20.1094 Q833.625,19.8906 833,19.8906 Q832.2344,19.8906 831.5938,20.2188 Q830.9688,20.5469 830.4688,21.2969 Q829.9844,22.0469 829.9844,23.0781 L829.9844,24.1719 Q829.9844,25.4063 830.875,26.2344 Q831.7656,27.0469 833.3594,27.0469 Q834.2969,27.0469 834.9531,26.7969 Q835.3438,26.6406 835.7656,26.2031 Q836.0313,25.9375 836.1719,25.8594 Q836.3281,25.7813 836.5313,25.7813 Q836.8594,25.7813 837.1094,26.0469 Q837.375,26.2969 837.375,26.6406 Q837.375,26.9844 837.0313,27.3906 Q836.5313,27.9688 835.7344,28.2969 Q834.6563,28.75 833.3594,28.75 Q831.8438,28.75 830.6406,28.125 Q829.6563,27.625 828.9688,26.5625 Q828.2813,25.4844 828.2813,24.2031 L828.2813,23.0469 Q828.2813,21.7188 828.8906,20.5781 Q829.5156,19.4219 830.6094,18.8125 Q831.7031,18.1875 832.9375,18.1875 Q833.6719,18.1875 834.3125,18.3594 Q834.9688,18.5156 835.5156,18.875 Z " fill="#000000"/><text fill="#000000" font-family="sans-serif" font-size="14" lengthAdjust="spacing" textLength="148" x="853.25" y="28.7969">OrganizationRepository</text><line style="stroke:#181818;stroke-width:0.5;" x1="743" x2="1079" y1="39" y2="39"/><line style="stroke:#181818;stroke-width:0.5;" x1="743" x2="1079" y1="47" y2="47"/><ellipse cx="753" cy="61.8105" fill="#84BE84" rx="3" ry="3" style="stroke:#038048;stroke-width:1.0;"/><text fill="#000000" font-family="sans-serif" font-size="14" lengthAdjust="spacing" textLength="256" x="762" y="66.1074">boolean save(Organization organization)</text><ellipse cx="753" cy="80.4316" fill="#84BE84" rx="3" ry="3" style="stroke:#038048;stroke-width:1.0;"/><text fill="#000000" font-family="sans-serif" font-size="14" lengthAdjust="spacing" textLength="245" x="762" y="84.7285">Organization findByName(String name)</text><ellipse cx="753" cy="99.0527" fill="#84BE84" rx="3" ry="3" style="stroke:#038048;stroke-width:1.0;"/><text fill="#000000" font-family="sans-serif" font-size="14" lengthAdjust="spacing" textLength="312" x="762" y="103.3496">Organization findByVatNumber(String vatNumber)</text></g><!--class Repositories--><g id="elem_Repositories"><rect codeLine="44" fill="#F1F1F1" height="103.8633" id="Repositories" rx="2.5" ry="2.5" style="stroke:#181818;stroke-width:0.5;" width="364" x="1161" y="447.5"/><ellipse cx="1299.25" cy="463.5" fill="#ADD1B2" rx="11" ry="11" style="stroke:#181818;stroke-width:1.0;"/><path d="M1302.0156,459.375 Q1302.1719,459.1563 1302.3594,459.0469 Q1302.5469,458.9375 1302.7656,458.9375 Q1303.1406,458.9375 1303.375,459.2031 Q1303.6094,459.4531 1303.6094,460.0625 L1303.6094,461.5156 Q1303.6094,462.125 1303.375,462.3906 Q1303.1406,462.6563 1302.7656,462.6563 Q1302.4219,462.6563 1302.2188,462.4531 Q1302.0156,462.2656 1301.9063,461.75 Q1301.8594,461.3906 1301.6719,461.2031 Q1301.3438,460.8281 1300.7344,460.6094 Q1300.125,460.3906 1299.5,460.3906 Q1298.7344,460.3906 1298.0938,460.7188 Q1297.4688,461.0469 1296.9688,461.7969 Q1296.4844,462.5469 1296.4844,463.5781 L1296.4844,464.6719 Q1296.4844,465.9063 1297.375,466.7344 Q1298.2656,467.5469 1299.8594,467.5469 Q1300.7969,467.5469 1301.4531,467.2969 Q1301.8438,467.1406 1302.2656,466.7031 Q1302.5313,466.4375 1302.6719,466.3594 Q1302.8281,466.2813 1303.0313,466.2813 Q1303.3594,466.2813 1303.6094,466.5469 Q1303.875,466.7969 1303.875,467.1406 Q1303.875,467.4844 1303.5313,467.8906 Q1303.0313,468.4688 1302.2344,468.7969 Q1301.1563,469.25 1299.8594,469.25 Q1298.3438,469.25 1297.1406,468.625 Q1296.1563,468.125 1295.4688,467.0625 Q1294.7813,465.9844 1294.7813,464.7031 L1294.7813,463.5469 Q1294.7813,462.2188 1295.3906,461.0781 Q1296.0156,459.9219 1297.1094,459.3125 Q1298.2031,458.6875 1299.4375,458.6875 Q1300.1719,458.6875 1300.8125,458.8594 Q1301.4688,459.0156 1302.0156,459.375 Z " fill="#000000"/><text fill="#000000" font-family="sans-serif" font-size="14" lengthAdjust="spacing" textLength="79" x="1319.75" y="469.2969">Repositories</text><line style="stroke:#181818;stroke-width:0.5;" x1="1162" x2="1524" y1="479.5" y2="479.5"/><line style="stroke:#181818;stroke-width:0.5;" x1="1162" x2="1524" y1="487.5" y2="487.5"/><ellipse cx="1172" cy="502.3105" fill="#84BE84" rx="3" ry="3" style="stroke:#038048;stroke-width:1.0;"/><text fill="#000000" font-family="sans-serif" font-size="14" lengthAdjust="spacing" textLength="174" x="1181" y="506.6074">getInstance() : Repositories</text><ellipse cx="1172" cy="520.9316" fill="#84BE84" rx="3" ry="3" style="stroke:#038048;stroke-width:1.0;"/><text fill="#000000" font-family="sans-serif" font-size="14" lengthAdjust="spacing" textLength="270" x="1181" y="525.2285">getVehicleRepository() : VehicleRepository</text><ellipse cx="1172" cy="539.5527" fill="#84BE84" rx="3" ry="3" style="stroke:#038048;stroke-width:1.0;"/><text fill="#000000" font-family="sans-serif" font-size="14" lengthAdjust="spacing" textLength="338" x="1181" y="543.8496">getOrganizationRepository() : OrganizationRepository</text></g><!--class RegisterMaintenanceController--><g id="elem_RegisterMaintenanceController"><rect codeLine="50" fill="#F1F1F1" height="85.2422" id="RegisterMaintenanceController" rx="2.5" ry="2.5" style="stroke:#181818;stroke-width:0.5;" width="690" x="998" y="199.5"/><ellipse cx="1240.75" cy="215.5" fill="#ADD1B2" rx="11" ry="11" style="stroke:#181818;stroke-width:1.0;"/><path d="M1243.5156,211.375 Q1243.6719,211.1563 1243.8594,211.0469 Q1244.0469,210.9375 1244.2656,210.9375 Q1244.6406,210.9375 1244.875,211.2031 Q1245.1094,211.4531 1245.1094,212.0625 L1245.1094,213.5156 Q1245.1094,214.125 1244.875,214.3906 Q1244.6406,214.6563 1244.2656,214.6563 Q1243.9219,214.6563 1243.7188,214.4531 Q1243.5156,214.2656 1243.4063,213.75 Q1243.3594,213.3906 1243.1719,213.2031 Q1242.8438,212.8281 1242.2344,212.6094 Q1241.625,212.3906 1241,212.3906 Q1240.2344,212.3906 1239.5938,212.7188 Q1238.9688,213.0469 1238.4688,213.7969 Q1237.9844,214.5469 1237.9844,215.5781 L1237.9844,216.6719 Q1237.9844,217.9063 1238.875,218.7344 Q1239.7656,219.5469 1241.3594,219.5469 Q1242.2969,219.5469 1242.9531,219.2969 Q1243.3438,219.1406 1243.7656,218.7031 Q1244.0313,218.4375 1244.1719,218.3594 Q1244.3281,218.2813 1244.5313,218.2813 Q1244.8594,218.2813 1245.1094,218.5469 Q1245.375,218.7969 1245.375,219.1406 Q1245.375,219.4844 1245.0313,219.8906 Q1244.5313,220.4688 1243.7344,220.7969 Q1242.6563,221.25 1241.3594,221.25 Q1239.8438,221.25 1238.6406,220.625 Q1237.6563,220.125 1236.9688,219.0625 Q1236.2813,217.9844 1236.2813,216.7031 L1236.2813,215.5469 Q1236.2813,214.2188 1236.8906,213.0781 Q1237.5156,211.9219 1238.6094,211.3125 Q1239.7031,210.6875 1240.9375,210.6875 Q1241.6719,210.6875 1242.3125,210.8594 Q1242.9688,211.0156 1243.5156,211.375 Z " fill="#000000"/><text fill="#000000" font-family="sans-serif" font-size="14" lengthAdjust="spacing" textLength="196" x="1261.25" y="221.2969">RegisterMaintenanceController</text><line style="stroke:#181818;stroke-width:0.5;" x1="999" x2="1687" y1="231.5" y2="231.5"/><line style="stroke:#181818;stroke-width:0.5;" x1="999" x2="1687" y1="239.5" y2="239.5"/><ellipse cx="1009" cy="254.3105" fill="#84BE84" rx="3" ry="3" style="stroke:#038048;stroke-width:1.0;"/><text fill="#000000" font-family="sans-serif" font-size="14" lengthAdjust="spacing" textLength="367" x="1018" y="258.6074">RegisterMaintenanceController(repositories: Repositories)</text><ellipse cx="1009" cy="272.9316" fill="#84BE84" rx="3" ry="3" style="stroke:#038048;stroke-width:1.0;"/><text fill="#000000" font-family="sans-serif" font-size="14" lengthAdjust="spacing" textLength="664" x="1018" y="277.2285">Optional&lt;Boolean&gt; registerMaintenance(String plateNumber, int currentKm, LocalDate maintenanceDate)</text></g><!--class RegisterMaintenanceUI--><g id="elem_RegisterMaintenanceUI"><rect codeLine="55" fill="#F1F1F1" height="103.8633" id="RegisterMaintenanceUI" rx="2.5" ry="2.5" style="stroke:#181818;stroke-width:0.5;" width="517" x="365.5" y="190"/><ellipse cx="546.75" cy="206" fill="#ADD1B2" rx="11" ry="11" style="stroke:#181818;stroke-width:1.0;"/><path d="M549.5156,201.875 Q549.6719,201.6563 549.8594,201.5469 Q550.0469,201.4375 550.2656,201.4375 Q550.6406,201.4375 550.875,201.7031 Q551.1094,201.9531 551.1094,202.5625 L551.1094,204.0156 Q551.1094,204.625 550.875,204.8906 Q550.6406,205.1563 550.2656,205.1563 Q549.9219,205.1563 549.7188,204.9531 Q549.5156,204.7656 549.4063,204.25 Q549.3594,203.8906 549.1719,203.7031 Q548.8438,203.3281 548.2344,203.1094 Q547.625,202.8906 547,202.8906 Q546.2344,202.8906 545.5938,203.2188 Q544.9688,203.5469 544.4688,204.2969 Q543.9844,205.0469 543.9844,206.0781 L543.9844,207.1719 Q543.9844,208.4063 544.875,209.2344 Q545.7656,210.0469 547.3594,210.0469 Q548.2969,210.0469 548.9531,209.7969 Q549.3438,209.6406 549.7656,209.2031 Q550.0313,208.9375 550.1719,208.8594 Q550.3281,208.7813 550.5313,208.7813 Q550.8594,208.7813 551.1094,209.0469 Q551.375,209.2969 551.375,209.6406 Q551.375,209.9844 551.0313,210.3906 Q550.5313,210.9688 549.7344,211.2969 Q548.6563,211.75 547.3594,211.75 Q545.8438,211.75 544.6406,211.125 Q543.6563,210.625 542.9688,209.5625 Q542.2813,208.4844 542.2813,207.2031 L542.2813,206.0469 Q542.2813,204.7188 542.8906,203.5781 Q543.5156,202.4219 544.6094,201.8125 Q545.7031,201.1875 546.9375,201.1875 Q547.6719,201.1875 548.3125,201.3594 Q548.9688,201.5156 549.5156,201.875 Z " fill="#000000"/><text fill="#000000" font-family="sans-serif" font-size="14" lengthAdjust="spacing" textLength="146" x="567.25" y="211.7969">RegisterMaintenanceUI</text><line style="stroke:#181818;stroke-width:0.5;" x1="366.5" x2="881.5" y1="222" y2="222"/><rect fill="none" height="6" style="stroke:#C82930;stroke-width:1.0;" width="6" x="373.5" y="233.8105"/><text fill="#000000" font-family="sans-serif" font-size="14" lengthAdjust="spacing" textLength="259" x="385.5" y="241.1074">RegisterMaintenanceController controller</text><line style="stroke:#181818;stroke-width:0.5;" x1="366.5" x2="881.5" y1="248.6211" y2="248.6211"/><ellipse cx="376.5" cy="263.4316" fill="#84BE84" rx="3" ry="3" style="stroke:#038048;stroke-width:1.0;"/><text fill="#000000" font-family="sans-serif" font-size="14" lengthAdjust="spacing" textLength="168" x="385.5" y="267.7285">displayMaintenanceForm()</text><ellipse cx="376.5" cy="282.0527" fill="#84BE84" rx="3" ry="3" style="stroke:#038048;stroke-width:1.0;"/><text fill="#000000" font-family="sans-serif" font-size="14" lengthAdjust="spacing" textLength="491" x="385.5" y="286.3496">submitMaintenanceForm(Vehicle vehicle, Date maintenanceDate,Double cost)</text></g><g id="elem_GMN9"><path d="M1723.5,219.5 L1723.5,238 L1688.28,242 L1723.5,246 L1723.5,264.082 A0,0 0 0 0 1723.5,264.082 L2116.5,264.082 A0,0 0 0 0 2116.5,264.082 L2116.5,229.5 L2106.5,219.5 L1723.5,219.5 A0,0 0 0 0 1723.5,219.5 " fill="#FEFFDD" style="stroke:#181818;stroke-width:0.5;"/><path d="M2106.5,219.5 L2106.5,229.5 L2116.5,229.5 L2106.5,219.5 " fill="#FEFFDD" style="stroke:#181818;stroke-width:0.5;"/><text fill="#000000" font-family="sans-serif" font-size="13" lengthAdjust="spacing" textLength="323" x="1729.5" y="238.5283">- Maintenance details are obtained from the VFM's input</text><text fill="#000000" font-family="sans-serif" font-size="13" lengthAdjust="spacing" textLength="372" x="1729.5" y="255.8193">- Updates the Vehicle's maintenance records in the Organization</text></g><g id="elem_GMN12"><path d="M6,219.5 L6,264.082 A0,0 0 0 0 6,264.082 L330,264.082 A0,0 0 0 0 330,264.082 L330,246 L365.32,242 L330,238 L330,229.5 L320,219.5 L6,219.5 A0,0 0 0 0 6,219.5 " fill="#FEFFDD" style="stroke:#181818;stroke-width:0.5;"/><path d="M320,219.5 L320,229.5 L330,229.5 L320,219.5 " fill="#FEFFDD" style="stroke:#181818;stroke-width:0.5;"/><text fill="#000000" font-family="sans-serif" font-size="13" lengthAdjust="spacing" textLength="280" x="12" y="238.5283">- UI for VFM to input vehicle maintenance details</text><text fill="#000000" font-family="sans-serif" font-size="13" lengthAdjust="spacing" textLength="303" x="12" y="255.8193">- Communicates with RegisterMaintenanceController</text></g><g id="elem_GMN15"><path d="M762,486 L762,513.291 L1126,513.291 L1126,496 L1116,486 L762,486 " fill="#FEFFDD" style="stroke:#181818;stroke-width:0.5;"/><path d="M1116,486 L1116,496 L1126,496 L1116,486 " fill="#FEFFDD" style="stroke:#181818;stroke-width:1.0;"/><text fill="#000000" font-family="sans-serif" font-size="13" lengthAdjust="spacing" textLength="343" x="768" y="505.0283">- Manages a fleet of vehicles and their maintenance records</text></g><g id="elem_GMN18"><path d="M132,36.5 L132,81.082 L506,81.082 L506,46.5 L496,36.5 L132,36.5 " fill="#FEFFDD" style="stroke:#181818;stroke-width:0.5;"/><path d="M496,36.5 L496,46.5 L506,46.5 L496,36.5 " fill="#FEFFDD" style="stroke:#181818;stroke-width:1.0;"/><text fill="#000000" font-family="sans-serif" font-size="13" lengthAdjust="spacing" textLength="353" x="138" y="55.5283">- Responsible for managing vehicle maintenance registrations</text><text fill="#000000" font-family="sans-serif" font-size="13" lengthAdjust="spacing" textLength="218" x="138" y="72.8193">- Interfaces with the UI and controllers</text></g><!--class Maintenance--><g id="elem_Maintenance"><rect fill="#F1F1F1" height="48" id="Maintenance" rx="2.5" ry="2.5" style="stroke:#181818;stroke-width:0.5;" width="113" x="1560.5" y="475.5"/><ellipse cx="1575.5" cy="491.5" fill="#ADD1B2" rx="11" ry="11" style="stroke:#181818;stroke-width:1.0;"/><path d="M1578.2656,487.375 Q1578.4219,487.1563 1578.6094,487.0469 Q1578.7969,486.9375 1579.0156,486.9375 Q1579.3906,486.9375 1579.625,487.2031 Q1579.8594,487.4531 1579.8594,488.0625 L1579.8594,489.5156 Q1579.8594,490.125 1579.625,490.3906 Q1579.3906,490.6563 1579.0156,490.6563 Q1578.6719,490.6563 1578.4688,490.4531 Q1578.2656,490.2656 1578.1563,489.75 Q1578.1094,489.3906 1577.9219,489.2031 Q1577.5938,488.8281 1576.9844,488.6094 Q1576.375,488.3906 1575.75,488.3906 Q1574.9844,488.3906 1574.3438,488.7188 Q1573.7188,489.0469 1573.2188,489.7969 Q1572.7344,490.5469 1572.7344,491.5781 L1572.7344,492.6719 Q1572.7344,493.9063 1573.625,494.7344 Q1574.5156,495.5469 1576.1094,495.5469 Q1577.0469,495.5469 1577.7031,495.2969 Q1578.0938,495.1406 1578.5156,494.7031 Q1578.7813,494.4375 1578.9219,494.3594 Q1579.0781,494.2813 1579.2813,494.2813 Q1579.6094,494.2813 1579.8594,494.5469 Q1580.125,494.7969 1580.125,495.1406 Q1580.125,495.4844 1579.7813,495.8906 Q1579.2813,496.4688 1578.4844,496.7969 Q1577.4063,497.25 1576.1094,497.25 Q1574.5938,497.25 1573.3906,496.625 Q1572.4063,496.125 1571.7188,495.0625 Q1571.0313,493.9844 1571.0313,492.7031 L1571.0313,491.5469 Q1571.0313,490.2188 1571.6406,489.0781 Q1572.2656,487.9219 1573.3594,487.3125 Q1574.4531,486.6875 1575.6875,486.6875 Q1576.4219,486.6875 1577.0625,486.8594 Q1577.7188,487.0156 1578.2656,487.375 Z " fill="#000000"/><text fill="#000000" font-family="sans-serif" font-size="14" lengthAdjust="spacing" textLength="81" x="1589.5" y="497.2969">Maintenance</text><line style="stroke:#181818;stroke-width:0.5;" x1="1561.5" x2="1672.5" y1="507.5" y2="507.5"/><line style="stroke:#181818;stroke-width:0.5;" x1="1561.5" x2="1672.5" y1="515.5" y2="515.5"/></g><!--link GMN15 to Organization--><g id="link_GMN15_Organization"><path d="M926.2,485.92 C874.26,446.27 726.5,333.5 726.5,333.5 C726.5,333.5 499.5,333.5 499.5,333.5 C499.5,333.5 462,370.89 422.59,410.18 " fill="none" id="GMN15-Organization" style="stroke:#181818;stroke-width:1.0;stroke-dasharray:7.0,7.0;"/></g><!--link GMN18 to VehicleFleetManager--><g id="link_GMN18_VehicleFleetManager"><path d="M506.45,59 C515.98,59 522.33,59 522.33,59 C522.33,59 529.93,59 540.98,59 " fill="none" id="GMN18-VehicleFleetManager" style="stroke:#181818;stroke-width:1.0;stroke-dasharray:7.0,7.0;"/></g><!--link VehicleFleetManager to RegisterMaintenanceUI--><g id="link_VehicleFleetManager_RegisterMaintenanceUI"><path codeLine="80" d="M624,111.38 C624,135.94 624,159.26 624,183.8 " fill="none" id="VehicleFleetManager-to-RegisterMaintenanceUI" style="stroke:#181818;stroke-width:1.0;"/><polygon fill="#181818" points="624,189.8,628,180.8,624,184.8,620,180.8,624,189.8" style="stroke:#181818;stroke-width:1.0;"/><text fill="#000000" font-family="sans-serif" font-size="13" lengthAdjust="spacing" textLength="77" x="625" y="156.0283">interacts with</text></g><!--link RegisterMaintenanceUI to RegisterMaintenanceController--><g id="link_RegisterMaintenanceUI_RegisterMaintenanceController"><path codeLine="81" d="M882.56,242 C920,242 953.03,242 991.84,242 " fill="none" id="RegisterMaintenanceUI-to-RegisterMaintenanceController" style="stroke:#181818;stroke-width:1.0;"/><polygon fill="#181818" points="997.84,242,988.84,238,992.84,242,988.84,246,997.84,242" style="stroke:#181818;stroke-width:1.0;"/><text fill="#000000" font-family="sans-serif" font-size="13" lengthAdjust="spacing" textLength="79" x="900.75" y="235.0283">sends data to</text></g><!--link RegisterMaintenanceController to Repositories--><g id="link_RegisterMaintenanceController_Repositories"><path codeLine="82" d="M1343,284.62 C1343,329.02 1343,393.4 1343,441.2 " fill="none" id="RegisterMaintenanceController-to-Repositories" style="stroke:#181818;stroke-width:1.0;"/><polygon fill="#181818" points="1343,447.2,1347,438.2,1343,442.2,1339,438.2,1343,447.2" style="stroke:#181818;stroke-width:1.0;"/><text fill="#000000" font-family="sans-serif" font-size="13" lengthAdjust="spacing" textLength="28" x="1344" y="339.0283">uses</text></g><!--link Organization to Vehicle--><g id="link_Organization_Vehicle"><path codeLine="83" d="M433.3,499.5 C454.64,499.5 471.32,499.5 493.13,499.5 " fill="none" id="Organization-to-Vehicle" style="stroke:#181818;stroke-width:1.0;"/><polygon fill="#181818" points="499.13,499.5,490.13,495.5,494.13,499.5,490.13,503.5,499.13,499.5" style="stroke:#181818;stroke-width:1.0;"/><text fill="#000000" font-family="sans-serif" font-size="13" lengthAdjust="spacing" textLength="30" x="451.25" y="492.5283">owns</text></g><!--link RegisterMaintenanceController to Maintenance--><g id="link_RegisterMaintenanceController_Maintenance"><path codeLine="84" d="M1406.79,284.67 C1464.99,322.69 1542,373 1542,373 C1542,373 1578.5122,434.0995 1600.1622,470.3295 " fill="none" id="RegisterMaintenanceController-to-Maintenance" style="stroke:#181818;stroke-width:1.0;stroke-dasharray:7.0,7.0;"/><polygon fill="#181818" points="1603.24,475.48,1602.057,465.7024,1600.6752,471.1879,1595.1897,469.8061,1603.24,475.48" style="stroke:#181818;stroke-width:1.0;"/><text fill="#000000" font-family="sans-serif" font-size="13" lengthAdjust="spacing" textLength="43" x="1495" y="339.0283">creates</text></g><!--link RegisterMaintenanceController to Organization--><g id="link_RegisterMaintenanceController_Organization"><path codeLine="85" d="M1067.91,284.53 C815.97,322.58 482,373 482,373 C482,373 464.749,387.5247 437.799,410.2247 " fill="none" id="RegisterMaintenanceController-to-Organization" style="stroke:#181818;stroke-width:1.0;stroke-dasharray:7.0,7.0;"/><polygon fill="#181818" points="433.21,414.09,442.6704,411.3513,437.0342,410.8689,437.5166,405.2326,433.21,414.09" style="stroke:#181818;stroke-width:1.0;"/><text fill="#000000" font-family="sans-serif" font-size="13" lengthAdjust="spacing" textLength="93" x="787" y="339.0283">updates records</text></g><!--SRC=[ZLN1Rjim3BtxAtYhWpRzWA38eHq216ixO4MxioBJZb1PT2MvHJRitoVATYAdJhgR95BaUqyaTU5UbMc45JNKP4XkBTK8thQO7IoDaA-YmYU_qmWMfHUcqgc3sug2FfIfe1JQfHQj3FfTWz2Gtl4ckvWmalMKPPdKmZbumQsI6bSQqJy84n9R-9C1pE79MyvXH8tf7ckXT7hGR2aa-diKS1naOuKfqeEQ2Xn5OMHn_utQJRZkXSLVgAgjJqyhIyubnslZGRRMel7VwtXoJrBeRyApT9Lo7YrlZan2lhNAAQ_8xAqSAb0p7eqm4bSMtreqSZUYgeFtuo388LuW7iJRtuqnzuByi9KmwhVWREUbVHV-iQqtQDD3KHGMdVki-EIRt0VAD_qJBE6zM_3bImxK6_BXZNhxR1hiJsmeY4Hs5s5VmeP8ep3Wn3lc8rgKR6RHTsGkbIbkTonSdb0_wVWow90V2vCWtQDJw7fy5VgrSPwV89_1OkGoEFJK3zoYvwVJmNrQZtXdsfG2xEelAOmxCjwIrdsFNPxtoMs2VyocbwxXt4BVt7OFizpNV18l7zLkLF4ALDetLqabr-Cgdfsbyxpkw_ayLRbVHjI5SW7BBl5TaQtpZf9hDxNonxQZUhs2AQnN_OoGv7p4ROYd0CyAeF8yniWYiK21FhIKWp25W3PXRR20Cenhy5k4bzN3XGiYDcqtXfwR8W1mdQt36Em9FfxZP0k-4vtIsidG5C1OUyGQorE0dzTTkZMKP1a5UEfW3DACalOaufqxgklMA1bnVYY__KAG4w16m3lH-Cy8Ga79NmZx35C7mindjifEIN4gmyI7rDUOQyWunK_Cx6ksnU4mmRph0njXkc6yeos57DZpAmGT6UAXFbDGKn_ZFFoxPhuyqGiBRYkqGlekHpRjDeybEHqbwPe5k036GQWi4PuvE-zzG9PCnGMqBao-qOJTPnzwQW7XfliY_FNrSjGU2v0MkPJ-uzueVO3KzyfG1ly0]--></g></svg>