<?xml version="1.0" encoding="us-ascii" standalone="no"?><svg xmlns="http://www.w3.org/2000/svg" xmlns:xlink="http://www.w3.org/1999/xlink" contentStyleType="text/css" height="760px" preserveAspectRatio="none" style="width:745px;height:760px;background:#FFFFFF;" version="1.1" viewBox="0 0 745 760" width="745px" zoomAndPan="magnify"><defs/><g><rect fill="#FFFFFF" height="565.5391" style="stroke:#181818;stroke-width:1.0;" width="10" x="91" y="93.6211"/><rect fill="#FFFFFF" height="74.9121" style="stroke:#181818;stroke-width:1.0;" width="10" x="301" y="116.9121"/><rect fill="#FFFFFF" height="31.291" style="stroke:#181818;stroke-width:1.0;" width="10" x="301" y="223.1152"/><rect fill="#FFFFFF" height="373.4629" style="stroke:#181818;stroke-width:1.0;" width="10" x="301" y="285.6973"/><rect fill="#FFFFFF" height="469.666" style="stroke:#181818;stroke-width:1.0;" width="10" x="470" y="158.2031"/><rect fill="#FFFFFF" height="95.5039" style="stroke:#181818;stroke-width:1.0;" width="10" x="682" y="501.0742"/><line style="stroke:#181818;stroke-width:0.5;stroke-dasharray:5.0,5.0;" x1="96" x2="96" y1="83.6211" y2="677.1602"/><line style="stroke:#181818;stroke-width:0.5;stroke-dasharray:5.0,5.0;" x1="306" x2="306" y1="83.6211" y2="677.1602"/><line style="stroke:#181818;stroke-width:0.5;stroke-dasharray:5.0,5.0;" x1="475" x2="475" y1="156.7227" y2="677.1602"/><line style="stroke:#181818;stroke-width:0.5;stroke-dasharray:5.0,5.0;" x1="687" x2="687" y1="83.6211" y2="677.1602"/><text fill="#000000" font-family="sans-serif" font-size="14" lengthAdjust="spacing" textLength="176" x="5" y="80.1074">Human Resources Manager</text><ellipse cx="96" cy="13.5" fill="#E3E3E3" rx="8" ry="8" style="stroke:#181818;stroke-width:0.5;"/><path d="M96,21.5 L96,48.5 M83,29.5 L109,29.5 M96,48.5 L83,63.5 M96,48.5 L109,63.5 " fill="none" style="stroke:#181818;stroke-width:0.5;"/><text fill="#000000" font-family="sans-serif" font-size="14" lengthAdjust="spacing" textLength="176" x="5" y="691.2676">Human Resources Manager</text><ellipse cx="96" cy="703.2813" fill="#E3E3E3" rx="8" ry="8" style="stroke:#181818;stroke-width:0.5;"/><path d="M96,711.2813 L96,738.2813 M83,719.2813 L109,719.2813 M96,738.2813 L83,753.2813 M96,738.2813 L109,753.2813 " fill="none" style="stroke:#181818;stroke-width:0.5;"/><rect fill="#E3E3E3" height="32.6211" rx="2.5" ry="2.5" style="stroke:#181818;stroke-width:0.5;" width="98" x="257" y="50"/><text fill="#000000" font-family="sans-serif" font-size="14" lengthAdjust="spacing" textLength="84" x="264" y="72.1074">:CreateSkillUI</text><rect fill="#E3E3E3" height="32.6211" rx="2.5" ry="2.5" style="stroke:#181818;stroke-width:0.5;" width="98" x="257" y="676.1602"/><text fill="#000000" font-family="sans-serif" font-size="14" lengthAdjust="spacing" textLength="84" x="264" y="698.2676">:CreateSkillUI</text><rect fill="#E3E3E3" height="32.6211" rx="2.5" ry="2.5" style="stroke:#181818;stroke-width:0.5;" width="148" x="401" y="676.1602"/><text fill="#000000" font-family="sans-serif" font-size="14" lengthAdjust="spacing" textLength="134" x="408" y="698.2676">:CreateSkillController</text><rect fill="#E3E3E3" height="51.2422" rx="2.5" ry="2.5" style="stroke:#181818;stroke-width:0.5;" width="98" x="638" y="31.3789"/><text fill="#000000" font-family="sans-serif" font-size="14" lengthAdjust="spacing" textLength="77" x="648.5" y="53.4863">organization</text><text fill="#000000" font-family="sans-serif" font-size="14" lengthAdjust="spacing" textLength="84" x="645" y="72.1074">:Organization</text><rect fill="#E3E3E3" height="51.2422" rx="2.5" ry="2.5" style="stroke:#181818;stroke-width:0.5;" width="98" x="638" y="676.1602"/><text fill="#000000" font-family="sans-serif" font-size="14" lengthAdjust="spacing" textLength="77" x="648.5" y="698.2676">organization</text><text fill="#000000" font-family="sans-serif" font-size="14" lengthAdjust="spacing" textLength="84" x="645" y="716.8887">:Organization</text><rect fill="#FFFFFF" height="565.5391" style="stroke:#181818;stroke-width:1.0;" width="10" x="91" y="93.6211"/><rect fill="#FFFFFF" height="74.9121" style="stroke:#181818;stroke-width:1.0;" width="10" x="301" y="116.9121"/><rect fill="#FFFFFF" height="31.291" style="stroke:#181818;stroke-width:1.0;" width="10" x="301" y="223.1152"/><rect fill="#FFFFFF" height="373.4629" style="stroke:#181818;stroke-width:1.0;" width="10" x="301" y="285.6973"/><rect fill="#FFFFFF" height="469.666" style="stroke:#181818;stroke-width:1.0;" width="10" x="470" y="158.2031"/><rect fill="#FFFFFF" height="95.5039" style="stroke:#181818;stroke-width:1.0;" width="10" x="682" y="501.0742"/><polygon fill="#181818" points="289,112.9121,299,116.9121,289,120.9121,293,116.9121" style="stroke:#181818;stroke-width:1.0;"/><line style="stroke:#181818;stroke-width:1.0;" x1="101" x2="295" y1="116.9121" y2="116.9121"/><text fill="#000000" font-family="sans-serif" font-size="13" font-weight="bold" lengthAdjust="spacing" textLength="7" x="108" y="111.6494">1</text><text fill="#000000" font-family="sans-serif" font-size="13" lengthAdjust="spacing" textLength="148" x="119" y="111.6494">asks to create a new skill</text><polygon fill="#181818" points="389,144.2031,399,148.2031,389,152.2031,393,148.2031" style="stroke:#181818;stroke-width:1.0;"/><line style="stroke:#181818;stroke-width:1.0;" x1="311" x2="395" y1="148.2031" y2="148.2031"/><text fill="#000000" font-family="sans-serif" font-size="13" font-weight="bold" lengthAdjust="spacing" textLength="7" x="318" y="142.9404">2</text><text fill="#000000" font-family="sans-serif" font-size="13" lengthAdjust="spacing" textLength="36" x="329" y="142.9404">create</text><rect fill="#E3E3E3" height="32.6211" rx="2.5" ry="2.5" style="stroke:#181818;stroke-width:0.5;" width="148" x="401" y="124.9121"/><text fill="#000000" font-family="sans-serif" font-size="14" lengthAdjust="spacing" textLength="134" x="408" y="147.0195">:CreateSkillController</text><polygon fill="#181818" points="112,187.8242,102,191.8242,112,195.8242,108,191.8242" style="stroke:#181818;stroke-width:1.0;"/><line style="stroke:#181818;stroke-width:1.0;stroke-dasharray:2.0,2.0;" x1="106" x2="305" y1="191.8242" y2="191.8242"/><text fill="#000000" font-family="sans-serif" font-size="13" font-weight="bold" lengthAdjust="spacing" textLength="7" x="118" y="186.5615">3</text><text fill="#000000" font-family="sans-serif" font-size="13" lengthAdjust="spacing" textLength="127" x="129" y="186.5615">requests name of skill</text><polygon fill="#181818" points="289,219.1152,299,223.1152,289,227.1152,293,223.1152" style="stroke:#181818;stroke-width:1.0;"/><line style="stroke:#181818;stroke-width:1.0;" x1="101" x2="295" y1="223.1152" y2="223.1152"/><text fill="#000000" font-family="sans-serif" font-size="13" font-weight="bold" lengthAdjust="spacing" textLength="7" x="108" y="217.8525">4</text><text fill="#000000" font-family="sans-serif" font-size="13" lengthAdjust="spacing" textLength="129" x="119" y="217.8525">types requested name</text><polygon fill="#181818" points="112,250.4063,102,254.4063,112,258.4063,108,254.4063" style="stroke:#181818;stroke-width:1.0;"/><line style="stroke:#181818;stroke-width:1.0;stroke-dasharray:2.0,2.0;" x1="106" x2="305" y1="254.4063" y2="254.4063"/><text fill="#000000" font-family="sans-serif" font-size="13" font-weight="bold" lengthAdjust="spacing" textLength="7" x="118" y="249.1436">5</text><text fill="#000000" font-family="sans-serif" font-size="13" lengthAdjust="spacing" textLength="109" x="129" y="249.1436">shows typed name</text><polygon fill="#181818" points="289,281.6973,299,285.6973,289,289.6973,293,285.6973" style="stroke:#181818;stroke-width:1.0;"/><line style="stroke:#181818;stroke-width:1.0;" x1="101" x2="295" y1="285.6973" y2="285.6973"/><text fill="#000000" font-family="sans-serif" font-size="13" font-weight="bold" lengthAdjust="spacing" textLength="7" x="108" y="280.4346">6</text><text fill="#000000" font-family="sans-serif" font-size="13" lengthAdjust="spacing" textLength="82" x="119" y="280.4346">submits name</text><polygon fill="#181818" points="458,312.9883,468,316.9883,458,320.9883,462,316.9883" style="stroke:#181818;stroke-width:1.0;"/><line style="stroke:#181818;stroke-width:1.0;" x1="311" x2="464" y1="316.9883" y2="316.9883"/><text fill="#000000" font-family="sans-serif" font-size="13" font-weight="bold" lengthAdjust="spacing" textLength="7" x="318" y="311.7256">7</text><text fill="#000000" font-family="sans-serif" font-size="13" lengthAdjust="spacing" textLength="124" x="329" y="311.7256">createSkill(skillname)</text><line style="stroke:#181818;stroke-width:1.0;" x1="480" x2="522" y1="348.2793" y2="348.2793"/><line style="stroke:#181818;stroke-width:1.0;" x1="522" x2="522" y1="348.2793" y2="361.2793"/><line style="stroke:#181818;stroke-width:1.0;" x1="481" x2="522" y1="361.2793" y2="361.2793"/><polygon fill="#181818" points="491,357.2793,481,361.2793,491,365.2793,487,361.2793" style="stroke:#181818;stroke-width:1.0;"/><text fill="#000000" font-family="sans-serif" font-size="13" font-weight="bold" lengthAdjust="spacing" textLength="7" x="487" y="343.0166">8</text><text fill="#000000" font-family="sans-serif" font-size="13" lengthAdjust="spacing" textLength="161" x="498" y="343.0166">getEmployeeFromSession()</text><rect fill="none" height="59.2129" style="stroke:#000000;stroke-width:1.5;" width="154" x="398" y="369.2793"/><path d="M398,369.2793 L460,369.2793 L460,378.2793 L450,388.2793 L398,388.2793 L398,369.2793 " fill="#EEEEEE" style="stroke:#000000;stroke-width:2.0;"/><text fill="#000000" font-family="sans-serif" font-size="13" font-weight="bold" lengthAdjust="spacing" textLength="17" x="411" y="385.3076">ref</text><text fill="#000000" font-family="sans-serif" font-size="12" lengthAdjust="spacing" textLength="77" x="436.5" y="405.2285">Get Employee</text><text fill="#000000" font-family="sans-serif" font-size="12" lengthAdjust="spacing" textLength="3" x="473.5" y="421.1895">&#160;</text><line style="stroke:#181818;stroke-width:1.0;" x1="480" x2="522" y1="456.7832" y2="456.7832"/><line style="stroke:#181818;stroke-width:1.0;" x1="522" x2="522" y1="456.7832" y2="469.7832"/><line style="stroke:#181818;stroke-width:1.0;" x1="481" x2="522" y1="469.7832" y2="469.7832"/><polygon fill="#181818" points="491,465.7832,481,469.7832,491,473.7832,487,469.7832" style="stroke:#181818;stroke-width:1.0;"/><text fill="#000000" font-family="sans-serif" font-size="13" font-weight="bold" lengthAdjust="spacing" textLength="7" x="487" y="451.5205">9</text><text fill="#000000" font-family="sans-serif" font-size="13" lengthAdjust="spacing" textLength="56" x="498" y="451.5205">employee</text><polygon fill="#181818" points="670,497.0742,680,501.0742,670,505.0742,674,501.0742" style="stroke:#181818;stroke-width:1.0;"/><line style="stroke:#181818;stroke-width:1.0;" x1="480" x2="676" y1="501.0742" y2="501.0742"/><text fill="#000000" font-family="sans-serif" font-size="13" font-weight="bold" lengthAdjust="spacing" textLength="14" x="487" y="495.8115">10</text><text fill="#000000" font-family="sans-serif" font-size="13" lengthAdjust="spacing" textLength="165" x="505" y="495.8115">createSkill(name, employee)</text><rect fill="none" height="59.2129" style="stroke:#000000;stroke-width:1.5;" width="104" x="635" y="509.0742"/><path d="M635,509.0742 L697,509.0742 L697,518.0742 L687,528.0742 L635,528.0742 L635,509.0742 " fill="#EEEEEE" style="stroke:#000000;stroke-width:2.0;"/><text fill="#000000" font-family="sans-serif" font-size="13" font-weight="bold" lengthAdjust="spacing" textLength="17" x="648" y="525.1025">ref</text><text fill="#000000" font-family="sans-serif" font-size="12" lengthAdjust="spacing" textLength="63" x="655.5" y="545.0234">Create Skill</text><text fill="#000000" font-family="sans-serif" font-size="12" lengthAdjust="spacing" textLength="3" x="685.5" y="560.9844">&#160;</text><polygon fill="#181818" points="491,592.5781,481,596.5781,491,600.5781,487,596.5781" style="stroke:#181818;stroke-width:1.0;"/><line style="stroke:#181818;stroke-width:1.0;stroke-dasharray:2.0,2.0;" x1="485" x2="686" y1="596.5781" y2="596.5781"/><text fill="#000000" font-family="sans-serif" font-size="13" font-weight="bold" lengthAdjust="spacing" textLength="14" x="497" y="591.3154">11</text><text fill="#000000" font-family="sans-serif" font-size="13" lengthAdjust="spacing" textLength="23" x="515" y="591.3154">skill</text><polygon fill="#181818" points="322,623.8691,312,627.8691,322,631.8691,318,627.8691" style="stroke:#181818;stroke-width:1.0;"/><line style="stroke:#181818;stroke-width:1.0;stroke-dasharray:2.0,2.0;" x1="316" x2="474" y1="627.8691" y2="627.8691"/><text fill="#000000" font-family="sans-serif" font-size="13" font-weight="bold" lengthAdjust="spacing" textLength="14" x="328" y="622.6064">12</text><text fill="#000000" font-family="sans-serif" font-size="13" lengthAdjust="spacing" textLength="23" x="346" y="622.6064">skill</text><polygon fill="#181818" points="107,655.1602,97,659.1602,107,663.1602,103,659.1602" style="stroke:#181818;stroke-width:1.0;"/><line style="stroke:#181818;stroke-width:1.0;stroke-dasharray:2.0,2.0;" x1="101" x2="305" y1="659.1602" y2="659.1602"/><text fill="#000000" font-family="sans-serif" font-size="13" font-weight="bold" lengthAdjust="spacing" textLength="14" x="113" y="653.8975">13</text><text fill="#000000" font-family="sans-serif" font-size="13" lengthAdjust="spacing" textLength="158" x="131" y="653.8975">displays operation success</text><!--SRC=[ZLJDRjim3BxhAOXSrXRh2_WmOCYsji2A0ibwsuMn6KU8BNgYt2nx-b6oQpjnkewdMEBtmnz5zjOrwB66cXtdEyyrGV0j6Hbk6iptMD8w72i2Jtb0LrRJ1DbXmGVhIjXY9MGCje5TMs_86_DXPmk2BNFOy6-3UM0FY_ksHWSh4cvzJWAFw5J1Bm05FdzvDCeRR6uRT04MsT8J1bhlRLKzFwISvuUtKvRiWkUgwkcMFrRVJvFPb-Zi7moMtK-NFKq-4-9fTMUYKVkYbCcE0Gtz0RUVL1eopTeB18OyoGA2emD8LEzo1xGQJGSn5AduwEVcHZawx7WzO9BZ4vJ2edgctV_LaWG1XpedtlQQCQ-WcUZKSJWsskSUJqKY-BVLGLHsV914C86z8oVjfhQzp__foD2FDCAhL5R4NfinEqRA7J4bXQzrK_6Hw9kkxff4T8fNvwWOdhR0B-IxziA5kAC0hsnpFBaYSipEpnpHG73Hj-xMQQMno8y3wle4DFGiRUIR1SNRI_LqRmBMurgUrJC_LAeq-BwOSRjUOpBscQcknhG1xq1d8nZtBOF2IbFXKO0RykbLwZRb-YyXbnPlyXbVwby0]--></g></svg>