<?xml version="1.0" encoding="us-ascii" standalone="no"?><svg xmlns="http://www.w3.org/2000/svg" xmlns:xlink="http://www.w3.org/1999/xlink" contentStyleType="text/css" height="1344px" preserveAspectRatio="none" style="width:1381px;height:1344px;background:#FFFFFF;" version="1.1" viewBox="0 0 1381 1344" width="1381px" zoomAndPan="magnify"><defs/><g><!--class ApplicationSession--><g id="elem_ApplicationSession"><rect codeLine="11" fill="#F1F1F1" height="85.2422" id="ApplicationSession" rx="2.5" ry="2.5" style="stroke:#181818;stroke-width:0.5;" width="151" x="1127.5" y="217.5"/><ellipse cx="1142.5" cy="233.5" fill="#ADD1B2" rx="11" ry="11" style="stroke:#181818;stroke-width:1.0;"/><path d="M1145.2656,229.375 Q1145.4219,229.1563 1145.6094,229.0469 Q1145.7969,228.9375 1146.0156,228.9375 Q1146.3906,228.9375 1146.625,229.2031 Q1146.8594,229.4531 1146.8594,230.0625 L1146.8594,231.5156 Q1146.8594,232.125 1146.625,232.3906 Q1146.3906,232.6563 1146.0156,232.6563 Q1145.6719,232.6563 1145.4688,232.4531 Q1145.2656,232.2656 1145.1563,231.75 Q1145.1094,231.3906 1144.9219,231.2031 Q1144.5938,230.8281 1143.9844,230.6094 Q1143.375,230.3906 1142.75,230.3906 Q1141.9844,230.3906 1141.3438,230.7188 Q1140.7188,231.0469 1140.2188,231.7969 Q1139.7344,232.5469 1139.7344,233.5781 L1139.7344,234.6719 Q1139.7344,235.9063 1140.625,236.7344 Q1141.5156,237.5469 1143.1094,237.5469 Q1144.0469,237.5469 1144.7031,237.2969 Q1145.0938,237.1406 1145.5156,236.7031 Q1145.7813,236.4375 1145.9219,236.3594 Q1146.0781,236.2813 1146.2813,236.2813 Q1146.6094,236.2813 1146.8594,236.5469 Q1147.125,236.7969 1147.125,237.1406 Q1147.125,237.4844 1146.7813,237.8906 Q1146.2813,238.4688 1145.4844,238.7969 Q1144.4063,239.25 1143.1094,239.25 Q1141.5938,239.25 1140.3906,238.625 Q1139.4063,238.125 1138.7188,237.0625 Q1138.0313,235.9844 1138.0313,234.7031 L1138.0313,233.5469 Q1138.0313,232.2188 1138.6406,231.0781 Q1139.2656,229.9219 1140.3594,229.3125 Q1141.4531,228.6875 1142.6875,228.6875 Q1143.4219,228.6875 1144.0625,228.8594 Q1144.7188,229.0156 1145.2656,229.375 Z " fill="#000000"/><text fill="#000000" font-family="sans-serif" font-size="14" lengthAdjust="spacing" textLength="119" x="1156.5" y="239.2969">ApplicationSession</text><line style="stroke:#181818;stroke-width:0.5;" x1="1128.5" x2="1277.5" y1="249.5" y2="249.5"/><line style="stroke:#181818;stroke-width:0.5;" x1="1128.5" x2="1277.5" y1="257.5" y2="257.5"/><text fill="#000000" font-family="sans-serif" font-size="14" lengthAdjust="spacing" textLength="128" x="1133.5" y="276.6074">+static getInstance()</text><text fill="#000000" font-family="sans-serif" font-size="14" lengthAdjust="spacing" textLength="136" x="1133.5" y="295.2285">+getCurrentSession()</text></g><!--class UserSession--><g id="elem_UserSession"><rect codeLine="17" fill="#F1F1F1" height="66.6211" id="UserSession" rx="2.5" ry="2.5" style="stroke:#181818;stroke-width:0.5;" width="113" x="1064.5" y="428"/><ellipse cx="1080.4" cy="444" fill="#ADD1B2" rx="11" ry="11" style="stroke:#181818;stroke-width:1.0;"/><path d="M1083.1656,439.875 Q1083.3219,439.6563 1083.5094,439.5469 Q1083.6969,439.4375 1083.9156,439.4375 Q1084.2906,439.4375 1084.525,439.7031 Q1084.7594,439.9531 1084.7594,440.5625 L1084.7594,442.0156 Q1084.7594,442.625 1084.525,442.8906 Q1084.2906,443.1563 1083.9156,443.1563 Q1083.5719,443.1563 1083.3688,442.9531 Q1083.1656,442.7656 1083.0563,442.25 Q1083.0094,441.8906 1082.8219,441.7031 Q1082.4938,441.3281 1081.8844,441.1094 Q1081.275,440.8906 1080.65,440.8906 Q1079.8844,440.8906 1079.2438,441.2188 Q1078.6188,441.5469 1078.1188,442.2969 Q1077.6344,443.0469 1077.6344,444.0781 L1077.6344,445.1719 Q1077.6344,446.4063 1078.525,447.2344 Q1079.4156,448.0469 1081.0094,448.0469 Q1081.9469,448.0469 1082.6031,447.7969 Q1082.9938,447.6406 1083.4156,447.2031 Q1083.6813,446.9375 1083.8219,446.8594 Q1083.9781,446.7813 1084.1813,446.7813 Q1084.5094,446.7813 1084.7594,447.0469 Q1085.025,447.2969 1085.025,447.6406 Q1085.025,447.9844 1084.6813,448.3906 Q1084.1813,448.9688 1083.3844,449.2969 Q1082.3063,449.75 1081.0094,449.75 Q1079.4938,449.75 1078.2906,449.125 Q1077.3063,448.625 1076.6188,447.5625 Q1075.9313,446.4844 1075.9313,445.2031 L1075.9313,444.0469 Q1075.9313,442.7188 1076.5406,441.5781 Q1077.1656,440.4219 1078.2594,439.8125 Q1079.3531,439.1875 1080.5875,439.1875 Q1081.3219,439.1875 1081.9625,439.3594 Q1082.6188,439.5156 1083.1656,439.875 Z " fill="#000000"/><text fill="#000000" font-family="sans-serif" font-size="14" lengthAdjust="spacing" textLength="79" x="1094.6" y="449.7969">UserSession</text><line style="stroke:#181818;stroke-width:0.5;" x1="1065.5" x2="1176.5" y1="460" y2="460"/><line style="stroke:#181818;stroke-width:0.5;" x1="1065.5" x2="1176.5" y1="468" y2="468"/><text fill="#000000" font-family="sans-serif" font-size="14" lengthAdjust="spacing" textLength="101" x="1070.5" y="487.1074">+getUserEmail()</text></g><!--class Skill--><g id="elem_Skill"><rect codeLine="22" fill="#F1F1F1" height="66.6211" id="Skill" rx="2.5" ry="2.5" style="stroke:#181818;stroke-width:0.5;" width="97" x="241.5" y="1271"/><ellipse cx="274.5" cy="1287" fill="#ADD1B2" rx="11" ry="11" style="stroke:#181818;stroke-width:1.0;"/><path d="M277.2656,1282.875 Q277.4219,1282.6563 277.6094,1282.5469 Q277.7969,1282.4375 278.0156,1282.4375 Q278.3906,1282.4375 278.625,1282.7031 Q278.8594,1282.9531 278.8594,1283.5625 L278.8594,1285.0156 Q278.8594,1285.625 278.625,1285.8906 Q278.3906,1286.1563 278.0156,1286.1563 Q277.6719,1286.1563 277.4688,1285.9531 Q277.2656,1285.7656 277.1563,1285.25 Q277.1094,1284.8906 276.9219,1284.7031 Q276.5938,1284.3281 275.9844,1284.1094 Q275.375,1283.8906 274.75,1283.8906 Q273.9844,1283.8906 273.3438,1284.2188 Q272.7188,1284.5469 272.2188,1285.2969 Q271.7344,1286.0469 271.7344,1287.0781 L271.7344,1288.1719 Q271.7344,1289.4063 272.625,1290.2344 Q273.5156,1291.0469 275.1094,1291.0469 Q276.0469,1291.0469 276.7031,1290.7969 Q277.0938,1290.6406 277.5156,1290.2031 Q277.7813,1289.9375 277.9219,1289.8594 Q278.0781,1289.7813 278.2813,1289.7813 Q278.6094,1289.7813 278.8594,1290.0469 Q279.125,1290.2969 279.125,1290.6406 Q279.125,1290.9844 278.7813,1291.3906 Q278.2813,1291.9688 277.4844,1292.2969 Q276.4063,1292.75 275.1094,1292.75 Q273.5938,1292.75 272.3906,1292.125 Q271.4063,1291.625 270.7188,1290.5625 Q270.0313,1289.4844 270.0313,1288.2031 L270.0313,1287.0469 Q270.0313,1285.7188 270.6406,1284.5781 Q271.2656,1283.4219 272.3594,1282.8125 Q273.4531,1282.1875 274.6875,1282.1875 Q275.4219,1282.1875 276.0625,1282.3594 Q276.7188,1282.5156 277.2656,1282.875 Z " fill="#000000"/><text fill="#000000" font-family="sans-serif" font-size="14" lengthAdjust="spacing" textLength="25" x="292.5" y="1292.7969">Skill</text><line style="stroke:#181818;stroke-width:0.5;" x1="242.5" x2="337.5" y1="1303" y2="1303"/><text fill="#000000" font-family="sans-serif" font-size="14" lengthAdjust="spacing" textLength="85" x="247.5" y="1322.1074">-name: String</text><line style="stroke:#181818;stroke-width:0.5;" x1="242.5" x2="337.5" y1="1329.6211" y2="1329.6211"/></g><!--class SkillRepository--><g id="elem_SkillRepository"><rect codeLine="26" fill="#F1F1F1" height="141.1055" id="SkillRepository" rx="2.5" ry="2.5" style="stroke:#181818;stroke-width:0.5;" width="232" x="656" y="391"/><ellipse cx="721.25" cy="407" fill="#ADD1B2" rx="11" ry="11" style="stroke:#181818;stroke-width:1.0;"/><path d="M724.0156,402.875 Q724.1719,402.6563 724.3594,402.5469 Q724.5469,402.4375 724.7656,402.4375 Q725.1406,402.4375 725.375,402.7031 Q725.6094,402.9531 725.6094,403.5625 L725.6094,405.0156 Q725.6094,405.625 725.375,405.8906 Q725.1406,406.1563 724.7656,406.1563 Q724.4219,406.1563 724.2188,405.9531 Q724.0156,405.7656 723.9063,405.25 Q723.8594,404.8906 723.6719,404.7031 Q723.3438,404.3281 722.7344,404.1094 Q722.125,403.8906 721.5,403.8906 Q720.7344,403.8906 720.0938,404.2188 Q719.4688,404.5469 718.9688,405.2969 Q718.4844,406.0469 718.4844,407.0781 L718.4844,408.1719 Q718.4844,409.4063 719.375,410.2344 Q720.2656,411.0469 721.8594,411.0469 Q722.7969,411.0469 723.4531,410.7969 Q723.8438,410.6406 724.2656,410.2031 Q724.5313,409.9375 724.6719,409.8594 Q724.8281,409.7813 725.0313,409.7813 Q725.3594,409.7813 725.6094,410.0469 Q725.875,410.2969 725.875,410.6406 Q725.875,410.9844 725.5313,411.3906 Q725.0313,411.9688 724.2344,412.2969 Q723.1563,412.75 721.8594,412.75 Q720.3438,412.75 719.1406,412.125 Q718.1563,411.625 717.4688,410.5625 Q716.7813,409.4844 716.7813,408.2031 L716.7813,407.0469 Q716.7813,405.7188 717.3906,404.5781 Q718.0156,403.4219 719.1094,402.8125 Q720.2031,402.1875 721.4375,402.1875 Q722.1719,402.1875 722.8125,402.3594 Q723.4688,402.5156 724.0156,402.875 Z " fill="#000000"/><text fill="#000000" font-family="sans-serif" font-size="14" lengthAdjust="spacing" textLength="93" x="741.75" y="412.7969">SkillRepository</text><line style="stroke:#181818;stroke-width:0.5;" x1="657" x2="887" y1="423" y2="423"/><text fill="#000000" font-family="sans-serif" font-size="14" lengthAdjust="spacing" textLength="102" x="662" y="442.1074">-List&lt;Skill&gt; skills</text><line style="stroke:#181818;stroke-width:0.5;" x1="657" x2="887" y1="449.6211" y2="449.6211"/><text fill="#000000" font-family="sans-serif" font-size="14" lengthAdjust="spacing" textLength="192" x="662" y="468.7285">+Optional&lt;Skill&gt; add(Skill skill)</text><text fill="#000000" font-family="sans-serif" font-size="14" lengthAdjust="spacing" textLength="199" x="662" y="487.3496">+boolean validateSkill(Skill skill)</text><text fill="#000000" font-family="sans-serif" font-size="14" lengthAdjust="spacing" textLength="137" x="662" y="505.9707">+List&lt;Skill&gt; getSkills()</text><text fill="#000000" font-family="sans-serif" font-size="14" lengthAdjust="spacing" textLength="220" x="662" y="524.5918">+Skill getSkillByName(String name)</text></g><!--class Organization--><g id="elem_Organization"><rect codeLine="34" fill="#F1F1F1" height="234.2109" id="Organization" rx="2.5" ry="2.5" style="stroke:#181818;stroke-width:0.5;" width="269" x="243.5" y="611"/><ellipse cx="333.75" cy="627" fill="#ADD1B2" rx="11" ry="11" style="stroke:#181818;stroke-width:1.0;"/><path d="M336.5156,622.875 Q336.6719,622.6563 336.8594,622.5469 Q337.0469,622.4375 337.2656,622.4375 Q337.6406,622.4375 337.875,622.7031 Q338.1094,622.9531 338.1094,623.5625 L338.1094,625.0156 Q338.1094,625.625 337.875,625.8906 Q337.6406,626.1563 337.2656,626.1563 Q336.9219,626.1563 336.7188,625.9531 Q336.5156,625.7656 336.4063,625.25 Q336.3594,624.8906 336.1719,624.7031 Q335.8438,624.3281 335.2344,624.1094 Q334.625,623.8906 334,623.8906 Q333.2344,623.8906 332.5938,624.2188 Q331.9688,624.5469 331.4688,625.2969 Q330.9844,626.0469 330.9844,627.0781 L330.9844,628.1719 Q330.9844,629.4063 331.875,630.2344 Q332.7656,631.0469 334.3594,631.0469 Q335.2969,631.0469 335.9531,630.7969 Q336.3438,630.6406 336.7656,630.2031 Q337.0313,629.9375 337.1719,629.8594 Q337.3281,629.7813 337.5313,629.7813 Q337.8594,629.7813 338.1094,630.0469 Q338.375,630.2969 338.375,630.6406 Q338.375,630.9844 338.0313,631.3906 Q337.5313,631.9688 336.7344,632.2969 Q335.6563,632.75 334.3594,632.75 Q332.8438,632.75 331.6406,632.125 Q330.6563,631.625 329.9688,630.5625 Q329.2813,629.4844 329.2813,628.2031 L329.2813,627.0469 Q329.2813,625.7188 329.8906,624.5781 Q330.5156,623.4219 331.6094,622.8125 Q332.7031,622.1875 333.9375,622.1875 Q334.6719,622.1875 335.3125,622.3594 Q335.9688,622.5156 336.5156,622.875 Z " fill="#000000"/><text fill="#000000" font-family="sans-serif" font-size="14" lengthAdjust="spacing" textLength="80" x="354.25" y="632.7969">Organization</text><line style="stroke:#181818;stroke-width:0.5;" x1="244.5" x2="511.5" y1="643" y2="643"/><text fill="#000000" font-family="sans-serif" font-size="14" lengthAdjust="spacing" textLength="81" x="249.5" y="662.1074">-String name</text><text fill="#000000" font-family="sans-serif" font-size="14" lengthAdjust="spacing" textLength="114" x="249.5" y="680.7285">-String vatNumber</text><text fill="#000000" font-family="sans-serif" font-size="14" lengthAdjust="spacing" textLength="97" x="249.5" y="699.3496">-String address</text><text fill="#000000" font-family="sans-serif" font-size="14" lengthAdjust="spacing" textLength="86" x="249.5" y="717.9707">-String phone</text><text fill="#000000" font-family="sans-serif" font-size="14" lengthAdjust="spacing" textLength="79" x="249.5" y="736.5918">-String email</text><line style="stroke:#181818;stroke-width:0.5;" x1="244.5" x2="511.5" y1="744.1055" y2="744.1055"/><text fill="#000000" font-family="sans-serif" font-size="14" lengthAdjust="spacing" textLength="257" x="249.5" y="763.2129">+Optional&lt;Skill&gt; createSkill(String name)</text><text fill="#000000" font-family="sans-serif" font-size="14" lengthAdjust="spacing" textLength="174" x="249.5" y="781.834">+boolean addSkill(Skill skill)</text><text fill="#000000" font-family="sans-serif" font-size="14" lengthAdjust="spacing" textLength="199" x="249.5" y="800.4551">+boolean validateSkill(Skill skill)</text><text fill="#000000" font-family="sans-serif" font-size="14" lengthAdjust="spacing" textLength="243" x="249.5" y="819.0762">+boolean skillsDoNotContain(Skill skill)</text><text fill="#000000" font-family="sans-serif" font-size="14" lengthAdjust="spacing" textLength="168" x="249.5" y="837.6973">+boolean equals(Object o)</text></g><!--class OrganizationRepository--><g id="elem_OrganizationRepository"><rect codeLine="47" fill="#F1F1F1" height="85.2422" id="OrganizationRepository" rx="2.5" ry="2.5" style="stroke:#181818;stroke-width:0.5;" width="248" x="373" y="419"/><ellipse cx="418.75" cy="435" fill="#ADD1B2" rx="11" ry="11" style="stroke:#181818;stroke-width:1.0;"/><path d="M421.5156,430.875 Q421.6719,430.6563 421.8594,430.5469 Q422.0469,430.4375 422.2656,430.4375 Q422.6406,430.4375 422.875,430.7031 Q423.1094,430.9531 423.1094,431.5625 L423.1094,433.0156 Q423.1094,433.625 422.875,433.8906 Q422.6406,434.1563 422.2656,434.1563 Q421.9219,434.1563 421.7188,433.9531 Q421.5156,433.7656 421.4063,433.25 Q421.3594,432.8906 421.1719,432.7031 Q420.8438,432.3281 420.2344,432.1094 Q419.625,431.8906 419,431.8906 Q418.2344,431.8906 417.5938,432.2188 Q416.9688,432.5469 416.4688,433.2969 Q415.9844,434.0469 415.9844,435.0781 L415.9844,436.1719 Q415.9844,437.4063 416.875,438.2344 Q417.7656,439.0469 419.3594,439.0469 Q420.2969,439.0469 420.9531,438.7969 Q421.3438,438.6406 421.7656,438.2031 Q422.0313,437.9375 422.1719,437.8594 Q422.3281,437.7813 422.5313,437.7813 Q422.8594,437.7813 423.1094,438.0469 Q423.375,438.2969 423.375,438.6406 Q423.375,438.9844 423.0313,439.3906 Q422.5313,439.9688 421.7344,440.2969 Q420.6563,440.75 419.3594,440.75 Q417.8438,440.75 416.6406,440.125 Q415.6563,439.625 414.9688,438.5625 Q414.2813,437.4844 414.2813,436.2031 L414.2813,435.0469 Q414.2813,433.7188 414.8906,432.5781 Q415.5156,431.4219 416.6094,430.8125 Q417.7031,430.1875 418.9375,430.1875 Q419.6719,430.1875 420.3125,430.3594 Q420.9688,430.5156 421.5156,430.875 Z " fill="#000000"/><text fill="#000000" font-family="sans-serif" font-size="14" lengthAdjust="spacing" textLength="148" x="439.25" y="440.7969">OrganizationRepository</text><line style="stroke:#181818;stroke-width:0.5;" x1="374" x2="620" y1="451" y2="451"/><line style="stroke:#181818;stroke-width:0.5;" x1="374" x2="620" y1="459" y2="459"/><text fill="#000000" font-family="sans-serif" font-size="14" lengthAdjust="spacing" textLength="169" x="379" y="478.1074">+findByName(String name)</text><text fill="#000000" font-family="sans-serif" font-size="14" lengthAdjust="spacing" textLength="236" x="379" y="496.7285">+findByVatNumber(String vatNumber)</text></g><!--class Repositories--><g id="elem_Repositories"><rect codeLine="52" fill="#F1F1F1" height="103.8633" id="Repositories" rx="2.5" ry="2.5" style="stroke:#181818;stroke-width:0.5;" width="358" x="584" y="208"/><ellipse cx="719.25" cy="224" fill="#ADD1B2" rx="11" ry="11" style="stroke:#181818;stroke-width:1.0;"/><path d="M722.0156,219.875 Q722.1719,219.6563 722.3594,219.5469 Q722.5469,219.4375 722.7656,219.4375 Q723.1406,219.4375 723.375,219.7031 Q723.6094,219.9531 723.6094,220.5625 L723.6094,222.0156 Q723.6094,222.625 723.375,222.8906 Q723.1406,223.1563 722.7656,223.1563 Q722.4219,223.1563 722.2188,222.9531 Q722.0156,222.7656 721.9063,222.25 Q721.8594,221.8906 721.6719,221.7031 Q721.3438,221.3281 720.7344,221.1094 Q720.125,220.8906 719.5,220.8906 Q718.7344,220.8906 718.0938,221.2188 Q717.4688,221.5469 716.9688,222.2969 Q716.4844,223.0469 716.4844,224.0781 L716.4844,225.1719 Q716.4844,226.4063 717.375,227.2344 Q718.2656,228.0469 719.8594,228.0469 Q720.7969,228.0469 721.4531,227.7969 Q721.8438,227.6406 722.2656,227.2031 Q722.5313,226.9375 722.6719,226.8594 Q722.8281,226.7813 723.0313,226.7813 Q723.3594,226.7813 723.6094,227.0469 Q723.875,227.2969 723.875,227.6406 Q723.875,227.9844 723.5313,228.3906 Q723.0313,228.9688 722.2344,229.2969 Q721.1563,229.75 719.8594,229.75 Q718.3438,229.75 717.1406,229.125 Q716.1563,228.625 715.4688,227.5625 Q714.7813,226.4844 714.7813,225.2031 L714.7813,224.0469 Q714.7813,222.7188 715.3906,221.5781 Q716.0156,220.4219 717.1094,219.8125 Q718.2031,219.1875 719.4375,219.1875 Q720.1719,219.1875 720.8125,219.3594 Q721.4688,219.5156 722.0156,219.875 Z " fill="#000000"/><text fill="#000000" font-family="sans-serif" font-size="14" lengthAdjust="spacing" textLength="79" x="739.75" y="229.7969">Repositories</text><line style="stroke:#181818;stroke-width:0.5;" x1="585" x2="941" y1="240" y2="240"/><line style="stroke:#181818;stroke-width:0.5;" x1="585" x2="941" y1="248" y2="248"/><text fill="#000000" font-family="sans-serif" font-size="14" lengthAdjust="spacing" textLength="182" x="590" y="267.1074">+getInstance() : Repositories</text><text fill="#000000" font-family="sans-serif" font-size="14" lengthAdjust="spacing" textLength="236" x="590" y="285.7285">+getSkillRepository() : SkillRepository</text><text fill="#000000" font-family="sans-serif" font-size="14" lengthAdjust="spacing" textLength="346" x="590" y="304.3496">+getOrganizationRepository() : OrganizationRepository</text></g><!--class CreateSkillController--><g id="elem_CreateSkillController"><rect codeLine="58" fill="#F1F1F1" height="122.4844" id="CreateSkillController" rx="2.5" ry="2.5" style="stroke:#181818;stroke-width:0.5;" width="453" x="536.5" y="7"/><ellipse cx="693.75" cy="23" fill="#ADD1B2" rx="11" ry="11" style="stroke:#181818;stroke-width:1.0;"/><path d="M696.5156,18.875 Q696.6719,18.6563 696.8594,18.5469 Q697.0469,18.4375 697.2656,18.4375 Q697.6406,18.4375 697.875,18.7031 Q698.1094,18.9531 698.1094,19.5625 L698.1094,21.0156 Q698.1094,21.625 697.875,21.8906 Q697.6406,22.1563 697.2656,22.1563 Q696.9219,22.1563 696.7188,21.9531 Q696.5156,21.7656 696.4063,21.25 Q696.3594,20.8906 696.1719,20.7031 Q695.8438,20.3281 695.2344,20.1094 Q694.625,19.8906 694,19.8906 Q693.2344,19.8906 692.5938,20.2188 Q691.9688,20.5469 691.4688,21.2969 Q690.9844,22.0469 690.9844,23.0781 L690.9844,24.1719 Q690.9844,25.4063 691.875,26.2344 Q692.7656,27.0469 694.3594,27.0469 Q695.2969,27.0469 695.9531,26.7969 Q696.3438,26.6406 696.7656,26.2031 Q697.0313,25.9375 697.1719,25.8594 Q697.3281,25.7813 697.5313,25.7813 Q697.8594,25.7813 698.1094,26.0469 Q698.375,26.2969 698.375,26.6406 Q698.375,26.9844 698.0313,27.3906 Q697.5313,27.9688 696.7344,28.2969 Q695.6563,28.75 694.3594,28.75 Q692.8438,28.75 691.6406,28.125 Q690.6563,27.625 689.9688,26.5625 Q689.2813,25.4844 689.2813,24.2031 L689.2813,23.0469 Q689.2813,21.7188 689.8906,20.5781 Q690.5156,19.4219 691.6094,18.8125 Q692.7031,18.1875 693.9375,18.1875 Q694.6719,18.1875 695.3125,18.3594 Q695.9688,18.5156 696.5156,18.875 Z " fill="#000000"/><text fill="#000000" font-family="sans-serif" font-size="14" lengthAdjust="spacing" textLength="130" x="714.25" y="28.7969">CreateSkillController</text><line style="stroke:#181818;stroke-width:0.5;" x1="537.5" x2="988.5" y1="39" y2="39"/><text fill="#000000" font-family="sans-serif" font-size="14" lengthAdjust="spacing" textLength="185" x="542.5" y="58.1074">JobRepository jobRepository,</text><line style="stroke:#181818;stroke-width:0.5;" x1="537.5" x2="988.5" y1="65.6211" y2="65.6211"/><text fill="#000000" font-family="sans-serif" font-size="14" lengthAdjust="spacing" textLength="441" x="542.5" y="84.7285">+CreateJobController(OrganizationRepository organizationRepository,</text><text fill="#000000" font-family="sans-serif" font-size="14" lengthAdjust="spacing" textLength="324" x="542.5" y="103.3496">AuthenticationRepository authenticationRepository)</text><text fill="#000000" font-family="sans-serif" font-size="14" lengthAdjust="spacing" textLength="323" x="542.5" y="121.9707">+Optional&lt;Skill&gt; createSkill(String name, HRM hrm)</text></g><!--class CreateSkillUI--><g id="elem_CreateSkillUI"><rect codeLine="65" fill="#F1F1F1" height="66.6211" id="CreateSkillUI" rx="2.5" ry="2.5" style="stroke:#181818;stroke-width:0.5;" width="139" x="362.5" y="34.5"/><ellipse cx="389.65" cy="50.5" fill="#ADD1B2" rx="11" ry="11" style="stroke:#181818;stroke-width:1.0;"/><path d="M392.4156,46.375 Q392.5719,46.1563 392.7594,46.0469 Q392.9469,45.9375 393.1656,45.9375 Q393.5406,45.9375 393.775,46.2031 Q394.0094,46.4531 394.0094,47.0625 L394.0094,48.5156 Q394.0094,49.125 393.775,49.3906 Q393.5406,49.6563 393.1656,49.6563 Q392.8219,49.6563 392.6188,49.4531 Q392.4156,49.2656 392.3063,48.75 Q392.2594,48.3906 392.0719,48.2031 Q391.7438,47.8281 391.1344,47.6094 Q390.525,47.3906 389.9,47.3906 Q389.1344,47.3906 388.4938,47.7188 Q387.8688,48.0469 387.3688,48.7969 Q386.8844,49.5469 386.8844,50.5781 L386.8844,51.6719 Q386.8844,52.9063 387.775,53.7344 Q388.6656,54.5469 390.2594,54.5469 Q391.1969,54.5469 391.8531,54.2969 Q392.2438,54.1406 392.6656,53.7031 Q392.9313,53.4375 393.0719,53.3594 Q393.2281,53.2813 393.4313,53.2813 Q393.7594,53.2813 394.0094,53.5469 Q394.275,53.7969 394.275,54.1406 Q394.275,54.4844 393.9313,54.8906 Q393.4313,55.4688 392.6344,55.7969 Q391.5563,56.25 390.2594,56.25 Q388.7438,56.25 387.5406,55.625 Q386.5563,55.125 385.8688,54.0625 Q385.1813,52.9844 385.1813,51.7031 L385.1813,50.5469 Q385.1813,49.2188 385.7906,48.0781 Q386.4156,46.9219 387.5094,46.3125 Q388.6031,45.6875 389.8375,45.6875 Q390.5719,45.6875 391.2125,45.8594 Q391.8688,46.0156 392.4156,46.375 Z " fill="#000000"/><text fill="#000000" font-family="sans-serif" font-size="14" lengthAdjust="spacing" textLength="80" x="406.35" y="56.2969">CreateSkillUI</text><line style="stroke:#181818;stroke-width:0.5;" x1="363.5" x2="500.5" y1="66.5" y2="66.5"/><line style="stroke:#181818;stroke-width:0.5;" x1="363.5" x2="500.5" y1="74.5" y2="74.5"/><text fill="#000000" font-family="sans-serif" font-size="14" lengthAdjust="spacing" textLength="127" x="368.5" y="93.6074">+requestSkillName()</text></g><!--class HRManager--><g id="elem_HRManager"><rect codeLine="69" fill="#F1F1F1" height="141.1055" id="HRManager" rx="2.5" ry="2.5" style="stroke:#181818;stroke-width:0.5;" width="147" x="63.5" y="924"/><ellipse cx="96.5" cy="940" fill="#ADD1B2" rx="11" ry="11" style="stroke:#181818;stroke-width:1.0;"/><path d="M99.2656,935.875 Q99.4219,935.6563 99.6094,935.5469 Q99.7969,935.4375 100.0156,935.4375 Q100.3906,935.4375 100.625,935.7031 Q100.8594,935.9531 100.8594,936.5625 L100.8594,938.0156 Q100.8594,938.625 100.625,938.8906 Q100.3906,939.1563 100.0156,939.1563 Q99.6719,939.1563 99.4688,938.9531 Q99.2656,938.7656 99.1563,938.25 Q99.1094,937.8906 98.9219,937.7031 Q98.5938,937.3281 97.9844,937.1094 Q97.375,936.8906 96.75,936.8906 Q95.9844,936.8906 95.3438,937.2188 Q94.7188,937.5469 94.2188,938.2969 Q93.7344,939.0469 93.7344,940.0781 L93.7344,941.1719 Q93.7344,942.4063 94.625,943.2344 Q95.5156,944.0469 97.1094,944.0469 Q98.0469,944.0469 98.7031,943.7969 Q99.0938,943.6406 99.5156,943.2031 Q99.7813,942.9375 99.9219,942.8594 Q100.0781,942.7813 100.2813,942.7813 Q100.6094,942.7813 100.8594,943.0469 Q101.125,943.2969 101.125,943.6406 Q101.125,943.9844 100.7813,944.3906 Q100.2813,944.9688 99.4844,945.2969 Q98.4063,945.75 97.1094,945.75 Q95.5938,945.75 94.3906,945.125 Q93.4063,944.625 92.7188,943.5625 Q92.0313,942.4844 92.0313,941.2031 L92.0313,940.0469 Q92.0313,938.7188 92.6406,937.5781 Q93.2656,936.4219 94.3594,935.8125 Q95.4531,935.1875 96.6875,935.1875 Q97.4219,935.1875 98.0625,935.3594 Q98.7188,935.5156 99.2656,935.875 Z " fill="#000000"/><text fill="#000000" font-family="sans-serif" font-size="14" lengthAdjust="spacing" textLength="75" x="114.5" y="945.7969">HRManager</text><line style="stroke:#181818;stroke-width:0.5;" x1="64.5" x2="209.5" y1="956" y2="956"/><text fill="#000000" font-family="sans-serif" font-size="14" lengthAdjust="spacing" textLength="81" x="69.5" y="975.1074">-String name</text><text fill="#000000" font-family="sans-serif" font-size="14" lengthAdjust="spacing" textLength="92" x="69.5" y="993.7285">-int vatNumber</text><text fill="#000000" font-family="sans-serif" font-size="14" lengthAdjust="spacing" textLength="79" x="69.5" y="1012.3496">-String email</text><text fill="#000000" font-family="sans-serif" font-size="14" lengthAdjust="spacing" textLength="112" x="69.5" y="1030.9707">-int phonenumber</text><line style="stroke:#181818;stroke-width:0.5;" x1="64.5" x2="209.5" y1="1038.4844" y2="1038.4844"/><text fill="#000000" font-family="sans-serif" font-size="14" lengthAdjust="spacing" textLength="135" x="69.5" y="1057.5918">+manageSkills(): void</text></g><!--class SkillManager--><g id="elem_SkillManager"><rect fill="#F1F1F1" height="48" id="SkillManager" rx="2.5" ry="2.5" style="stroke:#181818;stroke-width:0.5;" width="113" x="233.5" y="1144"/><ellipse cx="248.5" cy="1160" fill="#ADD1B2" rx="11" ry="11" style="stroke:#181818;stroke-width:1.0;"/><path d="M251.2656,1155.875 Q251.4219,1155.6563 251.6094,1155.5469 Q251.7969,1155.4375 252.0156,1155.4375 Q252.3906,1155.4375 252.625,1155.7031 Q252.8594,1155.9531 252.8594,1156.5625 L252.8594,1158.0156 Q252.8594,1158.625 252.625,1158.8906 Q252.3906,1159.1563 252.0156,1159.1563 Q251.6719,1159.1563 251.4688,1158.9531 Q251.2656,1158.7656 251.1563,1158.25 Q251.1094,1157.8906 250.9219,1157.7031 Q250.5938,1157.3281 249.9844,1157.1094 Q249.375,1156.8906 248.75,1156.8906 Q247.9844,1156.8906 247.3438,1157.2188 Q246.7188,1157.5469 246.2188,1158.2969 Q245.7344,1159.0469 245.7344,1160.0781 L245.7344,1161.1719 Q245.7344,1162.4063 246.625,1163.2344 Q247.5156,1164.0469 249.1094,1164.0469 Q250.0469,1164.0469 250.7031,1163.7969 Q251.0938,1163.6406 251.5156,1163.2031 Q251.7813,1162.9375 251.9219,1162.8594 Q252.0781,1162.7813 252.2813,1162.7813 Q252.6094,1162.7813 252.8594,1163.0469 Q253.125,1163.2969 253.125,1163.6406 Q253.125,1163.9844 252.7813,1164.3906 Q252.2813,1164.9688 251.4844,1165.2969 Q250.4063,1165.75 249.1094,1165.75 Q247.5938,1165.75 246.3906,1165.125 Q245.4063,1164.625 244.7188,1163.5625 Q244.0313,1162.4844 244.0313,1161.2031 L244.0313,1160.0469 Q244.0313,1158.7188 244.6406,1157.5781 Q245.2656,1156.4219 246.3594,1155.8125 Q247.4531,1155.1875 248.6875,1155.1875 Q249.4219,1155.1875 250.0625,1155.3594 Q250.7188,1155.5156 251.2656,1155.875 Z " fill="#000000"/><text fill="#000000" font-family="sans-serif" font-size="14" lengthAdjust="spacing" textLength="81" x="262.5" y="1165.7969">SkillManager</text><line style="stroke:#181818;stroke-width:0.5;" x1="234.5" x2="345.5" y1="1176" y2="1176"/><line style="stroke:#181818;stroke-width:0.5;" x1="234.5" x2="345.5" y1="1184" y2="1184"/></g><g id="elem_GMN15"><path d="M1025,45.5 L1025,64 L989.53,68 L1025,72 L1025,90.082 A0,0 0 0 0 1025,90.082 L1307,90.082 A0,0 0 0 0 1307,90.082 L1307,55.5 L1297,45.5 L1025,45.5 A0,0 0 0 0 1025,45.5 " fill="#FEFFDD" style="stroke:#181818;stroke-width:0.5;"/><path d="M1297,45.5 L1297,55.5 L1307,55.5 L1297,45.5 " fill="#FEFFDD" style="stroke:#181818;stroke-width:0.5;"/><text fill="#000000" font-family="sans-serif" font-size="13" lengthAdjust="spacing" textLength="261" x="1031" y="64.5283">- Skill name is obtained from the HRM's input</text><text fill="#000000" font-family="sans-serif" font-size="13" lengthAdjust="spacing" textLength="173" x="1031" y="81.8193">- Updates the Skill Repository</text></g><g id="elem_GMN18"><path d="M246,981 L246,990.5 L210.67,994.5 L246,998.5 L246,1008.291 A0,0 0 0 0 246,1008.291 L430,1008.291 A0,0 0 0 0 430,1008.291 L430,991 L420,981 L246,981 A0,0 0 0 0 246,981 " fill="#FEFFDD" style="stroke:#181818;stroke-width:0.5;"/><path d="M420,981 L420,991 L430,991 L420,981 " fill="#FEFFDD" style="stroke:#181818;stroke-width:0.5;"/><text fill="#000000" font-family="sans-serif" font-size="13" lengthAdjust="spacing" textLength="163" x="252" y="1000.0283">- HRM initiates skill creation</text></g><g id="elem_GMN21"><path d="M54.5,45.5 L54.5,90.082 L327.5,90.082 L327.5,55.5 L317.5,45.5 L54.5,45.5 " fill="#FEFFDD" style="stroke:#181818;stroke-width:0.5;"/><path d="M317.5,45.5 L317.5,55.5 L327.5,55.5 L317.5,45.5 " fill="#FEFFDD" style="stroke:#181818;stroke-width:1.0;"/><text fill="#000000" font-family="sans-serif" font-size="13" lengthAdjust="spacing" textLength="252" x="60.5" y="64.5283">- UI for HRM to input and confirm skill name</text><text fill="#000000" font-family="sans-serif" font-size="13" lengthAdjust="spacing" textLength="244" x="60.5" y="81.8193">- Communicates with CreateSkillController</text></g><g id="elem_GMN24"><path d="M6,705.5 L6,750.082 A0,0 0 0 0 6,750.082 L208,750.082 A0,0 0 0 0 208,750.082 L208,732 L243.34,728 L208,724 L208,715.5 L198,705.5 L6,705.5 A0,0 0 0 0 6,705.5 " fill="#FEFFDD" style="stroke:#181818;stroke-width:0.5;"/><path d="M198,705.5 L198,715.5 L208,715.5 L198,705.5 " fill="#FEFFDD" style="stroke:#181818;stroke-width:0.5;"/><text fill="#000000" font-family="sans-serif" font-size="13" lengthAdjust="spacing" textLength="95" x="12" y="724.5283">- Manages skills</text><text fill="#000000" font-family="sans-serif" font-size="13" lengthAdjust="spacing" textLength="181" x="12" y="741.8193">- Handles organizational details</text></g><!--link SkillManager to Skill--><g id="link_SkillManager_Skill"><path codeLine="77" d="M290,1192.12 C290,1213.83 290,1240.52 290,1264.87 " fill="none" id="SkillManager-to-Skill" style="stroke:#181818;stroke-width:1.0;"/><polygon fill="#181818" points="290,1270.87,294,1261.87,290,1265.87,286,1261.87,290,1270.87" style="stroke:#181818;stroke-width:1.0;"/><text fill="#000000" font-family="sans-serif" font-size="13" lengthAdjust="spacing" textLength="53" x="291" y="1237.0283">Manages</text></g><!--link HRManager to SkillManager--><g id="link_HRManager_SkillManager"><path codeLine="78" d="M199.23,1065.26 C224.22,1093.26 247.3158,1119.1526 265.3358,1139.3526 " fill="none" id="HRManager-to-SkillManager" style="stroke:#181818;stroke-width:1.0;"/><polygon fill="#181818" points="269.33,1143.83,266.3237,1134.4512,266.0015,1140.0989,260.3539,1139.7767,269.33,1143.83" style="stroke:#181818;stroke-width:1.0;"/><text fill="#000000" font-family="sans-serif" font-size="13" lengthAdjust="spacing" textLength="30" x="242" y="1110.0283">Uses</text></g><!--link GMN21 to CreateSkillUI--><g id="link_GMN21_CreateSkillUI"><path d="M327.56,68 C341.06,68 351.67,68 351.67,68 C351.67,68 355.79,68 362.17,68 " fill="none" id="GMN21-CreateSkillUI" style="stroke:#181818;stroke-width:1.0;stroke-dasharray:7.0,7.0;"/></g><!--link Repositories to Repositories--><g id="link_Repositories_Repositories"><path codeLine="99" d="M942.13,245.55 C963.24,248.2 977,253.01 977,260 C977,266.99 969.1933,271.0527 948.0833,273.7027 " fill="none" id="Repositories-to-Repositories" style="stroke:#181818;stroke-width:1.0;"/><polygon fill="#181818" points="942.13,274.45,951.5581,277.2979,947.0911,273.8272,950.5617,269.3602,942.13,274.45" style="stroke:#181818;stroke-width:1.0;"/><text fill="#000000" font-family="sans-serif" font-size="13" lengthAdjust="spacing" textLength="49" x="983" y="265.5283">instance</text></g><!--link ApplicationSession to ApplicationSession--><g id="link_ApplicationSession_ApplicationSession"><path codeLine="100" d="M1278.66,243.29 C1298.5,244.28 1313.5,249.85 1313.5,260 C1313.5,270.15 1304.4925,275.421 1284.6525,276.411 " fill="none" id="ApplicationSession-to-ApplicationSession" style="stroke:#181818;stroke-width:1.0;"/><polygon fill="#181818" points="1278.66,276.71,1287.8482,280.2565,1283.6538,276.4608,1287.4495,272.2664,1278.66,276.71" style="stroke:#181818;stroke-width:1.0;"/><text fill="#000000" font-family="sans-serif" font-size="13" lengthAdjust="spacing" textLength="49" x="1319.5" y="265.5283">instance</text></g><!--link CreateSkillUI to CreateSkillController--><g id="link_CreateSkillUI_CreateSkillController"><path codeLine="102" d="M501.56,68 C516.02,68 523.06,68 530.32,68 " fill="none" id="CreateSkillUI-to-CreateSkillController" style="stroke:#181818;stroke-width:1.0;stroke-dasharray:7.0,7.0;"/><polygon fill="#181818" points="536.32,68,527.32,64,531.32,68,527.32,72,536.32,68" style="stroke:#181818;stroke-width:1.0;"/></g><!--link CreateSkillController to Repositories--><g id="link_CreateSkillController_Repositories"><path codeLine="104" d="M763,129.12 C763,154.45 763,177.62 763,201.9 " fill="none" id="CreateSkillController-to-Repositories" style="stroke:#181818;stroke-width:1.0;"/><polygon fill="#181818" points="763,207.9,767,198.9,763,202.9,759,198.9,763,207.9" style="stroke:#181818;stroke-width:1.0;"/><text fill="#000000" font-family="sans-serif" font-size="13" lengthAdjust="spacing" textLength="108" x="764" y="174.0283">retrieves instances</text></g><!--link Repositories to SkillRepository--><g id="link_Repositories_SkillRepository"><path codeLine="106" d="M765.31,312.12 C766.38,336.01 767.4089,358.8461 768.5789,384.7161 " fill="none" id="Repositories-to-SkillRepository" style="stroke:#181818;stroke-width:1.0;"/><polygon fill="#181818" points="768.85,390.71,772.4393,381.5385,768.6241,385.7151,764.4475,381.8999,768.85,390.71" style="stroke:#181818;stroke-width:1.0;"/><text fill="#000000" font-family="sans-serif" font-size="13" lengthAdjust="spacing" textLength="56" x="769" y="357.0283">accesses</text></g><!--link Repositories to OrganizationRepository--><g id="link_Repositories_OrganizationRepository"><path codeLine="107" d="M636.27,312.07 C596.14,328.24 562,342 562,342 C562,342 541.5149,379.3391 522.8049,413.4591 " fill="none" id="Repositories-to-OrganizationRepository" style="stroke:#181818;stroke-width:1.0;"/><polygon fill="#181818" points="519.92,418.72,527.7546,412.7518,522.3241,414.3359,520.74,408.9053,519.92,418.72" style="stroke:#181818;stroke-width:1.0;"/><text fill="#000000" font-family="sans-serif" font-size="13" lengthAdjust="spacing" textLength="56" x="563" y="357.0283">accesses</text></g><!--link Repositories to OrganizationRepository--><g id="link_Repositories_OrganizationRepository"><path codeLine="111" d="M694.84,312.12 C650.67,345.25 598.65,384.26 557.25,415.31 " fill="none" id="Repositories-to-OrganizationRepository-1" style="stroke:#181818;stroke-width:1.0;"/><polygon fill="#181818" points="552.45,418.91,562.05,416.71,556.45,415.91,557.25,410.31,552.45,418.91" style="stroke:#181818;stroke-width:1.0;"/><text fill="#000000" font-family="sans-serif" font-size="13" lengthAdjust="spacing" textLength="7" x="553.7295" y="407.7997">1</text></g><!--link CreateSkillController to OrganizationRepository--><g id="link_CreateSkillController_OrganizationRepository"><path codeLine="109" d="M619.74,129.16 C530.29,166.73 432,208 432,208 C432,208 432,312 432,312 C432,312 457.0946,369.3233 476.3146,413.2433 " fill="none" id="CreateSkillController-to-OrganizationRepository" style="stroke:#181818;stroke-width:1.0;stroke-dasharray:7.0,7.0;"/><polygon fill="#181818" points="478.72,418.74,478.7763,408.8913,476.7155,414.1594,471.4474,412.0986,478.72,418.74" style="stroke:#181818;stroke-width:1.0;"/><text fill="#000000" font-family="sans-serif" font-size="13" lengthAdjust="spacing" textLength="132" x="433" y="265.5283">organizationRepository</text></g><!--link OrganizationRepository to Organization--><g id="link_OrganizationRepository_Organization"><path codeLine="113" d="M478.28,504.12 C465.32,532.92 449.8414,567.3081 432.7214,605.3681 " fill="none" id="OrganizationRepository-to-Organization" style="stroke:#181818;stroke-width:1.0;"/><polygon fill="#181818" points="430.26,610.84,437.6,604.273,432.3111,606.2801,430.3041,600.9912,430.26,610.84" style="stroke:#181818;stroke-width:1.0;"/><text fill="#000000" font-family="sans-serif" font-size="13" lengthAdjust="spacing" textLength="46" x="453" y="577.0283">persists</text><text fill="#000000" font-family="sans-serif" font-size="13" lengthAdjust="spacing" textLength="5" x="428.4478" y="599.8208">*</text></g><!--link ApplicationSession to UserSession--><g id="link_ApplicationSession_UserSession"><path codeLine="114" d="M1185.81,302.82 C1170.5,340.07 1150.6912,388.2606 1136.6612,422.3906 " fill="none" id="ApplicationSession-to-UserSession" style="stroke:#181818;stroke-width:1.0;"/><polygon fill="#181818" points="1134.38,427.94,1141.5015,421.1367,1136.281,423.3155,1134.1022,418.0951,1134.38,427.94" style="stroke:#181818;stroke-width:1.0;"/><text fill="#000000" font-family="sans-serif" font-size="13" lengthAdjust="spacing" textLength="72" x="1171" y="357.0283">userSession</text><text fill="#000000" font-family="sans-serif" font-size="13" lengthAdjust="spacing" textLength="7" x="1129.3251" y="416.7537">1</text></g><!--link CreateSkillController to Organization--><g id="link_CreateSkillController_Organization"><path codeLine="116" d="M584.91,129.03 C535.93,145.54 496,159 496,159 C496,159 424,208 424,208 C424,208 366,342 366,342 C366,342 355,391 355,391 C355,391 355,532 355,532 C355,532 358.6566,563.0314 363.5866,604.7914 " fill="none" id="CreateSkillController-to-Organization" style="stroke:#181818;stroke-width:1.0;stroke-dasharray:7.0,7.0;"/><polygon fill="#181818" points="364.29,610.75,367.2072,601.3431,363.7038,605.7845,359.2624,602.281,364.29,610.75" style="stroke:#181818;stroke-width:1.0;"/><text fill="#000000" font-family="sans-serif" font-size="13" lengthAdjust="spacing" textLength="70" x="367" y="357.0283">organization</text><text fill="#000000" font-family="sans-serif" font-size="13" lengthAdjust="spacing" textLength="7" x="356.1875" y="599.725">1</text></g><!--link CreateSkillController to ApplicationSession--><g id="link_CreateSkillController_ApplicationSession"><path codeLine="117" d="M987.78,129.03 C1049.6,145.54 1100,159 1100,159 C1100,159 1127.6055,185.8002 1155.9055,213.2802 " fill="none" id="CreateSkillController-to-ApplicationSession" style="stroke:#181818;stroke-width:1.0;stroke-dasharray:7.0,7.0;"/><polygon fill="#181818" points="1160.21,217.46,1156.5397,208.3206,1156.6229,213.9768,1150.9666,214.06,1160.21,217.46" style="stroke:#181818;stroke-width:1.0;"/></g><!--link CreateSkillController to UserSession--><g id="link_CreateSkillController_UserSession"><path codeLine="118" d="M882.02,129.16 C956.34,166.73 1038,208 1038,208 C1038,208 1085.9069,353.7299 1108.3569,422.0499 " fill="none" id="CreateSkillController-to-UserSession" style="stroke:#181818;stroke-width:1.0;stroke-dasharray:7.0,7.0;"/><polygon fill="#181818" points="1110.23,427.75,1111.2205,417.9511,1108.6691,422.9999,1103.6203,420.4485,1110.23,427.75" style="stroke:#181818;stroke-width:1.0;"/></g><!--link Organization to Skill--><g id="link_Organization_Skill"><path codeLine="119" d="M419.13,845.25 C433.91,887.01 447,924 447,924 C447,924 447,1065 447,1065 C447,1065 353,1241 353,1241 C353,1241 342.478,1251.4328 327.238,1266.5628 " fill="none" id="Organization-to-Skill" style="stroke:#181818;stroke-width:1.0;"/><polygon fill="#181818" points="322.98,1270.79,332.1851,1267.2878,326.5283,1267.2673,326.5488,1261.6105,322.98,1270.79" style="stroke:#181818;stroke-width:1.0;"/><text fill="#000000" font-family="sans-serif" font-size="13" lengthAdjust="spacing" textLength="30" x="432" y="1110.0283">owns</text><text fill="#000000" font-family="sans-serif" font-size="13" lengthAdjust="spacing" textLength="7" x="414.5407" y="867.3367">1</text><text fill="#000000" font-family="sans-serif" font-size="13" lengthAdjust="spacing" textLength="5" x="323.7903" y="1259.8359">*</text></g><!--link Skill to HRManager--><g id="link_Skill_HRManager"><path codeLine="120" d="M250.59,1270.95 C210.74,1238.04 155,1192 155,1192 C155,1192 149.0976,1127.555 143.9176,1071.035 " fill="none" id="Skill-to-HRManager" style="stroke:#181818;stroke-width:1.0;"/><polygon fill="#181818" points="143.37,1065.06,140.2081,1074.3875,143.8263,1070.0391,148.1747,1073.6574,143.37,1065.06" style="stroke:#181818;stroke-width:1.0;"/><text fill="#000000" font-family="sans-serif" font-size="13" lengthAdjust="spacing" textLength="59" x="156" y="1173.5283">createdBy</text></g><!--link Organization to HRManager--><g id="link_Organization_HRManager"><path codeLine="122" d="M272.29,845.01 C247.76,871.94 226.43,895.344 204.39,919.544 " fill="none" id="Organization-to-HRManager" style="stroke:#181818;stroke-width:1.0;"/><polygon fill="#181818" points="200.35,923.98,209.3674,920.0194,203.7167,920.2833,203.4527,914.6326,200.35,923.98" style="stroke:#181818;stroke-width:1.0;"/><text fill="#000000" font-family="sans-serif" font-size="13" lengthAdjust="spacing" textLength="49" x="245" y="890.0283">employs</text><text fill="#000000" font-family="sans-serif" font-size="13" lengthAdjust="spacing" textLength="5" x="201.6252" y="912.869">*</text></g><!--SRC=[bLRTRzCm47_tNt7QorgsJl1QeKcZ8544cxHglBl9jVNcsC5sEdM8_vspdJHEceoHbzPtl_l-iC_jar0bDxo0GYkTxOmk49ofaBMSacTFV8ihTv081ZF7rLQc0BlZkNuMQWiRBctAaKAXEvG8fPO7Vs3d0qnjd6Q9L2QvjJVE6R6k72uphLRY1U4zO-SIDmwS1YEsEmUvyEu8hHWBCd1Jbb9at9DMQAtd_6P0tmLOH-GCjkYMYlwh32VJcaMqHMKCAbSB4UTFe_B1ekdh8W5F_b9m8LFiwab82H4r0yKBdCEAmb3R7kOUIss5q-OGq3FuBgpx65ZNOFsFPTxGNUb3uR9XyJoVH2C1D0sWjTOIkO8zboBd3WFW59QQe032Fpk9l0Xkg9yEj-Jw97eUmaXYl3DRhiHBo77jV09CptlkRgjYZIObKWI6ifcIofrM7K7qUHsCFpFO1fYwb-Q1J8oau8sPQc2n49_rhNOBhHmNQXoBlohg_SdT-f4w4lH8mdfrlu2DKFbGkblUpoQBatvQ4nj7lG9jhRdJw33lG1f0hnS3haTheCDH18bXLklSeYsQJwFHKgAflOoyRthTSYOZ2TE3vCimRF_uI7-Yw34zlKd-fd8xsWxrPabKyH76z7-wznA-tl-0dIccWpbxMDQvCjHZQ6FHGiSaUDB05ItfcDUJcII2KAupaQVZLeF2EAeZZ0mNGNMpCEQmroBtfWEbiJkRNSVUcKCaMTOwTMJMXBbVgvOnfHtMkrnlXXibBeOmTZuO41RqsiyYvh2Xwmge0ZxySqlUbvKB-8VIZxSDl2YRD2Qg7BpXllcZkq65hubGmecWA4nyBA2_27egmgtK3U1X6HrPmaQRe8nkhU0WS1AcEsqZJ57hFMxEXIwAIlbs8flFmkr6SZ9YFvsSeA-kH7kbK5naNX8f7ISk8KVAAK5QpPsTGlNhdESKIrmkxFJEzUW1QYB3klrzTJqI9nlU7JDwRgXJbmnIG-CUxT6GxOTH2_OluJdmZD2-9mVn8oif4HlnzEhg5U7XZTPtcSoVVJWRsx9iH7iGUzSL8vCb6all03jOjTfIyk8XYIfv_xmIPD_5NdYlI0wysSR1wMkiOyxRRsAE4qyEF2iRbrHWjUjeNgzYkbwx2JogIB5Ob58VBFiB]--></g></svg>