<?xml version="1.0" encoding="us-ascii" standalone="no"?><svg xmlns="http://www.w3.org/2000/svg" xmlns:xlink="http://www.w3.org/1999/xlink" contentStyleType="text/css" height="532px" preserveAspectRatio="none" style="width:511px;height:531px;background:#FFFFFF;" version="1.1" viewBox="0 0 511 531" width="511.7px" zoomAndPan="magnify"><defs/><g><rect fill="#FFFFFF" height="395.8773" style="stroke:#181818;stroke-width:0.6999999999999998;" width="7" x="63.7" y="65.5348"/><rect fill="#FFFFFF" height="52.4385" style="stroke:#181818;stroke-width:0.6999999999999998;" width="7" x="210.7" y="81.8385"/><rect fill="#FFFFFF" height="21.9037" style="stroke:#181818;stroke-width:0.6999999999999998;" width="7" x="210.7" y="156.1807"/><rect fill="#FFFFFF" height="261.424" style="stroke:#181818;stroke-width:0.6999999999999998;" width="7" x="210.7" y="199.9881"/><rect fill="#FFFFFF" height="356.9699" style="stroke:#181818;stroke-width:0.6999999999999998;" width="7" x="315.7" y="110.7422"/><rect fill="#FFFFFF" height="217.6166" style="stroke:#181818;stroke-width:0.6999999999999998;" width="7" x="319.2" y="221.8918"/><rect fill="#FFFFFF" height="74.5527" style="stroke:#181818;stroke-width:0.6999999999999998;" width="7" x="322.7" y="249.3955"/><rect fill="#FFFFFF" height="66.8527" style="stroke:#181818;stroke-width:0.6999999999999998;" width="7" x="467.6" y="350.752"/><line style="stroke:#181818;stroke-width:0.3499999999999999;stroke-dasharray:5.0,5.0;" x1="67.2" x2="67.2" y1="58.5348" y2="474.0121"/><line style="stroke:#181818;stroke-width:0.3499999999999999;stroke-dasharray:5.0,5.0;" x1="214.2" x2="214.2" y1="58.5348" y2="474.0121"/><line style="stroke:#181818;stroke-width:0.3499999999999999;stroke-dasharray:5.0,5.0;" x1="319.2" x2="319.2" y1="109.7059" y2="474.0121"/><line style="stroke:#181818;stroke-width:0.3499999999999999;stroke-dasharray:5.0,5.0;" x1="471.1" x2="471.1" y1="58.5348" y2="474.0121"/><text fill="#000000" font-family="sans-serif" font-size="9.8" lengthAdjust="spacing" textLength="123.2" x="3.5" y="56.0752">Human Resources Manager</text><ellipse cx="67.2" cy="9.45" fill="#E3E3E3" rx="5.6" ry="5.6" style="stroke:#181818;stroke-width:0.3499999999999999;"/><path d="M67.2,15.05 L67.2,33.95 M58.1,20.65 L76.3,20.65 M67.2,33.95 L58.1,44.45 M67.2,33.95 L76.3,44.45 " fill="none" style="stroke:#181818;stroke-width:0.3499999999999999;"/><text fill="#000000" font-family="sans-serif" font-size="9.8" lengthAdjust="spacing" textLength="123.2" x="3.5" y="483.8873">Human Resources Manager</text><ellipse cx="67.2" cy="492.2969" fill="#E3E3E3" rx="5.6" ry="5.6" style="stroke:#181818;stroke-width:0.3499999999999999;"/><path d="M67.2,497.8969 L67.2,516.7969 M58.1,503.4969 L76.3,503.4969 M67.2,516.7969 L58.1,527.2969 M67.2,516.7969 L76.3,527.2969 " fill="none" style="stroke:#181818;stroke-width:0.3499999999999999;"/><rect fill="#E3E3E3" height="22.8348" rx="1.75" ry="1.75" style="stroke:#181818;stroke-width:0.3499999999999999;" width="68.6" x="179.9" y="35"/><text fill="#000000" font-family="sans-serif" font-size="9.8" lengthAdjust="spacing" textLength="58.8" x="184.8" y="50.4752">:CreateSkillUI</text><rect fill="#E3E3E3" height="22.8348" rx="1.75" ry="1.75" style="stroke:#181818;stroke-width:0.3499999999999999;" width="68.6" x="179.9" y="473.3121"/><text fill="#000000" font-family="sans-serif" font-size="9.8" lengthAdjust="spacing" textLength="58.8" x="184.8" y="488.7873">:CreateSkillUI</text><rect fill="#E3E3E3" height="22.8348" rx="1.75" ry="1.75" style="stroke:#181818;stroke-width:0.3499999999999999;" width="103.6" x="267.4" y="473.3121"/><text fill="#000000" font-family="sans-serif" font-size="9.8" lengthAdjust="spacing" textLength="93.8" x="272.3" y="488.7873">:CreateSkillController</text><rect fill="#E3E3E3" height="35.8695" rx="1.75" ry="1.75" style="stroke:#181818;stroke-width:0.3499999999999999;" width="68.6" x="436.8" y="21.9652"/><text fill="#000000" font-family="sans-serif" font-size="9.8" lengthAdjust="spacing" textLength="53.9" x="444.15" y="37.4404">organization</text><text fill="#000000" font-family="sans-serif" font-size="9.8" lengthAdjust="spacing" textLength="58.8" x="441.7" y="50.4752">:Organization</text><rect fill="#E3E3E3" height="35.8695" rx="1.75" ry="1.75" style="stroke:#181818;stroke-width:0.3499999999999999;" width="68.6" x="436.8" y="473.3121"/><text fill="#000000" font-family="sans-serif" font-size="9.8" lengthAdjust="spacing" textLength="53.9" x="444.15" y="488.7873">organization</text><text fill="#000000" font-family="sans-serif" font-size="9.8" lengthAdjust="spacing" textLength="58.8" x="441.7" y="501.8221">:Organization</text><rect fill="#FFFFFF" height="395.8773" style="stroke:#181818;stroke-width:0.6999999999999998;" width="7" x="63.7" y="65.5348"/><rect fill="#FFFFFF" height="52.4385" style="stroke:#181818;stroke-width:0.6999999999999998;" width="7" x="210.7" y="81.8385"/><rect fill="#FFFFFF" height="21.9037" style="stroke:#181818;stroke-width:0.6999999999999998;" width="7" x="210.7" y="156.1807"/><rect fill="#FFFFFF" height="261.424" style="stroke:#181818;stroke-width:0.6999999999999998;" width="7" x="210.7" y="199.9881"/><rect fill="#FFFFFF" height="356.9699" style="stroke:#181818;stroke-width:0.6999999999999998;" width="7" x="315.7" y="110.7422"/><rect fill="#FFFFFF" height="217.6166" style="stroke:#181818;stroke-width:0.6999999999999998;" width="7" x="319.2" y="221.8918"/><rect fill="#FFFFFF" height="74.5527" style="stroke:#181818;stroke-width:0.6999999999999998;" width="7" x="322.7" y="249.3955"/><rect fill="#FFFFFF" height="66.8527" style="stroke:#181818;stroke-width:0.6999999999999998;" width="7" x="467.6" y="350.752"/><polygon fill="#181818" points="202.3,79.0385,209.3,81.8385,202.3,84.6385,205.1,81.8385" style="stroke:#181818;stroke-width:0.6999999999999998;"/><line style="stroke:#181818;stroke-width:0.6999999999999998;" x1="70.7" x2="206.5" y1="81.8385" y2="81.8385"/><text fill="#000000" font-family="sans-serif" font-size="9.1" font-weight="bold" lengthAdjust="spacing" textLength="4.9" x="75.6" y="78.1546">1</text><text fill="#000000" font-family="sans-serif" font-size="9.1" lengthAdjust="spacing" textLength="103.6" x="83.3" y="78.1546">asks to create a new skill</text><polygon fill="#181818" points="259,100.9422,266,103.7422,259,106.5422,261.8,103.7422" style="stroke:#181818;stroke-width:0.6999999999999998;"/><line style="stroke:#181818;stroke-width:0.6999999999999998;" x1="217.7" x2="263.2" y1="103.7422" y2="103.7422"/><text fill="#000000" font-family="sans-serif" font-size="9.1" font-weight="bold" lengthAdjust="spacing" textLength="4.9" x="222.6" y="100.0583">2</text><text fill="#000000" font-family="sans-serif" font-size="9.1" lengthAdjust="spacing" textLength="25.2" x="230.3" y="100.0583">create</text><rect fill="#E3E3E3" height="22.8348" rx="1.75" ry="1.75" style="stroke:#181818;stroke-width:0.3499999999999999;" width="103.6" x="267.4" y="87.4385"/><text fill="#000000" font-family="sans-serif" font-size="9.8" lengthAdjust="spacing" textLength="93.8" x="272.3" y="102.9137">:CreateSkillController</text><polygon fill="#181818" points="78.4,131.477,71.4,134.277,78.4,137.077,75.6,134.277" style="stroke:#181818;stroke-width:0.6999999999999998;"/><line style="stroke:#181818;stroke-width:0.6999999999999998;stroke-dasharray:2.0,2.0;" x1="74.2" x2="213.5" y1="134.277" y2="134.277"/><text fill="#000000" font-family="sans-serif" font-size="9.1" font-weight="bold" lengthAdjust="spacing" textLength="4.9" x="82.6" y="130.5931">3</text><text fill="#000000" font-family="sans-serif" font-size="9.1" lengthAdjust="spacing" textLength="88.9" x="90.3" y="130.5931">requests name of skill</text><polygon fill="#181818" points="202.3,153.3807,209.3,156.1807,202.3,158.9807,205.1,156.1807" style="stroke:#181818;stroke-width:0.6999999999999998;"/><line style="stroke:#181818;stroke-width:0.6999999999999998;" x1="70.7" x2="206.5" y1="156.1807" y2="156.1807"/><text fill="#000000" font-family="sans-serif" font-size="9.1" font-weight="bold" lengthAdjust="spacing" textLength="4.9" x="75.6" y="152.4968">4</text><text fill="#000000" font-family="sans-serif" font-size="9.1" lengthAdjust="spacing" textLength="90.3" x="83.3" y="152.4968">types requested name</text><polygon fill="#181818" points="78.4,175.2844,71.4,178.0844,78.4,180.8844,75.6,178.0844" style="stroke:#181818;stroke-width:0.6999999999999998;"/><line style="stroke:#181818;stroke-width:0.6999999999999998;stroke-dasharray:2.0,2.0;" x1="74.2" x2="213.5" y1="178.0844" y2="178.0844"/><text fill="#000000" font-family="sans-serif" font-size="9.1" font-weight="bold" lengthAdjust="spacing" textLength="4.9" x="82.6" y="174.4005">5</text><text fill="#000000" font-family="sans-serif" font-size="9.1" lengthAdjust="spacing" textLength="76.3" x="90.3" y="174.4005">shows typed name</text><polygon fill="#181818" points="202.3,197.1881,209.3,199.9881,202.3,202.7881,205.1,199.9881" style="stroke:#181818;stroke-width:0.6999999999999998;"/><line style="stroke:#181818;stroke-width:0.6999999999999998;" x1="70.7" x2="206.5" y1="199.9881" y2="199.9881"/><text fill="#000000" font-family="sans-serif" font-size="9.1" font-weight="bold" lengthAdjust="spacing" textLength="4.9" x="75.6" y="196.3042">6</text><text fill="#000000" font-family="sans-serif" font-size="9.1" lengthAdjust="spacing" textLength="57.4" x="83.3" y="196.3042">submits name</text><polygon fill="#181818" points="310.8,219.0918,317.8,221.8918,310.8,224.6918,313.6,221.8918" style="stroke:#181818;stroke-width:0.6999999999999998;"/><line style="stroke:#181818;stroke-width:0.6999999999999998;" x1="217.7" x2="315" y1="221.8918" y2="221.8918"/><text fill="#000000" font-family="sans-serif" font-size="9.1" font-weight="bold" lengthAdjust="spacing" textLength="4.9" x="222.6" y="218.2079">7</text><text fill="#000000" font-family="sans-serif" font-size="9.1" lengthAdjust="spacing" textLength="70.7" x="230.3" y="218.2079">createSkill(name)</text><line style="stroke:#181818;stroke-width:0.6999999999999998;" x1="326.2" x2="359.1" y1="240.2955" y2="240.2955"/><line style="stroke:#181818;stroke-width:0.6999999999999998;" x1="359.1" x2="359.1" y1="240.2955" y2="249.3955"/><line style="stroke:#181818;stroke-width:0.6999999999999998;" x1="330.4" x2="359.1" y1="249.3955" y2="249.3955"/><polygon fill="#181818" points="337.4,246.5955,330.4,249.3955,337.4,252.1955,334.6,249.3955" style="stroke:#181818;stroke-width:0.6999999999999998;"/><text fill="#000000" font-family="sans-serif" font-size="9.1" font-weight="bold" lengthAdjust="spacing" textLength="4.9" x="334.6" y="236.6116">8</text><text fill="#000000" font-family="sans-serif" font-size="9.1" lengthAdjust="spacing" textLength="112.7" x="342.3" y="236.6116">getEmployeeFromSession()</text><rect fill="none" height="41.449" style="stroke:#000000;stroke-width:1.0499999999999998;" width="107.8" x="265.3" y="258.4955"/><path d="M265.3,258.4955 L308.7,258.4955 L308.7,264.7955 L301.7,271.7955 L265.3,271.7955 L265.3,258.4955 " fill="#EEEEEE" style="stroke:#000000;stroke-width:1.3999999999999997;"/><text fill="#000000" font-family="sans-serif" font-size="9.1" font-weight="bold" lengthAdjust="spacing" textLength="11.9" x="274.4" y="269.7153">ref</text><text fill="#000000" font-family="sans-serif" font-size="8.4" lengthAdjust="spacing" textLength="53.9" x="292.25" y="283.66">Get Employee</text><text fill="#000000" font-family="sans-serif" font-size="8.4" lengthAdjust="spacing" textLength="2.1" x="318.15" y="294.8326">&#160;</text><line style="stroke:#181818;stroke-width:0.6999999999999998;" x1="329.7" x2="359.1" y1="323.2482" y2="323.2482"/><line style="stroke:#181818;stroke-width:0.6999999999999998;" x1="359.1" x2="359.1" y1="323.2482" y2="332.3482"/><line style="stroke:#181818;stroke-width:0.6999999999999998;" x1="326.2" x2="359.1" y1="332.3482" y2="332.3482"/><polygon fill="#181818" points="333.2,329.5482,326.2,332.3482,333.2,335.1482,330.4,332.3482" style="stroke:#181818;stroke-width:0.6999999999999998;"/><text fill="#000000" font-family="sans-serif" font-size="9.1" font-weight="bold" lengthAdjust="spacing" textLength="4.9" x="334.6" y="319.5644">9</text><text fill="#000000" font-family="sans-serif" font-size="9.1" lengthAdjust="spacing" textLength="39.2" x="342.3" y="319.5644">employee</text><polygon fill="#181818" points="459.2,347.952,466.2,350.752,459.2,353.552,462,350.752" style="stroke:#181818;stroke-width:0.6999999999999998;"/><line style="stroke:#181818;stroke-width:0.6999999999999998;" x1="326.2" x2="463.4" y1="350.752" y2="350.752"/><text fill="#000000" font-family="sans-serif" font-size="9.1" font-weight="bold" lengthAdjust="spacing" textLength="9.8" x="331.1" y="347.0681">10</text><text fill="#000000" font-family="sans-serif" font-size="9.1" lengthAdjust="spacing" textLength="115.5" x="343.7" y="347.0681">createSkill(name, employee)</text><rect fill="none" height="41.449" style="stroke:#000000;stroke-width:1.0499999999999998;" width="72.8" x="434.7" y="356.352"/><path d="M434.7,356.352 L478.1,356.352 L478.1,362.652 L471.1,369.652 L434.7,369.652 L434.7,356.352 " fill="#EEEEEE" style="stroke:#000000;stroke-width:1.3999999999999997;"/><text fill="#000000" font-family="sans-serif" font-size="9.1" font-weight="bold" lengthAdjust="spacing" textLength="11.9" x="443.8" y="367.5718">ref</text><text fill="#000000" font-family="sans-serif" font-size="8.4" lengthAdjust="spacing" textLength="44.1" x="449.05" y="381.5164">Create Skill</text><text fill="#000000" font-family="sans-serif" font-size="8.4" lengthAdjust="spacing" textLength="2.1" x="470.05" y="392.6891">&#160;</text><polygon fill="#181818" points="333.9,414.8047,326.9,417.6047,333.9,420.4047,331.1,417.6047" style="stroke:#181818;stroke-width:0.6999999999999998;"/><line style="stroke:#181818;stroke-width:0.6999999999999998;stroke-dasharray:2.0,2.0;" x1="329.7" x2="470.4" y1="417.6047" y2="417.6047"/><text fill="#000000" font-family="sans-serif" font-size="9.1" font-weight="bold" lengthAdjust="spacing" textLength="9.8" x="338.1" y="413.9208">11</text><text fill="#000000" font-family="sans-serif" font-size="9.1" lengthAdjust="spacing" textLength="16.1" x="350.7" y="413.9208">skill</text><polygon fill="#181818" points="225.4,436.7084,218.4,439.5084,225.4,442.3084,222.6,439.5084" style="stroke:#181818;stroke-width:0.6999999999999998;"/><line style="stroke:#181818;stroke-width:0.6999999999999998;stroke-dasharray:2.0,2.0;" x1="221.2" x2="315" y1="439.5084" y2="439.5084"/><text fill="#000000" font-family="sans-serif" font-size="9.1" font-weight="bold" lengthAdjust="spacing" textLength="9.8" x="229.6" y="435.8245">12</text><text fill="#000000" font-family="sans-serif" font-size="9.1" lengthAdjust="spacing" textLength="16.1" x="242.2" y="435.8245">skill</text><polygon fill="#181818" points="74.9,458.6121,67.9,461.4121,74.9,464.2121,72.1,461.4121" style="stroke:#181818;stroke-width:0.6999999999999998;"/><line style="stroke:#181818;stroke-width:0.6999999999999998;stroke-dasharray:2.0,2.0;" x1="70.7" x2="213.5" y1="461.4121" y2="461.4121"/><text fill="#000000" font-family="sans-serif" font-size="9.1" font-weight="bold" lengthAdjust="spacing" textLength="9.8" x="79.1" y="457.7282">13</text><text fill="#000000" font-family="sans-serif" font-size="9.1" lengthAdjust="spacing" textLength="110.6" x="91.7" y="457.7282">displays operation success</text><!--SRC=[ZLHDRzim3BtxLn2vh2tQF-33W25RFu0L1PBsjWjZCuuGM_H4kMdswqSfZktKSLkTOehlyP5yYcoDhT5X1HLRpZQEAmBl6agakwanss91Ixyl2Hnb7crH3XDaWpdlZ2rWZQLGac3ZsJRLYboIVDkOd63Dx5Vybc3csS7ilgdGmeA46vUHm2DQhU1cW08_VZucokjDPcgq7cRft15wMcvDMRuyn9oNX-cKELllk2nRkldpulTfChi2hVc7th3zOzEdmMT4F2tkaY3Kl2fbb9E07lq1Dz-rDAIQjHNm35ai2mYMTY2X-Y6tGwlG60X7aOeFUgwkbEE0xQyxJ5HyZ9wW5HvKfBg5lms95x2e- -9rMplavJGgFbJkzxNEkyLJ7Wa-bjmLbGtl918CO9-KasPLcLRdLoRJpIMkyYB0BYScr8N3YTYUeo3_gwfBtXFTggMN9ABRlRWymNn05uwZDV0hkTDz3CyTUJYM6UF9ve5Z57ydbOu4mvp1LATxLP-EftNT4Kuq6zqzsMkuFTVguNt1ihVukrR7GQMAvcdxx1rwficHg4EFqKMVG4VRwJsRGcwaBd4lm3Mv-CBLaPd-uyWvymu-mwl_3m00]--></g></svg>