<?xml version="1.0" encoding="us-ascii" standalone="no"?><svg xmlns="http://www.w3.org/2000/svg" xmlns:xlink="http://www.w3.org/1999/xlink" contentStyleType="text/css" height="367px" preserveAspectRatio="none" style="width:481px;height:367px;background:#FFFFFF;" version="1.1" viewBox="0 0 481 367" width="481px" zoomAndPan="magnify"><defs/><g><rect fill="#FFFFFF" height="202.4063" style="stroke:#181818;stroke-width:1.0;" width="10" x="143" y="90.5332"/><rect fill="none" height="157.1152" style="stroke:#000000;stroke-width:1.5;" width="386" x="89" y="105.5332"/><line style="stroke:#181818;stroke-width:0.5;stroke-dasharray:5.0,5.0;" x1="148" x2="148" y1="57.2422" y2="310.9395"/><line style="stroke:#181818;stroke-width:0.5;stroke-dasharray:5.0,5.0;" x1="322" x2="322" y1="165.9453" y2="310.9395"/><line style="stroke:#181818;stroke-width:0.5;stroke-dasharray:5.0,5.0;" x1="409" x2="409" y1="57.2422" y2="310.9395"/><rect fill="#E3E3E3" height="51.2422" rx="2.5" ry="2.5" style="stroke:#181818;stroke-width:0.5;" width="98" x="99" y="5"/><text fill="#000000" font-family="sans-serif" font-size="14" lengthAdjust="spacing" textLength="77" x="109.5" y="27.1074">organization</text><text fill="#000000" font-family="sans-serif" font-size="14" lengthAdjust="spacing" textLength="84" x="106" y="45.7285">:Organization</text><rect fill="#E3E3E3" height="51.2422" rx="2.5" ry="2.5" style="stroke:#181818;stroke-width:0.5;" width="98" x="99" y="309.9395"/><text fill="#000000" font-family="sans-serif" font-size="14" lengthAdjust="spacing" textLength="77" x="109.5" y="332.0469">organization</text><text fill="#000000" font-family="sans-serif" font-size="14" lengthAdjust="spacing" textLength="84" x="106" y="350.668">:Organization</text><rect fill="#E3E3E3" height="51.2422" rx="2.5" ry="2.5" style="stroke:#181818;stroke-width:0.5;" width="43" x="301" y="309.9395"/><text fill="#000000" font-family="sans-serif" font-size="14" lengthAdjust="spacing" textLength="23" x="311" y="332.0469">skill</text><text fill="#000000" font-family="sans-serif" font-size="14" lengthAdjust="spacing" textLength="29" x="308" y="350.668">:Skill</text><rect fill="#E3E3E3" height="51.2422" rx="2.5" ry="2.5" style="stroke:#181818;stroke-width:0.5;" width="111" x="354" y="5"/><text fill="#000000" font-family="sans-serif" font-size="14" lengthAdjust="spacing" textLength="86" x="366.5" y="27.1074">skillrepository</text><text fill="#000000" font-family="sans-serif" font-size="14" lengthAdjust="spacing" textLength="97" x="361" y="45.7285">:SkillRepository</text><rect fill="#E3E3E3" height="51.2422" rx="2.5" ry="2.5" style="stroke:#181818;stroke-width:0.5;" width="111" x="354" y="309.9395"/><text fill="#000000" font-family="sans-serif" font-size="14" lengthAdjust="spacing" textLength="86" x="366.5" y="332.0469">skillrepository</text><text fill="#000000" font-family="sans-serif" font-size="14" lengthAdjust="spacing" textLength="97" x="361" y="350.668">:SkillRepository</text><rect fill="#FFFFFF" height="202.4063" style="stroke:#181818;stroke-width:1.0;" width="10" x="143" y="90.5332"/><polygon fill="#181818" points="131,86.5332,141,90.5332,131,94.5332,135,90.5332" style="stroke:#181818;stroke-width:1.0;"/><line style="stroke:#181818;stroke-width:1.0;" x1="0" x2="137" y1="90.5332" y2="90.5332"/><text fill="#000000" font-family="sans-serif" font-size="13" lengthAdjust="spacing" textLength="124" x="7" y="85.2705">createSkill(skillname)</text><path d="M89,105.5332 L208,105.5332 L208,114.8242 L198,124.8242 L89,124.8242 L89,105.5332 " fill="#EEEEEE" style="stroke:#000000;stroke-width:1.5;"/><rect fill="none" height="157.1152" style="stroke:#000000;stroke-width:1.5;" width="386" x="89" y="105.5332"/><text fill="#000000" font-family="sans-serif" font-size="13" font-weight="bold" lengthAdjust="spacing" textLength="74" x="104" y="120.5615">Create Skill</text><polygon fill="#181818" points="289,144.1152,299,148.1152,289,152.1152,293,148.1152" style="stroke:#181818;stroke-width:1.0;"/><line style="stroke:#181818;stroke-width:1.0;" x1="153" x2="295" y1="148.1152" y2="148.1152"/><text fill="#000000" font-family="sans-serif" font-size="13" lengthAdjust="spacing" textLength="124" x="160" y="142.8525">createSkill(skillname)</text><rect fill="#E3E3E3" height="51.2422" rx="2.5" ry="2.5" style="stroke:#181818;stroke-width:0.5;" width="43" x="301" y="124.8242"/><text fill="#000000" font-family="sans-serif" font-size="14" lengthAdjust="spacing" textLength="23" x="311" y="146.9316">skill</text><text fill="#000000" font-family="sans-serif" font-size="14" lengthAdjust="spacing" textLength="29" x="308" y="165.5527">:Skill</text><line style="stroke:#181818;stroke-width:1.0;" x1="153" x2="195" y1="210.3574" y2="210.3574"/><line style="stroke:#181818;stroke-width:1.0;" x1="195" x2="195" y1="210.3574" y2="223.3574"/><line style="stroke:#181818;stroke-width:1.0;" x1="154" x2="195" y1="223.3574" y2="223.3574"/><polygon fill="#181818" points="164,219.3574,154,223.3574,164,227.3574,160,223.3574" style="stroke:#181818;stroke-width:1.0;"/><text fill="#000000" font-family="sans-serif" font-size="13" lengthAdjust="spacing" textLength="99" x="160" y="205.0947">validateSkill(skill)</text><polygon fill="#181818" points="397.5,250.6484,407.5,254.6484,397.5,258.6484,401.5,254.6484" style="stroke:#181818;stroke-width:1.0;"/><line style="stroke:#181818;stroke-width:1.0;" x1="153" x2="403.5" y1="254.6484" y2="254.6484"/><text fill="#000000" font-family="sans-serif" font-size="13" lengthAdjust="spacing" textLength="81" x="160" y="249.3857">addSkill (skill)</text><polygon fill="#181818" points="11,288.9395,1,292.9395,11,296.9395,7,292.9395" style="stroke:#181818;stroke-width:1.0;"/><line style="stroke:#181818;stroke-width:1.0;stroke-dasharray:2.0,2.0;" x1="5" x2="147" y1="292.9395" y2="292.9395"/><text fill="#000000" font-family="sans-serif" font-size="13" lengthAdjust="spacing" textLength="23" x="17" y="287.6768">skill</text><!--SRC=[TS_DQWCX403WkqynvDG6zWMMKWYbxJ7WzjZBe5CZSKTHav8-VNL2GhO_Sr77RyQnx3qdp3Z373cQNOupGSq7KkLwaz3iqT5KJu4Wawd8Bjo2iaCRFpqx-C1GIAcMhjxuX5nX5RD3zbzOVUHt7hStnnLWWQr-NHQqnY4qEVLLoDj6Fxzi_b2PKYo-ndowU7tDIEMabHeU-niZc4nOITITL3FETAyKckgFxKOcWHOknqE29-4WNac-HpFG6fudMg__xVh3om173DukyIyuwH7GMY5mCJsw8RRdpSCmIC488fIbnIVKDm00]--></g></svg>