<?xml version="1.0" encoding="us-ascii" standalone="no"?><svg xmlns="http://www.w3.org/2000/svg" xmlns:xlink="http://www.w3.org/1999/xlink" contentStyleType="text/css" height="925.4px" preserveAspectRatio="none" style="width:1280px;height:925px;background:#FFFFFF;" version="1.1" viewBox="0 0 1280 925" width="1281px" zoomAndPan="magnify"><defs/><g><rect fill="#FFFFFF" height="789.3156" style="stroke:#181818;stroke-width:0.6999999999999998;" width="7" x="63.7" y="65.5348"/><rect fill="#FFFFFF" height="118.1496" style="stroke:#181818;stroke-width:0.6999999999999998;" width="7" x="210.7" y="81.8385"/><rect fill="#FFFFFF" height="632.9586" style="stroke:#181818;stroke-width:0.6999999999999998;" width="7" x="210.7" y="221.8918"/><rect fill="#FFFFFF" height="43.8074" style="stroke:#181818;stroke-width:0.6999999999999998;" width="7" x="325.5" y="134.277"/><rect fill="#FFFFFF" height="589.1512" style="stroke:#181818;stroke-width:0.6999999999999998;" width="7" x="325.5" y="243.7955"/><rect fill="#FFFFFF" height="359.5594" style="stroke:#181818;stroke-width:0.6999999999999998;" width="7" x="329" y="288.7992"/><rect fill="#FFFFFF" height="21.9037" style="stroke:#181818;stroke-width:0.6999999999999998;" width="7" x="517.3" y="156.1807"/><rect fill="#FFFFFF" height="21.9037" style="stroke:#181818;stroke-width:0.6999999999999998;" width="7" x="517.3" y="445.6252"/><rect fill="#FFFFFF" height="21.9037" style="stroke:#181818;stroke-width:0.6999999999999998;" width="7" x="690.9" y="314.2029"/><rect fill="#FFFFFF" height="21.9037" style="stroke:#181818;stroke-width:0.6999999999999998;" width="7" x="793.8" y="358.0104"/><rect fill="#FFFFFF" height="21.9037" style="stroke:#181818;stroke-width:0.6999999999999998;" width="7" x="886.9" y="401.8178"/><rect fill="#FFFFFF" height="89.0148" style="stroke:#181818;stroke-width:0.6999999999999998;" width="7" x="989.1" y="489.4326"/><rect fill="#FFFFFF" height="21.9037" style="stroke:#181818;stroke-width:0.6999999999999998;" width="7" x="1123.5" y="529.74"/><rect fill="#FFFFFF" height="21.9037" style="stroke:#181818;stroke-width:0.6999999999999998;" width="7" x="1123.5" y="600.3512"/><rect fill="#FFFFFF" height="118.3807" style="stroke:#181818;stroke-width:0.6999999999999998;" width="7" x="1123.5" y="692.6623"/><rect fill="none" height="57.3111" style="stroke:#000000;stroke-width:1.0499999999999998;" width="239.75" x="928.55" y="499.9326"/><line style="stroke:#181818;stroke-width:0.3499999999999999;stroke-dasharray:5.0,5.0;" x1="67.2" x2="67.2" y1="58.5348" y2="867.4504"/><line style="stroke:#181818;stroke-width:0.3499999999999999;stroke-dasharray:5.0,5.0;" x1="214.2" x2="214.2" y1="58.5348" y2="867.4504"/><line style="stroke:#181818;stroke-width:0.3499999999999999;stroke-dasharray:5.0,5.0;" x1="329" x2="329" y1="109.7059" y2="867.4504"/><line style="stroke:#181818;stroke-width:0.3499999999999999;stroke-dasharray:5.0,5.0;" x1="445.55" x2="445.55" y1="58.5348" y2="867.4504"/><line style="stroke:#181818;stroke-width:0.3499999999999999;stroke-dasharray:5.0,5.0;" x1="520.45" x2="520.45" y1="58.5348" y2="867.4504"/><line style="stroke:#181818;stroke-width:0.3499999999999999;stroke-dasharray:5.0,5.0;" x1="600.25" x2="600.25" y1="58.5348" y2="867.4504"/><line style="stroke:#181818;stroke-width:0.3499999999999999;stroke-dasharray:5.0,5.0;" x1="694.05" x2="694.05" y1="58.5348" y2="867.4504"/><line style="stroke:#181818;stroke-width:0.3499999999999999;stroke-dasharray:5.0,5.0;" x1="796.95" x2="796.95" y1="58.5348" y2="867.4504"/><line style="stroke:#181818;stroke-width:0.3499999999999999;stroke-dasharray:5.0,5.0;" x1="890.05" x2="890.05" y1="58.5348" y2="867.4504"/><line style="stroke:#181818;stroke-width:0.3499999999999999;stroke-dasharray:5.0,5.0;" x1="992.25" x2="992.25" y1="58.5348" y2="867.4504"/><line style="stroke:#181818;stroke-width:0.3499999999999999;stroke-dasharray:5.0,5.0;" x1="1127" x2="1127" y1="58.5348" y2="867.4504"/><line style="stroke:#181818;stroke-width:0.3499999999999999;stroke-dasharray:5.0,5.0;" x1="1261.4" x2="1261.4" y1="727.0471" y2="867.4504"/><text fill="#000000" font-family="sans-serif" font-size="9.8" lengthAdjust="spacing" textLength="123.2" x="3.5" y="56.0752">Human Resources Manager</text><ellipse cx="67.2" cy="9.45" fill="#E3E3E3" rx="5.6" ry="5.6" style="stroke:#181818;stroke-width:0.3499999999999999;"/><path d="M67.2,15.05 L67.2,33.95 M58.1,20.65 L76.3,20.65 M67.2,33.95 L58.1,44.45 M67.2,33.95 L76.3,44.45 " fill="none" style="stroke:#181818;stroke-width:0.3499999999999999;"/><text fill="#000000" font-family="sans-serif" font-size="9.8" lengthAdjust="spacing" textLength="123.2" x="3.5" y="877.3256">Human Resources Manager</text><ellipse cx="67.2" cy="885.7352" fill="#E3E3E3" rx="5.6" ry="5.6" style="stroke:#181818;stroke-width:0.3499999999999999;"/><path d="M67.2,891.3352 L67.2,910.2352 M58.1,896.9352 L76.3,896.9352 M67.2,910.2352 L58.1,920.7352 M67.2,910.2352 L76.3,920.7352 " fill="none" style="stroke:#181818;stroke-width:0.3499999999999999;"/><rect fill="#E3E3E3" height="22.8348" rx="1.75" ry="1.75" style="stroke:#181818;stroke-width:0.3499999999999999;" width="68.6" x="179.9" y="35"/><text fill="#000000" font-family="sans-serif" font-size="9.8" lengthAdjust="spacing" textLength="58.8" x="184.8" y="50.4752">:CreateSkillUI</text><rect fill="#E3E3E3" height="22.8348" rx="1.75" ry="1.75" style="stroke:#181818;stroke-width:0.3499999999999999;" width="68.6" x="179.9" y="866.7504"/><text fill="#000000" font-family="sans-serif" font-size="9.8" lengthAdjust="spacing" textLength="58.8" x="184.8" y="882.2256">:CreateSkillUI</text><rect fill="#E3E3E3" height="22.8348" rx="1.75" ry="1.75" style="stroke:#181818;stroke-width:0.3499999999999999;" width="103.6" x="277.2" y="866.7504"/><text fill="#000000" font-family="sans-serif" font-size="9.8" lengthAdjust="spacing" textLength="93.8" x="282.1" y="882.2256">:CreateSkillController</text><rect fill="#E3E3E3" height="22.8348" rx="1.75" ry="1.75" style="stroke:#181818;stroke-width:0.3499999999999999;" width="67.9" x="411.95" y="35"/><text fill="#000000" font-family="sans-serif" font-size="9.8" lengthAdjust="spacing" textLength="58.1" x="416.85" y="50.4752">:Repositories</text><rect fill="#E3E3E3" height="22.8348" rx="1.75" ry="1.75" style="stroke:#181818;stroke-width:0.3499999999999999;" width="67.9" x="411.95" y="866.7504"/><text fill="#000000" font-family="sans-serif" font-size="9.8" lengthAdjust="spacing" textLength="58.1" x="416.85" y="882.2256">:Repositories</text><rect fill="#E3E3E3" height="35.8695" rx="1.75" ry="1.75" style="stroke:#181818;stroke-width:0.3499999999999999;" width="67.9" x="486.85" y="21.9652"/><text fill="#000000" font-family="sans-serif" font-size="9.8" lengthAdjust="spacing" textLength="51.8" x="494.9" y="37.4404">repositories</text><text fill="#000000" font-family="sans-serif" font-size="9.8" lengthAdjust="spacing" textLength="58.1" x="491.75" y="50.4752">:Repositories</text><rect fill="#E3E3E3" height="35.8695" rx="1.75" ry="1.75" style="stroke:#181818;stroke-width:0.3499999999999999;" width="67.9" x="486.85" y="866.7504"/><text fill="#000000" font-family="sans-serif" font-size="9.8" lengthAdjust="spacing" textLength="51.8" x="494.9" y="882.2256">repositories</text><text fill="#000000" font-family="sans-serif" font-size="9.8" lengthAdjust="spacing" textLength="58.1" x="491.75" y="895.2604">:Repositories</text><rect fill="#E3E3E3" height="35.8695" rx="1.75" ry="1.75" style="stroke:#181818;stroke-width:0.3499999999999999;" width="77.7" x="561.75" y="21.9652"/><text fill="#000000" font-family="sans-serif" font-size="9.8" lengthAdjust="spacing" textLength="60.2" x="570.5" y="37.4404">skillrepository</text><text fill="#000000" font-family="sans-serif" font-size="9.8" lengthAdjust="spacing" textLength="67.9" x="566.65" y="50.4752">:SkillRepository</text><rect fill="#E3E3E3" height="35.8695" rx="1.75" ry="1.75" style="stroke:#181818;stroke-width:0.3499999999999999;" width="77.7" x="561.75" y="866.7504"/><text fill="#000000" font-family="sans-serif" font-size="9.8" lengthAdjust="spacing" textLength="60.2" x="570.5" y="882.2256">skillrepository</text><text fill="#000000" font-family="sans-serif" font-size="9.8" lengthAdjust="spacing" textLength="67.9" x="566.65" y="895.2604">:SkillRepository</text><rect fill="#E3E3E3" height="22.8348" rx="1.75" ry="1.75" style="stroke:#181818;stroke-width:0.3499999999999999;" width="95.9" x="646.45" y="35"/><text fill="#000000" font-family="sans-serif" font-size="9.8" lengthAdjust="spacing" textLength="86.1" x="651.35" y="50.4752">:ApplicationSession</text><rect fill="#E3E3E3" height="22.8348" rx="1.75" ry="1.75" style="stroke:#181818;stroke-width:0.3499999999999999;" width="95.9" x="646.45" y="866.7504"/><text fill="#000000" font-family="sans-serif" font-size="9.8" lengthAdjust="spacing" textLength="86.1" x="651.35" y="882.2256">:ApplicationSession</text><rect fill="#E3E3E3" height="35.8695" rx="1.75" ry="1.75" style="stroke:#181818;stroke-width:0.3499999999999999;" width="95.9" x="749.35" y="21.9652"/><text fill="#000000" font-family="sans-serif" font-size="9.8" lengthAdjust="spacing" textLength="51.8" x="771.4" y="37.4404">appSession</text><text fill="#000000" font-family="sans-serif" font-size="9.8" lengthAdjust="spacing" textLength="86.1" x="754.25" y="50.4752">:ApplicationSession</text><rect fill="#E3E3E3" height="35.8695" rx="1.75" ry="1.75" style="stroke:#181818;stroke-width:0.3499999999999999;" width="95.9" x="749.35" y="866.7504"/><text fill="#000000" font-family="sans-serif" font-size="9.8" lengthAdjust="spacing" textLength="51.8" x="771.4" y="882.2256">appSession</text><text fill="#000000" font-family="sans-serif" font-size="9.8" lengthAdjust="spacing" textLength="86.1" x="754.25" y="895.2604">:ApplicationSession</text><rect fill="#E3E3E3" height="35.8695" rx="1.75" ry="1.75" style="stroke:#181818;stroke-width:0.3499999999999999;" width="76.3" x="852.25" y="21.9652"/><text fill="#000000" font-family="sans-serif" font-size="9.8" lengthAdjust="spacing" textLength="66.5" x="857.15" y="37.4404">currentSession</text><text fill="#000000" font-family="sans-serif" font-size="9.8" lengthAdjust="spacing" textLength="58.1" x="861.35" y="50.4752">:UserSession</text><rect fill="#E3E3E3" height="35.8695" rx="1.75" ry="1.75" style="stroke:#181818;stroke-width:0.3499999999999999;" width="76.3" x="852.25" y="866.7504"/><text fill="#000000" font-family="sans-serif" font-size="9.8" lengthAdjust="spacing" textLength="66.5" x="857.15" y="882.2256">currentSession</text><text fill="#000000" font-family="sans-serif" font-size="9.8" lengthAdjust="spacing" textLength="58.1" x="861.35" y="895.2604">:UserSession</text><rect fill="#E3E3E3" height="35.8695" rx="1.75" ry="1.75" style="stroke:#181818;stroke-width:0.3499999999999999;" width="114.1" x="935.55" y="21.9652"/><text fill="#000000" font-family="sans-serif" font-size="9.8" lengthAdjust="spacing" textLength="104.3" x="940.45" y="37.4404">organizationRepository:</text><text fill="#000000" font-family="sans-serif" font-size="9.8" lengthAdjust="spacing" textLength="103.6" x="940.8" y="50.4752">OrganizationRepository</text><rect fill="#E3E3E3" height="35.8695" rx="1.75" ry="1.75" style="stroke:#181818;stroke-width:0.3499999999999999;" width="114.1" x="935.55" y="866.7504"/><text fill="#000000" font-family="sans-serif" font-size="9.8" lengthAdjust="spacing" textLength="104.3" x="940.45" y="882.2256">organizationRepository:</text><text fill="#000000" font-family="sans-serif" font-size="9.8" lengthAdjust="spacing" textLength="103.6" x="940.8" y="895.2604">OrganizationRepository</text><rect fill="#E3E3E3" height="35.8695" rx="1.75" ry="1.75" style="stroke:#181818;stroke-width:0.3499999999999999;" width="68.6" x="1092.7" y="21.9652"/><text fill="#000000" font-family="sans-serif" font-size="9.8" lengthAdjust="spacing" textLength="53.9" x="1100.05" y="37.4404">organization</text><text fill="#000000" font-family="sans-serif" font-size="9.8" lengthAdjust="spacing" textLength="58.8" x="1097.6" y="50.4752">:Organization</text><rect fill="#E3E3E3" height="35.8695" rx="1.75" ry="1.75" style="stroke:#181818;stroke-width:0.3499999999999999;" width="68.6" x="1092.7" y="866.7504"/><text fill="#000000" font-family="sans-serif" font-size="9.8" lengthAdjust="spacing" textLength="53.9" x="1100.05" y="882.2256">organization</text><text fill="#000000" font-family="sans-serif" font-size="9.8" lengthAdjust="spacing" textLength="58.8" x="1097.6" y="895.2604">:Organization</text><rect fill="#E3E3E3" height="35.8695" rx="1.75" ry="1.75" style="stroke:#181818;stroke-width:0.3499999999999999;" width="30.1" x="1246.7" y="866.7504"/><text fill="#000000" font-family="sans-serif" font-size="9.8" lengthAdjust="spacing" textLength="16.1" x="1253.7" y="882.2256">skill</text><text fill="#000000" font-family="sans-serif" font-size="9.8" lengthAdjust="spacing" textLength="20.3" x="1251.6" y="895.2604">:Skill</text><rect fill="#FFFFFF" height="789.3156" style="stroke:#181818;stroke-width:0.6999999999999998;" width="7" x="63.7" y="65.5348"/><rect fill="#FFFFFF" height="118.1496" style="stroke:#181818;stroke-width:0.6999999999999998;" width="7" x="210.7" y="81.8385"/><rect fill="#FFFFFF" height="632.9586" style="stroke:#181818;stroke-width:0.6999999999999998;" width="7" x="210.7" y="221.8918"/><rect fill="#FFFFFF" height="43.8074" style="stroke:#181818;stroke-width:0.6999999999999998;" width="7" x="325.5" y="134.277"/><rect fill="#FFFFFF" height="589.1512" style="stroke:#181818;stroke-width:0.6999999999999998;" width="7" x="325.5" y="243.7955"/><rect fill="#FFFFFF" height="359.5594" style="stroke:#181818;stroke-width:0.6999999999999998;" width="7" x="329" y="288.7992"/><rect fill="#FFFFFF" height="21.9037" style="stroke:#181818;stroke-width:0.6999999999999998;" width="7" x="517.3" y="156.1807"/><rect fill="#FFFFFF" height="21.9037" style="stroke:#181818;stroke-width:0.6999999999999998;" width="7" x="517.3" y="445.6252"/><rect fill="#FFFFFF" height="21.9037" style="stroke:#181818;stroke-width:0.6999999999999998;" width="7" x="690.9" y="314.2029"/><rect fill="#FFFFFF" height="21.9037" style="stroke:#181818;stroke-width:0.6999999999999998;" width="7" x="793.8" y="358.0104"/><rect fill="#FFFFFF" height="21.9037" style="stroke:#181818;stroke-width:0.6999999999999998;" width="7" x="886.9" y="401.8178"/><rect fill="#FFFFFF" height="89.0148" style="stroke:#181818;stroke-width:0.6999999999999998;" width="7" x="989.1" y="489.4326"/><rect fill="#FFFFFF" height="21.9037" style="stroke:#181818;stroke-width:0.6999999999999998;" width="7" x="1123.5" y="529.74"/><rect fill="#FFFFFF" height="21.9037" style="stroke:#181818;stroke-width:0.6999999999999998;" width="7" x="1123.5" y="600.3512"/><rect fill="#FFFFFF" height="118.3807" style="stroke:#181818;stroke-width:0.6999999999999998;" width="7" x="1123.5" y="692.6623"/><polygon fill="#181818" points="202.3,79.0385,209.3,81.8385,202.3,84.6385,205.1,81.8385" style="stroke:#181818;stroke-width:0.6999999999999998;"/><line style="stroke:#181818;stroke-width:0.6999999999999998;" x1="70.7" x2="206.5" y1="81.8385" y2="81.8385"/><text fill="#000000" font-family="sans-serif" font-size="9.1" font-weight="bold" lengthAdjust="spacing" textLength="4.9" x="75.6" y="78.1546">1</text><text fill="#000000" font-family="sans-serif" font-size="9.1" lengthAdjust="spacing" textLength="103.6" x="83.3" y="78.1546">asks to create a new skill</text><polygon fill="#181818" points="268.8,100.9422,275.8,103.7422,268.8,106.5422,271.6,103.7422" style="stroke:#181818;stroke-width:0.6999999999999998;"/><line style="stroke:#181818;stroke-width:0.6999999999999998;" x1="217.7" x2="273" y1="103.7422" y2="103.7422"/><text fill="#000000" font-family="sans-serif" font-size="9.1" font-weight="bold" lengthAdjust="spacing" textLength="4.9" x="222.6" y="100.0583">2</text><text fill="#000000" font-family="sans-serif" font-size="9.1" lengthAdjust="spacing" textLength="25.2" x="230.3" y="100.0583">create</text><rect fill="#E3E3E3" height="22.8348" rx="1.75" ry="1.75" style="stroke:#181818;stroke-width:0.3499999999999999;" width="103.6" x="277.2" y="87.4385"/><text fill="#000000" font-family="sans-serif" font-size="9.8" lengthAdjust="spacing" textLength="93.8" x="282.1" y="102.9137">:CreateSkillController</text><polygon fill="#181818" points="317.1,131.477,324.1,134.277,317.1,137.077,319.9,134.277" style="stroke:#181818;stroke-width:0.6999999999999998;"/><line style="stroke:#181818;stroke-width:0.6999999999999998;" x1="217.7" x2="321.3" y1="134.277" y2="134.277"/><text fill="#000000" font-family="sans-serif" font-size="9.1" font-weight="bold" lengthAdjust="spacing" textLength="4.9" x="222.6" y="130.5931">3</text><text fill="#000000" font-family="sans-serif" font-size="9.1" lengthAdjust="spacing" textLength="79.1" x="230.3" y="130.5931">getSkillRepository()</text><polygon fill="#181818" points="508.9,153.3807,515.9,156.1807,508.9,158.9807,511.7,156.1807" style="stroke:#181818;stroke-width:0.6999999999999998;"/><line style="stroke:#181818;stroke-width:0.6999999999999998;" x1="332.5" x2="513.1" y1="156.1807" y2="156.1807"/><text fill="#000000" font-family="sans-serif" font-size="9.1" font-weight="bold" lengthAdjust="spacing" textLength="4.9" x="337.4" y="152.4968">4</text><text fill="#000000" font-family="sans-serif" font-size="9.1" lengthAdjust="spacing" textLength="79.1" x="345.1" y="152.4968">getSkillRepository()</text><polygon fill="#181818" points="336.7,175.2844,329.7,178.0844,336.7,180.8844,333.9,178.0844" style="stroke:#181818;stroke-width:0.6999999999999998;"/><line style="stroke:#181818;stroke-width:0.6999999999999998;" x1="332.5" x2="520.1" y1="178.0844" y2="178.0844"/><text fill="#000000" font-family="sans-serif" font-size="9.1" font-weight="bold" lengthAdjust="spacing" textLength="4.9" x="340.9" y="174.4005">5</text><text fill="#000000" font-family="sans-serif" font-size="9.1" lengthAdjust="spacing" textLength="59.5" x="348.6" y="174.4005">skillRepository</text><polygon fill="#181818" points="78.4,197.1881,71.4,199.9881,78.4,202.7881,75.6,199.9881" style="stroke:#181818;stroke-width:0.6999999999999998;"/><line style="stroke:#181818;stroke-width:0.6999999999999998;stroke-dasharray:2.0,2.0;" x1="74.2" x2="213.5" y1="199.9881" y2="199.9881"/><text fill="#000000" font-family="sans-serif" font-size="9.1" font-weight="bold" lengthAdjust="spacing" textLength="4.9" x="82.6" y="196.3042">6</text><text fill="#000000" font-family="sans-serif" font-size="9.1" lengthAdjust="spacing" textLength="60.2" x="90.3" y="196.3042">requests name</text><polygon fill="#181818" points="202.3,219.0918,209.3,221.8918,202.3,224.6918,205.1,221.8918" style="stroke:#181818;stroke-width:0.6999999999999998;"/><line style="stroke:#181818;stroke-width:0.6999999999999998;" x1="70.7" x2="206.5" y1="221.8918" y2="221.8918"/><text fill="#000000" font-family="sans-serif" font-size="9.1" font-weight="bold" lengthAdjust="spacing" textLength="4.9" x="75.6" y="218.2079">7</text><text fill="#000000" font-family="sans-serif" font-size="9.1" lengthAdjust="spacing" textLength="90.3" x="83.3" y="218.2079">types requested name</text><polygon fill="#181818" points="317.1,240.9955,324.1,243.7955,317.1,246.5955,319.9,243.7955" style="stroke:#181818;stroke-width:0.6999999999999998;"/><line style="stroke:#181818;stroke-width:0.6999999999999998;" x1="217.7" x2="321.3" y1="243.7955" y2="243.7955"/><text fill="#000000" font-family="sans-serif" font-size="9.1" font-weight="bold" lengthAdjust="spacing" textLength="4.9" x="222.6" y="240.1116">8</text><text fill="#000000" font-family="sans-serif" font-size="9.1" lengthAdjust="spacing" textLength="86.8" x="230.3" y="240.1116">createSkill(skillname)</text><line style="stroke:#181818;stroke-width:0.6999999999999998;" x1="332.5" x2="365.4" y1="279.6992" y2="279.6992"/><line style="stroke:#181818;stroke-width:0.6999999999999998;" x1="365.4" x2="365.4" y1="279.6992" y2="288.7992"/><line style="stroke:#181818;stroke-width:0.6999999999999998;" x1="336.7" x2="365.4" y1="288.7992" y2="288.7992"/><polygon fill="#181818" points="343.7,285.9992,336.7,288.7992,343.7,291.5992,340.9,288.7992" style="stroke:#181818;stroke-width:0.6999999999999998;"/><text fill="#000000" font-family="sans-serif" font-size="9.1" font-weight="bold" lengthAdjust="spacing" textLength="4.9" x="340.9" y="276.0153">9</text><text fill="#000000" font-family="sans-serif" font-size="9.1" lengthAdjust="spacing" textLength="92.4" x="348.6" y="276.0153">getHRMFromSession()</text><polygon fill="#181818" points="682.5,311.4029,689.5,314.2029,682.5,317.0029,685.3,314.2029" style="stroke:#181818;stroke-width:0.6999999999999998;"/><line style="stroke:#181818;stroke-width:0.6999999999999998;" x1="336" x2="686.7" y1="314.2029" y2="314.2029"/><text fill="#000000" font-family="sans-serif" font-size="9.1" font-weight="bold" lengthAdjust="spacing" textLength="9.8" x="340.9" y="310.519">10</text><text fill="#000000" font-family="sans-serif" font-size="9.1" lengthAdjust="spacing" textLength="52.5" x="353.5" y="310.519">getInstance()</text><polygon fill="#181818" points="343.7,333.3066,336.7,336.1066,343.7,338.9066,340.9,336.1066" style="stroke:#181818;stroke-width:0.6999999999999998;"/><line style="stroke:#181818;stroke-width:0.6999999999999998;" x1="339.5" x2="693.7" y1="336.1066" y2="336.1066"/><text fill="#000000" font-family="sans-serif" font-size="9.1" font-weight="bold" lengthAdjust="spacing" textLength="9.8" x="347.9" y="332.4228">11</text><text fill="#000000" font-family="sans-serif" font-size="9.1" lengthAdjust="spacing" textLength="47.6" x="360.5" y="332.4228">appSession</text><polygon fill="#181818" points="785.4,355.2104,792.4,358.0104,785.4,360.8104,788.2,358.0104" style="stroke:#181818;stroke-width:0.6999999999999998;"/><line style="stroke:#181818;stroke-width:0.6999999999999998;" x1="336" x2="789.6" y1="358.0104" y2="358.0104"/><text fill="#000000" font-family="sans-serif" font-size="9.1" font-weight="bold" lengthAdjust="spacing" textLength="9.8" x="340.9" y="354.3265">12</text><text fill="#000000" font-family="sans-serif" font-size="9.1" lengthAdjust="spacing" textLength="80.5" x="353.5" y="354.3265">getCurrentSession()</text><polygon fill="#181818" points="343.7,377.1141,336.7,379.9141,343.7,382.7141,340.9,379.9141" style="stroke:#181818;stroke-width:0.6999999999999998;"/><line style="stroke:#181818;stroke-width:0.6999999999999998;stroke-dasharray:2.0,2.0;" x1="339.5" x2="796.6" y1="379.9141" y2="379.9141"/><text fill="#000000" font-family="sans-serif" font-size="9.1" font-weight="bold" lengthAdjust="spacing" textLength="9.8" x="347.9" y="376.2302">13</text><text fill="#000000" font-family="sans-serif" font-size="9.1" lengthAdjust="spacing" textLength="60.9" x="360.5" y="376.2302">currentSession</text><polygon fill="#181818" points="878.5,399.0178,885.5,401.8178,878.5,404.6178,881.3,401.8178" style="stroke:#181818;stroke-width:0.6999999999999998;"/><line style="stroke:#181818;stroke-width:0.6999999999999998;" x1="336" x2="882.7" y1="401.8178" y2="401.8178"/><text fill="#000000" font-family="sans-serif" font-size="9.1" font-weight="bold" lengthAdjust="spacing" textLength="9.8" x="340.9" y="398.1339">14</text><text fill="#000000" font-family="sans-serif" font-size="9.1" lengthAdjust="spacing" textLength="93.1" x="353.5" y="398.1339">email = getUserEmail()</text><polygon fill="#181818" points="343.7,420.9215,336.7,423.7215,343.7,426.5215,340.9,423.7215" style="stroke:#181818;stroke-width:0.6999999999999998;"/><line style="stroke:#181818;stroke-width:0.6999999999999998;stroke-dasharray:2.0,2.0;" x1="339.5" x2="889.7" y1="423.7215" y2="423.7215"/><text fill="#000000" font-family="sans-serif" font-size="9.1" font-weight="bold" lengthAdjust="spacing" textLength="9.8" x="347.9" y="420.0376">15</text><text fill="#000000" font-family="sans-serif" font-size="9.1" lengthAdjust="spacing" textLength="21.7" x="360.5" y="420.0376">email</text><polygon fill="#181818" points="508.9,442.8252,515.9,445.6252,508.9,448.4252,511.7,445.6252" style="stroke:#181818;stroke-width:0.6999999999999998;"/><line style="stroke:#181818;stroke-width:0.6999999999999998;" x1="336" x2="513.1" y1="445.6252" y2="445.6252"/><text fill="#000000" font-family="sans-serif" font-size="9.1" font-weight="bold" lengthAdjust="spacing" textLength="9.8" x="340.9" y="441.9413">16</text><text fill="#000000" font-family="sans-serif" font-size="9.1" lengthAdjust="spacing" textLength="134.4" x="353.5" y="441.9413">getOrganizationRepository(email)</text><polygon fill="#181818" points="343.7,464.7289,336.7,467.5289,343.7,470.3289,340.9,467.5289" style="stroke:#181818;stroke-width:0.6999999999999998;"/><line style="stroke:#181818;stroke-width:0.6999999999999998;stroke-dasharray:2.0,2.0;" x1="339.5" x2="520.1" y1="467.5289" y2="467.5289"/><text fill="#000000" font-family="sans-serif" font-size="9.1" font-weight="bold" lengthAdjust="spacing" textLength="9.8" x="347.9" y="463.845">17</text><text fill="#000000" font-family="sans-serif" font-size="9.1" lengthAdjust="spacing" textLength="92.4" x="360.5" y="463.845">organizationRepository</text><polygon fill="#181818" points="980.7,486.6326,987.7,489.4326,980.7,492.2326,983.5,489.4326" style="stroke:#181818;stroke-width:0.6999999999999998;"/><line style="stroke:#181818;stroke-width:0.6999999999999998;" x1="336" x2="984.9" y1="489.4326" y2="489.4326"/><text fill="#000000" font-family="sans-serif" font-size="9.1" font-weight="bold" lengthAdjust="spacing" textLength="9.8" x="340.9" y="485.7487">18</text><text fill="#000000" font-family="sans-serif" font-size="9.1" lengthAdjust="spacing" textLength="145.6" x="353.5" y="485.7487">getOrganizationByHRMEmail(email)</text><path d="M928.55,499.9326 L979.65,499.9326 L979.65,506.4363 L972.65,513.4363 L928.55,513.4363 L928.55,499.9326 " fill="#EEEEEE" style="stroke:#000000;stroke-width:1.0499999999999998;"/><rect fill="none" height="57.3111" style="stroke:#000000;stroke-width:1.0499999999999998;" width="239.75" x="928.55" y="499.9326"/><text fill="#000000" font-family="sans-serif" font-size="9.1" font-weight="bold" lengthAdjust="spacing" textLength="19.6" x="939.05" y="510.4524">loop</text><text fill="#000000" font-family="sans-serif" font-size="7.7" font-weight="bold" lengthAdjust="spacing" textLength="89.6" x="990.15" y="509.6417">[[for each organization]</text><polygon fill="#181818" points="1115.1,526.94,1122.1,529.74,1115.1,532.54,1117.9,529.74" style="stroke:#181818;stroke-width:0.6999999999999998;"/><line style="stroke:#181818;stroke-width:0.6999999999999998;" x1="996.1" x2="1119.3" y1="529.74" y2="529.74"/><text fill="#000000" font-family="sans-serif" font-size="9.1" font-weight="bold" lengthAdjust="spacing" textLength="9.8" x="1001" y="526.0562">19</text><text fill="#000000" font-family="sans-serif" font-size="9.1" lengthAdjust="spacing" textLength="101.5" x="1013.6" y="526.0562">anyHRMHasEmail(email)</text><polygon fill="#181818" points="1003.8,548.8437,996.8,551.6437,1003.8,554.4437,1001,551.6437" style="stroke:#181818;stroke-width:0.6999999999999998;"/><line style="stroke:#181818;stroke-width:0.6999999999999998;stroke-dasharray:2.0,2.0;" x1="999.6" x2="1126.3" y1="551.6437" y2="551.6437"/><text fill="#000000" font-family="sans-serif" font-size="9.1" font-weight="bold" lengthAdjust="spacing" textLength="9.8" x="1008" y="547.9599">20</text><text fill="#000000" font-family="sans-serif" font-size="9.1" lengthAdjust="spacing" textLength="37.1" x="1020.6" y="547.9599">true/false</text><polygon fill="#181818" points="343.7,575.6475,336.7,578.4475,343.7,581.2475,340.9,578.4475" style="stroke:#181818;stroke-width:0.6999999999999998;"/><line style="stroke:#181818;stroke-width:0.6999999999999998;stroke-dasharray:2.0,2.0;" x1="339.5" x2="991.9" y1="578.4475" y2="578.4475"/><text fill="#000000" font-family="sans-serif" font-size="9.1" font-weight="bold" lengthAdjust="spacing" textLength="9.8" x="347.9" y="574.7636">21</text><text fill="#000000" font-family="sans-serif" font-size="9.1" lengthAdjust="spacing" textLength="49" x="360.5" y="574.7636">organization</text><polygon fill="#181818" points="1115.1,597.5512,1122.1,600.3512,1115.1,603.1512,1117.9,600.3512" style="stroke:#181818;stroke-width:0.6999999999999998;"/><line style="stroke:#181818;stroke-width:0.6999999999999998;" x1="336" x2="1119.3" y1="600.3512" y2="600.3512"/><text fill="#000000" font-family="sans-serif" font-size="9.1" font-weight="bold" lengthAdjust="spacing" textLength="9.8" x="340.9" y="596.6673">22</text><text fill="#000000" font-family="sans-serif" font-size="9.1" lengthAdjust="spacing" textLength="94.5" x="353.5" y="596.6673">getHRMByEmail(email)</text><polygon fill="#181818" points="343.7,619.4549,336.7,622.2549,343.7,625.0549,340.9,622.2549" style="stroke:#181818;stroke-width:0.6999999999999998;"/><line style="stroke:#181818;stroke-width:0.6999999999999998;stroke-dasharray:2.0,2.0;" x1="339.5" x2="1126.3" y1="622.2549" y2="622.2549"/><text fill="#000000" font-family="sans-serif" font-size="9.1" font-weight="bold" lengthAdjust="spacing" textLength="9.8" x="347.9" y="618.571">23</text><text fill="#000000" font-family="sans-serif" font-size="9.1" lengthAdjust="spacing" textLength="15.4" x="360.5" y="618.571">hrm</text><line style="stroke:#181818;stroke-width:0.6999999999999998;stroke-dasharray:2.0,2.0;" x1="336" x2="365.4" y1="647.6586" y2="647.6586"/><line style="stroke:#181818;stroke-width:0.6999999999999998;stroke-dasharray:2.0,2.0;" x1="365.4" x2="365.4" y1="647.6586" y2="656.7586"/><line style="stroke:#181818;stroke-width:0.6999999999999998;stroke-dasharray:2.0,2.0;" x1="332.5" x2="365.4" y1="656.7586" y2="656.7586"/><polygon fill="#181818" points="339.5,653.9586,332.5,656.7586,339.5,659.5586,336.7,656.7586" style="stroke:#181818;stroke-width:0.6999999999999998;"/><text fill="#000000" font-family="sans-serif" font-size="9.1" font-weight="bold" lengthAdjust="spacing" textLength="9.8" x="340.9" y="643.9747">24</text><text fill="#000000" font-family="sans-serif" font-size="9.1" lengthAdjust="spacing" textLength="15.4" x="353.5" y="643.9747">hrm</text><polygon fill="#181818" points="1115.1,689.8623,1122.1,692.6623,1115.1,695.4623,1117.9,692.6623" style="stroke:#181818;stroke-width:0.6999999999999998;"/><line style="stroke:#181818;stroke-width:0.6999999999999998;" x1="332.5" x2="1119.3" y1="692.6623" y2="692.6623"/><text fill="#000000" font-family="sans-serif" font-size="9.1" font-weight="bold" lengthAdjust="spacing" textLength="9.8" x="337.4" y="688.9784">25</text><text fill="#000000" font-family="sans-serif" font-size="9.1" lengthAdjust="spacing" textLength="86.8" x="350" y="688.9784">createSkill(skillname)</text><polygon fill="#181818" points="1238.3,711.766,1245.3,714.566,1238.3,717.366,1241.1,714.566" style="stroke:#181818;stroke-width:0.6999999999999998;"/><line style="stroke:#181818;stroke-width:0.6999999999999998;" x1="1130.5" x2="1242.5" y1="714.566" y2="714.566"/><text fill="#000000" font-family="sans-serif" font-size="9.1" font-weight="bold" lengthAdjust="spacing" textLength="9.8" x="1135.4" y="710.8821">26</text><text fill="#000000" font-family="sans-serif" font-size="9.1" lengthAdjust="spacing" textLength="86.8" x="1148" y="710.8821">createSkill(skillname)</text><rect fill="#E3E3E3" height="35.8695" rx="1.75" ry="1.75" style="stroke:#181818;stroke-width:0.3499999999999999;" width="30.1" x="1246.7" y="698.2623"/><text fill="#000000" font-family="sans-serif" font-size="9.8" lengthAdjust="spacing" textLength="16.1" x="1253.7" y="713.7375">skill</text><text fill="#000000" font-family="sans-serif" font-size="9.8" lengthAdjust="spacing" textLength="20.3" x="1251.6" y="726.7723">:Skill</text><line style="stroke:#181818;stroke-width:0.6999999999999998;" x1="1130.5" x2="1159.9" y1="758.1355" y2="758.1355"/><line style="stroke:#181818;stroke-width:0.6999999999999998;" x1="1159.9" x2="1159.9" y1="758.1355" y2="767.2355"/><line style="stroke:#181818;stroke-width:0.6999999999999998;" x1="1131.2" x2="1159.9" y1="767.2355" y2="767.2355"/><polygon fill="#181818" points="1138.2,764.4355,1131.2,767.2355,1138.2,770.0355,1135.4,767.2355" style="stroke:#181818;stroke-width:0.6999999999999998;"/><text fill="#000000" font-family="sans-serif" font-size="9.1" font-weight="bold" lengthAdjust="spacing" textLength="9.8" x="1135.4" y="754.4517">27</text><text fill="#000000" font-family="sans-serif" font-size="9.1" lengthAdjust="spacing" textLength="69.3" x="1148" y="754.4517">validateSkill(skill)</text><polygon fill="#181818" points="608.3,786.3393,601.3,789.1393,608.3,791.9393,605.5,789.1393" style="stroke:#181818;stroke-width:0.6999999999999998;"/><line style="stroke:#181818;stroke-width:0.6999999999999998;" x1="604.1" x2="1122.8" y1="789.1393" y2="789.1393"/><text fill="#000000" font-family="sans-serif" font-size="9.1" font-weight="bold" lengthAdjust="spacing" textLength="9.8" x="612.5" y="785.4554">28</text><text fill="#000000" font-family="sans-serif" font-size="9.1" lengthAdjust="spacing" textLength="53.9" x="625.1" y="785.4554">addSkill(skill)</text><polygon fill="#181818" points="340.2,808.243,333.2,811.043,340.2,813.843,337.4,811.043" style="stroke:#181818;stroke-width:0.6999999999999998;"/><line style="stroke:#181818;stroke-width:0.6999999999999998;stroke-dasharray:2.0,2.0;" x1="336" x2="1126.3" y1="811.043" y2="811.043"/><text fill="#000000" font-family="sans-serif" font-size="9.1" font-weight="bold" lengthAdjust="spacing" textLength="9.8" x="344.4" y="807.3591">29</text><text fill="#000000" font-family="sans-serif" font-size="9.1" lengthAdjust="spacing" textLength="16.1" x="357" y="807.3591">skill</text><polygon fill="#181818" points="225.4,830.1467,218.4,832.9467,225.4,835.7467,222.6,832.9467" style="stroke:#181818;stroke-width:0.6999999999999998;"/><line style="stroke:#181818;stroke-width:0.6999999999999998;stroke-dasharray:2.0,2.0;" x1="221.2" x2="328.3" y1="832.9467" y2="832.9467"/><text fill="#000000" font-family="sans-serif" font-size="9.1" font-weight="bold" lengthAdjust="spacing" textLength="9.8" x="229.6" y="829.2628">30</text><text fill="#000000" font-family="sans-serif" font-size="9.1" lengthAdjust="spacing" textLength="16.1" x="242.2" y="829.2628">skill</text><polygon fill="#181818" points="74.9,852.0504,67.9,854.8504,74.9,857.6504,72.1,854.8504" style="stroke:#181818;stroke-width:0.6999999999999998;"/><line style="stroke:#181818;stroke-width:0.6999999999999998;stroke-dasharray:2.0,2.0;" x1="70.7" x2="213.5" y1="854.8504" y2="854.8504"/><text fill="#000000" font-family="sans-serif" font-size="9.1" font-weight="bold" lengthAdjust="spacing" textLength="9.8" x="79.1" y="851.1665">31</text><text fill="#000000" font-family="sans-serif" font-size="9.1" lengthAdjust="spacing" textLength="110.6" x="91.7" y="851.1665">displays operation success</text><!--SRC=[bLTTJzim57tthx1ueKD2Uwyqf58OhGG29VHfaoQJcDPgOcUs0-l4Zz_rRRvh9omlLU9xpZttmzUksGjPCCrocYkfafrMEQTMbvoOPgLWoPvjUMmF6QUQ9vR9RTOrC3kMgdSXj_ILPOOJmaghP9c_S4t8-KwadBugPL_K7y8IgpGzMvKvapJYHfKwuOO-C0aUz1bbXYvk7WZmMf68WabBp-PBpPdbyLvasMQDDfjrs6IffDKgoogwvNDqFp2EUA6C02626xHfFXnYuM83zNs8xY1-obE2f_l5SnzXd9G6TW0GYciz8IwE1j8MHP69X5cXPCoDWH-q-xLuUkfRigAe380wW3e19QNMNDeMk35STn7nRHml7liWfRTCYh_8tigV_vIFtWNayI-5UK5A5tBaYEuyAQqJYIQhnVNwVdspkBabhhF46_G0zW-XrGClzF8A-eNE0R0tr2gQOAzGHYL_fqZQsZSiq67ad7OUeBW49aSuXrtmk-J66feoo-XCifn_8Lthyye9Tj-GvWe_Nrm0qT6izTzPXzKjjuEkcNNSD5hHISyBFaW2PAuv9yc6JqEEhUstG-9MhUcp-p4fxpCFlZNvygVR9Ne8SPKQbjeU2fWg5OodBUu4TPBpf9qaCuoeNzoHf7zyV11V_jjYhgA7xp1XgnqtIFz4EMisDmgGR2qDJEA4UwhOKE7Sy9N1BTJQO6SqmuICr0l9mi9gNSlUa1bJXtm-TIYkKTUVMcCAlOIrlkDicrEUCv7HRqwg6t-txdLCPJKJlKAFQnsjI3uciMOZOxiLy-YVeJFqC28tl5-FsxMHwf_hP6h3XfNx1P_4Sds0RN3C-bGiWMF46rscL45_lCBj0WJlUj45fvoV7sE9xjo98PtM5JEZSazbmyaLdgpe6EWlWobp0mokO5-FjwaGHwSmpg7FXCkK_4_SxR0QJL_NyoShrFH8T5TFmkl39viWbCqwYPNadSx9H8u2ii8SmvFfK_CUOvmuHgOZnEYkEbUSYuiWQmYCIjvO9j8-Aeo88-ZwDEtRaedC3-vGKublahvPrzYndFilONEQ2bDax62eAhZ61gIcJE3VXF7T4Bgd15mG_m40]--></g></svg>