<?xml version="1.0" encoding="us-ascii" standalone="no"?><svg xmlns="http://www.w3.org/2000/svg" xmlns:xlink="http://www.w3.org/1999/xlink" contentStyleType="text/css" height="1344px" preserveAspectRatio="none" style="width:1357px;height:1344px;background:#FFFFFF;" version="1.1" viewBox="0 0 1357 1344" width="1357px" zoomAndPan="magnify"><defs/><g><!--class ApplicationSession--><g id="elem_ApplicationSession"><rect codeLine="11" fill="#F1F1F1" height="85.2422" id="ApplicationSession" rx="2.5" ry="2.5" style="stroke:#181818;stroke-width:0.5;" width="151" x="1103.5" y="217.5"/><ellipse cx="1118.5" cy="233.5" fill="#ADD1B2" rx="11" ry="11" style="stroke:#181818;stroke-width:1.0;"/><path d="M1121.2656,229.375 Q1121.4219,229.1563 1121.6094,229.0469 Q1121.7969,228.9375 1122.0156,228.9375 Q1122.3906,228.9375 1122.625,229.2031 Q1122.8594,229.4531 1122.8594,230.0625 L1122.8594,231.5156 Q1122.8594,232.125 1122.625,232.3906 Q1122.3906,232.6563 1122.0156,232.6563 Q1121.6719,232.6563 1121.4688,232.4531 Q1121.2656,232.2656 1121.1563,231.75 Q1121.1094,231.3906 1120.9219,231.2031 Q1120.5938,230.8281 1119.9844,230.6094 Q1119.375,230.3906 1118.75,230.3906 Q1117.9844,230.3906 1117.3438,230.7188 Q1116.7188,231.0469 1116.2188,231.7969 Q1115.7344,232.5469 1115.7344,233.5781 L1115.7344,234.6719 Q1115.7344,235.9063 1116.625,236.7344 Q1117.5156,237.5469 1119.1094,237.5469 Q1120.0469,237.5469 1120.7031,237.2969 Q1121.0938,237.1406 1121.5156,236.7031 Q1121.7813,236.4375 1121.9219,236.3594 Q1122.0781,236.2813 1122.2813,236.2813 Q1122.6094,236.2813 1122.8594,236.5469 Q1123.125,236.7969 1123.125,237.1406 Q1123.125,237.4844 1122.7813,237.8906 Q1122.2813,238.4688 1121.4844,238.7969 Q1120.4063,239.25 1119.1094,239.25 Q1117.5938,239.25 1116.3906,238.625 Q1115.4063,238.125 1114.7188,237.0625 Q1114.0313,235.9844 1114.0313,234.7031 L1114.0313,233.5469 Q1114.0313,232.2188 1114.6406,231.0781 Q1115.2656,229.9219 1116.3594,229.3125 Q1117.4531,228.6875 1118.6875,228.6875 Q1119.4219,228.6875 1120.0625,228.8594 Q1120.7188,229.0156 1121.2656,229.375 Z " fill="#000000"/><text fill="#000000" font-family="sans-serif" font-size="14" lengthAdjust="spacing" textLength="119" x="1132.5" y="239.2969">ApplicationSession</text><line style="stroke:#181818;stroke-width:0.5;" x1="1104.5" x2="1253.5" y1="249.5" y2="249.5"/><line style="stroke:#181818;stroke-width:0.5;" x1="1104.5" x2="1253.5" y1="257.5" y2="257.5"/><text fill="#000000" font-family="sans-serif" font-size="14" lengthAdjust="spacing" textLength="128" x="1109.5" y="276.6074">+static getInstance()</text><text fill="#000000" font-family="sans-serif" font-size="14" lengthAdjust="spacing" textLength="136" x="1109.5" y="295.2285">+getCurrentSession()</text></g><!--class UserSession--><g id="elem_UserSession"><rect codeLine="17" fill="#F1F1F1" height="66.6211" id="UserSession" rx="2.5" ry="2.5" style="stroke:#181818;stroke-width:0.5;" width="113" x="1105.5" y="428"/><ellipse cx="1121.4" cy="444" fill="#ADD1B2" rx="11" ry="11" style="stroke:#181818;stroke-width:1.0;"/><path d="M1124.1656,439.875 Q1124.3219,439.6563 1124.5094,439.5469 Q1124.6969,439.4375 1124.9156,439.4375 Q1125.2906,439.4375 1125.525,439.7031 Q1125.7594,439.9531 1125.7594,440.5625 L1125.7594,442.0156 Q1125.7594,442.625 1125.525,442.8906 Q1125.2906,443.1563 1124.9156,443.1563 Q1124.5719,443.1563 1124.3688,442.9531 Q1124.1656,442.7656 1124.0563,442.25 Q1124.0094,441.8906 1123.8219,441.7031 Q1123.4938,441.3281 1122.8844,441.1094 Q1122.275,440.8906 1121.65,440.8906 Q1120.8844,440.8906 1120.2438,441.2188 Q1119.6188,441.5469 1119.1188,442.2969 Q1118.6344,443.0469 1118.6344,444.0781 L1118.6344,445.1719 Q1118.6344,446.4063 1119.525,447.2344 Q1120.4156,448.0469 1122.0094,448.0469 Q1122.9469,448.0469 1123.6031,447.7969 Q1123.9938,447.6406 1124.4156,447.2031 Q1124.6813,446.9375 1124.8219,446.8594 Q1124.9781,446.7813 1125.1813,446.7813 Q1125.5094,446.7813 1125.7594,447.0469 Q1126.025,447.2969 1126.025,447.6406 Q1126.025,447.9844 1125.6813,448.3906 Q1125.1813,448.9688 1124.3844,449.2969 Q1123.3063,449.75 1122.0094,449.75 Q1120.4938,449.75 1119.2906,449.125 Q1118.3063,448.625 1117.6188,447.5625 Q1116.9313,446.4844 1116.9313,445.2031 L1116.9313,444.0469 Q1116.9313,442.7188 1117.5406,441.5781 Q1118.1656,440.4219 1119.2594,439.8125 Q1120.3531,439.1875 1121.5875,439.1875 Q1122.3219,439.1875 1122.9625,439.3594 Q1123.6188,439.5156 1124.1656,439.875 Z " fill="#000000"/><text fill="#000000" font-family="sans-serif" font-size="14" lengthAdjust="spacing" textLength="79" x="1135.6" y="449.7969">UserSession</text><line style="stroke:#181818;stroke-width:0.5;" x1="1106.5" x2="1217.5" y1="460" y2="460"/><line style="stroke:#181818;stroke-width:0.5;" x1="1106.5" x2="1217.5" y1="468" y2="468"/><text fill="#000000" font-family="sans-serif" font-size="14" lengthAdjust="spacing" textLength="101" x="1111.5" y="487.1074">+getUserEmail()</text></g><!--class Skill--><g id="elem_Skill"><rect codeLine="22" fill="#F1F1F1" height="66.6211" id="Skill" rx="2.5" ry="2.5" style="stroke:#181818;stroke-width:0.5;" width="97" x="241.5" y="1271"/><ellipse cx="274.5" cy="1287" fill="#ADD1B2" rx="11" ry="11" style="stroke:#181818;stroke-width:1.0;"/><path d="M277.2656,1282.875 Q277.4219,1282.6563 277.6094,1282.5469 Q277.7969,1282.4375 278.0156,1282.4375 Q278.3906,1282.4375 278.625,1282.7031 Q278.8594,1282.9531 278.8594,1283.5625 L278.8594,1285.0156 Q278.8594,1285.625 278.625,1285.8906 Q278.3906,1286.1563 278.0156,1286.1563 Q277.6719,1286.1563 277.4688,1285.9531 Q277.2656,1285.7656 277.1563,1285.25 Q277.1094,1284.8906 276.9219,1284.7031 Q276.5938,1284.3281 275.9844,1284.1094 Q275.375,1283.8906 274.75,1283.8906 Q273.9844,1283.8906 273.3438,1284.2188 Q272.7188,1284.5469 272.2188,1285.2969 Q271.7344,1286.0469 271.7344,1287.0781 L271.7344,1288.1719 Q271.7344,1289.4063 272.625,1290.2344 Q273.5156,1291.0469 275.1094,1291.0469 Q276.0469,1291.0469 276.7031,1290.7969 Q277.0938,1290.6406 277.5156,1290.2031 Q277.7813,1289.9375 277.9219,1289.8594 Q278.0781,1289.7813 278.2813,1289.7813 Q278.6094,1289.7813 278.8594,1290.0469 Q279.125,1290.2969 279.125,1290.6406 Q279.125,1290.9844 278.7813,1291.3906 Q278.2813,1291.9688 277.4844,1292.2969 Q276.4063,1292.75 275.1094,1292.75 Q273.5938,1292.75 272.3906,1292.125 Q271.4063,1291.625 270.7188,1290.5625 Q270.0313,1289.4844 270.0313,1288.2031 L270.0313,1287.0469 Q270.0313,1285.7188 270.6406,1284.5781 Q271.2656,1283.4219 272.3594,1282.8125 Q273.4531,1282.1875 274.6875,1282.1875 Q275.4219,1282.1875 276.0625,1282.3594 Q276.7188,1282.5156 277.2656,1282.875 Z " fill="#000000"/><text fill="#000000" font-family="sans-serif" font-size="14" lengthAdjust="spacing" textLength="25" x="292.5" y="1292.7969">Skill</text><line style="stroke:#181818;stroke-width:0.5;" x1="242.5" x2="337.5" y1="1303" y2="1303"/><text fill="#000000" font-family="sans-serif" font-size="14" lengthAdjust="spacing" textLength="85" x="247.5" y="1322.1074">-name: String</text><line style="stroke:#181818;stroke-width:0.5;" x1="242.5" x2="337.5" y1="1329.6211" y2="1329.6211"/></g><!--class SkillRepository--><g id="elem_SkillRepository"><rect codeLine="26" fill="#F1F1F1" height="141.1055" id="SkillRepository" rx="2.5" ry="2.5" style="stroke:#181818;stroke-width:0.5;" width="232" x="822" y="391"/><ellipse cx="887.25" cy="407" fill="#ADD1B2" rx="11" ry="11" style="stroke:#181818;stroke-width:1.0;"/><path d="M890.0156,402.875 Q890.1719,402.6563 890.3594,402.5469 Q890.5469,402.4375 890.7656,402.4375 Q891.1406,402.4375 891.375,402.7031 Q891.6094,402.9531 891.6094,403.5625 L891.6094,405.0156 Q891.6094,405.625 891.375,405.8906 Q891.1406,406.1563 890.7656,406.1563 Q890.4219,406.1563 890.2188,405.9531 Q890.0156,405.7656 889.9063,405.25 Q889.8594,404.8906 889.6719,404.7031 Q889.3438,404.3281 888.7344,404.1094 Q888.125,403.8906 887.5,403.8906 Q886.7344,403.8906 886.0938,404.2188 Q885.4688,404.5469 884.9688,405.2969 Q884.4844,406.0469 884.4844,407.0781 L884.4844,408.1719 Q884.4844,409.4063 885.375,410.2344 Q886.2656,411.0469 887.8594,411.0469 Q888.7969,411.0469 889.4531,410.7969 Q889.8438,410.6406 890.2656,410.2031 Q890.5313,409.9375 890.6719,409.8594 Q890.8281,409.7813 891.0313,409.7813 Q891.3594,409.7813 891.6094,410.0469 Q891.875,410.2969 891.875,410.6406 Q891.875,410.9844 891.5313,411.3906 Q891.0313,411.9688 890.2344,412.2969 Q889.1563,412.75 887.8594,412.75 Q886.3438,412.75 885.1406,412.125 Q884.1563,411.625 883.4688,410.5625 Q882.7813,409.4844 882.7813,408.2031 L882.7813,407.0469 Q882.7813,405.7188 883.3906,404.5781 Q884.0156,403.4219 885.1094,402.8125 Q886.2031,402.1875 887.4375,402.1875 Q888.1719,402.1875 888.8125,402.3594 Q889.4688,402.5156 890.0156,402.875 Z " fill="#000000"/><text fill="#000000" font-family="sans-serif" font-size="14" lengthAdjust="spacing" textLength="93" x="907.75" y="412.7969">SkillRepository</text><line style="stroke:#181818;stroke-width:0.5;" x1="823" x2="1053" y1="423" y2="423"/><text fill="#000000" font-family="sans-serif" font-size="14" lengthAdjust="spacing" textLength="102" x="828" y="442.1074">-List&lt;Skill&gt; skills</text><line style="stroke:#181818;stroke-width:0.5;" x1="823" x2="1053" y1="449.6211" y2="449.6211"/><text fill="#000000" font-family="sans-serif" font-size="14" lengthAdjust="spacing" textLength="192" x="828" y="468.7285">+Optional&lt;Skill&gt; add(Skill skill)</text><text fill="#000000" font-family="sans-serif" font-size="14" lengthAdjust="spacing" textLength="199" x="828" y="487.3496">+boolean validateSkill(Skill skill)</text><text fill="#000000" font-family="sans-serif" font-size="14" lengthAdjust="spacing" textLength="137" x="828" y="505.9707">+List&lt;Skill&gt; getSkills()</text><text fill="#000000" font-family="sans-serif" font-size="14" lengthAdjust="spacing" textLength="220" x="828" y="524.5918">+Skill getSkillByName(String name)</text></g><!--class Organization--><g id="elem_Organization"><rect codeLine="34" fill="#F1F1F1" height="234.2109" id="Organization" rx="2.5" ry="2.5" style="stroke:#181818;stroke-width:0.5;" width="269" x="243.5" y="611"/><ellipse cx="333.75" cy="627" fill="#ADD1B2" rx="11" ry="11" style="stroke:#181818;stroke-width:1.0;"/><path d="M336.5156,622.875 Q336.6719,622.6563 336.8594,622.5469 Q337.0469,622.4375 337.2656,622.4375 Q337.6406,622.4375 337.875,622.7031 Q338.1094,622.9531 338.1094,623.5625 L338.1094,625.0156 Q338.1094,625.625 337.875,625.8906 Q337.6406,626.1563 337.2656,626.1563 Q336.9219,626.1563 336.7188,625.9531 Q336.5156,625.7656 336.4063,625.25 Q336.3594,624.8906 336.1719,624.7031 Q335.8438,624.3281 335.2344,624.1094 Q334.625,623.8906 334,623.8906 Q333.2344,623.8906 332.5938,624.2188 Q331.9688,624.5469 331.4688,625.2969 Q330.9844,626.0469 330.9844,627.0781 L330.9844,628.1719 Q330.9844,629.4063 331.875,630.2344 Q332.7656,631.0469 334.3594,631.0469 Q335.2969,631.0469 335.9531,630.7969 Q336.3438,630.6406 336.7656,630.2031 Q337.0313,629.9375 337.1719,629.8594 Q337.3281,629.7813 337.5313,629.7813 Q337.8594,629.7813 338.1094,630.0469 Q338.375,630.2969 338.375,630.6406 Q338.375,630.9844 338.0313,631.3906 Q337.5313,631.9688 336.7344,632.2969 Q335.6563,632.75 334.3594,632.75 Q332.8438,632.75 331.6406,632.125 Q330.6563,631.625 329.9688,630.5625 Q329.2813,629.4844 329.2813,628.2031 L329.2813,627.0469 Q329.2813,625.7188 329.8906,624.5781 Q330.5156,623.4219 331.6094,622.8125 Q332.7031,622.1875 333.9375,622.1875 Q334.6719,622.1875 335.3125,622.3594 Q335.9688,622.5156 336.5156,622.875 Z " fill="#000000"/><text fill="#000000" font-family="sans-serif" font-size="14" lengthAdjust="spacing" textLength="80" x="354.25" y="632.7969">Organization</text><line style="stroke:#181818;stroke-width:0.5;" x1="244.5" x2="511.5" y1="643" y2="643"/><text fill="#000000" font-family="sans-serif" font-size="14" lengthAdjust="spacing" textLength="81" x="249.5" y="662.1074">-String name</text><text fill="#000000" font-family="sans-serif" font-size="14" lengthAdjust="spacing" textLength="114" x="249.5" y="680.7285">-String vatNumber</text><text fill="#000000" font-family="sans-serif" font-size="14" lengthAdjust="spacing" textLength="97" x="249.5" y="699.3496">-String address</text><text fill="#000000" font-family="sans-serif" font-size="14" lengthAdjust="spacing" textLength="86" x="249.5" y="717.9707">-String phone</text><text fill="#000000" font-family="sans-serif" font-size="14" lengthAdjust="spacing" textLength="79" x="249.5" y="736.5918">-String email</text><line style="stroke:#181818;stroke-width:0.5;" x1="244.5" x2="511.5" y1="744.1055" y2="744.1055"/><text fill="#000000" font-family="sans-serif" font-size="14" lengthAdjust="spacing" textLength="257" x="249.5" y="763.2129">+Optional&lt;Skill&gt; createSkill(String name)</text><text fill="#000000" font-family="sans-serif" font-size="14" lengthAdjust="spacing" textLength="174" x="249.5" y="781.834">+boolean addSkill(Skill skill)</text><text fill="#000000" font-family="sans-serif" font-size="14" lengthAdjust="spacing" textLength="199" x="249.5" y="800.4551">+boolean validateSkill(Skill skill)</text><text fill="#000000" font-family="sans-serif" font-size="14" lengthAdjust="spacing" textLength="243" x="249.5" y="819.0762">+boolean skillsDoNotContain(Skill skill)</text><text fill="#000000" font-family="sans-serif" font-size="14" lengthAdjust="spacing" textLength="168" x="249.5" y="837.6973">+boolean equals(Object o)</text></g><!--class OrganizationRepository--><g id="elem_OrganizationRepository"><rect codeLine="47" fill="#F1F1F1" height="141.1055" id="OrganizationRepository" rx="2.5" ry="2.5" style="stroke:#181818;stroke-width:0.5;" width="437" x="349.5" y="391"/><ellipse cx="489.75" cy="407" fill="#ADD1B2" rx="11" ry="11" style="stroke:#181818;stroke-width:1.0;"/><path d="M492.5156,402.875 Q492.6719,402.6563 492.8594,402.5469 Q493.0469,402.4375 493.2656,402.4375 Q493.6406,402.4375 493.875,402.7031 Q494.1094,402.9531 494.1094,403.5625 L494.1094,405.0156 Q494.1094,405.625 493.875,405.8906 Q493.6406,406.1563 493.2656,406.1563 Q492.9219,406.1563 492.7188,405.9531 Q492.5156,405.7656 492.4063,405.25 Q492.3594,404.8906 492.1719,404.7031 Q491.8438,404.3281 491.2344,404.1094 Q490.625,403.8906 490,403.8906 Q489.2344,403.8906 488.5938,404.2188 Q487.9688,404.5469 487.4688,405.2969 Q486.9844,406.0469 486.9844,407.0781 L486.9844,408.1719 Q486.9844,409.4063 487.875,410.2344 Q488.7656,411.0469 490.3594,411.0469 Q491.2969,411.0469 491.9531,410.7969 Q492.3438,410.6406 492.7656,410.2031 Q493.0313,409.9375 493.1719,409.8594 Q493.3281,409.7813 493.5313,409.7813 Q493.8594,409.7813 494.1094,410.0469 Q494.375,410.2969 494.375,410.6406 Q494.375,410.9844 494.0313,411.3906 Q493.5313,411.9688 492.7344,412.2969 Q491.6563,412.75 490.3594,412.75 Q488.8438,412.75 487.6406,412.125 Q486.6563,411.625 485.9688,410.5625 Q485.2813,409.4844 485.2813,408.2031 L485.2813,407.0469 Q485.2813,405.7188 485.8906,404.5781 Q486.5156,403.4219 487.6094,402.8125 Q488.7031,402.1875 489.9375,402.1875 Q490.6719,402.1875 491.3125,402.3594 Q491.9688,402.5156 492.5156,402.875 Z " fill="#000000"/><text fill="#000000" font-family="sans-serif" font-size="14" lengthAdjust="spacing" textLength="148" x="510.25" y="412.7969">OrganizationRepository</text><line style="stroke:#181818;stroke-width:0.5;" x1="350.5" x2="785.5" y1="423" y2="423"/><line style="stroke:#181818;stroke-width:0.5;" x1="350.5" x2="785.5" y1="431" y2="431"/><text fill="#000000" font-family="sans-serif" font-size="14" lengthAdjust="spacing" textLength="375" x="355.5" y="450.1074">+Optional&lt;Organization&gt; getOrganizationByHRM(HRM hrm)</text><text fill="#000000" font-family="sans-serif" font-size="14" lengthAdjust="spacing" textLength="371" x="355.5" y="468.7285">+Optional&lt;Organization&gt; getOrganizationByVFM(VFM vfm)</text><text fill="#000000" font-family="sans-serif" font-size="14" lengthAdjust="spacing" textLength="425" x="355.5" y="487.3496">+Optional&lt;Organization&gt; getOrganizationByHRMEmail(String email)</text><text fill="#000000" font-family="sans-serif" font-size="14" lengthAdjust="spacing" textLength="356" x="355.5" y="505.9707">+Optional&lt;Organization&gt; add(Organization organization)</text><text fill="#000000" font-family="sans-serif" font-size="14" lengthAdjust="spacing" textLength="363" x="355.5" y="524.5918">+boolean validateOrganization(Organization organization)</text></g><!--class Repositories--><g id="elem_Repositories"><rect codeLine="55" fill="#F1F1F1" height="103.8633" id="Repositories" rx="2.5" ry="2.5" style="stroke:#181818;stroke-width:0.5;" width="358" x="560" y="208"/><ellipse cx="695.25" cy="224" fill="#ADD1B2" rx="11" ry="11" style="stroke:#181818;stroke-width:1.0;"/><path d="M698.0156,219.875 Q698.1719,219.6563 698.3594,219.5469 Q698.5469,219.4375 698.7656,219.4375 Q699.1406,219.4375 699.375,219.7031 Q699.6094,219.9531 699.6094,220.5625 L699.6094,222.0156 Q699.6094,222.625 699.375,222.8906 Q699.1406,223.1563 698.7656,223.1563 Q698.4219,223.1563 698.2188,222.9531 Q698.0156,222.7656 697.9063,222.25 Q697.8594,221.8906 697.6719,221.7031 Q697.3438,221.3281 696.7344,221.1094 Q696.125,220.8906 695.5,220.8906 Q694.7344,220.8906 694.0938,221.2188 Q693.4688,221.5469 692.9688,222.2969 Q692.4844,223.0469 692.4844,224.0781 L692.4844,225.1719 Q692.4844,226.4063 693.375,227.2344 Q694.2656,228.0469 695.8594,228.0469 Q696.7969,228.0469 697.4531,227.7969 Q697.8438,227.6406 698.2656,227.2031 Q698.5313,226.9375 698.6719,226.8594 Q698.8281,226.7813 699.0313,226.7813 Q699.3594,226.7813 699.6094,227.0469 Q699.875,227.2969 699.875,227.6406 Q699.875,227.9844 699.5313,228.3906 Q699.0313,228.9688 698.2344,229.2969 Q697.1563,229.75 695.8594,229.75 Q694.3438,229.75 693.1406,229.125 Q692.1563,228.625 691.4688,227.5625 Q690.7813,226.4844 690.7813,225.2031 L690.7813,224.0469 Q690.7813,222.7188 691.3906,221.5781 Q692.0156,220.4219 693.1094,219.8125 Q694.2031,219.1875 695.4375,219.1875 Q696.1719,219.1875 696.8125,219.3594 Q697.4688,219.5156 698.0156,219.875 Z " fill="#000000"/><text fill="#000000" font-family="sans-serif" font-size="14" lengthAdjust="spacing" textLength="79" x="715.75" y="229.7969">Repositories</text><line style="stroke:#181818;stroke-width:0.5;" x1="561" x2="917" y1="240" y2="240"/><line style="stroke:#181818;stroke-width:0.5;" x1="561" x2="917" y1="248" y2="248"/><text fill="#000000" font-family="sans-serif" font-size="14" lengthAdjust="spacing" textLength="182" x="566" y="267.1074">+getInstance() : Repositories</text><text fill="#000000" font-family="sans-serif" font-size="14" lengthAdjust="spacing" textLength="236" x="566" y="285.7285">+getSkillRepository() : SkillRepository</text><text fill="#000000" font-family="sans-serif" font-size="14" lengthAdjust="spacing" textLength="346" x="566" y="304.3496">+getOrganizationRepository() : OrganizationRepository</text></g><!--class CreateSkillController--><g id="elem_CreateSkillController"><rect codeLine="61" fill="#F1F1F1" height="122.4844" id="CreateSkillController" rx="2.5" ry="2.5" style="stroke:#181818;stroke-width:0.5;" width="453" x="512.5" y="7"/><ellipse cx="669.75" cy="23" fill="#ADD1B2" rx="11" ry="11" style="stroke:#181818;stroke-width:1.0;"/><path d="M672.5156,18.875 Q672.6719,18.6563 672.8594,18.5469 Q673.0469,18.4375 673.2656,18.4375 Q673.6406,18.4375 673.875,18.7031 Q674.1094,18.9531 674.1094,19.5625 L674.1094,21.0156 Q674.1094,21.625 673.875,21.8906 Q673.6406,22.1563 673.2656,22.1563 Q672.9219,22.1563 672.7188,21.9531 Q672.5156,21.7656 672.4063,21.25 Q672.3594,20.8906 672.1719,20.7031 Q671.8438,20.3281 671.2344,20.1094 Q670.625,19.8906 670,19.8906 Q669.2344,19.8906 668.5938,20.2188 Q667.9688,20.5469 667.4688,21.2969 Q666.9844,22.0469 666.9844,23.0781 L666.9844,24.1719 Q666.9844,25.4063 667.875,26.2344 Q668.7656,27.0469 670.3594,27.0469 Q671.2969,27.0469 671.9531,26.7969 Q672.3438,26.6406 672.7656,26.2031 Q673.0313,25.9375 673.1719,25.8594 Q673.3281,25.7813 673.5313,25.7813 Q673.8594,25.7813 674.1094,26.0469 Q674.375,26.2969 674.375,26.6406 Q674.375,26.9844 674.0313,27.3906 Q673.5313,27.9688 672.7344,28.2969 Q671.6563,28.75 670.3594,28.75 Q668.8438,28.75 667.6406,28.125 Q666.6563,27.625 665.9688,26.5625 Q665.2813,25.4844 665.2813,24.2031 L665.2813,23.0469 Q665.2813,21.7188 665.8906,20.5781 Q666.5156,19.4219 667.6094,18.8125 Q668.7031,18.1875 669.9375,18.1875 Q670.6719,18.1875 671.3125,18.3594 Q671.9688,18.5156 672.5156,18.875 Z " fill="#000000"/><text fill="#000000" font-family="sans-serif" font-size="14" lengthAdjust="spacing" textLength="130" x="690.25" y="28.7969">CreateSkillController</text><line style="stroke:#181818;stroke-width:0.5;" x1="513.5" x2="964.5" y1="39" y2="39"/><text fill="#000000" font-family="sans-serif" font-size="14" lengthAdjust="spacing" textLength="185" x="518.5" y="58.1074">JobRepository jobRepository,</text><line style="stroke:#181818;stroke-width:0.5;" x1="513.5" x2="964.5" y1="65.6211" y2="65.6211"/><text fill="#000000" font-family="sans-serif" font-size="14" lengthAdjust="spacing" textLength="441" x="518.5" y="84.7285">+CreateJobController(OrganizationRepository organizationRepository,</text><text fill="#000000" font-family="sans-serif" font-size="14" lengthAdjust="spacing" textLength="324" x="518.5" y="103.3496">AuthenticationRepository authenticationRepository)</text><text fill="#000000" font-family="sans-serif" font-size="14" lengthAdjust="spacing" textLength="323" x="518.5" y="121.9707">+Optional&lt;Skill&gt; createSkill(String name, HRM hrm)</text></g><!--class CreateSkillUI--><g id="elem_CreateSkillUI"><rect codeLine="68" fill="#F1F1F1" height="66.6211" id="CreateSkillUI" rx="2.5" ry="2.5" style="stroke:#181818;stroke-width:0.5;" width="139" x="338.5" y="34.5"/><ellipse cx="365.65" cy="50.5" fill="#ADD1B2" rx="11" ry="11" style="stroke:#181818;stroke-width:1.0;"/><path d="M368.4156,46.375 Q368.5719,46.1563 368.7594,46.0469 Q368.9469,45.9375 369.1656,45.9375 Q369.5406,45.9375 369.775,46.2031 Q370.0094,46.4531 370.0094,47.0625 L370.0094,48.5156 Q370.0094,49.125 369.775,49.3906 Q369.5406,49.6563 369.1656,49.6563 Q368.8219,49.6563 368.6188,49.4531 Q368.4156,49.2656 368.3063,48.75 Q368.2594,48.3906 368.0719,48.2031 Q367.7438,47.8281 367.1344,47.6094 Q366.525,47.3906 365.9,47.3906 Q365.1344,47.3906 364.4938,47.7188 Q363.8688,48.0469 363.3688,48.7969 Q362.8844,49.5469 362.8844,50.5781 L362.8844,51.6719 Q362.8844,52.9063 363.775,53.7344 Q364.6656,54.5469 366.2594,54.5469 Q367.1969,54.5469 367.8531,54.2969 Q368.2438,54.1406 368.6656,53.7031 Q368.9313,53.4375 369.0719,53.3594 Q369.2281,53.2813 369.4313,53.2813 Q369.7594,53.2813 370.0094,53.5469 Q370.275,53.7969 370.275,54.1406 Q370.275,54.4844 369.9313,54.8906 Q369.4313,55.4688 368.6344,55.7969 Q367.5563,56.25 366.2594,56.25 Q364.7438,56.25 363.5406,55.625 Q362.5563,55.125 361.8688,54.0625 Q361.1813,52.9844 361.1813,51.7031 L361.1813,50.5469 Q361.1813,49.2188 361.7906,48.0781 Q362.4156,46.9219 363.5094,46.3125 Q364.6031,45.6875 365.8375,45.6875 Q366.5719,45.6875 367.2125,45.8594 Q367.8688,46.0156 368.4156,46.375 Z " fill="#000000"/><text fill="#000000" font-family="sans-serif" font-size="14" lengthAdjust="spacing" textLength="80" x="382.35" y="56.2969">CreateSkillUI</text><line style="stroke:#181818;stroke-width:0.5;" x1="339.5" x2="476.5" y1="66.5" y2="66.5"/><line style="stroke:#181818;stroke-width:0.5;" x1="339.5" x2="476.5" y1="74.5" y2="74.5"/><text fill="#000000" font-family="sans-serif" font-size="14" lengthAdjust="spacing" textLength="127" x="344.5" y="93.6074">+requestSkillName()</text></g><!--class HRManager--><g id="elem_HRManager"><rect codeLine="72" fill="#F1F1F1" height="141.1055" id="HRManager" rx="2.5" ry="2.5" style="stroke:#181818;stroke-width:0.5;" width="147" x="63.5" y="924"/><ellipse cx="96.5" cy="940" fill="#ADD1B2" rx="11" ry="11" style="stroke:#181818;stroke-width:1.0;"/><path d="M99.2656,935.875 Q99.4219,935.6563 99.6094,935.5469 Q99.7969,935.4375 100.0156,935.4375 Q100.3906,935.4375 100.625,935.7031 Q100.8594,935.9531 100.8594,936.5625 L100.8594,938.0156 Q100.8594,938.625 100.625,938.8906 Q100.3906,939.1563 100.0156,939.1563 Q99.6719,939.1563 99.4688,938.9531 Q99.2656,938.7656 99.1563,938.25 Q99.1094,937.8906 98.9219,937.7031 Q98.5938,937.3281 97.9844,937.1094 Q97.375,936.8906 96.75,936.8906 Q95.9844,936.8906 95.3438,937.2188 Q94.7188,937.5469 94.2188,938.2969 Q93.7344,939.0469 93.7344,940.0781 L93.7344,941.1719 Q93.7344,942.4063 94.625,943.2344 Q95.5156,944.0469 97.1094,944.0469 Q98.0469,944.0469 98.7031,943.7969 Q99.0938,943.6406 99.5156,943.2031 Q99.7813,942.9375 99.9219,942.8594 Q100.0781,942.7813 100.2813,942.7813 Q100.6094,942.7813 100.8594,943.0469 Q101.125,943.2969 101.125,943.6406 Q101.125,943.9844 100.7813,944.3906 Q100.2813,944.9688 99.4844,945.2969 Q98.4063,945.75 97.1094,945.75 Q95.5938,945.75 94.3906,945.125 Q93.4063,944.625 92.7188,943.5625 Q92.0313,942.4844 92.0313,941.2031 L92.0313,940.0469 Q92.0313,938.7188 92.6406,937.5781 Q93.2656,936.4219 94.3594,935.8125 Q95.4531,935.1875 96.6875,935.1875 Q97.4219,935.1875 98.0625,935.3594 Q98.7188,935.5156 99.2656,935.875 Z " fill="#000000"/><text fill="#000000" font-family="sans-serif" font-size="14" lengthAdjust="spacing" textLength="75" x="114.5" y="945.7969">HRManager</text><line style="stroke:#181818;stroke-width:0.5;" x1="64.5" x2="209.5" y1="956" y2="956"/><text fill="#000000" font-family="sans-serif" font-size="14" lengthAdjust="spacing" textLength="81" x="69.5" y="975.1074">-String name</text><text fill="#000000" font-family="sans-serif" font-size="14" lengthAdjust="spacing" textLength="92" x="69.5" y="993.7285">-int vatNumber</text><text fill="#000000" font-family="sans-serif" font-size="14" lengthAdjust="spacing" textLength="79" x="69.5" y="1012.3496">-String email</text><text fill="#000000" font-family="sans-serif" font-size="14" lengthAdjust="spacing" textLength="112" x="69.5" y="1030.9707">-int phonenumber</text><line style="stroke:#181818;stroke-width:0.5;" x1="64.5" x2="209.5" y1="1038.4844" y2="1038.4844"/><text fill="#000000" font-family="sans-serif" font-size="14" lengthAdjust="spacing" textLength="135" x="69.5" y="1057.5918">+manageSkills(): void</text></g><!--class SkillManager--><g id="elem_SkillManager"><rect fill="#F1F1F1" height="48" id="SkillManager" rx="2.5" ry="2.5" style="stroke:#181818;stroke-width:0.5;" width="113" x="233.5" y="1144"/><ellipse cx="248.5" cy="1160" fill="#ADD1B2" rx="11" ry="11" style="stroke:#181818;stroke-width:1.0;"/><path d="M251.2656,1155.875 Q251.4219,1155.6563 251.6094,1155.5469 Q251.7969,1155.4375 252.0156,1155.4375 Q252.3906,1155.4375 252.625,1155.7031 Q252.8594,1155.9531 252.8594,1156.5625 L252.8594,1158.0156 Q252.8594,1158.625 252.625,1158.8906 Q252.3906,1159.1563 252.0156,1159.1563 Q251.6719,1159.1563 251.4688,1158.9531 Q251.2656,1158.7656 251.1563,1158.25 Q251.1094,1157.8906 250.9219,1157.7031 Q250.5938,1157.3281 249.9844,1157.1094 Q249.375,1156.8906 248.75,1156.8906 Q247.9844,1156.8906 247.3438,1157.2188 Q246.7188,1157.5469 246.2188,1158.2969 Q245.7344,1159.0469 245.7344,1160.0781 L245.7344,1161.1719 Q245.7344,1162.4063 246.625,1163.2344 Q247.5156,1164.0469 249.1094,1164.0469 Q250.0469,1164.0469 250.7031,1163.7969 Q251.0938,1163.6406 251.5156,1163.2031 Q251.7813,1162.9375 251.9219,1162.8594 Q252.0781,1162.7813 252.2813,1162.7813 Q252.6094,1162.7813 252.8594,1163.0469 Q253.125,1163.2969 253.125,1163.6406 Q253.125,1163.9844 252.7813,1164.3906 Q252.2813,1164.9688 251.4844,1165.2969 Q250.4063,1165.75 249.1094,1165.75 Q247.5938,1165.75 246.3906,1165.125 Q245.4063,1164.625 244.7188,1163.5625 Q244.0313,1162.4844 244.0313,1161.2031 L244.0313,1160.0469 Q244.0313,1158.7188 244.6406,1157.5781 Q245.2656,1156.4219 246.3594,1155.8125 Q247.4531,1155.1875 248.6875,1155.1875 Q249.4219,1155.1875 250.0625,1155.3594 Q250.7188,1155.5156 251.2656,1155.875 Z " fill="#000000"/><text fill="#000000" font-family="sans-serif" font-size="14" lengthAdjust="spacing" textLength="81" x="262.5" y="1165.7969">SkillManager</text><line style="stroke:#181818;stroke-width:0.5;" x1="234.5" x2="345.5" y1="1176" y2="1176"/><line style="stroke:#181818;stroke-width:0.5;" x1="234.5" x2="345.5" y1="1184" y2="1184"/></g><g id="elem_GMN15"><path d="M1001,45.5 L1001,64 L965.53,68 L1001,72 L1001,90.082 A0,0 0 0 0 1001,90.082 L1283,90.082 A0,0 0 0 0 1283,90.082 L1283,55.5 L1273,45.5 L1001,45.5 A0,0 0 0 0 1001,45.5 " fill="#FEFFDD" style="stroke:#181818;stroke-width:0.5;"/><path d="M1273,45.5 L1273,55.5 L1283,55.5 L1273,45.5 " fill="#FEFFDD" style="stroke:#181818;stroke-width:0.5;"/><text fill="#000000" font-family="sans-serif" font-size="13" lengthAdjust="spacing" textLength="261" x="1007" y="64.5283">- Skill name is obtained from the HRM's input</text><text fill="#000000" font-family="sans-serif" font-size="13" lengthAdjust="spacing" textLength="173" x="1007" y="81.8193">- Updates the Skill Repository</text></g><g id="elem_GMN18"><path d="M246,981 L246,990.5 L210.67,994.5 L246,998.5 L246,1008.291 A0,0 0 0 0 246,1008.291 L430,1008.291 A0,0 0 0 0 430,1008.291 L430,991 L420,981 L246,981 A0,0 0 0 0 246,981 " fill="#FEFFDD" style="stroke:#181818;stroke-width:0.5;"/><path d="M420,981 L420,991 L430,991 L420,981 " fill="#FEFFDD" style="stroke:#181818;stroke-width:0.5;"/><text fill="#000000" font-family="sans-serif" font-size="13" lengthAdjust="spacing" textLength="163" x="252" y="1000.0283">- HRM initiates skill creation</text></g><g id="elem_GMN21"><path d="M30.5,45.5 L30.5,90.082 L303.5,90.082 L303.5,55.5 L293.5,45.5 L30.5,45.5 " fill="#FEFFDD" style="stroke:#181818;stroke-width:0.5;"/><path d="M293.5,45.5 L293.5,55.5 L303.5,55.5 L293.5,45.5 " fill="#FEFFDD" style="stroke:#181818;stroke-width:1.0;"/><text fill="#000000" font-family="sans-serif" font-size="13" lengthAdjust="spacing" textLength="252" x="36.5" y="64.5283">- UI for HRM to input and confirm skill name</text><text fill="#000000" font-family="sans-serif" font-size="13" lengthAdjust="spacing" textLength="244" x="36.5" y="81.8193">- Communicates with CreateSkillController</text></g><g id="elem_GMN24"><path d="M6,705.5 L6,750.082 A0,0 0 0 0 6,750.082 L208,750.082 A0,0 0 0 0 208,750.082 L208,732 L243.34,728 L208,724 L208,715.5 L198,705.5 L6,705.5 A0,0 0 0 0 6,705.5 " fill="#FEFFDD" style="stroke:#181818;stroke-width:0.5;"/><path d="M198,705.5 L198,715.5 L208,715.5 L198,705.5 " fill="#FEFFDD" style="stroke:#181818;stroke-width:0.5;"/><text fill="#000000" font-family="sans-serif" font-size="13" lengthAdjust="spacing" textLength="95" x="12" y="724.5283">- Manages skills</text><text fill="#000000" font-family="sans-serif" font-size="13" lengthAdjust="spacing" textLength="181" x="12" y="741.8193">- Handles organizational details</text></g><!--link SkillManager to Skill--><g id="link_SkillManager_Skill"><path codeLine="80" d="M290,1192.12 C290,1213.83 290,1240.52 290,1264.87 " fill="none" id="SkillManager-to-Skill" style="stroke:#181818;stroke-width:1.0;"/><polygon fill="#181818" points="290,1270.87,294,1261.87,290,1265.87,286,1261.87,290,1270.87" style="stroke:#181818;stroke-width:1.0;"/><text fill="#000000" font-family="sans-serif" font-size="13" lengthAdjust="spacing" textLength="53" x="291" y="1237.0283">Manages</text></g><!--link HRManager to SkillManager--><g id="link_HRManager_SkillManager"><path codeLine="81" d="M199.23,1065.26 C224.22,1093.26 247.3158,1119.1526 265.3358,1139.3526 " fill="none" id="HRManager-to-SkillManager" style="stroke:#181818;stroke-width:1.0;"/><polygon fill="#181818" points="269.33,1143.83,266.3237,1134.4512,266.0015,1140.0989,260.3539,1139.7767,269.33,1143.83" style="stroke:#181818;stroke-width:1.0;"/><text fill="#000000" font-family="sans-serif" font-size="13" lengthAdjust="spacing" textLength="30" x="242" y="1110.0283">Uses</text></g><!--link GMN21 to CreateSkillUI--><g id="link_GMN21_CreateSkillUI"><path d="M303.56,68 C317.06,68 327.67,68 327.67,68 C327.67,68 331.79,68 338.17,68 " fill="none" id="GMN21-CreateSkillUI" style="stroke:#181818;stroke-width:1.0;stroke-dasharray:7.0,7.0;"/></g><!--link Repositories to Repositories--><g id="link_Repositories_Repositories"><path codeLine="102" d="M918.13,245.55 C939.24,248.2 953,253.01 953,260 C953,266.99 945.1933,271.0527 924.0833,273.7027 " fill="none" id="Repositories-to-Repositories" style="stroke:#181818;stroke-width:1.0;"/><polygon fill="#181818" points="918.13,274.45,927.5581,277.2979,923.0911,273.8272,926.5617,269.3602,918.13,274.45" style="stroke:#181818;stroke-width:1.0;"/><text fill="#000000" font-family="sans-serif" font-size="13" lengthAdjust="spacing" textLength="49" x="959" y="265.5283">instance</text></g><!--link ApplicationSession to ApplicationSession--><g id="link_ApplicationSession_ApplicationSession"><path codeLine="103" d="M1254.66,243.29 C1274.5,244.28 1289.5,249.85 1289.5,260 C1289.5,270.15 1280.4925,275.421 1260.6525,276.411 " fill="none" id="ApplicationSession-to-ApplicationSession" style="stroke:#181818;stroke-width:1.0;"/><polygon fill="#181818" points="1254.66,276.71,1263.8482,280.2565,1259.6538,276.4608,1263.4495,272.2664,1254.66,276.71" style="stroke:#181818;stroke-width:1.0;"/><text fill="#000000" font-family="sans-serif" font-size="13" lengthAdjust="spacing" textLength="49" x="1295.5" y="265.5283">instance</text></g><!--link CreateSkillUI to CreateSkillController--><g id="link_CreateSkillUI_CreateSkillController"><path codeLine="105" d="M477.56,68 C492.02,68 499.06,68 506.32,68 " fill="none" id="CreateSkillUI-to-CreateSkillController" style="stroke:#181818;stroke-width:1.0;stroke-dasharray:7.0,7.0;"/><polygon fill="#181818" points="512.32,68,503.32,64,507.32,68,503.32,72,512.32,68" style="stroke:#181818;stroke-width:1.0;"/></g><!--link CreateSkillController to Repositories--><g id="link_CreateSkillController_Repositories"><path codeLine="107" d="M739,129.12 C739,154.45 739,177.62 739,201.9 " fill="none" id="CreateSkillController-to-Repositories" style="stroke:#181818;stroke-width:1.0;"/><polygon fill="#181818" points="739,207.9,743,198.9,739,202.9,735,198.9,739,207.9" style="stroke:#181818;stroke-width:1.0;"/><text fill="#000000" font-family="sans-serif" font-size="13" lengthAdjust="spacing" textLength="108" x="740" y="174.0283">retrieves instances</text></g><!--link Repositories to SkillRepository--><g id="link_Repositories_SkillRepository"><path codeLine="109" d="M789.99,312.12 C813.83,336.01 838.3431,360.5916 864.1431,386.4616 " fill="none" id="Repositories-to-SkillRepository" style="stroke:#181818;stroke-width:1.0;"/><polygon fill="#181818" points="868.38,390.71,864.8569,381.5128,864.8493,387.1697,859.1924,387.162,868.38,390.71" style="stroke:#181818;stroke-width:1.0;"/><text fill="#000000" font-family="sans-serif" font-size="13" lengthAdjust="spacing" textLength="56" x="840" y="357.0283">accesses</text></g><!--link Repositories to OrganizationRepository--><g id="link_Repositories_OrganizationRepository"><path codeLine="110" d="M672.17,312.07 C651,328.24 633,342 633,342 C633,342 623.2261,359.8297 609.0761,385.6197 " fill="none" id="Repositories-to-OrganizationRepository" style="stroke:#181818;stroke-width:1.0;"/><polygon fill="#181818" points="606.19,390.88,614.026,384.9137,608.5951,386.4964,607.0123,381.0655,606.19,390.88" style="stroke:#181818;stroke-width:1.0;"/><text fill="#000000" font-family="sans-serif" font-size="13" lengthAdjust="spacing" textLength="56" x="634" y="357.0283">accesses</text></g><!--link Repositories to OrganizationRepository--><g id="link_Repositories_OrganizationRepository"><path codeLine="114" d="M716.48,312.17 C705.66,336.78 695,361 695,361 C695,361 682.963,370.4295 661.623,387.1495 " fill="none" id="Repositories-to-OrganizationRepository-1" style="stroke:#181818;stroke-width:1.0;"/><polygon fill="#181818" points="656.9,390.85,666.4514,388.4479,660.8358,387.7663,661.5175,382.1506,656.9,390.85" style="stroke:#181818;stroke-width:1.0;"/><text fill="#000000" font-family="sans-serif" font-size="13" lengthAdjust="spacing" textLength="7" x="658.7069" y="379.7255">1</text></g><!--link CreateSkillController to OrganizationRepository--><g id="link_CreateSkillController_OrganizationRepository"><path codeLine="112" d="M595.74,129.16 C506.29,166.73 408,208 408,208 C408,208 408,312 408,312 C408,312 446.7924,347.9982 488.2924,386.5182 " fill="none" id="CreateSkillController-to-OrganizationRepository" style="stroke:#181818;stroke-width:1.0;stroke-dasharray:7.0,7.0;"/><polygon fill="#181818" points="492.69,390.6,488.8148,381.5456,489.0253,387.1985,483.3724,387.409,492.69,390.6" style="stroke:#181818;stroke-width:1.0;"/><text fill="#000000" font-family="sans-serif" font-size="13" lengthAdjust="spacing" textLength="132" x="409" y="265.5283">organizationRepository</text></g><!--link OrganizationRepository to Organization--><g id="link_OrganizationRepository_Organization"><path codeLine="116" d="M517.83,532.34 C500.51,556.45 484.1203,579.2668 464.8703,606.0668 " fill="none" id="OrganizationRepository-to-Organization" style="stroke:#181818;stroke-width:1.0;"/><polygon fill="#181818" points="461.37,610.94,469.8693,605.9638,464.2869,606.879,463.3717,601.2967,461.37,610.94" style="stroke:#181818;stroke-width:1.0;"/><text fill="#000000" font-family="sans-serif" font-size="13" lengthAdjust="spacing" textLength="46" x="497" y="577.0283">persists</text><text fill="#000000" font-family="sans-serif" font-size="13" lengthAdjust="spacing" textLength="5" x="461.5507" y="599.9272">*</text></g><!--link ApplicationSession to UserSession--><g id="link_ApplicationSession_UserSession"><path codeLine="117" d="M1175.44,302.82 C1172.26,340.07 1168.1897,387.8317 1165.2797,421.9617 " fill="none" id="ApplicationSession-to-UserSession" style="stroke:#181818;stroke-width:1.0;"/><polygon fill="#181818" points="1164.77,427.94,1169.5201,419.3124,1165.1948,422.9581,1161.549,418.6327,1164.77,427.94" style="stroke:#181818;stroke-width:1.0;"/><text fill="#000000" font-family="sans-serif" font-size="13" lengthAdjust="spacing" textLength="72" x="1174" y="357.0283">userSession</text><text fill="#000000" font-family="sans-serif" font-size="13" lengthAdjust="spacing" textLength="7" x="1157.6263" y="416.7537">1</text></g><!--link CreateSkillController to Organization--><g id="link_CreateSkillController_Organization"><path codeLine="119" d="M560.91,129.03 C511.93,145.54 472,159 472,159 C472,159 400,208 400,208 C400,208 332,391 332,391 C332,391 332,532 332,532 C332,532 339.3526,563.1502 349.2026,604.9102 " fill="none" id="CreateSkillController-to-Organization" style="stroke:#181818;stroke-width:1.0;stroke-dasharray:7.0,7.0;"/><polygon fill="#181818" points="350.58,610.75,352.407,601.0721,349.4321,605.8835,344.6207,602.9087,350.58,610.75" style="stroke:#181818;stroke-width:1.0;"/><text fill="#000000" font-family="sans-serif" font-size="13" lengthAdjust="spacing" textLength="70" x="352" y="357.0283">organization</text><text fill="#000000" font-family="sans-serif" font-size="13" lengthAdjust="spacing" textLength="7" x="341.5992" y="599.725">1</text></g><!--link CreateSkillController to ApplicationSession--><g id="link_CreateSkillController_ApplicationSession"><path codeLine="120" d="M963.78,129.03 C1025.6,145.54 1076,159 1076,159 C1076,159 1103.6055,185.8002 1131.9055,213.2802 " fill="none" id="CreateSkillController-to-ApplicationSession" style="stroke:#181818;stroke-width:1.0;stroke-dasharray:7.0,7.0;"/><polygon fill="#181818" points="1136.21,217.46,1132.5397,208.3206,1132.6229,213.9768,1126.9666,214.06,1136.21,217.46" style="stroke:#181818;stroke-width:1.0;"/></g><!--link CreateSkillController to UserSession--><g id="link_CreateSkillController_UserSession"><path codeLine="121" d="M858.02,129.16 C932.34,166.73 1014,208 1014,208 C1014,208 1099.7262,354.2535 1139.7662,422.5735 " fill="none" id="CreateSkillController-to-UserSession" style="stroke:#181818;stroke-width:1.0;stroke-dasharray:7.0,7.0;"/><polygon fill="#181818" points="1142.8,427.75,1141.7003,417.9627,1140.2719,423.4362,1134.7983,422.0078,1142.8,427.75" style="stroke:#181818;stroke-width:1.0;"/></g><!--link Organization to Skill--><g id="link_Organization_Skill"><path codeLine="122" d="M419.13,845.25 C433.91,887.01 447,924 447,924 C447,924 447,1065 447,1065 C447,1065 353,1241 353,1241 C353,1241 342.478,1251.4328 327.238,1266.5628 " fill="none" id="Organization-to-Skill" style="stroke:#181818;stroke-width:1.0;"/><polygon fill="#181818" points="322.98,1270.79,332.1851,1267.2878,326.5283,1267.2673,326.5488,1261.6105,322.98,1270.79" style="stroke:#181818;stroke-width:1.0;"/><text fill="#000000" font-family="sans-serif" font-size="13" lengthAdjust="spacing" textLength="30" x="432" y="1110.0283">owns</text><text fill="#000000" font-family="sans-serif" font-size="13" lengthAdjust="spacing" textLength="7" x="414.5407" y="867.3367">1</text><text fill="#000000" font-family="sans-serif" font-size="13" lengthAdjust="spacing" textLength="5" x="323.7903" y="1259.8359">*</text></g><!--link Skill to HRManager--><g id="link_Skill_HRManager"><path codeLine="123" d="M250.59,1270.95 C210.74,1238.04 155,1192 155,1192 C155,1192 149.0976,1127.555 143.9176,1071.035 " fill="none" id="Skill-to-HRManager" style="stroke:#181818;stroke-width:1.0;"/><polygon fill="#181818" points="143.37,1065.06,140.2081,1074.3875,143.8263,1070.0391,148.1747,1073.6574,143.37,1065.06" style="stroke:#181818;stroke-width:1.0;"/><text fill="#000000" font-family="sans-serif" font-size="13" lengthAdjust="spacing" textLength="59" x="156" y="1173.5283">createdBy</text></g><!--link Organization to HRManager--><g id="link_Organization_HRManager"><path codeLine="125" d="M272.29,845.01 C247.76,871.94 226.43,895.344 204.39,919.544 " fill="none" id="Organization-to-HRManager" style="stroke:#181818;stroke-width:1.0;"/><polygon fill="#181818" points="200.35,923.98,209.3674,920.0194,203.7167,920.2833,203.4527,914.6326,200.35,923.98" style="stroke:#181818;stroke-width:1.0;"/><text fill="#000000" font-family="sans-serif" font-size="13" lengthAdjust="spacing" textLength="49" x="245" y="890.0283">employs</text><text fill="#000000" font-family="sans-serif" font-size="13" lengthAdjust="spacing" textLength="5" x="201.6252" y="912.869">*</text></g><!--SRC=[bLRTRzCm47_tNt7YPHtG2LuhD6aR88hO9b6DTpUvjjuSEzXEfuButpdR-N3IfB1ALUkxttsVxtncduGgkU4555hfR6TqWU1CXQpZb3nxubjSkOD4C9WvhhOo1TWTp_MpK5lOS6bJZXGAtQ54ABKy-0Cx6s5gupHBf3B9hRropeXrvN2PQRKIln3UCNOcSUF0QJ1YktEG2- -Eq8gn80DNPIb5nZrfXTPwpcy6z7a3rX4vWoswfQB_AiFPUSqYsarb32fN2n7dJwFomQ8PwY81J_vKS25JxEf9I0aHDGV52rp0Yi9Gsm7cEvRQ2gVD8Q3dy4rOzo6mBi7w7ykyeVlIXy9bm-9vFej60kWyWDPQI-GAzboAd3iCW6DOQe822F_iBF8YkA5U7-x8zLdqF8IHn7Xljbo9No77jVC9C3tlkRkhYZMQb4WH6CfcIYftMlK4qUTrDFxCO1TWwbwQ1p8naOB_p5G3YuNugE-qkz7ASQ6ciVYpejwVtQyVgID1JoHiKFSam1GLwfCIhWzVlj_Ew0ixKvo_IF37vziPVM6_UQ4WMOlzdHRbf0hVdBtkqCbXl00f_9HicymsWG9jdSBUZOP53z801fSku0Qq1ZfUhY0npkgSk-cwq_UBqLAYgRsClAzwtN5c4vsXHyblmrJvnuVq9ueUqzD_oLzLRaTZi1wXYIe-mJX_oJLz2sqBZ-NiOLddoj1bGXkB5YPHWYSDND4sYdaz6Zv44ChrHi_nNAb1OUwe5aQ6Yw2wcOmBs6kHUzE1qjYTpozZxomWaYphd6gPDM7XzuTbJ6c7zTBIc_56YHCmp1SV30WBUks73kQmeRqCL04V_fabxylA1Vn3wQ-H3RmecpGcgXoyuQ7vrjsWmjT4AE54K1H6MooWttW35M7zzWDuM4P7bh3H9YYZzHmS14x2jBmtmXIrtdP5tEYYg9Hl9xBvBDnk8YSJzjER4_JLbUXs9yL5vYMHqkl49UH8EIL8fxatKwX-lVE2Oed3XHq_BZnwX9h8i7v_NrnEnCd6PyUStbNgs2M3rD2uHziQiiCmQi7XQsC1F2EqxybH_CH8IiGcFBsuE24yFj66BfFvL-zVJKrPDg4zYBtkYv794esb1uyThLfjANdQaKILFFHE13bqSH3U2ScHn-aqE7rszinv-qtCySQJ0y_AnY4LMDquMjIZEByU9B1LaMAnAAK-MFON]--></g></svg>