<?xml version="1.0" encoding="us-ascii" standalone="no"?><svg xmlns="http://www.w3.org/2000/svg" xmlns:xlink="http://www.w3.org/1999/xlink" contentStyleType="text/css" height="1330px" preserveAspectRatio="none" style="width:1711px;height:1330px;background:#FFFFFF;" version="1.1" viewBox="0 0 1711 1330" width="1711px" zoomAndPan="magnify"><defs/><g><rect fill="#FFFFFF" height="1135.3027" style="stroke:#181818;stroke-width:1.0;" width="10" x="91" y="93.6211"/><rect fill="#FFFFFF" height="74.9121" style="stroke:#181818;stroke-width:1.0;" width="10" x="301" y="116.9121"/><rect fill="#FFFFFF" height="1005.8086" style="stroke:#181818;stroke-width:1.0;" width="10" x="301" y="223.1152"/><rect fill="#FFFFFF" height="943.2266" style="stroke:#181818;stroke-width:1.0;" width="10" x="451" y="254.4063"/><rect fill="#FFFFFF" height="513.6563" style="stroke:#181818;stroke-width:1.0;" width="10" x="456" y="318.6973"/><rect fill="#FFFFFF" height="31.291" style="stroke:#181818;stroke-width:1.0;" width="10" x="754" y="542.7344"/><rect fill="#FFFFFF" height="31.291" style="stroke:#181818;stroke-width:1.0;" width="10" x="881" y="354.9883"/><rect fill="#FFFFFF" height="31.291" style="stroke:#181818;stroke-width:1.0;" width="10" x="1028" y="417.5703"/><rect fill="#FFFFFF" height="31.291" style="stroke:#181818;stroke-width:1.0;" width="10" x="1161" y="480.1523"/><rect fill="#FFFFFF" height="127.1641" style="stroke:#181818;stroke-width:1.0;" width="10" x="1307" y="605.3164"/><rect fill="#FFFFFF" height="31.291" style="stroke:#181818;stroke-width:1.0;" width="10" x="1528" y="662.8984"/><rect fill="#FFFFFF" height="31.291" style="stroke:#181818;stroke-width:1.0;" width="10" x="1528" y="763.7715"/><rect fill="#FFFFFF" height="270.6973" style="stroke:#181818;stroke-width:1.0;" width="10" x="1528" y="895.6445"/><rect fill="#FFFFFF" height="130.873" style="stroke:#181818;stroke-width:1.0;" width="10" x="1533" y="997.1777"/><rect fill="#FFFFFF" height="42.291" style="stroke:#181818;stroke-width:1.0;" width="10" x="1538" y="1041.4688"/><rect fill="none" height="81.873" style="stroke:#000000;stroke-width:1.5;" width="371.5" x="1220.5" y="620.3164"/><line style="stroke:#181818;stroke-width:0.5;stroke-dasharray:5.0,5.0;" x1="96" x2="96" y1="83.6211" y2="1246.9238"/><line style="stroke:#181818;stroke-width:0.5;stroke-dasharray:5.0,5.0;" x1="306" x2="306" y1="83.6211" y2="1246.9238"/><line style="stroke:#181818;stroke-width:0.5;stroke-dasharray:5.0,5.0;" x1="456" x2="456" y1="156.7227" y2="1246.9238"/><line style="stroke:#181818;stroke-width:0.5;stroke-dasharray:5.0,5.0;" x1="651.5" x2="651.5" y1="83.6211" y2="1246.9238"/><line style="stroke:#181818;stroke-width:0.5;stroke-dasharray:5.0,5.0;" x1="758.5" x2="758.5" y1="83.6211" y2="1246.9238"/><line style="stroke:#181818;stroke-width:0.5;stroke-dasharray:5.0,5.0;" x1="885.5" x2="885.5" y1="83.6211" y2="1246.9238"/><line style="stroke:#181818;stroke-width:0.5;stroke-dasharray:5.0,5.0;" x1="1032.5" x2="1032.5" y1="83.6211" y2="1246.9238"/><line style="stroke:#181818;stroke-width:0.5;stroke-dasharray:5.0,5.0;" x1="1165.5" x2="1165.5" y1="83.6211" y2="1246.9238"/><line style="stroke:#181818;stroke-width:0.5;stroke-dasharray:5.0,5.0;" x1="1311.5" x2="1311.5" y1="83.6211" y2="1246.9238"/><line style="stroke:#181818;stroke-width:0.5;stroke-dasharray:5.0,5.0;" x1="1533" x2="1533" y1="83.6211" y2="1246.9238"/><line style="stroke:#181818;stroke-width:0.5;stroke-dasharray:5.0,5.0;" x1="1680" x2="1680" y1="944.7656" y2="1246.9238"/><text fill="#000000" font-family="sans-serif" font-size="14" lengthAdjust="spacing" textLength="176" x="5" y="80.1074">Human Resources Manager</text><ellipse cx="96" cy="13.5" fill="#E3E3E3" rx="8" ry="8" style="stroke:#181818;stroke-width:0.5;"/><path d="M96,21.5 L96,48.5 M83,29.5 L109,29.5 M96,48.5 L83,63.5 M96,48.5 L109,63.5 " fill="none" style="stroke:#181818;stroke-width:0.5;"/><text fill="#000000" font-family="sans-serif" font-size="14" lengthAdjust="spacing" textLength="176" x="5" y="1261.0313">Human Resources Manager</text><ellipse cx="96" cy="1273.0449" fill="#E3E3E3" rx="8" ry="8" style="stroke:#181818;stroke-width:0.5;"/><path d="M96,1281.0449 L96,1308.0449 M83,1289.0449 L109,1289.0449 M96,1308.0449 L83,1323.0449 M96,1308.0449 L109,1323.0449 " fill="none" style="stroke:#181818;stroke-width:0.5;"/><rect fill="#E3E3E3" height="32.6211" rx="2.5" ry="2.5" style="stroke:#181818;stroke-width:0.5;" width="98" x="257" y="50"/><text fill="#000000" font-family="sans-serif" font-size="14" lengthAdjust="spacing" textLength="84" x="264" y="72.1074">:CreateSkillUI</text><rect fill="#E3E3E3" height="32.6211" rx="2.5" ry="2.5" style="stroke:#181818;stroke-width:0.5;" width="98" x="257" y="1245.9238"/><text fill="#000000" font-family="sans-serif" font-size="14" lengthAdjust="spacing" textLength="84" x="264" y="1268.0313">:CreateSkillUI</text><rect fill="#E3E3E3" height="32.6211" rx="2.5" ry="2.5" style="stroke:#181818;stroke-width:0.5;" width="148" x="382" y="1245.9238"/><text fill="#000000" font-family="sans-serif" font-size="14" lengthAdjust="spacing" textLength="134" x="389" y="1268.0313">:CreateSkillController</text><rect fill="#E3E3E3" height="32.6211" rx="2.5" ry="2.5" style="stroke:#181818;stroke-width:0.5;" width="97" x="603.5" y="50"/><text fill="#000000" font-family="sans-serif" font-size="14" lengthAdjust="spacing" textLength="83" x="610.5" y="72.1074">:Repositories</text><rect fill="#E3E3E3" height="32.6211" rx="2.5" ry="2.5" style="stroke:#181818;stroke-width:0.5;" width="97" x="603.5" y="1245.9238"/><text fill="#000000" font-family="sans-serif" font-size="14" lengthAdjust="spacing" textLength="83" x="610.5" y="1268.0313">:Repositories</text><rect fill="#E3E3E3" height="51.2422" rx="2.5" ry="2.5" style="stroke:#181818;stroke-width:0.5;" width="97" x="710.5" y="31.3789"/><text fill="#000000" font-family="sans-serif" font-size="14" lengthAdjust="spacing" textLength="74" x="722" y="53.4863">repositories</text><text fill="#000000" font-family="sans-serif" font-size="14" lengthAdjust="spacing" textLength="83" x="717.5" y="72.1074">:Repositories</text><rect fill="#E3E3E3" height="51.2422" rx="2.5" ry="2.5" style="stroke:#181818;stroke-width:0.5;" width="97" x="710.5" y="1245.9238"/><text fill="#000000" font-family="sans-serif" font-size="14" lengthAdjust="spacing" textLength="74" x="722" y="1268.0313">repositories</text><text fill="#000000" font-family="sans-serif" font-size="14" lengthAdjust="spacing" textLength="83" x="717.5" y="1286.6523">:Repositories</text><rect fill="#E3E3E3" height="32.6211" rx="2.5" ry="2.5" style="stroke:#181818;stroke-width:0.5;" width="137" x="817.5" y="50"/><text fill="#000000" font-family="sans-serif" font-size="14" lengthAdjust="spacing" textLength="123" x="824.5" y="72.1074">:ApplicationSession</text><rect fill="#E3E3E3" height="32.6211" rx="2.5" ry="2.5" style="stroke:#181818;stroke-width:0.5;" width="137" x="817.5" y="1245.9238"/><text fill="#000000" font-family="sans-serif" font-size="14" lengthAdjust="spacing" textLength="123" x="824.5" y="1268.0313">:ApplicationSession</text><rect fill="#E3E3E3" height="51.2422" rx="2.5" ry="2.5" style="stroke:#181818;stroke-width:0.5;" width="137" x="964.5" y="31.3789"/><text fill="#000000" font-family="sans-serif" font-size="14" lengthAdjust="spacing" textLength="74" x="996" y="53.4863">appSession</text><text fill="#000000" font-family="sans-serif" font-size="14" lengthAdjust="spacing" textLength="123" x="971.5" y="72.1074">:ApplicationSession</text><rect fill="#E3E3E3" height="51.2422" rx="2.5" ry="2.5" style="stroke:#181818;stroke-width:0.5;" width="137" x="964.5" y="1245.9238"/><text fill="#000000" font-family="sans-serif" font-size="14" lengthAdjust="spacing" textLength="74" x="996" y="1268.0313">appSession</text><text fill="#000000" font-family="sans-serif" font-size="14" lengthAdjust="spacing" textLength="123" x="971.5" y="1286.6523">:ApplicationSession</text><rect fill="#E3E3E3" height="51.2422" rx="2.5" ry="2.5" style="stroke:#181818;stroke-width:0.5;" width="109" x="1111.5" y="31.3789"/><text fill="#000000" font-family="sans-serif" font-size="14" lengthAdjust="spacing" textLength="95" x="1118.5" y="53.4863">currentSession</text><text fill="#000000" font-family="sans-serif" font-size="14" lengthAdjust="spacing" textLength="83" x="1124.5" y="72.1074">:UserSession</text><rect fill="#E3E3E3" height="51.2422" rx="2.5" ry="2.5" style="stroke:#181818;stroke-width:0.5;" width="109" x="1111.5" y="1245.9238"/><text fill="#000000" font-family="sans-serif" font-size="14" lengthAdjust="spacing" textLength="95" x="1118.5" y="1268.0313">currentSession</text><text fill="#000000" font-family="sans-serif" font-size="14" lengthAdjust="spacing" textLength="83" x="1124.5" y="1286.6523">:UserSession</text><rect fill="#E3E3E3" height="51.2422" rx="2.5" ry="2.5" style="stroke:#181818;stroke-width:0.5;" width="163" x="1230.5" y="31.3789"/><text fill="#000000" font-family="sans-serif" font-size="14" lengthAdjust="spacing" textLength="149" x="1237.5" y="53.4863">organizationRepository:</text><text fill="#000000" font-family="sans-serif" font-size="14" lengthAdjust="spacing" textLength="148" x="1238" y="72.1074">OrganizationRepository</text><rect fill="#E3E3E3" height="51.2422" rx="2.5" ry="2.5" style="stroke:#181818;stroke-width:0.5;" width="163" x="1230.5" y="1245.9238"/><text fill="#000000" font-family="sans-serif" font-size="14" lengthAdjust="spacing" textLength="149" x="1237.5" y="1268.0313">organizationRepository:</text><text fill="#000000" font-family="sans-serif" font-size="14" lengthAdjust="spacing" textLength="148" x="1238" y="1286.6523">OrganizationRepository</text><rect fill="#E3E3E3" height="51.2422" rx="2.5" ry="2.5" style="stroke:#181818;stroke-width:0.5;" width="98" x="1484" y="31.3789"/><text fill="#000000" font-family="sans-serif" font-size="14" lengthAdjust="spacing" textLength="77" x="1494.5" y="53.4863">organization</text><text fill="#000000" font-family="sans-serif" font-size="14" lengthAdjust="spacing" textLength="84" x="1491" y="72.1074">:Organization</text><rect fill="#E3E3E3" height="51.2422" rx="2.5" ry="2.5" style="stroke:#181818;stroke-width:0.5;" width="98" x="1484" y="1245.9238"/><text fill="#000000" font-family="sans-serif" font-size="14" lengthAdjust="spacing" textLength="77" x="1494.5" y="1268.0313">organization</text><text fill="#000000" font-family="sans-serif" font-size="14" lengthAdjust="spacing" textLength="84" x="1491" y="1286.6523">:Organization</text><rect fill="#E3E3E3" height="51.2422" rx="2.5" ry="2.5" style="stroke:#181818;stroke-width:0.5;" width="49" x="1656" y="1245.9238"/><text fill="#000000" font-family="sans-serif" font-size="14" lengthAdjust="spacing" textLength="26" x="1667.5" y="1268.0313">task</text><text fill="#000000" font-family="sans-serif" font-size="14" lengthAdjust="spacing" textLength="35" x="1663" y="1286.6523">:Task</text><rect fill="#FFFFFF" height="1135.3027" style="stroke:#181818;stroke-width:1.0;" width="10" x="91" y="93.6211"/><rect fill="#FFFFFF" height="74.9121" style="stroke:#181818;stroke-width:1.0;" width="10" x="301" y="116.9121"/><rect fill="#FFFFFF" height="1005.8086" style="stroke:#181818;stroke-width:1.0;" width="10" x="301" y="223.1152"/><rect fill="#FFFFFF" height="943.2266" style="stroke:#181818;stroke-width:1.0;" width="10" x="451" y="254.4063"/><rect fill="#FFFFFF" height="513.6563" style="stroke:#181818;stroke-width:1.0;" width="10" x="456" y="318.6973"/><rect fill="#FFFFFF" height="31.291" style="stroke:#181818;stroke-width:1.0;" width="10" x="754" y="542.7344"/><rect fill="#FFFFFF" height="31.291" style="stroke:#181818;stroke-width:1.0;" width="10" x="881" y="354.9883"/><rect fill="#FFFFFF" height="31.291" style="stroke:#181818;stroke-width:1.0;" width="10" x="1028" y="417.5703"/><rect fill="#FFFFFF" height="31.291" style="stroke:#181818;stroke-width:1.0;" width="10" x="1161" y="480.1523"/><rect fill="#FFFFFF" height="127.1641" style="stroke:#181818;stroke-width:1.0;" width="10" x="1307" y="605.3164"/><rect fill="#FFFFFF" height="31.291" style="stroke:#181818;stroke-width:1.0;" width="10" x="1528" y="662.8984"/><rect fill="#FFFFFF" height="31.291" style="stroke:#181818;stroke-width:1.0;" width="10" x="1528" y="763.7715"/><rect fill="#FFFFFF" height="270.6973" style="stroke:#181818;stroke-width:1.0;" width="10" x="1528" y="895.6445"/><rect fill="#FFFFFF" height="130.873" style="stroke:#181818;stroke-width:1.0;" width="10" x="1533" y="997.1777"/><rect fill="#FFFFFF" height="42.291" style="stroke:#181818;stroke-width:1.0;" width="10" x="1538" y="1041.4688"/><polygon fill="#181818" points="289,112.9121,299,116.9121,289,120.9121,293,116.9121" style="stroke:#181818;stroke-width:1.0;"/><line style="stroke:#181818;stroke-width:1.0;" x1="101" x2="295" y1="116.9121" y2="116.9121"/><text fill="#000000" font-family="sans-serif" font-size="13" font-weight="bold" lengthAdjust="spacing" textLength="7" x="108" y="111.6494">1</text><text fill="#000000" font-family="sans-serif" font-size="13" lengthAdjust="spacing" textLength="148" x="119" y="111.6494">asks to create a new skill</text><polygon fill="#181818" points="370,144.2031,380,148.2031,370,152.2031,374,148.2031" style="stroke:#181818;stroke-width:1.0;"/><line style="stroke:#181818;stroke-width:1.0;" x1="311" x2="376" y1="148.2031" y2="148.2031"/><text fill="#000000" font-family="sans-serif" font-size="13" font-weight="bold" lengthAdjust="spacing" textLength="7" x="318" y="142.9404">2</text><text fill="#000000" font-family="sans-serif" font-size="13" lengthAdjust="spacing" textLength="36" x="329" y="142.9404">create</text><rect fill="#E3E3E3" height="32.6211" rx="2.5" ry="2.5" style="stroke:#181818;stroke-width:0.5;" width="148" x="382" y="124.9121"/><text fill="#000000" font-family="sans-serif" font-size="14" lengthAdjust="spacing" textLength="134" x="389" y="147.0195">:CreateSkillController</text><polygon fill="#181818" points="112,187.8242,102,191.8242,112,195.8242,108,191.8242" style="stroke:#181818;stroke-width:1.0;"/><line style="stroke:#181818;stroke-width:1.0;stroke-dasharray:2.0,2.0;" x1="106" x2="305" y1="191.8242" y2="191.8242"/><text fill="#000000" font-family="sans-serif" font-size="13" font-weight="bold" lengthAdjust="spacing" textLength="7" x="118" y="186.5615">3</text><text fill="#000000" font-family="sans-serif" font-size="13" lengthAdjust="spacing" textLength="86" x="129" y="186.5615">requests name</text><polygon fill="#181818" points="289,219.1152,299,223.1152,289,227.1152,293,223.1152" style="stroke:#181818;stroke-width:1.0;"/><line style="stroke:#181818;stroke-width:1.0;" x1="101" x2="295" y1="223.1152" y2="223.1152"/><text fill="#000000" font-family="sans-serif" font-size="13" font-weight="bold" lengthAdjust="spacing" textLength="7" x="108" y="217.8525">4</text><text fill="#000000" font-family="sans-serif" font-size="13" lengthAdjust="spacing" textLength="129" x="119" y="217.8525">types requested name</text><polygon fill="#181818" points="439,250.4063,449,254.4063,439,258.4063,443,254.4063" style="stroke:#181818;stroke-width:1.0;"/><line style="stroke:#181818;stroke-width:1.0;" x1="311" x2="445" y1="254.4063" y2="254.4063"/><text fill="#000000" font-family="sans-serif" font-size="13" font-weight="bold" lengthAdjust="spacing" textLength="7" x="318" y="249.1436">5</text><text fill="#000000" font-family="sans-serif" font-size="13" lengthAdjust="spacing" textLength="101" x="329" y="249.1436">createSkill(name)</text><line style="stroke:#181818;stroke-width:1.0;" x1="461" x2="508" y1="305.6973" y2="305.6973"/><line style="stroke:#181818;stroke-width:1.0;" x1="508" x2="508" y1="305.6973" y2="318.6973"/><line style="stroke:#181818;stroke-width:1.0;" x1="467" x2="508" y1="318.6973" y2="318.6973"/><polygon fill="#181818" points="477,314.6973,467,318.6973,477,322.6973,473,318.6973" style="stroke:#181818;stroke-width:1.0;"/><text fill="#000000" font-family="sans-serif" font-size="13" font-weight="bold" lengthAdjust="spacing" textLength="7" x="473" y="300.4346">6</text><text fill="#000000" font-family="sans-serif" font-size="13" lengthAdjust="spacing" textLength="161" x="484" y="300.4346">getEmployeeFromSession()</text><polygon fill="#181818" points="869,350.9883,879,354.9883,869,358.9883,873,354.9883" style="stroke:#181818;stroke-width:1.0;"/><line style="stroke:#181818;stroke-width:1.0;" x1="466" x2="875" y1="354.9883" y2="354.9883"/><text fill="#000000" font-family="sans-serif" font-size="13" font-weight="bold" lengthAdjust="spacing" textLength="7" x="473" y="349.7256">7</text><text fill="#000000" font-family="sans-serif" font-size="13" lengthAdjust="spacing" textLength="75" x="484" y="349.7256">getInstance()</text><polygon fill="#181818" points="477,382.2793,467,386.2793,477,390.2793,473,386.2793" style="stroke:#181818;stroke-width:1.0;"/><line style="stroke:#181818;stroke-width:1.0;" x1="471" x2="885" y1="386.2793" y2="386.2793"/><text fill="#000000" font-family="sans-serif" font-size="13" font-weight="bold" lengthAdjust="spacing" textLength="7" x="483" y="381.0166">8</text><text fill="#000000" font-family="sans-serif" font-size="13" lengthAdjust="spacing" textLength="68" x="494" y="381.0166">appSession</text><polygon fill="#181818" points="1016,413.5703,1026,417.5703,1016,421.5703,1020,417.5703" style="stroke:#181818;stroke-width:1.0;"/><line style="stroke:#181818;stroke-width:1.0;" x1="466" x2="1022" y1="417.5703" y2="417.5703"/><text fill="#000000" font-family="sans-serif" font-size="13" font-weight="bold" lengthAdjust="spacing" textLength="7" x="473" y="412.3076">9</text><text fill="#000000" font-family="sans-serif" font-size="13" lengthAdjust="spacing" textLength="115" x="484" y="412.3076">getCurrentSession()</text><polygon fill="#181818" points="477,444.8613,467,448.8613,477,452.8613,473,448.8613" style="stroke:#181818;stroke-width:1.0;"/><line style="stroke:#181818;stroke-width:1.0;stroke-dasharray:2.0,2.0;" x1="471" x2="1032" y1="448.8613" y2="448.8613"/><text fill="#000000" font-family="sans-serif" font-size="13" font-weight="bold" lengthAdjust="spacing" textLength="14" x="483" y="443.5986">10</text><text fill="#000000" font-family="sans-serif" font-size="13" lengthAdjust="spacing" textLength="87" x="501" y="443.5986">currentSession</text><polygon fill="#181818" points="1149,476.1523,1159,480.1523,1149,484.1523,1153,480.1523" style="stroke:#181818;stroke-width:1.0;"/><line style="stroke:#181818;stroke-width:1.0;" x1="466" x2="1155" y1="480.1523" y2="480.1523"/><text fill="#000000" font-family="sans-serif" font-size="13" font-weight="bold" lengthAdjust="spacing" textLength="14" x="473" y="474.8896">11</text><text fill="#000000" font-family="sans-serif" font-size="13" lengthAdjust="spacing" textLength="133" x="491" y="474.8896">email = getUserEmail()</text><polygon fill="#181818" points="477,507.4434,467,511.4434,477,515.4434,473,511.4434" style="stroke:#181818;stroke-width:1.0;"/><line style="stroke:#181818;stroke-width:1.0;stroke-dasharray:2.0,2.0;" x1="471" x2="1165" y1="511.4434" y2="511.4434"/><text fill="#000000" font-family="sans-serif" font-size="13" font-weight="bold" lengthAdjust="spacing" textLength="14" x="483" y="506.1807">12</text><text fill="#000000" font-family="sans-serif" font-size="13" lengthAdjust="spacing" textLength="31" x="501" y="506.1807">email</text><polygon fill="#181818" points="742,538.7344,752,542.7344,742,546.7344,746,542.7344" style="stroke:#181818;stroke-width:1.0;"/><line style="stroke:#181818;stroke-width:1.0;" x1="466" x2="748" y1="542.7344" y2="542.7344"/><text fill="#000000" font-family="sans-serif" font-size="13" font-weight="bold" lengthAdjust="spacing" textLength="14" x="473" y="537.4717">13</text><text fill="#000000" font-family="sans-serif" font-size="13" lengthAdjust="spacing" textLength="192" x="491" y="537.4717">getOrganizationRepository(email)</text><polygon fill="#181818" points="477,570.0254,467,574.0254,477,578.0254,473,574.0254" style="stroke:#181818;stroke-width:1.0;"/><line style="stroke:#181818;stroke-width:1.0;stroke-dasharray:2.0,2.0;" x1="471" x2="758" y1="574.0254" y2="574.0254"/><text fill="#000000" font-family="sans-serif" font-size="13" font-weight="bold" lengthAdjust="spacing" textLength="14" x="483" y="568.7627">14</text><text fill="#000000" font-family="sans-serif" font-size="13" lengthAdjust="spacing" textLength="132" x="501" y="568.7627">organizationRepository</text><polygon fill="#181818" points="1295,601.3164,1305,605.3164,1295,609.3164,1299,605.3164" style="stroke:#181818;stroke-width:1.0;"/><line style="stroke:#181818;stroke-width:1.0;" x1="466" x2="1301" y1="605.3164" y2="605.3164"/><text fill="#000000" font-family="sans-serif" font-size="13" font-weight="bold" lengthAdjust="spacing" textLength="14" x="473" y="600.0537">15</text><text fill="#000000" font-family="sans-serif" font-size="13" lengthAdjust="spacing" textLength="237" x="491" y="600.0537">getOrganizationByEmployeeEmail(email)</text><path d="M1220.5,620.3164 L1293.5,620.3164 L1293.5,629.6074 L1283.5,639.6074 L1220.5,639.6074 L1220.5,620.3164 " fill="#EEEEEE" style="stroke:#000000;stroke-width:1.5;"/><rect fill="none" height="81.873" style="stroke:#000000;stroke-width:1.5;" width="371.5" x="1220.5" y="620.3164"/><text fill="#000000" font-family="sans-serif" font-size="13" font-weight="bold" lengthAdjust="spacing" textLength="28" x="1235.5" y="635.3447">loop</text><text fill="#000000" font-family="sans-serif" font-size="11" font-weight="bold" lengthAdjust="spacing" textLength="128" x="1308.5" y="634.1865">[[for each organization]</text><polygon fill="#181818" points="1516,658.8984,1526,662.8984,1516,666.8984,1520,662.8984" style="stroke:#181818;stroke-width:1.0;"/><line style="stroke:#181818;stroke-width:1.0;" x1="1317" x2="1522" y1="662.8984" y2="662.8984"/><text fill="#000000" font-family="sans-serif" font-size="13" font-weight="bold" lengthAdjust="spacing" textLength="14" x="1324" y="657.6357">16</text><text fill="#000000" font-family="sans-serif" font-size="13" lengthAdjust="spacing" textLength="174" x="1342" y="657.6357">anyEmployeeHasEmail(email)</text><polygon fill="#181818" points="1328,690.1895,1318,694.1895,1328,698.1895,1324,694.1895" style="stroke:#181818;stroke-width:1.0;"/><line style="stroke:#181818;stroke-width:1.0;stroke-dasharray:2.0,2.0;" x1="1322" x2="1532" y1="694.1895" y2="694.1895"/><text fill="#000000" font-family="sans-serif" font-size="13" font-weight="bold" lengthAdjust="spacing" textLength="14" x="1334" y="688.9268">17</text><text fill="#000000" font-family="sans-serif" font-size="13" lengthAdjust="spacing" textLength="53" x="1352" y="688.9268">true/false</text><polygon fill="#181818" points="477,728.4805,467,732.4805,477,736.4805,473,732.4805" style="stroke:#181818;stroke-width:1.0;"/><line style="stroke:#181818;stroke-width:1.0;stroke-dasharray:2.0,2.0;" x1="471" x2="1311" y1="732.4805" y2="732.4805"/><text fill="#000000" font-family="sans-serif" font-size="13" font-weight="bold" lengthAdjust="spacing" textLength="14" x="483" y="727.2178">18</text><text fill="#000000" font-family="sans-serif" font-size="13" lengthAdjust="spacing" textLength="70" x="501" y="727.2178">organization</text><polygon fill="#181818" points="1516,759.7715,1526,763.7715,1516,767.7715,1520,763.7715" style="stroke:#181818;stroke-width:1.0;"/><line style="stroke:#181818;stroke-width:1.0;" x1="466" x2="1522" y1="763.7715" y2="763.7715"/><text fill="#000000" font-family="sans-serif" font-size="13" font-weight="bold" lengthAdjust="spacing" textLength="14" x="473" y="758.5088">19</text><text fill="#000000" font-family="sans-serif" font-size="13" lengthAdjust="spacing" textLength="164" x="491" y="758.5088">getEmployeeByEmail(email)</text><polygon fill="#181818" points="477,791.0625,467,795.0625,477,799.0625,473,795.0625" style="stroke:#181818;stroke-width:1.0;"/><line style="stroke:#181818;stroke-width:1.0;stroke-dasharray:2.0,2.0;" x1="471" x2="1532" y1="795.0625" y2="795.0625"/><text fill="#000000" font-family="sans-serif" font-size="13" font-weight="bold" lengthAdjust="spacing" textLength="14" x="483" y="789.7998">20</text><text fill="#000000" font-family="sans-serif" font-size="13" lengthAdjust="spacing" textLength="56" x="501" y="789.7998">employee</text><line style="stroke:#181818;stroke-width:1.0;stroke-dasharray:2.0,2.0;" x1="466" x2="508" y1="831.3535" y2="831.3535"/><line style="stroke:#181818;stroke-width:1.0;stroke-dasharray:2.0,2.0;" x1="508" x2="508" y1="831.3535" y2="844.3535"/><line style="stroke:#181818;stroke-width:1.0;stroke-dasharray:2.0,2.0;" x1="461" x2="508" y1="844.3535" y2="844.3535"/><polygon fill="#181818" points="471,840.3535,461,844.3535,471,848.3535,467,844.3535" style="stroke:#181818;stroke-width:1.0;"/><text fill="#000000" font-family="sans-serif" font-size="13" font-weight="bold" lengthAdjust="spacing" textLength="14" x="473" y="826.0908">21</text><text fill="#000000" font-family="sans-serif" font-size="13" lengthAdjust="spacing" textLength="56" x="491" y="826.0908">employee</text><polygon fill="#181818" points="1516,891.6445,1526,895.6445,1516,899.6445,1520,895.6445" style="stroke:#181818;stroke-width:1.0;"/><line style="stroke:#181818;stroke-width:1.0;" x1="461" x2="1522" y1="895.6445" y2="895.6445"/><text fill="#000000" font-family="sans-serif" font-size="13" font-weight="bold" lengthAdjust="spacing" textLength="14" x="468" y="890.3818">22</text><text fill="#000000" font-family="sans-serif" font-size="13" lengthAdjust="spacing" textLength="101" x="486" y="890.3818">createSkill(name)</text><polygon fill="#181818" points="1644,922.9355,1654,926.9355,1644,930.9355,1648,926.9355" style="stroke:#181818;stroke-width:1.0;"/><line style="stroke:#181818;stroke-width:1.0;" x1="1538" x2="1650" y1="926.9355" y2="926.9355"/><text fill="#000000" font-family="sans-serif" font-size="13" font-weight="bold" lengthAdjust="spacing" textLength="14" x="1545" y="921.6729">23</text><text fill="#000000" font-family="sans-serif" font-size="13" lengthAdjust="spacing" textLength="76" x="1563" y="921.6729">create(name)</text><rect fill="#E3E3E3" height="51.2422" rx="2.5" ry="2.5" style="stroke:#181818;stroke-width:0.5;" width="49" x="1656" y="903.6445"/><text fill="#000000" font-family="sans-serif" font-size="14" lengthAdjust="spacing" textLength="26" x="1667.5" y="925.752">task</text><text fill="#000000" font-family="sans-serif" font-size="14" lengthAdjust="spacing" textLength="35" x="1663" y="944.373">:Task</text><line style="stroke:#181818;stroke-width:1.0;" x1="1538" x2="1585" y1="984.1777" y2="984.1777"/><line style="stroke:#181818;stroke-width:1.0;" x1="1585" x2="1585" y1="984.1777" y2="997.1777"/><line style="stroke:#181818;stroke-width:1.0;" x1="1544" x2="1585" y1="997.1777" y2="997.1777"/><polygon fill="#181818" points="1554,993.1777,1544,997.1777,1554,1001.1777,1550,997.1777" style="stroke:#181818;stroke-width:1.0;"/><text fill="#000000" font-family="sans-serif" font-size="13" font-weight="bold" lengthAdjust="spacing" textLength="14" x="1550" y="978.915">24</text><text fill="#000000" font-family="sans-serif" font-size="13" lengthAdjust="spacing" textLength="81" x="1568" y="978.915">addSkill (skill)</text><line style="stroke:#181818;stroke-width:1.0;" x1="1543" x2="1590" y1="1028.4688" y2="1028.4688"/><line style="stroke:#181818;stroke-width:1.0;" x1="1590" x2="1590" y1="1028.4688" y2="1041.4688"/><line style="stroke:#181818;stroke-width:1.0;" x1="1549" x2="1590" y1="1041.4688" y2="1041.4688"/><polygon fill="#181818" points="1559,1037.4688,1549,1041.4688,1559,1045.4688,1555,1041.4688" style="stroke:#181818;stroke-width:1.0;"/><text fill="#000000" font-family="sans-serif" font-size="13" font-weight="bold" lengthAdjust="spacing" textLength="14" x="1555" y="1023.2061">25</text><text fill="#000000" font-family="sans-serif" font-size="13" lengthAdjust="spacing" textLength="99" x="1573" y="1023.2061">validateSkill(skill)</text><line style="stroke:#181818;stroke-width:1.0;stroke-dasharray:2.0,2.0;" x1="1548" x2="1590" y1="1082.7598" y2="1082.7598"/><line style="stroke:#181818;stroke-width:1.0;stroke-dasharray:2.0,2.0;" x1="1590" x2="1590" y1="1082.7598" y2="1095.7598"/><line style="stroke:#181818;stroke-width:1.0;stroke-dasharray:2.0,2.0;" x1="1543" x2="1590" y1="1095.7598" y2="1095.7598"/><polygon fill="#181818" points="1553,1091.7598,1543,1095.7598,1553,1099.7598,1549,1095.7598" style="stroke:#181818;stroke-width:1.0;"/><text fill="#000000" font-family="sans-serif" font-size="13" font-weight="bold" lengthAdjust="spacing" textLength="14" x="1555" y="1077.4971">26</text><text fill="#000000" font-family="sans-serif" font-size="13" lengthAdjust="spacing" textLength="4" x="1573" y="1077.4971">&#160;</text><line style="stroke:#181818;stroke-width:1.0;stroke-dasharray:2.0,2.0;" x1="1543" x2="1585" y1="1127.0508" y2="1127.0508"/><line style="stroke:#181818;stroke-width:1.0;stroke-dasharray:2.0,2.0;" x1="1585" x2="1585" y1="1127.0508" y2="1140.0508"/><line style="stroke:#181818;stroke-width:1.0;stroke-dasharray:2.0,2.0;" x1="1538" x2="1585" y1="1140.0508" y2="1140.0508"/><polygon fill="#181818" points="1548,1136.0508,1538,1140.0508,1548,1144.0508,1544,1140.0508" style="stroke:#181818;stroke-width:1.0;"/><text fill="#000000" font-family="sans-serif" font-size="13" font-weight="bold" lengthAdjust="spacing" textLength="14" x="1550" y="1121.7881">27</text><text fill="#000000" font-family="sans-serif" font-size="13" lengthAdjust="spacing" textLength="4" x="1568" y="1121.7881">&#160;</text><polygon fill="#181818" points="472,1162.3418,462,1166.3418,472,1170.3418,468,1166.3418" style="stroke:#181818;stroke-width:1.0;"/><line style="stroke:#181818;stroke-width:1.0;stroke-dasharray:2.0,2.0;" x1="466" x2="1532" y1="1166.3418" y2="1166.3418"/><text fill="#000000" font-family="sans-serif" font-size="13" font-weight="bold" lengthAdjust="spacing" textLength="14" x="478" y="1161.0791">28</text><text fill="#000000" font-family="sans-serif" font-size="13" lengthAdjust="spacing" textLength="23" x="496" y="1161.0791">skill</text><polygon fill="#181818" points="322,1193.6328,312,1197.6328,322,1201.6328,318,1197.6328" style="stroke:#181818;stroke-width:1.0;"/><line style="stroke:#181818;stroke-width:1.0;stroke-dasharray:2.0,2.0;" x1="316" x2="455" y1="1197.6328" y2="1197.6328"/><text fill="#000000" font-family="sans-serif" font-size="13" font-weight="bold" lengthAdjust="spacing" textLength="14" x="328" y="1192.3701">29</text><text fill="#000000" font-family="sans-serif" font-size="13" lengthAdjust="spacing" textLength="23" x="346" y="1192.3701">skill</text><polygon fill="#181818" points="107,1224.9238,97,1228.9238,107,1232.9238,103,1228.9238" style="stroke:#181818;stroke-width:1.0;"/><line style="stroke:#181818;stroke-width:1.0;stroke-dasharray:2.0,2.0;" x1="101" x2="305" y1="1228.9238" y2="1228.9238"/><text fill="#000000" font-family="sans-serif" font-size="13" font-weight="bold" lengthAdjust="spacing" textLength="14" x="113" y="1223.6611">30</text><text fill="#000000" font-family="sans-serif" font-size="13" lengthAdjust="spacing" textLength="158" x="131" y="1223.6611">displays operation success</text><!--SRC=[bLPDRzim3BtxLn2zD0rGx1vW1R8iRGEqQ96FqmOCgiqcGcp9a-Hs6VhZ9z4VaHFPxdmnR3q-Fb8a9Rtd8cUAPP198UETaXc2KGL6kbd9MRndMroPGugWC3PCR5CVe7SiaUzSRE6LfHgZY1L6YY9xGHL5bpkU8BnAQLxaduZ5HYguk2yo9c29MXOgHWsFJ5WFwWAOXkdtnyZo6Xxpd0a35vEPGcPmjUTfkbaGPhFeXioaC4gcQKKtMoyVJi1BpANcLWX7JPZcns75NMnMVTj4UHO_nJd1yyDqVU9ackSfZvdXKgnGQ_iYvA_fytCRoVAy0bZc3gipexXG2eKv6cuqAjzYDL-jfazj8wcsJF2_n7uCUV9JF0KNY2UyrCrhfVWc9SVohcrWcDvRuDg-2B2UBkUtqyXL1t-p-qWr447rs0-ulh5x3XCBtcim4cBQRs0Wy1sqs_OZlc6nLH9TWlTOYclBv0Wdjf9_5wYDXeGP1YF1ChoAVFHbvOGgw9JcXdwFnvQeX4MbWB0BHqxB2RRKdOPd3hdjXieCawFTcLLRHwE2Ek0abiQM0cb5yl7nqVechYFd5iqyorDvGBoraw6ghr4xJJtqFgKhV69S26qdI8mdD2qgwX88F6wX5cYheMcTCx2NQ2Bh5bRhchLQgayTyONKaRX6NRj7-nG62MjzPITF03F6K_ZgfBfcdxlFFfNL10WABTSyhKJU9x5cwvJfHY3bCJmnHkIXHowDqA1Oj-993K-nFkqbTQVoiE2pMBuTwbueKpyKKCVa38QOIfd3ZrTxD5hLkrQ8GRnxmlmKqFBEZKhH2BvdkbVpkNOxiJjHfNVhuxepUMwKsKl4b_8-qCNXRP5p68AWIAB_2Vuuktfpw7l-v3OrrRAyQmr6LnQVAeUkbDQPh7HZnHiDPAj3u02HH_Bvqu12xZvVXiEa46-gOtuyhia2F1wQlB8a8PSmeaF-Aj36WpNayxsnb2TD71NdO2iCDa47PcZBXZY6x4zAv-GUDCJG5CncKTlsbKhu8ZM1XEiyPGSDCaT5RGIwYEsjNeTkFFwfPozv_m00]--></g></svg>