<?xml version="1.0" encoding="us-ascii" standalone="no"?><svg xmlns="http://www.w3.org/2000/svg" xmlns:xlink="http://www.w3.org/1999/xlink" contentStyleType="text/css" height="441px" preserveAspectRatio="none" style="width:413px;height:441px;background:#FFFFFF;" version="1.1" viewBox="0 0 413 441" width="413.4px" zoomAndPan="magnify"><defs/><g><!--class Skill--><g id="elem_Skill"><rect codeLine="11" fill="#F1F1F1" height="39.9727" id="Skill" rx="1.5" ry="1.5" style="stroke:#181818;stroke-width:0.3;" width="58.2" x="201.3" y="222"/><ellipse cx="221.1" cy="231.6" fill="#ADD1B2" rx="6.6" ry="6.6" style="stroke:#181818;stroke-width:0.6;"/><path d="M222.7594,229.125 Q222.8531,228.9938 222.9656,228.9281 Q223.0781,228.8625 223.2094,228.8625 Q223.4344,228.8625 223.575,229.0219 Q223.7156,229.1719 223.7156,229.5375 L223.7156,230.4094 Q223.7156,230.775 223.575,230.9344 Q223.4344,231.0938 223.2094,231.0938 Q223.0031,231.0938 222.8813,230.9719 Q222.7594,230.8594 222.6938,230.55 Q222.6656,230.3344 222.5531,230.2219 Q222.3563,229.9969 221.9906,229.8656 Q221.625,229.7344 221.25,229.7344 Q220.7906,229.7344 220.4063,229.9313 Q220.0313,230.1281 219.7313,230.5781 Q219.4406,231.0281 219.4406,231.6469 L219.4406,232.3031 Q219.4406,233.0438 219.975,233.5406 Q220.5094,234.0281 221.4656,234.0281 Q222.0281,234.0281 222.4219,233.8781 Q222.6563,233.7844 222.9094,233.5219 Q223.0688,233.3625 223.1531,233.3156 Q223.2469,233.2687 223.3688,233.2687 Q223.5656,233.2687 223.7156,233.4281 Q223.875,233.5781 223.875,233.7844 Q223.875,233.9906 223.6688,234.2344 Q223.3688,234.5812 222.8906,234.7781 Q222.2438,235.05 221.4656,235.05 Q220.5563,235.05 219.8344,234.675 Q219.2438,234.375 218.8312,233.7375 Q218.4188,233.0906 218.4188,232.3219 L218.4188,231.6281 Q218.4188,230.8312 218.7844,230.1469 Q219.1594,229.4531 219.8156,229.0875 Q220.4719,228.7125 221.2125,228.7125 Q221.6531,228.7125 222.0375,228.8156 Q222.4313,228.9094 222.7594,229.125 Z " fill="#000000"/><text fill="#000000" font-family="sans-serif" font-size="8.4" lengthAdjust="spacing" textLength="15" x="231.9" y="235.0781">Skill</text><line style="stroke:#181818;stroke-width:0.3;" x1="201.9" x2="258.9" y1="241.2" y2="241.2"/><text fill="#000000" font-family="sans-serif" font-size="8.4" lengthAdjust="spacing" textLength="51" x="204.9" y="252.6645">-name: String</text><line style="stroke:#181818;stroke-width:0.3;" x1="201.9" x2="258.9" y1="257.1727" y2="257.1727"/></g><!--class SkillManager--><g id="elem_SkillManager"><rect codeLine="15" fill="#F1F1F1" height="39.9727" id="SkillManager" rx="1.5" ry="1.5" style="stroke:#181818;stroke-width:0.3;" width="140.4" x="150.6" y="397.2"/><ellipse cx="193.95" cy="406.8" fill="#ADD1B2" rx="6.6" ry="6.6" style="stroke:#181818;stroke-width:0.6;"/><path d="M195.6094,404.325 Q195.7031,404.1937 195.8156,404.1281 Q195.9281,404.0625 196.0594,404.0625 Q196.2844,404.0625 196.425,404.2219 Q196.5656,404.3719 196.5656,404.7375 L196.5656,405.6094 Q196.5656,405.975 196.425,406.1344 Q196.2844,406.2938 196.0594,406.2938 Q195.8531,406.2938 195.7313,406.1719 Q195.6094,406.0594 195.5438,405.75 Q195.5156,405.5344 195.4031,405.4219 Q195.2062,405.1969 194.8406,405.0656 Q194.475,404.9344 194.1,404.9344 Q193.6406,404.9344 193.2563,405.1312 Q192.8813,405.3281 192.5812,405.7781 Q192.2906,406.2281 192.2906,406.8469 L192.2906,407.5031 Q192.2906,408.2438 192.825,408.7406 Q193.3594,409.2281 194.3156,409.2281 Q194.8781,409.2281 195.2719,409.0781 Q195.5063,408.9844 195.7594,408.7219 Q195.9188,408.5625 196.0031,408.5156 Q196.0969,408.4688 196.2188,408.4688 Q196.4156,408.4688 196.5656,408.6281 Q196.725,408.7781 196.725,408.9844 Q196.725,409.1906 196.5187,409.4344 Q196.2188,409.7813 195.7406,409.9781 Q195.0938,410.25 194.3156,410.25 Q193.4063,410.25 192.6844,409.875 Q192.0938,409.575 191.6813,408.9375 Q191.2687,408.2906 191.2687,407.5219 L191.2687,406.8281 Q191.2687,406.0313 191.6344,405.3469 Q192.0094,404.6531 192.6656,404.2875 Q193.3219,403.9125 194.0625,403.9125 Q194.5031,403.9125 194.8875,404.0156 Q195.2813,404.1094 195.6094,404.325 Z " fill="#000000"/><text fill="#000000" font-family="sans-serif" font-size="8.4" lengthAdjust="spacing" textLength="48.6" x="206.25" y="410.2781">SkillManager</text><line style="stroke:#181818;stroke-width:0.3;" x1="151.2" x2="290.4" y1="416.4" y2="416.4"/><line style="stroke:#181818;stroke-width:0.3;" x1="151.2" x2="290.4" y1="421.2" y2="421.2"/><text fill="#000000" font-family="sans-serif" font-size="8.4" lengthAdjust="spacing" textLength="133.2" x="154.2" y="432.6645">+createSkill(name: String): boolean</text></g><!--class HRManager--><g id="elem_HRManager"><rect codeLine="19" fill="#F1F1F1" height="39.9727" id="HRManager" rx="1.5" ry="1.5" style="stroke:#181818;stroke-width:0.3;" width="88.2" x="257.7" y="309.6"/><ellipse cx="277.5" cy="319.2" fill="#ADD1B2" rx="6.6" ry="6.6" style="stroke:#181818;stroke-width:0.6;"/><path d="M279.1594,316.725 Q279.2531,316.5938 279.3656,316.5281 Q279.4781,316.4625 279.6094,316.4625 Q279.8344,316.4625 279.975,316.6219 Q280.1156,316.7719 280.1156,317.1375 L280.1156,318.0094 Q280.1156,318.375 279.975,318.5344 Q279.8344,318.6937 279.6094,318.6937 Q279.4031,318.6937 279.2813,318.5719 Q279.1594,318.4594 279.0938,318.15 Q279.0656,317.9344 278.9531,317.8219 Q278.7562,317.5969 278.3906,317.4656 Q278.025,317.3344 277.65,317.3344 Q277.1906,317.3344 276.8063,317.5313 Q276.4313,317.7281 276.1312,318.1781 Q275.8406,318.6281 275.8406,319.2469 L275.8406,319.9031 Q275.8406,320.6438 276.375,321.1406 Q276.9094,321.6281 277.8656,321.6281 Q278.4281,321.6281 278.8219,321.4781 Q279.0563,321.3844 279.3094,321.1219 Q279.4688,320.9625 279.5531,320.9156 Q279.6469,320.8688 279.7688,320.8688 Q279.9656,320.8688 280.1156,321.0281 Q280.275,321.1781 280.275,321.3844 Q280.275,321.5906 280.0687,321.8344 Q279.7688,322.1813 279.2906,322.3781 Q278.6438,322.65 277.8656,322.65 Q276.9563,322.65 276.2344,322.275 Q275.6438,321.975 275.2313,321.3375 Q274.8187,320.6906 274.8187,319.9219 L274.8187,319.2281 Q274.8187,318.4313 275.1844,317.7469 Q275.5594,317.0531 276.2156,316.6875 Q276.8719,316.3125 277.6125,316.3125 Q278.0531,316.3125 278.4375,316.4156 Q278.8313,316.5094 279.1594,316.725 Z " fill="#000000"/><text fill="#000000" font-family="sans-serif" font-size="8.4" lengthAdjust="spacing" textLength="45" x="288.3" y="322.6781">HRManager</text><line style="stroke:#181818;stroke-width:0.3;" x1="258.3" x2="345.3" y1="328.8" y2="328.8"/><line style="stroke:#181818;stroke-width:0.3;" x1="258.3" x2="345.3" y1="333.6" y2="333.6"/><text fill="#000000" font-family="sans-serif" font-size="8.4" lengthAdjust="spacing" textLength="81" x="261.3" y="345.0645">+manageSkills(): void</text></g><!--class Repositories--><g id="elem_Repositories"><rect fill="#F1F1F1" height="28.8" id="Repositories" rx="1.5" ry="1.5" style="stroke:#181818;stroke-width:0.3;" width="66.6" x="259.5" y="4.2"/><ellipse cx="268.5" cy="13.8" fill="#ADD1B2" rx="6.6" ry="6.6" style="stroke:#181818;stroke-width:0.6;"/><path d="M270.1594,11.325 Q270.2531,11.1938 270.3656,11.1281 Q270.4781,11.0625 270.6094,11.0625 Q270.8344,11.0625 270.975,11.2219 Q271.1156,11.3719 271.1156,11.7375 L271.1156,12.6094 Q271.1156,12.975 270.975,13.1344 Q270.8344,13.2938 270.6094,13.2938 Q270.4031,13.2938 270.2813,13.1719 Q270.1594,13.0594 270.0938,12.75 Q270.0656,12.5344 269.9531,12.4219 Q269.7562,12.1969 269.3906,12.0656 Q269.025,11.9344 268.65,11.9344 Q268.1906,11.9344 267.8063,12.1313 Q267.4313,12.3281 267.1312,12.7781 Q266.8406,13.2281 266.8406,13.8469 L266.8406,14.5031 Q266.8406,15.2437 267.375,15.7406 Q267.9094,16.2281 268.8656,16.2281 Q269.4281,16.2281 269.8219,16.0781 Q270.0563,15.9844 270.3094,15.7219 Q270.4688,15.5625 270.5531,15.5156 Q270.6469,15.4688 270.7688,15.4688 Q270.9656,15.4688 271.1156,15.6281 Q271.275,15.7781 271.275,15.9844 Q271.275,16.1906 271.0687,16.4344 Q270.7688,16.7813 270.2906,16.9781 Q269.6438,17.25 268.8656,17.25 Q267.9563,17.25 267.2344,16.875 Q266.6438,16.575 266.2313,15.9375 Q265.8187,15.2906 265.8187,14.5219 L265.8187,13.8281 Q265.8187,13.0313 266.1844,12.3469 Q266.5594,11.6531 267.2156,11.2875 Q267.8719,10.9125 268.6125,10.9125 Q269.0531,10.9125 269.4375,11.0156 Q269.8313,11.1094 270.1594,11.325 Z " fill="#000000"/><text fill="#000000" font-family="sans-serif" font-size="8.4" lengthAdjust="spacing" textLength="47.4" x="276.9" y="17.2781">Repositories</text><line style="stroke:#181818;stroke-width:0.3;" x1="260.1" x2="325.5" y1="23.4" y2="23.4"/><line style="stroke:#181818;stroke-width:0.3;" x1="260.1" x2="325.5" y1="28.2" y2="28.2"/></g><!--class ApplicationSession--><g id="elem_ApplicationSession"><rect fill="#F1F1F1" height="28.8" id="ApplicationSession" rx="1.5" ry="1.5" style="stroke:#181818;stroke-width:0.3;" width="90.6" x="56.7" y="69.6"/><ellipse cx="65.7" cy="79.2" fill="#ADD1B2" rx="6.6" ry="6.6" style="stroke:#181818;stroke-width:0.6;"/><path d="M67.3594,76.725 Q67.4531,76.5938 67.5656,76.5281 Q67.6781,76.4625 67.8094,76.4625 Q68.0344,76.4625 68.175,76.6219 Q68.3156,76.7719 68.3156,77.1375 L68.3156,78.0094 Q68.3156,78.375 68.175,78.5344 Q68.0344,78.6938 67.8094,78.6938 Q67.6031,78.6938 67.4813,78.5719 Q67.3594,78.4594 67.2938,78.15 Q67.2656,77.9344 67.1531,77.8219 Q66.9563,77.5969 66.5906,77.4656 Q66.225,77.3344 65.85,77.3344 Q65.3906,77.3344 65.0063,77.5313 Q64.6313,77.7281 64.3313,78.1781 Q64.0406,78.6281 64.0406,79.2469 L64.0406,79.9031 Q64.0406,80.6438 64.575,81.1406 Q65.1094,81.6281 66.0656,81.6281 Q66.6281,81.6281 67.0219,81.4781 Q67.2563,81.3844 67.5094,81.1219 Q67.6688,80.9625 67.7531,80.9156 Q67.8469,80.8687 67.9688,80.8687 Q68.1656,80.8687 68.3156,81.0281 Q68.475,81.1781 68.475,81.3844 Q68.475,81.5906 68.2688,81.8344 Q67.9688,82.1812 67.4906,82.3781 Q66.8438,82.65 66.0656,82.65 Q65.1563,82.65 64.4344,82.275 Q63.8438,81.975 63.4313,81.3375 Q63.0188,80.6906 63.0188,79.9219 L63.0188,79.2281 Q63.0188,78.4312 63.3844,77.7469 Q63.7594,77.0531 64.4156,76.6875 Q65.0719,76.3125 65.8125,76.3125 Q66.2531,76.3125 66.6375,76.4156 Q67.0313,76.5094 67.3594,76.725 Z " fill="#000000"/><text fill="#000000" font-family="sans-serif" font-size="8.4" lengthAdjust="spacing" textLength="71.4" x="74.1" y="82.6781">ApplicationSession</text><line style="stroke:#181818;stroke-width:0.3;" x1="57.3" x2="146.7" y1="88.8" y2="88.8"/><line style="stroke:#181818;stroke-width:0.3;" x1="57.3" x2="146.7" y1="93.6" y2="93.6"/></g><!--class CreateSkillUI--><g id="elem_CreateSkillUI"><rect fill="#F1F1F1" height="28.8" id="CreateSkillUI" rx="1.5" ry="1.5" style="stroke:#181818;stroke-width:0.3;" width="67.2" x="4.2" y="4.2"/><ellipse cx="13.2" cy="13.8" fill="#ADD1B2" rx="6.6" ry="6.6" style="stroke:#181818;stroke-width:0.6;"/><path d="M14.8594,11.325 Q14.9531,11.1938 15.0656,11.1281 Q15.1781,11.0625 15.3094,11.0625 Q15.5344,11.0625 15.675,11.2219 Q15.8156,11.3719 15.8156,11.7375 L15.8156,12.6094 Q15.8156,12.975 15.675,13.1344 Q15.5344,13.2938 15.3094,13.2938 Q15.1031,13.2938 14.9813,13.1719 Q14.8594,13.0594 14.7938,12.75 Q14.7656,12.5344 14.6531,12.4219 Q14.4562,12.1969 14.0906,12.0656 Q13.725,11.9344 13.35,11.9344 Q12.8906,11.9344 12.5063,12.1313 Q12.1313,12.3281 11.8312,12.7781 Q11.5406,13.2281 11.5406,13.8469 L11.5406,14.5031 Q11.5406,15.2437 12.075,15.7406 Q12.6094,16.2281 13.5656,16.2281 Q14.1281,16.2281 14.5219,16.0781 Q14.7563,15.9844 15.0094,15.7219 Q15.1688,15.5625 15.2531,15.5156 Q15.3469,15.4688 15.4688,15.4688 Q15.6656,15.4688 15.8156,15.6281 Q15.975,15.7781 15.975,15.9844 Q15.975,16.1906 15.7687,16.4344 Q15.4688,16.7813 14.9906,16.9781 Q14.3438,17.25 13.5656,17.25 Q12.6563,17.25 11.9344,16.875 Q11.3438,16.575 10.9313,15.9375 Q10.5187,15.2906 10.5187,14.5219 L10.5187,13.8281 Q10.5187,13.0313 10.8844,12.3469 Q11.2594,11.6531 11.9156,11.2875 Q12.5719,10.9125 13.3125,10.9125 Q13.7531,10.9125 14.1375,11.0156 Q14.5313,11.1094 14.8594,11.325 Z " fill="#000000"/><text fill="#000000" font-family="sans-serif" font-size="8.4" lengthAdjust="spacing" textLength="48" x="21.6" y="17.2781">CreateSkillUI</text><line style="stroke:#181818;stroke-width:0.3;" x1="4.8" x2="70.8" y1="23.4" y2="23.4"/><line style="stroke:#181818;stroke-width:0.3;" x1="4.8" x2="70.8" y1="28.2" y2="28.2"/></g><!--class CreateSkillController--><g id="elem_CreateSkillController"><rect fill="#F1F1F1" height="28.8" id="CreateSkillController" rx="1.5" ry="1.5" style="stroke:#181818;stroke-width:0.3;" width="97.2" x="92.4" y="4.2"/><ellipse cx="101.4" cy="13.8" fill="#ADD1B2" rx="6.6" ry="6.6" style="stroke:#181818;stroke-width:0.6;"/><path d="M103.0594,11.325 Q103.1531,11.1938 103.2656,11.1281 Q103.3781,11.0625 103.5094,11.0625 Q103.7344,11.0625 103.875,11.2219 Q104.0156,11.3719 104.0156,11.7375 L104.0156,12.6094 Q104.0156,12.975 103.875,13.1344 Q103.7344,13.2938 103.5094,13.2938 Q103.3031,13.2938 103.1812,13.1719 Q103.0594,13.0594 102.9937,12.75 Q102.9656,12.5344 102.8531,12.4219 Q102.6563,12.1969 102.2906,12.0656 Q101.925,11.9344 101.55,11.9344 Q101.0906,11.9344 100.7063,12.1313 Q100.3313,12.3281 100.0313,12.7781 Q99.7406,13.2281 99.7406,13.8469 L99.7406,14.5031 Q99.7406,15.2437 100.275,15.7406 Q100.8094,16.2281 101.7656,16.2281 Q102.3281,16.2281 102.7219,16.0781 Q102.9563,15.9844 103.2094,15.7219 Q103.3687,15.5625 103.4531,15.5156 Q103.5469,15.4688 103.6688,15.4688 Q103.8656,15.4688 104.0156,15.6281 Q104.175,15.7781 104.175,15.9844 Q104.175,16.1906 103.9688,16.4344 Q103.6688,16.7813 103.1906,16.9781 Q102.5438,17.25 101.7656,17.25 Q100.8563,17.25 100.1344,16.875 Q99.5438,16.575 99.1313,15.9375 Q98.7188,15.2906 98.7188,14.5219 L98.7188,13.8281 Q98.7188,13.0313 99.0844,12.3469 Q99.4594,11.6531 100.1156,11.2875 Q100.7719,10.9125 101.5125,10.9125 Q101.9531,10.9125 102.3375,11.0156 Q102.7313,11.1094 103.0594,11.325 Z " fill="#000000"/><text fill="#000000" font-family="sans-serif" font-size="8.4" lengthAdjust="spacing" textLength="78" x="109.8" y="17.2781">CreateSkillController</text><line style="stroke:#181818;stroke-width:0.3;" x1="93" x2="189" y1="23.4" y2="23.4"/><line style="stroke:#181818;stroke-width:0.3;" x1="93" x2="189" y1="28.2" y2="28.2"/></g><!--class OrganizationRepository--><g id="elem_OrganizationRepository"><rect fill="#F1F1F1" height="28.8" id="OrganizationRepository" rx="1.5" ry="1.5" style="stroke:#181818;stroke-width:0.3;" width="108" x="301.2" y="69.6"/><ellipse cx="310.2" cy="79.2" fill="#ADD1B2" rx="6.6" ry="6.6" style="stroke:#181818;stroke-width:0.6;"/><path d="M311.8594,76.725 Q311.9531,76.5938 312.0656,76.5281 Q312.1781,76.4625 312.3094,76.4625 Q312.5344,76.4625 312.675,76.6219 Q312.8156,76.7719 312.8156,77.1375 L312.8156,78.0094 Q312.8156,78.375 312.675,78.5344 Q312.5344,78.6938 312.3094,78.6938 Q312.1031,78.6938 311.9813,78.5719 Q311.8594,78.4594 311.7938,78.15 Q311.7656,77.9344 311.6531,77.8219 Q311.4563,77.5969 311.0906,77.4656 Q310.725,77.3344 310.35,77.3344 Q309.8906,77.3344 309.5062,77.5313 Q309.1312,77.7281 308.8313,78.1781 Q308.5406,78.6281 308.5406,79.2469 L308.5406,79.9031 Q308.5406,80.6438 309.075,81.1406 Q309.6094,81.6281 310.5656,81.6281 Q311.1281,81.6281 311.5219,81.4781 Q311.7562,81.3844 312.0094,81.1219 Q312.1688,80.9625 312.2531,80.9156 Q312.3469,80.8687 312.4688,80.8687 Q312.6656,80.8687 312.8156,81.0281 Q312.975,81.1781 312.975,81.3844 Q312.975,81.5906 312.7688,81.8344 Q312.4688,82.1812 311.9906,82.3781 Q311.3438,82.65 310.5656,82.65 Q309.6563,82.65 308.9344,82.275 Q308.3438,81.975 307.9313,81.3375 Q307.5188,80.6906 307.5188,79.9219 L307.5188,79.2281 Q307.5188,78.4312 307.8844,77.7469 Q308.2594,77.0531 308.9156,76.6875 Q309.5719,76.3125 310.3125,76.3125 Q310.7531,76.3125 311.1375,76.4156 Q311.5313,76.5094 311.8594,76.725 Z " fill="#000000"/><text fill="#000000" font-family="sans-serif" font-size="8.4" lengthAdjust="spacing" textLength="88.8" x="318.6" y="82.6781">OrganizationRepository</text><line style="stroke:#181818;stroke-width:0.3;" x1="301.8" x2="408.6" y1="88.8" y2="88.8"/><line style="stroke:#181818;stroke-width:0.3;" x1="301.8" x2="408.6" y1="93.6" y2="93.6"/></g><!--class Organization--><g id="elem_Organization"><rect fill="#F1F1F1" height="28.8" id="Organization" rx="1.5" ry="1.5" style="stroke:#181818;stroke-width:0.3;" width="67.2" x="238.8" y="145.8"/><ellipse cx="247.8" cy="155.4" fill="#ADD1B2" rx="6.6" ry="6.6" style="stroke:#181818;stroke-width:0.6;"/><path d="M249.4594,152.925 Q249.5531,152.7938 249.6656,152.7281 Q249.7781,152.6625 249.9094,152.6625 Q250.1344,152.6625 250.275,152.8219 Q250.4156,152.9719 250.4156,153.3375 L250.4156,154.2094 Q250.4156,154.575 250.275,154.7344 Q250.1344,154.8937 249.9094,154.8937 Q249.7031,154.8937 249.5812,154.7719 Q249.4594,154.6594 249.3937,154.35 Q249.3656,154.1344 249.2531,154.0219 Q249.0562,153.7969 248.6906,153.6656 Q248.325,153.5344 247.95,153.5344 Q247.4906,153.5344 247.1063,153.7313 Q246.7313,153.9281 246.4312,154.3781 Q246.1406,154.8281 246.1406,155.4469 L246.1406,156.1031 Q246.1406,156.8438 246.675,157.3406 Q247.2094,157.8281 248.1656,157.8281 Q248.7281,157.8281 249.1219,157.6781 Q249.3563,157.5844 249.6094,157.3219 Q249.7687,157.1625 249.8531,157.1156 Q249.9469,157.0688 250.0688,157.0688 Q250.2656,157.0688 250.4156,157.2281 Q250.575,157.3781 250.575,157.5844 Q250.575,157.7906 250.3687,158.0344 Q250.0688,158.3813 249.5906,158.5781 Q248.9438,158.85 248.1656,158.85 Q247.2563,158.85 246.5344,158.475 Q245.9438,158.175 245.5313,157.5375 Q245.1187,156.8906 245.1187,156.1219 L245.1187,155.4281 Q245.1187,154.6313 245.4844,153.9469 Q245.8594,153.2531 246.5156,152.8875 Q247.1719,152.5125 247.9125,152.5125 Q248.3531,152.5125 248.7375,152.6156 Q249.1313,152.7094 249.4594,152.925 Z " fill="#000000"/><text fill="#000000" font-family="sans-serif" font-size="8.4" lengthAdjust="spacing" textLength="48" x="256.2" y="158.8781">Organization</text><line style="stroke:#181818;stroke-width:0.3;" x1="239.4" x2="305.4" y1="165" y2="165"/><line style="stroke:#181818;stroke-width:0.3;" x1="239.4" x2="305.4" y1="169.8" y2="169.8"/></g><!--class UserSession--><g id="elem_UserSession"><rect fill="#F1F1F1" height="28.8" id="UserSession" rx="1.5" ry="1.5" style="stroke:#181818;stroke-width:0.3;" width="66.6" x="11.1" y="145.8"/><ellipse cx="20.1" cy="155.4" fill="#ADD1B2" rx="6.6" ry="6.6" style="stroke:#181818;stroke-width:0.6;"/><path d="M21.7594,152.925 Q21.8531,152.7938 21.9656,152.7281 Q22.0781,152.6625 22.2094,152.6625 Q22.4344,152.6625 22.575,152.8219 Q22.7156,152.9719 22.7156,153.3375 L22.7156,154.2094 Q22.7156,154.575 22.575,154.7344 Q22.4344,154.8937 22.2094,154.8937 Q22.0031,154.8937 21.8812,154.7719 Q21.7594,154.6594 21.6937,154.35 Q21.6656,154.1344 21.5531,154.0219 Q21.3563,153.7969 20.9906,153.6656 Q20.625,153.5344 20.25,153.5344 Q19.7906,153.5344 19.4063,153.7313 Q19.0313,153.9281 18.7313,154.3781 Q18.4406,154.8281 18.4406,155.4469 L18.4406,156.1031 Q18.4406,156.8438 18.975,157.3406 Q19.5094,157.8281 20.4656,157.8281 Q21.0281,157.8281 21.4219,157.6781 Q21.6563,157.5844 21.9094,157.3219 Q22.0687,157.1625 22.1531,157.1156 Q22.2469,157.0688 22.3688,157.0688 Q22.5656,157.0688 22.7156,157.2281 Q22.875,157.3781 22.875,157.5844 Q22.875,157.7906 22.6688,158.0344 Q22.3688,158.3813 21.8906,158.5781 Q21.2438,158.85 20.4656,158.85 Q19.5563,158.85 18.8344,158.475 Q18.2438,158.175 17.8313,157.5375 Q17.4188,156.8906 17.4188,156.1219 L17.4188,155.4281 Q17.4188,154.6313 17.7844,153.9469 Q18.1594,153.2531 18.8156,152.8875 Q19.4719,152.5125 20.2125,152.5125 Q20.6531,152.5125 21.0375,152.6156 Q21.4313,152.7094 21.7594,152.925 Z " fill="#000000"/><text fill="#000000" font-family="sans-serif" font-size="8.4" lengthAdjust="spacing" textLength="47.4" x="28.5" y="158.8781">UserSession</text><line style="stroke:#181818;stroke-width:0.3;" x1="11.7" x2="77.1" y1="165" y2="165"/><line style="stroke:#181818;stroke-width:0.3;" x1="11.7" x2="77.1" y1="169.8" y2="169.8"/></g><!--link SkillManager to Skill--><g id="link_SkillManager_Skill"><path codeLine="23" d="M218.874,397.17 C216.924,377.424 214.2,349.8 214.2,349.8 C214.2,349.8 214.2,309.6 214.2,309.6 C214.2,309.6 220.0427,285.4749 224.8247,265.7289 " fill="none" id="SkillManager-to-Skill" style="stroke:#181818;stroke-width:0.6;"/><polygon fill="#181818" points="225.672,262.23,222.0684,266.9134,224.9659,265.1457,226.7336,268.0432,225.672,262.23" style="stroke:#181818;stroke-width:0.6;"/><text fill="#000000" font-family="sans-serif" font-size="7.8" lengthAdjust="spacing" textLength="31.8" x="214.8" y="333.017">Manages</text></g><!--link HRManager to SkillManager--><g id="link_HRManager_SkillManager"><path codeLine="24" d="M283.422,349.908 C270.162,364.044 254.8108,380.4263 241.5688,394.5443 " fill="none" id="HRManager-to-SkillManager" style="stroke:#181818;stroke-width:0.6;"/><polygon fill="#181818" points="239.106,397.17,244.5507,394.8733,241.1583,394.9819,241.0497,391.5895,239.106,397.17" style="stroke:#181818;stroke-width:0.6;"/><text fill="#000000" font-family="sans-serif" font-size="7.8" lengthAdjust="spacing" textLength="18" x="266.4" y="376.817">Uses</text></g><!--link Repositories to Repositories--><g id="link_Repositories_Repositories"><path codeLine="27" d="M326.208,12.528 C337.764,12.462 347.1,14.484 347.1,18.6 C347.1,22.716 341.3639,24.7586 329.8079,24.6926 " fill="none" id="Repositories-to-Repositories" style="stroke:#181818;stroke-width:0.6;"/><polygon fill="#181818" points="326.208,24.672,331.5942,27.1028,329.208,24.6891,331.6216,22.3029,326.208,24.672" style="stroke:#181818;stroke-width:0.6;"/><text fill="#000000" font-family="sans-serif" font-size="7.8" lengthAdjust="spacing" textLength="29.4" x="350.7" y="21.917">instance</text></g><!--link ApplicationSession to ApplicationSession--><g id="link_ApplicationSession_ApplicationSession"><path codeLine="28" d="M147.396,77.982 C159.3,78.342 168.3,80.346 168.3,84 C168.3,87.654 162.8984,89.5492 150.9944,89.9092 " fill="none" id="ApplicationSession-to-ApplicationSession" style="stroke:#181818;stroke-width:0.6;"/><polygon fill="#181818" points="147.396,90.018,152.8661,92.2537,150.3946,89.9273,152.721,87.4559,147.396,90.018" style="stroke:#181818;stroke-width:0.6;"/><text fill="#000000" font-family="sans-serif" font-size="7.8" lengthAdjust="spacing" textLength="29.4" x="171.9" y="87.317">instance</text></g><!--link CreateSkillUI to CreateSkillController--><g id="link_CreateSkillUI_CreateSkillController"><path codeLine="30" d="M71.604,18.6 C71.988,18.6 72.198,18.6 72.198,18.6 C72.198,18.6 79.182,18.6 88.608,18.6 " fill="none" id="CreateSkillUI-to-CreateSkillController" style="stroke:#181818;stroke-width:0.6;stroke-dasharray:7.0,7.0;"/><polygon fill="#181818" points="92.208,18.6,86.808,16.2,89.208,18.6,86.808,21,92.208,18.6" style="stroke:#181818;stroke-width:0.6;"/></g><!--link CreateSkillController to Repositories--><g id="link_CreateSkillController_Repositories"><path codeLine="32" d="M189.654,18.6 C212.376,18.6 235.254,18.6 255.69,18.6 " fill="none" id="CreateSkillController-to-Repositories" style="stroke:#181818;stroke-width:0.6;stroke-dasharray:7.0,7.0;"/><polygon fill="#181818" points="259.29,18.6,253.89,16.2,256.29,18.6,253.89,21,259.29,18.6" style="stroke:#181818;stroke-width:0.6;"/><text fill="#000000" font-family="sans-serif" font-size="7.8" lengthAdjust="spacing" textLength="40.2" x="204.45" y="14.417">repositories</text></g><!--link Repositories to OrganizationRepository--><g id="link_Repositories_OrganizationRepository"><path codeLine="34" d="M306.342,33.132 C316.806,43.896 328.7146,56.1527 339.1786,66.9167 " fill="none" id="Repositories-to-OrganizationRepository" style="stroke:#181818;stroke-width:0.6;"/><polygon fill="#181818" points="341.688,69.498,339.6448,63.9531,339.5969,67.3469,336.2031,67.299,341.688,69.498" style="stroke:#181818;stroke-width:0.6;"/><text fill="#000000" font-family="sans-serif" font-size="7.8" lengthAdjust="spacing" textLength="4.2" x="333.6826" y="62.9583">1</text></g><!--link OrganizationRepository to Organization--><g id="link_OrganizationRepository_Organization"><path codeLine="36" d="M339.822,98.532 C324.948,112.002 305.2121,129.8832 290.3681,143.3292 " fill="none" id="OrganizationRepository-to-Organization" style="stroke:#181818;stroke-width:0.6;"/><polygon fill="#181818" points="287.7,145.746,293.3134,143.8995,289.9234,143.732,290.091,140.342,287.7,145.746" style="stroke:#181818;stroke-width:0.6;"/><text fill="#000000" font-family="sans-serif" font-size="7.8" lengthAdjust="spacing" textLength="3" x="288.2363" y="138.9747">*</text></g><!--link ApplicationSession to UserSession--><g id="link_ApplicationSession_UserSession"><path codeLine="37" d="M91.302,98.532 C80.958,112.002 67.5627,129.4448 57.2367,142.8908 " fill="none" id="ApplicationSession-to-UserSession" style="stroke:#181818;stroke-width:0.6;"/><polygon fill="#181818" points="55.044,145.746,60.2365,142.925,56.8712,143.3667,56.4296,140.0014,55.044,145.746" style="stroke:#181818;stroke-width:0.6;"/><text fill="#000000" font-family="sans-serif" font-size="7.8" lengthAdjust="spacing" textLength="43.2" x="76.8" y="125.417">userSession</text><text fill="#000000" font-family="sans-serif" font-size="7.8" lengthAdjust="spacing" textLength="4.2" x="53.0334" y="138.9747">1</text></g><!--link CreateSkillController to Organization--><g id="link_CreateSkillController_Organization"><path codeLine="39" d="M158.712,33.108 C177.714,48.024 205.2,69.6 205.2,69.6 C205.2,69.6 241.0438,117.6076 259.8958,142.8496 " fill="none" id="CreateSkillController-to-Organization" style="stroke:#181818;stroke-width:0.6;stroke-dasharray:7.0,7.0;"/><polygon fill="#181818" points="262.05,145.734,260.7416,139.9713,260.2548,143.3304,256.8958,142.8436,262.05,145.734" style="stroke:#181818;stroke-width:0.6;"/><text fill="#000000" font-family="sans-serif" font-size="7.8" lengthAdjust="spacing" textLength="42" x="226.2" y="87.317">organization</text><text fill="#000000" font-family="sans-serif" font-size="7.8" lengthAdjust="spacing" textLength="4.2" x="254.6597" y="138.9596">1</text></g><!--link CreateSkillController to ApplicationSession--><g id="link_CreateSkillController_ApplicationSession"><path codeLine="40" d="M132.54,33.132 C125.994,43.896 118.8501,55.6566 112.3161,66.4206 " fill="none" id="CreateSkillController-to-ApplicationSession" style="stroke:#181818;stroke-width:0.6;stroke-dasharray:7.0,7.0;"/><polygon fill="#181818" points="110.448,69.498,115.3017,66.1273,112.0047,66.9335,111.1985,63.6365,110.448,69.498" style="stroke:#181818;stroke-width:0.6;"/></g><!--link CreateSkillController to UserSession--><g id="link_CreateSkillController_UserSession"><path codeLine="41" d="M114.846,33.108 C86.784,48.024 46.2,69.6 46.2,69.6 C46.2,69.6 45.2519,116.8927 44.7479,142.1347 " fill="none" id="CreateSkillController-to-UserSession" style="stroke:#181818;stroke-width:0.6;stroke-dasharray:7.0,7.0;"/><polygon fill="#181818" points="44.676,145.734,47.1833,140.383,44.7359,142.7346,42.3843,140.2872,44.676,145.734" style="stroke:#181818;stroke-width:0.6;"/></g><!--link Organization to Skill--><g id="link_Organization_Skill"><path codeLine="42" d="M263.772,174.654 C258.438,183.222 252.6,192.6 252.6,192.6 C252.6,192.6 246.9659,205.0119 240.7919,218.6139 " fill="none" id="Organization-to-Skill" style="stroke:#181818;stroke-width:0.6;"/><polygon fill="#181818" points="239.304,221.892,243.7213,217.9668,240.544,219.1602,239.3505,215.9829,239.304,221.892" style="stroke:#181818;stroke-width:0.6;"/><text fill="#000000" font-family="sans-serif" font-size="7.8" lengthAdjust="spacing" textLength="32.4" x="253.2" y="201.617">attributes</text><text fill="#000000" font-family="sans-serif" font-size="7.8" lengthAdjust="spacing" textLength="4.2" x="256.9571" y="187.8586">1</text><text fill="#000000" font-family="sans-serif" font-size="7.8" lengthAdjust="spacing" textLength="3" x="237.7617" y="215.166">*</text></g><!--link Skill to HRManager--><g id="link_Skill_HRManager"><path codeLine="43" d="M238.098,262.308 C243.438,275.91 249.6,291.6 249.6,291.6 C249.6,291.6 259.0245,298.3673 271.7085,307.4813 " fill="none" id="Skill-to-HRManager" style="stroke:#181818;stroke-width:0.6;"/><polygon fill="#181818" points="274.632,309.582,271.6471,304.4819,272.1957,307.8314,268.8462,308.38,274.632,309.582" style="stroke:#181818;stroke-width:0.6;"/><text fill="#000000" font-family="sans-serif" font-size="7.8" lengthAdjust="spacing" textLength="35.4" x="250.2" y="289.217">createdBy</text></g><!--link Organization to HRManager--><g id="link_Organization_HRManager"><path codeLine="45" d="M279.456,174.654 C283.824,183.222 288.6,192.6 288.6,192.6 C288.6,192.6 295.9091,268.2168 299.5631,305.9568 " fill="none" id="Organization-to-HRManager" style="stroke:#181818;stroke-width:0.6;"/><polygon fill="#181818" points="299.91,309.54,301.7784,303.9338,299.6209,306.554,297.0008,304.3964,299.91,309.54" style="stroke:#181818;stroke-width:0.6;"/><text fill="#000000" font-family="sans-serif" font-size="7.8" lengthAdjust="spacing" textLength="29.4" x="295.8" y="245.417">employs</text><text fill="#000000" font-family="sans-serif" font-size="7.8" lengthAdjust="spacing" textLength="3" x="296.2426" y="302.8235">*</text></g><!--SRC=[VL9DRy8m3BtxLrYxm3Q1jciFI8pBE4oJgFW1eJKb8esh96mgq_xxqWzeMifwYMo_Px_dUcAFKXV2Y1nprfmS3EU4pfm8kaeXagF8A7Qb8ZIKEA4p5GBiGQJyBNM6Uw5iM55IaoiBme9LMGKm6IcoSGm1Ar72sgLpHkvEZjO9wrYU2Ly09ehs3XsZaTd1OIehEP8rGCt1-2YLmXz0_yrGYvmYZ7qVdS5l3_CXjBTaMkWp9eQ4exeq3McF4UwO5GdTDNZV3Dbv7TTiE_MKBvPfXU-DciqMpUm8cvI5hjErs2OYt5eF0DXGmLOwDf8iUb0lZb1gwtz7Gh0i2YKJKIqZ9clzKw57iW47LfthxHhd2mmIAzREi59aUhWkNU47QamG3gLxDG-l3_XfCg7bkPPq1PG0u_c6zjIdZNfjs_kjcSxfgOlkcfZVwl9C3kVTPzug-GSSQElPhUTVZ3ON7A6udBzjhgW6TFSIjHURlWrsTsqKOYal59SM_W00]--></g></svg>