<?xml version="1.0" encoding="us-ascii" standalone="no"?><svg xmlns="http://www.w3.org/2000/svg" xmlns:xlink="http://www.w3.org/1999/xlink" contentStyleType="text/css" height="711.5px" preserveAspectRatio="none" style="width:368px;height:711px;background:#FFFFFF;" version="1.1" viewBox="0 0 368 711" width="368.5px" zoomAndPan="magnify"><defs/><g><!--cluster actors--><g id="cluster_actors"><rect fill="none" height="312" rx="1.25" ry="1.25" style="stroke:#FFFF00;stroke-width:0.5;" width="163" x="3.5" y="179.25"/><text fill="#000000" font-family="sans-serif" font-size="7" font-weight="bold" lengthAdjust="spacing" textLength="49.5" x="60.25" y="187.8037">System Actors</text></g><!--cluster usecases--><g id="cluster_usecases"><rect fill="none" height="618" rx="1.25" ry="1.25" style="stroke:#FFFF00;stroke-width:0.5;" width="183" x="182.5" y="90.75"/><text fill="#000000" font-family="sans-serif" font-size="7" font-weight="bold" lengthAdjust="spacing" textLength="37" x="255.5" y="99.3037">Use Cases</text></g><!--entity Freelancer--><g id="elem_Freelancer"><ellipse cx="85" cy="215.75" fill="#F1F1F1" rx="4" ry="4" style="stroke:#181818;stroke-width:0.25;"/><path d="M85,219.75 L85,233.25 M78.5,223.75 L91.5,223.75 M85,233.25 L78.5,240.75 M85,233.25 L91.5,240.75 " fill="none" style="stroke:#181818;stroke-width:0.25;"/><text fill="#000000" font-family="sans-serif" font-size="7" lengthAdjust="spacing" textLength="34.5" x="67.75" y="249.0537">Freelancer</text></g><!--entity HRM--><g id="elem_HRM"><ellipse cx="85" cy="272.75" fill="#F1F1F1" rx="4" ry="4" style="stroke:#181818;stroke-width:0.25;"/><path d="M85,276.75 L85,290.25 M78.5,280.75 L91.5,280.75 M85,290.25 L78.5,297.75 M85,290.25 L91.5,297.75 " fill="none" style="stroke:#181818;stroke-width:0.25;"/><text fill="#000000" font-family="sans-serif" font-size="7" lengthAdjust="spacing" textLength="88" x="41" y="306.0537">Human Resources Manager</text></g><!--entity VFM--><g id="elem_VFM"><ellipse cx="85" cy="329.75" fill="#F1F1F1" rx="4" ry="4" style="stroke:#181818;stroke-width:0.25;"/><path d="M85,333.75 L85,347.25 M78.5,337.75 L91.5,337.75 M85,347.25 L78.5,354.75 M85,347.25 L91.5,354.75 " fill="none" style="stroke:#181818;stroke-width:0.25;"/><text fill="#000000" font-family="sans-serif" font-size="7" lengthAdjust="spacing" textLength="71" x="49.5" y="363.0537">Vehicle Fleet Manager</text></g><!--entity GSM--><g id="elem_GSM"><ellipse cx="85" cy="386.75" fill="#F1F1F1" rx="4" ry="4" style="stroke:#181818;stroke-width:0.25;"/><path d="M85,390.75 L85,404.25 M78.5,394.75 L91.5,394.75 M85,404.25 L78.5,411.75 M85,404.25 L91.5,411.75 " fill="none" style="stroke:#181818;stroke-width:0.25;"/><text fill="#000000" font-family="sans-serif" font-size="7" lengthAdjust="spacing" textLength="72" x="49" y="420.0537">Green Space Manager</text></g><!--entity QAM--><g id="elem_QAM"><ellipse cx="85" cy="443.75" fill="#F1F1F1" rx="4" ry="4" style="stroke:#181818;stroke-width:0.25;"/><path d="M85,447.75 L85,461.25 M78.5,451.75 L91.5,451.75 M85,461.25 L78.5,468.75 M85,461.25 L91.5,468.75 " fill="none" style="stroke:#181818;stroke-width:0.25;"/><text fill="#000000" font-family="sans-serif" font-size="7" lengthAdjust="spacing" textLength="139" x="15.5" y="477.0537">Software Quality Assessment Team Manage</text></g><g id="elem_UC1"><ellipse cx="273.9916" cy="119.2983" fill="#F1F1F1" rx="42.9916" ry="9.7983" style="stroke:#181818;stroke-width:0.25;"/><text fill="#000000" font-family="sans-serif" font-size="7" lengthAdjust="spacing" textLength="62" x="241.4916" y="121.7002">UC1 - Create a Skill</text></g><g id="elem_UC2"><ellipse cx="273.9068" cy="156.1814" fill="#F1F1F1" rx="42.4068" ry="9.6814" style="stroke:#181818;stroke-width:0.25;"/><text fill="#000000" font-family="sans-serif" font-size="7" lengthAdjust="spacing" textLength="60.5" x="242.1568" y="158.5832">UC2 - Create a Job</text></g><g id="elem_UC3"><ellipse cx="273.9259" cy="196.2352" fill="#F1F1F1" rx="56.4259" ry="12.4852" style="stroke:#181818;stroke-width:0.25;"/><text fill="#000000" font-family="sans-serif" font-size="7" lengthAdjust="spacing" textLength="93.5" x="227.1759" y="198.1336">UC3 - Register a Collaborator</text></g><g id="elem_UC4"><ellipse cx="274.0461" cy="236.2592" fill="#F1F1F1" rx="42.7961" ry="9.7592" style="stroke:#181818;stroke-width:0.25;"/><text fill="#000000" font-family="sans-serif" font-size="7" lengthAdjust="spacing" textLength="61.5" x="241.7961" y="238.6611">UC4 - Assign a Skill</text></g><g id="elem_UC5"><ellipse cx="273.9362" cy="274.6872" fill="#F1F1F1" rx="48.6862" ry="10.9372" style="stroke:#181818;stroke-width:0.25;"/><text fill="#000000" font-family="sans-serif" font-size="7" lengthAdjust="spacing" textLength="76" x="234.9799" y="276.9226">UC5 - Generate a Team</text></g><g id="elem_UC6"><ellipse cx="274.0754" cy="314.3151" fill="#F1F1F1" rx="49.3254" ry="11.0651" style="stroke:#181818;stroke-width:0.25;"/><text fill="#000000" font-family="sans-serif" font-size="7" lengthAdjust="spacing" textLength="77.5" x="234.569" y="316.4848">UC6 - Register a Vehicle</text></g><g id="elem_UC7"><ellipse cx="274.0129" cy="358.1526" fill="#F1F1F1" rx="71.0129" ry="15.4026" style="stroke:#181818;stroke-width:0.25;"/><text fill="#000000" font-family="sans-serif" font-size="7" lengthAdjust="spacing" textLength="125" x="211.5129" y="360.051">UC7 - Register a Vehicle's Maintenance</text></g><g id="elem_UC8"><ellipse cx="274.0185" cy="407.7537" fill="#F1F1F1" rx="75.2685" ry="16.2537" style="stroke:#181818;stroke-width:0.25;"/><text fill="#000000" font-family="sans-serif" font-size="7" lengthAdjust="spacing" textLength="134" x="207.0185" y="409.6521">UC8 - List Vehicles that need Maintenance</text></g><g id="elem_UC9"><ellipse cx="273.9081" cy="455.7316" fill="#F1F1F1" rx="65.1581" ry="14.2316" style="stroke:#181818;stroke-width:0.25;"/><text fill="#000000" font-family="sans-serif" font-size="7" lengthAdjust="spacing" textLength="112.5" x="217.6581" y="457.6301">UC9 - Water Consumption Statistics</text></g><g id="elem_UC10"><ellipse cx="273.9559" cy="503.3412" fill="#F1F1F1" rx="71.9559" ry="15.5912" style="stroke:#181818;stroke-width:0.25;"/><text fill="#000000" font-family="sans-serif" font-size="7" lengthAdjust="spacing" textLength="127" x="210.4559" y="505.2396">UC10 - Users' Preferences in Equipment</text></g><g id="elem_UC11"><ellipse cx="273.8782" cy="554.1256" fill="#F1F1F1" rx="83.3782" ry="17.8756" style="stroke:#181818;stroke-width:0.25;"/><text fill="#000000" font-family="sans-serif" font-size="7" lengthAdjust="spacing" textLength="151" x="198.3782" y="556.0241">UC11 - Different Age Groups' Usage of the Park</text></g><g id="elem_UC12"><ellipse cx="273.943" cy="604.1386" fill="#F1F1F1" rx="64.693" ry="14.1386" style="stroke:#181818;stroke-width:0.25;"/><text fill="#000000" font-family="sans-serif" font-size="7" lengthAdjust="spacing" textLength="111.5" x="218.193" y="606.037">UC12 - Import File with Pipe Routes</text></g><g id="elem_UC13"><ellipse cx="273.9701" cy="647.794" fill="#F1F1F1" rx="51.7201" ry="11.544" style="stroke:#181818;stroke-width:0.25;"/><text fill="#000000" font-family="sans-serif" font-size="7" lengthAdjust="spacing" textLength="83" x="232.4029" y="649.7182">UC13 - Apply an Algorithm</text></g><g id="elem_UC14"><ellipse cx="273.948" cy="688.7396" fill="#F1F1F1" rx="53.948" ry="11.9896" style="stroke:#181818;stroke-width:0.25;"/><text fill="#000000" font-family="sans-serif" font-size="7" lengthAdjust="spacing" textLength="88" x="229.948" y="690.638">UC14 - Run Tests for Inputs</text></g><g id="elem_GMN8"><path d="M235.75,60 L235.75,82.291 L312.25,82.291 L312.25,65 L307.25,60 L235.75,60 " fill="#FEFFDD" style="stroke:#181818;stroke-width:0.25;"/><path d="M307.25,60 L307.25,65 L312.25,65 L307.25,60 " fill="#FEFFDD" style="stroke:#181818;stroke-width:0.5;"/><text fill="#000000" font-family="sans-serif" font-size="6.5" lengthAdjust="spacing" textLength="66" x="238.75" y="69.5142">Actor identified but still</text><text fill="#000000" font-family="sans-serif" font-size="6.5" lengthAdjust="spacing" textLength="66" x="238.75" y="78.1597">no concrete use cases</text></g><g id="elem_GMN40"><path d="M226,3 L226,42.582 L322,42.582 L322,8 L317,3 L226,3 " fill="#FEFFDD" style="stroke:#181818;stroke-width:0.25;"/><path d="M317,3 L317,8 L322,8 L317,3 " fill="#FEFFDD" style="stroke:#181818;stroke-width:0.5;"/><text fill="#000000" font-family="sans-serif" font-size="6.5" lengthAdjust="spacing" textLength="82.5" x="229" y="12.5142">Rectangles and Titles are for</text><text fill="#000000" font-family="sans-serif" font-size="6.5" lengthAdjust="spacing" textLength="85.5" x="229" y="21.1597">demonstration purposes only.</text><text fill="#000000" font-family="sans-serif" font-size="6.5" lengthAdjust="spacing" textLength="70" x="229" y="29.8052">Omitt on your diagrams.</text><text fill="#000000" font-family="sans-serif" font-size="6.5" lengthAdjust="spacing" textLength="2" x="229" y="38.4507">&#160;</text></g><!--link Freelancer to GMN8--><g id="link_Freelancer_GMN8"><path d="M102.38,232.56 C122.99,233.12 157.23,230.49 174.5,209.25 C182.075,199.935 171.225,110.805 178.5,101.25 C191.81,83.775 215.295,76.255 235.585,73.115 " fill="none" id="Freelancer-GMN8" style="stroke:#181818;stroke-width:0.5;stroke-dasharray:7.0,7.0;"/></g><!--link HRM to UC1--><g id="link_HRM_UC1"><path d="M129.06,284.86 C145.965,281.19 163.795,273.925 174.5,259.75 C182.675,248.925 169.705,148.075 178.5,137.75 C191.63,122.335 210.4538,117.4855 229.8688,116.5105 " fill="none" id="HRM-to-UC1" style="stroke:#181818;stroke-width:0.5;"/><polygon fill="#181818" points="232.865,116.36,228.2704,114.5882,230.3681,116.4854,228.471,118.5832,232.865,116.36" style="stroke:#181818;stroke-width:0.5;"/></g><!--link HRM to UC2--><g id="link_HRM_UC2"><path d="M129.195,284.735 C146.01,281.035 163.74,273.785 174.5,259.75 C180.25,252.245 172.315,181.905 178.5,174.75 C191.795,159.37 210.7487,154.5444 230.2037,153.5744 " fill="none" id="HRM-to-UC2" style="stroke:#181818;stroke-width:0.5;"/><polygon fill="#181818" points="233.2,153.425,228.606,151.6516,230.7031,153.5495,228.8052,155.6466,233.2,153.425" style="stroke:#181818;stroke-width:0.5;"/></g><!--link HRM to UC3--><g id="link_HRM_UC3"><path d="M129.095,284.425 C145.79,280.67 163.46,273.46 174.5,259.75 C180.38,252.45 172.305,224.79 178.5,217.75 C188.44,206.45 200.0186,201.0243 214.7186,197.9493 " fill="none" id="HRM-to-UC3" style="stroke:#181818;stroke-width:0.5;"/><polygon fill="#181818" points="217.655,197.335,212.8408,196.2988,215.208,197.8469,213.6598,200.214,217.655,197.335" style="stroke:#181818;stroke-width:0.5;"/></g><!--link HRM to UC4--><g id="link_HRM_UC4"><path d="M129.03,279.78 C144.305,275.44 161.005,269.045 174.5,259.75 C176.845,258.135 176.065,256.225 178.5,254.75 C194.455,245.095 211.4604,240.7248 228.9754,238.4298 " fill="none" id="HRM-to-UC4" style="stroke:#181818;stroke-width:0.5;"/><polygon fill="#181818" points="231.95,238.04,227.2283,236.6416,229.4712,238.3648,227.748,240.6077,231.95,238.04" style="stroke:#181818;stroke-width:0.5;"/></g><!--link HRM to UC5--><g id="link_HRM_UC5"><path d="M129.105,285.12 C158.555,283.005 194.3827,280.4297 224.3527,278.2797 " fill="none" id="HRM-to-UC5" style="stroke:#181818;stroke-width:0.5;"/><polygon fill="#181818" points="227.345,278.065,222.7134,276.3921,224.8514,278.2439,222.9996,280.3819,227.345,278.065" style="stroke:#181818;stroke-width:0.5;"/></g><!--link VFM to UC6--><g id="link_VFM_UC6"><path d="M120.64,339.455 C152.895,334.135 197.6649,326.7529 231.1849,321.2279 " fill="none" id="VFM-to-UC6" style="stroke:#181818;stroke-width:0.5;"/><polygon fill="#181818" points="234.145,320.74,229.3796,319.4985,231.6783,321.1466,230.0302,323.4452,234.145,320.74" style="stroke:#181818;stroke-width:0.5;"/></g><!--link VFM to UC7--><g id="link_VFM_UC7"><path d="M120.64,347.68 C144.66,349.34 174.2621,351.3881 203.1871,353.3881 " fill="none" id="VFM-to-UC7" style="stroke:#181818;stroke-width:0.5;"/><polygon fill="#181818" points="206.18,353.595,201.8287,351.2894,203.686,353.4226,201.5528,355.2798,206.18,353.595" style="stroke:#181818;stroke-width:0.5;"/></g><!--link VFM to UC8--><g id="link_VFM_UC8"><path d="M120.68,349.72 C138.545,353.55 159.565,360.64 174.5,373.75 C177.64,376.505 175.3,379.57 178.5,382.25 C187.605,389.865 195.9155,394.2868 207.3505,398.0518 " fill="none" id="VFM-to-UC8" style="stroke:#181818;stroke-width:0.5;"/><polygon fill="#181818" points="210.2,398.99,206.5512,395.683,207.8254,398.2082,205.3002,399.4824,210.2,398.99" style="stroke:#181818;stroke-width:0.5;"/></g><!--link GSM to UC9--><g id="link_GSM_UC9"><path d="M121.03,412.26 C137.505,417.245 157.22,423.71 174.5,430.75 C176.34,431.5 176.635,432.065 178.5,432.75 C193.32,438.17 206.9896,442.0034 222.1096,445.5584 " fill="none" id="GSM-to-UC9" style="stroke:#181818;stroke-width:0.5;"/><polygon fill="#181818" points="225.03,446.245,221.1072,443.2681,222.5964,445.6728,220.1917,447.162,225.03,446.245" style="stroke:#181818;stroke-width:0.5;"/></g><!--link GSM to UC10--><g id="link_GSM_UC10"><path d="M121.195,404.46 C140.015,407.6 161.775,414.75 174.5,430.75 C181.165,439.125 171.6,470.57 178.5,478.75 C185.97,487.605 193.3404,492.4834 204.3004,496.3434 " fill="none" id="GSM-to-UC10" style="stroke:#181818;stroke-width:0.5;"/><polygon fill="#181818" points="207.13,497.34,203.5499,493.9587,204.772,496.5095,202.2212,497.7316,207.13,497.34" style="stroke:#181818;stroke-width:0.5;"/></g><!--link GSM to UC11--><g id="link_GSM_UC11"><path d="M121.01,404.18 C140.01,407.22 162.015,414.36 174.5,430.75 C181.035,439.33 171.8,519.295 178.5,527.75 C184.615,535.465 190.0374,539.828 199.0174,543.853 " fill="none" id="GSM-to-UC11" style="stroke:#181818;stroke-width:0.5;"/><polygon fill="#181818" points="201.755,545.08,198.4666,541.4144,199.4737,544.0575,196.8306,545.0645,201.755,545.08" style="stroke:#181818;stroke-width:0.5;"/></g><!--link GSM to UC12--><g id="link_GSM_UC12"><path d="M121.1,404.11 C140.135,407.125 162.135,414.27 174.5,430.75 C184.54,444.13 167.985,568.24 178.5,581.25 C186.61,591.28 195.3952,596.5393 207.7952,600.1593 " fill="none" id="GSM-to-UC12" style="stroke:#181818;stroke-width:0.5;"/><polygon fill="#181818" points="210.675,601,206.9158,597.8191,208.2752,600.2994,205.7948,601.6588,210.675,601" style="stroke:#181818;stroke-width:0.5;"/></g><!--link GSM to UC13--><g id="link_GSM_UC13"><path d="M121.14,404.085 C140.185,407.085 162.185,414.23 174.5,430.75 C181.025,439.505 171.555,618.825 178.5,627.25 C189.175,640.205 202.9383,645.7391 219.4033,648.2141 " fill="none" id="GSM-to-UC13" style="stroke:#181818;stroke-width:0.5;"/><polygon fill="#181818" points="222.37,648.66,218.2173,646.0133,219.8978,648.2884,217.6227,649.9689,222.37,648.66" style="stroke:#181818;stroke-width:0.5;"/></g><!--link QAM to UC14--><g id="link_QAM_UC14"><path d="M88.285,479.095 C95.27,521.005 117.55,618.725 178.5,668.25 C190.48,677.985 203.0898,682.8092 218.1298,685.7242 " fill="none" id="QAM-to-UC14" style="stroke:#181818;stroke-width:0.5;"/><polygon fill="#181818" points="221.075,686.295,217.0378,683.4753,218.6207,685.8193,216.2767,687.4022,221.075,686.295" style="stroke:#181818;stroke-width:0.5;"/></g><!--link actors to GMN40--><g id="link_actors_GMN40"><path d="M90.9829,179.1679 C91.1001,178.8764 91.2191,178.5812 91.3399,178.2825 C91.5816,177.685 91.8308,177.0733 92.0873,176.4477 C96.1922,166.4392 102.1931,152.9072 110.0263,138.0744 C125.6925,108.4088 148.6875,73.54 178.5,51.25 C192.22,40.99 209.63,34.4 225.78,30.18 " fill="none" id="actors-GMN40" style="stroke:#181818;stroke-width:0.5;stroke-dasharray:7.0,7.0;"/></g><!--SRC=[RLLDRzim3BtxLn2zvDIYITEFN0PaQPDsMB4sRhkpQjEE45do91fPCEo_ZvBjV2ZB8J3bzqY9V7eUkBNKjR2YWifeawsigH38DfZitzGYMuiIKzeg18iP2LqgJ0PxX5k9t6oaBg4Goc5oGDxX_oJ0lw_6vcXdHXaBMrJAR9A_IJ8WIPpxtI7C1F_TIr5wyiDlKTLSAb5O4901AyiLGIvzLcbqakpImrcwTOGLJ3Corfs1S2328xILGm1pYwY4pj0UB9uzDfNGi4Hd6fkXWsUX-S0s97bSFXz2Ft0bCoutLuXq1FoO7m4NN4b3oit38zWYFOAbfg2Di0YlZL2IjZ1r3fshK1Ey8VUWvGRgw_JPTolHXh1hXIdY8uNpWymvWImavl3P43YIIeNNsa1cT6QHKpJSwepxxHBKEVYiHmtjnz4say41stQpYnWq6y8vp2mAJYWWNNEXWESNCN9qYFncFZlSACPTCMw9fUHvMaQoMfJuD5RmmJhALKmPCuKx9qiTRM8S8wyPkK2Djjs6xt47lOwXDyVxw4RVeMzYzEr_qGEl9ga9jHzHnxsDkNVC_SxCdkM0Le908y_lb7uNqoTC_obytPdHhgbgVpaW9K6SKsQkuqrEHdV9H1wpTGDuiLYWHUtrBpKy_6faxLNO3_FoXEm7Vo-Bm2AObWWBQvgQSxqxbgpN9gqGNeHTzqbE937qcdYgQcC9vf9Ljv6qWXTP8onDGzXlVNWYag5NoRIkrHRuxavLQInJ-raEJnGoz19PDfedxiX1mPVaITSDxIgCaq3X-mxdvrzs-jt7eoY-Yk9n5BTwObleufieletYTgpi3rqyYU9k10SBmtXX52-qUsJZw1VubEmXnmxI-cH0Bllhp-x9dl3cVPaVsP-uOG6H8tyf7F7ryHgh6riRTWKmMcql0k179OdJQjYocx9N1ojt5ydUPFu1]--></g></svg>