<?xml version="1.0" encoding="us-ascii" standalone="no"?><svg xmlns="http://www.w3.org/2000/svg" xmlns:xlink="http://www.w3.org/1999/xlink" contentStyleType="text/css" height="2641px" preserveAspectRatio="none" style="width:732px;height:2641px;background:#FFFFFF;" version="1.1" viewBox="0 0 732 2641" width="732px" zoomAndPan="magnify"><defs/><g><!--cluster actors--><g id="cluster_actors"><rect fill="none" height="589" rx="2.5" ry="2.5" style="stroke:#FFFF00;stroke-width:1.0;" width="310" x="7" y="1017"/><text fill="#000000" font-family="sans-serif" font-size="14" font-weight="bold" lengthAdjust="spacing" textLength="99" x="112.5" y="1034.1074">System Actors</text></g><!--cluster usecases--><g id="cluster_usecases"><rect fill="none" height="2628" rx="2.5" ry="2.5" style="stroke:#FFFF00;stroke-width:1.0;" width="381" x="345" y="7"/><text fill="#000000" font-family="sans-serif" font-size="14" font-weight="bold" lengthAdjust="spacing" textLength="74" x="498.5" y="24.1074">Use Cases</text></g><!--entity HRM--><g id="elem_HRM"><ellipse cx="162" cy="1063" fill="#F1F1F1" rx="8" ry="8" style="stroke:#181818;stroke-width:0.5;"/><path d="M162,1071 L162,1098 M149,1079 L175,1079 M162,1098 L149,1113 M162,1098 L175,1113 " fill="none" style="stroke:#181818;stroke-width:0.5;"/><text fill="#000000" font-family="sans-serif" font-size="14" lengthAdjust="spacing" textLength="176" x="74" y="1129.6074">Human Resources Manager</text></g><!--entity VFM--><g id="elem_VFM"><ellipse cx="162" cy="1177" fill="#F1F1F1" rx="8" ry="8" style="stroke:#181818;stroke-width:0.5;"/><path d="M162,1185 L162,1212 M149,1193 L175,1193 M162,1212 L149,1227 M162,1212 L175,1227 " fill="none" style="stroke:#181818;stroke-width:0.5;"/><text fill="#000000" font-family="sans-serif" font-size="14" lengthAdjust="spacing" textLength="142" x="91" y="1243.6074">Vehicle Fleet Manager</text></g><!--entity GSM--><g id="elem_GSM"><ellipse cx="162" cy="1291" fill="#F1F1F1" rx="8" ry="8" style="stroke:#181818;stroke-width:0.5;"/><path d="M162,1299 L162,1326 M149,1307 L175,1307 M162,1326 L149,1341 M162,1326 L175,1341 " fill="none" style="stroke:#181818;stroke-width:0.5;"/><text fill="#000000" font-family="sans-serif" font-size="14" lengthAdjust="spacing" textLength="144" x="90" y="1357.6074">Green Space Manager</text></g><!--entity QAM--><g id="elem_QAM"><ellipse cx="162" cy="1405" fill="#F1F1F1" rx="8" ry="8" style="stroke:#181818;stroke-width:0.5;"/><path d="M162,1413 L162,1440 M149,1421 L175,1421 M162,1440 L149,1455 M162,1440 L175,1455 " fill="none" style="stroke:#181818;stroke-width:0.5;"/><text fill="#000000" font-family="sans-serif" font-size="14" lengthAdjust="spacing" textLength="278" x="23" y="1471.6074">Software Quality Assessment Team Manage</text></g><!--entity Collaborator--><g id="elem_Collaborator"><ellipse cx="162" cy="1519" fill="#F1F1F1" rx="8" ry="8" style="stroke:#181818;stroke-width:0.5;"/><path d="M162,1527 L162,1554 M149,1535 L175,1535 M162,1554 L149,1569 M162,1554 L175,1569 " fill="none" style="stroke:#181818;stroke-width:0.5;"/><text fill="#000000" font-family="sans-serif" font-size="14" lengthAdjust="spacing" textLength="78" x="123" y="1585.6074">Collaborator</text></g><g id="elem_UC1"><ellipse cx="535.4832" cy="378.0966" fill="#F1F1F1" rx="85.9832" ry="19.5966" style="stroke:#181818;stroke-width:0.5;"/><text fill="#000000" font-family="sans-serif" font-size="14" lengthAdjust="spacing" textLength="124" x="470.4832" y="382.9003">UC1 - Create a Skill</text></g><g id="elem_UC2"><ellipse cx="535.3136" cy="63.8627" fill="#F1F1F1" rx="84.8136" ry="19.3627" style="stroke:#181818;stroke-width:0.5;"/><text fill="#000000" font-family="sans-serif" font-size="14" lengthAdjust="spacing" textLength="121" x="471.8136" y="68.6664">UC2 - Create a Job</text></g><g id="elem_UC3"><ellipse cx="535.3518" cy="143.9704" fill="#F1F1F1" rx="112.8518" ry="24.9704" style="stroke:#181818;stroke-width:0.5;"/><text fill="#000000" font-family="sans-serif" font-size="14" lengthAdjust="spacing" textLength="187" x="441.8518" y="147.7672">UC3 - Register a Collaborator</text></g><g id="elem_UC4"><ellipse cx="535.5921" cy="224.0184" fill="#F1F1F1" rx="85.5921" ry="19.5184" style="stroke:#181818;stroke-width:0.5;"/><text fill="#000000" font-family="sans-serif" font-size="14" lengthAdjust="spacing" textLength="123" x="471.0921" y="228.8221">UC4 - Assign a Skill</text></g><g id="elem_UC5"><ellipse cx="535.3725" cy="300.8745" fill="#F1F1F1" rx="97.3725" ry="21.8745" style="stroke:#181818;stroke-width:0.5;"/><text fill="#000000" font-family="sans-serif" font-size="14" lengthAdjust="spacing" textLength="152" x="457.4599" y="305.3452">UC5 - Generate a Team</text></g><g id="elem_UC6"><ellipse cx="535.6507" cy="653.1301" fill="#F1F1F1" rx="98.6507" ry="22.1301" style="stroke:#181818;stroke-width:0.5;"/><text fill="#000000" font-family="sans-serif" font-size="14" lengthAdjust="spacing" textLength="155" x="456.638" y="657.4697">UC6 - Register a Vehicle</text></g><g id="elem_UC7"><ellipse cx="535.5257" cy="463.8051" fill="#F1F1F1" rx="142.0257" ry="30.8051" style="stroke:#181818;stroke-width:0.5;"/><text fill="#000000" font-family="sans-serif" font-size="14" lengthAdjust="spacing" textLength="250" x="410.5257" y="467.602">UC7 - Register a Vehicle's Maintenance</text></g><g id="elem_UC8"><ellipse cx="535.537" cy="563.0074" fill="#F1F1F1" rx="150.537" ry="32.5074" style="stroke:#181818;stroke-width:0.5;"/><text fill="#000000" font-family="sans-serif" font-size="14" lengthAdjust="spacing" textLength="268" x="401.537" y="566.8043">UC8 - List Vehicles that need Maintenance</text></g><g id="elem_UC9"><ellipse cx="535.3162" cy="1849.9632" fill="#F1F1F1" rx="130.3162" ry="28.4632" style="stroke:#181818;stroke-width:0.5;"/><text fill="#000000" font-family="sans-serif" font-size="14" lengthAdjust="spacing" textLength="225" x="422.8162" y="1853.7601">UC9 - Water Consumption Statistics</text></g><g id="elem_UC10"><ellipse cx="535.4119" cy="1945.1824" fill="#F1F1F1" rx="143.9119" ry="31.1824" style="stroke:#181818;stroke-width:0.5;"/><text fill="#000000" font-family="sans-serif" font-size="14" lengthAdjust="spacing" textLength="254" x="408.4119" y="1948.9793">UC10 - Users' Preferences in Equipment</text></g><g id="elem_UC11"><ellipse cx="535.2564" cy="2046.7513" fill="#F1F1F1" rx="166.7564" ry="35.7513" style="stroke:#181818;stroke-width:0.5;"/><text fill="#000000" font-family="sans-serif" font-size="14" lengthAdjust="spacing" textLength="302" x="384.2564" y="2050.5482">UC11 - Different Age Groups' Usage of the Park</text></g><g id="elem_UC12"><ellipse cx="535.3859" cy="2146.7772" fill="#F1F1F1" rx="129.3859" ry="28.2772" style="stroke:#181818;stroke-width:0.5;"/><text fill="#000000" font-family="sans-serif" font-size="14" lengthAdjust="spacing" textLength="223" x="423.8859" y="2150.5741">UC12 - Import File with Pipe Routes</text></g><g id="elem_UC13"><ellipse cx="535.4402" cy="2234.088" fill="#F1F1F1" rx="103.4402" ry="23.088" style="stroke:#181818;stroke-width:0.5;"/><text fill="#000000" font-family="sans-serif" font-size="14" lengthAdjust="spacing" textLength="166" x="452.3058" y="2237.9363">UC13 - Apply an Algorithm</text></g><g id="elem_UC14"><ellipse cx="535.3959" cy="2418.9792" fill="#F1F1F1" rx="107.8959" ry="23.9792" style="stroke:#181818;stroke-width:0.5;"/><text fill="#000000" font-family="sans-serif" font-size="14" lengthAdjust="spacing" textLength="176" x="447.3959" y="2422.7761">UC14 - Run Tests for Inputs</text></g><g id="elem_UC15"><ellipse cx="535.72" cy="741.844" fill="#F1F1F1" rx="147.22" ry="31.844" style="stroke:#181818;stroke-width:0.5;"/><text fill="#000000" font-family="sans-serif" font-size="14" lengthAdjust="spacing" textLength="261" x="405.22" y="745.6409">UC15 - Predict Water Consumption Costs</text></g><g id="elem_UC16"><ellipse cx="535.5839" cy="840.1168" fill="#F1F1F1" rx="141.0839" ry="30.6168" style="stroke:#181818;stroke-width:0.5;"/><text fill="#000000" font-family="sans-serif" font-size="14" lengthAdjust="spacing" textLength="248" x="411.5839" y="843.9137">UC16 - Polynomial Regression Analysis</text></g><g id="elem_UC17"><ellipse cx="535.2564" cy="941.7513" fill="#F1F1F1" rx="166.7564" ry="35.7513" style="stroke:#181818;stroke-width:0.5;"/><text fill="#000000" font-family="sans-serif" font-size="14" lengthAdjust="spacing" textLength="302" x="384.2564" y="945.5482">UC17 - Shortest Route to Single Assembly Point</text></g><g id="elem_UC18"><ellipse cx="535.4414" cy="1050.7883" fill="#F1F1F1" rx="174.4414" ry="37.2883" style="stroke:#181818;stroke-width:0.5;"/><text fill="#000000" font-family="sans-serif" font-size="14" lengthAdjust="spacing" textLength="318" x="376.4414" y="1054.5852">UC18 - Shortest Route to Multiple Assembly Points</text></g><g id="elem_UC19"><ellipse cx="535.7422" cy="2326.1484" fill="#F1F1F1" rx="156.2422" ry="33.6484" style="stroke:#181818;stroke-width:0.5;"/><text fill="#000000" font-family="sans-serif" font-size="14" lengthAdjust="spacing" textLength="280" x="395.7422" y="2329.9453">UC19 - Analyze Worst-case Time Complexity</text></g><g id="elem_UC20"><ellipse cx="535.73" cy="1150.246" fill="#F1F1F1" rx="119.23" ry="26.246" style="stroke:#181818;stroke-width:0.5;"/><text fill="#000000" font-family="sans-serif" font-size="14" lengthAdjust="spacing" textLength="201" x="435.23" y="1154.0429">UC20 - Register a Green Space</text></g><g id="elem_UC21"><ellipse cx="535.5317" cy="1237.1063" fill="#F1F1F1" rx="116.0317" ry="25.6063" style="stroke:#181818;stroke-width:0.5;"/><text fill="#000000" font-family="sans-serif" font-size="14" lengthAdjust="spacing" textLength="194" x="438.5317" y="1240.9032">UC21 - Add Task to To-Do List</text></g><g id="elem_UC22"><ellipse cx="535.3442" cy="1322.0688" fill="#F1F1F1" rx="108.3442" ry="24.0688" style="stroke:#181818;stroke-width:0.5;"/><text fill="#000000" font-family="sans-serif" font-size="14" lengthAdjust="spacing" textLength="177" x="446.8442" y="1325.8657">UC22 - Add Task to Agenda</text></g><g id="elem_UC23"><ellipse cx="535.642" cy="1405.9284" fill="#F1F1F1" rx="110.142" ry="24.4284" style="stroke:#181818;stroke-width:0.5;"/><text fill="#000000" font-family="sans-serif" font-size="14" lengthAdjust="spacing" textLength="181" x="445.142" y="1409.7253">UC23 - Assign Team to Task</text></g><g id="elem_UC24"><ellipse cx="535.328" cy="1493.1656" fill="#F1F1F1" rx="123.828" ry="27.1656" style="stroke:#181818;stroke-width:0.5;"/><text fill="#000000" font-family="sans-serif" font-size="14" lengthAdjust="spacing" textLength="211" x="429.828" y="1496.9625">UC24 - Postpone Task in Agenda</text></g><g id="elem_UC25"><ellipse cx="535.4875" cy="1581.1975" fill="#F1F1F1" rx="116.4875" ry="25.6975" style="stroke:#181818;stroke-width:0.5;"/><text fill="#000000" font-family="sans-serif" font-size="14" lengthAdjust="spacing" textLength="195" x="437.9875" y="1584.9944">UC25 - Cancel Task in Agenda</text></g><g id="elem_UC26"><ellipse cx="535.3571" cy="1667.9714" fill="#F1F1F1" rx="117.8571" ry="25.9714" style="stroke:#181818;stroke-width:0.5;"/><text fill="#000000" font-family="sans-serif" font-size="14" lengthAdjust="spacing" textLength="198" x="436.3571" y="1671.7683">UC26 - Assign Vehicles to Task</text></g><g id="elem_UC27"><ellipse cx="535.7135" cy="1758.2427" fill="#F1F1F1" rx="131.7135" ry="28.7427" style="stroke:#181818;stroke-width:0.5;"/><text fill="#000000" font-family="sans-serif" font-size="14" lengthAdjust="spacing" textLength="228" x="421.7135" y="1762.0396">UC27 - List Managed Green Spaces</text></g><g id="elem_UC28"><ellipse cx="535.272" cy="2593.1544" fill="#F1F1F1" rx="118.772" ry="26.1544" style="stroke:#181818;stroke-width:0.5;"/><text fill="#000000" font-family="sans-serif" font-size="14" lengthAdjust="spacing" textLength="200" x="435.272" y="2596.9513">UC28 - Consult Assigned Tasks</text></g><g id="elem_UC29"><ellipse cx="535.6059" cy="2505.0212" fill="#F1F1F1" rx="120.6059" ry="26.5212" style="stroke:#181818;stroke-width:0.5;"/><text fill="#000000" font-family="sans-serif" font-size="14" lengthAdjust="spacing" textLength="204" x="433.6059" y="2508.8181">UC29 - Record Task Completion</text></g><!--link HRM to UC1--><g id="link_HRM_UC1"><path d="M167.61,1054.21 C183.68,922.57 241.51,504.42 337,415 C367.17,386.74 405.7434,377.1205 444.9034,374.5005 " fill="none" id="HRM-to-UC1" style="stroke:#181818;stroke-width:1.0;"/><polygon fill="#181818" points="450.89,374.1,441.6431,370.7097,445.9012,374.4338,442.1771,378.6919,450.89,374.1" style="stroke:#181818;stroke-width:1.0;"/></g><!--link HRM to UC2--><g id="link_HRM_UC2"><path d="M164.14,1054.27 C169.77,886.63 200.2,239.41 337,101 C366.92,70.73 407.1773,61.2064 447.4073,59.2164 " fill="none" id="HRM-to-UC2" style="stroke:#181818;stroke-width:1.0;"/><polygon fill="#181818" points="453.4,58.92,444.2134,55.3695,448.4061,59.167,444.6086,63.3598,453.4,58.92" style="stroke:#181818;stroke-width:1.0;"/></g><!--link HRM to UC3--><g id="link_HRM_UC3"><path d="M164.96,1054.35 C173.59,896.3 213.43,313.68 337,187 C359.48,163.95 385.3251,153.0183 416.7951,147.0483 " fill="none" id="HRM-to-UC3" style="stroke:#181818;stroke-width:1.0;"/><polygon fill="#181818" points="422.69,145.93,413.1022,143.6775,417.7776,146.8619,414.5932,151.5373,422.69,145.93" style="stroke:#181818;stroke-width:1.0;"/></g><!--link HRM to UC4--><g id="link_HRM_UC4"><path d="M165.57,1054.44 C176.15,904.54 221.3,374.33 337,261 C367.03,231.59 406.5597,222.0004 446.3297,219.7404 " fill="none" id="HRM-to-UC4" style="stroke:#181818;stroke-width:1.0;"/><polygon fill="#181818" points="452.32,219.4,443.1076,215.9171,447.3281,219.6837,443.5614,223.9042,452.32,219.4" style="stroke:#181818;stroke-width:1.0;"/></g><!--link HRM to UC5--><g id="link_HRM_UC5"><path d="M166.57,1054.45 C180.07,914.06 232.55,442.64 337,341 C363.64,315.08 396.2332,304.4985 432.2132,300.1585 " fill="none" id="HRM-to-UC5" style="stroke:#181818;stroke-width:1.0;"/><polygon fill="#181818" points="438.17,299.44,428.7558,296.5466,433.206,300.0388,429.7138,304.489,438.17,299.44" style="stroke:#181818;stroke-width:1.0;"/></g><!--link VFM to UC6--><g id="link_VFM_UC6"><path d="M233.34,1201.41 C266.72,1194.38 303.85,1180.04 325,1151 C355.03,1109.76 304.1,730.99 337,692 C361.85,662.55 395.9536,651.7712 433.5336,648.4312 " fill="none" id="VFM-to-UC6" style="stroke:#181818;stroke-width:1.0;"/><polygon fill="#181818" points="439.51,647.9,430.1912,644.7125,434.5296,648.3426,430.8994,652.681,439.51,647.9" style="stroke:#181818;stroke-width:1.0;"/></g><!--link VFM to UC7--><g id="link_VFM_UC7"><path d="M233.01,1201.56 C266.53,1194.58 303.87,1180.24 325,1151 C345.76,1122.26 314.9,540.72 337,513 C352.75,493.25 369.4036,482.5639 393.4436,474.7539 " fill="none" id="VFM-to-UC7" style="stroke:#181818;stroke-width:1.0;"/><polygon fill="#181818" points="399.15,472.9,389.3545,471.8765,394.3947,474.4449,391.8263,479.4851,399.15,472.9" style="stroke:#181818;stroke-width:1.0;"/></g><!--link VFM to UC8--><g id="link_VFM_UC8"><path d="M233.39,1201.44 C266.78,1194.42 303.91,1180.09 325,1151 C342.55,1126.8 318.37,636.39 337,613 C351.65,594.6 366.3774,584.4298 388.5074,576.4298 " fill="none" id="VFM-to-UC8" style="stroke:#181818;stroke-width:1.0;"/><polygon fill="#181818" points="394.15,574.39,384.3262,573.688,389.4478,576.0898,387.0459,581.2115,394.15,574.39" style="stroke:#181818;stroke-width:1.0;"/></g><!--link GSM to UC9--><g id="link_GSM_UC9"><path d="M234.14,1328.79 C267.3,1335.89 304,1350.22 325,1379 C352.85,1417.16 307.11,1767.42 337,1804 C354.54,1825.47 374.1841,1836.5284 401.0041,1843.7084 " fill="none" id="GSM-to-UC9" style="stroke:#181818;stroke-width:1.0;"/><polygon fill="#181818" points="406.8,1845.26,399.1406,1839.0686,401.9701,1843.967,397.0717,1846.7965,406.8,1845.26" style="stroke:#181818;stroke-width:1.0;"/></g><!--link GSM to UC10--><g id="link_GSM_UC10"><path d="M234.21,1328.74 C267.38,1335.83 304.07,1350.17 325,1379 C341.88,1402.25 319.04,1873.58 337,1896 C352.52,1915.37 368.6967,1925.9063 392.2667,1933.7463 " fill="none" id="GSM-to-UC10" style="stroke:#181818;stroke-width:1.0;"/><polygon fill="#181818" points="397.96,1935.64,390.6825,1929.0038,393.2156,1934.0619,388.1575,1936.5949,397.96,1935.64" style="stroke:#181818;stroke-width:1.0;"/></g><!--link GSM to UC11--><g id="link_GSM_UC11"><path d="M234.25,1328.71 C267.44,1335.79 304.12,1350.13 325,1379 C344.99,1406.65 316.04,1966.08 337,1993 C350.11,2009.83 362.4025,2019.3726 381.9925,2027.7426 " fill="none" id="GSM-to-UC11" style="stroke:#181818;stroke-width:1.0;"/><polygon fill="#181818" points="387.51,2030.1,380.8054,2022.8856,382.9121,2028.1355,377.6622,2030.2422,387.51,2030.1" style="stroke:#181818;stroke-width:1.0;"/></g><!--link GSM to UC12--><g id="link_GSM_UC12"><path d="M234.29,1328.68 C267.48,1335.76 304.17,1350.1 325,1379 C348.43,1411.5 311.91,2068.77 337,2100 C354.66,2121.98 374.7718,2133.2669 402.0518,2140.5269 " fill="none" id="GSM-to-UC12" style="stroke:#181818;stroke-width:1.0;"/><polygon fill="#181818" points="407.85,2142.07,400.1814,2135.8899,403.0182,2140.7841,398.124,2143.6209,407.85,2142.07" style="stroke:#181818;stroke-width:1.0;"/></g><!--link GSM to UC13--><g id="link_GSM_UC13"><path d="M234.31,1328.67 C267.51,1335.74 304.19,1350.08 325,1379 C351.41,1415.71 308.2,2158.13 337,2193 C360.25,2221.15 391.3641,2232.444 427.1341,2236.804 " fill="none" id="GSM-to-UC13" style="stroke:#181818;stroke-width:1.0;"/><polygon fill="#181818" points="433.09,2237.53,424.6401,2232.4704,428.1267,2236.925,423.6721,2240.4117,433.09,2237.53" style="stroke:#181818;stroke-width:1.0;"/></g><!--link QAM to UC14--><g id="link_QAM_UC14"><path d="M301.33,1469.84 C310.39,1476.28 318.48,1483.92 325,1493 C353.66,1532.89 305.83,2339.04 337,2377 C359.08,2403.89 387.7845,2415.3623 421.9345,2420.4123 " fill="none" id="QAM-to-UC14" style="stroke:#181818;stroke-width:1.0;"/><polygon fill="#181818" points="427.87,2421.29,419.552,2416.0165,422.9238,2420.5586,418.3817,2423.9304,427.87,2421.29" style="stroke:#181818;stroke-width:1.0;"/></g><!--link GSM to UC15--><g id="link_GSM_UC15"><path d="M234.18,1315.24 C267.35,1308.15 304.04,1293.81 325,1265 C355.93,1222.49 304.18,833.07 337,792 C352.23,772.93 367.9284,762.4677 391.0184,754.4977 " fill="none" id="GSM-to-UC15" style="stroke:#181818;stroke-width:1.0;"/><polygon fill="#181818" points="396.69,752.54,386.8774,751.6954,391.9636,754.1714,389.4877,759.2576,396.69,752.54" style="stroke:#181818;stroke-width:1.0;"/></g><!--link GSM to UC16--><g id="link_GSM_UC16"><path d="M234.1,1315.18 C267.25,1308.07 303.95,1293.74 325,1265 C349.76,1231.19 310.58,920.53 337,888 C352.96,868.35 369.7719,857.7577 393.9319,850.0777 " fill="none" id="GSM-to-UC16" style="stroke:#181818;stroke-width:1.0;"/><polygon fill="#181818" points="399.65,848.26,389.8611,847.1745,394.885,849.7747,392.2847,854.7985,399.65,848.26" style="stroke:#181818;stroke-width:1.0;"/></g><!--link GSM to UC17--><g id="link_GSM_UC17"><path d="M234.36,1314.98 C267.36,1307.81 303.85,1293.49 325,1265 C342.83,1240.98 318.32,1019.37 337,996 C350.32,979.34 362.7163,969.8628 382.3563,961.5328 " fill="none" id="GSM-to-UC17" style="stroke:#181818;stroke-width:1.0;"/><polygon fill="#181818" points="387.88,959.19,378.0326,959.0217,383.2769,961.1423,381.1563,966.3867,387.88,959.19" style="stroke:#181818;stroke-width:1.0;"/></g><!--link GSM to UC18--><g id="link_GSM_UC18"><path d="M234.4,1314.6 C267.2,1307.34 303.51,1293.04 325,1265 C346.55,1236.88 314.52,1133.39 337,1106 C349.98,1090.18 361.6145,1081.1209 380.3445,1072.8209 " fill="none" id="GSM-to-UC18" style="stroke:#181818;stroke-width:1.0;"/><polygon fill="#181818" points="385.83,1070.39,375.9811,1070.3793,381.2587,1072.4157,379.2223,1077.6933,385.83,1070.39" style="stroke:#181818;stroke-width:1.0;"/></g><!--link QAM to UC19--><g id="link_QAM_UC19"><path d="M301.31,1469.86 C310.37,1476.29 318.47,1483.93 325,1493 C350.35,1528.22 310.25,2239.84 337,2274 C351.1,2292.01 365.0322,2302.0801 386.3622,2310.3101 " fill="none" id="QAM-to-UC19" style="stroke:#181818;stroke-width:1.0;"/><polygon fill="#181818" points="391.96,2312.47,385.0032,2305.4984,387.2952,2310.6701,382.1234,2312.9621,391.96,2312.47" style="stroke:#181818;stroke-width:1.0;"/></g><!--link GSM to UC20--><g id="link_GSM_UC20"><path d="M234.13,1313.53 C266.45,1306 302.43,1291.8 325,1265 C345.62,1240.52 314.96,1217.21 337,1194 C357.98,1171.9 381.5557,1160.999 411.3157,1154.559 " fill="none" id="GSM-to-UC20" style="stroke:#181818;stroke-width:1.0;"/><polygon fill="#181818" points="417.18,1153.29,407.5376,1151.284,412.2931,1154.3475,409.2296,1159.103,417.18,1153.29" style="stroke:#181818;stroke-width:1.0;"/></g><!--link GSM to UC21--><g id="link_GSM_UC21"><path d="M234.03,1304.47 C265.53,1296.8 303.08,1287.79 337,1280 C374.45,1271.4 410.1349,1263.5551 445.4149,1255.9451 " fill="none" id="GSM-to-UC21" style="stroke:#181818;stroke-width:1.0;"/><polygon fill="#181818" points="451.28,1254.68,441.6389,1252.6676,446.3924,1255.7343,443.3258,1260.4878,451.28,1254.68" style="stroke:#181818;stroke-width:1.0;"/></g><!--link GSM to UC22--><g id="link_GSM_UC22"><path d="M234.19,1322 C288.76,1322 358.97,1322 420.96,1322 " fill="none" id="GSM-to-UC22" style="stroke:#181818;stroke-width:1.0;"/><polygon fill="#181818" points="426.96,1322,417.96,1318,421.96,1322,417.96,1326,426.96,1322" style="stroke:#181818;stroke-width:1.0;"/></g><!--link GSM to UC23--><g id="link_GSM_UC23"><path d="M234.05,1339.03 C265.56,1346.51 303.1,1355.32 337,1363 C376.01,1371.84 413.5851,1380.074 449.7651,1387.884 " fill="none" id="GSM-to-UC23" style="stroke:#181818;stroke-width:1.0;"/><polygon fill="#181818" points="455.63,1389.15,447.6767,1383.341,450.7426,1388.095,445.9886,1391.1609,455.63,1389.15" style="stroke:#181818;stroke-width:1.0;"/></g><!--link GSM to UC24--><g id="link_GSM_UC24"><path d="M234.07,1330.52 C266.38,1338.06 302.37,1352.26 325,1379 C345.11,1402.76 315.57,1425.43 337,1448 C357.1,1469.17 379.0837,1479.9481 407.5137,1486.7281 " fill="none" id="GSM-to-UC24" style="stroke:#181818;stroke-width:1.0;"/><polygon fill="#181818" points="413.35,1488.12,405.5234,1482.1413,408.4864,1486.9601,403.6676,1489.9231,413.35,1488.12" style="stroke:#181818;stroke-width:1.0;"/></g><!--link GSM to UC25--><g id="link_GSM_UC25"><path d="M234.4,1329.4 C267.2,1336.67 303.5,1350.96 325,1379 C346.43,1406.94 313.95,1510.38 337,1537 C357.64,1560.83 382.1988,1572.1719 413.0388,1578.4019 " fill="none" id="GSM-to-UC25" style="stroke:#181818;stroke-width:1.0;"/><polygon fill="#181818" points="418.92,1579.59,410.8902,1573.8871,414.019,1578.5999,409.3062,1581.7287,418.92,1579.59" style="stroke:#181818;stroke-width:1.0;"/></g><!--link GSM to UC26--><g id="link_GSM_UC26"><path d="M234.31,1329.06 C267.3,1336.24 303.79,1350.56 325,1379 C341.29,1400.85 319.44,1603.16 337,1624 C357.09,1647.84 381.1134,1659.2296 411.6034,1665.5096 " fill="none" id="GSM-to-UC26" style="stroke:#181818;stroke-width:1.0;"/><polygon fill="#181818" points="417.48,1666.72,409.472,1660.9866,412.5828,1665.7113,407.8581,1668.8222,417.48,1666.72" style="stroke:#181818;stroke-width:1.0;"/></g><!--link GSM to UC27--><g id="link_GSM_UC27"><path d="M234.05,1328.86 C267.18,1335.98 303.89,1350.3 325,1379 C346.88,1408.73 313.6,1682.45 337,1711 C354.48,1732.33 373.9451,1743.4177 400.5751,1750.7477 " fill="none" id="GSM-to-UC27" style="stroke:#181818;stroke-width:1.0;"/><polygon fill="#181818" points="406.36,1752.34,398.7442,1746.095,401.5393,1751.0131,396.6212,1753.8081,406.36,1752.34" style="stroke:#181818;stroke-width:1.0;"/></g><!--link Collaborator to UC28--><g id="link_Collaborator_UC28"><path d="M164.21,1589.56 C170.17,1757.27 201.79,2407.31 337,2549 C358.04,2571.05 381.6357,2581.931 411.3957,2588.371 " fill="none" id="Collaborator-to-UC28" style="stroke:#181818;stroke-width:1.0;"/><polygon fill="#181818" points="417.26,2589.64,409.3096,2583.827,412.3731,2588.5825,407.6176,2591.646,417.26,2589.64" style="stroke:#181818;stroke-width:1.0;"/></g><!--link Collaborator to UC29--><g id="link_Collaborator_UC29"><path d="M164.97,1589.74 C173.66,1748.18 213.69,2332.28 337,2460 C357.95,2481.69 381.1678,2492.5763 410.5678,2499.2263 " fill="none" id="Collaborator-to-UC29" style="stroke:#181818;stroke-width:1.0;"/><polygon fill="#181818" points="416.42,2500.55,408.5242,2494.663,411.5432,2499.4469,406.7593,2502.4659,416.42,2500.55" style="stroke:#181818;stroke-width:1.0;"/></g><!--SRC=[TLLTRziw37ttho3wagS0jPhcusL0bgxTBcw1BEwsPzLc726ov2l9w7A7_VTH_aWSgUj3K5BdK3HvI4tiKQYQ6rv1fPNE3qPN2Cuqc5nEQfuVUOcPEqa4WxdZgfIOJ2u8U-25VXEgX3sN5fCH-Op_bG3zVTIcGBFHKXiuePJwBVcT91Cd7CN-PX4sd7uU12yz-TDFNjLqLI9nxy1fCA8yE2Y4ZogqIf9pUBZ9JjPX1UlSQMDlW5lWxR_GtTmQSFEvgRY27LhTc1mjF7D5tsPQ_EVTynZw7GyYfyYF4j5T0Ry_NW6V3AA2ZEg4Lx2dx0gMwRrxumRXQyEbS2TOMulMLgWSl21zRiTjgL_NLrGgcEIlsd2oslEnmrTmL8UXYbqD6ekvD_egz2QXDYbCOMEGEmGEsL58sHBe84IoCV8V_ThZM8Yx8zmEIq5zC8ICaYP4I9aHXSeWIXKaCGkHzuHyGeMcIyCNh8VUXz3vTHvz7tlqF4GltaLFl3I4SgYuoWVk8kGkYVilCGUM1NVW3XHYyGvz6T9NHF_1_RqRhMnJrLxKa3dkAAR8RSzRHQsx9IBrsTW9R0tkqQ3oOXOAFltNYDfBQcZcRKJsZNyG-vRbO5qYF1dTr1JhcoNzWTxJLo1ikJaEGI99f5uJNwfQ6mUFWcJt9jm1jg96sEd6uP1w6eaazIfPrxKy0GtYMfRQ47NePHef9FKIsJMAEcwTXJsDmnTLD-vyGwIKr4k5obA8tBrJtess5tAadTIBPwlbIUbASEcLOMX8FN6jk3nPSUP6IagzbB83rOHIxUhWbrOcsi7qqrwzqcTljRYq9v9Kkdmto7CZdQYZCETa8csbNbnjolyZ_A0zwARjqOkW3R_HVg_-f2Kqy2EDiTlhkHWjkM7-8sanBwrrKS0BjqUVzOkUFkXsGWPEl5nOm251ge8F-4W_xEwoCjgjwQyXwa281CHcRKUjgxN2xXQQa-jR8Wqnhw6Ddrtv5qga73Q_97PP1zV9HP9XYs63TCk_6DTvQ2wBHCAyI5fHIzVVYLq5pvn846pLDZId5xZxf4u4VYO6pYffIVGEmdJwuVmKN6mMs7U1FGlihaZqNFRsFB0NWTqbJUzcRwy2kzzc8qSQEbZew7Aa1tLmp224t8UEUUXOX8vb63LCbOMfiZ1L5gRQQtVac8MEC5CMPjfhPVps3YVBlvvGttydVm00]--></g></svg>