<?xml version="1.0" encoding="us-ascii" standalone="no"?><svg xmlns="http://www.w3.org/2000/svg" xmlns:xlink="http://www.w3.org/1999/xlink" contentStyleType="text/css" height="811px" preserveAspectRatio="none" style="width:746px;height:811px;background:#FFFFFF;" version="1.1" viewBox="0 0 746 811" width="746px" zoomAndPan="magnify"><defs/><g><!--cluster actors--><g id="cluster_actors"><rect fill="none" height="300" rx="2.5" ry="2.5" style="stroke:#FFFF00;stroke-width:1.0;" width="128" x="7" y="159"/><text fill="#000000" font-family="sans-serif" font-size="14" font-weight="bold" lengthAdjust="spacing" textLength="99" x="21.5" y="176.1074">System Actors</text></g><!--cluster usecases--><g id="cluster_usecases"><rect fill="none" height="683" rx="2.5" ry="2.5" style="stroke:#FFFF00;stroke-width:1.0;" width="333" x="407" y="122"/><text fill="#000000" font-family="sans-serif" font-size="14" font-weight="bold" lengthAdjust="spacing" textLength="74" x="536.5" y="139.1074">Use Cases</text></g><!--entity Freelancer--><g id="elem_Freelancer"><ellipse cx="71" cy="232" fill="#F1F1F1" rx="8" ry="8" style="stroke:#181818;stroke-width:0.5;"/><path d="M71,240 L71,267 M58,248 L84,248 M71,267 L58,282 M71,267 L84,282 " fill="none" style="stroke:#181818;stroke-width:0.5;"/><text fill="#000000" font-family="sans-serif" font-size="14" lengthAdjust="spacing" textLength="69" x="36.5" y="298.6074">Freelancer</text></g><!--entity Employee--><g id="elem_Employee"><ellipse cx="71" cy="346" fill="#F1F1F1" rx="8" ry="8" style="stroke:#181818;stroke-width:0.5;"/><path d="M71,354 L71,381 M58,362 L84,362 M71,381 L58,396 M71,381 L84,396 " fill="none" style="stroke:#181818;stroke-width:0.5;"/><text fill="#000000" font-family="sans-serif" font-size="14" lengthAdjust="spacing" textLength="80" x="31" y="412.6074">Organization</text><text fill="#000000" font-family="sans-serif" font-size="14" lengthAdjust="spacing" textLength="62" x="31" y="431.2285">Employee</text></g><g id="elem_UC1"><ellipse cx="573.4832" cy="179.0966" fill="#F1F1F1" rx="85.9832" ry="19.5966" style="stroke:#181818;stroke-width:0.5;"/><text fill="#000000" font-family="sans-serif" font-size="14" lengthAdjust="spacing" textLength="124" x="508.4832" y="183.9003">UC1 - Create a Skill</text></g><g id="elem_UC2"><ellipse cx="573.3136" cy="252.8627" fill="#F1F1F1" rx="84.8136" ry="19.3627" style="stroke:#181818;stroke-width:0.5;"/><text fill="#000000" font-family="sans-serif" font-size="14" lengthAdjust="spacing" textLength="121" x="509.8136" y="257.6664">UC2 - Create a Job</text></g><g id="elem_UC3"><ellipse cx="573.3518" cy="332.9704" fill="#F1F1F1" rx="112.8518" ry="24.9704" style="stroke:#181818;stroke-width:0.5;"/><text fill="#000000" font-family="sans-serif" font-size="14" lengthAdjust="spacing" textLength="187" x="479.8518" y="336.7672">UC3 - Register a Collaborator</text></g><g id="elem_UC4"><ellipse cx="573.5921" cy="413.0184" fill="#F1F1F1" rx="85.5921" ry="19.5184" style="stroke:#181818;stroke-width:0.5;"/><text fill="#000000" font-family="sans-serif" font-size="14" lengthAdjust="spacing" textLength="123" x="509.0921" y="417.8221">UC4 - Assign a Skill</text></g><g id="elem_UC5"><ellipse cx="573.3725" cy="489.8745" fill="#F1F1F1" rx="97.3725" ry="21.8745" style="stroke:#181818;stroke-width:0.5;"/><text fill="#000000" font-family="sans-serif" font-size="14" lengthAdjust="spacing" textLength="152" x="495.4599" y="494.3452">UC5 - Generate a Team</text></g><g id="elem_UC6"><ellipse cx="573.6507" cy="569.1301" fill="#F1F1F1" rx="98.6507" ry="22.1301" style="stroke:#181818;stroke-width:0.5;"/><text fill="#000000" font-family="sans-serif" font-size="14" lengthAdjust="spacing" textLength="155" x="494.638" y="573.4697">UC6 - Register a Vehicle</text></g><g id="elem_UC7"><ellipse cx="573.5257" cy="656.8051" fill="#F1F1F1" rx="142.0257" ry="30.8051" style="stroke:#181818;stroke-width:0.5;"/><text fill="#000000" font-family="sans-serif" font-size="14" lengthAdjust="spacing" textLength="250" x="448.5257" y="660.602">UC7 - Register a Vehicle's Maintenance</text></g><g id="elem_UC8"><ellipse cx="573.537" cy="756.0074" fill="#F1F1F1" rx="150.537" ry="32.5074" style="stroke:#181818;stroke-width:0.5;"/><text fill="#000000" font-family="sans-serif" font-size="14" lengthAdjust="spacing" textLength="268" x="439.537" y="759.8043">UC8 - List Vehicles that need Maintenance</text></g><g id="elem_GMN5"><path d="M190.5,103.5 L190.5,148.082 L343.5,148.082 L343.5,113.5 L333.5,103.5 L190.5,103.5 " fill="#FEFFDD" style="stroke:#181818;stroke-width:0.5;"/><path d="M333.5,103.5 L333.5,113.5 L343.5,113.5 L333.5,103.5 " fill="#FEFFDD" style="stroke:#181818;stroke-width:1.0;"/><text fill="#000000" font-family="sans-serif" font-size="13" lengthAdjust="spacing" textLength="132" x="196.5" y="122.5283">Actor identified but still</text><text fill="#000000" font-family="sans-serif" font-size="13" lengthAdjust="spacing" textLength="132" x="196.5" y="139.8193">no concrete use cases</text></g><g id="elem_GMN25"><path d="M171,6 L171,67.873 L363,67.873 L363,16 L353,6 L171,6 " fill="#FEFFDD" style="stroke:#181818;stroke-width:0.5;"/><path d="M353,6 L353,16 L363,16 L353,6 " fill="#FEFFDD" style="stroke:#181818;stroke-width:1.0;"/><text fill="#000000" font-family="sans-serif" font-size="13" lengthAdjust="spacing" textLength="165" x="177" y="25.0283">Rectangles and Titles are for</text><text fill="#000000" font-family="sans-serif" font-size="13" lengthAdjust="spacing" textLength="171" x="177" y="42.3193">demonstration purposes only.</text><text fill="#000000" font-family="sans-serif" font-size="13" lengthAdjust="spacing" textLength="140" x="177" y="59.6104">Omitt on your diagrams.</text></g><!--link Freelancer to GMN5--><g id="link_Freelancer_GMN5"><path d="M105.52,250.07 C120.92,242.8 138.49,232.45 151,219 C165.35,203.56 156.47,191.27 171,176 C181.54,164.93 195.07,155.82 208.6,148.56 " fill="none" id="Freelancer-GMN5" style="stroke:#181818;stroke-width:1.0;stroke-dasharray:7.0,7.0;"/></g><!--link Employee to UC1--><g id="link_Employee_UC1"><path d="M111.38,357.53 C124.86,346.68 139.44,333.63 151,320 C162.34,306.63 157.24,296.87 171,286 C263.28,213.12 394.8413,190.1755 482.5913,182.7555 " fill="none" id="Employee-to-UC1" style="stroke:#181818;stroke-width:1.0;"/><polygon fill="#181818" points="488.57,182.25,479.265,179.0225,483.5878,182.6713,479.939,186.9941,488.57,182.25" style="stroke:#181818;stroke-width:1.0;"/></g><!--link Employee to UC2--><g id="link_Employee_UC2"><path d="M111.41,363.08 C129.14,353.56 150.64,343.11 171,336 C281.89,297.3 410.6802,274.8576 492.4602,263.1876 " fill="none" id="Employee-to-UC2" style="stroke:#181818;stroke-width:1.0;"/><polygon fill="#181818" points="498.4,262.34,488.9252,259.6515,493.4501,263.0463,490.0553,267.5713,498.4,262.34" style="stroke:#181818;stroke-width:1.0;"/></g><!--link Employee to UC3--><g id="link_Employee_UC3"><path d="M111.43,379.51 C129.55,376.66 151.33,373.42 171,371 C271.07,358.69 379.6211,348.713 460.6811,341.893 " fill="none" id="Employee-to-UC3" style="stroke:#181818;stroke-width:1.0;"/><polygon fill="#181818" points="466.66,341.39,457.3563,338.1586,461.6776,341.8092,458.027,346.1305,466.66,341.39" style="stroke:#181818;stroke-width:1.0;"/></g><!--link Employee to UC4--><g id="link_Employee_UC4"><path d="M111.27,388.12 C192.62,392.51 375.0487,402.3468 484.2287,408.2368 " fill="none" id="Employee-to-UC4" style="stroke:#181818;stroke-width:1.0;"/><polygon fill="#181818" points="490.22,408.56,481.4485,404.081,485.2273,408.2907,481.0176,412.0694,490.22,408.56" style="stroke:#181818;stroke-width:1.0;"/></g><!--link Employee to UC5--><g id="link_Employee_UC5"><path d="M111.42,395.95 C129.53,400.42 151.31,405.65 171,410 C284.65,435.09 411.2846,459.6946 492.0446,474.9746 " fill="none" id="Employee-to-UC5" style="stroke:#181818;stroke-width:1.0;"/><polygon fill="#181818" points="497.94,476.09,489.8405,470.4866,493.0272,475.1605,488.3533,478.3471,497.94,476.09" style="stroke:#181818;stroke-width:1.0;"/></g><!--link Employee to UC6--><g id="link_Employee_UC6"><path d="M111.1,418.42 C128.6,431.75 150.01,446.49 171,457 C276.16,509.63 403.6919,539.4687 487.1319,555.0487 " fill="none" id="Employee-to-UC6" style="stroke:#181818;stroke-width:1.0;"/><polygon fill="#181818" points="493.03,556.15,484.9171,550.566,488.1149,555.2323,483.4487,558.4301,493.03,556.15" style="stroke:#181818;stroke-width:1.0;"/></g><!--link Employee to UC7--><g id="link_Employee_UC7"><path d="M93.55,434.61 C110.33,467.28 136.56,508.97 171,535 C251.94,596.16 357.7148,625.8174 442.7448,641.1174 " fill="none" id="Employee-to-UC7" style="stroke:#181818;stroke-width:1.0;"/><polygon fill="#181818" points="448.65,642.18,440.5006,636.6494,443.729,641.2945,439.0839,644.5229,448.65,642.18" style="stroke:#181818;stroke-width:1.0;"/></g><!--link Employee to UC8--><g id="link_Employee_UC8"><path d="M79.45,434.83 C90.27,489.42 115.48,576.99 171,629 C242.76,696.23 344.0288,726.8415 429.6088,741.7315 " fill="none" id="Employee-to-UC8" style="stroke:#181818;stroke-width:1.0;"/><polygon fill="#181818" points="435.52,742.76,427.3389,737.2765,430.594,741.9029,425.9676,745.1581,435.52,742.76" style="stroke:#181818;stroke-width:1.0;"/></g><!--link actors to GMN25--><g id="link_actors_GMN25"><path d="M95.6036,158.991 C95.7317,158.842 95.8602,158.6926 95.9891,158.5429 C96.2469,158.2435 96.5064,157.9426 96.7675,157.6403 C98.8566,155.2221 101.0509,152.7141 103.34,150.1375 C121.6525,129.525 146.025,104.525 171,86 C179.64,79.59 189.25,73.56 198.93,68.09 " fill="none" id="actors-GMN25" style="stroke:#181818;stroke-width:1.0;stroke-dasharray:7.0,7.0;"/></g><!--SRC=[RPHBRzim3CVl-XH4BZcbm9hdgK2NTGE63GMQRgTU69jnXCXYG2del67VVRHiv-7P1yEYVdy-9DBZSB3-Y88bbEmvsmkN155EP2uxHymEMD0cLev0A8le2qTcV2727dD-jxw07Rf0vafyvlyOqESZIqwoPiS25Jd7x-QlCUDee_h-4GZMgAzF5ejQ_FGBowE6Cevs4IA3s68V8RUrLylUcBDx66sg4Ac4noooX15W04oVq4HE2_WiH0vzHd9b73rBWTx-njhdct_Ic5mH9H_TeaxJU8xKvi2xlgyK66nEFjgTfHosfmWXMkVIjcV8s6T2wkAaDMPQQ33aSwYztbJIdKDJXSA9RSfeLmgjFy04raAe3X4s1msKUDtea_VNv5VUjjnzdvigzqA5rOCK9VMQ76vPK0jh9TE-PAQInn1iuNj9pFhaNCalv4cQD5u9onQTzz75RHu_QMypHoszwDFBGNeSu3jQ7ydNLzHgbttjIhNVLDcf0iGzHl2az_U_V6MIlki9c4mc3-Vplh8-d0-tPvmE6MT3nlcGSJ5aN0uPLzgljztQ34DYNxfMqn7H_dkjXqy_XM37JI_dfB-342LD11nFScJjG63lghi4F9SsgbiF5Pz41pBDQxYxzFC_]--></g></svg>