<?xml version="1.0" encoding="us-ascii" standalone="no"?><svg xmlns="http://www.w3.org/2000/svg" xmlns:xlink="http://www.w3.org/1999/xlink" contentStyleType="text/css" height="1173px" preserveAspectRatio="none" style="width:2422px;height:1173px;background:#FFFFFF;" version="1.1" viewBox="0 0 2422 1173" width="2422px" zoomAndPan="magnify"><defs/><g><rect fill="#FFFFFF" height="941.1387" style="stroke:#181818;stroke-width:1.0;" width="10" x="75.5" y="112.2422"/><rect fill="#FFFFFF" height="92.2031" style="stroke:#181818;stroke-width:1.0;" width="10" x="375.5" y="135.5332"/><rect fill="#FFFFFF" height="31.291" style="stroke:#181818;stroke-width:1.0;" width="10" x="375.5" y="259.0273"/><rect fill="#FFFFFF" height="731.7715" style="stroke:#181818;stroke-width:1.0;" width="10" x="375.5" y="321.6094"/><rect fill="#FFFFFF" height="651.8984" style="stroke:#181818;stroke-width:1.0;" width="10" x="759.5" y="370.1914"/><rect fill="#FFFFFF" height="230.0371" style="stroke:#181818;stroke-width:1.0;" width="10" x="764.5" y="409.4824"/><rect fill="#FFFFFF" height="31.291" style="stroke:#181818;stroke-width:1.0;" width="10" x="1104.5" y="445.7734"/><rect fill="#FFFFFF" height="31.291" style="stroke:#181818;stroke-width:1.0;" width="10" x="1211.5" y="508.3555"/><rect fill="#FFFFFF" height="31.291" style="stroke:#181818;stroke-width:1.0;" width="10" x="1336" y="570.9375"/><rect fill="#FFFFFF" height="270.6973" style="stroke:#181818;stroke-width:1.0;" width="10" x="2047" y="720.1016"/><rect fill="#FFFFFF" height="130.873" style="stroke:#181818;stroke-width:1.0;" width="10" x="2052" y="821.6348"/><rect fill="#FFFFFF" height="42.291" style="stroke:#181818;stroke-width:1.0;" width="10" x="2057" y="865.9258"/><line style="stroke:#181818;stroke-width:0.5;stroke-dasharray:5.0,5.0;" x1="80" x2="80" y1="102.2422" y2="1071.3809"/><line style="stroke:#181818;stroke-width:0.5;stroke-dasharray:5.0,5.0;" x1="380.5" x2="380.5" y1="102.2422" y2="1071.3809"/><line style="stroke:#181818;stroke-width:0.5;stroke-dasharray:5.0,5.0;" x1="764.5" x2="764.5" y1="175.3438" y2="1071.3809"/><line style="stroke:#181818;stroke-width:0.5;stroke-dasharray:5.0,5.0;" x1="1109" x2="1109" y1="102.2422" y2="1071.3809"/><line style="stroke:#181818;stroke-width:0.5;stroke-dasharray:5.0,5.0;" x1="1216" x2="1216" y1="102.2422" y2="1071.3809"/><line style="stroke:#181818;stroke-width:0.5;stroke-dasharray:5.0,5.0;" x1="1341" x2="1341" y1="102.2422" y2="1071.3809"/><line style="stroke:#181818;stroke-width:0.5;stroke-dasharray:5.0,5.0;" x1="1485" x2="1485" y1="102.2422" y2="1071.3809"/><line style="stroke:#181818;stroke-width:0.5;stroke-dasharray:5.0,5.0;" x1="1632" x2="1632" y1="102.2422" y2="1071.3809"/><line style="stroke:#181818;stroke-width:0.5;stroke-dasharray:5.0,5.0;" x1="1765" x2="1765" y1="102.2422" y2="1071.3809"/><line style="stroke:#181818;stroke-width:0.5;stroke-dasharray:5.0,5.0;" x1="1911" x2="1911" y1="102.2422" y2="1071.3809"/><line style="stroke:#181818;stroke-width:0.5;stroke-dasharray:5.0,5.0;" x1="2052" x2="2052" y1="102.2422" y2="1071.3809"/><line style="stroke:#181818;stroke-width:0.5;stroke-dasharray:5.0,5.0;" x1="2351.5" x2="2351.5" y1="769.2227" y2="1071.3809"/><text fill="#000000" font-family="sans-serif" font-size="14" lengthAdjust="spacing" textLength="145" x="5" y="80.1074">Vehicle and Equipment</text><text fill="#000000" font-family="sans-serif" font-size="14" lengthAdjust="spacing" textLength="92" x="31.5" y="98.7285">Fleet Manager</text><ellipse cx="80.5" cy="13.5" fill="#E3E3E3" rx="8" ry="8" style="stroke:#181818;stroke-width:0.5;"/><path d="M80.5,21.5 L80.5,48.5 M67.5,29.5 L93.5,29.5 M80.5,48.5 L67.5,63.5 M80.5,48.5 L93.5,63.5 " fill="none" style="stroke:#181818;stroke-width:0.5;"/><text fill="#000000" font-family="sans-serif" font-size="14" lengthAdjust="spacing" textLength="145" x="5" y="1085.4883">Vehicle and Equipment</text><text fill="#000000" font-family="sans-serif" font-size="14" lengthAdjust="spacing" textLength="92" x="31.5" y="1104.1094">Fleet Manager</text><ellipse cx="80.5" cy="1116.123" fill="#E3E3E3" rx="8" ry="8" style="stroke:#181818;stroke-width:0.5;"/><path d="M80.5,1124.123 L80.5,1151.123 M67.5,1132.123 L93.5,1132.123 M80.5,1151.123 L67.5,1166.123 M80.5,1151.123 L93.5,1166.123 " fill="none" style="stroke:#181818;stroke-width:0.5;"/><rect fill="#E3E3E3" height="32.6211" rx="2.5" ry="2.5" style="stroke:#181818;stroke-width:0.5;" width="164" x="298.5" y="68.6211"/><text fill="#000000" font-family="sans-serif" font-size="14" lengthAdjust="spacing" textLength="150" x="305.5" y="90.7285">:MaintenanceRegisterUI</text><rect fill="#E3E3E3" height="32.6211" rx="2.5" ry="2.5" style="stroke:#181818;stroke-width:0.5;" width="164" x="298.5" y="1070.3809"/><text fill="#000000" font-family="sans-serif" font-size="14" lengthAdjust="spacing" textLength="150" x="305.5" y="1092.4883">:MaintenanceRegisterUI</text><rect fill="#E3E3E3" height="32.6211" rx="2.5" ry="2.5" style="stroke:#181818;stroke-width:0.5;" width="214" x="657.5" y="1070.3809"/><text fill="#000000" font-family="sans-serif" font-size="14" lengthAdjust="spacing" textLength="200" x="664.5" y="1092.4883">:RegisterMaintenanceController</text><rect fill="#E3E3E3" height="32.6211" rx="2.5" ry="2.5" style="stroke:#181818;stroke-width:0.5;" width="97" x="1061" y="68.6211"/><text fill="#000000" font-family="sans-serif" font-size="14" lengthAdjust="spacing" textLength="83" x="1068" y="90.7285">:Repositories</text><rect fill="#E3E3E3" height="32.6211" rx="2.5" ry="2.5" style="stroke:#181818;stroke-width:0.5;" width="97" x="1061" y="1070.3809"/><text fill="#000000" font-family="sans-serif" font-size="14" lengthAdjust="spacing" textLength="83" x="1068" y="1092.4883">:Repositories</text><rect fill="#E3E3E3" height="51.2422" rx="2.5" ry="2.5" style="stroke:#181818;stroke-width:0.5;" width="97" x="1168" y="50"/><text fill="#000000" font-family="sans-serif" font-size="14" lengthAdjust="spacing" textLength="74" x="1179.5" y="72.1074">repositories</text><text fill="#000000" font-family="sans-serif" font-size="14" lengthAdjust="spacing" textLength="83" x="1175" y="90.7285">:Repositories</text><rect fill="#E3E3E3" height="51.2422" rx="2.5" ry="2.5" style="stroke:#181818;stroke-width:0.5;" width="97" x="1168" y="1070.3809"/><text fill="#000000" font-family="sans-serif" font-size="14" lengthAdjust="spacing" textLength="74" x="1179.5" y="1092.4883">repositories</text><text fill="#000000" font-family="sans-serif" font-size="14" lengthAdjust="spacing" textLength="83" x="1175" y="1111.1094">:Repositories</text><rect fill="#E3E3E3" height="51.2422" rx="2.5" ry="2.5" style="stroke:#181818;stroke-width:0.5;" width="132" x="1275" y="50"/><text fill="#000000" font-family="sans-serif" font-size="14" lengthAdjust="spacing" textLength="112" x="1285" y="72.1074">vehicleRepository</text><text fill="#000000" font-family="sans-serif" font-size="14" lengthAdjust="spacing" textLength="118" x="1282" y="90.7285">:VehicleRepository</text><rect fill="#E3E3E3" height="51.2422" rx="2.5" ry="2.5" style="stroke:#181818;stroke-width:0.5;" width="132" x="1275" y="1070.3809"/><text fill="#000000" font-family="sans-serif" font-size="14" lengthAdjust="spacing" textLength="112" x="1285" y="1092.4883">vehicleRepository</text><text fill="#000000" font-family="sans-serif" font-size="14" lengthAdjust="spacing" textLength="118" x="1282" y="1111.1094">:VehicleRepository</text><rect fill="#E3E3E3" height="32.6211" rx="2.5" ry="2.5" style="stroke:#181818;stroke-width:0.5;" width="137" x="1417" y="68.6211"/><text fill="#000000" font-family="sans-serif" font-size="14" lengthAdjust="spacing" textLength="123" x="1424" y="90.7285">:ApplicationSession</text><rect fill="#E3E3E3" height="32.6211" rx="2.5" ry="2.5" style="stroke:#181818;stroke-width:0.5;" width="137" x="1417" y="1070.3809"/><text fill="#000000" font-family="sans-serif" font-size="14" lengthAdjust="spacing" textLength="123" x="1424" y="1092.4883">:ApplicationSession</text><rect fill="#E3E3E3" height="51.2422" rx="2.5" ry="2.5" style="stroke:#181818;stroke-width:0.5;" width="137" x="1564" y="50"/><text fill="#000000" font-family="sans-serif" font-size="14" lengthAdjust="spacing" textLength="74" x="1595.5" y="72.1074">appSession</text><text fill="#000000" font-family="sans-serif" font-size="14" lengthAdjust="spacing" textLength="123" x="1571" y="90.7285">:ApplicationSession</text><rect fill="#E3E3E3" height="51.2422" rx="2.5" ry="2.5" style="stroke:#181818;stroke-width:0.5;" width="137" x="1564" y="1070.3809"/><text fill="#000000" font-family="sans-serif" font-size="14" lengthAdjust="spacing" textLength="74" x="1595.5" y="1092.4883">appSession</text><text fill="#000000" font-family="sans-serif" font-size="14" lengthAdjust="spacing" textLength="123" x="1571" y="1111.1094">:ApplicationSession</text><rect fill="#E3E3E3" height="51.2422" rx="2.5" ry="2.5" style="stroke:#181818;stroke-width:0.5;" width="109" x="1711" y="50"/><text fill="#000000" font-family="sans-serif" font-size="14" lengthAdjust="spacing" textLength="95" x="1718" y="72.1074">currentSession</text><text fill="#000000" font-family="sans-serif" font-size="14" lengthAdjust="spacing" textLength="83" x="1724" y="90.7285">:UserSession</text><rect fill="#E3E3E3" height="51.2422" rx="2.5" ry="2.5" style="stroke:#181818;stroke-width:0.5;" width="109" x="1711" y="1070.3809"/><text fill="#000000" font-family="sans-serif" font-size="14" lengthAdjust="spacing" textLength="95" x="1718" y="1092.4883">currentSession</text><text fill="#000000" font-family="sans-serif" font-size="14" lengthAdjust="spacing" textLength="83" x="1724" y="1111.1094">:UserSession</text><rect fill="#E3E3E3" height="51.2422" rx="2.5" ry="2.5" style="stroke:#181818;stroke-width:0.5;" width="163" x="1830" y="50"/><text fill="#000000" font-family="sans-serif" font-size="14" lengthAdjust="spacing" textLength="149" x="1837" y="72.1074">organizationRepository:</text><text fill="#000000" font-family="sans-serif" font-size="14" lengthAdjust="spacing" textLength="148" x="1837.5" y="90.7285">OrganizationRepository</text><rect fill="#E3E3E3" height="51.2422" rx="2.5" ry="2.5" style="stroke:#181818;stroke-width:0.5;" width="163" x="1830" y="1070.3809"/><text fill="#000000" font-family="sans-serif" font-size="14" lengthAdjust="spacing" textLength="149" x="1837" y="1092.4883">organizationRepository:</text><text fill="#000000" font-family="sans-serif" font-size="14" lengthAdjust="spacing" textLength="148" x="1837.5" y="1111.1094">OrganizationRepository</text><rect fill="#E3E3E3" height="51.2422" rx="2.5" ry="2.5" style="stroke:#181818;stroke-width:0.5;" width="98" x="2003" y="50"/><text fill="#000000" font-family="sans-serif" font-size="14" lengthAdjust="spacing" textLength="77" x="2013.5" y="72.1074">organization</text><text fill="#000000" font-family="sans-serif" font-size="14" lengthAdjust="spacing" textLength="84" x="2010" y="90.7285">:Organization</text><rect fill="#E3E3E3" height="51.2422" rx="2.5" ry="2.5" style="stroke:#181818;stroke-width:0.5;" width="98" x="2003" y="1070.3809"/><text fill="#000000" font-family="sans-serif" font-size="14" lengthAdjust="spacing" textLength="77" x="2013.5" y="1092.4883">organization</text><text fill="#000000" font-family="sans-serif" font-size="14" lengthAdjust="spacing" textLength="84" x="2010" y="1111.1094">:Organization</text><rect fill="#E3E3E3" height="51.2422" rx="2.5" ry="2.5" style="stroke:#181818;stroke-width:0.5;" width="129" x="2287.5" y="1070.3809"/><text fill="#000000" font-family="sans-serif" font-size="14" lengthAdjust="spacing" textLength="111" x="2296.5" y="1092.4883">maintenanceDate</text><text fill="#000000" font-family="sans-serif" font-size="14" lengthAdjust="spacing" textLength="115" x="2294.5" y="1111.1094">:MaintenanceDate</text><rect fill="#FFFFFF" height="941.1387" style="stroke:#181818;stroke-width:1.0;" width="10" x="75.5" y="112.2422"/><rect fill="#FFFFFF" height="92.2031" style="stroke:#181818;stroke-width:1.0;" width="10" x="375.5" y="135.5332"/><rect fill="#FFFFFF" height="31.291" style="stroke:#181818;stroke-width:1.0;" width="10" x="375.5" y="259.0273"/><rect fill="#FFFFFF" height="731.7715" style="stroke:#181818;stroke-width:1.0;" width="10" x="375.5" y="321.6094"/><rect fill="#FFFFFF" height="651.8984" style="stroke:#181818;stroke-width:1.0;" width="10" x="759.5" y="370.1914"/><rect fill="#FFFFFF" height="230.0371" style="stroke:#181818;stroke-width:1.0;" width="10" x="764.5" y="409.4824"/><rect fill="#FFFFFF" height="31.291" style="stroke:#181818;stroke-width:1.0;" width="10" x="1104.5" y="445.7734"/><rect fill="#FFFFFF" height="31.291" style="stroke:#181818;stroke-width:1.0;" width="10" x="1211.5" y="508.3555"/><rect fill="#FFFFFF" height="31.291" style="stroke:#181818;stroke-width:1.0;" width="10" x="1336" y="570.9375"/><rect fill="#FFFFFF" height="270.6973" style="stroke:#181818;stroke-width:1.0;" width="10" x="2047" y="720.1016"/><rect fill="#FFFFFF" height="130.873" style="stroke:#181818;stroke-width:1.0;" width="10" x="2052" y="821.6348"/><rect fill="#FFFFFF" height="42.291" style="stroke:#181818;stroke-width:1.0;" width="10" x="2057" y="865.9258"/><polygon fill="#181818" points="363.5,131.5332,373.5,135.5332,363.5,139.5332,367.5,135.5332" style="stroke:#181818;stroke-width:1.0;"/><line style="stroke:#181818;stroke-width:1.0;" x1="85.5" x2="369.5" y1="135.5332" y2="135.5332"/><text fill="#000000" font-family="sans-serif" font-size="13" font-weight="bold" lengthAdjust="spacing" textLength="7" x="92.5" y="130.2705">1</text><text fill="#000000" font-family="sans-serif" font-size="13" lengthAdjust="spacing" textLength="260" x="103.5" y="130.2705">asks to register a vehicle's maintenance date</text><polygon fill="#181818" points="645.5,162.8242,655.5,166.8242,645.5,170.8242,649.5,166.8242" style="stroke:#181818;stroke-width:1.0;"/><line style="stroke:#181818;stroke-width:1.0;" x1="385.5" x2="651.5" y1="166.8242" y2="166.8242"/><text fill="#000000" font-family="sans-serif" font-size="13" font-weight="bold" lengthAdjust="spacing" textLength="7" x="392.5" y="161.5615">2</text><text fill="#000000" font-family="sans-serif" font-size="13" lengthAdjust="spacing" textLength="36" x="403.5" y="161.5615">create</text><rect fill="#E3E3E3" height="32.6211" rx="2.5" ry="2.5" style="stroke:#181818;stroke-width:0.5;" width="214" x="657.5" y="143.5332"/><text fill="#000000" font-family="sans-serif" font-size="14" lengthAdjust="spacing" textLength="200" x="664.5" y="165.6406">:RegisterMaintenanceController</text><polygon fill="#181818" points="96.5,223.7363,86.5,227.7363,96.5,231.7363,92.5,227.7363" style="stroke:#181818;stroke-width:1.0;"/><line style="stroke:#181818;stroke-width:1.0;stroke-dasharray:2.0,2.0;" x1="90.5" x2="379.5" y1="227.7363" y2="227.7363"/><text fill="#000000" font-family="sans-serif" font-size="13" font-weight="bold" lengthAdjust="spacing" textLength="7" x="102.5" y="213.8281">3</text><text fill="#000000" font-family="sans-serif" font-size="13" lengthAdjust="spacing" textLength="210" x="113.5" y="205.1826">requests data (plate ID, current KMs</text><text fill="#000000" font-family="sans-serif" font-size="13" lengthAdjust="spacing" textLength="146" x="113.5" y="222.4736">and date of maintenance)</text><polygon fill="#181818" points="363.5,255.0273,373.5,259.0273,363.5,263.0273,367.5,259.0273" style="stroke:#181818;stroke-width:1.0;"/><line style="stroke:#181818;stroke-width:1.0;" x1="85.5" x2="369.5" y1="259.0273" y2="259.0273"/><text fill="#000000" font-family="sans-serif" font-size="13" font-weight="bold" lengthAdjust="spacing" textLength="7" x="92.5" y="253.7646">4</text><text fill="#000000" font-family="sans-serif" font-size="13" lengthAdjust="spacing" textLength="122" x="103.5" y="253.7646">types requested data</text><polygon fill="#181818" points="96.5,286.3184,86.5,290.3184,96.5,294.3184,92.5,290.3184" style="stroke:#181818;stroke-width:1.0;"/><line style="stroke:#181818;stroke-width:1.0;stroke-dasharray:2.0,2.0;" x1="90.5" x2="379.5" y1="290.3184" y2="290.3184"/><text fill="#000000" font-family="sans-serif" font-size="13" font-weight="bold" lengthAdjust="spacing" textLength="7" x="102.5" y="285.0557">5</text><text fill="#000000" font-family="sans-serif" font-size="13" lengthAdjust="spacing" textLength="236" x="113.5" y="285.0557">shows all data and requests confirmation</text><polygon fill="#181818" points="363.5,317.6094,373.5,321.6094,363.5,325.6094,367.5,321.6094" style="stroke:#181818;stroke-width:1.0;"/><line style="stroke:#181818;stroke-width:1.0;" x1="85.5" x2="369.5" y1="321.6094" y2="321.6094"/><text fill="#000000" font-family="sans-serif" font-size="13" font-weight="bold" lengthAdjust="spacing" textLength="7" x="92.5" y="316.3467">6</text><text fill="#000000" font-family="sans-serif" font-size="13" lengthAdjust="spacing" textLength="78" x="103.5" y="316.3467">confirms data</text><polygon fill="#181818" points="747.5,366.1914,757.5,370.1914,747.5,374.1914,751.5,370.1914" style="stroke:#181818;stroke-width:1.0;"/><line style="stroke:#181818;stroke-width:1.0;" x1="385.5" x2="753.5" y1="370.1914" y2="370.1914"/><text fill="#000000" font-family="sans-serif" font-size="13" font-weight="bold" lengthAdjust="spacing" textLength="7" x="392.5" y="356.2832">7</text><text fill="#000000" font-family="sans-serif" font-size="13" lengthAdjust="spacing" textLength="340" x="403.5" y="347.6377">registerMaintenanceController(plate ID, brand, model, type,</text><text fill="#000000" font-family="sans-serif" font-size="13" lengthAdjust="spacing" textLength="221" x="403.5" y="364.9287">current KMs and date of maintenance)</text><line style="stroke:#181818;stroke-width:1.0;" x1="769.5" x2="816.5" y1="396.4824" y2="396.4824"/><line style="stroke:#181818;stroke-width:1.0;" x1="816.5" x2="816.5" y1="396.4824" y2="409.4824"/><line style="stroke:#181818;stroke-width:1.0;" x1="775.5" x2="816.5" y1="409.4824" y2="409.4824"/><polygon fill="#181818" points="785.5,405.4824,775.5,409.4824,785.5,413.4824,781.5,409.4824" style="stroke:#181818;stroke-width:1.0;"/><text fill="#000000" font-family="sans-serif" font-size="13" font-weight="bold" lengthAdjust="spacing" textLength="7" x="781.5" y="391.2197">8</text><text fill="#000000" font-family="sans-serif" font-size="13" lengthAdjust="spacing" textLength="310" x="792.5" y="391.2197">getVehicleByDescription(plate ID, brand, model, type)</text><polygon fill="#181818" points="1092.5,441.7734,1102.5,445.7734,1092.5,449.7734,1096.5,445.7734" style="stroke:#181818;stroke-width:1.0;"/><line style="stroke:#181818;stroke-width:1.0;" x1="774.5" x2="1098.5" y1="445.7734" y2="445.7734"/><text fill="#000000" font-family="sans-serif" font-size="13" font-weight="bold" lengthAdjust="spacing" textLength="7" x="781.5" y="440.5107">9</text><text fill="#000000" font-family="sans-serif" font-size="13" lengthAdjust="spacing" textLength="75" x="792.5" y="440.5107">getInstance()</text><polygon fill="#181818" points="785.5,473.0645,775.5,477.0645,785.5,481.0645,781.5,477.0645" style="stroke:#181818;stroke-width:1.0;"/><line style="stroke:#181818;stroke-width:1.0;stroke-dasharray:2.0,2.0;" x1="779.5" x2="1108.5" y1="477.0645" y2="477.0645"/><text fill="#000000" font-family="sans-serif" font-size="13" font-weight="bold" lengthAdjust="spacing" textLength="14" x="791.5" y="471.8018">10</text><text fill="#000000" font-family="sans-serif" font-size="13" lengthAdjust="spacing" textLength="67" x="809.5" y="471.8018">repositories</text><polygon fill="#181818" points="1199.5,504.3555,1209.5,508.3555,1199.5,512.3555,1203.5,508.3555" style="stroke:#181818;stroke-width:1.0;"/><line style="stroke:#181818;stroke-width:1.0;" x1="774.5" x2="1205.5" y1="508.3555" y2="508.3555"/><text fill="#000000" font-family="sans-serif" font-size="13" font-weight="bold" lengthAdjust="spacing" textLength="14" x="781.5" y="503.0928">11</text><text fill="#000000" font-family="sans-serif" font-size="13" lengthAdjust="spacing" textLength="131" x="799.5" y="503.0928">getVehicleRepository()</text><polygon fill="#181818" points="785.5,535.6465,775.5,539.6465,785.5,543.6465,781.5,539.6465" style="stroke:#181818;stroke-width:1.0;"/><line style="stroke:#181818;stroke-width:1.0;stroke-dasharray:2.0,2.0;" x1="779.5" x2="1215.5" y1="539.6465" y2="539.6465"/><text fill="#000000" font-family="sans-serif" font-size="13" font-weight="bold" lengthAdjust="spacing" textLength="14" x="791.5" y="534.3838">12</text><text fill="#000000" font-family="sans-serif" font-size="13" lengthAdjust="spacing" textLength="101" x="809.5" y="534.3838">vehicleRepository</text><polygon fill="#181818" points="1324,566.9375,1334,570.9375,1324,574.9375,1328,570.9375" style="stroke:#181818;stroke-width:1.0;"/><line style="stroke:#181818;stroke-width:1.0;" x1="774.5" x2="1330" y1="570.9375" y2="570.9375"/><text fill="#000000" font-family="sans-serif" font-size="13" font-weight="bold" lengthAdjust="spacing" textLength="14" x="781.5" y="565.6748">13</text><text fill="#000000" font-family="sans-serif" font-size="13" lengthAdjust="spacing" textLength="310" x="799.5" y="565.6748">getVehicleByDescription(plate ID, brand, model, type)</text><polygon fill="#181818" points="785.5,598.2285,775.5,602.2285,785.5,606.2285,781.5,602.2285" style="stroke:#181818;stroke-width:1.0;"/><line style="stroke:#181818;stroke-width:1.0;stroke-dasharray:2.0,2.0;" x1="779.5" x2="1340" y1="602.2285" y2="602.2285"/><text fill="#000000" font-family="sans-serif" font-size="13" font-weight="bold" lengthAdjust="spacing" textLength="14" x="791.5" y="596.9658">14</text><text fill="#000000" font-family="sans-serif" font-size="13" lengthAdjust="spacing" textLength="39" x="809.5" y="596.9658">vehicle</text><line style="stroke:#181818;stroke-width:1.0;stroke-dasharray:2.0,2.0;" x1="774.5" x2="816.5" y1="638.5195" y2="638.5195"/><line style="stroke:#181818;stroke-width:1.0;stroke-dasharray:2.0,2.0;" x1="816.5" x2="816.5" y1="638.5195" y2="651.5195"/><line style="stroke:#181818;stroke-width:1.0;stroke-dasharray:2.0,2.0;" x1="769.5" x2="816.5" y1="651.5195" y2="651.5195"/><polygon fill="#181818" points="779.5,647.5195,769.5,651.5195,779.5,655.5195,775.5,651.5195" style="stroke:#181818;stroke-width:1.0;"/><text fill="#000000" font-family="sans-serif" font-size="13" font-weight="bold" lengthAdjust="spacing" textLength="14" x="781.5" y="633.2568">15</text><text fill="#000000" font-family="sans-serif" font-size="13" lengthAdjust="spacing" textLength="39" x="799.5" y="633.2568">vehicle</text><polygon fill="#181818" points="2035,716.1016,2045,720.1016,2035,724.1016,2039,720.1016" style="stroke:#181818;stroke-width:1.0;"/><line style="stroke:#181818;stroke-width:1.0;" x1="769.5" x2="2041" y1="720.1016" y2="720.1016"/><text fill="#000000" font-family="sans-serif" font-size="13" font-weight="bold" lengthAdjust="spacing" textLength="14" x="776.5" y="706.1934">16</text><text fill="#000000" font-family="sans-serif" font-size="13" lengthAdjust="spacing" textLength="263" x="794.5" y="697.5479">createMaintenanceDate(Vehicle, current KMs</text><text fill="#000000" font-family="sans-serif" font-size="13" lengthAdjust="spacing" textLength="146" x="794.5" y="714.8389">and date of maintenance)</text><polygon fill="#181818" points="2275.5,764.6836,2285.5,768.6836,2275.5,772.6836,2279.5,768.6836" style="stroke:#181818;stroke-width:1.0;"/><line style="stroke:#181818;stroke-width:1.0;" x1="2057" x2="2281.5" y1="768.6836" y2="768.6836"/><text fill="#000000" font-family="sans-serif" font-size="13" font-weight="bold" lengthAdjust="spacing" textLength="14" x="2064" y="754.7754">17</text><text fill="#000000" font-family="sans-serif" font-size="13" lengthAdjust="spacing" textLength="163" x="2082" y="746.1299">create(plate ID, current KMs</text><text fill="#000000" font-family="sans-serif" font-size="13" lengthAdjust="spacing" textLength="146" x="2082" y="763.4209">and date of maintenance)</text><rect fill="#E3E3E3" height="51.2422" rx="2.5" ry="2.5" style="stroke:#181818;stroke-width:0.5;" width="129" x="2287.5" y="728.1016"/><text fill="#000000" font-family="sans-serif" font-size="14" lengthAdjust="spacing" textLength="111" x="2296.5" y="750.209">maintenanceDate</text><text fill="#000000" font-family="sans-serif" font-size="14" lengthAdjust="spacing" textLength="115" x="2294.5" y="768.8301">:MaintenanceDate</text><line style="stroke:#181818;stroke-width:1.0;" x1="2057" x2="2104" y1="808.6348" y2="808.6348"/><line style="stroke:#181818;stroke-width:1.0;" x1="2104" x2="2104" y1="808.6348" y2="821.6348"/><line style="stroke:#181818;stroke-width:1.0;" x1="2063" x2="2104" y1="821.6348" y2="821.6348"/><polygon fill="#181818" points="2073,817.6348,2063,821.6348,2073,825.6348,2069,821.6348" style="stroke:#181818;stroke-width:1.0;"/><text fill="#000000" font-family="sans-serif" font-size="13" font-weight="bold" lengthAdjust="spacing" textLength="14" x="2069" y="803.3721">18</text><text fill="#000000" font-family="sans-serif" font-size="13" lengthAdjust="spacing" textLength="231" x="2087" y="803.3721">addMaintenanceDate(maintenanceDate)</text><line style="stroke:#181818;stroke-width:1.0;" x1="2062" x2="2109" y1="852.9258" y2="852.9258"/><line style="stroke:#181818;stroke-width:1.0;" x1="2109" x2="2109" y1="852.9258" y2="865.9258"/><line style="stroke:#181818;stroke-width:1.0;" x1="2068" x2="2109" y1="865.9258" y2="865.9258"/><polygon fill="#181818" points="2078,861.9258,2068,865.9258,2078,869.9258,2074,865.9258" style="stroke:#181818;stroke-width:1.0;"/><text fill="#000000" font-family="sans-serif" font-size="13" font-weight="bold" lengthAdjust="spacing" textLength="14" x="2074" y="847.6631">19</text><text fill="#000000" font-family="sans-serif" font-size="13" lengthAdjust="spacing" textLength="253" x="2092" y="847.6631">validateMaintenanceDate(maintenanceDate)</text><line style="stroke:#181818;stroke-width:1.0;stroke-dasharray:2.0,2.0;" x1="2067" x2="2109" y1="907.2168" y2="907.2168"/><line style="stroke:#181818;stroke-width:1.0;stroke-dasharray:2.0,2.0;" x1="2109" x2="2109" y1="907.2168" y2="920.2168"/><line style="stroke:#181818;stroke-width:1.0;stroke-dasharray:2.0,2.0;" x1="2062" x2="2109" y1="920.2168" y2="920.2168"/><polygon fill="#181818" points="2072,916.2168,2062,920.2168,2072,924.2168,2068,920.2168" style="stroke:#181818;stroke-width:1.0;"/><text fill="#000000" font-family="sans-serif" font-size="13" font-weight="bold" lengthAdjust="spacing" textLength="14" x="2074" y="901.9541">20</text><text fill="#000000" font-family="sans-serif" font-size="13" lengthAdjust="spacing" textLength="4" x="2092" y="901.9541">&#160;</text><line style="stroke:#181818;stroke-width:1.0;stroke-dasharray:2.0,2.0;" x1="2062" x2="2104" y1="951.5078" y2="951.5078"/><line style="stroke:#181818;stroke-width:1.0;stroke-dasharray:2.0,2.0;" x1="2104" x2="2104" y1="951.5078" y2="964.5078"/><line style="stroke:#181818;stroke-width:1.0;stroke-dasharray:2.0,2.0;" x1="2057" x2="2104" y1="964.5078" y2="964.5078"/><polygon fill="#181818" points="2067,960.5078,2057,964.5078,2067,968.5078,2063,964.5078" style="stroke:#181818;stroke-width:1.0;"/><text fill="#000000" font-family="sans-serif" font-size="13" font-weight="bold" lengthAdjust="spacing" textLength="14" x="2069" y="946.2451">21</text><text fill="#000000" font-family="sans-serif" font-size="13" lengthAdjust="spacing" textLength="4" x="2087" y="946.2451">&#160;</text><polygon fill="#181818" points="780.5,986.7988,770.5,990.7988,780.5,994.7988,776.5,990.7988" style="stroke:#181818;stroke-width:1.0;"/><line style="stroke:#181818;stroke-width:1.0;stroke-dasharray:2.0,2.0;" x1="774.5" x2="2051" y1="990.7988" y2="990.7988"/><text fill="#000000" font-family="sans-serif" font-size="13" font-weight="bold" lengthAdjust="spacing" textLength="14" x="786.5" y="985.5361">22</text><text fill="#000000" font-family="sans-serif" font-size="13" lengthAdjust="spacing" textLength="101" x="804.5" y="985.5361">maintenanceDate</text><polygon fill="#181818" points="396.5,1018.0898,386.5,1022.0898,396.5,1026.0898,392.5,1022.0898" style="stroke:#181818;stroke-width:1.0;"/><line style="stroke:#181818;stroke-width:1.0;stroke-dasharray:2.0,2.0;" x1="390.5" x2="763.5" y1="1022.0898" y2="1022.0898"/><text fill="#000000" font-family="sans-serif" font-size="13" font-weight="bold" lengthAdjust="spacing" textLength="14" x="402.5" y="1016.8271">23</text><text fill="#000000" font-family="sans-serif" font-size="13" lengthAdjust="spacing" textLength="101" x="420.5" y="1016.8271">maintenanceDate</text><polygon fill="#181818" points="91.5,1049.3809,81.5,1053.3809,91.5,1057.3809,87.5,1053.3809" style="stroke:#181818;stroke-width:1.0;"/><line style="stroke:#181818;stroke-width:1.0;stroke-dasharray:2.0,2.0;" x1="85.5" x2="379.5" y1="1053.3809" y2="1053.3809"/><text fill="#000000" font-family="sans-serif" font-size="13" font-weight="bold" lengthAdjust="spacing" textLength="14" x="97.5" y="1048.1182">24</text><text fill="#000000" font-family="sans-serif" font-size="13" lengthAdjust="spacing" textLength="158" x="115.5" y="1048.1182">displays operation success</text><!--SRC=[hLRRRk8m47ttLupwGa7m0pnKOWkjq1QrWi8Jqifr1h0QxDHsscNLZzzn4iWTkfUyjDW-PyuSJsPYNwMAkE5xs6kbnSxeFO8pCJ9xsecuUELRNBX3Y61GEAwsOV60tV50VqYrXGqFBJB6OwTLl7z1mrXd9mE4ZTRkHVzaN3Xju6g5Eoc8ZQi09c-nZFQet5hTXOWEPbnHE7C5tC9gSlV0A8gJGaPSERWQphXK3XLN0kUubTQXMKwJmyjfvUXnlm2vrSeP7OOP_tnsMyD4safIAT6cHuuBXuNqYLDg_mmn1SHQrGcU7aRFPSHxwbZEJB1LTIsrR5wHDugYK0hkf5OBj9R-9ET-Z9wUoYTv56K7YBm5LGE9s1Ywl1ouj6YAYCLaiHWzba7QRBcIlnBsNFvmhHuRDnAUvgrsNf9IXAGSy_ioO9zNnfWx9Coil9B0ngFd2VErAzzfAIrA1jdZVy7WXgeFXdJurOBJz9gabGSSiflhM2W4Wu28SeuJDPKmwq3X8TO1aO_6Cs8t-1QZTTQZELmRt21vBx0F0LfXPEGJxGD8jT5cpqDOg_AEGx5JTAjXUJc83K__4zgwBYiAw0Y3Njdjy_o1LPNT-1UeroDfwId666jGdrXKan-5ddSwfgXf3S7tcIN9lYbuUq1lYfRbiW8i-LMx17U8q1wZOKB6MStcPersfpyiy31CHNej9zb2guqaNxrLx2j2Ce3zWeB4oSIZCoshODcB8Mbzwje1XlqaupvPLpJoeeqdBRu9bgxDFrxEITKMNTPilXt6UUMSrTEjKPuFM0nQxv-fYAcopYTntMs4vm4Q6d0Z8WdQ46sGfkxl8s_DZGo56lXor2nDt-LBvkO4bn9C1aHhHWdnu7HxjTbnAP5szapvQlxVYgAK5iskrgGePYsbIucqyILfrCZOkRkjbkpdvoThS8OcpB4PLYR9TMRM7xUxaaD-WjLqqgAFxSTKhtSC__VzjKARfCI3e9fFPNPs6Mj_uxtifeieXdZdeGmQVAl5ELj2RP5EqT9mbogdqUTB79VmHsnQTfMyoiVFKHshTpcjaxIKRijG7a8WBTN9mOAECFq801iBGTzlJHEk-6hvZw3V]--></g></svg>