<?xml version="1.0" encoding="us-ascii" standalone="no"?><svg xmlns="http://www.w3.org/2000/svg" xmlns:xlink="http://www.w3.org/1999/xlink" contentStyleType="text/css" height="874px" preserveAspectRatio="none" style="width:1169px;height:874px;background:#FFFFFF;" version="1.1" viewBox="0 0 1169 874" width="1169px" zoomAndPan="magnify"><defs/><g><rect fill="#FFFFFF" height="642.4121" style="stroke:#181818;stroke-width:1.0;" width="10" x="75.5" y="112.2422"/><rect fill="#FFFFFF" height="92.2031" style="stroke:#181818;stroke-width:1.0;" width="10" x="375.5" y="135.5332"/><rect fill="#FFFFFF" height="31.291" style="stroke:#181818;stroke-width:1.0;" width="10" x="375.5" y="259.0273"/><rect fill="#FFFFFF" height="433.0449" style="stroke:#181818;stroke-width:1.0;" width="10" x="375.5" y="321.6094"/><rect fill="#FFFFFF" height="353.1719" style="stroke:#181818;stroke-width:1.0;" width="10" x="718.5" y="370.1914"/><rect fill="#FFFFFF" height="106.5039" style="stroke:#181818;stroke-width:1.0;" width="10" x="723.5" y="409.4824"/><rect fill="#FFFFFF" height="95.5039" style="stroke:#181818;stroke-width:1.0;" width="10" x="1068.5" y="596.5684"/><rect fill="#FFFFFF" height="95.5039" style="stroke:#181818;stroke-width:1.0;" width="10" x="1068.5" y="596.5684"/><line style="stroke:#181818;stroke-width:0.5;stroke-dasharray:5.0,5.0;" x1="80" x2="80" y1="102.2422" y2="772.6543"/><line style="stroke:#181818;stroke-width:0.5;stroke-dasharray:5.0,5.0;" x1="380.5" x2="380.5" y1="102.2422" y2="772.6543"/><line style="stroke:#181818;stroke-width:0.5;stroke-dasharray:5.0,5.0;" x1="723.5" x2="723.5" y1="175.3438" y2="772.6543"/><line style="stroke:#181818;stroke-width:0.5;stroke-dasharray:5.0,5.0;" x1="1068.5" x2="1068.5" y1="102.2422" y2="772.6543"/><text fill="#000000" font-family="sans-serif" font-size="14" lengthAdjust="spacing" textLength="145" x="5" y="80.1074">Vehicle and Equipment</text><text fill="#000000" font-family="sans-serif" font-size="14" lengthAdjust="spacing" textLength="92" x="31.5" y="98.7285">Fleet Manager</text><ellipse cx="80.5" cy="13.5" fill="#E3E3E3" rx="8" ry="8" style="stroke:#181818;stroke-width:0.5;"/><path d="M80.5,21.5 L80.5,48.5 M67.5,29.5 L93.5,29.5 M80.5,48.5 L67.5,63.5 M80.5,48.5 L93.5,63.5 " fill="none" style="stroke:#181818;stroke-width:0.5;"/><text fill="#000000" font-family="sans-serif" font-size="14" lengthAdjust="spacing" textLength="145" x="5" y="786.7617">Vehicle and Equipment</text><text fill="#000000" font-family="sans-serif" font-size="14" lengthAdjust="spacing" textLength="92" x="31.5" y="805.3828">Fleet Manager</text><ellipse cx="80.5" cy="817.3965" fill="#E3E3E3" rx="8" ry="8" style="stroke:#181818;stroke-width:0.5;"/><path d="M80.5,825.3965 L80.5,852.3965 M67.5,833.3965 L93.5,833.3965 M80.5,852.3965 L67.5,867.3965 M80.5,852.3965 L93.5,867.3965 " fill="none" style="stroke:#181818;stroke-width:0.5;"/><rect fill="#E3E3E3" height="32.6211" rx="2.5" ry="2.5" style="stroke:#181818;stroke-width:0.5;" width="164" x="298.5" y="68.6211"/><text fill="#000000" font-family="sans-serif" font-size="14" lengthAdjust="spacing" textLength="150" x="305.5" y="90.7285">:MaintenanceRegisterUI</text><rect fill="#E3E3E3" height="32.6211" rx="2.5" ry="2.5" style="stroke:#181818;stroke-width:0.5;" width="164" x="298.5" y="771.6543"/><text fill="#000000" font-family="sans-serif" font-size="14" lengthAdjust="spacing" textLength="150" x="305.5" y="793.7617">:MaintenanceRegisterUI</text><rect fill="#E3E3E3" height="32.6211" rx="2.5" ry="2.5" style="stroke:#181818;stroke-width:0.5;" width="214" x="616.5" y="771.6543"/><text fill="#000000" font-family="sans-serif" font-size="14" lengthAdjust="spacing" textLength="200" x="623.5" y="793.7617">:RegisterMaintenanceController</text><rect fill="#E3E3E3" height="51.2422" rx="2.5" ry="2.5" style="stroke:#181818;stroke-width:0.5;" width="98" x="1019.5" y="50"/><text fill="#000000" font-family="sans-serif" font-size="14" lengthAdjust="spacing" textLength="77" x="1030" y="72.1074">organization</text><text fill="#000000" font-family="sans-serif" font-size="14" lengthAdjust="spacing" textLength="84" x="1026.5" y="90.7285">:Organization</text><rect fill="#E3E3E3" height="51.2422" rx="2.5" ry="2.5" style="stroke:#181818;stroke-width:0.5;" width="98" x="1019.5" y="771.6543"/><text fill="#000000" font-family="sans-serif" font-size="14" lengthAdjust="spacing" textLength="77" x="1030" y="793.7617">organization</text><text fill="#000000" font-family="sans-serif" font-size="14" lengthAdjust="spacing" textLength="84" x="1026.5" y="812.3828">:Organization</text><rect fill="#FFFFFF" height="642.4121" style="stroke:#181818;stroke-width:1.0;" width="10" x="75.5" y="112.2422"/><rect fill="#FFFFFF" height="92.2031" style="stroke:#181818;stroke-width:1.0;" width="10" x="375.5" y="135.5332"/><rect fill="#FFFFFF" height="31.291" style="stroke:#181818;stroke-width:1.0;" width="10" x="375.5" y="259.0273"/><rect fill="#FFFFFF" height="433.0449" style="stroke:#181818;stroke-width:1.0;" width="10" x="375.5" y="321.6094"/><rect fill="#FFFFFF" height="353.1719" style="stroke:#181818;stroke-width:1.0;" width="10" x="718.5" y="370.1914"/><rect fill="#FFFFFF" height="106.5039" style="stroke:#181818;stroke-width:1.0;" width="10" x="723.5" y="409.4824"/><rect fill="#FFFFFF" height="95.5039" style="stroke:#181818;stroke-width:1.0;" width="10" x="1068.5" y="596.5684"/><rect fill="#FFFFFF" height="95.5039" style="stroke:#181818;stroke-width:1.0;" width="10" x="1068.5" y="596.5684"/><polygon fill="#181818" points="363.5,131.5332,373.5,135.5332,363.5,139.5332,367.5,135.5332" style="stroke:#181818;stroke-width:1.0;"/><line style="stroke:#181818;stroke-width:1.0;" x1="85.5" x2="369.5" y1="135.5332" y2="135.5332"/><text fill="#000000" font-family="sans-serif" font-size="13" font-weight="bold" lengthAdjust="spacing" textLength="7" x="92.5" y="130.2705">1</text><text fill="#000000" font-family="sans-serif" font-size="13" lengthAdjust="spacing" textLength="260" x="103.5" y="130.2705">asks to register a vehicle's maintenance date</text><polygon fill="#181818" points="604.5,162.8242,614.5,166.8242,604.5,170.8242,608.5,166.8242" style="stroke:#181818;stroke-width:1.0;"/><line style="stroke:#181818;stroke-width:1.0;" x1="385.5" x2="610.5" y1="166.8242" y2="166.8242"/><text fill="#000000" font-family="sans-serif" font-size="13" font-weight="bold" lengthAdjust="spacing" textLength="7" x="392.5" y="161.5615">2</text><text fill="#000000" font-family="sans-serif" font-size="13" lengthAdjust="spacing" textLength="36" x="403.5" y="161.5615">create</text><rect fill="#E3E3E3" height="32.6211" rx="2.5" ry="2.5" style="stroke:#181818;stroke-width:0.5;" width="214" x="616.5" y="143.5332"/><text fill="#000000" font-family="sans-serif" font-size="14" lengthAdjust="spacing" textLength="200" x="623.5" y="165.6406">:RegisterMaintenanceController</text><polygon fill="#181818" points="96.5,223.7363,86.5,227.7363,96.5,231.7363,92.5,227.7363" style="stroke:#181818;stroke-width:1.0;"/><line style="stroke:#181818;stroke-width:1.0;stroke-dasharray:2.0,2.0;" x1="90.5" x2="379.5" y1="227.7363" y2="227.7363"/><text fill="#000000" font-family="sans-serif" font-size="13" font-weight="bold" lengthAdjust="spacing" textLength="7" x="102.5" y="213.8281">3</text><text fill="#000000" font-family="sans-serif" font-size="13" lengthAdjust="spacing" textLength="210" x="113.5" y="205.1826">requests data (plate ID, current KMs</text><text fill="#000000" font-family="sans-serif" font-size="13" lengthAdjust="spacing" textLength="146" x="113.5" y="222.4736">and date of maintenance)</text><polygon fill="#181818" points="363.5,255.0273,373.5,259.0273,363.5,263.0273,367.5,259.0273" style="stroke:#181818;stroke-width:1.0;"/><line style="stroke:#181818;stroke-width:1.0;" x1="85.5" x2="369.5" y1="259.0273" y2="259.0273"/><text fill="#000000" font-family="sans-serif" font-size="13" font-weight="bold" lengthAdjust="spacing" textLength="7" x="92.5" y="253.7646">4</text><text fill="#000000" font-family="sans-serif" font-size="13" lengthAdjust="spacing" textLength="122" x="103.5" y="253.7646">types requested data</text><polygon fill="#181818" points="96.5,286.3184,86.5,290.3184,96.5,294.3184,92.5,290.3184" style="stroke:#181818;stroke-width:1.0;"/><line style="stroke:#181818;stroke-width:1.0;stroke-dasharray:2.0,2.0;" x1="90.5" x2="379.5" y1="290.3184" y2="290.3184"/><text fill="#000000" font-family="sans-serif" font-size="13" font-weight="bold" lengthAdjust="spacing" textLength="7" x="102.5" y="285.0557">5</text><text fill="#000000" font-family="sans-serif" font-size="13" lengthAdjust="spacing" textLength="236" x="113.5" y="285.0557">shows all data and requests confirmation</text><polygon fill="#181818" points="363.5,317.6094,373.5,321.6094,363.5,325.6094,367.5,321.6094" style="stroke:#181818;stroke-width:1.0;"/><line style="stroke:#181818;stroke-width:1.0;" x1="85.5" x2="369.5" y1="321.6094" y2="321.6094"/><text fill="#000000" font-family="sans-serif" font-size="13" font-weight="bold" lengthAdjust="spacing" textLength="7" x="92.5" y="316.3467">6</text><text fill="#000000" font-family="sans-serif" font-size="13" lengthAdjust="spacing" textLength="78" x="103.5" y="316.3467">confirms data</text><polygon fill="#181818" points="706.5,366.1914,716.5,370.1914,706.5,374.1914,710.5,370.1914" style="stroke:#181818;stroke-width:1.0;"/><line style="stroke:#181818;stroke-width:1.0;" x1="385.5" x2="712.5" y1="370.1914" y2="370.1914"/><text fill="#000000" font-family="sans-serif" font-size="13" font-weight="bold" lengthAdjust="spacing" textLength="7" x="392.5" y="356.2832">7</text><text fill="#000000" font-family="sans-serif" font-size="13" lengthAdjust="spacing" textLength="299" x="403.5" y="347.6377">registerMaintenanceController(plate ID, current KMs</text><text fill="#000000" font-family="sans-serif" font-size="13" lengthAdjust="spacing" textLength="146" x="403.5" y="364.9287">and date of maintenance)</text><line style="stroke:#181818;stroke-width:1.0;" x1="728.5" x2="775.5" y1="396.4824" y2="396.4824"/><line style="stroke:#181818;stroke-width:1.0;" x1="775.5" x2="775.5" y1="396.4824" y2="409.4824"/><line style="stroke:#181818;stroke-width:1.0;" x1="734.5" x2="775.5" y1="409.4824" y2="409.4824"/><polygon fill="#181818" points="744.5,405.4824,734.5,409.4824,744.5,413.4824,740.5,409.4824" style="stroke:#181818;stroke-width:1.0;"/><text fill="#000000" font-family="sans-serif" font-size="13" font-weight="bold" lengthAdjust="spacing" textLength="7" x="740.5" y="391.2197">8</text><text fill="#000000" font-family="sans-serif" font-size="13" lengthAdjust="spacing" textLength="310" x="751.5" y="391.2197">getVehicleByDescription(plate ID, brand, model, type)</text><rect fill="none" height="59.2129" style="stroke:#000000;stroke-width:1.5;" width="220" x="613.5" y="422.4824"/><path d="M613.5,422.4824 L675.5,422.4824 L675.5,431.4824 L665.5,441.4824 L613.5,441.4824 L613.5,422.4824 " fill="#EEEEEE" style="stroke:#000000;stroke-width:2.0;"/><text fill="#000000" font-family="sans-serif" font-size="13" font-weight="bold" lengthAdjust="spacing" textLength="17" x="626.5" y="438.5107">ref</text><text fill="#000000" font-family="sans-serif" font-size="12" lengthAdjust="spacing" textLength="62" x="692.5" y="458.4316">Get Vehicle</text><text fill="#000000" font-family="sans-serif" font-size="12" lengthAdjust="spacing" textLength="3" x="722" y="474.3926">&#160;</text><line style="stroke:#181818;stroke-width:1.0;stroke-dasharray:2.0,2.0;" x1="733.5" x2="775.5" y1="514.9863" y2="514.9863"/><line style="stroke:#181818;stroke-width:1.0;stroke-dasharray:2.0,2.0;" x1="775.5" x2="775.5" y1="514.9863" y2="527.9863"/><line style="stroke:#181818;stroke-width:1.0;stroke-dasharray:2.0,2.0;" x1="728.5" x2="775.5" y1="527.9863" y2="527.9863"/><polygon fill="#181818" points="738.5,523.9863,728.5,527.9863,738.5,531.9863,734.5,527.9863" style="stroke:#181818;stroke-width:1.0;"/><text fill="#000000" font-family="sans-serif" font-size="13" font-weight="bold" lengthAdjust="spacing" textLength="7" x="740.5" y="509.7236">9</text><text fill="#000000" font-family="sans-serif" font-size="13" lengthAdjust="spacing" textLength="39" x="751.5" y="509.7236">vehicle</text><polygon fill="#181818" points="1056.5,592.5684,1066.5,596.5684,1056.5,600.5684,1060.5,596.5684" style="stroke:#181818;stroke-width:1.0;"/><line style="stroke:#181818;stroke-width:1.0;" x1="728.5" x2="1062.5" y1="596.5684" y2="596.5684"/><text fill="#000000" font-family="sans-serif" font-size="13" font-weight="bold" lengthAdjust="spacing" textLength="14" x="735.5" y="582.6602">10</text><text fill="#000000" font-family="sans-serif" font-size="13" lengthAdjust="spacing" textLength="264" x="753.5" y="574.0146">createMaintenanceDate(plate ID, current KMs</text><text fill="#000000" font-family="sans-serif" font-size="13" lengthAdjust="spacing" textLength="146" x="753.5" y="591.3057">and date of maintenance)</text><rect fill="none" height="59.2129" style="stroke:#000000;stroke-width:1.5;" width="147" x="1016.5" y="604.5684"/><path d="M1016.5,604.5684 L1078.5,604.5684 L1078.5,613.5684 L1068.5,623.5684 L1016.5,623.5684 L1016.5,604.5684 " fill="#EEEEEE" style="stroke:#000000;stroke-width:2.0;"/><text fill="#000000" font-family="sans-serif" font-size="13" font-weight="bold" lengthAdjust="spacing" textLength="17" x="1029.5" y="620.5967">ref</text><text fill="#000000" font-family="sans-serif" font-size="12" lengthAdjust="spacing" textLength="139" x="1020.5" y="640.5176">Create Maintenance Date</text><text fill="#000000" font-family="sans-serif" font-size="12" lengthAdjust="spacing" textLength="3" x="1088.5" y="656.4785">&#160;</text><polygon fill="#181818" points="739.5,688.0723,729.5,692.0723,739.5,696.0723,735.5,692.0723" style="stroke:#181818;stroke-width:1.0;"/><line style="stroke:#181818;stroke-width:1.0;stroke-dasharray:2.0,2.0;" x1="733.5" x2="1067.5" y1="692.0723" y2="692.0723"/><text fill="#000000" font-family="sans-serif" font-size="13" font-weight="bold" lengthAdjust="spacing" textLength="14" x="745.5" y="686.8096">11</text><text fill="#000000" font-family="sans-serif" font-size="13" lengthAdjust="spacing" textLength="101" x="763.5" y="686.8096">maintenanceDate</text><polygon fill="#181818" points="396.5,719.3633,386.5,723.3633,396.5,727.3633,392.5,723.3633" style="stroke:#181818;stroke-width:1.0;"/><line style="stroke:#181818;stroke-width:1.0;stroke-dasharray:2.0,2.0;" x1="390.5" x2="722.5" y1="723.3633" y2="723.3633"/><text fill="#000000" font-family="sans-serif" font-size="13" font-weight="bold" lengthAdjust="spacing" textLength="14" x="402.5" y="718.1006">12</text><text fill="#000000" font-family="sans-serif" font-size="13" lengthAdjust="spacing" textLength="101" x="420.5" y="718.1006">maintenanceDate</text><polygon fill="#181818" points="91.5,750.6543,81.5,754.6543,91.5,758.6543,87.5,754.6543" style="stroke:#181818;stroke-width:1.0;"/><line style="stroke:#181818;stroke-width:1.0;stroke-dasharray:2.0,2.0;" x1="85.5" x2="379.5" y1="754.6543" y2="754.6543"/><text fill="#000000" font-family="sans-serif" font-size="13" font-weight="bold" lengthAdjust="spacing" textLength="14" x="97.5" y="749.3916">13</text><text fill="#000000" font-family="sans-serif" font-size="13" lengthAdjust="spacing" textLength="158" x="115.5" y="749.3916">displays operation success</text><!--SRC=[dLLBR-8m4BxxLuoui5lHFy2XqYwq5TgYIkos9ox6cIGMYPtQ3brM_FWTEm7oWbQT4sPUttppYDrALN33SyYrqY8rEaTmfaHcJvg2YorFyBVRPmW6XUCgoPe6DkMHVfSgWPXd5XdZfTEgp3Te61kdCaA8jNOR_PTnuRI1qIkcKb0qhYAuVojbaQDoQ_MG8JfOSaNfp0YuXTVxXoT6MPmKik3AmMYwv58vL5m9N64YhKFpiWZ6BukEwL7VS9bfvOpEiZh-QZbh-sYJS2N_SIUrMglfS-CP79vNZynN8NVSOGMFGIt-1RTtX0EcPBkru3GHLc403hkgwh65_0m88WfqZd4AJSMmCJI4ejvIy1_p9KKt-5QYTTPxS_XcC4Q356q24LfXPE41Jm2aYhN9UGPhrTOu5AcIWZIjlwFIyEgNqDPzPqq0Os7G8vlzMJsnBh8xJ-ND3K6hh1XZR01zeAW7lyXytCMSifQ6wd3mQsa9iXyFJm_ek4dP6LQ4BRvwJN3x0kqn6uPWdFLe7iPeK_rkWMTP1T9ZES4MMiMIUFLKiSy0gHti9n049WD7LuRtwvITylhHRxN8fprbJz3LI_fpFpzFI2Flnb2k2TsD2BD9OBezBgr4C2GqjQ1tj1eNBKWUwIBKIDYm4Qgefw68rCggb7hjMYQDVlLuE1mEGxpGvX-7kz6IEJs_temMJ-6qTEgughp8fpU6ZsLMxNEZ6fYtZj456IAyAmGXB5FLWhnDMDUvqOrG9xkcxBKcxDZr79rsNpXCKuYafLxkBUW2gqC8jXG2hHtQyiOpV0Z-0m00]--></g></svg>