<?xml version="1.0" encoding="us-ascii" standalone="no"?><svg xmlns="http://www.w3.org/2000/svg" xmlns:xlink="http://www.w3.org/1999/xlink" contentStyleType="text/css" height="486px" preserveAspectRatio="none" style="width:673px;height:486px;background:#FFFFFF;" version="1.1" viewBox="0 0 673 486" width="673px" zoomAndPan="magnify"><defs/><g><rect fill="#FFFFFF" height="303.9883" style="stroke:#181818;stroke-width:1.0;" width="10" x="251" y="107.8242"/><rect fill="#FFFFFF" height="130.873" style="stroke:#181818;stroke-width:1.0;" width="10" x="256" y="235.6484"/><rect fill="#FFFFFF" height="42.291" style="stroke:#181818;stroke-width:1.0;" width="10" x="261" y="279.9395"/><rect fill="none" height="258.6973" style="stroke:#000000;stroke-width:1.5;" width="470" x="197" y="122.8242"/><line style="stroke:#181818;stroke-width:0.5;stroke-dasharray:5.0,5.0;" x1="256" x2="256" y1="57.2422" y2="429.8125"/><line style="stroke:#181818;stroke-width:0.5;stroke-dasharray:5.0,5.0;" x1="592" x2="592" y1="183.2363" y2="429.8125"/><rect fill="#E3E3E3" height="51.2422" rx="2.5" ry="2.5" style="stroke:#181818;stroke-width:0.5;" width="98" x="207" y="5"/><text fill="#000000" font-family="sans-serif" font-size="14" lengthAdjust="spacing" textLength="77" x="217.5" y="27.1074">organization</text><text fill="#000000" font-family="sans-serif" font-size="14" lengthAdjust="spacing" textLength="84" x="214" y="45.7285">:Organization</text><rect fill="#E3E3E3" height="51.2422" rx="2.5" ry="2.5" style="stroke:#181818;stroke-width:0.5;" width="98" x="207" y="428.8125"/><text fill="#000000" font-family="sans-serif" font-size="14" lengthAdjust="spacing" textLength="77" x="217.5" y="450.9199">organization</text><text fill="#000000" font-family="sans-serif" font-size="14" lengthAdjust="spacing" textLength="84" x="214" y="469.541">:Organization</text><rect fill="#E3E3E3" height="51.2422" rx="2.5" ry="2.5" style="stroke:#181818;stroke-width:0.5;" width="129" x="528" y="428.8125"/><text fill="#000000" font-family="sans-serif" font-size="14" lengthAdjust="spacing" textLength="111" x="537" y="450.9199">maintenanceDate</text><text fill="#000000" font-family="sans-serif" font-size="14" lengthAdjust="spacing" textLength="115" x="535" y="469.541">:MaintenanceDate</text><rect fill="#FFFFFF" height="303.9883" style="stroke:#181818;stroke-width:1.0;" width="10" x="251" y="107.8242"/><rect fill="#FFFFFF" height="130.873" style="stroke:#181818;stroke-width:1.0;" width="10" x="256" y="235.6484"/><rect fill="#FFFFFF" height="42.291" style="stroke:#181818;stroke-width:1.0;" width="10" x="261" y="279.9395"/><polygon fill="#181818" points="239,103.8242,249,107.8242,239,111.8242,243,107.8242" style="stroke:#181818;stroke-width:1.0;"/><line style="stroke:#181818;stroke-width:1.0;" x1="0" x2="245" y1="107.8242" y2="107.8242"/><text fill="#000000" font-family="sans-serif" font-size="13" font-weight="bold" lengthAdjust="spacing" textLength="7" x="7" y="93.916">8</text><text fill="#000000" font-family="sans-serif" font-size="13" lengthAdjust="spacing" textLength="188" x="18" y="85.2705">createMaintenanceDate(Vehicle,</text><text fill="#000000" font-family="sans-serif" font-size="13" lengthAdjust="spacing" textLength="221" x="18" y="102.5615">current KMs and date of maintenance)</text><path d="M197,122.8242 L317,122.8242 L317,132.1152 L307,142.1152 L197,142.1152 L197,122.8242 " fill="#EEEEEE" style="stroke:#000000;stroke-width:1.5;"/><rect fill="none" height="258.6973" style="stroke:#000000;stroke-width:1.5;" width="470" x="197" y="122.8242"/><text fill="#000000" font-family="sans-serif" font-size="13" font-weight="bold" lengthAdjust="spacing" textLength="75" x="212" y="137.8525">Create Task</text><polygon fill="#181818" points="516,178.6973,526,182.6973,516,186.6973,520,182.6973" style="stroke:#181818;stroke-width:1.0;"/><line style="stroke:#181818;stroke-width:1.0;" x1="261" x2="522" y1="182.6973" y2="182.6973"/><text fill="#000000" font-family="sans-serif" font-size="13" font-weight="bold" lengthAdjust="spacing" textLength="18" x="268" y="168.7891">8.1</text><text fill="#000000" font-family="sans-serif" font-size="13" lengthAdjust="spacing" textLength="188" x="290" y="160.1436">createMaintenanceDate(Vehicle,</text><text fill="#000000" font-family="sans-serif" font-size="13" lengthAdjust="spacing" textLength="221" x="290" y="177.4346">current KMs and date of maintenance)</text><rect fill="#E3E3E3" height="51.2422" rx="2.5" ry="2.5" style="stroke:#181818;stroke-width:0.5;" width="129" x="528" y="142.1152"/><text fill="#000000" font-family="sans-serif" font-size="14" lengthAdjust="spacing" textLength="111" x="537" y="164.2227">maintenanceDate</text><text fill="#000000" font-family="sans-serif" font-size="14" lengthAdjust="spacing" textLength="115" x="535" y="182.8438">:MaintenanceDate</text><line style="stroke:#181818;stroke-width:1.0;" x1="261" x2="308" y1="222.6484" y2="222.6484"/><line style="stroke:#181818;stroke-width:1.0;" x1="308" x2="308" y1="222.6484" y2="235.6484"/><line style="stroke:#181818;stroke-width:1.0;" x1="267" x2="308" y1="235.6484" y2="235.6484"/><polygon fill="#181818" points="277,231.6484,267,235.6484,277,239.6484,273,235.6484" style="stroke:#181818;stroke-width:1.0;"/><text fill="#000000" font-family="sans-serif" font-size="13" font-weight="bold" lengthAdjust="spacing" textLength="18" x="273" y="217.3857">8.2</text><text fill="#000000" font-family="sans-serif" font-size="13" lengthAdjust="spacing" textLength="231" x="295" y="217.3857">addMaintenanceDate(maintenanceDate)</text><line style="stroke:#181818;stroke-width:1.0;" x1="266" x2="313" y1="266.9395" y2="266.9395"/><line style="stroke:#181818;stroke-width:1.0;" x1="313" x2="313" y1="266.9395" y2="279.9395"/><line style="stroke:#181818;stroke-width:1.0;" x1="272" x2="313" y1="279.9395" y2="279.9395"/><polygon fill="#181818" points="282,275.9395,272,279.9395,282,283.9395,278,279.9395" style="stroke:#181818;stroke-width:1.0;"/><text fill="#000000" font-family="sans-serif" font-size="13" font-weight="bold" lengthAdjust="spacing" textLength="18" x="278" y="261.6768">8.3</text><text fill="#000000" font-family="sans-serif" font-size="13" lengthAdjust="spacing" textLength="253" x="300" y="261.6768">validateMaintenanceDate(maintenanceDate)</text><line style="stroke:#181818;stroke-width:1.0;stroke-dasharray:2.0,2.0;" x1="271" x2="313" y1="321.2305" y2="321.2305"/><line style="stroke:#181818;stroke-width:1.0;stroke-dasharray:2.0,2.0;" x1="313" x2="313" y1="321.2305" y2="334.2305"/><line style="stroke:#181818;stroke-width:1.0;stroke-dasharray:2.0,2.0;" x1="266" x2="313" y1="334.2305" y2="334.2305"/><polygon fill="#181818" points="276,330.2305,266,334.2305,276,338.2305,272,334.2305" style="stroke:#181818;stroke-width:1.0;"/><text fill="#000000" font-family="sans-serif" font-size="13" font-weight="bold" lengthAdjust="spacing" textLength="18" x="278" y="315.9678">8.4</text><text fill="#000000" font-family="sans-serif" font-size="13" lengthAdjust="spacing" textLength="4" x="300" y="315.9678">&#160;</text><line style="stroke:#181818;stroke-width:1.0;stroke-dasharray:2.0,2.0;" x1="266" x2="308" y1="365.5215" y2="365.5215"/><line style="stroke:#181818;stroke-width:1.0;stroke-dasharray:2.0,2.0;" x1="308" x2="308" y1="365.5215" y2="378.5215"/><line style="stroke:#181818;stroke-width:1.0;stroke-dasharray:2.0,2.0;" x1="261" x2="308" y1="378.5215" y2="378.5215"/><polygon fill="#181818" points="271,374.5215,261,378.5215,271,382.5215,267,378.5215" style="stroke:#181818;stroke-width:1.0;"/><text fill="#000000" font-family="sans-serif" font-size="13" font-weight="bold" lengthAdjust="spacing" textLength="18" x="273" y="360.2588">8.5</text><text fill="#000000" font-family="sans-serif" font-size="13" lengthAdjust="spacing" textLength="4" x="295" y="360.2588">&#160;</text><polygon fill="#181818" points="11,407.8125,1,411.8125,11,415.8125,7,411.8125" style="stroke:#181818;stroke-width:1.0;"/><line style="stroke:#181818;stroke-width:1.0;stroke-dasharray:2.0,2.0;" x1="5" x2="255" y1="411.8125" y2="411.8125"/><text fill="#000000" font-family="sans-serif" font-size="13" font-weight="bold" lengthAdjust="spacing" textLength="7" x="17" y="406.5498">9</text><text fill="#000000" font-family="sans-serif" font-size="13" lengthAdjust="spacing" textLength="101" x="28" y="406.5498">maintenanceDate</text><!--SRC=[hP91IyGm48Nl-HN3ddInWZSj8eWh7cHPqCNJNiPajWrj9oL9L_JNcsQXj5bT5dHEwUIzxys4kafpYnORQ0mRMLhJ47ZRaN33JOkome9U_MTDO4bwvA8U2ro9odneBc2BjICXGjjhgLja3pDZ2sJzXLuRtd2-6dtE01siNfwcXWOrUs9aIGlq53pBQIVQ5lVhHu6TDzmrxsJXMcHtFIi7QIc84i_P6vLQrdG16vQTjHIIdfSEa1MeS0zc2wFWSp5XNru9b5xlUc4_BuGghEbQU8XXi4PNYTZkAqWWJDEFE9__rq09FAwAIgNOvFN28eCphOELVgjnv0vhhNvOvo3t6F3av25z7tzKgsY25Nzbfhme95Rxm-Ztk8cDsooBs1oIfn0fw1i0]--></g></svg>