<?xml version="1.0" encoding="us-ascii" standalone="no"?><svg xmlns="http://www.w3.org/2000/svg" xmlns:xlink="http://www.w3.org/1999/xlink" contentStyleType="text/css" height="650px" preserveAspectRatio="none" style="width:1026px;height:650px;background:#FFFFFF;" version="1.1" viewBox="0 0 1026 650" width="1026px" zoomAndPan="magnify"><defs/><g><rect fill="#FFFFFF" height="485.7734" style="stroke:#181818;stroke-width:1.0;" width="10" x="130" y="90.5332"/><rect fill="#FFFFFF" height="74.9121" style="stroke:#181818;stroke-width:1.0;" width="10" x="285.5" y="148.1152"/><rect fill="#FFFFFF" height="283.6973" style="stroke:#181818;stroke-width:1.0;" width="10" x="404.5" y="254.3184"/><rect fill="#FFFFFF" height="36.291" style="stroke:#181818;stroke-width:1.0;" width="10" x="409.5" y="394.8125"/><rect fill="none" height="440.4824" style="stroke:#000000;stroke-width:1.5;" width="974" x="46.5" y="105.5332"/><rect fill="none" height="169.7852" style="stroke:#000000;stroke-width:1.5;" width="653" x="357.5" y="312.9395"/><line style="stroke:#181818;stroke-width:0.5;stroke-dasharray:5.0,5.0;" x1="134.5" x2="134.5" y1="57.2422" y2="594.3066"/><line style="stroke:#181818;stroke-width:0.5;stroke-dasharray:5.0,5.0;" x1="290.5" x2="290.5" y1="57.2422" y2="594.3066"/><line style="stroke:#181818;stroke-width:0.5;stroke-dasharray:5.0,5.0;" x1="409.5" x2="409.5" y1="57.2422" y2="594.3066"/><line style="stroke:#181818;stroke-width:0.5;stroke-dasharray:5.0,5.0;" x1="666.5" x2="666.5" y1="187.9258" y2="594.3066"/><line style="stroke:#181818;stroke-width:0.5;stroke-dasharray:5.0,5.0;" x1="797.5" x2="797.5" y1="294.1289" y2="594.3066"/><line style="stroke:#181818;stroke-width:0.5;stroke-dasharray:5.0,5.0;" x1="937.5" x2="937.5" y1="439.623" y2="594.3066"/><rect fill="#E3E3E3" height="32.6211" rx="2.5" ry="2.5" style="stroke:#181818;stroke-width:0.5;" width="157" x="56.5" y="23.6211"/><text fill="#000000" font-family="sans-serif" font-size="14" lengthAdjust="spacing" textLength="143" x="63.5" y="45.7285">:CancelEntryController</text><rect fill="#E3E3E3" height="32.6211" rx="2.5" ry="2.5" style="stroke:#181818;stroke-width:0.5;" width="157" x="56.5" y="593.3066"/><text fill="#000000" font-family="sans-serif" font-size="14" lengthAdjust="spacing" textLength="143" x="63.5" y="615.4141">:CancelEntryController</text><rect fill="#E3E3E3" height="51.2422" rx="2.5" ry="2.5" style="stroke:#181818;stroke-width:0.5;" width="134" x="223.5" y="5"/><text fill="#000000" font-family="sans-serif" font-size="14" lengthAdjust="spacing" textLength="120" x="230.5" y="27.1074">agendaRepository:</text><text fill="#000000" font-family="sans-serif" font-size="14" lengthAdjust="spacing" textLength="117" x="232" y="45.7285">AgendaRepository</text><rect fill="#E3E3E3" height="51.2422" rx="2.5" ry="2.5" style="stroke:#181818;stroke-width:0.5;" width="134" x="223.5" y="593.3066"/><text fill="#000000" font-family="sans-serif" font-size="14" lengthAdjust="spacing" textLength="120" x="230.5" y="615.4141">agendaRepository:</text><text fill="#000000" font-family="sans-serif" font-size="14" lengthAdjust="spacing" textLength="117" x="232" y="634.0352">AgendaRepository</text><rect fill="#E3E3E3" height="32.6211" rx="2.5" ry="2.5" style="stroke:#181818;stroke-width:0.5;" width="84" x="367.5" y="23.6211"/><text fill="#000000" font-family="sans-serif" font-size="14" lengthAdjust="spacing" textLength="70" x="374.5" y="45.7285">ListMapper</text><rect fill="#E3E3E3" height="32.6211" rx="2.5" ry="2.5" style="stroke:#181818;stroke-width:0.5;" width="84" x="367.5" y="593.3066"/><text fill="#000000" font-family="sans-serif" font-size="14" lengthAdjust="spacing" textLength="70" x="374.5" y="615.4141">ListMapper</text><rect fill="#E3E3E3" height="32.6211" rx="2.5" ry="2.5" style="stroke:#181818;stroke-width:0.5;" width="106" x="613.5" y="593.3066"/><text fill="#000000" font-family="sans-serif" font-size="14" lengthAdjust="spacing" textLength="92" x="620.5" y="615.4141">agendaEntries</text><rect fill="#E3E3E3" height="32.6211" rx="2.5" ry="2.5" style="stroke:#181818;stroke-width:0.5;" width="136" x="729.5" y="593.3066"/><text fill="#000000" font-family="sans-serif" font-size="14" lengthAdjust="spacing" textLength="122" x="736.5" y="615.4141">agendaEntriesDTO</text><rect fill="#E3E3E3" height="32.6211" rx="2.5" ry="2.5" style="stroke:#181818;stroke-width:0.5;" width="125" x="875.5" y="593.3066"/><text fill="#000000" font-family="sans-serif" font-size="14" lengthAdjust="spacing" textLength="111" x="882.5" y="615.4141">agendaEntryDTO</text><rect fill="#FFFFFF" height="485.7734" style="stroke:#181818;stroke-width:1.0;" width="10" x="130" y="90.5332"/><rect fill="#FFFFFF" height="74.9121" style="stroke:#181818;stroke-width:1.0;" width="10" x="285.5" y="148.1152"/><rect fill="#FFFFFF" height="283.6973" style="stroke:#181818;stroke-width:1.0;" width="10" x="404.5" y="254.3184"/><rect fill="#FFFFFF" height="36.291" style="stroke:#181818;stroke-width:1.0;" width="10" x="409.5" y="394.8125"/><polygon fill="#181818" points="118,86.5332,128,90.5332,118,94.5332,122,90.5332" style="stroke:#181818;stroke-width:1.0;"/><line style="stroke:#181818;stroke-width:1.0;" x1="0" x2="124" y1="90.5332" y2="90.5332"/><text fill="#000000" font-family="sans-serif" font-size="13" lengthAdjust="spacing" textLength="111" x="7" y="85.2705">getAgendaEntries()</text><path d="M46.5,105.5332 L213.5,105.5332 L213.5,114.8242 L203.5,124.8242 L46.5,124.8242 L46.5,105.5332 " fill="#EEEEEE" style="stroke:#000000;stroke-width:1.5;"/><rect fill="none" height="440.4824" style="stroke:#000000;stroke-width:1.5;" width="974" x="46.5" y="105.5332"/><text fill="#000000" font-family="sans-serif" font-size="13" font-weight="bold" lengthAdjust="spacing" textLength="122" x="61.5" y="120.5615">Get Agenda Entries</text><polygon fill="#181818" points="273.5,144.1152,283.5,148.1152,273.5,152.1152,277.5,148.1152" style="stroke:#181818;stroke-width:1.0;"/><line style="stroke:#181818;stroke-width:1.0;" x1="140" x2="279.5" y1="148.1152" y2="148.1152"/><text fill="#000000" font-family="sans-serif" font-size="13" lengthAdjust="spacing" textLength="111" x="147" y="142.8525">getAgendaEntries()</text><polygon fill="#181818" points="601.5,175.4063,611.5,179.4063,601.5,183.4063,605.5,179.4063" style="stroke:#181818;stroke-width:1.0;"/><line style="stroke:#181818;stroke-width:1.0;" x1="295.5" x2="607.5" y1="179.4063" y2="179.4063"/><text fill="#000000" font-family="sans-serif" font-size="13" lengthAdjust="spacing" textLength="44" x="302.5" y="174.1436">create()</text><rect fill="#E3E3E3" height="32.6211" rx="2.5" ry="2.5" style="stroke:#181818;stroke-width:0.5;" width="106" x="613.5" y="156.1152"/><text fill="#000000" font-family="sans-serif" font-size="14" lengthAdjust="spacing" textLength="92" x="620.5" y="178.2227">agendaEntries</text><polygon fill="#181818" points="151,219.0273,141,223.0273,151,227.0273,147,223.0273" style="stroke:#181818;stroke-width:1.0;"/><line style="stroke:#181818;stroke-width:1.0;stroke-dasharray:2.0,2.0;" x1="145" x2="289.5" y1="223.0273" y2="223.0273"/><text fill="#000000" font-family="sans-serif" font-size="13" lengthAdjust="spacing" textLength="83" x="157" y="217.7646">agendaEntries</text><polygon fill="#181818" points="392.5,250.3184,402.5,254.3184,392.5,258.3184,396.5,254.3184" style="stroke:#181818;stroke-width:1.0;"/><line style="stroke:#181818;stroke-width:1.0;" x1="140" x2="398.5" y1="254.3184" y2="254.3184"/><text fill="#000000" font-family="sans-serif" font-size="13" lengthAdjust="spacing" textLength="128" x="147" y="249.0557">toDTO(agendaEntries)</text><polygon fill="#181818" points="717.5,281.6094,727.5,285.6094,717.5,289.6094,721.5,285.6094" style="stroke:#181818;stroke-width:1.0;"/><line style="stroke:#181818;stroke-width:1.0;" x1="414.5" x2="723.5" y1="285.6094" y2="285.6094"/><text fill="#000000" font-family="sans-serif" font-size="13" lengthAdjust="spacing" textLength="44" x="421.5" y="280.3467">create()</text><rect fill="#E3E3E3" height="32.6211" rx="2.5" ry="2.5" style="stroke:#181818;stroke-width:0.5;" width="136" x="729.5" y="262.3184"/><text fill="#000000" font-family="sans-serif" font-size="14" lengthAdjust="spacing" textLength="122" x="736.5" y="284.4258">agendaEntriesDTO</text><path d="M357.5,312.9395 L430.5,312.9395 L430.5,322.2305 L420.5,332.2305 L357.5,332.2305 L357.5,312.9395 " fill="#EEEEEE" style="stroke:#000000;stroke-width:1.5;"/><rect fill="none" height="169.7852" style="stroke:#000000;stroke-width:1.5;" width="653" x="357.5" y="312.9395"/><text fill="#000000" font-family="sans-serif" font-size="13" font-weight="bold" lengthAdjust="spacing" textLength="28" x="372.5" y="327.9678">loop</text><text fill="#000000" font-family="sans-serif" font-size="11" font-weight="bold" lengthAdjust="spacing" textLength="180" x="445.5" y="326.8096">[for each entry in agendaEntries]</text><polygon fill="#181818" points="654.5,351.5215,664.5,355.5215,654.5,359.5215,658.5,355.5215" style="stroke:#181818;stroke-width:1.0;"/><line style="stroke:#181818;stroke-width:1.0;" x1="414.5" x2="660.5" y1="355.5215" y2="355.5215"/><text fill="#000000" font-family="sans-serif" font-size="13" lengthAdjust="spacing" textLength="29" x="421.5" y="350.2588">get(i)</text><line style="stroke:#181818;stroke-width:1.0;" x1="414.5" x2="461.5" y1="381.8125" y2="381.8125"/><line style="stroke:#181818;stroke-width:1.0;" x1="461.5" x2="461.5" y1="381.8125" y2="394.8125"/><line style="stroke:#181818;stroke-width:1.0;" x1="420.5" x2="461.5" y1="394.8125" y2="394.8125"/><polygon fill="#181818" points="430.5,390.8125,420.5,394.8125,430.5,398.8125,426.5,394.8125" style="stroke:#181818;stroke-width:1.0;"/><text fill="#000000" font-family="sans-serif" font-size="13" lengthAdjust="spacing" textLength="233" x="426.5" y="376.5498">agendaEntryDTO = toDTO(agendaEntry)</text><polygon fill="#181818" points="863.5,427.1035,873.5,431.1035,863.5,435.1035,867.5,431.1035" style="stroke:#181818;stroke-width:1.0;"/><line style="stroke:#181818;stroke-width:1.0;stroke-dasharray:2.0,2.0;" x1="414.5" x2="869.5" y1="431.1035" y2="431.1035"/><text fill="#000000" font-family="sans-serif" font-size="13" lengthAdjust="spacing" textLength="117" x="421.5" y="425.8408">create(agendaEntry)</text><rect fill="#E3E3E3" height="32.6211" rx="2.5" ry="2.5" style="stroke:#181818;stroke-width:0.5;" width="125" x="875.5" y="407.8125"/><text fill="#000000" font-family="sans-serif" font-size="14" lengthAdjust="spacing" textLength="111" x="882.5" y="429.9199">agendaEntryDTO</text><polygon fill="#181818" points="785.5,470.7246,795.5,474.7246,785.5,478.7246,789.5,474.7246" style="stroke:#181818;stroke-width:1.0;"/><line style="stroke:#181818;stroke-width:1.0;" x1="414.5" x2="791.5" y1="474.7246" y2="474.7246"/><text fill="#000000" font-family="sans-serif" font-size="13" lengthAdjust="spacing" textLength="128" x="421.5" y="469.4619">add(agendaEntryDTO)</text><polygon fill="#181818" points="151,534.0156,141,538.0156,151,542.0156,147,538.0156" style="stroke:#181818;stroke-width:1.0;"/><line style="stroke:#181818;stroke-width:1.0;stroke-dasharray:2.0,2.0;" x1="145" x2="408.5" y1="538.0156" y2="538.0156"/><text fill="#000000" font-family="sans-serif" font-size="13" lengthAdjust="spacing" textLength="109" x="157" y="532.7529">agendaEntriesDTO</text><polygon fill="#181818" points="11,572.3066,1,576.3066,11,580.3066,7,576.3066" style="stroke:#181818;stroke-width:1.0;"/><line style="stroke:#181818;stroke-width:1.0;stroke-dasharray:2.0,2.0;" x1="5" x2="134" y1="576.3066" y2="576.3066"/><text fill="#000000" font-family="sans-serif" font-size="13" lengthAdjust="spacing" textLength="109" x="17" y="571.0439">agendaEntriesDTO</text><!--SRC=[fLF1Yi8m4BttAmPFLV07okw2gEobPK4zxYMqOmtM92Hnbu8VlvFQhKtNL67d44BovisybuavSg6OPYSuII7pWvOd1AlF69dkHh7yo4hSshf2q9XR9igg3p07LiXlBahOiyfWH44NbkTSCM5XaYoPoB5Q2wlhfQHLLXNg2J03ozqczS5KIHHiWqeQRgMkaq-n61mrcRlLnazCkR4PKwfbJhDxlAu7ZgP1BDRR4SXgz_6Becq8MDzW3XL16_EtHXeaKA9Tz7dZQGUw1Sij_s8MhtwuarBBiu9tj73DXZRTcGkXQ4fIQVBcsSh31fojWGgEbSZ9aDaiWLmZuObp1Dowa83dxFs40lqUHWMcMG9MakEnnnmGs17JJDn7f5chZ2YV45T9gM0lDL3F1q0t1y35GEM3Iitxn7mwYdCw_M63rp_2wt_9RhhnPJ-cxZtMKvwIYgA8VIK1Qe84P_nokOnCVwkc_NV3pnpE6uY9kYxSvcK-3pBs4fj_6_q0]--></g></svg>