<?xml version="1.0" encoding="us-ascii" standalone="no"?><svg xmlns="http://www.w3.org/2000/svg" xmlns:xlink="http://www.w3.org/1999/xlink" contentStyleType="text/css" height="1145px" preserveAspectRatio="none" style="width:2219px;height:1145px;background:#FFFFFF;" version="1.1" viewBox="0 0 2219 1145" width="2219px" zoomAndPan="magnify"><defs/><g><!--class ApplicationSession--><g id="elem_ApplicationSession"><rect codeLine="9" fill="#F1F1F1" height="85.2422" id="ApplicationSession" rx="2.5" ry="2.5" style="stroke:#181818;stroke-width:0.5;" width="151" x="1958" y="408.5"/><ellipse cx="1973" cy="424.5" fill="#ADD1B2" rx="11" ry="11" style="stroke:#181818;stroke-width:1.0;"/><path d="M1975.7656,420.375 Q1975.9219,420.1563 1976.1094,420.0469 Q1976.2969,419.9375 1976.5156,419.9375 Q1976.8906,419.9375 1977.125,420.2031 Q1977.3594,420.4531 1977.3594,421.0625 L1977.3594,422.5156 Q1977.3594,423.125 1977.125,423.3906 Q1976.8906,423.6563 1976.5156,423.6563 Q1976.1719,423.6563 1975.9688,423.4531 Q1975.7656,423.2656 1975.6563,422.75 Q1975.6094,422.3906 1975.4219,422.2031 Q1975.0938,421.8281 1974.4844,421.6094 Q1973.875,421.3906 1973.25,421.3906 Q1972.4844,421.3906 1971.8438,421.7188 Q1971.2188,422.0469 1970.7188,422.7969 Q1970.2344,423.5469 1970.2344,424.5781 L1970.2344,425.6719 Q1970.2344,426.9063 1971.125,427.7344 Q1972.0156,428.5469 1973.6094,428.5469 Q1974.5469,428.5469 1975.2031,428.2969 Q1975.5938,428.1406 1976.0156,427.7031 Q1976.2813,427.4375 1976.4219,427.3594 Q1976.5781,427.2813 1976.7813,427.2813 Q1977.1094,427.2813 1977.3594,427.5469 Q1977.625,427.7969 1977.625,428.1406 Q1977.625,428.4844 1977.2813,428.8906 Q1976.7813,429.4688 1975.9844,429.7969 Q1974.9063,430.25 1973.6094,430.25 Q1972.0938,430.25 1970.8906,429.625 Q1969.9063,429.125 1969.2188,428.0625 Q1968.5313,426.9844 1968.5313,425.7031 L1968.5313,424.5469 Q1968.5313,423.2188 1969.1406,422.0781 Q1969.7656,420.9219 1970.8594,420.3125 Q1971.9531,419.6875 1973.1875,419.6875 Q1973.9219,419.6875 1974.5625,419.8594 Q1975.2188,420.0156 1975.7656,420.375 Z " fill="#000000"/><text fill="#000000" font-family="sans-serif" font-size="14" lengthAdjust="spacing" textLength="119" x="1987" y="430.2969">ApplicationSession</text><line style="stroke:#181818;stroke-width:0.5;" x1="1959" x2="2108" y1="440.5" y2="440.5"/><line style="stroke:#181818;stroke-width:0.5;" x1="1959" x2="2108" y1="448.5" y2="448.5"/><text fill="#000000" font-family="sans-serif" font-size="14" lengthAdjust="spacing" textLength="128" x="1964" y="467.6074">+static getInstance()</text><text fill="#000000" font-family="sans-serif" font-size="14" lengthAdjust="spacing" textLength="136" x="1964" y="486.2285">+getCurrentSession()</text></g><!--class UserSession--><g id="elem_UserSession"><rect codeLine="15" fill="#F1F1F1" height="66.6211" id="UserSession" rx="2.5" ry="2.5" style="stroke:#181818;stroke-width:0.5;" width="113" x="1895" y="740"/><ellipse cx="1910.9" cy="756" fill="#ADD1B2" rx="11" ry="11" style="stroke:#181818;stroke-width:1.0;"/><path d="M1913.6656,751.875 Q1913.8219,751.6563 1914.0094,751.5469 Q1914.1969,751.4375 1914.4156,751.4375 Q1914.7906,751.4375 1915.025,751.7031 Q1915.2594,751.9531 1915.2594,752.5625 L1915.2594,754.0156 Q1915.2594,754.625 1915.025,754.8906 Q1914.7906,755.1563 1914.4156,755.1563 Q1914.0719,755.1563 1913.8688,754.9531 Q1913.6656,754.7656 1913.5563,754.25 Q1913.5094,753.8906 1913.3219,753.7031 Q1912.9938,753.3281 1912.3844,753.1094 Q1911.775,752.8906 1911.15,752.8906 Q1910.3844,752.8906 1909.7438,753.2188 Q1909.1188,753.5469 1908.6188,754.2969 Q1908.1344,755.0469 1908.1344,756.0781 L1908.1344,757.1719 Q1908.1344,758.4063 1909.025,759.2344 Q1909.9156,760.0469 1911.5094,760.0469 Q1912.4469,760.0469 1913.1031,759.7969 Q1913.4938,759.6406 1913.9156,759.2031 Q1914.1813,758.9375 1914.3219,758.8594 Q1914.4781,758.7813 1914.6813,758.7813 Q1915.0094,758.7813 1915.2594,759.0469 Q1915.525,759.2969 1915.525,759.6406 Q1915.525,759.9844 1915.1813,760.3906 Q1914.6813,760.9688 1913.8844,761.2969 Q1912.8063,761.75 1911.5094,761.75 Q1909.9938,761.75 1908.7906,761.125 Q1907.8063,760.625 1907.1188,759.5625 Q1906.4313,758.4844 1906.4313,757.2031 L1906.4313,756.0469 Q1906.4313,754.7188 1907.0406,753.5781 Q1907.6656,752.4219 1908.7594,751.8125 Q1909.8531,751.1875 1911.0875,751.1875 Q1911.8219,751.1875 1912.4625,751.3594 Q1913.1188,751.5156 1913.6656,751.875 Z " fill="#000000"/><text fill="#000000" font-family="sans-serif" font-size="14" lengthAdjust="spacing" textLength="79" x="1925.1" y="761.7969">UserSession</text><line style="stroke:#181818;stroke-width:0.5;" x1="1896" x2="2007" y1="772" y2="772"/><line style="stroke:#181818;stroke-width:0.5;" x1="1896" x2="2007" y1="780" y2="780"/><text fill="#000000" font-family="sans-serif" font-size="14" lengthAdjust="spacing" textLength="101" x="1901" y="799.1074">+getUserEmail()</text></g><!--class AgendaEntry--><g id="elem_AgendaEntry"><rect codeLine="20" fill="#F1F1F1" height="345.9375" id="AgendaEntry" rx="2.5" ry="2.5" style="stroke:#181818;stroke-width:0.5;" width="743" x="167" y="278"/><ellipse cx="493.25" cy="294" fill="#ADD1B2" rx="11" ry="11" style="stroke:#181818;stroke-width:1.0;"/><path d="M496.0156,289.875 Q496.1719,289.6563 496.3594,289.5469 Q496.5469,289.4375 496.7656,289.4375 Q497.1406,289.4375 497.375,289.7031 Q497.6094,289.9531 497.6094,290.5625 L497.6094,292.0156 Q497.6094,292.625 497.375,292.8906 Q497.1406,293.1563 496.7656,293.1563 Q496.4219,293.1563 496.2188,292.9531 Q496.0156,292.7656 495.9063,292.25 Q495.8594,291.8906 495.6719,291.7031 Q495.3438,291.3281 494.7344,291.1094 Q494.125,290.8906 493.5,290.8906 Q492.7344,290.8906 492.0938,291.2188 Q491.4688,291.5469 490.9688,292.2969 Q490.4844,293.0469 490.4844,294.0781 L490.4844,295.1719 Q490.4844,296.4063 491.375,297.2344 Q492.2656,298.0469 493.8594,298.0469 Q494.7969,298.0469 495.4531,297.7969 Q495.8438,297.6406 496.2656,297.2031 Q496.5313,296.9375 496.6719,296.8594 Q496.8281,296.7813 497.0313,296.7813 Q497.3594,296.7813 497.6094,297.0469 Q497.875,297.2969 497.875,297.6406 Q497.875,297.9844 497.5313,298.3906 Q497.0313,298.9688 496.2344,299.2969 Q495.1563,299.75 493.8594,299.75 Q492.3438,299.75 491.1406,299.125 Q490.1563,298.625 489.4688,297.5625 Q488.7813,296.4844 488.7813,295.2031 L488.7813,294.0469 Q488.7813,292.7188 489.3906,291.5781 Q490.0156,290.4219 491.1094,289.8125 Q492.2031,289.1875 493.4375,289.1875 Q494.1719,289.1875 494.8125,289.3594 Q495.4688,289.5156 496.0156,289.875 Z " fill="#000000"/><text fill="#000000" font-family="sans-serif" font-size="14" lengthAdjust="spacing" textLength="82" x="513.75" y="299.7969">AgendaEntry</text><line style="stroke:#181818;stroke-width:0.5;" x1="168" x2="909" y1="310" y2="310"/><text fill="#000000" font-family="sans-serif" font-size="14" lengthAdjust="spacing" textLength="72" x="173" y="329.1074">-title: String</text><text fill="#000000" font-family="sans-serif" font-size="14" lengthAdjust="spacing" textLength="147" x="173" y="347.7285">-taskDescription: String</text><text fill="#000000" font-family="sans-serif" font-size="14" lengthAdjust="spacing" textLength="101" x="173" y="366.3496">-urgency: String</text><text fill="#000000" font-family="sans-serif" font-size="14" lengthAdjust="spacing" textLength="102" x="173" y="384.9707">-duration: String</text><text fill="#000000" font-family="sans-serif" font-size="14" lengthAdjust="spacing" textLength="241" x="173" y="403.5918">-associatedGreenSpace: GreenSpace</text><text fill="#000000" font-family="sans-serif" font-size="14" lengthAdjust="spacing" textLength="153" x="173" y="422.2129">-associatedTeam: Team</text><text fill="#000000" font-family="sans-serif" font-size="14" lengthAdjust="spacing" textLength="218" x="173" y="440.834">-associatedVehicles: List&lt;Vehicle&gt;</text><text fill="#000000" font-family="sans-serif" font-size="14" lengthAdjust="spacing" textLength="88" x="173" y="459.4551">-status: String</text><text fill="#000000" font-family="sans-serif" font-size="14" lengthAdjust="spacing" textLength="135" x="173" y="478.0762">-startDate: LocalDate</text><line style="stroke:#181818;stroke-width:0.5;" x1="168" x2="909" y1="485.5898" y2="485.5898"/><text fill="#000000" font-family="sans-serif" font-size="14" lengthAdjust="spacing" textLength="731" x="173" y="504.6973">+AgendaEntry(String title, String taskDescription, String urgency, String duration, String status, LocalDate startDate)</text><text fill="#000000" font-family="sans-serif" font-size="14" lengthAdjust="spacing" textLength="338" x="173" y="523.3184">+boolean addGreenSpace(GreenSpace greenSpace)</text><text fill="#000000" font-family="sans-serif" font-size="14" lengthAdjust="spacing" textLength="204" x="173" y="541.9395">+boolean addTeam(Team team)</text><text fill="#000000" font-family="sans-serif" font-size="14" lengthAdjust="spacing" textLength="237" x="173" y="560.5605">+boolean addVehicle(Vehicle vehicle)</text><text fill="#000000" font-family="sans-serif" font-size="14" lengthAdjust="spacing" textLength="168" x="173" y="579.1816">+boolean equals(Object o)</text><text fill="#000000" font-family="sans-serif" font-size="14" lengthAdjust="spacing" textLength="102" x="173" y="597.8027">+int hashCode()</text><text fill="#000000" font-family="sans-serif" font-size="14" lengthAdjust="spacing" textLength="138" x="173" y="616.4238">+AgendaEntry clone()</text></g><!--class Agenda--><g id="elem_Agenda"><rect codeLine="39" fill="#F1F1F1" height="215.5898" id="Agenda" rx="2.5" ry="2.5" style="stroke:#181818;stroke-width:0.5;" width="460" x="1017.5" y="923"/><ellipse cx="1218.75" cy="939" fill="#ADD1B2" rx="11" ry="11" style="stroke:#181818;stroke-width:1.0;"/><path d="M1221.5156,934.875 Q1221.6719,934.6563 1221.8594,934.5469 Q1222.0469,934.4375 1222.2656,934.4375 Q1222.6406,934.4375 1222.875,934.7031 Q1223.1094,934.9531 1223.1094,935.5625 L1223.1094,937.0156 Q1223.1094,937.625 1222.875,937.8906 Q1222.6406,938.1563 1222.2656,938.1563 Q1221.9219,938.1563 1221.7188,937.9531 Q1221.5156,937.7656 1221.4063,937.25 Q1221.3594,936.8906 1221.1719,936.7031 Q1220.8438,936.3281 1220.2344,936.1094 Q1219.625,935.8906 1219,935.8906 Q1218.2344,935.8906 1217.5938,936.2188 Q1216.9688,936.5469 1216.4688,937.2969 Q1215.9844,938.0469 1215.9844,939.0781 L1215.9844,940.1719 Q1215.9844,941.4063 1216.875,942.2344 Q1217.7656,943.0469 1219.3594,943.0469 Q1220.2969,943.0469 1220.9531,942.7969 Q1221.3438,942.6406 1221.7656,942.2031 Q1222.0313,941.9375 1222.1719,941.8594 Q1222.3281,941.7813 1222.5313,941.7813 Q1222.8594,941.7813 1223.1094,942.0469 Q1223.375,942.2969 1223.375,942.6406 Q1223.375,942.9844 1223.0313,943.3906 Q1222.5313,943.9688 1221.7344,944.2969 Q1220.6563,944.75 1219.3594,944.75 Q1217.8438,944.75 1216.6406,944.125 Q1215.6563,943.625 1214.9688,942.5625 Q1214.2813,941.4844 1214.2813,940.2031 L1214.2813,939.0469 Q1214.2813,937.7188 1214.8906,936.5781 Q1215.5156,935.4219 1216.6094,934.8125 Q1217.7031,934.1875 1218.9375,934.1875 Q1219.6719,934.1875 1220.3125,934.3594 Q1220.9688,934.5156 1221.5156,934.875 Z " fill="#000000"/><text fill="#000000" font-family="sans-serif" font-size="14" lengthAdjust="spacing" textLength="49" x="1239.25" y="944.7969">Agenda</text><line style="stroke:#181818;stroke-width:0.5;" x1="1018.5" x2="1476.5" y1="955" y2="955"/><text fill="#000000" font-family="sans-serif" font-size="14" lengthAdjust="spacing" textLength="176" x="1023.5" y="974.1074">-entries: List&lt;AgendaEntry&gt;</text><text fill="#000000" font-family="sans-serif" font-size="14" lengthAdjust="spacing" textLength="70" x="1023.5" y="992.7285">-gsm: GSM</text><line style="stroke:#181818;stroke-width:0.5;" x1="1018.5" x2="1476.5" y1="1000.2422" y2="1000.2422"/><text fill="#000000" font-family="sans-serif" font-size="14" lengthAdjust="spacing" textLength="311" x="1023.5" y="1019.3496">+ToDoList(List&lt;AgendaEntry&gt; entries, GSM gsm)</text><text fill="#000000" font-family="sans-serif" font-size="14" lengthAdjust="spacing" textLength="248" x="1023.5" y="1037.9707">+boolean addEntry(AgendaEntry entry)</text><text fill="#000000" font-family="sans-serif" font-size="14" lengthAdjust="spacing" textLength="448" x="1023.5" y="1056.5918">+boolean postponeEntry(AgendaEntry entry, LocalDate postponeDate)</text><text fill="#000000" font-family="sans-serif" font-size="14" lengthAdjust="spacing" textLength="265" x="1023.5" y="1075.2129">+boolean cancelEntry(AgendaEntry entry)</text><text fill="#000000" font-family="sans-serif" font-size="14" lengthAdjust="spacing" textLength="168" x="1023.5" y="1093.834">+boolean equals(Object o)</text><text fill="#000000" font-family="sans-serif" font-size="14" lengthAdjust="spacing" textLength="102" x="1023.5" y="1112.4551">+int hashCode()</text><text fill="#000000" font-family="sans-serif" font-size="14" lengthAdjust="spacing" textLength="138" x="1023.5" y="1131.0762">+AgendaEntry clone()</text></g><!--class AgendaRepository--><g id="elem_AgendaRepository"><rect codeLine="51" fill="#F1F1F1" height="141.1055" id="AgendaRepository" rx="2.5" ry="2.5" style="stroke:#181818;stroke-width:0.5;" width="260" x="1318.5" y="703"/><ellipse cx="1385.75" cy="719" fill="#ADD1B2" rx="11" ry="11" style="stroke:#181818;stroke-width:1.0;"/><path d="M1388.5156,714.875 Q1388.6719,714.6563 1388.8594,714.5469 Q1389.0469,714.4375 1389.2656,714.4375 Q1389.6406,714.4375 1389.875,714.7031 Q1390.1094,714.9531 1390.1094,715.5625 L1390.1094,717.0156 Q1390.1094,717.625 1389.875,717.8906 Q1389.6406,718.1563 1389.2656,718.1563 Q1388.9219,718.1563 1388.7188,717.9531 Q1388.5156,717.7656 1388.4063,717.25 Q1388.3594,716.8906 1388.1719,716.7031 Q1387.8438,716.3281 1387.2344,716.1094 Q1386.625,715.8906 1386,715.8906 Q1385.2344,715.8906 1384.5938,716.2188 Q1383.9688,716.5469 1383.4688,717.2969 Q1382.9844,718.0469 1382.9844,719.0781 L1382.9844,720.1719 Q1382.9844,721.4063 1383.875,722.2344 Q1384.7656,723.0469 1386.3594,723.0469 Q1387.2969,723.0469 1387.9531,722.7969 Q1388.3438,722.6406 1388.7656,722.2031 Q1389.0313,721.9375 1389.1719,721.8594 Q1389.3281,721.7813 1389.5313,721.7813 Q1389.8594,721.7813 1390.1094,722.0469 Q1390.375,722.2969 1390.375,722.6406 Q1390.375,722.9844 1390.0313,723.3906 Q1389.5313,723.9688 1388.7344,724.2969 Q1387.6563,724.75 1386.3594,724.75 Q1384.8438,724.75 1383.6406,724.125 Q1382.6563,723.625 1381.9688,722.5625 Q1381.2813,721.4844 1381.2813,720.2031 L1381.2813,719.0469 Q1381.2813,717.7188 1381.8906,716.5781 Q1382.5156,715.4219 1383.6094,714.8125 Q1384.7031,714.1875 1385.9375,714.1875 Q1386.6719,714.1875 1387.3125,714.3594 Q1387.9688,714.5156 1388.5156,714.875 Z " fill="#000000"/><text fill="#000000" font-family="sans-serif" font-size="14" lengthAdjust="spacing" textLength="117" x="1406.25" y="724.7969">AgendaRepository</text><line style="stroke:#181818;stroke-width:0.5;" x1="1319.5" x2="1577.5" y1="735" y2="735"/><text fill="#000000" font-family="sans-serif" font-size="14" lengthAdjust="spacing" textLength="151" x="1324.5" y="754.1074">-List&lt;Agenda&gt; agendas</text><line style="stroke:#181818;stroke-width:0.5;" x1="1319.5" x2="1577.5" y1="761.6211" y2="761.6211"/><text fill="#000000" font-family="sans-serif" font-size="14" lengthAdjust="spacing" textLength="247" x="1324.5" y="780.7285">+boolean addAgenda(Agenda agenda)</text><text fill="#000000" font-family="sans-serif" font-size="14" lengthAdjust="spacing" textLength="185" x="1324.5" y="799.3496">+List&lt;Agenda&gt; getAgendas()</text><text fill="#000000" font-family="sans-serif" font-size="14" lengthAdjust="spacing" textLength="248" x="1324.5" y="817.9707">+Agenda getAgendaByGSM(GSM gsm)</text><text fill="#000000" font-family="sans-serif" font-size="14" lengthAdjust="spacing" textLength="247" x="1324.5" y="836.5918">+boolean addAgenda(Agenda agenda)</text></g><!--class Repositories--><g id="elem_Repositories"><rect codeLine="59" fill="#F1F1F1" height="85.2422" id="Repositories" rx="2.5" ry="2.5" style="stroke:#181818;stroke-width:0.5;" width="296" x="1300.5" y="408.5"/><ellipse cx="1404.75" cy="424.5" fill="#ADD1B2" rx="11" ry="11" style="stroke:#181818;stroke-width:1.0;"/><path d="M1407.5156,420.375 Q1407.6719,420.1563 1407.8594,420.0469 Q1408.0469,419.9375 1408.2656,419.9375 Q1408.6406,419.9375 1408.875,420.2031 Q1409.1094,420.4531 1409.1094,421.0625 L1409.1094,422.5156 Q1409.1094,423.125 1408.875,423.3906 Q1408.6406,423.6563 1408.2656,423.6563 Q1407.9219,423.6563 1407.7188,423.4531 Q1407.5156,423.2656 1407.4063,422.75 Q1407.3594,422.3906 1407.1719,422.2031 Q1406.8438,421.8281 1406.2344,421.6094 Q1405.625,421.3906 1405,421.3906 Q1404.2344,421.3906 1403.5938,421.7188 Q1402.9688,422.0469 1402.4688,422.7969 Q1401.9844,423.5469 1401.9844,424.5781 L1401.9844,425.6719 Q1401.9844,426.9063 1402.875,427.7344 Q1403.7656,428.5469 1405.3594,428.5469 Q1406.2969,428.5469 1406.9531,428.2969 Q1407.3438,428.1406 1407.7656,427.7031 Q1408.0313,427.4375 1408.1719,427.3594 Q1408.3281,427.2813 1408.5313,427.2813 Q1408.8594,427.2813 1409.1094,427.5469 Q1409.375,427.7969 1409.375,428.1406 Q1409.375,428.4844 1409.0313,428.8906 Q1408.5313,429.4688 1407.7344,429.7969 Q1406.6563,430.25 1405.3594,430.25 Q1403.8438,430.25 1402.6406,429.625 Q1401.6563,429.125 1400.9688,428.0625 Q1400.2813,426.9844 1400.2813,425.7031 L1400.2813,424.5469 Q1400.2813,423.2188 1400.8906,422.0781 Q1401.5156,420.9219 1402.6094,420.3125 Q1403.7031,419.6875 1404.9375,419.6875 Q1405.6719,419.6875 1406.3125,419.8594 Q1406.9688,420.0156 1407.5156,420.375 Z " fill="#000000"/><text fill="#000000" font-family="sans-serif" font-size="14" lengthAdjust="spacing" textLength="79" x="1425.25" y="430.2969">Repositories</text><line style="stroke:#181818;stroke-width:0.5;" x1="1301.5" x2="1595.5" y1="440.5" y2="440.5"/><line style="stroke:#181818;stroke-width:0.5;" x1="1301.5" x2="1595.5" y1="448.5" y2="448.5"/><text fill="#000000" font-family="sans-serif" font-size="14" lengthAdjust="spacing" textLength="182" x="1306.5" y="467.6074">+getInstance() : Repositories</text><text fill="#000000" font-family="sans-serif" font-size="14" lengthAdjust="spacing" textLength="284" x="1306.5" y="486.2285">+getAgendaRepository() : AgendaRepository</text></g><!--class CancelEntryUI--><g id="elem_CancelEntryUI"><rect codeLine="64" fill="#F1F1F1" height="178.3477" id="CancelEntryUI" rx="2.5" ry="2.5" style="stroke:#181818;stroke-width:0.5;" width="255" x="843" y="21"/><ellipse cx="921.75" cy="37" fill="#ADD1B2" rx="11" ry="11" style="stroke:#181818;stroke-width:1.0;"/><path d="M924.5156,32.875 Q924.6719,32.6563 924.8594,32.5469 Q925.0469,32.4375 925.2656,32.4375 Q925.6406,32.4375 925.875,32.7031 Q926.1094,32.9531 926.1094,33.5625 L926.1094,35.0156 Q926.1094,35.625 925.875,35.8906 Q925.6406,36.1563 925.2656,36.1563 Q924.9219,36.1563 924.7188,35.9531 Q924.5156,35.7656 924.4063,35.25 Q924.3594,34.8906 924.1719,34.7031 Q923.8438,34.3281 923.2344,34.1094 Q922.625,33.8906 922,33.8906 Q921.2344,33.8906 920.5938,34.2188 Q919.9688,34.5469 919.4688,35.2969 Q918.9844,36.0469 918.9844,37.0781 L918.9844,38.1719 Q918.9844,39.4063 919.875,40.2344 Q920.7656,41.0469 922.3594,41.0469 Q923.2969,41.0469 923.9531,40.7969 Q924.3438,40.6406 924.7656,40.2031 Q925.0313,39.9375 925.1719,39.8594 Q925.3281,39.7813 925.5313,39.7813 Q925.8594,39.7813 926.1094,40.0469 Q926.375,40.2969 926.375,40.6406 Q926.375,40.9844 926.0313,41.3906 Q925.5313,41.9688 924.7344,42.2969 Q923.6563,42.75 922.3594,42.75 Q920.8438,42.75 919.6406,42.125 Q918.6563,41.625 917.9688,40.5625 Q917.2813,39.4844 917.2813,38.2031 L917.2813,37.0469 Q917.2813,35.7188 917.8906,34.5781 Q918.5156,33.4219 919.6094,32.8125 Q920.7031,32.1875 921.9375,32.1875 Q922.6719,32.1875 923.3125,32.3594 Q923.9688,32.5156 924.5156,32.875 Z " fill="#000000"/><text fill="#000000" font-family="sans-serif" font-size="14" lengthAdjust="spacing" textLength="89" x="942.25" y="42.7969">CancelEntryUI</text><line style="stroke:#181818;stroke-width:0.5;" x1="844" x2="1097" y1="53" y2="53"/><text fill="#000000" font-family="sans-serif" font-size="14" lengthAdjust="spacing" textLength="211" x="849" y="72.1074">-controller: CancelEntryController</text><text fill="#000000" font-family="sans-serif" font-size="14" lengthAdjust="spacing" textLength="176" x="849" y="90.7285">-agendaEntry: AgendaEntry</text><line style="stroke:#181818;stroke-width:0.5;" x1="844" x2="1097" y1="98.2422" y2="98.2422"/><text fill="#000000" font-family="sans-serif" font-size="14" lengthAdjust="spacing" textLength="243" x="849" y="117.3496">+CancelEntryController getController()</text><text fill="#000000" font-family="sans-serif" font-size="14" lengthAdjust="spacing" textLength="69" x="849" y="135.9707">+void run()</text><text fill="#000000" font-family="sans-serif" font-size="14" lengthAdjust="spacing" textLength="119" x="849" y="154.5918">+void submitData()</text><text fill="#000000" font-family="sans-serif" font-size="14" lengthAdjust="spacing" textLength="126" x="849" y="173.2129">+void requestData()</text><text fill="#000000" font-family="sans-serif" font-size="14" lengthAdjust="spacing" textLength="234" x="849" y="191.834">+AgendaEntry requestAgendaEntry()</text></g><!--class CancelEntryController--><g id="elem_CancelEntryController"><rect codeLine="74" fill="#F1F1F1" height="178.3477" id="CancelEntryController" rx="2.5" ry="2.5" style="stroke:#181818;stroke-width:0.5;" width="733" x="1479" y="21"/><ellipse cx="1771.75" cy="37" fill="#ADD1B2" rx="11" ry="11" style="stroke:#181818;stroke-width:1.0;"/><path d="M1774.5156,32.875 Q1774.6719,32.6563 1774.8594,32.5469 Q1775.0469,32.4375 1775.2656,32.4375 Q1775.6406,32.4375 1775.875,32.7031 Q1776.1094,32.9531 1776.1094,33.5625 L1776.1094,35.0156 Q1776.1094,35.625 1775.875,35.8906 Q1775.6406,36.1563 1775.2656,36.1563 Q1774.9219,36.1563 1774.7188,35.9531 Q1774.5156,35.7656 1774.4063,35.25 Q1774.3594,34.8906 1774.1719,34.7031 Q1773.8438,34.3281 1773.2344,34.1094 Q1772.625,33.8906 1772,33.8906 Q1771.2344,33.8906 1770.5938,34.2188 Q1769.9688,34.5469 1769.4688,35.2969 Q1768.9844,36.0469 1768.9844,37.0781 L1768.9844,38.1719 Q1768.9844,39.4063 1769.875,40.2344 Q1770.7656,41.0469 1772.3594,41.0469 Q1773.2969,41.0469 1773.9531,40.7969 Q1774.3438,40.6406 1774.7656,40.2031 Q1775.0313,39.9375 1775.1719,39.8594 Q1775.3281,39.7813 1775.5313,39.7813 Q1775.8594,39.7813 1776.1094,40.0469 Q1776.375,40.2969 1776.375,40.6406 Q1776.375,40.9844 1776.0313,41.3906 Q1775.5313,41.9688 1774.7344,42.2969 Q1773.6563,42.75 1772.3594,42.75 Q1770.8438,42.75 1769.6406,42.125 Q1768.6563,41.625 1767.9688,40.5625 Q1767.2813,39.4844 1767.2813,38.2031 L1767.2813,37.0469 Q1767.2813,35.7188 1767.8906,34.5781 Q1768.5156,33.4219 1769.6094,32.8125 Q1770.7031,32.1875 1771.9375,32.1875 Q1772.6719,32.1875 1773.3125,32.3594 Q1773.9688,32.5156 1774.5156,32.875 Z " fill="#000000"/><text fill="#000000" font-family="sans-serif" font-size="14" lengthAdjust="spacing" textLength="139" x="1792.25" y="42.7969">CancelEntryController</text><line style="stroke:#181818;stroke-width:0.5;" x1="1480" x2="2211" y1="53" y2="53"/><text fill="#000000" font-family="sans-serif" font-size="14" lengthAdjust="spacing" textLength="246" x="1485" y="72.1074">-agendaRepository: AgendaRepository</text><text fill="#000000" font-family="sans-serif" font-size="14" lengthAdjust="spacing" textLength="328" x="1485" y="90.7285">-authenticationRepository: AuthenticationRepository</text><line style="stroke:#181818;stroke-width:0.5;" x1="1480" x2="2211" y1="98.2422" y2="98.2422"/><text fill="#000000" font-family="sans-serif" font-size="14" lengthAdjust="spacing" textLength="721" x="1485" y="117.3496">+CancelEntryController(AgendaRepository agendaRepository, AuthenticationRepository authenticationRepository)</text><text fill="#000000" font-family="sans-serif" font-size="14" lengthAdjust="spacing" textLength="276" x="1485" y="135.9707">+AgendaRepository getAgendaRepository()</text><text fill="#000000" font-family="sans-serif" font-size="14" lengthAdjust="spacing" textLength="358" x="1485" y="154.5918">+AuthenticationRepository getAuthenticationRepository()</text><text fill="#000000" font-family="sans-serif" font-size="14" lengthAdjust="spacing" textLength="365" x="1485" y="173.2129">+Optional&lt;AgendaEntry&gt; cancelEntry(AgendaEntry entry)</text><text fill="#000000" font-family="sans-serif" font-size="14" lengthAdjust="spacing" textLength="187" x="1485" y="191.834">+GSM getGSMFromSession()</text></g><!--class GSM--><g id="elem_GSM"><rect codeLine="84" fill="#F1F1F1" height="122.4844" id="GSM" rx="2.5" ry="2.5" style="stroke:#181818;stroke-width:0.5;" width="124" x="654.5" y="49"/><ellipse cx="696.95" cy="65" fill="#ADD1B2" rx="11" ry="11" style="stroke:#181818;stroke-width:1.0;"/><path d="M699.7156,60.875 Q699.8719,60.6563 700.0594,60.5469 Q700.2469,60.4375 700.4656,60.4375 Q700.8406,60.4375 701.075,60.7031 Q701.3094,60.9531 701.3094,61.5625 L701.3094,63.0156 Q701.3094,63.625 701.075,63.8906 Q700.8406,64.1563 700.4656,64.1563 Q700.1219,64.1563 699.9188,63.9531 Q699.7156,63.7656 699.6063,63.25 Q699.5594,62.8906 699.3719,62.7031 Q699.0438,62.3281 698.4344,62.1094 Q697.825,61.8906 697.2,61.8906 Q696.4344,61.8906 695.7938,62.2188 Q695.1688,62.5469 694.6688,63.2969 Q694.1844,64.0469 694.1844,65.0781 L694.1844,66.1719 Q694.1844,67.4063 695.075,68.2344 Q695.9656,69.0469 697.5594,69.0469 Q698.4969,69.0469 699.1531,68.7969 Q699.5438,68.6406 699.9656,68.2031 Q700.2313,67.9375 700.3719,67.8594 Q700.5281,67.7813 700.7313,67.7813 Q701.0594,67.7813 701.3094,68.0469 Q701.575,68.2969 701.575,68.6406 Q701.575,68.9844 701.2313,69.3906 Q700.7313,69.9688 699.9344,70.2969 Q698.8563,70.75 697.5594,70.75 Q696.0438,70.75 694.8406,70.125 Q693.8563,69.625 693.1688,68.5625 Q692.4813,67.4844 692.4813,66.2031 L692.4813,65.0469 Q692.4813,63.7188 693.0906,62.5781 Q693.7156,61.4219 694.8094,60.8125 Q695.9031,60.1875 697.1375,60.1875 Q697.8719,60.1875 698.5125,60.3594 Q699.1688,60.5156 699.7156,60.875 Z " fill="#000000"/><text fill="#000000" font-family="sans-serif" font-size="14" lengthAdjust="spacing" textLength="31" x="717.05" y="70.7969">GSM</text><line style="stroke:#181818;stroke-width:0.5;" x1="655.5" x2="777.5" y1="81" y2="81"/><text fill="#000000" font-family="sans-serif" font-size="14" lengthAdjust="spacing" textLength="81" x="660.5" y="100.1074">-String name</text><text fill="#000000" font-family="sans-serif" font-size="14" lengthAdjust="spacing" textLength="92" x="660.5" y="118.7285">-int vatNumber</text><text fill="#000000" font-family="sans-serif" font-size="14" lengthAdjust="spacing" textLength="79" x="660.5" y="137.3496">-String email</text><text fill="#000000" font-family="sans-serif" font-size="14" lengthAdjust="spacing" textLength="112" x="660.5" y="155.9707">-int phonenumber</text><line style="stroke:#181818;stroke-width:0.5;" x1="655.5" x2="777.5" y1="163.4844" y2="163.4844"/></g><g id="elem_GMN11"><path d="M1133.5,87.5 L1133.5,132.082 L1443.5,132.082 L1443.5,97.5 L1433.5,87.5 L1133.5,87.5 " fill="#FEFFDD" style="stroke:#181818;stroke-width:0.5;"/><path d="M1433.5,87.5 L1433.5,97.5 L1443.5,97.5 L1433.5,87.5 " fill="#FEFFDD" style="stroke:#181818;stroke-width:1.0;"/><text fill="#000000" font-family="sans-serif" font-size="13" lengthAdjust="spacing" textLength="289" x="1139.5" y="106.5283">- Selected AgendaEntry is read from GSM's input.</text><text fill="#000000" font-family="sans-serif" font-size="13" lengthAdjust="spacing" textLength="161" x="1139.5" y="123.8193">- Updates the AgendaEntry.</text></g><g id="elem_GMN14"><path d="M6,87.5 L6,132.082 L273,132.082 L273,97.5 L263,87.5 L6,87.5 " fill="#FEFFDD" style="stroke:#181818;stroke-width:0.5;"/><path d="M263,87.5 L263,97.5 L273,97.5 L263,87.5 " fill="#FEFFDD" style="stroke:#181818;stroke-width:1.0;"/><text fill="#000000" font-family="sans-serif" font-size="13" lengthAdjust="spacing" textLength="246" x="12" y="106.5283">- Responsible for cancelling Agenda Entry.</text><text fill="#000000" font-family="sans-serif" font-size="13" lengthAdjust="spacing" textLength="231" x="12" y="123.8193">- Communicates with the CancelEntryUI</text></g><g id="elem_GMN17"><path d="M308,79 L308,140.873 L619,140.873 L619,89 L609,79 L308,79 " fill="#FEFFDD" style="stroke:#181818;stroke-width:0.5;"/><path d="M609,79 L609,89 L619,89 L609,79 " fill="#FEFFDD" style="stroke:#181818;stroke-width:1.0;"/><text fill="#000000" font-family="sans-serif" font-size="13" lengthAdjust="spacing" textLength="256" x="314" y="98.0283">- UI for GSM to cancel entries in the Agenda</text><text fill="#000000" font-family="sans-serif" font-size="13" lengthAdjust="spacing" textLength="252" x="314" y="115.3193">- Communicates with CancelEntryController</text><text fill="#000000" font-family="sans-serif" font-size="13" lengthAdjust="spacing" textLength="290" x="314" y="132.6104">- Receives repositories from CancelEntryController</text></g><g id="elem_GMN20"><path d="M945,428.5 L945,447 L910.12,451 L945,455 L945,473.082 A0,0 0 0 0 945,473.082 L1194,473.082 A0,0 0 0 0 1194,473.082 L1194,438.5 L1184,428.5 L945,428.5 A0,0 0 0 0 945,428.5 " fill="#FEFFDD" style="stroke:#181818;stroke-width:0.5;"/><path d="M1184,428.5 L1184,438.5 L1194,438.5 L1184,428.5 " fill="#FEFFDD" style="stroke:#181818;stroke-width:0.5;"/><text fill="#000000" font-family="sans-serif" font-size="13" lengthAdjust="spacing" textLength="228" x="951" y="447.5283">- Registered by the GSM in the Agenda</text><text fill="#000000" font-family="sans-serif" font-size="13" lengthAdjust="spacing" textLength="139" x="951" y="464.8193">- Cancelled by the GSM</text></g><!--link GMN11 to CancelEntryController--><g id="link_GMN11_CancelEntryController"><path d="M1443.51,110 C1461.83,110 1474.17,110 1474.17,110 C1474.17,110 1475.8,110 1478.76,110 " fill="none" id="GMN11-CancelEntryController" style="stroke:#181818;stroke-width:1.0;stroke-dasharray:7.0,7.0;"/></g><!--link GMN14 to GSM--><g id="link_GMN14_GSM"><path d="M176.06,87.43 C225.62,56.85 308,6 308,6 C308,6 619,6 619,6 C619,6 636.5,21 636.5,21 C636.5,21 647.52,33.26 661.37,48.67 " fill="none" id="GMN14-GSM" style="stroke:#181818;stroke-width:1.0;stroke-dasharray:7.0,7.0;"/></g><!--link GMN17 to CancelEntryUI--><g id="link_GMN17_CancelEntryUI"><path d="M520.4,78.94 C576.53,48.29 654,6 654,6 C654,6 778,6 778,6 C778,6 807.23,21.79 842.9,41.06 " fill="none" id="GMN17-CancelEntryUI" style="stroke:#181818;stroke-width:1.0;stroke-dasharray:7.0,7.0;"/></g><!--link GSM to AgendaEntry--><g id="link_GSM_AgendaEntry"><path codeLine="112" d="M684.88,171.22 C669.05,201.37 651.7796,234.2679 631.6296,272.6379 " fill="none" id="GSM-to-AgendaEntry" style="stroke:#181818;stroke-width:1.0;"/><polygon fill="#181818" points="628.84,277.95,636.5658,271.8417,631.1647,273.5233,629.4831,268.1222,628.84,277.95" style="stroke:#181818;stroke-width:1.0;"/><text fill="#000000" font-family="sans-serif" font-size="13" lengthAdjust="spacing" textLength="45" x="655.5" y="244.0283">cancels</text></g><!--link GSM to Agenda--><g id="link_GSM_Agenda"><path codeLine="113" d="M778.64,161.17 C803.12,180.93 825.5,199 825.5,199 C825.5,199 1211.5,278 1211.5,278 C1211.5,278 1232.123,708.8869 1242.073,916.6669 " fill="none" id="GSM-to-Agenda" style="stroke:#181818;stroke-width:1.0;"/><polygon fill="#181818" points="1242.36,922.66,1245.9249,913.479,1242.1208,917.6657,1237.9341,913.8616,1242.36,922.66" style="stroke:#181818;stroke-width:1.0;"/><text fill="#000000" font-family="sans-serif" font-size="13" lengthAdjust="spacing" textLength="28" x="1231.5" y="669.0283">uses</text></g><!--link AgendaEntry to Agenda--><g id="link_AgendaEntry_Agenda"><path codeLine="114" d="M749.78,624.25 C868.65,721.15 1008.6897,835.3086 1111.3497,919.0086 " fill="none" id="AgendaEntry-to-Agenda" style="stroke:#181818;stroke-width:1.0;"/><polygon fill="#181818" points="1116,922.8,1111.5522,914.0127,1112.1248,919.6405,1106.497,920.213,1116,922.8" style="stroke:#181818;stroke-width:1.0;"/><text fill="#000000" font-family="sans-serif" font-size="13" lengthAdjust="spacing" textLength="51" x="1010.5" y="779.0283">shown in</text></g><!--link GSM to CancelEntryUI--><g id="link_GSM_CancelEntryUI"><path codeLine="115" d="M778.64,110 C798.17,110 814.5,110 836.86,110 " fill="none" id="GSM-to-CancelEntryUI" style="stroke:#181818;stroke-width:1.0;"/><polygon fill="#181818" points="842.86,110,833.86,106,837.86,110,833.86,114,842.86,110" style="stroke:#181818;stroke-width:1.0;"/><text fill="#000000" font-family="sans-serif" font-size="13" lengthAdjust="spacing" textLength="28" x="796.75" y="103.0283">uses</text></g><!--link Repositories to Repositories--><g id="link_Repositories_Repositories"><path codeLine="117" d="M1596.77,415.43 C1617.57,421.23 1631.5,433.09 1631.5,451 C1631.5,468.91 1623.3495,479.1584 1602.5495,484.9584 " fill="none" id="Repositories-to-Repositories" style="stroke:#181818;stroke-width:1.0;"/><polygon fill="#181818" points="1596.77,486.57,1606.5137,488.0056,1601.5863,485.227,1604.3649,480.2996,1596.77,486.57" style="stroke:#181818;stroke-width:1.0;"/><text fill="#000000" font-family="sans-serif" font-size="13" lengthAdjust="spacing" textLength="49" x="1637.5" y="456.5283">instance</text></g><!--link ApplicationSession to ApplicationSession--><g id="link_ApplicationSession_ApplicationSession"><path codeLine="118" d="M2109.16,411.63 C2129,413.96 2144,427.09 2144,451 C2144,474.91 2134.959,487.3402 2115.119,489.6702 " fill="none" id="ApplicationSession-to-ApplicationSession" style="stroke:#181818;stroke-width:1.0;"/><polygon fill="#181818" points="2109.16,490.37,2118.5651,493.293,2114.1259,489.7868,2117.632,485.3476,2109.16,490.37" style="stroke:#181818;stroke-width:1.0;"/><text fill="#000000" font-family="sans-serif" font-size="13" lengthAdjust="spacing" textLength="49" x="2150" y="456.5283">instance</text></g><!--link CancelEntryUI to CancelEntryController--><g id="link_CancelEntryUI_CancelEntryController"><path codeLine="120" d="M1098.14,28.31 C1118.49,15.29 1133,6 1133,6 C1133,6 1443,6 1443,6 C1443,6 1460.0409,10.3985 1494.8609,19.3985 " fill="none" id="CancelEntryUI-to-CancelEntryController" style="stroke:#181818;stroke-width:1.0;stroke-dasharray:7.0,7.0;"/><polygon fill="#181818" points="1500.67,20.9,1492.9574,14.775,1495.8291,19.6488,1490.9554,22.5205,1500.67,20.9" style="stroke:#181818;stroke-width:1.0;"/></g><!--link CancelEntryController to Repositories--><g id="link_CancelEntryController_Repositories"><path codeLine="122" d="M1669.36,199.07 C1635.06,216.22 1609.5,229 1609.5,229 C1609.5,229 1528.953,339.5605 1482.313,403.5805 " fill="none" id="CancelEntryController-to-Repositories" style="stroke:#181818;stroke-width:1.0;"/><polygon fill="#181818" points="1478.78,408.43,1487.3125,403.511,1481.7242,404.3887,1480.8465,398.8004,1478.78,408.43" style="stroke:#181818;stroke-width:1.0;"/><text fill="#000000" font-family="sans-serif" font-size="13" lengthAdjust="spacing" textLength="108" x="1610.5" y="244.0283">retrieves instances</text></g><!--link Repositories to AgendaRepository--><g id="link_Repositories_AgendaRepository"><path codeLine="124" d="M1448.5,493.57 C1448.5,546.59 1448.5,633.02 1448.5,696.87 " fill="none" id="Repositories-to-AgendaRepository" style="stroke:#181818;stroke-width:1.0;"/><polygon fill="#181818" points="1448.5,702.87,1452.5,693.87,1448.5,697.87,1444.5,693.87,1448.5,702.87" style="stroke:#181818;stroke-width:1.0;"/><text fill="#000000" font-family="sans-serif" font-size="13" lengthAdjust="spacing" textLength="56" x="1449.5" y="669.0283">accesses</text></g><!--link CancelEntryController to AgendaRepository--><g id="link_CancelEntryController_AgendaRepository"><path codeLine="126" d="M1799.45,199.39 C1778.58,239.45 1758.5,278 1758.5,278 C1758.5,278 1692.5,624 1692.5,624 C1692.5,624 1631.515,661.11 1568.125,699.7 " fill="none" id="CancelEntryController-to-AgendaRepository" style="stroke:#181818;stroke-width:1.0;stroke-dasharray:7.0,7.0;"/><polygon fill="#181818" points="1563,702.82,1572.7675,701.5567,1567.2708,700.22,1568.6076,694.7234,1563,702.82" style="stroke:#181818;stroke-width:1.0;"/><text fill="#000000" font-family="sans-serif" font-size="13" lengthAdjust="spacing" textLength="104" x="1759.5" y="456.5283">agendaRepository</text></g><!--link ApplicationSession to UserSession--><g id="link_ApplicationSession_UserSession"><path codeLine="128" d="M2022.86,493.57 C2006.35,558.1 1976.3876,675.2373 1961.3676,733.9273 " fill="none" id="ApplicationSession-to-UserSession" style="stroke:#181818;stroke-width:1.0;"/><polygon fill="#181818" points="1959.88,739.74,1965.9865,732.0127,1961.1197,734.8961,1958.2363,730.0293,1959.88,739.74" style="stroke:#181818;stroke-width:1.0;"/><text fill="#000000" font-family="sans-serif" font-size="13" lengthAdjust="spacing" textLength="72" x="1980.5" y="669.0283">userSession</text><text fill="#000000" font-family="sans-serif" font-size="13" lengthAdjust="spacing" textLength="7" x="1953.8103" y="728.7764">1</text></g><!--link CancelEntryController to ApplicationSession--><g id="link_CancelEntryController_ApplicationSession"><path codeLine="130" d="M1909.05,199.22 C1921.35,216.3 1930.5,229 1930.5,229 C1930.5,229 1981.7552,338.9717 2011.5952,402.9917 " fill="none" id="CancelEntryController-to-ApplicationSession" style="stroke:#181818;stroke-width:1.0;stroke-dasharray:7.0,7.0;"/><polygon fill="#181818" points="2014.13,408.43,2013.9533,398.5827,2012.0177,403.8981,2006.7023,401.9625,2014.13,408.43" style="stroke:#181818;stroke-width:1.0;"/></g><!--link CancelEntryController to UserSession--><g id="link_CancelEntryController_UserSession"><path codeLine="131" d="M1859.63,199.18 C1883.45,347.8 1929.5605,635.6156 1945.2905,733.7656 " fill="none" id="CancelEntryController-to-UserSession" style="stroke:#181818;stroke-width:1.0;stroke-dasharray:7.0,7.0;"/><polygon fill="#181818" points="1946.24,739.69,1948.7654,730.1704,1945.4488,734.753,1940.8662,731.4364,1946.24,739.69" style="stroke:#181818;stroke-width:1.0;"/></g><!--link AgendaRepository to Agenda--><g id="link_AgendaRepository_Agenda"><path codeLine="133" d="M1393.58,844.32 C1374.51,868.55 1356.3899,891.5944 1335.5099,918.1344 " fill="none" id="AgendaRepository-to-Agenda" style="stroke:#181818;stroke-width:1.0;stroke-dasharray:7.0,7.0;"/><polygon fill="#181818" points="1331.8,922.85,1340.5086,918.2499,1334.8916,918.9204,1334.2212,913.3034,1331.8,922.85" style="stroke:#181818;stroke-width:1.0;"/><text fill="#000000" font-family="sans-serif" font-size="13" lengthAdjust="spacing" textLength="36" x="1367.5" y="889.0283">stores</text></g><!--SRC=[hLTDRziy3BxxLmYxr4MROBiQBm9qwJOKs0UmhBihDcDhbILFabDam_xxIycoBTlojiDwY2NoeKW-f6ZtIZynqL15Qr9B8VDAoHg8KIqaewQX-HCjuM0k78Y2t51HyX2WArh8PoPASg9SXnhE19XB0wIH_68toLL4APMHIM2LSwhrdJ6A7Li33xaK1_O3oCiaSHforpISvTGmL83M-4X-9WJ_ReWsACv92UP1u5haa5vx5ShshL8WZ3T2pQ_-o4SDQduM6bZncveo7cBlIX05VIECkf0Eko666GuPEM3CeknbL3_TWyuLQsoeCsshy9ZyCfCMhQ8HCBgLEQC6YdSAG1om9EXjN2zWNu3M6R6_2zLNg5ZEGMVaFTFcFx_TUPmbiDKpzoXKvXwDqKRcbDkb9oaW8-riEYvkIR-RiZ38VVx3lizy47IHt8uUnp3waXwbv405eKN0IpekIJai8oQMdTJ-48C_4O2d9lLFSkwUSoHyRx7jqq_7RtWtYEpLJ1XIKLtjPJ4sOTWxEPS2beqrz1Hsgc93dGBBlbQbnXg_EtpmPt-Hzz92qmM-F-hMegrP9DckX65yrkWoHpPIcmRZNe67vUgXiOhbzchol_JvZmd-31WPCz9Vtqt8xuvGzzJ9Z9vExMFre6i7cbZZpEYMEksqtc2GlxvW2TAW37_XPOX_Y1nhwMA_cKuwaaqWFM2UjWFEXQEN_LYRnmTF4SvWeoJdeB9Gln_43aL7yhEm4YwGg9cRoiFEStQMh22g5U5MjyUQsSjF9o1i3T2XEAo_ruOZwZgQPX3Fpo2HaPm8NGxMcWexrh-B9l0LpJeJwQ8vvq7Shfww6aZ8IG2FzaG7NVDWJLPqtlIJc- -KJoVF7o_wJJUJmE3ZBNv-H5xE5k26ugP_DmXQGoUmG-1CpSUsFhec735WtziZgAbm68WEXYSBYHEAmmddoUat7Nq0ZZC7YabVCOsjHGjomd1jS5SQFJIjsJgJnwR0WQS9aXLQRHDS4kjsvjmDy0rUN8t3KhCZlcXEKddYkCt4ZmD_36BtigvROGk1VfwPgPopoRrTypO5kNWVd3zBif7URV_2mBo2F1nywNkTlS-G0pk3fIiON8wskD4iQCNAoaKzcINst1A7BYYio_7Y0hJHpsBTU1zyWWfSM9lDPXSUdldyzKoPaLRZF0sR85JgIZuBzDzPxQOaUzjaChmHDDbdQDrDyMJvTMlH4MbWaqndzdQtmcyI7teR_7mNov0Ks2OukpRe72tIy8QB2PCHcYFS9HxtkTt6pUPpDie7kdpnwaNurKuSpSCt_E-SBlzxM0U7_nSaYt377B07K8BP_Wy0]--></g></svg>