<?xml version="1.0" encoding="us-ascii" standalone="no"?><svg xmlns="http://www.w3.org/2000/svg" xmlns:xlink="http://www.w3.org/1999/xlink" contentStyleType="text/css" height="654.5px" preserveAspectRatio="none" style="width:952px;height:654px;background:#FFFFFF;" version="1.1" viewBox="0 0 952 654" width="952px" zoomAndPan="magnify"><defs/><g><!--class ApplicationSession--><g id="elem_ApplicationSession"><rect codeLine="9" fill="#F1F1F1" height="42.6211" id="ApplicationSession" rx="1.25" ry="1.25" style="stroke:#181818;stroke-width:0.25;" width="75.5" x="715.75" y="139"/><ellipse cx="723.25" cy="147" fill="#ADD1B2" rx="5.5" ry="5.5" style="stroke:#181818;stroke-width:0.5;"/><path d="M724.6328,144.9375 Q724.7109,144.8281 724.8047,144.7734 Q724.8984,144.7188 725.0078,144.7188 Q725.1953,144.7188 725.3125,144.8516 Q725.4297,144.9766 725.4297,145.2813 L725.4297,146.0078 Q725.4297,146.3125 725.3125,146.4453 Q725.1953,146.5781 725.0078,146.5781 Q724.8359,146.5781 724.7344,146.4766 Q724.6328,146.3828 724.5781,146.125 Q724.5547,145.9453 724.4609,145.8516 Q724.2969,145.6641 723.9922,145.5547 Q723.6875,145.4453 723.375,145.4453 Q722.9922,145.4453 722.6719,145.6094 Q722.3594,145.7734 722.1094,146.1484 Q721.8672,146.5234 721.8672,147.0391 L721.8672,147.5859 Q721.8672,148.2031 722.3125,148.6172 Q722.7578,149.0234 723.5547,149.0234 Q724.0234,149.0234 724.3516,148.8984 Q724.5469,148.8203 724.7578,148.6016 Q724.8906,148.4688 724.9609,148.4297 Q725.0391,148.3906 725.1406,148.3906 Q725.3047,148.3906 725.4297,148.5234 Q725.5625,148.6484 725.5625,148.8203 Q725.5625,148.9922 725.3906,149.1953 Q725.1406,149.4844 724.7422,149.6484 Q724.2031,149.875 723.5547,149.875 Q722.7969,149.875 722.1953,149.5625 Q721.7031,149.3125 721.3594,148.7813 Q721.0156,148.2422 721.0156,147.6016 L721.0156,147.0234 Q721.0156,146.3594 721.3203,145.7891 Q721.6328,145.2109 722.1797,144.9063 Q722.7266,144.5938 723.3438,144.5938 Q723.7109,144.5938 724.0313,144.6797 Q724.3594,144.7578 724.6328,144.9375 Z " fill="#000000"/><text fill="#000000" font-family="sans-serif" font-size="7" lengthAdjust="spacing" textLength="59.5" x="730.25" y="149.8984">ApplicationSession</text><line style="stroke:#181818;stroke-width:0.25;" x1="716.25" x2="790.75" y1="155" y2="155"/><line style="stroke:#181818;stroke-width:0.25;" x1="716.25" x2="790.75" y1="159" y2="159"/><text fill="#000000" font-family="sans-serif" font-size="7" lengthAdjust="spacing" textLength="64" x="718.75" y="168.5537">+static getInstance()</text><text fill="#000000" font-family="sans-serif" font-size="7" lengthAdjust="spacing" textLength="68" x="718.75" y="177.8643">+getCurrentSession()</text></g><!--class UserSession--><g id="elem_UserSession"><rect codeLine="15" fill="#F1F1F1" height="33.3105" id="UserSession" rx="1.25" ry="1.25" style="stroke:#181818;stroke-width:0.25;" width="56.5" x="750.25" y="239.5"/><ellipse cx="758.2" cy="247.5" fill="#ADD1B2" rx="5.5" ry="5.5" style="stroke:#181818;stroke-width:0.5;"/><path d="M759.5828,245.4375 Q759.6609,245.3281 759.7547,245.2734 Q759.8484,245.2188 759.9578,245.2188 Q760.1453,245.2188 760.2625,245.3516 Q760.3797,245.4766 760.3797,245.7813 L760.3797,246.5078 Q760.3797,246.8125 760.2625,246.9453 Q760.1453,247.0781 759.9578,247.0781 Q759.7859,247.0781 759.6844,246.9766 Q759.5828,246.8828 759.5281,246.625 Q759.5047,246.4453 759.4109,246.3516 Q759.2469,246.1641 758.9422,246.0547 Q758.6375,245.9453 758.325,245.9453 Q757.9422,245.9453 757.6219,246.1094 Q757.3094,246.2734 757.0594,246.6484 Q756.8172,247.0234 756.8172,247.5391 L756.8172,248.0859 Q756.8172,248.7031 757.2625,249.1172 Q757.7078,249.5234 758.5047,249.5234 Q758.9734,249.5234 759.3016,249.3984 Q759.4969,249.3203 759.7078,249.1016 Q759.8406,248.9688 759.9109,248.9297 Q759.9891,248.8906 760.0906,248.8906 Q760.2547,248.8906 760.3797,249.0234 Q760.5125,249.1484 760.5125,249.3203 Q760.5125,249.4922 760.3406,249.6953 Q760.0906,249.9844 759.6922,250.1484 Q759.1531,250.375 758.5047,250.375 Q757.7469,250.375 757.1453,250.0625 Q756.6531,249.8125 756.3094,249.2813 Q755.9656,248.7422 755.9656,248.1016 L755.9656,247.5234 Q755.9656,246.8594 756.2703,246.2891 Q756.5828,245.7109 757.1297,245.4063 Q757.6766,245.0938 758.2938,245.0938 Q758.6609,245.0938 758.9813,245.1797 Q759.3094,245.2578 759.5828,245.4375 Z " fill="#000000"/><text fill="#000000" font-family="sans-serif" font-size="7" lengthAdjust="spacing" textLength="39.5" x="765.3" y="250.3984">UserSession</text><line style="stroke:#181818;stroke-width:0.25;" x1="750.75" x2="806.25" y1="255.5" y2="255.5"/><line style="stroke:#181818;stroke-width:0.25;" x1="750.75" x2="806.25" y1="259.5" y2="259.5"/><text fill="#000000" font-family="sans-serif" font-size="7" lengthAdjust="spacing" textLength="50.5" x="753.25" y="269.0537">+getUserEmail()</text></g><!--class AgendaEntry--><g id="elem_AgendaEntry"><rect codeLine="20" fill="#F1F1F1" height="172.9688" id="AgendaEntry" rx="1.25" ry="1.25" style="stroke:#181818;stroke-width:0.25;" width="371.5" x="435.25" y="478.5"/><ellipse cx="598.375" cy="486.5" fill="#ADD1B2" rx="5.5" ry="5.5" style="stroke:#181818;stroke-width:0.5;"/><path d="M599.7578,484.4375 Q599.8359,484.3281 599.9297,484.2734 Q600.0234,484.2188 600.1328,484.2188 Q600.3203,484.2188 600.4375,484.3516 Q600.5547,484.4766 600.5547,484.7813 L600.5547,485.5078 Q600.5547,485.8125 600.4375,485.9453 Q600.3203,486.0781 600.1328,486.0781 Q599.9609,486.0781 599.8594,485.9766 Q599.7578,485.8828 599.7031,485.625 Q599.6797,485.4453 599.5859,485.3516 Q599.4219,485.1641 599.1172,485.0547 Q598.8125,484.9453 598.5,484.9453 Q598.1172,484.9453 597.7969,485.1094 Q597.4844,485.2734 597.2344,485.6484 Q596.9922,486.0234 596.9922,486.5391 L596.9922,487.0859 Q596.9922,487.7031 597.4375,488.1172 Q597.8828,488.5234 598.6797,488.5234 Q599.1484,488.5234 599.4766,488.3984 Q599.6719,488.3203 599.8828,488.1016 Q600.0156,487.9688 600.0859,487.9297 Q600.1641,487.8906 600.2656,487.8906 Q600.4297,487.8906 600.5547,488.0234 Q600.6875,488.1484 600.6875,488.3203 Q600.6875,488.4922 600.5156,488.6953 Q600.2656,488.9844 599.8672,489.1484 Q599.3281,489.375 598.6797,489.375 Q597.9219,489.375 597.3203,489.0625 Q596.8281,488.8125 596.4844,488.2813 Q596.1406,487.7422 596.1406,487.1016 L596.1406,486.5234 Q596.1406,485.8594 596.4453,485.2891 Q596.7578,484.7109 597.3047,484.4063 Q597.8516,484.0938 598.4688,484.0938 Q598.8359,484.0938 599.1563,484.1797 Q599.4844,484.2578 599.7578,484.4375 Z " fill="#000000"/><text fill="#000000" font-family="sans-serif" font-size="7" lengthAdjust="spacing" textLength="41" x="608.625" y="489.3984">AgendaEntry</text><line style="stroke:#181818;stroke-width:0.25;" x1="435.75" x2="806.25" y1="494.5" y2="494.5"/><text fill="#000000" font-family="sans-serif" font-size="7" lengthAdjust="spacing" textLength="36" x="438.25" y="504.0537">-title: String</text><text fill="#000000" font-family="sans-serif" font-size="7" lengthAdjust="spacing" textLength="73.5" x="438.25" y="513.3643">-taskDescription: String</text><text fill="#000000" font-family="sans-serif" font-size="7" lengthAdjust="spacing" textLength="50.5" x="438.25" y="522.6748">-urgency: String</text><text fill="#000000" font-family="sans-serif" font-size="7" lengthAdjust="spacing" textLength="51" x="438.25" y="531.9854">-duration: String</text><text fill="#000000" font-family="sans-serif" font-size="7" lengthAdjust="spacing" textLength="120.5" x="438.25" y="541.2959">-associatedGreenSpace: GreenSpace</text><text fill="#000000" font-family="sans-serif" font-size="7" lengthAdjust="spacing" textLength="76.5" x="438.25" y="550.6064">-associatedTeam: Team</text><text fill="#000000" font-family="sans-serif" font-size="7" lengthAdjust="spacing" textLength="109" x="438.25" y="559.917">-associatedVehicles: List&lt;Vehicle&gt;</text><text fill="#000000" font-family="sans-serif" font-size="7" lengthAdjust="spacing" textLength="44" x="438.25" y="569.2275">-status: String</text><text fill="#000000" font-family="sans-serif" font-size="7" lengthAdjust="spacing" textLength="67.5" x="438.25" y="578.5381">-startDate: LocalDate</text><line style="stroke:#181818;stroke-width:0.25;" x1="435.75" x2="806.25" y1="582.2949" y2="582.2949"/><text fill="#000000" font-family="sans-serif" font-size="7" lengthAdjust="spacing" textLength="365.5" x="438.25" y="591.8486">+AgendaEntry(String title, String taskDescription, String urgency, String duration, String status, LocalDate startDate)</text><text fill="#000000" font-family="sans-serif" font-size="7" lengthAdjust="spacing" textLength="169" x="438.25" y="601.1592">+boolean addGreenSpace(GreenSpace greenSpace)</text><text fill="#000000" font-family="sans-serif" font-size="7" lengthAdjust="spacing" textLength="102" x="438.25" y="610.4697">+boolean addTeam(Team team)</text><text fill="#000000" font-family="sans-serif" font-size="7" lengthAdjust="spacing" textLength="118.5" x="438.25" y="619.7803">+boolean addVehicle(Vehicle vehicle)</text><text fill="#000000" font-family="sans-serif" font-size="7" lengthAdjust="spacing" textLength="84" x="438.25" y="629.0908">+boolean equals(Object o)</text><text fill="#000000" font-family="sans-serif" font-size="7" lengthAdjust="spacing" textLength="51" x="438.25" y="638.4014">+int hashCode()</text><text fill="#000000" font-family="sans-serif" font-size="7" lengthAdjust="spacing" textLength="69" x="438.25" y="647.7119">+AgendaEntry clone()</text></g><!--class Agenda--><g id="elem_Agenda"><rect codeLine="39" fill="#F1F1F1" height="107.7949" id="Agenda" rx="1.25" ry="1.25" style="stroke:#181818;stroke-width:0.25;" width="230" x="506" y="331"/><ellipse cx="606.625" cy="339" fill="#ADD1B2" rx="5.5" ry="5.5" style="stroke:#181818;stroke-width:0.5;"/><path d="M608.0078,336.9375 Q608.0859,336.8281 608.1797,336.7734 Q608.2734,336.7188 608.3828,336.7188 Q608.5703,336.7188 608.6875,336.8516 Q608.8047,336.9766 608.8047,337.2813 L608.8047,338.0078 Q608.8047,338.3125 608.6875,338.4453 Q608.5703,338.5781 608.3828,338.5781 Q608.2109,338.5781 608.1094,338.4766 Q608.0078,338.3828 607.9531,338.125 Q607.9297,337.9453 607.8359,337.8516 Q607.6719,337.6641 607.3672,337.5547 Q607.0625,337.4453 606.75,337.4453 Q606.3672,337.4453 606.0469,337.6094 Q605.7344,337.7734 605.4844,338.1484 Q605.2422,338.5234 605.2422,339.0391 L605.2422,339.5859 Q605.2422,340.2031 605.6875,340.6172 Q606.1328,341.0234 606.9297,341.0234 Q607.3984,341.0234 607.7266,340.8984 Q607.9219,340.8203 608.1328,340.6016 Q608.2656,340.4688 608.3359,340.4297 Q608.4141,340.3906 608.5156,340.3906 Q608.6797,340.3906 608.8047,340.5234 Q608.9375,340.6484 608.9375,340.8203 Q608.9375,340.9922 608.7656,341.1953 Q608.5156,341.4844 608.1172,341.6484 Q607.5781,341.875 606.9297,341.875 Q606.1719,341.875 605.5703,341.5625 Q605.0781,341.3125 604.7344,340.7813 Q604.3906,340.2422 604.3906,339.6016 L604.3906,339.0234 Q604.3906,338.3594 604.6953,337.7891 Q605.0078,337.2109 605.5547,336.9063 Q606.1016,336.5938 606.7188,336.5938 Q607.0859,336.5938 607.4063,336.6797 Q607.7344,336.7578 608.0078,336.9375 Z " fill="#000000"/><text fill="#000000" font-family="sans-serif" font-size="7" lengthAdjust="spacing" textLength="24.5" x="616.875" y="341.8984">Agenda</text><line style="stroke:#181818;stroke-width:0.25;" x1="506.5" x2="735.5" y1="347" y2="347"/><text fill="#000000" font-family="sans-serif" font-size="7" lengthAdjust="spacing" textLength="88" x="509" y="356.5537">-entries: List&lt;AgendaEntry&gt;</text><text fill="#000000" font-family="sans-serif" font-size="7" lengthAdjust="spacing" textLength="35" x="509" y="365.8643">-gsm: GSM</text><line style="stroke:#181818;stroke-width:0.25;" x1="506.5" x2="735.5" y1="369.6211" y2="369.6211"/><text fill="#000000" font-family="sans-serif" font-size="7" lengthAdjust="spacing" textLength="155.5" x="509" y="379.1748">+ToDoList(List&lt;AgendaEntry&gt; entries, GSM gsm)</text><text fill="#000000" font-family="sans-serif" font-size="7" lengthAdjust="spacing" textLength="124" x="509" y="388.4854">+boolean addEntry(AgendaEntry entry)</text><text fill="#000000" font-family="sans-serif" font-size="7" lengthAdjust="spacing" textLength="224" x="509" y="397.7959">+boolean postponeEntry(AgendaEntry entry, LocalDate postponeDate)</text><text fill="#000000" font-family="sans-serif" font-size="7" lengthAdjust="spacing" textLength="132.5" x="509" y="407.1064">+boolean cancelEntry(AgendaEntry entry)</text><text fill="#000000" font-family="sans-serif" font-size="7" lengthAdjust="spacing" textLength="84" x="509" y="416.417">+boolean equals(Object o)</text><text fill="#000000" font-family="sans-serif" font-size="7" lengthAdjust="spacing" textLength="51" x="509" y="425.7275">+int hashCode()</text><text fill="#000000" font-family="sans-serif" font-size="7" lengthAdjust="spacing" textLength="69" x="509" y="435.0381">+AgendaEntry clone()</text></g><!--class AgendaRepository--><g id="elem_AgendaRepository"><rect codeLine="51" fill="#F1F1F1" height="70.5527" id="AgendaRepository" rx="1.25" ry="1.25" style="stroke:#181818;stroke-width:0.25;" width="130" x="556" y="221"/><ellipse cx="589.625" cy="229" fill="#ADD1B2" rx="5.5" ry="5.5" style="stroke:#181818;stroke-width:0.5;"/><path d="M591.0078,226.9375 Q591.0859,226.8281 591.1797,226.7734 Q591.2734,226.7188 591.3828,226.7188 Q591.5703,226.7188 591.6875,226.8516 Q591.8047,226.9766 591.8047,227.2813 L591.8047,228.0078 Q591.8047,228.3125 591.6875,228.4453 Q591.5703,228.5781 591.3828,228.5781 Q591.2109,228.5781 591.1094,228.4766 Q591.0078,228.3828 590.9531,228.125 Q590.9297,227.9453 590.8359,227.8516 Q590.6719,227.6641 590.3672,227.5547 Q590.0625,227.4453 589.75,227.4453 Q589.3672,227.4453 589.0469,227.6094 Q588.7344,227.7734 588.4844,228.1484 Q588.2422,228.5234 588.2422,229.0391 L588.2422,229.5859 Q588.2422,230.2031 588.6875,230.6172 Q589.1328,231.0234 589.9297,231.0234 Q590.3984,231.0234 590.7266,230.8984 Q590.9219,230.8203 591.1328,230.6016 Q591.2656,230.4688 591.3359,230.4297 Q591.4141,230.3906 591.5156,230.3906 Q591.6797,230.3906 591.8047,230.5234 Q591.9375,230.6484 591.9375,230.8203 Q591.9375,230.9922 591.7656,231.1953 Q591.5156,231.4844 591.1172,231.6484 Q590.5781,231.875 589.9297,231.875 Q589.1719,231.875 588.5703,231.5625 Q588.0781,231.3125 587.7344,230.7813 Q587.3906,230.2422 587.3906,229.6016 L587.3906,229.0234 Q587.3906,228.3594 587.6953,227.7891 Q588.0078,227.2109 588.5547,226.9063 Q589.1016,226.5938 589.7188,226.5938 Q590.0859,226.5938 590.4063,226.6797 Q590.7344,226.7578 591.0078,226.9375 Z " fill="#000000"/><text fill="#000000" font-family="sans-serif" font-size="7" lengthAdjust="spacing" textLength="58.5" x="599.875" y="231.8984">AgendaRepository</text><line style="stroke:#181818;stroke-width:0.25;" x1="556.5" x2="685.5" y1="237" y2="237"/><text fill="#000000" font-family="sans-serif" font-size="7" lengthAdjust="spacing" textLength="75.5" x="559" y="246.5537">-List&lt;Agenda&gt; agendas</text><line style="stroke:#181818;stroke-width:0.25;" x1="556.5" x2="685.5" y1="250.3105" y2="250.3105"/><text fill="#000000" font-family="sans-serif" font-size="7" lengthAdjust="spacing" textLength="123.5" x="559" y="259.8643">+boolean addAgenda(Agenda agenda)</text><text fill="#000000" font-family="sans-serif" font-size="7" lengthAdjust="spacing" textLength="92.5" x="559" y="269.1748">+List&lt;Agenda&gt; getAgendas()</text><text fill="#000000" font-family="sans-serif" font-size="7" lengthAdjust="spacing" textLength="124" x="559" y="278.4854">+Agenda getAgendaByGSM(GSM gsm)</text><text fill="#000000" font-family="sans-serif" font-size="7" lengthAdjust="spacing" textLength="123.5" x="559" y="287.7959">+boolean addAgenda(Agenda agenda)</text></g><!--class Repositories--><g id="elem_Repositories"><rect codeLine="59" fill="#F1F1F1" height="42.6211" id="Repositories" rx="1.25" ry="1.25" style="stroke:#181818;stroke-width:0.25;" width="148" x="422.5" y="139"/><ellipse cx="474.625" cy="147" fill="#ADD1B2" rx="5.5" ry="5.5" style="stroke:#181818;stroke-width:0.5;"/><path d="M476.0078,144.9375 Q476.0859,144.8281 476.1797,144.7734 Q476.2734,144.7188 476.3828,144.7188 Q476.5703,144.7188 476.6875,144.8516 Q476.8047,144.9766 476.8047,145.2813 L476.8047,146.0078 Q476.8047,146.3125 476.6875,146.4453 Q476.5703,146.5781 476.3828,146.5781 Q476.2109,146.5781 476.1094,146.4766 Q476.0078,146.3828 475.9531,146.125 Q475.9297,145.9453 475.8359,145.8516 Q475.6719,145.6641 475.3672,145.5547 Q475.0625,145.4453 474.75,145.4453 Q474.3672,145.4453 474.0469,145.6094 Q473.7344,145.7734 473.4844,146.1484 Q473.2422,146.5234 473.2422,147.0391 L473.2422,147.5859 Q473.2422,148.2031 473.6875,148.6172 Q474.1328,149.0234 474.9297,149.0234 Q475.3984,149.0234 475.7266,148.8984 Q475.9219,148.8203 476.1328,148.6016 Q476.2656,148.4688 476.3359,148.4297 Q476.4141,148.3906 476.5156,148.3906 Q476.6797,148.3906 476.8047,148.5234 Q476.9375,148.6484 476.9375,148.8203 Q476.9375,148.9922 476.7656,149.1953 Q476.5156,149.4844 476.1172,149.6484 Q475.5781,149.875 474.9297,149.875 Q474.1719,149.875 473.5703,149.5625 Q473.0781,149.3125 472.7344,148.7813 Q472.3906,148.2422 472.3906,147.6016 L472.3906,147.0234 Q472.3906,146.3594 472.6953,145.7891 Q473.0078,145.2109 473.5547,144.9063 Q474.1016,144.5938 474.7188,144.5938 Q475.0859,144.5938 475.4063,144.6797 Q475.7344,144.7578 476.0078,144.9375 Z " fill="#000000"/><text fill="#000000" font-family="sans-serif" font-size="7" lengthAdjust="spacing" textLength="39.5" x="484.875" y="149.8984">Repositories</text><line style="stroke:#181818;stroke-width:0.25;" x1="423" x2="570" y1="155" y2="155"/><line style="stroke:#181818;stroke-width:0.25;" x1="423" x2="570" y1="159" y2="159"/><text fill="#000000" font-family="sans-serif" font-size="7" lengthAdjust="spacing" textLength="91" x="425.5" y="168.5537">+getInstance() : Repositories</text><text fill="#000000" font-family="sans-serif" font-size="7" lengthAdjust="spacing" textLength="142" x="425.5" y="177.8643">+getAgendaRepository() : AgendaRepository</text></g><!--class CancelEntryUI--><g id="elem_CancelEntryUI"><rect codeLine="64" fill="#F1F1F1" height="89.1738" id="CancelEntryUI" rx="1.25" ry="1.25" style="stroke:#181818;stroke-width:0.25;" width="127.5" x="348.75" y="10.5"/><ellipse cx="388.125" cy="18.5" fill="#ADD1B2" rx="5.5" ry="5.5" style="stroke:#181818;stroke-width:0.5;"/><path d="M389.5078,16.4375 Q389.5859,16.3281 389.6797,16.2734 Q389.7734,16.2188 389.8828,16.2188 Q390.0703,16.2188 390.1875,16.3516 Q390.3047,16.4766 390.3047,16.7813 L390.3047,17.5078 Q390.3047,17.8125 390.1875,17.9453 Q390.0703,18.0781 389.8828,18.0781 Q389.7109,18.0781 389.6094,17.9766 Q389.5078,17.8828 389.4531,17.625 Q389.4297,17.4453 389.3359,17.3516 Q389.1719,17.1641 388.8672,17.0547 Q388.5625,16.9453 388.25,16.9453 Q387.8672,16.9453 387.5469,17.1094 Q387.2344,17.2734 386.9844,17.6484 Q386.7422,18.0234 386.7422,18.5391 L386.7422,19.0859 Q386.7422,19.7031 387.1875,20.1172 Q387.6328,20.5234 388.4297,20.5234 Q388.8984,20.5234 389.2266,20.3984 Q389.4219,20.3203 389.6328,20.1016 Q389.7656,19.9688 389.8359,19.9297 Q389.9141,19.8906 390.0156,19.8906 Q390.1797,19.8906 390.3047,20.0234 Q390.4375,20.1484 390.4375,20.3203 Q390.4375,20.4922 390.2656,20.6953 Q390.0156,20.9844 389.6172,21.1484 Q389.0781,21.375 388.4297,21.375 Q387.6719,21.375 387.0703,21.0625 Q386.5781,20.8125 386.2344,20.2813 Q385.8906,19.7422 385.8906,19.1016 L385.8906,18.5234 Q385.8906,17.8594 386.1953,17.2891 Q386.5078,16.7109 387.0547,16.4063 Q387.6016,16.0938 388.2188,16.0938 Q388.5859,16.0938 388.9063,16.1797 Q389.2344,16.2578 389.5078,16.4375 Z " fill="#000000"/><text fill="#000000" font-family="sans-serif" font-size="7" lengthAdjust="spacing" textLength="44.5" x="398.375" y="21.3984">CancelEntryUI</text><line style="stroke:#181818;stroke-width:0.25;" x1="349.25" x2="475.75" y1="26.5" y2="26.5"/><text fill="#000000" font-family="sans-serif" font-size="7" lengthAdjust="spacing" textLength="105.5" x="351.75" y="36.0537">-controller: CancelEntryController</text><text fill="#000000" font-family="sans-serif" font-size="7" lengthAdjust="spacing" textLength="88" x="351.75" y="45.3643">-agendaEntry: AgendaEntry</text><line style="stroke:#181818;stroke-width:0.25;" x1="349.25" x2="475.75" y1="49.1211" y2="49.1211"/><text fill="#000000" font-family="sans-serif" font-size="7" lengthAdjust="spacing" textLength="121.5" x="351.75" y="58.6748">+CancelEntryController getController()</text><text fill="#000000" font-family="sans-serif" font-size="7" lengthAdjust="spacing" textLength="34.5" x="351.75" y="67.9854">+void run()</text><text fill="#000000" font-family="sans-serif" font-size="7" lengthAdjust="spacing" textLength="59.5" x="351.75" y="77.2959">+void submitData()</text><text fill="#000000" font-family="sans-serif" font-size="7" lengthAdjust="spacing" textLength="63" x="351.75" y="86.6064">+void requestData()</text><text fill="#000000" font-family="sans-serif" font-size="7" lengthAdjust="spacing" textLength="117" x="351.75" y="95.917">+AgendaEntry requestAgendaEntry()</text></g><!--class CancelEntryController--><g id="elem_CancelEntryController"><rect codeLine="74" fill="#F1F1F1" height="89.1738" id="CancelEntryController" rx="1.25" ry="1.25" style="stroke:#181818;stroke-width:0.25;" width="366.5" x="493.75" y="10.5"/><ellipse cx="640.125" cy="18.5" fill="#ADD1B2" rx="5.5" ry="5.5" style="stroke:#181818;stroke-width:0.5;"/><path d="M641.5078,16.4375 Q641.5859,16.3281 641.6797,16.2734 Q641.7734,16.2188 641.8828,16.2188 Q642.0703,16.2188 642.1875,16.3516 Q642.3047,16.4766 642.3047,16.7813 L642.3047,17.5078 Q642.3047,17.8125 642.1875,17.9453 Q642.0703,18.0781 641.8828,18.0781 Q641.7109,18.0781 641.6094,17.9766 Q641.5078,17.8828 641.4531,17.625 Q641.4297,17.4453 641.3359,17.3516 Q641.1719,17.1641 640.8672,17.0547 Q640.5625,16.9453 640.25,16.9453 Q639.8672,16.9453 639.5469,17.1094 Q639.2344,17.2734 638.9844,17.6484 Q638.7422,18.0234 638.7422,18.5391 L638.7422,19.0859 Q638.7422,19.7031 639.1875,20.1172 Q639.6328,20.5234 640.4297,20.5234 Q640.8984,20.5234 641.2266,20.3984 Q641.4219,20.3203 641.6328,20.1016 Q641.7656,19.9688 641.8359,19.9297 Q641.9141,19.8906 642.0156,19.8906 Q642.1797,19.8906 642.3047,20.0234 Q642.4375,20.1484 642.4375,20.3203 Q642.4375,20.4922 642.2656,20.6953 Q642.0156,20.9844 641.6172,21.1484 Q641.0781,21.375 640.4297,21.375 Q639.6719,21.375 639.0703,21.0625 Q638.5781,20.8125 638.2344,20.2813 Q637.8906,19.7422 637.8906,19.1016 L637.8906,18.5234 Q637.8906,17.8594 638.1953,17.2891 Q638.5078,16.7109 639.0547,16.4063 Q639.6016,16.0938 640.2188,16.0938 Q640.5859,16.0938 640.9063,16.1797 Q641.2344,16.2578 641.5078,16.4375 Z " fill="#000000"/><text fill="#000000" font-family="sans-serif" font-size="7" lengthAdjust="spacing" textLength="69.5" x="650.375" y="21.3984">CancelEntryController</text><line style="stroke:#181818;stroke-width:0.25;" x1="494.25" x2="859.75" y1="26.5" y2="26.5"/><text fill="#000000" font-family="sans-serif" font-size="7" lengthAdjust="spacing" textLength="123" x="496.75" y="36.0537">-agendaRepository: AgendaRepository</text><text fill="#000000" font-family="sans-serif" font-size="7" lengthAdjust="spacing" textLength="164" x="496.75" y="45.3643">-authenticationRepository: AuthenticationRepository</text><line style="stroke:#181818;stroke-width:0.25;" x1="494.25" x2="859.75" y1="49.1211" y2="49.1211"/><text fill="#000000" font-family="sans-serif" font-size="7" lengthAdjust="spacing" textLength="360.5" x="496.75" y="58.6748">+CancelEntryController(AgendaRepository agendaRepository, AuthenticationRepository authenticationRepository)</text><text fill="#000000" font-family="sans-serif" font-size="7" lengthAdjust="spacing" textLength="138" x="496.75" y="67.9854">+AgendaRepository getAgendaRepository()</text><text fill="#000000" font-family="sans-serif" font-size="7" lengthAdjust="spacing" textLength="179" x="496.75" y="77.2959">+AuthenticationRepository getAuthenticationRepository()</text><text fill="#000000" font-family="sans-serif" font-size="7" lengthAdjust="spacing" textLength="182.5" x="496.75" y="86.6064">+Optional&lt;AgendaEntry&gt; cancelEntry(AgendaEntry entry)</text><text fill="#000000" font-family="sans-serif" font-size="7" lengthAdjust="spacing" textLength="93.5" x="496.75" y="95.917">+GSM getGSMFromSession()</text></g><g id="elem_GMN10"><path d="M3,43.75 L3,66.041 L158,66.041 L158,48.75 L153,43.75 L3,43.75 " fill="#FEFFDD" style="stroke:#181818;stroke-width:0.25;"/><path d="M153,43.75 L153,48.75 L158,48.75 L153,43.75 " fill="#FEFFDD" style="stroke:#181818;stroke-width:0.5;"/><text fill="#000000" font-family="sans-serif" font-size="6.5" lengthAdjust="spacing" textLength="144.5" x="6" y="53.2642">- Selected AgendaEntry is read from GSM's input.</text><text fill="#000000" font-family="sans-serif" font-size="6.5" lengthAdjust="spacing" textLength="80.5" x="6" y="61.9097">- Updates the AgendaEntry.</text></g><g id="elem_GMN13"><path d="M175.75,39.5 L175.75,70.4365 A0,0 0 0 0 175.75,70.4365 L331.25,70.4365 A0,0 0 0 0 331.25,70.4365 L331.25,57 L348.63,55 L331.25,53 L331.25,44.5 L326.25,39.5 L175.75,39.5 A0,0 0 0 0 175.75,39.5 " fill="#FEFFDD" style="stroke:#181818;stroke-width:0.25;"/><path d="M326.25,39.5 L326.25,44.5 L331.25,44.5 L326.25,39.5 " fill="#FEFFDD" style="stroke:#181818;stroke-width:0.25;"/><text fill="#000000" font-family="sans-serif" font-size="6.5" lengthAdjust="spacing" textLength="128" x="178.75" y="49.0142">- UI for GSM to cancel entries in the Agenda</text><text fill="#000000" font-family="sans-serif" font-size="6.5" lengthAdjust="spacing" textLength="126" x="178.75" y="57.6597">- Communicates with CancelEntryController</text><text fill="#000000" font-family="sans-serif" font-size="6.5" lengthAdjust="spacing" textLength="145" x="178.75" y="66.3052">- Receives repositories from CancelEntryController</text></g><g id="elem_GMN16"><path d="M824.25,553.75 L824.25,563 L806.81,565 L824.25,567 L824.25,576.041 A0,0 0 0 0 824.25,576.041 L948.75,576.041 A0,0 0 0 0 948.75,576.041 L948.75,558.75 L943.75,553.75 L824.25,553.75 A0,0 0 0 0 824.25,553.75 " fill="#FEFFDD" style="stroke:#181818;stroke-width:0.25;"/><path d="M943.75,553.75 L943.75,558.75 L948.75,558.75 L943.75,553.75 " fill="#FEFFDD" style="stroke:#181818;stroke-width:0.25;"/><text fill="#000000" font-family="sans-serif" font-size="6.5" lengthAdjust="spacing" textLength="114" x="827.25" y="563.2642">- Registered by the GSM in the Agenda</text><text fill="#000000" font-family="sans-serif" font-size="6.5" lengthAdjust="spacing" textLength="69.5" x="827.25" y="571.9097">- Cancelled by the GSM</text></g><!--link GMN10 to CancelEntryController--><g id="link_GMN10_CancelEntryController"><path d="M101.17,43.715 C129.18,28.425 175.75,3 175.75,3 C175.75,3 476.25,3 476.25,3 C476.25,3 487.65,5.95 505.015,10.45 " fill="none" id="GMN10-CancelEntryController" style="stroke:#181818;stroke-width:0.5;stroke-dasharray:7.0,7.0;"/></g><!--link Agenda to AgendaEntry--><g id="link_Agenda_AgendaEntry"><path codeLine="100" d="M621,439.205 C621,451.565 621,462.01 621,475.36 " fill="none" id="Agenda-to-AgendaEntry" style="stroke:#181818;stroke-width:0.5;"/><polygon fill="#181818" points="621,478.36,623,473.86,621,475.86,619,473.86,621,478.36" style="stroke:#181818;stroke-width:0.5;"/><text fill="#000000" font-family="sans-serif" font-size="6.5" lengthAdjust="spacing" textLength="18.5" x="621.5" y="461.5142">shows</text></g><!--link Repositories to Repositories--><g id="link_Repositories_Repositories"><path codeLine="102" d="M570.635,153.37 C581.035,154.495 588,156.785 588,160.25 C588,163.715 584.0176,165.6824 573.6176,166.8074 " fill="none" id="Repositories-to-Repositories" style="stroke:#181818;stroke-width:0.5;"/><polygon fill="#181818" points="570.635,167.13,575.324,168.6344,573.1205,166.8611,574.8938,164.6576,570.635,167.13" style="stroke:#181818;stroke-width:0.5;"/><text fill="#000000" font-family="sans-serif" font-size="6.5" lengthAdjust="spacing" textLength="24.5" x="591" y="163.0142">instance</text></g><!--link ApplicationSession to ApplicationSession--><g id="link_ApplicationSession_ApplicationSession"><path codeLine="103" d="M791.33,152.635 C801.25,153.085 808.75,155.625 808.75,160.25 C808.75,164.875 804.2469,167.2791 794.3269,167.7291 " fill="none" id="ApplicationSession-to-ApplicationSession" style="stroke:#181818;stroke-width:0.5;"/><polygon fill="#181818" points="791.33,167.865,795.916,169.659,793.8274,167.7517,795.7347,165.6631,791.33,167.865" style="stroke:#181818;stroke-width:0.5;"/><text fill="#000000" font-family="sans-serif" font-size="6.5" lengthAdjust="spacing" textLength="24.5" x="811.75" y="163.0142">instance</text></g><!--link CancelEntryUI to CancelEntryController--><g id="link_CancelEntryUI_CancelEntryController"><path codeLine="105" d="M476.34,55 C483.235,55 486.315,55 490.675,55 " fill="none" id="CancelEntryUI-to-CancelEntryController" style="stroke:#181818;stroke-width:0.5;stroke-dasharray:7.0,7.0;"/><polygon fill="#181818" points="493.675,55,489.175,53,491.175,55,489.175,57,493.675,55" style="stroke:#181818;stroke-width:0.5;"/></g><!--link CancelEntryController to Repositories--><g id="link_CancelEntryController_Repositories"><path codeLine="107" d="M600.715,99.56 C577.045,113.23 554.658,126.1599 535.088,137.4599 " fill="none" id="CancelEntryController-to-Repositories" style="stroke:#181818;stroke-width:0.5;"/><polygon fill="#181818" points="532.49,138.96,537.3871,138.4418,534.655,137.7099,535.3869,134.9778,532.49,138.96" style="stroke:#181818;stroke-width:0.5;"/><text fill="#000000" font-family="sans-serif" font-size="6.5" lengthAdjust="spacing" textLength="54" x="571.5" y="122.0142">retrieves instances</text></g><!--link Repositories to AgendaRepository--><g id="link_Repositories_AgendaRepository"><path codeLine="109" d="M523.82,181.6 C538.925,193.125 555.7004,205.9197 573.0054,219.1297 " fill="none" id="Repositories-to-AgendaRepository" style="stroke:#181818;stroke-width:0.5;"/><polygon fill="#181818" points="575.39,220.95,573.0266,216.6298,573.4028,219.4331,570.5995,219.8093,575.39,220.95" style="stroke:#181818;stroke-width:0.5;"/><text fill="#000000" font-family="sans-serif" font-size="6.5" lengthAdjust="spacing" textLength="28" x="556" y="204.0142">accesses</text></g><!--link CancelEntryController to AgendaRepository--><g id="link_CancelEntryController_AgendaRepository"><path codeLine="111" d="M664.64,99.695 C654.43,136.205 640.943,184.4359 631.533,218.0809 " fill="none" id="CancelEntryController-to-AgendaRepository" style="stroke:#181818;stroke-width:0.5;stroke-dasharray:7.0,7.0;"/><polygon fill="#181818" points="630.725,220.97,633.8632,217.175,631.3984,218.5624,630.011,216.0976,630.725,220.97" style="stroke:#181818;stroke-width:0.5;"/><text fill="#000000" font-family="sans-serif" font-size="6.5" lengthAdjust="spacing" textLength="52" x="654.5" y="163.0142">agendaRepository</text></g><!--link ApplicationSession to UserSession--><g id="link_ApplicationSession_UserSession"><path codeLine="113" d="M758.985,181.6 C763.555,198.965 769.2172,220.4636 773.4222,236.4586 " fill="none" id="ApplicationSession-to-UserSession" style="stroke:#181818;stroke-width:0.5;"/><polygon fill="#181818" points="774.185,239.36,774.9751,234.4994,773.5494,236.9422,771.1066,235.5164,774.185,239.36" style="stroke:#181818;stroke-width:0.5;"/><text fill="#000000" font-family="sans-serif" font-size="6.5" lengthAdjust="spacing" textLength="36" x="766" y="204.0142">userSession</text><text fill="#000000" font-family="sans-serif" font-size="6.5" lengthAdjust="spacing" textLength="3.5" x="769.5289" y="233.8763">1</text></g><!--link CancelEntryController to ApplicationSession--><g id="link_CancelEntryController_ApplicationSession"><path codeLine="115" d="M709.33,99.56 C719.365,113.23 728.1747,125.2416 736.4697,136.5416 " fill="none" id="CancelEntryController-to-ApplicationSession" style="stroke:#181818;stroke-width:0.5;stroke-dasharray:7.0,7.0;"/><polygon fill="#181818" points="738.245,138.96,737.1944,134.149,736.7656,136.9447,733.9699,136.516,738.245,138.96" style="stroke:#181818;stroke-width:0.5;"/></g><!--link CancelEntryController to UserSession--><g id="link_CancelEntryController_UserSession"><path codeLine="116" d="M762.77,99.575 C801.835,119.645 839.5,139 839.5,139 C839.5,139 839.5,181.5 839.5,181.5 C839.5,181.5 811.7497,215.2822 793.7897,237.1372 " fill="none" id="CancelEntryController-to-UserSession" style="stroke:#181818;stroke-width:0.5;stroke-dasharray:7.0,7.0;"/><polygon fill="#181818" points="791.885,239.455,796.2872,237.2481,793.4723,237.5235,793.1969,234.7085,791.885,239.455" style="stroke:#181818;stroke-width:0.5;"/></g><!--link AgendaRepository to Agenda--><g id="link_AgendaRepository_Agenda"><path codeLine="118" d="M621,291.66 C621,303.775 621,314.655 621,327.925 " fill="none" id="AgendaRepository-to-Agenda" style="stroke:#181818;stroke-width:0.5;stroke-dasharray:7.0,7.0;"/><polygon fill="#181818" points="621,330.925,623,326.425,621,328.425,619,326.425,621,330.925" style="stroke:#181818;stroke-width:0.5;"/><text fill="#000000" font-family="sans-serif" font-size="6.5" lengthAdjust="spacing" textLength="18" x="621.5" y="314.0142">stores</text></g><!--SRC=[hLPBJzmm4BxdLrXS269trLwZ2eak5AtK2eajlNkTsQoBrqvj1xH5_UyTEqxYl2Y7SjZOCz_dUNhmkNdYigIQ7ibHISKEMXs1M5r1qcbAofve0Ljx4a0qC4jb8MA0ET1SlN1Pa3qL9jO8Bi6UIY2b4YUtISudb4fRbKGi9gWnrzPglgiiR9YIM_uRo8SayHfoNPQ2CsevAi0O_2Il2S6_Is8iYXafm6uahYM3z2AeKBQkj0Pf0marVveZ7mteuLb8SEBR8-KYnbuN87DwAwq-aHgx99PR0HdPei-oQ6JKFDs0OPgNpjM1jj9u33iDf7cbwGGOpIh6gONyJWF8BPO4hNNh4Umxq6D6tEz8zGCEd0am6VdAZVqKjbS1vn9OcO5v56fxWsJaA4Q5MuOaHSb8QqwTYmLfTlqijF8GVxjl8cy5jIUBpcBdHbFIdL82g2GqZ_AITajIjCi9YijEwdw8nPy9G4XD6hxakVuEaV2hmhPFxtS_yMuGrQYvjEH0pM6jygu9uzvXGaaODrRRKzYfchTrYfXDhGg3DRxRVWjdVrStoa7J4RuvQk7GZZOHR5t2s3z7EWsHfJAsHBzdu76v6kXKnPYxckATDlzpWXy0FUDMXUkxZFDxHQZ_ccIGdbeTV0sW2m_giN5cr4kJrjf0QEMVJrY2D2h3Ewoq_hUUOoszxvVzIKUo7gG13CFsmA6mixBkQlEu2Id26Mor4W9q5klNhTYZQ9VyBAw4TsIIvgTokmivUrOy9xgIyTPKkoDtbv_sGDWQO69nNF-WZKVKnMIOaJ-lKI1TSYRIvM6LFM37Xlz5FVYCPZuJwQWvXquiPa-TTIJEIGIVx8aQEcV1KMPqWNhlvpiL_Sdppuj-MSyaiFZvWi-FtZzdgN2E2DZZhT-_qNTR43WP8EzLdnji09gJFHxgR9mRd1XbPLUUybZcE9OCmP1YrYh19N5cvuq_RkeJDcIljFVUgX1dCsZHKdIoXw_LyLX9bpnKlt1xU2EU1s30dy4545ru7yWqQU2qviN1UzsxW-xS0eSLQCpKxkGTTDuFV5q66wA7Yao4wRHSNiNdP_WCL2ycINf32Z6zVORMwccLZ5zn3ZqXZJX9VpQjhcRoaKnVxYK-K-NO9GskQC- -RBMXKHY1EBf96Q4CuSOnfcskLjEquJoPp0UQFFju5hzEaLf5RzMtZ8vVoVFW-FsRZDpjOi0gemIZ_Gi0]--></g></svg>