<?xml version="1.0" encoding="us-ascii" standalone="no"?><svg xmlns="http://www.w3.org/2000/svg" xmlns:xlink="http://www.w3.org/1999/xlink" contentStyleType="text/css" height="683px" preserveAspectRatio="none" style="width:1231px;height:683px;background:#FFFFFF;" version="1.1" viewBox="0 0 1231 683" width="1231px" zoomAndPan="magnify"><defs/><g><rect fill="#FFFFFF" height="519.0645" style="stroke:#181818;stroke-width:1.0;" width="10" x="572" y="90.5332"/><rect fill="#FFFFFF" height="81.9121" style="stroke:#181818;stroke-width:1.0;" width="10" x="768" y="174.4063"/><rect fill="#FFFFFF" height="330.9883" style="stroke:#181818;stroke-width:1.0;" width="10" x="955" y="287.6094"/><rect fill="#FFFFFF" height="36.291" style="stroke:#181818;stroke-width:1.0;" width="10" x="960" y="428.1035"/><rect fill="none" height="473.7734" style="stroke:#000000;stroke-width:1.5;" width="751" x="474" y="105.5332"/><rect fill="none" height="50.582" style="stroke:#000000;stroke-width:1.5;" width="355.5" x="484" y="131.8242"/><rect fill="none" height="169.7852" style="stroke:#000000;stroke-width:1.5;" width="379" x="836" y="346.2305"/><line style="stroke:#181818;stroke-width:0.5;stroke-dasharray:5.0,5.0;" x1="577" x2="577" y1="57.2422" y2="627.5977"/><line style="stroke:#181818;stroke-width:0.5;stroke-dasharray:5.0,5.0;" x1="772.5" x2="772.5" y1="57.2422" y2="627.5977"/><line style="stroke:#181818;stroke-width:0.5;stroke-dasharray:5.0,5.0;" x1="877" x2="877" y1="221.2168" y2="627.5977"/><line style="stroke:#181818;stroke-width:0.5;stroke-dasharray:5.0,5.0;" x1="960" x2="960" y1="57.2422" y2="627.5977"/><line style="stroke:#181818;stroke-width:0.5;stroke-dasharray:5.0,5.0;" x1="1079" x2="1079" y1="327.4199" y2="627.5977"/><line style="stroke:#181818;stroke-width:0.5;stroke-dasharray:5.0,5.0;" x1="1170" x2="1170" y1="472.9141" y2="627.5977"/><rect fill="#E3E3E3" height="32.6211" rx="2.5" ry="2.5" style="stroke:#181818;stroke-width:0.5;" width="166" x="494" y="23.6211"/><text fill="#000000" font-family="sans-serif" font-size="14" lengthAdjust="spacing" textLength="152" x="501" y="45.7285">:ConsultTasksController</text><rect fill="#E3E3E3" height="32.6211" rx="2.5" ry="2.5" style="stroke:#181818;stroke-width:0.5;" width="166" x="494" y="626.5977"/><text fill="#000000" font-family="sans-serif" font-size="14" lengthAdjust="spacing" textLength="152" x="501" y="648.7051">:ConsultTasksController</text><rect fill="#E3E3E3" height="51.2422" rx="2.5" ry="2.5" style="stroke:#181818;stroke-width:0.5;" width="113" x="716.5" y="5"/><text fill="#000000" font-family="sans-serif" font-size="14" lengthAdjust="spacing" textLength="98" x="724" y="27.1074">taskRepository:</text><text fill="#000000" font-family="sans-serif" font-size="14" lengthAdjust="spacing" textLength="99" x="723.5" y="45.7285">TaskRepository</text><rect fill="#E3E3E3" height="51.2422" rx="2.5" ry="2.5" style="stroke:#181818;stroke-width:0.5;" width="113" x="716.5" y="626.5977"/><text fill="#000000" font-family="sans-serif" font-size="14" lengthAdjust="spacing" textLength="98" x="724" y="648.7051">taskRepository:</text><text fill="#000000" font-family="sans-serif" font-size="14" lengthAdjust="spacing" textLength="99" x="723.5" y="667.3262">TaskRepository</text><rect fill="#E3E3E3" height="32.6211" rx="2.5" ry="2.5" style="stroke:#181818;stroke-width:0.5;" width="62" x="846" y="626.5977"/><text fill="#000000" font-family="sans-serif" font-size="14" lengthAdjust="spacing" textLength="48" x="853" y="648.7051">taskList</text><rect fill="#E3E3E3" height="32.6211" rx="2.5" ry="2.5" style="stroke:#181818;stroke-width:0.5;" width="84" x="918" y="23.6211"/><text fill="#000000" font-family="sans-serif" font-size="14" lengthAdjust="spacing" textLength="70" x="925" y="45.7285">ListMapper</text><rect fill="#E3E3E3" height="32.6211" rx="2.5" ry="2.5" style="stroke:#181818;stroke-width:0.5;" width="84" x="918" y="626.5977"/><text fill="#000000" font-family="sans-serif" font-size="14" lengthAdjust="spacing" textLength="70" x="925" y="648.7051">ListMapper</text><rect fill="#E3E3E3" height="32.6211" rx="2.5" ry="2.5" style="stroke:#181818;stroke-width:0.5;" width="92" x="1033" y="626.5977"/><text fill="#000000" font-family="sans-serif" font-size="14" lengthAdjust="spacing" textLength="78" x="1040" y="648.7051">taskListDTO</text><rect fill="#E3E3E3" height="32.6211" rx="2.5" ry="2.5" style="stroke:#181818;stroke-width:0.5;" width="70" x="1135" y="626.5977"/><text fill="#000000" font-family="sans-serif" font-size="14" lengthAdjust="spacing" textLength="56" x="1142" y="648.7051">taskDTO</text><rect fill="#FFFFFF" height="519.0645" style="stroke:#181818;stroke-width:1.0;" width="10" x="572" y="90.5332"/><rect fill="#FFFFFF" height="81.9121" style="stroke:#181818;stroke-width:1.0;" width="10" x="768" y="174.4063"/><rect fill="#FFFFFF" height="330.9883" style="stroke:#181818;stroke-width:1.0;" width="10" x="955" y="287.6094"/><rect fill="#FFFFFF" height="36.291" style="stroke:#181818;stroke-width:1.0;" width="10" x="960" y="428.1035"/><polygon fill="#181818" points="560,86.5332,570,90.5332,560,94.5332,564,90.5332" style="stroke:#181818;stroke-width:1.0;"/><line style="stroke:#181818;stroke-width:1.0;" x1="0" x2="566" y1="90.5332" y2="90.5332"/><text fill="#000000" font-family="sans-serif" font-size="13" lengthAdjust="spacing" textLength="553" x="7" y="85.2705">getTasksForCollaborator(Team team, LocalDate firstDate, LocalDate secondDate, String status)</text><path d="M474,105.5332 L684,105.5332 L684,114.8242 L674,124.8242 L474,124.8242 L474,105.5332 " fill="#EEEEEE" style="stroke:#000000;stroke-width:1.5;"/><rect fill="none" height="473.7734" style="stroke:#000000;stroke-width:1.5;" width="751" x="474" y="105.5332"/><text fill="#000000" font-family="sans-serif" font-size="13" font-weight="bold" lengthAdjust="spacing" textLength="165" x="489" y="120.5615">Get Tasks for Collaborator</text><path d="M484,131.8242 L557,131.8242 L557,141.1152 L547,151.1152 L484,151.1152 L484,131.8242 " fill="#EEEEEE" style="stroke:#000000;stroke-width:1.5;"/><rect fill="none" height="50.582" style="stroke:#000000;stroke-width:1.5;" width="355.5" x="484" y="131.8242"/><text fill="#000000" font-family="sans-serif" font-size="13" font-weight="bold" lengthAdjust="spacing" textLength="28" x="499" y="146.8525">loop</text><text fill="#000000" font-family="sans-serif" font-size="11" font-weight="bold" lengthAdjust="spacing" textLength="80" x="572" y="145.6943">[for each task]</text><polygon fill="#181818" points="756,170.4063,766,174.4063,756,178.4063,760,174.4063" style="stroke:#181818;stroke-width:1.0;"/><line style="stroke:#181818;stroke-width:1.0;" x1="582" x2="762" y1="174.4063" y2="174.4063"/><text fill="#000000" font-family="sans-serif" font-size="13" lengthAdjust="spacing" textLength="167" x="589" y="169.1436">getTaskByTeam(Team team)</text><polygon fill="#181818" points="834,208.6973,844,212.6973,834,216.6973,838,212.6973" style="stroke:#181818;stroke-width:1.0;"/><line style="stroke:#181818;stroke-width:1.0;" x1="778" x2="840" y1="212.6973" y2="212.6973"/><text fill="#000000" font-family="sans-serif" font-size="13" lengthAdjust="spacing" textLength="44" x="785" y="207.4346">create()</text><rect fill="#E3E3E3" height="32.6211" rx="2.5" ry="2.5" style="stroke:#181818;stroke-width:0.5;" width="62" x="846" y="189.4063"/><text fill="#000000" font-family="sans-serif" font-size="14" lengthAdjust="spacing" textLength="48" x="853" y="211.5137">taskList</text><polygon fill="#181818" points="593,252.3184,583,256.3184,593,260.3184,589,256.3184" style="stroke:#181818;stroke-width:1.0;"/><line style="stroke:#181818;stroke-width:1.0;stroke-dasharray:2.0,2.0;" x1="587" x2="772" y1="256.3184" y2="256.3184"/><text fill="#000000" font-family="sans-serif" font-size="13" lengthAdjust="spacing" textLength="102" x="599" y="251.0557">collaboratorTasks</text><polygon fill="#181818" points="943,283.6094,953,287.6094,943,291.6094,947,287.6094" style="stroke:#181818;stroke-width:1.0;"/><line style="stroke:#181818;stroke-width:1.0;" x1="582" x2="949" y1="287.6094" y2="287.6094"/><text fill="#000000" font-family="sans-serif" font-size="13" lengthAdjust="spacing" textLength="147" x="589" y="282.3467">toDTO(collaboratorTasks)</text><polygon fill="#181818" points="1021,314.9004,1031,318.9004,1021,322.9004,1025,318.9004" style="stroke:#181818;stroke-width:1.0;"/><line style="stroke:#181818;stroke-width:1.0;" x1="965" x2="1027" y1="318.9004" y2="318.9004"/><text fill="#000000" font-family="sans-serif" font-size="13" lengthAdjust="spacing" textLength="44" x="972" y="313.6377">create()</text><rect fill="#E3E3E3" height="32.6211" rx="2.5" ry="2.5" style="stroke:#181818;stroke-width:0.5;" width="92" x="1033" y="295.6094"/><text fill="#000000" font-family="sans-serif" font-size="14" lengthAdjust="spacing" textLength="78" x="1040" y="317.7168">taskListDTO</text><path d="M836,346.2305 L909,346.2305 L909,355.5215 L899,365.5215 L836,365.5215 L836,346.2305 " fill="#EEEEEE" style="stroke:#000000;stroke-width:1.5;"/><rect fill="none" height="169.7852" style="stroke:#000000;stroke-width:1.5;" width="379" x="836" y="346.2305"/><text fill="#000000" font-family="sans-serif" font-size="13" font-weight="bold" lengthAdjust="spacing" textLength="28" x="851" y="361.2588">loop</text><text fill="#000000" font-family="sans-serif" font-size="11" font-weight="bold" lengthAdjust="spacing" textLength="196" x="924" y="360.1006">[for each task in collaboratorTasks]</text><polygon fill="#181818" points="888,384.8125,878,388.8125,888,392.8125,884,388.8125" style="stroke:#181818;stroke-width:1.0;"/><line style="stroke:#181818;stroke-width:1.0;" x1="882" x2="954" y1="388.8125" y2="388.8125"/><text fill="#000000" font-family="sans-serif" font-size="13" lengthAdjust="spacing" textLength="26" x="894" y="383.5498">get()</text><line style="stroke:#181818;stroke-width:1.0;" x1="965" x2="1012" y1="415.1035" y2="415.1035"/><line style="stroke:#181818;stroke-width:1.0;" x1="1012" x2="1012" y1="415.1035" y2="428.1035"/><line style="stroke:#181818;stroke-width:1.0;" x1="971" x2="1012" y1="428.1035" y2="428.1035"/><polygon fill="#181818" points="981,424.1035,971,428.1035,981,432.1035,977,428.1035" style="stroke:#181818;stroke-width:1.0;"/><text fill="#000000" font-family="sans-serif" font-size="13" lengthAdjust="spacing" textLength="70" x="977" y="409.8408">toDTO(task)</text><polygon fill="#181818" points="1123,460.3945,1133,464.3945,1123,468.3945,1127,464.3945" style="stroke:#181818;stroke-width:1.0;"/><line style="stroke:#181818;stroke-width:1.0;stroke-dasharray:2.0,2.0;" x1="965" x2="1129" y1="464.3945" y2="464.3945"/><text fill="#000000" font-family="sans-serif" font-size="13" lengthAdjust="spacing" textLength="69" x="972" y="459.1318">create(task)</text><rect fill="#E3E3E3" height="32.6211" rx="2.5" ry="2.5" style="stroke:#181818;stroke-width:0.5;" width="70" x="1135" y="441.1035"/><text fill="#000000" font-family="sans-serif" font-size="14" lengthAdjust="spacing" textLength="56" x="1142" y="463.2109">taskDTO</text><polygon fill="#181818" points="1067,504.0156,1077,508.0156,1067,512.0156,1071,508.0156" style="stroke:#181818;stroke-width:1.0;"/><line style="stroke:#181818;stroke-width:1.0;" x1="965" x2="1073" y1="508.0156" y2="508.0156"/><text fill="#000000" font-family="sans-serif" font-size="13" lengthAdjust="spacing" textLength="80" x="972" y="502.7529">add(taskDTO)</text><polygon fill="#181818" points="593,567.3066,583,571.3066,593,575.3066,589,571.3066" style="stroke:#181818;stroke-width:1.0;"/><line style="stroke:#181818;stroke-width:1.0;stroke-dasharray:2.0,2.0;" x1="587" x2="954" y1="571.3066" y2="571.3066"/><text fill="#000000" font-family="sans-serif" font-size="13" lengthAdjust="spacing" textLength="72" x="599" y="566.0439">taskListDTO</text><polygon fill="#181818" points="11,605.5977,1,609.5977,11,613.5977,7,609.5977" style="stroke:#181818;stroke-width:1.0;"/><line style="stroke:#181818;stroke-width:1.0;stroke-dasharray:2.0,2.0;" x1="5" x2="576" y1="609.5977" y2="609.5977"/><text fill="#000000" font-family="sans-serif" font-size="13" lengthAdjust="spacing" textLength="72" x="17" y="604.335">taskListDTO</text><!--SRC=[fLJ1QiCm3BtdAyHExLX_88p1rh5TKWPTZhjeZfgQfdQmrOr2Ftwo4z9qJS9WEWHZFJtfINByJfiQ7UvXRurLMsVt1EmEbFZEKwFQOKdlVAm872b6KrPzWDzYOR-rAM63bQT4J1oibQxHCDoaIslyeU8S_SxBcPsjAd8tW1wM-JgxHBEWrbHRhzcwO_fXyekB69K_hg-3CksvyVvY38uLrdMRCbiDnpxdRssudAuXdJju4sXjyH0bG0ebDG9Vh5kAFloq3gNWMKxI8fRF7MHMOVMCJB3HJXBAgN_fILbJDBVlx493FICV_BnBTpPKhBz2LEnWk2cTFTJmIWon3jXO1_rAacI0HgoojevWGhM587KO5ong5SqoWBFafsFGU1Ow7u_lgWuJ74IGAKRg33b3wkpsDWNbI6XcyobiEni1zxeGUpCSLD15USba1x9L2cnb5sPNx2FwEt9Pm654jce42kiVD5xF3RGPq3gTAqvnD4U3EciDMVubB-Iyb3T1sHl8NtgM0XR5h7shyudr6g4wdKx9-EgsrRUllVVJQEcwnRrVB8PGFJ7noIO_]--></g></svg>