<?xml version="1.0" encoding="us-ascii" standalone="no"?><svg xmlns="http://www.w3.org/2000/svg" xmlns:xlink="http://www.w3.org/1999/xlink" contentStyleType="text/css" height="924.6px" preserveAspectRatio="none" style="width:1357px;height:924px;background:#FFFFFF;" version="1.1" viewBox="0 0 1357 924" width="1357.2px" zoomAndPan="magnify"><defs/><g><rect fill="#FFFFFF" height="807.9785" style="stroke:#181818;stroke-width:0.6;" width="6" x="25.2" y="56.1727"/><rect fill="#FFFFFF" height="333.5684" style="stroke:#181818;stroke-width:0.6;" width="6" x="280.2" y="70.1473"/><rect fill="#FFFFFF" height="18.7746" style="stroke:#181818;stroke-width:0.6;" width="6" x="280.2" y="422.4902"/><rect fill="#FFFFFF" height="404.1117" style="stroke:#181818;stroke-width:0.6;" width="6" x="280.2" y="460.0395"/><rect fill="#FFFFFF" height="139.8223" style="stroke:#181818;stroke-width:0.6;" width="6" x="640.2" y="94.9219"/><rect fill="#FFFFFF" height="54.3258" style="stroke:#181818;stroke-width:0.6;" width="6" x="643.2" y="157.4438"/><rect fill="#FFFFFF" height="56.3238" style="stroke:#181818;stroke-width:0.6;" width="6" x="640.2" y="253.5187"/><rect fill="#FFFFFF" height="56.3238" style="stroke:#181818;stroke-width:0.6;" width="6" x="640.2" y="328.6172"/><rect fill="#FFFFFF" height="56.3238" style="stroke:#181818;stroke-width:0.6;" width="6" x="640.2" y="478.8141"/><rect fill="#FFFFFF" height="315.6387" style="stroke:#181818;stroke-width:0.6;" width="6" x="640.2" y="553.9125"/><rect fill="#FFFFFF" height="18.7746" style="stroke:#181818;stroke-width:0.6;" width="6" x="764.4" y="115.0945"/><rect fill="#FFFFFF" height="18.7746" style="stroke:#181818;stroke-width:0.6;" width="6" x="828.6" y="272.2934"/><rect fill="#FFFFFF" height="18.7746" style="stroke:#181818;stroke-width:0.6;" width="6" x="828.6" y="347.3918"/><rect fill="#FFFFFF" height="49.1473" style="stroke:#181818;stroke-width:0.6;" width="6" x="1002" y="588.4617"/><rect fill="#FFFFFF" height="18.7746" style="stroke:#181818;stroke-width:0.6;" width="6" x="1077.3" y="497.5887"/><rect fill="#FFFFFF" height="170.2184" style="stroke:#181818;stroke-width:0.6;" width="6" x="1187.1" y="656.3836"/><rect fill="#FFFFFF" height="21.7746" style="stroke:#181818;stroke-width:0.6;" width="6" x="1190.1" y="740.6801"/><rect fill="none" height="30.3492" style="stroke:#000000;stroke-width:0.8999999999999999;" width="457.5" x="587.4" y="562.9125"/><rect fill="none" height="101.8711" style="stroke:#000000;stroke-width:0.8999999999999999;" width="238.2" x="1115.7" y="691.5563"/><line style="stroke:#181818;stroke-width:0.3;stroke-dasharray:5.0,5.0;" x1="28.2" x2="28.2" y1="50.1727" y2="874.9512"/><line style="stroke:#181818;stroke-width:0.3;stroke-dasharray:5.0,5.0;" x1="283.2" x2="283.2" y1="50.1727" y2="874.9512"/><line style="stroke:#181818;stroke-width:0.3;stroke-dasharray:5.0,5.0;" x1="643.2" x2="643.2" y1="94.0336" y2="874.9512"/><line style="stroke:#181818;stroke-width:0.3;stroke-dasharray:5.0,5.0;" x1="767.1" x2="767.1" y1="50.1727" y2="874.9512"/><line style="stroke:#181818;stroke-width:0.3;stroke-dasharray:5.0,5.0;" x1="831.3" x2="831.3" y1="50.1727" y2="874.9512"/><line style="stroke:#181818;stroke-width:0.3;stroke-dasharray:5.0,5.0;" x1="915.9" x2="915.9" y1="50.1727" y2="874.9512"/><line style="stroke:#181818;stroke-width:0.3;stroke-dasharray:5.0,5.0;" x1="1004.7" x2="1004.7" y1="50.1727" y2="874.9512"/><line style="stroke:#181818;stroke-width:0.3;stroke-dasharray:5.0,5.0;" x1="1080.3" x2="1080.3" y1="50.1727" y2="874.9512"/><line style="stroke:#181818;stroke-width:0.3;stroke-dasharray:5.0,5.0;" x1="1140.3" x2="1140.3" y1="616.548" y2="874.9512"/><line style="stroke:#181818;stroke-width:0.3;stroke-dasharray:5.0,5.0;" x1="1190.1" x2="1190.1" y1="50.1727" y2="874.9512"/><line style="stroke:#181818;stroke-width:0.3;stroke-dasharray:5.0,5.0;" x1="1272.3" x2="1272.3" y1="680.2699" y2="874.9512"/><line style="stroke:#181818;stroke-width:0.3;stroke-dasharray:5.0,5.0;" x1="1326.9" x2="1326.9" y1="767.5664" y2="874.9512"/><text fill="#000000" font-family="sans-serif" font-size="8.4" lengthAdjust="spacing" textLength="46.8" x="3" y="48.0645">Collaborator</text><ellipse cx="28.2" cy="8.1" fill="#E3E3E3" rx="4.8" ry="4.8" style="stroke:#181818;stroke-width:0.3;"/><path d="M28.2,12.9 L28.2,29.1 M20.4,17.7 L36,17.7 M28.2,29.1 L20.4,38.1 M28.2,29.1 L36,38.1 " fill="none" style="stroke:#181818;stroke-width:0.3;"/><text fill="#000000" font-family="sans-serif" font-size="8.4" lengthAdjust="spacing" textLength="46.8" x="3" y="883.4156">Collaborator</text><ellipse cx="28.2" cy="890.6238" fill="#E3E3E3" rx="4.8" ry="4.8" style="stroke:#181818;stroke-width:0.3;"/><path d="M28.2,895.4238 L28.2,911.6238 M20.4,900.2238 L36,900.2238 M28.2,911.6238 L20.4,920.6238 M28.2,911.6238 L36,920.6238 " fill="none" style="stroke:#181818;stroke-width:0.3;"/><rect fill="#E3E3E3" height="19.5727" rx="1.5" ry="1.5" style="stroke:#181818;stroke-width:0.3;" width="69.6" x="248.4" y="30"/><text fill="#000000" font-family="sans-serif" font-size="8.4" lengthAdjust="spacing" textLength="61.2" x="252.6" y="43.2645">:ConsultTasksUI</text><rect fill="#E3E3E3" height="19.5727" rx="1.5" ry="1.5" style="stroke:#181818;stroke-width:0.3;" width="69.6" x="248.4" y="874.3512"/><text fill="#000000" font-family="sans-serif" font-size="8.4" lengthAdjust="spacing" textLength="61.2" x="252.6" y="887.6156">:ConsultTasksUI</text><rect fill="#E3E3E3" height="19.5727" rx="1.5" ry="1.5" style="stroke:#181818;stroke-width:0.3;" width="99.6" x="593.4" y="874.3512"/><text fill="#000000" font-family="sans-serif" font-size="8.4" lengthAdjust="spacing" textLength="91.2" x="597.6" y="887.6156">:ConsultTasksController</text><rect fill="#E3E3E3" height="19.5727" rx="1.5" ry="1.5" style="stroke:#181818;stroke-width:0.3;" width="58.2" x="738.3" y="30"/><text fill="#000000" font-family="sans-serif" font-size="8.4" lengthAdjust="spacing" textLength="49.8" x="742.5" y="43.2645">:Repositories</text><rect fill="#E3E3E3" height="19.5727" rx="1.5" ry="1.5" style="stroke:#181818;stroke-width:0.3;" width="58.2" x="738.3" y="874.3512"/><text fill="#000000" font-family="sans-serif" font-size="8.4" lengthAdjust="spacing" textLength="49.8" x="742.5" y="887.6156">:Repositories</text><rect fill="#E3E3E3" height="30.7453" rx="1.5" ry="1.5" style="stroke:#181818;stroke-width:0.3;" width="58.2" x="802.5" y="18.8273"/><text fill="#000000" font-family="sans-serif" font-size="8.4" lengthAdjust="spacing" textLength="44.4" x="809.4" y="32.0918">repositories</text><text fill="#000000" font-family="sans-serif" font-size="8.4" lengthAdjust="spacing" textLength="49.8" x="806.7" y="43.2645">:Repositories</text><rect fill="#E3E3E3" height="30.7453" rx="1.5" ry="1.5" style="stroke:#181818;stroke-width:0.3;" width="58.2" x="802.5" y="874.3512"/><text fill="#000000" font-family="sans-serif" font-size="8.4" lengthAdjust="spacing" textLength="44.4" x="809.4" y="887.6156">repositories</text><text fill="#000000" font-family="sans-serif" font-size="8.4" lengthAdjust="spacing" textLength="49.8" x="806.7" y="898.7883">:Repositories</text><rect fill="#E3E3E3" height="30.7453" rx="1.5" ry="1.5" style="stroke:#181818;stroke-width:0.3;" width="98.4" x="866.7" y="18.8273"/><text fill="#000000" font-family="sans-serif" font-size="8.4" lengthAdjust="spacing" textLength="82.8" x="874.5" y="32.0918">collaboratorrepository</text><text fill="#000000" font-family="sans-serif" font-size="8.4" lengthAdjust="spacing" textLength="90" x="870.9" y="43.2645">:CollaboratorRepository</text><rect fill="#E3E3E3" height="30.7453" rx="1.5" ry="1.5" style="stroke:#181818;stroke-width:0.3;" width="98.4" x="866.7" y="874.3512"/><text fill="#000000" font-family="sans-serif" font-size="8.4" lengthAdjust="spacing" textLength="82.8" x="874.5" y="887.6156">collaboratorrepository</text><text fill="#000000" font-family="sans-serif" font-size="8.4" lengthAdjust="spacing" textLength="90" x="870.9" y="898.7883">:CollaboratorRepository</text><rect fill="#E3E3E3" height="30.7453" rx="1.5" ry="1.5" style="stroke:#181818;stroke-width:0.3;" width="67.8" x="971.1" y="18.8273"/><text fill="#000000" font-family="sans-serif" font-size="8.4" lengthAdjust="spacing" textLength="58.8" x="975.6" y="32.0918">taskRepository:</text><text fill="#000000" font-family="sans-serif" font-size="8.4" lengthAdjust="spacing" textLength="59.4" x="975.3" y="43.2645">TaskRepository</text><rect fill="#E3E3E3" height="30.7453" rx="1.5" ry="1.5" style="stroke:#181818;stroke-width:0.3;" width="67.8" x="971.1" y="874.3512"/><text fill="#000000" font-family="sans-serif" font-size="8.4" lengthAdjust="spacing" textLength="58.8" x="975.6" y="887.6156">taskRepository:</text><text fill="#000000" font-family="sans-serif" font-size="8.4" lengthAdjust="spacing" textLength="59.4" x="975.3" y="898.7883">TaskRepository</text><rect fill="#E3E3E3" height="30.7453" rx="1.5" ry="1.5" style="stroke:#181818;stroke-width:0.3;" width="70.8" x="1044.9" y="18.8273"/><text fill="#000000" font-family="sans-serif" font-size="8.4" lengthAdjust="spacing" textLength="61.8" x="1049.4" y="32.0918">teamRepository:</text><text fill="#000000" font-family="sans-serif" font-size="8.4" lengthAdjust="spacing" textLength="62.4" x="1049.1" y="43.2645">TeamRepository</text><rect fill="#E3E3E3" height="30.7453" rx="1.5" ry="1.5" style="stroke:#181818;stroke-width:0.3;" width="70.8" x="1044.9" y="874.3512"/><text fill="#000000" font-family="sans-serif" font-size="8.4" lengthAdjust="spacing" textLength="61.8" x="1049.4" y="887.6156">teamRepository:</text><text fill="#000000" font-family="sans-serif" font-size="8.4" lengthAdjust="spacing" textLength="62.4" x="1049.1" y="898.7883">TeamRepository</text><rect fill="#E3E3E3" height="19.5727" rx="1.5" ry="1.5" style="stroke:#181818;stroke-width:0.3;" width="37.2" x="1121.7" y="874.3512"/><text fill="#000000" font-family="sans-serif" font-size="8.4" lengthAdjust="spacing" textLength="28.8" x="1125.9" y="887.6156">taskList</text><rect fill="#E3E3E3" height="19.5727" rx="1.5" ry="1.5" style="stroke:#181818;stroke-width:0.3;" width="50.4" x="1164.9" y="30"/><text fill="#000000" font-family="sans-serif" font-size="8.4" lengthAdjust="spacing" textLength="42" x="1169.1" y="43.2645">ListMapper</text><rect fill="#E3E3E3" height="19.5727" rx="1.5" ry="1.5" style="stroke:#181818;stroke-width:0.3;" width="50.4" x="1164.9" y="874.3512"/><text fill="#000000" font-family="sans-serif" font-size="8.4" lengthAdjust="spacing" textLength="42" x="1169.1" y="887.6156">ListMapper</text><rect fill="#E3E3E3" height="19.5727" rx="1.5" ry="1.5" style="stroke:#181818;stroke-width:0.3;" width="55.2" x="1244.7" y="874.3512"/><text fill="#000000" font-family="sans-serif" font-size="8.4" lengthAdjust="spacing" textLength="46.8" x="1248.9" y="887.6156">taskListDTO</text><rect fill="#E3E3E3" height="19.5727" rx="1.5" ry="1.5" style="stroke:#181818;stroke-width:0.3;" width="42" x="1305.9" y="874.3512"/><text fill="#000000" font-family="sans-serif" font-size="8.4" lengthAdjust="spacing" textLength="33.6" x="1310.1" y="887.6156">taskDTO</text><rect fill="#FFFFFF" height="807.9785" style="stroke:#181818;stroke-width:0.6;" width="6" x="25.2" y="56.1727"/><rect fill="#FFFFFF" height="333.5684" style="stroke:#181818;stroke-width:0.6;" width="6" x="280.2" y="70.1473"/><rect fill="#FFFFFF" height="18.7746" style="stroke:#181818;stroke-width:0.6;" width="6" x="280.2" y="422.4902"/><rect fill="#FFFFFF" height="404.1117" style="stroke:#181818;stroke-width:0.6;" width="6" x="280.2" y="460.0395"/><rect fill="#FFFFFF" height="139.8223" style="stroke:#181818;stroke-width:0.6;" width="6" x="640.2" y="94.9219"/><rect fill="#FFFFFF" height="54.3258" style="stroke:#181818;stroke-width:0.6;" width="6" x="643.2" y="157.4438"/><rect fill="#FFFFFF" height="56.3238" style="stroke:#181818;stroke-width:0.6;" width="6" x="640.2" y="253.5187"/><rect fill="#FFFFFF" height="56.3238" style="stroke:#181818;stroke-width:0.6;" width="6" x="640.2" y="328.6172"/><rect fill="#FFFFFF" height="56.3238" style="stroke:#181818;stroke-width:0.6;" width="6" x="640.2" y="478.8141"/><rect fill="#FFFFFF" height="315.6387" style="stroke:#181818;stroke-width:0.6;" width="6" x="640.2" y="553.9125"/><rect fill="#FFFFFF" height="18.7746" style="stroke:#181818;stroke-width:0.6;" width="6" x="764.4" y="115.0945"/><rect fill="#FFFFFF" height="18.7746" style="stroke:#181818;stroke-width:0.6;" width="6" x="828.6" y="272.2934"/><rect fill="#FFFFFF" height="18.7746" style="stroke:#181818;stroke-width:0.6;" width="6" x="828.6" y="347.3918"/><rect fill="#FFFFFF" height="49.1473" style="stroke:#181818;stroke-width:0.6;" width="6" x="1002" y="588.4617"/><rect fill="#FFFFFF" height="18.7746" style="stroke:#181818;stroke-width:0.6;" width="6" x="1077.3" y="497.5887"/><rect fill="#FFFFFF" height="170.2184" style="stroke:#181818;stroke-width:0.6;" width="6" x="1187.1" y="656.3836"/><rect fill="#FFFFFF" height="21.7746" style="stroke:#181818;stroke-width:0.6;" width="6" x="1190.1" y="740.6801"/><polygon fill="#181818" points="273,67.7473,279,70.1473,273,72.5473,275.4,70.1473" style="stroke:#181818;stroke-width:0.6;"/><line style="stroke:#181818;stroke-width:0.6;" x1="31.2" x2="276.6" y1="70.1473" y2="70.1473"/><text fill="#000000" font-family="sans-serif" font-size="7.8" font-weight="bold" lengthAdjust="spacing" textLength="4.2" x="35.4" y="66.9896">1</text><text fill="#000000" font-family="sans-serif" font-size="7.8" lengthAdjust="spacing" textLength="220.2" x="42" y="66.9896">asks to consult the tasks assigned to them between two dates.</text><polygon fill="#181818" points="586.2,86.5219,592.2,88.9219,586.2,91.3219,588.6,88.9219" style="stroke:#181818;stroke-width:0.6;"/><line style="stroke:#181818;stroke-width:0.6;" x1="286.2" x2="589.8" y1="88.9219" y2="88.9219"/><text fill="#000000" font-family="sans-serif" font-size="7.8" font-weight="bold" lengthAdjust="spacing" textLength="4.2" x="290.4" y="85.7643">2</text><text fill="#000000" font-family="sans-serif" font-size="7.8" lengthAdjust="spacing" textLength="21.6" x="297" y="85.7643">create</text><rect fill="#E3E3E3" height="19.5727" rx="1.5" ry="1.5" style="stroke:#181818;stroke-width:0.3;" width="99.6" x="593.4" y="74.9473"/><text fill="#000000" font-family="sans-serif" font-size="8.4" lengthAdjust="spacing" textLength="91.2" x="597.6" y="88.2117">:ConsultTasksController</text><polygon fill="#181818" points="757.2,112.6945,763.2,115.0945,757.2,117.4945,759.6,115.0945" style="stroke:#181818;stroke-width:0.6;"/><line style="stroke:#181818;stroke-width:0.6;" x1="646.2" x2="760.8" y1="115.0945" y2="115.0945"/><text fill="#000000" font-family="sans-serif" font-size="7.8" font-weight="bold" lengthAdjust="spacing" textLength="4.2" x="650.4" y="111.9369">3</text><text fill="#000000" font-family="sans-serif" font-size="7.8" lengthAdjust="spacing" textLength="45" x="657" y="111.9369">getInstance()</text><polygon fill="#181818" points="652.8,131.4691,646.8,133.8691,652.8,136.2691,650.4,133.8691" style="stroke:#181818;stroke-width:0.6;"/><line style="stroke:#181818;stroke-width:0.6;stroke-dasharray:2.0,2.0;" x1="649.2" x2="766.8" y1="133.8691" y2="133.8691"/><text fill="#000000" font-family="sans-serif" font-size="7.8" font-weight="bold" lengthAdjust="spacing" textLength="4.2" x="656.4" y="130.7115">4</text><text fill="#000000" font-family="sans-serif" font-size="7.8" lengthAdjust="spacing" textLength="40.2" x="663" y="130.7115">repositories</text><line style="stroke:#181818;stroke-width:0.6;" x1="646.2" x2="674.4" y1="149.6437" y2="149.6437"/><line style="stroke:#181818;stroke-width:0.6;" x1="674.4" x2="674.4" y1="149.6437" y2="157.4438"/><line style="stroke:#181818;stroke-width:0.6;" x1="649.8" x2="674.4" y1="157.4438" y2="157.4438"/><polygon fill="#181818" points="655.8,155.0438,649.8,157.4438,655.8,159.8438,653.4,157.4438" style="stroke:#181818;stroke-width:0.6;"/><text fill="#000000" font-family="sans-serif" font-size="7.8" font-weight="bold" lengthAdjust="spacing" textLength="4.2" x="653.4" y="146.4861">5</text><text fill="#000000" font-family="sans-serif" font-size="7.8" lengthAdjust="spacing" textLength="103.2" x="660" y="146.4861">getCollaboratorFromSession()</text><rect fill="none" height="25.9512" style="stroke:#000000;stroke-width:0.8999999999999999;" width="103.2" x="591.6" y="165.2438"/><path d="M591.6,165.2438 L628.8,165.2438 L628.8,170.6437 L622.8,176.6437 L591.6,176.6437 L591.6,165.2438 " fill="#EEEEEE" style="stroke:#000000;stroke-width:1.2;"/><text fill="#000000" font-family="sans-serif" font-size="7.8" font-weight="bold" lengthAdjust="spacing" textLength="10.2" x="599.4" y="174.8607">ref</text><text fill="#000000" font-family="sans-serif" font-size="7.2" lengthAdjust="spacing" textLength="54" x="616.2" y="186.8133">Get Collaborator</text><line style="stroke:#181818;stroke-width:0.6;stroke-dasharray:2.0,2.0;" x1="649.2" x2="674.4" y1="211.1695" y2="211.1695"/><line style="stroke:#181818;stroke-width:0.6;stroke-dasharray:2.0,2.0;" x1="674.4" x2="674.4" y1="211.1695" y2="218.9695"/><line style="stroke:#181818;stroke-width:0.6;stroke-dasharray:2.0,2.0;" x1="646.2" x2="674.4" y1="218.9695" y2="218.9695"/><polygon fill="#181818" points="652.2,216.5695,646.2,218.9695,652.2,221.3695,649.8,218.9695" style="stroke:#181818;stroke-width:0.6;"/><text fill="#000000" font-family="sans-serif" font-size="7.8" font-weight="bold" lengthAdjust="spacing" textLength="4.2" x="653.4" y="208.0119">6</text><text fill="#000000" font-family="sans-serif" font-size="7.8" lengthAdjust="spacing" textLength="40.2" x="660" y="208.0119">collaborator</text><polygon fill="#181818" points="292.8,232.3441,286.8,234.7441,292.8,237.1441,290.4,234.7441" style="stroke:#181818;stroke-width:0.6;"/><line style="stroke:#181818;stroke-width:0.6;stroke-dasharray:2.0,2.0;" x1="289.2" x2="642.6" y1="234.7441" y2="234.7441"/><text fill="#000000" font-family="sans-serif" font-size="7.8" font-weight="bold" lengthAdjust="spacing" textLength="4.2" x="296.4" y="231.5865">7</text><text fill="#000000" font-family="sans-serif" font-size="7.8" lengthAdjust="spacing" textLength="40.2" x="303" y="231.5865">collaborator</text><polygon fill="#181818" points="633,251.1187,639,253.5187,633,255.9188,635.4,253.5187" style="stroke:#181818;stroke-width:0.6;"/><line style="stroke:#181818;stroke-width:0.6;" x1="286.2" x2="636.6" y1="253.5187" y2="253.5187"/><text fill="#000000" font-family="sans-serif" font-size="7.8" font-weight="bold" lengthAdjust="spacing" textLength="4.2" x="290.4" y="250.3611">8</text><text fill="#000000" font-family="sans-serif" font-size="7.8" lengthAdjust="spacing" textLength="72" x="297" y="250.3611">getTeamRepository()</text><polygon fill="#181818" points="821.4,269.8934,827.4,272.2934,821.4,274.6934,823.8,272.2934" style="stroke:#181818;stroke-width:0.6;"/><line style="stroke:#181818;stroke-width:0.6;" x1="646.2" x2="825" y1="272.2934" y2="272.2934"/><text fill="#000000" font-family="sans-serif" font-size="7.8" font-weight="bold" lengthAdjust="spacing" textLength="4.2" x="650.4" y="269.1357">9</text><text fill="#000000" font-family="sans-serif" font-size="7.8" lengthAdjust="spacing" textLength="72" x="657" y="269.1357">getTeamRepository()</text><polygon fill="#181818" points="652.8,288.668,646.8,291.068,652.8,293.468,650.4,291.068" style="stroke:#181818;stroke-width:0.6;"/><line style="stroke:#181818;stroke-width:0.6;stroke-dasharray:2.0,2.0;" x1="649.2" x2="831" y1="291.068" y2="291.068"/><text fill="#000000" font-family="sans-serif" font-size="7.8" font-weight="bold" lengthAdjust="spacing" textLength="8.4" x="656.4" y="287.9104">10</text><text fill="#000000" font-family="sans-serif" font-size="7.8" lengthAdjust="spacing" textLength="54.6" x="667.2" y="287.9104">teamRepository</text><polygon fill="#181818" points="292.8,307.4426,286.8,309.8426,292.8,312.2426,290.4,309.8426" style="stroke:#181818;stroke-width:0.6;"/><line style="stroke:#181818;stroke-width:0.6;stroke-dasharray:2.0,2.0;" x1="289.2" x2="642.6" y1="309.8426" y2="309.8426"/><text fill="#000000" font-family="sans-serif" font-size="7.8" font-weight="bold" lengthAdjust="spacing" textLength="8.4" x="296.4" y="306.685">11</text><text fill="#000000" font-family="sans-serif" font-size="7.8" lengthAdjust="spacing" textLength="54.6" x="307.2" y="306.685">teamRepository</text><polygon fill="#181818" points="633,326.2172,639,328.6172,633,331.0172,635.4,328.6172" style="stroke:#181818;stroke-width:0.6;"/><line style="stroke:#181818;stroke-width:0.6;" x1="286.2" x2="636.6" y1="328.6172" y2="328.6172"/><text fill="#000000" font-family="sans-serif" font-size="7.8" font-weight="bold" lengthAdjust="spacing" textLength="8.4" x="290.4" y="325.4596">12</text><text fill="#000000" font-family="sans-serif" font-size="7.8" lengthAdjust="spacing" textLength="69.6" x="301.2" y="325.4596">getTaskRepository()</text><polygon fill="#181818" points="821.4,344.9918,827.4,347.3918,821.4,349.7918,823.8,347.3918" style="stroke:#181818;stroke-width:0.6;"/><line style="stroke:#181818;stroke-width:0.6;" x1="646.2" x2="825" y1="347.3918" y2="347.3918"/><text fill="#000000" font-family="sans-serif" font-size="7.8" font-weight="bold" lengthAdjust="spacing" textLength="8.4" x="650.4" y="344.2342">13</text><text fill="#000000" font-family="sans-serif" font-size="7.8" lengthAdjust="spacing" textLength="69.6" x="661.2" y="344.2342">getTaskRepository()</text><polygon fill="#181818" points="652.8,363.7664,646.8,366.1664,652.8,368.5664,650.4,366.1664" style="stroke:#181818;stroke-width:0.6;"/><line style="stroke:#181818;stroke-width:0.6;stroke-dasharray:2.0,2.0;" x1="649.2" x2="831" y1="366.1664" y2="366.1664"/><text fill="#000000" font-family="sans-serif" font-size="7.8" font-weight="bold" lengthAdjust="spacing" textLength="8.4" x="656.4" y="363.0088">14</text><text fill="#000000" font-family="sans-serif" font-size="7.8" lengthAdjust="spacing" textLength="52.2" x="667.2" y="363.0088">taskRepository</text><polygon fill="#181818" points="292.8,382.541,286.8,384.941,292.8,387.341,290.4,384.941" style="stroke:#181818;stroke-width:0.6;"/><line style="stroke:#181818;stroke-width:0.6;stroke-dasharray:2.0,2.0;" x1="289.2" x2="642.6" y1="384.941" y2="384.941"/><text fill="#000000" font-family="sans-serif" font-size="7.8" font-weight="bold" lengthAdjust="spacing" textLength="8.4" x="296.4" y="381.7834">15</text><text fill="#000000" font-family="sans-serif" font-size="7.8" lengthAdjust="spacing" textLength="52.2" x="307.2" y="381.7834">taskRepository</text><polygon fill="#181818" points="37.8,401.3156,31.8,403.7156,37.8,406.1156,35.4,403.7156" style="stroke:#181818;stroke-width:0.6;"/><line style="stroke:#181818;stroke-width:0.6;stroke-dasharray:2.0,2.0;" x1="34.2" x2="282.6" y1="403.7156" y2="403.7156"/><text fill="#000000" font-family="sans-serif" font-size="7.8" font-weight="bold" lengthAdjust="spacing" textLength="8.4" x="41.4" y="400.558">16</text><text fill="#000000" font-family="sans-serif" font-size="7.8" lengthAdjust="spacing" textLength="51.6" x="52.2" y="400.558">requests dates</text><polygon fill="#181818" points="273,420.0902,279,422.4902,273,424.8902,275.4,422.4902" style="stroke:#181818;stroke-width:0.6;"/><line style="stroke:#181818;stroke-width:0.6;" x1="31.2" x2="276.6" y1="422.4902" y2="422.4902"/><text fill="#000000" font-family="sans-serif" font-size="7.8" font-weight="bold" lengthAdjust="spacing" textLength="8.4" x="35.4" y="419.3326">17</text><text fill="#000000" font-family="sans-serif" font-size="7.8" lengthAdjust="spacing" textLength="40.8" x="46.2" y="419.3326">types dates</text><polygon fill="#181818" points="37.8,438.8648,31.8,441.2648,37.8,443.6648,35.4,441.2648" style="stroke:#181818;stroke-width:0.6;"/><line style="stroke:#181818;stroke-width:0.6;stroke-dasharray:2.0,2.0;" x1="34.2" x2="282.6" y1="441.2648" y2="441.2648"/><text fill="#000000" font-family="sans-serif" font-size="7.8" font-weight="bold" lengthAdjust="spacing" textLength="8.4" x="41.4" y="438.1072">18</text><text fill="#000000" font-family="sans-serif" font-size="7.8" lengthAdjust="spacing" textLength="161.4" x="52.2" y="438.1072">asks if it would like to filter the tasks by status</text><polygon fill="#181818" points="273,457.6395,279,460.0395,273,462.4395,275.4,460.0395" style="stroke:#181818;stroke-width:0.6;"/><line style="stroke:#181818;stroke-width:0.6;" x1="31.2" x2="276.6" y1="460.0395" y2="460.0395"/><text fill="#000000" font-family="sans-serif" font-size="7.8" font-weight="bold" lengthAdjust="spacing" textLength="8.4" x="35.4" y="456.8818">19</text><text fill="#000000" font-family="sans-serif" font-size="7.8" lengthAdjust="spacing" textLength="226.8" x="46.2" y="456.8818">either accepts or declines (in case of acceptance, selects status)</text><polygon fill="#181818" points="633,476.4141,639,478.8141,633,481.2141,635.4,478.8141" style="stroke:#181818;stroke-width:0.6;"/><line style="stroke:#181818;stroke-width:0.6;" x1="286.2" x2="636.6" y1="478.8141" y2="478.8141"/><text fill="#000000" font-family="sans-serif" font-size="7.8" font-weight="bold" lengthAdjust="spacing" textLength="8.4" x="290.4" y="475.6564">20</text><text fill="#000000" font-family="sans-serif" font-size="7.8" lengthAdjust="spacing" textLength="160.2" x="301.2" y="475.6564">getCollaboratorTeam(Collaborator collaborator)</text><polygon fill="#181818" points="1070.1,495.1887,1076.1,497.5887,1070.1,499.9887,1072.5,497.5887" style="stroke:#181818;stroke-width:0.6;"/><line style="stroke:#181818;stroke-width:0.6;" x1="646.2" x2="1073.7" y1="497.5887" y2="497.5887"/><text fill="#000000" font-family="sans-serif" font-size="7.8" font-weight="bold" lengthAdjust="spacing" textLength="8.4" x="650.4" y="494.4311">21</text><text fill="#000000" font-family="sans-serif" font-size="7.8" lengthAdjust="spacing" textLength="169.8" x="661.2" y="494.4311">getTeamByCollaborator(Collaborator collaborator)</text><polygon fill="#181818" points="652.8,513.9633,646.8,516.3633,652.8,518.7633,650.4,516.3633" style="stroke:#181818;stroke-width:0.6;"/><line style="stroke:#181818;stroke-width:0.6;stroke-dasharray:2.0,2.0;" x1="649.2" x2="1079.7" y1="516.3633" y2="516.3633"/><text fill="#000000" font-family="sans-serif" font-size="7.8" font-weight="bold" lengthAdjust="spacing" textLength="8.4" x="656.4" y="513.2057">22</text><text fill="#000000" font-family="sans-serif" font-size="7.8" lengthAdjust="spacing" textLength="17.4" x="667.2" y="513.2057">team</text><polygon fill="#181818" points="292.8,532.7379,286.8,535.1379,292.8,537.5379,290.4,535.1379" style="stroke:#181818;stroke-width:0.6;"/><line style="stroke:#181818;stroke-width:0.6;stroke-dasharray:2.0,2.0;" x1="289.2" x2="642.6" y1="535.1379" y2="535.1379"/><text fill="#000000" font-family="sans-serif" font-size="7.8" font-weight="bold" lengthAdjust="spacing" textLength="8.4" x="296.4" y="531.9803">23</text><text fill="#000000" font-family="sans-serif" font-size="7.8" lengthAdjust="spacing" textLength="17.4" x="307.2" y="531.9803">team</text><polygon fill="#181818" points="633,551.5125,639,553.9125,633,556.3125,635.4,553.9125" style="stroke:#181818;stroke-width:0.6;"/><line style="stroke:#181818;stroke-width:0.6;" x1="286.2" x2="636.6" y1="553.9125" y2="553.9125"/><text fill="#000000" font-family="sans-serif" font-size="7.8" font-weight="bold" lengthAdjust="spacing" textLength="8.4" x="290.4" y="550.7549">24</text><text fill="#000000" font-family="sans-serif" font-size="7.8" lengthAdjust="spacing" textLength="331.8" x="301.2" y="550.7549">getTasksForCollaborator(Team team, LocalDate firstDate, LocalDate secondDate, String status)</text><path d="M587.4,562.9125 L631.2,562.9125 L631.2,568.4871 L625.2,574.4871 L587.4,574.4871 L587.4,562.9125 " fill="#EEEEEE" style="stroke:#000000;stroke-width:0.8999999999999999;"/><rect fill="none" height="30.3492" style="stroke:#000000;stroke-width:0.8999999999999999;" width="457.5" x="587.4" y="562.9125"/><text fill="#000000" font-family="sans-serif" font-size="7.8" font-weight="bold" lengthAdjust="spacing" textLength="16.8" x="596.4" y="571.9295">loop</text><text fill="#000000" font-family="sans-serif" font-size="6.6" font-weight="bold" lengthAdjust="spacing" textLength="48" x="640.2" y="571.2346">[for each task]</text><polygon fill="#181818" points="994.8,586.0617,1000.8,588.4617,994.8,590.8617,997.2,588.4617" style="stroke:#181818;stroke-width:0.6;"/><line style="stroke:#181818;stroke-width:0.6;" x1="646.2" x2="998.4" y1="588.4617" y2="588.4617"/><text fill="#000000" font-family="sans-serif" font-size="7.8" font-weight="bold" lengthAdjust="spacing" textLength="8.4" x="650.4" y="585.3041">25</text><text fill="#000000" font-family="sans-serif" font-size="7.8" lengthAdjust="spacing" textLength="100.2" x="661.2" y="585.3041">getTaskByTeam(Team team)</text><polygon fill="#181818" points="1114.5,609.0363,1120.5,611.4363,1114.5,613.8363,1116.9,611.4363" style="stroke:#181818;stroke-width:0.6;"/><line style="stroke:#181818;stroke-width:0.6;" x1="1008" x2="1118.1" y1="611.4363" y2="611.4363"/><text fill="#000000" font-family="sans-serif" font-size="7.8" font-weight="bold" lengthAdjust="spacing" textLength="8.4" x="1012.2" y="608.2787">26</text><text fill="#000000" font-family="sans-serif" font-size="7.8" lengthAdjust="spacing" textLength="26.4" x="1023" y="608.2787">create()</text><rect fill="#E3E3E3" height="19.5727" rx="1.5" ry="1.5" style="stroke:#181818;stroke-width:0.3;" width="37.2" x="1121.7" y="597.4617"/><text fill="#000000" font-family="sans-serif" font-size="8.4" lengthAdjust="spacing" textLength="28.8" x="1125.9" y="610.7262">taskList</text><polygon fill="#181818" points="652.8,635.209,646.8,637.609,652.8,640.009,650.4,637.609" style="stroke:#181818;stroke-width:0.6;"/><line style="stroke:#181818;stroke-width:0.6;stroke-dasharray:2.0,2.0;" x1="649.2" x2="1004.4" y1="637.609" y2="637.609"/><text fill="#000000" font-family="sans-serif" font-size="7.8" font-weight="bold" lengthAdjust="spacing" textLength="8.4" x="656.4" y="634.4514">27</text><text fill="#000000" font-family="sans-serif" font-size="7.8" lengthAdjust="spacing" textLength="61.2" x="667.2" y="634.4514">collaboratorTasks</text><polygon fill="#181818" points="1179.9,653.9836,1185.9,656.3836,1179.9,658.7836,1182.3,656.3836" style="stroke:#181818;stroke-width:0.6;"/><line style="stroke:#181818;stroke-width:0.6;" x1="646.2" x2="1183.5" y1="656.3836" y2="656.3836"/><text fill="#000000" font-family="sans-serif" font-size="7.8" font-weight="bold" lengthAdjust="spacing" textLength="8.4" x="650.4" y="653.226">28</text><text fill="#000000" font-family="sans-serif" font-size="7.8" lengthAdjust="spacing" textLength="88.2" x="661.2" y="653.226">toDTO(collaboratorTasks)</text><polygon fill="#181818" points="1237.5,672.7582,1243.5,675.1582,1237.5,677.5582,1239.9,675.1582" style="stroke:#181818;stroke-width:0.6;"/><line style="stroke:#181818;stroke-width:0.6;" x1="1193.1" x2="1241.1" y1="675.1582" y2="675.1582"/><text fill="#000000" font-family="sans-serif" font-size="7.8" font-weight="bold" lengthAdjust="spacing" textLength="8.4" x="1197.3" y="672.0006">29</text><text fill="#000000" font-family="sans-serif" font-size="7.8" lengthAdjust="spacing" textLength="26.4" x="1208.1" y="672.0006">create()</text><rect fill="#E3E3E3" height="19.5727" rx="1.5" ry="1.5" style="stroke:#181818;stroke-width:0.3;" width="55.2" x="1244.7" y="661.1836"/><text fill="#000000" font-family="sans-serif" font-size="8.4" lengthAdjust="spacing" textLength="46.8" x="1248.9" y="674.448">taskListDTO</text><path d="M1115.7,691.5563 L1159.5,691.5563 L1159.5,697.1309 L1153.5,703.1309 L1115.7,703.1309 L1115.7,691.5563 " fill="#EEEEEE" style="stroke:#000000;stroke-width:0.8999999999999999;"/><rect fill="none" height="101.8711" style="stroke:#000000;stroke-width:0.8999999999999999;" width="238.2" x="1115.7" y="691.5563"/><text fill="#000000" font-family="sans-serif" font-size="7.8" font-weight="bold" lengthAdjust="spacing" textLength="16.8" x="1124.7" y="700.5732">loop</text><text fill="#000000" font-family="sans-serif" font-size="6.6" font-weight="bold" lengthAdjust="spacing" textLength="117.6" x="1168.5" y="699.8783">[for each task in collaboratorTasks]</text><polygon fill="#181818" points="1146.9,714.7055,1140.9,717.1055,1146.9,719.5055,1144.5,717.1055" style="stroke:#181818;stroke-width:0.6;"/><line style="stroke:#181818;stroke-width:0.6;" x1="1143.3" x2="1186.5" y1="717.1055" y2="717.1055"/><text fill="#000000" font-family="sans-serif" font-size="7.8" font-weight="bold" lengthAdjust="spacing" textLength="8.4" x="1150.5" y="713.9479">30</text><text fill="#000000" font-family="sans-serif" font-size="7.8" lengthAdjust="spacing" textLength="15.6" x="1161.3" y="713.9479">get()</text><line style="stroke:#181818;stroke-width:0.6;" x1="1193.1" x2="1221.3" y1="732.8801" y2="732.8801"/><line style="stroke:#181818;stroke-width:0.6;" x1="1221.3" x2="1221.3" y1="732.8801" y2="740.6801"/><line style="stroke:#181818;stroke-width:0.6;" x1="1196.7" x2="1221.3" y1="740.6801" y2="740.6801"/><polygon fill="#181818" points="1202.7,738.2801,1196.7,740.6801,1202.7,743.0801,1200.3,740.6801" style="stroke:#181818;stroke-width:0.6;"/><text fill="#000000" font-family="sans-serif" font-size="7.8" font-weight="bold" lengthAdjust="spacing" textLength="8.4" x="1200.3" y="729.7225">31</text><text fill="#000000" font-family="sans-serif" font-size="7.8" lengthAdjust="spacing" textLength="42" x="1211.1" y="729.7225">toDTO(task)</text><polygon fill="#181818" points="1298.7,760.0547,1304.7,762.4547,1298.7,764.8547,1301.1,762.4547" style="stroke:#181818;stroke-width:0.6;"/><line style="stroke:#181818;stroke-width:0.6;stroke-dasharray:2.0,2.0;" x1="1193.1" x2="1302.3" y1="762.4547" y2="762.4547"/><text fill="#000000" font-family="sans-serif" font-size="7.8" font-weight="bold" lengthAdjust="spacing" textLength="8.4" x="1197.3" y="759.2971">32</text><text fill="#000000" font-family="sans-serif" font-size="7.8" lengthAdjust="spacing" textLength="41.4" x="1208.1" y="759.2971">create(task)</text><rect fill="#E3E3E3" height="19.5727" rx="1.5" ry="1.5" style="stroke:#181818;stroke-width:0.3;" width="42" x="1305.9" y="748.4801"/><text fill="#000000" font-family="sans-serif" font-size="8.4" lengthAdjust="spacing" textLength="33.6" x="1310.1" y="761.7445">taskDTO</text><polygon fill="#181818" points="1265.1,786.2273,1271.1,788.6273,1265.1,791.0273,1267.5,788.6273" style="stroke:#181818;stroke-width:0.6;"/><line style="stroke:#181818;stroke-width:0.6;" x1="1193.1" x2="1268.7" y1="788.6273" y2="788.6273"/><text fill="#000000" font-family="sans-serif" font-size="7.8" font-weight="bold" lengthAdjust="spacing" textLength="8.4" x="1197.3" y="785.4697">33</text><text fill="#000000" font-family="sans-serif" font-size="7.8" lengthAdjust="spacing" textLength="48" x="1208.1" y="785.4697">add(taskDTO)</text><polygon fill="#181818" points="652.8,824.202,646.8,826.602,652.8,829.002,650.4,826.602" style="stroke:#181818;stroke-width:0.6;"/><line style="stroke:#181818;stroke-width:0.6;stroke-dasharray:2.0,2.0;" x1="649.2" x2="1189.5" y1="826.602" y2="826.602"/><text fill="#000000" font-family="sans-serif" font-size="7.8" font-weight="bold" lengthAdjust="spacing" textLength="8.4" x="656.4" y="823.4443">34</text><text fill="#000000" font-family="sans-serif" font-size="7.8" lengthAdjust="spacing" textLength="43.2" x="667.2" y="823.4443">taskListDTO</text><polygon fill="#181818" points="292.8,842.9766,286.8,845.3766,292.8,847.7766,290.4,845.3766" style="stroke:#181818;stroke-width:0.6;"/><line style="stroke:#181818;stroke-width:0.6;stroke-dasharray:2.0,2.0;" x1="289.2" x2="639.6" y1="845.3766" y2="845.3766"/><text fill="#000000" font-family="sans-serif" font-size="7.8" font-weight="bold" lengthAdjust="spacing" textLength="8.4" x="296.4" y="842.2189">35</text><text fill="#000000" font-family="sans-serif" font-size="7.8" lengthAdjust="spacing" textLength="43.2" x="307.2" y="842.2189">taskListDTO</text><polygon fill="#181818" points="34.8,861.7512,28.8,864.1512,34.8,866.5512,32.4,864.1512" style="stroke:#181818;stroke-width:0.6;"/><line style="stroke:#181818;stroke-width:0.6;stroke-dasharray:2.0,2.0;" x1="31.2" x2="282.6" y1="864.1512" y2="864.1512"/><text fill="#000000" font-family="sans-serif" font-size="7.8" font-weight="bold" lengthAdjust="spacing" textLength="8.4" x="38.4" y="860.9936">36</text><text fill="#000000" font-family="sans-serif" font-size="7.8" lengthAdjust="spacing" textLength="142.2" x="49.2" y="860.9936">shows tasks assigned to the collaborator</text><!--SRC=[jLV1Rjim3BtxAuXUcWxjFg270Lsx3GKIR6YpMo-Ap2H27ScJb6K1-l6ZPDUMBCLDCqoNE9Bu-4HI96MUXQoPPXlOAAduMgiDWjLRB4otKZF-p5RuQFSLWaPkcLnLuGQpPgNQ2Rc29QiC5WNRMYMtcmNgeZXVYn9XgPHTg3y5urPfEBjLLSKMIZFwTmRCmCtTh20mAxYecRHmTdshfDbMTixCi_bvxpVzl1_PGzzM4omsWBVpX-bWzmFMoWZIAD3uFTt4_b6u8n7fM4G74ayo1VWnlPd74ZmuM2Uz9zdmnBtUXkf3Z67fEFsMwoSvZoQypFncA8Hi4mj54utGbuocgJ2sMHtOootCM5st1ftEyh9ty- -jE7sbMxfbjreu_ulVpA9tU07je3zmzOdy2zVWV0bM0Mzy2tPD0UadcJ5Y9R5qgpIxWGNQ7Q84krDG4gZvs4DsYYXeYdC81ccv8cLEvpM5ywyj6ckSF8E9nYLgb1mleKJ3jQYjKF8IGCYbqXjMmPECLopojHISLgBfSakUzbzS6NjHX0JEkKR7p8VeaDadF_tX0t5hjaKxkbDvsMWfFzm-1ve9TTAmGdil3TrdZfEB8z3IqH7AtQMJ4Dt8iRrgJUDyrb_3arIK-1zelrhQ_thJXbV-AoNMHwG0Ll94Ix_Vzvb1yGtgD-eqzeuUtz12UBBJK52MfuT7Q-lUsFoV-GGXyG_cxNZvJFQVMVNPeWctEE4FekoDqxq6hojeHw15YBu8XiiU9F1EN9gA_FaIbDYMHs6CUYunLrHK3r_Au-CYOyGZTOpRSyoqaOBYpIWQmnuO_9t8iNNw6XkNs21X1xAkH2Uj057OrpYKoihajFgEGIn1MDYfRLL29PxHTGvBKLbAW7rRiTW3bK2xJMl90OePgYW8JnCxZZMTb5hS4dab9F6V20cS6GIrRDUPxoyCLjHAcrRtoFroglqu5CbXDdRNTX9EH5deedWZgbz3c3h5FWryteU0xq9t7MStwq07QI4N3P5CcWMAGy4tTj7DLwMZGxXpURXBc2hgtkuSp59ewcVfAvmqI9resSm-MkrUEOdByaJSg9IgwV6ZWSYkVS0TpBtKqlU4F- -z9pkQ8_7XdWAZfTK1EtpgAb-RIaf5wPQkmGgTwgrN7BWLJdMHEykKRg1LrF9F4gm3TMawYv6ciuOpOHocdLeNt6rBw6UHlQs7YCrYJzzXleEn0uuPfm21_KOEJHciB2Vj2-eYTN0i-FBoakQdbb1GAjhtMd4idxGaP172l6lMQcVo3xQq8HeasE2lUnx-1G00]--></g></svg>