<?xml version="1.0" encoding="us-ascii" standalone="no"?><svg xmlns="http://www.w3.org/2000/svg" xmlns:xlink="http://www.w3.org/1999/xlink" contentStyleType="text/css" height="948px" preserveAspectRatio="none" style="width:2370px;height:948px;background:#FFFFFF;" version="1.1" viewBox="0 0 2370 948" width="2370px" zoomAndPan="magnify"><defs/><g><!--class ApplicationSession--><g id="elem_ApplicationSession"><rect codeLine="11" fill="#F1F1F1" height="85.2422" id="ApplicationSession" rx="2.5" ry="2.5" style="stroke:#181818;stroke-width:0.5;" width="151" x="1953.5" y="385"/><ellipse cx="1968.5" cy="401" fill="#ADD1B2" rx="11" ry="11" style="stroke:#181818;stroke-width:1.0;"/><path d="M1971.2656,396.875 Q1971.4219,396.6563 1971.6094,396.5469 Q1971.7969,396.4375 1972.0156,396.4375 Q1972.3906,396.4375 1972.625,396.7031 Q1972.8594,396.9531 1972.8594,397.5625 L1972.8594,399.0156 Q1972.8594,399.625 1972.625,399.8906 Q1972.3906,400.1563 1972.0156,400.1563 Q1971.6719,400.1563 1971.4688,399.9531 Q1971.2656,399.7656 1971.1563,399.25 Q1971.1094,398.8906 1970.9219,398.7031 Q1970.5938,398.3281 1969.9844,398.1094 Q1969.375,397.8906 1968.75,397.8906 Q1967.9844,397.8906 1967.3438,398.2188 Q1966.7188,398.5469 1966.2188,399.2969 Q1965.7344,400.0469 1965.7344,401.0781 L1965.7344,402.1719 Q1965.7344,403.4063 1966.625,404.2344 Q1967.5156,405.0469 1969.1094,405.0469 Q1970.0469,405.0469 1970.7031,404.7969 Q1971.0938,404.6406 1971.5156,404.2031 Q1971.7813,403.9375 1971.9219,403.8594 Q1972.0781,403.7813 1972.2813,403.7813 Q1972.6094,403.7813 1972.8594,404.0469 Q1973.125,404.2969 1973.125,404.6406 Q1973.125,404.9844 1972.7813,405.3906 Q1972.2813,405.9688 1971.4844,406.2969 Q1970.4063,406.75 1969.1094,406.75 Q1967.5938,406.75 1966.3906,406.125 Q1965.4063,405.625 1964.7188,404.5625 Q1964.0313,403.4844 1964.0313,402.2031 L1964.0313,401.0469 Q1964.0313,399.7188 1964.6406,398.5781 Q1965.2656,397.4219 1966.3594,396.8125 Q1967.4531,396.1875 1968.6875,396.1875 Q1969.4219,396.1875 1970.0625,396.3594 Q1970.7188,396.5156 1971.2656,396.875 Z " fill="#000000"/><text fill="#000000" font-family="sans-serif" font-size="14" lengthAdjust="spacing" textLength="119" x="1982.5" y="406.7969">ApplicationSession</text><line style="stroke:#181818;stroke-width:0.5;" x1="1954.5" x2="2103.5" y1="417" y2="417"/><line style="stroke:#181818;stroke-width:0.5;" x1="1954.5" x2="2103.5" y1="425" y2="425"/><text fill="#000000" font-family="sans-serif" font-size="14" lengthAdjust="spacing" textLength="128" x="1959.5" y="444.1074">+static getInstance()</text><text fill="#000000" font-family="sans-serif" font-size="14" lengthAdjust="spacing" textLength="136" x="1959.5" y="462.7285">+getCurrentSession()</text></g><!--class UserSession--><g id="elem_UserSession"><rect codeLine="17" fill="#F1F1F1" height="66.6211" id="UserSession" rx="2.5" ry="2.5" style="stroke:#181818;stroke-width:0.5;" width="113" x="1890.5" y="726"/><ellipse cx="1906.4" cy="742" fill="#ADD1B2" rx="11" ry="11" style="stroke:#181818;stroke-width:1.0;"/><path d="M1909.1656,737.875 Q1909.3219,737.6563 1909.5094,737.5469 Q1909.6969,737.4375 1909.9156,737.4375 Q1910.2906,737.4375 1910.525,737.7031 Q1910.7594,737.9531 1910.7594,738.5625 L1910.7594,740.0156 Q1910.7594,740.625 1910.525,740.8906 Q1910.2906,741.1563 1909.9156,741.1563 Q1909.5719,741.1563 1909.3688,740.9531 Q1909.1656,740.7656 1909.0563,740.25 Q1909.0094,739.8906 1908.8219,739.7031 Q1908.4938,739.3281 1907.8844,739.1094 Q1907.275,738.8906 1906.65,738.8906 Q1905.8844,738.8906 1905.2438,739.2188 Q1904.6188,739.5469 1904.1188,740.2969 Q1903.6344,741.0469 1903.6344,742.0781 L1903.6344,743.1719 Q1903.6344,744.4063 1904.525,745.2344 Q1905.4156,746.0469 1907.0094,746.0469 Q1907.9469,746.0469 1908.6031,745.7969 Q1908.9938,745.6406 1909.4156,745.2031 Q1909.6813,744.9375 1909.8219,744.8594 Q1909.9781,744.7813 1910.1813,744.7813 Q1910.5094,744.7813 1910.7594,745.0469 Q1911.025,745.2969 1911.025,745.6406 Q1911.025,745.9844 1910.6813,746.3906 Q1910.1813,746.9688 1909.3844,747.2969 Q1908.3063,747.75 1907.0094,747.75 Q1905.4938,747.75 1904.2906,747.125 Q1903.3063,746.625 1902.6188,745.5625 Q1901.9313,744.4844 1901.9313,743.2031 L1901.9313,742.0469 Q1901.9313,740.7188 1902.5406,739.5781 Q1903.1656,738.4219 1904.2594,737.8125 Q1905.3531,737.1875 1906.5875,737.1875 Q1907.3219,737.1875 1907.9625,737.3594 Q1908.6188,737.5156 1909.1656,737.875 Z " fill="#000000"/><text fill="#000000" font-family="sans-serif" font-size="14" lengthAdjust="spacing" textLength="79" x="1920.6" y="747.7969">UserSession</text><line style="stroke:#181818;stroke-width:0.5;" x1="1891.5" x2="2002.5" y1="758" y2="758"/><line style="stroke:#181818;stroke-width:0.5;" x1="1891.5" x2="2002.5" y1="766" y2="766"/><text fill="#000000" font-family="sans-serif" font-size="14" lengthAdjust="spacing" textLength="101" x="1896.5" y="785.1074">+getUserEmail()</text></g><!--class Collaborator--><g id="elem_Collaborator"><rect codeLine="22" fill="#F1F1F1" height="234.2109" id="Collaborator" rx="2.5" ry="2.5" style="stroke:#181818;stroke-width:0.5;" width="157" x="664.5" y="25.5"/><ellipse cx="700.65" cy="41.5" fill="#ADD1B2" rx="11" ry="11" style="stroke:#181818;stroke-width:1.0;"/><path d="M703.4156,37.375 Q703.5719,37.1563 703.7594,37.0469 Q703.9469,36.9375 704.1656,36.9375 Q704.5406,36.9375 704.775,37.2031 Q705.0094,37.4531 705.0094,38.0625 L705.0094,39.5156 Q705.0094,40.125 704.775,40.3906 Q704.5406,40.6563 704.1656,40.6563 Q703.8219,40.6563 703.6188,40.4531 Q703.4156,40.2656 703.3063,39.75 Q703.2594,39.3906 703.0719,39.2031 Q702.7438,38.8281 702.1344,38.6094 Q701.525,38.3906 700.9,38.3906 Q700.1344,38.3906 699.4938,38.7188 Q698.8688,39.0469 698.3688,39.7969 Q697.8844,40.5469 697.8844,41.5781 L697.8844,42.6719 Q697.8844,43.9063 698.775,44.7344 Q699.6656,45.5469 701.2594,45.5469 Q702.1969,45.5469 702.8531,45.2969 Q703.2438,45.1406 703.6656,44.7031 Q703.9313,44.4375 704.0719,44.3594 Q704.2281,44.2813 704.4313,44.2813 Q704.7594,44.2813 705.0094,44.5469 Q705.275,44.7969 705.275,45.1406 Q705.275,45.4844 704.9313,45.8906 Q704.4313,46.4688 703.6344,46.7969 Q702.5563,47.25 701.2594,47.25 Q699.7438,47.25 698.5406,46.625 Q697.5563,46.125 696.8688,45.0625 Q696.1813,43.9844 696.1813,42.7031 L696.1813,41.5469 Q696.1813,40.2188 696.7906,39.0781 Q697.4156,37.9219 698.5094,37.3125 Q699.6031,36.6875 700.8375,36.6875 Q701.5719,36.6875 702.2125,36.8594 Q702.8688,37.0156 703.4156,37.375 Z " fill="#000000"/><text fill="#000000" font-family="sans-serif" font-size="14" lengthAdjust="spacing" textLength="78" x="719.35" y="47.2969">Collaborator</text><line style="stroke:#181818;stroke-width:0.5;" x1="665.5" x2="820.5" y1="57.5" y2="57.5"/><text fill="#000000" font-family="sans-serif" font-size="14" lengthAdjust="spacing" textLength="85" x="670.5" y="76.6074">-name: String</text><text fill="#000000" font-family="sans-serif" font-size="14" lengthAdjust="spacing" textLength="106" x="670.5" y="95.2285">-birthdate: String</text><text fill="#000000" font-family="sans-serif" font-size="14" lengthAdjust="spacing" textLength="145" x="670.5" y="113.8496">-admission date: String</text><text fill="#000000" font-family="sans-serif" font-size="14" lengthAdjust="spacing" textLength="101" x="670.5" y="132.4707">-address: String</text><text fill="#000000" font-family="sans-serif" font-size="14" lengthAdjust="spacing" textLength="122" x="670.5" y="151.0918">-mobile Contact: int</text><text fill="#000000" font-family="sans-serif" font-size="14" lengthAdjust="spacing" textLength="133" x="670.5" y="169.7129">-email contact: String</text><text fill="#000000" font-family="sans-serif" font-size="14" lengthAdjust="spacing" textLength="134" x="670.5" y="188.334">-taxpayer number: int</text><text fill="#000000" font-family="sans-serif" font-size="14" lengthAdjust="spacing" textLength="121" x="670.5" y="206.9551">-ID doc type: String</text><text fill="#000000" font-family="sans-serif" font-size="14" lengthAdjust="spacing" textLength="93" x="670.5" y="225.5762">-ID number: int</text><line style="stroke:#181818;stroke-width:0.5;" x1="665.5" x2="820.5" y1="233.0898" y2="233.0898"/><text fill="#000000" font-family="sans-serif" font-size="14" lengthAdjust="spacing" textLength="90" x="670.5" y="252.1973">+addSkill(skill)</text></g><!--class CollaboratorRepository--><g id="elem_CollaboratorRepository"><rect codeLine="35" fill="#F1F1F1" height="364.5586" id="CollaboratorRepository" rx="2.5" ry="2.5" style="stroke:#181818;stroke-width:0.5;" width="369" x="922.5" y="577"/><ellipse cx="1029.75" cy="593" fill="#ADD1B2" rx="11" ry="11" style="stroke:#181818;stroke-width:1.0;"/><path d="M1032.5156,588.875 Q1032.6719,588.6563 1032.8594,588.5469 Q1033.0469,588.4375 1033.2656,588.4375 Q1033.6406,588.4375 1033.875,588.7031 Q1034.1094,588.9531 1034.1094,589.5625 L1034.1094,591.0156 Q1034.1094,591.625 1033.875,591.8906 Q1033.6406,592.1563 1033.2656,592.1563 Q1032.9219,592.1563 1032.7188,591.9531 Q1032.5156,591.7656 1032.4063,591.25 Q1032.3594,590.8906 1032.1719,590.7031 Q1031.8438,590.3281 1031.2344,590.1094 Q1030.625,589.8906 1030,589.8906 Q1029.2344,589.8906 1028.5938,590.2188 Q1027.9688,590.5469 1027.4688,591.2969 Q1026.9844,592.0469 1026.9844,593.0781 L1026.9844,594.1719 Q1026.9844,595.4063 1027.875,596.2344 Q1028.7656,597.0469 1030.3594,597.0469 Q1031.2969,597.0469 1031.9531,596.7969 Q1032.3438,596.6406 1032.7656,596.2031 Q1033.0313,595.9375 1033.1719,595.8594 Q1033.3281,595.7813 1033.5313,595.7813 Q1033.8594,595.7813 1034.1094,596.0469 Q1034.375,596.2969 1034.375,596.6406 Q1034.375,596.9844 1034.0313,597.3906 Q1033.5313,597.9688 1032.7344,598.2969 Q1031.6563,598.75 1030.3594,598.75 Q1028.8438,598.75 1027.6406,598.125 Q1026.6563,597.625 1025.9688,596.5625 Q1025.2813,595.4844 1025.2813,594.2031 L1025.2813,593.0469 Q1025.2813,591.7188 1025.8906,590.5781 Q1026.5156,589.4219 1027.6094,588.8125 Q1028.7031,588.1875 1029.9375,588.1875 Q1030.6719,588.1875 1031.3125,588.3594 Q1031.9688,588.5156 1032.5156,588.875 Z " fill="#000000"/><text fill="#000000" font-family="sans-serif" font-size="14" lengthAdjust="spacing" textLength="146" x="1050.25" y="598.7969">CollaboratorRepository</text><line style="stroke:#181818;stroke-width:0.5;" x1="923.5" x2="1290.5" y1="609" y2="609"/><text fill="#000000" font-family="sans-serif" font-size="14" lengthAdjust="spacing" textLength="207" x="928.5" y="628.1074">-List&lt;Collaborator&gt; collaborators</text><line style="stroke:#181818;stroke-width:0.5;" x1="923.5" x2="1290.5" y1="635.6211" y2="635.6211"/><text fill="#000000" font-family="sans-serif" font-size="14" lengthAdjust="spacing" textLength="350" x="928.5" y="654.7285">+Optional&lt;Collaborator&gt; add(Collaborator collaborator)</text><text fill="#000000" font-family="sans-serif" font-size="14" lengthAdjust="spacing" textLength="307" x="928.5" y="673.3496">+Collaborator getCollaboratorByID(int IDnumber)</text><text fill="#000000" font-family="sans-serif" font-size="14" lengthAdjust="spacing" textLength="258" x="928.5" y="691.9707">+List&lt;Collaborator&gt; getCollaboratorList()</text><text fill="#000000" font-family="sans-serif" font-size="14" lengthAdjust="spacing" textLength="277" x="928.5" y="710.5918">+addCollaborator(Collaborator collaborator)</text><text fill="#000000" font-family="sans-serif" font-size="14" lengthAdjust="spacing" textLength="290" x="928.5" y="729.2129">+Optional&lt;Collaborator&gt; registerCollaborator(</text><text fill="#000000" font-family="sans-serif" font-size="14" lengthAdjust="spacing" textLength="84" x="928.5" y="747.834">name: String,</text><text fill="#000000" font-family="sans-serif" font-size="14" lengthAdjust="spacing" textLength="105" x="928.5" y="766.4551">birthdate: String,</text><text fill="#000000" font-family="sans-serif" font-size="14" lengthAdjust="spacing" textLength="140" x="928.5" y="785.0762">admissiondate: String,</text><text fill="#000000" font-family="sans-serif" font-size="14" lengthAdjust="spacing" textLength="100" x="928.5" y="803.6973">address: String,</text><text fill="#000000" font-family="sans-serif" font-size="14" lengthAdjust="spacing" textLength="68" x="928.5" y="822.3184">mobile: int,</text><text fill="#000000" font-family="sans-serif" font-size="14" lengthAdjust="spacing" textLength="82" x="928.5" y="840.9395">email: String,</text><text fill="#000000" font-family="sans-serif" font-size="14" lengthAdjust="spacing" textLength="81" x="928.5" y="859.5605">taxpayer: int,</text><text fill="#000000" font-family="sans-serif" font-size="14" lengthAdjust="spacing" textLength="112" x="928.5" y="878.1816">IDdoctype: String,</text><text fill="#000000" font-family="sans-serif" font-size="14" lengthAdjust="spacing" textLength="89" x="928.5" y="896.8027">IDnumber: int)</text><text fill="#000000" font-family="sans-serif" font-size="14" lengthAdjust="spacing" textLength="357" x="928.5" y="915.4238">+boolean validateCollaborator(Collaborator collaborator)</text><text fill="#000000" font-family="sans-serif" font-size="14" lengthAdjust="spacing" textLength="327" x="928.5" y="934.0449">+void updateCollaborator(Collaborator collaborator)</text></g><!--class Repositories--><g id="elem_Repositories"><rect codeLine="46" fill="#F1F1F1" height="141.1055" id="Repositories" rx="2.5" ry="2.5" style="stroke:#181818;stroke-width:0.5;" width="378" x="918" y="357"/><ellipse cx="1063.25" cy="373" fill="#ADD1B2" rx="11" ry="11" style="stroke:#181818;stroke-width:1.0;"/><path d="M1066.0156,368.875 Q1066.1719,368.6563 1066.3594,368.5469 Q1066.5469,368.4375 1066.7656,368.4375 Q1067.1406,368.4375 1067.375,368.7031 Q1067.6094,368.9531 1067.6094,369.5625 L1067.6094,371.0156 Q1067.6094,371.625 1067.375,371.8906 Q1067.1406,372.1563 1066.7656,372.1563 Q1066.4219,372.1563 1066.2188,371.9531 Q1066.0156,371.7656 1065.9063,371.25 Q1065.8594,370.8906 1065.6719,370.7031 Q1065.3438,370.3281 1064.7344,370.1094 Q1064.125,369.8906 1063.5,369.8906 Q1062.7344,369.8906 1062.0938,370.2188 Q1061.4688,370.5469 1060.9688,371.2969 Q1060.4844,372.0469 1060.4844,373.0781 L1060.4844,374.1719 Q1060.4844,375.4063 1061.375,376.2344 Q1062.2656,377.0469 1063.8594,377.0469 Q1064.7969,377.0469 1065.4531,376.7969 Q1065.8438,376.6406 1066.2656,376.2031 Q1066.5313,375.9375 1066.6719,375.8594 Q1066.8281,375.7813 1067.0313,375.7813 Q1067.3594,375.7813 1067.6094,376.0469 Q1067.875,376.2969 1067.875,376.6406 Q1067.875,376.9844 1067.5313,377.3906 Q1067.0313,377.9688 1066.2344,378.2969 Q1065.1563,378.75 1063.8594,378.75 Q1062.3438,378.75 1061.1406,378.125 Q1060.1563,377.625 1059.4688,376.5625 Q1058.7813,375.4844 1058.7813,374.2031 L1058.7813,373.0469 Q1058.7813,371.7188 1059.3906,370.5781 Q1060.0156,369.4219 1061.1094,368.8125 Q1062.2031,368.1875 1063.4375,368.1875 Q1064.1719,368.1875 1064.8125,368.3594 Q1065.4688,368.5156 1066.0156,368.875 Z " fill="#000000"/><text fill="#000000" font-family="sans-serif" font-size="14" lengthAdjust="spacing" textLength="79" x="1083.75" y="378.7969">Repositories</text><line style="stroke:#181818;stroke-width:0.5;" x1="919" x2="1295" y1="389" y2="389"/><line style="stroke:#181818;stroke-width:0.5;" x1="919" x2="1295" y1="397" y2="397"/><text fill="#000000" font-family="sans-serif" font-size="14" lengthAdjust="spacing" textLength="182" x="924" y="416.1074">+getInstance() : Repositories</text><text fill="#000000" font-family="sans-serif" font-size="14" lengthAdjust="spacing" textLength="342" x="924" y="434.7285">+getCollaboratorRepository() : CollaboratorRepository</text><text fill="#000000" font-family="sans-serif" font-size="14" lengthAdjust="spacing" textLength="258" x="924" y="453.3496">+getTeamRepository() : TeamRepository</text><text fill="#000000" font-family="sans-serif" font-size="14" lengthAdjust="spacing" textLength="248" x="924" y="471.9707">+getTaskRepository() : TaskRepository</text><text fill="#000000" font-family="sans-serif" font-size="14" lengthAdjust="spacing" textLength="366" x="924" y="490.5918">+getAuthenticationRepository() : AuthenticationRepository</text></g><!--class ConsultTasksController--><g id="elem_ConsultTasksController"><rect codeLine="54" fill="#F1F1F1" height="271.4531" id="ConsultTasksController" rx="2.5" ry="2.5" style="stroke:#181818;stroke-width:0.5;" width="1218" x="1145" y="7"/><ellipse cx="1675.75" cy="23" fill="#ADD1B2" rx="11" ry="11" style="stroke:#181818;stroke-width:1.0;"/><path d="M1678.5156,18.875 Q1678.6719,18.6563 1678.8594,18.5469 Q1679.0469,18.4375 1679.2656,18.4375 Q1679.6406,18.4375 1679.875,18.7031 Q1680.1094,18.9531 1680.1094,19.5625 L1680.1094,21.0156 Q1680.1094,21.625 1679.875,21.8906 Q1679.6406,22.1563 1679.2656,22.1563 Q1678.9219,22.1563 1678.7188,21.9531 Q1678.5156,21.7656 1678.4063,21.25 Q1678.3594,20.8906 1678.1719,20.7031 Q1677.8438,20.3281 1677.2344,20.1094 Q1676.625,19.8906 1676,19.8906 Q1675.2344,19.8906 1674.5938,20.2188 Q1673.9688,20.5469 1673.4688,21.2969 Q1672.9844,22.0469 1672.9844,23.0781 L1672.9844,24.1719 Q1672.9844,25.4063 1673.875,26.2344 Q1674.7656,27.0469 1676.3594,27.0469 Q1677.2969,27.0469 1677.9531,26.7969 Q1678.3438,26.6406 1678.7656,26.2031 Q1679.0313,25.9375 1679.1719,25.8594 Q1679.3281,25.7813 1679.5313,25.7813 Q1679.8594,25.7813 1680.1094,26.0469 Q1680.375,26.2969 1680.375,26.6406 Q1680.375,26.9844 1680.0313,27.3906 Q1679.5313,27.9688 1678.7344,28.2969 Q1677.6563,28.75 1676.3594,28.75 Q1674.8438,28.75 1673.6406,28.125 Q1672.6563,27.625 1671.9688,26.5625 Q1671.2813,25.4844 1671.2813,24.2031 L1671.2813,23.0469 Q1671.2813,21.7188 1671.8906,20.5781 Q1672.5156,19.4219 1673.6094,18.8125 Q1674.7031,18.1875 1675.9375,18.1875 Q1676.6719,18.1875 1677.3125,18.3594 Q1677.9688,18.5156 1678.5156,18.875 Z " fill="#000000"/><text fill="#000000" font-family="sans-serif" font-size="14" lengthAdjust="spacing" textLength="148" x="1696.25" y="28.7969">ConsultTasksController</text><line style="stroke:#181818;stroke-width:0.5;" x1="1146" x2="2362" y1="39" y2="39"/><text fill="#000000" font-family="sans-serif" font-size="14" lengthAdjust="spacing" textLength="216" x="1151" y="58.1074">-teamRepository: TeamRepository</text><text fill="#000000" font-family="sans-serif" font-size="14" lengthAdjust="spacing" textLength="302" x="1151" y="76.7285">-collaboratorRepository: CollaboratorRepository</text><text fill="#000000" font-family="sans-serif" font-size="14" lengthAdjust="spacing" textLength="206" x="1151" y="95.3496">-taskRepository: TaskRepository</text><text fill="#000000" font-family="sans-serif" font-size="14" lengthAdjust="spacing" textLength="328" x="1151" y="113.9707">-authenticationRepository: AuthenticationRepository</text><line style="stroke:#181818;stroke-width:0.5;" x1="1146" x2="2362" y1="121.4844" y2="121.4844"/><text fill="#000000" font-family="sans-serif" font-size="14" lengthAdjust="spacing" textLength="1206" x="1151" y="140.5918">+ConsultTasksController(TeamRepository teamRepository, CollaboratorRepository collaboratorRepository, TaskRepository taskRepository, AuthenticationRepository authenticationRepository)</text><text fill="#000000" font-family="sans-serif" font-size="14" lengthAdjust="spacing" textLength="250" x="1151" y="159.2129">+TeamRepository getTeamRepository()</text><text fill="#000000" font-family="sans-serif" font-size="14" lengthAdjust="spacing" textLength="334" x="1151" y="177.834">+CollaboratorRepository getCollaboratorRepository()</text><text fill="#000000" font-family="sans-serif" font-size="14" lengthAdjust="spacing" textLength="240" x="1151" y="196.4551">+TaskRepository getTaskRepository()</text><text fill="#000000" font-family="sans-serif" font-size="14" lengthAdjust="spacing" textLength="358" x="1151" y="215.0762">+AuthenticationRepository getAuthenticationRepository()</text><text fill="#000000" font-family="sans-serif" font-size="14" lengthAdjust="spacing" textLength="688" x="1151" y="233.6973">+List&lt;Task&gt; getTasksForCollaborator(Team team, LocalDate firstDate, LocalDate secondDate, String status)</text><text fill="#000000" font-family="sans-serif" font-size="14" lengthAdjust="spacing" textLength="281" x="1151" y="252.3184">+Collaborator getCollaboratorFromSession()</text><text fill="#000000" font-family="sans-serif" font-size="14" lengthAdjust="spacing" textLength="349" x="1151" y="270.9395">+Team getCollaboratorTeam(Collaborator collaborator)</text></g><!--class ConsultTasksUI--><g id="elem_ConsultTasksUI"><rect codeLine="69" fill="#F1F1F1" height="252.832" id="ConsultTasksUI" rx="2.5" ry="2.5" style="stroke:#181818;stroke-width:0.5;" width="224" x="886" y="16"/><ellipse cx="944.75" cy="32" fill="#ADD1B2" rx="11" ry="11" style="stroke:#181818;stroke-width:1.0;"/><path d="M947.5156,27.875 Q947.6719,27.6563 947.8594,27.5469 Q948.0469,27.4375 948.2656,27.4375 Q948.6406,27.4375 948.875,27.7031 Q949.1094,27.9531 949.1094,28.5625 L949.1094,30.0156 Q949.1094,30.625 948.875,30.8906 Q948.6406,31.1563 948.2656,31.1563 Q947.9219,31.1563 947.7188,30.9531 Q947.5156,30.7656 947.4063,30.25 Q947.3594,29.8906 947.1719,29.7031 Q946.8438,29.3281 946.2344,29.1094 Q945.625,28.8906 945,28.8906 Q944.2344,28.8906 943.5938,29.2188 Q942.9688,29.5469 942.4688,30.2969 Q941.9844,31.0469 941.9844,32.0781 L941.9844,33.1719 Q941.9844,34.4063 942.875,35.2344 Q943.7656,36.0469 945.3594,36.0469 Q946.2969,36.0469 946.9531,35.7969 Q947.3438,35.6406 947.7656,35.2031 Q948.0313,34.9375 948.1719,34.8594 Q948.3281,34.7813 948.5313,34.7813 Q948.8594,34.7813 949.1094,35.0469 Q949.375,35.2969 949.375,35.6406 Q949.375,35.9844 949.0313,36.3906 Q948.5313,36.9688 947.7344,37.2969 Q946.6563,37.75 945.3594,37.75 Q943.8438,37.75 942.6406,37.125 Q941.6563,36.625 940.9688,35.5625 Q940.2813,34.4844 940.2813,33.2031 L940.2813,32.0469 Q940.2813,30.7188 940.8906,29.5781 Q941.5156,28.4219 942.6094,27.8125 Q943.7031,27.1875 944.9375,27.1875 Q945.6719,27.1875 946.3125,27.3594 Q946.9688,27.5156 947.5156,27.875 Z " fill="#000000"/><text fill="#000000" font-family="sans-serif" font-size="14" lengthAdjust="spacing" textLength="98" x="965.25" y="37.7969">ConsultTasksUI</text><line style="stroke:#181818;stroke-width:0.5;" x1="887" x2="1109" y1="48" y2="48"/><text fill="#000000" font-family="sans-serif" font-size="14" lengthAdjust="spacing" textLength="166" x="892" y="67.1074">-collaborator: Collaborator</text><text fill="#000000" font-family="sans-serif" font-size="14" lengthAdjust="spacing" textLength="80" x="892" y="85.7285">-team: Team</text><text fill="#000000" font-family="sans-serif" font-size="14" lengthAdjust="spacing" textLength="130" x="892" y="104.3496">-firstDate: LocalDate</text><text fill="#000000" font-family="sans-serif" font-size="14" lengthAdjust="spacing" textLength="153" x="892" y="122.9707">-secondDate: LocalDate</text><text fill="#000000" font-family="sans-serif" font-size="14" lengthAdjust="spacing" textLength="88" x="892" y="141.5918">-status: String</text><line style="stroke:#181818;stroke-width:0.5;" x1="887" x2="1109" y1="149.1055" y2="149.1055"/><text fill="#000000" font-family="sans-serif" font-size="14" lengthAdjust="spacing" textLength="69" x="892" y="168.2129">+void run()</text><text fill="#000000" font-family="sans-serif" font-size="14" lengthAdjust="spacing" textLength="126" x="892" y="186.834">+void requestData()</text><text fill="#000000" font-family="sans-serif" font-size="14" lengthAdjust="spacing" textLength="119" x="892" y="205.4551">+void submitData()</text><text fill="#000000" font-family="sans-serif" font-size="14" lengthAdjust="spacing" textLength="192" x="892" y="224.0762">+LocalDate requestFirstDate()</text><text fill="#000000" font-family="sans-serif" font-size="14" lengthAdjust="spacing" textLength="212" x="892" y="242.6973">+LocalDate requestSecondDate()</text><text fill="#000000" font-family="sans-serif" font-size="14" lengthAdjust="spacing" textLength="147" x="892" y="261.3184">+String requestStatus()</text></g><!--class Team--><g id="elem_Team"><rect codeLine="83" fill="#F1F1F1" height="159.7266" id="Team" rx="2.5" ry="2.5" style="stroke:#181818;stroke-width:0.5;" width="262" x="303" y="62.5"/><ellipse cx="411.75" cy="78.5" fill="#ADD1B2" rx="11" ry="11" style="stroke:#181818;stroke-width:1.0;"/><path d="M414.5156,74.375 Q414.6719,74.1563 414.8594,74.0469 Q415.0469,73.9375 415.2656,73.9375 Q415.6406,73.9375 415.875,74.2031 Q416.1094,74.4531 416.1094,75.0625 L416.1094,76.5156 Q416.1094,77.125 415.875,77.3906 Q415.6406,77.6563 415.2656,77.6563 Q414.9219,77.6563 414.7188,77.4531 Q414.5156,77.2656 414.4063,76.75 Q414.3594,76.3906 414.1719,76.2031 Q413.8438,75.8281 413.2344,75.6094 Q412.625,75.3906 412,75.3906 Q411.2344,75.3906 410.5938,75.7188 Q409.9688,76.0469 409.4688,76.7969 Q408.9844,77.5469 408.9844,78.5781 L408.9844,79.6719 Q408.9844,80.9063 409.875,81.7344 Q410.7656,82.5469 412.3594,82.5469 Q413.2969,82.5469 413.9531,82.2969 Q414.3438,82.1406 414.7656,81.7031 Q415.0313,81.4375 415.1719,81.3594 Q415.3281,81.2813 415.5313,81.2813 Q415.8594,81.2813 416.1094,81.5469 Q416.375,81.7969 416.375,82.1406 Q416.375,82.4844 416.0313,82.8906 Q415.5313,83.4688 414.7344,83.7969 Q413.6563,84.25 412.3594,84.25 Q410.8438,84.25 409.6406,83.625 Q408.6563,83.125 407.9688,82.0625 Q407.2813,80.9844 407.2813,79.7031 L407.2813,78.5469 Q407.2813,77.2188 407.8906,76.0781 Q408.5156,74.9219 409.6094,74.3125 Q410.7031,73.6875 411.9375,73.6875 Q412.6719,73.6875 413.3125,73.8594 Q413.9688,74.0156 414.5156,74.375 Z " fill="#000000"/><text fill="#000000" font-family="sans-serif" font-size="14" lengthAdjust="spacing" textLength="36" x="432.25" y="84.2969">Team</text><line style="stroke:#181818;stroke-width:0.5;" x1="304" x2="564" y1="94.5" y2="94.5"/><text fill="#000000" font-family="sans-serif" font-size="14" lengthAdjust="spacing" textLength="211" x="309" y="113.6074">-collaborators: List&lt;Collaborator&gt;</text><text fill="#000000" font-family="sans-serif" font-size="14" lengthAdjust="spacing" textLength="72" x="309" y="132.2285">-teamID: int</text><line style="stroke:#181818;stroke-width:0.5;" x1="304" x2="564" y1="139.7422" y2="139.7422"/><text fill="#000000" font-family="sans-serif" font-size="14" lengthAdjust="spacing" textLength="250" x="309" y="158.8496">+boolean addCollaborator(collaborator)</text><text fill="#000000" font-family="sans-serif" font-size="14" lengthAdjust="spacing" textLength="168" x="309" y="177.4707">+boolean equals(Object o)</text><text fill="#000000" font-family="sans-serif" font-size="14" lengthAdjust="spacing" textLength="102" x="309" y="196.0918">+int hashCode()</text><text fill="#000000" font-family="sans-serif" font-size="14" lengthAdjust="spacing" textLength="92" x="309" y="214.7129">+Team clone()</text></g><!--class TaskRepository--><g id="elem_TaskRepository"><rect codeLine="92" fill="#F1F1F1" height="196.9688" id="TaskRepository" rx="2.5" ry="2.5" style="stroke:#181818;stroke-width:0.5;" width="795" x="92.5" y="661"/><ellipse cx="436.25" cy="677" fill="#ADD1B2" rx="11" ry="11" style="stroke:#181818;stroke-width:1.0;"/><path d="M439.0156,672.875 Q439.1719,672.6563 439.3594,672.5469 Q439.5469,672.4375 439.7656,672.4375 Q440.1406,672.4375 440.375,672.7031 Q440.6094,672.9531 440.6094,673.5625 L440.6094,675.0156 Q440.6094,675.625 440.375,675.8906 Q440.1406,676.1563 439.7656,676.1563 Q439.4219,676.1563 439.2188,675.9531 Q439.0156,675.7656 438.9063,675.25 Q438.8594,674.8906 438.6719,674.7031 Q438.3438,674.3281 437.7344,674.1094 Q437.125,673.8906 436.5,673.8906 Q435.7344,673.8906 435.0938,674.2188 Q434.4688,674.5469 433.9688,675.2969 Q433.4844,676.0469 433.4844,677.0781 L433.4844,678.1719 Q433.4844,679.4063 434.375,680.2344 Q435.2656,681.0469 436.8594,681.0469 Q437.7969,681.0469 438.4531,680.7969 Q438.8438,680.6406 439.2656,680.2031 Q439.5313,679.9375 439.6719,679.8594 Q439.8281,679.7813 440.0313,679.7813 Q440.3594,679.7813 440.6094,680.0469 Q440.875,680.2969 440.875,680.6406 Q440.875,680.9844 440.5313,681.3906 Q440.0313,681.9688 439.2344,682.2969 Q438.1563,682.75 436.8594,682.75 Q435.3438,682.75 434.1406,682.125 Q433.1563,681.625 432.4688,680.5625 Q431.7813,679.4844 431.7813,678.2031 L431.7813,677.0469 Q431.7813,675.7188 432.3906,674.5781 Q433.0156,673.4219 434.1094,672.8125 Q435.2031,672.1875 436.4375,672.1875 Q437.1719,672.1875 437.8125,672.3594 Q438.4688,672.5156 439.0156,672.875 Z " fill="#000000"/><text fill="#000000" font-family="sans-serif" font-size="14" lengthAdjust="spacing" textLength="99" x="456.75" y="682.7969">TaskRepository</text><line style="stroke:#181818;stroke-width:0.5;" x1="93.5" x2="886.5" y1="693" y2="693"/><text fill="#000000" font-family="sans-serif" font-size="14" lengthAdjust="spacing" textLength="111" x="98.5" y="712.1074">-List&lt;Task&gt; tasks</text><line style="stroke:#181818;stroke-width:0.5;" x1="93.5" x2="886.5" y1="719.6211" y2="719.6211"/><text fill="#000000" font-family="sans-serif" font-size="14" lengthAdjust="spacing" textLength="783" x="98.5" y="738.7285">+Optional&lt;Task&gt; createTask(String title, String description, String status, LocalDate startDate, String status, String duration)</text><text fill="#000000" font-family="sans-serif" font-size="14" lengthAdjust="spacing" textLength="189" x="98.5" y="757.3496">+boolean addTask(Task task)</text><text fill="#000000" font-family="sans-serif" font-size="14" lengthAdjust="spacing" textLength="214" x="98.5" y="775.9707">+boolean validateTask(Task task)</text><text fill="#000000" font-family="sans-serif" font-size="14" lengthAdjust="spacing" textLength="227" x="98.5" y="794.5918">+Task getTaskByTeam(Team team)</text><text fill="#000000" font-family="sans-serif" font-size="14" lengthAdjust="spacing" textLength="405" x="98.5" y="813.2129">+List&lt;Task&gt; filterTasksByStatus(List&lt;Task&gt; tasks, String status)</text><text fill="#000000" font-family="sans-serif" font-size="14" lengthAdjust="spacing" textLength="221" x="98.5" y="831.834">+void markTaskAsDone(Task task)</text><text fill="#000000" font-family="sans-serif" font-size="14" lengthAdjust="spacing" textLength="174" x="98.5" y="850.4551">+List&lt;Team&gt; getTeamList()</text></g><!--class Task--><g id="elem_Task"><rect codeLine="103" fill="#F1F1F1" height="234.2109" id="Task" rx="2.5" ry="2.5" style="stroke:#181818;stroke-width:0.5;" width="180" x="7" y="25.5"/><ellipse cx="77.25" cy="41.5" fill="#ADD1B2" rx="11" ry="11" style="stroke:#181818;stroke-width:1.0;"/><path d="M80.0156,37.375 Q80.1719,37.1563 80.3594,37.0469 Q80.5469,36.9375 80.7656,36.9375 Q81.1406,36.9375 81.375,37.2031 Q81.6094,37.4531 81.6094,38.0625 L81.6094,39.5156 Q81.6094,40.125 81.375,40.3906 Q81.1406,40.6563 80.7656,40.6563 Q80.4219,40.6563 80.2188,40.4531 Q80.0156,40.2656 79.9063,39.75 Q79.8594,39.3906 79.6719,39.2031 Q79.3438,38.8281 78.7344,38.6094 Q78.125,38.3906 77.5,38.3906 Q76.7344,38.3906 76.0938,38.7188 Q75.4688,39.0469 74.9688,39.7969 Q74.4844,40.5469 74.4844,41.5781 L74.4844,42.6719 Q74.4844,43.9063 75.375,44.7344 Q76.2656,45.5469 77.8594,45.5469 Q78.7969,45.5469 79.4531,45.2969 Q79.8438,45.1406 80.2656,44.7031 Q80.5313,44.4375 80.6719,44.3594 Q80.8281,44.2813 81.0313,44.2813 Q81.3594,44.2813 81.6094,44.5469 Q81.875,44.7969 81.875,45.1406 Q81.875,45.4844 81.5313,45.8906 Q81.0313,46.4688 80.2344,46.7969 Q79.1563,47.25 77.8594,47.25 Q76.3438,47.25 75.1406,46.625 Q74.1563,46.125 73.4688,45.0625 Q72.7813,43.9844 72.7813,42.7031 L72.7813,41.5469 Q72.7813,40.2188 73.3906,39.0781 Q74.0156,37.9219 75.1094,37.3125 Q76.2031,36.6875 77.4375,36.6875 Q78.1719,36.6875 78.8125,36.8594 Q79.4688,37.0156 80.0156,37.375 Z " fill="#000000"/><text fill="#000000" font-family="sans-serif" font-size="14" lengthAdjust="spacing" textLength="31" x="97.75" y="47.2969">Task</text><line style="stroke:#181818;stroke-width:0.5;" x1="8" x2="186" y1="57.5" y2="57.5"/><text fill="#000000" font-family="sans-serif" font-size="14" lengthAdjust="spacing" textLength="72" x="13" y="76.6074">-title: String</text><text fill="#000000" font-family="sans-serif" font-size="14" lengthAdjust="spacing" textLength="119" x="13" y="95.2285">-description: String</text><text fill="#000000" font-family="sans-serif" font-size="14" lengthAdjust="spacing" textLength="88" x="13" y="113.8496">-status: String</text><text fill="#000000" font-family="sans-serif" font-size="14" lengthAdjust="spacing" textLength="101" x="13" y="132.4707">-urgency: String</text><text fill="#000000" font-family="sans-serif" font-size="14" lengthAdjust="spacing" textLength="135" x="13" y="151.0918">-startDate: LocalDate</text><text fill="#000000" font-family="sans-serif" font-size="14" lengthAdjust="spacing" textLength="102" x="13" y="169.7129">-duration: String</text><text fill="#000000" font-family="sans-serif" font-size="14" lengthAdjust="spacing" textLength="153" x="13" y="188.334">-associatedTeam: Team</text><line style="stroke:#181818;stroke-width:0.5;" x1="8" x2="186" y1="195.8477" y2="195.8477"/><text fill="#000000" font-family="sans-serif" font-size="14" lengthAdjust="spacing" textLength="168" x="13" y="214.9551">+boolean equals(Object o)</text><text fill="#000000" font-family="sans-serif" font-size="14" lengthAdjust="spacing" textLength="102" x="13" y="233.5762">+int hashCode()</text><text fill="#000000" font-family="sans-serif" font-size="14" lengthAdjust="spacing" textLength="87" x="13" y="252.1973">+Task clone()</text></g><!--class TeamRepository--><g id="elem_TeamRepository"><rect codeLine="116" fill="#F1F1F1" height="159.7266" id="TeamRepository" rx="2.5" ry="2.5" style="stroke:#181818;stroke-width:0.5;" width="377" x="1326.5" y="679.5"/><ellipse cx="1458.75" cy="695.5" fill="#ADD1B2" rx="11" ry="11" style="stroke:#181818;stroke-width:1.0;"/><path d="M1461.5156,691.375 Q1461.6719,691.1563 1461.8594,691.0469 Q1462.0469,690.9375 1462.2656,690.9375 Q1462.6406,690.9375 1462.875,691.2031 Q1463.1094,691.4531 1463.1094,692.0625 L1463.1094,693.5156 Q1463.1094,694.125 1462.875,694.3906 Q1462.6406,694.6563 1462.2656,694.6563 Q1461.9219,694.6563 1461.7188,694.4531 Q1461.5156,694.2656 1461.4063,693.75 Q1461.3594,693.3906 1461.1719,693.2031 Q1460.8438,692.8281 1460.2344,692.6094 Q1459.625,692.3906 1459,692.3906 Q1458.2344,692.3906 1457.5938,692.7188 Q1456.9688,693.0469 1456.4688,693.7969 Q1455.9844,694.5469 1455.9844,695.5781 L1455.9844,696.6719 Q1455.9844,697.9063 1456.875,698.7344 Q1457.7656,699.5469 1459.3594,699.5469 Q1460.2969,699.5469 1460.9531,699.2969 Q1461.3438,699.1406 1461.7656,698.7031 Q1462.0313,698.4375 1462.1719,698.3594 Q1462.3281,698.2813 1462.5313,698.2813 Q1462.8594,698.2813 1463.1094,698.5469 Q1463.375,698.7969 1463.375,699.1406 Q1463.375,699.4844 1463.0313,699.8906 Q1462.5313,700.4688 1461.7344,700.7969 Q1460.6563,701.25 1459.3594,701.25 Q1457.8438,701.25 1456.6406,700.625 Q1455.6563,700.125 1454.9688,699.0625 Q1454.2813,697.9844 1454.2813,696.7031 L1454.2813,695.5469 Q1454.2813,694.2188 1454.8906,693.0781 Q1455.5156,691.9219 1456.6094,691.3125 Q1457.7031,690.6875 1458.9375,690.6875 Q1459.6719,690.6875 1460.3125,690.8594 Q1460.9688,691.0156 1461.5156,691.375 Z " fill="#000000"/><text fill="#000000" font-family="sans-serif" font-size="14" lengthAdjust="spacing" textLength="104" x="1479.25" y="701.2969">TeamRepository</text><line style="stroke:#181818;stroke-width:0.5;" x1="1327.5" x2="1702.5" y1="711.5" y2="711.5"/><text fill="#000000" font-family="sans-serif" font-size="14" lengthAdjust="spacing" textLength="121" x="1332.5" y="730.6074">-List&lt;Team&gt; teams</text><line style="stroke:#181818;stroke-width:0.5;" x1="1327.5" x2="1702.5" y1="738.1211" y2="738.1211"/><text fill="#000000" font-family="sans-serif" font-size="14" lengthAdjust="spacing" textLength="319" x="1332.5" y="757.2285">+Optional&lt;Team&gt; createTeam(List&lt;Collaborator&gt;)</text><text fill="#000000" font-family="sans-serif" font-size="14" lengthAdjust="spacing" textLength="204" x="1332.5" y="775.8496">+boolean addTeam(Team team)</text><text fill="#000000" font-family="sans-serif" font-size="14" lengthAdjust="spacing" textLength="229" x="1332.5" y="794.4707">+boolean validateTeam(Team team)</text><text fill="#000000" font-family="sans-serif" font-size="14" lengthAdjust="spacing" textLength="365" x="1332.5" y="813.0918">+Team getTeamByCollaborator(Collaborator collaborator)</text><text fill="#000000" font-family="sans-serif" font-size="14" lengthAdjust="spacing" textLength="174" x="1332.5" y="831.7129">+List&lt;Team&gt; getTeamList()</text></g><!--link Task to Team--><g id="link_Task_Team"><path codeLine="125" d="M187.31,142.5 C222.79,142.5 258.22,142.5 296.89,142.5 " fill="none" id="Task-to-Team" style="stroke:#181818;stroke-width:1.0;"/><polygon fill="#181818" points="302.89,142.5,293.89,138.5,297.89,142.5,293.89,146.5,302.89,142.5" style="stroke:#181818;stroke-width:1.0;"/><text fill="#000000" font-family="sans-serif" font-size="13" lengthAdjust="spacing" textLength="79" x="205.5" y="135.5283">assigned with</text></g><!--link Team to Collaborator--><g id="link_Team_Collaborator"><path codeLine="127" d="M565.04,142.5 C598.76,142.5 628.01,142.5 658.15,142.5 " fill="none" id="Team-to-Collaborator" style="stroke:#181818;stroke-width:1.0;"/><polygon fill="#181818" points="664.15,142.5,655.15,138.5,659.15,142.5,655.15,146.5,664.15,142.5" style="stroke:#181818;stroke-width:1.0;"/><text fill="#000000" font-family="sans-serif" font-size="13" lengthAdjust="spacing" textLength="63" x="583.25" y="135.5283">consists of</text></g><!--link Collaborator to ConsultTasksUI--><g id="link_Collaborator_ConsultTasksUI"><path codeLine="129" d="M821.59,142.5 C841.93,142.5 858.23,142.5 879.92,142.5 " fill="none" id="Collaborator-to-ConsultTasksUI" style="stroke:#181818;stroke-width:1.0;"/><polygon fill="#181818" points="885.92,142.5,876.92,138.5,880.92,142.5,876.92,146.5,885.92,142.5" style="stroke:#181818;stroke-width:1.0;"/><text fill="#000000" font-family="sans-serif" font-size="13" lengthAdjust="spacing" textLength="28" x="839.75" y="135.5283">uses</text></g><!--link Repositories to Repositories--><g id="link_Repositories_Repositories"><path codeLine="131" d="M1296.16,410.09 C1317.31,413.37 1331,419.17 1331,427.5 C1331,435.83 1323.2391,440.7105 1302.0891,443.9905 " fill="none" id="Repositories-to-Repositories" style="stroke:#181818;stroke-width:1.0;"/><polygon fill="#181818" points="1296.16,444.91,1305.6667,447.4835,1301.1009,444.1437,1304.4407,439.578,1296.16,444.91" style="stroke:#181818;stroke-width:1.0;"/><text fill="#000000" font-family="sans-serif" font-size="13" lengthAdjust="spacing" textLength="49" x="1337" y="433.0283">instance</text></g><!--link ApplicationSession to ApplicationSession--><g id="link_ApplicationSession_ApplicationSession"><path codeLine="132" d="M2104.66,407.07 C2124.5,408.28 2139.5,415.09 2139.5,427.5 C2139.5,439.91 2130.4889,446.3548 2110.6489,447.5648 " fill="none" id="ApplicationSession-to-ApplicationSession" style="stroke:#181818;stroke-width:1.0;"/><polygon fill="#181818" points="2104.66,447.93,2113.8868,451.3747,2109.6507,447.6256,2113.3998,443.3895,2104.66,447.93" style="stroke:#181818;stroke-width:1.0;"/><text fill="#000000" font-family="sans-serif" font-size="13" lengthAdjust="spacing" textLength="49" x="2145.5" y="433.0283">instance</text></g><!--link ConsultTasksUI to ConsultTasksController--><g id="link_ConsultTasksUI_ConsultTasksController"><path codeLine="134" d="M1110.37,142.5 C1121.78,142.5 1127.35,142.5 1138.69,142.5 " fill="none" id="ConsultTasksUI-to-ConsultTasksController" style="stroke:#181818;stroke-width:1.0;stroke-dasharray:7.0,7.0;"/><polygon fill="#181818" points="1144.69,142.5,1135.69,138.5,1139.69,142.5,1135.69,146.5,1144.69,142.5" style="stroke:#181818;stroke-width:1.0;"/></g><!--link ConsultTasksController to Repositories--><g id="link_ConsultTasksController_Repositories"><path codeLine="136" d="M1446.13,278.16 C1383.75,305.45 1326.0873,330.676 1271.4573,354.566 " fill="none" id="ConsultTasksController-to-Repositories" style="stroke:#181818;stroke-width:1.0;"/><polygon fill="#181818" points="1265.96,356.97,1275.8087,357.0289,1270.5411,354.9667,1272.6033,349.6991,1265.96,356.97" style="stroke:#181818;stroke-width:1.0;"/><text fill="#000000" font-family="sans-serif" font-size="13" lengthAdjust="spacing" textLength="108" x="1373" y="323.0283">retrieves instances</text></g><!--link Repositories to CollaboratorRepository--><g id="link_Repositories_CollaboratorRepository"><path codeLine="138" d="M1107,498.08 C1107,521.53 1107,542.89 1107,570.9 " fill="none" id="Repositories-to-CollaboratorRepository" style="stroke:#181818;stroke-width:1.0;"/><polygon fill="#181818" points="1107,576.9,1111,567.9,1107,571.9,1103,567.9,1107,576.9" style="stroke:#181818;stroke-width:1.0;"/><text fill="#000000" font-family="sans-serif" font-size="13" lengthAdjust="spacing" textLength="56" x="1108" y="543.0283">accesses</text></g><!--link Repositories to TeamRepository--><g id="link_Repositories_TeamRepository"><path codeLine="139" d="M1201.79,498.18 C1254.27,536.77 1309,577 1309,577 C1309,577 1365.2282,626.5434 1420.7382,675.4534 " fill="none" id="Repositories-to-TeamRepository" style="stroke:#181818;stroke-width:1.0;"/><polygon fill="#181818" points="1425.24,679.42,1421.1316,670.4689,1421.4885,676.1145,1415.8429,676.4714,1425.24,679.42" style="stroke:#181818;stroke-width:1.0;"/><text fill="#000000" font-family="sans-serif" font-size="13" lengthAdjust="spacing" textLength="56" x="1266" y="543.0283">accesses</text></g><!--link Repositories to TaskRepository--><g id="link_Repositories_TaskRepository"><path codeLine="140" d="M976.9,498.08 C888.52,545.36 775.6508,605.7204 677.8608,658.0204 " fill="none" id="Repositories-to-TaskRepository" style="stroke:#181818;stroke-width:1.0;"/><polygon fill="#181818" points="672.57,660.85,682.3927,660.1328,676.979,658.492,678.6198,653.0783,672.57,660.85" style="stroke:#181818;stroke-width:1.0;"/><text fill="#000000" font-family="sans-serif" font-size="13" lengthAdjust="spacing" textLength="56" x="908" y="543.0283">accesses</text></g><!--link ConsultTasksController to TeamRepository--><g id="link_ConsultTasksController_TeamRepository"><path codeLine="142" d="M1730.47,278.03 C1712.93,378.31 1692,498 1692,498 C1692,498 1624.2719,597.6771 1572.2019,674.3171 " fill="none" id="ConsultTasksController-to-TeamRepository" style="stroke:#181818;stroke-width:1.0;stroke-dasharray:7.0,7.0;"/><polygon fill="#181818" points="1568.83,679.28,1577.1964,674.0835,1571.6399,675.1442,1570.5792,669.5877,1568.83,679.28" style="stroke:#181818;stroke-width:1.0;"/><text fill="#000000" font-family="sans-serif" font-size="13" lengthAdjust="spacing" textLength="91" x="1716" y="433.0283">teamRepository</text></g><!--link ConsultTasksController to TaskRepository--><g id="link_ConsultTasksController_TaskRepository"><path codeLine="143" d="M1160.42,278.03 C972.17,320.7 812,357 812,357 C812,357 755,498 755,498 C755,498 668.8986,582.6336 593.7086,656.5536 " fill="none" id="ConsultTasksController-to-TaskRepository" style="stroke:#181818;stroke-width:1.0;stroke-dasharray:7.0,7.0;"/><polygon fill="#181818" points="589.43,660.76,598.6522,657.3029,592.9955,657.2547,593.0437,651.5981,589.43,660.76" style="stroke:#181818;stroke-width:1.0;"/><text fill="#000000" font-family="sans-serif" font-size="13" lengthAdjust="spacing" textLength="87" x="813" y="433.0283">taskRepository</text></g><!--link ConsultTasksController to CollaboratorRepository--><g id="link_ConsultTasksController_CollaboratorRepository"><path codeLine="144" d="M1627.27,278.11 C1587.14,320.74 1553,357 1553,357 C1553,357 1491,498 1491,498 C1491,498 1309,577 1309,577 C1309,577 1306.9439,578.8508 1296.2439,588.4608 " fill="none" id="ConsultTasksController-to-CollaboratorRepository" style="stroke:#181818;stroke-width:1.0;stroke-dasharray:7.0,7.0;"/><polygon fill="#181818" points="1291.78,592.47,1301.1487,589.4322,1295.4999,589.129,1295.8031,583.4803,1291.78,592.47" style="stroke:#181818;stroke-width:1.0;"/><text fill="#000000" font-family="sans-serif" font-size="13" lengthAdjust="spacing" textLength="129" x="1554" y="433.0283">collaboratorRepository</text></g><!--link ApplicationSession to UserSession--><g id="link_ApplicationSession_UserSession"><path codeLine="146" d="M2018.61,470.29 C2002.07,536.89 1971.5068,659.887 1956.5368,720.137 " fill="none" id="ApplicationSession-to-UserSession" style="stroke:#181818;stroke-width:1.0;"/><polygon fill="#181818" points="1955.09,725.96,1961.1422,718.1901,1956.2957,721.1075,1953.3782,716.261,1955.09,725.96" style="stroke:#181818;stroke-width:1.0;"/><text fill="#000000" font-family="sans-serif" font-size="13" lengthAdjust="spacing" textLength="72" x="2003" y="543.0283">userSession</text><text fill="#000000" font-family="sans-serif" font-size="13" lengthAdjust="spacing" textLength="7" x="1948.9937" y="714.7776">1</text></g><!--link ConsultTasksController to ApplicationSession--><g id="link_ConsultTasksController_ApplicationSession"><path codeLine="148" d="M1894.85,278.21 C1913.32,295.88 1926,308 1926,308 C1926,308 1959.0937,346.0717 1988.7537,380.1917 " fill="none" id="ConsultTasksController-to-ApplicationSession" style="stroke:#181818;stroke-width:1.0;stroke-dasharray:7.0,7.0;"/><polygon fill="#181818" points="1992.69,384.72,1989.8043,375.3034,1989.4097,380.9464,1983.7666,380.5518,1992.69,384.72" style="stroke:#181818;stroke-width:1.0;"/></g><!--link ConsultTasksController to UserSession--><g id="link_ConsultTasksController_UserSession"><path codeLine="149" d="M1817.68,278.11 C1837.85,320.74 1855,357 1855,357 C1855,357 1916.31,624.5516 1938.21,720.1316 " fill="none" id="ConsultTasksController-to-UserSession" style="stroke:#181818;stroke-width:1.0;stroke-dasharray:7.0,7.0;"/><polygon fill="#181818" points="1939.55,725.98,1941.4389,716.314,1938.4333,721.1063,1933.641,718.1007,1939.55,725.98" style="stroke:#181818;stroke-width:1.0;"/></g><!--link TeamRepository to Team--><g id="link_TeamRepository_Team"><path codeLine="151" d="M1493.71,679.28 C1473.12,602.64 1445,498 1445,498 C1445,498 1423,308 1423,308 C1423,308 647,278 647,278 C647,278 610.5734,254.9932 564.2134,225.7232 " fill="none" id="TeamRepository-to-Team" style="stroke:#181818;stroke-width:1.0;stroke-dasharray:7.0,7.0;"/><polygon fill="#181818" points="559.14,222.52,564.6147,230.707,563.3679,225.1893,568.8856,223.9425,559.14,222.52" style="stroke:#181818;stroke-width:1.0;"/><text fill="#000000" font-family="sans-serif" font-size="13" lengthAdjust="spacing" textLength="36" x="1446" y="433.0283">stores</text></g><!--link TaskRepository to Task--><g id="link_TaskRepository_Task"><path codeLine="152" d="M427.5,660.69 C357.82,551.65 248.4508,380.5059 174.3808,264.5959 " fill="none" id="TaskRepository-to-Task" style="stroke:#181818;stroke-width:1.0;stroke-dasharray:7.0,7.0;"/><polygon fill="#181818" points="171.15,259.54,172.6257,269.2777,173.8424,263.7532,179.3668,264.9699,171.15,259.54" style="stroke:#181818;stroke-width:1.0;"/><text fill="#000000" font-family="sans-serif" font-size="13" lengthAdjust="spacing" textLength="36" x="321" y="433.0283">stores</text></g><!--link CollaboratorRepository to Collaborator--><g id="link_CollaboratorRepository_Collaborator"><path codeLine="153" d="M922.22,592.47 C911.52,582.86 905,577 905,577 C905,577 713,498 713,498 C713,498 713,357 713,357 C713,357 718.8159,315.6417 725.8459,265.5617 " fill="none" id="CollaboratorRepository-to-Collaborator" style="stroke:#181818;stroke-width:1.0;stroke-dasharray:7.0,7.0;"/><polygon fill="#181818" points="726.68,259.62,721.4677,267.9766,725.9849,264.5715,729.3901,269.0887,726.68,259.62" style="stroke:#181818;stroke-width:1.0;"/><text fill="#000000" font-family="sans-serif" font-size="13" lengthAdjust="spacing" textLength="36" x="714" y="433.0283">stores</text></g><!--SRC=[dLZ1RkCs4BthAuYzn46SeBqQXO74RW032onGxzvweILQPasHAabbgoxwxnrIf4HIb8Di3euqyuQS6RuPZdsdhfItME86DOAByY95Gv2M7IacJOlBAwx9KVUC84bAZNdDGe2wu4fyfxn6PynKg66K4zst1BM2zUQbkCieXTIY2AnAXfLwrbhIKwV9eHJyIFybw9UYk6Fah94MIDBweb55ZJjKyAAmDkYvRHajiH4TYL96ywD0yFU0b0PnYMgY3noUUKbMzqu5ibqd9U7Q6O7cFx_aDqLakXOO6F7l3QOinEu4O_Wa9DP2eW7yY3Xko0OT8HfUEz69Idsfi4xbk6getGbbbPK4Fn9f8quKZcKdkCQbtY3AjTCGunqglIAoqlYV5lT48jur9o93iyCULQ94vc0I8z2ay0VZrV5A6LifysbpWUR9-8EqGb5uw8UqFABFLEdVGiWMN9tUL65N_zAQeyGiGSAcgoZNeUdzO1hfpGa7xo_zOR-2622a8I9dat4giJI8bKE35w7gNOyMWf6aXaM9ZDP2V_AGDsjudv7624V6p1KHMunee8ezFFDg-H7gFIb6n64FJ0Y9C0W34hZ8Ja8mWZbwmumQHpwKbZT1AzIr7x8RAsua5YNAKkiXhd2qYI0UaEUcXUTLtl0hmKrY48j685RN51Y9FF2vqnVeFAvh9IPBoh3bSDKnkvqoJK22-sHgFZfoBkEi0PNPa6-aOcWXOJIPw6pFMl3_HcJ8LMykh5NiVXBTUgdbvEDR9oud4QqNNLoCojydYPSPsenHPlszGL2_G-nvXcyEk1Z3JUOvOziEpS9RluDw5N6VCe7POrYZpwB4R0zLZCvKAcsUGg4YS1LLWtJe9lPAxbGk6MaANc4kcUxcASifpiXkDOvisNmxs7A9wo1cV-5hQQWW-pf6kPcYj8efqfd61XnSgwxxoMu8ox-IlpjYryQXM7MdXeRIARdEujMxj0GuZguvX3i9hxR-XHEDJVAFJ9-0AEQtPT1q3ljmIl0NH7fbpgw300ikmJIv-dBw2sOy9BpQNDiNh2uxKP6O2oKJd4JEnrKoX35D7mEpJTKhhmakwK5RIWB9CiyhbofDDPieN15LIcfj4bf7tDTOwWprfsKwQOlmVd8aI9dTtdnOPpCOV-yk0gtCrV1BRwjahDm05gJbJ1dC9BO-Ndh7YpHhsKAUxlG6owj1FwkzEPYSNyEAuCJMTqatO4LdEDrc9lV9L1gSGAAPLPiHTh8clEpdK9cfPRk-Evfq6bTAb1HWrTUmBVmqWKsOSmB75ycCm3PnvWop1BPQHs1pulDwNQ3R4ZrcT5i2-jPi_h_q7vW6tsU5JTJZ5WrPXoJHcfCAVQVw0agpBoXtKIE7bgV0NY5nBefeVmiDBu8DwXHCYKKqLW8gUZUDRPWlY_dtJOFEI0ER8hbxdhOBqqwC38QxH_YspUTUIG849M_mxFUQHU8C5-OEo6S9HYO3MRE4Zk_2u_ORm9S2UthAR18FUJTDqmtZYUwMwM96yhDZaJrvYFdJhv_2NmoG9TJu-y4j3p8_NTn0XxzA54dAV1OtqDO4V0aiahpuL8twXU3Jl8pu_m40]--></g></svg>