<?xml version="1.0" encoding="us-ascii" standalone="no"?><svg xmlns="http://www.w3.org/2000/svg" xmlns:xlink="http://www.w3.org/1999/xlink" contentStyleType="text/css" height="1244px" preserveAspectRatio="none" style="width:2028px;height:1244px;background:#FFFFFF;" version="1.1" viewBox="0 0 2028 1244" width="2028px" zoomAndPan="magnify"><defs/><g><!--class ApplicationSession--><g id="elem_ApplicationSession"><rect codeLine="11" fill="#F1F1F1" height="85.2422" id="ApplicationSession" rx="2.5" ry="2.5" style="stroke:#181818;stroke-width:0.5;" width="151" x="1538.5" y="367"/><ellipse cx="1553.5" cy="383" fill="#ADD1B2" rx="11" ry="11" style="stroke:#181818;stroke-width:1.0;"/><path d="M1556.2656,378.875 Q1556.4219,378.6563 1556.6094,378.5469 Q1556.7969,378.4375 1557.0156,378.4375 Q1557.3906,378.4375 1557.625,378.7031 Q1557.8594,378.9531 1557.8594,379.5625 L1557.8594,381.0156 Q1557.8594,381.625 1557.625,381.8906 Q1557.3906,382.1563 1557.0156,382.1563 Q1556.6719,382.1563 1556.4688,381.9531 Q1556.2656,381.7656 1556.1563,381.25 Q1556.1094,380.8906 1555.9219,380.7031 Q1555.5938,380.3281 1554.9844,380.1094 Q1554.375,379.8906 1553.75,379.8906 Q1552.9844,379.8906 1552.3438,380.2188 Q1551.7188,380.5469 1551.2188,381.2969 Q1550.7344,382.0469 1550.7344,383.0781 L1550.7344,384.1719 Q1550.7344,385.4063 1551.625,386.2344 Q1552.5156,387.0469 1554.1094,387.0469 Q1555.0469,387.0469 1555.7031,386.7969 Q1556.0938,386.6406 1556.5156,386.2031 Q1556.7813,385.9375 1556.9219,385.8594 Q1557.0781,385.7813 1557.2813,385.7813 Q1557.6094,385.7813 1557.8594,386.0469 Q1558.125,386.2969 1558.125,386.6406 Q1558.125,386.9844 1557.7813,387.3906 Q1557.2813,387.9688 1556.4844,388.2969 Q1555.4063,388.75 1554.1094,388.75 Q1552.5938,388.75 1551.3906,388.125 Q1550.4063,387.625 1549.7188,386.5625 Q1549.0313,385.4844 1549.0313,384.2031 L1549.0313,383.0469 Q1549.0313,381.7188 1549.6406,380.5781 Q1550.2656,379.4219 1551.3594,378.8125 Q1552.4531,378.1875 1553.6875,378.1875 Q1554.4219,378.1875 1555.0625,378.3594 Q1555.7188,378.5156 1556.2656,378.875 Z " fill="#000000"/><text fill="#000000" font-family="sans-serif" font-size="14" lengthAdjust="spacing" textLength="119" x="1567.5" y="388.7969">ApplicationSession</text><line style="stroke:#181818;stroke-width:0.5;" x1="1539.5" x2="1688.5" y1="399" y2="399"/><line style="stroke:#181818;stroke-width:0.5;" x1="1539.5" x2="1688.5" y1="407" y2="407"/><text fill="#000000" font-family="sans-serif" font-size="14" lengthAdjust="spacing" textLength="128" x="1544.5" y="426.1074">+static getInstance()</text><text fill="#000000" font-family="sans-serif" font-size="14" lengthAdjust="spacing" textLength="136" x="1544.5" y="444.7285">+getCurrentSession()</text></g><!--class UserSession--><g id="elem_UserSession"><rect codeLine="17" fill="#F1F1F1" height="66.6211" id="UserSession" rx="2.5" ry="2.5" style="stroke:#181818;stroke-width:0.5;" width="113" x="1768.5" y="708"/><ellipse cx="1784.4" cy="724" fill="#ADD1B2" rx="11" ry="11" style="stroke:#181818;stroke-width:1.0;"/><path d="M1787.1656,719.875 Q1787.3219,719.6563 1787.5094,719.5469 Q1787.6969,719.4375 1787.9156,719.4375 Q1788.2906,719.4375 1788.525,719.7031 Q1788.7594,719.9531 1788.7594,720.5625 L1788.7594,722.0156 Q1788.7594,722.625 1788.525,722.8906 Q1788.2906,723.1563 1787.9156,723.1563 Q1787.5719,723.1563 1787.3688,722.9531 Q1787.1656,722.7656 1787.0563,722.25 Q1787.0094,721.8906 1786.8219,721.7031 Q1786.4938,721.3281 1785.8844,721.1094 Q1785.275,720.8906 1784.65,720.8906 Q1783.8844,720.8906 1783.2438,721.2188 Q1782.6188,721.5469 1782.1188,722.2969 Q1781.6344,723.0469 1781.6344,724.0781 L1781.6344,725.1719 Q1781.6344,726.4063 1782.525,727.2344 Q1783.4156,728.0469 1785.0094,728.0469 Q1785.9469,728.0469 1786.6031,727.7969 Q1786.9938,727.6406 1787.4156,727.2031 Q1787.6813,726.9375 1787.8219,726.8594 Q1787.9781,726.7813 1788.1813,726.7813 Q1788.5094,726.7813 1788.7594,727.0469 Q1789.025,727.2969 1789.025,727.6406 Q1789.025,727.9844 1788.6813,728.3906 Q1788.1813,728.9688 1787.3844,729.2969 Q1786.3063,729.75 1785.0094,729.75 Q1783.4938,729.75 1782.2906,729.125 Q1781.3063,728.625 1780.6188,727.5625 Q1779.9313,726.4844 1779.9313,725.2031 L1779.9313,724.0469 Q1779.9313,722.7188 1780.5406,721.5781 Q1781.1656,720.4219 1782.2594,719.8125 Q1783.3531,719.1875 1784.5875,719.1875 Q1785.3219,719.1875 1785.9625,719.3594 Q1786.6188,719.5156 1787.1656,719.875 Z " fill="#000000"/><text fill="#000000" font-family="sans-serif" font-size="14" lengthAdjust="spacing" textLength="79" x="1798.6" y="729.7969">UserSession</text><line style="stroke:#181818;stroke-width:0.5;" x1="1769.5" x2="1880.5" y1="740" y2="740"/><line style="stroke:#181818;stroke-width:0.5;" x1="1769.5" x2="1880.5" y1="748" y2="748"/><text fill="#000000" font-family="sans-serif" font-size="14" lengthAdjust="spacing" textLength="101" x="1774.5" y="767.1074">+getUserEmail()</text></g><!--class Collaborator--><g id="elem_Collaborator"><rect codeLine="22" fill="#F1F1F1" height="234.2109" id="Collaborator" rx="2.5" ry="2.5" style="stroke:#181818;stroke-width:0.5;" width="157" x="368.5" y="16.5"/><ellipse cx="404.65" cy="32.5" fill="#ADD1B2" rx="11" ry="11" style="stroke:#181818;stroke-width:1.0;"/><path d="M407.4156,28.375 Q407.5719,28.1563 407.7594,28.0469 Q407.9469,27.9375 408.1656,27.9375 Q408.5406,27.9375 408.775,28.2031 Q409.0094,28.4531 409.0094,29.0625 L409.0094,30.5156 Q409.0094,31.125 408.775,31.3906 Q408.5406,31.6563 408.1656,31.6563 Q407.8219,31.6563 407.6188,31.4531 Q407.4156,31.2656 407.3063,30.75 Q407.2594,30.3906 407.0719,30.2031 Q406.7438,29.8281 406.1344,29.6094 Q405.525,29.3906 404.9,29.3906 Q404.1344,29.3906 403.4938,29.7188 Q402.8688,30.0469 402.3688,30.7969 Q401.8844,31.5469 401.8844,32.5781 L401.8844,33.6719 Q401.8844,34.9063 402.775,35.7344 Q403.6656,36.5469 405.2594,36.5469 Q406.1969,36.5469 406.8531,36.2969 Q407.2438,36.1406 407.6656,35.7031 Q407.9313,35.4375 408.0719,35.3594 Q408.2281,35.2813 408.4313,35.2813 Q408.7594,35.2813 409.0094,35.5469 Q409.275,35.7969 409.275,36.1406 Q409.275,36.4844 408.9313,36.8906 Q408.4313,37.4688 407.6344,37.7969 Q406.5563,38.25 405.2594,38.25 Q403.7438,38.25 402.5406,37.625 Q401.5563,37.125 400.8688,36.0625 Q400.1813,34.9844 400.1813,33.7031 L400.1813,32.5469 Q400.1813,31.2188 400.7906,30.0781 Q401.4156,28.9219 402.5094,28.3125 Q403.6031,27.6875 404.8375,27.6875 Q405.5719,27.6875 406.2125,27.8594 Q406.8688,28.0156 407.4156,28.375 Z " fill="#000000"/><text fill="#000000" font-family="sans-serif" font-size="14" lengthAdjust="spacing" textLength="78" x="423.35" y="38.2969">Collaborator</text><line style="stroke:#181818;stroke-width:0.5;" x1="369.5" x2="524.5" y1="48.5" y2="48.5"/><text fill="#000000" font-family="sans-serif" font-size="14" lengthAdjust="spacing" textLength="85" x="374.5" y="67.6074">-name: String</text><text fill="#000000" font-family="sans-serif" font-size="14" lengthAdjust="spacing" textLength="106" x="374.5" y="86.2285">-birthdate: String</text><text fill="#000000" font-family="sans-serif" font-size="14" lengthAdjust="spacing" textLength="145" x="374.5" y="104.8496">-admission date: String</text><text fill="#000000" font-family="sans-serif" font-size="14" lengthAdjust="spacing" textLength="101" x="374.5" y="123.4707">-address: String</text><text fill="#000000" font-family="sans-serif" font-size="14" lengthAdjust="spacing" textLength="122" x="374.5" y="142.0918">-mobile Contact: int</text><text fill="#000000" font-family="sans-serif" font-size="14" lengthAdjust="spacing" textLength="133" x="374.5" y="160.7129">-email contact: String</text><text fill="#000000" font-family="sans-serif" font-size="14" lengthAdjust="spacing" textLength="134" x="374.5" y="179.334">-taxpayer number: int</text><text fill="#000000" font-family="sans-serif" font-size="14" lengthAdjust="spacing" textLength="121" x="374.5" y="197.9551">-ID doc type: String</text><text fill="#000000" font-family="sans-serif" font-size="14" lengthAdjust="spacing" textLength="93" x="374.5" y="216.5762">-ID number: int</text><line style="stroke:#181818;stroke-width:0.5;" x1="369.5" x2="524.5" y1="224.0898" y2="224.0898"/><text fill="#000000" font-family="sans-serif" font-size="14" lengthAdjust="spacing" textLength="90" x="374.5" y="243.1973">+addSkill(skill)</text></g><!--class CollaboratorRepository--><g id="elem_CollaboratorRepository"><rect codeLine="35" fill="#F1F1F1" height="364.5586" id="CollaboratorRepository" rx="2.5" ry="2.5" style="stroke:#181818;stroke-width:0.5;" width="369" x="534.5" y="559"/><ellipse cx="641.75" cy="575" fill="#ADD1B2" rx="11" ry="11" style="stroke:#181818;stroke-width:1.0;"/><path d="M644.5156,570.875 Q644.6719,570.6563 644.8594,570.5469 Q645.0469,570.4375 645.2656,570.4375 Q645.6406,570.4375 645.875,570.7031 Q646.1094,570.9531 646.1094,571.5625 L646.1094,573.0156 Q646.1094,573.625 645.875,573.8906 Q645.6406,574.1563 645.2656,574.1563 Q644.9219,574.1563 644.7188,573.9531 Q644.5156,573.7656 644.4063,573.25 Q644.3594,572.8906 644.1719,572.7031 Q643.8438,572.3281 643.2344,572.1094 Q642.625,571.8906 642,571.8906 Q641.2344,571.8906 640.5938,572.2188 Q639.9688,572.5469 639.4688,573.2969 Q638.9844,574.0469 638.9844,575.0781 L638.9844,576.1719 Q638.9844,577.4063 639.875,578.2344 Q640.7656,579.0469 642.3594,579.0469 Q643.2969,579.0469 643.9531,578.7969 Q644.3438,578.6406 644.7656,578.2031 Q645.0313,577.9375 645.1719,577.8594 Q645.3281,577.7813 645.5313,577.7813 Q645.8594,577.7813 646.1094,578.0469 Q646.375,578.2969 646.375,578.6406 Q646.375,578.9844 646.0313,579.3906 Q645.5313,579.9688 644.7344,580.2969 Q643.6563,580.75 642.3594,580.75 Q640.8438,580.75 639.6406,580.125 Q638.6563,579.625 637.9688,578.5625 Q637.2813,577.4844 637.2813,576.2031 L637.2813,575.0469 Q637.2813,573.7188 637.8906,572.5781 Q638.5156,571.4219 639.6094,570.8125 Q640.7031,570.1875 641.9375,570.1875 Q642.6719,570.1875 643.3125,570.3594 Q643.9688,570.5156 644.5156,570.875 Z " fill="#000000"/><text fill="#000000" font-family="sans-serif" font-size="14" lengthAdjust="spacing" textLength="146" x="662.25" y="580.7969">CollaboratorRepository</text><line style="stroke:#181818;stroke-width:0.5;" x1="535.5" x2="902.5" y1="591" y2="591"/><text fill="#000000" font-family="sans-serif" font-size="14" lengthAdjust="spacing" textLength="207" x="540.5" y="610.1074">-List&lt;Collaborator&gt; collaborators</text><line style="stroke:#181818;stroke-width:0.5;" x1="535.5" x2="902.5" y1="617.6211" y2="617.6211"/><text fill="#000000" font-family="sans-serif" font-size="14" lengthAdjust="spacing" textLength="350" x="540.5" y="636.7285">+Optional&lt;Collaborator&gt; add(Collaborator collaborator)</text><text fill="#000000" font-family="sans-serif" font-size="14" lengthAdjust="spacing" textLength="307" x="540.5" y="655.3496">+Collaborator getCollaboratorByID(int IDnumber)</text><text fill="#000000" font-family="sans-serif" font-size="14" lengthAdjust="spacing" textLength="258" x="540.5" y="673.9707">+List&lt;Collaborator&gt; getCollaboratorList()</text><text fill="#000000" font-family="sans-serif" font-size="14" lengthAdjust="spacing" textLength="277" x="540.5" y="692.5918">+addCollaborator(Collaborator collaborator)</text><text fill="#000000" font-family="sans-serif" font-size="14" lengthAdjust="spacing" textLength="290" x="540.5" y="711.2129">+Optional&lt;Collaborator&gt; registerCollaborator(</text><text fill="#000000" font-family="sans-serif" font-size="14" lengthAdjust="spacing" textLength="84" x="540.5" y="729.834">name: String,</text><text fill="#000000" font-family="sans-serif" font-size="14" lengthAdjust="spacing" textLength="105" x="540.5" y="748.4551">birthdate: String,</text><text fill="#000000" font-family="sans-serif" font-size="14" lengthAdjust="spacing" textLength="140" x="540.5" y="767.0762">admissiondate: String,</text><text fill="#000000" font-family="sans-serif" font-size="14" lengthAdjust="spacing" textLength="100" x="540.5" y="785.6973">address: String,</text><text fill="#000000" font-family="sans-serif" font-size="14" lengthAdjust="spacing" textLength="68" x="540.5" y="804.3184">mobile: int,</text><text fill="#000000" font-family="sans-serif" font-size="14" lengthAdjust="spacing" textLength="82" x="540.5" y="822.9395">email: String,</text><text fill="#000000" font-family="sans-serif" font-size="14" lengthAdjust="spacing" textLength="81" x="540.5" y="841.5605">taxpayer: int,</text><text fill="#000000" font-family="sans-serif" font-size="14" lengthAdjust="spacing" textLength="112" x="540.5" y="860.1816">IDdoctype: String,</text><text fill="#000000" font-family="sans-serif" font-size="14" lengthAdjust="spacing" textLength="89" x="540.5" y="878.8027">IDnumber: int)</text><text fill="#000000" font-family="sans-serif" font-size="14" lengthAdjust="spacing" textLength="357" x="540.5" y="897.4238">+boolean validateCollaborator(Collaborator collaborator)</text><text fill="#000000" font-family="sans-serif" font-size="14" lengthAdjust="spacing" textLength="327" x="540.5" y="916.0449">+void updateCollaborator(Collaborator collaborator)</text></g><!--class Repositories--><g id="elem_Repositories"><rect codeLine="46" fill="#F1F1F1" height="141.1055" id="Repositories" rx="2.5" ry="2.5" style="stroke:#181818;stroke-width:0.5;" width="378" x="885" y="339"/><ellipse cx="1030.25" cy="355" fill="#ADD1B2" rx="11" ry="11" style="stroke:#181818;stroke-width:1.0;"/><path d="M1033.0156,350.875 Q1033.1719,350.6563 1033.3594,350.5469 Q1033.5469,350.4375 1033.7656,350.4375 Q1034.1406,350.4375 1034.375,350.7031 Q1034.6094,350.9531 1034.6094,351.5625 L1034.6094,353.0156 Q1034.6094,353.625 1034.375,353.8906 Q1034.1406,354.1563 1033.7656,354.1563 Q1033.4219,354.1563 1033.2188,353.9531 Q1033.0156,353.7656 1032.9063,353.25 Q1032.8594,352.8906 1032.6719,352.7031 Q1032.3438,352.3281 1031.7344,352.1094 Q1031.125,351.8906 1030.5,351.8906 Q1029.7344,351.8906 1029.0938,352.2188 Q1028.4688,352.5469 1027.9688,353.2969 Q1027.4844,354.0469 1027.4844,355.0781 L1027.4844,356.1719 Q1027.4844,357.4063 1028.375,358.2344 Q1029.2656,359.0469 1030.8594,359.0469 Q1031.7969,359.0469 1032.4531,358.7969 Q1032.8438,358.6406 1033.2656,358.2031 Q1033.5313,357.9375 1033.6719,357.8594 Q1033.8281,357.7813 1034.0313,357.7813 Q1034.3594,357.7813 1034.6094,358.0469 Q1034.875,358.2969 1034.875,358.6406 Q1034.875,358.9844 1034.5313,359.3906 Q1034.0313,359.9688 1033.2344,360.2969 Q1032.1563,360.75 1030.8594,360.75 Q1029.3438,360.75 1028.1406,360.125 Q1027.1563,359.625 1026.4688,358.5625 Q1025.7813,357.4844 1025.7813,356.2031 L1025.7813,355.0469 Q1025.7813,353.7188 1026.3906,352.5781 Q1027.0156,351.4219 1028.1094,350.8125 Q1029.2031,350.1875 1030.4375,350.1875 Q1031.1719,350.1875 1031.8125,350.3594 Q1032.4688,350.5156 1033.0156,350.875 Z " fill="#000000"/><text fill="#000000" font-family="sans-serif" font-size="14" lengthAdjust="spacing" textLength="79" x="1050.75" y="360.7969">Repositories</text><line style="stroke:#181818;stroke-width:0.5;" x1="886" x2="1262" y1="371" y2="371"/><line style="stroke:#181818;stroke-width:0.5;" x1="886" x2="1262" y1="379" y2="379"/><text fill="#000000" font-family="sans-serif" font-size="14" lengthAdjust="spacing" textLength="182" x="891" y="398.1074">+getInstance() : Repositories</text><text fill="#000000" font-family="sans-serif" font-size="14" lengthAdjust="spacing" textLength="342" x="891" y="416.7285">+getCollaboratorRepository() : CollaboratorRepository</text><text fill="#000000" font-family="sans-serif" font-size="14" lengthAdjust="spacing" textLength="258" x="891" y="435.3496">+getTeamRepository() : TeamRepository</text><text fill="#000000" font-family="sans-serif" font-size="14" lengthAdjust="spacing" textLength="248" x="891" y="453.9707">+getTaskRepository() : TaskRepository</text><text fill="#000000" font-family="sans-serif" font-size="14" lengthAdjust="spacing" textLength="366" x="891" y="472.5918">+getAuthenticationRepository() : AuthenticationRepository</text></g><!--class ConsultTasksController--><g id="elem_ConsultTasksController"><rect codeLine="54" fill="#F1F1F1" height="252.832" id="ConsultTasksController" rx="2.5" ry="2.5" style="stroke:#181818;stroke-width:0.5;" width="1218" x="803" y="7"/><ellipse cx="1333.75" cy="23" fill="#ADD1B2" rx="11" ry="11" style="stroke:#181818;stroke-width:1.0;"/><path d="M1336.5156,18.875 Q1336.6719,18.6563 1336.8594,18.5469 Q1337.0469,18.4375 1337.2656,18.4375 Q1337.6406,18.4375 1337.875,18.7031 Q1338.1094,18.9531 1338.1094,19.5625 L1338.1094,21.0156 Q1338.1094,21.625 1337.875,21.8906 Q1337.6406,22.1563 1337.2656,22.1563 Q1336.9219,22.1563 1336.7188,21.9531 Q1336.5156,21.7656 1336.4063,21.25 Q1336.3594,20.8906 1336.1719,20.7031 Q1335.8438,20.3281 1335.2344,20.1094 Q1334.625,19.8906 1334,19.8906 Q1333.2344,19.8906 1332.5938,20.2188 Q1331.9688,20.5469 1331.4688,21.2969 Q1330.9844,22.0469 1330.9844,23.0781 L1330.9844,24.1719 Q1330.9844,25.4063 1331.875,26.2344 Q1332.7656,27.0469 1334.3594,27.0469 Q1335.2969,27.0469 1335.9531,26.7969 Q1336.3438,26.6406 1336.7656,26.2031 Q1337.0313,25.9375 1337.1719,25.8594 Q1337.3281,25.7813 1337.5313,25.7813 Q1337.8594,25.7813 1338.1094,26.0469 Q1338.375,26.2969 1338.375,26.6406 Q1338.375,26.9844 1338.0313,27.3906 Q1337.5313,27.9688 1336.7344,28.2969 Q1335.6563,28.75 1334.3594,28.75 Q1332.8438,28.75 1331.6406,28.125 Q1330.6563,27.625 1329.9688,26.5625 Q1329.2813,25.4844 1329.2813,24.2031 L1329.2813,23.0469 Q1329.2813,21.7188 1329.8906,20.5781 Q1330.5156,19.4219 1331.6094,18.8125 Q1332.7031,18.1875 1333.9375,18.1875 Q1334.6719,18.1875 1335.3125,18.3594 Q1335.9688,18.5156 1336.5156,18.875 Z " fill="#000000"/><text fill="#000000" font-family="sans-serif" font-size="14" lengthAdjust="spacing" textLength="148" x="1354.25" y="28.7969">ConsultTasksController</text><line style="stroke:#181818;stroke-width:0.5;" x1="804" x2="2020" y1="39" y2="39"/><text fill="#000000" font-family="sans-serif" font-size="14" lengthAdjust="spacing" textLength="216" x="809" y="58.1074">-teamRepository: TeamRepository</text><text fill="#000000" font-family="sans-serif" font-size="14" lengthAdjust="spacing" textLength="302" x="809" y="76.7285">-collaboratorRepository: CollaboratorRepository</text><text fill="#000000" font-family="sans-serif" font-size="14" lengthAdjust="spacing" textLength="206" x="809" y="95.3496">-taskRepository: TaskRepository</text><text fill="#000000" font-family="sans-serif" font-size="14" lengthAdjust="spacing" textLength="328" x="809" y="113.9707">-authenticationRepository: AuthenticationRepository</text><line style="stroke:#181818;stroke-width:0.5;" x1="804" x2="2020" y1="121.4844" y2="121.4844"/><text fill="#000000" font-family="sans-serif" font-size="14" lengthAdjust="spacing" textLength="1206" x="809" y="140.5918">+ConsultTasksController(TeamRepository teamRepository, CollaboratorRepository collaboratorRepository, TaskRepository taskRepository, AuthenticationRepository authenticationRepository)</text><text fill="#000000" font-family="sans-serif" font-size="14" lengthAdjust="spacing" textLength="250" x="809" y="159.2129">+TeamRepository getTeamRepository()</text><text fill="#000000" font-family="sans-serif" font-size="14" lengthAdjust="spacing" textLength="334" x="809" y="177.834">+CollaboratorRepository getCollaboratorRepository()</text><text fill="#000000" font-family="sans-serif" font-size="14" lengthAdjust="spacing" textLength="240" x="809" y="196.4551">+TaskRepository getTaskRepository()</text><text fill="#000000" font-family="sans-serif" font-size="14" lengthAdjust="spacing" textLength="358" x="809" y="215.0762">+AuthenticationRepository getAuthenticationRepository()</text><text fill="#000000" font-family="sans-serif" font-size="14" lengthAdjust="spacing" textLength="400" x="809" y="233.6973">+List&lt;Task&gt; getTasksByCollaborator(Collaborator collaborator)</text><text fill="#000000" font-family="sans-serif" font-size="14" lengthAdjust="spacing" textLength="281" x="809" y="252.3184">+Collaborator getCollaboratorFromSession()</text></g><!--class ConsultTasksUI--><g id="elem_ConsultTasksUI"><rect codeLine="68" fill="#F1F1F1" height="103.8633" id="ConsultTasksUI" rx="2.5" ry="2.5" style="stroke:#181818;stroke-width:0.5;" width="178" x="590" y="81.5"/><ellipse cx="626.6" cy="97.5" fill="#ADD1B2" rx="11" ry="11" style="stroke:#181818;stroke-width:1.0;"/><path d="M629.3656,93.375 Q629.5219,93.1563 629.7094,93.0469 Q629.8969,92.9375 630.1156,92.9375 Q630.4906,92.9375 630.725,93.2031 Q630.9594,93.4531 630.9594,94.0625 L630.9594,95.5156 Q630.9594,96.125 630.725,96.3906 Q630.4906,96.6563 630.1156,96.6563 Q629.7719,96.6563 629.5688,96.4531 Q629.3656,96.2656 629.2563,95.75 Q629.2094,95.3906 629.0219,95.2031 Q628.6938,94.8281 628.0844,94.6094 Q627.475,94.3906 626.85,94.3906 Q626.0844,94.3906 625.4438,94.7188 Q624.8188,95.0469 624.3188,95.7969 Q623.8344,96.5469 623.8344,97.5781 L623.8344,98.6719 Q623.8344,99.9063 624.725,100.7344 Q625.6156,101.5469 627.2094,101.5469 Q628.1469,101.5469 628.8031,101.2969 Q629.1938,101.1406 629.6156,100.7031 Q629.8813,100.4375 630.0219,100.3594 Q630.1781,100.2813 630.3813,100.2813 Q630.7094,100.2813 630.9594,100.5469 Q631.225,100.7969 631.225,101.1406 Q631.225,101.4844 630.8813,101.8906 Q630.3813,102.4688 629.5844,102.7969 Q628.5063,103.25 627.2094,103.25 Q625.6938,103.25 624.4906,102.625 Q623.5063,102.125 622.8188,101.0625 Q622.1313,99.9844 622.1313,98.7031 L622.1313,97.5469 Q622.1313,96.2188 622.7406,95.0781 Q623.3656,93.9219 624.4594,93.3125 Q625.5531,92.6875 626.7875,92.6875 Q627.5219,92.6875 628.1625,92.8594 Q628.8188,93.0156 629.3656,93.375 Z " fill="#000000"/><text fill="#000000" font-family="sans-serif" font-size="14" lengthAdjust="spacing" textLength="98" x="645.4" y="103.2969">ConsultTasksUI</text><line style="stroke:#181818;stroke-width:0.5;" x1="591" x2="767" y1="113.5" y2="113.5"/><text fill="#000000" font-family="sans-serif" font-size="14" lengthAdjust="spacing" textLength="166" x="596" y="132.6074">-collaborator: Collaborator</text><text fill="#000000" font-family="sans-serif" font-size="14" lengthAdjust="spacing" textLength="80" x="596" y="151.2285">-team: Team</text><line style="stroke:#181818;stroke-width:0.5;" x1="591" x2="767" y1="158.7422" y2="158.7422"/><text fill="#000000" font-family="sans-serif" font-size="14" lengthAdjust="spacing" textLength="69" x="596" y="177.8496">+void run()</text></g><!--class Team--><g id="elem_Team"><rect codeLine="74" fill="#F1F1F1" height="159.7266" id="Team" rx="2.5" ry="2.5" style="stroke:#181818;stroke-width:0.5;" width="262" x="7" y="53.5"/><ellipse cx="115.75" cy="69.5" fill="#ADD1B2" rx="11" ry="11" style="stroke:#181818;stroke-width:1.0;"/><path d="M118.5156,65.375 Q118.6719,65.1563 118.8594,65.0469 Q119.0469,64.9375 119.2656,64.9375 Q119.6406,64.9375 119.875,65.2031 Q120.1094,65.4531 120.1094,66.0625 L120.1094,67.5156 Q120.1094,68.125 119.875,68.3906 Q119.6406,68.6563 119.2656,68.6563 Q118.9219,68.6563 118.7188,68.4531 Q118.5156,68.2656 118.4063,67.75 Q118.3594,67.3906 118.1719,67.2031 Q117.8438,66.8281 117.2344,66.6094 Q116.625,66.3906 116,66.3906 Q115.2344,66.3906 114.5938,66.7188 Q113.9688,67.0469 113.4688,67.7969 Q112.9844,68.5469 112.9844,69.5781 L112.9844,70.6719 Q112.9844,71.9063 113.875,72.7344 Q114.7656,73.5469 116.3594,73.5469 Q117.2969,73.5469 117.9531,73.2969 Q118.3438,73.1406 118.7656,72.7031 Q119.0313,72.4375 119.1719,72.3594 Q119.3281,72.2813 119.5313,72.2813 Q119.8594,72.2813 120.1094,72.5469 Q120.375,72.7969 120.375,73.1406 Q120.375,73.4844 120.0313,73.8906 Q119.5313,74.4688 118.7344,74.7969 Q117.6563,75.25 116.3594,75.25 Q114.8438,75.25 113.6406,74.625 Q112.6563,74.125 111.9688,73.0625 Q111.2813,71.9844 111.2813,70.7031 L111.2813,69.5469 Q111.2813,68.2188 111.8906,67.0781 Q112.5156,65.9219 113.6094,65.3125 Q114.7031,64.6875 115.9375,64.6875 Q116.6719,64.6875 117.3125,64.8594 Q117.9688,65.0156 118.5156,65.375 Z " fill="#000000"/><text fill="#000000" font-family="sans-serif" font-size="14" lengthAdjust="spacing" textLength="36" x="136.25" y="75.2969">Team</text><line style="stroke:#181818;stroke-width:0.5;" x1="8" x2="268" y1="85.5" y2="85.5"/><text fill="#000000" font-family="sans-serif" font-size="14" lengthAdjust="spacing" textLength="211" x="13" y="104.6074">-collaborators: List&lt;Collaborator&gt;</text><text fill="#000000" font-family="sans-serif" font-size="14" lengthAdjust="spacing" textLength="72" x="13" y="123.2285">-teamID: int</text><line style="stroke:#181818;stroke-width:0.5;" x1="8" x2="268" y1="130.7422" y2="130.7422"/><text fill="#000000" font-family="sans-serif" font-size="14" lengthAdjust="spacing" textLength="250" x="13" y="149.8496">+boolean addCollaborator(collaborator)</text><text fill="#000000" font-family="sans-serif" font-size="14" lengthAdjust="spacing" textLength="168" x="13" y="168.4707">+boolean equals(Object o)</text><text fill="#000000" font-family="sans-serif" font-size="14" lengthAdjust="spacing" textLength="102" x="13" y="187.0918">+int hashCode()</text><text fill="#000000" font-family="sans-serif" font-size="14" lengthAdjust="spacing" textLength="92" x="13" y="205.7129">+Team clone()</text></g><!--class TaskRepository--><g id="elem_TaskRepository"><rect codeLine="83" fill="#F1F1F1" height="159.7266" id="TaskRepository" rx="2.5" ry="2.5" style="stroke:#181818;stroke-width:0.5;" width="795" x="938.5" y="661.5"/><ellipse cx="1282.25" cy="677.5" fill="#ADD1B2" rx="11" ry="11" style="stroke:#181818;stroke-width:1.0;"/><path d="M1285.0156,673.375 Q1285.1719,673.1563 1285.3594,673.0469 Q1285.5469,672.9375 1285.7656,672.9375 Q1286.1406,672.9375 1286.375,673.2031 Q1286.6094,673.4531 1286.6094,674.0625 L1286.6094,675.5156 Q1286.6094,676.125 1286.375,676.3906 Q1286.1406,676.6563 1285.7656,676.6563 Q1285.4219,676.6563 1285.2188,676.4531 Q1285.0156,676.2656 1284.9063,675.75 Q1284.8594,675.3906 1284.6719,675.2031 Q1284.3438,674.8281 1283.7344,674.6094 Q1283.125,674.3906 1282.5,674.3906 Q1281.7344,674.3906 1281.0938,674.7188 Q1280.4688,675.0469 1279.9688,675.7969 Q1279.4844,676.5469 1279.4844,677.5781 L1279.4844,678.6719 Q1279.4844,679.9063 1280.375,680.7344 Q1281.2656,681.5469 1282.8594,681.5469 Q1283.7969,681.5469 1284.4531,681.2969 Q1284.8438,681.1406 1285.2656,680.7031 Q1285.5313,680.4375 1285.6719,680.3594 Q1285.8281,680.2813 1286.0313,680.2813 Q1286.3594,680.2813 1286.6094,680.5469 Q1286.875,680.7969 1286.875,681.1406 Q1286.875,681.4844 1286.5313,681.8906 Q1286.0313,682.4688 1285.2344,682.7969 Q1284.1563,683.25 1282.8594,683.25 Q1281.3438,683.25 1280.1406,682.625 Q1279.1563,682.125 1278.4688,681.0625 Q1277.7813,679.9844 1277.7813,678.7031 L1277.7813,677.5469 Q1277.7813,676.2188 1278.3906,675.0781 Q1279.0156,673.9219 1280.1094,673.3125 Q1281.2031,672.6875 1282.4375,672.6875 Q1283.1719,672.6875 1283.8125,672.8594 Q1284.4688,673.0156 1285.0156,673.375 Z " fill="#000000"/><text fill="#000000" font-family="sans-serif" font-size="14" lengthAdjust="spacing" textLength="99" x="1302.75" y="683.2969">TaskRepository</text><line style="stroke:#181818;stroke-width:0.5;" x1="939.5" x2="1732.5" y1="693.5" y2="693.5"/><text fill="#000000" font-family="sans-serif" font-size="14" lengthAdjust="spacing" textLength="111" x="944.5" y="712.6074">-List&lt;Task&gt; tasks</text><line style="stroke:#181818;stroke-width:0.5;" x1="939.5" x2="1732.5" y1="720.1211" y2="720.1211"/><text fill="#000000" font-family="sans-serif" font-size="14" lengthAdjust="spacing" textLength="783" x="944.5" y="739.2285">+Optional&lt;Task&gt; createTask(String title, String description, String status, LocalDate startDate, String status, String duration)</text><text fill="#000000" font-family="sans-serif" font-size="14" lengthAdjust="spacing" textLength="189" x="944.5" y="757.8496">+boolean addTask(Task task)</text><text fill="#000000" font-family="sans-serif" font-size="14" lengthAdjust="spacing" textLength="219" x="944.5" y="776.4707">+boolean validateTeam(Task task)</text><text fill="#000000" font-family="sans-serif" font-size="14" lengthAdjust="spacing" textLength="210" x="944.5" y="795.0918">+Task getTaskByTitle(String title)</text><text fill="#000000" font-family="sans-serif" font-size="14" lengthAdjust="spacing" textLength="174" x="944.5" y="813.7129">+List&lt;Team&gt; getTeamList()</text></g><!--class Task--><g id="elem_Task"><rect codeLine="92" fill="#F1F1F1" height="234.2109" id="Task" rx="2.5" ry="2.5" style="stroke:#181818;stroke-width:0.5;" width="180" x="8" y="1003"/><ellipse cx="78.25" cy="1019" fill="#ADD1B2" rx="11" ry="11" style="stroke:#181818;stroke-width:1.0;"/><path d="M81.0156,1014.875 Q81.1719,1014.6563 81.3594,1014.5469 Q81.5469,1014.4375 81.7656,1014.4375 Q82.1406,1014.4375 82.375,1014.7031 Q82.6094,1014.9531 82.6094,1015.5625 L82.6094,1017.0156 Q82.6094,1017.625 82.375,1017.8906 Q82.1406,1018.1563 81.7656,1018.1563 Q81.4219,1018.1563 81.2188,1017.9531 Q81.0156,1017.7656 80.9063,1017.25 Q80.8594,1016.8906 80.6719,1016.7031 Q80.3438,1016.3281 79.7344,1016.1094 Q79.125,1015.8906 78.5,1015.8906 Q77.7344,1015.8906 77.0938,1016.2188 Q76.4688,1016.5469 75.9688,1017.2969 Q75.4844,1018.0469 75.4844,1019.0781 L75.4844,1020.1719 Q75.4844,1021.4063 76.375,1022.2344 Q77.2656,1023.0469 78.8594,1023.0469 Q79.7969,1023.0469 80.4531,1022.7969 Q80.8438,1022.6406 81.2656,1022.2031 Q81.5313,1021.9375 81.6719,1021.8594 Q81.8281,1021.7813 82.0313,1021.7813 Q82.3594,1021.7813 82.6094,1022.0469 Q82.875,1022.2969 82.875,1022.6406 Q82.875,1022.9844 82.5313,1023.3906 Q82.0313,1023.9688 81.2344,1024.2969 Q80.1563,1024.75 78.8594,1024.75 Q77.3438,1024.75 76.1406,1024.125 Q75.1563,1023.625 74.4688,1022.5625 Q73.7813,1021.4844 73.7813,1020.2031 L73.7813,1019.0469 Q73.7813,1017.7188 74.3906,1016.5781 Q75.0156,1015.4219 76.1094,1014.8125 Q77.2031,1014.1875 78.4375,1014.1875 Q79.1719,1014.1875 79.8125,1014.3594 Q80.4688,1014.5156 81.0156,1014.875 Z " fill="#000000"/><text fill="#000000" font-family="sans-serif" font-size="14" lengthAdjust="spacing" textLength="31" x="98.75" y="1024.7969">Task</text><line style="stroke:#181818;stroke-width:0.5;" x1="9" x2="187" y1="1035" y2="1035"/><text fill="#000000" font-family="sans-serif" font-size="14" lengthAdjust="spacing" textLength="72" x="14" y="1054.1074">-title: String</text><text fill="#000000" font-family="sans-serif" font-size="14" lengthAdjust="spacing" textLength="119" x="14" y="1072.7285">-description: String</text><text fill="#000000" font-family="sans-serif" font-size="14" lengthAdjust="spacing" textLength="88" x="14" y="1091.3496">-status: String</text><text fill="#000000" font-family="sans-serif" font-size="14" lengthAdjust="spacing" textLength="135" x="14" y="1109.9707">-startDate: LocalDate</text><text fill="#000000" font-family="sans-serif" font-size="14" lengthAdjust="spacing" textLength="102" x="14" y="1128.5918">-duration: String</text><text fill="#000000" font-family="sans-serif" font-size="14" lengthAdjust="spacing" textLength="153" x="14" y="1147.2129">-associatedTeam: Team</text><line style="stroke:#181818;stroke-width:0.5;" x1="9" x2="187" y1="1154.7266" y2="1154.7266"/><text fill="#000000" font-family="sans-serif" font-size="14" lengthAdjust="spacing" textLength="164" x="14" y="1173.834">+boolean addTeam(team)</text><text fill="#000000" font-family="sans-serif" font-size="14" lengthAdjust="spacing" textLength="168" x="14" y="1192.4551">+boolean equals(Object o)</text><text fill="#000000" font-family="sans-serif" font-size="14" lengthAdjust="spacing" textLength="102" x="14" y="1211.0762">+int hashCode()</text><text fill="#000000" font-family="sans-serif" font-size="14" lengthAdjust="spacing" textLength="87" x="14" y="1229.6973">+Task clone()</text></g><!--class TeamRepository--><g id="elem_TeamRepository"><rect codeLine="105" fill="#F1F1F1" height="159.7266" id="TeamRepository" rx="2.5" ry="2.5" style="stroke:#181818;stroke-width:0.5;" width="377" x="122.5" y="661.5"/><ellipse cx="254.75" cy="677.5" fill="#ADD1B2" rx="11" ry="11" style="stroke:#181818;stroke-width:1.0;"/><path d="M257.5156,673.375 Q257.6719,673.1563 257.8594,673.0469 Q258.0469,672.9375 258.2656,672.9375 Q258.6406,672.9375 258.875,673.2031 Q259.1094,673.4531 259.1094,674.0625 L259.1094,675.5156 Q259.1094,676.125 258.875,676.3906 Q258.6406,676.6563 258.2656,676.6563 Q257.9219,676.6563 257.7188,676.4531 Q257.5156,676.2656 257.4063,675.75 Q257.3594,675.3906 257.1719,675.2031 Q256.8438,674.8281 256.2344,674.6094 Q255.625,674.3906 255,674.3906 Q254.2344,674.3906 253.5938,674.7188 Q252.9688,675.0469 252.4688,675.7969 Q251.9844,676.5469 251.9844,677.5781 L251.9844,678.6719 Q251.9844,679.9063 252.875,680.7344 Q253.7656,681.5469 255.3594,681.5469 Q256.2969,681.5469 256.9531,681.2969 Q257.3438,681.1406 257.7656,680.7031 Q258.0313,680.4375 258.1719,680.3594 Q258.3281,680.2813 258.5313,680.2813 Q258.8594,680.2813 259.1094,680.5469 Q259.375,680.7969 259.375,681.1406 Q259.375,681.4844 259.0313,681.8906 Q258.5313,682.4688 257.7344,682.7969 Q256.6563,683.25 255.3594,683.25 Q253.8438,683.25 252.6406,682.625 Q251.6563,682.125 250.9688,681.0625 Q250.2813,679.9844 250.2813,678.7031 L250.2813,677.5469 Q250.2813,676.2188 250.8906,675.0781 Q251.5156,673.9219 252.6094,673.3125 Q253.7031,672.6875 254.9375,672.6875 Q255.6719,672.6875 256.3125,672.8594 Q256.9688,673.0156 257.5156,673.375 Z " fill="#000000"/><text fill="#000000" font-family="sans-serif" font-size="14" lengthAdjust="spacing" textLength="104" x="275.25" y="683.2969">TeamRepository</text><line style="stroke:#181818;stroke-width:0.5;" x1="123.5" x2="498.5" y1="693.5" y2="693.5"/><text fill="#000000" font-family="sans-serif" font-size="14" lengthAdjust="spacing" textLength="121" x="128.5" y="712.6074">-List&lt;Team&gt; teams</text><line style="stroke:#181818;stroke-width:0.5;" x1="123.5" x2="498.5" y1="720.1211" y2="720.1211"/><text fill="#000000" font-family="sans-serif" font-size="14" lengthAdjust="spacing" textLength="319" x="128.5" y="739.2285">+Optional&lt;Team&gt; createTeam(List&lt;Collaborator&gt;)</text><text fill="#000000" font-family="sans-serif" font-size="14" lengthAdjust="spacing" textLength="204" x="128.5" y="757.8496">+boolean addTeam(Team team)</text><text fill="#000000" font-family="sans-serif" font-size="14" lengthAdjust="spacing" textLength="229" x="128.5" y="776.4707">+boolean validateTeam(Team team)</text><text fill="#000000" font-family="sans-serif" font-size="14" lengthAdjust="spacing" textLength="365" x="128.5" y="795.0918">+Team getTeamByCollaborator(Collaborator collaborator)</text><text fill="#000000" font-family="sans-serif" font-size="14" lengthAdjust="spacing" textLength="174" x="128.5" y="813.7129">+List&lt;Team&gt; getTeamList()</text></g><!--link Team to Task--><g id="link_Team_Task"><path codeLine="114" d="M131.83,213.85 C122.28,336.71 105,559 105,559 C105,559 101.575,832.9405 99.525,996.9705 " fill="none" id="Team-to-Task" style="stroke:#181818;stroke-width:1.0;"/><polygon fill="#181818" points="99.45,1002.97,103.5622,994.0207,99.5125,997.9704,95.5628,993.9207,99.45,1002.97" style="stroke:#181818;stroke-width:1.0;"/><text fill="#000000" font-family="sans-serif" font-size="13" lengthAdjust="spacing" textLength="67" x="110" y="525.0283">assigned to</text></g><!--link Team to Collaborator--><g id="link_Team_Collaborator"><path codeLine="115" d="M269.04,133.5 C302.76,133.5 332.01,133.5 362.15,133.5 " fill="none" id="Team-to-Collaborator" style="stroke:#181818;stroke-width:1.0;"/><polygon fill="#181818" points="368.15,133.5,359.15,129.5,363.15,133.5,359.15,137.5,368.15,133.5" style="stroke:#181818;stroke-width:1.0;"/><text fill="#000000" font-family="sans-serif" font-size="13" lengthAdjust="spacing" textLength="63" x="287.25" y="126.5283">consists of</text></g><!--link Collaborator to ConsultTasksUI--><g id="link_Collaborator_ConsultTasksUI"><path codeLine="116" d="M525.54,133.5 C546.18,133.5 562.59,133.5 583.75,133.5 " fill="none" id="Collaborator-to-ConsultTasksUI" style="stroke:#181818;stroke-width:1.0;"/><polygon fill="#181818" points="589.75,133.5,580.75,129.5,584.75,133.5,580.75,137.5,589.75,133.5" style="stroke:#181818;stroke-width:1.0;"/><text fill="#000000" font-family="sans-serif" font-size="13" lengthAdjust="spacing" textLength="28" x="543.75" y="126.5283">uses</text></g><!--link Repositories to Repositories--><g id="link_Repositories_Repositories"><path codeLine="118" d="M1263.16,392.09 C1284.31,395.37 1298,401.17 1298,409.5 C1298,417.83 1290.2391,422.7105 1269.0891,425.9905 " fill="none" id="Repositories-to-Repositories" style="stroke:#181818;stroke-width:1.0;"/><polygon fill="#181818" points="1263.16,426.91,1272.6667,429.4835,1268.1009,426.1437,1271.4407,421.578,1263.16,426.91" style="stroke:#181818;stroke-width:1.0;"/><text fill="#000000" font-family="sans-serif" font-size="13" lengthAdjust="spacing" textLength="49" x="1304" y="415.0283">instance</text></g><!--link ApplicationSession to ApplicationSession--><g id="link_ApplicationSession_ApplicationSession"><path codeLine="119" d="M1689.66,389.07 C1709.5,390.28 1724.5,397.09 1724.5,409.5 C1724.5,421.91 1715.4889,428.3548 1695.6489,429.5648 " fill="none" id="ApplicationSession-to-ApplicationSession" style="stroke:#181818;stroke-width:1.0;"/><polygon fill="#181818" points="1689.66,429.93,1698.8868,433.3747,1694.6507,429.6256,1698.3998,425.3895,1689.66,429.93" style="stroke:#181818;stroke-width:1.0;"/><text fill="#000000" font-family="sans-serif" font-size="13" lengthAdjust="spacing" textLength="49" x="1730.5" y="415.0283">instance</text></g><!--link ConsultTasksUI to ConsultTasksController--><g id="link_ConsultTasksUI_ConsultTasksController"><path codeLine="121" d="M768.25,133.5 C779.56,133.5 785.28,133.5 796.98,133.5 " fill="none" id="ConsultTasksUI-to-ConsultTasksController" style="stroke:#181818;stroke-width:1.0;stroke-dasharray:7.0,7.0;"/><polygon fill="#181818" points="802.98,133.5,793.98,129.5,797.98,133.5,793.98,137.5,802.98,133.5" style="stroke:#181818;stroke-width:1.0;"/></g><!--link ConsultTasksController to Repositories--><g id="link_ConsultTasksController_Repositories"><path codeLine="123" d="M1256.85,260.27 C1223.53,287.28 1194.1506,311.1013 1164.6106,335.0513 " fill="none" id="ConsultTasksController-to-Repositories" style="stroke:#181818;stroke-width:1.0;"/><polygon fill="#181818" points="1159.95,338.83,1169.4601,336.2691,1163.8339,335.6811,1164.4218,330.0549,1159.95,338.83" style="stroke:#181818;stroke-width:1.0;"/><text fill="#000000" font-family="sans-serif" font-size="13" lengthAdjust="spacing" textLength="108" x="1213" y="305.0283">retrieves instances</text></g><!--link Repositories to CollaboratorRepository--><g id="link_Repositories_CollaboratorRepository"><path codeLine="125" d="M999.15,480.08 C970.97,506.27 941.9346,533.265 908.1546,564.665 " fill="none" id="Repositories-to-CollaboratorRepository" style="stroke:#181818;stroke-width:1.0;"/><polygon fill="#181818" points="903.76,568.75,913.0753,565.5523,907.4222,565.3458,907.6286,559.6927,903.76,568.75" style="stroke:#181818;stroke-width:1.0;"/><text fill="#000000" font-family="sans-serif" font-size="13" lengthAdjust="spacing" textLength="56" x="960" y="525.0283">accesses</text></g><!--link Repositories to TeamRepository--><g id="link_Repositories_TeamRepository"><path codeLine="126" d="M884.92,471.34 C868.52,476.61 858,480 858,480 C858,480 517,559 517,559 C517,559 460.7718,608.5434 405.2618,657.4534 " fill="none" id="Repositories-to-TeamRepository" style="stroke:#181818;stroke-width:1.0;"/><polygon fill="#181818" points="400.76,661.42,410.1571,658.4714,404.5115,658.1145,404.8684,652.4689,400.76,661.42" style="stroke:#181818;stroke-width:1.0;"/><text fill="#000000" font-family="sans-serif" font-size="13" lengthAdjust="spacing" textLength="56" x="729" y="525.0283">accesses</text></g><!--link Repositories to TaskRepository--><g id="link_Repositories_TaskRepository"><path codeLine="127" d="M1129.24,480.08 C1171.36,533.12 1225.6495,601.5107 1269.5095,656.7607 " fill="none" id="Repositories-to-TaskRepository" style="stroke:#181818;stroke-width:1.0;"/><polygon fill="#181818" points="1273.24,661.46,1270.7771,651.9241,1270.1312,657.5439,1264.5114,656.8981,1273.24,661.46" style="stroke:#181818;stroke-width:1.0;"/><text fill="#000000" font-family="sans-serif" font-size="13" lengthAdjust="spacing" textLength="56" x="1167" y="525.0283">accesses</text></g><!--link ConsultTasksController to TeamRepository--><g id="link_ConsultTasksController_TeamRepository"><path codeLine="129" d="M931.45,260.01 C769.49,302.31 629,339 629,339 C629,339 470.2251,539.4665 377.5551,656.4765 " fill="none" id="ConsultTasksController-to-TeamRepository" style="stroke:#181818;stroke-width:1.0;stroke-dasharray:7.0,7.0;"/><polygon fill="#181818" points="373.83,661.18,382.5534,656.6081,376.9343,657.2604,376.282,651.6413,373.83,661.18" style="stroke:#181818;stroke-width:1.0;"/><text fill="#000000" font-family="sans-serif" font-size="13" lengthAdjust="spacing" textLength="91" x="630" y="415.0283">teamRepository</text></g><!--link ConsultTasksController to TaskRepository--><g id="link_ConsultTasksController_TaskRepository"><path codeLine="130" d="M1396.25,260.06 C1381.12,380.71 1359.4663,553.3466 1346.6763,655.3766 " fill="none" id="ConsultTasksController-to-TaskRepository" style="stroke:#181818;stroke-width:1.0;stroke-dasharray:7.0,7.0;"/><polygon fill="#181818" points="1345.93,661.33,1351.0184,652.8974,1346.5519,656.3688,1343.0805,651.9024,1345.93,661.33" style="stroke:#181818;stroke-width:1.0;"/><text fill="#000000" font-family="sans-serif" font-size="13" lengthAdjust="spacing" textLength="87" x="1386" y="415.0283">taskRepository</text></g><!--link ConsultTasksController to CollaboratorRepository--><g id="link_ConsultTasksController_CollaboratorRepository"><path codeLine="131" d="M997.49,260.08 C857.97,302.35 737,339 737,339 C737,339 732.1789,446.526 727.4089,552.846 " fill="none" id="ConsultTasksController-to-CollaboratorRepository" style="stroke:#181818;stroke-width:1.0;stroke-dasharray:7.0,7.0;"/><polygon fill="#181818" points="727.14,558.84,731.5394,550.0283,727.3641,553.845,723.5474,549.6698,727.14,558.84" style="stroke:#181818;stroke-width:1.0;"/><text fill="#000000" font-family="sans-serif" font-size="13" lengthAdjust="spacing" textLength="129" x="738" y="415.0283">collaboratorRepository</text></g><!--link ApplicationSession to UserSession--><g id="link_ApplicationSession_UserSession"><path codeLine="133" d="M1652.43,452.28 C1683.81,486.4 1723,529 1723,529 C1723,529 1751,559 1751,559 C1751,559 1788.0042,649.7743 1809.3342,702.0743 " fill="none" id="ApplicationSession-to-UserSession" style="stroke:#181818;stroke-width:1.0;"/><polygon fill="#181818" points="1811.6,707.63,1811.9051,697.7859,1809.7118,703.0002,1804.4974,700.807,1811.6,707.63" style="stroke:#181818;stroke-width:1.0;"/><text fill="#000000" font-family="sans-serif" font-size="13" lengthAdjust="spacing" textLength="72" x="1724" y="525.0283">userSession</text><text fill="#000000" font-family="sans-serif" font-size="13" lengthAdjust="spacing" textLength="7" x="1801.3784" y="696.6454">1</text></g><!--link ConsultTasksController to ApplicationSession--><g id="link_ConsultTasksController_ApplicationSession"><path codeLine="135" d="M1504.72,260.27 C1533.04,298.68 1558.6693,333.4408 1579.7493,362.0308 " fill="none" id="ConsultTasksController-to-ApplicationSession" style="stroke:#181818;stroke-width:1.0;stroke-dasharray:7.0,7.0;"/><polygon fill="#181818" points="1583.31,366.86,1581.1884,357.2424,1580.3428,362.8356,1574.7495,361.9899,1583.31,366.86" style="stroke:#181818;stroke-width:1.0;"/></g><!--link ConsultTasksController to UserSession--><g id="link_ConsultTasksController_UserSession"><path codeLine="136" d="M1641.67,260.08 C1718.97,302.35 1786,339 1786,339 C1786,339 1811.9802,606.4281 1821.2602,702.0081 " fill="none" id="ConsultTasksController-to-UserSession" style="stroke:#181818;stroke-width:1.0;stroke-dasharray:7.0,7.0;"/><polygon fill="#181818" points="1821.84,707.98,1824.9515,698.6356,1821.3568,703.0034,1816.989,699.4087,1821.84,707.98" style="stroke:#181818;stroke-width:1.0;"/></g><!--link TeamRepository to Team--><g id="link_TeamRepository_Team"><path codeLine="138" d="M288.38,661.26 C255.22,545.11 195.4168,335.6296 162.2668,219.4896 " fill="none" id="TeamRepository-to-Team" style="stroke:#181818;stroke-width:1.0;stroke-dasharray:7.0,7.0;"/><polygon fill="#181818" points="160.62,213.72,159.2438,223.4722,161.9923,218.528,166.9366,221.2765,160.62,213.72" style="stroke:#181818;stroke-width:1.0;"/><text fill="#000000" font-family="sans-serif" font-size="13" lengthAdjust="spacing" textLength="36" x="238" y="415.0283">stores</text></g><!--link TaskRepository to Task--><g id="link_TaskRepository_Task"><path codeLine="139" d="M1155.18,821.58 C1043.35,870.49 921,924 921,924 C921,924 407.4183,1045.6866 193.8783,1096.2866 " fill="none" id="TaskRepository-to-Task" style="stroke:#181818;stroke-width:1.0;stroke-dasharray:7.0,7.0;"/><polygon fill="#181818" points="188.04,1097.67,197.7198,1099.4871,192.9053,1096.5171,195.8752,1091.7026,188.04,1097.67" style="stroke:#181818;stroke-width:1.0;"/><text fill="#000000" font-family="sans-serif" font-size="13" lengthAdjust="spacing" textLength="36" x="784" y="969.0283">stores</text></g><!--link CollaboratorRepository to Collaborator--><g id="link_CollaboratorRepository_Collaborator"><path codeLine="140" d="M548.17,558.87 C506.68,514.75 474,480 474,480 C474,480 464.3772,356.8618 456.5372,256.4918 " fill="none" id="CollaboratorRepository-to-Collaborator" style="stroke:#181818;stroke-width:1.0;stroke-dasharray:7.0,7.0;"/><polygon fill="#181818" points="456.07,250.51,452.783,259.7942,456.4594,255.4948,460.7587,259.1712,456.07,250.51" style="stroke:#181818;stroke-width:1.0;"/><text fill="#000000" font-family="sans-serif" font-size="13" lengthAdjust="spacing" textLength="36" x="475" y="415.0283">stores</text></g><!--SRC=[bLTHR-Ce47xthq3xqbHDgxlNw1IfJNQbI2kjTEc-tGl1D66BmGUuTzdL_VURmSO1Z5Cr3v6P-GPcXezXkB6lGhNKq8OqMcbsChhXn9cELnTDIzahFVAzEqjE36UEggEC0VP4Q_sFK4VoGgMDDL8exiuj9wsMPnnKDmMbDavNaHMJrDf7vumuT8xlc5PxyPEJtwhgHl8NHvmcHXnFZjG2tH5QLPMt8OzjAmMZADfpQr7pgoBmkoFMWPYH8tSx1T-AySNje0BPfZE6ApSOWUQ_CELtoqq-5nYW-7D3XOon6oqbFMX3dJQa1zyJHHk-8dk8HXq7qK4OTwgfo-MqReHVYHILjG4_CccZ3mAsPQELeyojY51kq73qZh2WIAmS_RUbPsw8wfe3Dx7PRajgpGXkJ6O4cXn-XrxjNuMK2ul_FXTacem_UQkjW8zpdvPxybLOzqSCMOEhbv6j_EpVMjnAAZCaBBf8SXsRtlQcYHvtE1e_dNVR1SG08VKH3JO5fp9BH2m6D7WHgzxrQ2OOmuymAJV9NEGl5VDc2UC9QL0uCcQgIDY2efugVlDmwFaHwmCfHiHk2qo8YT0B8n8CaHsqbfmgyaQbG4S-b9OtBMhIjH-o6q_SI2p1hQVMNNh2oIg1142PcnvULWN3PqwRp20LZK1gNtDW8Wh0nywTeF8CLIipcLF69KVPJlhbB1O10-xpI_5nYNC5Pn74YY5VIKLVGk9e2j7vcZNZ_vN8o71wIs4jKlUpw9Pp9QSStp9pEOjeEUlYR5JXFicyBD1cZBBexnM2XXLIpmjy6u2pCLnbtc3ioo5El0uhsAVp1yxsErNu2pGRXGittlhlEy_abA8fCQj0yvxSrLXIJ9TCYyhnM2HNpQfGzwFZizl6zrqeTNdnBmKViFpl3lgYnRV33-XMY0vgl81Er9uskhxq8jvD9hNYYVFfVlTXNExHVe-GlpPeekkcrpB3eSBYzw8lviG99_boAEsavfOPuMr66VPCdLsIhvfHkGLpb1Y7NnDCcAOpdawt5qUYbFdbySyxMy246mJJK0HwsS36f_CpXf344q7xrC14wt04XzixIUkbLA9vrl94ISaqVTXJOP-TrILbOQOXBtbJPwrc0c3rSqpXKkem8yZ7suA-oB1PbaMPd38jhLqJflbqeXj5fddjm3JqTtgmPdZXjnkfdqGunui2qCk6RVvOaNgNAtxg-xLFs0ftJ1mLh-4LCcesINM2bjk2iINwfKhMziYukAr8Pw4fgP8k1b396AjFtyvKq-SDeWlIoARAwkd3UkPoJP5HBt4FZpirzSfm839_W- -mrYIImN3cceDSCZ3231JDCYg-2qzhP0IV2-pXeR18sbDSDSqNJ1k8QwQp6IctAbLnvo7cJxz_YX-en1DgVAvUyw3mKhw2ZX_1LPQoaCKLb3yDRuugoqj8rQYV2JxFouZ_7m00]--></g></svg>