<?xml version="1.0" encoding="us-ascii" standalone="no"?><svg xmlns="http://www.w3.org/2000/svg" xmlns:xlink="http://www.w3.org/1999/xlink" contentStyleType="text/css" height="439.5px" preserveAspectRatio="none" style="width:535px;height:439px;background:#FFFFFF;" version="1.1" viewBox="0 0 535 439" width="535.5px" zoomAndPan="magnify"><defs/><g><!--class Organization--><g id="elem_Organization"><rect codeLine="16" fill="#F1F1F1" height="64.8633" id="Organization" rx="1.25" ry="1.25" style="stroke:#181818;stroke-width:0.25;" width="50.5" x="169" y="3.5"/><text fill="#000000" font-family="sans-serif" font-size="7" lengthAdjust="spacing" textLength="40" x="174.25" y="13.5537">Organization</text><line style="stroke:#181818;stroke-width:0.25;" x1="169.5" x2="219" y1="17.8105" y2="17.8105"/><text fill="#000000" font-family="sans-serif" font-size="7" lengthAdjust="spacing" textLength="17.5" x="172" y="27.3643">name</text><text fill="#000000" font-family="sans-serif" font-size="7" lengthAdjust="spacing" textLength="34" x="172" y="36.6748">vatNumber</text><text fill="#000000" font-family="sans-serif" font-size="7" lengthAdjust="spacing" textLength="23.5" x="172" y="45.9854">website</text><text fill="#000000" font-family="sans-serif" font-size="7" lengthAdjust="spacing" textLength="44.5" x="172" y="55.2959">phoneNumber</text><text fill="#000000" font-family="sans-serif" font-size="7" lengthAdjust="spacing" textLength="16.5" x="172" y="64.6064">email</text></g><!--class Collaborator--><g id="elem_Collaborator"><rect codeLine="24" fill="#F1F1F1" height="64.8633" id="Collaborator" rx="1.25" ry="1.25" style="stroke:#181818;stroke-width:0.25;" width="81.5" x="3.5" y="211.5"/><text fill="#000000" font-family="sans-serif" font-size="7" lengthAdjust="spacing" textLength="39" x="24.75" y="221.5537">Collaborator</text><line style="stroke:#181818;stroke-width:0.25;" x1="4" x2="84.5" y1="225.8105" y2="225.8105"/><text fill="#000000" font-family="sans-serif" font-size="7" lengthAdjust="spacing" textLength="17.5" x="6.5" y="235.3643">name</text><text fill="#000000" font-family="sans-serif" font-size="7" lengthAdjust="spacing" textLength="28" x="6.5" y="244.6748">birthdate</text><text fill="#000000" font-family="sans-serif" font-size="7" lengthAdjust="spacing" textLength="47.5" x="6.5" y="253.9854">admission date</text><text fill="#000000" font-family="sans-serif" font-size="7" lengthAdjust="spacing" textLength="25.5" x="6.5" y="263.2959">address</text><text fill="#000000" font-family="sans-serif" font-size="7" lengthAdjust="spacing" textLength="75.5" x="6.5" y="272.6064">ID doc type and number</text></g><!--class HRM--><g id="elem_HRM"><rect codeLine="33" fill="#F1F1F1" height="55.5527" id="HRM" rx="1.25" ry="1.25" style="stroke:#181818;stroke-width:0.25;" width="30.5" x="179" y="108"/><text fill="#000000" font-family="sans-serif" font-size="7" lengthAdjust="spacing" textLength="15" x="186.75" y="118.0537">HRM</text><line style="stroke:#181818;stroke-width:0.25;" x1="179.5" x2="209" y1="122.3105" y2="122.3105"/><text fill="#000000" font-family="sans-serif" font-size="7" lengthAdjust="spacing" textLength="17.5" x="182" y="131.8643">name</text><text fill="#000000" font-family="sans-serif" font-size="7" lengthAdjust="spacing" textLength="16.5" x="182" y="141.1748">email</text><text fill="#000000" font-family="sans-serif" font-size="7" lengthAdjust="spacing" textLength="24.5" x="182" y="150.4854">position</text><text fill="#000000" font-family="sans-serif" font-size="7" lengthAdjust="spacing" textLength="20" x="182" y="159.7959">phone</text></g><!--class VFM--><g id="elem_VFM"><rect codeLine="40" fill="#F1F1F1" height="55.5527" id="VFM" rx="1.25" ry="1.25" style="stroke:#181818;stroke-width:0.25;" width="30.5" x="371" y="216.25"/><text fill="#000000" font-family="sans-serif" font-size="7" lengthAdjust="spacing" textLength="14.5" x="379" y="226.3037">VFM</text><line style="stroke:#181818;stroke-width:0.25;" x1="371.5" x2="401" y1="230.5605" y2="230.5605"/><text fill="#000000" font-family="sans-serif" font-size="7" lengthAdjust="spacing" textLength="17.5" x="374" y="240.1143">name</text><text fill="#000000" font-family="sans-serif" font-size="7" lengthAdjust="spacing" textLength="16.5" x="374" y="249.4248">email</text><text fill="#000000" font-family="sans-serif" font-size="7" lengthAdjust="spacing" textLength="24.5" x="374" y="258.7354">position</text><text fill="#000000" font-family="sans-serif" font-size="7" lengthAdjust="spacing" textLength="20" x="374" y="268.0459">phone</text></g><!--class Skill--><g id="elem_Skill"><rect codeLine="47" fill="#F1F1F1" height="27.6211" id="Skill" rx="1.25" ry="1.25" style="stroke:#181818;stroke-width:0.25;" width="23.5" x="141.5" y="408.5"/><text fill="#000000" font-family="sans-serif" font-size="7" lengthAdjust="spacing" textLength="12.5" x="147" y="418.5537">Skill</text><line style="stroke:#181818;stroke-width:0.25;" x1="142" x2="164.5" y1="422.8105" y2="422.8105"/><text fill="#000000" font-family="sans-serif" font-size="7" lengthAdjust="spacing" textLength="17.5" x="144.5" y="432.3643">name</text></g><!--class Job--><g id="elem_Job"><rect codeLine="51" fill="#F1F1F1" height="27.6211" id="Job" rx="1.25" ry="1.25" style="stroke:#181818;stroke-width:0.25;" width="23.5" x="150.5" y="230.25"/><text fill="#000000" font-family="sans-serif" font-size="7" lengthAdjust="spacing" textLength="11" x="156.75" y="240.3037">Job</text><line style="stroke:#181818;stroke-width:0.25;" x1="151" x2="173.5" y1="244.5605" y2="244.5605"/><text fill="#000000" font-family="sans-serif" font-size="7" lengthAdjust="spacing" textLength="17.5" x="153.5" y="254.1143">name</text></g><!--class System--><g id="elem_System"><rect codeLine="55" fill="#F1F1F1" height="18.3105" id="System" rx="1.25" ry="1.25" style="stroke:#181818;stroke-width:0.25;" width="26" x="325.25" y="126.5"/><text fill="#000000" font-family="sans-serif" font-size="7" lengthAdjust="spacing" textLength="23" x="326.75" y="136.5537">System</text><line style="stroke:#181818;stroke-width:0.25;" x1="325.75" x2="350.75" y1="140.8105" y2="140.8105"/></g><!--class Team--><g id="elem_Team"><rect codeLine="59" fill="#F1F1F1" height="36.9316" id="Team" rx="1.25" ry="1.25" style="stroke:#181818;stroke-width:0.25;" width="47" x="281.25" y="225.5"/><text fill="#000000" font-family="sans-serif" font-size="7" lengthAdjust="spacing" textLength="18" x="295.75" y="235.5537">Team</text><line style="stroke:#181818;stroke-width:0.25;" x1="281.75" x2="327.75" y1="239.8105" y2="239.8105"/><text fill="#000000" font-family="sans-serif" font-size="7" lengthAdjust="spacing" textLength="41" x="284.25" y="249.3643">collaborators</text><text fill="#000000" font-family="sans-serif" font-size="7" lengthAdjust="spacing" textLength="22" x="284.25" y="258.6748">skill list</text></g><!--class Vehicle--><g id="elem_Vehicle"><rect codeLine="70" fill="#F1F1F1" height="102.1055" id="Vehicle" rx="1.25" ry="1.25" style="stroke:#181818;stroke-width:0.25;" width="111" x="421.25" y="291.5"/><text fill="#000000" font-family="sans-serif" font-size="7" lengthAdjust="spacing" textLength="23" x="465.25" y="301.5537">Vehicle</text><line style="stroke:#181818;stroke-width:0.25;" x1="421.75" x2="531.75" y1="305.8105" y2="305.8105"/><text fill="#000000" font-family="sans-serif" font-size="7" lengthAdjust="spacing" textLength="18.5" x="424.25" y="315.3643">brand</text><text fill="#000000" font-family="sans-serif" font-size="7" lengthAdjust="spacing" textLength="19" x="424.25" y="324.6748">model</text><text fill="#000000" font-family="sans-serif" font-size="7" lengthAdjust="spacing" textLength="13.5" x="424.25" y="333.9854">type</text><text fill="#000000" font-family="sans-serif" font-size="7" lengthAdjust="spacing" textLength="12.5" x="424.25" y="343.2959">tare</text><text fill="#000000" font-family="sans-serif" font-size="7" lengthAdjust="spacing" textLength="39.5" x="424.25" y="352.6064">gross weight</text><text fill="#000000" font-family="sans-serif" font-size="7" lengthAdjust="spacing" textLength="34.5" x="424.25" y="361.917">current KM</text><text fill="#000000" font-family="sans-serif" font-size="7" lengthAdjust="spacing" textLength="40" x="424.25" y="371.2275">register date</text><text fill="#000000" font-family="sans-serif" font-size="7" lengthAdjust="spacing" textLength="49.5" x="424.25" y="380.5381">acquisition date</text><text fill="#000000" font-family="sans-serif" font-size="7" lengthAdjust="spacing" textLength="105" x="424.25" y="389.8486">maintenance/check-up frequency</text></g><!--class MaintenanceCheckup--><g id="elem_MaintenanceCheckup"><rect codeLine="82" fill="#F1F1F1" height="27.6211" id="MaintenanceCheckup" rx="1.25" ry="1.25" style="stroke:#181818;stroke-width:0.25;" width="71.5" x="406.5" y="408.5"/><text fill="#000000" font-family="sans-serif" font-size="7" lengthAdjust="spacing" textLength="68.5" x="408" y="418.5537">MaintenanceCheckup</text><line style="stroke:#181818;stroke-width:0.25;" x1="407" x2="477.5" y1="422.8105" y2="422.8105"/><text fill="#000000" font-family="sans-serif" font-size="7" lengthAdjust="spacing" textLength="14" x="409.5" y="432.3643">date</text></g><!--class List--><g id="elem_List"><rect codeLine="86" fill="#F1F1F1" height="27.6211" id="List" rx="1.25" ry="1.25" style="stroke:#181818;stroke-width:0.25;" width="106" x="248.75" y="408.5"/><text fill="#000000" font-family="sans-serif" font-size="7" lengthAdjust="spacing" textLength="11" x="296.25" y="418.5537">List</text><line style="stroke:#181818;stroke-width:0.25;" x1="249.25" x2="354.25" y1="422.8105" y2="422.8105"/><text fill="#000000" font-family="sans-serif" font-size="7" lengthAdjust="spacing" textLength="100" x="251.75" y="432.3643">vehicles that need maintenance</text></g><!--class PostalAddress--><g id="elem_PostalAddress"><rect fill="#F1F1F1" height="18.3105" id="PostalAddress" rx="1.25" ry="1.25" style="stroke:#181818;stroke-width:0.25;" width="48.5" x="66" y="26.75"/><text fill="#000000" font-family="sans-serif" font-size="7" lengthAdjust="spacing" textLength="45.5" x="67.5" y="36.8037">PostalAddress</text><line style="stroke:#181818;stroke-width:0.25;" x1="66.5" x2="114" y1="41.0605" y2="41.0605"/></g><!--link Organization to HRM--><g id="link_Organization_HRM"><path codeLine="92" d="M194.25,68.56 C194.25,81.29 194.25,95.775 194.25,107.985 " fill="none" id="Organization-HRM" style="stroke:#181818;stroke-width:0.5;"/><polygon fill="#000000" points="196.75,90.8228,198.2195,86.3002,195.2805,86.3002,196.75,90.8228" style="stroke:#000000;stroke-width:0.5;"/><text fill="#000000" font-family="sans-serif" font-size="6.5" lengthAdjust="spacing" textLength="10.5" x="201.25" y="91.0142">has</text><text fill="#000000" font-family="sans-serif" font-size="6.5" lengthAdjust="spacing" textLength="3.5" x="190.5695" y="79.3847">1</text><text fill="#000000" font-family="sans-serif" font-size="6.5" lengthAdjust="spacing" textLength="10" x="183.6094" y="102.4032">1..*</text></g><!--link Organization to VFM--><g id="link_Organization_VFM"><path codeLine="93" d="M219.545,39.98 C256.385,46.455 324.26,63.94 359.75,108 C384.595,138.85 388.41,186.33 387.99,216.12 " fill="none" id="Organization-VFM" style="stroke:#181818;stroke-width:0.5;"/><polygon fill="#000000" points="387.9779,137.6295,385.9141,133.3454,383.7901,135.3766,387.9779,137.6295" style="stroke:#000000;stroke-width:0.5;"/><text fill="#000000" font-family="sans-serif" font-size="6.5" lengthAdjust="spacing" textLength="10.5" x="390.75" y="138.5142">has</text><text fill="#000000" font-family="sans-serif" font-size="6.5" lengthAdjust="spacing" textLength="3.5" x="223.5172" y="38.4752">1</text><text fill="#000000" font-family="sans-serif" font-size="6.5" lengthAdjust="spacing" textLength="10" x="377.5723" y="210.5234">1..*</text></g><!--link Collaborator to Organization--><g id="link_Collaborator_Organization"><path codeLine="94" d="M67.455,211.48 C95.605,172.625 142.795,107.51 170.975,68.615 " fill="none" id="Collaborator-Organization" style="stroke:#181818;stroke-width:0.5;"/><polygon fill="#000000" points="142.7831,137.8472,146.6267,135.0472,144.2468,133.3228,142.7831,137.8472" style="stroke:#000000;stroke-width:0.5;"/><text fill="#000000" font-family="sans-serif" font-size="6.5" lengthAdjust="spacing" textLength="10.5" x="148.75" y="138.5142">has</text><text fill="#000000" font-family="sans-serif" font-size="6.5" lengthAdjust="spacing" textLength="10" x="59.56" y="205.7589">1..*</text><text fill="#000000" font-family="sans-serif" font-size="6.5" lengthAdjust="spacing" textLength="3.5" x="164.8943" y="79.4454">1</text></g><!--link HRM to Collaborator--><g id="link_HRM_Collaborator"><path codeLine="95" d="M178.935,145.19 C165.05,153.445 144.16,166.245 126.75,178.5 C112.21,188.735 96.78,200.6 83.245,211.37 " fill="none" id="HRM-Collaborator" style="stroke:#181818;stroke-width:0.5;"/><polygon fill="#000000" points="127.1938,188.9948,131.7493,187.6309,130.0776,185.2137,127.1938,188.9948" style="stroke:#000000;stroke-width:0.5;"/><text fill="#000000" font-family="sans-serif" font-size="6.5" lengthAdjust="spacing" textLength="25" x="133.75" y="190.2642">registers</text><text fill="#000000" font-family="sans-serif" font-size="6.5" lengthAdjust="spacing" textLength="3.5" x="171.4887" y="144.9151">1</text><text fill="#000000" font-family="sans-serif" font-size="6.5" lengthAdjust="spacing" textLength="10" x="76.9632" y="205.8658">1..*</text></g><!--link HRM to Skill--><g id="link_HRM_Skill"><path codeLine="96" d="M200.71,163.615 C210.8,212.705 225.44,317.69 187.25,393.5 C182.45,403.025 172.84,410.535 165.055,415.41 " fill="none" id="HRM-Skill" style="stroke:#181818;stroke-width:0.5;"/><polygon fill="#000000" points="214.3995,246.5481,216.4885,242.2762,213.5786,241.8642,214.3995,246.5481" style="stroke:#000000;stroke-width:0.5;"/><text fill="#000000" font-family="sans-serif" font-size="6.5" lengthAdjust="spacing" textLength="21.5" x="219.25" y="246.7642">creates</text><text fill="#000000" font-family="sans-serif" font-size="6.5" lengthAdjust="spacing" textLength="3.5" x="197.784" y="174.5488">1</text><text fill="#000000" font-family="sans-serif" font-size="6.5" lengthAdjust="spacing" textLength="10" x="168.9412" y="411.3624">1..*</text></g><!--link HRM to Job--><g id="link_HRM_Job"><path codeLine="97" d="M178.9,155.845 C174.36,162.65 169.9,170.575 167.25,178.5 C161.505,195.675 160.99,216.77 161.41,230.18 " fill="none" id="HRM-Job" style="stroke:#181818;stroke-width:0.5;"/><polygon fill="#000000" points="169.1774,190.0063,171.6436,185.9405,168.7828,185.2674,169.1774,190.0063" style="stroke:#000000;stroke-width:0.5;"/><text fill="#000000" font-family="sans-serif" font-size="6.5" lengthAdjust="spacing" textLength="21.5" x="174.25" y="190.2642">creates</text><text fill="#000000" font-family="sans-serif" font-size="6.5" lengthAdjust="spacing" textLength="3.5" x="171.4456" y="158.034">1</text><text fill="#000000" font-family="sans-serif" font-size="6.5" lengthAdjust="spacing" textLength="10" x="150.0595" y="224.5183">1..*</text></g><!--link Job to Collaborator--><g id="link_Job_Collaborator"><path codeLine="98" d="M150.43,244 C135.24,244 108.075,244 85.025,244 " fill="none" id="Job-Collaborator" style="stroke:#181818;stroke-width:0.5;"/><polygon fill="#000000" points="93.75,237.8228,98.2725,239.2922,98.2725,236.3533,93.75,237.8228" style="stroke:#000000;stroke-width:0.5;"/><text fill="#000000" font-family="sans-serif" font-size="6.5" lengthAdjust="spacing" textLength="40.5" x="100.75" y="240.5142">is assigned to</text><text fill="#000000" font-family="sans-serif" font-size="6.5" lengthAdjust="spacing" textLength="10" x="136.5404" y="251.9998">1..*</text><text fill="#000000" font-family="sans-serif" font-size="6.5" lengthAdjust="spacing" textLength="3.5" x="88.9453" y="242.1354">1</text></g><!--link Collaborator to Skill--><g id="link_Collaborator_Skill"><path codeLine="99" d="M63.99,276.6 C88.16,315.905 127.99,380.67 145.065,408.44 " fill="none" id="Collaborator-Skill" style="stroke:#181818;stroke-width:0.5;"/><polygon fill="#000000" points="136.4404,340.4432,137.5577,345.0654,140.0612,343.5259,136.4404,340.4432" style="stroke:#000000;stroke-width:0.5;"/><text fill="#000000" font-family="sans-serif" font-size="6.5" lengthAdjust="spacing" textLength="40.5" x="142.25" y="345.2642">is assigned to</text><text fill="#000000" font-family="sans-serif" font-size="6.5" lengthAdjust="spacing" textLength="3.5" x="62.3452" y="287.4289">1</text><text fill="#000000" font-family="sans-serif" font-size="6.5" lengthAdjust="spacing" textLength="10" x="132.016" y="402.7806">1..*</text></g><!--link System to HRM--><g id="link_System_HRM"><path codeLine="100" d="M325.23,135.75 C298.59,135.75 237.97,135.75 209.525,135.75 " fill="none" id="System-HRM" style="stroke:#181818;stroke-width:0.5;"/><polygon fill="#000000" points="223.125,129.5728,218.6025,128.1033,218.6025,131.0422,223.125,129.5728" style="stroke:#000000;stroke-width:0.5;"/><text fill="#000000" font-family="sans-serif" font-size="6.5" lengthAdjust="spacing" textLength="91" x="225.125" y="132.2642">provides team size and skills to</text><text fill="#000000" font-family="sans-serif" font-size="6.5" lengthAdjust="spacing" textLength="3.5" x="317.7606" y="133.167">1</text><text fill="#000000" font-family="sans-serif" font-size="6.5" lengthAdjust="spacing" textLength="3.5" x="213.462" y="133.2921">1</text></g><!--link System to Team--><g id="link_System_Team"><path codeLine="101" d="M335.51,145.025 C330.04,162.535 317.675,202.125 310.395,225.42 " fill="none" id="System-Team" style="stroke:#181818;stroke-width:0.5;"/><polygon fill="#000000" points="326.5045,189.959,329.2557,186.0804,326.4505,185.204,326.5045,189.959" style="stroke:#000000;stroke-width:0.5;"/><text fill="#000000" font-family="sans-serif" font-size="6.5" lengthAdjust="spacing" textLength="28.5" x="331.75" y="190.2642">generates</text><text fill="#000000" font-family="sans-serif" font-size="6.5" lengthAdjust="spacing" textLength="3.5" x="330.7472" y="155.8902">1</text><text fill="#000000" font-family="sans-serif" font-size="6.5" lengthAdjust="spacing" textLength="3.5" x="307.5888" y="219.8866">1</text></g><!--link HRM to Team--><g id="link_HRM_Team"><path codeLine="102" d="M209.525,163.25 C216.52,174.28 225.44,186.72 235.25,196.5 C248.865,210.075 266.92,222.145 281.21,230.655 " fill="none" id="HRM-Team" style="stroke:#181818;stroke-width:0.5;"/><text fill="#000000" font-family="sans-serif" font-size="6.5" lengthAdjust="spacing" textLength="2" x="274.5" y="186.0142">&#160;</text><polygon fill="#000000" points="236.4287,190.2557,238.7168,194.4243,240.7301,192.2832,236.4287,190.2557" style="stroke:#000000;stroke-width:0.5;"/><text fill="#000000" font-family="sans-serif" font-size="6.5" lengthAdjust="spacing" textLength="73" x="242.25" y="194.6597">is accepted or refused by</text><text fill="#000000" font-family="sans-serif" font-size="6.5" lengthAdjust="spacing" textLength="3.5" x="207.8424" y="174.5368">1</text><text fill="#000000" font-family="sans-serif" font-size="6.5" lengthAdjust="spacing" textLength="3.5" x="273.6794" y="226.382">1</text></g><!--link VFM to Vehicle--><g id="link_VFM_Vehicle"><path codeLine="103" d="M401.6,261.04 C409.47,269.515 419.52,280.34 429.69,291.3 " fill="none" id="VFM-Vehicle" style="stroke:#181818;stroke-width:0.5;"/><polygon fill="#000000" points="386.4808,281.895,384.4809,277.5807,382.327,279.5802,386.4808,281.895" style="stroke:#000000;stroke-width:0.5;"/><text fill="#000000" font-family="sans-serif" font-size="6.5" lengthAdjust="spacing" textLength="25" x="389.28" y="282.7542">registers</text><text fill="#000000" font-family="sans-serif" font-size="6.5" lengthAdjust="spacing" textLength="3.5" x="405.5544" y="262.5226">1</text><text fill="#000000" font-family="sans-serif" font-size="6.5" lengthAdjust="spacing" textLength="10" x="416.0295" y="285.9167">1..*</text></g><!--link VFM to MaintenanceCheckup--><g id="link_VFM_MaintenanceCheckup"><path codeLine="104" d="M381.495,271.855 C375.6,309.295 367.75,374.065 380.25,393.5 C386.265,402.85 396.22,409.145 406.415,413.365 " fill="none" id="VFM-MaintenanceCheckup" style="stroke:#181818;stroke-width:0.5;"/><polygon fill="#000000" points="383.1836,345.0349,383.8464,340.326,380.952,340.8357,383.1836,345.0349" style="stroke:#000000;stroke-width:0.5;"/><text fill="#000000" font-family="sans-serif" font-size="6.5" lengthAdjust="spacing" textLength="25" x="387.25" y="345.2642">registers</text><text fill="#000000" font-family="sans-serif" font-size="6.5" lengthAdjust="spacing" textLength="3.5" x="377.2022" y="282.7876">1</text><text fill="#000000" font-family="sans-serif" font-size="6.5" lengthAdjust="spacing" textLength="10" x="392.5229" y="410.6284">1..*</text></g><!--link Vehicle to MaintenanceCheckup--><g id="link_Vehicle_MaintenanceCheckup"><path codeLine="105" d="M454.61,393.54 C452.22,398.995 449.97,404.135 448.055,408.495 " fill="none" id="Vehicle-MaintenanceCheckup" style="stroke:#181818;stroke-width:0.5;"/><polygon fill="#000000" points="417.1586,394.458,413.9972,398.0103,416.6889,399.1901,417.1586,394.458" style="stroke:#000000;stroke-width:0.5;"/><text fill="#000000" font-family="sans-serif" font-size="6.5" lengthAdjust="spacing" textLength="30" x="420.655" y="399.4392">belongs to</text><text fill="#000000" font-family="sans-serif" font-size="6.5" lengthAdjust="spacing" textLength="3.5" x="454.1965" y="402.8641">1</text><text fill="#000000" font-family="sans-serif" font-size="6.5" lengthAdjust="spacing" textLength="10" x="438.2412" y="402.8483">1..*</text></g><!--link VFM to List--><g id="link_VFM_List"><path codeLine="106" d="M370.96,255.115 C361.335,261.615 348.545,269.915 336.75,276.5 C323.21,284.06 313.705,278.5 305.25,291.5 C281.51,328.005 291.495,383.255 297.905,408.42 " fill="none" id="VFM-List" style="stroke:#181818;stroke-width:0.5;"/><polygon fill="#000000" points="306.6745,344.8296,309.9466,341.3791,307.2935,340.1148,306.6745,344.8296" style="stroke:#000000;stroke-width:0.5;"/><text fill="#000000" font-family="sans-serif" font-size="6.5" lengthAdjust="spacing" textLength="57" x="312.25" y="345.2642">requests creation of</text><text fill="#000000" font-family="sans-serif" font-size="6.5" lengthAdjust="spacing" textLength="3.5" x="363.5195" y="255.2274">1</text><text fill="#000000" font-family="sans-serif" font-size="6.5" lengthAdjust="spacing" textLength="10" x="285.8596" y="402.756">1..*</text></g><!--link PostalAddress to Organization--><g id="link_PostalAddress_Organization"><path codeLine="108" d="M114.5,36 C130.83,36 152.315,36 168.87,36 " fill="none" id="PostalAddress-Organization" style="stroke:#181818;stroke-width:0.5;"/><polygon fill="#000000" points="123.25,29.8228,127.7725,31.2922,127.7725,28.3533,123.25,29.8228" style="stroke:#000000;stroke-width:0.5;"/><text fill="#000000" font-family="sans-serif" font-size="6.5" lengthAdjust="spacing" textLength="29.5" x="130.25" y="32.5142">located At</text><text fill="#000000" font-family="sans-serif" font-size="6.5" lengthAdjust="spacing" textLength="3.5" x="118.4813" y="33.889">1</text><text fill="#000000" font-family="sans-serif" font-size="6.5" lengthAdjust="spacing" textLength="3.5" x="161.5548" y="33.9363">1</text></g><!--SRC=[dLJ1Rjim3BtxAuXSiWr8jrw3eK3HObYtPIkMhQTTP9csXSYIAz4Dqc7_FafoR2SrTfXFjFH8FZwIyZjbMk540uqrLjREDWZaEipySDCAkHCLRkcW4HnA4gRIKu2lHM7tobHG2kqnMuvNMXcaGujW7TKsMsei2SY2KrLDKAWGJbap2IQryFwQoAcy8xoJrcpLCyAxh5O5WbHESkveDyWX2vzbIrB4r6vj8vI1ZIrGys4C1FTQK6bT0x-p9S2gG2-TQcFEvPyiIw1lhX96FOjmp43WpuW6e_4aw6lNvEZYtnvphoZTjBKrEBb3Jg-p8UYDrLharWcoxZnehbYEGlI1HD4exqFkoL7XqFjeimGa984ofOLNZSqL5ojCaHA-ZfYxMoYiX2Xrk3A9ra3cu_VDEOT4DnPYkQQWo53LwFZmuJyTjpkbzSHpkFXayxdZxS4JXZQDHpzGD7roEH4pgU93V9ulJy6Xx_PFZovrkW-_70b7isNKthfYqlm7h1NFLCgJErOlMaqSes05KPCXN38gPzbnZs684xtEEJG4dpVnrs75l9ZAs4_vsAaardWOnfNG22FnhQnHxbPT2wN3nmwDF8mwR4RSJO0nAh6DaGRO5yxPNpobcZnGBGWCOZ5D5WKR5cDnkO3L2XPl5gTxi8PQ-A4KZd0rxtJ392hh3knGOCdxxXbv4ka8lhouO7mOnHHx5ZRWmkJz0nTVaXuwNRMZIqWJaVEWOrqdq04RXtSDqY4NDm_XCPu2JhOz8gS48rXvu3Qfoh2M_0I-d_4v9_32PU3HHr_qUxE6rjadVXMvvM5hV7WpmqCGryG7vwkiNx6ZAekuO6keqA2Rg_C8-6K23ocn9UR1N1sMdMSpFp2bqASJeVk5WbEH1zY0cndhCvS-q4dqMQySjJMLJngzp1Gt8yJcpVBaKzl2ADcIqynCrw3klVKaz7LwZJc4jb844Qw97Vy2]--></g></svg>