<?xml version="1.0" encoding="us-ascii" standalone="no"?><svg xmlns="http://www.w3.org/2000/svg" xmlns:xlink="http://www.w3.org/1999/xlink" contentStyleType="text/css" height="378px" preserveAspectRatio="none" style="width:1043px;height:378px;background:#FFFFFF;" version="1.1" viewBox="0 0 1043 378" width="1043px" zoomAndPan="magnify"><defs/><g><rect fill="#FFFFFF" height="213.4063" style="stroke:#181818;stroke-width:1.0;" width="10" x="478" y="90.5332"/><rect fill="#FFFFFF" height="42.291" style="stroke:#181818;stroke-width:1.0;" width="10" x="483" y="129.8242"/><line style="stroke:#181818;stroke-width:0.5;stroke-dasharray:5.0,5.0;" x1="483" x2="483" y1="57.2422" y2="321.9395"/><line style="stroke:#181818;stroke-width:0.5;stroke-dasharray:5.0,5.0;" x1="1010" x2="1010" y1="228.2363" y2="321.9395"/><rect fill="#E3E3E3" height="51.2422" rx="2.5" ry="2.5" style="stroke:#181818;stroke-width:0.5;" width="164" x="401" y="5"/><text fill="#000000" font-family="sans-serif" font-size="14" lengthAdjust="spacing" textLength="147" x="409.5" y="27.1074">:collaboratorRepository</text><text fill="#000000" font-family="sans-serif" font-size="14" lengthAdjust="spacing" textLength="150" x="408" y="45.7285">:CollaboratorRepository</text><rect fill="#E3E3E3" height="51.2422" rx="2.5" ry="2.5" style="stroke:#181818;stroke-width:0.5;" width="164" x="401" y="320.9395"/><text fill="#000000" font-family="sans-serif" font-size="14" lengthAdjust="spacing" textLength="147" x="409.5" y="343.0469">:collaboratorRepository</text><text fill="#000000" font-family="sans-serif" font-size="14" lengthAdjust="spacing" textLength="150" x="408" y="361.668">:CollaboratorRepository</text><rect fill="#E3E3E3" height="51.2422" rx="2.5" ry="2.5" style="stroke:#181818;stroke-width:0.5;" width="54" x="983" y="320.9395"/><text fill="#000000" font-family="sans-serif" font-size="14" lengthAdjust="spacing" textLength="31" x="994.5" y="343.0469">team</text><text fill="#000000" font-family="sans-serif" font-size="14" lengthAdjust="spacing" textLength="40" x="990" y="361.668">:Team</text><rect fill="#FFFFFF" height="213.4063" style="stroke:#181818;stroke-width:1.0;" width="10" x="478" y="90.5332"/><rect fill="#FFFFFF" height="42.291" style="stroke:#181818;stroke-width:1.0;" width="10" x="483" y="129.8242"/><polygon fill="#181818" points="466,86.5332,476,90.5332,466,94.5332,470,90.5332" style="stroke:#181818;stroke-width:1.0;"/><line style="stroke:#181818;stroke-width:1.0;" x1="0" x2="472" y1="90.5332" y2="90.5332"/><text fill="#000000" font-family="sans-serif" font-size="13" font-weight="bold" lengthAdjust="spacing" textLength="7" x="7" y="85.2705">1</text><text fill="#000000" font-family="sans-serif" font-size="13" lengthAdjust="spacing" textLength="448" x="18" y="85.2705">generateTeam(int maxTeamSize, int minTeamSize, List&lt;Skill&gt; requiredSkills)</text><line style="stroke:#181818;stroke-width:1.0;" x1="488" x2="535" y1="116.8242" y2="116.8242"/><line style="stroke:#181818;stroke-width:1.0;" x1="535" x2="535" y1="116.8242" y2="129.8242"/><line style="stroke:#181818;stroke-width:1.0;" x1="494" x2="535" y1="129.8242" y2="129.8242"/><polygon fill="#181818" points="504,125.8242,494,129.8242,504,133.8242,500,129.8242" style="stroke:#181818;stroke-width:1.0;"/><text fill="#000000" font-family="sans-serif" font-size="13" font-weight="bold" lengthAdjust="spacing" textLength="7" x="500" y="111.5615">2</text><text fill="#000000" font-family="sans-serif" font-size="13" lengthAdjust="spacing" textLength="492" x="511" y="111.5615">filterCollaboratorsBySkills(List&lt;Collaborator&gt; collaborators, List&lt;Skill&gt; requiredSkills)</text><line style="stroke:#181818;stroke-width:1.0;stroke-dasharray:2.0,2.0;" x1="493" x2="535" y1="171.1152" y2="171.1152"/><line style="stroke:#181818;stroke-width:1.0;stroke-dasharray:2.0,2.0;" x1="535" x2="535" y1="171.1152" y2="184.1152"/><line style="stroke:#181818;stroke-width:1.0;stroke-dasharray:2.0,2.0;" x1="488" x2="535" y1="184.1152" y2="184.1152"/><polygon fill="#181818" points="498,180.1152,488,184.1152,498,188.1152,494,184.1152" style="stroke:#181818;stroke-width:1.0;"/><text fill="#000000" font-family="sans-serif" font-size="13" font-weight="bold" lengthAdjust="spacing" textLength="7" x="500" y="165.8525">3</text><text fill="#000000" font-family="sans-serif" font-size="13" lengthAdjust="spacing" textLength="121" x="511" y="165.8525">qualifiedcollaborators</text><polygon fill="#181818" points="971,206.4063,981,210.4063,971,214.4063,975,210.4063" style="stroke:#181818;stroke-width:1.0;"/><line style="stroke:#181818;stroke-width:1.0;" x1="488" x2="977" y1="210.4063" y2="210.4063"/><text fill="#000000" font-family="sans-serif" font-size="13" font-weight="bold" lengthAdjust="spacing" textLength="7" x="495" y="205.1436">4</text><text fill="#000000" font-family="sans-serif" font-size="13" lengthAdjust="spacing" textLength="36" x="506" y="205.1436">create</text><rect fill="#E3E3E3" height="51.2422" rx="2.5" ry="2.5" style="stroke:#181818;stroke-width:0.5;" width="54" x="983" y="187.1152"/><text fill="#000000" font-family="sans-serif" font-size="14" lengthAdjust="spacing" textLength="31" x="994.5" y="209.2227">team</text><text fill="#000000" font-family="sans-serif" font-size="14" lengthAdjust="spacing" textLength="40" x="990" y="227.8438">:Team</text><polygon fill="#181818" points="998,268.6484,1008,272.6484,998,276.6484,1002,272.6484" style="stroke:#181818;stroke-width:1.0;"/><line style="stroke:#181818;stroke-width:1.0;" x1="488" x2="1004" y1="272.6484" y2="272.6484"/><text fill="#000000" font-family="sans-serif" font-size="13" font-weight="bold" lengthAdjust="spacing" textLength="7" x="495" y="267.3857">5</text><text fill="#000000" font-family="sans-serif" font-size="13" lengthAdjust="spacing" textLength="189" x="506" y="267.3857">add(qualifiedCollaborators.get(i));</text><polygon fill="#181818" points="11,299.9395,1,303.9395,11,307.9395,7,303.9395" style="stroke:#181818;stroke-width:1.0;"/><line style="stroke:#181818;stroke-width:1.0;stroke-dasharray:2.0,2.0;" x1="5" x2="482" y1="303.9395" y2="303.9395"/><text fill="#000000" font-family="sans-serif" font-size="13" font-weight="bold" lengthAdjust="spacing" textLength="7" x="17" y="298.6768">6</text><text fill="#000000" font-family="sans-serif" font-size="13" lengthAdjust="spacing" textLength="29" x="28" y="298.6768">team</text><!--SRC=[dLB1JiCm3BtdAwnTw2RA1vIf4amSa3Z01ZSkNk9srjAaIrBO-7hI3aOhCRJXInpRx_dPYL-pgT5X1PKrLgwShGY2QqZuGwP6kSQI5c6d2Hp9WARK_GA_GcNVsPHGeFOa13R1cgPQaXFYOiMAeB0sBErMH41WoJMQ0ADCMgrnQHq6w-PKMy_HsRsQRFPhOWJeOJOVaWJ2AYAUuz7bxvvUxXzlH3JeMPf7O0Ob6Ogar5Od7E4LRbj_mHzq2Ls0pK_WWNsOBjQiTHu7tpJiI7LNFnwmzmrbuBVOeXLwjAYrsVnRLS4waElFx6zt-pv99w6Vog6_DVy_aMSB_LAwQL1pmQG66lv4Apfp8_i7d4moa8uYx7HC1gXKSj0uMEXLII7XyVZwEDqqJLkw3Del9KwQvnC0]--></g></svg>