<?xml version="1.0" encoding="us-ascii" standalone="no"?><svg xmlns="http://www.w3.org/2000/svg" xmlns:xlink="http://www.w3.org/1999/xlink" contentStyleType="text/css" height="1246px" preserveAspectRatio="none" style="width:2378px;height:1246px;background:#FFFFFF;" version="1.1" viewBox="0 0 2378 1246" width="2378px" zoomAndPan="magnify"><defs/><g><rect fill="#FFFFFF" height="1051.6523" style="stroke:#181818;stroke-width:1.0;" width="10" x="91" y="93.6211"/><rect fill="#FFFFFF" height="137.4941" style="stroke:#181818;stroke-width:1.0;" width="10" x="502" y="116.9121"/><rect fill="#FFFFFF" height="187.7461" style="stroke:#181818;stroke-width:1.0;" width="10" x="502" y="285.6973"/><rect fill="#FFFFFF" height="649.5391" style="stroke:#181818;stroke-width:1.0;" width="10" x="502" y="504.7344"/><rect fill="#FFFFFF" height="31.291" style="stroke:#181818;stroke-width:1.0;" width="10" x="997" y="191.8242"/><rect fill="#FFFFFF" height="62.582" style="stroke:#181818;stroke-width:1.0;" width="10" x="997" y="646.8594"/><rect fill="#FFFFFF" height="90.543" style="stroke:#181818;stroke-width:1.0;" width="10" x="997" y="773.7324"/><rect fill="#FFFFFF" height="31.291" style="stroke:#181818;stroke-width:1.0;" width="10" x="1161" y="191.8242"/><rect fill="#FFFFFF" height="31.291" style="stroke:#181818;stroke-width:1.0;" width="10" x="1161" y="316.9883"/><rect fill="#FFFFFF" height="31.291" style="stroke:#181818;stroke-width:1.0;" width="10" x="1268" y="410.8613"/><rect fill="#FFFFFF" height="31.291" style="stroke:#181818;stroke-width:1.0;" width="10" x="1268" y="678.1504"/><line style="stroke:#181818;stroke-width:0.5;stroke-dasharray:5.0,5.0;" x1="96" x2="96" y1="83.6211" y2="1163.2734"/><line style="stroke:#181818;stroke-width:0.5;stroke-dasharray:5.0,5.0;" x1="506.5" x2="506.5" y1="83.6211" y2="1163.2734"/><line style="stroke:#181818;stroke-width:0.5;stroke-dasharray:5.0,5.0;" x1="1001.5" x2="1001.5" y1="156.7227" y2="1163.2734"/><line style="stroke:#181818;stroke-width:0.5;stroke-dasharray:5.0,5.0;" x1="1165.5" x2="1165.5" y1="83.6211" y2="1163.2734"/><line style="stroke:#181818;stroke-width:0.5;stroke-dasharray:5.0,5.0;" x1="1272.5" x2="1272.5" y1="83.6211" y2="1163.2734"/><line style="stroke:#181818;stroke-width:0.5;stroke-dasharray:5.0,5.0;" x1="1385.5" x2="1385.5" y1="83.6211" y2="1163.2734"/><line style="stroke:#181818;stroke-width:0.5;stroke-dasharray:5.0,5.0;" x1="1532.5" x2="1532.5" y1="83.6211" y2="1163.2734"/><line style="stroke:#181818;stroke-width:0.5;stroke-dasharray:5.0,5.0;" x1="1692.5" x2="1692.5" y1="83.6211" y2="1163.2734"/><line style="stroke:#181818;stroke-width:0.5;stroke-dasharray:5.0,5.0;" x1="1839.5" x2="1839.5" y1="83.6211" y2="1163.2734"/><line style="stroke:#181818;stroke-width:0.5;stroke-dasharray:5.0,5.0;" x1="1972.5" x2="1972.5" y1="83.6211" y2="1163.2734"/><line style="stroke:#181818;stroke-width:0.5;stroke-dasharray:5.0,5.0;" x1="2118.5" x2="2118.5" y1="83.6211" y2="1163.2734"/><line style="stroke:#181818;stroke-width:0.5;stroke-dasharray:5.0,5.0;" x1="2259.5" x2="2259.5" y1="83.6211" y2="1163.2734"/><line style="stroke:#181818;stroke-width:0.5;stroke-dasharray:5.0,5.0;" x1="2345.5" x2="2345.5" y1="83.6211" y2="1163.2734"/><text fill="#000000" font-family="sans-serif" font-size="14" lengthAdjust="spacing" textLength="176" x="5" y="80.1074">Human Resources Manager</text><ellipse cx="96" cy="13.5" fill="#E3E3E3" rx="8" ry="8" style="stroke:#181818;stroke-width:0.5;"/><path d="M96,21.5 L96,48.5 M83,29.5 L109,29.5 M96,48.5 L83,63.5 M96,48.5 L109,63.5 " fill="none" style="stroke:#181818;stroke-width:0.5;"/><text fill="#000000" font-family="sans-serif" font-size="14" lengthAdjust="spacing" textLength="176" x="5" y="1177.3809">Human Resources Manager</text><ellipse cx="96" cy="1189.3945" fill="#E3E3E3" rx="8" ry="8" style="stroke:#181818;stroke-width:0.5;"/><path d="M96,1197.3945 L96,1224.3945 M83,1205.3945 L109,1205.3945 M96,1224.3945 L83,1239.3945 M96,1224.3945 L109,1239.3945 " fill="none" style="stroke:#181818;stroke-width:0.5;"/><rect fill="#E3E3E3" height="32.6211" rx="2.5" ry="2.5" style="stroke:#181818;stroke-width:0.5;" width="131" x="441.5" y="50"/><text fill="#000000" font-family="sans-serif" font-size="14" lengthAdjust="spacing" textLength="117" x="448.5" y="72.1074">:TeamGeneratorUI</text><rect fill="#E3E3E3" height="32.6211" rx="2.5" ry="2.5" style="stroke:#181818;stroke-width:0.5;" width="131" x="441.5" y="1162.2734"/><text fill="#000000" font-family="sans-serif" font-size="14" lengthAdjust="spacing" textLength="117" x="448.5" y="1184.3809">:TeamGeneratorUI</text><rect fill="#E3E3E3" height="32.6211" rx="2.5" ry="2.5" style="stroke:#181818;stroke-width:0.5;" width="181" x="911.5" y="1162.2734"/><text fill="#000000" font-family="sans-serif" font-size="14" lengthAdjust="spacing" textLength="167" x="918.5" y="1184.3809">:TeamGeneratorController</text><rect fill="#E3E3E3" height="32.6211" rx="2.5" ry="2.5" style="stroke:#181818;stroke-width:0.5;" width="97" x="1117.5" y="50"/><text fill="#000000" font-family="sans-serif" font-size="14" lengthAdjust="spacing" textLength="83" x="1124.5" y="72.1074">:Repositories</text><rect fill="#E3E3E3" height="32.6211" rx="2.5" ry="2.5" style="stroke:#181818;stroke-width:0.5;" width="97" x="1117.5" y="1162.2734"/><text fill="#000000" font-family="sans-serif" font-size="14" lengthAdjust="spacing" textLength="83" x="1124.5" y="1184.3809">:Repositories</text><rect fill="#E3E3E3" height="51.2422" rx="2.5" ry="2.5" style="stroke:#181818;stroke-width:0.5;" width="97" x="1224.5" y="31.3789"/><text fill="#000000" font-family="sans-serif" font-size="14" lengthAdjust="spacing" textLength="74" x="1236" y="53.4863">repositories</text><text fill="#000000" font-family="sans-serif" font-size="14" lengthAdjust="spacing" textLength="83" x="1231.5" y="72.1074">:Repositories</text><rect fill="#E3E3E3" height="51.2422" rx="2.5" ry="2.5" style="stroke:#181818;stroke-width:0.5;" width="97" x="1224.5" y="1162.2734"/><text fill="#000000" font-family="sans-serif" font-size="14" lengthAdjust="spacing" textLength="74" x="1236" y="1184.3809">repositories</text><text fill="#000000" font-family="sans-serif" font-size="14" lengthAdjust="spacing" textLength="83" x="1231.5" y="1203.002">:Repositories</text><rect fill="#E3E3E3" height="51.2422" rx="2.5" ry="2.5" style="stroke:#181818;stroke-width:0.5;" width="109" x="1331.5" y="31.3789"/><text fill="#000000" font-family="sans-serif" font-size="14" lengthAdjust="spacing" textLength="95" x="1338.5" y="53.4863">skillRepository:</text><text fill="#000000" font-family="sans-serif" font-size="14" lengthAdjust="spacing" textLength="93" x="1339.5" y="72.1074">SkillRepository</text><rect fill="#E3E3E3" height="51.2422" rx="2.5" ry="2.5" style="stroke:#181818;stroke-width:0.5;" width="109" x="1331.5" y="1162.2734"/><text fill="#000000" font-family="sans-serif" font-size="14" lengthAdjust="spacing" textLength="95" x="1338.5" y="1184.3809">skillRepository:</text><text fill="#000000" font-family="sans-serif" font-size="14" lengthAdjust="spacing" textLength="93" x="1339.5" y="1203.002">SkillRepository</text><rect fill="#E3E3E3" height="51.2422" rx="2.5" ry="2.5" style="stroke:#181818;stroke-width:0.5;" width="164" x="1450.5" y="31.3789"/><text fill="#000000" font-family="sans-serif" font-size="14" lengthAdjust="spacing" textLength="150" x="1457.5" y="53.4863">CollaboratorRepository:</text><text fill="#000000" font-family="sans-serif" font-size="14" lengthAdjust="spacing" textLength="143" x="1461" y="72.1074">collaboratorRepository</text><rect fill="#E3E3E3" height="51.2422" rx="2.5" ry="2.5" style="stroke:#181818;stroke-width:0.5;" width="164" x="1450.5" y="1162.2734"/><text fill="#000000" font-family="sans-serif" font-size="14" lengthAdjust="spacing" textLength="150" x="1457.5" y="1184.3809">CollaboratorRepository:</text><text fill="#000000" font-family="sans-serif" font-size="14" lengthAdjust="spacing" textLength="143" x="1461" y="1203.002">collaboratorRepository</text><rect fill="#E3E3E3" height="32.6211" rx="2.5" ry="2.5" style="stroke:#181818;stroke-width:0.5;" width="137" x="1624.5" y="50"/><text fill="#000000" font-family="sans-serif" font-size="14" lengthAdjust="spacing" textLength="123" x="1631.5" y="72.1074">:ApplicationSession</text><rect fill="#E3E3E3" height="32.6211" rx="2.5" ry="2.5" style="stroke:#181818;stroke-width:0.5;" width="137" x="1624.5" y="1162.2734"/><text fill="#000000" font-family="sans-serif" font-size="14" lengthAdjust="spacing" textLength="123" x="1631.5" y="1184.3809">:ApplicationSession</text><rect fill="#E3E3E3" height="51.2422" rx="2.5" ry="2.5" style="stroke:#181818;stroke-width:0.5;" width="137" x="1771.5" y="31.3789"/><text fill="#000000" font-family="sans-serif" font-size="14" lengthAdjust="spacing" textLength="74" x="1803" y="53.4863">appSession</text><text fill="#000000" font-family="sans-serif" font-size="14" lengthAdjust="spacing" textLength="123" x="1778.5" y="72.1074">:ApplicationSession</text><rect fill="#E3E3E3" height="51.2422" rx="2.5" ry="2.5" style="stroke:#181818;stroke-width:0.5;" width="137" x="1771.5" y="1162.2734"/><text fill="#000000" font-family="sans-serif" font-size="14" lengthAdjust="spacing" textLength="74" x="1803" y="1184.3809">appSession</text><text fill="#000000" font-family="sans-serif" font-size="14" lengthAdjust="spacing" textLength="123" x="1778.5" y="1203.002">:ApplicationSession</text><rect fill="#E3E3E3" height="51.2422" rx="2.5" ry="2.5" style="stroke:#181818;stroke-width:0.5;" width="109" x="1918.5" y="31.3789"/><text fill="#000000" font-family="sans-serif" font-size="14" lengthAdjust="spacing" textLength="95" x="1925.5" y="53.4863">currentSession</text><text fill="#000000" font-family="sans-serif" font-size="14" lengthAdjust="spacing" textLength="83" x="1931.5" y="72.1074">:UserSession</text><rect fill="#E3E3E3" height="51.2422" rx="2.5" ry="2.5" style="stroke:#181818;stroke-width:0.5;" width="109" x="1918.5" y="1162.2734"/><text fill="#000000" font-family="sans-serif" font-size="14" lengthAdjust="spacing" textLength="95" x="1925.5" y="1184.3809">currentSession</text><text fill="#000000" font-family="sans-serif" font-size="14" lengthAdjust="spacing" textLength="83" x="1931.5" y="1203.002">:UserSession</text><rect fill="#E3E3E3" height="51.2422" rx="2.5" ry="2.5" style="stroke:#181818;stroke-width:0.5;" width="163" x="2037.5" y="31.3789"/><text fill="#000000" font-family="sans-serif" font-size="14" lengthAdjust="spacing" textLength="149" x="2044.5" y="53.4863">organizationRepository:</text><text fill="#000000" font-family="sans-serif" font-size="14" lengthAdjust="spacing" textLength="148" x="2045" y="72.1074">OrganizationRepository</text><rect fill="#E3E3E3" height="51.2422" rx="2.5" ry="2.5" style="stroke:#181818;stroke-width:0.5;" width="163" x="2037.5" y="1162.2734"/><text fill="#000000" font-family="sans-serif" font-size="14" lengthAdjust="spacing" textLength="149" x="2044.5" y="1184.3809">organizationRepository:</text><text fill="#000000" font-family="sans-serif" font-size="14" lengthAdjust="spacing" textLength="148" x="2045" y="1203.002">OrganizationRepository</text><rect fill="#E3E3E3" height="51.2422" rx="2.5" ry="2.5" style="stroke:#181818;stroke-width:0.5;" width="98" x="2210.5" y="31.3789"/><text fill="#000000" font-family="sans-serif" font-size="14" lengthAdjust="spacing" textLength="77" x="2221" y="53.4863">organization</text><text fill="#000000" font-family="sans-serif" font-size="14" lengthAdjust="spacing" textLength="84" x="2217.5" y="72.1074">:Organization</text><rect fill="#E3E3E3" height="51.2422" rx="2.5" ry="2.5" style="stroke:#181818;stroke-width:0.5;" width="98" x="2210.5" y="1162.2734"/><text fill="#000000" font-family="sans-serif" font-size="14" lengthAdjust="spacing" textLength="77" x="2221" y="1184.3809">organization</text><text fill="#000000" font-family="sans-serif" font-size="14" lengthAdjust="spacing" textLength="84" x="2217.5" y="1203.002">:Organization</text><rect fill="#E3E3E3" height="51.2422" rx="2.5" ry="2.5" style="stroke:#181818;stroke-width:0.5;" width="54" x="2318.5" y="31.3789"/><text fill="#000000" font-family="sans-serif" font-size="14" lengthAdjust="spacing" textLength="31" x="2330" y="53.4863">team</text><text fill="#000000" font-family="sans-serif" font-size="14" lengthAdjust="spacing" textLength="40" x="2325.5" y="72.1074">:Team</text><rect fill="#E3E3E3" height="51.2422" rx="2.5" ry="2.5" style="stroke:#181818;stroke-width:0.5;" width="54" x="2318.5" y="1162.2734"/><text fill="#000000" font-family="sans-serif" font-size="14" lengthAdjust="spacing" textLength="31" x="2330" y="1184.3809">team</text><text fill="#000000" font-family="sans-serif" font-size="14" lengthAdjust="spacing" textLength="40" x="2325.5" y="1203.002">:Team</text><rect fill="#FFFFFF" height="1051.6523" style="stroke:#181818;stroke-width:1.0;" width="10" x="91" y="93.6211"/><rect fill="#FFFFFF" height="137.4941" style="stroke:#181818;stroke-width:1.0;" width="10" x="502" y="116.9121"/><rect fill="#FFFFFF" height="187.7461" style="stroke:#181818;stroke-width:1.0;" width="10" x="502" y="285.6973"/><rect fill="#FFFFFF" height="649.5391" style="stroke:#181818;stroke-width:1.0;" width="10" x="502" y="504.7344"/><rect fill="#FFFFFF" height="31.291" style="stroke:#181818;stroke-width:1.0;" width="10" x="997" y="191.8242"/><rect fill="#FFFFFF" height="62.582" style="stroke:#181818;stroke-width:1.0;" width="10" x="997" y="646.8594"/><rect fill="#FFFFFF" height="90.543" style="stroke:#181818;stroke-width:1.0;" width="10" x="997" y="773.7324"/><rect fill="#FFFFFF" height="31.291" style="stroke:#181818;stroke-width:1.0;" width="10" x="1161" y="191.8242"/><rect fill="#FFFFFF" height="31.291" style="stroke:#181818;stroke-width:1.0;" width="10" x="1161" y="316.9883"/><rect fill="#FFFFFF" height="31.291" style="stroke:#181818;stroke-width:1.0;" width="10" x="1268" y="410.8613"/><rect fill="#FFFFFF" height="31.291" style="stroke:#181818;stroke-width:1.0;" width="10" x="1268" y="678.1504"/><polygon fill="#181818" points="490,112.9121,500,116.9121,490,120.9121,494,116.9121" style="stroke:#181818;stroke-width:1.0;"/><line style="stroke:#181818;stroke-width:1.0;" x1="101" x2="496" y1="116.9121" y2="116.9121"/><text fill="#000000" font-family="sans-serif" font-size="13" font-weight="bold" lengthAdjust="spacing" textLength="7" x="108" y="111.6494">1</text><text fill="#000000" font-family="sans-serif" font-size="13" lengthAdjust="spacing" textLength="130" x="119" y="111.6494">asks to generate team</text><polygon fill="#181818" points="899.5,144.2031,909.5,148.2031,899.5,152.2031,903.5,148.2031" style="stroke:#181818;stroke-width:1.0;"/><line style="stroke:#181818;stroke-width:1.0;" x1="512" x2="905.5" y1="148.2031" y2="148.2031"/><text fill="#000000" font-family="sans-serif" font-size="13" font-weight="bold" lengthAdjust="spacing" textLength="7" x="519" y="142.9404">2</text><text fill="#000000" font-family="sans-serif" font-size="13" lengthAdjust="spacing" textLength="36" x="530" y="142.9404">create</text><rect fill="#E3E3E3" height="32.6211" rx="2.5" ry="2.5" style="stroke:#181818;stroke-width:0.5;" width="181" x="911.5" y="124.9121"/><text fill="#000000" font-family="sans-serif" font-size="14" lengthAdjust="spacing" textLength="167" x="918.5" y="147.0195">:TeamGeneratorController</text><polygon fill="#181818" points="1149,187.8242,1159,191.8242,1149,195.8242,1153,191.8242" style="stroke:#181818;stroke-width:1.0;"/><line style="stroke:#181818;stroke-width:1.0;" x1="1007" x2="1155" y1="191.8242" y2="191.8242"/><text fill="#000000" font-family="sans-serif" font-size="13" font-weight="bold" lengthAdjust="spacing" textLength="7" x="1014" y="186.5615">3</text><text fill="#000000" font-family="sans-serif" font-size="13" lengthAdjust="spacing" textLength="75" x="1025" y="186.5615">getInstance()</text><polygon fill="#181818" points="1013,219.1152,1003,223.1152,1013,227.1152,1009,223.1152" style="stroke:#181818;stroke-width:1.0;"/><line style="stroke:#181818;stroke-width:1.0;stroke-dasharray:2.0,2.0;" x1="1007" x2="1165" y1="223.1152" y2="223.1152"/><text fill="#000000" font-family="sans-serif" font-size="13" font-weight="bold" lengthAdjust="spacing" textLength="7" x="1019" y="217.8525">4</text><text fill="#000000" font-family="sans-serif" font-size="13" lengthAdjust="spacing" textLength="67" x="1030" y="217.8525">repositories</text><polygon fill="#181818" points="112,250.4063,102,254.4063,112,258.4063,108,254.4063" style="stroke:#181818;stroke-width:1.0;"/><line style="stroke:#181818;stroke-width:1.0;stroke-dasharray:2.0,2.0;" x1="106" x2="506" y1="254.4063" y2="254.4063"/><text fill="#000000" font-family="sans-serif" font-size="13" font-weight="bold" lengthAdjust="spacing" textLength="7" x="118" y="249.1436">5</text><text fill="#000000" font-family="sans-serif" font-size="13" lengthAdjust="spacing" textLength="250" x="129" y="249.1436">asks for minimum and maximum team size</text><polygon fill="#181818" points="490,281.6973,500,285.6973,490,289.6973,494,285.6973" style="stroke:#181818;stroke-width:1.0;"/><line style="stroke:#181818;stroke-width:1.0;" x1="101" x2="496" y1="285.6973" y2="285.6973"/><text fill="#000000" font-family="sans-serif" font-size="13" font-weight="bold" lengthAdjust="spacing" textLength="7" x="108" y="280.4346">6</text><text fill="#000000" font-family="sans-serif" font-size="13" lengthAdjust="spacing" textLength="239" x="119" y="280.4346">inputs minimum and maximum team size</text><polygon fill="#181818" points="1149,312.9883,1159,316.9883,1149,320.9883,1153,316.9883" style="stroke:#181818;stroke-width:1.0;"/><line style="stroke:#181818;stroke-width:1.0;" x1="1002" x2="1155" y1="316.9883" y2="316.9883"/><text fill="#000000" font-family="sans-serif" font-size="13" font-weight="bold" lengthAdjust="spacing" textLength="7" x="1009" y="311.7256">7</text><text fill="#000000" font-family="sans-serif" font-size="13" lengthAdjust="spacing" textLength="75" x="1020" y="311.7256">getInstance()</text><polygon fill="#181818" points="1013,344.2793,1003,348.2793,1013,352.2793,1009,348.2793" style="stroke:#181818;stroke-width:1.0;"/><line style="stroke:#181818;stroke-width:1.0;stroke-dasharray:2.0,2.0;" x1="1007" x2="1165" y1="348.2793" y2="348.2793"/><text fill="#000000" font-family="sans-serif" font-size="13" font-weight="bold" lengthAdjust="spacing" textLength="7" x="1019" y="343.0166">8</text><text fill="#000000" font-family="sans-serif" font-size="13" lengthAdjust="spacing" textLength="67" x="1030" y="343.0166">repositories</text><polygon fill="#181818" points="990,375.5703,1000,379.5703,990,383.5703,994,379.5703" style="stroke:#181818;stroke-width:1.0;"/><line style="stroke:#181818;stroke-width:1.0;" x1="512" x2="996" y1="379.5703" y2="379.5703"/><text fill="#000000" font-family="sans-serif" font-size="13" font-weight="bold" lengthAdjust="spacing" textLength="7" x="519" y="374.3076">9</text><text fill="#000000" font-family="sans-serif" font-size="13" lengthAdjust="spacing" textLength="113" x="530" y="374.3076">getSkillRepository()</text><polygon fill="#181818" points="1256,406.8613,1266,410.8613,1256,414.8613,1260,410.8613" style="stroke:#181818;stroke-width:1.0;"/><line style="stroke:#181818;stroke-width:1.0;" x1="1002" x2="1262" y1="410.8613" y2="410.8613"/><text fill="#000000" font-family="sans-serif" font-size="13" font-weight="bold" lengthAdjust="spacing" textLength="14" x="1009" y="405.5986">10</text><text fill="#000000" font-family="sans-serif" font-size="13" lengthAdjust="spacing" textLength="113" x="1027" y="405.5986">getSkillRepository()</text><polygon fill="#181818" points="1013,438.1523,1003,442.1523,1013,446.1523,1009,442.1523" style="stroke:#181818;stroke-width:1.0;"/><line style="stroke:#181818;stroke-width:1.0;" x1="1007" x2="1272" y1="442.1523" y2="442.1523"/><text fill="#000000" font-family="sans-serif" font-size="13" font-weight="bold" lengthAdjust="spacing" textLength="14" x="1019" y="436.8896">11</text><text fill="#000000" font-family="sans-serif" font-size="13" lengthAdjust="spacing" textLength="85" x="1037" y="436.8896">skillRepository</text><polygon fill="#181818" points="112,469.4434,102,473.4434,112,477.4434,108,473.4434" style="stroke:#181818;stroke-width:1.0;"/><line style="stroke:#181818;stroke-width:1.0;" x1="106" x2="506" y1="473.4434" y2="473.4434"/><text fill="#000000" font-family="sans-serif" font-size="13" font-weight="bold" lengthAdjust="spacing" textLength="14" x="118" y="468.1807">12</text><text fill="#000000" font-family="sans-serif" font-size="13" lengthAdjust="spacing" textLength="170" x="136" y="468.1807">asks to type suggested skills</text><polygon fill="#181818" points="490,500.7344,500,504.7344,490,508.7344,494,504.7344" style="stroke:#181818;stroke-width:1.0;"/><line style="stroke:#181818;stroke-width:1.0;" x1="101" x2="496" y1="504.7344" y2="504.7344"/><text fill="#000000" font-family="sans-serif" font-size="13" font-weight="bold" lengthAdjust="spacing" textLength="14" x="108" y="499.4717">13</text><text fill="#000000" font-family="sans-serif" font-size="13" lengthAdjust="spacing" textLength="66" x="126" y="499.4717">types skills</text><rect fill="none" height="43.252" style="stroke:#000000;stroke-width:1.5;" width="137" x="438.5" y="512.7344"/><path d="M438.5,512.7344 L500.5,512.7344 L500.5,521.7344 L490.5,531.7344 L438.5,531.7344 L438.5,512.7344 " fill="#EEEEEE" style="stroke:#000000;stroke-width:2.0;"/><text fill="#000000" font-family="sans-serif" font-size="13" font-weight="bold" lengthAdjust="spacing" textLength="17" x="451.5" y="528.7627">ref</text><text fill="#000000" font-family="sans-serif" font-size="12" lengthAdjust="spacing" textLength="106" x="454" y="548.6836">Get Required Skills</text><polygon fill="#181818" points="112,580.2773,102,584.2773,112,588.2773,108,584.2773" style="stroke:#181818;stroke-width:1.0;"/><line style="stroke:#181818;stroke-width:1.0;" x1="106" x2="501" y1="584.2773" y2="584.2773"/><text fill="#000000" font-family="sans-serif" font-size="13" font-weight="bold" lengthAdjust="spacing" textLength="14" x="118" y="579.0146">14</text><text fill="#000000" font-family="sans-serif" font-size="13" lengthAdjust="spacing" textLength="359" x="136" y="579.0146">shows team size and selected skills and asks for confirmation</text><polygon fill="#181818" points="490,611.5684,500,615.5684,490,619.5684,494,615.5684" style="stroke:#181818;stroke-width:1.0;"/><line style="stroke:#181818;stroke-width:1.0;" x1="101" x2="496" y1="615.5684" y2="615.5684"/><text fill="#000000" font-family="sans-serif" font-size="13" font-weight="bold" lengthAdjust="spacing" textLength="14" x="108" y="610.3057">15</text><text fill="#000000" font-family="sans-serif" font-size="13" lengthAdjust="spacing" textLength="78" x="126" y="610.3057">confirms data</text><polygon fill="#181818" points="985,642.8594,995,646.8594,985,650.8594,989,646.8594" style="stroke:#181818;stroke-width:1.0;"/><line style="stroke:#181818;stroke-width:1.0;" x1="512" x2="991" y1="646.8594" y2="646.8594"/><text fill="#000000" font-family="sans-serif" font-size="13" font-weight="bold" lengthAdjust="spacing" textLength="14" x="519" y="641.5967">16</text><text fill="#000000" font-family="sans-serif" font-size="13" lengthAdjust="spacing" textLength="157" x="537" y="641.5967">getCollaboratorRepository()</text><polygon fill="#181818" points="1256,674.1504,1266,678.1504,1256,682.1504,1260,678.1504" style="stroke:#181818;stroke-width:1.0;"/><line style="stroke:#181818;stroke-width:1.0;" x1="1007" x2="1262" y1="678.1504" y2="678.1504"/><text fill="#000000" font-family="sans-serif" font-size="13" font-weight="bold" lengthAdjust="spacing" textLength="14" x="1014" y="672.8877">17</text><text fill="#000000" font-family="sans-serif" font-size="13" lengthAdjust="spacing" textLength="157" x="1032" y="672.8877">getCollaboratorRepository()</text><polygon fill="#181818" points="1013,705.4414,1003,709.4414,1013,713.4414,1009,709.4414" style="stroke:#181818;stroke-width:1.0;"/><line style="stroke:#181818;stroke-width:1.0;" x1="1007" x2="1272" y1="709.4414" y2="709.4414"/><text fill="#000000" font-family="sans-serif" font-size="13" font-weight="bold" lengthAdjust="spacing" textLength="14" x="1019" y="704.1787">18</text><text fill="#000000" font-family="sans-serif" font-size="13" lengthAdjust="spacing" textLength="129" x="1037" y="704.1787">collaboratorRepository</text><line style="stroke:#181818;stroke-width:1.0;" x1="1002" x2="1049" y1="760.7324" y2="760.7324"/><line style="stroke:#181818;stroke-width:1.0;" x1="1049" x2="1049" y1="760.7324" y2="773.7324"/><line style="stroke:#181818;stroke-width:1.0;" x1="1008" x2="1049" y1="773.7324" y2="773.7324"/><polygon fill="#181818" points="1018,769.7324,1008,773.7324,1018,777.7324,1014,773.7324" style="stroke:#181818;stroke-width:1.0;"/><text fill="#000000" font-family="sans-serif" font-size="13" font-weight="bold" lengthAdjust="spacing" textLength="14" x="1014" y="755.4697">19</text><text fill="#000000" font-family="sans-serif" font-size="13" lengthAdjust="spacing" textLength="132" x="1032" y="755.4697">getHRMFromSession()</text><rect fill="none" height="43.252" style="stroke:#000000;stroke-width:1.5;" width="187" x="908.5" y="786.7324"/><path d="M908.5,786.7324 L970.5,786.7324 L970.5,795.7324 L960.5,805.7324 L908.5,805.7324 L908.5,786.7324 " fill="#EEEEEE" style="stroke:#000000;stroke-width:2.0;"/><text fill="#000000" font-family="sans-serif" font-size="13" font-weight="bold" lengthAdjust="spacing" textLength="17" x="921.5" y="802.7607">ref</text><text fill="#000000" font-family="sans-serif" font-size="12" lengthAdjust="spacing" textLength="49" x="977.5" y="822.6816">Get HRM</text><line style="stroke:#181818;stroke-width:1.0;stroke-dasharray:2.0,2.0;" x1="1007" x2="1049" y1="863.2754" y2="863.2754"/><line style="stroke:#181818;stroke-width:1.0;stroke-dasharray:2.0,2.0;" x1="1049" x2="1049" y1="863.2754" y2="876.2754"/><line style="stroke:#181818;stroke-width:1.0;stroke-dasharray:2.0,2.0;" x1="1002" x2="1049" y1="876.2754" y2="876.2754"/><polygon fill="#181818" points="1012,872.2754,1002,876.2754,1012,880.2754,1008,876.2754" style="stroke:#181818;stroke-width:1.0;"/><text fill="#000000" font-family="sans-serif" font-size="13" font-weight="bold" lengthAdjust="spacing" textLength="14" x="1014" y="858.0127">20</text><text fill="#000000" font-family="sans-serif" font-size="13" lengthAdjust="spacing" textLength="22" x="1032" y="858.0127">hrm</text><polygon fill="#181818" points="990,923.5664,1000,927.5664,990,931.5664,994,927.5664" style="stroke:#181818;stroke-width:1.0;"/><line style="stroke:#181818;stroke-width:1.0;" x1="512" x2="996" y1="927.5664" y2="927.5664"/><text fill="#000000" font-family="sans-serif" font-size="13" font-weight="bold" lengthAdjust="spacing" textLength="14" x="519" y="922.3037">21</text><text fill="#000000" font-family="sans-serif" font-size="13" lengthAdjust="spacing" textLength="448" x="537" y="922.3037">generateTeam(int maxTeamSize, int minTeamSize, List&lt;Skill&gt; requiredSkills)</text><rect fill="none" height="43.252" style="stroke:#000000;stroke-width:1.5;" width="187" x="908.5" y="935.5664"/><path d="M908.5,935.5664 L970.5,935.5664 L970.5,944.5664 L960.5,954.5664 L908.5,954.5664 L908.5,935.5664 " fill="#EEEEEE" style="stroke:#000000;stroke-width:2.0;"/><text fill="#000000" font-family="sans-serif" font-size="13" font-weight="bold" lengthAdjust="spacing" textLength="17" x="921.5" y="951.5947">ref</text><text fill="#000000" font-family="sans-serif" font-size="12" lengthAdjust="spacing" textLength="86" x="959" y="971.5156">Generate Team</text><line style="stroke:#181818;stroke-width:1.0;stroke-dasharray:2.0,2.0;" x1="1002" x2="1044" y1="1012.1094" y2="1012.1094"/><line style="stroke:#181818;stroke-width:1.0;stroke-dasharray:2.0,2.0;" x1="1044" x2="1044" y1="1012.1094" y2="1025.1094"/><line style="stroke:#181818;stroke-width:1.0;stroke-dasharray:2.0,2.0;" x1="997" x2="1044" y1="1025.1094" y2="1025.1094"/><polygon fill="#181818" points="1007,1021.1094,997,1025.1094,1007,1029.1094,1003,1025.1094" style="stroke:#181818;stroke-width:1.0;"/><text fill="#000000" font-family="sans-serif" font-size="13" font-weight="bold" lengthAdjust="spacing" textLength="14" x="1009" y="1006.8467">22</text><text fill="#000000" font-family="sans-serif" font-size="13" lengthAdjust="spacing" textLength="29" x="1027" y="1006.8467">team</text><polygon fill="#181818" points="523,1047.4004,513,1051.4004,523,1055.4004,519,1051.4004" style="stroke:#181818;stroke-width:1.0;"/><line style="stroke:#181818;stroke-width:1.0;stroke-dasharray:2.0,2.0;" x1="517" x2="1001" y1="1051.4004" y2="1051.4004"/><text fill="#000000" font-family="sans-serif" font-size="13" font-weight="bold" lengthAdjust="spacing" textLength="14" x="529" y="1046.1377">23</text><text fill="#000000" font-family="sans-serif" font-size="13" lengthAdjust="spacing" textLength="29" x="547" y="1046.1377">team</text><polygon fill="#181818" points="112,1078.6914,102,1082.6914,112,1086.6914,108,1082.6914" style="stroke:#181818;stroke-width:1.0;"/><line style="stroke:#181818;stroke-width:1.0;" x1="106" x2="501" y1="1082.6914" y2="1082.6914"/><text fill="#000000" font-family="sans-serif" font-size="13" font-weight="bold" lengthAdjust="spacing" textLength="14" x="118" y="1077.4287">24</text><text fill="#000000" font-family="sans-serif" font-size="13" lengthAdjust="spacing" textLength="103" x="136" y="1077.4287">displays the team</text><polygon fill="#181818" points="490,1109.9824,500,1113.9824,490,1117.9824,494,1113.9824" style="stroke:#181818;stroke-width:1.0;"/><line style="stroke:#181818;stroke-width:1.0;" x1="101" x2="496" y1="1113.9824" y2="1113.9824"/><text fill="#000000" font-family="sans-serif" font-size="13" font-weight="bold" lengthAdjust="spacing" textLength="14" x="108" y="1108.7197">25</text><text fill="#000000" font-family="sans-serif" font-size="13" lengthAdjust="spacing" textLength="198" x="126" y="1108.7197">either accepts or refuses the team</text><polygon fill="#181818" points="107,1141.2734,97,1145.2734,107,1149.2734,103,1145.2734" style="stroke:#181818;stroke-width:1.0;"/><line style="stroke:#181818;stroke-width:1.0;" x1="101" x2="501" y1="1145.2734" y2="1145.2734"/><text fill="#000000" font-family="sans-serif" font-size="13" font-weight="bold" lengthAdjust="spacing" textLength="14" x="113" y="1140.0107">26</text><text fill="#000000" font-family="sans-serif" font-size="13" lengthAdjust="spacing" textLength="158" x="131" y="1140.0107">displays operation success</text><!--SRC=[hLRRJkCm47ttLrYy02luWMY5LB4iL0BHRUWRqieuqzGYiOFj04Ly_8wTAeaJfy3kvgMfVUPuBcV6COz2LaopafPAAhxHgWHgTGt4j3iLuuyiXzHk2w0Qk6KoB_e0is6PUX4ofsjM6224rLR9kdm0JSZXHcH0rqhP1_LA6BTAquEhkcIIBi6eMdCmz8P9F44VK6RexCSDGLuhkAYOjFGWkGDMNe84pT1uDVUerNmVw5n9grLHx2ZFxvRN0_WIAcK4GWKOZsaNjgbmyM44eOdkMTpBCS7YUdONMc26YgBZJUvb6gvuktGPMfsZt-n1-JW2OnxTQ08SS2IpgYe4PrOecO8n-EDnlsUBHOXaLRK3O4mJLYCZNciDqdQ6AmEwRv5UfEdiDZHIEcTIl7ds8AxRw8RdYMzDyw8hVPE6OtaP6bXK2WATO3pWujTglfWHfqtnp2nu1HAwU_0FFJr3lT44mO-6MaNpHcVOASZHGLi252SvfBq7hK-Hn74bs49FDHXhQCOieqSQre3Pv712Cp1SYygvVaAfa6kbIrRGUndkME0RYNKgmkMirgnvuyhOOz9tu91hS9xvJXXwTkQNltr3tneO2I3kSG07Z7G9MkLWvzBWNE1mT3ooRTCoEZpOZJNW2EsUc0-dko1SThk-79bdiFUuFN3lEvcigLS6bekMGegoBYcJ6ItPgtztAg56l06943kj37M6WxL6VNpCDMA9FVzIkx-lqd-erYUhrftVYRa9R31kCJuoJ8gRsbFWoIJuKHziUvhkxC7a9nFHU9xEyPwKSCZORGNKr7cEimAoXhB9qGVgSOQcZm_GE6weUWRj_bo2nOm-rKBZ0MbZ038Z8v_CHhsOJdjUaGOA_1PeFVDhRHjm9TS2XvURHsCFTxlD12I4z7Cvh67yEWogCsXI4XD_L-TF47wrtF6R-SEgJuwPyB3tz_TeI5sEhfOtF_7BRNS33qBPCyBSq-eXEfsTGf1zjDwgPEnOvzb6b-JJutGOPQU3fBrltPLz9F0EnsdetbFKuWdr2q9s2zV2sEzUpcV-idNoRjHzJBwUWDrLx-YZQPZCGD9y7dmw0r6YrJn2ywKxolTmGZDXge9jiOitC6PikpEX812XKJOSAho4i9anGxM12SlO4Qg2vbC4vnVI64D8pqttUVK7]--></g></svg>