<?xml version="1.0" encoding="us-ascii" standalone="no"?><svg xmlns="http://www.w3.org/2000/svg" xmlns:xlink="http://www.w3.org/1999/xlink" contentStyleType="text/css" height="477px" preserveAspectRatio="none" style="width:2124px;height:477px;background:#FFFFFF;" version="1.1" viewBox="0 0 2124 477" width="2124px" zoomAndPan="magnify"><defs/><g><!--class ApplicationSession--><g id="elem_ApplicationSession"><rect codeLine="7" fill="#F1F1F1" height="51.1453" id="ApplicationSession" rx="1.5" ry="1.5" style="stroke:#181818;stroke-width:0.3;" width="92.4" x="425.4" y="323.7"/><ellipse cx="435.21" cy="333.3" fill="#ADD1B2" rx="6.6" ry="6.6" style="stroke:#181818;stroke-width:0.6;"/><path d="M436.8694,330.825 Q436.9631,330.6937 437.0756,330.6281 Q437.1881,330.5625 437.3194,330.5625 Q437.5444,330.5625 437.685,330.7219 Q437.8256,330.8719 437.8256,331.2375 L437.8256,332.1094 Q437.8256,332.475 437.685,332.6344 Q437.5444,332.7938 437.3194,332.7938 Q437.1131,332.7938 436.9913,332.6719 Q436.8694,332.5594 436.8038,332.25 Q436.7756,332.0344 436.6631,331.9219 Q436.4663,331.6969 436.1006,331.5656 Q435.735,331.4344 435.36,331.4344 Q434.9006,331.4344 434.5163,331.6312 Q434.1413,331.8281 433.8413,332.2781 Q433.5506,332.7281 433.5506,333.3469 L433.5506,334.0031 Q433.5506,334.7438 434.085,335.2406 Q434.6194,335.7281 435.5756,335.7281 Q436.1381,335.7281 436.5319,335.5781 Q436.7663,335.4844 437.0194,335.2219 Q437.1788,335.0625 437.2631,335.0156 Q437.3569,334.9688 437.4788,334.9688 Q437.6756,334.9688 437.8256,335.1281 Q437.985,335.2781 437.985,335.4844 Q437.985,335.6906 437.7788,335.9344 Q437.4788,336.2813 437.0006,336.4781 Q436.3538,336.75 435.5756,336.75 Q434.6663,336.75 433.9444,336.375 Q433.3538,336.075 432.9413,335.4375 Q432.5288,334.7906 432.5288,334.0219 L432.5288,333.3281 Q432.5288,332.5313 432.8944,331.8469 Q433.2694,331.1531 433.9256,330.7875 Q434.5819,330.4125 435.3225,330.4125 Q435.7631,330.4125 436.1475,330.5156 Q436.5413,330.6094 436.8694,330.825 Z " fill="#000000"/><text fill="#000000" font-family="sans-serif" font-size="8.4" lengthAdjust="spacing" textLength="71.4" x="443.79" y="336.7781">ApplicationSession</text><line style="stroke:#181818;stroke-width:0.3;" x1="426" x2="517.2" y1="342.9" y2="342.9"/><line style="stroke:#181818;stroke-width:0.3;" x1="426" x2="517.2" y1="347.7" y2="347.7"/><ellipse cx="432" cy="356.5863" fill="#84BE84" rx="1.8" ry="1.8" style="stroke:#038048;stroke-width:0.6;"/><text fill="#000000" font-family="sans-serif" font-size="8.4" lengthAdjust="spacing" textLength="72" x="437.4" y="359.1645">static getInstance()</text><ellipse cx="432" cy="367.759" fill="#84BE84" rx="1.8" ry="1.8" style="stroke:#038048;stroke-width:0.6;"/><text fill="#000000" font-family="sans-serif" font-size="8.4" lengthAdjust="spacing" textLength="76.8" x="437.4" y="370.3371">getCurrentSession()</text></g><!--class UserSession--><g id="elem_UserSession"><rect codeLine="13" fill="#F1F1F1" height="39.9727" id="UserSession" rx="1.5" ry="1.5" style="stroke:#181818;stroke-width:0.3;" width="71.4" x="377.7" y="433.2"/><ellipse cx="388.86" cy="442.8" fill="#ADD1B2" rx="6.6" ry="6.6" style="stroke:#181818;stroke-width:0.6;"/><path d="M390.5194,440.325 Q390.6131,440.1937 390.7256,440.1281 Q390.8381,440.0625 390.9694,440.0625 Q391.1944,440.0625 391.335,440.2219 Q391.4756,440.3719 391.4756,440.7375 L391.4756,441.6094 Q391.4756,441.975 391.335,442.1344 Q391.1944,442.2938 390.9694,442.2938 Q390.7631,442.2938 390.6413,442.1719 Q390.5194,442.0594 390.4538,441.75 Q390.4256,441.5344 390.3131,441.4219 Q390.1163,441.1969 389.7506,441.0656 Q389.385,440.9344 389.01,440.9344 Q388.5506,440.9344 388.1663,441.1312 Q387.7913,441.3281 387.4913,441.7781 Q387.2006,442.2281 387.2006,442.8469 L387.2006,443.5031 Q387.2006,444.2438 387.735,444.7406 Q388.2694,445.2281 389.2256,445.2281 Q389.7881,445.2281 390.1819,445.0781 Q390.4163,444.9844 390.6694,444.7219 Q390.8288,444.5625 390.9131,444.5156 Q391.0069,444.4688 391.1288,444.4688 Q391.3256,444.4688 391.4756,444.6281 Q391.635,444.7781 391.635,444.9844 Q391.635,445.1906 391.4288,445.4344 Q391.1288,445.7813 390.6506,445.9781 Q390.0038,446.25 389.2256,446.25 Q388.3163,446.25 387.5944,445.875 Q387.0038,445.575 386.5913,444.9375 Q386.1788,444.2906 386.1788,443.5219 L386.1788,442.8281 Q386.1788,442.0313 386.5444,441.3469 Q386.9194,440.6531 387.5756,440.2875 Q388.2319,439.9125 388.9725,439.9125 Q389.4131,439.9125 389.7975,440.0156 Q390.1913,440.1094 390.5194,440.325 Z " fill="#000000"/><text fill="#000000" font-family="sans-serif" font-size="8.4" lengthAdjust="spacing" textLength="47.4" x="397.74" y="446.2781">UserSession</text><line style="stroke:#181818;stroke-width:0.3;" x1="378.3" x2="448.5" y1="452.4" y2="452.4"/><line style="stroke:#181818;stroke-width:0.3;" x1="378.3" x2="448.5" y1="457.2" y2="457.2"/><ellipse cx="384.3" cy="466.0863" fill="#84BE84" rx="1.8" ry="1.8" style="stroke:#038048;stroke-width:0.6;"/><text fill="#000000" font-family="sans-serif" font-size="8.4" lengthAdjust="spacing" textLength="55.8" x="389.7" y="468.6645">getUserEmail()</text></g><!--class HumanResourcesManager--><g id="elem_HumanResourcesManager"><rect codeLine="18" fill="#F1F1F1" height="73.4906" id="HumanResourcesManager" rx="1.5" ry="1.5" style="stroke:#181818;stroke-width:0.3;" width="202.8" x="844.8" y="4.2"/><ellipse cx="893.25" cy="13.8" fill="#ADD1B2" rx="6.6" ry="6.6" style="stroke:#181818;stroke-width:0.6;"/><path d="M894.9094,11.325 Q895.0031,11.1938 895.1156,11.1281 Q895.2281,11.0625 895.3594,11.0625 Q895.5844,11.0625 895.725,11.2219 Q895.8656,11.3719 895.8656,11.7375 L895.8656,12.6094 Q895.8656,12.975 895.725,13.1344 Q895.5844,13.2938 895.3594,13.2938 Q895.1531,13.2938 895.0313,13.1719 Q894.9094,13.0594 894.8438,12.75 Q894.8156,12.5344 894.7031,12.4219 Q894.5063,12.1969 894.1406,12.0656 Q893.775,11.9344 893.4,11.9344 Q892.9406,11.9344 892.5563,12.1313 Q892.1813,12.3281 891.8813,12.7781 Q891.5906,13.2281 891.5906,13.8469 L891.5906,14.5031 Q891.5906,15.2437 892.125,15.7406 Q892.6594,16.2281 893.6156,16.2281 Q894.1781,16.2281 894.5719,16.0781 Q894.8063,15.9844 895.0594,15.7219 Q895.2188,15.5625 895.3031,15.5156 Q895.3969,15.4688 895.5188,15.4688 Q895.7156,15.4688 895.8656,15.6281 Q896.025,15.7781 896.025,15.9844 Q896.025,16.1906 895.8188,16.4344 Q895.5188,16.7813 895.0406,16.9781 Q894.3938,17.25 893.6156,17.25 Q892.7063,17.25 891.9844,16.875 Q891.3938,16.575 890.9812,15.9375 Q890.5688,15.2906 890.5688,14.5219 L890.5688,13.8281 Q890.5688,13.0313 890.9344,12.3469 Q891.3094,11.6531 891.9656,11.2875 Q892.6219,10.9125 893.3625,10.9125 Q893.8031,10.9125 894.1875,11.0156 Q894.5813,11.1094 894.9094,11.325 Z " fill="#000000"/><text fill="#000000" font-family="sans-serif" font-size="8.4" lengthAdjust="spacing" textLength="100.8" x="905.55" y="17.2781">HumanResourcesManager</text><line style="stroke:#181818;stroke-width:0.3;" x1="845.4" x2="1047" y1="23.4" y2="23.4"/><rect fill="none" height="3.6" style="stroke:#C82930;stroke-width:0.6;" width="3.6" x="849.6" y="30.4863"/><text fill="#000000" font-family="sans-serif" font-size="8.4" lengthAdjust="spacing" textLength="45.6" x="856.8" y="34.8645">String name</text><rect fill="none" height="3.6" style="stroke:#C82930;stroke-width:0.6;" width="3.6" x="849.6" y="41.659"/><text fill="#000000" font-family="sans-serif" font-size="8.4" lengthAdjust="spacing" textLength="44.4" x="856.8" y="46.0371">String email</text><rect fill="none" height="3.6" style="stroke:#C82930;stroke-width:0.6;" width="3.6" x="849.6" y="52.8316"/><text fill="#000000" font-family="sans-serif" font-size="8.4" lengthAdjust="spacing" textLength="48.6" x="856.8" y="57.2098">String phone</text><line style="stroke:#181818;stroke-width:0.3;" x1="845.4" x2="1047" y1="61.718" y2="61.718"/><ellipse cx="851.4" cy="70.6043" fill="#84BE84" rx="1.8" ry="1.8" style="stroke:#038048;stroke-width:0.6;"/><text fill="#000000" font-family="sans-serif" font-size="8.4" lengthAdjust="spacing" textLength="187.2" x="856.8" y="73.1824">generateTeamProposal(maxSize, minSize, skills[])</text></g><!--class Skill--><g id="elem_Skill"><rect codeLine="25" fill="#F1F1F1" height="39.9727" id="Skill" rx="1.5" ry="1.5" style="stroke:#181818;stroke-width:0.3;" width="61.2" x="1756.2" y="174.9"/><ellipse cx="1777.35" cy="184.5" fill="#ADD1B2" rx="6.6" ry="6.6" style="stroke:#181818;stroke-width:0.6;"/><path d="M1779.0094,182.025 Q1779.1031,181.8937 1779.2156,181.8281 Q1779.3281,181.7625 1779.4594,181.7625 Q1779.6844,181.7625 1779.825,181.9219 Q1779.9656,182.0719 1779.9656,182.4375 L1779.9656,183.3094 Q1779.9656,183.675 1779.825,183.8344 Q1779.6844,183.9938 1779.4594,183.9938 Q1779.2531,183.9938 1779.1313,183.8719 Q1779.0094,183.7594 1778.9438,183.45 Q1778.9156,183.2344 1778.8031,183.1219 Q1778.6063,182.8969 1778.2406,182.7656 Q1777.875,182.6344 1777.5,182.6344 Q1777.0406,182.6344 1776.6563,182.8312 Q1776.2813,183.0281 1775.9813,183.4781 Q1775.6906,183.9281 1775.6906,184.5469 L1775.6906,185.2031 Q1775.6906,185.9438 1776.225,186.4406 Q1776.7594,186.9281 1777.7156,186.9281 Q1778.2781,186.9281 1778.6719,186.7781 Q1778.9063,186.6844 1779.1594,186.4219 Q1779.3188,186.2625 1779.4031,186.2156 Q1779.4969,186.1688 1779.6187,186.1688 Q1779.8156,186.1688 1779.9656,186.3281 Q1780.125,186.4781 1780.125,186.6844 Q1780.125,186.8906 1779.9188,187.1344 Q1779.6187,187.4813 1779.1406,187.6781 Q1778.4937,187.95 1777.7156,187.95 Q1776.8062,187.95 1776.0844,187.575 Q1775.4937,187.275 1775.0813,186.6375 Q1774.6688,185.9906 1774.6688,185.2219 L1774.6688,184.5281 Q1774.6688,183.7313 1775.0344,183.0469 Q1775.4094,182.3531 1776.0656,181.9875 Q1776.7219,181.6125 1777.4625,181.6125 Q1777.9031,181.6125 1778.2875,181.7156 Q1778.6812,181.8094 1779.0094,182.025 Z " fill="#000000"/><text fill="#000000" font-family="sans-serif" font-size="8.4" lengthAdjust="spacing" textLength="15" x="1788.45" y="187.9781">Skill</text><line style="stroke:#181818;stroke-width:0.3;" x1="1756.8" x2="1816.8" y1="194.1" y2="194.1"/><rect fill="none" height="3.6" style="stroke:#C82930;stroke-width:0.6;" width="3.6" x="1761" y="201.1863"/><text fill="#000000" font-family="sans-serif" font-size="8.4" lengthAdjust="spacing" textLength="45.6" x="1768.2" y="205.5645">String name</text><line style="stroke:#181818;stroke-width:0.3;" x1="1756.8" x2="1816.8" y1="210.0727" y2="210.0727"/></g><!--class Job--><g id="elem_Job"><rect codeLine="29" fill="#F1F1F1" height="39.9727" id="Job" rx="1.5" ry="1.5" style="stroke:#181818;stroke-width:0.3;" width="61.2" x="2058.6" y="174.9"/><ellipse cx="2080.56" cy="184.5" fill="#ADD1B2" rx="6.6" ry="6.6" style="stroke:#181818;stroke-width:0.6;"/><path d="M2082.2194,182.025 Q2082.3131,181.8937 2082.4256,181.8281 Q2082.5381,181.7625 2082.6694,181.7625 Q2082.8944,181.7625 2083.035,181.9219 Q2083.1756,182.0719 2083.1756,182.4375 L2083.1756,183.3094 Q2083.1756,183.675 2083.035,183.8344 Q2082.8944,183.9938 2082.6694,183.9938 Q2082.4631,183.9938 2082.3413,183.8719 Q2082.2194,183.7594 2082.1538,183.45 Q2082.1256,183.2344 2082.0131,183.1219 Q2081.8163,182.8969 2081.4506,182.7656 Q2081.085,182.6344 2080.71,182.6344 Q2080.2506,182.6344 2079.8663,182.8312 Q2079.4913,183.0281 2079.1913,183.4781 Q2078.9006,183.9281 2078.9006,184.5469 L2078.9006,185.2031 Q2078.9006,185.9438 2079.435,186.4406 Q2079.9694,186.9281 2080.9256,186.9281 Q2081.4881,186.9281 2081.8819,186.7781 Q2082.1163,186.6844 2082.3694,186.4219 Q2082.5288,186.2625 2082.6131,186.2156 Q2082.7069,186.1688 2082.8287,186.1688 Q2083.0256,186.1688 2083.1756,186.3281 Q2083.335,186.4781 2083.335,186.6844 Q2083.335,186.8906 2083.1288,187.1344 Q2082.8287,187.4813 2082.3506,187.6781 Q2081.7037,187.95 2080.9256,187.95 Q2080.0162,187.95 2079.2944,187.575 Q2078.7037,187.275 2078.2912,186.6375 Q2077.8788,185.9906 2077.8788,185.2219 L2077.8788,184.5281 Q2077.8788,183.7313 2078.2444,183.0469 Q2078.6194,182.3531 2079.2756,181.9875 Q2079.9319,181.6125 2080.6725,181.6125 Q2081.1131,181.6125 2081.4975,181.7156 Q2081.8912,181.8094 2082.2194,182.025 Z " fill="#000000"/><text fill="#000000" font-family="sans-serif" font-size="8.4" lengthAdjust="spacing" textLength="13.2" x="2091.84" y="187.9781">Job</text><line style="stroke:#181818;stroke-width:0.3;" x1="2059.2" x2="2119.2" y1="194.1" y2="194.1"/><rect fill="none" height="3.6" style="stroke:#C82930;stroke-width:0.6;" width="3.6" x="2063.4" y="201.1863"/><text fill="#000000" font-family="sans-serif" font-size="8.4" lengthAdjust="spacing" textLength="45.6" x="2070.6" y="205.5645">String name</text><line style="stroke:#181818;stroke-width:0.3;" x1="2059.2" x2="2119.2" y1="210.0727" y2="210.0727"/></g><!--class Collaborator--><g id="elem_Collaborator"><rect codeLine="33" fill="#F1F1F1" height="140.5266" id="Collaborator" rx="1.5" ry="1.5" style="stroke:#181818;stroke-width:0.3;" width="121.8" x="1877.1" y="124.8"/><ellipse cx="1912.05" cy="134.4" fill="#ADD1B2" rx="6.6" ry="6.6" style="stroke:#181818;stroke-width:0.6;"/><path d="M1913.7094,131.925 Q1913.8031,131.7938 1913.9156,131.7281 Q1914.0281,131.6625 1914.1594,131.6625 Q1914.3844,131.6625 1914.525,131.8219 Q1914.6656,131.9719 1914.6656,132.3375 L1914.6656,133.2094 Q1914.6656,133.575 1914.525,133.7344 Q1914.3844,133.8937 1914.1594,133.8937 Q1913.9531,133.8937 1913.8313,133.7719 Q1913.7094,133.6594 1913.6438,133.35 Q1913.6156,133.1344 1913.5031,133.0219 Q1913.3062,132.7969 1912.9406,132.6656 Q1912.575,132.5344 1912.2,132.5344 Q1911.7406,132.5344 1911.3562,132.7313 Q1910.9812,132.9281 1910.6812,133.3781 Q1910.3906,133.8281 1910.3906,134.4469 L1910.3906,135.1031 Q1910.3906,135.8438 1910.925,136.3406 Q1911.4594,136.8281 1912.4156,136.8281 Q1912.9781,136.8281 1913.3719,136.6781 Q1913.6062,136.5844 1913.8594,136.3219 Q1914.0188,136.1625 1914.1031,136.1156 Q1914.1969,136.0688 1914.3188,136.0688 Q1914.5156,136.0688 1914.6656,136.2281 Q1914.825,136.3781 1914.825,136.5844 Q1914.825,136.7906 1914.6187,137.0344 Q1914.3188,137.3813 1913.8406,137.5781 Q1913.1938,137.85 1912.4156,137.85 Q1911.5063,137.85 1910.7844,137.475 Q1910.1938,137.175 1909.7813,136.5375 Q1909.3687,135.8906 1909.3687,135.1219 L1909.3687,134.4281 Q1909.3687,133.6313 1909.7344,132.9469 Q1910.1094,132.2531 1910.7656,131.8875 Q1911.4219,131.5125 1912.1625,131.5125 Q1912.6031,131.5125 1912.9875,131.6156 Q1913.3813,131.7094 1913.7094,131.925 Z " fill="#000000"/><text fill="#000000" font-family="sans-serif" font-size="8.4" lengthAdjust="spacing" textLength="46.8" x="1924.35" y="137.8781">Collaborator</text><line style="stroke:#181818;stroke-width:0.3;" x1="1877.7" x2="1998.3" y1="144" y2="144"/><rect fill="none" height="3.6" style="stroke:#C82930;stroke-width:0.6;" width="3.6" x="1881.9" y="151.0863"/><text fill="#000000" font-family="sans-serif" font-size="8.4" lengthAdjust="spacing" textLength="48" x="1889.1" y="155.4645">name: String</text><rect fill="none" height="3.6" style="stroke:#C82930;stroke-width:0.6;" width="3.6" x="1881.9" y="162.259"/><text fill="#000000" font-family="sans-serif" font-size="8.4" lengthAdjust="spacing" textLength="60.6" x="1889.1" y="166.6371">birthdate: String</text><rect fill="none" height="3.6" style="stroke:#C82930;stroke-width:0.6;" width="3.6" x="1881.9" y="173.4316"/><text fill="#000000" font-family="sans-serif" font-size="8.4" lengthAdjust="spacing" textLength="84" x="1889.1" y="177.8098">admission date: String</text><rect fill="none" height="3.6" style="stroke:#C82930;stroke-width:0.6;" width="3.6" x="1881.9" y="184.6043"/><text fill="#000000" font-family="sans-serif" font-size="8.4" lengthAdjust="spacing" textLength="57.6" x="1889.1" y="188.9824">address: String</text><rect fill="none" height="3.6" style="stroke:#C82930;stroke-width:0.6;" width="3.6" x="1881.9" y="195.777"/><text fill="#000000" font-family="sans-serif" font-size="8.4" lengthAdjust="spacing" textLength="70.2" x="1889.1" y="200.1551">mobile Contact: int</text><rect fill="none" height="3.6" style="stroke:#C82930;stroke-width:0.6;" width="3.6" x="1881.9" y="206.9496"/><text fill="#000000" font-family="sans-serif" font-size="8.4" lengthAdjust="spacing" textLength="76.8" x="1889.1" y="211.3277">email contact: String</text><rect fill="none" height="3.6" style="stroke:#C82930;stroke-width:0.6;" width="3.6" x="1881.9" y="218.1223"/><text fill="#000000" font-family="sans-serif" font-size="8.4" lengthAdjust="spacing" textLength="69.6" x="1889.1" y="222.5004">ID doc type: String</text><rect fill="none" height="3.6" style="stroke:#C82930;stroke-width:0.6;" width="3.6" x="1881.9" y="229.2949"/><text fill="#000000" font-family="sans-serif" font-size="8.4" lengthAdjust="spacing" textLength="52.8" x="1889.1" y="233.673">ID number: int</text><rect fill="none" height="3.6" style="stroke:#C82930;stroke-width:0.6;" width="3.6" x="1881.9" y="240.4676"/><text fill="#000000" font-family="sans-serif" font-size="8.4" lengthAdjust="spacing" textLength="58.2" x="1889.1" y="244.8457">List&lt;Skill&gt; skills</text><line style="stroke:#181818;stroke-width:0.3;" x1="1877.7" x2="1998.3" y1="249.3539" y2="249.3539"/><ellipse cx="1883.7" cy="258.2402" fill="#84BE84" rx="1.8" ry="1.8" style="stroke:#038048;stroke-width:0.6;"/><text fill="#000000" font-family="sans-serif" font-size="8.4" lengthAdjust="spacing" textLength="106.2" x="1889.1" y="260.8184">hasSkill(skill: Skill) : boolean</text></g><!--class Team--><g id="elem_Team"><rect codeLine="46" fill="#F1F1F1" height="73.4906" id="Team" rx="1.5" ry="1.5" style="stroke:#181818;stroke-width:0.3;" width="243.6" x="586.2" y="312.6"/><ellipse cx="694.65" cy="322.2" fill="#ADD1B2" rx="6.6" ry="6.6" style="stroke:#181818;stroke-width:0.6;"/><path d="M696.3094,319.725 Q696.4031,319.5938 696.5156,319.5281 Q696.6281,319.4625 696.7594,319.4625 Q696.9844,319.4625 697.125,319.6219 Q697.2656,319.7719 697.2656,320.1375 L697.2656,321.0094 Q697.2656,321.375 697.125,321.5344 Q696.9844,321.6937 696.7594,321.6937 Q696.5531,321.6937 696.4313,321.5719 Q696.3094,321.4594 696.2438,321.15 Q696.2156,320.9344 696.1031,320.8219 Q695.9063,320.5969 695.5406,320.4656 Q695.175,320.3344 694.8,320.3344 Q694.3406,320.3344 693.9563,320.5313 Q693.5813,320.7281 693.2813,321.1781 Q692.9906,321.6281 692.9906,322.2469 L692.9906,322.9031 Q692.9906,323.6438 693.525,324.1406 Q694.0594,324.6281 695.0156,324.6281 Q695.5781,324.6281 695.9719,324.4781 Q696.2063,324.3844 696.4594,324.1219 Q696.6188,323.9625 696.7031,323.9156 Q696.7969,323.8688 696.9187,323.8688 Q697.1156,323.8688 697.2656,324.0281 Q697.425,324.1781 697.425,324.3844 Q697.425,324.5906 697.2188,324.8344 Q696.9187,325.1813 696.4406,325.3781 Q695.7937,325.65 695.0156,325.65 Q694.1062,325.65 693.3844,325.275 Q692.7937,324.975 692.3813,324.3375 Q691.9688,323.6906 691.9688,322.9219 L691.9688,322.2281 Q691.9688,321.4313 692.3344,320.7469 Q692.7094,320.0531 693.3656,319.6875 Q694.0219,319.3125 694.7625,319.3125 Q695.2031,319.3125 695.5875,319.4156 Q695.9812,319.5094 696.3094,319.725 Z " fill="#000000"/><text fill="#000000" font-family="sans-serif" font-size="8.4" lengthAdjust="spacing" textLength="21.6" x="706.95" y="325.6781">Team</text><line style="stroke:#181818;stroke-width:0.3;" x1="586.8" x2="829.2" y1="331.8" y2="331.8"/><rect fill="none" height="3.6" style="stroke:#C82930;stroke-width:0.6;" width="3.6" x="591" y="338.8863"/><text fill="#000000" font-family="sans-serif" font-size="8.4" lengthAdjust="spacing" textLength="106.8" x="598.2" y="343.2645">List&lt;Collaborator&gt; members</text><line style="stroke:#181818;stroke-width:0.3;" x1="586.8" x2="829.2" y1="347.7727" y2="347.7727"/><ellipse cx="592.8" cy="356.659" fill="#84BE84" rx="1.8" ry="1.8" style="stroke:#038048;stroke-width:0.6;"/><text fill="#000000" font-family="sans-serif" font-size="8.4" lengthAdjust="spacing" textLength="185.4" x="598.2" y="359.2371">addMember(collaborator: Collaborator) : boolean</text><ellipse cx="592.8" cy="367.8316" fill="#84BE84" rx="1.8" ry="1.8" style="stroke:#038048;stroke-width:0.6;"/><text fill="#000000" font-family="sans-serif" font-size="8.4" lengthAdjust="spacing" textLength="63.6" x="598.2" y="370.4098">isFull() : boolean</text><ellipse cx="592.8" cy="379.0043" fill="#84BE84" rx="1.8" ry="1.8" style="stroke:#038048;stroke-width:0.6;"/><text fill="#000000" font-family="sans-serif" font-size="8.4" lengthAdjust="spacing" textLength="228" x="598.2" y="381.5824">meetsSkillRequirements(requiredSkills: List&lt;Skill&gt;) : boolean</text></g><!--class TeamGeneratorController--><g id="elem_TeamGeneratorController"><rect codeLine="53" fill="#F1F1F1" height="84.6633" id="TeamGeneratorController" rx="1.5" ry="1.5" style="stroke:#181818;stroke-width:0.3;" width="411" x="266.1" y="152.7"/><ellipse cx="420.15" cy="162.3" fill="#ADD1B2" rx="6.6" ry="6.6" style="stroke:#181818;stroke-width:0.6;"/><path d="M421.8094,159.825 Q421.9031,159.6938 422.0156,159.6281 Q422.1281,159.5625 422.2594,159.5625 Q422.4844,159.5625 422.625,159.7219 Q422.7656,159.8719 422.7656,160.2375 L422.7656,161.1094 Q422.7656,161.475 422.625,161.6344 Q422.4844,161.7938 422.2594,161.7938 Q422.0531,161.7938 421.9313,161.6719 Q421.8094,161.5594 421.7438,161.25 Q421.7156,161.0344 421.6031,160.9219 Q421.4063,160.6969 421.0406,160.5656 Q420.675,160.4344 420.3,160.4344 Q419.8406,160.4344 419.4563,160.6313 Q419.0813,160.8281 418.7813,161.2781 Q418.4906,161.7281 418.4906,162.3469 L418.4906,163.0031 Q418.4906,163.7438 419.025,164.2406 Q419.5594,164.7281 420.5156,164.7281 Q421.0781,164.7281 421.4719,164.5781 Q421.7063,164.4844 421.9594,164.2219 Q422.1188,164.0625 422.2031,164.0156 Q422.2969,163.9688 422.4188,163.9688 Q422.6156,163.9688 422.7656,164.1281 Q422.925,164.2781 422.925,164.4844 Q422.925,164.6906 422.7188,164.9344 Q422.4188,165.2813 421.9406,165.4781 Q421.2938,165.75 420.5156,165.75 Q419.6063,165.75 418.8844,165.375 Q418.2938,165.075 417.8812,164.4375 Q417.4688,163.7906 417.4688,163.0219 L417.4688,162.3281 Q417.4688,161.5313 417.8344,160.8469 Q418.2094,160.1531 418.8656,159.7875 Q419.5219,159.4125 420.2625,159.4125 Q420.7031,159.4125 421.0875,159.5156 Q421.4813,159.6094 421.8094,159.825 Z " fill="#000000"/><text fill="#000000" font-family="sans-serif" font-size="8.4" lengthAdjust="spacing" textLength="97.8" x="432.45" y="165.7781">TeamGeneratorController</text><line style="stroke:#181818;stroke-width:0.3;" x1="266.7" x2="676.5" y1="171.9" y2="171.9"/><rect fill="none" height="3.6" style="stroke:#C82930;stroke-width:0.6;" width="3.6" x="270.9" y="178.9863"/><text fill="#000000" font-family="sans-serif" font-size="8.4" lengthAdjust="spacing" textLength="42" x="278.1" y="183.3645">int maxSize</text><rect fill="none" height="3.6" style="stroke:#C82930;stroke-width:0.6;" width="3.6" x="270.9" y="190.159"/><text fill="#000000" font-family="sans-serif" font-size="8.4" lengthAdjust="spacing" textLength="40.2" x="278.1" y="194.5371">int minSize</text><rect fill="none" height="3.6" style="stroke:#C82930;stroke-width:0.6;" width="3.6" x="270.9" y="201.3316"/><text fill="#000000" font-family="sans-serif" font-size="8.4" lengthAdjust="spacing" textLength="91.2" x="278.1" y="205.7098">List&lt;Skill&gt; requiredSkills</text><line style="stroke:#181818;stroke-width:0.3;" x1="266.7" x2="676.5" y1="210.218" y2="210.218"/><ellipse cx="272.7" cy="219.1043" fill="#84BE84" rx="1.8" ry="1.8" style="stroke:#038048;stroke-width:0.6;"/><text fill="#000000" font-family="sans-serif" font-size="8.4" lengthAdjust="spacing" textLength="395.4" x="278.1" y="221.6824">TeamGeneratorController(repositories: Repositories, maxSize: int, minSize: int, requiredSkills: List&lt;Skill&gt;)</text><ellipse cx="272.7" cy="230.277" fill="#84BE84" rx="1.8" ry="1.8" style="stroke:#038048;stroke-width:0.6;"/><text fill="#000000" font-family="sans-serif" font-size="8.4" lengthAdjust="spacing" textLength="102.6" x="278.1" y="232.8551">generateProposal() : Team</text></g><!--class Repositories--><g id="elem_Repositories"><rect codeLine="61" fill="#F1F1F1" height="73.4906" id="Repositories" rx="1.5" ry="1.5" style="stroke:#181818;stroke-width:0.3;" width="216" x="1058.4" y="158.4"/><ellipse cx="1140.15" cy="168" fill="#ADD1B2" rx="6.6" ry="6.6" style="stroke:#181818;stroke-width:0.6;"/><path d="M1141.8094,165.525 Q1141.9031,165.3937 1142.0156,165.3281 Q1142.1281,165.2625 1142.2594,165.2625 Q1142.4844,165.2625 1142.625,165.4219 Q1142.7656,165.5719 1142.7656,165.9375 L1142.7656,166.8094 Q1142.7656,167.175 1142.625,167.3344 Q1142.4844,167.4938 1142.2594,167.4938 Q1142.0531,167.4938 1141.9312,167.3719 Q1141.8094,167.2594 1141.7437,166.95 Q1141.7156,166.7344 1141.6031,166.6219 Q1141.4063,166.3969 1141.0406,166.2656 Q1140.675,166.1344 1140.3,166.1344 Q1139.8406,166.1344 1139.4563,166.3312 Q1139.0813,166.5281 1138.7813,166.9781 Q1138.4906,167.4281 1138.4906,168.0469 L1138.4906,168.7031 Q1138.4906,169.4438 1139.025,169.9406 Q1139.5594,170.4281 1140.5156,170.4281 Q1141.0781,170.4281 1141.4719,170.2781 Q1141.7063,170.1844 1141.9594,169.9219 Q1142.1187,169.7625 1142.2031,169.7156 Q1142.2969,169.6688 1142.4188,169.6688 Q1142.6156,169.6688 1142.7656,169.8281 Q1142.925,169.9781 1142.925,170.1844 Q1142.925,170.3906 1142.7188,170.6344 Q1142.4188,170.9813 1141.9406,171.1781 Q1141.2938,171.45 1140.5156,171.45 Q1139.6063,171.45 1138.8844,171.075 Q1138.2938,170.775 1137.8813,170.1375 Q1137.4688,169.4906 1137.4688,168.7219 L1137.4688,168.0281 Q1137.4688,167.2313 1137.8344,166.5469 Q1138.2094,165.8531 1138.8656,165.4875 Q1139.5219,165.1125 1140.2625,165.1125 Q1140.7031,165.1125 1141.0875,165.2156 Q1141.4813,165.3094 1141.8094,165.525 Z " fill="#000000"/><text fill="#000000" font-family="sans-serif" font-size="8.4" lengthAdjust="spacing" textLength="47.4" x="1152.45" y="171.4781">Repositories</text><line style="stroke:#181818;stroke-width:0.3;" x1="1059" x2="1273.8" y1="177.6" y2="177.6"/><rect fill="none" height="3.6" style="stroke:#C82930;stroke-width:0.6;" width="3.6" x="1063.2" y="184.6863"/><text fill="#000000" font-family="sans-serif" font-size="8.4" lengthAdjust="spacing" textLength="108.6" x="1070.4" y="189.0645">static instance : Repositories</text><line style="stroke:#181818;stroke-width:0.3;" x1="1059" x2="1273.8" y1="193.5727" y2="193.5727"/><ellipse cx="1065" cy="202.459" fill="#84BE84" rx="1.8" ry="1.8" style="stroke:#038048;stroke-width:0.6;"/><text fill="#000000" font-family="sans-serif" font-size="8.4" lengthAdjust="spacing" textLength="104.4" x="1070.4" y="205.0371">getInstance() : Repositories</text><ellipse cx="1065" cy="213.6316" fill="#84BE84" rx="1.8" ry="1.8" style="stroke:#038048;stroke-width:0.6;"/><text fill="#000000" font-family="sans-serif" font-size="8.4" lengthAdjust="spacing" textLength="200.4" x="1070.4" y="216.2098">getCollaboratorRepository() : CollaboratorRepository</text><ellipse cx="1065" cy="224.8043" fill="#84BE84" rx="1.8" ry="1.8" style="stroke:#038048;stroke-width:0.6;"/><text fill="#000000" font-family="sans-serif" font-size="8.4" lengthAdjust="spacing" textLength="136.8" x="1070.4" y="227.3824">getSkillRepository() : SkillRepository</text></g><!--class CollaboratorRepository--><g id="elem_CollaboratorRepository"><rect codeLine="68" fill="#F1F1F1" height="39.9727" id="CollaboratorRepository" rx="1.5" ry="1.5" style="stroke:#181818;stroke-width:0.3;" width="116.4" x="1326" y="174.9"/><ellipse cx="1339.32" cy="184.5" fill="#ADD1B2" rx="6.6" ry="6.6" style="stroke:#181818;stroke-width:0.6;"/><path d="M1340.9794,182.025 Q1341.0731,181.8937 1341.1856,181.8281 Q1341.2981,181.7625 1341.4294,181.7625 Q1341.6544,181.7625 1341.795,181.9219 Q1341.9356,182.0719 1341.9356,182.4375 L1341.9356,183.3094 Q1341.9356,183.675 1341.795,183.8344 Q1341.6544,183.9938 1341.4294,183.9938 Q1341.2231,183.9938 1341.1013,183.8719 Q1340.9794,183.7594 1340.9138,183.45 Q1340.8856,183.2344 1340.7731,183.1219 Q1340.5762,182.8969 1340.2106,182.7656 Q1339.845,182.6344 1339.47,182.6344 Q1339.0106,182.6344 1338.6262,182.8312 Q1338.2512,183.0281 1337.9512,183.4781 Q1337.6606,183.9281 1337.6606,184.5469 L1337.6606,185.2031 Q1337.6606,185.9438 1338.195,186.4406 Q1338.7294,186.9281 1339.6856,186.9281 Q1340.2481,186.9281 1340.6419,186.7781 Q1340.8762,186.6844 1341.1294,186.4219 Q1341.2888,186.2625 1341.3731,186.2156 Q1341.4669,186.1688 1341.5888,186.1688 Q1341.7856,186.1688 1341.9356,186.3281 Q1342.095,186.4781 1342.095,186.6844 Q1342.095,186.8906 1341.8887,187.1344 Q1341.5888,187.4813 1341.1106,187.6781 Q1340.4638,187.95 1339.6856,187.95 Q1338.7763,187.95 1338.0544,187.575 Q1337.4638,187.275 1337.0512,186.6375 Q1336.6387,185.9906 1336.6387,185.2219 L1336.6387,184.5281 Q1336.6387,183.7313 1337.0044,183.0469 Q1337.3794,182.3531 1338.0356,181.9875 Q1338.6919,181.6125 1339.4325,181.6125 Q1339.8731,181.6125 1340.2575,181.7156 Q1340.6513,181.8094 1340.9794,182.025 Z " fill="#000000"/><text fill="#000000" font-family="sans-serif" font-size="8.4" lengthAdjust="spacing" textLength="87.6" x="1348.68" y="187.9781">CollaboratorRepository</text><line style="stroke:#181818;stroke-width:0.3;" x1="1326.6" x2="1441.8" y1="194.1" y2="194.1"/><line style="stroke:#181818;stroke-width:0.3;" x1="1326.6" x2="1441.8" y1="198.9" y2="198.9"/><ellipse cx="1332.6" cy="207.7863" fill="#84BE84" rx="1.8" ry="1.8" style="stroke:#038048;stroke-width:0.6;"/><text fill="#000000" font-family="sans-serif" font-size="8.4" lengthAdjust="spacing" textLength="100.8" x="1338" y="210.3645">List&lt;Collaborator&gt; findAll()</text></g><!--class Organization--><g id="elem_Organization"><rect codeLine="72" fill="#F1F1F1" height="95.8359" id="Organization" rx="1.5" ry="1.5" style="stroke:#181818;stroke-width:0.3;" width="175.2" x="1560" y="147"/><ellipse cx="1621.05" cy="156.6" fill="#ADD1B2" rx="6.6" ry="6.6" style="stroke:#181818;stroke-width:0.6;"/><path d="M1622.7094,154.125 Q1622.8031,153.9938 1622.9156,153.9281 Q1623.0281,153.8625 1623.1594,153.8625 Q1623.3844,153.8625 1623.525,154.0219 Q1623.6656,154.1719 1623.6656,154.5375 L1623.6656,155.4094 Q1623.6656,155.775 1623.525,155.9344 Q1623.3844,156.0938 1623.1594,156.0938 Q1622.9531,156.0938 1622.8313,155.9719 Q1622.7094,155.8594 1622.6438,155.55 Q1622.6156,155.3344 1622.5031,155.2219 Q1622.3062,154.9969 1621.9406,154.8656 Q1621.575,154.7344 1621.2,154.7344 Q1620.7406,154.7344 1620.3563,154.9313 Q1619.9813,155.1281 1619.6812,155.5781 Q1619.3906,156.0281 1619.3906,156.6469 L1619.3906,157.3031 Q1619.3906,158.0438 1619.925,158.5406 Q1620.4594,159.0281 1621.4156,159.0281 Q1621.9781,159.0281 1622.3719,158.8781 Q1622.6063,158.7844 1622.8594,158.5219 Q1623.0188,158.3625 1623.1031,158.3156 Q1623.1969,158.2687 1623.3188,158.2687 Q1623.5156,158.2687 1623.6656,158.4281 Q1623.825,158.5781 1623.825,158.7844 Q1623.825,158.9906 1623.6187,159.2344 Q1623.3188,159.5812 1622.8406,159.7781 Q1622.1938,160.05 1621.4156,160.05 Q1620.5063,160.05 1619.7844,159.675 Q1619.1938,159.375 1618.7813,158.7375 Q1618.3687,158.0906 1618.3687,157.3219 L1618.3687,156.6281 Q1618.3687,155.8312 1618.7344,155.1469 Q1619.1094,154.4531 1619.7656,154.0875 Q1620.4219,153.7125 1621.1625,153.7125 Q1621.6031,153.7125 1621.9875,153.8156 Q1622.3813,153.9094 1622.7094,154.125 Z " fill="#000000"/><text fill="#000000" font-family="sans-serif" font-size="8.4" lengthAdjust="spacing" textLength="48" x="1633.35" y="160.0781">Organization</text><line style="stroke:#181818;stroke-width:0.3;" x1="1560.6" x2="1734.6" y1="166.2" y2="166.2"/><rect fill="none" height="3.6" style="stroke:#C82930;stroke-width:0.6;" width="3.6" x="1564.8" y="173.2863"/><text fill="#000000" font-family="sans-serif" font-size="8.4" lengthAdjust="spacing" textLength="45.6" x="1572" y="177.6645">String name</text><rect fill="none" height="3.6" style="stroke:#C82930;stroke-width:0.6;" width="3.6" x="1564.8" y="184.459"/><text fill="#000000" font-family="sans-serif" font-size="8.4" lengthAdjust="spacing" textLength="65.4" x="1572" y="188.8371">String vatNumber</text><rect fill="none" height="3.6" style="stroke:#C82930;stroke-width:0.6;" width="3.6" x="1564.8" y="195.6316"/><text fill="#000000" font-family="sans-serif" font-size="8.4" lengthAdjust="spacing" textLength="112.8" x="1572" y="200.0098">List&lt;Collaborator&gt; employees</text><line style="stroke:#181818;stroke-width:0.3;" x1="1560.6" x2="1734.6" y1="204.518" y2="204.518"/><ellipse cx="1566.6" cy="213.4043" fill="#84BE84" rx="1.8" ry="1.8" style="stroke:#038048;stroke-width:0.6;"/><text fill="#000000" font-family="sans-serif" font-size="8.4" lengthAdjust="spacing" textLength="136.2" x="1572" y="215.9824">addEmployee(employee: Employee)</text><ellipse cx="1566.6" cy="224.577" fill="#84BE84" rx="1.8" ry="1.8" style="stroke:#038048;stroke-width:0.6;"/><text fill="#000000" font-family="sans-serif" font-size="8.4" lengthAdjust="spacing" textLength="150" x="1572" y="227.1551">removeEmployee(employee: Employee)</text><ellipse cx="1566.6" cy="235.7496" fill="#84BE84" rx="1.8" ry="1.8" style="stroke:#038048;stroke-width:0.6;"/><text fill="#000000" font-family="sans-serif" font-size="8.4" lengthAdjust="spacing" textLength="159.6" x="1572" y="238.3277">findEmployeeByID(String id) : Collaborator</text></g><!--class TeamGeneratorUI--><g id="elem_TeamGeneratorUI"><rect codeLine="81" fill="#F1F1F1" height="28.8" id="TeamGeneratorUI" rx="1.5" ry="1.5" style="stroke:#181818;stroke-width:0.3;" width="87" x="950.1" y="180.6"/><ellipse cx="959.1" cy="190.2" fill="#ADD1B2" rx="6.6" ry="6.6" style="stroke:#181818;stroke-width:0.6;"/><path d="M960.7594,187.725 Q960.8531,187.5938 960.9656,187.5281 Q961.0781,187.4625 961.2094,187.4625 Q961.4344,187.4625 961.575,187.6219 Q961.7156,187.7719 961.7156,188.1375 L961.7156,189.0094 Q961.7156,189.375 961.575,189.5344 Q961.4344,189.6938 961.2094,189.6938 Q961.0031,189.6938 960.8812,189.5719 Q960.7594,189.4594 960.6937,189.15 Q960.6656,188.9344 960.5531,188.8219 Q960.3562,188.5969 959.9906,188.4656 Q959.625,188.3344 959.25,188.3344 Q958.7906,188.3344 958.4063,188.5313 Q958.0313,188.7281 957.7312,189.1781 Q957.4406,189.6281 957.4406,190.2469 L957.4406,190.9031 Q957.4406,191.6437 957.975,192.1406 Q958.5094,192.6281 959.4656,192.6281 Q960.0281,192.6281 960.4219,192.4781 Q960.6563,192.3844 960.9094,192.1219 Q961.0687,191.9625 961.1531,191.9156 Q961.2469,191.8688 961.3688,191.8688 Q961.5656,191.8688 961.7156,192.0281 Q961.875,192.1781 961.875,192.3844 Q961.875,192.5906 961.6687,192.8344 Q961.3688,193.1813 960.8906,193.3781 Q960.2438,193.65 959.4656,193.65 Q958.5563,193.65 957.8344,193.275 Q957.2438,192.975 956.8313,192.3375 Q956.4187,191.6906 956.4187,190.9219 L956.4187,190.2281 Q956.4187,189.4313 956.7844,188.7469 Q957.1594,188.0531 957.8156,187.6875 Q958.4719,187.3125 959.2125,187.3125 Q959.6531,187.3125 960.0375,187.4156 Q960.4313,187.5094 960.7594,187.725 Z " fill="#000000"/><text fill="#000000" font-family="sans-serif" font-size="8.4" lengthAdjust="spacing" textLength="67.8" x="967.5" y="193.6781">TeamGeneratorUI</text><line style="stroke:#181818;stroke-width:0.3;" x1="950.7" x2="1036.5" y1="199.8" y2="199.8"/><line style="stroke:#181818;stroke-width:0.3;" x1="950.7" x2="1036.5" y1="204.6" y2="204.6"/></g><g id="elem_GMN14"><path d="M1068.9,32.7 L1068.9,38.4 L1047.63,40.8 L1068.9,43.2 L1068.9,49.0746 A0,0 0 0 0 1068.9,49.0746 L1220.7,49.0746 A0,0 0 0 0 1220.7,49.0746 L1220.7,38.7 L1214.7,32.7 L1068.9,32.7 A0,0 0 0 0 1068.9,32.7 " fill="#FEFFDD" style="stroke:#181818;stroke-width:0.3;"/><path d="M1214.7,32.7 L1214.7,38.7 L1220.7,38.7 L1214.7,32.7 " fill="#FEFFDD" style="stroke:#181818;stroke-width:0.3;"/><text fill="#000000" font-family="sans-serif" font-size="7.8" lengthAdjust="spacing" textLength="139.2" x="1072.5" y="44.117">- HRM inputs team size and skill criteria</text></g><g id="elem_GMN17"><path d="M3.6,176.4 L3.6,213.5238 A0,0 0 0 0 3.6,213.5238 L244.8,213.5238 A0,0 0 0 0 244.8,213.5238 L244.8,197.4 L265.914,195 L244.8,192.6 L244.8,182.4 L238.8,176.4 L3.6,176.4 A0,0 0 0 0 3.6,176.4 " fill="#FEFFDD" style="stroke:#181818;stroke-width:0.3;"/><path d="M238.8,176.4 L238.8,182.4 L244.8,182.4 L238.8,176.4 " fill="#FEFFDD" style="stroke:#181818;stroke-width:0.3;"/><text fill="#000000" font-family="sans-serif" font-size="7.8" lengthAdjust="spacing" textLength="172.8" x="7.2" y="187.817">- Ensures team meets size and skill requirements</text><text fill="#000000" font-family="sans-serif" font-size="7.8" lengthAdjust="spacing" textLength="228.6" x="7.2" y="198.1916">- Team Size and required Skills are obtained from the HRM's input</text><text fill="#000000" font-family="sans-serif" font-size="7.8" lengthAdjust="spacing" textLength="108" x="7.2" y="208.5662">- Updates the Team Repository</text></g><g id="elem_GMN20"><path d="M613.5,439.8 L613.5,466.5492 A0,0 0 0 0 613.5,466.5492 L802.5,466.5492 A0,0 0 0 0 802.5,466.5492 L802.5,445.8 L796.5,439.8 L710.4,439.8 L708,386.076 L705.6,439.8 L613.5,439.8 A0,0 0 0 0 613.5,439.8 " fill="#FEFFDD" style="stroke:#181818;stroke-width:0.3;"/><path d="M796.5,439.8 L796.5,445.8 L802.5,445.8 L796.5,439.8 " fill="#FEFFDD" style="stroke:#181818;stroke-width:0.3;"/><text fill="#000000" font-family="sans-serif" font-size="7.8" lengthAdjust="spacing" textLength="120.6" x="617.1" y="451.217">- Maintains a list of team members</text><text fill="#000000" font-family="sans-serif" font-size="7.8" lengthAdjust="spacing" textLength="176.4" x="617.1" y="461.5916">- Checks if team meets size and skill requirements</text></g><g id="elem_GMN23"><path d="M698.1,181.5 L698.1,208.2492 L929.1,208.2492 L929.1,187.5 L923.1,181.5 L698.1,181.5 " fill="#FEFFDD" style="stroke:#181818;stroke-width:0.3;"/><path d="M923.1,181.5 L923.1,187.5 L929.1,187.5 L923.1,181.5 " fill="#FEFFDD" style="stroke:#181818;stroke-width:0.6;"/><text fill="#000000" font-family="sans-serif" font-size="7.8" lengthAdjust="spacing" textLength="218.4" x="701.7" y="192.917">- UI for HRM to input min. and max. team size and select skills</text><text fill="#000000" font-family="sans-serif" font-size="7.8" lengthAdjust="spacing" textLength="162" x="701.7" y="203.2916">- Communicates with TeamGeneratorController</text></g><g id="elem_GMN26"><path d="M1571.1,341.1 L1571.1,357.4746 A0,0 0 0 0 1571.1,357.4746 L1724.1,357.4746 A0,0 0 0 0 1724.1,357.4746 L1724.1,347.1 L1718.1,341.1 L1650,341.1 L1647.6,243.174 L1645.2,341.1 L1571.1,341.1 A0,0 0 0 0 1571.1,341.1 " fill="#FEFFDD" style="stroke:#181818;stroke-width:0.3;"/><path d="M1718.1,341.1 L1718.1,347.1 L1724.1,347.1 L1718.1,341.1 " fill="#FEFFDD" style="stroke:#181818;stroke-width:0.3;"/><text fill="#000000" font-family="sans-serif" font-size="7.8" lengthAdjust="spacing" textLength="140.4" x="1574.7" y="352.517">- Manages collaborators, skills, and jobs</text></g><!--class SkillRepository--><g id="elem_SkillRepository"><rect fill="#F1F1F1" height="28.8" id="SkillRepository" rx="1.5" ry="1.5" style="stroke:#181818;stroke-width:0.3;" width="75" x="1463.7" y="180.6"/><ellipse cx="1472.7" cy="190.2" fill="#ADD1B2" rx="6.6" ry="6.6" style="stroke:#181818;stroke-width:0.6;"/><path d="M1474.3594,187.725 Q1474.4531,187.5938 1474.5656,187.5281 Q1474.6781,187.4625 1474.8094,187.4625 Q1475.0344,187.4625 1475.175,187.6219 Q1475.3156,187.7719 1475.3156,188.1375 L1475.3156,189.0094 Q1475.3156,189.375 1475.175,189.5344 Q1475.0344,189.6938 1474.8094,189.6938 Q1474.6031,189.6938 1474.4813,189.5719 Q1474.3594,189.4594 1474.2938,189.15 Q1474.2656,188.9344 1474.1531,188.8219 Q1473.9563,188.5969 1473.5906,188.4656 Q1473.225,188.3344 1472.85,188.3344 Q1472.3906,188.3344 1472.0063,188.5313 Q1471.6313,188.7281 1471.3313,189.1781 Q1471.0406,189.6281 1471.0406,190.2469 L1471.0406,190.9031 Q1471.0406,191.6437 1471.575,192.1406 Q1472.1094,192.6281 1473.0656,192.6281 Q1473.6281,192.6281 1474.0219,192.4781 Q1474.2563,192.3844 1474.5094,192.1219 Q1474.6688,191.9625 1474.7531,191.9156 Q1474.8469,191.8688 1474.9688,191.8688 Q1475.1656,191.8688 1475.3156,192.0281 Q1475.475,192.1781 1475.475,192.3844 Q1475.475,192.5906 1475.2688,192.8344 Q1474.9688,193.1813 1474.4906,193.3781 Q1473.8438,193.65 1473.0656,193.65 Q1472.1563,193.65 1471.4344,193.275 Q1470.8438,192.975 1470.4312,192.3375 Q1470.0188,191.6906 1470.0188,190.9219 L1470.0188,190.2281 Q1470.0188,189.4313 1470.3844,188.7469 Q1470.7594,188.0531 1471.4156,187.6875 Q1472.0719,187.3125 1472.8125,187.3125 Q1473.2531,187.3125 1473.6375,187.4156 Q1474.0313,187.5094 1474.3594,187.725 Z " fill="#000000"/><text fill="#000000" font-family="sans-serif" font-size="8.4" lengthAdjust="spacing" textLength="55.8" x="1481.1" y="193.6781">SkillRepository</text><line style="stroke:#181818;stroke-width:0.3;" x1="1464.3" x2="1538.1" y1="199.8" y2="199.8"/><line style="stroke:#181818;stroke-width:0.3;" x1="1464.3" x2="1538.1" y1="204.6" y2="204.6"/></g><!--link GMN23 to TeamGeneratorUI--><g id="link_GMN23_TeamGeneratorUI"><path d="M929.286,195 C931.986,195 933.6,195 933.6,195 C933.6,195 940.692,195 949.998,195 " fill="none" id="GMN23-TeamGeneratorUI" style="stroke:#181818;stroke-width:0.6;stroke-dasharray:7.0,7.0;"/></g><!--link HumanResourcesManager to TeamGeneratorController--><g id="link_HumanResourcesManager_TeamGeneratorController"><path codeLine="110" d="M844.68,74.13 C773.472,97.086 681.1083,126.8573 604.4163,151.5833 " fill="none" id="HumanResourcesManager-to-TeamGeneratorController" style="stroke:#181818;stroke-width:0.6;"/><polygon fill="#181818" points="600.99,152.688,606.8659,153.3152,603.8453,151.7674,605.393,148.7468,600.99,152.688" style="stroke:#181818;stroke-width:0.6;"/><text fill="#000000" font-family="sans-serif" font-size="7.8" lengthAdjust="spacing" textLength="16.8" x="766.2" y="104.417">uses</text></g><!--link TeamGeneratorController to Team--><g id="link_TeamGeneratorController_Team"><path codeLine="111" d="M536.04,237.306 C572.406,260.844 614.3777,288.0061 649.2197,310.5541 " fill="none" id="TeamGeneratorController-to-Team" style="stroke:#181818;stroke-width:0.6;"/><polygon fill="#181818" points="652.242,312.51,649.0124,307.5613,649.7234,310.8801,646.4046,311.591,652.242,312.51" style="stroke:#181818;stroke-width:0.6;"/><text fill="#000000" font-family="sans-serif" font-size="7.8" lengthAdjust="spacing" textLength="34.2" x="618.6" y="292.217">generates</text></g><!--reverse link Skill to Collaborator--><g id="link_Skill_Collaborator"><path codeLine="112" d="M1821.18,195 C1838.274,195 1856.556,195 1876.968,195 " fill="none" id="Skill-backto-Collaborator" style="stroke:#181818;stroke-width:0.6;"/><polygon fill="#181818" points="1817.58,195,1822.98,197.4,1820.58,195,1822.98,192.6,1817.58,195" style="stroke:#181818;stroke-width:0.6;"/><text fill="#000000" font-family="sans-serif" font-size="7.8" lengthAdjust="spacing" textLength="37.8" x="1828.35" y="190.817">possesses</text></g><!--link Collaborator to Job--><g id="link_Collaborator_Job"><path codeLine="113" d="M1999.062,195 C2019.474,195 2037.75,195 2054.838,195 " fill="none" id="Collaborator-to-Job" style="stroke:#181818;stroke-width:0.6;"/><polygon fill="#181818" points="2058.438,195,2053.038,192.6,2055.438,195,2053.038,197.4,2058.438,195" style="stroke:#181818;stroke-width:0.6;"/><text fill="#000000" font-family="sans-serif" font-size="7.8" lengthAdjust="spacing" textLength="37.8" x="2009.85" y="190.817">possesses</text></g><!--link Organization to Collaborator--><g id="link_Organization_Collaborator"><path codeLine="114" d="M1715.136,146.82 C1732.308,134.568 1746,124.8 1746,124.8 C1746,124.8 1789.5,111 1789.5,111 C1789.5,111 1822.5,111 1822.5,111 C1822.5,111 1846.3608,128.3522 1874.1228,148.5482 " fill="none" id="Organization-to-Collaborator" style="stroke:#181818;stroke-width:0.6;"/><polygon fill="#181818" points="1877.034,150.666,1874.0791,145.5485,1874.608,148.9012,1871.2554,149.4301,1877.034,150.666" style="stroke:#181818;stroke-width:0.6;"/><text fill="#000000" font-family="sans-serif" font-size="7.8" lengthAdjust="spacing" textLength="31.8" x="1790.1" y="104.417">manages</text></g><!--reverse link HumanResourcesManager to Organization--><g id="link_HumanResourcesManager_Organization"><path codeLine="115" d="M1051.0703,75.0484 C1057.7183,77.1784 1058.4,77.4 1058.4,77.4 C1058.4,77.4 1388.4,95.4 1388.4,95.4 C1388.4,95.4 1549.2,124.8 1549.2,124.8 C1549.2,124.8 1563.036,134.586 1580.334,146.82 " fill="none" id="HumanResourcesManager-backto-Organization" style="stroke:#181818;stroke-width:0.6;"/><polygon fill="#181818" points="1047.642,73.95,1052.0522,77.8832,1050.4989,74.8654,1053.5168,73.3121,1047.642,73.95" style="stroke:#181818;stroke-width:0.6;"/><text fill="#000000" font-family="sans-serif" font-size="7.8" lengthAdjust="spacing" textLength="36" x="1450.8" y="104.417">belongs to</text></g><!--link Repositories to CollaboratorRepository--><g id="link_Repositories_CollaboratorRepository"><path codeLine="116" d="M1274.502,195 C1292.244,195 1306.41,195 1322.322,195 " fill="none" id="Repositories-to-CollaboratorRepository" style="stroke:#181818;stroke-width:0.6;"/><polygon fill="#181818" points="1325.922,195,1320.522,192.6,1322.922,195,1320.522,197.4,1325.922,195" style="stroke:#181818;stroke-width:0.6;"/><text fill="#000000" font-family="sans-serif" font-size="7.8" lengthAdjust="spacing" textLength="29.4" x="1285.5" y="190.817">contains</text></g><!--link Repositories to SkillRepository--><g id="link_Repositories_SkillRepository"><path codeLine="117" d="M1244.07,158.358 C1280.148,141.336 1315.2,124.8 1315.2,124.8 C1315.2,124.8 1353.3,111 1353.3,111 C1353.3,111 1383.9,111 1383.9,111 C1383.9,111 1452.6,124.8 1452.6,124.8 C1452.6,124.8 1474.8446,156.9343 1489.0826,177.4963 " fill="none" id="Repositories-to-SkillRepository" style="stroke:#181818;stroke-width:0.6;"/><polygon fill="#181818" points="1491.132,180.456,1490.031,174.6502,1489.4241,177.9896,1486.0847,177.3827,1491.132,180.456" style="stroke:#181818;stroke-width:0.6;"/><text fill="#000000" font-family="sans-serif" font-size="7.8" lengthAdjust="spacing" textLength="29.4" x="1353.9" y="104.417">contains</text></g><!--link TeamGeneratorController to Repositories--><g id="link_TeamGeneratorController_Repositories"><path codeLine="118" d="M601.764,152.694 C647.448,137.85 687.6,124.8 687.6,124.8 C687.6,124.8 850.2,111 850.2,111 C850.2,111 885,111 885,111 C885,111 1047.6,124.8 1047.6,124.8 C1047.6,124.8 1072.4847,139.5046 1101.2907,156.5266 " fill="none" id="TeamGeneratorController-to-Repositories" style="stroke:#181818;stroke-width:0.6;"/><polygon fill="#181818" points="1104.39,158.358,1100.962,153.5446,1101.8072,156.8318,1098.5201,157.677,1104.39,158.358" style="stroke:#181818;stroke-width:0.6;"/><text fill="#000000" font-family="sans-serif" font-size="7.8" lengthAdjust="spacing" textLength="33.6" x="850.8" y="104.417">accesses</text></g><!--link ApplicationSession to ApplicationSession--><g id="link_ApplicationSession_ApplicationSession"><path codeLine="119" d="M517.926,338.076 C529.836,338.784 538.8,342.492 538.8,349.2 C538.8,355.908 533.4297,359.4024 521.5197,360.1104 " fill="none" id="ApplicationSession-to-ApplicationSession" style="stroke:#181818;stroke-width:0.6;"/><polygon fill="#181818" points="517.926,360.324,523.4589,362.3993,520.9207,360.146,523.1741,357.6078,517.926,360.324" style="stroke:#181818;stroke-width:0.6;"/><text fill="#000000" font-family="sans-serif" font-size="7.8" lengthAdjust="spacing" textLength="29.4" x="542.4" y="352.517">instance</text></g><!--link ApplicationSession to UserSession--><g id="link_ApplicationSession_UserSession"><path codeLine="120" d="M457.512,374.712 C447.354,392.67 435.6024,413.4465 426.2184,430.0365 " fill="none" id="ApplicationSession-to-UserSession" style="stroke:#181818;stroke-width:0.6;"/><polygon fill="#181818" points="424.446,433.17,429.1936,429.6514,425.923,430.5588,425.0157,427.2882,424.446,433.17" style="stroke:#181818;stroke-width:0.6;"/><text fill="#000000" font-family="sans-serif" font-size="7.8" lengthAdjust="spacing" textLength="43.2" x="441.6" y="412.817">userSession</text><text fill="#000000" font-family="sans-serif" font-size="7.8" lengthAdjust="spacing" textLength="4.2" x="422.0072" y="426.4594">1</text></g><!--link TeamGeneratorController to ApplicationSession--><g id="link_TeamGeneratorController_ApplicationSession"><path codeLine="121" d="M471.6,237.408 C471.6,265.014 471.6,296.664 471.6,319.992 " fill="none" id="TeamGeneratorController-to-ApplicationSession" style="stroke:#181818;stroke-width:0.6;stroke-dasharray:7.0,7.0;"/><polygon fill="#181818" points="471.6,323.592,474,318.192,471.6,320.592,469.2,318.192,471.6,323.592" style="stroke:#181818;stroke-width:0.6;"/></g><!--link TeamGeneratorController to UserSession--><g id="link_TeamGeneratorController_UserSession"><path codeLine="122" d="M451.266,237.342 C434.892,270.942 414.6,312.6 414.6,312.6 C414.6,312.6 413.9288,390.7081 413.5988,429.3241 " fill="none" id="TeamGeneratorController-to-UserSession" style="stroke:#181818;stroke-width:0.6;stroke-dasharray:7.0,7.0;"/><polygon fill="#181818" points="413.568,432.924,416.0141,427.5447,413.5936,429.9241,411.2142,427.5037,413.568,432.924" style="stroke:#181818;stroke-width:0.6;"/></g><!--link TeamGeneratorUI to TeamGeneratorController--><g id="link_TeamGeneratorUI_TeamGeneratorController"><path codeLine="123" d="M983.664,180.534 C965.568,154.194 929.1,101.1 929.1,101.1 C929.1,101.1 698.1,101.1 698.1,101.1 C698.1,101.1 637.1475,126.3672 577.0755,151.2732 " fill="none" id="TeamGeneratorUI-to-TeamGeneratorController" style="stroke:#181818;stroke-width:0.6;stroke-dasharray:7.0,7.0;"/><polygon fill="#181818" points="573.75,152.652,579.6574,152.8009,576.5213,151.503,577.8191,148.3668,573.75,152.652" style="stroke:#181818;stroke-width:0.6;"/></g><!--SRC=[ZLPBZzis4BxhLmnoMGTP6yrLA1RORhQDWsvRhEDJqGCbZMrs-L19AgbJvBzd-91CQQLjVB4ux_au3rxP9wvQPfW4gPMkJqPB16SwB2wSbjLFx8WxTnO81cl7r57a0lR46lsPgoCScB0vHt25xjmYj5gS_Q6ukZ1hmQozTSxmgdEuhRNQyIy8FnH5uC1jsmfUCyU9WTRIN_5V0VHx0zOHkOOZkgsYRrNZwdLY4UskCmQLIqh4-TgRt5iqKrkauCdtad6Hoxxl95EFQ7LdQhGFJ1461hpM6dOKDAMhcCJyZDv6JcXFMda9xqMXOGu_8fD_6DrgoyHAidzzojSWkOeVX8uGzi-_iZXsdZJZTn3ueAkNs7TQ25PfSgxxyBr0cQG3eUB6dHeARqHbZUG1AvXXDOPm7D6ahZXLo9rMZjMk1AvSe0TKeEx9cSRs7JIw1byXKxhgP8NcOkHNRjsF0OgR15A0zSHi8Au2hOnWlOOIAgq5CdM1mGEVqW-sSbXkGA9t5srIRW_XkAepcN84PEx2wt3xSqTHJCaIqSK07_6VZXkKL9TsPUAX2Hm2CKjkCVPVOW5fu_4r5CfGZ0GHf4gwd6D1FODkx3d4k62SWgGYvKJZI24-PgVhtbsudg5wq-cbv4QjCBI1pzb7SKauzvQoJ2tFKx_3EAHaE1i72mBv9GxySn2VP_MAwHP76XFQVCzT-26JDtFbT-2gkHMZyVExEJB5luJnz_BK-SJSRw5RbeeRPIlq6N4ex_j4MFMS4dfIl28gLFq9_rVCXzrJVZfltwrIHBoPuhbGo_ijfKQieb3QqNBXnvC3VPYVlI6zzuyFL0Djvomutz7MhmoccZWKe3RSeU6iG29vcycom4Cml53imVIziXqDjMWtTExKkicQEAY4eRBhXVhAZtLXWHa4NJb6Uw-10wrMS2Vq6LpPc4EmiM_zTBM15-nb1JN9ejBEaPMKHz1-8ElU0tcZRMj3aYc1VgAjuUw4zHFvF7nlRj-3tduRmz_2WHQBlnUdOrf-86o2QPeJc-azeQ0dn6M6KtHQoaxvJKyeVERkj7XBYt3apP9WyILZ8P_Wjb-lro6GltML9pg_xjVqi57hcyK9N49dgQ-MsBawoVQJpnQZfRps-99KtFGbFPOi6RNFn49xa9nV-BdKQ5GCKYFTaguY838HxbgId4-TzX0AhOvKcReO3UHP5zcOA-Eofw9Sq9lCpLnX4SbUTsIn15RN4OJdhqKWwHbgEUoGMHrIUlNsLVvIZ9Syl1kN8jnivjozABvVCajDjLaikk8R]--></g></svg>