<?xml version="1.0" encoding="us-ascii" standalone="no"?><svg xmlns="http://www.w3.org/2000/svg" xmlns:xlink="http://www.w3.org/1999/xlink" contentStyleType="text/css" height="2058px" preserveAspectRatio="none" style="width:2892px;height:2058px;background:#FFFFFF;" version="1.1" viewBox="0 0 2892 2058" width="2892px" zoomAndPan="magnify"><defs/><g><rect fill="#FFFFFF" height="1863.5781" style="stroke:#181818;stroke-width:1.0;" width="10" x="91" y="93.6211"/><rect fill="#FFFFFF" height="137.4941" style="stroke:#181818;stroke-width:1.0;" width="10" x="502" y="116.9121"/><rect fill="#FFFFFF" height="31.291" style="stroke:#181818;stroke-width:1.0;" width="10" x="502" y="285.6973"/><rect fill="#FFFFFF" height="250.3281" style="stroke:#181818;stroke-width:1.0;" width="10" x="502" y="382.8613"/><rect fill="#FFFFFF" height="1292.7188" style="stroke:#181818;stroke-width:1.0;" width="10" x="502" y="664.4805"/><rect fill="#FFFFFF" height="187.7461" style="stroke:#181818;stroke-width:1.0;" width="10" x="924" y="414.1523"/><rect fill="#FFFFFF" height="1042.3906" style="stroke:#181818;stroke-width:1.0;" width="10" x="924" y="883.5176"/><rect fill="#FFFFFF" height="513.6563" style="stroke:#181818;stroke-width:1.0;" width="10" x="929" y="1135.5547"/><rect fill="#FFFFFF" height="31.291" style="stroke:#181818;stroke-width:1.0;" width="10" x="1127" y="191.8242"/><rect fill="#FFFFFF" height="31.291" style="stroke:#181818;stroke-width:1.0;" width="10" x="1127" y="1039.9727"/><rect fill="#FFFFFF" height="31.291" style="stroke:#181818;stroke-width:1.0;" width="10" x="1234" y="476.7344"/><rect fill="#FFFFFF" height="31.291" style="stroke:#181818;stroke-width:1.0;" width="10" x="1234" y="914.8086"/><rect fill="#FFFFFF" height="31.291" style="stroke:#181818;stroke-width:1.0;" width="10" x="1234" y="1359.5918"/><rect fill="#FFFFFF" height="31.291" style="stroke:#181818;stroke-width:1.0;" width="10" x="1347" y="539.3164"/><rect fill="#FFFFFF" height="31.291" style="stroke:#181818;stroke-width:1.0;" width="10" x="1347" y="727.0625"/><rect fill="#FFFFFF" height="31.291" style="stroke:#181818;stroke-width:1.0;" width="10" x="1493.5" y="977.3906"/><rect fill="#FFFFFF" height="31.291" style="stroke:#181818;stroke-width:1.0;" width="10" x="1654" y="1171.8457"/><rect fill="#FFFFFF" height="31.291" style="stroke:#181818;stroke-width:1.0;" width="10" x="1801" y="1234.4277"/><rect fill="#FFFFFF" height="31.291" style="stroke:#181818;stroke-width:1.0;" width="10" x="1934" y="1297.0098"/><rect fill="#FFFFFF" height="127.1641" style="stroke:#181818;stroke-width:1.0;" width="10" x="2080" y="1422.1738"/><rect fill="#FFFFFF" height="31.291" style="stroke:#181818;stroke-width:1.0;" width="10" x="2301" y="1479.7559"/><rect fill="#FFFFFF" height="31.291" style="stroke:#181818;stroke-width:1.0;" width="10" x="2301" y="1580.6289"/><rect fill="#FFFFFF" height="253.6973" style="stroke:#181818;stroke-width:1.0;" width="10" x="2301" y="1712.502"/><rect fill="#FFFFFF" height="80.582" style="stroke:#181818;stroke-width:1.0;" width="10" x="2306" y="1814.0352"/><rect fill="none" height="81.873" style="stroke:#000000;stroke-width:1.5;" width="371.5" x="1993.5" y="1437.1738"/><line style="stroke:#181818;stroke-width:0.5;stroke-dasharray:5.0,5.0;" x1="96" x2="96" y1="83.6211" y2="1975.1992"/><line style="stroke:#181818;stroke-width:0.5;stroke-dasharray:5.0,5.0;" x1="506.5" x2="506.5" y1="83.6211" y2="1975.1992"/><line style="stroke:#181818;stroke-width:0.5;stroke-dasharray:5.0,5.0;" x1="928.5" x2="928.5" y1="156.7227" y2="1975.1992"/><line style="stroke:#181818;stroke-width:0.5;stroke-dasharray:5.0,5.0;" x1="1131.5" x2="1131.5" y1="83.6211" y2="1975.1992"/><line style="stroke:#181818;stroke-width:0.5;stroke-dasharray:5.0,5.0;" x1="1238.5" x2="1238.5" y1="83.6211" y2="1975.1992"/><line style="stroke:#181818;stroke-width:0.5;stroke-dasharray:5.0,5.0;" x1="1351.5" x2="1351.5" y1="83.6211" y2="1975.1992"/><line style="stroke:#181818;stroke-width:0.5;stroke-dasharray:5.0,5.0;" x1="1498.5" x2="1498.5" y1="83.6211" y2="1975.1992"/><line style="stroke:#181818;stroke-width:0.5;stroke-dasharray:5.0,5.0;" x1="1658.5" x2="1658.5" y1="83.6211" y2="1975.1992"/><line style="stroke:#181818;stroke-width:0.5;stroke-dasharray:5.0,5.0;" x1="1805.5" x2="1805.5" y1="83.6211" y2="1975.1992"/><line style="stroke:#181818;stroke-width:0.5;stroke-dasharray:5.0,5.0;" x1="1938.5" x2="1938.5" y1="83.6211" y2="1975.1992"/><line style="stroke:#181818;stroke-width:0.5;stroke-dasharray:5.0,5.0;" x1="2084.5" x2="2084.5" y1="83.6211" y2="1975.1992"/><line style="stroke:#181818;stroke-width:0.5;stroke-dasharray:5.0,5.0;" x1="2306" x2="2306" y1="83.6211" y2="1975.1992"/><line style="stroke:#181818;stroke-width:0.5;stroke-dasharray:5.0,5.0;" x1="2859" x2="2859" y1="1761.623" y2="1975.1992"/><text fill="#000000" font-family="sans-serif" font-size="14" lengthAdjust="spacing" textLength="176" x="5" y="80.1074">Human Resources Manager</text><ellipse cx="96" cy="13.5" fill="#E3E3E3" rx="8" ry="8" style="stroke:#181818;stroke-width:0.5;"/><path d="M96,21.5 L96,48.5 M83,29.5 L109,29.5 M96,48.5 L83,63.5 M96,48.5 L109,63.5 " fill="none" style="stroke:#181818;stroke-width:0.5;"/><text fill="#000000" font-family="sans-serif" font-size="14" lengthAdjust="spacing" textLength="176" x="5" y="1989.3066">Human Resources Manager</text><ellipse cx="96" cy="2001.3203" fill="#E3E3E3" rx="8" ry="8" style="stroke:#181818;stroke-width:0.5;"/><path d="M96,2009.3203 L96,2036.3203 M83,2017.3203 L109,2017.3203 M96,2036.3203 L83,2051.3203 M96,2036.3203 L109,2051.3203 " fill="none" style="stroke:#181818;stroke-width:0.5;"/><rect fill="#E3E3E3" height="32.6211" rx="2.5" ry="2.5" style="stroke:#181818;stroke-width:0.5;" width="131" x="441.5" y="50"/><text fill="#000000" font-family="sans-serif" font-size="14" lengthAdjust="spacing" textLength="117" x="448.5" y="72.1074">:TeamGeneratorUI</text><rect fill="#E3E3E3" height="32.6211" rx="2.5" ry="2.5" style="stroke:#181818;stroke-width:0.5;" width="131" x="441.5" y="1974.1992"/><text fill="#000000" font-family="sans-serif" font-size="14" lengthAdjust="spacing" textLength="117" x="448.5" y="1996.3066">:TeamGeneratorUI</text><rect fill="#E3E3E3" height="32.6211" rx="2.5" ry="2.5" style="stroke:#181818;stroke-width:0.5;" width="181" x="838.5" y="1974.1992"/><text fill="#000000" font-family="sans-serif" font-size="14" lengthAdjust="spacing" textLength="167" x="845.5" y="1996.3066">:TeamGeneratorController</text><rect fill="#E3E3E3" height="32.6211" rx="2.5" ry="2.5" style="stroke:#181818;stroke-width:0.5;" width="97" x="1083.5" y="50"/><text fill="#000000" font-family="sans-serif" font-size="14" lengthAdjust="spacing" textLength="83" x="1090.5" y="72.1074">:Repositories</text><rect fill="#E3E3E3" height="32.6211" rx="2.5" ry="2.5" style="stroke:#181818;stroke-width:0.5;" width="97" x="1083.5" y="1974.1992"/><text fill="#000000" font-family="sans-serif" font-size="14" lengthAdjust="spacing" textLength="83" x="1090.5" y="1996.3066">:Repositories</text><rect fill="#E3E3E3" height="51.2422" rx="2.5" ry="2.5" style="stroke:#181818;stroke-width:0.5;" width="97" x="1190.5" y="31.3789"/><text fill="#000000" font-family="sans-serif" font-size="14" lengthAdjust="spacing" textLength="74" x="1202" y="53.4863">repositories</text><text fill="#000000" font-family="sans-serif" font-size="14" lengthAdjust="spacing" textLength="83" x="1197.5" y="72.1074">:Repositories</text><rect fill="#E3E3E3" height="51.2422" rx="2.5" ry="2.5" style="stroke:#181818;stroke-width:0.5;" width="97" x="1190.5" y="1974.1992"/><text fill="#000000" font-family="sans-serif" font-size="14" lengthAdjust="spacing" textLength="74" x="1202" y="1996.3066">repositories</text><text fill="#000000" font-family="sans-serif" font-size="14" lengthAdjust="spacing" textLength="83" x="1197.5" y="2014.9277">:Repositories</text><rect fill="#E3E3E3" height="51.2422" rx="2.5" ry="2.5" style="stroke:#181818;stroke-width:0.5;" width="109" x="1297.5" y="31.3789"/><text fill="#000000" font-family="sans-serif" font-size="14" lengthAdjust="spacing" textLength="95" x="1304.5" y="53.4863">skillRepository:</text><text fill="#000000" font-family="sans-serif" font-size="14" lengthAdjust="spacing" textLength="93" x="1305.5" y="72.1074">SkillRepository</text><rect fill="#E3E3E3" height="51.2422" rx="2.5" ry="2.5" style="stroke:#181818;stroke-width:0.5;" width="109" x="1297.5" y="1974.1992"/><text fill="#000000" font-family="sans-serif" font-size="14" lengthAdjust="spacing" textLength="95" x="1304.5" y="1996.3066">skillRepository:</text><text fill="#000000" font-family="sans-serif" font-size="14" lengthAdjust="spacing" textLength="93" x="1305.5" y="2014.9277">SkillRepository</text><rect fill="#E3E3E3" height="51.2422" rx="2.5" ry="2.5" style="stroke:#181818;stroke-width:0.5;" width="164" x="1416.5" y="31.3789"/><text fill="#000000" font-family="sans-serif" font-size="14" lengthAdjust="spacing" textLength="150" x="1423.5" y="53.4863">CollaboratorRepository:</text><text fill="#000000" font-family="sans-serif" font-size="14" lengthAdjust="spacing" textLength="143" x="1427" y="72.1074">collaboratorRepository</text><rect fill="#E3E3E3" height="51.2422" rx="2.5" ry="2.5" style="stroke:#181818;stroke-width:0.5;" width="164" x="1416.5" y="1974.1992"/><text fill="#000000" font-family="sans-serif" font-size="14" lengthAdjust="spacing" textLength="150" x="1423.5" y="1996.3066">CollaboratorRepository:</text><text fill="#000000" font-family="sans-serif" font-size="14" lengthAdjust="spacing" textLength="143" x="1427" y="2014.9277">collaboratorRepository</text><rect fill="#E3E3E3" height="32.6211" rx="2.5" ry="2.5" style="stroke:#181818;stroke-width:0.5;" width="137" x="1590.5" y="50"/><text fill="#000000" font-family="sans-serif" font-size="14" lengthAdjust="spacing" textLength="123" x="1597.5" y="72.1074">:ApplicationSession</text><rect fill="#E3E3E3" height="32.6211" rx="2.5" ry="2.5" style="stroke:#181818;stroke-width:0.5;" width="137" x="1590.5" y="1974.1992"/><text fill="#000000" font-family="sans-serif" font-size="14" lengthAdjust="spacing" textLength="123" x="1597.5" y="1996.3066">:ApplicationSession</text><rect fill="#E3E3E3" height="51.2422" rx="2.5" ry="2.5" style="stroke:#181818;stroke-width:0.5;" width="137" x="1737.5" y="31.3789"/><text fill="#000000" font-family="sans-serif" font-size="14" lengthAdjust="spacing" textLength="74" x="1769" y="53.4863">appSession</text><text fill="#000000" font-family="sans-serif" font-size="14" lengthAdjust="spacing" textLength="123" x="1744.5" y="72.1074">:ApplicationSession</text><rect fill="#E3E3E3" height="51.2422" rx="2.5" ry="2.5" style="stroke:#181818;stroke-width:0.5;" width="137" x="1737.5" y="1974.1992"/><text fill="#000000" font-family="sans-serif" font-size="14" lengthAdjust="spacing" textLength="74" x="1769" y="1996.3066">appSession</text><text fill="#000000" font-family="sans-serif" font-size="14" lengthAdjust="spacing" textLength="123" x="1744.5" y="2014.9277">:ApplicationSession</text><rect fill="#E3E3E3" height="51.2422" rx="2.5" ry="2.5" style="stroke:#181818;stroke-width:0.5;" width="109" x="1884.5" y="31.3789"/><text fill="#000000" font-family="sans-serif" font-size="14" lengthAdjust="spacing" textLength="95" x="1891.5" y="53.4863">currentSession</text><text fill="#000000" font-family="sans-serif" font-size="14" lengthAdjust="spacing" textLength="83" x="1897.5" y="72.1074">:UserSession</text><rect fill="#E3E3E3" height="51.2422" rx="2.5" ry="2.5" style="stroke:#181818;stroke-width:0.5;" width="109" x="1884.5" y="1974.1992"/><text fill="#000000" font-family="sans-serif" font-size="14" lengthAdjust="spacing" textLength="95" x="1891.5" y="1996.3066">currentSession</text><text fill="#000000" font-family="sans-serif" font-size="14" lengthAdjust="spacing" textLength="83" x="1897.5" y="2014.9277">:UserSession</text><rect fill="#E3E3E3" height="51.2422" rx="2.5" ry="2.5" style="stroke:#181818;stroke-width:0.5;" width="163" x="2003.5" y="31.3789"/><text fill="#000000" font-family="sans-serif" font-size="14" lengthAdjust="spacing" textLength="149" x="2010.5" y="53.4863">organizationRepository:</text><text fill="#000000" font-family="sans-serif" font-size="14" lengthAdjust="spacing" textLength="148" x="2011" y="72.1074">OrganizationRepository</text><rect fill="#E3E3E3" height="51.2422" rx="2.5" ry="2.5" style="stroke:#181818;stroke-width:0.5;" width="163" x="2003.5" y="1974.1992"/><text fill="#000000" font-family="sans-serif" font-size="14" lengthAdjust="spacing" textLength="149" x="2010.5" y="1996.3066">organizationRepository:</text><text fill="#000000" font-family="sans-serif" font-size="14" lengthAdjust="spacing" textLength="148" x="2011" y="2014.9277">OrganizationRepository</text><rect fill="#E3E3E3" height="51.2422" rx="2.5" ry="2.5" style="stroke:#181818;stroke-width:0.5;" width="98" x="2257" y="31.3789"/><text fill="#000000" font-family="sans-serif" font-size="14" lengthAdjust="spacing" textLength="77" x="2267.5" y="53.4863">organization</text><text fill="#000000" font-family="sans-serif" font-size="14" lengthAdjust="spacing" textLength="84" x="2264" y="72.1074">:Organization</text><rect fill="#E3E3E3" height="51.2422" rx="2.5" ry="2.5" style="stroke:#181818;stroke-width:0.5;" width="98" x="2257" y="1974.1992"/><text fill="#000000" font-family="sans-serif" font-size="14" lengthAdjust="spacing" textLength="77" x="2267.5" y="1996.3066">organization</text><text fill="#000000" font-family="sans-serif" font-size="14" lengthAdjust="spacing" textLength="84" x="2264" y="2014.9277">:Organization</text><rect fill="#E3E3E3" height="51.2422" rx="2.5" ry="2.5" style="stroke:#181818;stroke-width:0.5;" width="54" x="2832" y="1974.1992"/><text fill="#000000" font-family="sans-serif" font-size="14" lengthAdjust="spacing" textLength="31" x="2843.5" y="1996.3066">team</text><text fill="#000000" font-family="sans-serif" font-size="14" lengthAdjust="spacing" textLength="40" x="2839" y="2014.9277">:Team</text><rect fill="#FFFFFF" height="1863.5781" style="stroke:#181818;stroke-width:1.0;" width="10" x="91" y="93.6211"/><rect fill="#FFFFFF" height="137.4941" style="stroke:#181818;stroke-width:1.0;" width="10" x="502" y="116.9121"/><rect fill="#FFFFFF" height="31.291" style="stroke:#181818;stroke-width:1.0;" width="10" x="502" y="285.6973"/><rect fill="#FFFFFF" height="250.3281" style="stroke:#181818;stroke-width:1.0;" width="10" x="502" y="382.8613"/><rect fill="#FFFFFF" height="1292.7188" style="stroke:#181818;stroke-width:1.0;" width="10" x="502" y="664.4805"/><rect fill="#FFFFFF" height="187.7461" style="stroke:#181818;stroke-width:1.0;" width="10" x="924" y="414.1523"/><rect fill="#FFFFFF" height="1042.3906" style="stroke:#181818;stroke-width:1.0;" width="10" x="924" y="883.5176"/><rect fill="#FFFFFF" height="513.6563" style="stroke:#181818;stroke-width:1.0;" width="10" x="929" y="1135.5547"/><rect fill="#FFFFFF" height="31.291" style="stroke:#181818;stroke-width:1.0;" width="10" x="1127" y="191.8242"/><rect fill="#FFFFFF" height="31.291" style="stroke:#181818;stroke-width:1.0;" width="10" x="1127" y="1039.9727"/><rect fill="#FFFFFF" height="31.291" style="stroke:#181818;stroke-width:1.0;" width="10" x="1234" y="476.7344"/><rect fill="#FFFFFF" height="31.291" style="stroke:#181818;stroke-width:1.0;" width="10" x="1234" y="914.8086"/><rect fill="#FFFFFF" height="31.291" style="stroke:#181818;stroke-width:1.0;" width="10" x="1234" y="1359.5918"/><rect fill="#FFFFFF" height="31.291" style="stroke:#181818;stroke-width:1.0;" width="10" x="1347" y="539.3164"/><rect fill="#FFFFFF" height="31.291" style="stroke:#181818;stroke-width:1.0;" width="10" x="1347" y="727.0625"/><rect fill="#FFFFFF" height="31.291" style="stroke:#181818;stroke-width:1.0;" width="10" x="1493.5" y="977.3906"/><rect fill="#FFFFFF" height="31.291" style="stroke:#181818;stroke-width:1.0;" width="10" x="1654" y="1171.8457"/><rect fill="#FFFFFF" height="31.291" style="stroke:#181818;stroke-width:1.0;" width="10" x="1801" y="1234.4277"/><rect fill="#FFFFFF" height="31.291" style="stroke:#181818;stroke-width:1.0;" width="10" x="1934" y="1297.0098"/><rect fill="#FFFFFF" height="127.1641" style="stroke:#181818;stroke-width:1.0;" width="10" x="2080" y="1422.1738"/><rect fill="#FFFFFF" height="31.291" style="stroke:#181818;stroke-width:1.0;" width="10" x="2301" y="1479.7559"/><rect fill="#FFFFFF" height="31.291" style="stroke:#181818;stroke-width:1.0;" width="10" x="2301" y="1580.6289"/><rect fill="#FFFFFF" height="253.6973" style="stroke:#181818;stroke-width:1.0;" width="10" x="2301" y="1712.502"/><rect fill="#FFFFFF" height="80.582" style="stroke:#181818;stroke-width:1.0;" width="10" x="2306" y="1814.0352"/><polygon fill="#181818" points="490,112.9121,500,116.9121,490,120.9121,494,116.9121" style="stroke:#181818;stroke-width:1.0;"/><line style="stroke:#181818;stroke-width:1.0;" x1="101" x2="496" y1="116.9121" y2="116.9121"/><text fill="#000000" font-family="sans-serif" font-size="13" font-weight="bold" lengthAdjust="spacing" textLength="7" x="108" y="111.6494">1</text><text fill="#000000" font-family="sans-serif" font-size="13" lengthAdjust="spacing" textLength="130" x="119" y="111.6494">asks to generate team</text><polygon fill="#181818" points="826.5,144.2031,836.5,148.2031,826.5,152.2031,830.5,148.2031" style="stroke:#181818;stroke-width:1.0;"/><line style="stroke:#181818;stroke-width:1.0;" x1="512" x2="832.5" y1="148.2031" y2="148.2031"/><text fill="#000000" font-family="sans-serif" font-size="13" font-weight="bold" lengthAdjust="spacing" textLength="7" x="519" y="142.9404">2</text><text fill="#000000" font-family="sans-serif" font-size="13" lengthAdjust="spacing" textLength="36" x="530" y="142.9404">create</text><rect fill="#E3E3E3" height="32.6211" rx="2.5" ry="2.5" style="stroke:#181818;stroke-width:0.5;" width="181" x="838.5" y="124.9121"/><text fill="#000000" font-family="sans-serif" font-size="14" lengthAdjust="spacing" textLength="167" x="845.5" y="147.0195">:TeamGeneratorController</text><polygon fill="#181818" points="1115,187.8242,1125,191.8242,1115,195.8242,1119,191.8242" style="stroke:#181818;stroke-width:1.0;"/><line style="stroke:#181818;stroke-width:1.0;" x1="929" x2="1121" y1="191.8242" y2="191.8242"/><text fill="#000000" font-family="sans-serif" font-size="13" font-weight="bold" lengthAdjust="spacing" textLength="7" x="936" y="186.5615">3</text><text fill="#000000" font-family="sans-serif" font-size="13" lengthAdjust="spacing" textLength="75" x="947" y="186.5615">getInstance()</text><polygon fill="#181818" points="940,219.1152,930,223.1152,940,227.1152,936,223.1152" style="stroke:#181818;stroke-width:1.0;"/><line style="stroke:#181818;stroke-width:1.0;stroke-dasharray:2.0,2.0;" x1="934" x2="1131" y1="223.1152" y2="223.1152"/><text fill="#000000" font-family="sans-serif" font-size="13" font-weight="bold" lengthAdjust="spacing" textLength="7" x="946" y="217.8525">4</text><text fill="#000000" font-family="sans-serif" font-size="13" lengthAdjust="spacing" textLength="67" x="957" y="217.8525">repositories</text><polygon fill="#181818" points="112,250.4063,102,254.4063,112,258.4063,108,254.4063" style="stroke:#181818;stroke-width:1.0;"/><line style="stroke:#181818;stroke-width:1.0;stroke-dasharray:2.0,2.0;" x1="106" x2="506" y1="254.4063" y2="254.4063"/><text fill="#000000" font-family="sans-serif" font-size="13" font-weight="bold" lengthAdjust="spacing" textLength="7" x="118" y="249.1436">5</text><text fill="#000000" font-family="sans-serif" font-size="13" lengthAdjust="spacing" textLength="250" x="129" y="249.1436">asks for minimum and maximum team size</text><polygon fill="#181818" points="490,281.6973,500,285.6973,490,289.6973,494,285.6973" style="stroke:#181818;stroke-width:1.0;"/><line style="stroke:#181818;stroke-width:1.0;" x1="101" x2="496" y1="285.6973" y2="285.6973"/><text fill="#000000" font-family="sans-serif" font-size="13" font-weight="bold" lengthAdjust="spacing" textLength="7" x="108" y="280.4346">6</text><text fill="#000000" font-family="sans-serif" font-size="13" lengthAdjust="spacing" textLength="239" x="119" y="280.4346">inputs minimum and maximum team size</text><polygon fill="#181818" points="112,312.9883,102,316.9883,112,320.9883,108,316.9883" style="stroke:#181818;stroke-width:1.0;"/><line style="stroke:#181818;stroke-width:1.0;stroke-dasharray:2.0,2.0;" x1="106" x2="506" y1="316.9883" y2="316.9883"/><text fill="#000000" font-family="sans-serif" font-size="13" font-weight="bold" lengthAdjust="spacing" textLength="7" x="118" y="311.7256">7</text><text fill="#000000" font-family="sans-serif" font-size="13" lengthAdjust="spacing" textLength="79" x="129" y="311.7256">requests data</text><polygon fill="#181818" points="490,378.8613,500,382.8613,490,386.8613,494,382.8613" style="stroke:#181818;stroke-width:1.0;"/><line style="stroke:#181818;stroke-width:1.0;" x1="101" x2="496" y1="382.8613" y2="382.8613"/><text fill="#000000" font-family="sans-serif" font-size="13" font-weight="bold" lengthAdjust="spacing" textLength="7" x="108" y="360.3076">8</text><text fill="#000000" font-family="sans-serif" font-size="13" lengthAdjust="spacing" textLength="258" x="119" y="343.0166">types requested data (reference, description,</text><text fill="#000000" font-family="sans-serif" font-size="13" lengthAdjust="spacing" textLength="243" x="119" y="360.3076">informal description, technical description,</text><text fill="#000000" font-family="sans-serif" font-size="13" lengthAdjust="spacing" textLength="83" x="119" y="377.5986">duration, cost)</text><polygon fill="#181818" points="912,410.1523,922,414.1523,912,418.1523,916,414.1523" style="stroke:#181818;stroke-width:1.0;"/><line style="stroke:#181818;stroke-width:1.0;" x1="512" x2="918" y1="414.1523" y2="414.1523"/><text fill="#000000" font-family="sans-serif" font-size="13" font-weight="bold" lengthAdjust="spacing" textLength="7" x="519" y="408.8896">9</text><text fill="#000000" font-family="sans-serif" font-size="13" lengthAdjust="spacing" textLength="170" x="530" y="408.8896">checkMinAndMaxTeamSize()</text><polygon fill="#181818" points="912,441.4434,922,445.4434,912,449.4434,916,445.4434" style="stroke:#181818;stroke-width:1.0;"/><line style="stroke:#181818;stroke-width:1.0;" x1="512" x2="918" y1="445.4434" y2="445.4434"/><text fill="#000000" font-family="sans-serif" font-size="13" font-weight="bold" lengthAdjust="spacing" textLength="14" x="519" y="440.1807">10</text><text fill="#000000" font-family="sans-serif" font-size="13" lengthAdjust="spacing" textLength="113" x="537" y="440.1807">getSkillRepository()</text><polygon fill="#181818" points="1222,472.7344,1232,476.7344,1222,480.7344,1226,476.7344" style="stroke:#181818;stroke-width:1.0;"/><line style="stroke:#181818;stroke-width:1.0;" x1="934" x2="1228" y1="476.7344" y2="476.7344"/><text fill="#000000" font-family="sans-serif" font-size="13" font-weight="bold" lengthAdjust="spacing" textLength="14" x="941" y="471.4717">11</text><text fill="#000000" font-family="sans-serif" font-size="13" lengthAdjust="spacing" textLength="113" x="959" y="471.4717">getSkillRepository()</text><polygon fill="#181818" points="945,504.0254,935,508.0254,945,512.0254,941,508.0254" style="stroke:#181818;stroke-width:1.0;"/><line style="stroke:#181818;stroke-width:1.0;" x1="939" x2="1238" y1="508.0254" y2="508.0254"/><text fill="#000000" font-family="sans-serif" font-size="13" font-weight="bold" lengthAdjust="spacing" textLength="14" x="951" y="502.7627">12</text><text fill="#000000" font-family="sans-serif" font-size="13" lengthAdjust="spacing" textLength="85" x="969" y="502.7627">skillRepository</text><polygon fill="#181818" points="1335,535.3164,1345,539.3164,1335,543.3164,1339,539.3164" style="stroke:#181818;stroke-width:1.0;"/><line style="stroke:#181818;stroke-width:1.0;" x1="934" x2="1341" y1="539.3164" y2="539.3164"/><text fill="#000000" font-family="sans-serif" font-size="13" font-weight="bold" lengthAdjust="spacing" textLength="14" x="941" y="534.0537">13</text><text fill="#000000" font-family="sans-serif" font-size="13" lengthAdjust="spacing" textLength="72" x="959" y="534.0537">getSkillList()</text><polygon fill="#181818" points="945,566.6074,935,570.6074,945,574.6074,941,570.6074" style="stroke:#181818;stroke-width:1.0;"/><line style="stroke:#181818;stroke-width:1.0;" x1="939" x2="1351" y1="570.6074" y2="570.6074"/><text fill="#000000" font-family="sans-serif" font-size="13" font-weight="bold" lengthAdjust="spacing" textLength="14" x="951" y="565.3447">14</text><text fill="#000000" font-family="sans-serif" font-size="13" lengthAdjust="spacing" textLength="62" x="969" y="565.3447">List&lt;Skill&gt;</text><polygon fill="#181818" points="523,597.8984,513,601.8984,523,605.8984,519,601.8984" style="stroke:#181818;stroke-width:1.0;"/><line style="stroke:#181818;stroke-width:1.0;" x1="517" x2="928" y1="601.8984" y2="601.8984"/><text fill="#000000" font-family="sans-serif" font-size="13" font-weight="bold" lengthAdjust="spacing" textLength="14" x="529" y="596.6357">15</text><text fill="#000000" font-family="sans-serif" font-size="13" lengthAdjust="spacing" textLength="62" x="547" y="596.6357">List&lt;Skill&gt;</text><polygon fill="#181818" points="112,629.1895,102,633.1895,112,637.1895,108,633.1895" style="stroke:#181818;stroke-width:1.0;"/><line style="stroke:#181818;stroke-width:1.0;" x1="106" x2="506" y1="633.1895" y2="633.1895"/><text fill="#000000" font-family="sans-serif" font-size="13" font-weight="bold" lengthAdjust="spacing" textLength="14" x="118" y="627.9268">16</text><text fill="#000000" font-family="sans-serif" font-size="13" lengthAdjust="spacing" textLength="278" x="136" y="627.9268">shows skill list and asks to select required ones</text><polygon fill="#181818" points="490,660.4805,500,664.4805,490,668.4805,494,664.4805" style="stroke:#181818;stroke-width:1.0;"/><line style="stroke:#181818;stroke-width:1.0;" x1="101" x2="496" y1="664.4805" y2="664.4805"/><text fill="#000000" font-family="sans-serif" font-size="13" font-weight="bold" lengthAdjust="spacing" textLength="14" x="108" y="659.2178">17</text><text fill="#000000" font-family="sans-serif" font-size="13" lengthAdjust="spacing" textLength="76" x="126" y="659.2178">selects skills</text><polygon fill="#181818" points="917,691.7715,927,695.7715,917,699.7715,921,695.7715" style="stroke:#181818;stroke-width:1.0;"/><line style="stroke:#181818;stroke-width:1.0;" x1="512" x2="923" y1="695.7715" y2="695.7715"/><text fill="#000000" font-family="sans-serif" font-size="13" font-weight="bold" lengthAdjust="spacing" textLength="14" x="519" y="690.5088">18</text><text fill="#000000" font-family="sans-serif" font-size="13" lengthAdjust="spacing" textLength="109" x="537" y="690.5088">getRequiredSkills()</text><polygon fill="#181818" points="1335,723.0625,1345,727.0625,1335,731.0625,1339,727.0625" style="stroke:#181818;stroke-width:1.0;"/><line style="stroke:#181818;stroke-width:1.0;" x1="929" x2="1341" y1="727.0625" y2="727.0625"/><text fill="#000000" font-family="sans-serif" font-size="13" font-weight="bold" lengthAdjust="spacing" textLength="14" x="936" y="721.7998">19</text><text fill="#000000" font-family="sans-serif" font-size="13" lengthAdjust="spacing" textLength="109" x="954" y="721.7998">getRequiredSkills()</text><polygon fill="#181818" points="940,754.3535,930,758.3535,940,762.3535,936,758.3535" style="stroke:#181818;stroke-width:1.0;"/><line style="stroke:#181818;stroke-width:1.0;" x1="934" x2="1351" y1="758.3535" y2="758.3535"/><text fill="#000000" font-family="sans-serif" font-size="13" font-weight="bold" lengthAdjust="spacing" textLength="14" x="946" y="753.0908">20</text><text fill="#000000" font-family="sans-serif" font-size="13" lengthAdjust="spacing" textLength="120" x="964" y="753.0908">List&lt;RequiredSkills&gt;</text><polygon fill="#181818" points="523,785.6445,513,789.6445,523,793.6445,519,789.6445" style="stroke:#181818;stroke-width:1.0;"/><line style="stroke:#181818;stroke-width:1.0;" x1="517" x2="928" y1="789.6445" y2="789.6445"/><text fill="#000000" font-family="sans-serif" font-size="13" font-weight="bold" lengthAdjust="spacing" textLength="14" x="529" y="784.3818">21</text><text fill="#000000" font-family="sans-serif" font-size="13" lengthAdjust="spacing" textLength="120" x="547" y="784.3818">List&lt;RequiredSkills&gt;</text><polygon fill="#181818" points="112,816.9355,102,820.9355,112,824.9355,108,820.9355" style="stroke:#181818;stroke-width:1.0;"/><line style="stroke:#181818;stroke-width:1.0;" x1="106" x2="501" y1="820.9355" y2="820.9355"/><text fill="#000000" font-family="sans-serif" font-size="13" font-weight="bold" lengthAdjust="spacing" textLength="14" x="118" y="815.6729">22</text><text fill="#000000" font-family="sans-serif" font-size="13" lengthAdjust="spacing" textLength="359" x="136" y="815.6729">shows team size and selected skills and asks for confirmation</text><polygon fill="#181818" points="490,848.2266,500,852.2266,490,856.2266,494,852.2266" style="stroke:#181818;stroke-width:1.0;"/><line style="stroke:#181818;stroke-width:1.0;" x1="101" x2="496" y1="852.2266" y2="852.2266"/><text fill="#000000" font-family="sans-serif" font-size="13" font-weight="bold" lengthAdjust="spacing" textLength="14" x="108" y="846.9639">23</text><text fill="#000000" font-family="sans-serif" font-size="13" lengthAdjust="spacing" textLength="78" x="126" y="846.9639">confirms data</text><polygon fill="#181818" points="912,879.5176,922,883.5176,912,887.5176,916,883.5176" style="stroke:#181818;stroke-width:1.0;"/><line style="stroke:#181818;stroke-width:1.0;" x1="512" x2="918" y1="883.5176" y2="883.5176"/><text fill="#000000" font-family="sans-serif" font-size="13" font-weight="bold" lengthAdjust="spacing" textLength="14" x="519" y="878.2549">24</text><text fill="#000000" font-family="sans-serif" font-size="13" lengthAdjust="spacing" textLength="375" x="537" y="878.2549">generateTeamProposal(maxSize, minSize, List&lt;RequiredSkills&gt;)</text><polygon fill="#181818" points="1222,910.8086,1232,914.8086,1222,918.8086,1226,914.8086" style="stroke:#181818;stroke-width:1.0;"/><line style="stroke:#181818;stroke-width:1.0;" x1="934" x2="1228" y1="914.8086" y2="914.8086"/><text fill="#000000" font-family="sans-serif" font-size="13" font-weight="bold" lengthAdjust="spacing" textLength="14" x="941" y="909.5459">25</text><text fill="#000000" font-family="sans-serif" font-size="13" lengthAdjust="spacing" textLength="157" x="959" y="909.5459">getCollaboratorRepository()</text><polygon fill="#181818" points="945,942.0996,935,946.0996,945,950.0996,941,946.0996" style="stroke:#181818;stroke-width:1.0;"/><line style="stroke:#181818;stroke-width:1.0;" x1="939" x2="1238" y1="946.0996" y2="946.0996"/><text fill="#000000" font-family="sans-serif" font-size="13" font-weight="bold" lengthAdjust="spacing" textLength="14" x="951" y="940.8369">26</text><text fill="#000000" font-family="sans-serif" font-size="13" lengthAdjust="spacing" textLength="129" x="969" y="940.8369">collaboratorRepository</text><polygon fill="#181818" points="1481.5,973.3906,1491.5,977.3906,1481.5,981.3906,1485.5,977.3906" style="stroke:#181818;stroke-width:1.0;"/><line style="stroke:#181818;stroke-width:1.0;" x1="934" x2="1487.5" y1="977.3906" y2="977.3906"/><text fill="#000000" font-family="sans-serif" font-size="13" font-weight="bold" lengthAdjust="spacing" textLength="14" x="941" y="972.1279">27</text><text fill="#000000" font-family="sans-serif" font-size="13" lengthAdjust="spacing" textLength="102" x="959" y="972.1279">getCollaborators()</text><polygon fill="#181818" points="1486.5,1004.6816,1496.5,1008.6816,1486.5,1012.6816,1490.5,1008.6816" style="stroke:#181818;stroke-width:1.0;"/><line style="stroke:#181818;stroke-width:1.0;" x1="934" x2="1492.5" y1="1008.6816" y2="1008.6816"/><text fill="#000000" font-family="sans-serif" font-size="13" font-weight="bold" lengthAdjust="spacing" textLength="14" x="941" y="1003.4189">28</text><text fill="#000000" font-family="sans-serif" font-size="13" lengthAdjust="spacing" textLength="113" x="959" y="1003.4189">List&lt;Collaborators&gt;</text><polygon fill="#181818" points="1115,1035.9727,1125,1039.9727,1115,1043.9727,1119,1039.9727" style="stroke:#181818;stroke-width:1.0;"/><line style="stroke:#181818;stroke-width:1.0;" x1="934" x2="1121" y1="1039.9727" y2="1039.9727"/><text fill="#000000" font-family="sans-serif" font-size="13" font-weight="bold" lengthAdjust="spacing" textLength="14" x="941" y="1034.71">29</text><text fill="#000000" font-family="sans-serif" font-size="13" lengthAdjust="spacing" textLength="75" x="959" y="1034.71">getInstance()</text><polygon fill="#181818" points="945,1067.2637,935,1071.2637,945,1075.2637,941,1071.2637" style="stroke:#181818;stroke-width:1.0;"/><line style="stroke:#181818;stroke-width:1.0;stroke-dasharray:2.0,2.0;" x1="939" x2="1131" y1="1071.2637" y2="1071.2637"/><text fill="#000000" font-family="sans-serif" font-size="13" font-weight="bold" lengthAdjust="spacing" textLength="14" x="951" y="1066.001">30</text><text fill="#000000" font-family="sans-serif" font-size="13" lengthAdjust="spacing" textLength="67" x="969" y="1066.001">repositories</text><line style="stroke:#181818;stroke-width:1.0;" x1="934" x2="981" y1="1122.5547" y2="1122.5547"/><line style="stroke:#181818;stroke-width:1.0;" x1="981" x2="981" y1="1122.5547" y2="1135.5547"/><line style="stroke:#181818;stroke-width:1.0;" x1="940" x2="981" y1="1135.5547" y2="1135.5547"/><polygon fill="#181818" points="950,1131.5547,940,1135.5547,950,1139.5547,946,1135.5547" style="stroke:#181818;stroke-width:1.0;"/><text fill="#000000" font-family="sans-serif" font-size="13" font-weight="bold" lengthAdjust="spacing" textLength="14" x="946" y="1117.292">31</text><text fill="#000000" font-family="sans-serif" font-size="13" lengthAdjust="spacing" textLength="161" x="964" y="1117.292">getEmployeeFromSession()</text><polygon fill="#181818" points="1642,1167.8457,1652,1171.8457,1642,1175.8457,1646,1171.8457" style="stroke:#181818;stroke-width:1.0;"/><line style="stroke:#181818;stroke-width:1.0;" x1="939" x2="1648" y1="1171.8457" y2="1171.8457"/><text fill="#000000" font-family="sans-serif" font-size="13" font-weight="bold" lengthAdjust="spacing" textLength="14" x="946" y="1166.583">32</text><text fill="#000000" font-family="sans-serif" font-size="13" lengthAdjust="spacing" textLength="75" x="964" y="1166.583">getInstance()</text><polygon fill="#181818" points="950,1199.1367,940,1203.1367,950,1207.1367,946,1203.1367" style="stroke:#181818;stroke-width:1.0;"/><line style="stroke:#181818;stroke-width:1.0;" x1="944" x2="1658" y1="1203.1367" y2="1203.1367"/><text fill="#000000" font-family="sans-serif" font-size="13" font-weight="bold" lengthAdjust="spacing" textLength="14" x="956" y="1197.874">33</text><text fill="#000000" font-family="sans-serif" font-size="13" lengthAdjust="spacing" textLength="68" x="974" y="1197.874">appSession</text><polygon fill="#181818" points="1789,1230.4277,1799,1234.4277,1789,1238.4277,1793,1234.4277" style="stroke:#181818;stroke-width:1.0;"/><line style="stroke:#181818;stroke-width:1.0;" x1="939" x2="1795" y1="1234.4277" y2="1234.4277"/><text fill="#000000" font-family="sans-serif" font-size="13" font-weight="bold" lengthAdjust="spacing" textLength="14" x="946" y="1229.165">34</text><text fill="#000000" font-family="sans-serif" font-size="13" lengthAdjust="spacing" textLength="115" x="964" y="1229.165">getCurrentSession()</text><polygon fill="#181818" points="950,1261.7188,940,1265.7188,950,1269.7188,946,1265.7188" style="stroke:#181818;stroke-width:1.0;"/><line style="stroke:#181818;stroke-width:1.0;stroke-dasharray:2.0,2.0;" x1="944" x2="1805" y1="1265.7188" y2="1265.7188"/><text fill="#000000" font-family="sans-serif" font-size="13" font-weight="bold" lengthAdjust="spacing" textLength="14" x="956" y="1260.4561">35</text><text fill="#000000" font-family="sans-serif" font-size="13" lengthAdjust="spacing" textLength="87" x="974" y="1260.4561">currentSession</text><polygon fill="#181818" points="1922,1293.0098,1932,1297.0098,1922,1301.0098,1926,1297.0098" style="stroke:#181818;stroke-width:1.0;"/><line style="stroke:#181818;stroke-width:1.0;" x1="939" x2="1928" y1="1297.0098" y2="1297.0098"/><text fill="#000000" font-family="sans-serif" font-size="13" font-weight="bold" lengthAdjust="spacing" textLength="14" x="946" y="1291.7471">36</text><text fill="#000000" font-family="sans-serif" font-size="13" lengthAdjust="spacing" textLength="133" x="964" y="1291.7471">email = getUserEmail()</text><polygon fill="#181818" points="950,1324.3008,940,1328.3008,950,1332.3008,946,1328.3008" style="stroke:#181818;stroke-width:1.0;"/><line style="stroke:#181818;stroke-width:1.0;stroke-dasharray:2.0,2.0;" x1="944" x2="1938" y1="1328.3008" y2="1328.3008"/><text fill="#000000" font-family="sans-serif" font-size="13" font-weight="bold" lengthAdjust="spacing" textLength="14" x="956" y="1323.0381">37</text><text fill="#000000" font-family="sans-serif" font-size="13" lengthAdjust="spacing" textLength="31" x="974" y="1323.0381">email</text><polygon fill="#181818" points="1222,1355.5918,1232,1359.5918,1222,1363.5918,1226,1359.5918" style="stroke:#181818;stroke-width:1.0;"/><line style="stroke:#181818;stroke-width:1.0;" x1="939" x2="1228" y1="1359.5918" y2="1359.5918"/><text fill="#000000" font-family="sans-serif" font-size="13" font-weight="bold" lengthAdjust="spacing" textLength="14" x="946" y="1354.3291">38</text><text fill="#000000" font-family="sans-serif" font-size="13" lengthAdjust="spacing" textLength="192" x="964" y="1354.3291">getOrganizationRepository(email)</text><polygon fill="#181818" points="950,1386.8828,940,1390.8828,950,1394.8828,946,1390.8828" style="stroke:#181818;stroke-width:1.0;"/><line style="stroke:#181818;stroke-width:1.0;stroke-dasharray:2.0,2.0;" x1="944" x2="1238" y1="1390.8828" y2="1390.8828"/><text fill="#000000" font-family="sans-serif" font-size="13" font-weight="bold" lengthAdjust="spacing" textLength="14" x="956" y="1385.6201">39</text><text fill="#000000" font-family="sans-serif" font-size="13" lengthAdjust="spacing" textLength="132" x="974" y="1385.6201">organizationRepository</text><polygon fill="#181818" points="2068,1418.1738,2078,1422.1738,2068,1426.1738,2072,1422.1738" style="stroke:#181818;stroke-width:1.0;"/><line style="stroke:#181818;stroke-width:1.0;" x1="939" x2="2074" y1="1422.1738" y2="1422.1738"/><text fill="#000000" font-family="sans-serif" font-size="13" font-weight="bold" lengthAdjust="spacing" textLength="14" x="946" y="1416.9111">40</text><text fill="#000000" font-family="sans-serif" font-size="13" lengthAdjust="spacing" textLength="237" x="964" y="1416.9111">getOrganizationByEmployeeEmail(email)</text><path d="M1993.5,1437.1738 L2066.5,1437.1738 L2066.5,1446.4648 L2056.5,1456.4648 L1993.5,1456.4648 L1993.5,1437.1738 " fill="#EEEEEE" style="stroke:#000000;stroke-width:1.5;"/><rect fill="none" height="81.873" style="stroke:#000000;stroke-width:1.5;" width="371.5" x="1993.5" y="1437.1738"/><text fill="#000000" font-family="sans-serif" font-size="13" font-weight="bold" lengthAdjust="spacing" textLength="28" x="2008.5" y="1452.2021">loop</text><text fill="#000000" font-family="sans-serif" font-size="11" font-weight="bold" lengthAdjust="spacing" textLength="128" x="2081.5" y="1451.0439">[[for each organization]</text><polygon fill="#181818" points="2289,1475.7559,2299,1479.7559,2289,1483.7559,2293,1479.7559" style="stroke:#181818;stroke-width:1.0;"/><line style="stroke:#181818;stroke-width:1.0;" x1="2090" x2="2295" y1="1479.7559" y2="1479.7559"/><text fill="#000000" font-family="sans-serif" font-size="13" font-weight="bold" lengthAdjust="spacing" textLength="14" x="2097" y="1474.4932">41</text><text fill="#000000" font-family="sans-serif" font-size="13" lengthAdjust="spacing" textLength="174" x="2115" y="1474.4932">anyEmployeeHasEmail(email)</text><polygon fill="#181818" points="2101,1507.0469,2091,1511.0469,2101,1515.0469,2097,1511.0469" style="stroke:#181818;stroke-width:1.0;"/><line style="stroke:#181818;stroke-width:1.0;stroke-dasharray:2.0,2.0;" x1="2095" x2="2305" y1="1511.0469" y2="1511.0469"/><text fill="#000000" font-family="sans-serif" font-size="13" font-weight="bold" lengthAdjust="spacing" textLength="14" x="2107" y="1505.7842">42</text><text fill="#000000" font-family="sans-serif" font-size="13" lengthAdjust="spacing" textLength="53" x="2125" y="1505.7842">true/false</text><polygon fill="#181818" points="950,1545.3379,940,1549.3379,950,1553.3379,946,1549.3379" style="stroke:#181818;stroke-width:1.0;"/><line style="stroke:#181818;stroke-width:1.0;stroke-dasharray:2.0,2.0;" x1="944" x2="2084" y1="1549.3379" y2="1549.3379"/><text fill="#000000" font-family="sans-serif" font-size="13" font-weight="bold" lengthAdjust="spacing" textLength="14" x="956" y="1544.0752">43</text><text fill="#000000" font-family="sans-serif" font-size="13" lengthAdjust="spacing" textLength="70" x="974" y="1544.0752">organization</text><polygon fill="#181818" points="2289,1576.6289,2299,1580.6289,2289,1584.6289,2293,1580.6289" style="stroke:#181818;stroke-width:1.0;"/><line style="stroke:#181818;stroke-width:1.0;" x1="939" x2="2295" y1="1580.6289" y2="1580.6289"/><text fill="#000000" font-family="sans-serif" font-size="13" font-weight="bold" lengthAdjust="spacing" textLength="14" x="946" y="1575.3662">44</text><text fill="#000000" font-family="sans-serif" font-size="13" lengthAdjust="spacing" textLength="164" x="964" y="1575.3662">getEmployeeByEmail(email)</text><polygon fill="#181818" points="950,1607.9199,940,1611.9199,950,1615.9199,946,1611.9199" style="stroke:#181818;stroke-width:1.0;"/><line style="stroke:#181818;stroke-width:1.0;stroke-dasharray:2.0,2.0;" x1="944" x2="2305" y1="1611.9199" y2="1611.9199"/><text fill="#000000" font-family="sans-serif" font-size="13" font-weight="bold" lengthAdjust="spacing" textLength="14" x="956" y="1606.6572">45</text><text fill="#000000" font-family="sans-serif" font-size="13" lengthAdjust="spacing" textLength="56" x="974" y="1606.6572">employee</text><line style="stroke:#181818;stroke-width:1.0;stroke-dasharray:2.0,2.0;" x1="939" x2="981" y1="1648.2109" y2="1648.2109"/><line style="stroke:#181818;stroke-width:1.0;stroke-dasharray:2.0,2.0;" x1="981" x2="981" y1="1648.2109" y2="1661.2109"/><line style="stroke:#181818;stroke-width:1.0;stroke-dasharray:2.0,2.0;" x1="934" x2="981" y1="1661.2109" y2="1661.2109"/><polygon fill="#181818" points="944,1657.2109,934,1661.2109,944,1665.2109,940,1661.2109" style="stroke:#181818;stroke-width:1.0;"/><text fill="#000000" font-family="sans-serif" font-size="13" font-weight="bold" lengthAdjust="spacing" textLength="14" x="946" y="1642.9482">46</text><text fill="#000000" font-family="sans-serif" font-size="13" lengthAdjust="spacing" textLength="56" x="964" y="1642.9482">employee</text><polygon fill="#181818" points="2289,1708.502,2299,1712.502,2289,1716.502,2293,1712.502" style="stroke:#181818;stroke-width:1.0;"/><line style="stroke:#181818;stroke-width:1.0;" x1="934" x2="2295" y1="1712.502" y2="1712.502"/><text fill="#000000" font-family="sans-serif" font-size="13" font-weight="bold" lengthAdjust="spacing" textLength="14" x="941" y="1707.2393">47</text><text fill="#000000" font-family="sans-serif" font-size="13" lengthAdjust="spacing" textLength="439" x="959" y="1707.2393">generateTeamProposal(maxSize, minSize, List&lt;RequiredSkills&gt;, employee)</text><polygon fill="#181818" points="2820,1739.793,2830,1743.793,2820,1747.793,2824,1743.793" style="stroke:#181818;stroke-width:1.0;"/><line style="stroke:#181818;stroke-width:1.0;" x1="2311" x2="2826" y1="1743.793" y2="1743.793"/><text fill="#000000" font-family="sans-serif" font-size="13" font-weight="bold" lengthAdjust="spacing" textLength="14" x="2318" y="1738.5303">48</text><text fill="#000000" font-family="sans-serif" font-size="13" lengthAdjust="spacing" textLength="479" x="2336" y="1738.5303">create(generateTeamProposal(maxSize, minSize, List&lt;RequiredSkills&gt;, employee)</text><rect fill="#E3E3E3" height="51.2422" rx="2.5" ry="2.5" style="stroke:#181818;stroke-width:0.5;" width="54" x="2832" y="1720.502"/><text fill="#000000" font-family="sans-serif" font-size="14" lengthAdjust="spacing" textLength="31" x="2843.5" y="1742.6094">team</text><text fill="#000000" font-family="sans-serif" font-size="14" lengthAdjust="spacing" textLength="40" x="2839" y="1761.2305">:Team</text><line style="stroke:#181818;stroke-width:1.0;" x1="2311" x2="2358" y1="1801.0352" y2="1801.0352"/><line style="stroke:#181818;stroke-width:1.0;" x1="2358" x2="2358" y1="1801.0352" y2="1814.0352"/><line style="stroke:#181818;stroke-width:1.0;" x1="2317" x2="2358" y1="1814.0352" y2="1814.0352"/><polygon fill="#181818" points="2327,1810.0352,2317,1814.0352,2327,1818.0352,2323,1814.0352" style="stroke:#181818;stroke-width:1.0;"/><text fill="#000000" font-family="sans-serif" font-size="13" font-weight="bold" lengthAdjust="spacing" textLength="14" x="2323" y="1795.7725">49</text><text fill="#000000" font-family="sans-serif" font-size="13" lengthAdjust="spacing" textLength="235" x="2341" y="1795.7725">selectCollaborators (List&lt;RequiredSkills)</text><line style="stroke:#181818;stroke-width:1.0;" x1="2316" x2="2358" y1="1850.3262" y2="1850.3262"/><line style="stroke:#181818;stroke-width:1.0;" x1="2358" x2="2358" y1="1850.3262" y2="1863.3262"/><line style="stroke:#181818;stroke-width:1.0;" x1="2317" x2="2358" y1="1863.3262" y2="1863.3262"/><polygon fill="#181818" points="2327,1859.3262,2317,1863.3262,2327,1867.3262,2323,1863.3262" style="stroke:#181818;stroke-width:1.0;"/><text fill="#000000" font-family="sans-serif" font-size="13" font-weight="bold" lengthAdjust="spacing" textLength="14" x="2323" y="1845.0635">50</text><text fill="#000000" font-family="sans-serif" font-size="13" lengthAdjust="spacing" textLength="115" x="2341" y="1845.0635">validateTeam(Team)</text><polygon fill="#181818" points="945,1890.6172,935,1894.6172,945,1898.6172,941,1894.6172" style="stroke:#181818;stroke-width:1.0;"/><line style="stroke:#181818;stroke-width:1.0;stroke-dasharray:2.0,2.0;" x1="939" x2="2300" y1="1894.6172" y2="1894.6172"/><text fill="#000000" font-family="sans-serif" font-size="13" font-weight="bold" lengthAdjust="spacing" textLength="14" x="951" y="1889.3545">51</text><text fill="#000000" font-family="sans-serif" font-size="13" lengthAdjust="spacing" textLength="29" x="969" y="1889.3545">team</text><polygon fill="#181818" points="523,1921.9082,513,1925.9082,523,1929.9082,519,1925.9082" style="stroke:#181818;stroke-width:1.0;"/><line style="stroke:#181818;stroke-width:1.0;stroke-dasharray:2.0,2.0;" x1="517" x2="928" y1="1925.9082" y2="1925.9082"/><text fill="#000000" font-family="sans-serif" font-size="13" font-weight="bold" lengthAdjust="spacing" textLength="14" x="529" y="1920.6455">52</text><text fill="#000000" font-family="sans-serif" font-size="13" lengthAdjust="spacing" textLength="29" x="547" y="1920.6455">team</text><polygon fill="#181818" points="107,1953.1992,97,1957.1992,107,1961.1992,103,1957.1992" style="stroke:#181818;stroke-width:1.0;"/><line style="stroke:#181818;stroke-width:1.0;stroke-dasharray:2.0,2.0;" x1="101" x2="506" y1="1957.1992" y2="1957.1992"/><text fill="#000000" font-family="sans-serif" font-size="13" font-weight="bold" lengthAdjust="spacing" textLength="14" x="113" y="1951.9365">53</text><text fill="#000000" font-family="sans-serif" font-size="13" lengthAdjust="spacing" textLength="158" x="131" y="1951.9365">displays operation success</text><!--SRC=[tLZ1RkCs4BtpAuXSuWG9UZTQ0wutpHg8iQaKdsgWO2JQ9YAHAadjnejyV8UKB8aIANbRz58T4bkSUNmpV3CahTuOBuWaESu55ybHYfnYBKkAL3DIaEID76YiJnd5aYQQy4FMDL17aeflZ1_mdcIA8aHABNYPlrA9qFMHfHJlXT2luXsHH0k9hpwNEU4ueagKCg4ARmY76UGL9WelFsqGu6gMi89mZQ_cBvJaZvHJIS1vkxPMs_MOqKfmBKMMrP2hb-YfPnxHGYW6femgQzEyECNCn0SHk2woux7ZGu3df-MBwm4Poh8MTxxZiVl6-iMHwxK2tkHLs3WSvyGxK0NOmvWlYo9Z2T5Cy9Wg1V-itP_BvsVNaXH5RG0n1Rm6Jaaf9UMwTTmgAhiUyKCSBx-uJa8U26VVBReJrnVlWCNn3uLnWKhNfSA87bq73Ke1GoCOQ_3m-tRzl4H6c-mhqTGg4E7wWI_uVW5wmtCmVbDO2toeT0QL0XYjQGC0uaJNkFE0zps06AmvbD1V9LLQuPHeWcUIxYbaCw5tEAKgaQmmrEymPdmlP4uolEFkYAR9aSCwPUxhj9Ia-fG8fMzGby1r8gbXPYkXpsnXNz_U0hVA33acvZ46nj1J9U1re7hD5VI5XCvk1hvDMdmbDh0sZs-M-vgcoLzRUGFtb5u-dRCgTcqXuJXddELbZWbFSKxUxMUppbYnxnHvvZ6htLSAjCOILdWQQu0IbWgwO5vzAg2TrcuqdP3OZZSQkq1WE-vJs82EgogZgIDDtZQCBtcw8U-cx6A8lYEK1iAgqmy24kirJm10VNcQ7Xmo3ihIDcvdsCAqS_VwE0hepSKvKugZbiyJKzeNDsm1pSiuwini77wshWkVyhf-v_ci32RysZnNEQx4fexYcwg2nHa0MDMUMvwY6UpyLbbCWh04hujlGf2LNmshmfBlBdHKJs83KETrxYLqOEJDw32Rhjy21L8wJEU4urXEcvAtAQrI0ZciSjAcsNIVHF0zWueqPJRCPZrQzmFaQ-CsXTNsP4hjMGhGBSbcq7vCsTsPdbHzy4NbbaalEEJR4TgIynzS_bNb-OyybnLWb-Gg6b9Kir2mqGY8JPe3imZHwUFyR_VHZuyFVyAQYdx8YqoSAFqDxXVrEN4sAhLGtim1zk8ysTEkBozc03TvQ8_0OrcmO65YPruhvsWynixY-TXPSWqxzwmznj0Bs7HDUoAVOveJbk5V35LpQ7ymNyTOrYTvBz5ghCFLWezHFAC5QPeIjddqd_ndTeOVwYXkPsce-cyZOzmhw21pF-51BB-UphLGfNugeC0Do1jY9aI1_p2x2B0-EY5wxStZnxS1HO_cMCmRmf-96kKyv0uthw1LDJlCSHzCdZdFofB-LFsg4CBeB96Pq6T2UOf-9FYsTutci3lpXSlKg2LwT1gZaSL5SWYbz9p9cZUjST54jW849u2ynvwftQ0E-HyVJUuQBe6TmnkFpSkYlkFVtfvlkBF_W4XdEXjhTSvppWfuvW6yyNILIKbt9_fACfRMiSpC7nzYJo3kBnTJocXKiLtNhcDoyD-nvpXbgiZ8IM5HqEeYYLMP9B2p-MuItPtjqmRz3G00]--></g></svg>