<?xml version="1.0" encoding="us-ascii" standalone="no"?><svg xmlns="http://www.w3.org/2000/svg" xmlns:xlink="http://www.w3.org/1999/xlink" contentStyleType="text/css" height="435px" preserveAspectRatio="none" style="width:1075px;height:435px;background:#FFFFFF;" version="1.1" viewBox="0 0 1075 435" width="1075px" zoomAndPan="magnify"><defs/><g><rect fill="#FFFFFF" height="193.1152" style="stroke:#181818;stroke-width:1.0;" width="10" x="478" y="129.8242"/><line style="stroke:#181818;stroke-width:0.5;stroke-dasharray:5.0,5.0;" x1="482.5" x2="482.5" y1="57.2422" y2="379.2305"/><line style="stroke:#181818;stroke-width:0.5;stroke-dasharray:5.0,5.0;" x1="1042" x2="1042" y1="183.9453" y2="379.2305"/><rect fill="#E3E3E3" height="32.6211" rx="2.5" ry="2.5" style="stroke:#181818;stroke-width:0.5;" width="181" x="392.5" y="23.6211"/><text fill="#000000" font-family="sans-serif" font-size="14" lengthAdjust="spacing" textLength="167" x="399.5" y="45.7285">:TeamGeneratorController</text><rect fill="#E3E3E3" height="32.6211" rx="2.5" ry="2.5" style="stroke:#181818;stroke-width:0.5;" width="181" x="392.5" y="378.2305"/><text fill="#000000" font-family="sans-serif" font-size="14" lengthAdjust="spacing" textLength="167" x="399.5" y="400.3379">:TeamGeneratorController</text><rect fill="#E3E3E3" height="51.2422" rx="2.5" ry="2.5" style="stroke:#181818;stroke-width:0.5;" width="54" x="1015" y="378.2305"/><text fill="#000000" font-family="sans-serif" font-size="14" lengthAdjust="spacing" textLength="31" x="1026.5" y="400.3379">team</text><text fill="#000000" font-family="sans-serif" font-size="14" lengthAdjust="spacing" textLength="40" x="1022" y="418.959">:Team</text><rect fill="#FFFFFF" height="193.1152" style="stroke:#181818;stroke-width:1.0;" width="10" x="478" y="129.8242"/><polygon fill="#181818" points="471,86.5332,481,90.5332,471,94.5332,475,90.5332" style="stroke:#181818;stroke-width:1.0;"/><line style="stroke:#181818;stroke-width:1.0;" x1="0" x2="477" y1="90.5332" y2="90.5332"/><text fill="#000000" font-family="sans-serif" font-size="13" font-weight="bold" lengthAdjust="spacing" textLength="7" x="7" y="85.2705">1</text><text fill="#000000" font-family="sans-serif" font-size="13" lengthAdjust="spacing" textLength="448" x="18" y="85.2705">generateTeam(int maxTeamSize, int minTeamSize, List&lt;Skill&gt; requiredSkills)</text><line style="stroke:#181818;stroke-width:1.0;" x1="483" x2="530" y1="116.8242" y2="116.8242"/><line style="stroke:#181818;stroke-width:1.0;" x1="530" x2="530" y1="116.8242" y2="129.8242"/><line style="stroke:#181818;stroke-width:1.0;" x1="489" x2="530" y1="129.8242" y2="129.8242"/><polygon fill="#181818" points="499,125.8242,489,129.8242,499,133.8242,495,129.8242" style="stroke:#181818;stroke-width:1.0;"/><text fill="#000000" font-family="sans-serif" font-size="13" font-weight="bold" lengthAdjust="spacing" textLength="7" x="495" y="111.5615">2</text><text fill="#000000" font-family="sans-serif" font-size="13" lengthAdjust="spacing" textLength="448" x="506" y="111.5615">generateTeam(int maxTeamSize, int minTeamSize, List&lt;Skill&gt; requiredSkills)</text><polygon fill="#181818" points="1003,162.1152,1013,166.1152,1003,170.1152,1007,166.1152" style="stroke:#181818;stroke-width:1.0;"/><line style="stroke:#181818;stroke-width:1.0;" x1="488" x2="1009" y1="166.1152" y2="166.1152"/><text fill="#000000" font-family="sans-serif" font-size="13" font-weight="bold" lengthAdjust="spacing" textLength="7" x="495" y="160.8525">3</text><text fill="#000000" font-family="sans-serif" font-size="13" lengthAdjust="spacing" textLength="492" x="506" y="160.8525">create(generateTeam(int maxTeamSize, int minTeamSize, List&lt;Skill&gt; requiredSkills))</text><rect fill="#E3E3E3" height="51.2422" rx="2.5" ry="2.5" style="stroke:#181818;stroke-width:0.5;" width="54" x="1015" y="142.8242"/><text fill="#000000" font-family="sans-serif" font-size="14" lengthAdjust="spacing" textLength="31" x="1026.5" y="164.9316">team</text><text fill="#000000" font-family="sans-serif" font-size="14" lengthAdjust="spacing" textLength="40" x="1022" y="183.5527">:Team</text><line style="stroke:#181818;stroke-width:1.0;" x1="488" x2="530" y1="228.3574" y2="228.3574"/><line style="stroke:#181818;stroke-width:1.0;" x1="530" x2="530" y1="228.3574" y2="241.3574"/><line style="stroke:#181818;stroke-width:1.0;" x1="489" x2="530" y1="241.3574" y2="241.3574"/><polygon fill="#181818" points="499,237.3574,489,241.3574,499,245.3574,495,241.3574" style="stroke:#181818;stroke-width:1.0;"/><text fill="#000000" font-family="sans-serif" font-size="13" font-weight="bold" lengthAdjust="spacing" textLength="7" x="495" y="223.0947">4</text><text fill="#000000" font-family="sans-serif" font-size="13" lengthAdjust="spacing" textLength="492" x="506" y="223.0947">filterCollaboratorsBySkills(List&lt;Collaborator&gt; collaborators, List&lt;Skill&gt; requiredSkills)</text><line style="stroke:#181818;stroke-width:1.0;stroke-dasharray:2.0,2.0;" x1="488" x2="530" y1="272.6484" y2="272.6484"/><line style="stroke:#181818;stroke-width:1.0;stroke-dasharray:2.0,2.0;" x1="530" x2="530" y1="272.6484" y2="285.6484"/><line style="stroke:#181818;stroke-width:1.0;stroke-dasharray:2.0,2.0;" x1="489" x2="530" y1="285.6484" y2="285.6484"/><polygon fill="#181818" points="499,281.6484,489,285.6484,499,289.6484,495,285.6484" style="stroke:#181818;stroke-width:1.0;"/><text fill="#000000" font-family="sans-serif" font-size="13" font-weight="bold" lengthAdjust="spacing" textLength="7" x="495" y="267.3857">5</text><text fill="#000000" font-family="sans-serif" font-size="13" lengthAdjust="spacing" textLength="121" x="506" y="267.3857">qualifiedcollaborators</text><line style="stroke:#181818;stroke-width:1.0;stroke-dasharray:2.0,2.0;" x1="488" x2="530" y1="321.9395" y2="321.9395"/><line style="stroke:#181818;stroke-width:1.0;stroke-dasharray:2.0,2.0;" x1="530" x2="530" y1="321.9395" y2="334.9395"/><line style="stroke:#181818;stroke-width:1.0;stroke-dasharray:2.0,2.0;" x1="483" x2="530" y1="334.9395" y2="334.9395"/><polygon fill="#181818" points="493,330.9395,483,334.9395,493,338.9395,489,334.9395" style="stroke:#181818;stroke-width:1.0;"/><text fill="#000000" font-family="sans-serif" font-size="13" font-weight="bold" lengthAdjust="spacing" textLength="7" x="495" y="316.6768">6</text><text fill="#000000" font-family="sans-serif" font-size="13" lengthAdjust="spacing" textLength="29" x="506" y="316.6768">team</text><polygon fill="#181818" points="11,357.2305,1,361.2305,11,365.2305,7,361.2305" style="stroke:#181818;stroke-width:1.0;"/><line style="stroke:#181818;stroke-width:1.0;stroke-dasharray:2.0,2.0;" x1="5" x2="482" y1="361.2305" y2="361.2305"/><text fill="#000000" font-family="sans-serif" font-size="13" font-weight="bold" lengthAdjust="spacing" textLength="7" x="17" y="355.9678">7</text><text fill="#000000" font-family="sans-serif" font-size="13" lengthAdjust="spacing" textLength="29" x="28" y="355.9678">team</text><!--SRC=[lLBDJW8n4BxtAIPS128lG0Y94cDCEAZWpSlGdLqcT5jePnLyUhlTYCi1iYJ6EVNd- -jCmuRj5ZsMK3hhzDgxaa1yHIeSRxQeDrZGGWw6m9CMj8Lf0y8QC_V9je0SJI2bi19dgt95NgcRDMS4kNEoSdiL2SAQjsW5UkCbOVb8bZoAypDdnJjZoFS00yoMh_DJk4JqkqsaX7XuUNjwlbEne5MZQQAEeMY4gSRtEGgKkA_N2_wYMqW7R7yFvXnaijYmCTFuo5t5dhAq3OCJ_NRLHlzgY5hu8reqtJaBQsThkZGSZa5xYjJ-tyKST0hGD2Td8nHdR0okN9ftk3yqElraqRwQWcu3B_UgGuXZYbs5XdEcx4HVgOxq-WUUnMPqnNH-QZ8QTT6-uFCD]--></g></svg>