<?xml version="1.0" encoding="us-ascii" standalone="no"?><svg xmlns="http://www.w3.org/2000/svg" xmlns:xlink="http://www.w3.org/1999/xlink" contentStyleType="text/css" height="1856px" preserveAspectRatio="none" style="width:2800px;height:1856px;background:#FFFFFF;" version="1.1" viewBox="0 0 2800 1856" width="2800px" zoomAndPan="magnify"><defs/><g><rect fill="#FFFFFF" height="1661.959" style="stroke:#181818;stroke-width:1.0;" width="10" x="91" y="93.6211"/><rect fill="#FFFFFF" height="137.4941" style="stroke:#181818;stroke-width:1.0;" width="10" x="502" y="116.9121"/><rect fill="#FFFFFF" height="187.7461" style="stroke:#181818;stroke-width:1.0;" width="10" x="502" y="285.6973"/><rect fill="#FFFFFF" height="1259.8457" style="stroke:#181818;stroke-width:1.0;" width="10" x="502" y="504.7344"/><rect fill="#FFFFFF" height="31.291" style="stroke:#181818;stroke-width:1.0;" width="10" x="997" y="191.8242"/><rect fill="#FFFFFF" height="62.582" style="stroke:#181818;stroke-width:1.0;" width="10" x="997" y="687.1895"/><rect fill="#FFFFFF" height="513.6563" style="stroke:#181818;stroke-width:1.0;" width="10" x="997" y="814.0625"/><rect fill="#FFFFFF" height="193.1152" style="stroke:#181818;stroke-width:1.0;" width="10" x="997" y="1430.3008"/><rect fill="#FFFFFF" height="31.291" style="stroke:#181818;stroke-width:1.0;" width="10" x="1531" y="191.8242"/><rect fill="#FFFFFF" height="31.291" style="stroke:#181818;stroke-width:1.0;" width="10" x="1531" y="316.9883"/><rect fill="#FFFFFF" height="31.291" style="stroke:#181818;stroke-width:1.0;" width="10" x="1638" y="410.8613"/><rect fill="#FFFFFF" height="31.291" style="stroke:#181818;stroke-width:1.0;" width="10" x="1638" y="718.4805"/><rect fill="#FFFFFF" height="31.291" style="stroke:#181818;stroke-width:1.0;" width="10" x="1638" y="1038.0996"/><rect fill="#FFFFFF" height="31.291" style="stroke:#181818;stroke-width:1.0;" width="10" x="2058" y="850.3535"/><rect fill="#FFFFFF" height="31.291" style="stroke:#181818;stroke-width:1.0;" width="10" x="2205" y="912.9355"/><rect fill="#FFFFFF" height="31.291" style="stroke:#181818;stroke-width:1.0;" width="10" x="2338" y="975.5176"/><rect fill="#FFFFFF" height="127.1641" style="stroke:#181818;stroke-width:1.0;" width="10" x="2484" y="1100.6816"/><rect fill="#FFFFFF" height="31.291" style="stroke:#181818;stroke-width:1.0;" width="10" x="2676" y="1158.2637"/><rect fill="#FFFFFF" height="31.291" style="stroke:#181818;stroke-width:1.0;" width="10" x="2676" y="1259.1367"/><rect fill="none" height="81.873" style="stroke:#000000;stroke-width:1.5;" width="342.5" x="2397.5" y="1115.6816"/><line style="stroke:#181818;stroke-width:0.5;stroke-dasharray:5.0,5.0;" x1="96" x2="96" y1="83.6211" y2="1773.5801"/><line style="stroke:#181818;stroke-width:0.5;stroke-dasharray:5.0,5.0;" x1="506.5" x2="506.5" y1="83.6211" y2="1773.5801"/><line style="stroke:#181818;stroke-width:0.5;stroke-dasharray:5.0,5.0;" x1="1001.5" x2="1001.5" y1="156.7227" y2="1773.5801"/><line style="stroke:#181818;stroke-width:0.5;stroke-dasharray:5.0,5.0;" x1="1535.5" x2="1535.5" y1="83.6211" y2="1773.5801"/><line style="stroke:#181818;stroke-width:0.5;stroke-dasharray:5.0,5.0;" x1="1642.5" x2="1642.5" y1="83.6211" y2="1773.5801"/><line style="stroke:#181818;stroke-width:0.5;stroke-dasharray:5.0,5.0;" x1="1755.5" x2="1755.5" y1="83.6211" y2="1773.5801"/><line style="stroke:#181818;stroke-width:0.5;stroke-dasharray:5.0,5.0;" x1="1902.5" x2="1902.5" y1="83.6211" y2="1773.5801"/><line style="stroke:#181818;stroke-width:0.5;stroke-dasharray:5.0,5.0;" x1="2062.5" x2="2062.5" y1="83.6211" y2="1773.5801"/><line style="stroke:#181818;stroke-width:0.5;stroke-dasharray:5.0,5.0;" x1="2209.5" x2="2209.5" y1="83.6211" y2="1773.5801"/><line style="stroke:#181818;stroke-width:0.5;stroke-dasharray:5.0,5.0;" x1="2342.5" x2="2342.5" y1="83.6211" y2="1773.5801"/><line style="stroke:#181818;stroke-width:0.5;stroke-dasharray:5.0,5.0;" x1="2488.5" x2="2488.5" y1="83.6211" y2="1773.5801"/><line style="stroke:#181818;stroke-width:0.5;stroke-dasharray:5.0,5.0;" x1="2681" x2="2681" y1="83.6211" y2="1773.5801"/><line style="stroke:#181818;stroke-width:0.5;stroke-dasharray:5.0,5.0;" x1="2767" x2="2767" y1="1484.4219" y2="1773.5801"/><text fill="#000000" font-family="sans-serif" font-size="14" lengthAdjust="spacing" textLength="176" x="5" y="80.1074">Human Resources Manager</text><ellipse cx="96" cy="13.5" fill="#E3E3E3" rx="8" ry="8" style="stroke:#181818;stroke-width:0.5;"/><path d="M96,21.5 L96,48.5 M83,29.5 L109,29.5 M96,48.5 L83,63.5 M96,48.5 L109,63.5 " fill="none" style="stroke:#181818;stroke-width:0.5;"/><text fill="#000000" font-family="sans-serif" font-size="14" lengthAdjust="spacing" textLength="176" x="5" y="1787.6875">Human Resources Manager</text><ellipse cx="96" cy="1799.7012" fill="#E3E3E3" rx="8" ry="8" style="stroke:#181818;stroke-width:0.5;"/><path d="M96,1807.7012 L96,1834.7012 M83,1815.7012 L109,1815.7012 M96,1834.7012 L83,1849.7012 M96,1834.7012 L109,1849.7012 " fill="none" style="stroke:#181818;stroke-width:0.5;"/><rect fill="#E3E3E3" height="32.6211" rx="2.5" ry="2.5" style="stroke:#181818;stroke-width:0.5;" width="131" x="441.5" y="50"/><text fill="#000000" font-family="sans-serif" font-size="14" lengthAdjust="spacing" textLength="117" x="448.5" y="72.1074">:TeamGeneratorUI</text><rect fill="#E3E3E3" height="32.6211" rx="2.5" ry="2.5" style="stroke:#181818;stroke-width:0.5;" width="131" x="441.5" y="1772.5801"/><text fill="#000000" font-family="sans-serif" font-size="14" lengthAdjust="spacing" textLength="117" x="448.5" y="1794.6875">:TeamGeneratorUI</text><rect fill="#E3E3E3" height="32.6211" rx="2.5" ry="2.5" style="stroke:#181818;stroke-width:0.5;" width="181" x="911.5" y="1772.5801"/><text fill="#000000" font-family="sans-serif" font-size="14" lengthAdjust="spacing" textLength="167" x="918.5" y="1794.6875">:TeamGeneratorController</text><rect fill="#E3E3E3" height="32.6211" rx="2.5" ry="2.5" style="stroke:#181818;stroke-width:0.5;" width="97" x="1487.5" y="50"/><text fill="#000000" font-family="sans-serif" font-size="14" lengthAdjust="spacing" textLength="83" x="1494.5" y="72.1074">:Repositories</text><rect fill="#E3E3E3" height="32.6211" rx="2.5" ry="2.5" style="stroke:#181818;stroke-width:0.5;" width="97" x="1487.5" y="1772.5801"/><text fill="#000000" font-family="sans-serif" font-size="14" lengthAdjust="spacing" textLength="83" x="1494.5" y="1794.6875">:Repositories</text><rect fill="#E3E3E3" height="51.2422" rx="2.5" ry="2.5" style="stroke:#181818;stroke-width:0.5;" width="97" x="1594.5" y="31.3789"/><text fill="#000000" font-family="sans-serif" font-size="14" lengthAdjust="spacing" textLength="74" x="1606" y="53.4863">repositories</text><text fill="#000000" font-family="sans-serif" font-size="14" lengthAdjust="spacing" textLength="83" x="1601.5" y="72.1074">:Repositories</text><rect fill="#E3E3E3" height="51.2422" rx="2.5" ry="2.5" style="stroke:#181818;stroke-width:0.5;" width="97" x="1594.5" y="1772.5801"/><text fill="#000000" font-family="sans-serif" font-size="14" lengthAdjust="spacing" textLength="74" x="1606" y="1794.6875">repositories</text><text fill="#000000" font-family="sans-serif" font-size="14" lengthAdjust="spacing" textLength="83" x="1601.5" y="1813.3086">:Repositories</text><rect fill="#E3E3E3" height="51.2422" rx="2.5" ry="2.5" style="stroke:#181818;stroke-width:0.5;" width="109" x="1701.5" y="31.3789"/><text fill="#000000" font-family="sans-serif" font-size="14" lengthAdjust="spacing" textLength="95" x="1708.5" y="53.4863">skillRepository:</text><text fill="#000000" font-family="sans-serif" font-size="14" lengthAdjust="spacing" textLength="93" x="1709.5" y="72.1074">SkillRepository</text><rect fill="#E3E3E3" height="51.2422" rx="2.5" ry="2.5" style="stroke:#181818;stroke-width:0.5;" width="109" x="1701.5" y="1772.5801"/><text fill="#000000" font-family="sans-serif" font-size="14" lengthAdjust="spacing" textLength="95" x="1708.5" y="1794.6875">skillRepository:</text><text fill="#000000" font-family="sans-serif" font-size="14" lengthAdjust="spacing" textLength="93" x="1709.5" y="1813.3086">SkillRepository</text><rect fill="#E3E3E3" height="51.2422" rx="2.5" ry="2.5" style="stroke:#181818;stroke-width:0.5;" width="164" x="1820.5" y="31.3789"/><text fill="#000000" font-family="sans-serif" font-size="14" lengthAdjust="spacing" textLength="150" x="1827.5" y="53.4863">CollaboratorRepository:</text><text fill="#000000" font-family="sans-serif" font-size="14" lengthAdjust="spacing" textLength="143" x="1831" y="72.1074">collaboratorRepository</text><rect fill="#E3E3E3" height="51.2422" rx="2.5" ry="2.5" style="stroke:#181818;stroke-width:0.5;" width="164" x="1820.5" y="1772.5801"/><text fill="#000000" font-family="sans-serif" font-size="14" lengthAdjust="spacing" textLength="150" x="1827.5" y="1794.6875">CollaboratorRepository:</text><text fill="#000000" font-family="sans-serif" font-size="14" lengthAdjust="spacing" textLength="143" x="1831" y="1813.3086">collaboratorRepository</text><rect fill="#E3E3E3" height="32.6211" rx="2.5" ry="2.5" style="stroke:#181818;stroke-width:0.5;" width="137" x="1994.5" y="50"/><text fill="#000000" font-family="sans-serif" font-size="14" lengthAdjust="spacing" textLength="123" x="2001.5" y="72.1074">:ApplicationSession</text><rect fill="#E3E3E3" height="32.6211" rx="2.5" ry="2.5" style="stroke:#181818;stroke-width:0.5;" width="137" x="1994.5" y="1772.5801"/><text fill="#000000" font-family="sans-serif" font-size="14" lengthAdjust="spacing" textLength="123" x="2001.5" y="1794.6875">:ApplicationSession</text><rect fill="#E3E3E3" height="51.2422" rx="2.5" ry="2.5" style="stroke:#181818;stroke-width:0.5;" width="137" x="2141.5" y="31.3789"/><text fill="#000000" font-family="sans-serif" font-size="14" lengthAdjust="spacing" textLength="74" x="2173" y="53.4863">appSession</text><text fill="#000000" font-family="sans-serif" font-size="14" lengthAdjust="spacing" textLength="123" x="2148.5" y="72.1074">:ApplicationSession</text><rect fill="#E3E3E3" height="51.2422" rx="2.5" ry="2.5" style="stroke:#181818;stroke-width:0.5;" width="137" x="2141.5" y="1772.5801"/><text fill="#000000" font-family="sans-serif" font-size="14" lengthAdjust="spacing" textLength="74" x="2173" y="1794.6875">appSession</text><text fill="#000000" font-family="sans-serif" font-size="14" lengthAdjust="spacing" textLength="123" x="2148.5" y="1813.3086">:ApplicationSession</text><rect fill="#E3E3E3" height="51.2422" rx="2.5" ry="2.5" style="stroke:#181818;stroke-width:0.5;" width="109" x="2288.5" y="31.3789"/><text fill="#000000" font-family="sans-serif" font-size="14" lengthAdjust="spacing" textLength="95" x="2295.5" y="53.4863">currentSession</text><text fill="#000000" font-family="sans-serif" font-size="14" lengthAdjust="spacing" textLength="83" x="2301.5" y="72.1074">:UserSession</text><rect fill="#E3E3E3" height="51.2422" rx="2.5" ry="2.5" style="stroke:#181818;stroke-width:0.5;" width="109" x="2288.5" y="1772.5801"/><text fill="#000000" font-family="sans-serif" font-size="14" lengthAdjust="spacing" textLength="95" x="2295.5" y="1794.6875">currentSession</text><text fill="#000000" font-family="sans-serif" font-size="14" lengthAdjust="spacing" textLength="83" x="2301.5" y="1813.3086">:UserSession</text><rect fill="#E3E3E3" height="51.2422" rx="2.5" ry="2.5" style="stroke:#181818;stroke-width:0.5;" width="163" x="2407.5" y="31.3789"/><text fill="#000000" font-family="sans-serif" font-size="14" lengthAdjust="spacing" textLength="149" x="2414.5" y="53.4863">organizationRepository:</text><text fill="#000000" font-family="sans-serif" font-size="14" lengthAdjust="spacing" textLength="148" x="2415" y="72.1074">OrganizationRepository</text><rect fill="#E3E3E3" height="51.2422" rx="2.5" ry="2.5" style="stroke:#181818;stroke-width:0.5;" width="163" x="2407.5" y="1772.5801"/><text fill="#000000" font-family="sans-serif" font-size="14" lengthAdjust="spacing" textLength="149" x="2414.5" y="1794.6875">organizationRepository:</text><text fill="#000000" font-family="sans-serif" font-size="14" lengthAdjust="spacing" textLength="148" x="2415" y="1813.3086">OrganizationRepository</text><rect fill="#E3E3E3" height="51.2422" rx="2.5" ry="2.5" style="stroke:#181818;stroke-width:0.5;" width="98" x="2632" y="31.3789"/><text fill="#000000" font-family="sans-serif" font-size="14" lengthAdjust="spacing" textLength="77" x="2642.5" y="53.4863">organization</text><text fill="#000000" font-family="sans-serif" font-size="14" lengthAdjust="spacing" textLength="84" x="2639" y="72.1074">:Organization</text><rect fill="#E3E3E3" height="51.2422" rx="2.5" ry="2.5" style="stroke:#181818;stroke-width:0.5;" width="98" x="2632" y="1772.5801"/><text fill="#000000" font-family="sans-serif" font-size="14" lengthAdjust="spacing" textLength="77" x="2642.5" y="1794.6875">organization</text><text fill="#000000" font-family="sans-serif" font-size="14" lengthAdjust="spacing" textLength="84" x="2639" y="1813.3086">:Organization</text><rect fill="#E3E3E3" height="51.2422" rx="2.5" ry="2.5" style="stroke:#181818;stroke-width:0.5;" width="54" x="2740" y="1772.5801"/><text fill="#000000" font-family="sans-serif" font-size="14" lengthAdjust="spacing" textLength="31" x="2751.5" y="1794.6875">team</text><text fill="#000000" font-family="sans-serif" font-size="14" lengthAdjust="spacing" textLength="40" x="2747" y="1813.3086">:Team</text><rect fill="#FFFFFF" height="1661.959" style="stroke:#181818;stroke-width:1.0;" width="10" x="91" y="93.6211"/><rect fill="#FFFFFF" height="137.4941" style="stroke:#181818;stroke-width:1.0;" width="10" x="502" y="116.9121"/><rect fill="#FFFFFF" height="187.7461" style="stroke:#181818;stroke-width:1.0;" width="10" x="502" y="285.6973"/><rect fill="#FFFFFF" height="1259.8457" style="stroke:#181818;stroke-width:1.0;" width="10" x="502" y="504.7344"/><rect fill="#FFFFFF" height="31.291" style="stroke:#181818;stroke-width:1.0;" width="10" x="997" y="191.8242"/><rect fill="#FFFFFF" height="62.582" style="stroke:#181818;stroke-width:1.0;" width="10" x="997" y="687.1895"/><rect fill="#FFFFFF" height="513.6563" style="stroke:#181818;stroke-width:1.0;" width="10" x="997" y="814.0625"/><rect fill="#FFFFFF" height="193.1152" style="stroke:#181818;stroke-width:1.0;" width="10" x="997" y="1430.3008"/><rect fill="#FFFFFF" height="31.291" style="stroke:#181818;stroke-width:1.0;" width="10" x="1531" y="191.8242"/><rect fill="#FFFFFF" height="31.291" style="stroke:#181818;stroke-width:1.0;" width="10" x="1531" y="316.9883"/><rect fill="#FFFFFF" height="31.291" style="stroke:#181818;stroke-width:1.0;" width="10" x="1638" y="410.8613"/><rect fill="#FFFFFF" height="31.291" style="stroke:#181818;stroke-width:1.0;" width="10" x="1638" y="718.4805"/><rect fill="#FFFFFF" height="31.291" style="stroke:#181818;stroke-width:1.0;" width="10" x="1638" y="1038.0996"/><rect fill="#FFFFFF" height="31.291" style="stroke:#181818;stroke-width:1.0;" width="10" x="2058" y="850.3535"/><rect fill="#FFFFFF" height="31.291" style="stroke:#181818;stroke-width:1.0;" width="10" x="2205" y="912.9355"/><rect fill="#FFFFFF" height="31.291" style="stroke:#181818;stroke-width:1.0;" width="10" x="2338" y="975.5176"/><rect fill="#FFFFFF" height="127.1641" style="stroke:#181818;stroke-width:1.0;" width="10" x="2484" y="1100.6816"/><rect fill="#FFFFFF" height="31.291" style="stroke:#181818;stroke-width:1.0;" width="10" x="2676" y="1158.2637"/><rect fill="#FFFFFF" height="31.291" style="stroke:#181818;stroke-width:1.0;" width="10" x="2676" y="1259.1367"/><polygon fill="#181818" points="490,112.9121,500,116.9121,490,120.9121,494,116.9121" style="stroke:#181818;stroke-width:1.0;"/><line style="stroke:#181818;stroke-width:1.0;" x1="101" x2="496" y1="116.9121" y2="116.9121"/><text fill="#000000" font-family="sans-serif" font-size="13" font-weight="bold" lengthAdjust="spacing" textLength="7" x="108" y="111.6494">1</text><text fill="#000000" font-family="sans-serif" font-size="13" lengthAdjust="spacing" textLength="130" x="119" y="111.6494">asks to generate team</text><polygon fill="#181818" points="899.5,144.2031,909.5,148.2031,899.5,152.2031,903.5,148.2031" style="stroke:#181818;stroke-width:1.0;"/><line style="stroke:#181818;stroke-width:1.0;" x1="512" x2="905.5" y1="148.2031" y2="148.2031"/><text fill="#000000" font-family="sans-serif" font-size="13" font-weight="bold" lengthAdjust="spacing" textLength="7" x="519" y="142.9404">2</text><text fill="#000000" font-family="sans-serif" font-size="13" lengthAdjust="spacing" textLength="36" x="530" y="142.9404">create</text><rect fill="#E3E3E3" height="32.6211" rx="2.5" ry="2.5" style="stroke:#181818;stroke-width:0.5;" width="181" x="911.5" y="124.9121"/><text fill="#000000" font-family="sans-serif" font-size="14" lengthAdjust="spacing" textLength="167" x="918.5" y="147.0195">:TeamGeneratorController</text><polygon fill="#181818" points="1519,187.8242,1529,191.8242,1519,195.8242,1523,191.8242" style="stroke:#181818;stroke-width:1.0;"/><line style="stroke:#181818;stroke-width:1.0;" x1="1007" x2="1525" y1="191.8242" y2="191.8242"/><text fill="#000000" font-family="sans-serif" font-size="13" font-weight="bold" lengthAdjust="spacing" textLength="7" x="1014" y="186.5615">3</text><text fill="#000000" font-family="sans-serif" font-size="13" lengthAdjust="spacing" textLength="75" x="1025" y="186.5615">getInstance()</text><polygon fill="#181818" points="1013,219.1152,1003,223.1152,1013,227.1152,1009,223.1152" style="stroke:#181818;stroke-width:1.0;"/><line style="stroke:#181818;stroke-width:1.0;stroke-dasharray:2.0,2.0;" x1="1007" x2="1535" y1="223.1152" y2="223.1152"/><text fill="#000000" font-family="sans-serif" font-size="13" font-weight="bold" lengthAdjust="spacing" textLength="7" x="1019" y="217.8525">4</text><text fill="#000000" font-family="sans-serif" font-size="13" lengthAdjust="spacing" textLength="67" x="1030" y="217.8525">repositories</text><polygon fill="#181818" points="112,250.4063,102,254.4063,112,258.4063,108,254.4063" style="stroke:#181818;stroke-width:1.0;"/><line style="stroke:#181818;stroke-width:1.0;stroke-dasharray:2.0,2.0;" x1="106" x2="506" y1="254.4063" y2="254.4063"/><text fill="#000000" font-family="sans-serif" font-size="13" font-weight="bold" lengthAdjust="spacing" textLength="7" x="118" y="249.1436">5</text><text fill="#000000" font-family="sans-serif" font-size="13" lengthAdjust="spacing" textLength="250" x="129" y="249.1436">asks for minimum and maximum team size</text><polygon fill="#181818" points="490,281.6973,500,285.6973,490,289.6973,494,285.6973" style="stroke:#181818;stroke-width:1.0;"/><line style="stroke:#181818;stroke-width:1.0;" x1="101" x2="496" y1="285.6973" y2="285.6973"/><text fill="#000000" font-family="sans-serif" font-size="13" font-weight="bold" lengthAdjust="spacing" textLength="7" x="108" y="280.4346">6</text><text fill="#000000" font-family="sans-serif" font-size="13" lengthAdjust="spacing" textLength="239" x="119" y="280.4346">inputs minimum and maximum team size</text><polygon fill="#181818" points="1519,312.9883,1529,316.9883,1519,320.9883,1523,316.9883" style="stroke:#181818;stroke-width:1.0;"/><line style="stroke:#181818;stroke-width:1.0;" x1="1002" x2="1525" y1="316.9883" y2="316.9883"/><text fill="#000000" font-family="sans-serif" font-size="13" font-weight="bold" lengthAdjust="spacing" textLength="7" x="1009" y="311.7256">7</text><text fill="#000000" font-family="sans-serif" font-size="13" lengthAdjust="spacing" textLength="75" x="1020" y="311.7256">getInstance()</text><polygon fill="#181818" points="1013,344.2793,1003,348.2793,1013,352.2793,1009,348.2793" style="stroke:#181818;stroke-width:1.0;"/><line style="stroke:#181818;stroke-width:1.0;stroke-dasharray:2.0,2.0;" x1="1007" x2="1535" y1="348.2793" y2="348.2793"/><text fill="#000000" font-family="sans-serif" font-size="13" font-weight="bold" lengthAdjust="spacing" textLength="7" x="1019" y="343.0166">8</text><text fill="#000000" font-family="sans-serif" font-size="13" lengthAdjust="spacing" textLength="67" x="1030" y="343.0166">repositories</text><polygon fill="#181818" points="990,375.5703,1000,379.5703,990,383.5703,994,379.5703" style="stroke:#181818;stroke-width:1.0;"/><line style="stroke:#181818;stroke-width:1.0;" x1="512" x2="996" y1="379.5703" y2="379.5703"/><text fill="#000000" font-family="sans-serif" font-size="13" font-weight="bold" lengthAdjust="spacing" textLength="7" x="519" y="374.3076">9</text><text fill="#000000" font-family="sans-serif" font-size="13" lengthAdjust="spacing" textLength="113" x="530" y="374.3076">getSkillRepository()</text><polygon fill="#181818" points="1626,406.8613,1636,410.8613,1626,414.8613,1630,410.8613" style="stroke:#181818;stroke-width:1.0;"/><line style="stroke:#181818;stroke-width:1.0;" x1="1002" x2="1632" y1="410.8613" y2="410.8613"/><text fill="#000000" font-family="sans-serif" font-size="13" font-weight="bold" lengthAdjust="spacing" textLength="14" x="1009" y="405.5986">10</text><text fill="#000000" font-family="sans-serif" font-size="13" lengthAdjust="spacing" textLength="113" x="1027" y="405.5986">getSkillRepository()</text><polygon fill="#181818" points="1013,438.1523,1003,442.1523,1013,446.1523,1009,442.1523" style="stroke:#181818;stroke-width:1.0;"/><line style="stroke:#181818;stroke-width:1.0;" x1="1007" x2="1642" y1="442.1523" y2="442.1523"/><text fill="#000000" font-family="sans-serif" font-size="13" font-weight="bold" lengthAdjust="spacing" textLength="14" x="1019" y="436.8896">11</text><text fill="#000000" font-family="sans-serif" font-size="13" lengthAdjust="spacing" textLength="85" x="1037" y="436.8896">skillRepository</text><polygon fill="#181818" points="112,469.4434,102,473.4434,112,477.4434,108,473.4434" style="stroke:#181818;stroke-width:1.0;"/><line style="stroke:#181818;stroke-width:1.0;" x1="106" x2="506" y1="473.4434" y2="473.4434"/><text fill="#000000" font-family="sans-serif" font-size="13" font-weight="bold" lengthAdjust="spacing" textLength="14" x="118" y="468.1807">12</text><text fill="#000000" font-family="sans-serif" font-size="13" lengthAdjust="spacing" textLength="170" x="136" y="468.1807">asks to type suggested skills</text><polygon fill="#181818" points="490,500.7344,500,504.7344,490,508.7344,494,504.7344" style="stroke:#181818;stroke-width:1.0;"/><line style="stroke:#181818;stroke-width:1.0;" x1="101" x2="496" y1="504.7344" y2="504.7344"/><text fill="#000000" font-family="sans-serif" font-size="13" font-weight="bold" lengthAdjust="spacing" textLength="14" x="108" y="499.4717">13</text><text fill="#000000" font-family="sans-serif" font-size="13" lengthAdjust="spacing" textLength="66" x="126" y="499.4717">types skills</text><line style="stroke:#181818;stroke-width:1.0;" x1="512" x2="554" y1="536.0254" y2="536.0254"/><line style="stroke:#181818;stroke-width:1.0;" x1="554" x2="554" y1="536.0254" y2="549.0254"/><line style="stroke:#181818;stroke-width:1.0;" x1="513" x2="554" y1="549.0254" y2="549.0254"/><polygon fill="#181818" points="523,545.0254,513,549.0254,523,553.0254,519,549.0254" style="stroke:#181818;stroke-width:1.0;"/><text fill="#000000" font-family="sans-serif" font-size="13" font-weight="bold" lengthAdjust="spacing" textLength="14" x="519" y="530.7627">14</text><text fill="#000000" font-family="sans-serif" font-size="13" lengthAdjust="spacing" textLength="170" x="537" y="530.7627">parseSkills(String inputSkills)</text><line style="stroke:#181818;stroke-width:1.0;stroke-dasharray:2.0,2.0;" x1="512" x2="554" y1="580.3164" y2="580.3164"/><line style="stroke:#181818;stroke-width:1.0;stroke-dasharray:2.0,2.0;" x1="554" x2="554" y1="580.3164" y2="593.3164"/><line style="stroke:#181818;stroke-width:1.0;stroke-dasharray:2.0,2.0;" x1="513" x2="554" y1="593.3164" y2="593.3164"/><polygon fill="#181818" points="523,589.3164,513,593.3164,523,597.3164,519,593.3164" style="stroke:#181818;stroke-width:1.0;"/><text fill="#000000" font-family="sans-serif" font-size="13" font-weight="bold" lengthAdjust="spacing" textLength="14" x="519" y="575.0537">15</text><text fill="#000000" font-family="sans-serif" font-size="13" lengthAdjust="spacing" textLength="76" x="537" y="575.0537">requiredskills</text><polygon fill="#181818" points="112,620.6074,102,624.6074,112,628.6074,108,624.6074" style="stroke:#181818;stroke-width:1.0;"/><line style="stroke:#181818;stroke-width:1.0;" x1="106" x2="501" y1="624.6074" y2="624.6074"/><text fill="#000000" font-family="sans-serif" font-size="13" font-weight="bold" lengthAdjust="spacing" textLength="14" x="118" y="619.3447">16</text><text fill="#000000" font-family="sans-serif" font-size="13" lengthAdjust="spacing" textLength="359" x="136" y="619.3447">shows team size and selected skills and asks for confirmation</text><polygon fill="#181818" points="490,651.8984,500,655.8984,490,659.8984,494,655.8984" style="stroke:#181818;stroke-width:1.0;"/><line style="stroke:#181818;stroke-width:1.0;" x1="101" x2="496" y1="655.8984" y2="655.8984"/><text fill="#000000" font-family="sans-serif" font-size="13" font-weight="bold" lengthAdjust="spacing" textLength="14" x="108" y="650.6357">17</text><text fill="#000000" font-family="sans-serif" font-size="13" lengthAdjust="spacing" textLength="78" x="126" y="650.6357">confirms data</text><polygon fill="#181818" points="985,683.1895,995,687.1895,985,691.1895,989,687.1895" style="stroke:#181818;stroke-width:1.0;"/><line style="stroke:#181818;stroke-width:1.0;" x1="512" x2="991" y1="687.1895" y2="687.1895"/><text fill="#000000" font-family="sans-serif" font-size="13" font-weight="bold" lengthAdjust="spacing" textLength="14" x="519" y="681.9268">18</text><text fill="#000000" font-family="sans-serif" font-size="13" lengthAdjust="spacing" textLength="157" x="537" y="681.9268">getCollaboratorRepository()</text><polygon fill="#181818" points="1626,714.4805,1636,718.4805,1626,722.4805,1630,718.4805" style="stroke:#181818;stroke-width:1.0;"/><line style="stroke:#181818;stroke-width:1.0;" x1="1007" x2="1632" y1="718.4805" y2="718.4805"/><text fill="#000000" font-family="sans-serif" font-size="13" font-weight="bold" lengthAdjust="spacing" textLength="14" x="1014" y="713.2178">19</text><text fill="#000000" font-family="sans-serif" font-size="13" lengthAdjust="spacing" textLength="157" x="1032" y="713.2178">getCollaboratorRepository()</text><polygon fill="#181818" points="1013,745.7715,1003,749.7715,1013,753.7715,1009,749.7715" style="stroke:#181818;stroke-width:1.0;"/><line style="stroke:#181818;stroke-width:1.0;" x1="1007" x2="1642" y1="749.7715" y2="749.7715"/><text fill="#000000" font-family="sans-serif" font-size="13" font-weight="bold" lengthAdjust="spacing" textLength="14" x="1019" y="744.5088">20</text><text fill="#000000" font-family="sans-serif" font-size="13" lengthAdjust="spacing" textLength="129" x="1037" y="744.5088">collaboratorRepository</text><line style="stroke:#181818;stroke-width:1.0;" x1="1002" x2="1049" y1="801.0625" y2="801.0625"/><line style="stroke:#181818;stroke-width:1.0;" x1="1049" x2="1049" y1="801.0625" y2="814.0625"/><line style="stroke:#181818;stroke-width:1.0;" x1="1008" x2="1049" y1="814.0625" y2="814.0625"/><polygon fill="#181818" points="1018,810.0625,1008,814.0625,1018,818.0625,1014,814.0625" style="stroke:#181818;stroke-width:1.0;"/><text fill="#000000" font-family="sans-serif" font-size="13" font-weight="bold" lengthAdjust="spacing" textLength="14" x="1014" y="795.7998">21</text><text fill="#000000" font-family="sans-serif" font-size="13" lengthAdjust="spacing" textLength="132" x="1032" y="795.7998">getHRMFromSession()</text><polygon fill="#181818" points="2046,846.3535,2056,850.3535,2046,854.3535,2050,850.3535" style="stroke:#181818;stroke-width:1.0;"/><line style="stroke:#181818;stroke-width:1.0;" x1="1007" x2="2052" y1="850.3535" y2="850.3535"/><text fill="#000000" font-family="sans-serif" font-size="13" font-weight="bold" lengthAdjust="spacing" textLength="14" x="1014" y="845.0908">22</text><text fill="#000000" font-family="sans-serif" font-size="13" lengthAdjust="spacing" textLength="75" x="1032" y="845.0908">getInstance()</text><polygon fill="#181818" points="1018,877.6445,1008,881.6445,1018,885.6445,1014,881.6445" style="stroke:#181818;stroke-width:1.0;"/><line style="stroke:#181818;stroke-width:1.0;" x1="1012" x2="2062" y1="881.6445" y2="881.6445"/><text fill="#000000" font-family="sans-serif" font-size="13" font-weight="bold" lengthAdjust="spacing" textLength="14" x="1024" y="876.3818">23</text><text fill="#000000" font-family="sans-serif" font-size="13" lengthAdjust="spacing" textLength="68" x="1042" y="876.3818">appSession</text><polygon fill="#181818" points="2193,908.9355,2203,912.9355,2193,916.9355,2197,912.9355" style="stroke:#181818;stroke-width:1.0;"/><line style="stroke:#181818;stroke-width:1.0;" x1="1007" x2="2199" y1="912.9355" y2="912.9355"/><text fill="#000000" font-family="sans-serif" font-size="13" font-weight="bold" lengthAdjust="spacing" textLength="14" x="1014" y="907.6729">24</text><text fill="#000000" font-family="sans-serif" font-size="13" lengthAdjust="spacing" textLength="115" x="1032" y="907.6729">getCurrentSession()</text><polygon fill="#181818" points="1018,940.2266,1008,944.2266,1018,948.2266,1014,944.2266" style="stroke:#181818;stroke-width:1.0;"/><line style="stroke:#181818;stroke-width:1.0;stroke-dasharray:2.0,2.0;" x1="1012" x2="2209" y1="944.2266" y2="944.2266"/><text fill="#000000" font-family="sans-serif" font-size="13" font-weight="bold" lengthAdjust="spacing" textLength="14" x="1024" y="938.9639">25</text><text fill="#000000" font-family="sans-serif" font-size="13" lengthAdjust="spacing" textLength="87" x="1042" y="938.9639">currentSession</text><polygon fill="#181818" points="2326,971.5176,2336,975.5176,2326,979.5176,2330,975.5176" style="stroke:#181818;stroke-width:1.0;"/><line style="stroke:#181818;stroke-width:1.0;" x1="1007" x2="2332" y1="975.5176" y2="975.5176"/><text fill="#000000" font-family="sans-serif" font-size="13" font-weight="bold" lengthAdjust="spacing" textLength="14" x="1014" y="970.2549">26</text><text fill="#000000" font-family="sans-serif" font-size="13" lengthAdjust="spacing" textLength="133" x="1032" y="970.2549">email = getUserEmail()</text><polygon fill="#181818" points="1018,1002.8086,1008,1006.8086,1018,1010.8086,1014,1006.8086" style="stroke:#181818;stroke-width:1.0;"/><line style="stroke:#181818;stroke-width:1.0;stroke-dasharray:2.0,2.0;" x1="1012" x2="2342" y1="1006.8086" y2="1006.8086"/><text fill="#000000" font-family="sans-serif" font-size="13" font-weight="bold" lengthAdjust="spacing" textLength="14" x="1024" y="1001.5459">27</text><text fill="#000000" font-family="sans-serif" font-size="13" lengthAdjust="spacing" textLength="31" x="1042" y="1001.5459">email</text><polygon fill="#181818" points="1626,1034.0996,1636,1038.0996,1626,1042.0996,1630,1038.0996" style="stroke:#181818;stroke-width:1.0;"/><line style="stroke:#181818;stroke-width:1.0;" x1="1007" x2="1632" y1="1038.0996" y2="1038.0996"/><text fill="#000000" font-family="sans-serif" font-size="13" font-weight="bold" lengthAdjust="spacing" textLength="14" x="1014" y="1032.8369">28</text><text fill="#000000" font-family="sans-serif" font-size="13" lengthAdjust="spacing" textLength="192" x="1032" y="1032.8369">getOrganizationRepository(email)</text><polygon fill="#181818" points="1018,1065.3906,1008,1069.3906,1018,1073.3906,1014,1069.3906" style="stroke:#181818;stroke-width:1.0;"/><line style="stroke:#181818;stroke-width:1.0;stroke-dasharray:2.0,2.0;" x1="1012" x2="1642" y1="1069.3906" y2="1069.3906"/><text fill="#000000" font-family="sans-serif" font-size="13" font-weight="bold" lengthAdjust="spacing" textLength="14" x="1024" y="1064.1279">29</text><text fill="#000000" font-family="sans-serif" font-size="13" lengthAdjust="spacing" textLength="132" x="1042" y="1064.1279">organizationRepository</text><polygon fill="#181818" points="2472,1096.6816,2482,1100.6816,2472,1104.6816,2476,1100.6816" style="stroke:#181818;stroke-width:1.0;"/><line style="stroke:#181818;stroke-width:1.0;" x1="1007" x2="2478" y1="1100.6816" y2="1100.6816"/><text fill="#000000" font-family="sans-serif" font-size="13" font-weight="bold" lengthAdjust="spacing" textLength="14" x="1014" y="1095.4189">30</text><text fill="#000000" font-family="sans-serif" font-size="13" lengthAdjust="spacing" textLength="208" x="1032" y="1095.4189">getOrganizationByHRMEmail(email)</text><path d="M2397.5,1115.6816 L2470.5,1115.6816 L2470.5,1124.9727 L2460.5,1134.9727 L2397.5,1134.9727 L2397.5,1115.6816 " fill="#EEEEEE" style="stroke:#000000;stroke-width:1.5;"/><rect fill="none" height="81.873" style="stroke:#000000;stroke-width:1.5;" width="342.5" x="2397.5" y="1115.6816"/><text fill="#000000" font-family="sans-serif" font-size="13" font-weight="bold" lengthAdjust="spacing" textLength="28" x="2412.5" y="1130.71">loop</text><text fill="#000000" font-family="sans-serif" font-size="11" font-weight="bold" lengthAdjust="spacing" textLength="128" x="2485.5" y="1129.5518">[[for each organization]</text><polygon fill="#181818" points="2664,1154.2637,2674,1158.2637,2664,1162.2637,2668,1158.2637" style="stroke:#181818;stroke-width:1.0;"/><line style="stroke:#181818;stroke-width:1.0;" x1="2494" x2="2670" y1="1158.2637" y2="1158.2637"/><text fill="#000000" font-family="sans-serif" font-size="13" font-weight="bold" lengthAdjust="spacing" textLength="14" x="2501" y="1153.001">31</text><text fill="#000000" font-family="sans-serif" font-size="13" lengthAdjust="spacing" textLength="145" x="2519" y="1153.001">anyHRMHasEmail(email)</text><polygon fill="#181818" points="2505,1185.5547,2495,1189.5547,2505,1193.5547,2501,1189.5547" style="stroke:#181818;stroke-width:1.0;"/><line style="stroke:#181818;stroke-width:1.0;stroke-dasharray:2.0,2.0;" x1="2499" x2="2680" y1="1189.5547" y2="1189.5547"/><text fill="#000000" font-family="sans-serif" font-size="13" font-weight="bold" lengthAdjust="spacing" textLength="14" x="2511" y="1184.292">32</text><text fill="#000000" font-family="sans-serif" font-size="13" lengthAdjust="spacing" textLength="53" x="2529" y="1184.292">true/false</text><polygon fill="#181818" points="1018,1223.8457,1008,1227.8457,1018,1231.8457,1014,1227.8457" style="stroke:#181818;stroke-width:1.0;"/><line style="stroke:#181818;stroke-width:1.0;stroke-dasharray:2.0,2.0;" x1="1012" x2="2488" y1="1227.8457" y2="1227.8457"/><text fill="#000000" font-family="sans-serif" font-size="13" font-weight="bold" lengthAdjust="spacing" textLength="14" x="1024" y="1222.583">33</text><text fill="#000000" font-family="sans-serif" font-size="13" lengthAdjust="spacing" textLength="70" x="1042" y="1222.583">organization</text><polygon fill="#181818" points="2664,1255.1367,2674,1259.1367,2664,1263.1367,2668,1259.1367" style="stroke:#181818;stroke-width:1.0;"/><line style="stroke:#181818;stroke-width:1.0;" x1="1007" x2="2670" y1="1259.1367" y2="1259.1367"/><text fill="#000000" font-family="sans-serif" font-size="13" font-weight="bold" lengthAdjust="spacing" textLength="14" x="1014" y="1253.874">34</text><text fill="#000000" font-family="sans-serif" font-size="13" lengthAdjust="spacing" textLength="135" x="1032" y="1253.874">getHRMByEmail(email)</text><polygon fill="#181818" points="1018,1286.4277,1008,1290.4277,1018,1294.4277,1014,1290.4277" style="stroke:#181818;stroke-width:1.0;"/><line style="stroke:#181818;stroke-width:1.0;stroke-dasharray:2.0,2.0;" x1="1012" x2="2680" y1="1290.4277" y2="1290.4277"/><text fill="#000000" font-family="sans-serif" font-size="13" font-weight="bold" lengthAdjust="spacing" textLength="14" x="1024" y="1285.165">35</text><text fill="#000000" font-family="sans-serif" font-size="13" lengthAdjust="spacing" textLength="22" x="1042" y="1285.165">hrm</text><line style="stroke:#181818;stroke-width:1.0;stroke-dasharray:2.0,2.0;" x1="1007" x2="1049" y1="1326.7188" y2="1326.7188"/><line style="stroke:#181818;stroke-width:1.0;stroke-dasharray:2.0,2.0;" x1="1049" x2="1049" y1="1326.7188" y2="1339.7188"/><line style="stroke:#181818;stroke-width:1.0;stroke-dasharray:2.0,2.0;" x1="1002" x2="1049" y1="1339.7188" y2="1339.7188"/><polygon fill="#181818" points="1012,1335.7188,1002,1339.7188,1012,1343.7188,1008,1339.7188" style="stroke:#181818;stroke-width:1.0;"/><text fill="#000000" font-family="sans-serif" font-size="13" font-weight="bold" lengthAdjust="spacing" textLength="14" x="1014" y="1321.4561">36</text><text fill="#000000" font-family="sans-serif" font-size="13" lengthAdjust="spacing" textLength="22" x="1032" y="1321.4561">hrm</text><polygon fill="#181818" points="990,1387.0098,1000,1391.0098,990,1395.0098,994,1391.0098" style="stroke:#181818;stroke-width:1.0;"/><line style="stroke:#181818;stroke-width:1.0;" x1="512" x2="996" y1="1391.0098" y2="1391.0098"/><text fill="#000000" font-family="sans-serif" font-size="13" font-weight="bold" lengthAdjust="spacing" textLength="14" x="519" y="1385.7471">37</text><text fill="#000000" font-family="sans-serif" font-size="13" lengthAdjust="spacing" textLength="448" x="537" y="1385.7471">generateTeam(int maxTeamSize, int minTeamSize, List&lt;Skill&gt; requiredSkills)</text><line style="stroke:#181818;stroke-width:1.0;" x1="1002" x2="1049" y1="1417.3008" y2="1417.3008"/><line style="stroke:#181818;stroke-width:1.0;" x1="1049" x2="1049" y1="1417.3008" y2="1430.3008"/><line style="stroke:#181818;stroke-width:1.0;" x1="1008" x2="1049" y1="1430.3008" y2="1430.3008"/><polygon fill="#181818" points="1018,1426.3008,1008,1430.3008,1018,1434.3008,1014,1430.3008" style="stroke:#181818;stroke-width:1.0;"/><text fill="#000000" font-family="sans-serif" font-size="13" font-weight="bold" lengthAdjust="spacing" textLength="14" x="1014" y="1412.0381">38</text><text fill="#000000" font-family="sans-serif" font-size="13" lengthAdjust="spacing" textLength="448" x="1032" y="1412.0381">generateTeam(int maxTeamSize, int minTeamSize, List&lt;Skill&gt; requiredSkills)</text><polygon fill="#181818" points="2728,1462.5918,2738,1466.5918,2728,1470.5918,2732,1466.5918" style="stroke:#181818;stroke-width:1.0;"/><line style="stroke:#181818;stroke-width:1.0;" x1="1007" x2="2734" y1="1466.5918" y2="1466.5918"/><text fill="#000000" font-family="sans-serif" font-size="13" font-weight="bold" lengthAdjust="spacing" textLength="14" x="1014" y="1461.3291">39</text><text fill="#000000" font-family="sans-serif" font-size="13" lengthAdjust="spacing" textLength="492" x="1032" y="1461.3291">create(generateTeam(int maxTeamSize, int minTeamSize, List&lt;Skill&gt; requiredSkills))</text><rect fill="#E3E3E3" height="51.2422" rx="2.5" ry="2.5" style="stroke:#181818;stroke-width:0.5;" width="54" x="2740" y="1443.3008"/><text fill="#000000" font-family="sans-serif" font-size="14" lengthAdjust="spacing" textLength="31" x="2751.5" y="1465.4082">team</text><text fill="#000000" font-family="sans-serif" font-size="14" lengthAdjust="spacing" textLength="40" x="2747" y="1484.0293">:Team</text><line style="stroke:#181818;stroke-width:1.0;" x1="1007" x2="1049" y1="1528.834" y2="1528.834"/><line style="stroke:#181818;stroke-width:1.0;" x1="1049" x2="1049" y1="1528.834" y2="1541.834"/><line style="stroke:#181818;stroke-width:1.0;" x1="1008" x2="1049" y1="1541.834" y2="1541.834"/><polygon fill="#181818" points="1018,1537.834,1008,1541.834,1018,1545.834,1014,1541.834" style="stroke:#181818;stroke-width:1.0;"/><text fill="#000000" font-family="sans-serif" font-size="13" font-weight="bold" lengthAdjust="spacing" textLength="14" x="1014" y="1523.5713">40</text><text fill="#000000" font-family="sans-serif" font-size="13" lengthAdjust="spacing" textLength="492" x="1032" y="1523.5713">filterCollaboratorsBySkills(List&lt;Collaborator&gt; collaborators, List&lt;Skill&gt; requiredSkills)</text><line style="stroke:#181818;stroke-width:1.0;stroke-dasharray:2.0,2.0;" x1="1007" x2="1049" y1="1573.125" y2="1573.125"/><line style="stroke:#181818;stroke-width:1.0;stroke-dasharray:2.0,2.0;" x1="1049" x2="1049" y1="1573.125" y2="1586.125"/><line style="stroke:#181818;stroke-width:1.0;stroke-dasharray:2.0,2.0;" x1="1008" x2="1049" y1="1586.125" y2="1586.125"/><polygon fill="#181818" points="1018,1582.125,1008,1586.125,1018,1590.125,1014,1586.125" style="stroke:#181818;stroke-width:1.0;"/><text fill="#000000" font-family="sans-serif" font-size="13" font-weight="bold" lengthAdjust="spacing" textLength="14" x="1014" y="1567.8623">41</text><text fill="#000000" font-family="sans-serif" font-size="13" lengthAdjust="spacing" textLength="121" x="1032" y="1567.8623">qualifiedcollaborators</text><line style="stroke:#181818;stroke-width:1.0;stroke-dasharray:2.0,2.0;" x1="1007" x2="1049" y1="1622.416" y2="1622.416"/><line style="stroke:#181818;stroke-width:1.0;stroke-dasharray:2.0,2.0;" x1="1049" x2="1049" y1="1622.416" y2="1635.416"/><line style="stroke:#181818;stroke-width:1.0;stroke-dasharray:2.0,2.0;" x1="1002" x2="1049" y1="1635.416" y2="1635.416"/><polygon fill="#181818" points="1012,1631.416,1002,1635.416,1012,1639.416,1008,1635.416" style="stroke:#181818;stroke-width:1.0;"/><text fill="#000000" font-family="sans-serif" font-size="13" font-weight="bold" lengthAdjust="spacing" textLength="14" x="1014" y="1617.1533">42</text><text fill="#000000" font-family="sans-serif" font-size="13" lengthAdjust="spacing" textLength="29" x="1032" y="1617.1533">team</text><polygon fill="#181818" points="523,1657.707,513,1661.707,523,1665.707,519,1661.707" style="stroke:#181818;stroke-width:1.0;"/><line style="stroke:#181818;stroke-width:1.0;stroke-dasharray:2.0,2.0;" x1="517" x2="1001" y1="1661.707" y2="1661.707"/><text fill="#000000" font-family="sans-serif" font-size="13" font-weight="bold" lengthAdjust="spacing" textLength="14" x="529" y="1656.4443">43</text><text fill="#000000" font-family="sans-serif" font-size="13" lengthAdjust="spacing" textLength="29" x="547" y="1656.4443">team</text><polygon fill="#181818" points="112,1688.998,102,1692.998,112,1696.998,108,1692.998" style="stroke:#181818;stroke-width:1.0;"/><line style="stroke:#181818;stroke-width:1.0;" x1="106" x2="501" y1="1692.998" y2="1692.998"/><text fill="#000000" font-family="sans-serif" font-size="13" font-weight="bold" lengthAdjust="spacing" textLength="14" x="118" y="1687.7354">44</text><text fill="#000000" font-family="sans-serif" font-size="13" lengthAdjust="spacing" textLength="103" x="136" y="1687.7354">displays the team</text><polygon fill="#181818" points="490,1720.2891,500,1724.2891,490,1728.2891,494,1724.2891" style="stroke:#181818;stroke-width:1.0;"/><line style="stroke:#181818;stroke-width:1.0;" x1="101" x2="496" y1="1724.2891" y2="1724.2891"/><text fill="#000000" font-family="sans-serif" font-size="13" font-weight="bold" lengthAdjust="spacing" textLength="14" x="108" y="1719.0264">45</text><text fill="#000000" font-family="sans-serif" font-size="13" lengthAdjust="spacing" textLength="198" x="126" y="1719.0264">either accepts or refuses the team</text><polygon fill="#181818" points="107,1751.5801,97,1755.5801,107,1759.5801,103,1755.5801" style="stroke:#181818;stroke-width:1.0;"/><line style="stroke:#181818;stroke-width:1.0;" x1="101" x2="501" y1="1755.5801" y2="1755.5801"/><text fill="#000000" font-family="sans-serif" font-size="13" font-weight="bold" lengthAdjust="spacing" textLength="14" x="113" y="1750.3174">46</text><text fill="#000000" font-family="sans-serif" font-size="13" lengthAdjust="spacing" textLength="158" x="131" y="1750.3174">displays operation success</text><!--SRC=[jLVVJ-Cu47xtNs7nGa6WUu_ka0h7GINGSWrzMgIJIQQjHM9dRUTsk-AFlx6J9d7Yf6LtBoyKU-RpD-FvPVt6HS4KosakXKosIkP0ZIg1w6QdOCaRsq1iTXbG1ObXOfDr1VIMfV8h5nkwPfa6GbXff2ZpLr24d6vv2dGjfNcLtmXBZ5JqvBxCcQ1BqB9K2MZwo0IUe4ueqtJ-voD1NCCJNZ1Xw4dq32o_0m6AeV9guQHMYocX6ocCabbMGzuyBnzwuaiefEOeoa4xcMPX5tDh7rhWgwYEneiO0Zmzp9zz3VHGbhMuqOk8_HMd5ozzhHlapLwbiyDJJe8RbO4zZ6XU51bFcE5InA0r_d5o_yoVddn9LXIr0DeqeZLGIagbG9XMSQL1TJNYspYUV_ALfDemmRyxTC-kJy4DXnFU6iT5AbsL2cDvvoiOZ1GKj07Z16x_NYsUviJ69l-N6N0HI6ZzuJ_qyWhZZKOe_AQfaNHJnHbc2cAqeWq01YSvfPqFjIyHn695c49VIj16qvGPHcSAre3UJE22fg0JnGjB_O9IBjPIvIoZByBVCP1i1TvJvY-dfMBLhqHgSqQw14uJ1PQPouG-ioktV7wEt2enuedOpmfOmK2MeDO6p49eh0i9pCu6kerR1eTxkw4474ZRByJXiZR2UhVDou5w2fF7JOWxxcJqJbrau7NHd0kUbpbb8gKv- -P-soYXcdy74W2siTAFCooi9SR7OQm1IkZxcRlxyLlw1RTrvAsrvxV1N1dMAxTe7-axnLRjCU5H9xXIxsqxcFRiNkKd8zOud9Pu9vImo9XT0LINcmtM2aWhoCf71wB7Akgk_42wEiu9OsNKu4pNizWesyHTz5LBPwGJwKxU5Y-k8AtX1-prLdxLRPIwsDMGuTJGsE3MceH9f5XpB7EsSWrjgNUhMaa8wNgzVzlXnkdTOo-TIIXDseWu0l2ZWH7kuGVZOxGW-OUzlxy7JMfzTBzy_0jdlBfNzqoPA7PTD3j475tptSGHIcgxGPiwq8uXKqNOWOqJs_EwySQJANOEByJEaMlO-VFE5CCWu9vVDHL557B6C_g7fMe7frlxxnJBUfeA4gtsEbmT-1J5FTeeJHjrpe_XwMlcJlXG4lZ9q50DJuHJt2leKUPXmWDRhdUO1fNN3zaoCe06hSkaBEXdMzEGyDQpRhIrXV6TBSixsmo4vNhFz2JT8MsSUIUxieE_77MPxIBu2FojUiyTqPVjWI4H42dvYDrjiPfqN_Va8s-eYP7btRuINk-E388nR-wTM5FUgfmSyD48hN6CoH6qN-_RZXWrRnJxp9bnVFVW16b_nzYLBwXRuA9TUE3Q_EwQ_bNJuxipGAYb_6-77Dc8geVR-Vd-sJBxTNJEHW-j35_pp83g3WZwUbUFKGwsktNbjNqzxOVf28debv9bVCqXzJ13eqoZubwfHmTL46Yr2C1ywAda1iI8fbmN6TlXYBY58M8p-c4VuoYXC1GIAF0jX5KL7ygbXX7Dq16oWEf5Z6CqmcZqKhTLuol_Fm00]--></g></svg>