<?xml version="1.0" encoding="us-ascii" standalone="no"?><svg xmlns="http://www.w3.org/2000/svg" xmlns:xlink="http://www.w3.org/1999/xlink" contentStyleType="text/css" height="852px" preserveAspectRatio="none" style="width:3154px;height:852px;background:#FFFFFF;" version="1.1" viewBox="0 0 3154 852" width="3154px" zoomAndPan="magnify"><defs/><g><!--class ApplicationSession--><g id="elem_ApplicationSession"><rect codeLine="7" fill="#F1F1F1" height="85.2422" id="ApplicationSession" rx="2.5" ry="2.5" style="stroke:#181818;stroke-width:0.5;" width="154" x="334" y="549.5"/><ellipse cx="350.35" cy="565.5" fill="#ADD1B2" rx="11" ry="11" style="stroke:#181818;stroke-width:1.0;"/><path d="M353.1156,561.375 Q353.2719,561.1563 353.4594,561.0469 Q353.6469,560.9375 353.8656,560.9375 Q354.2406,560.9375 354.475,561.2031 Q354.7094,561.4531 354.7094,562.0625 L354.7094,563.5156 Q354.7094,564.125 354.475,564.3906 Q354.2406,564.6563 353.8656,564.6563 Q353.5219,564.6563 353.3188,564.4531 Q353.1156,564.2656 353.0063,563.75 Q352.9594,563.3906 352.7719,563.2031 Q352.4438,562.8281 351.8344,562.6094 Q351.225,562.3906 350.6,562.3906 Q349.8344,562.3906 349.1938,562.7188 Q348.5688,563.0469 348.0688,563.7969 Q347.5844,564.5469 347.5844,565.5781 L347.5844,566.6719 Q347.5844,567.9063 348.475,568.7344 Q349.3656,569.5469 350.9594,569.5469 Q351.8969,569.5469 352.5531,569.2969 Q352.9438,569.1406 353.3656,568.7031 Q353.6313,568.4375 353.7719,568.3594 Q353.9281,568.2813 354.1313,568.2813 Q354.4594,568.2813 354.7094,568.5469 Q354.975,568.7969 354.975,569.1406 Q354.975,569.4844 354.6313,569.8906 Q354.1313,570.4688 353.3344,570.7969 Q352.2563,571.25 350.9594,571.25 Q349.4438,571.25 348.2406,570.625 Q347.2563,570.125 346.5688,569.0625 Q345.8813,567.9844 345.8813,566.7031 L345.8813,565.5469 Q345.8813,564.2188 346.4906,563.0781 Q347.1156,561.9219 348.2094,561.3125 Q349.3031,560.6875 350.5375,560.6875 Q351.2719,560.6875 351.9125,560.8594 Q352.5688,561.0156 353.1156,561.375 Z " fill="#000000"/><text fill="#000000" font-family="sans-serif" font-size="14" lengthAdjust="spacing" textLength="119" x="364.65" y="571.2969">ApplicationSession</text><line style="stroke:#181818;stroke-width:0.5;" x1="335" x2="487" y1="581.5" y2="581.5"/><line style="stroke:#181818;stroke-width:0.5;" x1="335" x2="487" y1="589.5" y2="589.5"/><ellipse cx="345" cy="604.3105" fill="#84BE84" rx="3" ry="3" style="stroke:#038048;stroke-width:1.0;"/><text fill="#000000" font-family="sans-serif" font-size="14" lengthAdjust="spacing" textLength="120" x="354" y="608.6074">static getInstance()</text><ellipse cx="345" cy="622.9316" fill="#84BE84" rx="3" ry="3" style="stroke:#038048;stroke-width:1.0;"/><text fill="#000000" font-family="sans-serif" font-size="14" lengthAdjust="spacing" textLength="128" x="354" y="627.2285">getCurrentSession()</text></g><!--class UserSession--><g id="elem_UserSession"><rect codeLine="13" fill="#F1F1F1" height="66.6211" id="UserSession" rx="2.5" ry="2.5" style="stroke:#181818;stroke-width:0.5;" width="119" x="250.5" y="779"/><ellipse cx="269.1" cy="795" fill="#ADD1B2" rx="11" ry="11" style="stroke:#181818;stroke-width:1.0;"/><path d="M271.8656,790.875 Q272.0219,790.6563 272.2094,790.5469 Q272.3969,790.4375 272.6156,790.4375 Q272.9906,790.4375 273.225,790.7031 Q273.4594,790.9531 273.4594,791.5625 L273.4594,793.0156 Q273.4594,793.625 273.225,793.8906 Q272.9906,794.1563 272.6156,794.1563 Q272.2719,794.1563 272.0688,793.9531 Q271.8656,793.7656 271.7563,793.25 Q271.7094,792.8906 271.5219,792.7031 Q271.1938,792.3281 270.5844,792.1094 Q269.975,791.8906 269.35,791.8906 Q268.5844,791.8906 267.9438,792.2188 Q267.3188,792.5469 266.8188,793.2969 Q266.3344,794.0469 266.3344,795.0781 L266.3344,796.1719 Q266.3344,797.4063 267.225,798.2344 Q268.1156,799.0469 269.7094,799.0469 Q270.6469,799.0469 271.3031,798.7969 Q271.6938,798.6406 272.1156,798.2031 Q272.3813,797.9375 272.5219,797.8594 Q272.6781,797.7813 272.8813,797.7813 Q273.2094,797.7813 273.4594,798.0469 Q273.725,798.2969 273.725,798.6406 Q273.725,798.9844 273.3813,799.3906 Q272.8813,799.9688 272.0844,800.2969 Q271.0063,800.75 269.7094,800.75 Q268.1938,800.75 266.9906,800.125 Q266.0063,799.625 265.3188,798.5625 Q264.6313,797.4844 264.6313,796.2031 L264.6313,795.0469 Q264.6313,793.7188 265.2406,792.5781 Q265.8656,791.4219 266.9594,790.8125 Q268.0531,790.1875 269.2875,790.1875 Q270.0219,790.1875 270.6625,790.3594 Q271.3188,790.5156 271.8656,790.875 Z " fill="#000000"/><text fill="#000000" font-family="sans-serif" font-size="14" lengthAdjust="spacing" textLength="79" x="283.9" y="800.7969">UserSession</text><line style="stroke:#181818;stroke-width:0.5;" x1="251.5" x2="368.5" y1="811" y2="811"/><line style="stroke:#181818;stroke-width:0.5;" x1="251.5" x2="368.5" y1="819" y2="819"/><ellipse cx="261.5" cy="833.8105" fill="#84BE84" rx="3" ry="3" style="stroke:#038048;stroke-width:1.0;"/><text fill="#000000" font-family="sans-serif" font-size="14" lengthAdjust="spacing" textLength="93" x="270.5" y="838.1074">getUserEmail()</text></g><!--class HRManager--><g id="elem_HRManager"><rect codeLine="18" fill="#F1F1F1" height="141.1055" id="HRManager" rx="2.5" ry="2.5" style="stroke:#181818;stroke-width:0.5;" width="135" x="1759.5" y="7"/><ellipse cx="1787.1" cy="23" fill="#ADD1B2" rx="11" ry="11" style="stroke:#181818;stroke-width:1.0;"/><path d="M1789.8656,18.875 Q1790.0219,18.6563 1790.2094,18.5469 Q1790.3969,18.4375 1790.6156,18.4375 Q1790.9906,18.4375 1791.225,18.7031 Q1791.4594,18.9531 1791.4594,19.5625 L1791.4594,21.0156 Q1791.4594,21.625 1791.225,21.8906 Q1790.9906,22.1563 1790.6156,22.1563 Q1790.2719,22.1563 1790.0688,21.9531 Q1789.8656,21.7656 1789.7563,21.25 Q1789.7094,20.8906 1789.5219,20.7031 Q1789.1938,20.3281 1788.5844,20.1094 Q1787.975,19.8906 1787.35,19.8906 Q1786.5844,19.8906 1785.9438,20.2188 Q1785.3188,20.5469 1784.8188,21.2969 Q1784.3344,22.0469 1784.3344,23.0781 L1784.3344,24.1719 Q1784.3344,25.4063 1785.225,26.2344 Q1786.1156,27.0469 1787.7094,27.0469 Q1788.6469,27.0469 1789.3031,26.7969 Q1789.6938,26.6406 1790.1156,26.2031 Q1790.3813,25.9375 1790.5219,25.8594 Q1790.6781,25.7813 1790.8813,25.7813 Q1791.2094,25.7813 1791.4594,26.0469 Q1791.725,26.2969 1791.725,26.6406 Q1791.725,26.9844 1791.3813,27.3906 Q1790.8813,27.9688 1790.0844,28.2969 Q1789.0063,28.75 1787.7094,28.75 Q1786.1938,28.75 1784.9906,28.125 Q1784.0063,27.625 1783.3188,26.5625 Q1782.6313,25.4844 1782.6313,24.2031 L1782.6313,23.0469 Q1782.6313,21.7188 1783.2406,20.5781 Q1783.8656,19.4219 1784.9594,18.8125 Q1786.0531,18.1875 1787.2875,18.1875 Q1788.0219,18.1875 1788.6625,18.3594 Q1789.3188,18.5156 1789.8656,18.875 Z " fill="#000000"/><text fill="#000000" font-family="sans-serif" font-size="14" lengthAdjust="spacing" textLength="75" x="1803.9" y="28.7969">HRManager</text><line style="stroke:#181818;stroke-width:0.5;" x1="1760.5" x2="1893.5" y1="39" y2="39"/><rect fill="none" height="6" style="stroke:#C82930;stroke-width:1.0;" width="6" x="1767.5" y="50.8105"/><text fill="#000000" font-family="sans-serif" font-size="14" lengthAdjust="spacing" textLength="76" x="1779.5" y="58.1074">String name</text><rect fill="none" height="6" style="stroke:#C82930;stroke-width:1.0;" width="6" x="1767.5" y="69.4316"/><text fill="#000000" font-family="sans-serif" font-size="14" lengthAdjust="spacing" textLength="109" x="1779.5" y="76.7285">String vatNumber</text><rect fill="none" height="6" style="stroke:#C82930;stroke-width:1.0;" width="6" x="1767.5" y="88.0527"/><text fill="#000000" font-family="sans-serif" font-size="14" lengthAdjust="spacing" textLength="92" x="1779.5" y="95.3496">String address</text><rect fill="none" height="6" style="stroke:#C82930;stroke-width:1.0;" width="6" x="1767.5" y="106.6738"/><text fill="#000000" font-family="sans-serif" font-size="14" lengthAdjust="spacing" textLength="81" x="1779.5" y="113.9707">String phone</text><rect fill="none" height="6" style="stroke:#C82930;stroke-width:1.0;" width="6" x="1767.5" y="125.2949"/><text fill="#000000" font-family="sans-serif" font-size="14" lengthAdjust="spacing" textLength="74" x="1779.5" y="132.5918">String email</text><line style="stroke:#181818;stroke-width:0.5;" x1="1760.5" x2="1893.5" y1="140.1055" y2="140.1055"/></g><!--class Skill--><g id="elem_Skill"><rect codeLine="26" fill="#F1F1F1" height="66.6211" id="Skill" rx="2.5" ry="2.5" style="stroke:#181818;stroke-width:0.5;" width="102" x="1770" y="558.5"/><ellipse cx="1805.25" cy="574.5" fill="#ADD1B2" rx="11" ry="11" style="stroke:#181818;stroke-width:1.0;"/><path d="M1808.0156,570.375 Q1808.1719,570.1563 1808.3594,570.0469 Q1808.5469,569.9375 1808.7656,569.9375 Q1809.1406,569.9375 1809.375,570.2031 Q1809.6094,570.4531 1809.6094,571.0625 L1809.6094,572.5156 Q1809.6094,573.125 1809.375,573.3906 Q1809.1406,573.6563 1808.7656,573.6563 Q1808.4219,573.6563 1808.2188,573.4531 Q1808.0156,573.2656 1807.9063,572.75 Q1807.8594,572.3906 1807.6719,572.2031 Q1807.3438,571.8281 1806.7344,571.6094 Q1806.125,571.3906 1805.5,571.3906 Q1804.7344,571.3906 1804.0938,571.7188 Q1803.4688,572.0469 1802.9688,572.7969 Q1802.4844,573.5469 1802.4844,574.5781 L1802.4844,575.6719 Q1802.4844,576.9063 1803.375,577.7344 Q1804.2656,578.5469 1805.8594,578.5469 Q1806.7969,578.5469 1807.4531,578.2969 Q1807.8438,578.1406 1808.2656,577.7031 Q1808.5313,577.4375 1808.6719,577.3594 Q1808.8281,577.2813 1809.0313,577.2813 Q1809.3594,577.2813 1809.6094,577.5469 Q1809.875,577.7969 1809.875,578.1406 Q1809.875,578.4844 1809.5313,578.8906 Q1809.0313,579.4688 1808.2344,579.7969 Q1807.1563,580.25 1805.8594,580.25 Q1804.3438,580.25 1803.1406,579.625 Q1802.1563,579.125 1801.4688,578.0625 Q1800.7813,576.9844 1800.7813,575.7031 L1800.7813,574.5469 Q1800.7813,573.2188 1801.3906,572.0781 Q1802.0156,570.9219 1803.1094,570.3125 Q1804.2031,569.6875 1805.4375,569.6875 Q1806.1719,569.6875 1806.8125,569.8594 Q1807.4688,570.0156 1808.0156,570.375 Z " fill="#000000"/><text fill="#000000" font-family="sans-serif" font-size="14" lengthAdjust="spacing" textLength="25" x="1823.75" y="580.2969">Skill</text><line style="stroke:#181818;stroke-width:0.5;" x1="1771" x2="1871" y1="590.5" y2="590.5"/><rect fill="none" height="6" style="stroke:#C82930;stroke-width:1.0;" width="6" x="1778" y="602.3105"/><text fill="#000000" font-family="sans-serif" font-size="14" lengthAdjust="spacing" textLength="76" x="1790" y="609.6074">String name</text><line style="stroke:#181818;stroke-width:0.5;" x1="1771" x2="1871" y1="617.1211" y2="617.1211"/></g><!--class Job--><g id="elem_Job"><rect codeLine="30" fill="#F1F1F1" height="66.6211" id="Job" rx="2.5" ry="2.5" style="stroke:#181818;stroke-width:0.5;" width="102" x="2238" y="558.5"/><ellipse cx="2274.6" cy="574.5" fill="#ADD1B2" rx="11" ry="11" style="stroke:#181818;stroke-width:1.0;"/><path d="M2277.3656,570.375 Q2277.5219,570.1563 2277.7094,570.0469 Q2277.8969,569.9375 2278.1156,569.9375 Q2278.4906,569.9375 2278.725,570.2031 Q2278.9594,570.4531 2278.9594,571.0625 L2278.9594,572.5156 Q2278.9594,573.125 2278.725,573.3906 Q2278.4906,573.6563 2278.1156,573.6563 Q2277.7719,573.6563 2277.5688,573.4531 Q2277.3656,573.2656 2277.2563,572.75 Q2277.2094,572.3906 2277.0219,572.2031 Q2276.6938,571.8281 2276.0844,571.6094 Q2275.475,571.3906 2274.85,571.3906 Q2274.0844,571.3906 2273.4438,571.7188 Q2272.8188,572.0469 2272.3188,572.7969 Q2271.8344,573.5469 2271.8344,574.5781 L2271.8344,575.6719 Q2271.8344,576.9063 2272.725,577.7344 Q2273.6156,578.5469 2275.2094,578.5469 Q2276.1469,578.5469 2276.8031,578.2969 Q2277.1938,578.1406 2277.6156,577.7031 Q2277.8813,577.4375 2278.0219,577.3594 Q2278.1781,577.2813 2278.3813,577.2813 Q2278.7094,577.2813 2278.9594,577.5469 Q2279.225,577.7969 2279.225,578.1406 Q2279.225,578.4844 2278.8813,578.8906 Q2278.3813,579.4688 2277.5844,579.7969 Q2276.5063,580.25 2275.2094,580.25 Q2273.6938,580.25 2272.4906,579.625 Q2271.5063,579.125 2270.8188,578.0625 Q2270.1313,576.9844 2270.1313,575.7031 L2270.1313,574.5469 Q2270.1313,573.2188 2270.7406,572.0781 Q2271.3656,570.9219 2272.4594,570.3125 Q2273.5531,569.6875 2274.7875,569.6875 Q2275.5219,569.6875 2276.1625,569.8594 Q2276.8188,570.0156 2277.3656,570.375 Z " fill="#000000"/><text fill="#000000" font-family="sans-serif" font-size="14" lengthAdjust="spacing" textLength="22" x="2293.4" y="580.2969">Job</text><line style="stroke:#181818;stroke-width:0.5;" x1="2239" x2="2339" y1="590.5" y2="590.5"/><rect fill="none" height="6" style="stroke:#C82930;stroke-width:1.0;" width="6" x="2246" y="602.3105"/><text fill="#000000" font-family="sans-serif" font-size="14" lengthAdjust="spacing" textLength="76" x="2258" y="609.6074">String name</text><line style="stroke:#181818;stroke-width:0.5;" x1="2239" x2="2339" y1="617.1211" y2="617.1211"/></g><!--class Collaborator--><g id="elem_Collaborator"><rect codeLine="34" fill="#F1F1F1" height="215.5898" id="Collaborator" rx="2.5" ry="2.5" style="stroke:#181818;stroke-width:0.5;" width="166" x="1972" y="484"/><ellipse cx="2012.2" cy="500" fill="#ADD1B2" rx="11" ry="11" style="stroke:#181818;stroke-width:1.0;"/><path d="M2014.9656,495.875 Q2015.1219,495.6563 2015.3094,495.5469 Q2015.4969,495.4375 2015.7156,495.4375 Q2016.0906,495.4375 2016.325,495.7031 Q2016.5594,495.9531 2016.5594,496.5625 L2016.5594,498.0156 Q2016.5594,498.625 2016.325,498.8906 Q2016.0906,499.1563 2015.7156,499.1563 Q2015.3719,499.1563 2015.1688,498.9531 Q2014.9656,498.7656 2014.8563,498.25 Q2014.8094,497.8906 2014.6219,497.7031 Q2014.2938,497.3281 2013.6844,497.1094 Q2013.075,496.8906 2012.45,496.8906 Q2011.6844,496.8906 2011.0438,497.2188 Q2010.4188,497.5469 2009.9188,498.2969 Q2009.4344,499.0469 2009.4344,500.0781 L2009.4344,501.1719 Q2009.4344,502.4063 2010.325,503.2344 Q2011.2156,504.0469 2012.8094,504.0469 Q2013.7469,504.0469 2014.4031,503.7969 Q2014.7938,503.6406 2015.2156,503.2031 Q2015.4813,502.9375 2015.6219,502.8594 Q2015.7781,502.7813 2015.9813,502.7813 Q2016.3094,502.7813 2016.5594,503.0469 Q2016.825,503.2969 2016.825,503.6406 Q2016.825,503.9844 2016.4813,504.3906 Q2015.9813,504.9688 2015.1844,505.2969 Q2014.1063,505.75 2012.8094,505.75 Q2011.2938,505.75 2010.0906,505.125 Q2009.1063,504.625 2008.4188,503.5625 Q2007.7313,502.4844 2007.7313,501.2031 L2007.7313,500.0469 Q2007.7313,498.7188 2008.3406,497.5781 Q2008.9656,496.4219 2010.0594,495.8125 Q2011.1531,495.1875 2012.3875,495.1875 Q2013.1219,495.1875 2013.7625,495.3594 Q2014.4188,495.5156 2014.9656,495.875 Z " fill="#000000"/><text fill="#000000" font-family="sans-serif" font-size="14" lengthAdjust="spacing" textLength="78" x="2031.8" y="505.7969">Collaborator</text><line style="stroke:#181818;stroke-width:0.5;" x1="1973" x2="2137" y1="516" y2="516"/><rect fill="none" height="6" style="stroke:#C82930;stroke-width:1.0;" width="6" x="1980" y="527.8105"/><text fill="#000000" font-family="sans-serif" font-size="14" lengthAdjust="spacing" textLength="80" x="1992" y="535.1074">name: String</text><rect fill="none" height="6" style="stroke:#C82930;stroke-width:1.0;" width="6" x="1980" y="546.4316"/><text fill="#000000" font-family="sans-serif" font-size="14" lengthAdjust="spacing" textLength="101" x="1992" y="553.7285">birthdate: String</text><rect fill="none" height="6" style="stroke:#C82930;stroke-width:1.0;" width="6" x="1980" y="565.0527"/><text fill="#000000" font-family="sans-serif" font-size="14" lengthAdjust="spacing" textLength="140" x="1992" y="572.3496">admission date: String</text><rect fill="none" height="6" style="stroke:#C82930;stroke-width:1.0;" width="6" x="1980" y="583.6738"/><text fill="#000000" font-family="sans-serif" font-size="14" lengthAdjust="spacing" textLength="96" x="1992" y="590.9707">address: String</text><rect fill="none" height="6" style="stroke:#C82930;stroke-width:1.0;" width="6" x="1980" y="602.2949"/><text fill="#000000" font-family="sans-serif" font-size="14" lengthAdjust="spacing" textLength="117" x="1992" y="609.5918">mobile Contact: int</text><rect fill="none" height="6" style="stroke:#C82930;stroke-width:1.0;" width="6" x="1980" y="620.916"/><text fill="#000000" font-family="sans-serif" font-size="14" lengthAdjust="spacing" textLength="128" x="1992" y="628.2129">email contact: String</text><rect fill="none" height="6" style="stroke:#C82930;stroke-width:1.0;" width="6" x="1980" y="639.5371"/><text fill="#000000" font-family="sans-serif" font-size="14" lengthAdjust="spacing" textLength="116" x="1992" y="646.834">ID doc type: String</text><rect fill="none" height="6" style="stroke:#C82930;stroke-width:1.0;" width="6" x="1980" y="658.1582"/><text fill="#000000" font-family="sans-serif" font-size="14" lengthAdjust="spacing" textLength="88" x="1992" y="665.4551">ID number: int</text><line style="stroke:#181818;stroke-width:0.5;" x1="1973" x2="2137" y1="672.9688" y2="672.9688"/><ellipse cx="1983" cy="687.7793" fill="#84BE84" rx="3" ry="3" style="stroke:#038048;stroke-width:1.0;"/><text fill="#000000" font-family="sans-serif" font-size="14" lengthAdjust="spacing" textLength="82" x="1992" y="692.0762">addSkill(skill)</text></g><!--class GenerateTeamController--><g id="elem_GenerateTeamController"><rect codeLine="46" fill="#F1F1F1" height="178.3477" id="GenerateTeamController" rx="2.5" ry="2.5" style="stroke:#181818;stroke-width:0.5;" width="678" x="7" y="227"/><ellipse cx="262.75" cy="243" fill="#ADD1B2" rx="11" ry="11" style="stroke:#181818;stroke-width:1.0;"/><path d="M265.5156,238.875 Q265.6719,238.6563 265.8594,238.5469 Q266.0469,238.4375 266.2656,238.4375 Q266.6406,238.4375 266.875,238.7031 Q267.1094,238.9531 267.1094,239.5625 L267.1094,241.0156 Q267.1094,241.625 266.875,241.8906 Q266.6406,242.1563 266.2656,242.1563 Q265.9219,242.1563 265.7188,241.9531 Q265.5156,241.7656 265.4063,241.25 Q265.3594,240.8906 265.1719,240.7031 Q264.8438,240.3281 264.2344,240.1094 Q263.625,239.8906 263,239.8906 Q262.2344,239.8906 261.5938,240.2188 Q260.9688,240.5469 260.4688,241.2969 Q259.9844,242.0469 259.9844,243.0781 L259.9844,244.1719 Q259.9844,245.4063 260.875,246.2344 Q261.7656,247.0469 263.3594,247.0469 Q264.2969,247.0469 264.9531,246.7969 Q265.3438,246.6406 265.7656,246.2031 Q266.0313,245.9375 266.1719,245.8594 Q266.3281,245.7813 266.5313,245.7813 Q266.8594,245.7813 267.1094,246.0469 Q267.375,246.2969 267.375,246.6406 Q267.375,246.9844 267.0313,247.3906 Q266.5313,247.9688 265.7344,248.2969 Q264.6563,248.75 263.3594,248.75 Q261.8438,248.75 260.6406,248.125 Q259.6563,247.625 258.9688,246.5625 Q258.2813,245.4844 258.2813,244.2031 L258.2813,243.0469 Q258.2813,241.7188 258.8906,240.5781 Q259.5156,239.4219 260.6094,238.8125 Q261.7031,238.1875 262.9375,238.1875 Q263.6719,238.1875 264.3125,238.3594 Q264.9688,238.5156 265.5156,238.875 Z " fill="#000000"/><text fill="#000000" font-family="sans-serif" font-size="14" lengthAdjust="spacing" textLength="158" x="283.25" y="248.7969">GenerateTeamController</text><line style="stroke:#181818;stroke-width:0.5;" x1="8" x2="684" y1="259" y2="259"/><line style="stroke:#181818;stroke-width:0.5;" x1="8" x2="684" y1="267" y2="267"/><ellipse cx="18" cy="281.8105" fill="#84BE84" rx="3" ry="3" style="stroke:#038048;stroke-width:1.0;"/><text fill="#000000" font-family="sans-serif" font-size="14" lengthAdjust="spacing" textLength="326" x="27" y="286.1074">CollaboratorRepository getCollaboratorRepository()</text><ellipse cx="18" cy="300.4316" fill="#84BE84" rx="3" ry="3" style="stroke:#038048;stroke-width:1.0;"/><text fill="#000000" font-family="sans-serif" font-size="14" lengthAdjust="spacing" textLength="330" x="27" y="304.7285">OrganizationRepository getOrganizationRepository()</text><ellipse cx="18" cy="319.0527" fill="#84BE84" rx="3" ry="3" style="stroke:#038048;stroke-width:1.0;"/><text fill="#000000" font-family="sans-serif" font-size="14" lengthAdjust="spacing" textLength="350" x="27" y="323.3496">AuthenticationRepository getAuthenticationRepository()</text><ellipse cx="18" cy="337.6738" fill="#84BE84" rx="3" ry="3" style="stroke:#038048;stroke-width:1.0;"/><text fill="#000000" font-family="sans-serif" font-size="14" lengthAdjust="spacing" textLength="220" x="27" y="341.9707">SkillRepository getSkillRepository()</text><ellipse cx="18" cy="356.2949" fill="#84BE84" rx="3" ry="3" style="stroke:#038048;stroke-width:1.0;"/><text fill="#000000" font-family="sans-serif" font-size="14" lengthAdjust="spacing" textLength="600" x="27" y="360.5918">List&lt;Collaborator&gt; generateTeam(int maxTeamSize, int minTeamSize, List&lt;Skill&gt; requiredSkills)</text><ellipse cx="18" cy="374.916" fill="#84BE84" rx="3" ry="3" style="stroke:#038048;stroke-width:1.0;"/><text fill="#000000" font-family="sans-serif" font-size="14" lengthAdjust="spacing" textLength="652" x="27" y="379.2129">List&lt;Collaborator&gt; filterCollaboratorsBySkills(List&lt;Collaborator&gt; collaborators, List&lt;Skill&gt; requiredSkills)</text><ellipse cx="18" cy="393.5371" fill="#84BE84" rx="3" ry="3" style="stroke:#038048;stroke-width:1.0;"/><text fill="#000000" font-family="sans-serif" font-size="14" lengthAdjust="spacing" textLength="177" x="27" y="397.834">HRM getHRMFromSession()</text></g><!--class Repositories--><g id="elem_Repositories"><rect codeLine="56" fill="#F1F1F1" height="122.4844" id="Repositories" rx="2.5" ry="2.5" style="stroke:#181818;stroke-width:0.5;" width="360" x="1871" y="255"/><ellipse cx="2007.25" cy="271" fill="#ADD1B2" rx="11" ry="11" style="stroke:#181818;stroke-width:1.0;"/><path d="M2010.0156,266.875 Q2010.1719,266.6563 2010.3594,266.5469 Q2010.5469,266.4375 2010.7656,266.4375 Q2011.1406,266.4375 2011.375,266.7031 Q2011.6094,266.9531 2011.6094,267.5625 L2011.6094,269.0156 Q2011.6094,269.625 2011.375,269.8906 Q2011.1406,270.1563 2010.7656,270.1563 Q2010.4219,270.1563 2010.2188,269.9531 Q2010.0156,269.7656 2009.9063,269.25 Q2009.8594,268.8906 2009.6719,268.7031 Q2009.3438,268.3281 2008.7344,268.1094 Q2008.125,267.8906 2007.5,267.8906 Q2006.7344,267.8906 2006.0938,268.2188 Q2005.4688,268.5469 2004.9688,269.2969 Q2004.4844,270.0469 2004.4844,271.0781 L2004.4844,272.1719 Q2004.4844,273.4063 2005.375,274.2344 Q2006.2656,275.0469 2007.8594,275.0469 Q2008.7969,275.0469 2009.4531,274.7969 Q2009.8438,274.6406 2010.2656,274.2031 Q2010.5313,273.9375 2010.6719,273.8594 Q2010.8281,273.7813 2011.0313,273.7813 Q2011.3594,273.7813 2011.6094,274.0469 Q2011.875,274.2969 2011.875,274.6406 Q2011.875,274.9844 2011.5313,275.3906 Q2011.0313,275.9688 2010.2344,276.2969 Q2009.1563,276.75 2007.8594,276.75 Q2006.3438,276.75 2005.1406,276.125 Q2004.1563,275.625 2003.4688,274.5625 Q2002.7813,273.4844 2002.7813,272.2031 L2002.7813,271.0469 Q2002.7813,269.7188 2003.3906,268.5781 Q2004.0156,267.4219 2005.1094,266.8125 Q2006.2031,266.1875 2007.4375,266.1875 Q2008.1719,266.1875 2008.8125,266.3594 Q2009.4688,266.5156 2010.0156,266.875 Z " fill="#000000"/><text fill="#000000" font-family="sans-serif" font-size="14" lengthAdjust="spacing" textLength="79" x="2027.75" y="276.7969">Repositories</text><line style="stroke:#181818;stroke-width:0.5;" x1="1872" x2="2230" y1="287" y2="287"/><rect fill="none" height="6" style="stroke:#C82930;stroke-width:1.0;" width="6" x="1879" y="298.8105"/><text fill="#000000" font-family="sans-serif" font-size="14" lengthAdjust="spacing" textLength="181" x="1891" y="306.1074">static instance : Repositories</text><line style="stroke:#181818;stroke-width:0.5;" x1="1872" x2="2230" y1="313.6211" y2="313.6211"/><ellipse cx="1882" cy="328.4316" fill="#84BE84" rx="3" ry="3" style="stroke:#038048;stroke-width:1.0;"/><text fill="#000000" font-family="sans-serif" font-size="14" lengthAdjust="spacing" textLength="174" x="1891" y="332.7285">getInstance() : Repositories</text><ellipse cx="1882" cy="347.0527" fill="#84BE84" rx="3" ry="3" style="stroke:#038048;stroke-width:1.0;"/><text fill="#000000" font-family="sans-serif" font-size="14" lengthAdjust="spacing" textLength="334" x="1891" y="351.3496">getCollaboratorRepository() : CollaboratorRepository</text><ellipse cx="1882" cy="365.6738" fill="#84BE84" rx="3" ry="3" style="stroke:#038048;stroke-width:1.0;"/><text fill="#000000" font-family="sans-serif" font-size="14" lengthAdjust="spacing" textLength="228" x="1891" y="369.9707">getSkillRepository() : SkillRepository</text></g><!--class CollaboratorRepository--><g id="elem_CollaboratorRepository"><rect codeLine="63" fill="#F1F1F1" height="85.2422" id="CollaboratorRepository" rx="2.5" ry="2.5" style="stroke:#181818;stroke-width:0.5;" width="326" x="2317" y="273.5"/><ellipse cx="2402.75" cy="289.5" fill="#ADD1B2" rx="11" ry="11" style="stroke:#181818;stroke-width:1.0;"/><path d="M2405.5156,285.375 Q2405.6719,285.1563 2405.8594,285.0469 Q2406.0469,284.9375 2406.2656,284.9375 Q2406.6406,284.9375 2406.875,285.2031 Q2407.1094,285.4531 2407.1094,286.0625 L2407.1094,287.5156 Q2407.1094,288.125 2406.875,288.3906 Q2406.6406,288.6563 2406.2656,288.6563 Q2405.9219,288.6563 2405.7188,288.4531 Q2405.5156,288.2656 2405.4063,287.75 Q2405.3594,287.3906 2405.1719,287.2031 Q2404.8438,286.8281 2404.2344,286.6094 Q2403.625,286.3906 2403,286.3906 Q2402.2344,286.3906 2401.5938,286.7188 Q2400.9688,287.0469 2400.4688,287.7969 Q2399.9844,288.5469 2399.9844,289.5781 L2399.9844,290.6719 Q2399.9844,291.9063 2400.875,292.7344 Q2401.7656,293.5469 2403.3594,293.5469 Q2404.2969,293.5469 2404.9531,293.2969 Q2405.3438,293.1406 2405.7656,292.7031 Q2406.0313,292.4375 2406.1719,292.3594 Q2406.3281,292.2813 2406.5313,292.2813 Q2406.8594,292.2813 2407.1094,292.5469 Q2407.375,292.7969 2407.375,293.1406 Q2407.375,293.4844 2407.0313,293.8906 Q2406.5313,294.4688 2405.7344,294.7969 Q2404.6563,295.25 2403.3594,295.25 Q2401.8438,295.25 2400.6406,294.625 Q2399.6563,294.125 2398.9688,293.0625 Q2398.2813,291.9844 2398.2813,290.7031 L2398.2813,289.5469 Q2398.2813,288.2188 2398.8906,287.0781 Q2399.5156,285.9219 2400.6094,285.3125 Q2401.7031,284.6875 2402.9375,284.6875 Q2403.6719,284.6875 2404.3125,284.8594 Q2404.9688,285.0156 2405.5156,285.375 Z " fill="#000000"/><text fill="#000000" font-family="sans-serif" font-size="14" lengthAdjust="spacing" textLength="146" x="2423.25" y="295.2969">CollaboratorRepository</text><line style="stroke:#181818;stroke-width:0.5;" x1="2318" x2="2642" y1="305.5" y2="305.5"/><line style="stroke:#181818;stroke-width:0.5;" x1="2318" x2="2642" y1="313.5" y2="313.5"/><ellipse cx="2328" cy="328.3105" fill="#84BE84" rx="3" ry="3" style="stroke:#038048;stroke-width:1.0;"/><text fill="#000000" font-family="sans-serif" font-size="14" lengthAdjust="spacing" textLength="168" x="2337" y="332.6074">List&lt;Collaborator&gt; findAll()</text><ellipse cx="2328" cy="346.9316" fill="#84BE84" rx="3" ry="3" style="stroke:#038048;stroke-width:1.0;"/><text fill="#000000" font-family="sans-serif" font-size="14" lengthAdjust="spacing" textLength="300" x="2337" y="351.2285">Team selectCollaborators(List&lt;RequiredSkills&gt;)</text></g><!--class Organization--><g id="elem_Organization"><rect codeLine="68" fill="#F1F1F1" height="141.1055" id="Organization" rx="2.5" ry="2.5" style="stroke:#181818;stroke-width:0.5;" width="308" x="2839" y="245.5"/><ellipse cx="2948.75" cy="261.5" fill="#ADD1B2" rx="11" ry="11" style="stroke:#181818;stroke-width:1.0;"/><path d="M2951.5156,257.375 Q2951.6719,257.1563 2951.8594,257.0469 Q2952.0469,256.9375 2952.2656,256.9375 Q2952.6406,256.9375 2952.875,257.2031 Q2953.1094,257.4531 2953.1094,258.0625 L2953.1094,259.5156 Q2953.1094,260.125 2952.875,260.3906 Q2952.6406,260.6563 2952.2656,260.6563 Q2951.9219,260.6563 2951.7188,260.4531 Q2951.5156,260.2656 2951.4063,259.75 Q2951.3594,259.3906 2951.1719,259.2031 Q2950.8438,258.8281 2950.2344,258.6094 Q2949.625,258.3906 2949,258.3906 Q2948.2344,258.3906 2947.5938,258.7188 Q2946.9688,259.0469 2946.4688,259.7969 Q2945.9844,260.5469 2945.9844,261.5781 L2945.9844,262.6719 Q2945.9844,263.9063 2946.875,264.7344 Q2947.7656,265.5469 2949.3594,265.5469 Q2950.2969,265.5469 2950.9531,265.2969 Q2951.3438,265.1406 2951.7656,264.7031 Q2952.0313,264.4375 2952.1719,264.3594 Q2952.3281,264.2813 2952.5313,264.2813 Q2952.8594,264.2813 2953.1094,264.5469 Q2953.375,264.7969 2953.375,265.1406 Q2953.375,265.4844 2953.0313,265.8906 Q2952.5313,266.4688 2951.7344,266.7969 Q2950.6563,267.25 2949.3594,267.25 Q2947.8438,267.25 2946.6406,266.625 Q2945.6563,266.125 2944.9688,265.0625 Q2944.2813,263.9844 2944.2813,262.7031 L2944.2813,261.5469 Q2944.2813,260.2188 2944.8906,259.0781 Q2945.5156,257.9219 2946.6094,257.3125 Q2947.7031,256.6875 2948.9375,256.6875 Q2949.6719,256.6875 2950.3125,256.8594 Q2950.9688,257.0156 2951.5156,257.375 Z " fill="#000000"/><text fill="#000000" font-family="sans-serif" font-size="14" lengthAdjust="spacing" textLength="80" x="2969.25" y="267.2969">Organization</text><line style="stroke:#181818;stroke-width:0.5;" x1="2840" x2="3146" y1="277.5" y2="277.5"/><rect fill="none" height="6" style="stroke:#C82930;stroke-width:1.0;" width="6" x="2847" y="289.3105"/><text fill="#000000" font-family="sans-serif" font-size="14" lengthAdjust="spacing" textLength="76" x="2859" y="296.6074">String name</text><rect fill="none" height="6" style="stroke:#C82930;stroke-width:1.0;" width="6" x="2847" y="307.9316"/><text fill="#000000" font-family="sans-serif" font-size="14" lengthAdjust="spacing" textLength="109" x="2859" y="315.2285">String vatNumber</text><rect fill="none" height="6" style="stroke:#C82930;stroke-width:1.0;" width="6" x="2847" y="326.5527"/><text fill="#000000" font-family="sans-serif" font-size="14" lengthAdjust="spacing" textLength="202" x="2859" y="333.8496">List&lt;Collaborator&gt; collaborators</text><rect fill="none" height="6" style="stroke:#C82930;stroke-width:1.0;" width="6" x="2847" y="345.1738"/><text fill="#000000" font-family="sans-serif" font-size="14" lengthAdjust="spacing" textLength="97" x="2859" y="352.4707">List&lt;Skill&gt; skills</text><line style="stroke:#181818;stroke-width:0.5;" x1="2840" x2="3146" y1="359.9844" y2="359.9844"/><ellipse cx="2850" cy="374.7949" fill="#84BE84" rx="3" ry="3" style="stroke:#038048;stroke-width:1.0;"/><text fill="#000000" font-family="sans-serif" font-size="14" lengthAdjust="spacing" textLength="282" x="2859" y="379.0918">findCollaboratorByID(String id) : Collaborator</text></g><!--class GenerateTeamUI--><g id="elem_GenerateTeamUI"><rect codeLine="76" fill="#F1F1F1" height="85.2422" id="GenerateTeamUI" rx="2.5" ry="2.5" style="stroke:#181818;stroke-width:0.5;" width="297" x="1538.5" y="273.5"/><ellipse cx="1628.75" cy="289.5" fill="#ADD1B2" rx="11" ry="11" style="stroke:#181818;stroke-width:1.0;"/><path d="M1631.5156,285.375 Q1631.6719,285.1563 1631.8594,285.0469 Q1632.0469,284.9375 1632.2656,284.9375 Q1632.6406,284.9375 1632.875,285.2031 Q1633.1094,285.4531 1633.1094,286.0625 L1633.1094,287.5156 Q1633.1094,288.125 1632.875,288.3906 Q1632.6406,288.6563 1632.2656,288.6563 Q1631.9219,288.6563 1631.7188,288.4531 Q1631.5156,288.2656 1631.4063,287.75 Q1631.3594,287.3906 1631.1719,287.2031 Q1630.8438,286.8281 1630.2344,286.6094 Q1629.625,286.3906 1629,286.3906 Q1628.2344,286.3906 1627.5938,286.7188 Q1626.9688,287.0469 1626.4688,287.7969 Q1625.9844,288.5469 1625.9844,289.5781 L1625.9844,290.6719 Q1625.9844,291.9063 1626.875,292.7344 Q1627.7656,293.5469 1629.3594,293.5469 Q1630.2969,293.5469 1630.9531,293.2969 Q1631.3438,293.1406 1631.7656,292.7031 Q1632.0313,292.4375 1632.1719,292.3594 Q1632.3281,292.2813 1632.5313,292.2813 Q1632.8594,292.2813 1633.1094,292.5469 Q1633.375,292.7969 1633.375,293.1406 Q1633.375,293.4844 1633.0313,293.8906 Q1632.5313,294.4688 1631.7344,294.7969 Q1630.6563,295.25 1629.3594,295.25 Q1627.8438,295.25 1626.6406,294.625 Q1625.6563,294.125 1624.9688,293.0625 Q1624.2813,291.9844 1624.2813,290.7031 L1624.2813,289.5469 Q1624.2813,288.2188 1624.8906,287.0781 Q1625.5156,285.9219 1626.6094,285.3125 Q1627.7031,284.6875 1628.9375,284.6875 Q1629.6719,284.6875 1630.3125,284.8594 Q1630.9688,285.0156 1631.5156,285.375 Z " fill="#000000"/><text fill="#000000" font-family="sans-serif" font-size="14" lengthAdjust="spacing" textLength="108" x="1649.25" y="295.2969">GenerateTeamUI</text><line style="stroke:#181818;stroke-width:0.5;" x1="1539.5" x2="1834.5" y1="305.5" y2="305.5"/><line style="stroke:#181818;stroke-width:0.5;" x1="1539.5" x2="1834.5" y1="313.5" y2="313.5"/><ellipse cx="1549.5" cy="328.3105" fill="#84BE84" rx="3" ry="3" style="stroke:#038048;stroke-width:1.0;"/><text fill="#000000" font-family="sans-serif" font-size="14" lengthAdjust="spacing" textLength="249" x="1558.5" y="332.6074">List&lt;Skill&gt; parseSkills(String inputSkills)</text><ellipse cx="1549.5" cy="346.9316" fill="#84BE84" rx="3" ry="3" style="stroke:#038048;stroke-width:1.0;"/><text fill="#000000" font-family="sans-serif" font-size="14" lengthAdjust="spacing" textLength="271" x="1558.5" y="351.2285">void displayTeam(List&lt;Collaborator&gt; team)</text></g><g id="elem_GMN13"><path d="M1929.5,64 L1929.5,91.291 L2182.5,91.291 L2182.5,74 L2172.5,64 L1929.5,64 " fill="#FEFFDD" style="stroke:#181818;stroke-width:0.5;"/><path d="M2172.5,64 L2172.5,74 L2182.5,74 L2172.5,64 " fill="#FEFFDD" style="stroke:#181818;stroke-width:1.0;"/><text fill="#000000" font-family="sans-serif" font-size="13" lengthAdjust="spacing" textLength="232" x="1935.5" y="83.0283">- HRM inputs team size and skill criteria</text></g><g id="elem_GMN16"><path d="M720,285 L720,312 L685.36,316 L720,320 L720,346.873 A0,0 0 0 0 720,346.873 L1122,346.873 A0,0 0 0 0 1122,346.873 L1122,295 L1112,285 L720,285 A0,0 0 0 0 720,285 " fill="#FEFFDD" style="stroke:#181818;stroke-width:0.5;"/><path d="M1112,285 L1112,295 L1122,295 L1112,285 " fill="#FEFFDD" style="stroke:#181818;stroke-width:0.5;"/><text fill="#000000" font-family="sans-serif" font-size="13" lengthAdjust="spacing" textLength="288" x="726" y="304.0283">- Ensures team meets size and skill requirements</text><text fill="#000000" font-family="sans-serif" font-size="13" lengthAdjust="spacing" textLength="381" x="726" y="321.3193">- Team Size and required Skills are obtained from the HRM's input</text><text fill="#000000" font-family="sans-serif" font-size="13" lengthAdjust="spacing" textLength="180" x="726" y="338.6104">- Updates the Team Repository</text></g><g id="elem_GMN19"><path d="M1157,276.5 L1157,355.6641 A0,0 0 0 0 1157,355.6641 L1503,355.6641 A0,0 0 0 0 1503,355.6641 L1503,320 L1538.2,316 L1503,312 L1503,286.5 L1493,276.5 L1157,276.5 A0,0 0 0 0 1157,276.5 " fill="#FEFFDD" style="stroke:#181818;stroke-width:0.5;"/><path d="M1493,276.5 L1493,286.5 L1503,286.5 L1493,276.5 " fill="#FEFFDD" style="stroke:#181818;stroke-width:0.5;"/><text fill="#000000" font-family="sans-serif" font-size="13" lengthAdjust="spacing" textLength="325" x="1163" y="295.5283">- UI for HRM to input min. and max. team size and skills</text><text fill="#000000" font-family="sans-serif" font-size="13" lengthAdjust="spacing" textLength="266" x="1163" y="312.8193">- Communicates with GenerateTeamController</text><text fill="#000000" font-family="sans-serif" font-size="13" lengthAdjust="spacing" textLength="172" x="1163" y="330.1104">- Creates list of required skills</text><text fill="#000000" font-family="sans-serif" font-size="13" lengthAdjust="spacing" textLength="294" x="1163" y="347.4014">- Checks if team meets size and skill requirements</text></g><g id="elem_GMN22"><path d="M2865.5,578.5 L2865.5,605.791 A0,0 0 0 0 2865.5,605.791 L3120.5,605.791 A0,0 0 0 0 3120.5,605.791 L3120.5,588.5 L3110.5,578.5 L2997,578.5 L2993,386.85 L2989,578.5 L2865.5,578.5 A0,0 0 0 0 2865.5,578.5 " fill="#FEFFDD" style="stroke:#181818;stroke-width:0.5;"/><path d="M3110.5,578.5 L3110.5,588.5 L3120.5,588.5 L3110.5,578.5 " fill="#FEFFDD" style="stroke:#181818;stroke-width:0.5;"/><text fill="#000000" font-family="sans-serif" font-size="13" lengthAdjust="spacing" textLength="234" x="2871.5" y="597.5283">- Manages collaborators, skills, and jobs</text></g><!--class SkillRepository--><g id="elem_SkillRepository"><rect fill="#F1F1F1" height="48" id="SkillRepository" rx="2.5" ry="2.5" style="stroke:#181818;stroke-width:0.5;" width="125" x="2678.5" y="292"/><ellipse cx="2693.5" cy="308" fill="#ADD1B2" rx="11" ry="11" style="stroke:#181818;stroke-width:1.0;"/><path d="M2696.2656,303.875 Q2696.4219,303.6563 2696.6094,303.5469 Q2696.7969,303.4375 2697.0156,303.4375 Q2697.3906,303.4375 2697.625,303.7031 Q2697.8594,303.9531 2697.8594,304.5625 L2697.8594,306.0156 Q2697.8594,306.625 2697.625,306.8906 Q2697.3906,307.1563 2697.0156,307.1563 Q2696.6719,307.1563 2696.4688,306.9531 Q2696.2656,306.7656 2696.1563,306.25 Q2696.1094,305.8906 2695.9219,305.7031 Q2695.5938,305.3281 2694.9844,305.1094 Q2694.375,304.8906 2693.75,304.8906 Q2692.9844,304.8906 2692.3438,305.2188 Q2691.7188,305.5469 2691.2188,306.2969 Q2690.7344,307.0469 2690.7344,308.0781 L2690.7344,309.1719 Q2690.7344,310.4063 2691.625,311.2344 Q2692.5156,312.0469 2694.1094,312.0469 Q2695.0469,312.0469 2695.7031,311.7969 Q2696.0938,311.6406 2696.5156,311.2031 Q2696.7813,310.9375 2696.9219,310.8594 Q2697.0781,310.7813 2697.2813,310.7813 Q2697.6094,310.7813 2697.8594,311.0469 Q2698.125,311.2969 2698.125,311.6406 Q2698.125,311.9844 2697.7813,312.3906 Q2697.2813,312.9688 2696.4844,313.2969 Q2695.4063,313.75 2694.1094,313.75 Q2692.5938,313.75 2691.3906,313.125 Q2690.4063,312.625 2689.7188,311.5625 Q2689.0313,310.4844 2689.0313,309.2031 L2689.0313,308.0469 Q2689.0313,306.7188 2689.6406,305.5781 Q2690.2656,304.4219 2691.3594,303.8125 Q2692.4531,303.1875 2693.6875,303.1875 Q2694.4219,303.1875 2695.0625,303.3594 Q2695.7188,303.5156 2696.2656,303.875 Z " fill="#000000"/><text fill="#000000" font-family="sans-serif" font-size="14" lengthAdjust="spacing" textLength="93" x="2707.5" y="313.7969">SkillRepository</text><line style="stroke:#181818;stroke-width:0.5;" x1="2679.5" x2="2802.5" y1="324" y2="324"/><line style="stroke:#181818;stroke-width:0.5;" x1="2679.5" x2="2802.5" y1="332" y2="332"/></g><!--link HRManager to GMN13--><g id="link_HRManager_GMN13"><path d="M1894.58,77.5 C1899.94,77.5 1903.33,77.5 1903.33,77.5 C1903.33,77.5 1914.98,77.5 1929.18,77.5 " fill="none" id="HRManager-GMN13" style="stroke:#181818;stroke-width:1.0;stroke-dasharray:7.0,7.0;"/></g><!--link HRManager to GenerateTeamController--><g id="link_HRManager_GenerateTeamController"><path codeLine="104" d="M1759.22,87.45 C1516.21,119.56 703,227 703,227 C703,227 702.3463,227.1668 691.1263,229.9268 " fill="none" id="HRManager-to-GenerateTeamController" style="stroke:#181818;stroke-width:1.0;"/><polygon fill="#181818" points="685.3,231.36,694.9949,233.0944,690.1553,230.1657,693.084,225.326,685.3,231.36" style="stroke:#181818;stroke-width:1.0;"/><text fill="#000000" font-family="sans-serif" font-size="13" lengthAdjust="spacing" textLength="28" x="1067" y="193.0283">uses</text></g><!--link GenerateTeamController to Collaborator--><g id="link_GenerateTeamController_Collaborator"><path codeLine="105" d="M685.3,400.64 C696.52,403.4 703,405 703,405 C703,405 1890,484 1890,484 C1890,484 1925.5761,507.0651 1966.4961,533.6051 " fill="none" id="GenerateTeamController-to-Collaborator" style="stroke:#181818;stroke-width:1.0;"/><polygon fill="#181818" points="1971.53,536.87,1966.1557,528.6167,1967.3351,534.1492,1961.8025,535.3286,1971.53,536.87" style="stroke:#181818;stroke-width:1.0;"/><text fill="#000000" font-family="sans-serif" font-size="13" lengthAdjust="spacing" textLength="104" x="1438" y="450.0283">generates team of</text></g><!--reverse link Skill to Collaborator--><g id="link_Skill_Collaborator"><path codeLine="106" d="M1878.06,592 C1907.24,592 1938.55,592 1971.85,592 " fill="none" id="Skill-backto-Collaborator" style="stroke:#181818;stroke-width:1.0;"/><polygon fill="#181818" points="1872.06,592,1881.06,596,1877.06,592,1881.06,588,1872.06,592" style="stroke:#181818;stroke-width:1.0;"/><text fill="#000000" font-family="sans-serif" font-size="13" lengthAdjust="spacing" textLength="63" x="1890.5" y="585.0283">possesses</text></g><!--link Collaborator to Job--><g id="link_Collaborator_Job"><path codeLine="107" d="M2138.16,592 C2171.39,592 2202.61,592 2231.77,592 " fill="none" id="Collaborator-to-Job" style="stroke:#181818;stroke-width:1.0;"/><polygon fill="#181818" points="2237.77,592,2228.77,588,2232.77,592,2228.77,596,2237.77,592" style="stroke:#181818;stroke-width:1.0;"/><text fill="#000000" font-family="sans-serif" font-size="13" lengthAdjust="spacing" textLength="63" x="2156.5" y="585.0283">possesses</text></g><!--link Organization to Collaborator--><g id="link_Organization_Collaborator"><path codeLine="108" d="M2857.06,386.55 C2835.96,397.35 2821,405 2821,405 C2821,405 2221,484 2221,484 C2221,484 2184.8626,507.2885 2143.5326,533.9385 " fill="none" id="Organization-to-Collaborator" style="stroke:#181818;stroke-width:1.0;"/><polygon fill="#181818" points="2138.49,537.19,2148.2216,535.6745,2142.6922,534.4804,2143.8862,528.951,2138.49,537.19" style="stroke:#181818;stroke-width:1.0;"/><text fill="#000000" font-family="sans-serif" font-size="13" lengthAdjust="spacing" textLength="53" x="2593" y="450.0283">manages</text></g><!--reverse link HRManager to Organization--><g id="link_HRManager_Organization"><path codeLine="109" d="M1899.4468,137.7357 C1909.5468,145.9857 1912,148 1912,148 C1912,148 2353,178 2353,178 C2353,178 2821,227 2821,227 C2821,227 2835.96,234.65 2857.06,245.45 " fill="none" id="HRManager-backto-Organization" style="stroke:#181818;stroke-width:1.0;"/><polygon fill="#181818" points="1894.8,133.94,1899.2398,142.7314,1898.6723,137.1031,1904.3007,136.5356,1894.8,133.94" style="stroke:#181818;stroke-width:1.0;"/><text fill="#000000" font-family="sans-serif" font-size="13" lengthAdjust="spacing" textLength="60" x="2532" y="193.0283">belongs to</text></g><!--link Repositories to CollaboratorRepository--><g id="link_Repositories_CollaboratorRepository"><path codeLine="110" d="M2231.07,316 C2259.5,316 2282.76,316 2310.79,316 " fill="none" id="Repositories-to-CollaboratorRepository" style="stroke:#181818;stroke-width:1.0;"/><polygon fill="#181818" points="2316.79,316,2307.79,312,2311.79,316,2307.79,320,2316.79,316" style="stroke:#181818;stroke-width:1.0;"/><text fill="#000000" font-family="sans-serif" font-size="13" lengthAdjust="spacing" textLength="49" x="2249.5" y="309.0283">contains</text></g><!--link Repositories to SkillRepository--><g id="link_Repositories_SkillRepository"><path codeLine="111" d="M2144.69,254.93 C2188.22,226.56 2230.5,199 2230.5,199 C2230.5,199 2281.5,199 2281.5,199 C2281.5,199 2661,227 2661,227 C2661,227 2691.4386,260.8681 2715.1286,287.2181 " fill="none" id="Repositories-to-SkillRepository" style="stroke:#181818;stroke-width:1.0;"/><polygon fill="#181818" points="2719.14,291.68,2716.0974,282.3129,2715.7971,287.9618,2710.1482,287.6615,2719.14,291.68" style="stroke:#181818;stroke-width:1.0;"/><text fill="#000000" font-family="sans-serif" font-size="13" lengthAdjust="spacing" textLength="49" x="2231.5" y="193.0283">contains</text></g><!--link ApplicationSession to ApplicationSession--><g id="link_ApplicationSession_ApplicationSession"><path codeLine="113" d="M488.21,564.93 C508.06,566.65 523,575.67 523,592 C523,608.33 514.0376,616.832 494.1876,618.552 " fill="none" id="ApplicationSession-to-ApplicationSession" style="stroke:#181818;stroke-width:1.0;"/><polygon fill="#181818" points="488.21,619.07,497.5217,622.2781,493.1913,618.6384,496.8311,614.308,488.21,619.07" style="stroke:#181818;stroke-width:1.0;"/><text fill="#000000" font-family="sans-serif" font-size="13" lengthAdjust="spacing" textLength="49" x="529" y="597.5283">instance</text></g><!--link ApplicationSession to UserSession--><g id="link_ApplicationSession_UserSession"><path codeLine="114" d="M391.76,634.61 C372.36,676.59 345.3276,735.0737 327.5676,773.4937 " fill="none" id="ApplicationSession-to-UserSession" style="stroke:#181818;stroke-width:1.0;"/><polygon fill="#181818" points="325.05,778.94,332.4572,772.449,327.148,774.4014,325.1955,769.0922,325.05,778.94" style="stroke:#181818;stroke-width:1.0;"/><text fill="#000000" font-family="sans-serif" font-size="13" lengthAdjust="spacing" textLength="72" x="346" y="745.0283">userSession</text><text fill="#000000" font-family="sans-serif" font-size="13" lengthAdjust="spacing" textLength="7" x="320.3239" y="767.7537">1</text></g><!--link GenerateTeamController to ApplicationSession--><g id="link_GenerateTeamController_ApplicationSession"><path codeLine="115" d="M366.92,405.2 C378.39,453.54 390.6844,505.3722 399.7344,543.5022 " fill="none" id="GenerateTeamController-to-ApplicationSession" style="stroke:#181818;stroke-width:1.0;stroke-dasharray:7.0,7.0;"/><polygon fill="#181818" points="401.12,549.34,402.9335,539.6595,399.9653,544.4751,395.1497,541.507,401.12,549.34" style="stroke:#181818;stroke-width:1.0;"/></g><!--link GenerateTeamController to UserSession--><g id="link_GenerateTeamController_UserSession"><path codeLine="116" d="M330.12,405.39 C322.93,445.45 316,484 316,484 C316,484 312.2193,690.061 310.7093,772.901 " fill="none" id="GenerateTeamController-to-UserSession" style="stroke:#181818;stroke-width:1.0;stroke-dasharray:7.0,7.0;"/><polygon fill="#181818" points="310.6,778.9,314.7634,769.9744,310.6911,773.9008,306.7647,769.8286,310.6,778.9" style="stroke:#181818;stroke-width:1.0;"/></g><!--link GenerateTeamUI to GenerateTeamController--><g id="link_GenerateTeamUI_GenerateTeamController"><path codeLine="117" d="M1626.15,273.39 C1572.74,235.98 1503.5,187.5 1503.5,187.5 C1503.5,187.5 720.5,187.5 720.5,187.5 C720.5,187.5 675.4152,202.9728 611.2652,224.9828 " fill="none" id="GenerateTeamUI-to-GenerateTeamController" style="stroke:#181818;stroke-width:1.0;stroke-dasharray:7.0,7.0;"/><polygon fill="#181818" points="605.59,226.93,615.401,227.7927,610.3194,225.3073,612.8047,220.2257,605.59,226.93" style="stroke:#181818;stroke-width:1.0;"/></g><!--SRC=[bLRRRjim37ttLn1xQOQqmVPg30NQjDiox08qomV8DfDebILFahUbnVvzr2MnxDhTreSc8Gz9yV0YdPbxBXkcMGsraghSQrKZMDrYrcaQLjwp7QxjGI1eB2sJEv42p9vLwYUNEzWoOLADu1BjeK5eb3Yu7zbPfom5C-RAMisBrkAgL7BD7n1UPPdNm5NJ25uooqc1nj17zfW1_St1M1ANi4ExalHTbZXx6LKaMxPQexJHY3I_Zout1lNG5nauyMtDk4Ynx-y-CKbvQt382rZJGIb5oMfCV_zWzdDR5wXJ8QigJM5IKRDNicU8Bc0NRdtFXHW9TG9yKCLpwgKIWXLACwl2YHtIGVA8ZwA2Qxklc1tAMLLpJmoCAdq-0scj2aujiLJIijBcmAMD6fyRb4T5psfr0vKgmRN5KutqL7QkvYwqfsPctF-aFkzG8cMBNv7LxWYQ28Z5clVOkCD66KvV3huvHZM-VURmHU-Ov0- -v_fcuvfeTjNQFJLSRDQ-uPGkclhS-XO3KGH-vCQ-IGz_ITYEWHan1ZNxvRwxCJe7B-2o4tWFtlabZV7tbciCr9h925ikBEfKPguFmMOs0YzJuDy3qeIvVEdZBUsTaN4zaS3HnDwFay_Zs4FU0sLneBkjC06OwWA2ZwkEXa-AGnO3sVXC9ZL-dAPRLbT2n8gxoe51GHktLu70_5sFqCk4jRHL_sTt_QsW7IZMr4zaeDITF3MzFgnkPZ4AhuQqZW_nPXNsrhmNXEuAWx7bZWvbqzgkaSZWX-8LLDmqWXtyD8paOadkMSeogIpTP7otjw2stQBt2Rgcz06Cjm3ZxYGcgv0jb9hJH72M8OcSd-XDuDOx6zzAtlEjD2rjqU2sHgG80-TnI6hQ5u5jtmBh8-WuGw7X332De0hBw5wjO4iZ1BHgN09d9gJWVMmQjz2Drtb_IQV-GnARLV2oWYrTB8uTgu9tjrqM_c2qTnPZR8KabggkM-aM89tY9xVxvqXQQlGuGGLqHpdbd3hSOtbFAMx_bSf1ceMobiWYx-ceUDUX4ynmauNWvzx_DrMa7hjdmWKzWkJ5vTJ5b4DhQ05DQ8_6lMiyFwtus3Lgc_K05wvYP1KU3pazimp5S67wCD_hX7DlY1JLMnKdrE0CTU1a06uRGdR9vr2WK7971rLPRs-FkassOHxU2RJH9-o6LsHYC4NcqRJdC0TMbY7lfqzB8FI8D3_TDACsPFJYzOlqMHdAV7faJXnmiHYBzXnwC-6Kvd8nrNBP7m00]--></g></svg>