<?xml version="1.0" encoding="us-ascii" standalone="no"?><svg xmlns="http://www.w3.org/2000/svg" xmlns:xlink="http://www.w3.org/1999/xlink" contentStyleType="text/css" height="472px" preserveAspectRatio="none" style="width:1532px;height:472px;background:#FFFFFF;" version="1.1" viewBox="0 0 1532 472" width="1532px" zoomAndPan="magnify"><defs/><g><rect fill="#FFFFFF" height="307.2793" style="stroke:#181818;stroke-width:1.0;" width="10" x="469" y="90.5332"/><rect fill="#FFFFFF" height="284.9883" style="stroke:#181818;stroke-width:1.0;" width="10" x="948" y="121.8242"/><rect fill="#FFFFFF" height="80.582" style="stroke:#181818;stroke-width:1.0;" width="10" x="953" y="285.9395"/><line style="stroke:#181818;stroke-width:0.5;stroke-dasharray:5.0,5.0;" x1="473.5" x2="473.5" y1="57.2422" y2="415.8125"/><line style="stroke:#181818;stroke-width:0.5;stroke-dasharray:5.0,5.0;" x1="656.5" x2="656.5" y1="57.2422" y2="415.8125"/><line style="stroke:#181818;stroke-width:0.5;stroke-dasharray:5.0,5.0;" x1="953" x2="953" y1="57.2422" y2="415.8125"/><line style="stroke:#181818;stroke-width:0.5;stroke-dasharray:5.0,5.0;" x1="1499" x2="1499" y1="170.9453" y2="415.8125"/><rect fill="#E3E3E3" height="32.6211" rx="2.5" ry="2.5" style="stroke:#181818;stroke-width:0.5;" width="181" x="383.5" y="23.6211"/><text fill="#000000" font-family="sans-serif" font-size="14" lengthAdjust="spacing" textLength="167" x="390.5" y="45.7285">:TeamGeneratorController</text><rect fill="#E3E3E3" height="32.6211" rx="2.5" ry="2.5" style="stroke:#181818;stroke-width:0.5;" width="181" x="383.5" y="414.8125"/><text fill="#000000" font-family="sans-serif" font-size="14" lengthAdjust="spacing" textLength="167" x="390.5" y="436.9199">:TeamGeneratorController</text><rect fill="#E3E3E3" height="51.2422" rx="2.5" ry="2.5" style="stroke:#181818;stroke-width:0.5;" width="164" x="574.5" y="5"/><text fill="#000000" font-family="sans-serif" font-size="14" lengthAdjust="spacing" textLength="150" x="581.5" y="27.1074">CollaboratorRepository:</text><text fill="#000000" font-family="sans-serif" font-size="14" lengthAdjust="spacing" textLength="143" x="585" y="45.7285">collaboratorRepository</text><rect fill="#E3E3E3" height="51.2422" rx="2.5" ry="2.5" style="stroke:#181818;stroke-width:0.5;" width="164" x="574.5" y="414.8125"/><text fill="#000000" font-family="sans-serif" font-size="14" lengthAdjust="spacing" textLength="150" x="581.5" y="436.9199">CollaboratorRepository:</text><text fill="#000000" font-family="sans-serif" font-size="14" lengthAdjust="spacing" textLength="143" x="585" y="455.541">collaboratorRepository</text><rect fill="#E3E3E3" height="51.2422" rx="2.5" ry="2.5" style="stroke:#181818;stroke-width:0.5;" width="98" x="904" y="5"/><text fill="#000000" font-family="sans-serif" font-size="14" lengthAdjust="spacing" textLength="77" x="914.5" y="27.1074">organization</text><text fill="#000000" font-family="sans-serif" font-size="14" lengthAdjust="spacing" textLength="84" x="911" y="45.7285">:Organization</text><rect fill="#E3E3E3" height="51.2422" rx="2.5" ry="2.5" style="stroke:#181818;stroke-width:0.5;" width="98" x="904" y="414.8125"/><text fill="#000000" font-family="sans-serif" font-size="14" lengthAdjust="spacing" textLength="77" x="914.5" y="436.9199">organization</text><text fill="#000000" font-family="sans-serif" font-size="14" lengthAdjust="spacing" textLength="84" x="911" y="455.541">:Organization</text><rect fill="#E3E3E3" height="51.2422" rx="2.5" ry="2.5" style="stroke:#181818;stroke-width:0.5;" width="54" x="1472" y="414.8125"/><text fill="#000000" font-family="sans-serif" font-size="14" lengthAdjust="spacing" textLength="31" x="1483.5" y="436.9199">team</text><text fill="#000000" font-family="sans-serif" font-size="14" lengthAdjust="spacing" textLength="40" x="1479" y="455.541">:Team</text><rect fill="#FFFFFF" height="307.2793" style="stroke:#181818;stroke-width:1.0;" width="10" x="469" y="90.5332"/><rect fill="#FFFFFF" height="284.9883" style="stroke:#181818;stroke-width:1.0;" width="10" x="948" y="121.8242"/><rect fill="#FFFFFF" height="80.582" style="stroke:#181818;stroke-width:1.0;" width="10" x="953" y="285.9395"/><polygon fill="#181818" points="457,86.5332,467,90.5332,457,94.5332,461,90.5332" style="stroke:#181818;stroke-width:1.0;"/><line style="stroke:#181818;stroke-width:1.0;" x1="0" x2="463" y1="90.5332" y2="90.5332"/><text fill="#000000" font-family="sans-serif" font-size="13" font-weight="bold" lengthAdjust="spacing" textLength="7" x="7" y="85.2705">1</text><text fill="#000000" font-family="sans-serif" font-size="13" lengthAdjust="spacing" textLength="439" x="18" y="85.2705">generateTeamProposal(maxSize, minSize, List&lt;RequiredSkills&gt;, employee)</text><polygon fill="#181818" points="936,117.8242,946,121.8242,936,125.8242,940,121.8242" style="stroke:#181818;stroke-width:1.0;"/><line style="stroke:#181818;stroke-width:1.0;" x1="479" x2="942" y1="121.8242" y2="121.8242"/><text fill="#000000" font-family="sans-serif" font-size="13" font-weight="bold" lengthAdjust="spacing" textLength="7" x="486" y="116.5615">2</text><text fill="#000000" font-family="sans-serif" font-size="13" lengthAdjust="spacing" textLength="439" x="497" y="116.5615">generateTeamProposal(maxSize, minSize, List&lt;RequiredSkills&gt;, employee)</text><polygon fill="#181818" points="1460,149.1152,1470,153.1152,1460,157.1152,1464,153.1152" style="stroke:#181818;stroke-width:1.0;"/><line style="stroke:#181818;stroke-width:1.0;" x1="958" x2="1466" y1="153.1152" y2="153.1152"/><text fill="#000000" font-family="sans-serif" font-size="13" font-weight="bold" lengthAdjust="spacing" textLength="7" x="965" y="147.8525">3</text><text fill="#000000" font-family="sans-serif" font-size="13" lengthAdjust="spacing" textLength="479" x="976" y="147.8525">create(generateTeamProposal(maxSize, minSize, List&lt;RequiredSkills&gt;, employee)</text><rect fill="#E3E3E3" height="51.2422" rx="2.5" ry="2.5" style="stroke:#181818;stroke-width:0.5;" width="54" x="1472" y="129.8242"/><text fill="#000000" font-family="sans-serif" font-size="14" lengthAdjust="spacing" textLength="31" x="1483.5" y="151.9316">team</text><text fill="#000000" font-family="sans-serif" font-size="14" lengthAdjust="spacing" textLength="40" x="1479" y="170.5527">:Team</text><polygon fill="#181818" points="667.5,211.3574,657.5,215.3574,667.5,219.3574,663.5,215.3574" style="stroke:#181818;stroke-width:1.0;"/><line style="stroke:#181818;stroke-width:1.0;" x1="661.5" x2="947" y1="215.3574" y2="215.3574"/><text fill="#000000" font-family="sans-serif" font-size="13" font-weight="bold" lengthAdjust="spacing" textLength="7" x="673.5" y="210.0947">4</text><text fill="#000000" font-family="sans-serif" font-size="13" lengthAdjust="spacing" textLength="243" x="684.5" y="210.0947">selectCollaborators (List&lt;RequiredSkills&gt;)</text><polygon fill="#181818" points="936,242.6484,946,246.6484,936,250.6484,940,246.6484" style="stroke:#181818;stroke-width:1.0;"/><line style="stroke:#181818;stroke-width:1.0;" x1="656.5" x2="942" y1="246.6484" y2="246.6484"/><text fill="#000000" font-family="sans-serif" font-size="13" font-weight="bold" lengthAdjust="spacing" textLength="7" x="663.5" y="241.3857">5</text><text fill="#000000" font-family="sans-serif" font-size="13" lengthAdjust="spacing" textLength="91" x="674.5" y="241.3857">List&lt;Members&gt;</text><line style="stroke:#181818;stroke-width:1.0;" x1="958" x2="1005" y1="272.9395" y2="272.9395"/><line style="stroke:#181818;stroke-width:1.0;" x1="1005" x2="1005" y1="272.9395" y2="285.9395"/><line style="stroke:#181818;stroke-width:1.0;" x1="964" x2="1005" y1="285.9395" y2="285.9395"/><polygon fill="#181818" points="974,281.9395,964,285.9395,974,289.9395,970,285.9395" style="stroke:#181818;stroke-width:1.0;"/><text fill="#000000" font-family="sans-serif" font-size="13" font-weight="bold" lengthAdjust="spacing" textLength="7" x="970" y="267.6768">6</text><text fill="#000000" font-family="sans-serif" font-size="13" lengthAdjust="spacing" textLength="215" x="981" y="267.6768">addMembers (List&lt;Members&gt;, team)</text><line style="stroke:#181818;stroke-width:1.0;" x1="963" x2="1005" y1="322.2305" y2="322.2305"/><line style="stroke:#181818;stroke-width:1.0;" x1="1005" x2="1005" y1="322.2305" y2="335.2305"/><line style="stroke:#181818;stroke-width:1.0;" x1="964" x2="1005" y1="335.2305" y2="335.2305"/><polygon fill="#181818" points="974,331.2305,964,335.2305,974,339.2305,970,335.2305" style="stroke:#181818;stroke-width:1.0;"/><text fill="#000000" font-family="sans-serif" font-size="13" font-weight="bold" lengthAdjust="spacing" textLength="7" x="970" y="316.9678">7</text><text fill="#000000" font-family="sans-serif" font-size="13" lengthAdjust="spacing" textLength="112" x="981" y="316.9678">validateTeam(team)</text><polygon fill="#181818" points="490,362.5215,480,366.5215,490,370.5215,486,366.5215" style="stroke:#181818;stroke-width:1.0;"/><line style="stroke:#181818;stroke-width:1.0;stroke-dasharray:2.0,2.0;" x1="484" x2="947" y1="366.5215" y2="366.5215"/><text fill="#000000" font-family="sans-serif" font-size="13" font-weight="bold" lengthAdjust="spacing" textLength="7" x="496" y="361.2588">8</text><text fill="#000000" font-family="sans-serif" font-size="13" lengthAdjust="spacing" textLength="29" x="507" y="361.2588">team</text><polygon fill="#181818" points="11,393.8125,1,397.8125,11,401.8125,7,397.8125" style="stroke:#181818;stroke-width:1.0;"/><line style="stroke:#181818;stroke-width:1.0;" x1="5" x2="473" y1="397.8125" y2="397.8125"/><text fill="#000000" font-family="sans-serif" font-size="13" font-weight="bold" lengthAdjust="spacing" textLength="7" x="17" y="392.5498">9</text><text fill="#000000" font-family="sans-serif" font-size="13" lengthAdjust="spacing" textLength="29" x="28" y="392.5498">team</text><!--SRC=[jLBDRi8m3BxtAImkWmbUe498KpMXIKommcvSJ6jAH1ftIM30qoz9EzGAk6q-fV7tutorsGjLeSOIIbQSxJIN15OVA3BNJeNP7WjQshCaq9HPL8Li0ymES_uMge0jIaDHX0VBwb1kI4VHqqxa15jck-5Jv0XMPA92PQ4NhmZBAIdIQ5adhAncAKdt00qagtJMXIUkYHiEu9GgDi8Tpl5QPNSRjKhQrM1Te18Nj8BLMiNprcV0pzDfbs3TY0xe9ms0ru_FjyLBv0fQDPg4UMCewjUGnoyqkrbGzaiyBSM5Xb0ALHzcmjXnIby7eIbVxeMKPZ84AYl9Pw91HnipAuvEiawatV4NtjeD_MVEzwrzB9sEBtVftUj4dfzZo3GvSFyVCcZP9MaCXgHRm_O-6EZVqnlSJfsaryW2uvtydfh9m_S5AEPv0soCVcb3y1ioY6xfdV3WJhNrZoX5tcJMVwGO2CsgGHoCkw2S7l-nyQXPqK1xm0ehzWC0]--></g></svg>