<?xml version="1.0" encoding="us-ascii" standalone="no"?><svg xmlns="http://www.w3.org/2000/svg" xmlns:xlink="http://www.w3.org/1999/xlink" contentStyleType="text/css" height="408.6px" preserveAspectRatio="none" style="width:1678px;height:408px;background:#FFFFFF;" version="1.1" viewBox="0 0 1678 408" width="1678.8px" zoomAndPan="magnify"><defs/><g><!--class HumanResourcesManager--><g id="elem_HumanResourcesManager"><rect codeLine="7" fill="#F1F1F1" height="73.4906" id="HumanResourcesManager" rx="1.5" ry="1.5" style="stroke:#181818;stroke-width:0.3;" width="202.8" x="517.5" y="4.2"/><ellipse cx="565.95" cy="13.8" fill="#ADD1B2" rx="6.6" ry="6.6" style="stroke:#181818;stroke-width:0.6;"/><path d="M567.6094,11.325 Q567.7031,11.1938 567.8156,11.1281 Q567.9281,11.0625 568.0594,11.0625 Q568.2844,11.0625 568.425,11.2219 Q568.5656,11.3719 568.5656,11.7375 L568.5656,12.6094 Q568.5656,12.975 568.425,13.1344 Q568.2844,13.2938 568.0594,13.2938 Q567.8531,13.2938 567.7312,13.1719 Q567.6094,13.0594 567.5437,12.75 Q567.5156,12.5344 567.4031,12.4219 Q567.2063,12.1969 566.8406,12.0656 Q566.475,11.9344 566.1,11.9344 Q565.6406,11.9344 565.2563,12.1313 Q564.8813,12.3281 564.5813,12.7781 Q564.2906,13.2281 564.2906,13.8469 L564.2906,14.5031 Q564.2906,15.2437 564.825,15.7406 Q565.3594,16.2281 566.3156,16.2281 Q566.8781,16.2281 567.2719,16.0781 Q567.5063,15.9844 567.7594,15.7219 Q567.9187,15.5625 568.0031,15.5156 Q568.0969,15.4688 568.2188,15.4688 Q568.4156,15.4688 568.5656,15.6281 Q568.725,15.7781 568.725,15.9844 Q568.725,16.1906 568.5188,16.4344 Q568.2188,16.7813 567.7406,16.9781 Q567.0938,17.25 566.3156,17.25 Q565.4063,17.25 564.6844,16.875 Q564.0938,16.575 563.6813,15.9375 Q563.2688,15.2906 563.2688,14.5219 L563.2688,13.8281 Q563.2688,13.0313 563.6344,12.3469 Q564.0094,11.6531 564.6656,11.2875 Q565.3219,10.9125 566.0625,10.9125 Q566.5031,10.9125 566.8875,11.0156 Q567.2813,11.1094 567.6094,11.325 Z " fill="#000000"/><text fill="#000000" font-family="sans-serif" font-size="8.4" lengthAdjust="spacing" textLength="100.8" x="578.25" y="17.2781">HumanResourcesManager</text><line style="stroke:#181818;stroke-width:0.3;" x1="518.1" x2="719.7" y1="23.4" y2="23.4"/><rect fill="none" height="3.6" style="stroke:#C82930;stroke-width:0.6;" width="3.6" x="522.3" y="30.4863"/><text fill="#000000" font-family="sans-serif" font-size="8.4" lengthAdjust="spacing" textLength="45.6" x="529.5" y="34.8645">String name</text><rect fill="none" height="3.6" style="stroke:#C82930;stroke-width:0.6;" width="3.6" x="522.3" y="41.659"/><text fill="#000000" font-family="sans-serif" font-size="8.4" lengthAdjust="spacing" textLength="44.4" x="529.5" y="46.0371">String email</text><rect fill="none" height="3.6" style="stroke:#C82930;stroke-width:0.6;" width="3.6" x="522.3" y="52.8316"/><text fill="#000000" font-family="sans-serif" font-size="8.4" lengthAdjust="spacing" textLength="48.6" x="529.5" y="57.2098">String phone</text><line style="stroke:#181818;stroke-width:0.3;" x1="518.1" x2="719.7" y1="61.718" y2="61.718"/><ellipse cx="524.1" cy="70.6043" fill="#84BE84" rx="1.8" ry="1.8" style="stroke:#038048;stroke-width:0.6;"/><text fill="#000000" font-family="sans-serif" font-size="8.4" lengthAdjust="spacing" textLength="187.2" x="529.5" y="73.1824">generateTeamProposal(maxSize, minSize, skills[])</text></g><!--class Skill--><g id="elem_Skill"><rect codeLine="14" fill="#F1F1F1" height="39.9727" id="Skill" rx="1.5" ry="1.5" style="stroke:#181818;stroke-width:0.3;" width="81.6" x="1411.5" y="152.7"/><ellipse cx="1442.25" cy="162.3" fill="#ADD1B2" rx="6.6" ry="6.6" style="stroke:#181818;stroke-width:0.6;"/><path d="M1443.9094,159.825 Q1444.0031,159.6938 1444.1156,159.6281 Q1444.2281,159.5625 1444.3594,159.5625 Q1444.5844,159.5625 1444.725,159.7219 Q1444.8656,159.8719 1444.8656,160.2375 L1444.8656,161.1094 Q1444.8656,161.475 1444.725,161.6344 Q1444.5844,161.7938 1444.3594,161.7938 Q1444.1531,161.7938 1444.0313,161.6719 Q1443.9094,161.5594 1443.8438,161.25 Q1443.8156,161.0344 1443.7031,160.9219 Q1443.5063,160.6969 1443.1406,160.5656 Q1442.775,160.4344 1442.4,160.4344 Q1441.9406,160.4344 1441.5562,160.6313 Q1441.1812,160.8281 1440.8813,161.2781 Q1440.5906,161.7281 1440.5906,162.3469 L1440.5906,163.0031 Q1440.5906,163.7438 1441.125,164.2406 Q1441.6594,164.7281 1442.6156,164.7281 Q1443.1781,164.7281 1443.5719,164.5781 Q1443.8062,164.4844 1444.0594,164.2219 Q1444.2188,164.0625 1444.3031,164.0156 Q1444.3969,163.9688 1444.5188,163.9688 Q1444.7156,163.9688 1444.8656,164.1281 Q1445.025,164.2781 1445.025,164.4844 Q1445.025,164.6906 1444.8188,164.9344 Q1444.5188,165.2813 1444.0406,165.4781 Q1443.3938,165.75 1442.6156,165.75 Q1441.7063,165.75 1440.9844,165.375 Q1440.3938,165.075 1439.9813,164.4375 Q1439.5688,163.7906 1439.5688,163.0219 L1439.5688,162.3281 Q1439.5688,161.5313 1439.9344,160.8469 Q1440.3094,160.1531 1440.9656,159.7875 Q1441.6219,159.4125 1442.3625,159.4125 Q1442.8031,159.4125 1443.1875,159.5156 Q1443.5813,159.6094 1443.9094,159.825 Z " fill="#000000"/><text fill="#000000" font-family="sans-serif" font-size="8.4" lengthAdjust="spacing" textLength="15" x="1454.55" y="165.7781">Skill</text><line style="stroke:#181818;stroke-width:0.3;" x1="1412.1" x2="1492.5" y1="171.9" y2="171.9"/><rect fill="none" height="3.6" style="stroke:#C82930;stroke-width:0.6;" width="3.6" x="1416.3" y="178.9863"/><text fill="#000000" font-family="sans-serif" font-size="8.4" lengthAdjust="spacing" textLength="66" x="1423.5" y="183.3645">String description</text><line style="stroke:#181818;stroke-width:0.3;" x1="1412.1" x2="1492.5" y1="187.8727" y2="187.8727"/></g><!--class Employee--><g id="elem_Employee"><rect codeLine="18" fill="#F1F1F1" height="73.4906" id="Employee" rx="1.5" ry="1.5" style="stroke:#181818;stroke-width:0.3;" width="121.8" x="1552.8" y="136.2"/><ellipse cx="1592.55" cy="145.8" fill="#ADD1B2" rx="6.6" ry="6.6" style="stroke:#181818;stroke-width:0.6;"/><path d="M1594.2094,143.325 Q1594.3031,143.1938 1594.4156,143.1281 Q1594.5281,143.0625 1594.6594,143.0625 Q1594.8844,143.0625 1595.025,143.2219 Q1595.1656,143.3719 1595.1656,143.7375 L1595.1656,144.6094 Q1595.1656,144.975 1595.025,145.1344 Q1594.8844,145.2938 1594.6594,145.2938 Q1594.4531,145.2938 1594.3313,145.1719 Q1594.2094,145.0594 1594.1438,144.75 Q1594.1156,144.5344 1594.0031,144.4219 Q1593.8062,144.1969 1593.4406,144.0656 Q1593.075,143.9344 1592.7,143.9344 Q1592.2406,143.9344 1591.8563,144.1313 Q1591.4813,144.3281 1591.1812,144.7781 Q1590.8906,145.2281 1590.8906,145.8469 L1590.8906,146.5031 Q1590.8906,147.2438 1591.425,147.7406 Q1591.9594,148.2281 1592.9156,148.2281 Q1593.4781,148.2281 1593.8719,148.0781 Q1594.1063,147.9844 1594.3594,147.7219 Q1594.5188,147.5625 1594.6031,147.5156 Q1594.6969,147.4688 1594.8188,147.4688 Q1595.0156,147.4688 1595.1656,147.6281 Q1595.325,147.7781 1595.325,147.9844 Q1595.325,148.1906 1595.1187,148.4344 Q1594.8188,148.7813 1594.3406,148.9781 Q1593.6938,149.25 1592.9156,149.25 Q1592.0063,149.25 1591.2844,148.875 Q1590.6938,148.575 1590.2813,147.9375 Q1589.8687,147.2906 1589.8687,146.5219 L1589.8687,145.8281 Q1589.8687,145.0313 1590.2344,144.3469 Q1590.6094,143.6531 1591.2656,143.2875 Q1591.9219,142.9125 1592.6625,142.9125 Q1593.1031,142.9125 1593.4875,143.0156 Q1593.8813,143.1094 1594.2094,143.325 Z " fill="#000000"/><text fill="#000000" font-family="sans-serif" font-size="8.4" lengthAdjust="spacing" textLength="37.2" x="1604.85" y="149.2781">Employee</text><line style="stroke:#181818;stroke-width:0.3;" x1="1553.4" x2="1674" y1="155.4" y2="155.4"/><rect fill="none" height="3.6" style="stroke:#C82930;stroke-width:0.6;" width="3.6" x="1557.6" y="162.4863"/><text fill="#000000" font-family="sans-serif" font-size="8.4" lengthAdjust="spacing" textLength="45.6" x="1564.8" y="166.8645">String name</text><rect fill="none" height="3.6" style="stroke:#C82930;stroke-width:0.6;" width="3.6" x="1557.6" y="173.659"/><text fill="#000000" font-family="sans-serif" font-size="8.4" lengthAdjust="spacing" textLength="44.4" x="1564.8" y="178.0371">String email</text><rect fill="none" height="3.6" style="stroke:#C82930;stroke-width:0.6;" width="3.6" x="1557.6" y="184.8316"/><text fill="#000000" font-family="sans-serif" font-size="8.4" lengthAdjust="spacing" textLength="58.2" x="1564.8" y="189.2098">List&lt;Skill&gt; skills</text><line style="stroke:#181818;stroke-width:0.3;" x1="1553.4" x2="1674" y1="193.718" y2="193.718"/><ellipse cx="1559.4" cy="202.6043" fill="#84BE84" rx="1.8" ry="1.8" style="stroke:#038048;stroke-width:0.6;"/><text fill="#000000" font-family="sans-serif" font-size="8.4" lengthAdjust="spacing" textLength="106.2" x="1564.8" y="205.1824">hasSkill(skill: Skill) : boolean</text></g><!--class Team--><g id="elem_Team"><rect codeLine="25" fill="#F1F1F1" height="73.4906" id="Team" rx="1.5" ry="1.5" style="stroke:#181818;stroke-width:0.3;" width="243.6" x="86.1" y="268.2"/><ellipse cx="194.55" cy="277.8" fill="#ADD1B2" rx="6.6" ry="6.6" style="stroke:#181818;stroke-width:0.6;"/><path d="M196.2094,275.325 Q196.3031,275.1937 196.4156,275.1281 Q196.5281,275.0625 196.6594,275.0625 Q196.8844,275.0625 197.025,275.2219 Q197.1656,275.3719 197.1656,275.7375 L197.1656,276.6094 Q197.1656,276.975 197.025,277.1344 Q196.8844,277.2938 196.6594,277.2938 Q196.4531,277.2938 196.3312,277.1719 Q196.2094,277.0594 196.1437,276.75 Q196.1156,276.5344 196.0031,276.4219 Q195.8063,276.1969 195.4406,276.0656 Q195.075,275.9344 194.7,275.9344 Q194.2406,275.9344 193.8563,276.1312 Q193.4813,276.3281 193.1813,276.7781 Q192.8906,277.2281 192.8906,277.8469 L192.8906,278.5031 Q192.8906,279.2438 193.425,279.7406 Q193.9594,280.2281 194.9156,280.2281 Q195.4781,280.2281 195.8719,280.0781 Q196.1063,279.9844 196.3594,279.7219 Q196.5187,279.5625 196.6031,279.5156 Q196.6969,279.4688 196.8188,279.4688 Q197.0156,279.4688 197.1656,279.6281 Q197.325,279.7781 197.325,279.9844 Q197.325,280.1906 197.1188,280.4344 Q196.8188,280.7813 196.3406,280.9781 Q195.6938,281.25 194.9156,281.25 Q194.0063,281.25 193.2844,280.875 Q192.6938,280.575 192.2813,279.9375 Q191.8688,279.2906 191.8688,278.5219 L191.8688,277.8281 Q191.8688,277.0313 192.2344,276.3469 Q192.6094,275.6531 193.2656,275.2875 Q193.9219,274.9125 194.6625,274.9125 Q195.1031,274.9125 195.4875,275.0156 Q195.8813,275.1094 196.2094,275.325 Z " fill="#000000"/><text fill="#000000" font-family="sans-serif" font-size="8.4" lengthAdjust="spacing" textLength="21.6" x="206.85" y="281.2781">Team</text><line style="stroke:#181818;stroke-width:0.3;" x1="86.7" x2="329.1" y1="287.4" y2="287.4"/><rect fill="none" height="3.6" style="stroke:#C82930;stroke-width:0.6;" width="3.6" x="90.9" y="294.4863"/><text fill="#000000" font-family="sans-serif" font-size="8.4" lengthAdjust="spacing" textLength="97.2" x="98.1" y="298.8645">List&lt;Employee&gt; members</text><line style="stroke:#181818;stroke-width:0.3;" x1="86.7" x2="329.1" y1="303.3727" y2="303.3727"/><ellipse cx="92.7" cy="312.259" fill="#84BE84" rx="1.8" ry="1.8" style="stroke:#038048;stroke-width:0.6;"/><text fill="#000000" font-family="sans-serif" font-size="8.4" lengthAdjust="spacing" textLength="167.4" x="98.1" y="314.8371">addMember(employee: Employee) : boolean</text><ellipse cx="92.7" cy="323.4316" fill="#84BE84" rx="1.8" ry="1.8" style="stroke:#038048;stroke-width:0.6;"/><text fill="#000000" font-family="sans-serif" font-size="8.4" lengthAdjust="spacing" textLength="63.6" x="98.1" y="326.0098">isFull() : boolean</text><ellipse cx="92.7" cy="334.6043" fill="#84BE84" rx="1.8" ry="1.8" style="stroke:#038048;stroke-width:0.6;"/><text fill="#000000" font-family="sans-serif" font-size="8.4" lengthAdjust="spacing" textLength="228" x="98.1" y="337.1824">meetsSkillRequirements(requiredSkills: List&lt;Skill&gt;) : boolean</text></g><!--class TeamProposalGenerator--><g id="elem_TeamProposalGenerator"><rect codeLine="32" fill="#F1F1F1" height="95.8359" id="TeamProposalGenerator" rx="1.5" ry="1.5" style="stroke:#181818;stroke-width:0.3;" width="407.4" x="4.2" y="124.8"/><ellipse cx="158.25" cy="134.4" fill="#ADD1B2" rx="6.6" ry="6.6" style="stroke:#181818;stroke-width:0.6;"/><path d="M159.9094,131.925 Q160.0031,131.7938 160.1156,131.7281 Q160.2281,131.6625 160.3594,131.6625 Q160.5844,131.6625 160.725,131.8219 Q160.8656,131.9719 160.8656,132.3375 L160.8656,133.2094 Q160.8656,133.575 160.725,133.7344 Q160.5844,133.8937 160.3594,133.8937 Q160.1531,133.8937 160.0313,133.7719 Q159.9094,133.6594 159.8438,133.35 Q159.8156,133.1344 159.7031,133.0219 Q159.5063,132.7969 159.1406,132.6656 Q158.775,132.5344 158.4,132.5344 Q157.9406,132.5344 157.5563,132.7313 Q157.1813,132.9281 156.8813,133.3781 Q156.5906,133.8281 156.5906,134.4469 L156.5906,135.1031 Q156.5906,135.8438 157.125,136.3406 Q157.6594,136.8281 158.6156,136.8281 Q159.1781,136.8281 159.5719,136.6781 Q159.8063,136.5844 160.0594,136.3219 Q160.2188,136.1625 160.3031,136.1156 Q160.3969,136.0688 160.5187,136.0688 Q160.7156,136.0688 160.8656,136.2281 Q161.025,136.3781 161.025,136.5844 Q161.025,136.7906 160.8188,137.0344 Q160.5187,137.3813 160.0406,137.5781 Q159.3937,137.85 158.6156,137.85 Q157.7062,137.85 156.9844,137.475 Q156.3937,137.175 155.9813,136.5375 Q155.5688,135.8906 155.5688,135.1219 L155.5688,134.4281 Q155.5688,133.6313 155.9344,132.9469 Q156.3094,132.2531 156.9656,131.8875 Q157.6219,131.5125 158.3625,131.5125 Q158.8031,131.5125 159.1875,131.6156 Q159.5812,131.7094 159.9094,131.925 Z " fill="#000000"/><text fill="#000000" font-family="sans-serif" font-size="8.4" lengthAdjust="spacing" textLength="94.2" x="170.55" y="137.8781">TeamProposalGenerator</text><line style="stroke:#181818;stroke-width:0.3;" x1="4.8" x2="411" y1="144" y2="144"/><rect fill="none" height="3.6" style="stroke:#C82930;stroke-width:0.6;" width="3.6" x="9" y="151.0863"/><text fill="#000000" font-family="sans-serif" font-size="8.4" lengthAdjust="spacing" textLength="112.2" x="16.2" y="155.4645">List&lt;Employee&gt; allEmployees</text><rect fill="none" height="3.6" style="stroke:#C82930;stroke-width:0.6;" width="3.6" x="9" y="162.259"/><text fill="#000000" font-family="sans-serif" font-size="8.4" lengthAdjust="spacing" textLength="42" x="16.2" y="166.6371">int maxSize</text><rect fill="none" height="3.6" style="stroke:#C82930;stroke-width:0.6;" width="3.6" x="9" y="173.4316"/><text fill="#000000" font-family="sans-serif" font-size="8.4" lengthAdjust="spacing" textLength="40.2" x="16.2" y="177.8098">int minSize</text><rect fill="none" height="3.6" style="stroke:#C82930;stroke-width:0.6;" width="3.6" x="9" y="184.6043"/><text fill="#000000" font-family="sans-serif" font-size="8.4" lengthAdjust="spacing" textLength="91.2" x="16.2" y="188.9824">List&lt;Skill&gt; requiredSkills</text><line style="stroke:#181818;stroke-width:0.3;" x1="4.8" x2="411" y1="193.4906" y2="193.4906"/><ellipse cx="10.8" cy="202.377" fill="#84BE84" rx="1.8" ry="1.8" style="stroke:#038048;stroke-width:0.6;"/><text fill="#000000" font-family="sans-serif" font-size="8.4" lengthAdjust="spacing" textLength="391.8" x="16.2" y="204.9551">TeamProposalGenerator(repositories: Repositories, maxSize: int, minSize: int, requiredSkills: List&lt;Skill&gt;)</text><ellipse cx="10.8" cy="213.5496" fill="#84BE84" rx="1.8" ry="1.8" style="stroke:#038048;stroke-width:0.6;"/><text fill="#000000" font-family="sans-serif" font-size="8.4" lengthAdjust="spacing" textLength="102.6" x="16.2" y="216.1277">generateProposal() : Team</text></g><!--class Repositories--><g id="elem_Repositories"><rect codeLine="41" fill="#F1F1F1" height="73.4906" id="Repositories" rx="1.5" ry="1.5" style="stroke:#181818;stroke-width:0.3;" width="196.8" x="639.3" y="136.2"/><ellipse cx="711.45" cy="145.8" fill="#ADD1B2" rx="6.6" ry="6.6" style="stroke:#181818;stroke-width:0.6;"/><path d="M713.1094,143.325 Q713.2031,143.1938 713.3156,143.1281 Q713.4281,143.0625 713.5594,143.0625 Q713.7844,143.0625 713.925,143.2219 Q714.0656,143.3719 714.0656,143.7375 L714.0656,144.6094 Q714.0656,144.975 713.925,145.1344 Q713.7844,145.2938 713.5594,145.2938 Q713.3531,145.2938 713.2312,145.1719 Q713.1094,145.0594 713.0437,144.75 Q713.0156,144.5344 712.9031,144.4219 Q712.7063,144.1969 712.3406,144.0656 Q711.975,143.9344 711.6,143.9344 Q711.1406,143.9344 710.7563,144.1313 Q710.3813,144.3281 710.0813,144.7781 Q709.7906,145.2281 709.7906,145.8469 L709.7906,146.5031 Q709.7906,147.2438 710.325,147.7406 Q710.8594,148.2281 711.8156,148.2281 Q712.3781,148.2281 712.7719,148.0781 Q713.0063,147.9844 713.2594,147.7219 Q713.4187,147.5625 713.5031,147.5156 Q713.5969,147.4688 713.7188,147.4688 Q713.9156,147.4688 714.0656,147.6281 Q714.225,147.7781 714.225,147.9844 Q714.225,148.1906 714.0188,148.4344 Q713.7188,148.7813 713.2406,148.9781 Q712.5938,149.25 711.8156,149.25 Q710.9063,149.25 710.1844,148.875 Q709.5938,148.575 709.1813,147.9375 Q708.7688,147.2906 708.7688,146.5219 L708.7688,145.8281 Q708.7688,145.0313 709.1344,144.3469 Q709.5094,143.6531 710.1656,143.2875 Q710.8219,142.9125 711.5625,142.9125 Q712.0031,142.9125 712.3875,143.0156 Q712.7813,143.1094 713.1094,143.325 Z " fill="#000000"/><text fill="#000000" font-family="sans-serif" font-size="8.4" lengthAdjust="spacing" textLength="47.4" x="723.75" y="149.2781">Repositories</text><line style="stroke:#181818;stroke-width:0.3;" x1="639.9" x2="835.5" y1="155.4" y2="155.4"/><rect fill="none" height="3.6" style="stroke:#C82930;stroke-width:0.6;" width="3.6" x="644.1" y="162.4863"/><text fill="#000000" font-family="sans-serif" font-size="8.4" lengthAdjust="spacing" textLength="108.6" x="651.3" y="166.8645">static instance : Repositories</text><line style="stroke:#181818;stroke-width:0.3;" x1="639.9" x2="835.5" y1="171.3727" y2="171.3727"/><ellipse cx="645.9" cy="180.259" fill="#84BE84" rx="1.8" ry="1.8" style="stroke:#038048;stroke-width:0.6;"/><text fill="#000000" font-family="sans-serif" font-size="8.4" lengthAdjust="spacing" textLength="104.4" x="651.3" y="182.8371">getInstance() : Repositories</text><ellipse cx="645.9" cy="191.4316" fill="#84BE84" rx="1.8" ry="1.8" style="stroke:#038048;stroke-width:0.6;"/><text fill="#000000" font-family="sans-serif" font-size="8.4" lengthAdjust="spacing" textLength="181.2" x="651.3" y="194.0098">getEmployeeRepository() : EmployeeRepository</text><ellipse cx="645.9" cy="202.6043" fill="#84BE84" rx="1.8" ry="1.8" style="stroke:#038048;stroke-width:0.6;"/><text fill="#000000" font-family="sans-serif" font-size="8.4" lengthAdjust="spacing" textLength="136.8" x="651.3" y="205.1824">getSkillRepository() : SkillRepository</text></g><!--class EmployeeRepository--><g id="elem_EmployeeRepository"><rect codeLine="48" fill="#F1F1F1" height="51.1453" id="EmployeeRepository" rx="1.5" ry="1.5" style="stroke:#181818;stroke-width:0.3;" width="123.6" x="887.7" y="147.3"/><ellipse cx="908.58" cy="156.9" fill="#ADD1B2" rx="6.6" ry="6.6" style="stroke:#181818;stroke-width:0.6;"/><path d="M910.2394,154.425 Q910.3331,154.2938 910.4456,154.2281 Q910.5581,154.1625 910.6894,154.1625 Q910.9144,154.1625 911.055,154.3219 Q911.1956,154.4719 911.1956,154.8375 L911.1956,155.7094 Q911.1956,156.075 911.055,156.2344 Q910.9144,156.3937 910.6894,156.3937 Q910.4831,156.3937 910.3612,156.2719 Q910.2394,156.1594 910.1737,155.85 Q910.1456,155.6344 910.0331,155.5219 Q909.8363,155.2969 909.4706,155.1656 Q909.105,155.0344 908.73,155.0344 Q908.2706,155.0344 907.8862,155.2313 Q907.5112,155.4281 907.2113,155.8781 Q906.9206,156.3281 906.9206,156.9469 L906.9206,157.6031 Q906.9206,158.3438 907.455,158.8406 Q907.9894,159.3281 908.9456,159.3281 Q909.5081,159.3281 909.9019,159.1781 Q910.1362,159.0844 910.3894,158.8219 Q910.5487,158.6625 910.6331,158.6156 Q910.7269,158.5688 910.8488,158.5688 Q911.0456,158.5688 911.1956,158.7281 Q911.355,158.8781 911.355,159.0844 Q911.355,159.2906 911.1488,159.5344 Q910.8488,159.8813 910.3706,160.0781 Q909.7238,160.35 908.9456,160.35 Q908.0363,160.35 907.3144,159.975 Q906.7238,159.675 906.3113,159.0375 Q905.8988,158.3906 905.8988,157.6219 L905.8988,156.9281 Q905.8988,156.1313 906.2644,155.4469 Q906.6394,154.7531 907.2956,154.3875 Q907.9519,154.0125 908.6925,154.0125 Q909.1331,154.0125 909.5175,154.1156 Q909.9113,154.2094 910.2394,154.425 Z " fill="#000000"/><text fill="#000000" font-family="sans-serif" font-size="8.4" lengthAdjust="spacing" textLength="78" x="919.62" y="160.3781">EmployeeRepository</text><line style="stroke:#181818;stroke-width:0.3;" x1="888.3" x2="1010.7" y1="166.5" y2="166.5"/><line style="stroke:#181818;stroke-width:0.3;" x1="888.3" x2="1010.7" y1="171.3" y2="171.3"/><ellipse cx="894.3" cy="180.1863" fill="#84BE84" rx="1.8" ry="1.8" style="stroke:#038048;stroke-width:0.6;"/><text fill="#000000" font-family="sans-serif" font-size="8.4" lengthAdjust="spacing" textLength="91.2" x="899.7" y="182.7645">List&lt;Employee&gt; findAll()</text><ellipse cx="894.3" cy="191.359" fill="#84BE84" rx="1.8" ry="1.8" style="stroke:#038048;stroke-width:0.6;"/><text fill="#000000" font-family="sans-serif" font-size="8.4" lengthAdjust="spacing" textLength="108" x="899.7" y="193.9371">Employee findByID(String id)</text></g><!--class SkillRepository--><g id="elem_SkillRepository"><rect codeLine="53" fill="#F1F1F1" height="51.1453" id="SkillRepository" rx="1.5" ry="1.5" style="stroke:#181818;stroke-width:0.3;" width="171" x="1032.6" y="147.3"/><ellipse cx="1087.65" cy="156.9" fill="#ADD1B2" rx="6.6" ry="6.6" style="stroke:#181818;stroke-width:0.6;"/><path d="M1089.3094,154.425 Q1089.4031,154.2938 1089.5156,154.2281 Q1089.6281,154.1625 1089.7594,154.1625 Q1089.9844,154.1625 1090.125,154.3219 Q1090.2656,154.4719 1090.2656,154.8375 L1090.2656,155.7094 Q1090.2656,156.075 1090.125,156.2344 Q1089.9844,156.3937 1089.7594,156.3937 Q1089.5531,156.3937 1089.4312,156.2719 Q1089.3094,156.1594 1089.2437,155.85 Q1089.2156,155.6344 1089.1031,155.5219 Q1088.9063,155.2969 1088.5406,155.1656 Q1088.175,155.0344 1087.8,155.0344 Q1087.3406,155.0344 1086.9563,155.2313 Q1086.5813,155.4281 1086.2813,155.8781 Q1085.9906,156.3281 1085.9906,156.9469 L1085.9906,157.6031 Q1085.9906,158.3438 1086.525,158.8406 Q1087.0594,159.3281 1088.0156,159.3281 Q1088.5781,159.3281 1088.9719,159.1781 Q1089.2063,159.0844 1089.4594,158.8219 Q1089.6187,158.6625 1089.7031,158.6156 Q1089.7969,158.5688 1089.9188,158.5688 Q1090.1156,158.5688 1090.2656,158.7281 Q1090.425,158.8781 1090.425,159.0844 Q1090.425,159.2906 1090.2188,159.5344 Q1089.9188,159.8813 1089.4406,160.0781 Q1088.7938,160.35 1088.0156,160.35 Q1087.1063,160.35 1086.3844,159.975 Q1085.7938,159.675 1085.3813,159.0375 Q1084.9688,158.3906 1084.9688,157.6219 L1084.9688,156.9281 Q1084.9688,156.1313 1085.3344,155.4469 Q1085.7094,154.7531 1086.3656,154.3875 Q1087.0219,154.0125 1087.7625,154.0125 Q1088.2031,154.0125 1088.5875,154.1156 Q1088.9813,154.2094 1089.3094,154.425 Z " fill="#000000"/><text fill="#000000" font-family="sans-serif" font-size="8.4" lengthAdjust="spacing" textLength="55.8" x="1099.95" y="160.3781">SkillRepository</text><line style="stroke:#181818;stroke-width:0.3;" x1="1033.2" x2="1203" y1="166.5" y2="166.5"/><line style="stroke:#181818;stroke-width:0.3;" x1="1033.2" x2="1203" y1="171.3" y2="171.3"/><ellipse cx="1039.2" cy="180.1863" fill="#84BE84" rx="1.8" ry="1.8" style="stroke:#038048;stroke-width:0.6;"/><text fill="#000000" font-family="sans-serif" font-size="8.4" lengthAdjust="spacing" textLength="69" x="1044.6" y="182.7645">List&lt;Skill&gt; findAll()</text><ellipse cx="1039.2" cy="191.359" fill="#84BE84" rx="1.8" ry="1.8" style="stroke:#038048;stroke-width:0.6;"/><text fill="#000000" font-family="sans-serif" font-size="8.4" lengthAdjust="spacing" textLength="155.4" x="1044.6" y="193.9371">Skill findByDescription(String description)</text></g><!--class Organization--><g id="elem_Organization"><rect codeLine="58" fill="#F1F1F1" height="95.8359" id="Organization" rx="1.5" ry="1.5" style="stroke:#181818;stroke-width:0.3;" width="165.6" x="1224.9" y="124.8"/><ellipse cx="1281.15" cy="134.4" fill="#ADD1B2" rx="6.6" ry="6.6" style="stroke:#181818;stroke-width:0.6;"/><path d="M1282.8094,131.925 Q1282.9031,131.7938 1283.0156,131.7281 Q1283.1281,131.6625 1283.2594,131.6625 Q1283.4844,131.6625 1283.625,131.8219 Q1283.7656,131.9719 1283.7656,132.3375 L1283.7656,133.2094 Q1283.7656,133.575 1283.625,133.7344 Q1283.4844,133.8937 1283.2594,133.8937 Q1283.0531,133.8937 1282.9312,133.7719 Q1282.8094,133.6594 1282.7437,133.35 Q1282.7156,133.1344 1282.6031,133.0219 Q1282.4063,132.7969 1282.0406,132.6656 Q1281.675,132.5344 1281.3,132.5344 Q1280.8406,132.5344 1280.4563,132.7313 Q1280.0813,132.9281 1279.7813,133.3781 Q1279.4906,133.8281 1279.4906,134.4469 L1279.4906,135.1031 Q1279.4906,135.8438 1280.025,136.3406 Q1280.5594,136.8281 1281.5156,136.8281 Q1282.0781,136.8281 1282.4719,136.6781 Q1282.7063,136.5844 1282.9594,136.3219 Q1283.1187,136.1625 1283.2031,136.1156 Q1283.2969,136.0688 1283.4188,136.0688 Q1283.6156,136.0688 1283.7656,136.2281 Q1283.925,136.3781 1283.925,136.5844 Q1283.925,136.7906 1283.7188,137.0344 Q1283.4188,137.3813 1282.9406,137.5781 Q1282.2938,137.85 1281.5156,137.85 Q1280.6063,137.85 1279.8844,137.475 Q1279.2938,137.175 1278.8813,136.5375 Q1278.4688,135.8906 1278.4688,135.1219 L1278.4688,134.4281 Q1278.4688,133.6313 1278.8344,132.9469 Q1279.2094,132.2531 1279.8656,131.8875 Q1280.5219,131.5125 1281.2625,131.5125 Q1281.7031,131.5125 1282.0875,131.6156 Q1282.4813,131.7094 1282.8094,131.925 Z " fill="#000000"/><text fill="#000000" font-family="sans-serif" font-size="8.4" lengthAdjust="spacing" textLength="48" x="1293.45" y="137.8781">Organization</text><line style="stroke:#181818;stroke-width:0.3;" x1="1225.5" x2="1389.9" y1="144" y2="144"/><rect fill="none" height="3.6" style="stroke:#C82930;stroke-width:0.6;" width="3.6" x="1229.7" y="151.0863"/><text fill="#000000" font-family="sans-serif" font-size="8.4" lengthAdjust="spacing" textLength="45.6" x="1236.9" y="155.4645">String name</text><rect fill="none" height="3.6" style="stroke:#C82930;stroke-width:0.6;" width="3.6" x="1229.7" y="162.259"/><text fill="#000000" font-family="sans-serif" font-size="8.4" lengthAdjust="spacing" textLength="65.4" x="1236.9" y="166.6371">String vatNumber</text><rect fill="none" height="3.6" style="stroke:#C82930;stroke-width:0.6;" width="3.6" x="1229.7" y="173.4316"/><text fill="#000000" font-family="sans-serif" font-size="8.4" lengthAdjust="spacing" textLength="103.2" x="1236.9" y="177.8098">List&lt;Employee&gt; employees</text><line style="stroke:#181818;stroke-width:0.3;" x1="1225.5" x2="1389.9" y1="182.318" y2="182.318"/><ellipse cx="1231.5" cy="191.2043" fill="#84BE84" rx="1.8" ry="1.8" style="stroke:#038048;stroke-width:0.6;"/><text fill="#000000" font-family="sans-serif" font-size="8.4" lengthAdjust="spacing" textLength="136.2" x="1236.9" y="193.7824">addEmployee(employee: Employee)</text><ellipse cx="1231.5" cy="202.377" fill="#84BE84" rx="1.8" ry="1.8" style="stroke:#038048;stroke-width:0.6;"/><text fill="#000000" font-family="sans-serif" font-size="8.4" lengthAdjust="spacing" textLength="150" x="1236.9" y="204.9551">removeEmployee(employee: Employee)</text><ellipse cx="1231.5" cy="213.5496" fill="#84BE84" rx="1.8" ry="1.8" style="stroke:#038048;stroke-width:0.6;"/><text fill="#000000" font-family="sans-serif" font-size="8.4" lengthAdjust="spacing" textLength="150" x="1236.9" y="216.1277">findEmployeeByID(String id) : Employee</text></g><g id="elem_GMN11"><path d="M741.6,32.7 L741.6,38.4 L720.33,40.8 L741.6,43.2 L741.6,49.0746 A0,0 0 0 0 741.6,49.0746 L893.4,49.0746 A0,0 0 0 0 893.4,49.0746 L893.4,38.7 L887.4,32.7 L741.6,32.7 A0,0 0 0 0 741.6,32.7 " fill="#FEFFDD" style="stroke:#181818;stroke-width:0.3;"/><path d="M887.4,32.7 L887.4,38.7 L893.4,38.7 L887.4,32.7 " fill="#FEFFDD" style="stroke:#181818;stroke-width:0.3;"/><text fill="#000000" font-family="sans-serif" font-size="7.8" lengthAdjust="spacing" textLength="139.2" x="745.2" y="44.117">- HRM inputs team size and skill criteria</text></g><g id="elem_GMN14"><path d="M432.6,164.7 L432.6,181.0746 L618,181.0746 L618,170.7 L612,164.7 L432.6,164.7 " fill="#FEFFDD" style="stroke:#181818;stroke-width:0.3;"/><path d="M612,164.7 L612,170.7 L618,170.7 L612,164.7 " fill="#FEFFDD" style="stroke:#181818;stroke-width:0.6;"/><text fill="#000000" font-family="sans-serif" font-size="7.8" lengthAdjust="spacing" textLength="172.8" x="436.2" y="176.117">- Ensures team meets size and skill requirements</text></g><g id="elem_GMN17"><path d="M113.4,378 L113.4,404.7492 A0,0 0 0 0 113.4,404.7492 L302.4,404.7492 A0,0 0 0 0 302.4,404.7492 L302.4,384 L296.4,378 L210.3,378 L207.9,341.412 L205.5,378 L113.4,378 A0,0 0 0 0 113.4,378 " fill="#FEFFDD" style="stroke:#181818;stroke-width:0.3;"/><path d="M296.4,378 L296.4,384 L302.4,384 L296.4,378 " fill="#FEFFDD" style="stroke:#181818;stroke-width:0.3;"/><text fill="#000000" font-family="sans-serif" font-size="7.8" lengthAdjust="spacing" textLength="120.6" x="117" y="389.417">- Maintains a list of team members</text><text fill="#000000" font-family="sans-serif" font-size="7.8" lengthAdjust="spacing" textLength="176.4" x="117" y="399.7916">- Checks if team meets size and skill requirements</text></g><g id="elem_GMN20"><path d="M1263,296.7 L1263,313.0746 A0,0 0 0 0 1263,313.0746 L1352.4,313.0746 A0,0 0 0 0 1352.4,313.0746 L1352.4,302.7 L1346.4,296.7 L1310.1,296.7 L1307.7,220.806 L1305.3,296.7 L1263,296.7 A0,0 0 0 0 1263,296.7 " fill="#FEFFDD" style="stroke:#181818;stroke-width:0.3;"/><path d="M1346.4,296.7 L1346.4,302.7 L1352.4,302.7 L1346.4,296.7 " fill="#FEFFDD" style="stroke:#181818;stroke-width:0.3;"/><text fill="#000000" font-family="sans-serif" font-size="7.8" lengthAdjust="spacing" textLength="76.8" x="1266.6" y="308.117">- Manages employees</text></g><!--link GMN14 to TeamProposalGenerator--><g id="link_GMN14_TeamProposalGenerator"><path d="M432.474,172.8 C424.56,172.8 419.502,172.8 419.502,172.8 C419.502,172.8 416.586,172.8 411.72,172.8 " fill="none" id="GMN14-TeamProposalGenerator" style="stroke:#181818;stroke-width:0.6;stroke-dasharray:7.0,7.0;"/></g><!--link HumanResourcesManager to TeamProposalGenerator--><g id="link_HumanResourcesManager_TeamProposalGenerator"><path codeLine="84" d="M517.302,73.734 C468.99,89.106 413.7044,106.7042 360.4664,123.6482 " fill="none" id="HumanResourcesManager-to-TeamProposalGenerator" style="stroke:#181818;stroke-width:0.6;"/><polygon fill="#181818" points="357.036,124.74,362.9095,125.3893,359.8947,123.8302,361.4538,120.8153,357.036,124.74" style="stroke:#181818;stroke-width:0.6;"/><text fill="#000000" font-family="sans-serif" font-size="7.8" lengthAdjust="spacing" textLength="16.8" x="438.9" y="104.417">uses</text></g><!--link TeamProposalGenerator to Team--><g id="link_TeamProposalGenerator_Team"><path codeLine="85" d="M207.9,220.806 C207.9,236.382 207.9,249.828 207.9,264.432 " fill="none" id="TeamProposalGenerator-to-Team" style="stroke:#181818;stroke-width:0.6;"/><polygon fill="#181818" points="207.9,268.032,210.3,262.632,207.9,265.032,205.5,262.632,207.9,268.032" style="stroke:#181818;stroke-width:0.6;"/><text fill="#000000" font-family="sans-serif" font-size="7.8" lengthAdjust="spacing" textLength="34.2" x="208.5" y="247.817">generates</text></g><!--reverse link Skill to Employee--><g id="link_Skill_Employee"><path codeLine="86" d="M1496.838,172.8 C1514.862,172.8 1532.814,172.8 1552.674,172.8 " fill="none" id="Skill-backto-Employee" style="stroke:#181818;stroke-width:0.6;"/><polygon fill="#181818" points="1493.238,172.8,1498.638,175.2,1496.238,172.8,1498.638,170.4,1493.238,172.8" style="stroke:#181818;stroke-width:0.6;"/><text fill="#000000" font-family="sans-serif" font-size="7.8" lengthAdjust="spacing" textLength="37.8" x="1504.05" y="168.617">possesses</text></g><!--link Organization to Employee--><g id="link_Organization_Employee"><path codeLine="87" d="M1390.56,130.308 C1397.136,126.936 1401.3,124.8 1401.3,124.8 C1401.3,124.8 1455,106.8 1455,106.8 C1455,106.8 1488,106.8 1488,106.8 C1488,106.8 1517.4767,122.2743 1549.5047,139.0923 " fill="none" id="Organization-to-Employee" style="stroke:#181818;stroke-width:0.6;"/><polygon fill="#181818" points="1552.692,140.766,1549.0268,136.1306,1550.0359,139.3713,1546.7953,140.3804,1552.692,140.766" style="stroke:#181818;stroke-width:0.6;"/><text fill="#000000" font-family="sans-serif" font-size="7.8" lengthAdjust="spacing" textLength="31.8" x="1455.6" y="104.417">manages</text></g><!--reverse link HumanResourcesManager to Organization--><g id="link_HumanResourcesManager_Organization"><path codeLine="88" d="M723.7703,75.0484 C730.4183,77.1784 731.1,77.4 731.1,77.4 C731.1,77.4 953.7,95.4 953.7,95.4 C953.7,95.4 1214.1,124.8 1214.1,124.8 C1214.1,124.8 1218.264,126.912 1224.84,130.236 " fill="none" id="HumanResourcesManager-backto-Organization" style="stroke:#181818;stroke-width:0.6;"/><polygon fill="#181818" points="720.342,73.95,724.7522,77.8832,723.1989,74.8654,726.2168,73.3121,720.342,73.95" style="stroke:#181818;stroke-width:0.6;"/><text fill="#000000" font-family="sans-serif" font-size="7.8" lengthAdjust="spacing" textLength="36" x="1053.9" y="104.417">belongs to</text></g><!--link Repositories to EmployeeRepository--><g id="link_Repositories_EmployeeRepository"><path codeLine="89" d="M836.16,172.8 C853.662,172.8 867.834,172.8 883.956,172.8 " fill="none" id="Repositories-to-EmployeeRepository" style="stroke:#181818;stroke-width:0.6;"/><polygon fill="#181818" points="887.556,172.8,882.156,170.4,884.556,172.8,882.156,175.2,887.556,172.8" style="stroke:#181818;stroke-width:0.6;"/><text fill="#000000" font-family="sans-serif" font-size="7.8" lengthAdjust="spacing" textLength="29.4" x="847.2" y="168.617">contains</text></g><!--link Repositories to SkillRepository--><g id="link_Repositories_SkillRepository"><path codeLine="90" d="M836.352,136.806 C878.688,121.362 918.6,106.8 918.6,106.8 C918.6,106.8 949.2,106.8 949.2,106.8 C949.2,106.8 1021.5,124.8 1021.5,124.8 C1021.5,124.8 1040.398,134.1901 1063.462,145.6501 " fill="none" id="Repositories-to-SkillRepository" style="stroke:#181818;stroke-width:0.6;"/><polygon fill="#181818" points="1066.686,147.252,1062.918,142.6998,1063.9994,145.9171,1060.7821,146.9984,1066.686,147.252" style="stroke:#181818;stroke-width:0.6;"/><text fill="#000000" font-family="sans-serif" font-size="7.8" lengthAdjust="spacing" textLength="29.4" x="919.2" y="104.417">contains</text></g><!--link TeamProposalGenerator to Repositories--><g id="link_TeamProposalGenerator_Repositories"><path codeLine="91" d="M411.768,127.116 C418.32,125.646 422.1,124.8 422.1,124.8 C422.1,124.8 507.9,106.8 507.9,106.8 C507.9,106.8 542.7,106.8 542.7,106.8 C542.7,106.8 628.5,124.8 628.5,124.8 C628.5,124.8 636.1364,128.1573 651.0824,134.7273 " fill="none" id="TeamProposalGenerator-to-Repositories" style="stroke:#181818;stroke-width:0.6;"/><polygon fill="#181818" points="654.378,136.176,650.4003,131.8058,651.6316,134.9687,648.4687,136.2,654.378,136.176" style="stroke:#181818;stroke-width:0.6;"/><text fill="#000000" font-family="sans-serif" font-size="7.8" lengthAdjust="spacing" textLength="33.6" x="508.5" y="104.417">accesses</text></g><!--SRC=[fLLBRzGm4BxdL_ZMhTgLE4UeKg65Lc81xN9376QJsQorVWJRAMmH_vsnuoHEDbkGE4IAPyRVDszVs0DNDHYGJ6gbYxtH4fap3MQ3feRY01Lkt54WCrWuK9L83UmUIls3guhjGDXK8xX2TwoHrLeS_I6x69I506jldJDyspXyBBJQy6Tahx8iQDX38q6jqUh656XNeCW9mtvbZ2tPXcuHdmA9wHabS94AwhrMtkAALQZGWCCl2FApqRMs81OIVdhEQoQvQd_8FI7irs-NsU_EZuqNZNbBj8NXjUDQ3NRtiXRwYFYlBdxWrhqEu3UHDZYw1nk4Yo3BM_fBbhEjrW8X8VIXHBA0rJbmmoJABPeM3yfo5OuBZFgyTpM5zRRSlck8UIgMYAvrQetV6svGed9sOTf36JGsJmCwws-N-lTjERIP3m24w0uswBboB5PhEBT5EqdcsAyGmImr1K02JdySoVrrShhko7BFrFT7FBqK-AZP-aRp-V0-3Cb8sM8Eh0F72wAW7rKW6xiKWTrZL0VCEOCkSRtk64nFnTs5MDcHzKHsskM3BdX_DQtWZglorlTIKFQpuSLlZeztYpWEl9nEsZnmBEqOjPtC5l9k6Cd5wPGc99zC1Oe_WnU_FAfFu3usVdBcEXIJzWn3rgdcnYpOqDZe9_ohcG-daqmobLJHnwEqeuNCgxrZUZU_BeFd3-iLDLNTECkSNndMhrbGPRjr6EN8eU6G8OayPaGMk0l0ixCJWE-LRGn6rB0afjWcsHTJ_ArsJikE8G2kWEQBFik0tWuRw2Dujz2MxEqUYuDbVFVVl6ahH7wVDPiKTxWx_nmjwULJovipkordZIMGUMLwbIoxdM6pVbYMlWHaqVPvJg-e9JYFE6hYPUW1ikilvhI-GYGJmwOcg_b0Q5-ZqAgYQkfij9nEu9C9pHazsw5YP-vCHpgvS2OhtSqHNiwWADhG_m00]--></g></svg>