<?xml version="1.0" encoding="us-ascii" standalone="no"?><svg xmlns="http://www.w3.org/2000/svg" xmlns:xlink="http://www.w3.org/1999/xlink" contentStyleType="text/css" height="520px" preserveAspectRatio="none" style="width:846px;height:520px;background:#FFFFFF;" version="1.1" viewBox="0 0 846 520" width="846.4px" zoomAndPan="magnify"><defs/><g><rect fill="#FFFFFF" height="388.6188" style="stroke:#181818;stroke-width:0.8000000000000002;" width="8" x="110.4" y="72.4266"/><rect fill="#FFFFFF" height="59.9297" style="stroke:#181818;stroke-width:0.8000000000000002;" width="8" x="261.6" y="118.4922"/><rect fill="#FFFFFF" height="226.9578" style="stroke:#181818;stroke-width:0.8000000000000002;" width="8" x="368.4" y="203.4547"/><rect fill="#FFFFFF" height="29.0328" style="stroke:#181818;stroke-width:0.8000000000000002;" width="8" x="372.4" y="315.85"/><rect fill="none" height="352.3859" style="stroke:#000000;stroke-width:1.2000000000000002;" width="813.6" x="28.4" y="84.4266"/><rect fill="none" height="135.8281" style="stroke:#000000;stroke-width:1.2000000000000002;" width="503.2" x="330.8" y="250.3516"/><line style="stroke:#181818;stroke-width:0.4000000000000001;stroke-dasharray:5.0,5.0;" x1="114" x2="114" y1="45.7938" y2="475.4453"/><line style="stroke:#181818;stroke-width:0.4000000000000001;stroke-dasharray:5.0,5.0;" x1="265.2" x2="265.2" y1="45.7938" y2="475.4453"/><line style="stroke:#181818;stroke-width:0.4000000000000001;stroke-dasharray:5.0,5.0;" x1="372.4" x2="372.4" y1="45.7938" y2="475.4453"/><line style="stroke:#181818;stroke-width:0.4000000000000001;stroke-dasharray:5.0,5.0;" x1="571.6" x2="571.6" y1="150.3406" y2="475.4453"/><line style="stroke:#181818;stroke-width:0.4000000000000001;stroke-dasharray:5.0,5.0;" x1="670" x2="670" y1="235.3031" y2="475.4453"/><line style="stroke:#181818;stroke-width:0.4000000000000001;stroke-dasharray:5.0,5.0;" x1="777.2" x2="777.2" y1="351.6984" y2="475.4453"/><rect fill="#E3E3E3" height="26.0969" rx="2" ry="2" style="stroke:#181818;stroke-width:0.4000000000000001;" width="156" x="36.4" y="18.8969"/><text fill="#000000" font-family="sans-serif" font-size="11.2" lengthAdjust="spacing" textLength="144.8" x="42" y="36.5828">:AddEntryToDoListController</text><rect fill="#E3E3E3" height="26.0969" rx="2" ry="2" style="stroke:#181818;stroke-width:0.4000000000000001;" width="156" x="36.4" y="474.6453"/><text fill="#000000" font-family="sans-serif" font-size="11.2" lengthAdjust="spacing" textLength="144.8" x="42" y="492.3313">:AddEntryToDoListController</text><rect fill="#E3E3E3" height="40.9938" rx="2" ry="2" style="stroke:#181818;stroke-width:0.4000000000000001;" width="130.4" x="200.4" y="4"/><text fill="#000000" font-family="sans-serif" font-size="11.2" lengthAdjust="spacing" textLength="119.2" x="206" y="21.6859">greenSpaceRepository:</text><text fill="#000000" font-family="sans-serif" font-size="11.2" lengthAdjust="spacing" textLength="118.4" x="206.4" y="36.5828">GreenSpaceRepository</text><rect fill="#E3E3E3" height="40.9938" rx="2" ry="2" style="stroke:#181818;stroke-width:0.4000000000000001;" width="130.4" x="200.4" y="474.6453"/><text fill="#000000" font-family="sans-serif" font-size="11.2" lengthAdjust="spacing" textLength="119.2" x="206" y="492.3313">greenSpaceRepository:</text><text fill="#000000" font-family="sans-serif" font-size="11.2" lengthAdjust="spacing" textLength="118.4" x="206.4" y="507.2281">GreenSpaceRepository</text><rect fill="#E3E3E3" height="26.0969" rx="2" ry="2" style="stroke:#181818;stroke-width:0.4000000000000001;" width="67.2" x="338.8" y="18.8969"/><text fill="#000000" font-family="sans-serif" font-size="11.2" lengthAdjust="spacing" textLength="56" x="344.4" y="36.5828">ListMapper</text><rect fill="#E3E3E3" height="26.0969" rx="2" ry="2" style="stroke:#181818;stroke-width:0.4000000000000001;" width="67.2" x="338.8" y="474.6453"/><text fill="#000000" font-family="sans-serif" font-size="11.2" lengthAdjust="spacing" textLength="56" x="344.4" y="492.3313">ListMapper</text><rect fill="#E3E3E3" height="26.0969" rx="2" ry="2" style="stroke:#181818;stroke-width:0.4000000000000001;" width="78.4" x="532.4" y="474.6453"/><text fill="#000000" font-family="sans-serif" font-size="11.2" lengthAdjust="spacing" textLength="67.2" x="538" y="492.3313">greenSpaces</text><rect fill="#E3E3E3" height="26.0969" rx="2" ry="2" style="stroke:#181818;stroke-width:0.4000000000000001;" width="102.4" x="618.8" y="474.6453"/><text fill="#000000" font-family="sans-serif" font-size="11.2" lengthAdjust="spacing" textLength="91.2" x="624.4" y="492.3313">greenSpacesDTO</text><rect fill="#E3E3E3" height="26.0969" rx="2" ry="2" style="stroke:#181818;stroke-width:0.4000000000000001;" width="96.8" x="729.2" y="474.6453"/><text fill="#000000" font-family="sans-serif" font-size="11.2" lengthAdjust="spacing" textLength="85.6" x="734.8" y="492.3313">greenSpaceDTO</text><rect fill="#FFFFFF" height="388.6188" style="stroke:#181818;stroke-width:0.8000000000000002;" width="8" x="110.4" y="72.4266"/><rect fill="#FFFFFF" height="59.9297" style="stroke:#181818;stroke-width:0.8000000000000002;" width="8" x="261.6" y="118.4922"/><rect fill="#FFFFFF" height="226.9578" style="stroke:#181818;stroke-width:0.8000000000000002;" width="8" x="368.4" y="203.4547"/><rect fill="#FFFFFF" height="29.0328" style="stroke:#181818;stroke-width:0.8000000000000002;" width="8" x="372.4" y="315.85"/><polygon fill="#181818" points="100.8,69.2266,108.8,72.4266,100.8,75.6266,104,72.4266" style="stroke:#181818;stroke-width:0.8000000000000002;"/><line style="stroke:#181818;stroke-width:0.8000000000000002;" x1="0" x2="105.6" y1="72.4266" y2="72.4266"/><text fill="#000000" font-family="sans-serif" font-size="10.4" lengthAdjust="spacing" textLength="95.2" x="5.6" y="68.2164">getGreenSpaceList()</text><path d="M28.4,84.4266 L172.4,84.4266 L172.4,91.8594 L164.4,99.8594 L28.4,99.8594 L28.4,84.4266 " fill="#EEEEEE" style="stroke:#000000;stroke-width:1.2000000000000002;"/><rect fill="none" height="352.3859" style="stroke:#000000;stroke-width:1.2000000000000002;" width="813.6" x="28.4" y="84.4266"/><text fill="#000000" font-family="sans-serif" font-size="10.4" font-weight="bold" lengthAdjust="spacing" textLength="108" x="40.4" y="96.4492">Get Green Space List</text><polygon fill="#181818" points="252,115.2922,260,118.4922,252,121.6922,255.2,118.4922" style="stroke:#181818;stroke-width:0.8000000000000002;"/><line style="stroke:#181818;stroke-width:0.8000000000000002;" x1="118.4" x2="256.8" y1="118.4922" y2="118.4922"/><text fill="#000000" font-family="sans-serif" font-size="10.4" lengthAdjust="spacing" textLength="95.2" x="124" y="114.282">getGreenSpaceList()</text><polygon fill="#181818" points="522.8,140.325,530.8,143.525,522.8,146.725,526,143.525" style="stroke:#181818;stroke-width:0.8000000000000002;"/><line style="stroke:#181818;stroke-width:0.8000000000000002;" x1="269.6" x2="527.6" y1="143.525" y2="143.525"/><text fill="#000000" font-family="sans-serif" font-size="10.4" lengthAdjust="spacing" textLength="35.2" x="275.2" y="139.3148">create()</text><rect fill="#E3E3E3" height="26.0969" rx="2" ry="2" style="stroke:#181818;stroke-width:0.4000000000000001;" width="78.4" x="532.4" y="124.8922"/><text fill="#000000" font-family="sans-serif" font-size="11.2" lengthAdjust="spacing" textLength="67.2" x="538" y="142.5781">greenSpaces</text><polygon fill="#181818" points="127.2,175.2219,119.2,178.4219,127.2,181.6219,124,178.4219" style="stroke:#181818;stroke-width:0.8000000000000002;"/><line style="stroke:#181818;stroke-width:0.8000000000000002;stroke-dasharray:2.0,2.0;" x1="122.4" x2="264.8" y1="178.4219" y2="178.4219"/><text fill="#000000" font-family="sans-serif" font-size="10.4" lengthAdjust="spacing" textLength="60.8" x="132" y="174.2117">greenSpaces</text><polygon fill="#181818" points="358.8,200.2547,366.8,203.4547,358.8,206.6547,362,203.4547" style="stroke:#181818;stroke-width:0.8000000000000002;"/><line style="stroke:#181818;stroke-width:0.8000000000000002;" x1="118.4" x2="363.6" y1="203.4547" y2="203.4547"/><text fill="#000000" font-family="sans-serif" font-size="10.4" lengthAdjust="spacing" textLength="96.8" x="124" y="199.2445">toDTO(greenSpaces)</text><polygon fill="#181818" points="609.2,225.2875,617.2,228.4875,609.2,231.6875,612.4,228.4875" style="stroke:#181818;stroke-width:0.8000000000000002;"/><line style="stroke:#181818;stroke-width:0.8000000000000002;" x1="376.4" x2="614" y1="228.4875" y2="228.4875"/><text fill="#000000" font-family="sans-serif" font-size="10.4" lengthAdjust="spacing" textLength="35.2" x="382" y="224.2773">create()</text><rect fill="#E3E3E3" height="26.0969" rx="2" ry="2" style="stroke:#181818;stroke-width:0.4000000000000001;" width="102.4" x="618.8" y="209.8547"/><text fill="#000000" font-family="sans-serif" font-size="11.2" lengthAdjust="spacing" textLength="91.2" x="624.4" y="227.5406">greenSpacesDTO</text><path d="M330.8,250.3516 L389.2,250.3516 L389.2,257.7844 L381.2,265.7844 L330.8,265.7844 L330.8,250.3516 " fill="#EEEEEE" style="stroke:#000000;stroke-width:1.2000000000000002;"/><rect fill="none" height="135.8281" style="stroke:#000000;stroke-width:1.2000000000000002;" width="503.2" x="330.8" y="250.3516"/><text fill="#000000" font-family="sans-serif" font-size="10.4" font-weight="bold" lengthAdjust="spacing" textLength="22.4" x="342.8" y="262.3742">loop</text><text fill="#000000" font-family="sans-serif" font-size="8.8" font-weight="bold" lengthAdjust="spacing" textLength="168.8" x="401.2" y="261.4477">[for each greenSpace in greenSpaces]</text><polygon fill="#181818" points="562,281.2172,570,284.4172,562,287.6172,565.2,284.4172" style="stroke:#181818;stroke-width:0.8000000000000002;"/><line style="stroke:#181818;stroke-width:0.8000000000000002;" x1="376.4" x2="566.8" y1="284.4172" y2="284.4172"/><text fill="#000000" font-family="sans-serif" font-size="10.4" lengthAdjust="spacing" textLength="23.2" x="382" y="280.207">get(i)</text><line style="stroke:#181818;stroke-width:0.8000000000000002;" x1="376.4" x2="414" y1="305.45" y2="305.45"/><line style="stroke:#181818;stroke-width:0.8000000000000002;" x1="414" x2="414" y1="305.45" y2="315.85"/><line style="stroke:#181818;stroke-width:0.8000000000000002;" x1="381.2" x2="414" y1="315.85" y2="315.85"/><polygon fill="#181818" points="389.2,312.65,381.2,315.85,389.2,319.05,386,315.85" style="stroke:#181818;stroke-width:0.8000000000000002;"/><text fill="#000000" font-family="sans-serif" font-size="10.4" lengthAdjust="spacing" textLength="180" x="386" y="301.2398">greenSpaceDTO = toDTO(greenSpace)</text><polygon fill="#181818" points="719.6,341.6828,727.6,344.8828,719.6,348.0828,722.8,344.8828" style="stroke:#181818;stroke-width:0.8000000000000002;"/><line style="stroke:#181818;stroke-width:0.8000000000000002;stroke-dasharray:2.0,2.0;" x1="376.4" x2="724.4" y1="344.8828" y2="344.8828"/><text fill="#000000" font-family="sans-serif" font-size="10.4" lengthAdjust="spacing" textLength="90.4" x="382" y="340.6727">create(greenSpace)</text><rect fill="#E3E3E3" height="26.0969" rx="2" ry="2" style="stroke:#181818;stroke-width:0.4000000000000001;" width="96.8" x="729.2" y="326.25"/><text fill="#000000" font-family="sans-serif" font-size="11.2" lengthAdjust="spacing" textLength="85.6" x="734.8" y="343.9359">greenSpaceDTO</text><polygon fill="#181818" points="660.4,376.5797,668.4,379.7797,660.4,382.9797,663.6,379.7797" style="stroke:#181818;stroke-width:0.8000000000000002;"/><line style="stroke:#181818;stroke-width:0.8000000000000002;" x1="376.4" x2="665.2" y1="379.7797" y2="379.7797"/><text fill="#000000" font-family="sans-serif" font-size="10.4" lengthAdjust="spacing" textLength="78.4" x="382" y="375.5695">add(greenSpace)</text><polygon fill="#181818" points="127.2,427.2125,119.2,430.4125,127.2,433.6125,124,430.4125" style="stroke:#181818;stroke-width:0.8000000000000002;"/><line style="stroke:#181818;stroke-width:0.8000000000000002;stroke-dasharray:2.0,2.0;" x1="122.4" x2="371.6" y1="430.4125" y2="430.4125"/><text fill="#000000" font-family="sans-serif" font-size="10.4" lengthAdjust="spacing" textLength="109.6" x="132" y="426.2023">getGreenSpaceListDTO</text><polygon fill="#181818" points="8.8,457.8453,0.8,461.0453,8.8,464.2453,5.6,461.0453" style="stroke:#181818;stroke-width:0.8000000000000002;"/><line style="stroke:#181818;stroke-width:0.8000000000000002;stroke-dasharray:2.0,2.0;" x1="4" x2="113.6" y1="461.0453" y2="461.0453"/><text fill="#000000" font-family="sans-serif" font-size="10.4" lengthAdjust="spacing" textLength="92.8" x="13.6" y="456.8352">greenSpaceListDTO</text><!--SRC=[fLFBRi8m4BpdArQS08aVYDfA5LIv9Ae477knuYLO1AzbcrP8V7nj4uMan06fU_9ZTcPdxJK78HNJx0X7abJkDHqHh3vXOjeRnSe3gt1ZppM2nj8oMTLTWDapJZz2Lh1ZjS74XRkmeXIAIGkJz9tp3sdrUKihoeMnIt8xgclK4s06bjjrti-eDABSE65Seo8ZBEbp-YMpWUF0a6tMVGAlKZ2b6eMyYF6R9Zzwlzf-DX2tYg5QaCSaqCJYBLY352gqjzfzRTDPYxe5AwtuPXQl3V4dbQQJWWmjX7G8-U09V9DXE8AcqtPDULgwh-_REGI8I7gXe3UVfr1gT1HEP0JRDCOLT-lpC9nZhwXar71Uf639FS6qmnjnszAwhp6Co8khASVtXA-QIC6EDBY2znrV86JFvRXMUAwfc8t2lCtUruFNEzl_SkrBwRj-IDnvfsSQcWBZ_34hIXxzvvVB9Je1hOtO-FanZUR-yPAqbVZ5osBHijvHTZB322U_]--></g></svg>