<?xml version="1.0" encoding="us-ascii" standalone="no"?><svg xmlns="http://www.w3.org/2000/svg" xmlns:xlink="http://www.w3.org/1999/xlink" contentStyleType="text/css" height="671.6px" preserveAspectRatio="none" style="width:1042px;height:671px;background:#FFFFFF;" version="1.1" viewBox="0 0 1042 671" width="1042px" zoomAndPan="magnify"><defs/><g><!--class ApplicationSession--><g id="elem_ApplicationSession"><rect codeLine="11" fill="#F1F1F1" height="34.0969" id="ApplicationSession" rx="1" ry="1" style="stroke:#181818;stroke-width:0.20000000000000004;" width="60.4" x="830.4" y="182.2"/><ellipse cx="836.4" cy="188.6" fill="#ADD1B2" rx="4.4" ry="4.4" style="stroke:#181818;stroke-width:0.4000000000000001;"/><path d="M837.5063,186.95 Q837.5688,186.8625 837.6438,186.8188 Q837.7188,186.775 837.8063,186.775 Q837.9563,186.775 838.05,186.8813 Q838.1438,186.9813 838.1438,187.225 L838.1438,187.8063 Q838.1438,188.05 838.05,188.1563 Q837.9563,188.2625 837.8063,188.2625 Q837.6688,188.2625 837.5875,188.1813 Q837.5063,188.1063 837.4625,187.9 Q837.4438,187.7563 837.3688,187.6813 Q837.2375,187.5313 836.9938,187.4438 Q836.75,187.3563 836.5,187.3563 Q836.1938,187.3563 835.9375,187.4875 Q835.6875,187.6188 835.4875,187.9188 Q835.2938,188.2188 835.2938,188.6313 L835.2938,189.0688 Q835.2938,189.5625 835.65,189.8938 Q836.0063,190.2188 836.6438,190.2188 Q837.0188,190.2188 837.2813,190.1188 Q837.4375,190.0563 837.6063,189.8813 Q837.7125,189.775 837.7688,189.7438 Q837.8313,189.7125 837.9125,189.7125 Q838.0438,189.7125 838.1438,189.8188 Q838.25,189.9188 838.25,190.0563 Q838.25,190.1938 838.1125,190.3563 Q837.9125,190.5875 837.5938,190.7188 Q837.1625,190.9 836.6438,190.9 Q836.0375,190.9 835.5563,190.65 Q835.1625,190.45 834.8875,190.025 Q834.6125,189.5938 834.6125,189.0813 L834.6125,188.6188 Q834.6125,188.0875 834.8563,187.6313 Q835.1063,187.1688 835.5438,186.925 Q835.9813,186.675 836.475,186.675 Q836.7688,186.675 837.025,186.7438 Q837.2875,186.8063 837.5063,186.95 Z " fill="#000000"/><text fill="#000000" font-family="sans-serif" font-size="5.6" lengthAdjust="spacing" textLength="47.6" x="842" y="190.9188">ApplicationSession</text><line style="stroke:#181818;stroke-width:0.20000000000000004;" x1="830.8" x2="890.4" y1="195" y2="195"/><line style="stroke:#181818;stroke-width:0.20000000000000004;" x1="830.8" x2="890.4" y1="198.2" y2="198.2"/><text fill="#000000" font-family="sans-serif" font-size="5.6" lengthAdjust="spacing" textLength="51.2" x="832.8" y="205.843">+static getInstance()</text><text fill="#000000" font-family="sans-serif" font-size="5.6" lengthAdjust="spacing" textLength="54.4" x="832.8" y="213.2914">+getCurrentSession()</text></g><!--class UserSession--><g id="elem_UserSession"><rect codeLine="17" fill="#F1F1F1" height="26.6484" id="UserSession" rx="1" ry="1" style="stroke:#181818;stroke-width:0.20000000000000004;" width="45.2" x="805.2" y="266.4"/><ellipse cx="811.56" cy="272.8" fill="#ADD1B2" rx="4.4" ry="4.4" style="stroke:#181818;stroke-width:0.4000000000000001;"/><path d="M812.6663,271.15 Q812.7288,271.0625 812.8038,271.0188 Q812.8788,270.975 812.9663,270.975 Q813.1163,270.975 813.21,271.0813 Q813.3038,271.1813 813.3038,271.425 L813.3038,272.0063 Q813.3038,272.25 813.21,272.3563 Q813.1163,272.4625 812.9663,272.4625 Q812.8288,272.4625 812.7475,272.3813 Q812.6663,272.3063 812.6225,272.1 Q812.6038,271.9563 812.5288,271.8813 Q812.3975,271.7313 812.1538,271.6438 Q811.91,271.5563 811.66,271.5563 Q811.3538,271.5563 811.0975,271.6875 Q810.8475,271.8188 810.6475,272.1188 Q810.4538,272.4188 810.4538,272.8313 L810.4538,273.2688 Q810.4538,273.7625 810.81,274.0938 Q811.1663,274.4188 811.8038,274.4188 Q812.1788,274.4188 812.4413,274.3188 Q812.5975,274.2563 812.7663,274.0813 Q812.8725,273.975 812.9288,273.9438 Q812.9913,273.9125 813.0725,273.9125 Q813.2038,273.9125 813.3038,274.0188 Q813.41,274.1188 813.41,274.2563 Q813.41,274.3938 813.2725,274.5563 Q813.0725,274.7875 812.7538,274.9188 Q812.3225,275.1 811.8038,275.1 Q811.1975,275.1 810.7163,274.85 Q810.3225,274.65 810.0475,274.225 Q809.7725,273.7938 809.7725,273.2813 L809.7725,272.8188 Q809.7725,272.2875 810.0163,271.8313 Q810.2663,271.3688 810.7038,271.125 Q811.1413,270.875 811.635,270.875 Q811.9288,270.875 812.185,270.9438 Q812.4475,271.0063 812.6663,271.15 Z " fill="#000000"/><text fill="#000000" font-family="sans-serif" font-size="5.6" lengthAdjust="spacing" textLength="31.6" x="817.24" y="275.1188">UserSession</text><line style="stroke:#181818;stroke-width:0.20000000000000004;" x1="805.6" x2="850" y1="279.2" y2="279.2"/><line style="stroke:#181818;stroke-width:0.20000000000000004;" x1="805.6" x2="850" y1="282.4" y2="282.4"/><text fill="#000000" font-family="sans-serif" font-size="5.6" lengthAdjust="spacing" textLength="40.4" x="807.6" y="290.043">+getUserEmail()</text></g><!--class GreenSpace--><g id="elem_GreenSpace"><rect codeLine="22" fill="#F1F1F1" height="101.1328" id="GreenSpace" rx="1" ry="1" style="stroke:#181818;stroke-width:0.20000000000000004;" width="138.4" x="416.6" y="339.6"/><ellipse cx="468.1" cy="346" fill="#ADD1B2" rx="4.4" ry="4.4" style="stroke:#181818;stroke-width:0.4000000000000001;"/><path d="M469.2063,344.35 Q469.2688,344.2625 469.3438,344.2188 Q469.4188,344.175 469.5063,344.175 Q469.6563,344.175 469.75,344.2813 Q469.8438,344.3813 469.8438,344.625 L469.8438,345.2063 Q469.8438,345.45 469.75,345.5563 Q469.6563,345.6625 469.5063,345.6625 Q469.3688,345.6625 469.2875,345.5813 Q469.2063,345.5063 469.1625,345.3 Q469.1438,345.1563 469.0688,345.0813 Q468.9375,344.9313 468.6938,344.8438 Q468.45,344.7563 468.2,344.7563 Q467.8938,344.7563 467.6375,344.8875 Q467.3875,345.0188 467.1875,345.3188 Q466.9938,345.6188 466.9938,346.0313 L466.9938,346.4688 Q466.9938,346.9625 467.35,347.2938 Q467.7063,347.6188 468.3438,347.6188 Q468.7188,347.6188 468.9813,347.5188 Q469.1375,347.4563 469.3063,347.2813 Q469.4125,347.175 469.4688,347.1438 Q469.5313,347.1125 469.6125,347.1125 Q469.7438,347.1125 469.8438,347.2188 Q469.95,347.3188 469.95,347.4563 Q469.95,347.5938 469.8125,347.7563 Q469.6125,347.9875 469.2938,348.1188 Q468.8625,348.3 468.3438,348.3 Q467.7375,348.3 467.2563,348.05 Q466.8625,347.85 466.5875,347.425 Q466.3125,346.9938 466.3125,346.4813 L466.3125,346.0188 Q466.3125,345.4875 466.5563,345.0313 Q466.8063,344.5688 467.2438,344.325 Q467.6813,344.075 468.175,344.075 Q468.4688,344.075 468.725,344.1438 Q468.9875,344.2063 469.2063,344.35 Z " fill="#000000"/><text fill="#000000" font-family="sans-serif" font-size="5.6" lengthAdjust="spacing" textLength="32" x="476.3" y="348.3188">GreenSpace</text><line style="stroke:#181818;stroke-width:0.20000000000000004;" x1="417" x2="554.6" y1="352.4" y2="352.4"/><text fill="#000000" font-family="sans-serif" font-size="5.6" lengthAdjust="spacing" textLength="34" x="419" y="360.043">-name: String</text><text fill="#000000" font-family="sans-serif" font-size="5.6" lengthAdjust="spacing" textLength="30.8" x="419" y="367.4914">-type: String</text><text fill="#000000" font-family="sans-serif" font-size="5.6" lengthAdjust="spacing" textLength="34" x="419" y="374.9398">-area: double</text><line style="stroke:#181818;stroke-width:0.20000000000000004;" x1="417" x2="554.6" y1="377.9453" y2="377.9453"/><text fill="#000000" font-family="sans-serif" font-size="5.6" lengthAdjust="spacing" textLength="133.6" x="419" y="385.5883">+GreenSpace(String name, String type, double area)</text><text fill="#000000" font-family="sans-serif" font-size="5.6" lengthAdjust="spacing" textLength="115.6" x="419" y="393.0367">+void validateGreenSpaceName(String name)</text><text fill="#000000" font-family="sans-serif" font-size="5.6" lengthAdjust="spacing" textLength="110.8" x="419" y="400.4852">+void validateGreenSpaceType(String type)</text><text fill="#000000" font-family="sans-serif" font-size="5.6" lengthAdjust="spacing" textLength="113.2" x="419" y="407.9336">+void validateGreenSpaceArea(double area)</text><text fill="#000000" font-family="sans-serif" font-size="5.6" lengthAdjust="spacing" textLength="67.2" x="419" y="415.382">+boolean equals(Object o)</text><text fill="#000000" font-family="sans-serif" font-size="5.6" lengthAdjust="spacing" textLength="40.8" x="419" y="422.8305">+int hashCode()</text><text fill="#000000" font-family="sans-serif" font-size="5.6" lengthAdjust="spacing" textLength="54.4" x="419" y="430.2789">+GreenSpace clone()</text><text fill="#000000" font-family="sans-serif" font-size="5.6" lengthAdjust="spacing" textLength="84" x="419" y="437.7273">+boolean isOfName(String name)</text></g><!--class Entry--><g id="elem_Entry"><rect codeLine="36" fill="#F1F1F1" height="93.6844" id="Entry" rx="1" ry="1" style="stroke:#181818;stroke-width:0.20000000000000004;" width="189.2" x="351.6" y="472.4"/><ellipse cx="437.9" cy="478.8" fill="#ADD1B2" rx="4.4" ry="4.4" style="stroke:#181818;stroke-width:0.4000000000000001;"/><path d="M439.0063,477.15 Q439.0688,477.0625 439.1438,477.0188 Q439.2188,476.975 439.3063,476.975 Q439.4563,476.975 439.55,477.0813 Q439.6438,477.1813 439.6438,477.425 L439.6438,478.0063 Q439.6438,478.25 439.55,478.3563 Q439.4563,478.4625 439.3063,478.4625 Q439.1688,478.4625 439.0875,478.3813 Q439.0063,478.3063 438.9625,478.1 Q438.9438,477.9563 438.8688,477.8813 Q438.7375,477.7313 438.4938,477.6438 Q438.25,477.5563 438,477.5563 Q437.6938,477.5563 437.4375,477.6875 Q437.1875,477.8188 436.9875,478.1188 Q436.7938,478.4188 436.7938,478.8313 L436.7938,479.2688 Q436.7938,479.7625 437.15,480.0938 Q437.5063,480.4188 438.1438,480.4188 Q438.5188,480.4188 438.7813,480.3188 Q438.9375,480.2563 439.1063,480.0813 Q439.2125,479.975 439.2688,479.9438 Q439.3313,479.9125 439.4125,479.9125 Q439.5438,479.9125 439.6438,480.0188 Q439.75,480.1188 439.75,480.2563 Q439.75,480.3938 439.6125,480.5563 Q439.4125,480.7875 439.0938,480.9188 Q438.6625,481.1 438.1438,481.1 Q437.5375,481.1 437.0563,480.85 Q436.6625,480.65 436.3875,480.225 Q436.1125,479.7938 436.1125,479.2813 L436.1125,478.8188 Q436.1125,478.2875 436.3563,477.8313 Q436.6063,477.3688 437.0438,477.125 Q437.4813,476.875 437.975,476.875 Q438.2688,476.875 438.525,476.9438 Q438.7875,477.0063 439.0063,477.15 Z " fill="#000000"/><text fill="#000000" font-family="sans-serif" font-size="5.6" lengthAdjust="spacing" textLength="13.2" x="446.1" y="481.1188">Entry</text><line style="stroke:#181818;stroke-width:0.20000000000000004;" x1="352" x2="540.4" y1="485.2" y2="485.2"/><text fill="#000000" font-family="sans-serif" font-size="5.6" lengthAdjust="spacing" textLength="28.8" x="354" y="492.843">-title: String</text><text fill="#000000" font-family="sans-serif" font-size="5.6" lengthAdjust="spacing" textLength="58.8" x="354" y="500.2914">-taskDescription: String</text><text fill="#000000" font-family="sans-serif" font-size="5.6" lengthAdjust="spacing" textLength="40.4" x="354" y="507.7398">-urgency: String</text><text fill="#000000" font-family="sans-serif" font-size="5.6" lengthAdjust="spacing" textLength="40.8" x="354" y="515.1883">-duration: String</text><text fill="#000000" font-family="sans-serif" font-size="5.6" lengthAdjust="spacing" textLength="96.4" x="354" y="522.6367">-associatedGreenSpace: GreenSpace</text><line style="stroke:#181818;stroke-width:0.20000000000000004;" x1="352" x2="540.4" y1="525.6422" y2="525.6422"/><text fill="#000000" font-family="sans-serif" font-size="5.6" lengthAdjust="spacing" textLength="184.4" x="354" y="533.2852">+Entry(String title, String taskDescription, String urgency, String duration)</text><text fill="#000000" font-family="sans-serif" font-size="5.6" lengthAdjust="spacing" textLength="135.2" x="354" y="540.7336">+boolean addGreenSpace(GreenSpace greenSpace)</text><text fill="#000000" font-family="sans-serif" font-size="5.6" lengthAdjust="spacing" textLength="67.2" x="354" y="548.182">+boolean equals(Object o)</text><text fill="#000000" font-family="sans-serif" font-size="5.6" lengthAdjust="spacing" textLength="40.8" x="354" y="555.6305">+int hashCode()</text><text fill="#000000" font-family="sans-serif" font-size="5.6" lengthAdjust="spacing" textLength="35.6" x="354" y="563.0789">+Entry clone()</text></g><!--class ToDoList--><g id="elem_ToDoList"><rect codeLine="49" fill="#F1F1F1" height="71.3391" id="ToDoList" rx="1" ry="1" style="stroke:#181818;stroke-width:0.20000000000000004;" width="109.6" x="391.4" y="597.6"/><ellipse cx="433.1" cy="604" fill="#ADD1B2" rx="4.4" ry="4.4" style="stroke:#181818;stroke-width:0.4000000000000001;"/><path d="M434.2063,602.35 Q434.2688,602.2625 434.3438,602.2188 Q434.4188,602.175 434.5063,602.175 Q434.6563,602.175 434.75,602.2813 Q434.8438,602.3813 434.8438,602.625 L434.8438,603.2063 Q434.8438,603.45 434.75,603.5563 Q434.6563,603.6625 434.5063,603.6625 Q434.3688,603.6625 434.2875,603.5813 Q434.2063,603.5063 434.1625,603.3 Q434.1438,603.1563 434.0688,603.0813 Q433.9375,602.9313 433.6938,602.8438 Q433.45,602.7563 433.2,602.7563 Q432.8938,602.7563 432.6375,602.8875 Q432.3875,603.0188 432.1875,603.3188 Q431.9938,603.6188 431.9938,604.0313 L431.9938,604.4688 Q431.9938,604.9625 432.35,605.2938 Q432.7063,605.6188 433.3438,605.6188 Q433.7188,605.6188 433.9813,605.5188 Q434.1375,605.4563 434.3063,605.2813 Q434.4125,605.175 434.4688,605.1438 Q434.5313,605.1125 434.6125,605.1125 Q434.7438,605.1125 434.8438,605.2188 Q434.95,605.3188 434.95,605.4563 Q434.95,605.5938 434.8125,605.7563 Q434.6125,605.9875 434.2938,606.1188 Q433.8625,606.3 433.3438,606.3 Q432.7375,606.3 432.2563,606.05 Q431.8625,605.85 431.5875,605.425 Q431.3125,604.9938 431.3125,604.4813 L431.3125,604.0188 Q431.3125,603.4875 431.5563,603.0313 Q431.8063,602.5688 432.2438,602.325 Q432.6813,602.075 433.175,602.075 Q433.4688,602.075 433.725,602.1438 Q433.9875,602.2063 434.2063,602.35 Z " fill="#000000"/><text fill="#000000" font-family="sans-serif" font-size="5.6" lengthAdjust="spacing" textLength="22.8" x="441.3" y="606.3188">ToDoList</text><line style="stroke:#181818;stroke-width:0.20000000000000004;" x1="391.8" x2="500.6" y1="610.4" y2="610.4"/><text fill="#000000" font-family="sans-serif" font-size="5.6" lengthAdjust="spacing" textLength="50.8" x="393.8" y="618.043">-entries: List&lt;Entry&gt;</text><text fill="#000000" font-family="sans-serif" font-size="5.6" lengthAdjust="spacing" textLength="28" x="393.8" y="625.4914">-gsm: GSM</text><line style="stroke:#181818;stroke-width:0.20000000000000004;" x1="391.8" x2="500.6" y1="628.4969" y2="628.4969"/><text fill="#000000" font-family="sans-serif" font-size="5.6" lengthAdjust="spacing" textLength="104.8" x="393.8" y="636.1398">+ToDoList(List&lt;Entry&gt; entries, GSM gsm)</text><text fill="#000000" font-family="sans-serif" font-size="5.6" lengthAdjust="spacing" textLength="79.6" x="393.8" y="643.5883">+boolean addEntry(Entry entry)</text><text fill="#000000" font-family="sans-serif" font-size="5.6" lengthAdjust="spacing" textLength="67.2" x="393.8" y="651.0367">+boolean equals(Object o)</text><text fill="#000000" font-family="sans-serif" font-size="5.6" lengthAdjust="spacing" textLength="40.8" x="393.8" y="658.4852">+int hashCode()</text><text fill="#000000" font-family="sans-serif" font-size="5.6" lengthAdjust="spacing" textLength="35.6" x="393.8" y="665.9336">+Entry clone()</text></g><!--class GreenSpaceRepository--><g id="elem_GreenSpaceRepository"><rect codeLine="59" fill="#F1F1F1" height="56.4422" id="GreenSpaceRepository" rx="1" ry="1" style="stroke:#181818;stroke-width:0.20000000000000004;" width="246.4" x="412.2" y="251.6"/><ellipse cx="504.1" cy="258" fill="#ADD1B2" rx="4.4" ry="4.4" style="stroke:#181818;stroke-width:0.4000000000000001;"/><path d="M505.2063,256.35 Q505.2688,256.2625 505.3438,256.2188 Q505.4188,256.175 505.5063,256.175 Q505.6563,256.175 505.75,256.2813 Q505.8438,256.3813 505.8438,256.625 L505.8438,257.2063 Q505.8438,257.45 505.75,257.5563 Q505.6563,257.6625 505.5063,257.6625 Q505.3688,257.6625 505.2875,257.5813 Q505.2063,257.5063 505.1625,257.3 Q505.1438,257.1563 505.0688,257.0813 Q504.9375,256.9313 504.6938,256.8438 Q504.45,256.7563 504.2,256.7563 Q503.8938,256.7563 503.6375,256.8875 Q503.3875,257.0188 503.1875,257.3188 Q502.9938,257.6188 502.9938,258.0313 L502.9938,258.4688 Q502.9938,258.9625 503.35,259.2938 Q503.7063,259.6188 504.3438,259.6188 Q504.7188,259.6188 504.9813,259.5188 Q505.1375,259.4563 505.3063,259.2813 Q505.4125,259.175 505.4688,259.1438 Q505.5313,259.1125 505.6125,259.1125 Q505.7438,259.1125 505.8438,259.2188 Q505.95,259.3188 505.95,259.4563 Q505.95,259.5938 505.8125,259.7563 Q505.6125,259.9875 505.2938,260.1188 Q504.8625,260.3 504.3438,260.3 Q503.7375,260.3 503.2563,260.05 Q502.8625,259.85 502.5875,259.425 Q502.3125,258.9938 502.3125,258.4813 L502.3125,258.0188 Q502.3125,257.4875 502.5563,257.0313 Q502.8063,256.5688 503.2438,256.325 Q503.6813,256.075 504.175,256.075 Q504.4688,256.075 504.725,256.1438 Q504.9875,256.2063 505.2063,256.35 Z " fill="#000000"/><text fill="#000000" font-family="sans-serif" font-size="5.6" lengthAdjust="spacing" textLength="59.2" x="512.3" y="260.3188">GreenSpaceRepository</text><line style="stroke:#181818;stroke-width:0.20000000000000004;" x1="412.6" x2="658.2" y1="264.4" y2="264.4"/><text fill="#000000" font-family="sans-serif" font-size="5.6" lengthAdjust="spacing" textLength="84.4" x="414.6" y="272.043">-List&lt;GreenSpace&gt; greenSpaces</text><line style="stroke:#181818;stroke-width:0.20000000000000004;" x1="412.6" x2="658.2" y1="275.0484" y2="275.0484"/><text fill="#000000" font-family="sans-serif" font-size="5.6" lengthAdjust="spacing" textLength="241.6" x="414.6" y="282.6914">+Optional&lt;GreenSpace&gt; registerGreenSpace(String name, String type, double area, GSM gsm)</text><text fill="#000000" font-family="sans-serif" font-size="5.6" lengthAdjust="spacing" textLength="135.2" x="414.6" y="290.1398">+boolean addGreenSpace(GreenSpace greenSpace)</text><text fill="#000000" font-family="sans-serif" font-size="5.6" lengthAdjust="spacing" textLength="145.2" x="414.6" y="297.5883">+boolean validateGreenSpace(GreenSpace greenSpace)</text><text fill="#000000" font-family="sans-serif" font-size="5.6" lengthAdjust="spacing" textLength="104.8" x="414.6" y="305.0367">+List&lt;GreenSpace&gt; getGreenSpaceList()</text></g><!--class ToDoListRepository--><g id="elem_ToDoListRepository"><rect codeLine="67" fill="#F1F1F1" height="56.4422" id="ToDoListRepository" rx="1" ry="1" style="stroke:#181818;stroke-width:0.20000000000000004;" width="111.6" x="580" y="605"/><ellipse cx="609.1" cy="611.4" fill="#ADD1B2" rx="4.4" ry="4.4" style="stroke:#181818;stroke-width:0.4000000000000001;"/><path d="M610.2063,609.75 Q610.2688,609.6625 610.3438,609.6188 Q610.4188,609.575 610.5063,609.575 Q610.6563,609.575 610.75,609.6813 Q610.8438,609.7813 610.8438,610.025 L610.8438,610.6063 Q610.8438,610.85 610.75,610.9563 Q610.6563,611.0625 610.5063,611.0625 Q610.3688,611.0625 610.2875,610.9813 Q610.2063,610.9063 610.1625,610.7 Q610.1438,610.5563 610.0688,610.4813 Q609.9375,610.3313 609.6938,610.2438 Q609.45,610.1563 609.2,610.1563 Q608.8938,610.1563 608.6375,610.2875 Q608.3875,610.4188 608.1875,610.7188 Q607.9938,611.0188 607.9938,611.4313 L607.9938,611.8688 Q607.9938,612.3625 608.35,612.6938 Q608.7063,613.0188 609.3438,613.0188 Q609.7188,613.0188 609.9813,612.9188 Q610.1375,612.8563 610.3063,612.6813 Q610.4125,612.575 610.4688,612.5438 Q610.5313,612.5125 610.6125,612.5125 Q610.7438,612.5125 610.8438,612.6188 Q610.95,612.7188 610.95,612.8563 Q610.95,612.9938 610.8125,613.1563 Q610.6125,613.3875 610.2938,613.5188 Q609.8625,613.7 609.3438,613.7 Q608.7375,613.7 608.2563,613.45 Q607.8625,613.25 607.5875,612.825 Q607.3125,612.3938 607.3125,611.8813 L607.3125,611.4188 Q607.3125,610.8875 607.5563,610.4313 Q607.8063,609.9688 608.2438,609.725 Q608.6813,609.475 609.175,609.475 Q609.4688,609.475 609.725,609.5438 Q609.9875,609.6063 610.2063,609.75 Z " fill="#000000"/><text fill="#000000" font-family="sans-serif" font-size="5.6" lengthAdjust="spacing" textLength="50" x="617.3" y="613.7188">ToDoListRepository</text><line style="stroke:#181818;stroke-width:0.20000000000000004;" x1="580.4" x2="691.2" y1="617.8" y2="617.8"/><text fill="#000000" font-family="sans-serif" font-size="5.6" lengthAdjust="spacing" textLength="65.2" x="582.4" y="625.443">-List&lt;ToDoList&gt; toDoLists</text><line style="stroke:#181818;stroke-width:0.20000000000000004;" x1="580.4" x2="691.2" y1="628.4484" y2="628.4484"/><text fill="#000000" font-family="sans-serif" font-size="5.6" lengthAdjust="spacing" textLength="106.8" x="582.4" y="636.0914">+boolean addToDoList(ToDoList toDoList)</text><text fill="#000000" font-family="sans-serif" font-size="5.6" lengthAdjust="spacing" textLength="80.4" x="582.4" y="643.5398">+List&lt;ToDoList&gt; getToDoLists()</text><text fill="#000000" font-family="sans-serif" font-size="5.6" lengthAdjust="spacing" textLength="105.6" x="582.4" y="650.9883">+ToDoList getToDoListByGSM(GSM gsm)</text><text fill="#000000" font-family="sans-serif" font-size="5.6" lengthAdjust="spacing" textLength="106.8" x="582.4" y="658.4367">+boolean addToDoList(ToDoList toDoList)</text></g><!--class Repositories--><g id="elem_Repositories"><rect codeLine="75" fill="#F1F1F1" height="41.5453" id="Repositories" rx="1" ry="1" style="stroke:#181818;stroke-width:0.20000000000000004;" width="143.2" x="608.2" y="178.4"/><ellipse cx="662.3" cy="184.8" fill="#ADD1B2" rx="4.4" ry="4.4" style="stroke:#181818;stroke-width:0.4000000000000001;"/><path d="M663.4063,183.15 Q663.4688,183.0625 663.5438,183.0188 Q663.6188,182.975 663.7063,182.975 Q663.8563,182.975 663.95,183.0813 Q664.0438,183.1813 664.0438,183.425 L664.0438,184.0063 Q664.0438,184.25 663.95,184.3563 Q663.8563,184.4625 663.7063,184.4625 Q663.5688,184.4625 663.4875,184.3813 Q663.4063,184.3063 663.3625,184.1 Q663.3438,183.9563 663.2688,183.8813 Q663.1375,183.7313 662.8938,183.6438 Q662.65,183.5563 662.4,183.5563 Q662.0938,183.5563 661.8375,183.6875 Q661.5875,183.8188 661.3875,184.1188 Q661.1938,184.4188 661.1938,184.8313 L661.1938,185.2688 Q661.1938,185.7625 661.55,186.0938 Q661.9063,186.4188 662.5438,186.4188 Q662.9188,186.4188 663.1813,186.3188 Q663.3375,186.2563 663.5063,186.0813 Q663.6125,185.975 663.6688,185.9438 Q663.7313,185.9125 663.8125,185.9125 Q663.9438,185.9125 664.0438,186.0188 Q664.15,186.1188 664.15,186.2563 Q664.15,186.3938 664.0125,186.5563 Q663.8125,186.7875 663.4938,186.9188 Q663.0625,187.1 662.5438,187.1 Q661.9375,187.1 661.4563,186.85 Q661.0625,186.65 660.7875,186.225 Q660.5125,185.7938 660.5125,185.2813 L660.5125,184.8188 Q660.5125,184.2875 660.7563,183.8313 Q661.0063,183.3688 661.4438,183.125 Q661.8813,182.875 662.375,182.875 Q662.6688,182.875 662.925,182.9438 Q663.1875,183.0063 663.4063,183.15 Z " fill="#000000"/><text fill="#000000" font-family="sans-serif" font-size="5.6" lengthAdjust="spacing" textLength="31.6" x="670.5" y="187.1188">Repositories</text><line style="stroke:#181818;stroke-width:0.20000000000000004;" x1="608.6" x2="751" y1="191.2" y2="191.2"/><line style="stroke:#181818;stroke-width:0.20000000000000004;" x1="608.6" x2="751" y1="194.4" y2="194.4"/><text fill="#000000" font-family="sans-serif" font-size="5.6" lengthAdjust="spacing" textLength="72.8" x="610.6" y="202.043">+getInstance() : Repositories</text><text fill="#000000" font-family="sans-serif" font-size="5.6" lengthAdjust="spacing" textLength="138.4" x="610.6" y="209.4914">+getGreenSpaceRepository() : GreenSpaceRepository</text><text fill="#000000" font-family="sans-serif" font-size="5.6" lengthAdjust="spacing" textLength="120" x="610.6" y="216.9398">+getToDoListRepository() : ToDoListRepository</text></g><!--class AddEntryToDoListUI--><g id="elem_AddEntryToDoListUI"><rect codeLine="81" fill="#F1F1F1" height="138.375" id="AddEntryToDoListUI" rx="1" ry="1" style="stroke:#181818;stroke-width:0.20000000000000004;" width="117.2" x="364.4" y="8.4"/><ellipse cx="395.9" cy="14.8" fill="#ADD1B2" rx="4.4" ry="4.4" style="stroke:#181818;stroke-width:0.4000000000000001;"/><path d="M397.0063,13.15 Q397.0688,13.0625 397.1438,13.0188 Q397.2188,12.975 397.3063,12.975 Q397.4563,12.975 397.55,13.0813 Q397.6438,13.1813 397.6438,13.425 L397.6438,14.0063 Q397.6438,14.25 397.55,14.3563 Q397.4563,14.4625 397.3063,14.4625 Q397.1688,14.4625 397.0875,14.3813 Q397.0063,14.3063 396.9625,14.1 Q396.9438,13.9563 396.8688,13.8813 Q396.7375,13.7313 396.4938,13.6438 Q396.25,13.5563 396,13.5563 Q395.6938,13.5563 395.4375,13.6875 Q395.1875,13.8188 394.9875,14.1188 Q394.7938,14.4188 394.7938,14.8313 L394.7938,15.2688 Q394.7938,15.7625 395.15,16.0938 Q395.5063,16.4188 396.1438,16.4188 Q396.5188,16.4188 396.7813,16.3188 Q396.9375,16.2563 397.1063,16.0813 Q397.2125,15.975 397.2688,15.9438 Q397.3313,15.9125 397.4125,15.9125 Q397.5438,15.9125 397.6438,16.0188 Q397.75,16.1188 397.75,16.2563 Q397.75,16.3938 397.6125,16.5563 Q397.4125,16.7875 397.0938,16.9188 Q396.6625,17.1 396.1438,17.1 Q395.5375,17.1 395.0563,16.85 Q394.6625,16.65 394.3875,16.225 Q394.1125,15.7938 394.1125,15.2813 L394.1125,14.8188 Q394.1125,14.2875 394.3563,13.8313 Q394.6063,13.3688 395.0438,13.125 Q395.4813,12.875 395.975,12.875 Q396.2688,12.875 396.525,12.9438 Q396.7875,13.0063 397.0063,13.15 Z " fill="#000000"/><text fill="#000000" font-family="sans-serif" font-size="5.6" lengthAdjust="spacing" textLength="50.8" x="404.1" y="17.1188">AddEntryToDoListUI</text><line style="stroke:#181818;stroke-width:0.20000000000000004;" x1="364.8" x2="481.2" y1="21.2" y2="21.2"/><text fill="#000000" font-family="sans-serif" font-size="5.6" lengthAdjust="spacing" textLength="99.6" x="366.8" y="28.843">-controller: AddEntryToDoListController</text><text fill="#000000" font-family="sans-serif" font-size="5.6" lengthAdjust="spacing" textLength="43.6" x="366.8" y="36.2914">-entryTitle: String</text><text fill="#000000" font-family="sans-serif" font-size="5.6" lengthAdjust="spacing" textLength="61.2" x="366.8" y="43.7398">-entryDescription: String</text><text fill="#000000" font-family="sans-serif" font-size="5.6" lengthAdjust="spacing" textLength="53.6" x="366.8" y="51.1883">-entryUrgency: String</text><text fill="#000000" font-family="sans-serif" font-size="5.6" lengthAdjust="spacing" textLength="54.4" x="366.8" y="58.6367">-entryDuration: String</text><text fill="#000000" font-family="sans-serif" font-size="5.6" lengthAdjust="spacing" textLength="96.4" x="366.8" y="66.0852">-associatedGreenSpace: GreenSpace</text><line style="stroke:#181818;stroke-width:0.20000000000000004;" x1="364.8" x2="481.2" y1="69.0906" y2="69.0906"/><text fill="#000000" font-family="sans-serif" font-size="5.6" lengthAdjust="spacing" textLength="112.4" x="366.8" y="76.7336">+AddEntryToDoListController getController()</text><text fill="#000000" font-family="sans-serif" font-size="5.6" lengthAdjust="spacing" textLength="27.6" x="366.8" y="84.182">+void run()</text><text fill="#000000" font-family="sans-serif" font-size="5.6" lengthAdjust="spacing" textLength="47.6" x="366.8" y="91.6305">+void submitData()</text><text fill="#000000" font-family="sans-serif" font-size="5.6" lengthAdjust="spacing" textLength="50.4" x="366.8" y="99.0789">+void requestData()</text><text fill="#000000" font-family="sans-serif" font-size="5.6" lengthAdjust="spacing" textLength="66.8" x="366.8" y="106.5273">+String requestEntryTitle()</text><text fill="#000000" font-family="sans-serif" font-size="5.6" lengthAdjust="spacing" textLength="84.4" x="366.8" y="113.9758">+String requestEntryDescription()</text><text fill="#000000" font-family="sans-serif" font-size="5.6" lengthAdjust="spacing" textLength="76.8" x="366.8" y="121.4242">+String requestEntryUrgency()</text><text fill="#000000" font-family="sans-serif" font-size="5.6" lengthAdjust="spacing" textLength="77.6" x="366.8" y="128.8727">+String requestEntryDuration()</text><text fill="#000000" font-family="sans-serif" font-size="5.6" lengthAdjust="spacing" textLength="96.8" x="366.8" y="136.3211">+GreenSpace associateGreenSpace()</text><text fill="#000000" font-family="sans-serif" font-size="5.6" lengthAdjust="spacing" textLength="76" x="366.8" y="143.7695">+int readInput(int min, int max)</text></g><!--class AddEntryToDoListController--><g id="elem_AddEntryToDoListController"><rect codeLine="100" fill="#F1F1F1" height="86.2359" id="AddEntryToDoListController" rx="1" ry="1" style="stroke:#181818;stroke-width:0.20000000000000004;" width="435.2" x="604.2" y="34.4"/><ellipse cx="784.7" cy="40.8" fill="#ADD1B2" rx="4.4" ry="4.4" style="stroke:#181818;stroke-width:0.4000000000000001;"/><path d="M785.8063,39.15 Q785.8688,39.0625 785.9438,39.0188 Q786.0188,38.975 786.1063,38.975 Q786.2563,38.975 786.35,39.0813 Q786.4438,39.1813 786.4438,39.425 L786.4438,40.0063 Q786.4438,40.25 786.35,40.3563 Q786.2563,40.4625 786.1063,40.4625 Q785.9688,40.4625 785.8875,40.3813 Q785.8063,40.3063 785.7625,40.1 Q785.7438,39.9563 785.6688,39.8813 Q785.5375,39.7313 785.2938,39.6438 Q785.05,39.5563 784.8,39.5563 Q784.4938,39.5563 784.2375,39.6875 Q783.9875,39.8188 783.7875,40.1188 Q783.5938,40.4188 783.5938,40.8313 L783.5938,41.2688 Q783.5938,41.7625 783.95,42.0938 Q784.3063,42.4188 784.9438,42.4188 Q785.3188,42.4188 785.5813,42.3188 Q785.7375,42.2563 785.9063,42.0813 Q786.0125,41.975 786.0688,41.9438 Q786.1313,41.9125 786.2125,41.9125 Q786.3438,41.9125 786.4438,42.0188 Q786.55,42.1188 786.55,42.2563 Q786.55,42.3938 786.4125,42.5563 Q786.2125,42.7875 785.8938,42.9188 Q785.4625,43.1 784.9438,43.1 Q784.3375,43.1 783.8563,42.85 Q783.4625,42.65 783.1875,42.225 Q782.9125,41.7938 782.9125,41.2813 L782.9125,40.8188 Q782.9125,40.2875 783.1563,39.8313 Q783.4063,39.3688 783.8438,39.125 Q784.2813,38.875 784.775,38.875 Q785.0688,38.875 785.325,38.9438 Q785.5875,39.0063 785.8063,39.15 Z " fill="#000000"/><text fill="#000000" font-family="sans-serif" font-size="5.6" lengthAdjust="spacing" textLength="70.8" x="792.9" y="43.1188">AddEntryToDoListController</text><line style="stroke:#181818;stroke-width:0.20000000000000004;" x1="604.6" x2="1039" y1="47.2" y2="47.2"/><text fill="#000000" font-family="sans-serif" font-size="5.6" lengthAdjust="spacing" textLength="122.4" x="606.6" y="54.843">-greenSpaceRepository: GreenSpaceRepository</text><text fill="#000000" font-family="sans-serif" font-size="5.6" lengthAdjust="spacing" textLength="103.2" x="606.6" y="62.2914">-toDoListRepository: ToDoListRepository</text><text fill="#000000" font-family="sans-serif" font-size="5.6" lengthAdjust="spacing" textLength="131.2" x="606.6" y="69.7398">-authenticationRepository: AuthenticationRepository</text><line style="stroke:#181818;stroke-width:0.20000000000000004;" x1="604.6" x2="1039" y1="72.7453" y2="72.7453"/><text fill="#000000" font-family="sans-serif" font-size="5.6" lengthAdjust="spacing" textLength="430.4" x="606.6" y="80.3883">+AddEntryToDoListController(GreenSpaceRepository greenSpaceRepository, ToDoListRepository toDoListRepository, AuthenticationRepository authenticationRepository)</text><text fill="#000000" font-family="sans-serif" font-size="5.6" lengthAdjust="spacing" textLength="135.2" x="606.6" y="87.8367">+GreenSpaceRepository getGreenSpaceRepository()</text><text fill="#000000" font-family="sans-serif" font-size="5.6" lengthAdjust="spacing" textLength="116.8" x="606.6" y="95.2852">+ToDoListRepository getToDoListRepository()</text><text fill="#000000" font-family="sans-serif" font-size="5.6" lengthAdjust="spacing" textLength="143.2" x="606.6" y="102.7336">+AuthenticationRepository getAuthenticationRepository()</text><text fill="#000000" font-family="sans-serif" font-size="5.6" lengthAdjust="spacing" textLength="236.4" x="606.6" y="110.182">+Optional&lt;Entry&gt; addEntry(String title, String taskDescription, String urgency, String duration)</text><text fill="#000000" font-family="sans-serif" font-size="5.6" lengthAdjust="spacing" textLength="74.8" x="606.6" y="117.6305">+GSM getGSMFromSession()</text></g><!--class GSM--><g id="elem_GSM"><rect codeLine="112" fill="#F1F1F1" height="48.9938" id="GSM" rx="1" ry="1" style="stroke:#181818;stroke-width:0.20000000000000004;" width="49.6" x="289" y="53.2"/><ellipse cx="305.98" cy="59.6" fill="#ADD1B2" rx="4.4" ry="4.4" style="stroke:#181818;stroke-width:0.4000000000000001;"/><path d="M307.0863,57.95 Q307.1488,57.8625 307.2238,57.8188 Q307.2988,57.775 307.3863,57.775 Q307.5363,57.775 307.63,57.8813 Q307.7238,57.9813 307.7238,58.225 L307.7238,58.8063 Q307.7238,59.05 307.63,59.1563 Q307.5363,59.2625 307.3863,59.2625 Q307.2488,59.2625 307.1675,59.1813 Q307.0863,59.1063 307.0425,58.9 Q307.0238,58.7563 306.9488,58.6813 Q306.8175,58.5313 306.5738,58.4438 Q306.33,58.3563 306.08,58.3563 Q305.7738,58.3563 305.5175,58.4875 Q305.2675,58.6188 305.0675,58.9188 Q304.8738,59.2188 304.8738,59.6313 L304.8738,60.0688 Q304.8738,60.5625 305.23,60.8938 Q305.5863,61.2188 306.2238,61.2188 Q306.5988,61.2188 306.8613,61.1188 Q307.0175,61.0563 307.1863,60.8813 Q307.2925,60.775 307.3488,60.7438 Q307.4113,60.7125 307.4925,60.7125 Q307.6238,60.7125 307.7238,60.8188 Q307.83,60.9188 307.83,61.0563 Q307.83,61.1938 307.6925,61.3563 Q307.4925,61.5875 307.1738,61.7188 Q306.7425,61.9 306.2238,61.9 Q305.6175,61.9 305.1363,61.65 Q304.7425,61.45 304.4675,61.025 Q304.1925,60.5938 304.1925,60.0813 L304.1925,59.6188 Q304.1925,59.0875 304.4363,58.6313 Q304.6863,58.1688 305.1238,57.925 Q305.5613,57.675 306.055,57.675 Q306.3488,57.675 306.605,57.7438 Q306.8675,57.8063 307.0863,57.95 Z " fill="#000000"/><text fill="#000000" font-family="sans-serif" font-size="5.6" lengthAdjust="spacing" textLength="12.4" x="314.02" y="61.9188">GSM</text><line style="stroke:#181818;stroke-width:0.20000000000000004;" x1="289.4" x2="338.2" y1="66" y2="66"/><text fill="#000000" font-family="sans-serif" font-size="5.6" lengthAdjust="spacing" textLength="32.4" x="291.4" y="73.643">-String name</text><text fill="#000000" font-family="sans-serif" font-size="5.6" lengthAdjust="spacing" textLength="36.8" x="291.4" y="81.0914">-int vatNumber</text><text fill="#000000" font-family="sans-serif" font-size="5.6" lengthAdjust="spacing" textLength="31.6" x="291.4" y="88.5398">-String email</text><text fill="#000000" font-family="sans-serif" font-size="5.6" lengthAdjust="spacing" textLength="44.8" x="291.4" y="95.9883">-int phonenumber</text><line style="stroke:#181818;stroke-width:0.20000000000000004;" x1="289.4" x2="338.2" y1="98.9938" y2="98.9938"/></g><g id="elem_GMN13"><path d="M495.8,68.6 L495.8,86.4328 A0,0 0 0 0 495.8,86.4328 L590.2,86.4328 A0,0 0 0 0 590.2,86.4328 L590.2,79.2 L604.18,77.6 L590.2,76 L590.2,72.6 L586.2,68.6 L495.8,68.6 A0,0 0 0 0 495.8,68.6 " fill="#FEFFDD" style="stroke:#181818;stroke-width:0.20000000000000004;"/><path d="M586.2,68.6 L586.2,72.6 L590.2,72.6 L586.2,68.6 " fill="#FEFFDD" style="stroke:#181818;stroke-width:0.20000000000000004;"/><text fill="#000000" font-family="sans-serif" font-size="5.2" lengthAdjust="spacing" textLength="86" x="498.2" y="76.2113">- Entry data is read from GSM's input</text><text fill="#000000" font-family="sans-serif" font-size="5.2" lengthAdjust="spacing" textLength="53.2" x="498.2" y="83.1277">- Updates the ToDoList</text></g><g id="elem_GMN16"><path d="M2.4,68.6 L2.4,86.4328 L122.8,86.4328 L122.8,72.6 L118.8,68.6 L2.4,68.6 " fill="#FEFFDD" style="stroke:#181818;stroke-width:0.20000000000000004;"/><path d="M118.8,68.6 L118.8,72.6 L122.8,72.6 L118.8,68.6 " fill="#FEFFDD" style="stroke:#181818;stroke-width:0.4000000000000001;"/><text fill="#000000" font-family="sans-serif" font-size="5.2" lengthAdjust="spacing" textLength="112" x="4.8" y="76.2113">- Responsible for adding Entries to the ToDoList.</text><text fill="#000000" font-family="sans-serif" font-size="5.2" lengthAdjust="spacing" textLength="106" x="4.8" y="83.1277">- Communicates with the AddEntryToDoListUI</text></g><g id="elem_GMN19"><path d="M136.8,65.2 L136.8,89.9492 L274.8,89.9492 L274.8,69.2 L270.8,65.2 L136.8,65.2 " fill="#FEFFDD" style="stroke:#181818;stroke-width:0.20000000000000004;"/><path d="M270.8,65.2 L270.8,69.2 L274.8,69.2 L270.8,65.2 " fill="#FEFFDD" style="stroke:#181818;stroke-width:0.4000000000000001;"/><text fill="#000000" font-family="sans-serif" font-size="5.2" lengthAdjust="spacing" textLength="98.8" x="139.2" y="72.8113">- UI for GSM to add entries to the ToDoList</text><text fill="#000000" font-family="sans-serif" font-size="5.2" lengthAdjust="spacing" textLength="114.4" x="139.2" y="79.7277">- Communicates with AddEntryToDoListController</text><text fill="#000000" font-family="sans-serif" font-size="5.2" lengthAdjust="spacing" textLength="129.6" x="139.2" y="86.6441">- Receives repositories from AddEntryToDoListController</text></g><g id="elem_GMN22"><path d="M555,513.8 L555,524.7164 L657.4,524.7164 L657.4,517.8 L653.4,513.8 L555,513.8 " fill="#FEFFDD" style="stroke:#181818;stroke-width:0.20000000000000004;"/><path d="M653.4,513.8 L653.4,517.8 L657.4,517.8 L653.4,513.8 " fill="#FEFFDD" style="stroke:#181818;stroke-width:0.4000000000000001;"/><text fill="#000000" font-family="sans-serif" font-size="5.2" lengthAdjust="spacing" textLength="94" x="557.4" y="521.4113">- Registered by the GSM in the ToDoList</text></g><!--link GMN16 to GSM--><g id="link_GMN16_GSM"><path d="M71.384,68.552 C89.6,49.796 129.8,8.4 129.8,8.4 C129.8,8.4 136.8,2.4 136.8,2.4 C136.8,2.4 274.8,2.4 274.8,2.4 C274.8,2.4 281.8,8.4 281.8,8.4 C281.8,8.4 293.232,33.116 302.428,53.008 " fill="none" id="GMN16-GSM" style="stroke:#181818;stroke-width:0.4000000000000001;stroke-dasharray:7.0,7.0;"/></g><!--link GMN19 to AddEntryToDoListUI--><g id="link_GMN19_AddEntryToDoListUI"><path d="M219.564,65.068 C241.464,45.128 281.8,8.4 281.8,8.4 C281.8,8.4 288.8,2.4 288.8,2.4 C288.8,2.4 338.4,2.4 338.4,2.4 C338.4,2.4 345.4,8.4 345.4,8.4 C345.4,8.4 353.46,15.588 364.384,25.328 " fill="none" id="GMN19-AddEntryToDoListUI" style="stroke:#181818;stroke-width:0.4000000000000001;stroke-dasharray:7.0,7.0;"/></g><!--link Entry to GMN22--><g id="link_Entry_GMN22"><path d="M540.896,519.2 C547.852,519.2 552.868,519.2 552.868,519.2 C552.868,519.2 553.6,519.2 554.892,519.2 " fill="none" id="Entry-GMN22" style="stroke:#181818;stroke-width:0.4000000000000001;stroke-dasharray:7.0,7.0;"/></g><!--link GSM to Entry--><g id="link_GSM_Entry"><path codeLine="139" d="M325.408,102.012 C342.44,137.24 372.2,198.8 372.2,198.8 C372.2,198.8 372.2,198.8 372.2,390.6 C372.2,390.6 397.0042,433.5694 418.1802,470.2574 " fill="none" id="GSM-to-Entry" style="stroke:#181818;stroke-width:0.4000000000000001;"/><polygon fill="#181818" points="419.38,472.336,418.9661,468.4183,418.3802,470.6038,416.1946,470.0179,419.38,472.336" style="stroke:#181818;stroke-width:0.4000000000000001;"/><text fill="#000000" font-family="sans-serif" font-size="5.2" lengthAdjust="spacing" textLength="20" x="372.6" y="282.0113">registers</text></g><!--link GSM to ToDoList--><g id="link_GSM_ToDoList"><path codeLine="140" d="M316.584,102.012 C320.664,137.24 327.8,198.8 327.8,198.8 C327.8,198.8 327.8,198.8 327.8,519.6 C327.8,519.6 344.6,566 344.6,566 C344.6,566 366.1425,580.1656 390.5665,596.2216 " fill="none" id="GSM-to-ToDoList" style="stroke:#181818;stroke-width:0.4000000000000001;"/><polygon fill="#181818" points="392.572,597.54,390.4427,594.2255,390.9008,596.4414,388.6849,596.8994,392.572,597.54" style="stroke:#181818;stroke-width:0.4000000000000001;"/><text fill="#000000" font-family="sans-serif" font-size="5.2" lengthAdjust="spacing" textLength="11.2" x="328.2" y="326.0113">uses</text></g><!--link Entry to ToDoList--><g id="link_Entry_ToDoList"><path codeLine="141" d="M446.2,566.132 C446.2,576.62 446.2,585.188 446.2,595.124 " fill="none" id="Entry-to-ToDoList" style="stroke:#181818;stroke-width:0.4000000000000001;"/><polygon fill="#181818" points="446.2,597.524,447.8,593.924,446.2,595.524,444.6,593.924,446.2,597.524" style="stroke:#181818;stroke-width:0.4000000000000001;"/><text fill="#000000" font-family="sans-serif" font-size="5.2" lengthAdjust="spacing" textLength="20.4" x="446.6" y="584.0113">shown in</text></g><!--link ToDoList to ToDoListRepository--><g id="link_ToDoList_ToDoListRepository"><path codeLine="142" d="M501.04,633.2 C525.812,633.2 552.64,633.2 577.532,633.2 " fill="none" id="ToDoList-to-ToDoListRepository" style="stroke:#181818;stroke-width:0.4000000000000001;stroke-dasharray:7.0,7.0;"/><polygon fill="#181818" points="579.932,633.2,576.332,631.6,577.932,633.2,576.332,634.8,579.932,633.2" style="stroke:#181818;stroke-width:0.4000000000000001;"/><text fill="#000000" font-family="sans-serif" font-size="5.2" lengthAdjust="spacing" textLength="20" x="530.5" y="630.4113">stored in</text></g><!--link GSM to AddEntryToDoListUI--><g id="link_GSM_AddEntryToDoListUI"><path codeLine="143" d="M338.716,77.6 C346.46,77.6 352.944,77.6 361.98,77.6 " fill="none" id="GSM-to-AddEntryToDoListUI" style="stroke:#181818;stroke-width:0.4000000000000001;"/><polygon fill="#181818" points="364.38,77.6,360.78,76,362.38,77.6,360.78,79.2,364.38,77.6" style="stroke:#181818;stroke-width:0.4000000000000001;"/><text fill="#000000" font-family="sans-serif" font-size="5.2" lengthAdjust="spacing" textLength="11.2" x="345.9" y="74.8113">uses</text></g><!--link GreenSpace to Entry--><g id="link_GreenSpace_Entry"><path codeLine="144" d="M470.264,440.9 C467.068,451.248 464.4241,459.8028 461.2721,470.0108 " fill="none" id="GreenSpace-to-Entry" style="stroke:#181818;stroke-width:0.4000000000000001;"/><polygon fill="#181818" points="460.564,472.304,463.1549,469.3363,461.1541,470.393,460.0973,468.3922,460.564,472.304" style="stroke:#181818;stroke-width:0.4000000000000001;"/><text fill="#000000" font-family="sans-serif" font-size="5.2" lengthAdjust="spacing" textLength="31.2" x="466.6" y="458.8113">associated to</text></g><!--link Repositories to Repositories--><g id="link_Repositories_Repositories"><path codeLine="146" d="M751.452,193.42 C759.896,194.48 765.4,196.404 765.4,199.2 C765.4,201.996 762.2773,203.6211 753.8333,204.6811 " fill="none" id="Repositories-to-Repositories" style="stroke:#181818;stroke-width:0.4000000000000001;"/><polygon fill="#181818" points="751.452,204.98,755.2233,206.1191,753.4364,204.7309,754.8247,202.9441,751.452,204.98" style="stroke:#181818;stroke-width:0.4000000000000001;"/><text fill="#000000" font-family="sans-serif" font-size="5.2" lengthAdjust="spacing" textLength="19.6" x="767.8" y="201.4113">instance</text></g><!--link ApplicationSession to ApplicationSession--><g id="link_ApplicationSession_ApplicationSession"><path codeLine="147" d="M890.864,192.516 C898.8,192.912 904.8,195.14 904.8,199.2 C904.8,203.26 901.197,205.3684 893.261,205.7644 " fill="none" id="ApplicationSession-to-ApplicationSession" style="stroke:#181818;stroke-width:0.4000000000000001;"/><polygon fill="#181818" points="890.864,205.884,894.5393,207.3026,892.8615,205.7843,894.3798,204.1066,890.864,205.884" style="stroke:#181818;stroke-width:0.4000000000000001;"/><text fill="#000000" font-family="sans-serif" font-size="5.2" lengthAdjust="spacing" textLength="19.6" x="907.2" y="201.4113">instance</text></g><!--link AddEntryToDoListUI to AddEntryToDoListController--><g id="link_AddEntryToDoListUI_AddEntryToDoListController"><path codeLine="149" d="M481.704,15.676 C485.944,11.2 488.6,8.4 488.6,8.4 C488.6,8.4 495.6,2.4 495.6,2.4 C495.6,2.4 590,2.4 590,2.4 C590,2.4 634.5972,16.8673 686.1892,33.6073 " fill="none" id="AddEntryToDoListUI-to-AddEntryToDoListController" style="stroke:#181818;stroke-width:0.4000000000000001;stroke-dasharray:7.0,7.0;"/><polygon fill="#181818" points="688.472,34.348,685.5415,31.715,686.5696,33.7307,684.5539,34.7588,688.472,34.348" style="stroke:#181818;stroke-width:0.4000000000000001;"/></g><!--link AddEntryToDoListController to Repositories--><g id="link_AddEntryToDoListController_Repositories"><path codeLine="151" d="M771.336,120.928 C748.376,140.46 724.1118,161.1006 705.6758,176.7886 " fill="none" id="AddEntryToDoListController-to-Repositories" style="stroke:#181818;stroke-width:0.4000000000000001;"/><polygon fill="#181818" points="703.848,178.344,707.6266,177.2295,705.3712,177.0479,705.5528,174.7924,703.848,178.344" style="stroke:#181818;stroke-width:0.4000000000000001;"/><text fill="#000000" font-family="sans-serif" font-size="5.2" lengthAdjust="spacing" textLength="43.2" x="726.2" y="164.8113">retrieves instances</text></g><!--link Repositories to GreenSpaceRepository--><g id="link_Repositories_GreenSpaceRepository"><path codeLine="153" d="M642.8,220.048 C625.46,229.628 606.6364,240.0309 587.8804,250.3989 " fill="none" id="Repositories-to-GreenSpaceRepository" style="stroke:#181818;stroke-width:0.4000000000000001;"/><polygon fill="#181818" points="585.78,251.56,589.7047,251.2187,587.5304,250.5924,588.1566,248.4181,585.78,251.56" style="stroke:#181818;stroke-width:0.4000000000000001;"/><text fill="#000000" font-family="sans-serif" font-size="5.2" lengthAdjust="spacing" textLength="22.4" x="621" y="238.0113">accesses</text></g><!--link Repositories to ToDoListRepository--><g id="link_Repositories_ToDoListRepository"><path codeLine="154" d="M679.8,220.048 C679.8,243.692 679.8,279.4 679.8,279.4 C679.8,279.4 679.8,279.4 679.8,519.6 C679.8,519.6 664.2,566 664.2,566 C664.2,566 656.3988,584.3432 648.6188,602.6472 " fill="none" id="Repositories-to-ToDoListRepository" style="stroke:#181818;stroke-width:0.4000000000000001;"/><polygon fill="#181818" points="647.68,604.856,650.5607,602.1687,648.4623,603.0154,647.6157,600.917,647.68,604.856" style="stroke:#181818;stroke-width:0.4000000000000001;"/><text fill="#000000" font-family="sans-serif" font-size="5.2" lengthAdjust="spacing" textLength="22.4" x="680.2" y="392.4113">accesses</text></g><!--link AddEntryToDoListController to GreenSpaceRepository--><g id="link_AddEntryToDoListController_GreenSpaceRepository"><path codeLine="156" d="M704.632,120.868 C630.052,148.16 547.4,178.4 547.4,178.4 C547.4,178.4 542.5472,219.2568 538.9952,249.1488 " fill="none" id="AddEntryToDoListController-to-GreenSpaceRepository" style="stroke:#181818;stroke-width:0.4000000000000001;stroke-dasharray:7.0,7.0;"/><polygon fill="#181818" points="538.712,251.532,540.7256,248.1459,538.948,249.546,537.548,247.7684,538.712,251.532" style="stroke:#181818;stroke-width:0.4000000000000001;"/><text fill="#000000" font-family="sans-serif" font-size="5.2" lengthAdjust="spacing" textLength="52.8" x="547.8" y="201.4113">organizationRepository</text></g><!--link ApplicationSession to UserSession--><g id="link_ApplicationSession_UserSession"><path codeLine="158" d="M853.724,216.328 C847.6,231.228 839.6765,250.5042 834.0645,264.1562 " fill="none" id="ApplicationSession-to-UserSession" style="stroke:#181818;stroke-width:0.4000000000000001;"/><polygon fill="#181818" points="833.152,266.376,836.0006,263.6547,833.9124,264.5262,833.0409,262.438,833.152,266.376" style="stroke:#181818;stroke-width:0.4000000000000001;"/><text fill="#000000" font-family="sans-serif" font-size="5.2" lengthAdjust="spacing" textLength="28.8" x="847.4" y="238.0113">userSession</text><text fill="#000000" font-family="sans-serif" font-size="5.2" lengthAdjust="spacing" textLength="2.8" x="831.1301" y="261.9015">1</text></g><!--link AddEntryToDoListController to ApplicationSession--><g id="link_AddEntryToDoListController_ApplicationSession"><path codeLine="160" d="M835.588,120.928 C842.384,142.088 849.4498,164.0911 854.5098,179.8391 " fill="none" id="AddEntryToDoListController-to-ApplicationSession" style="stroke:#181818;stroke-width:0.4000000000000001;stroke-dasharray:7.0,7.0;"/><polygon fill="#181818" points="855.244,182.124,855.666,178.2071,854.6322,180.2199,852.6194,179.186,855.244,182.124" style="stroke:#181818;stroke-width:0.4000000000000001;"/></g><!--link AddEntryToDoListController to UserSession--><g id="link_AddEntryToDoListController_UserSession"><path codeLine="161" d="M822.284,120.992 C822.756,162.784 823.4,220 823.4,220 C823.4,220 825.3626,246.4866 826.6586,263.9706 " fill="none" id="AddEntryToDoListController-to-UserSession" style="stroke:#181818;stroke-width:0.4000000000000001;stroke-dasharray:7.0,7.0;"/><polygon fill="#181818" points="826.836,266.364,828.1655,262.6556,826.6882,264.3695,824.9743,262.8921,826.836,266.364" style="stroke:#181818;stroke-width:0.4000000000000001;"/></g><!--link GreenSpaceRepository to GreenSpace--><g id="link_GreenSpaceRepository_GreenSpace"><path codeLine="163" d="M522.756,308.14 C518.42,317.716 514.4175,326.5615 509.5335,337.3535 " fill="none" id="GreenSpaceRepository-to-GreenSpace" style="stroke:#181818;stroke-width:0.4000000000000001;"/><polygon fill="#181818" points="508.544,339.54,511.486,336.9199,509.3686,337.7179,508.5706,335.6005,508.544,339.54" style="stroke:#181818;stroke-width:0.4000000000000001;"/><text fill="#000000" font-family="sans-serif" font-size="5.2" lengthAdjust="spacing" textLength="14.4" x="517" y="326.0113">stores</text></g><!--SRC=[jLXVR-Cs37_tfn3kfJwqARRNO0YGQxkXmEuANDeFeDYCezMMF4bkbnlstKVziIpRShB3jdkvMFoH8d-aIAbNwfNnbahQa4PmKHobQ81esK4sI5fQlD8ATlfK0v5GQCghEWQe8ot5E-CLET1QnPAQST2d5aWhwfFvoAuIGY6ro2AjegPARRMMRDzfU2m4tx5lG7x8igiQ3ffeGIIhZfgKpBZ31CyogqEsRLkpWfgb7IXb97zc1FzT4wLnkI0Lw4UElta1-KSlmhMxJahWsYkXvA_Uv8i2ERM52cRveQ6iZh6_I02-Gxw0EEYASDh0ckmm5bxv9HFpP8bAe6jIYcwFnBez1bkvWrfJDrxF6hdn6bQz3-PDi9AyqPgLLCDWv0ignuOkm9_HV1vjTG6-HGVoX3Dx8MgWdC3l7LP6_hJ_3VD5H2zcN9CZLSSxKGxPY4WiQi47GM-CgQV3F9oGX0UkvIdmhvckPmcWwlKUL25PQofb8kra1RmuJLRBJj8463SK1KCkoi7jTHI2Tztw5FWqBWs973iJrhqRuRjtOCe6BQEjyuYyAlpyDzbmRFQ922G_YtlnArCwy8o7Hp9GQs9MVx9Q6o-gL8EKx3vxYxrg7Y5xzHk3Cmg9A1s7pXy3F_qFOGtqVOLMAAQ5BwMLYskGRo9-LMPCFjdyqNe4ab2X7iZlFSqZ8huxsOF2_AYUqvh727huj4bBr42QgbwwmNRjVgbfAA4IGZNrqCYTmGuwqt-et262OYJxT4BgyYNwpkqP8WiHOKdQcAx7SuEiHv0UaAeU2qu9UgKvYrPblZouj_M7eSUyF7hYSL9gAUeQv7e6kWkoh3-lf-T9S_JBwTxeXI-pzjXhpJlaF-gFrsTSjQCvVFcasnaaEnv_gcxVC7rFDHs1i2M0YfVzUVE2Xq32iZWYOndaIJbZnPFZ4T4P30n5HzI1JEF2Lb0-yhRJkVbg6Cu7-uF-yN6v7YB-N5rKYVfRhCfLE14nE56FDh-TFcBs_PqhLjWkI2vaF4-su5G0Dwa6D7VzPj6JHUUdEOeTMJhbetOqLaYTSCV2acEej2Jpgc7O-FaPvkD_TiUuTXC8uzrz_XcV1OchiG7O-RyYqL1p2wPAtwZ-qZLxst4639XRym1gZpY3kOEXPIuq47lB5uTBFSmDSHnl5E-4zgYG0tfg_BfIQ1oFZSMzj6O4AeACXXHbm4jYDfjiQUyfAsplgXLSCJEF3q8QVetl3-wQObuWiR5Ret8dcgRZ9c48U6VwQ27pNhsqSm9fdN-q3XYkSLVqexyhJPsmwBaJ5pZy2WMmDp3qHJFFqdX6SnA2UurX31Rl-7Ft7YZ9_cJTD04mlfG38rsjDix0EboRb1DiWigQT0e7hilyQYHGH_6EZmEUXSb-kqcSI0JYV-WN8htnEVD-cwXDHyuDCusOT-leie2eqVSQjt6tXcp-DhLxprSZdImnwcytvpAJdHa6Atobyxc74amzcHhezrNJgBnYiYKY8GMg6BwIIecc6AcSy_VsTd5B8IlAsRVfR4cIZ3vy-F53_90dDh_XMN_9XyHV5Iven7yqo98Xh4Pq-g94Elu6]--></g></svg>