<?xml version="1.0" encoding="us-ascii" standalone="no"?><svg xmlns="http://www.w3.org/2000/svg" xmlns:xlink="http://www.w3.org/1999/xlink" contentStyleType="text/css" height="1581px" preserveAspectRatio="none" style="width:2103px;height:1581px;background:#FFFFFF;" version="1.1" viewBox="0 0 2103 1581" width="2103px" zoomAndPan="magnify"><defs/><g><!--class ApplicationSession--><g id="elem_ApplicationSession"><rect codeLine="11" fill="#F1F1F1" height="85.2422" id="ApplicationSession" rx="2.5" ry="2.5" style="stroke:#181818;stroke-width:0.5;" width="151" x="1771" y="455.5"/><ellipse cx="1786" cy="471.5" fill="#ADD1B2" rx="11" ry="11" style="stroke:#181818;stroke-width:1.0;"/><path d="M1788.7656,467.375 Q1788.9219,467.1563 1789.1094,467.0469 Q1789.2969,466.9375 1789.5156,466.9375 Q1789.8906,466.9375 1790.125,467.2031 Q1790.3594,467.4531 1790.3594,468.0625 L1790.3594,469.5156 Q1790.3594,470.125 1790.125,470.3906 Q1789.8906,470.6563 1789.5156,470.6563 Q1789.1719,470.6563 1788.9688,470.4531 Q1788.7656,470.2656 1788.6563,469.75 Q1788.6094,469.3906 1788.4219,469.2031 Q1788.0938,468.8281 1787.4844,468.6094 Q1786.875,468.3906 1786.25,468.3906 Q1785.4844,468.3906 1784.8438,468.7188 Q1784.2188,469.0469 1783.7188,469.7969 Q1783.2344,470.5469 1783.2344,471.5781 L1783.2344,472.6719 Q1783.2344,473.9063 1784.125,474.7344 Q1785.0156,475.5469 1786.6094,475.5469 Q1787.5469,475.5469 1788.2031,475.2969 Q1788.5938,475.1406 1789.0156,474.7031 Q1789.2813,474.4375 1789.4219,474.3594 Q1789.5781,474.2813 1789.7813,474.2813 Q1790.1094,474.2813 1790.3594,474.5469 Q1790.625,474.7969 1790.625,475.1406 Q1790.625,475.4844 1790.2813,475.8906 Q1789.7813,476.4688 1788.9844,476.7969 Q1787.9063,477.25 1786.6094,477.25 Q1785.0938,477.25 1783.8906,476.625 Q1782.9063,476.125 1782.2188,475.0625 Q1781.5313,473.9844 1781.5313,472.7031 L1781.5313,471.5469 Q1781.5313,470.2188 1782.1406,469.0781 Q1782.7656,467.9219 1783.8594,467.3125 Q1784.9531,466.6875 1786.1875,466.6875 Q1786.9219,466.6875 1787.5625,466.8594 Q1788.2188,467.0156 1788.7656,467.375 Z " fill="#000000"/><text fill="#000000" font-family="sans-serif" font-size="14" lengthAdjust="spacing" textLength="119" x="1800" y="477.2969">ApplicationSession</text><line style="stroke:#181818;stroke-width:0.5;" x1="1772" x2="1921" y1="487.5" y2="487.5"/><line style="stroke:#181818;stroke-width:0.5;" x1="1772" x2="1921" y1="495.5" y2="495.5"/><text fill="#000000" font-family="sans-serif" font-size="14" lengthAdjust="spacing" textLength="128" x="1777" y="514.6074">+static getInstance()</text><text fill="#000000" font-family="sans-serif" font-size="14" lengthAdjust="spacing" textLength="136" x="1777" y="533.2285">+getCurrentSession()</text></g><!--class UserSession--><g id="elem_UserSession"><rect codeLine="17" fill="#F1F1F1" height="66.6211" id="UserSession" rx="2.5" ry="2.5" style="stroke:#181818;stroke-width:0.5;" width="113" x="1708" y="666"/><ellipse cx="1723.9" cy="682" fill="#ADD1B2" rx="11" ry="11" style="stroke:#181818;stroke-width:1.0;"/><path d="M1726.6656,677.875 Q1726.8219,677.6563 1727.0094,677.5469 Q1727.1969,677.4375 1727.4156,677.4375 Q1727.7906,677.4375 1728.025,677.7031 Q1728.2594,677.9531 1728.2594,678.5625 L1728.2594,680.0156 Q1728.2594,680.625 1728.025,680.8906 Q1727.7906,681.1563 1727.4156,681.1563 Q1727.0719,681.1563 1726.8688,680.9531 Q1726.6656,680.7656 1726.5563,680.25 Q1726.5094,679.8906 1726.3219,679.7031 Q1725.9938,679.3281 1725.3844,679.1094 Q1724.775,678.8906 1724.15,678.8906 Q1723.3844,678.8906 1722.7438,679.2188 Q1722.1188,679.5469 1721.6188,680.2969 Q1721.1344,681.0469 1721.1344,682.0781 L1721.1344,683.1719 Q1721.1344,684.4063 1722.025,685.2344 Q1722.9156,686.0469 1724.5094,686.0469 Q1725.4469,686.0469 1726.1031,685.7969 Q1726.4938,685.6406 1726.9156,685.2031 Q1727.1813,684.9375 1727.3219,684.8594 Q1727.4781,684.7813 1727.6813,684.7813 Q1728.0094,684.7813 1728.2594,685.0469 Q1728.525,685.2969 1728.525,685.6406 Q1728.525,685.9844 1728.1813,686.3906 Q1727.6813,686.9688 1726.8844,687.2969 Q1725.8063,687.75 1724.5094,687.75 Q1722.9938,687.75 1721.7906,687.125 Q1720.8063,686.625 1720.1188,685.5625 Q1719.4313,684.4844 1719.4313,683.2031 L1719.4313,682.0469 Q1719.4313,680.7188 1720.0406,679.5781 Q1720.6656,678.4219 1721.7594,677.8125 Q1722.8531,677.1875 1724.0875,677.1875 Q1724.8219,677.1875 1725.4625,677.3594 Q1726.1188,677.5156 1726.6656,677.875 Z " fill="#000000"/><text fill="#000000" font-family="sans-serif" font-size="14" lengthAdjust="spacing" textLength="79" x="1738.1" y="687.7969">UserSession</text><line style="stroke:#181818;stroke-width:0.5;" x1="1709" x2="1820" y1="698" y2="698"/><line style="stroke:#181818;stroke-width:0.5;" x1="1709" x2="1820" y1="706" y2="706"/><text fill="#000000" font-family="sans-serif" font-size="14" lengthAdjust="spacing" textLength="101" x="1714" y="725.1074">+getUserEmail()</text></g><!--class GreenSpace--><g id="elem_GreenSpace"><rect codeLine="22" fill="#F1F1F1" height="252.832" id="GreenSpace" rx="2.5" ry="2.5" style="stroke:#181818;stroke-width:0.5;" width="346" x="919.5" y="1057"/><ellipse cx="1048.25" cy="1073" fill="#ADD1B2" rx="11" ry="11" style="stroke:#181818;stroke-width:1.0;"/><path d="M1051.0156,1068.875 Q1051.1719,1068.6563 1051.3594,1068.5469 Q1051.5469,1068.4375 1051.7656,1068.4375 Q1052.1406,1068.4375 1052.375,1068.7031 Q1052.6094,1068.9531 1052.6094,1069.5625 L1052.6094,1071.0156 Q1052.6094,1071.625 1052.375,1071.8906 Q1052.1406,1072.1563 1051.7656,1072.1563 Q1051.4219,1072.1563 1051.2188,1071.9531 Q1051.0156,1071.7656 1050.9063,1071.25 Q1050.8594,1070.8906 1050.6719,1070.7031 Q1050.3438,1070.3281 1049.7344,1070.1094 Q1049.125,1069.8906 1048.5,1069.8906 Q1047.7344,1069.8906 1047.0938,1070.2188 Q1046.4688,1070.5469 1045.9688,1071.2969 Q1045.4844,1072.0469 1045.4844,1073.0781 L1045.4844,1074.1719 Q1045.4844,1075.4063 1046.375,1076.2344 Q1047.2656,1077.0469 1048.8594,1077.0469 Q1049.7969,1077.0469 1050.4531,1076.7969 Q1050.8438,1076.6406 1051.2656,1076.2031 Q1051.5313,1075.9375 1051.6719,1075.8594 Q1051.8281,1075.7813 1052.0313,1075.7813 Q1052.3594,1075.7813 1052.6094,1076.0469 Q1052.875,1076.2969 1052.875,1076.6406 Q1052.875,1076.9844 1052.5313,1077.3906 Q1052.0313,1077.9688 1051.2344,1078.2969 Q1050.1563,1078.75 1048.8594,1078.75 Q1047.3438,1078.75 1046.1406,1078.125 Q1045.1563,1077.625 1044.4688,1076.5625 Q1043.7813,1075.4844 1043.7813,1074.2031 L1043.7813,1073.0469 Q1043.7813,1071.7188 1044.3906,1070.5781 Q1045.0156,1069.4219 1046.1094,1068.8125 Q1047.2031,1068.1875 1048.4375,1068.1875 Q1049.1719,1068.1875 1049.8125,1068.3594 Q1050.4688,1068.5156 1051.0156,1068.875 Z " fill="#000000"/><text fill="#000000" font-family="sans-serif" font-size="14" lengthAdjust="spacing" textLength="80" x="1068.75" y="1078.7969">GreenSpace</text><line style="stroke:#181818;stroke-width:0.5;" x1="920.5" x2="1264.5" y1="1089" y2="1089"/><text fill="#000000" font-family="sans-serif" font-size="14" lengthAdjust="spacing" textLength="85" x="925.5" y="1108.1074">-name: String</text><text fill="#000000" font-family="sans-serif" font-size="14" lengthAdjust="spacing" textLength="77" x="925.5" y="1126.7285">-type: String</text><text fill="#000000" font-family="sans-serif" font-size="14" lengthAdjust="spacing" textLength="85" x="925.5" y="1145.3496">-area: double</text><line style="stroke:#181818;stroke-width:0.5;" x1="920.5" x2="1264.5" y1="1152.8633" y2="1152.8633"/><text fill="#000000" font-family="sans-serif" font-size="14" lengthAdjust="spacing" textLength="334" x="925.5" y="1171.9707">+GreenSpace(String name, String type, double area)</text><text fill="#000000" font-family="sans-serif" font-size="14" lengthAdjust="spacing" textLength="289" x="925.5" y="1190.5918">+void validateGreenSpaceName(String name)</text><text fill="#000000" font-family="sans-serif" font-size="14" lengthAdjust="spacing" textLength="277" x="925.5" y="1209.2129">+void validateGreenSpaceType(String type)</text><text fill="#000000" font-family="sans-serif" font-size="14" lengthAdjust="spacing" textLength="283" x="925.5" y="1227.834">+void validateGreenSpaceArea(double area)</text><text fill="#000000" font-family="sans-serif" font-size="14" lengthAdjust="spacing" textLength="168" x="925.5" y="1246.4551">+boolean equals(Object o)</text><text fill="#000000" font-family="sans-serif" font-size="14" lengthAdjust="spacing" textLength="102" x="925.5" y="1265.0762">+int hashCode()</text><text fill="#000000" font-family="sans-serif" font-size="14" lengthAdjust="spacing" textLength="136" x="925.5" y="1283.6973">+GreenSpace clone()</text><text fill="#000000" font-family="sans-serif" font-size="14" lengthAdjust="spacing" textLength="210" x="925.5" y="1302.3184">+boolean isOfName(String name)</text></g><!--class TDLEntry--><g id="elem_TDLEntry"><rect codeLine="36" fill="#F1F1F1" height="234.2109" id="TDLEntry" rx="2.5" ry="2.5" style="stroke:#181818;stroke-width:0.5;" width="500" x="948.5" y="1340"/><ellipse cx="1164.25" cy="1356" fill="#ADD1B2" rx="11" ry="11" style="stroke:#181818;stroke-width:1.0;"/><path d="M1167.0156,1351.875 Q1167.1719,1351.6563 1167.3594,1351.5469 Q1167.5469,1351.4375 1167.7656,1351.4375 Q1168.1406,1351.4375 1168.375,1351.7031 Q1168.6094,1351.9531 1168.6094,1352.5625 L1168.6094,1354.0156 Q1168.6094,1354.625 1168.375,1354.8906 Q1168.1406,1355.1563 1167.7656,1355.1563 Q1167.4219,1355.1563 1167.2188,1354.9531 Q1167.0156,1354.7656 1166.9063,1354.25 Q1166.8594,1353.8906 1166.6719,1353.7031 Q1166.3438,1353.3281 1165.7344,1353.1094 Q1165.125,1352.8906 1164.5,1352.8906 Q1163.7344,1352.8906 1163.0938,1353.2188 Q1162.4688,1353.5469 1161.9688,1354.2969 Q1161.4844,1355.0469 1161.4844,1356.0781 L1161.4844,1357.1719 Q1161.4844,1358.4063 1162.375,1359.2344 Q1163.2656,1360.0469 1164.8594,1360.0469 Q1165.7969,1360.0469 1166.4531,1359.7969 Q1166.8438,1359.6406 1167.2656,1359.2031 Q1167.5313,1358.9375 1167.6719,1358.8594 Q1167.8281,1358.7813 1168.0313,1358.7813 Q1168.3594,1358.7813 1168.6094,1359.0469 Q1168.875,1359.2969 1168.875,1359.6406 Q1168.875,1359.9844 1168.5313,1360.3906 Q1168.0313,1360.9688 1167.2344,1361.2969 Q1166.1563,1361.75 1164.8594,1361.75 Q1163.3438,1361.75 1162.1406,1361.125 Q1161.1563,1360.625 1160.4688,1359.5625 Q1159.7813,1358.4844 1159.7813,1357.2031 L1159.7813,1356.0469 Q1159.7813,1354.7188 1160.3906,1353.5781 Q1161.0156,1352.4219 1162.1094,1351.8125 Q1163.2031,1351.1875 1164.4375,1351.1875 Q1165.1719,1351.1875 1165.8125,1351.3594 Q1166.4688,1351.5156 1167.0156,1351.875 Z " fill="#000000"/><text fill="#000000" font-family="sans-serif" font-size="14" lengthAdjust="spacing" textLength="60" x="1184.75" y="1361.7969">TDLEntry</text><line style="stroke:#181818;stroke-width:0.5;" x1="949.5" x2="1447.5" y1="1372" y2="1372"/><text fill="#000000" font-family="sans-serif" font-size="14" lengthAdjust="spacing" textLength="72" x="954.5" y="1391.1074">-title: String</text><text fill="#000000" font-family="sans-serif" font-size="14" lengthAdjust="spacing" textLength="147" x="954.5" y="1409.7285">-taskDescription: String</text><text fill="#000000" font-family="sans-serif" font-size="14" lengthAdjust="spacing" textLength="101" x="954.5" y="1428.3496">-urgency: String</text><text fill="#000000" font-family="sans-serif" font-size="14" lengthAdjust="spacing" textLength="102" x="954.5" y="1446.9707">-duration: String</text><text fill="#000000" font-family="sans-serif" font-size="14" lengthAdjust="spacing" textLength="241" x="954.5" y="1465.5918">-associatedGreenSpace: GreenSpace</text><line style="stroke:#181818;stroke-width:0.5;" x1="949.5" x2="1447.5" y1="1473.1055" y2="1473.1055"/><text fill="#000000" font-family="sans-serif" font-size="14" lengthAdjust="spacing" textLength="488" x="954.5" y="1492.2129">+TDLEntry(String title, String taskDescription, String urgency, String duration)</text><text fill="#000000" font-family="sans-serif" font-size="14" lengthAdjust="spacing" textLength="338" x="954.5" y="1510.834">+boolean addGreenSpace(GreenSpace greenSpace)</text><text fill="#000000" font-family="sans-serif" font-size="14" lengthAdjust="spacing" textLength="168" x="954.5" y="1529.4551">+boolean equals(Object o)</text><text fill="#000000" font-family="sans-serif" font-size="14" lengthAdjust="spacing" textLength="102" x="954.5" y="1548.0762">+int hashCode()</text><text fill="#000000" font-family="sans-serif" font-size="14" lengthAdjust="spacing" textLength="116" x="954.5" y="1566.6973">+TDLEntry clone()</text></g><!--class ToDoList--><g id="elem_ToDoList"><rect codeLine="49" fill="#F1F1F1" height="178.3477" id="ToDoList" rx="2.5" ry="2.5" style="stroke:#181818;stroke-width:0.5;" width="498" x="1146.5" y="849"/><ellipse cx="1362.75" cy="865" fill="#ADD1B2" rx="11" ry="11" style="stroke:#181818;stroke-width:1.0;"/><path d="M1365.5156,860.875 Q1365.6719,860.6563 1365.8594,860.5469 Q1366.0469,860.4375 1366.2656,860.4375 Q1366.6406,860.4375 1366.875,860.7031 Q1367.1094,860.9531 1367.1094,861.5625 L1367.1094,863.0156 Q1367.1094,863.625 1366.875,863.8906 Q1366.6406,864.1563 1366.2656,864.1563 Q1365.9219,864.1563 1365.7188,863.9531 Q1365.5156,863.7656 1365.4063,863.25 Q1365.3594,862.8906 1365.1719,862.7031 Q1364.8438,862.3281 1364.2344,862.1094 Q1363.625,861.8906 1363,861.8906 Q1362.2344,861.8906 1361.5938,862.2188 Q1360.9688,862.5469 1360.4688,863.2969 Q1359.9844,864.0469 1359.9844,865.0781 L1359.9844,866.1719 Q1359.9844,867.4063 1360.875,868.2344 Q1361.7656,869.0469 1363.3594,869.0469 Q1364.2969,869.0469 1364.9531,868.7969 Q1365.3438,868.6406 1365.7656,868.2031 Q1366.0313,867.9375 1366.1719,867.8594 Q1366.3281,867.7813 1366.5313,867.7813 Q1366.8594,867.7813 1367.1094,868.0469 Q1367.375,868.2969 1367.375,868.6406 Q1367.375,868.9844 1367.0313,869.3906 Q1366.5313,869.9688 1365.7344,870.2969 Q1364.6563,870.75 1363.3594,870.75 Q1361.8438,870.75 1360.6406,870.125 Q1359.6563,869.625 1358.9688,868.5625 Q1358.2813,867.4844 1358.2813,866.2031 L1358.2813,865.0469 Q1358.2813,863.7188 1358.8906,862.5781 Q1359.5156,861.4219 1360.6094,860.8125 Q1361.7031,860.1875 1362.9375,860.1875 Q1363.6719,860.1875 1364.3125,860.3594 Q1364.9688,860.5156 1365.5156,860.875 Z " fill="#000000"/><text fill="#000000" font-family="sans-serif" font-size="14" lengthAdjust="spacing" textLength="57" x="1383.25" y="870.7969">ToDoList</text><line style="stroke:#181818;stroke-width:0.5;" x1="1147.5" x2="1643.5" y1="881" y2="881"/><text fill="#000000" font-family="sans-serif" font-size="14" lengthAdjust="spacing" textLength="154" x="1152.5" y="900.1074">-entries: List&lt;TDLEntry&gt;</text><text fill="#000000" font-family="sans-serif" font-size="14" lengthAdjust="spacing" textLength="70" x="1152.5" y="918.7285">-gsm: GSM</text><line style="stroke:#181818;stroke-width:0.5;" x1="1147.5" x2="1643.5" y1="926.2422" y2="926.2422"/><text fill="#000000" font-family="sans-serif" font-size="14" lengthAdjust="spacing" textLength="289" x="1152.5" y="945.3496">+ToDoList(List&lt;TDLEntry&gt; entries, GSM gsm)</text><text fill="#000000" font-family="sans-serif" font-size="14" lengthAdjust="spacing" textLength="486" x="1152.5" y="963.9707">+boolean addEntry(entryTitle, entryDescription, entryUrgency, entryDuration)</text><text fill="#000000" font-family="sans-serif" font-size="14" lengthAdjust="spacing" textLength="168" x="1152.5" y="982.5918">+boolean equals(Object o)</text><text fill="#000000" font-family="sans-serif" font-size="14" lengthAdjust="spacing" textLength="102" x="1152.5" y="1001.2129">+int hashCode()</text><text fill="#000000" font-family="sans-serif" font-size="14" lengthAdjust="spacing" textLength="116" x="1152.5" y="1019.834">+TDLEntry clone()</text></g><!--class GreenSpaceRepository--><g id="elem_GreenSpaceRepository"><rect codeLine="59" fill="#F1F1F1" height="141.1055" id="GreenSpaceRepository" rx="2.5" ry="2.5" style="stroke:#181818;stroke-width:0.5;" width="616" x="650.5" y="629"/><ellipse cx="880.25" cy="645" fill="#ADD1B2" rx="11" ry="11" style="stroke:#181818;stroke-width:1.0;"/><path d="M883.0156,640.875 Q883.1719,640.6563 883.3594,640.5469 Q883.5469,640.4375 883.7656,640.4375 Q884.1406,640.4375 884.375,640.7031 Q884.6094,640.9531 884.6094,641.5625 L884.6094,643.0156 Q884.6094,643.625 884.375,643.8906 Q884.1406,644.1563 883.7656,644.1563 Q883.4219,644.1563 883.2188,643.9531 Q883.0156,643.7656 882.9063,643.25 Q882.8594,642.8906 882.6719,642.7031 Q882.3438,642.3281 881.7344,642.1094 Q881.125,641.8906 880.5,641.8906 Q879.7344,641.8906 879.0938,642.2188 Q878.4688,642.5469 877.9688,643.2969 Q877.4844,644.0469 877.4844,645.0781 L877.4844,646.1719 Q877.4844,647.4063 878.375,648.2344 Q879.2656,649.0469 880.8594,649.0469 Q881.7969,649.0469 882.4531,648.7969 Q882.8438,648.6406 883.2656,648.2031 Q883.5313,647.9375 883.6719,647.8594 Q883.8281,647.7813 884.0313,647.7813 Q884.3594,647.7813 884.6094,648.0469 Q884.875,648.2969 884.875,648.6406 Q884.875,648.9844 884.5313,649.3906 Q884.0313,649.9688 883.2344,650.2969 Q882.1563,650.75 880.8594,650.75 Q879.3438,650.75 878.1406,650.125 Q877.1563,649.625 876.4688,648.5625 Q875.7813,647.4844 875.7813,646.2031 L875.7813,645.0469 Q875.7813,643.7188 876.3906,642.5781 Q877.0156,641.4219 878.1094,640.8125 Q879.2031,640.1875 880.4375,640.1875 Q881.1719,640.1875 881.8125,640.3594 Q882.4688,640.5156 883.0156,640.875 Z " fill="#000000"/><text fill="#000000" font-family="sans-serif" font-size="14" lengthAdjust="spacing" textLength="148" x="900.75" y="650.7969">GreenSpaceRepository</text><line style="stroke:#181818;stroke-width:0.5;" x1="651.5" x2="1265.5" y1="661" y2="661"/><text fill="#000000" font-family="sans-serif" font-size="14" lengthAdjust="spacing" textLength="211" x="656.5" y="680.1074">-List&lt;GreenSpace&gt; greenSpaces</text><line style="stroke:#181818;stroke-width:0.5;" x1="651.5" x2="1265.5" y1="687.6211" y2="687.6211"/><text fill="#000000" font-family="sans-serif" font-size="14" lengthAdjust="spacing" textLength="604" x="656.5" y="706.7285">+Optional&lt;GreenSpace&gt; registerGreenSpace(String name, String type, double area, GSM gsm)</text><text fill="#000000" font-family="sans-serif" font-size="14" lengthAdjust="spacing" textLength="338" x="656.5" y="725.3496">+boolean addGreenSpace(GreenSpace greenSpace)</text><text fill="#000000" font-family="sans-serif" font-size="14" lengthAdjust="spacing" textLength="363" x="656.5" y="743.9707">+boolean validateGreenSpace(GreenSpace greenSpace)</text><text fill="#000000" font-family="sans-serif" font-size="14" lengthAdjust="spacing" textLength="262" x="656.5" y="762.5918">+List&lt;GreenSpace&gt; getGreenSpaceList()</text></g><!--class ToDoListRepository--><g id="elem_ToDoListRepository"><rect codeLine="67" fill="#F1F1F1" height="141.1055" id="ToDoListRepository" rx="2.5" ry="2.5" style="stroke:#181818;stroke-width:0.5;" width="279" x="1302" y="629"/><ellipse cx="1374.75" cy="645" fill="#ADD1B2" rx="11" ry="11" style="stroke:#181818;stroke-width:1.0;"/><path d="M1377.5156,640.875 Q1377.6719,640.6563 1377.8594,640.5469 Q1378.0469,640.4375 1378.2656,640.4375 Q1378.6406,640.4375 1378.875,640.7031 Q1379.1094,640.9531 1379.1094,641.5625 L1379.1094,643.0156 Q1379.1094,643.625 1378.875,643.8906 Q1378.6406,644.1563 1378.2656,644.1563 Q1377.9219,644.1563 1377.7188,643.9531 Q1377.5156,643.7656 1377.4063,643.25 Q1377.3594,642.8906 1377.1719,642.7031 Q1376.8438,642.3281 1376.2344,642.1094 Q1375.625,641.8906 1375,641.8906 Q1374.2344,641.8906 1373.5938,642.2188 Q1372.9688,642.5469 1372.4688,643.2969 Q1371.9844,644.0469 1371.9844,645.0781 L1371.9844,646.1719 Q1371.9844,647.4063 1372.875,648.2344 Q1373.7656,649.0469 1375.3594,649.0469 Q1376.2969,649.0469 1376.9531,648.7969 Q1377.3438,648.6406 1377.7656,648.2031 Q1378.0313,647.9375 1378.1719,647.8594 Q1378.3281,647.7813 1378.5313,647.7813 Q1378.8594,647.7813 1379.1094,648.0469 Q1379.375,648.2969 1379.375,648.6406 Q1379.375,648.9844 1379.0313,649.3906 Q1378.5313,649.9688 1377.7344,650.2969 Q1376.6563,650.75 1375.3594,650.75 Q1373.8438,650.75 1372.6406,650.125 Q1371.6563,649.625 1370.9688,648.5625 Q1370.2813,647.4844 1370.2813,646.2031 L1370.2813,645.0469 Q1370.2813,643.7188 1370.8906,642.5781 Q1371.5156,641.4219 1372.6094,640.8125 Q1373.7031,640.1875 1374.9375,640.1875 Q1375.6719,640.1875 1376.3125,640.3594 Q1376.9688,640.5156 1377.5156,640.875 Z " fill="#000000"/><text fill="#000000" font-family="sans-serif" font-size="14" lengthAdjust="spacing" textLength="125" x="1395.25" y="650.7969">ToDoListRepository</text><line style="stroke:#181818;stroke-width:0.5;" x1="1303" x2="1580" y1="661" y2="661"/><text fill="#000000" font-family="sans-serif" font-size="14" lengthAdjust="spacing" textLength="163" x="1308" y="680.1074">-List&lt;ToDoList&gt; toDoLists</text><line style="stroke:#181818;stroke-width:0.5;" x1="1303" x2="1580" y1="687.6211" y2="687.6211"/><text fill="#000000" font-family="sans-serif" font-size="14" lengthAdjust="spacing" textLength="267" x="1308" y="706.7285">+boolean addToDoList(ToDoList toDoList)</text><text fill="#000000" font-family="sans-serif" font-size="14" lengthAdjust="spacing" textLength="201" x="1308" y="725.3496">+List&lt;ToDoList&gt; getToDoLists()</text><text fill="#000000" font-family="sans-serif" font-size="14" lengthAdjust="spacing" textLength="264" x="1308" y="743.9707">+ToDoList getToDoListByGSM(GSM gsm)</text><text fill="#000000" font-family="sans-serif" font-size="14" lengthAdjust="spacing" textLength="267" x="1308" y="762.5918">+boolean addToDoList(ToDoList toDoList)</text></g><!--class Repositories--><g id="elem_Repositories"><rect codeLine="75" fill="#F1F1F1" height="103.8633" id="Repositories" rx="2.5" ry="2.5" style="stroke:#181818;stroke-width:0.5;" width="358" x="1045.5" y="446"/><ellipse cx="1180.75" cy="462" fill="#ADD1B2" rx="11" ry="11" style="stroke:#181818;stroke-width:1.0;"/><path d="M1183.5156,457.875 Q1183.6719,457.6563 1183.8594,457.5469 Q1184.0469,457.4375 1184.2656,457.4375 Q1184.6406,457.4375 1184.875,457.7031 Q1185.1094,457.9531 1185.1094,458.5625 L1185.1094,460.0156 Q1185.1094,460.625 1184.875,460.8906 Q1184.6406,461.1563 1184.2656,461.1563 Q1183.9219,461.1563 1183.7188,460.9531 Q1183.5156,460.7656 1183.4063,460.25 Q1183.3594,459.8906 1183.1719,459.7031 Q1182.8438,459.3281 1182.2344,459.1094 Q1181.625,458.8906 1181,458.8906 Q1180.2344,458.8906 1179.5938,459.2188 Q1178.9688,459.5469 1178.4688,460.2969 Q1177.9844,461.0469 1177.9844,462.0781 L1177.9844,463.1719 Q1177.9844,464.4063 1178.875,465.2344 Q1179.7656,466.0469 1181.3594,466.0469 Q1182.2969,466.0469 1182.9531,465.7969 Q1183.3438,465.6406 1183.7656,465.2031 Q1184.0313,464.9375 1184.1719,464.8594 Q1184.3281,464.7813 1184.5313,464.7813 Q1184.8594,464.7813 1185.1094,465.0469 Q1185.375,465.2969 1185.375,465.6406 Q1185.375,465.9844 1185.0313,466.3906 Q1184.5313,466.9688 1183.7344,467.2969 Q1182.6563,467.75 1181.3594,467.75 Q1179.8438,467.75 1178.6406,467.125 Q1177.6563,466.625 1176.9688,465.5625 Q1176.2813,464.4844 1176.2813,463.2031 L1176.2813,462.0469 Q1176.2813,460.7188 1176.8906,459.5781 Q1177.5156,458.4219 1178.6094,457.8125 Q1179.7031,457.1875 1180.9375,457.1875 Q1181.6719,457.1875 1182.3125,457.3594 Q1182.9688,457.5156 1183.5156,457.875 Z " fill="#000000"/><text fill="#000000" font-family="sans-serif" font-size="14" lengthAdjust="spacing" textLength="79" x="1201.25" y="467.7969">Repositories</text><line style="stroke:#181818;stroke-width:0.5;" x1="1046.5" x2="1402.5" y1="478" y2="478"/><line style="stroke:#181818;stroke-width:0.5;" x1="1046.5" x2="1402.5" y1="486" y2="486"/><text fill="#000000" font-family="sans-serif" font-size="14" lengthAdjust="spacing" textLength="182" x="1051.5" y="505.1074">+getInstance() : Repositories</text><text fill="#000000" font-family="sans-serif" font-size="14" lengthAdjust="spacing" textLength="346" x="1051.5" y="523.7285">+getGreenSpaceRepository() : GreenSpaceRepository</text><text fill="#000000" font-family="sans-serif" font-size="14" lengthAdjust="spacing" textLength="300" x="1051.5" y="542.3496">+getToDoListRepository() : ToDoListRepository</text></g><!--class AddEntryToDoListUI--><g id="elem_AddEntryToDoListUI"><rect codeLine="81" fill="#F1F1F1" height="345.9375" id="AddEntryToDoListUI" rx="2.5" ry="2.5" style="stroke:#181818;stroke-width:0.5;" width="293" x="680" y="21"/><ellipse cx="758.75" cy="37" fill="#ADD1B2" rx="11" ry="11" style="stroke:#181818;stroke-width:1.0;"/><path d="M761.5156,32.875 Q761.6719,32.6563 761.8594,32.5469 Q762.0469,32.4375 762.2656,32.4375 Q762.6406,32.4375 762.875,32.7031 Q763.1094,32.9531 763.1094,33.5625 L763.1094,35.0156 Q763.1094,35.625 762.875,35.8906 Q762.6406,36.1563 762.2656,36.1563 Q761.9219,36.1563 761.7188,35.9531 Q761.5156,35.7656 761.4063,35.25 Q761.3594,34.8906 761.1719,34.7031 Q760.8438,34.3281 760.2344,34.1094 Q759.625,33.8906 759,33.8906 Q758.2344,33.8906 757.5938,34.2188 Q756.9688,34.5469 756.4688,35.2969 Q755.9844,36.0469 755.9844,37.0781 L755.9844,38.1719 Q755.9844,39.4063 756.875,40.2344 Q757.7656,41.0469 759.3594,41.0469 Q760.2969,41.0469 760.9531,40.7969 Q761.3438,40.6406 761.7656,40.2031 Q762.0313,39.9375 762.1719,39.8594 Q762.3281,39.7813 762.5313,39.7813 Q762.8594,39.7813 763.1094,40.0469 Q763.375,40.2969 763.375,40.6406 Q763.375,40.9844 763.0313,41.3906 Q762.5313,41.9688 761.7344,42.2969 Q760.6563,42.75 759.3594,42.75 Q757.8438,42.75 756.6406,42.125 Q755.6563,41.625 754.9688,40.5625 Q754.2813,39.4844 754.2813,38.2031 L754.2813,37.0469 Q754.2813,35.7188 754.8906,34.5781 Q755.5156,33.4219 756.6094,32.8125 Q757.7031,32.1875 758.9375,32.1875 Q759.6719,32.1875 760.3125,32.3594 Q760.9688,32.5156 761.5156,32.875 Z " fill="#000000"/><text fill="#000000" font-family="sans-serif" font-size="14" lengthAdjust="spacing" textLength="127" x="779.25" y="42.7969">AddEntryToDoListUI</text><line style="stroke:#181818;stroke-width:0.5;" x1="681" x2="972" y1="53" y2="53"/><text fill="#000000" font-family="sans-serif" font-size="14" lengthAdjust="spacing" textLength="249" x="686" y="72.1074">-controller: AddEntryToDoListController</text><text fill="#000000" font-family="sans-serif" font-size="14" lengthAdjust="spacing" textLength="109" x="686" y="90.7285">-entryTitle: String</text><text fill="#000000" font-family="sans-serif" font-size="14" lengthAdjust="spacing" textLength="153" x="686" y="109.3496">-entryDescription: String</text><text fill="#000000" font-family="sans-serif" font-size="14" lengthAdjust="spacing" textLength="134" x="686" y="127.9707">-entryUrgency: String</text><text fill="#000000" font-family="sans-serif" font-size="14" lengthAdjust="spacing" textLength="136" x="686" y="146.5918">-entryDuration: String</text><text fill="#000000" font-family="sans-serif" font-size="14" lengthAdjust="spacing" textLength="241" x="686" y="165.2129">-associatedGreenSpace: GreenSpace</text><line style="stroke:#181818;stroke-width:0.5;" x1="681" x2="972" y1="172.7266" y2="172.7266"/><text fill="#000000" font-family="sans-serif" font-size="14" lengthAdjust="spacing" textLength="281" x="686" y="191.834">+AddEntryToDoListController getController()</text><text fill="#000000" font-family="sans-serif" font-size="14" lengthAdjust="spacing" textLength="69" x="686" y="210.4551">+void run()</text><text fill="#000000" font-family="sans-serif" font-size="14" lengthAdjust="spacing" textLength="119" x="686" y="229.0762">+void submitData()</text><text fill="#000000" font-family="sans-serif" font-size="14" lengthAdjust="spacing" textLength="126" x="686" y="247.6973">+void requestData()</text><text fill="#000000" font-family="sans-serif" font-size="14" lengthAdjust="spacing" textLength="167" x="686" y="266.3184">+String requestEntryTitle()</text><text fill="#000000" font-family="sans-serif" font-size="14" lengthAdjust="spacing" textLength="211" x="686" y="284.9395">+String requestEntryDescription()</text><text fill="#000000" font-family="sans-serif" font-size="14" lengthAdjust="spacing" textLength="192" x="686" y="303.5605">+String requestEntryUrgency()</text><text fill="#000000" font-family="sans-serif" font-size="14" lengthAdjust="spacing" textLength="194" x="686" y="322.1816">+String requestEntryDuration()</text><text fill="#000000" font-family="sans-serif" font-size="14" lengthAdjust="spacing" textLength="242" x="686" y="340.8027">+GreenSpace associateGreenSpace()</text><text fill="#000000" font-family="sans-serif" font-size="14" lengthAdjust="spacing" textLength="190" x="686" y="359.4238">+int readInput(int min, int max)</text></g><!--class AddEntryToDoListController--><g id="elem_AddEntryToDoListController"><rect codeLine="100" fill="#F1F1F1" height="215.5898" id="AddEntryToDoListController" rx="2.5" ry="2.5" style="stroke:#181818;stroke-width:0.5;" width="1088" x="1008.5" y="86"/><ellipse cx="1459.75" cy="102" fill="#ADD1B2" rx="11" ry="11" style="stroke:#181818;stroke-width:1.0;"/><path d="M1462.5156,97.875 Q1462.6719,97.6563 1462.8594,97.5469 Q1463.0469,97.4375 1463.2656,97.4375 Q1463.6406,97.4375 1463.875,97.7031 Q1464.1094,97.9531 1464.1094,98.5625 L1464.1094,100.0156 Q1464.1094,100.625 1463.875,100.8906 Q1463.6406,101.1563 1463.2656,101.1563 Q1462.9219,101.1563 1462.7188,100.9531 Q1462.5156,100.7656 1462.4063,100.25 Q1462.3594,99.8906 1462.1719,99.7031 Q1461.8438,99.3281 1461.2344,99.1094 Q1460.625,98.8906 1460,98.8906 Q1459.2344,98.8906 1458.5938,99.2188 Q1457.9688,99.5469 1457.4688,100.2969 Q1456.9844,101.0469 1456.9844,102.0781 L1456.9844,103.1719 Q1456.9844,104.4063 1457.875,105.2344 Q1458.7656,106.0469 1460.3594,106.0469 Q1461.2969,106.0469 1461.9531,105.7969 Q1462.3438,105.6406 1462.7656,105.2031 Q1463.0313,104.9375 1463.1719,104.8594 Q1463.3281,104.7813 1463.5313,104.7813 Q1463.8594,104.7813 1464.1094,105.0469 Q1464.375,105.2969 1464.375,105.6406 Q1464.375,105.9844 1464.0313,106.3906 Q1463.5313,106.9688 1462.7344,107.2969 Q1461.6563,107.75 1460.3594,107.75 Q1458.8438,107.75 1457.6406,107.125 Q1456.6563,106.625 1455.9688,105.5625 Q1455.2813,104.4844 1455.2813,103.2031 L1455.2813,102.0469 Q1455.2813,100.7188 1455.8906,99.5781 Q1456.5156,98.4219 1457.6094,97.8125 Q1458.7031,97.1875 1459.9375,97.1875 Q1460.6719,97.1875 1461.3125,97.3594 Q1461.9688,97.5156 1462.5156,97.875 Z " fill="#000000"/><text fill="#000000" font-family="sans-serif" font-size="14" lengthAdjust="spacing" textLength="177" x="1480.25" y="107.7969">AddEntryToDoListController</text><line style="stroke:#181818;stroke-width:0.5;" x1="1009.5" x2="2095.5" y1="118" y2="118"/><text fill="#000000" font-family="sans-serif" font-size="14" lengthAdjust="spacing" textLength="306" x="1014.5" y="137.1074">-greenSpaceRepository: GreenSpaceRepository</text><text fill="#000000" font-family="sans-serif" font-size="14" lengthAdjust="spacing" textLength="258" x="1014.5" y="155.7285">-toDoListRepository: ToDoListRepository</text><text fill="#000000" font-family="sans-serif" font-size="14" lengthAdjust="spacing" textLength="328" x="1014.5" y="174.3496">-authenticationRepository: AuthenticationRepository</text><line style="stroke:#181818;stroke-width:0.5;" x1="1009.5" x2="2095.5" y1="181.8633" y2="181.8633"/><text fill="#000000" font-family="sans-serif" font-size="14" lengthAdjust="spacing" textLength="1076" x="1014.5" y="200.9707">+AddEntryToDoListController(GreenSpaceRepository greenSpaceRepository, ToDoListRepository toDoListRepository, AuthenticationRepository authenticationRepository)</text><text fill="#000000" font-family="sans-serif" font-size="14" lengthAdjust="spacing" textLength="338" x="1014.5" y="219.5918">+GreenSpaceRepository getGreenSpaceRepository()</text><text fill="#000000" font-family="sans-serif" font-size="14" lengthAdjust="spacing" textLength="292" x="1014.5" y="238.2129">+ToDoListRepository getToDoListRepository()</text><text fill="#000000" font-family="sans-serif" font-size="14" lengthAdjust="spacing" textLength="358" x="1014.5" y="256.834">+AuthenticationRepository getAuthenticationRepository()</text><text fill="#000000" font-family="sans-serif" font-size="14" lengthAdjust="spacing" textLength="618" x="1014.5" y="275.4551">+Optional&lt;TDLEntry&gt; addEntry(String title, String taskDescription, String urgency, String duration)</text><text fill="#000000" font-family="sans-serif" font-size="14" lengthAdjust="spacing" textLength="187" x="1014.5" y="294.0762">+GSM getGSMFromSession()</text></g><g id="elem_GMN12"><path d="M6,171.5 L6,216.082 L265,216.082 L265,181.5 L255,171.5 L6,171.5 " fill="#FEFFDD" style="stroke:#181818;stroke-width:0.5;"/><path d="M255,171.5 L255,181.5 L265,181.5 L255,171.5 " fill="#FEFFDD" style="stroke:#181818;stroke-width:1.0;"/><text fill="#000000" font-family="sans-serif" font-size="13" lengthAdjust="spacing" textLength="238" x="12" y="190.5283">- TDLEntry data is read from GSM's input</text><text fill="#000000" font-family="sans-serif" font-size="13" lengthAdjust="spacing" textLength="133" x="12" y="207.8193">- Updates the ToDoList</text></g><g id="elem_GMN15"><path d="M300,163 L300,224.873 A0,0 0 0 0 300,224.873 L645,224.873 A0,0 0 0 0 645,224.873 L645,198 L679.96,194 L645,190 L645,173 L635,163 L300,163 A0,0 0 0 0 300,163 " fill="#FEFFDD" style="stroke:#181818;stroke-width:0.5;"/><path d="M635,163 L635,173 L645,173 L635,163 " fill="#FEFFDD" style="stroke:#181818;stroke-width:0.5;"/><text fill="#000000" font-family="sans-serif" font-size="13" lengthAdjust="spacing" textLength="247" x="306" y="182.0283">- UI for GSM to add entries to the ToDoList</text><text fill="#000000" font-family="sans-serif" font-size="13" lengthAdjust="spacing" textLength="286" x="306" y="199.3193">- Communicates with AddEntryToDoListController</text><text fill="#000000" font-family="sans-serif" font-size="13" lengthAdjust="spacing" textLength="324" x="306" y="216.6104">- Receives repositories from AddEntryToDoListController</text></g><g id="elem_GMN18"><path d="M1483.5,1443.5 L1483.5,1470.791 L1739.5,1470.791 L1739.5,1453.5 L1729.5,1443.5 L1483.5,1443.5 " fill="#FEFFDD" style="stroke:#181818;stroke-width:0.5;"/><path d="M1729.5,1443.5 L1729.5,1453.5 L1739.5,1453.5 L1729.5,1443.5 " fill="#FEFFDD" style="stroke:#181818;stroke-width:1.0;"/><text fill="#000000" font-family="sans-serif" font-size="13" lengthAdjust="spacing" textLength="235" x="1489.5" y="1462.5283">- Registered by the GSM in the ToDoList</text></g><!--link GMN12 to AddEntryToDoListController--><g id="link_GMN12_AddEntryToDoListController"><path d="M154.72,171.38 C194.56,124.49 282.5,21 282.5,21 C282.5,21 300,6 300,6 C300,6 973,6 973,6 C973,6 1090.2,44.02 1219.18,85.87 " fill="none" id="GMN12-AddEntryToDoListController" style="stroke:#181818;stroke-width:1.0;stroke-dasharray:7.0,7.0;"/></g><!--link TDLEntry to GMN18--><g id="link_TDLEntry_GMN18"><path d="M1448.58,1457 C1463.54,1457 1473.83,1457 1473.83,1457 C1473.83,1457 1477.36,1457 1483.3,1457 " fill="none" id="TDLEntry-GMN18" style="stroke:#181818;stroke-width:1.0;stroke-dasharray:7.0,7.0;"/></g><!--link ToDoList to TDLEntry--><g id="link_ToDoList_TDLEntry"><path codeLine="127" d="M1368.58,1027.39 C1335.15,1137.13 1282.5,1310 1282.5,1310 C1282.5,1310 1278.3818,1317.1591 1268.2918,1334.6991 " fill="none" id="ToDoList-to-TDLEntry" style="stroke:#181818;stroke-width:1.0;"/><polygon fill="#181818" points="1265.3,1339.9,1273.255,1334.0933,1267.7932,1335.5659,1266.3205,1330.1042,1265.3,1339.9" style="stroke:#181818;stroke-width:1.0;"/><text fill="#000000" font-family="sans-serif" font-size="13" lengthAdjust="spacing" textLength="37" x="1360.5" y="1189.0283">shows</text></g><!--link GreenSpace to TDLEntry--><g id="link_GreenSpace_TDLEntry"><path codeLine="128" d="M1141.62,1310.32 C1145.47,1320.16 1147.1571,1324.4912 1150.9771,1334.2712 " fill="none" id="GreenSpace-to-TDLEntry" style="stroke:#181818;stroke-width:1.0;"/><polygon fill="#181818" points="1153.16,1339.86,1153.6114,1330.0215,1151.3409,1335.2027,1146.1597,1332.9321,1153.16,1339.86" style="stroke:#181818;stroke-width:1.0;"/><text fill="#000000" font-family="sans-serif" font-size="13" lengthAdjust="spacing" textLength="78" x="1068.39" y="1321.1183">associated to</text></g><!--link Repositories to Repositories--><g id="link_Repositories_Repositories"><path codeLine="130" d="M1403.63,483.55 C1424.74,486.2 1438.5,491.01 1438.5,498 C1438.5,504.99 1430.6933,509.0527 1409.5833,511.7027 " fill="none" id="Repositories-to-Repositories" style="stroke:#181818;stroke-width:1.0;"/><polygon fill="#181818" points="1403.63,512.45,1413.0581,515.2979,1408.5911,511.8272,1412.0617,507.3602,1403.63,512.45" style="stroke:#181818;stroke-width:1.0;"/><text fill="#000000" font-family="sans-serif" font-size="13" lengthAdjust="spacing" textLength="49" x="1444.5" y="503.5283">instance</text></g><!--link ApplicationSession to ApplicationSession--><g id="link_ApplicationSession_ApplicationSession"><path codeLine="131" d="M1922.16,481.29 C1942,482.28 1957,487.85 1957,498 C1957,508.15 1947.9925,513.421 1928.1525,514.411 " fill="none" id="ApplicationSession-to-ApplicationSession" style="stroke:#181818;stroke-width:1.0;"/><polygon fill="#181818" points="1922.16,514.71,1931.3482,518.2565,1927.1538,514.4608,1930.9495,510.2664,1922.16,514.71" style="stroke:#181818;stroke-width:1.0;"/><text fill="#000000" font-family="sans-serif" font-size="13" lengthAdjust="spacing" textLength="49" x="1963" y="503.5283">instance</text></g><!--link AddEntryToDoListUI to AddEntryToDoListController--><g id="link_AddEntryToDoListUI_AddEntryToDoListController"><path codeLine="133" d="M973.2,194 C985.51,194 991.45,194 1002.47,194 " fill="none" id="AddEntryToDoListUI-to-AddEntryToDoListController" style="stroke:#181818;stroke-width:1.0;stroke-dasharray:7.0,7.0;"/><polygon fill="#181818" points="1008.47,194,999.47,190,1003.47,194,999.47,198,1008.47,194" style="stroke:#181818;stroke-width:1.0;"/></g><!--link AddEntryToDoListController to Repositories--><g id="link_AddEntryToDoListController_Repositories"><path codeLine="135" d="M1435.94,302.32 C1382.91,351.15 1327.0432,402.5751 1284.4632,441.7951 " fill="none" id="AddEntryToDoListController-to-Repositories" style="stroke:#181818;stroke-width:1.0;"/><polygon fill="#181818" points="1280.05,445.86,1289.3797,442.7047,1283.7277,442.4725,1283.9598,436.8205,1280.05,445.86" style="stroke:#181818;stroke-width:1.0;"/><text fill="#000000" font-family="sans-serif" font-size="13" lengthAdjust="spacing" textLength="108" x="1332.5" y="412.0283">retrieves instances</text></g><!--link Repositories to GreenSpaceRepository--><g id="link_Repositories_GreenSpaceRepository"><path codeLine="137" d="M1156.34,550.12 C1124.4,574.07 1090.6595,599.3793 1056.1095,625.2993 " fill="none" id="Repositories-to-GreenSpaceRepository" style="stroke:#181818;stroke-width:1.0;"/><polygon fill="#181818" points="1051.31,628.9,1060.9097,626.6987,1055.3096,625.8994,1056.1088,620.2993,1051.31,628.9" style="stroke:#181818;stroke-width:1.0;"/><text fill="#000000" font-family="sans-serif" font-size="13" lengthAdjust="spacing" textLength="56" x="1116.5" y="595.0283">accesses</text></g><!--link Repositories to ToDoListRepository--><g id="link_Repositories_ToDoListRepository"><path codeLine="138" d="M1280.1,550.12 C1306.09,574.01 1333.0329,598.7793 1361.1729,624.6493 " fill="none" id="Repositories-to-ToDoListRepository" style="stroke:#181818;stroke-width:1.0;"/><polygon fill="#181818" points="1365.59,628.71,1361.6716,619.6742,1361.9091,625.326,1356.2573,625.5636,1365.59,628.71" style="stroke:#181818;stroke-width:1.0;"/><text fill="#000000" font-family="sans-serif" font-size="13" lengthAdjust="spacing" textLength="56" x="1334.5" y="595.0283">accesses</text></g><!--link AddEntryToDoListController to GreenSpaceRepository--><g id="link_AddEntryToDoListController_GreenSpaceRepository"><path codeLine="140" d="M1271.54,302.17 C1092.7,370.4 894.5,446 894.5,446 C894.5,446 894.5,550 894.5,550 C894.5,550 909.3954,584.5699 925.9954,623.0899 " fill="none" id="AddEntryToDoListController-to-GreenSpaceRepository" style="stroke:#181818;stroke-width:1.0;stroke-dasharray:7.0,7.0;"/><polygon fill="#181818" points="928.37,628.6,928.4816,618.7518,926.3912,624.0082,921.1347,621.9179,928.37,628.6" style="stroke:#181818;stroke-width:1.0;"/><text fill="#000000" font-family="sans-serif" font-size="13" lengthAdjust="spacing" textLength="131" x="895.5" y="503.5283">greenSpaceRepository</text></g><!--link AddEntryToDoListController to ToDoListRepository--><g id="link_AddEntryToDoListController_ToDoListRepository"><path codeLine="142" d="M1536.45,302.48 C1520.86,406.96 1499.5,550 1499.5,550 C1499.5,550 1486.0335,584.4914 1470.9835,623.0114 " fill="none" id="AddEntryToDoListController-to-ToDoListRepository" style="stroke:#181818;stroke-width:1.0;stroke-dasharray:7.0,7.0;"/><polygon fill="#181818" points="1468.8,628.6,1475.801,621.6728,1470.6196,623.9428,1468.3495,618.7615,1468.8,628.6" style="stroke:#181818;stroke-width:1.0;"/><text fill="#000000" font-family="sans-serif" font-size="13" lengthAdjust="spacing" textLength="110" x="1516.5" y="503.5283">toDoListRepository</text></g><!--link ApplicationSession to UserSession--><g id="link_ApplicationSession_UserSession"><path codeLine="144" d="M1829.31,540.82 C1814,578.07 1794.1912,626.2606 1780.1612,660.3906 " fill="none" id="ApplicationSession-to-UserSession" style="stroke:#181818;stroke-width:1.0;"/><polygon fill="#181818" points="1777.88,665.94,1785.0015,659.1367,1779.781,661.3155,1777.6022,656.0951,1777.88,665.94" style="stroke:#181818;stroke-width:1.0;"/><text fill="#000000" font-family="sans-serif" font-size="13" lengthAdjust="spacing" textLength="72" x="1813.5" y="595.0283">userSession</text><text fill="#000000" font-family="sans-serif" font-size="13" lengthAdjust="spacing" textLength="7" x="1772.8251" y="654.7537">1</text></g><!--link AddEntryToDoListController to ApplicationSession--><g id="link_AddEntryToDoListController_ApplicationSession"><path codeLine="146" d="M1656.98,302.32 C1708.48,355.22 1763.4051,411.6404 1801.7251,451.0104 " fill="none" id="AddEntryToDoListController-to-ApplicationSession" style="stroke:#181818;stroke-width:1.0;stroke-dasharray:7.0,7.0;"/><polygon fill="#181818" points="1805.91,455.31,1802.499,446.0707,1802.4226,451.727,1796.7662,451.6506,1805.91,455.31" style="stroke:#181818;stroke-width:1.0;"/></g><!--link AddEntryToDoListController to UserSession--><g id="link_AddEntryToDoListController_UserSession"><path codeLine="147" d="M1597.59,302.09 C1646.1,417.3 1718.0417,588.1502 1748.4617,660.4002 " fill="none" id="AddEntryToDoListController-to-UserSession" style="stroke:#181818;stroke-width:1.0;stroke-dasharray:7.0,7.0;"/><polygon fill="#181818" points="1750.79,665.93,1750.9842,656.0831,1748.8498,661.3218,1743.611,659.1874,1750.79,665.93" style="stroke:#181818;stroke-width:1.0;"/></g><!--link GreenSpaceRepository to GreenSpace--><g id="link_GreenSpaceRepository_GreenSpace"><path codeLine="149" d="M977.84,770.07 C998.64,844.89 1030.5432,959.6392 1055.9732,1051.1292 " fill="none" id="GreenSpaceRepository-to-GreenSpace" style="stroke:#181818;stroke-width:1.0;stroke-dasharray:7.0,7.0;"/><polygon fill="#181818" points="1057.58,1056.91,1059.0237,1047.1675,1056.241,1052.0926,1051.3159,1049.3099,1057.58,1056.91" style="stroke:#181818;stroke-width:1.0;"/><text fill="#000000" font-family="sans-serif" font-size="13" lengthAdjust="spacing" textLength="36" x="991.5" y="815.0283">stores</text></g><!--link ToDoListRepository to ToDoList--><g id="link_ToDoListRepository_ToDoList"><path codeLine="150" d="M1427.95,770.18 C1423.15,794.84 1418.8366,817.0206 1413.7766,843.0106 " fill="none" id="ToDoListRepository-to-ToDoList" style="stroke:#181818;stroke-width:1.0;stroke-dasharray:7.0,7.0;"/><polygon fill="#181818" points="1412.63,848.9,1418.2762,840.8303,1413.5855,843.9921,1410.4236,839.3015,1412.63,848.9" style="stroke:#181818;stroke-width:1.0;"/><text fill="#000000" font-family="sans-serif" font-size="13" lengthAdjust="spacing" textLength="36" x="1422.5" y="815.0283">stores</text></g><!--SRC=[hLTHR-Cs37xthn3kfJuqARRNO2YGjRr3WBiLk3G_GB4PHwijUPBSBXlstqV9aYp7ShB3Ba-Ho8yYFrAaTQDU6M-ff0rf11V5KOe6Y9OTP8EafSKhhM2hJpKG2OMclAfZ1NMafNXdl287MgjOKZCE-jG2QKLzCeli9Y4KKeiiGXKrLMgjjMJxJiEc47pB_WBoKvRTr73GH0iYMNNKf6J67IPubbaCMRTjpGfgjhQWb97ydH7ytHAbSRiW5UWDn_-yWFoZ4-7UGoSbSEr0AFd7czmfaEUs462sdnhAwbZtimJWM-GBIA-w99msi29RZ8LNRil4VBP59T0LAKMtHsBxCmPRUQzgJIqSpXfPE8I5-s3U12l96wrPIJKCHdv3S6peYleBci-Zewwehz61FE7CNeWQA2VmHuULaJ_lVyTy4U75Z6jofEhu8CeX6n69HItu8F36c7e-JCC9INXv_FB4jJo556YcwqaEg7fz15L8rffYEPDsiW9UdCvsoqxIX3AUAGg6T9I3vwie2kUzTokmQhmQqZds9-mxJyBQ-t3E2IsZq_E8mYhy_Jyv2PpwZ0niYqVnXIaTsCPR91ce5J6xltZWlPDMga5kjb-zNOVEnyhUoCAe6amYt9vCetXwwQcq_qSasfsTfx2Npn3uOzWOYFy6hL1C2rU7ovwEGNuVPKPbnkgpTPhM8oK95U90Vcyt637ttMKo0APN_H9g6YFeOMaJdIYTD5LUUe_jll-dpaC9rHEAqAj6xWnsq1c_K7cl4O2HxDSJKfVFqNVfp11PY0XhsCPqEvuxP3LIyGgfwh7AAO47JLcqaEdsuDxQtHwliziuud7IQYdg6kHgelGGP9c_vlt5YzhXSd87fyBTfBSknpTp9FaFpVNsWgjsj8ULIxgTORBZyL9r-uRfHwhfI0cx0gXuszqt9tWA9CoB8pBcbHmf5wmuSfn6T0S3Gz4LxPLCxy9MK6vus-dSh1g6JT7-eNz-dA-7YB- -Bgf4_SrMvJBSY5WvKOyslvq-OlRTDriCMCz8hcGyJxRWL02BL0EQkhwOzMJM-VCSnOxCtV9HEne3KZUyPs7ECGJDoHmq39jXveQP-iC-K6xx8OGXRxz-mfV5wEkQ2mt4ViwBmxLc4mOkZYAAtt-shCa1JPeJRXJMD9QuLTsrPbmfWj47EZFW9J7dNJbrj-bDRCX1IEixlZIG5lyvOfOZkqRxGJHDnmtFgF3EzF5QCD-W0FO69eXeIjXWBY3FGkZVFnY3foQpblkF1IZ9_cGzDJ4mFaT6667BvNqmjCBdd7XNMTHYHjAX8nFpQXkDEbGShLTuU3_pikdBp6WdTYDCbXXKT_UNMCekjB8blb7vr4C99hSc7_vSTHwL0oOlD19I84GXAWbANEa8SidVkxlP8rFjxAgjf2VJVfSbKuMHVFZvG_mOHd0NFOsldPvucLz1n0_lB4d4c24iNDn5KXE1nl47lUnV]--></g></svg>