<?xml version="1.0" encoding="us-ascii" standalone="no"?><svg xmlns="http://www.w3.org/2000/svg" xmlns:xlink="http://www.w3.org/1999/xlink" contentStyleType="text/css" height="1171px" preserveAspectRatio="none" style="width:1673px;height:1171px;background:#FFFFFF;" version="1.1" viewBox="0 0 1673 1171" width="1673px" zoomAndPan="magnify"><defs/><g><rect fill="#FFFFFF" height="976.4004" style="stroke:#181818;stroke-width:1.0;" width="10" x="78.5" y="93.6211"/><rect fill="#FFFFFF" height="387.8223" style="stroke:#181818;stroke-width:1.0;" width="10" x="486.5" y="116.9121"/><rect fill="#FFFFFF" height="48.582" style="stroke:#181818;stroke-width:1.0;" width="10" x="486.5" y="536.0254"/><rect fill="#FFFFFF" height="31.291" style="stroke:#181818;stroke-width:1.0;" width="10" x="486.5" y="615.8984"/><rect fill="#FFFFFF" height="391.541" style="stroke:#181818;stroke-width:1.0;" width="10" x="486.5" y="678.4805"/><rect fill="#FFFFFF" height="315.2402" style="stroke:#181818;stroke-width:1.0;" width="10" x="918.5" y="158.2031"/><rect fill="#FFFFFF" height="369.25" style="stroke:#181818;stroke-width:1.0;" width="10" x="918.5" y="709.7715"/><rect fill="#FFFFFF" height="90.543" style="stroke:#181818;stroke-width:1.0;" width="10" x="923.5" y="774.0625"/><rect fill="#FFFFFF" height="31.291" style="stroke:#181818;stroke-width:1.0;" width="10" x="1093.5" y="191.8242"/><rect fill="#FFFFFF" height="31.291" style="stroke:#181818;stroke-width:1.0;" width="10" x="1200.5" y="254.4063"/><rect fill="#FFFFFF" height="31.291" style="stroke:#181818;stroke-width:1.0;" width="10" x="1200.5" y="316.9883"/><rect fill="#FFFFFF" height="31.291" style="stroke:#181818;stroke-width:1.0;" width="10" x="1342" y="410.8613"/><rect fill="#FFFFFF" height="31.291" style="stroke:#181818;stroke-width:1.0;" width="10" x="1506.5" y="927.8965"/><rect fill="#FFFFFF" height="88.543" style="stroke:#181818;stroke-width:1.0;" width="10" x="1623.5" y="990.4785"/><line style="stroke:#181818;stroke-width:0.5;stroke-dasharray:5.0,5.0;" x1="83" x2="83" y1="83.6211" y2="1088.0215"/><line style="stroke:#181818;stroke-width:0.5;stroke-dasharray:5.0,5.0;" x1="491" x2="491" y1="83.6211" y2="1088.0215"/><line style="stroke:#181818;stroke-width:0.5;stroke-dasharray:5.0,5.0;" x1="923" x2="923" y1="156.7227" y2="1088.0215"/><line style="stroke:#181818;stroke-width:0.5;stroke-dasharray:5.0,5.0;" x1="1098" x2="1098" y1="83.6211" y2="1088.0215"/><line style="stroke:#181818;stroke-width:0.5;stroke-dasharray:5.0,5.0;" x1="1205" x2="1205" y1="83.6211" y2="1088.0215"/><line style="stroke:#181818;stroke-width:0.5;stroke-dasharray:5.0,5.0;" x1="1347" x2="1347" y1="83.6211" y2="1088.0215"/><line style="stroke:#181818;stroke-width:0.5;stroke-dasharray:5.0,5.0;" x1="1511" x2="1511" y1="83.6211" y2="1088.0215"/><line style="stroke:#181818;stroke-width:0.5;stroke-dasharray:5.0,5.0;" x1="1628" x2="1628" y1="83.6211" y2="1088.0215"/><text fill="#000000" font-family="sans-serif" font-size="14" lengthAdjust="spacing" textLength="151" x="5" y="80.1074">Green Spaces Manager</text><ellipse cx="83.5" cy="13.5" fill="#E3E3E3" rx="8" ry="8" style="stroke:#181818;stroke-width:0.5;"/><path d="M83.5,21.5 L83.5,48.5 M70.5,29.5 L96.5,29.5 M83.5,48.5 L70.5,63.5 M83.5,48.5 L96.5,63.5 " fill="none" style="stroke:#181818;stroke-width:0.5;"/><text fill="#000000" font-family="sans-serif" font-size="14" lengthAdjust="spacing" textLength="151" x="5" y="1102.1289">Green Spaces Manager</text><ellipse cx="83.5" cy="1114.1426" fill="#E3E3E3" rx="8" ry="8" style="stroke:#181818;stroke-width:0.5;"/><path d="M83.5,1122.1426 L83.5,1149.1426 M70.5,1130.1426 L96.5,1130.1426 M83.5,1149.1426 L70.5,1164.1426 M83.5,1149.1426 L96.5,1164.1426 " fill="none" style="stroke:#181818;stroke-width:0.5;"/><rect fill="#E3E3E3" height="32.6211" rx="2.5" ry="2.5" style="stroke:#181818;stroke-width:0.5;" width="145" x="419" y="50"/><text fill="#000000" font-family="sans-serif" font-size="14" lengthAdjust="spacing" textLength="131" x="426" y="72.1074">:AddEntryToDoListUI</text><rect fill="#E3E3E3" height="32.6211" rx="2.5" ry="2.5" style="stroke:#181818;stroke-width:0.5;" width="145" x="419" y="1087.0215"/><text fill="#000000" font-family="sans-serif" font-size="14" lengthAdjust="spacing" textLength="131" x="426" y="1109.1289">:AddEntryToDoListUI</text><rect fill="#E3E3E3" height="32.6211" rx="2.5" ry="2.5" style="stroke:#181818;stroke-width:0.5;" width="195" x="826" y="1087.0215"/><text fill="#000000" font-family="sans-serif" font-size="14" lengthAdjust="spacing" textLength="181" x="833" y="1109.1289">:AddEntryToDoListController</text><rect fill="#E3E3E3" height="32.6211" rx="2.5" ry="2.5" style="stroke:#181818;stroke-width:0.5;" width="97" x="1050" y="50"/><text fill="#000000" font-family="sans-serif" font-size="14" lengthAdjust="spacing" textLength="83" x="1057" y="72.1074">:Repositories</text><rect fill="#E3E3E3" height="32.6211" rx="2.5" ry="2.5" style="stroke:#181818;stroke-width:0.5;" width="97" x="1050" y="1087.0215"/><text fill="#000000" font-family="sans-serif" font-size="14" lengthAdjust="spacing" textLength="83" x="1057" y="1109.1289">:Repositories</text><rect fill="#E3E3E3" height="51.2422" rx="2.5" ry="2.5" style="stroke:#181818;stroke-width:0.5;" width="97" x="1157" y="31.3789"/><text fill="#000000" font-family="sans-serif" font-size="14" lengthAdjust="spacing" textLength="74" x="1168.5" y="53.4863">repositories</text><text fill="#000000" font-family="sans-serif" font-size="14" lengthAdjust="spacing" textLength="83" x="1164" y="72.1074">:Repositories</text><rect fill="#E3E3E3" height="51.2422" rx="2.5" ry="2.5" style="stroke:#181818;stroke-width:0.5;" width="97" x="1157" y="1087.0215"/><text fill="#000000" font-family="sans-serif" font-size="14" lengthAdjust="spacing" textLength="74" x="1168.5" y="1109.1289">repositories</text><text fill="#000000" font-family="sans-serif" font-size="14" lengthAdjust="spacing" textLength="83" x="1164" y="1127.75">:Repositories</text><rect fill="#E3E3E3" height="51.2422" rx="2.5" ry="2.5" style="stroke:#181818;stroke-width:0.5;" width="166" x="1264" y="31.3789"/><text fill="#000000" font-family="sans-serif" font-size="14" lengthAdjust="spacing" textLength="145" x="1274.5" y="53.4863">greenSpaceRepository</text><text fill="#000000" font-family="sans-serif" font-size="14" lengthAdjust="spacing" textLength="152" x="1271" y="72.1074">:GreenSpaceRepository</text><rect fill="#E3E3E3" height="51.2422" rx="2.5" ry="2.5" style="stroke:#181818;stroke-width:0.5;" width="166" x="1264" y="1087.0215"/><text fill="#000000" font-family="sans-serif" font-size="14" lengthAdjust="spacing" textLength="145" x="1274.5" y="1109.1289">greenSpaceRepository</text><text fill="#000000" font-family="sans-serif" font-size="14" lengthAdjust="spacing" textLength="152" x="1271" y="1127.75">:GreenSpaceRepository</text><rect fill="#E3E3E3" height="51.2422" rx="2.5" ry="2.5" style="stroke:#181818;stroke-width:0.5;" width="143" x="1440" y="31.3789"/><text fill="#000000" font-family="sans-serif" font-size="14" lengthAdjust="spacing" textLength="120" x="1451.5" y="53.4863">toDoListRepository</text><text fill="#000000" font-family="sans-serif" font-size="14" lengthAdjust="spacing" textLength="129" x="1447" y="72.1074">:ToDoListRepository</text><rect fill="#E3E3E3" height="51.2422" rx="2.5" ry="2.5" style="stroke:#181818;stroke-width:0.5;" width="143" x="1440" y="1087.0215"/><text fill="#000000" font-family="sans-serif" font-size="14" lengthAdjust="spacing" textLength="120" x="1451.5" y="1109.1289">toDoListRepository</text><text fill="#000000" font-family="sans-serif" font-size="14" lengthAdjust="spacing" textLength="129" x="1447" y="1127.75">:ToDoListRepository</text><rect fill="#E3E3E3" height="32.6211" rx="2.5" ry="2.5" style="stroke:#181818;stroke-width:0.5;" width="71" x="1593" y="50"/><text fill="#000000" font-family="sans-serif" font-size="14" lengthAdjust="spacing" textLength="57" x="1600" y="72.1074">ToDoList</text><rect fill="#E3E3E3" height="32.6211" rx="2.5" ry="2.5" style="stroke:#181818;stroke-width:0.5;" width="71" x="1593" y="1087.0215"/><text fill="#000000" font-family="sans-serif" font-size="14" lengthAdjust="spacing" textLength="57" x="1600" y="1109.1289">ToDoList</text><rect fill="#FFFFFF" height="976.4004" style="stroke:#181818;stroke-width:1.0;" width="10" x="78.5" y="93.6211"/><rect fill="#FFFFFF" height="387.8223" style="stroke:#181818;stroke-width:1.0;" width="10" x="486.5" y="116.9121"/><rect fill="#FFFFFF" height="48.582" style="stroke:#181818;stroke-width:1.0;" width="10" x="486.5" y="536.0254"/><rect fill="#FFFFFF" height="31.291" style="stroke:#181818;stroke-width:1.0;" width="10" x="486.5" y="615.8984"/><rect fill="#FFFFFF" height="391.541" style="stroke:#181818;stroke-width:1.0;" width="10" x="486.5" y="678.4805"/><rect fill="#FFFFFF" height="315.2402" style="stroke:#181818;stroke-width:1.0;" width="10" x="918.5" y="158.2031"/><rect fill="#FFFFFF" height="369.25" style="stroke:#181818;stroke-width:1.0;" width="10" x="918.5" y="709.7715"/><rect fill="#FFFFFF" height="90.543" style="stroke:#181818;stroke-width:1.0;" width="10" x="923.5" y="774.0625"/><rect fill="#FFFFFF" height="31.291" style="stroke:#181818;stroke-width:1.0;" width="10" x="1093.5" y="191.8242"/><rect fill="#FFFFFF" height="31.291" style="stroke:#181818;stroke-width:1.0;" width="10" x="1200.5" y="254.4063"/><rect fill="#FFFFFF" height="31.291" style="stroke:#181818;stroke-width:1.0;" width="10" x="1200.5" y="316.9883"/><rect fill="#FFFFFF" height="31.291" style="stroke:#181818;stroke-width:1.0;" width="10" x="1342" y="410.8613"/><rect fill="#FFFFFF" height="31.291" style="stroke:#181818;stroke-width:1.0;" width="10" x="1506.5" y="927.8965"/><rect fill="#FFFFFF" height="88.543" style="stroke:#181818;stroke-width:1.0;" width="10" x="1623.5" y="990.4785"/><polygon fill="#181818" points="474.5,112.9121,484.5,116.9121,474.5,120.9121,478.5,116.9121" style="stroke:#181818;stroke-width:1.0;"/><line style="stroke:#181818;stroke-width:1.0;" x1="88.5" x2="480.5" y1="116.9121" y2="116.9121"/><text fill="#000000" font-family="sans-serif" font-size="13" font-weight="bold" lengthAdjust="spacing" textLength="7" x="95.5" y="111.6494">1</text><text fill="#000000" font-family="sans-serif" font-size="13" lengthAdjust="spacing" textLength="239" x="106.5" y="111.6494">asks to add a new entry to the To-Do List</text><polygon fill="#181818" points="814,144.2031,824,148.2031,814,152.2031,818,148.2031" style="stroke:#181818;stroke-width:1.0;"/><line style="stroke:#181818;stroke-width:1.0;" x1="496.5" x2="820" y1="148.2031" y2="148.2031"/><text fill="#000000" font-family="sans-serif" font-size="13" font-weight="bold" lengthAdjust="spacing" textLength="7" x="503.5" y="142.9404">2</text><text fill="#000000" font-family="sans-serif" font-size="13" lengthAdjust="spacing" textLength="36" x="514.5" y="142.9404">create</text><rect fill="#E3E3E3" height="32.6211" rx="2.5" ry="2.5" style="stroke:#181818;stroke-width:0.5;" width="195" x="826" y="124.9121"/><text fill="#000000" font-family="sans-serif" font-size="14" lengthAdjust="spacing" textLength="181" x="833" y="147.0195">:AddEntryToDoListController</text><polygon fill="#181818" points="1081.5,187.8242,1091.5,191.8242,1081.5,195.8242,1085.5,191.8242" style="stroke:#181818;stroke-width:1.0;"/><line style="stroke:#181818;stroke-width:1.0;" x1="928.5" x2="1087.5" y1="191.8242" y2="191.8242"/><text fill="#000000" font-family="sans-serif" font-size="13" font-weight="bold" lengthAdjust="spacing" textLength="7" x="935.5" y="186.5615">3</text><text fill="#000000" font-family="sans-serif" font-size="13" lengthAdjust="spacing" textLength="75" x="946.5" y="186.5615">getInstance()</text><polygon fill="#181818" points="939.5,219.1152,929.5,223.1152,939.5,227.1152,935.5,223.1152" style="stroke:#181818;stroke-width:1.0;"/><line style="stroke:#181818;stroke-width:1.0;stroke-dasharray:2.0,2.0;" x1="933.5" x2="1097.5" y1="223.1152" y2="223.1152"/><text fill="#000000" font-family="sans-serif" font-size="13" font-weight="bold" lengthAdjust="spacing" textLength="7" x="945.5" y="217.8525">4</text><text fill="#000000" font-family="sans-serif" font-size="13" lengthAdjust="spacing" textLength="67" x="956.5" y="217.8525">repositories</text><polygon fill="#181818" points="1188.5,250.4063,1198.5,254.4063,1188.5,258.4063,1192.5,254.4063" style="stroke:#181818;stroke-width:1.0;"/><line style="stroke:#181818;stroke-width:1.0;" x1="928.5" x2="1194.5" y1="254.4063" y2="254.4063"/><text fill="#000000" font-family="sans-serif" font-size="13" font-weight="bold" lengthAdjust="spacing" textLength="7" x="935.5" y="249.1436">5</text><text fill="#000000" font-family="sans-serif" font-size="13" lengthAdjust="spacing" textLength="160" x="946.5" y="249.1436">getGreenSpaceRepository()</text><polygon fill="#181818" points="939.5,281.6973,929.5,285.6973,939.5,289.6973,935.5,285.6973" style="stroke:#181818;stroke-width:1.0;"/><line style="stroke:#181818;stroke-width:1.0;" x1="933.5" x2="1204.5" y1="285.6973" y2="285.6973"/><text fill="#000000" font-family="sans-serif" font-size="13" font-weight="bold" lengthAdjust="spacing" textLength="7" x="945.5" y="280.4346">6</text><text fill="#000000" font-family="sans-serif" font-size="13" lengthAdjust="spacing" textLength="134" x="956.5" y="280.4346">GreenSpaceRepository</text><polygon fill="#181818" points="1188.5,312.9883,1198.5,316.9883,1188.5,320.9883,1192.5,316.9883" style="stroke:#181818;stroke-width:1.0;"/><line style="stroke:#181818;stroke-width:1.0;" x1="928.5" x2="1194.5" y1="316.9883" y2="316.9883"/><text fill="#000000" font-family="sans-serif" font-size="13" font-weight="bold" lengthAdjust="spacing" textLength="7" x="935.5" y="311.7256">7</text><text fill="#000000" font-family="sans-serif" font-size="13" lengthAdjust="spacing" textLength="139" x="946.5" y="311.7256">getToDoListRepository()</text><polygon fill="#181818" points="939.5,344.2793,929.5,348.2793,939.5,352.2793,935.5,348.2793" style="stroke:#181818;stroke-width:1.0;"/><line style="stroke:#181818;stroke-width:1.0;" x1="933.5" x2="1204.5" y1="348.2793" y2="348.2793"/><text fill="#000000" font-family="sans-serif" font-size="13" font-weight="bold" lengthAdjust="spacing" textLength="7" x="945.5" y="343.0166">8</text><text fill="#000000" font-family="sans-serif" font-size="13" lengthAdjust="spacing" textLength="113" x="956.5" y="343.0166">ToDoListRepository</text><polygon fill="#181818" points="906.5,375.5703,916.5,379.5703,906.5,383.5703,910.5,379.5703" style="stroke:#181818;stroke-width:1.0;"/><line style="stroke:#181818;stroke-width:1.0;" x1="496.5" x2="912.5" y1="379.5703" y2="379.5703"/><text fill="#000000" font-family="sans-serif" font-size="13" font-weight="bold" lengthAdjust="spacing" textLength="7" x="503.5" y="374.3076">9</text><text fill="#000000" font-family="sans-serif" font-size="13" lengthAdjust="spacing" textLength="119" x="514.5" y="374.3076">getGreenSpaceList()</text><polygon fill="#181818" points="1330,406.8613,1340,410.8613,1330,414.8613,1334,410.8613" style="stroke:#181818;stroke-width:1.0;"/><line style="stroke:#181818;stroke-width:1.0;" x1="928.5" x2="1336" y1="410.8613" y2="410.8613"/><text fill="#000000" font-family="sans-serif" font-size="13" font-weight="bold" lengthAdjust="spacing" textLength="14" x="935.5" y="405.5986">10</text><text fill="#000000" font-family="sans-serif" font-size="13" lengthAdjust="spacing" textLength="119" x="953.5" y="405.5986">getGreenSpaceList()</text><polygon fill="#181818" points="939.5,438.1523,929.5,442.1523,939.5,446.1523,935.5,442.1523" style="stroke:#181818;stroke-width:1.0;"/><line style="stroke:#181818;stroke-width:1.0;stroke-dasharray:2.0,2.0;" x1="933.5" x2="1346" y1="442.1523" y2="442.1523"/><text fill="#000000" font-family="sans-serif" font-size="13" font-weight="bold" lengthAdjust="spacing" textLength="14" x="945.5" y="436.8896">11</text><text fill="#000000" font-family="sans-serif" font-size="13" lengthAdjust="spacing" textLength="76" x="963.5" y="436.8896">greenSpaces</text><polygon fill="#181818" points="507.5,469.4434,497.5,473.4434,507.5,477.4434,503.5,473.4434" style="stroke:#181818;stroke-width:1.0;"/><line style="stroke:#181818;stroke-width:1.0;stroke-dasharray:2.0,2.0;" x1="501.5" x2="922.5" y1="473.4434" y2="473.4434"/><text fill="#000000" font-family="sans-serif" font-size="13" font-weight="bold" lengthAdjust="spacing" textLength="14" x="513.5" y="468.1807">12</text><text fill="#000000" font-family="sans-serif" font-size="13" lengthAdjust="spacing" textLength="76" x="531.5" y="468.1807">greenSpaces</text><polygon fill="#181818" points="99.5,500.7344,89.5,504.7344,99.5,508.7344,95.5,504.7344" style="stroke:#181818;stroke-width:1.0;"/><line style="stroke:#181818;stroke-width:1.0;stroke-dasharray:2.0,2.0;" x1="93.5" x2="490.5" y1="504.7344" y2="504.7344"/><text fill="#000000" font-family="sans-serif" font-size="13" font-weight="bold" lengthAdjust="spacing" textLength="14" x="105.5" y="499.4717">13</text><text fill="#000000" font-family="sans-serif" font-size="13" lengthAdjust="spacing" textLength="290" x="123.5" y="499.4717">shows list of green spaces and asks to select one</text><polygon fill="#181818" points="474.5,532.0254,484.5,536.0254,474.5,540.0254,478.5,536.0254" style="stroke:#181818;stroke-width:1.0;"/><line style="stroke:#181818;stroke-width:1.0;" x1="88.5" x2="480.5" y1="536.0254" y2="536.0254"/><text fill="#000000" font-family="sans-serif" font-size="13" font-weight="bold" lengthAdjust="spacing" textLength="14" x="95.5" y="530.7627">14</text><text fill="#000000" font-family="sans-serif" font-size="13" lengthAdjust="spacing" textLength="117" x="113.5" y="530.7627">selects green space</text><polygon fill="#181818" points="99.5,580.6074,89.5,584.6074,99.5,588.6074,95.5,584.6074" style="stroke:#181818;stroke-width:1.0;"/><line style="stroke:#181818;stroke-width:1.0;stroke-dasharray:2.0,2.0;" x1="93.5" x2="490.5" y1="584.6074" y2="584.6074"/><text fill="#000000" font-family="sans-serif" font-size="13" font-weight="bold" lengthAdjust="spacing" textLength="14" x="105.5" y="570.6992">15</text><text fill="#000000" font-family="sans-serif" font-size="13" lengthAdjust="spacing" textLength="352" x="123.5" y="562.0537">requests entry data (title, task description, degree of urgency</text><text fill="#000000" font-family="sans-serif" font-size="13" lengthAdjust="spacing" textLength="264" x="123.5" y="579.3447">(this one is selectable), approximate duration)</text><polygon fill="#181818" points="474.5,611.8984,484.5,615.8984,474.5,619.8984,478.5,615.8984" style="stroke:#181818;stroke-width:1.0;"/><line style="stroke:#181818;stroke-width:1.0;" x1="88.5" x2="480.5" y1="615.8984" y2="615.8984"/><text fill="#000000" font-family="sans-serif" font-size="13" font-weight="bold" lengthAdjust="spacing" textLength="14" x="95.5" y="610.6357">16</text><text fill="#000000" font-family="sans-serif" font-size="13" lengthAdjust="spacing" textLength="107" x="113.5" y="610.6357">types/selects data</text><polygon fill="#181818" points="99.5,643.1895,89.5,647.1895,99.5,651.1895,95.5,647.1895" style="stroke:#181818;stroke-width:1.0;"/><line style="stroke:#181818;stroke-width:1.0;stroke-dasharray:2.0,2.0;" x1="93.5" x2="490.5" y1="647.1895" y2="647.1895"/><text fill="#000000" font-family="sans-serif" font-size="13" font-weight="bold" lengthAdjust="spacing" textLength="14" x="105.5" y="641.9268">17</text><text fill="#000000" font-family="sans-serif" font-size="13" lengthAdjust="spacing" textLength="219" x="123.5" y="641.9268">shows data and requests confirmation</text><polygon fill="#181818" points="474.5,674.4805,484.5,678.4805,474.5,682.4805,478.5,678.4805" style="stroke:#181818;stroke-width:1.0;"/><line style="stroke:#181818;stroke-width:1.0;" x1="88.5" x2="480.5" y1="678.4805" y2="678.4805"/><text fill="#000000" font-family="sans-serif" font-size="13" font-weight="bold" lengthAdjust="spacing" textLength="14" x="95.5" y="673.2178">18</text><text fill="#000000" font-family="sans-serif" font-size="13" lengthAdjust="spacing" textLength="78" x="113.5" y="673.2178">confirms data</text><polygon fill="#181818" points="906.5,705.7715,916.5,709.7715,906.5,713.7715,910.5,709.7715" style="stroke:#181818;stroke-width:1.0;"/><line style="stroke:#181818;stroke-width:1.0;" x1="496.5" x2="912.5" y1="709.7715" y2="709.7715"/><text fill="#000000" font-family="sans-serif" font-size="13" font-weight="bold" lengthAdjust="spacing" textLength="14" x="503.5" y="704.5088">19</text><text fill="#000000" font-family="sans-serif" font-size="13" lengthAdjust="spacing" textLength="385" x="521.5" y="704.5088">addEntry(entryTitle, entryDescription, entryUrgency, entryDuration)</text><line style="stroke:#181818;stroke-width:1.0;" x1="928.5" x2="975.5" y1="761.0625" y2="761.0625"/><line style="stroke:#181818;stroke-width:1.0;" x1="975.5" x2="975.5" y1="761.0625" y2="774.0625"/><line style="stroke:#181818;stroke-width:1.0;" x1="934.5" x2="975.5" y1="774.0625" y2="774.0625"/><polygon fill="#181818" points="944.5,770.0625,934.5,774.0625,944.5,778.0625,940.5,774.0625" style="stroke:#181818;stroke-width:1.0;"/><text fill="#000000" font-family="sans-serif" font-size="13" font-weight="bold" lengthAdjust="spacing" textLength="14" x="940.5" y="755.7998">20</text><text fill="#000000" font-family="sans-serif" font-size="13" lengthAdjust="spacing" textLength="133" x="958.5" y="755.7998">getGSMFromSession()</text><rect fill="none" height="43.252" style="stroke:#000000;stroke-width:1.5;" width="201" x="823" y="787.0625"/><path d="M823,787.0625 L885,787.0625 L885,796.0625 L875,806.0625 L823,806.0625 L823,787.0625 " fill="#EEEEEE" style="stroke:#000000;stroke-width:2.0;"/><text fill="#000000" font-family="sans-serif" font-size="13" font-weight="bold" lengthAdjust="spacing" textLength="17" x="836" y="803.0908">ref</text><text fill="#000000" font-family="sans-serif" font-size="12" lengthAdjust="spacing" textLength="48" x="899.5" y="823.0117">Get GSM</text><line style="stroke:#181818;stroke-width:1.0;stroke-dasharray:2.0,2.0;" x1="933.5" x2="975.5" y1="863.6055" y2="863.6055"/><line style="stroke:#181818;stroke-width:1.0;stroke-dasharray:2.0,2.0;" x1="975.5" x2="975.5" y1="863.6055" y2="876.6055"/><line style="stroke:#181818;stroke-width:1.0;stroke-dasharray:2.0,2.0;" x1="928.5" x2="975.5" y1="876.6055" y2="876.6055"/><polygon fill="#181818" points="938.5,872.6055,928.5,876.6055,938.5,880.6055,934.5,876.6055" style="stroke:#181818;stroke-width:1.0;"/><text fill="#000000" font-family="sans-serif" font-size="13" font-weight="bold" lengthAdjust="spacing" textLength="14" x="940.5" y="858.3428">21</text><text fill="#000000" font-family="sans-serif" font-size="13" lengthAdjust="spacing" textLength="25" x="958.5" y="858.3428">gsm</text><polygon fill="#181818" points="1494.5,923.8965,1504.5,927.8965,1494.5,931.8965,1498.5,927.8965" style="stroke:#181818;stroke-width:1.0;"/><line style="stroke:#181818;stroke-width:1.0;" x1="928.5" x2="1500.5" y1="927.8965" y2="927.8965"/><text fill="#000000" font-family="sans-serif" font-size="13" font-weight="bold" lengthAdjust="spacing" textLength="14" x="935.5" y="922.6338">22</text><text fill="#000000" font-family="sans-serif" font-size="13" lengthAdjust="spacing" textLength="148" x="953.5" y="922.6338">getToDoListByGSM(gsm)</text><polygon fill="#181818" points="939.5,955.1875,929.5,959.1875,939.5,963.1875,935.5,959.1875" style="stroke:#181818;stroke-width:1.0;"/><line style="stroke:#181818;stroke-width:1.0;stroke-dasharray:2.0,2.0;" x1="933.5" x2="1510.5" y1="959.1875" y2="959.1875"/><text fill="#000000" font-family="sans-serif" font-size="13" font-weight="bold" lengthAdjust="spacing" textLength="14" x="945.5" y="953.9248">23</text><text fill="#000000" font-family="sans-serif" font-size="13" lengthAdjust="spacing" textLength="48" x="963.5" y="953.9248">toDoList</text><polygon fill="#181818" points="1611.5,986.4785,1621.5,990.4785,1611.5,994.4785,1615.5,990.4785" style="stroke:#181818;stroke-width:1.0;"/><line style="stroke:#181818;stroke-width:1.0;" x1="928.5" x2="1617.5" y1="990.4785" y2="990.4785"/><text fill="#000000" font-family="sans-serif" font-size="13" font-weight="bold" lengthAdjust="spacing" textLength="14" x="935.5" y="985.2158">24</text><text fill="#000000" font-family="sans-serif" font-size="13" lengthAdjust="spacing" textLength="418" x="953.5" y="985.2158">addEntry(entryTitle, entryDescription, entryUrgency, entryDuration, gsm)</text><rect fill="none" height="43.252" style="stroke:#000000;stroke-width:1.5;" width="77" x="1590" y="998.4785"/><path d="M1590,998.4785 L1652,998.4785 L1652,1007.4785 L1642,1017.4785 L1590,1017.4785 L1590,998.4785 " fill="#EEEEEE" style="stroke:#000000;stroke-width:2.0;"/><text fill="#000000" font-family="sans-serif" font-size="13" font-weight="bold" lengthAdjust="spacing" textLength="17" x="1603" y="1014.5068">ref</text><text fill="#000000" font-family="sans-serif" font-size="12" lengthAdjust="spacing" textLength="51" x="1603" y="1034.4277">Add Entry</text><polygon fill="#181818" points="94.5,1066.0215,84.5,1070.0215,94.5,1074.0215,90.5,1070.0215" style="stroke:#181818;stroke-width:1.0;"/><line style="stroke:#181818;stroke-width:1.0;stroke-dasharray:2.0,2.0;" x1="88.5" x2="490.5" y1="1070.0215" y2="1070.0215"/><text fill="#000000" font-family="sans-serif" font-size="13" font-weight="bold" lengthAdjust="spacing" textLength="14" x="100.5" y="1064.7588">25</text><text fill="#000000" font-family="sans-serif" font-size="13" lengthAdjust="spacing" textLength="158" x="118.5" y="1064.7588">displays operation success</text><!--SRC=[lLPDRzim3BthLn2zD2aIx9v3WMxPWW89C3JkhHVLPXAXjkH9Sbi3_V6Zv8_uCycwOReabiZ7zoYHadaHCkMQ9v0egSA3LWc2rHaoKw-aF7pXUzpQF4RG65ekzt7Jm1nufDw4tCEEnmOPuvbLCakUKJDsVH0Hmauf-wpU6G-jqd2rqeWIjeIC1ZPS4ho-0cxWRhbX16f5A58kBLmjxgBekxGw3zHIhOMnZ_VUyF7-ZDqtHLygZalWRy73kkFnWAaoWlW8DDwcdiYtmaaa4MqNtV1uads0d-kxeEsnTqAzpYCuUQu6fZt2QllG1h2bd9Pxq9lqpi6ourpPbQjhvl8lNhb5dsW6vQ0FcDzIJc51bYy6h08UHS11uXkWIwkRiWU4GCsN2XpeqRq6fKrXrz0OX3WdO8U_eAFpAqDZ3KJSSfX8dk2KDQslGuqEnkzL5-RMJz_S451XnbecDGVlt5fg3hVgi0Qsce3tQE-beVCTucGwYj4TTUYXytCnYXj3hEQbSfU_ut6x63R2lw1NPSkTwo8zGmVtqbJLH7oPdFVnKKlr57qeDFiJ_HU4xGlkbzf_ajiF_0cnPy8Uwwgxkoxo6Q5LhgXbVSAx9kewtabBXpzlqAoZd2w2HYxEXYYaL1tm4n6AfbEckzNqp46z6OWf8Q1s1JIOujxZCggxhS6OBbPG4ba7slNKReykh4qJZlKQyNZ_BHfwqOMji37Em18HYcf2BL8hb9pHXqDtf3EzHndcy2GdzY2C8mdqKv3Wpp5EPy3JLAjtaRZWKQQvmvYEIUdAiNcAvaibol4Qlbf6RvOYoLwGIsejD5Ho9tJYsR2HhUi2DucL_XrEFLvii9vu-I2P-7G7HPxz_sKpptxciKXnjTvAu9dRxUFZWmsLPQEgjviVzAxReZ44sgdB4yWQTw1UKVVlunLQAgfDQmvbr2-okh0gDYPX9qkegsnG6hrpMhtvQqva9eGz8iszYrehDD6uLwidrXYpdlkHn_fVRFCCJb4VsnItqZgtz5xpH4xloh5k5X09ayOyfufEiQ029WkfDPcXocrykiVZRm00]--></g></svg>