<?xml version="1.0" encoding="us-ascii" standalone="no"?><svg xmlns="http://www.w3.org/2000/svg" xmlns:xlink="http://www.w3.org/1999/xlink" contentStyleType="text/css" height="454px" preserveAspectRatio="none" style="width:1054px;height:454px;background:#FFFFFF;" version="1.1" viewBox="0 0 1054 454" width="1054px" zoomAndPan="magnify"><defs/><g><rect fill="#FFFFFF" height="281.6973" style="stroke:#181818;stroke-width:1.0;" width="10" x="458" y="107.8242"/><rect fill="#FFFFFF" height="130.873" style="stroke:#181818;stroke-width:1.0;" width="10" x="463" y="235.6484"/><rect fill="none" height="258.6973" style="stroke:#000000;stroke-width:1.5;" width="644" x="404" y="122.8242"/><line style="stroke:#181818;stroke-width:0.5;stroke-dasharray:5.0,5.0;" x1="463" x2="463" y1="57.2422" y2="398.5215"/><line style="stroke:#181818;stroke-width:0.5;stroke-dasharray:5.0,5.0;" x1="990" x2="990" y1="183.2363" y2="398.5215"/><rect fill="#E3E3E3" height="51.2422" rx="2.5" ry="2.5" style="stroke:#181818;stroke-width:0.5;" width="98" x="414" y="5"/><text fill="#000000" font-family="sans-serif" font-size="14" lengthAdjust="spacing" textLength="77" x="424.5" y="27.1074">organization</text><text fill="#000000" font-family="sans-serif" font-size="14" lengthAdjust="spacing" textLength="84" x="421" y="45.7285">:Organization</text><rect fill="#E3E3E3" height="51.2422" rx="2.5" ry="2.5" style="stroke:#181818;stroke-width:0.5;" width="98" x="414" y="397.5215"/><text fill="#000000" font-family="sans-serif" font-size="14" lengthAdjust="spacing" textLength="77" x="424.5" y="419.6289">organization</text><text fill="#000000" font-family="sans-serif" font-size="14" lengthAdjust="spacing" textLength="84" x="421" y="438.25">:Organization</text><rect fill="#E3E3E3" height="51.2422" rx="2.5" ry="2.5" style="stroke:#181818;stroke-width:0.5;" width="96" x="942" y="397.5215"/><text fill="#000000" font-family="sans-serif" font-size="14" lengthAdjust="spacing" textLength="75" x="952.5" y="419.6289">collaborator</text><text fill="#000000" font-family="sans-serif" font-size="14" lengthAdjust="spacing" textLength="82" x="949" y="438.25">:Collaborator</text><rect fill="#FFFFFF" height="281.6973" style="stroke:#181818;stroke-width:1.0;" width="10" x="458" y="107.8242"/><rect fill="#FFFFFF" height="130.873" style="stroke:#181818;stroke-width:1.0;" width="10" x="463" y="235.6484"/><polygon fill="#181818" points="446,103.8242,456,107.8242,446,111.8242,450,107.8242" style="stroke:#181818;stroke-width:1.0;"/><line style="stroke:#181818;stroke-width:1.0;" x1="0" x2="452" y1="107.8242" y2="107.8242"/><text fill="#000000" font-family="sans-serif" font-size="13" font-weight="bold" lengthAdjust="spacing" textLength="14" x="7" y="93.916">16</text><text fill="#000000" font-family="sans-serif" font-size="13" lengthAdjust="spacing" textLength="360" x="25" y="85.2705">registerCollaborator(name, birthdate, admission date, address,</text><text fill="#000000" font-family="sans-serif" font-size="13" lengthAdjust="spacing" textLength="421" x="25" y="102.5615">mobile contact, email contact, taxpayer number, ID doc type, ID number)</text><path d="M404,122.8242 L584,122.8242 L584,132.1152 L574,142.1152 L404,142.1152 L404,122.8242 " fill="#EEEEEE" style="stroke:#000000;stroke-width:1.5;"/><rect fill="none" height="258.6973" style="stroke:#000000;stroke-width:1.5;" width="644" x="404" y="122.8242"/><text fill="#000000" font-family="sans-serif" font-size="13" font-weight="bold" lengthAdjust="spacing" textLength="135" x="419" y="137.8525">Register Collaborator</text><polygon fill="#181818" points="930,178.6973,940,182.6973,930,186.6973,934,182.6973" style="stroke:#181818;stroke-width:1.0;"/><line style="stroke:#181818;stroke-width:1.0;" x1="468" x2="936" y1="182.6973" y2="182.6973"/><text fill="#000000" font-family="sans-serif" font-size="13" font-weight="bold" lengthAdjust="spacing" textLength="25" x="475" y="168.7891">16.1</text><text fill="#000000" font-family="sans-serif" font-size="13" lengthAdjust="spacing" textLength="284" x="504" y="160.1436">create(name, birthdate, admission date, address,</text><text fill="#000000" font-family="sans-serif" font-size="13" lengthAdjust="spacing" textLength="421" x="504" y="177.4346">mobile contact, email contact, taxpayer number, ID doc type, ID number)</text><rect fill="#E3E3E3" height="51.2422" rx="2.5" ry="2.5" style="stroke:#181818;stroke-width:0.5;" width="96" x="942" y="142.1152"/><text fill="#000000" font-family="sans-serif" font-size="14" lengthAdjust="spacing" textLength="75" x="952.5" y="164.2227">collaborator</text><text fill="#000000" font-family="sans-serif" font-size="14" lengthAdjust="spacing" textLength="82" x="949" y="182.8438">:Collaborator</text><line style="stroke:#181818;stroke-width:1.0;" x1="468" x2="515" y1="222.6484" y2="222.6484"/><line style="stroke:#181818;stroke-width:1.0;" x1="515" x2="515" y1="222.6484" y2="235.6484"/><line style="stroke:#181818;stroke-width:1.0;" x1="474" x2="515" y1="235.6484" y2="235.6484"/><polygon fill="#181818" points="484,231.6484,474,235.6484,484,239.6484,480,235.6484" style="stroke:#181818;stroke-width:1.0;"/><text fill="#000000" font-family="sans-serif" font-size="13" font-weight="bold" lengthAdjust="spacing" textLength="25" x="480" y="217.3857">16.2</text><text fill="#000000" font-family="sans-serif" font-size="13" lengthAdjust="spacing" textLength="67" x="509" y="217.3857">collaborator</text><line style="stroke:#181818;stroke-width:1.0;" x1="473" x2="515" y1="271.9395" y2="271.9395"/><line style="stroke:#181818;stroke-width:1.0;" x1="515" x2="515" y1="271.9395" y2="284.9395"/><line style="stroke:#181818;stroke-width:1.0;" x1="474" x2="515" y1="284.9395" y2="284.9395"/><polygon fill="#181818" points="484,280.9395,474,284.9395,484,288.9395,480,284.9395" style="stroke:#181818;stroke-width:1.0;"/><text fill="#000000" font-family="sans-serif" font-size="13" font-weight="bold" lengthAdjust="spacing" textLength="25" x="480" y="266.6768">16.3</text><text fill="#000000" font-family="sans-serif" font-size="13" lengthAdjust="spacing" textLength="169" x="509" y="266.6768">addCollaborator (collaborator)</text><line style="stroke:#181818;stroke-width:1.0;" x1="473" x2="515" y1="316.2305" y2="316.2305"/><line style="stroke:#181818;stroke-width:1.0;" x1="515" x2="515" y1="316.2305" y2="329.2305"/><line style="stroke:#181818;stroke-width:1.0;" x1="474" x2="515" y1="329.2305" y2="329.2305"/><polygon fill="#181818" points="484,325.2305,474,329.2305,484,333.2305,480,329.2305" style="stroke:#181818;stroke-width:1.0;"/><text fill="#000000" font-family="sans-serif" font-size="13" font-weight="bold" lengthAdjust="spacing" textLength="25" x="480" y="310.9678">16.4</text><text fill="#000000" font-family="sans-serif" font-size="13" lengthAdjust="spacing" textLength="187" x="509" y="310.9678">validateCollaborator(collaborator)</text><line style="stroke:#181818;stroke-width:1.0;" x1="473" x2="515" y1="365.5215" y2="365.5215"/><line style="stroke:#181818;stroke-width:1.0;" x1="515" x2="515" y1="365.5215" y2="378.5215"/><line style="stroke:#181818;stroke-width:1.0;" x1="468" x2="515" y1="378.5215" y2="378.5215"/><polygon fill="#181818" points="478,374.5215,468,378.5215,478,382.5215,474,378.5215" style="stroke:#181818;stroke-width:1.0;"/><text fill="#000000" font-family="sans-serif" font-size="13" font-weight="bold" lengthAdjust="spacing" textLength="25" x="480" y="360.2588">16.5</text><text fill="#000000" font-family="sans-serif" font-size="13" lengthAdjust="spacing" textLength="67" x="509" y="360.2588">collaborator</text><!--SRC=[nP4_JyCm4CLtVufJfrAbI5qOCY2LLa98I972skNY7AdLs8xiIw5yUYuf1VVFZXVdsVVkVi-9E-Cw36Z1UkVrDdXBmA4d5NzlEjGxREYD3or18CtecZOjY5ki_OTn3RnZ6qafEMQZJOUEOU93Wyvy8HllDYul4Za1Z52Kp-S6xTiMAn-GVH33Af6ZOLMyBf-AShakIgMmP-zwMr60nOEQFmxjSg5iJ6GAgNVgq586bGcyhP7b4sjhOXGEEEawK8mPR9prbP6qsZj6pHcGHTF-ISRF3WyoypWwWvSrr5u37peQnV7yxeBlVg74RlOoROmDifhW-mxA7s18YTLOC2mf1icM99_DSj21fDE_vBe06pRXITbF5LU1pstvG9U6XcdQHbxmfccFhHd2dVtW2-CDsot2cguGoTKoLtq3]--></g></svg>