<?xml version="1.0" encoding="us-ascii" standalone="no"?><svg xmlns="http://www.w3.org/2000/svg" xmlns:xlink="http://www.w3.org/1999/xlink" contentStyleType="text/css" height="1381px" preserveAspectRatio="none" style="width:2422px;height:1381px;background:#FFFFFF;" version="1.1" viewBox="0 0 2422 1381" width="2422px" zoomAndPan="magnify"><defs/><g><rect fill="#FFFFFF" height="1187.1758" style="stroke:#181818;stroke-width:1.0;" width="10" x="91" y="93.6211"/><rect fill="#FFFFFF" height="92.2031" style="stroke:#181818;stroke-width:1.0;" width="10" x="471" y="116.9121"/><rect fill="#FFFFFF" height="1040.3906" style="stroke:#181818;stroke-width:1.0;" width="10" x="471" y="240.4063"/><rect fill="#FFFFFF" height="960.5176" style="stroke:#181818;stroke-width:1.0;" width="10" x="875" y="288.9883"/><rect fill="#FFFFFF" height="513.6563" style="stroke:#181818;stroke-width:1.0;" width="10" x="880" y="353.2793"/><rect fill="#FFFFFF" height="31.291" style="stroke:#181818;stroke-width:1.0;" width="10" x="1178" y="577.3164"/><rect fill="#FFFFFF" height="31.291" style="stroke:#181818;stroke-width:1.0;" width="10" x="1305" y="389.5703"/><rect fill="#FFFFFF" height="31.291" style="stroke:#181818;stroke-width:1.0;" width="10" x="1452" y="452.1523"/><rect fill="#FFFFFF" height="31.291" style="stroke:#181818;stroke-width:1.0;" width="10" x="1585" y="514.7344"/><rect fill="#FFFFFF" height="127.1641" style="stroke:#181818;stroke-width:1.0;" width="10" x="1731" y="639.8984"/><rect fill="#FFFFFF" height="31.291" style="stroke:#181818;stroke-width:1.0;" width="10" x="1952" y="697.4805"/><rect fill="#FFFFFF" height="31.291" style="stroke:#181818;stroke-width:1.0;" width="10" x="1952" y="798.3535"/><rect fill="#FFFFFF" height="270.6973" style="stroke:#181818;stroke-width:1.0;" width="10" x="1952" y="947.5176"/><rect fill="#FFFFFF" height="130.873" style="stroke:#181818;stroke-width:1.0;" width="10" x="1957" y="1049.0508"/><rect fill="#FFFFFF" height="42.291" style="stroke:#181818;stroke-width:1.0;" width="10" x="1962" y="1093.3418"/><rect fill="none" height="81.873" style="stroke:#000000;stroke-width:1.5;" width="371.5" x="1644.5" y="654.8984"/><line style="stroke:#181818;stroke-width:0.5;stroke-dasharray:5.0,5.0;" x1="96" x2="96" y1="83.6211" y2="1298.7969"/><line style="stroke:#181818;stroke-width:0.5;stroke-dasharray:5.0,5.0;" x1="475.5" x2="475.5" y1="83.6211" y2="1298.7969"/><line style="stroke:#181818;stroke-width:0.5;stroke-dasharray:5.0,5.0;" x1="879.5" x2="879.5" y1="156.7227" y2="1298.7969"/><line style="stroke:#181818;stroke-width:0.5;stroke-dasharray:5.0,5.0;" x1="1075.5" x2="1075.5" y1="83.6211" y2="1298.7969"/><line style="stroke:#181818;stroke-width:0.5;stroke-dasharray:5.0,5.0;" x1="1182.5" x2="1182.5" y1="83.6211" y2="1298.7969"/><line style="stroke:#181818;stroke-width:0.5;stroke-dasharray:5.0,5.0;" x1="1309.5" x2="1309.5" y1="83.6211" y2="1298.7969"/><line style="stroke:#181818;stroke-width:0.5;stroke-dasharray:5.0,5.0;" x1="1456.5" x2="1456.5" y1="83.6211" y2="1298.7969"/><line style="stroke:#181818;stroke-width:0.5;stroke-dasharray:5.0,5.0;" x1="1589.5" x2="1589.5" y1="83.6211" y2="1298.7969"/><line style="stroke:#181818;stroke-width:0.5;stroke-dasharray:5.0,5.0;" x1="1735.5" x2="1735.5" y1="83.6211" y2="1298.7969"/><line style="stroke:#181818;stroke-width:0.5;stroke-dasharray:5.0,5.0;" x1="1957" x2="1957" y1="83.6211" y2="1298.7969"/><line style="stroke:#181818;stroke-width:0.5;stroke-dasharray:5.0,5.0;" x1="2368" x2="2368" y1="996.6387" y2="1298.7969"/><text fill="#000000" font-family="sans-serif" font-size="14" lengthAdjust="spacing" textLength="176" x="5" y="80.1074">Human Resources Manager</text><ellipse cx="96" cy="13.5" fill="#E3E3E3" rx="8" ry="8" style="stroke:#181818;stroke-width:0.5;"/><path d="M96,21.5 L96,48.5 M83,29.5 L109,29.5 M96,48.5 L83,63.5 M96,48.5 L109,63.5 " fill="none" style="stroke:#181818;stroke-width:0.5;"/><text fill="#000000" font-family="sans-serif" font-size="14" lengthAdjust="spacing" textLength="176" x="5" y="1312.9043">Human Resources Manager</text><ellipse cx="96" cy="1324.918" fill="#E3E3E3" rx="8" ry="8" style="stroke:#181818;stroke-width:0.5;"/><path d="M96,1332.918 L96,1359.918 M83,1340.918 L109,1340.918 M96,1359.918 L83,1374.918 M96,1359.918 L109,1374.918 " fill="none" style="stroke:#181818;stroke-width:0.5;"/><rect fill="#E3E3E3" height="32.6211" rx="2.5" ry="2.5" style="stroke:#181818;stroke-width:0.5;" width="161" x="395.5" y="50"/><text fill="#000000" font-family="sans-serif" font-size="14" lengthAdjust="spacing" textLength="147" x="402.5" y="72.1074">:RegisterCollaboratorUI</text><rect fill="#E3E3E3" height="32.6211" rx="2.5" ry="2.5" style="stroke:#181818;stroke-width:0.5;" width="161" x="395.5" y="1297.7969"/><text fill="#000000" font-family="sans-serif" font-size="14" lengthAdjust="spacing" textLength="147" x="402.5" y="1319.9043">:RegisterCollaboratorUI</text><rect fill="#E3E3E3" height="32.6211" rx="2.5" ry="2.5" style="stroke:#181818;stroke-width:0.5;" width="211" x="774.5" y="1297.7969"/><text fill="#000000" font-family="sans-serif" font-size="14" lengthAdjust="spacing" textLength="197" x="781.5" y="1319.9043">:pt.ipp.isep.dei.esoft.project.application.controller.RegisterCollaboratorController</text><rect fill="#E3E3E3" height="32.6211" rx="2.5" ry="2.5" style="stroke:#181818;stroke-width:0.5;" width="97" x="1027.5" y="50"/><text fill="#000000" font-family="sans-serif" font-size="14" lengthAdjust="spacing" textLength="83" x="1034.5" y="72.1074">:Repositories</text><rect fill="#E3E3E3" height="32.6211" rx="2.5" ry="2.5" style="stroke:#181818;stroke-width:0.5;" width="97" x="1027.5" y="1297.7969"/><text fill="#000000" font-family="sans-serif" font-size="14" lengthAdjust="spacing" textLength="83" x="1034.5" y="1319.9043">:Repositories</text><rect fill="#E3E3E3" height="51.2422" rx="2.5" ry="2.5" style="stroke:#181818;stroke-width:0.5;" width="97" x="1134.5" y="31.3789"/><text fill="#000000" font-family="sans-serif" font-size="14" lengthAdjust="spacing" textLength="74" x="1146" y="53.4863">repositories</text><text fill="#000000" font-family="sans-serif" font-size="14" lengthAdjust="spacing" textLength="83" x="1141.5" y="72.1074">:Repositories</text><rect fill="#E3E3E3" height="51.2422" rx="2.5" ry="2.5" style="stroke:#181818;stroke-width:0.5;" width="97" x="1134.5" y="1297.7969"/><text fill="#000000" font-family="sans-serif" font-size="14" lengthAdjust="spacing" textLength="74" x="1146" y="1319.9043">repositories</text><text fill="#000000" font-family="sans-serif" font-size="14" lengthAdjust="spacing" textLength="83" x="1141.5" y="1338.5254">:Repositories</text><rect fill="#E3E3E3" height="32.6211" rx="2.5" ry="2.5" style="stroke:#181818;stroke-width:0.5;" width="137" x="1241.5" y="50"/><text fill="#000000" font-family="sans-serif" font-size="14" lengthAdjust="spacing" textLength="123" x="1248.5" y="72.1074">:ApplicationSession</text><rect fill="#E3E3E3" height="32.6211" rx="2.5" ry="2.5" style="stroke:#181818;stroke-width:0.5;" width="137" x="1241.5" y="1297.7969"/><text fill="#000000" font-family="sans-serif" font-size="14" lengthAdjust="spacing" textLength="123" x="1248.5" y="1319.9043">:ApplicationSession</text><rect fill="#E3E3E3" height="51.2422" rx="2.5" ry="2.5" style="stroke:#181818;stroke-width:0.5;" width="137" x="1388.5" y="31.3789"/><text fill="#000000" font-family="sans-serif" font-size="14" lengthAdjust="spacing" textLength="74" x="1420" y="53.4863">appSession</text><text fill="#000000" font-family="sans-serif" font-size="14" lengthAdjust="spacing" textLength="123" x="1395.5" y="72.1074">:ApplicationSession</text><rect fill="#E3E3E3" height="51.2422" rx="2.5" ry="2.5" style="stroke:#181818;stroke-width:0.5;" width="137" x="1388.5" y="1297.7969"/><text fill="#000000" font-family="sans-serif" font-size="14" lengthAdjust="spacing" textLength="74" x="1420" y="1319.9043">appSession</text><text fill="#000000" font-family="sans-serif" font-size="14" lengthAdjust="spacing" textLength="123" x="1395.5" y="1338.5254">:ApplicationSession</text><rect fill="#E3E3E3" height="51.2422" rx="2.5" ry="2.5" style="stroke:#181818;stroke-width:0.5;" width="109" x="1535.5" y="31.3789"/><text fill="#000000" font-family="sans-serif" font-size="14" lengthAdjust="spacing" textLength="95" x="1542.5" y="53.4863">currentSession</text><text fill="#000000" font-family="sans-serif" font-size="14" lengthAdjust="spacing" textLength="83" x="1548.5" y="72.1074">:UserSession</text><rect fill="#E3E3E3" height="51.2422" rx="2.5" ry="2.5" style="stroke:#181818;stroke-width:0.5;" width="109" x="1535.5" y="1297.7969"/><text fill="#000000" font-family="sans-serif" font-size="14" lengthAdjust="spacing" textLength="95" x="1542.5" y="1319.9043">currentSession</text><text fill="#000000" font-family="sans-serif" font-size="14" lengthAdjust="spacing" textLength="83" x="1548.5" y="1338.5254">:UserSession</text><rect fill="#E3E3E3" height="51.2422" rx="2.5" ry="2.5" style="stroke:#181818;stroke-width:0.5;" width="163" x="1654.5" y="31.3789"/><text fill="#000000" font-family="sans-serif" font-size="14" lengthAdjust="spacing" textLength="149" x="1661.5" y="53.4863">organizationRepository:</text><text fill="#000000" font-family="sans-serif" font-size="14" lengthAdjust="spacing" textLength="148" x="1662" y="72.1074">OrganizationRepository</text><rect fill="#E3E3E3" height="51.2422" rx="2.5" ry="2.5" style="stroke:#181818;stroke-width:0.5;" width="163" x="1654.5" y="1297.7969"/><text fill="#000000" font-family="sans-serif" font-size="14" lengthAdjust="spacing" textLength="149" x="1661.5" y="1319.9043">organizationRepository:</text><text fill="#000000" font-family="sans-serif" font-size="14" lengthAdjust="spacing" textLength="148" x="1662" y="1338.5254">OrganizationRepository</text><rect fill="#E3E3E3" height="51.2422" rx="2.5" ry="2.5" style="stroke:#181818;stroke-width:0.5;" width="98" x="1908" y="31.3789"/><text fill="#000000" font-family="sans-serif" font-size="14" lengthAdjust="spacing" textLength="77" x="1918.5" y="53.4863">organization</text><text fill="#000000" font-family="sans-serif" font-size="14" lengthAdjust="spacing" textLength="84" x="1915" y="72.1074">:Organization</text><rect fill="#E3E3E3" height="51.2422" rx="2.5" ry="2.5" style="stroke:#181818;stroke-width:0.5;" width="98" x="1908" y="1297.7969"/><text fill="#000000" font-family="sans-serif" font-size="14" lengthAdjust="spacing" textLength="77" x="1918.5" y="1319.9043">organization</text><text fill="#000000" font-family="sans-serif" font-size="14" lengthAdjust="spacing" textLength="84" x="1915" y="1338.5254">:Organization</text><rect fill="#E3E3E3" height="51.2422" rx="2.5" ry="2.5" style="stroke:#181818;stroke-width:0.5;" width="96" x="2320" y="1297.7969"/><text fill="#000000" font-family="sans-serif" font-size="14" lengthAdjust="spacing" textLength="75" x="2330.5" y="1319.9043">collaborator</text><text fill="#000000" font-family="sans-serif" font-size="14" lengthAdjust="spacing" textLength="82" x="2327" y="1338.5254">:Collaborator</text><rect fill="#FFFFFF" height="1187.1758" style="stroke:#181818;stroke-width:1.0;" width="10" x="91" y="93.6211"/><rect fill="#FFFFFF" height="92.2031" style="stroke:#181818;stroke-width:1.0;" width="10" x="471" y="116.9121"/><rect fill="#FFFFFF" height="1040.3906" style="stroke:#181818;stroke-width:1.0;" width="10" x="471" y="240.4063"/><rect fill="#FFFFFF" height="960.5176" style="stroke:#181818;stroke-width:1.0;" width="10" x="875" y="288.9883"/><rect fill="#FFFFFF" height="513.6563" style="stroke:#181818;stroke-width:1.0;" width="10" x="880" y="353.2793"/><rect fill="#FFFFFF" height="31.291" style="stroke:#181818;stroke-width:1.0;" width="10" x="1178" y="577.3164"/><rect fill="#FFFFFF" height="31.291" style="stroke:#181818;stroke-width:1.0;" width="10" x="1305" y="389.5703"/><rect fill="#FFFFFF" height="31.291" style="stroke:#181818;stroke-width:1.0;" width="10" x="1452" y="452.1523"/><rect fill="#FFFFFF" height="31.291" style="stroke:#181818;stroke-width:1.0;" width="10" x="1585" y="514.7344"/><rect fill="#FFFFFF" height="127.1641" style="stroke:#181818;stroke-width:1.0;" width="10" x="1731" y="639.8984"/><rect fill="#FFFFFF" height="31.291" style="stroke:#181818;stroke-width:1.0;" width="10" x="1952" y="697.4805"/><rect fill="#FFFFFF" height="31.291" style="stroke:#181818;stroke-width:1.0;" width="10" x="1952" y="798.3535"/><rect fill="#FFFFFF" height="270.6973" style="stroke:#181818;stroke-width:1.0;" width="10" x="1952" y="947.5176"/><rect fill="#FFFFFF" height="130.873" style="stroke:#181818;stroke-width:1.0;" width="10" x="1957" y="1049.0508"/><rect fill="#FFFFFF" height="42.291" style="stroke:#181818;stroke-width:1.0;" width="10" x="1962" y="1093.3418"/><polygon fill="#181818" points="459,112.9121,469,116.9121,459,120.9121,463,116.9121" style="stroke:#181818;stroke-width:1.0;"/><line style="stroke:#181818;stroke-width:1.0;" x1="101" x2="465" y1="116.9121" y2="116.9121"/><text fill="#000000" font-family="sans-serif" font-size="13" font-weight="bold" lengthAdjust="spacing" textLength="7" x="108" y="111.6494">1</text><text fill="#000000" font-family="sans-serif" font-size="13" lengthAdjust="spacing" textLength="172" x="119" y="111.6494">asks to register a collaborator</text><polygon fill="#181818" points="762.5,144.2031,772.5,148.2031,762.5,152.2031,766.5,148.2031" style="stroke:#181818;stroke-width:1.0;"/><line style="stroke:#181818;stroke-width:1.0;" x1="481" x2="768.5" y1="148.2031" y2="148.2031"/><text fill="#000000" font-family="sans-serif" font-size="13" font-weight="bold" lengthAdjust="spacing" textLength="7" x="488" y="142.9404">2</text><text fill="#000000" font-family="sans-serif" font-size="13" lengthAdjust="spacing" textLength="36" x="499" y="142.9404">create</text><rect fill="#E3E3E3" height="32.6211" rx="2.5" ry="2.5" style="stroke:#181818;stroke-width:0.5;" width="211" x="774.5" y="124.9121"/><text fill="#000000" font-family="sans-serif" font-size="14" lengthAdjust="spacing" textLength="197" x="781.5" y="147.0195">:pt.ipp.isep.dei.esoft.project.application.controller.RegisterCollaboratorController</text><polygon fill="#181818" points="112,205.1152,102,209.1152,112,213.1152,108,209.1152" style="stroke:#181818;stroke-width:1.0;"/><line style="stroke:#181818;stroke-width:1.0;stroke-dasharray:2.0,2.0;" x1="106" x2="475" y1="209.1152" y2="209.1152"/><text fill="#000000" font-family="sans-serif" font-size="13" font-weight="bold" lengthAdjust="spacing" textLength="7" x="118" y="195.207">3</text><text fill="#000000" font-family="sans-serif" font-size="13" lengthAdjust="spacing" textLength="331" x="129" y="186.5615">requests data (name, birthdate, admission date, address,</text><text fill="#000000" font-family="sans-serif" font-size="13" lengthAdjust="spacing" textLength="316" x="129" y="203.8525">mobile contact, email contact, ID doc type, ID number)</text><polygon fill="#181818" points="459,236.4063,469,240.4063,459,244.4063,463,240.4063" style="stroke:#181818;stroke-width:1.0;"/><line style="stroke:#181818;stroke-width:1.0;" x1="101" x2="465" y1="240.4063" y2="240.4063"/><text fill="#000000" font-family="sans-serif" font-size="13" font-weight="bold" lengthAdjust="spacing" textLength="7" x="108" y="235.1436">4</text><text fill="#000000" font-family="sans-serif" font-size="13" lengthAdjust="spacing" textLength="122" x="119" y="235.1436">types requested data</text><polygon fill="#181818" points="863,284.9883,873,288.9883,863,292.9883,867,288.9883" style="stroke:#181818;stroke-width:1.0;"/><line style="stroke:#181818;stroke-width:1.0;" x1="481" x2="869" y1="288.9883" y2="288.9883"/><text fill="#000000" font-family="sans-serif" font-size="13" font-weight="bold" lengthAdjust="spacing" textLength="7" x="488" y="275.0801">5</text><text fill="#000000" font-family="sans-serif" font-size="13" lengthAdjust="spacing" textLength="360" x="499" y="266.4346">registerCollaborator(name, birthdate, admission date, address,</text><text fill="#000000" font-family="sans-serif" font-size="13" lengthAdjust="spacing" textLength="316" x="499" y="283.7256">mobile contact, email contact, ID doc type, ID number)</text><line style="stroke:#181818;stroke-width:1.0;" x1="885" x2="932" y1="340.2793" y2="340.2793"/><line style="stroke:#181818;stroke-width:1.0;" x1="932" x2="932" y1="340.2793" y2="353.2793"/><line style="stroke:#181818;stroke-width:1.0;" x1="891" x2="932" y1="353.2793" y2="353.2793"/><polygon fill="#181818" points="901,349.2793,891,353.2793,901,357.2793,897,353.2793" style="stroke:#181818;stroke-width:1.0;"/><text fill="#000000" font-family="sans-serif" font-size="13" font-weight="bold" lengthAdjust="spacing" textLength="7" x="897" y="335.0166">6</text><text fill="#000000" font-family="sans-serif" font-size="13" lengthAdjust="spacing" textLength="161" x="908" y="335.0166">getEmployeeFromSession()</text><polygon fill="#181818" points="1293,385.5703,1303,389.5703,1293,393.5703,1297,389.5703" style="stroke:#181818;stroke-width:1.0;"/><line style="stroke:#181818;stroke-width:1.0;" x1="890" x2="1299" y1="389.5703" y2="389.5703"/><text fill="#000000" font-family="sans-serif" font-size="13" font-weight="bold" lengthAdjust="spacing" textLength="7" x="897" y="384.3076">7</text><text fill="#000000" font-family="sans-serif" font-size="13" lengthAdjust="spacing" textLength="75" x="908" y="384.3076">getInstance()</text><polygon fill="#181818" points="901,416.8613,891,420.8613,901,424.8613,897,420.8613" style="stroke:#181818;stroke-width:1.0;"/><line style="stroke:#181818;stroke-width:1.0;" x1="895" x2="1309" y1="420.8613" y2="420.8613"/><text fill="#000000" font-family="sans-serif" font-size="13" font-weight="bold" lengthAdjust="spacing" textLength="7" x="907" y="415.5986">8</text><text fill="#000000" font-family="sans-serif" font-size="13" lengthAdjust="spacing" textLength="68" x="918" y="415.5986">appSession</text><polygon fill="#181818" points="1440,448.1523,1450,452.1523,1440,456.1523,1444,452.1523" style="stroke:#181818;stroke-width:1.0;"/><line style="stroke:#181818;stroke-width:1.0;" x1="890" x2="1446" y1="452.1523" y2="452.1523"/><text fill="#000000" font-family="sans-serif" font-size="13" font-weight="bold" lengthAdjust="spacing" textLength="7" x="897" y="446.8896">9</text><text fill="#000000" font-family="sans-serif" font-size="13" lengthAdjust="spacing" textLength="115" x="908" y="446.8896">getCurrentSession()</text><polygon fill="#181818" points="901,479.4434,891,483.4434,901,487.4434,897,483.4434" style="stroke:#181818;stroke-width:1.0;"/><line style="stroke:#181818;stroke-width:1.0;stroke-dasharray:2.0,2.0;" x1="895" x2="1456" y1="483.4434" y2="483.4434"/><text fill="#000000" font-family="sans-serif" font-size="13" font-weight="bold" lengthAdjust="spacing" textLength="14" x="907" y="478.1807">10</text><text fill="#000000" font-family="sans-serif" font-size="13" lengthAdjust="spacing" textLength="87" x="925" y="478.1807">currentSession</text><polygon fill="#181818" points="1573,510.7344,1583,514.7344,1573,518.7344,1577,514.7344" style="stroke:#181818;stroke-width:1.0;"/><line style="stroke:#181818;stroke-width:1.0;" x1="890" x2="1579" y1="514.7344" y2="514.7344"/><text fill="#000000" font-family="sans-serif" font-size="13" font-weight="bold" lengthAdjust="spacing" textLength="14" x="897" y="509.4717">11</text><text fill="#000000" font-family="sans-serif" font-size="13" lengthAdjust="spacing" textLength="133" x="915" y="509.4717">email = getUserEmail()</text><polygon fill="#181818" points="901,542.0254,891,546.0254,901,550.0254,897,546.0254" style="stroke:#181818;stroke-width:1.0;"/><line style="stroke:#181818;stroke-width:1.0;stroke-dasharray:2.0,2.0;" x1="895" x2="1589" y1="546.0254" y2="546.0254"/><text fill="#000000" font-family="sans-serif" font-size="13" font-weight="bold" lengthAdjust="spacing" textLength="14" x="907" y="540.7627">12</text><text fill="#000000" font-family="sans-serif" font-size="13" lengthAdjust="spacing" textLength="31" x="925" y="540.7627">email</text><polygon fill="#181818" points="1166,573.3164,1176,577.3164,1166,581.3164,1170,577.3164" style="stroke:#181818;stroke-width:1.0;"/><line style="stroke:#181818;stroke-width:1.0;" x1="890" x2="1172" y1="577.3164" y2="577.3164"/><text fill="#000000" font-family="sans-serif" font-size="13" font-weight="bold" lengthAdjust="spacing" textLength="14" x="897" y="572.0537">13</text><text fill="#000000" font-family="sans-serif" font-size="13" lengthAdjust="spacing" textLength="192" x="915" y="572.0537">getOrganizationRepository(email)</text><polygon fill="#181818" points="901,604.6074,891,608.6074,901,612.6074,897,608.6074" style="stroke:#181818;stroke-width:1.0;"/><line style="stroke:#181818;stroke-width:1.0;stroke-dasharray:2.0,2.0;" x1="895" x2="1182" y1="608.6074" y2="608.6074"/><text fill="#000000" font-family="sans-serif" font-size="13" font-weight="bold" lengthAdjust="spacing" textLength="14" x="907" y="603.3447">14</text><text fill="#000000" font-family="sans-serif" font-size="13" lengthAdjust="spacing" textLength="132" x="925" y="603.3447">organizationRepository</text><polygon fill="#181818" points="1719,635.8984,1729,639.8984,1719,643.8984,1723,639.8984" style="stroke:#181818;stroke-width:1.0;"/><line style="stroke:#181818;stroke-width:1.0;" x1="890" x2="1725" y1="639.8984" y2="639.8984"/><text fill="#000000" font-family="sans-serif" font-size="13" font-weight="bold" lengthAdjust="spacing" textLength="14" x="897" y="634.6357">15</text><text fill="#000000" font-family="sans-serif" font-size="13" lengthAdjust="spacing" textLength="237" x="915" y="634.6357">getOrganizationByEmployeeEmail(email)</text><path d="M1644.5,654.8984 L1717.5,654.8984 L1717.5,664.1895 L1707.5,674.1895 L1644.5,674.1895 L1644.5,654.8984 " fill="#EEEEEE" style="stroke:#000000;stroke-width:1.5;"/><rect fill="none" height="81.873" style="stroke:#000000;stroke-width:1.5;" width="371.5" x="1644.5" y="654.8984"/><text fill="#000000" font-family="sans-serif" font-size="13" font-weight="bold" lengthAdjust="spacing" textLength="28" x="1659.5" y="669.9268">loop</text><text fill="#000000" font-family="sans-serif" font-size="11" font-weight="bold" lengthAdjust="spacing" textLength="128" x="1732.5" y="668.7686">[[for each organization]</text><polygon fill="#181818" points="1940,693.4805,1950,697.4805,1940,701.4805,1944,697.4805" style="stroke:#181818;stroke-width:1.0;"/><line style="stroke:#181818;stroke-width:1.0;" x1="1741" x2="1946" y1="697.4805" y2="697.4805"/><text fill="#000000" font-family="sans-serif" font-size="13" font-weight="bold" lengthAdjust="spacing" textLength="14" x="1748" y="692.2178">16</text><text fill="#000000" font-family="sans-serif" font-size="13" lengthAdjust="spacing" textLength="174" x="1766" y="692.2178">anyEmployeeHasEmail(email)</text><polygon fill="#181818" points="1752,724.7715,1742,728.7715,1752,732.7715,1748,728.7715" style="stroke:#181818;stroke-width:1.0;"/><line style="stroke:#181818;stroke-width:1.0;stroke-dasharray:2.0,2.0;" x1="1746" x2="1956" y1="728.7715" y2="728.7715"/><text fill="#000000" font-family="sans-serif" font-size="13" font-weight="bold" lengthAdjust="spacing" textLength="14" x="1758" y="723.5088">17</text><text fill="#000000" font-family="sans-serif" font-size="13" lengthAdjust="spacing" textLength="53" x="1776" y="723.5088">true/false</text><polygon fill="#181818" points="901,763.0625,891,767.0625,901,771.0625,897,767.0625" style="stroke:#181818;stroke-width:1.0;"/><line style="stroke:#181818;stroke-width:1.0;stroke-dasharray:2.0,2.0;" x1="895" x2="1735" y1="767.0625" y2="767.0625"/><text fill="#000000" font-family="sans-serif" font-size="13" font-weight="bold" lengthAdjust="spacing" textLength="14" x="907" y="761.7998">18</text><text fill="#000000" font-family="sans-serif" font-size="13" lengthAdjust="spacing" textLength="70" x="925" y="761.7998">organization</text><polygon fill="#181818" points="1940,794.3535,1950,798.3535,1940,802.3535,1944,798.3535" style="stroke:#181818;stroke-width:1.0;"/><line style="stroke:#181818;stroke-width:1.0;" x1="890" x2="1946" y1="798.3535" y2="798.3535"/><text fill="#000000" font-family="sans-serif" font-size="13" font-weight="bold" lengthAdjust="spacing" textLength="14" x="897" y="793.0908">19</text><text fill="#000000" font-family="sans-serif" font-size="13" lengthAdjust="spacing" textLength="164" x="915" y="793.0908">getEmployeeByEmail(email)</text><polygon fill="#181818" points="901,825.6445,891,829.6445,901,833.6445,897,829.6445" style="stroke:#181818;stroke-width:1.0;"/><line style="stroke:#181818;stroke-width:1.0;stroke-dasharray:2.0,2.0;" x1="895" x2="1956" y1="829.6445" y2="829.6445"/><text fill="#000000" font-family="sans-serif" font-size="13" font-weight="bold" lengthAdjust="spacing" textLength="14" x="907" y="824.3818">20</text><text fill="#000000" font-family="sans-serif" font-size="13" lengthAdjust="spacing" textLength="56" x="925" y="824.3818">employee</text><line style="stroke:#181818;stroke-width:1.0;stroke-dasharray:2.0,2.0;" x1="890" x2="932" y1="865.9355" y2="865.9355"/><line style="stroke:#181818;stroke-width:1.0;stroke-dasharray:2.0,2.0;" x1="932" x2="932" y1="865.9355" y2="878.9355"/><line style="stroke:#181818;stroke-width:1.0;stroke-dasharray:2.0,2.0;" x1="885" x2="932" y1="878.9355" y2="878.9355"/><polygon fill="#181818" points="895,874.9355,885,878.9355,895,882.9355,891,878.9355" style="stroke:#181818;stroke-width:1.0;"/><text fill="#000000" font-family="sans-serif" font-size="13" font-weight="bold" lengthAdjust="spacing" textLength="14" x="897" y="860.6729">21</text><text fill="#000000" font-family="sans-serif" font-size="13" lengthAdjust="spacing" textLength="56" x="915" y="860.6729">employee</text><polygon fill="#181818" points="1940,943.5176,1950,947.5176,1940,951.5176,1944,947.5176" style="stroke:#181818;stroke-width:1.0;"/><line style="stroke:#181818;stroke-width:1.0;" x1="885" x2="1946" y1="947.5176" y2="947.5176"/><text fill="#000000" font-family="sans-serif" font-size="13" font-weight="bold" lengthAdjust="spacing" textLength="14" x="892" y="933.6094">22</text><text fill="#000000" font-family="sans-serif" font-size="13" lengthAdjust="spacing" textLength="360" x="910" y="924.9639">registerCollaborator(name, birthdate, admission date, address,</text><text fill="#000000" font-family="sans-serif" font-size="13" lengthAdjust="spacing" textLength="316" x="910" y="942.2549">mobile contact, email contact, ID doc type, ID number)</text><polygon fill="#181818" points="2308,992.0996,2318,996.0996,2308,1000.0996,2312,996.0996" style="stroke:#181818;stroke-width:1.0;"/><line style="stroke:#181818;stroke-width:1.0;" x1="1962" x2="2314" y1="996.0996" y2="996.0996"/><text fill="#000000" font-family="sans-serif" font-size="13" font-weight="bold" lengthAdjust="spacing" textLength="14" x="1969" y="982.1914">23</text><text fill="#000000" font-family="sans-serif" font-size="13" lengthAdjust="spacing" textLength="284" x="1987" y="973.5459">create(name, birthdate, admission date, address,</text><text fill="#000000" font-family="sans-serif" font-size="13" lengthAdjust="spacing" textLength="316" x="1987" y="990.8369">mobile contact, email contact, ID doc type, ID number)</text><rect fill="#E3E3E3" height="51.2422" rx="2.5" ry="2.5" style="stroke:#181818;stroke-width:0.5;" width="96" x="2320" y="955.5176"/><text fill="#000000" font-family="sans-serif" font-size="14" lengthAdjust="spacing" textLength="75" x="2330.5" y="977.625">collaborator</text><text fill="#000000" font-family="sans-serif" font-size="14" lengthAdjust="spacing" textLength="82" x="2327" y="996.2461">:Collaborator</text><line style="stroke:#181818;stroke-width:1.0;" x1="1962" x2="2009" y1="1036.0508" y2="1036.0508"/><line style="stroke:#181818;stroke-width:1.0;" x1="2009" x2="2009" y1="1036.0508" y2="1049.0508"/><line style="stroke:#181818;stroke-width:1.0;" x1="1968" x2="2009" y1="1049.0508" y2="1049.0508"/><polygon fill="#181818" points="1978,1045.0508,1968,1049.0508,1978,1053.0508,1974,1049.0508" style="stroke:#181818;stroke-width:1.0;"/><text fill="#000000" font-family="sans-serif" font-size="13" font-weight="bold" lengthAdjust="spacing" textLength="14" x="1974" y="1030.7881">24</text><text fill="#000000" font-family="sans-serif" font-size="13" lengthAdjust="spacing" textLength="167" x="1992" y="1030.7881">addcollaborator (collaborator)</text><line style="stroke:#181818;stroke-width:1.0;" x1="1967" x2="2014" y1="1080.3418" y2="1080.3418"/><line style="stroke:#181818;stroke-width:1.0;" x1="2014" x2="2014" y1="1080.3418" y2="1093.3418"/><line style="stroke:#181818;stroke-width:1.0;" x1="1973" x2="2014" y1="1093.3418" y2="1093.3418"/><polygon fill="#181818" points="1983,1089.3418,1973,1093.3418,1983,1097.3418,1979,1093.3418" style="stroke:#181818;stroke-width:1.0;"/><text fill="#000000" font-family="sans-serif" font-size="13" font-weight="bold" lengthAdjust="spacing" textLength="14" x="1979" y="1075.0791">25</text><text fill="#000000" font-family="sans-serif" font-size="13" lengthAdjust="spacing" textLength="187" x="1997" y="1075.0791">validateCollaborator(collaborator)</text><line style="stroke:#181818;stroke-width:1.0;stroke-dasharray:2.0,2.0;" x1="1972" x2="2014" y1="1134.6328" y2="1134.6328"/><line style="stroke:#181818;stroke-width:1.0;stroke-dasharray:2.0,2.0;" x1="2014" x2="2014" y1="1134.6328" y2="1147.6328"/><line style="stroke:#181818;stroke-width:1.0;stroke-dasharray:2.0,2.0;" x1="1967" x2="2014" y1="1147.6328" y2="1147.6328"/><polygon fill="#181818" points="1977,1143.6328,1967,1147.6328,1977,1151.6328,1973,1147.6328" style="stroke:#181818;stroke-width:1.0;"/><text fill="#000000" font-family="sans-serif" font-size="13" font-weight="bold" lengthAdjust="spacing" textLength="14" x="1979" y="1129.3701">26</text><text fill="#000000" font-family="sans-serif" font-size="13" lengthAdjust="spacing" textLength="4" x="1997" y="1129.3701">&#160;</text><line style="stroke:#181818;stroke-width:1.0;stroke-dasharray:2.0,2.0;" x1="1967" x2="2009" y1="1178.9238" y2="1178.9238"/><line style="stroke:#181818;stroke-width:1.0;stroke-dasharray:2.0,2.0;" x1="2009" x2="2009" y1="1178.9238" y2="1191.9238"/><line style="stroke:#181818;stroke-width:1.0;stroke-dasharray:2.0,2.0;" x1="1962" x2="2009" y1="1191.9238" y2="1191.9238"/><polygon fill="#181818" points="1972,1187.9238,1962,1191.9238,1972,1195.9238,1968,1191.9238" style="stroke:#181818;stroke-width:1.0;"/><text fill="#000000" font-family="sans-serif" font-size="13" font-weight="bold" lengthAdjust="spacing" textLength="14" x="1974" y="1173.6611">27</text><text fill="#000000" font-family="sans-serif" font-size="13" lengthAdjust="spacing" textLength="4" x="1992" y="1173.6611">&#160;</text><polygon fill="#181818" points="896,1214.2148,886,1218.2148,896,1222.2148,892,1218.2148" style="stroke:#181818;stroke-width:1.0;"/><line style="stroke:#181818;stroke-width:1.0;stroke-dasharray:2.0,2.0;" x1="890" x2="1956" y1="1218.2148" y2="1218.2148"/><text fill="#000000" font-family="sans-serif" font-size="13" font-weight="bold" lengthAdjust="spacing" textLength="14" x="902" y="1212.9521">28</text><text fill="#000000" font-family="sans-serif" font-size="13" lengthAdjust="spacing" textLength="67" x="920" y="1212.9521">collaborator</text><polygon fill="#181818" points="492,1245.5059,482,1249.5059,492,1253.5059,488,1249.5059" style="stroke:#181818;stroke-width:1.0;"/><line style="stroke:#181818;stroke-width:1.0;stroke-dasharray:2.0,2.0;" x1="486" x2="879" y1="1249.5059" y2="1249.5059"/><text fill="#000000" font-family="sans-serif" font-size="13" font-weight="bold" lengthAdjust="spacing" textLength="14" x="498" y="1244.2432">29</text><text fill="#000000" font-family="sans-serif" font-size="13" lengthAdjust="spacing" textLength="67" x="516" y="1244.2432">collaborator</text><polygon fill="#181818" points="107,1276.7969,97,1280.7969,107,1284.7969,103,1280.7969" style="stroke:#181818;stroke-width:1.0;"/><line style="stroke:#181818;stroke-width:1.0;stroke-dasharray:2.0,2.0;" x1="101" x2="475" y1="1280.7969" y2="1280.7969"/><text fill="#000000" font-family="sans-serif" font-size="13" font-weight="bold" lengthAdjust="spacing" textLength="14" x="113" y="1275.5342">30</text><text fill="#000000" font-family="sans-serif" font-size="13" lengthAdjust="spacing" textLength="158" x="131" y="1275.5342">displays operation success</text><!--SRC=[nLTBJ-Cm4BxdLuouK2hGtYijKYaiL08LfVIqbLPkObgBnCxQ3hjTyUDtx3pgD4xIlR2-WEEPRxvvsbLlZ6T4aXHImKMqaoAbe6LE0rMVP2Hw8rkwrFk4WgIH9doRk09gHsBnY_4jl994qI0WkHOyJpTK1i7vZiKKNeNG6_4x894M4iuUyfHm2AaIkOoeWYV2qO8y0w9WUliK8Avc4Si8rt0s2UcMAKtbJ2G9sGX946CrjyAh-GcoCy6rn7rfOFOIFhQqCg4OYZAgh4pzORzanblqfwaY7OqrRmCyFqvVZenCionX4T5Cy2LL2lzOoH_Jv-Uc9CcoKW2HExHQIb4k9UNweBXILBeQoxlbShfeAWcv9PpziUW7boThll0UM1p_KJSkKd5L2epm_eYzaovKSBDNv6pnEBrPXDFRHHYO8cBlH5DRAW6K2pTmTOqL0HFKU5EW1LPhKGr0mBLmKAgXi922St0MubmXd46T8CxFd2gj82QQm8YJb5u4hlHv9Ac1iRLr37DjFu_725I81GM18HENi65Ix_03_alYbDbaGhMF9MRt4jOy5Hk6hHbXcQC_bq1JmfB3TduBiOX0xpDgDqLd5lnZseZ0SHoDZggeqTXo2rfnQ_jg_MatucTvrM1eKzB8oSV7HsDl6H-ORwc-IxD4x2dzXlEmxA5HC-4zy2waQMwBEESAvsP4Zs0QK7OIW6UPWueW5dSz7bh2JZejM3UnYjUiCJRws5ay7pjBhcRNd4Dz3Bs05RzYMatAh7yrLCr0kpFRFfRbbFCIBSuShXQyZsA5radJZ7aRH_zK75aBFNJjDU4bQquSglv9tSUzWEvaxYVSykLcN_L24VeXXpfk1w-BYH0PV7_51m6otZLSzCgRvSUt3eNtPlBpcl03KRsSszpnLkgKAgoZZQlEu9c1YK-dByKhg0l3IP4nw1EXF0x-nVd3xEgDeMlvn3JLrHBUDmQZAOkJog4hf5KaIzwqn0q6ejL1S0380JdzDh0k_-zRR3YODf3NxWDfFAxU6P_DrE5ZeuVexhCBHkxkmZES1Zl3HNyd2JDUD7BJj33OxeEDtY4pL9P364FwH-tXVxmE0TMziPeVGVGrX_yHF86OgImXUmKYez8E3b1vXB_UbEybwTxp-4h_2m00]--></g></svg>