<?xml version="1.0" encoding="us-ascii" standalone="no"?><svg xmlns="http://www.w3.org/2000/svg" xmlns:xlink="http://www.w3.org/1999/xlink" contentStyleType="text/css" height="907px" preserveAspectRatio="none" style="width:1381px;height:907px;background:#FFFFFF;" version="1.1" viewBox="0 0 1381 907" width="1381px" zoomAndPan="magnify"><defs/><g><rect fill="#FFFFFF" height="712.916" style="stroke:#181818;stroke-width:1.0;" width="10" x="91" y="93.6211"/><rect fill="#FFFFFF" height="92.2031" style="stroke:#181818;stroke-width:1.0;" width="10" x="471" y="116.9121"/><rect fill="#FFFFFF" height="31.291" style="stroke:#181818;stroke-width:1.0;" width="10" x="471" y="240.4063"/><rect fill="#FFFFFF" height="503.5488" style="stroke:#181818;stroke-width:1.0;" width="10" x="471" y="302.9883"/><rect fill="#FFFFFF" height="657.334" style="stroke:#181818;stroke-width:1.0;" width="10" x="880" y="158.2031"/><rect fill="#FFFFFF" height="423.6758" style="stroke:#181818;stroke-width:1.0;" width="10" x="885" y="351.5703"/><rect fill="#FFFFFF" height="106.5039" style="stroke:#181818;stroke-width:1.0;" width="10" x="890" y="390.8613"/><rect fill="#FFFFFF" height="191.0078" style="stroke:#181818;stroke-width:1.0;" width="10" x="1296" y="552.9473"/><line style="stroke:#181818;stroke-width:0.5;stroke-dasharray:5.0,5.0;" x1="96" x2="96" y1="83.6211" y2="824.5371"/><line style="stroke:#181818;stroke-width:0.5;stroke-dasharray:5.0,5.0;" x1="475.5" x2="475.5" y1="83.6211" y2="824.5371"/><line style="stroke:#181818;stroke-width:0.5;stroke-dasharray:5.0,5.0;" x1="884.5" x2="884.5" y1="156.7227" y2="824.5371"/><line style="stroke:#181818;stroke-width:0.5;stroke-dasharray:5.0,5.0;" x1="1301" x2="1301" y1="83.6211" y2="824.5371"/><text fill="#000000" font-family="sans-serif" font-size="14" lengthAdjust="spacing" textLength="176" x="5" y="80.1074">Human Resources Manager</text><ellipse cx="96" cy="13.5" fill="#E3E3E3" rx="8" ry="8" style="stroke:#181818;stroke-width:0.5;"/><path d="M96,21.5 L96,48.5 M83,29.5 L109,29.5 M96,48.5 L83,63.5 M96,48.5 L109,63.5 " fill="none" style="stroke:#181818;stroke-width:0.5;"/><text fill="#000000" font-family="sans-serif" font-size="14" lengthAdjust="spacing" textLength="176" x="5" y="838.6445">Human Resources Manager</text><ellipse cx="96" cy="850.6582" fill="#E3E3E3" rx="8" ry="8" style="stroke:#181818;stroke-width:0.5;"/><path d="M96,858.6582 L96,885.6582 M83,866.6582 L109,866.6582 M96,885.6582 L83,900.6582 M96,885.6582 L109,900.6582 " fill="none" style="stroke:#181818;stroke-width:0.5;"/><rect fill="#E3E3E3" height="32.6211" rx="2.5" ry="2.5" style="stroke:#181818;stroke-width:0.5;" width="161" x="395.5" y="50"/><text fill="#000000" font-family="sans-serif" font-size="14" lengthAdjust="spacing" textLength="147" x="402.5" y="72.1074">:RegisterCollaboratorUI</text><rect fill="#E3E3E3" height="32.6211" rx="2.5" ry="2.5" style="stroke:#181818;stroke-width:0.5;" width="161" x="395.5" y="823.5371"/><text fill="#000000" font-family="sans-serif" font-size="14" lengthAdjust="spacing" textLength="147" x="402.5" y="845.6445">:RegisterCollaboratorUI</text><rect fill="#E3E3E3" height="32.6211" rx="2.5" ry="2.5" style="stroke:#181818;stroke-width:0.5;" width="211" x="779.5" y="823.5371"/><text fill="#000000" font-family="sans-serif" font-size="14" lengthAdjust="spacing" textLength="197" x="786.5" y="845.6445">:RegisterCollaboratorController</text><rect fill="#E3E3E3" height="51.2422" rx="2.5" ry="2.5" style="stroke:#181818;stroke-width:0.5;" width="98" x="1252" y="31.3789"/><text fill="#000000" font-family="sans-serif" font-size="14" lengthAdjust="spacing" textLength="77" x="1262.5" y="53.4863">organization</text><text fill="#000000" font-family="sans-serif" font-size="14" lengthAdjust="spacing" textLength="84" x="1259" y="72.1074">:Organization</text><rect fill="#E3E3E3" height="51.2422" rx="2.5" ry="2.5" style="stroke:#181818;stroke-width:0.5;" width="98" x="1252" y="823.5371"/><text fill="#000000" font-family="sans-serif" font-size="14" lengthAdjust="spacing" textLength="77" x="1262.5" y="845.6445">organization</text><text fill="#000000" font-family="sans-serif" font-size="14" lengthAdjust="spacing" textLength="84" x="1259" y="864.2656">:Organization</text><rect fill="#FFFFFF" height="712.916" style="stroke:#181818;stroke-width:1.0;" width="10" x="91" y="93.6211"/><rect fill="#FFFFFF" height="92.2031" style="stroke:#181818;stroke-width:1.0;" width="10" x="471" y="116.9121"/><rect fill="#FFFFFF" height="31.291" style="stroke:#181818;stroke-width:1.0;" width="10" x="471" y="240.4063"/><rect fill="#FFFFFF" height="503.5488" style="stroke:#181818;stroke-width:1.0;" width="10" x="471" y="302.9883"/><rect fill="#FFFFFF" height="657.334" style="stroke:#181818;stroke-width:1.0;" width="10" x="880" y="158.2031"/><rect fill="#FFFFFF" height="423.6758" style="stroke:#181818;stroke-width:1.0;" width="10" x="885" y="351.5703"/><rect fill="#FFFFFF" height="106.5039" style="stroke:#181818;stroke-width:1.0;" width="10" x="890" y="390.8613"/><rect fill="#FFFFFF" height="191.0078" style="stroke:#181818;stroke-width:1.0;" width="10" x="1296" y="552.9473"/><polygon fill="#181818" points="459,112.9121,469,116.9121,459,120.9121,463,116.9121" style="stroke:#181818;stroke-width:1.0;"/><line style="stroke:#181818;stroke-width:1.0;" x1="101" x2="465" y1="116.9121" y2="116.9121"/><text fill="#000000" font-family="sans-serif" font-size="13" font-weight="bold" lengthAdjust="spacing" textLength="7" x="108" y="111.6494">1</text><text fill="#000000" font-family="sans-serif" font-size="13" lengthAdjust="spacing" textLength="172" x="119" y="111.6494">asks to register a collaborator</text><polygon fill="#181818" points="767.5,144.2031,777.5,148.2031,767.5,152.2031,771.5,148.2031" style="stroke:#181818;stroke-width:1.0;"/><line style="stroke:#181818;stroke-width:1.0;" x1="481" x2="773.5" y1="148.2031" y2="148.2031"/><text fill="#000000" font-family="sans-serif" font-size="13" font-weight="bold" lengthAdjust="spacing" textLength="7" x="488" y="142.9404">2</text><text fill="#000000" font-family="sans-serif" font-size="13" lengthAdjust="spacing" textLength="36" x="499" y="142.9404">create</text><rect fill="#E3E3E3" height="32.6211" rx="2.5" ry="2.5" style="stroke:#181818;stroke-width:0.5;" width="211" x="779.5" y="124.9121"/><text fill="#000000" font-family="sans-serif" font-size="14" lengthAdjust="spacing" textLength="197" x="786.5" y="147.0195">:RegisterCollaboratorController</text><polygon fill="#181818" points="112,205.1152,102,209.1152,112,213.1152,108,209.1152" style="stroke:#181818;stroke-width:1.0;"/><line style="stroke:#181818;stroke-width:1.0;stroke-dasharray:2.0,2.0;" x1="106" x2="475" y1="209.1152" y2="209.1152"/><text fill="#000000" font-family="sans-serif" font-size="13" font-weight="bold" lengthAdjust="spacing" textLength="7" x="118" y="195.207">3</text><text fill="#000000" font-family="sans-serif" font-size="13" lengthAdjust="spacing" textLength="331" x="129" y="186.5615">requests data (name, birthdate, admission date, address,</text><text fill="#000000" font-family="sans-serif" font-size="13" lengthAdjust="spacing" textLength="316" x="129" y="203.8525">mobile contact, email contact, ID doc type, ID number)</text><polygon fill="#181818" points="459,236.4063,469,240.4063,459,244.4063,463,240.4063" style="stroke:#181818;stroke-width:1.0;"/><line style="stroke:#181818;stroke-width:1.0;" x1="101" x2="465" y1="240.4063" y2="240.4063"/><text fill="#000000" font-family="sans-serif" font-size="13" font-weight="bold" lengthAdjust="spacing" textLength="7" x="108" y="235.1436">4</text><text fill="#000000" font-family="sans-serif" font-size="13" lengthAdjust="spacing" textLength="122" x="119" y="235.1436">types requested data</text><polygon fill="#181818" points="112,267.6973,102,271.6973,112,275.6973,108,271.6973" style="stroke:#181818;stroke-width:1.0;"/><line style="stroke:#181818;stroke-width:1.0;stroke-dasharray:2.0,2.0;" x1="106" x2="475" y1="271.6973" y2="271.6973"/><text fill="#000000" font-family="sans-serif" font-size="13" font-weight="bold" lengthAdjust="spacing" textLength="7" x="118" y="266.4346">5</text><text fill="#000000" font-family="sans-serif" font-size="13" lengthAdjust="spacing" textLength="102" x="129" y="266.4346">shows typed data</text><polygon fill="#181818" points="459,298.9883,469,302.9883,459,306.9883,463,302.9883" style="stroke:#181818;stroke-width:1.0;"/><line style="stroke:#181818;stroke-width:1.0;" x1="101" x2="465" y1="302.9883" y2="302.9883"/><text fill="#000000" font-family="sans-serif" font-size="13" font-weight="bold" lengthAdjust="spacing" textLength="7" x="108" y="297.7256">6</text><text fill="#000000" font-family="sans-serif" font-size="13" lengthAdjust="spacing" textLength="75" x="119" y="297.7256">submits data</text><polygon fill="#181818" points="873,347.5703,883,351.5703,873,355.5703,877,351.5703" style="stroke:#181818;stroke-width:1.0;"/><line style="stroke:#181818;stroke-width:1.0;" x1="481" x2="879" y1="351.5703" y2="351.5703"/><text fill="#000000" font-family="sans-serif" font-size="13" font-weight="bold" lengthAdjust="spacing" textLength="7" x="488" y="337.6621">7</text><text fill="#000000" font-family="sans-serif" font-size="13" lengthAdjust="spacing" textLength="360" x="499" y="329.0166">registerCollaborator(name, birthdate, admission date, address,</text><text fill="#000000" font-family="sans-serif" font-size="13" lengthAdjust="spacing" textLength="316" x="499" y="346.3076">mobile contact, email contact, ID doc type, ID number)</text><line style="stroke:#181818;stroke-width:1.0;" x1="895" x2="942" y1="377.8613" y2="377.8613"/><line style="stroke:#181818;stroke-width:1.0;" x1="942" x2="942" y1="377.8613" y2="390.8613"/><line style="stroke:#181818;stroke-width:1.0;" x1="901" x2="942" y1="390.8613" y2="390.8613"/><polygon fill="#181818" points="911,386.8613,901,390.8613,911,394.8613,907,390.8613" style="stroke:#181818;stroke-width:1.0;"/><text fill="#000000" font-family="sans-serif" font-size="13" font-weight="bold" lengthAdjust="spacing" textLength="7" x="907" y="372.5986">8</text><text fill="#000000" font-family="sans-serif" font-size="13" lengthAdjust="spacing" textLength="132" x="918" y="372.5986">getHRMFromSession()</text><rect fill="none" height="59.2129" style="stroke:#000000;stroke-width:1.5;" width="217" x="776.5" y="403.8613"/><path d="M776.5,403.8613 L838.5,403.8613 L838.5,412.8613 L828.5,422.8613 L776.5,422.8613 L776.5,403.8613 " fill="#EEEEEE" style="stroke:#000000;stroke-width:2.0;"/><text fill="#000000" font-family="sans-serif" font-size="13" font-weight="bold" lengthAdjust="spacing" textLength="17" x="789.5" y="419.8896">ref</text><text fill="#000000" font-family="sans-serif" font-size="12" lengthAdjust="spacing" textLength="49" x="860.5" y="439.8105">Get HRM</text><text fill="#000000" font-family="sans-serif" font-size="12" lengthAdjust="spacing" textLength="3" x="883.5" y="455.7715">&#160;</text><line style="stroke:#181818;stroke-width:1.0;" x1="900" x2="942" y1="496.3652" y2="496.3652"/><line style="stroke:#181818;stroke-width:1.0;" x1="942" x2="942" y1="496.3652" y2="509.3652"/><line style="stroke:#181818;stroke-width:1.0;" x1="895" x2="942" y1="509.3652" y2="509.3652"/><polygon fill="#181818" points="905,505.3652,895,509.3652,905,513.3652,901,509.3652" style="stroke:#181818;stroke-width:1.0;"/><text fill="#000000" font-family="sans-serif" font-size="13" font-weight="bold" lengthAdjust="spacing" textLength="7" x="907" y="491.1025">9</text><text fill="#000000" font-family="sans-serif" font-size="13" lengthAdjust="spacing" textLength="22" x="918" y="491.1025">hrm</text><polygon fill="#181818" points="1284,548.9473,1294,552.9473,1284,556.9473,1288,552.9473" style="stroke:#181818;stroke-width:1.0;"/><line style="stroke:#181818;stroke-width:1.0;" x1="895" x2="1290" y1="552.9473" y2="552.9473"/><text fill="#000000" font-family="sans-serif" font-size="13" font-weight="bold" lengthAdjust="spacing" textLength="14" x="902" y="539.0391">10</text><text fill="#000000" font-family="sans-serif" font-size="13" lengthAdjust="spacing" textLength="360" x="920" y="530.3936">registerCollaborator(name, birthdate, admission date, address,</text><text fill="#000000" font-family="sans-serif" font-size="13" lengthAdjust="spacing" textLength="316" x="920" y="547.6846">mobile contact, email contact, ID doc type, ID number)</text><rect fill="none" height="59.2129" style="stroke:#000000;stroke-width:1.5;" width="126" x="1249" y="560.9473"/><path d="M1249,560.9473 L1311,560.9473 L1311,569.9473 L1301,579.9473 L1249,579.9473 L1249,560.9473 " fill="#EEEEEE" style="stroke:#000000;stroke-width:2.0;"/><text fill="#000000" font-family="sans-serif" font-size="13" font-weight="bold" lengthAdjust="spacing" textLength="17" x="1262" y="576.9756">ref</text><text fill="#000000" font-family="sans-serif" font-size="12" lengthAdjust="spacing" textLength="118" x="1253" y="596.8965">Register Collaborator</text><text fill="#000000" font-family="sans-serif" font-size="12" lengthAdjust="spacing" textLength="3" x="1310.5" y="612.8574">&#160;</text><polygon fill="#181818" points="873,644.4512,883,648.4512,873,652.4512,877,648.4512" style="stroke:#181818;stroke-width:1.0;"/><line style="stroke:#181818;stroke-width:1.0;" x1="481" x2="879" y1="648.4512" y2="648.4512"/><text fill="#000000" font-family="sans-serif" font-size="13" font-weight="bold" lengthAdjust="spacing" textLength="14" x="488" y="643.1885">11</text><text fill="#000000" font-family="sans-serif" font-size="13" lengthAdjust="spacing" textLength="216" x="506" y="643.1885">assignJobToCollaborator(collaborator)</text><rect fill="none" height="59.2129" style="stroke:#000000;stroke-width:1.5;" width="217" x="776.5" y="656.4512"/><path d="M776.5,656.4512 L838.5,656.4512 L838.5,665.4512 L828.5,675.4512 L776.5,675.4512 L776.5,656.4512 " fill="#EEEEEE" style="stroke:#000000;stroke-width:2.0;"/><text fill="#000000" font-family="sans-serif" font-size="13" font-weight="bold" lengthAdjust="spacing" textLength="17" x="789.5" y="672.4795">ref</text><text fill="#000000" font-family="sans-serif" font-size="12" lengthAdjust="spacing" textLength="61" x="854.5" y="692.4004">Assign Job</text><text fill="#000000" font-family="sans-serif" font-size="12" lengthAdjust="spacing" textLength="3" x="883.5" y="708.3613">&#160;</text><polygon fill="#181818" points="906,739.9551,896,743.9551,906,747.9551,902,743.9551" style="stroke:#181818;stroke-width:1.0;"/><line style="stroke:#181818;stroke-width:1.0;stroke-dasharray:2.0,2.0;" x1="900" x2="1300" y1="743.9551" y2="743.9551"/><text fill="#000000" font-family="sans-serif" font-size="13" font-weight="bold" lengthAdjust="spacing" textLength="14" x="912" y="738.6924">12</text><text fill="#000000" font-family="sans-serif" font-size="13" lengthAdjust="spacing" textLength="67" x="930" y="738.6924">collaborator</text><polygon fill="#181818" points="492,771.2461,482,775.2461,492,779.2461,488,775.2461" style="stroke:#181818;stroke-width:1.0;"/><line style="stroke:#181818;stroke-width:1.0;stroke-dasharray:2.0,2.0;" x1="486" x2="879" y1="775.2461" y2="775.2461"/><text fill="#000000" font-family="sans-serif" font-size="13" font-weight="bold" lengthAdjust="spacing" textLength="14" x="498" y="769.9834">13</text><text fill="#000000" font-family="sans-serif" font-size="13" lengthAdjust="spacing" textLength="67" x="516" y="769.9834">collaborator</text><polygon fill="#181818" points="107,802.5371,97,806.5371,107,810.5371,103,806.5371" style="stroke:#181818;stroke-width:1.0;"/><line style="stroke:#181818;stroke-width:1.0;stroke-dasharray:2.0,2.0;" x1="101" x2="475" y1="806.5371" y2="806.5371"/><text fill="#000000" font-family="sans-serif" font-size="13" font-weight="bold" lengthAdjust="spacing" textLength="14" x="113" y="801.2744">14</text><text fill="#000000" font-family="sans-serif" font-size="13" lengthAdjust="spacing" textLength="158" x="131" y="801.2744">displays operation success</text><!--SRC=[nLNDRjim3BxhAOXUrXJP2-Gme4YnDiE20cbxwuMs6Lk89NcYt2vx-b7AdrrdINRPU38b_dpyI5EyqhP1ZmQCiowll3C4mRUaU7_JOBx2afx2kYRmb0UqPTqru0eBzwvj2KkicPJ2DZZRceoyKfygNH0idGkP-wam3yx3rKDhqCA2sBK-9uOvMidWhm0PRk_cIk86dUi6RO2hoO9ApO7yrDKrPiwZn7YP9UENsGMsKsU35tsROFgy-DxtShv4gtzXqCw-sibZHqqUZujx5Q7hDmoK02eGaG_u_4Kmm4IiLWp12J-R_82GTo1i7FOX17OwY2Bk4YI2khcHGBadiJXSxtqIx9wNk4K84qdweoKE30K6X6kBXiQGQHygEP1FB8ncbcfWfnUUcCVmQetBjBGr5ueaqnZ8eAuFwkmE2fT3M3UKb4rNHmb6GODwken47zv1eo9XEyt2lXwkt3kd01stC-cupOpUKd09sOcsuQpyA_9Ej3PAGdX0Mb9uMCo_oj_vH0dBzQXdVY9I54zBS6yobEaQZiWz1P0CGrUoHNGVd7y0M7dJC-aqQmT97QzG_gt_tuaUX-blLqTfEafgj8SBPBUQO3fO31yO7uOxp6rSDQnB-yrbpwx7LtVVZDH5aFvkICx9RG86WknyzbZbm4YOJ5jWErIz1Vg7wKhD6ivLsWgNHHYKUrX54oWqDpMk6Ln3FZq8icXoURBus4xggF6H-0q0]--></g></svg>