<?xml version="1.0" encoding="us-ascii" standalone="no"?><svg xmlns="http://www.w3.org/2000/svg" xmlns:xlink="http://www.w3.org/1999/xlink" contentStyleType="text/css" height="1904px" preserveAspectRatio="none" style="width:1725px;height:1904px;background:#FFFFFF;" version="1.1" viewBox="0 0 1725 1904" width="1725px" zoomAndPan="magnify"><defs/><g><!--class ApplicationSession--><g id="elem_ApplicationSession"><rect codeLine="11" fill="#F1F1F1" height="85.2422" id="ApplicationSession" rx="2.5" ry="2.5" style="stroke:#181818;stroke-width:0.5;" width="151" x="1427.5" y="441.5"/><ellipse cx="1442.5" cy="457.5" fill="#ADD1B2" rx="11" ry="11" style="stroke:#181818;stroke-width:1.0;"/><path d="M1445.2656,453.375 Q1445.4219,453.1563 1445.6094,453.0469 Q1445.7969,452.9375 1446.0156,452.9375 Q1446.3906,452.9375 1446.625,453.2031 Q1446.8594,453.4531 1446.8594,454.0625 L1446.8594,455.5156 Q1446.8594,456.125 1446.625,456.3906 Q1446.3906,456.6563 1446.0156,456.6563 Q1445.6719,456.6563 1445.4688,456.4531 Q1445.2656,456.2656 1445.1563,455.75 Q1445.1094,455.3906 1444.9219,455.2031 Q1444.5938,454.8281 1443.9844,454.6094 Q1443.375,454.3906 1442.75,454.3906 Q1441.9844,454.3906 1441.3438,454.7188 Q1440.7188,455.0469 1440.2188,455.7969 Q1439.7344,456.5469 1439.7344,457.5781 L1439.7344,458.6719 Q1439.7344,459.9063 1440.625,460.7344 Q1441.5156,461.5469 1443.1094,461.5469 Q1444.0469,461.5469 1444.7031,461.2969 Q1445.0938,461.1406 1445.5156,460.7031 Q1445.7813,460.4375 1445.9219,460.3594 Q1446.0781,460.2813 1446.2813,460.2813 Q1446.6094,460.2813 1446.8594,460.5469 Q1447.125,460.7969 1447.125,461.1406 Q1447.125,461.4844 1446.7813,461.8906 Q1446.2813,462.4688 1445.4844,462.7969 Q1444.4063,463.25 1443.1094,463.25 Q1441.5938,463.25 1440.3906,462.625 Q1439.4063,462.125 1438.7188,461.0625 Q1438.0313,459.9844 1438.0313,458.7031 L1438.0313,457.5469 Q1438.0313,456.2188 1438.6406,455.0781 Q1439.2656,453.9219 1440.3594,453.3125 Q1441.4531,452.6875 1442.6875,452.6875 Q1443.4219,452.6875 1444.0625,452.8594 Q1444.7188,453.0156 1445.2656,453.375 Z " fill="#000000"/><text fill="#000000" font-family="sans-serif" font-size="14" lengthAdjust="spacing" textLength="119" x="1456.5" y="463.2969">ApplicationSession</text><line style="stroke:#181818;stroke-width:0.5;" x1="1428.5" x2="1577.5" y1="473.5" y2="473.5"/><line style="stroke:#181818;stroke-width:0.5;" x1="1428.5" x2="1577.5" y1="481.5" y2="481.5"/><text fill="#000000" font-family="sans-serif" font-size="14" lengthAdjust="spacing" textLength="128" x="1433.5" y="500.6074">+static getInstance()</text><text fill="#000000" font-family="sans-serif" font-size="14" lengthAdjust="spacing" textLength="136" x="1433.5" y="519.2285">+getCurrentSession()</text></g><!--class UserSession--><g id="elem_UserSession"><rect codeLine="17" fill="#F1F1F1" height="66.6211" id="UserSession" rx="2.5" ry="2.5" style="stroke:#181818;stroke-width:0.5;" width="113" x="1371.5" y="661.5"/><ellipse cx="1387.4" cy="677.5" fill="#ADD1B2" rx="11" ry="11" style="stroke:#181818;stroke-width:1.0;"/><path d="M1390.1656,673.375 Q1390.3219,673.1563 1390.5094,673.0469 Q1390.6969,672.9375 1390.9156,672.9375 Q1391.2906,672.9375 1391.525,673.2031 Q1391.7594,673.4531 1391.7594,674.0625 L1391.7594,675.5156 Q1391.7594,676.125 1391.525,676.3906 Q1391.2906,676.6563 1390.9156,676.6563 Q1390.5719,676.6563 1390.3688,676.4531 Q1390.1656,676.2656 1390.0563,675.75 Q1390.0094,675.3906 1389.8219,675.2031 Q1389.4938,674.8281 1388.8844,674.6094 Q1388.275,674.3906 1387.65,674.3906 Q1386.8844,674.3906 1386.2438,674.7188 Q1385.6188,675.0469 1385.1188,675.7969 Q1384.6344,676.5469 1384.6344,677.5781 L1384.6344,678.6719 Q1384.6344,679.9063 1385.525,680.7344 Q1386.4156,681.5469 1388.0094,681.5469 Q1388.9469,681.5469 1389.6031,681.2969 Q1389.9938,681.1406 1390.4156,680.7031 Q1390.6813,680.4375 1390.8219,680.3594 Q1390.9781,680.2813 1391.1813,680.2813 Q1391.5094,680.2813 1391.7594,680.5469 Q1392.025,680.7969 1392.025,681.1406 Q1392.025,681.4844 1391.6813,681.8906 Q1391.1813,682.4688 1390.3844,682.7969 Q1389.3063,683.25 1388.0094,683.25 Q1386.4938,683.25 1385.2906,682.625 Q1384.3063,682.125 1383.6188,681.0625 Q1382.9313,679.9844 1382.9313,678.7031 L1382.9313,677.5469 Q1382.9313,676.2188 1383.5406,675.0781 Q1384.1656,673.9219 1385.2594,673.3125 Q1386.3531,672.6875 1387.5875,672.6875 Q1388.3219,672.6875 1388.9625,672.8594 Q1389.6188,673.0156 1390.1656,673.375 Z " fill="#000000"/><text fill="#000000" font-family="sans-serif" font-size="14" lengthAdjust="spacing" textLength="79" x="1401.6" y="683.2969">UserSession</text><line style="stroke:#181818;stroke-width:0.5;" x1="1372.5" x2="1483.5" y1="693.5" y2="693.5"/><line style="stroke:#181818;stroke-width:0.5;" x1="1372.5" x2="1483.5" y1="701.5" y2="701.5"/><text fill="#000000" font-family="sans-serif" font-size="14" lengthAdjust="spacing" textLength="101" x="1377.5" y="720.6074">+getUserEmail()</text></g><!--class Collaborator--><g id="elem_Collaborator"><rect codeLine="22" fill="#F1F1F1" height="234.2109" id="Collaborator" rx="2.5" ry="2.5" style="stroke:#181818;stroke-width:0.5;" width="157" x="418.5" y="1663"/><ellipse cx="454.65" cy="1679" fill="#ADD1B2" rx="11" ry="11" style="stroke:#181818;stroke-width:1.0;"/><path d="M457.4156,1674.875 Q457.5719,1674.6563 457.7594,1674.5469 Q457.9469,1674.4375 458.1656,1674.4375 Q458.5406,1674.4375 458.775,1674.7031 Q459.0094,1674.9531 459.0094,1675.5625 L459.0094,1677.0156 Q459.0094,1677.625 458.775,1677.8906 Q458.5406,1678.1563 458.1656,1678.1563 Q457.8219,1678.1563 457.6188,1677.9531 Q457.4156,1677.7656 457.3063,1677.25 Q457.2594,1676.8906 457.0719,1676.7031 Q456.7438,1676.3281 456.1344,1676.1094 Q455.525,1675.8906 454.9,1675.8906 Q454.1344,1675.8906 453.4938,1676.2188 Q452.8688,1676.5469 452.3688,1677.2969 Q451.8844,1678.0469 451.8844,1679.0781 L451.8844,1680.1719 Q451.8844,1681.4063 452.775,1682.2344 Q453.6656,1683.0469 455.2594,1683.0469 Q456.1969,1683.0469 456.8531,1682.7969 Q457.2438,1682.6406 457.6656,1682.2031 Q457.9313,1681.9375 458.0719,1681.8594 Q458.2281,1681.7813 458.4313,1681.7813 Q458.7594,1681.7813 459.0094,1682.0469 Q459.275,1682.2969 459.275,1682.6406 Q459.275,1682.9844 458.9313,1683.3906 Q458.4313,1683.9688 457.6344,1684.2969 Q456.5563,1684.75 455.2594,1684.75 Q453.7438,1684.75 452.5406,1684.125 Q451.5563,1683.625 450.8688,1682.5625 Q450.1813,1681.4844 450.1813,1680.2031 L450.1813,1679.0469 Q450.1813,1677.7188 450.7906,1676.5781 Q451.4156,1675.4219 452.5094,1674.8125 Q453.6031,1674.1875 454.8375,1674.1875 Q455.5719,1674.1875 456.2125,1674.3594 Q456.8688,1674.5156 457.4156,1674.875 Z " fill="#000000"/><text fill="#000000" font-family="sans-serif" font-size="14" lengthAdjust="spacing" textLength="78" x="473.35" y="1684.7969">Collaborator</text><line style="stroke:#181818;stroke-width:0.5;" x1="419.5" x2="574.5" y1="1695" y2="1695"/><text fill="#000000" font-family="sans-serif" font-size="14" lengthAdjust="spacing" textLength="85" x="424.5" y="1714.1074">-name: String</text><text fill="#000000" font-family="sans-serif" font-size="14" lengthAdjust="spacing" textLength="106" x="424.5" y="1732.7285">-birthdate: String</text><text fill="#000000" font-family="sans-serif" font-size="14" lengthAdjust="spacing" textLength="145" x="424.5" y="1751.3496">-admission date: String</text><text fill="#000000" font-family="sans-serif" font-size="14" lengthAdjust="spacing" textLength="101" x="424.5" y="1769.9707">-address: String</text><text fill="#000000" font-family="sans-serif" font-size="14" lengthAdjust="spacing" textLength="122" x="424.5" y="1788.5918">-mobile Contact: int</text><text fill="#000000" font-family="sans-serif" font-size="14" lengthAdjust="spacing" textLength="133" x="424.5" y="1807.2129">-email contact: String</text><text fill="#000000" font-family="sans-serif" font-size="14" lengthAdjust="spacing" textLength="134" x="424.5" y="1825.834">-taxpayer number: int</text><text fill="#000000" font-family="sans-serif" font-size="14" lengthAdjust="spacing" textLength="121" x="424.5" y="1844.4551">-ID doc type: String</text><text fill="#000000" font-family="sans-serif" font-size="14" lengthAdjust="spacing" textLength="93" x="424.5" y="1863.0762">-ID number: int</text><line style="stroke:#181818;stroke-width:0.5;" x1="419.5" x2="574.5" y1="1870.5898" y2="1870.5898"/><text fill="#000000" font-family="sans-serif" font-size="14" lengthAdjust="spacing" textLength="90" x="424.5" y="1889.6973">+addSkill(skill)</text></g><!--class CollaboratorRepository--><g id="elem_CollaboratorRepository"><rect codeLine="35" fill="#F1F1F1" height="159.7266" id="CollaboratorRepository" rx="2.5" ry="2.5" style="stroke:#181818;stroke-width:0.5;" width="401" x="728.5" y="615"/><ellipse cx="851.75" cy="631" fill="#ADD1B2" rx="11" ry="11" style="stroke:#181818;stroke-width:1.0;"/><path d="M854.5156,626.875 Q854.6719,626.6563 854.8594,626.5469 Q855.0469,626.4375 855.2656,626.4375 Q855.6406,626.4375 855.875,626.7031 Q856.1094,626.9531 856.1094,627.5625 L856.1094,629.0156 Q856.1094,629.625 855.875,629.8906 Q855.6406,630.1563 855.2656,630.1563 Q854.9219,630.1563 854.7188,629.9531 Q854.5156,629.7656 854.4063,629.25 Q854.3594,628.8906 854.1719,628.7031 Q853.8438,628.3281 853.2344,628.1094 Q852.625,627.8906 852,627.8906 Q851.2344,627.8906 850.5938,628.2188 Q849.9688,628.5469 849.4688,629.2969 Q848.9844,630.0469 848.9844,631.0781 L848.9844,632.1719 Q848.9844,633.4063 849.875,634.2344 Q850.7656,635.0469 852.3594,635.0469 Q853.2969,635.0469 853.9531,634.7969 Q854.3438,634.6406 854.7656,634.2031 Q855.0313,633.9375 855.1719,633.8594 Q855.3281,633.7813 855.5313,633.7813 Q855.8594,633.7813 856.1094,634.0469 Q856.375,634.2969 856.375,634.6406 Q856.375,634.9844 856.0313,635.3906 Q855.5313,635.9688 854.7344,636.2969 Q853.6563,636.75 852.3594,636.75 Q850.8438,636.75 849.6406,636.125 Q848.6563,635.625 847.9688,634.5625 Q847.2813,633.4844 847.2813,632.2031 L847.2813,631.0469 Q847.2813,629.7188 847.8906,628.5781 Q848.5156,627.4219 849.6094,626.8125 Q850.7031,626.1875 851.9375,626.1875 Q852.6719,626.1875 853.3125,626.3594 Q853.9688,626.5156 854.5156,626.875 Z " fill="#000000"/><text fill="#000000" font-family="sans-serif" font-size="14" lengthAdjust="spacing" textLength="146" x="872.25" y="636.7969">CollaboratorRepository</text><line style="stroke:#181818;stroke-width:0.5;" x1="729.5" x2="1128.5" y1="647" y2="647"/><text fill="#000000" font-family="sans-serif" font-size="14" lengthAdjust="spacing" textLength="99" x="734.5" y="666.1074">-List&lt;Job&gt;: jobs</text><line style="stroke:#181818;stroke-width:0.5;" x1="729.5" x2="1128.5" y1="673.6211" y2="673.6211"/><text fill="#000000" font-family="sans-serif" font-size="14" lengthAdjust="spacing" textLength="350" x="734.5" y="692.7285">+Optional&lt;Collaborator&gt; add(Collaborator collaborator)</text><text fill="#000000" font-family="sans-serif" font-size="14" lengthAdjust="spacing" textLength="307" x="734.5" y="711.3496">+Collaborator getCollaboratorByID(int IDnumber)</text><text fill="#000000" font-family="sans-serif" font-size="14" lengthAdjust="spacing" textLength="243" x="734.5" y="729.9707">+List&lt;Collaborator&gt; getCollaborators()</text><text fill="#000000" font-family="sans-serif" font-size="14" lengthAdjust="spacing" textLength="357" x="734.5" y="748.5918">+boolean validateCollaborator(Collaborator collaborator)</text><text fill="#000000" font-family="sans-serif" font-size="14" lengthAdjust="spacing" textLength="389" x="734.5" y="767.2129">+void updateCollaborator(Collaborator collaboratorToUpdate)</text></g><!--class Organization--><g id="elem_Organization"><rect codeLine="44" fill="#F1F1F1" height="401.8008" id="Organization" rx="2.5" ry="2.5" style="stroke:#181818;stroke-width:0.5;" width="413" x="243.5" y="854"/><ellipse cx="405.75" cy="870" fill="#ADD1B2" rx="11" ry="11" style="stroke:#181818;stroke-width:1.0;"/><path d="M408.5156,865.875 Q408.6719,865.6563 408.8594,865.5469 Q409.0469,865.4375 409.2656,865.4375 Q409.6406,865.4375 409.875,865.7031 Q410.1094,865.9531 410.1094,866.5625 L410.1094,868.0156 Q410.1094,868.625 409.875,868.8906 Q409.6406,869.1563 409.2656,869.1563 Q408.9219,869.1563 408.7188,868.9531 Q408.5156,868.7656 408.4063,868.25 Q408.3594,867.8906 408.1719,867.7031 Q407.8438,867.3281 407.2344,867.1094 Q406.625,866.8906 406,866.8906 Q405.2344,866.8906 404.5938,867.2188 Q403.9688,867.5469 403.4688,868.2969 Q402.9844,869.0469 402.9844,870.0781 L402.9844,871.1719 Q402.9844,872.4063 403.875,873.2344 Q404.7656,874.0469 406.3594,874.0469 Q407.2969,874.0469 407.9531,873.7969 Q408.3438,873.6406 408.7656,873.2031 Q409.0313,872.9375 409.1719,872.8594 Q409.3281,872.7813 409.5313,872.7813 Q409.8594,872.7813 410.1094,873.0469 Q410.375,873.2969 410.375,873.6406 Q410.375,873.9844 410.0313,874.3906 Q409.5313,874.9688 408.7344,875.2969 Q407.6563,875.75 406.3594,875.75 Q404.8438,875.75 403.6406,875.125 Q402.6563,874.625 401.9688,873.5625 Q401.2813,872.4844 401.2813,871.2031 L401.2813,870.0469 Q401.2813,868.7188 401.8906,867.5781 Q402.5156,866.4219 403.6094,865.8125 Q404.7031,865.1875 405.9375,865.1875 Q406.6719,865.1875 407.3125,865.3594 Q407.9688,865.5156 408.5156,865.875 Z " fill="#000000"/><text fill="#000000" font-family="sans-serif" font-size="14" lengthAdjust="spacing" textLength="80" x="426.25" y="875.7969">Organization</text><line style="stroke:#181818;stroke-width:0.5;" x1="244.5" x2="655.5" y1="886" y2="886"/><text fill="#000000" font-family="sans-serif" font-size="14" lengthAdjust="spacing" textLength="81" x="249.5" y="905.1074">-String name</text><text fill="#000000" font-family="sans-serif" font-size="14" lengthAdjust="spacing" textLength="114" x="249.5" y="923.7285">-String vatNumber</text><text fill="#000000" font-family="sans-serif" font-size="14" lengthAdjust="spacing" textLength="97" x="249.5" y="942.3496">-String address</text><text fill="#000000" font-family="sans-serif" font-size="14" lengthAdjust="spacing" textLength="86" x="249.5" y="960.9707">-String phone</text><text fill="#000000" font-family="sans-serif" font-size="14" lengthAdjust="spacing" textLength="79" x="249.5" y="979.5918">-String email</text><line style="stroke:#181818;stroke-width:0.5;" x1="244.5" x2="655.5" y1="987.1055" y2="987.1055"/><text fill="#000000" font-family="sans-serif" font-size="14" lengthAdjust="spacing" textLength="277" x="249.5" y="1006.2129">+addCollaborator(Collaborator collaborator)</text><text fill="#000000" font-family="sans-serif" font-size="14" lengthAdjust="spacing" textLength="302" x="249.5" y="1024.834">+validateCollaborator(Collaborator collaborator)</text><text fill="#000000" font-family="sans-serif" font-size="14" lengthAdjust="spacing" textLength="307" x="249.5" y="1043.4551">+Collaborator getCollaboratorByID(int IDnumber)</text><text fill="#000000" font-family="sans-serif" font-size="14" lengthAdjust="spacing" textLength="258" x="249.5" y="1062.0762">+List&lt;Collaborator&gt; getCollaboratorList()</text><text fill="#000000" font-family="sans-serif" font-size="14" lengthAdjust="spacing" textLength="397" x="249.5" y="1080.6973">+Optional&lt;Collaborator&gt; registerCollaborator(HRManager hrm,</text><text fill="#000000" font-family="sans-serif" font-size="14" lengthAdjust="spacing" textLength="84" x="249.5" y="1099.3184">name: String,</text><text fill="#000000" font-family="sans-serif" font-size="14" lengthAdjust="spacing" textLength="105" x="249.5" y="1117.9395">birthdate: String,</text><text fill="#000000" font-family="sans-serif" font-size="14" lengthAdjust="spacing" textLength="140" x="249.5" y="1136.5605">admissiondate: String,</text><text fill="#000000" font-family="sans-serif" font-size="14" lengthAdjust="spacing" textLength="100" x="249.5" y="1155.1816">address: String,</text><text fill="#000000" font-family="sans-serif" font-size="14" lengthAdjust="spacing" textLength="68" x="249.5" y="1173.8027">mobile: int,</text><text fill="#000000" font-family="sans-serif" font-size="14" lengthAdjust="spacing" textLength="82" x="249.5" y="1192.4238">email: String,</text><text fill="#000000" font-family="sans-serif" font-size="14" lengthAdjust="spacing" textLength="81" x="249.5" y="1211.0449">taxpayer: int,</text><text fill="#000000" font-family="sans-serif" font-size="14" lengthAdjust="spacing" textLength="112" x="249.5" y="1229.666">IDdoctype: String,</text><text fill="#000000" font-family="sans-serif" font-size="14" lengthAdjust="spacing" textLength="89" x="249.5" y="1248.2871">IDnumber: int)</text></g><!--class OrganizationRepository--><g id="elem_OrganizationRepository"><rect codeLine="57" fill="#F1F1F1" height="85.2422" id="OrganizationRepository" rx="2.5" ry="2.5" style="stroke:#181818;stroke-width:0.5;" width="248" x="445" y="652.5"/><ellipse cx="490.75" cy="668.5" fill="#ADD1B2" rx="11" ry="11" style="stroke:#181818;stroke-width:1.0;"/><path d="M493.5156,664.375 Q493.6719,664.1563 493.8594,664.0469 Q494.0469,663.9375 494.2656,663.9375 Q494.6406,663.9375 494.875,664.2031 Q495.1094,664.4531 495.1094,665.0625 L495.1094,666.5156 Q495.1094,667.125 494.875,667.3906 Q494.6406,667.6563 494.2656,667.6563 Q493.9219,667.6563 493.7188,667.4531 Q493.5156,667.2656 493.4063,666.75 Q493.3594,666.3906 493.1719,666.2031 Q492.8438,665.8281 492.2344,665.6094 Q491.625,665.3906 491,665.3906 Q490.2344,665.3906 489.5938,665.7188 Q488.9688,666.0469 488.4688,666.7969 Q487.9844,667.5469 487.9844,668.5781 L487.9844,669.6719 Q487.9844,670.9063 488.875,671.7344 Q489.7656,672.5469 491.3594,672.5469 Q492.2969,672.5469 492.9531,672.2969 Q493.3438,672.1406 493.7656,671.7031 Q494.0313,671.4375 494.1719,671.3594 Q494.3281,671.2813 494.5313,671.2813 Q494.8594,671.2813 495.1094,671.5469 Q495.375,671.7969 495.375,672.1406 Q495.375,672.4844 495.0313,672.8906 Q494.5313,673.4688 493.7344,673.7969 Q492.6563,674.25 491.3594,674.25 Q489.8438,674.25 488.6406,673.625 Q487.6563,673.125 486.9688,672.0625 Q486.2813,670.9844 486.2813,669.7031 L486.2813,668.5469 Q486.2813,667.2188 486.8906,666.0781 Q487.5156,664.9219 488.6094,664.3125 Q489.7031,663.6875 490.9375,663.6875 Q491.6719,663.6875 492.3125,663.8594 Q492.9688,664.0156 493.5156,664.375 Z " fill="#000000"/><text fill="#000000" font-family="sans-serif" font-size="14" lengthAdjust="spacing" textLength="148" x="511.25" y="674.2969">OrganizationRepository</text><line style="stroke:#181818;stroke-width:0.5;" x1="446" x2="692" y1="684.5" y2="684.5"/><line style="stroke:#181818;stroke-width:0.5;" x1="446" x2="692" y1="692.5" y2="692.5"/><text fill="#000000" font-family="sans-serif" font-size="14" lengthAdjust="spacing" textLength="169" x="451" y="711.6074">+findByName(String name)</text><text fill="#000000" font-family="sans-serif" font-size="14" lengthAdjust="spacing" textLength="236" x="451" y="730.2285">+findByVatNumber(String vatNumber)</text></g><!--class Repositories--><g id="elem_Repositories"><rect codeLine="62" fill="#F1F1F1" height="103.8633" id="Repositories" rx="2.5" ry="2.5" style="stroke:#181818;stroke-width:0.5;" width="358" x="733" y="432"/><ellipse cx="868.25" cy="448" fill="#ADD1B2" rx="11" ry="11" style="stroke:#181818;stroke-width:1.0;"/><path d="M871.0156,443.875 Q871.1719,443.6563 871.3594,443.5469 Q871.5469,443.4375 871.7656,443.4375 Q872.1406,443.4375 872.375,443.7031 Q872.6094,443.9531 872.6094,444.5625 L872.6094,446.0156 Q872.6094,446.625 872.375,446.8906 Q872.1406,447.1563 871.7656,447.1563 Q871.4219,447.1563 871.2188,446.9531 Q871.0156,446.7656 870.9063,446.25 Q870.8594,445.8906 870.6719,445.7031 Q870.3438,445.3281 869.7344,445.1094 Q869.125,444.8906 868.5,444.8906 Q867.7344,444.8906 867.0938,445.2188 Q866.4688,445.5469 865.9688,446.2969 Q865.4844,447.0469 865.4844,448.0781 L865.4844,449.1719 Q865.4844,450.4063 866.375,451.2344 Q867.2656,452.0469 868.8594,452.0469 Q869.7969,452.0469 870.4531,451.7969 Q870.8438,451.6406 871.2656,451.2031 Q871.5313,450.9375 871.6719,450.8594 Q871.8281,450.7813 872.0313,450.7813 Q872.3594,450.7813 872.6094,451.0469 Q872.875,451.2969 872.875,451.6406 Q872.875,451.9844 872.5313,452.3906 Q872.0313,452.9688 871.2344,453.2969 Q870.1563,453.75 868.8594,453.75 Q867.3438,453.75 866.1406,453.125 Q865.1563,452.625 864.4688,451.5625 Q863.7813,450.4844 863.7813,449.2031 L863.7813,448.0469 Q863.7813,446.7188 864.3906,445.5781 Q865.0156,444.4219 866.1094,443.8125 Q867.2031,443.1875 868.4375,443.1875 Q869.1719,443.1875 869.8125,443.3594 Q870.4688,443.5156 871.0156,443.875 Z " fill="#000000"/><text fill="#000000" font-family="sans-serif" font-size="14" lengthAdjust="spacing" textLength="79" x="888.75" y="453.7969">Repositories</text><line style="stroke:#181818;stroke-width:0.5;" x1="734" x2="1090" y1="464" y2="464"/><line style="stroke:#181818;stroke-width:0.5;" x1="734" x2="1090" y1="472" y2="472"/><text fill="#000000" font-family="sans-serif" font-size="14" lengthAdjust="spacing" textLength="182" x="739" y="491.1074">+getInstance() : Repositories</text><text fill="#000000" font-family="sans-serif" font-size="14" lengthAdjust="spacing" textLength="342" x="739" y="509.7285">+getCollaboratorRepository() : CollaboratorRepository</text><text fill="#000000" font-family="sans-serif" font-size="14" lengthAdjust="spacing" textLength="346" x="739" y="528.3496">+getOrganizationRepository() : OrganizationRepository</text></g><!--class RegisterCollaboratorController--><g id="elem_RegisterCollaboratorController"><rect codeLine="68" fill="#F1F1F1" height="345.9375" id="RegisterCollaboratorController" rx="2.5" ry="2.5" style="stroke:#181818;stroke-width:0.5;" width="413" x="951.5" y="7"/><ellipse cx="1057.25" cy="23" fill="#ADD1B2" rx="11" ry="11" style="stroke:#181818;stroke-width:1.0;"/><path d="M1060.0156,18.875 Q1060.1719,18.6563 1060.3594,18.5469 Q1060.5469,18.4375 1060.7656,18.4375 Q1061.1406,18.4375 1061.375,18.7031 Q1061.6094,18.9531 1061.6094,19.5625 L1061.6094,21.0156 Q1061.6094,21.625 1061.375,21.8906 Q1061.1406,22.1563 1060.7656,22.1563 Q1060.4219,22.1563 1060.2188,21.9531 Q1060.0156,21.7656 1059.9063,21.25 Q1059.8594,20.8906 1059.6719,20.7031 Q1059.3438,20.3281 1058.7344,20.1094 Q1058.125,19.8906 1057.5,19.8906 Q1056.7344,19.8906 1056.0938,20.2188 Q1055.4688,20.5469 1054.9688,21.2969 Q1054.4844,22.0469 1054.4844,23.0781 L1054.4844,24.1719 Q1054.4844,25.4063 1055.375,26.2344 Q1056.2656,27.0469 1057.8594,27.0469 Q1058.7969,27.0469 1059.4531,26.7969 Q1059.8438,26.6406 1060.2656,26.2031 Q1060.5313,25.9375 1060.6719,25.8594 Q1060.8281,25.7813 1061.0313,25.7813 Q1061.3594,25.7813 1061.6094,26.0469 Q1061.875,26.2969 1061.875,26.6406 Q1061.875,26.9844 1061.5313,27.3906 Q1061.0313,27.9688 1060.2344,28.2969 Q1059.1563,28.75 1057.8594,28.75 Q1056.3438,28.75 1055.1406,28.125 Q1054.1563,27.625 1053.4688,26.5625 Q1052.7813,25.4844 1052.7813,24.2031 L1052.7813,23.0469 Q1052.7813,21.7188 1053.3906,20.5781 Q1054.0156,19.4219 1055.1094,18.8125 Q1056.2031,18.1875 1057.4375,18.1875 Q1058.1719,18.1875 1058.8125,18.3594 Q1059.4688,18.5156 1060.0156,18.875 Z " fill="#000000"/><text fill="#000000" font-family="sans-serif" font-size="14" lengthAdjust="spacing" textLength="193" x="1077.75" y="28.7969">RegisterCollaboratorController</text><line style="stroke:#181818;stroke-width:0.5;" x1="952.5" x2="1363.5" y1="39" y2="39"/><line style="stroke:#181818;stroke-width:0.5;" x1="952.5" x2="1363.5" y1="47" y2="47"/><text fill="#000000" font-family="sans-serif" font-size="14" lengthAdjust="spacing" textLength="334" x="957.5" y="66.1074">+CollaboratorRepository getCollaboratorRepository()</text><text fill="#000000" font-family="sans-serif" font-size="14" lengthAdjust="spacing" textLength="338" x="957.5" y="84.7285">+OrganizationRepository getOrganizationRepository()</text><text fill="#000000" font-family="sans-serif" font-size="14" lengthAdjust="spacing" textLength="358" x="957.5" y="103.3496">+AuthenticationRepository getAuthenticationRepository()</text><text fill="#000000" font-family="sans-serif" font-size="14" lengthAdjust="spacing" textLength="222" x="957.5" y="121.9707">+JobRepository getJobRepository()</text><text fill="#000000" font-family="sans-serif" font-size="14" lengthAdjust="spacing" textLength="185" x="957.5" y="140.5918">+HRM getHRMFromSession()</text><text fill="#000000" font-family="sans-serif" font-size="14" lengthAdjust="spacing" textLength="397" x="957.5" y="159.2129">+Optional&lt;Collaborator&gt; registerCollaborator(HRManager hrm,</text><text fill="#000000" font-family="sans-serif" font-size="14" lengthAdjust="spacing" textLength="84" x="957.5" y="177.834">name: String,</text><text fill="#000000" font-family="sans-serif" font-size="14" lengthAdjust="spacing" textLength="105" x="957.5" y="196.4551">birthdate: String,</text><text fill="#000000" font-family="sans-serif" font-size="14" lengthAdjust="spacing" textLength="140" x="957.5" y="215.0762">admissiondate: String,</text><text fill="#000000" font-family="sans-serif" font-size="14" lengthAdjust="spacing" textLength="100" x="957.5" y="233.6973">address: String,</text><text fill="#000000" font-family="sans-serif" font-size="14" lengthAdjust="spacing" textLength="68" x="957.5" y="252.3184">mobile: int,</text><text fill="#000000" font-family="sans-serif" font-size="14" lengthAdjust="spacing" textLength="82" x="957.5" y="270.9395">email: String,</text><text fill="#000000" font-family="sans-serif" font-size="14" lengthAdjust="spacing" textLength="133" x="957.5" y="289.5605">taxpayer number: int,</text><text fill="#000000" font-family="sans-serif" font-size="14" lengthAdjust="spacing" textLength="112" x="957.5" y="308.1816">IDdoctype: String,</text><text fill="#000000" font-family="sans-serif" font-size="14" lengthAdjust="spacing" textLength="89" x="957.5" y="326.8027">IDnumber: int)</text><text fill="#000000" font-family="sans-serif" font-size="14" lengthAdjust="spacing" textLength="357" x="957.5" y="345.4238">+void assignJobToCollaborator(collaboratorID, jobName)</text></g><!--class RegisterCollaboratorUI--><g id="elem_RegisterCollaboratorUI"><rect codeLine="78" fill="#F1F1F1" height="252.832" id="RegisterCollaboratorUI" rx="2.5" ry="2.5" style="stroke:#181818;stroke-width:0.5;" width="375" x="541.5" y="53.5"/><ellipse cx="653.25" cy="69.5" fill="#ADD1B2" rx="11" ry="11" style="stroke:#181818;stroke-width:1.0;"/><path d="M656.0156,65.375 Q656.1719,65.1563 656.3594,65.0469 Q656.5469,64.9375 656.7656,64.9375 Q657.1406,64.9375 657.375,65.2031 Q657.6094,65.4531 657.6094,66.0625 L657.6094,67.5156 Q657.6094,68.125 657.375,68.3906 Q657.1406,68.6563 656.7656,68.6563 Q656.4219,68.6563 656.2188,68.4531 Q656.0156,68.2656 655.9063,67.75 Q655.8594,67.3906 655.6719,67.2031 Q655.3438,66.8281 654.7344,66.6094 Q654.125,66.3906 653.5,66.3906 Q652.7344,66.3906 652.0938,66.7188 Q651.4688,67.0469 650.9688,67.7969 Q650.4844,68.5469 650.4844,69.5781 L650.4844,70.6719 Q650.4844,71.9063 651.375,72.7344 Q652.2656,73.5469 653.8594,73.5469 Q654.7969,73.5469 655.4531,73.2969 Q655.8438,73.1406 656.2656,72.7031 Q656.5313,72.4375 656.6719,72.3594 Q656.8281,72.2813 657.0313,72.2813 Q657.3594,72.2813 657.6094,72.5469 Q657.875,72.7969 657.875,73.1406 Q657.875,73.4844 657.5313,73.8906 Q657.0313,74.4688 656.2344,74.7969 Q655.1563,75.25 653.8594,75.25 Q652.3438,75.25 651.1406,74.625 Q650.1563,74.125 649.4688,73.0625 Q648.7813,71.9844 648.7813,70.7031 L648.7813,69.5469 Q648.7813,68.2188 649.3906,67.0781 Q650.0156,65.9219 651.1094,65.3125 Q652.2031,64.6875 653.4375,64.6875 Q654.1719,64.6875 654.8125,64.8594 Q655.4688,65.0156 656.0156,65.375 Z " fill="#000000"/><text fill="#000000" font-family="sans-serif" font-size="14" lengthAdjust="spacing" textLength="143" x="673.75" y="75.2969">RegisterCollaboratorUI</text><line style="stroke:#181818;stroke-width:0.5;" x1="542.5" x2="915.5" y1="85.5" y2="85.5"/><line style="stroke:#181818;stroke-width:0.5;" x1="542.5" x2="915.5" y1="93.5" y2="93.5"/><text fill="#000000" font-family="sans-serif" font-size="14" lengthAdjust="spacing" textLength="221" x="547.5" y="112.6074">+String requestCollaboratorName()</text><text fill="#000000" font-family="sans-serif" font-size="14" lengthAdjust="spacing" textLength="244" x="547.5" y="131.2285">+String requestCollaboratorBirthDate()</text><text fill="#000000" font-family="sans-serif" font-size="14" lengthAdjust="spacing" textLength="279" x="547.5" y="149.8496">+String requestCollaboratorAdmissionDate()</text><text fill="#000000" font-family="sans-serif" font-size="14" lengthAdjust="spacing" textLength="237" x="547.5" y="168.4707">+String requestCollaboratorAddress()</text><text fill="#000000" font-family="sans-serif" font-size="14" lengthAdjust="spacing" textLength="204" x="547.5" y="187.0918">+int requestCollaboratorMobile()</text><text fill="#000000" font-family="sans-serif" font-size="14" lengthAdjust="spacing" textLength="219" x="547.5" y="205.7129">+String requestCollaboratorEmail()</text><text fill="#000000" font-family="sans-serif" font-size="14" lengthAdjust="spacing" textLength="271" x="547.5" y="224.334">+int requestCollaboratorTaxpayerNumber()</text><text fill="#000000" font-family="sans-serif" font-size="14" lengthAdjust="spacing" textLength="242" x="547.5" y="242.9551">+String requestCollaboratorDocType()</text><text fill="#000000" font-family="sans-serif" font-size="14" lengthAdjust="spacing" textLength="225" x="547.5" y="261.5762">+int requestCollaboratorIDNumber()</text><text fill="#000000" font-family="sans-serif" font-size="14" lengthAdjust="spacing" textLength="363" x="547.5" y="280.1973">+void assignJobToCollaborator(Collaborator collaborator)</text><text fill="#000000" font-family="sans-serif" font-size="14" lengthAdjust="spacing" textLength="103" x="547.5" y="298.8184">+Job selectJob()</text></g><!--class HRManager--><g id="elem_HRManager"><rect codeLine="92" fill="#F1F1F1" height="122.4844" id="HRManager" rx="2.5" ry="2.5" style="stroke:#181818;stroke-width:0.5;" width="107" x="462.5" y="1335"/><ellipse cx="477.5" cy="1351" fill="#ADD1B2" rx="11" ry="11" style="stroke:#181818;stroke-width:1.0;"/><path d="M480.2656,1346.875 Q480.4219,1346.6563 480.6094,1346.5469 Q480.7969,1346.4375 481.0156,1346.4375 Q481.3906,1346.4375 481.625,1346.7031 Q481.8594,1346.9531 481.8594,1347.5625 L481.8594,1349.0156 Q481.8594,1349.625 481.625,1349.8906 Q481.3906,1350.1563 481.0156,1350.1563 Q480.6719,1350.1563 480.4688,1349.9531 Q480.2656,1349.7656 480.1563,1349.25 Q480.1094,1348.8906 479.9219,1348.7031 Q479.5938,1348.3281 478.9844,1348.1094 Q478.375,1347.8906 477.75,1347.8906 Q476.9844,1347.8906 476.3438,1348.2188 Q475.7188,1348.5469 475.2188,1349.2969 Q474.7344,1350.0469 474.7344,1351.0781 L474.7344,1352.1719 Q474.7344,1353.4063 475.625,1354.2344 Q476.5156,1355.0469 478.1094,1355.0469 Q479.0469,1355.0469 479.7031,1354.7969 Q480.0938,1354.6406 480.5156,1354.2031 Q480.7813,1353.9375 480.9219,1353.8594 Q481.0781,1353.7813 481.2813,1353.7813 Q481.6094,1353.7813 481.8594,1354.0469 Q482.125,1354.2969 482.125,1354.6406 Q482.125,1354.9844 481.7813,1355.3906 Q481.2813,1355.9688 480.4844,1356.2969 Q479.4063,1356.75 478.1094,1356.75 Q476.5938,1356.75 475.3906,1356.125 Q474.4063,1355.625 473.7188,1354.5625 Q473.0313,1353.4844 473.0313,1352.2031 L473.0313,1351.0469 Q473.0313,1349.7188 473.6406,1348.5781 Q474.2656,1347.4219 475.3594,1346.8125 Q476.4531,1346.1875 477.6875,1346.1875 Q478.4219,1346.1875 479.0625,1346.3594 Q479.7188,1346.5156 480.2656,1346.875 Z " fill="#000000"/><text fill="#000000" font-family="sans-serif" font-size="14" lengthAdjust="spacing" textLength="75" x="491.5" y="1356.7969">HRManager</text><line style="stroke:#181818;stroke-width:0.5;" x1="463.5" x2="568.5" y1="1367" y2="1367"/><text fill="#000000" font-family="sans-serif" font-size="14" lengthAdjust="spacing" textLength="81" x="468.5" y="1386.1074">-String name</text><text fill="#000000" font-family="sans-serif" font-size="14" lengthAdjust="spacing" textLength="92" x="468.5" y="1404.7285">-int vatNumber</text><text fill="#000000" font-family="sans-serif" font-size="14" lengthAdjust="spacing" textLength="79" x="468.5" y="1423.3496">-String email</text><text fill="#000000" font-family="sans-serif" font-size="14" lengthAdjust="spacing" textLength="72" x="468.5" y="1441.9707">-int number</text><line style="stroke:#181818;stroke-width:0.5;" x1="463.5" x2="568.5" y1="1449.4844" y2="1449.4844"/></g><!--class CollaboratorManager--><g id="elem_CollaboratorManager"><rect fill="#F1F1F1" height="48" id="CollaboratorManager" rx="2.5" ry="2.5" style="stroke:#181818;stroke-width:0.5;" width="166" x="593" y="1536"/><ellipse cx="608" cy="1552" fill="#ADD1B2" rx="11" ry="11" style="stroke:#181818;stroke-width:1.0;"/><path d="M610.7656,1547.875 Q610.9219,1547.6563 611.1094,1547.5469 Q611.2969,1547.4375 611.5156,1547.4375 Q611.8906,1547.4375 612.125,1547.7031 Q612.3594,1547.9531 612.3594,1548.5625 L612.3594,1550.0156 Q612.3594,1550.625 612.125,1550.8906 Q611.8906,1551.1563 611.5156,1551.1563 Q611.1719,1551.1563 610.9688,1550.9531 Q610.7656,1550.7656 610.6563,1550.25 Q610.6094,1549.8906 610.4219,1549.7031 Q610.0938,1549.3281 609.4844,1549.1094 Q608.875,1548.8906 608.25,1548.8906 Q607.4844,1548.8906 606.8438,1549.2188 Q606.2188,1549.5469 605.7188,1550.2969 Q605.2344,1551.0469 605.2344,1552.0781 L605.2344,1553.1719 Q605.2344,1554.4063 606.125,1555.2344 Q607.0156,1556.0469 608.6094,1556.0469 Q609.5469,1556.0469 610.2031,1555.7969 Q610.5938,1555.6406 611.0156,1555.2031 Q611.2813,1554.9375 611.4219,1554.8594 Q611.5781,1554.7813 611.7813,1554.7813 Q612.1094,1554.7813 612.3594,1555.0469 Q612.625,1555.2969 612.625,1555.6406 Q612.625,1555.9844 612.2813,1556.3906 Q611.7813,1556.9688 610.9844,1557.2969 Q609.9063,1557.75 608.6094,1557.75 Q607.0938,1557.75 605.8906,1557.125 Q604.9063,1556.625 604.2188,1555.5625 Q603.5313,1554.4844 603.5313,1553.2031 L603.5313,1552.0469 Q603.5313,1550.7188 604.1406,1549.5781 Q604.7656,1548.4219 605.8594,1547.8125 Q606.9531,1547.1875 608.1875,1547.1875 Q608.9219,1547.1875 609.5625,1547.3594 Q610.2188,1547.5156 610.7656,1547.875 Z " fill="#000000"/><text fill="#000000" font-family="sans-serif" font-size="14" lengthAdjust="spacing" textLength="134" x="622" y="1557.7969">CollaboratorManager</text><line style="stroke:#181818;stroke-width:0.5;" x1="594" x2="758" y1="1568" y2="1568"/><line style="stroke:#181818;stroke-width:0.5;" x1="594" x2="758" y1="1576" y2="1576"/></g><g id="elem_GMN15"><path d="M1399.5,157.5 L1399.5,176 L1364.76,180 L1399.5,184 L1399.5,202.082 A0,0 0 0 0 1399.5,202.082 L1718.5,202.082 A0,0 0 0 0 1718.5,202.082 L1718.5,167.5 L1708.5,157.5 L1399.5,157.5 A0,0 0 0 0 1399.5,157.5 " fill="#FEFFDD" style="stroke:#181818;stroke-width:0.5;"/><path d="M1708.5,157.5 L1708.5,167.5 L1718.5,167.5 L1708.5,157.5 " fill="#FEFFDD" style="stroke:#181818;stroke-width:0.5;"/><text fill="#000000" font-family="sans-serif" font-size="13" lengthAdjust="spacing" textLength="298" x="1405.5" y="176.5283">- Collaborator data is obtained from the HRM's input</text><text fill="#000000" font-family="sans-serif" font-size="13" lengthAdjust="spacing" textLength="217" x="1405.5" y="193.8193">- Updates the Collaborator Repository</text></g><g id="elem_GMN18"><path d="M605,1382.5 L605,1409.791 L851,1409.791 L851,1392.5 L841,1382.5 L605,1382.5 " fill="#FEFFDD" style="stroke:#181818;stroke-width:0.5;"/><path d="M841,1382.5 L841,1392.5 L851,1392.5 L841,1382.5 " fill="#FEFFDD" style="stroke:#181818;stroke-width:1.0;"/><text fill="#000000" font-family="sans-serif" font-size="13" lengthAdjust="spacing" textLength="225" x="611" y="1401.5283">- HRM initiates collaborator registration</text></g><g id="elem_GMN21"><path d="M187.5,157.5 L187.5,202.082 A0,0 0 0 0 187.5,202.082 L506.5,202.082 A0,0 0 0 0 506.5,202.082 L506.5,184 L541.03,180 L506.5,176 L506.5,167.5 L496.5,157.5 L187.5,157.5 A0,0 0 0 0 187.5,157.5 " fill="#FEFFDD" style="stroke:#181818;stroke-width:0.5;"/><path d="M496.5,157.5 L496.5,167.5 L506.5,167.5 L496.5,157.5 " fill="#FEFFDD" style="stroke:#181818;stroke-width:0.5;"/><text fill="#000000" font-family="sans-serif" font-size="13" lengthAdjust="spacing" textLength="296" x="193.5" y="176.5283">- UI for HRM to input and confirm collaborator name</text><text fill="#000000" font-family="sans-serif" font-size="13" lengthAdjust="spacing" textLength="298" x="193.5" y="193.8193">- Communicates with RegisterCollaboratorController</text></g><g id="elem_GMN24"><path d="M6,1032.5 L6,1077.082 L208,1077.082 L208,1042.5 L198,1032.5 L6,1032.5 " fill="#FEFFDD" style="stroke:#181818;stroke-width:0.5;"/><path d="M198,1032.5 L198,1042.5 L208,1042.5 L198,1032.5 " fill="#FEFFDD" style="stroke:#181818;stroke-width:1.0;"/><text fill="#000000" font-family="sans-serif" font-size="13" lengthAdjust="spacing" textLength="139" x="12" y="1051.5283">- Manages collaborators</text><text fill="#000000" font-family="sans-serif" font-size="13" lengthAdjust="spacing" textLength="181" x="12" y="1068.8193">- Handles organizational details</text></g><!--class JobRepository--><g id="elem_JobRepository"><rect fill="#F1F1F1" height="48" id="JobRepository" rx="2.5" ry="2.5" style="stroke:#181818;stroke-width:0.5;" width="122" x="1174" y="671"/><ellipse cx="1189" cy="687" fill="#ADD1B2" rx="11" ry="11" style="stroke:#181818;stroke-width:1.0;"/><path d="M1191.7656,682.875 Q1191.9219,682.6563 1192.1094,682.5469 Q1192.2969,682.4375 1192.5156,682.4375 Q1192.8906,682.4375 1193.125,682.7031 Q1193.3594,682.9531 1193.3594,683.5625 L1193.3594,685.0156 Q1193.3594,685.625 1193.125,685.8906 Q1192.8906,686.1563 1192.5156,686.1563 Q1192.1719,686.1563 1191.9688,685.9531 Q1191.7656,685.7656 1191.6563,685.25 Q1191.6094,684.8906 1191.4219,684.7031 Q1191.0938,684.3281 1190.4844,684.1094 Q1189.875,683.8906 1189.25,683.8906 Q1188.4844,683.8906 1187.8438,684.2188 Q1187.2188,684.5469 1186.7188,685.2969 Q1186.2344,686.0469 1186.2344,687.0781 L1186.2344,688.1719 Q1186.2344,689.4063 1187.125,690.2344 Q1188.0156,691.0469 1189.6094,691.0469 Q1190.5469,691.0469 1191.2031,690.7969 Q1191.5938,690.6406 1192.0156,690.2031 Q1192.2813,689.9375 1192.4219,689.8594 Q1192.5781,689.7813 1192.7813,689.7813 Q1193.1094,689.7813 1193.3594,690.0469 Q1193.625,690.2969 1193.625,690.6406 Q1193.625,690.9844 1193.2813,691.3906 Q1192.7813,691.9688 1191.9844,692.2969 Q1190.9063,692.75 1189.6094,692.75 Q1188.0938,692.75 1186.8906,692.125 Q1185.9063,691.625 1185.2188,690.5625 Q1184.5313,689.4844 1184.5313,688.2031 L1184.5313,687.0469 Q1184.5313,685.7188 1185.1406,684.5781 Q1185.7656,683.4219 1186.8594,682.8125 Q1187.9531,682.1875 1189.1875,682.1875 Q1189.9219,682.1875 1190.5625,682.3594 Q1191.2188,682.5156 1191.7656,682.875 Z " fill="#000000"/><text fill="#000000" font-family="sans-serif" font-size="14" lengthAdjust="spacing" textLength="90" x="1203" y="692.7969">JobRepository</text><line style="stroke:#181818;stroke-width:0.5;" x1="1175" x2="1295" y1="703" y2="703"/><line style="stroke:#181818;stroke-width:0.5;" x1="1175" x2="1295" y1="711" y2="711"/></g><!--link CollaboratorManager to Collaborator--><g id="link_CollaboratorManager_Collaborator"><path codeLine="99" d="M656.84,1584.33 C637.27,1608.17 609.3877,1642.123 579.3577,1678.693 " fill="none" id="CollaboratorManager-to-Collaborator" style="stroke:#181818;stroke-width:1.0;"/><polygon fill="#181818" points="575.55,1683.33,584.3529,1678.913,578.7231,1679.4659,578.1703,1673.8361,575.55,1683.33" style="stroke:#181818;stroke-width:1.0;"/><text fill="#000000" font-family="sans-serif" font-size="13" lengthAdjust="spacing" textLength="53" x="629" y="1629.0283">Manages</text></g><!--link HRManager to CollaboratorManager--><g id="link_HRManager_CollaboratorManager"><path codeLine="100" d="M569.72,1451.39 C598.05,1480.07 627.1037,1509.4912 648.7737,1531.4312 " fill="none" id="HRManager-to-CollaboratorManager" style="stroke:#181818;stroke-width:1.0;"/><polygon fill="#181818" points="652.99,1535.7,649.5114,1526.4859,649.4764,1532.1426,643.8197,1532.1076,652.99,1535.7" style="stroke:#181818;stroke-width:1.0;"/><text fill="#000000" font-family="sans-serif" font-size="13" lengthAdjust="spacing" textLength="30" x="621" y="1502.0283">Uses</text></g><!--link HRManager to GMN18--><g id="link_HRManager_GMN18"><path d="M569.56,1396 C579.42,1396 586.67,1396 586.67,1396 C586.67,1396 594.46,1396 604.87,1396 " fill="none" id="HRManager-GMN18" style="stroke:#181818;stroke-width:1.0;stroke-dasharray:7.0,7.0;"/></g><!--link GMN24 to Organization--><g id="link_GMN24_Organization"><path d="M208.22,1055 C216.25,1055 221.33,1055 221.33,1055 C221.33,1055 230.38,1055 243.38,1055 " fill="none" id="GMN24-Organization" style="stroke:#181818;stroke-width:1.0;stroke-dasharray:7.0,7.0;"/></g><!--link Repositories to Repositories--><g id="link_Repositories_Repositories"><path codeLine="121" d="M1091.13,469.55 C1112.24,472.2 1126,477.01 1126,484 C1126,490.99 1118.1933,495.0527 1097.0833,497.7027 " fill="none" id="Repositories-to-Repositories" style="stroke:#181818;stroke-width:1.0;"/><polygon fill="#181818" points="1091.13,498.45,1100.5581,501.2979,1096.0911,497.8272,1099.5617,493.3602,1091.13,498.45" style="stroke:#181818;stroke-width:1.0;"/><text fill="#000000" font-family="sans-serif" font-size="13" lengthAdjust="spacing" textLength="49" x="1132" y="489.5283">instance</text></g><!--link ApplicationSession to ApplicationSession--><g id="link_ApplicationSession_ApplicationSession"><path codeLine="122" d="M1578.66,467.29 C1598.5,468.28 1613.5,473.85 1613.5,484 C1613.5,494.15 1604.4925,499.421 1584.6525,500.411 " fill="none" id="ApplicationSession-to-ApplicationSession" style="stroke:#181818;stroke-width:1.0;"/><polygon fill="#181818" points="1578.66,500.71,1587.8482,504.2565,1583.6538,500.4608,1587.4495,496.2664,1578.66,500.71" style="stroke:#181818;stroke-width:1.0;"/><text fill="#000000" font-family="sans-serif" font-size="13" lengthAdjust="spacing" textLength="49" x="1619.5" y="489.5283">instance</text></g><!--link RegisterCollaboratorUI to RegisterCollaboratorController--><g id="link_RegisterCollaboratorUI_RegisterCollaboratorController"><path codeLine="124" d="M916.85,180 C927.83,180 933.78,180 945.45,180 " fill="none" id="RegisterCollaboratorUI-to-RegisterCollaboratorController" style="stroke:#181818;stroke-width:1.0;stroke-dasharray:7.0,7.0;"/><polygon fill="#181818" points="951.45,180,942.45,176,946.45,180,942.45,184,951.45,180" style="stroke:#181818;stroke-width:1.0;"/></g><!--link RegisterCollaboratorController to Repositories--><g id="link_RegisterCollaboratorController_Repositories"><path codeLine="126" d="M1017.75,353.17 C994.34,381.92 975.5704,404.9689 957.3404,427.3389 " fill="none" id="RegisterCollaboratorController-to-Repositories" style="stroke:#181818;stroke-width:1.0;"/><polygon fill="#181818" points="953.55,431.99,962.3363,427.5402,956.7086,428.114,956.1348,422.4864,953.55,431.99" style="stroke:#181818;stroke-width:1.0;"/><text fill="#000000" font-family="sans-serif" font-size="13" lengthAdjust="spacing" textLength="108" x="993" y="398.0283">retrieves instances</text></g><!--link RegisterCollaboratorController to OrganizationRepository--><g id="link_RegisterCollaboratorController_OrganizationRepository"><path codeLine="129" d="M951.2,339.79 C940.47,348.03 934,353 934,353 C934,353 581,432 581,432 C581,432 574.565,572.6163 571.175,646.4963 " fill="none" id="RegisterCollaboratorController-to-OrganizationRepository" style="stroke:#181818;stroke-width:1.0;stroke-dasharray:7.0,7.0;"/><polygon fill="#181818" points="570.9,652.49,575.3083,643.6828,571.1292,647.4953,567.3167,643.3161,570.9,652.49" style="stroke:#181818;stroke-width:1.0;"/><text fill="#000000" font-family="sans-serif" font-size="13" lengthAdjust="spacing" textLength="132" x="582" y="489.5283">organizationRepository</text></g><!--link RegisterCollaboratorController to JobRepository--><g id="link_RegisterCollaboratorController_JobRepository"><path codeLine="130" d="M1183.85,353.25 C1201.5,470.84 1222.2488,609.0866 1230.5988,664.6766 " fill="none" id="RegisterCollaboratorController-to-JobRepository" style="stroke:#181818;stroke-width:1.0;stroke-dasharray:7.0,7.0;"/><polygon fill="#181818" points="1231.49,670.61,1234.1088,661.1157,1230.7473,665.6655,1226.1975,662.304,1231.49,670.61" style="stroke:#181818;stroke-width:1.0;"/><text fill="#000000" font-family="sans-serif" font-size="13" lengthAdjust="spacing" textLength="79" x="1212" y="489.5283">jobRepository</text></g><!--link Repositories to OrganizationRepository--><g id="link_Repositories_OrganizationRepository"><path codeLine="132" d="M828.09,536.13 C769.49,571.84 697.3543,615.7989 642.4843,649.2189 " fill="none" id="Repositories-to-OrganizationRepository" style="stroke:#181818;stroke-width:1.0;"/><polygon fill="#181818" points="637.36,652.34,647.1272,651.0746,641.6303,649.7391,642.9658,644.2421,637.36,652.34" style="stroke:#181818;stroke-width:1.0;"/><text fill="#000000" font-family="sans-serif" font-size="13" lengthAdjust="spacing" textLength="7" x="640.6971" y="641.2186">1</text></g><!--link Repositories to CollaboratorRepository--><g id="link_Repositories_CollaboratorRepository"><path codeLine="133" d="M916.16,536.13 C918.09,559.81 919.9328,582.5198 922.0828,608.9098 " fill="none" id="Repositories-to-CollaboratorRepository" style="stroke:#181818;stroke-width:1.0;"/><polygon fill="#181818" points="922.57,614.89,925.826,605.5949,922.164,609.9065,917.8524,606.2445,922.57,614.89" style="stroke:#181818;stroke-width:1.0;"/><text fill="#000000" font-family="sans-serif" font-size="13" lengthAdjust="spacing" textLength="7" x="914.6546" y="603.7756">1</text></g><!--link Repositories to JobRepository--><g id="link_Repositories_JobRepository"><path codeLine="134" d="M1004.2,536.01 C1070.04,572.43 1147,615 1147,615 C1147,615 1178.6555,643.4114 1204.6055,666.7114 " fill="none" id="Repositories-to-JobRepository" style="stroke:#181818;stroke-width:1.0;"/><polygon fill="#181818" points="1209.07,670.72,1205.0457,661.7309,1205.3496,667.3795,1199.7009,667.6835,1209.07,670.72" style="stroke:#181818;stroke-width:1.0;"/><text fill="#000000" font-family="sans-serif" font-size="13" lengthAdjust="spacing" textLength="7" x="1194.8964" y="659.7937">1</text></g><!--link OrganizationRepository to Organization--><g id="link_OrganizationRepository_Organization"><path codeLine="136" d="M555.12,737.77 C545.25,767.46 533.0831,804.0565 518.4431,848.0865 " fill="none" id="OrganizationRepository-to-Organization" style="stroke:#181818;stroke-width:1.0;"/><polygon fill="#181818" points="516.55,853.78,523.1853,846.5018,518.1276,849.0354,515.594,843.9777,516.55,853.78" style="stroke:#181818;stroke-width:1.0;"/><text fill="#000000" font-family="sans-serif" font-size="13" lengthAdjust="spacing" textLength="46" x="532" y="820.0283">persists</text><text fill="#000000" font-family="sans-serif" font-size="13" lengthAdjust="spacing" textLength="5" x="514.052" y="842.6257">*</text></g><!--link ApplicationSession to UserSession--><g id="link_ApplicationSession_UserSession"><path codeLine="137" d="M1488.09,526.54 C1473.87,566.18 1454.7579,619.4531 1441.7079,655.7931 " fill="none" id="ApplicationSession-to-UserSession" style="stroke:#181818;stroke-width:1.0;"/><polygon fill="#181818" points="1439.68,661.44,1446.4864,654.3215,1441.3699,656.7342,1438.9572,651.6177,1439.68,661.44" style="stroke:#181818;stroke-width:1.0;"/><text fill="#000000" font-family="sans-serif" font-size="13" lengthAdjust="spacing" textLength="72" x="1473" y="581.0283">userSession</text><text fill="#000000" font-family="sans-serif" font-size="13" lengthAdjust="spacing" textLength="7" x="1434.2904" y="650.2537">1</text></g><!--link RegisterCollaboratorController to Organization--><g id="link_RegisterCollaboratorController_Organization"><path codeLine="139" d="M951.2,339.79 C940.47,348.03 934,353 934,353 C934,353 709,383 709,383 C709,383 569,432 569,432 C569,432 427,615 427,615 C427,615 427,775 427,775 C427,775 429.3373,803.3103 433.0073,847.8503 " fill="none" id="RegisterCollaboratorController-to-Organization" style="stroke:#181818;stroke-width:1.0;stroke-dasharray:7.0,7.0;"/><polygon fill="#181818" points="433.5,853.83,436.7474,844.5319,433.0894,848.8469,428.7744,845.1889,433.5,853.83" style="stroke:#181818;stroke-width:1.0;"/><text fill="#000000" font-family="sans-serif" font-size="13" lengthAdjust="spacing" textLength="70" x="466" y="581.0283">organization</text><text fill="#000000" font-family="sans-serif" font-size="13" lengthAdjust="spacing" textLength="7" x="425.7188" y="842.6777">1</text></g><!--link RegisterCollaboratorController to ApplicationSession--><g id="link_RegisterCollaboratorController_ApplicationSession"><path codeLine="140" d="M1364.29,353.19 C1385.81,371.15 1400,383 1400,383 C1400,383 1427.6055,409.8002 1455.9055,437.2802 " fill="none" id="RegisterCollaboratorController-to-ApplicationSession" style="stroke:#181818;stroke-width:1.0;stroke-dasharray:7.0,7.0;"/><polygon fill="#181818" points="1460.21,441.46,1456.5397,432.3206,1456.6229,437.9768,1450.9666,438.06,1460.21,441.46" style="stroke:#181818;stroke-width:1.0;"/></g><!--link RegisterCollaboratorController to UserSession--><g id="link_RegisterCollaboratorController_UserSession"><path codeLine="141" d="M1255.46,353.27 C1280.24,397.07 1300,432 1300,432 C1300,432 1375.096,585.7191 1409.416,655.9591 " fill="none" id="RegisterCollaboratorController-to-UserSession" style="stroke:#181818;stroke-width:1.0;stroke-dasharray:7.0,7.0;"/><polygon fill="#181818" points="1412.05,661.35,1411.6929,651.5076,1409.855,656.8576,1404.505,655.0197,1412.05,661.35" style="stroke:#181818;stroke-width:1.0;"/></g><!--link Organization to Collaborator--><g id="link_Organization_Collaborator"><path codeLine="142" d="M446.41,1256.17 C445.61,1300.71 445,1335 445,1335 C445,1335 445,1457 445,1457 C445,1457 462.3731,1564.5968 477.2731,1656.8268 " fill="none" id="Organization-to-Collaborator" style="stroke:#181818;stroke-width:1.0;"/><polygon fill="#181818" points="478.23,1662.75,480.7434,1653.2273,477.4326,1657.814,472.8458,1654.5031,478.23,1662.75" style="stroke:#181818;stroke-width:1.0;"/><text fill="#000000" font-family="sans-serif" font-size="13" lengthAdjust="spacing" textLength="30" x="454" y="1502.0283">owns</text><text fill="#000000" font-family="sans-serif" font-size="13" lengthAdjust="spacing" textLength="7" x="439.1552" y="1277.7421">1</text><text fill="#000000" font-family="sans-serif" font-size="13" lengthAdjust="spacing" textLength="5" x="471.8674" y="1651.725">*</text></g><!--link Collaborator to HRManager--><g id="link_Collaborator_HRManager"><path codeLine="143" d="M502.78,1662.7 C506.16,1594.84 509.9822,1518.0426 512.7122,1463.1026 " fill="none" id="Collaborator-to-HRManager" style="stroke:#181818;stroke-width:1.0;"/><polygon fill="#181818" points="513.01,1457.11,508.5683,1465.9004,512.7619,1462.1038,516.5584,1466.2974,513.01,1457.11" style="stroke:#181818;stroke-width:1.0;"/><text fill="#000000" font-family="sans-serif" font-size="13" lengthAdjust="spacing" textLength="59" x="511" y="1565.5283">createdBy</text></g><!--link Organization to HRManager--><g id="link_Organization_HRManager"><path codeLine="145" d="M488.96,1256.14 C494.52,1284.66 498.6937,1306.1005 503.1237,1328.8605 " fill="none" id="Organization-to-HRManager" style="stroke:#181818;stroke-width:1.0;"/><polygon fill="#181818" points="504.27,1334.75,506.4768,1325.1516,503.3147,1329.8421,498.6242,1326.68,504.27,1334.75" style="stroke:#181818;stroke-width:1.0;"/><text fill="#000000" font-family="sans-serif" font-size="13" lengthAdjust="spacing" textLength="49" x="500" y="1301.0283">employs</text><text fill="#000000" font-family="sans-serif" font-size="13" lengthAdjust="spacing" textLength="5" x="497.6247" y="1323.7023">*</text></g><!--SRC=[xHZPRkCsy5rVCTYNsCqwIDAaG8r5q2JETftDXTX9N_f2IxJDhaIg9ENKM_JVEwGEax9yjC02BQ1zo5fpSMOu5mSEr1V6Ko990edW8fnBaL3GCgC1h50f2R-G6HtfPKn1qb0JFeiz2ZKdaNXZV0PJ4YiF5JDEzJAba8fuQJu2E6Z02gb5uFA5CL7gKcl99fccmr3m4VjAuHY93c8wrQ05I3QRQuYOqOa9ZYZB1PTf6hEG6DY8AcLGy6S0vjyXA8s846PK3pd-vY7jT4iS0gypAIdN1Pz1_LN9VL5KhWj49eEuIGYB2_gS_5h4CPa8IRIG1NaFE4be7qPe5vyLe0cJUXuHNOUJA67sC6X4HX9LgK4JCM5uITU2QnBgFZ2k2mmrwa5O8ZmkJVv8oP9Au5aoeT9b6muW4Y6OEwen8QPEVcYq6drXSTnHvcytMFdETSOpJOLY-6EPkwK7Tqpf3xTYSj67tyH41LROOsfkaCGVNDuBSqR7SsteV7HpLWzlRjNvlbeE1nrK6It83IXuh0x-KJLErIb89qB4b71Oa9YPkt69Tkgs42o2BDsVRonUBBKNYuzoHZZxQeEyz69-FpR4FC22w0ThgGSj8iY3fNF1VLuRDq5vkV_Cq7_ZdMzpSuQYlBmDOINf38cezBJzz7nFEDO-2NEPl8TVkPk-vdijTmsmIjnrX9Uq1fHdhCqXysdTxUBBtAmeXWDCI3SVSw2JYnlZf9vtXp1bFBfQFg1H7ITukYxojGoUJZsQl7CgsOogKhfNOw7lqLGKpON1qZUZAivcqondCyhNT_swJTcK-4rbQS66ghL5xIB6chs-HUcSxpBJS-m-HVFoEJVXIbuidpw31oYfCA8D3l_xYCtUQNF_tzHm-z3U6L9LOWm6DkFegx7mx7Dhqt3mtlIbXpmtjWVHox3ezOTb2PNqzumgBs9indLtabqP5mxGKtlGNfQUtPlUEhoYD7MrWUpUNi8UyghvPvkqSN5bHKNPBNKWmZ7Uv2wvmq5DujQhtTw3ybG2HMCSA_6NFmEkmhwSw6fT5o56IQ_dDhJJWemNDEO0p-t58RtUXGVlGux1-hdIf4vKmFjcO5Kec0jDYs5PJ7TKlhpvUnx2L2N058Y99ZYlHp35oW5OZ8mA1mhjI3ETy-M3Yh98JuPRX2cFh4fhcbKMvS9CgMASQMP5klTKL2HfA-6wGFi-s63fox3GT0XJ56JEm9U4DG48oi49USfauX-tcgYkHP9atDHWLEcDwVbETsvIpcq4kUpYPhsZY_7i4weM8qeuJ2I6YEADnCexn6l461ZUjwb-UKCE6bv9Xhm1wZ05cqhUqSKkHmIxMcuFdv1yNM59CNFeWgfA2mpfdSAEKA4DJRZlUT4Dp3ra-atMlbOS2NNlepNlJjvjd4OQYJSDFOt4jxNZDvXioR_p5K7bKoeL6goQOw4umddq8alcF87tSbZT_fhxzvBHz9xVWyrxhdiw6ALAdtXb2fLxuyelnPPoLMpx44gAwO-ZSStXbKYNc2PfB9Qc2l-4IPebSV0DLolxBL3QDKcx9cdN9EsQf5sJj6kITatIhadQDKcx9cdN9EsQf5sJj6kITatIhad-8skIfvXm_N9_1mlZV-GxEJezFZqx-hupdcVmaKxWv1nEVkoV7VUFp-6Ncp4OT3Ve_Fnq1qfaCgGGcV9d5Y38tmrkoOB0SuR3eHd17bFARmUVIm3Sy0MJWYSuF0Qth_ShWX_EUbTCmuXAr0HUxuC1dP8iriWHYWZR5OxWwSdf-MbmH_WiGuimPdHmBL2mNFRXQVmt]--></g></svg>