<?xml version="1.0" encoding="us-ascii" standalone="no"?><svg xmlns="http://www.w3.org/2000/svg" xmlns:xlink="http://www.w3.org/1999/xlink" contentStyleType="text/css" height="812px" preserveAspectRatio="none" style="width:1381px;height:812px;background:#FFFFFF;" version="1.1" viewBox="0 0 1381 812" width="1381px" zoomAndPan="magnify"><defs/><g><rect fill="#FFFFFF" height="617.4121" style="stroke:#181818;stroke-width:1.0;" width="10" x="91" y="93.6211"/><rect fill="#FFFFFF" height="92.2031" style="stroke:#181818;stroke-width:1.0;" width="10" x="471" y="116.9121"/><rect fill="#FFFFFF" height="31.291" style="stroke:#181818;stroke-width:1.0;" width="10" x="471" y="240.4063"/><rect fill="#FFFFFF" height="408.0449" style="stroke:#181818;stroke-width:1.0;" width="10" x="471" y="302.9883"/><rect fill="#FFFFFF" height="561.8301" style="stroke:#181818;stroke-width:1.0;" width="10" x="880" y="158.2031"/><rect fill="#FFFFFF" height="328.1719" style="stroke:#181818;stroke-width:1.0;" width="10" x="885" y="351.5703"/><rect fill="#FFFFFF" height="106.5039" style="stroke:#181818;stroke-width:1.0;" width="10" x="890" y="390.8613"/><rect fill="#FFFFFF" height="95.5039" style="stroke:#181818;stroke-width:1.0;" width="10" x="1296" y="552.9473"/><line style="stroke:#181818;stroke-width:0.5;stroke-dasharray:5.0,5.0;" x1="96" x2="96" y1="83.6211" y2="729.0332"/><line style="stroke:#181818;stroke-width:0.5;stroke-dasharray:5.0,5.0;" x1="475.5" x2="475.5" y1="83.6211" y2="729.0332"/><line style="stroke:#181818;stroke-width:0.5;stroke-dasharray:5.0,5.0;" x1="884.5" x2="884.5" y1="156.7227" y2="729.0332"/><line style="stroke:#181818;stroke-width:0.5;stroke-dasharray:5.0,5.0;" x1="1301" x2="1301" y1="83.6211" y2="729.0332"/><text fill="#000000" font-family="sans-serif" font-size="14" lengthAdjust="spacing" textLength="176" x="5" y="80.1074">Human Resources Manager</text><ellipse cx="96" cy="13.5" fill="#E3E3E3" rx="8" ry="8" style="stroke:#181818;stroke-width:0.5;"/><path d="M96,21.5 L96,48.5 M83,29.5 L109,29.5 M96,48.5 L83,63.5 M96,48.5 L109,63.5 " fill="none" style="stroke:#181818;stroke-width:0.5;"/><text fill="#000000" font-family="sans-serif" font-size="14" lengthAdjust="spacing" textLength="176" x="5" y="743.1406">Human Resources Manager</text><ellipse cx="96" cy="755.1543" fill="#E3E3E3" rx="8" ry="8" style="stroke:#181818;stroke-width:0.5;"/><path d="M96,763.1543 L96,790.1543 M83,771.1543 L109,771.1543 M96,790.1543 L83,805.1543 M96,790.1543 L109,805.1543 " fill="none" style="stroke:#181818;stroke-width:0.5;"/><rect fill="#E3E3E3" height="32.6211" rx="2.5" ry="2.5" style="stroke:#181818;stroke-width:0.5;" width="161" x="395.5" y="50"/><text fill="#000000" font-family="sans-serif" font-size="14" lengthAdjust="spacing" textLength="147" x="402.5" y="72.1074">:RegisterCollaboratorUI</text><rect fill="#E3E3E3" height="32.6211" rx="2.5" ry="2.5" style="stroke:#181818;stroke-width:0.5;" width="161" x="395.5" y="728.0332"/><text fill="#000000" font-family="sans-serif" font-size="14" lengthAdjust="spacing" textLength="147" x="402.5" y="750.1406">:RegisterCollaboratorUI</text><rect fill="#E3E3E3" height="32.6211" rx="2.5" ry="2.5" style="stroke:#181818;stroke-width:0.5;" width="211" x="779.5" y="728.0332"/><text fill="#000000" font-family="sans-serif" font-size="14" lengthAdjust="spacing" textLength="197" x="786.5" y="750.1406">:RegisterCollaboratorController</text><rect fill="#E3E3E3" height="51.2422" rx="2.5" ry="2.5" style="stroke:#181818;stroke-width:0.5;" width="98" x="1252" y="31.3789"/><text fill="#000000" font-family="sans-serif" font-size="14" lengthAdjust="spacing" textLength="77" x="1262.5" y="53.4863">organization</text><text fill="#000000" font-family="sans-serif" font-size="14" lengthAdjust="spacing" textLength="84" x="1259" y="72.1074">:Organization</text><rect fill="#E3E3E3" height="51.2422" rx="2.5" ry="2.5" style="stroke:#181818;stroke-width:0.5;" width="98" x="1252" y="728.0332"/><text fill="#000000" font-family="sans-serif" font-size="14" lengthAdjust="spacing" textLength="77" x="1262.5" y="750.1406">organization</text><text fill="#000000" font-family="sans-serif" font-size="14" lengthAdjust="spacing" textLength="84" x="1259" y="768.7617">:Organization</text><rect fill="#FFFFFF" height="617.4121" style="stroke:#181818;stroke-width:1.0;" width="10" x="91" y="93.6211"/><rect fill="#FFFFFF" height="92.2031" style="stroke:#181818;stroke-width:1.0;" width="10" x="471" y="116.9121"/><rect fill="#FFFFFF" height="31.291" style="stroke:#181818;stroke-width:1.0;" width="10" x="471" y="240.4063"/><rect fill="#FFFFFF" height="408.0449" style="stroke:#181818;stroke-width:1.0;" width="10" x="471" y="302.9883"/><rect fill="#FFFFFF" height="561.8301" style="stroke:#181818;stroke-width:1.0;" width="10" x="880" y="158.2031"/><rect fill="#FFFFFF" height="328.1719" style="stroke:#181818;stroke-width:1.0;" width="10" x="885" y="351.5703"/><rect fill="#FFFFFF" height="106.5039" style="stroke:#181818;stroke-width:1.0;" width="10" x="890" y="390.8613"/><rect fill="#FFFFFF" height="95.5039" style="stroke:#181818;stroke-width:1.0;" width="10" x="1296" y="552.9473"/><polygon fill="#181818" points="459,112.9121,469,116.9121,459,120.9121,463,116.9121" style="stroke:#181818;stroke-width:1.0;"/><line style="stroke:#181818;stroke-width:1.0;" x1="101" x2="465" y1="116.9121" y2="116.9121"/><text fill="#000000" font-family="sans-serif" font-size="13" font-weight="bold" lengthAdjust="spacing" textLength="7" x="108" y="111.6494">1</text><text fill="#000000" font-family="sans-serif" font-size="13" lengthAdjust="spacing" textLength="172" x="119" y="111.6494">asks to register a collaborator</text><polygon fill="#181818" points="767.5,144.2031,777.5,148.2031,767.5,152.2031,771.5,148.2031" style="stroke:#181818;stroke-width:1.0;"/><line style="stroke:#181818;stroke-width:1.0;" x1="481" x2="773.5" y1="148.2031" y2="148.2031"/><text fill="#000000" font-family="sans-serif" font-size="13" font-weight="bold" lengthAdjust="spacing" textLength="7" x="488" y="142.9404">2</text><text fill="#000000" font-family="sans-serif" font-size="13" lengthAdjust="spacing" textLength="36" x="499" y="142.9404">create</text><rect fill="#E3E3E3" height="32.6211" rx="2.5" ry="2.5" style="stroke:#181818;stroke-width:0.5;" width="211" x="779.5" y="124.9121"/><text fill="#000000" font-family="sans-serif" font-size="14" lengthAdjust="spacing" textLength="197" x="786.5" y="147.0195">:RegisterCollaboratorController</text><polygon fill="#181818" points="112,205.1152,102,209.1152,112,213.1152,108,209.1152" style="stroke:#181818;stroke-width:1.0;"/><line style="stroke:#181818;stroke-width:1.0;stroke-dasharray:2.0,2.0;" x1="106" x2="475" y1="209.1152" y2="209.1152"/><text fill="#000000" font-family="sans-serif" font-size="13" font-weight="bold" lengthAdjust="spacing" textLength="7" x="118" y="195.207">3</text><text fill="#000000" font-family="sans-serif" font-size="13" lengthAdjust="spacing" textLength="331" x="129" y="186.5615">requests data (name, birthdate, admission date, address,</text><text fill="#000000" font-family="sans-serif" font-size="13" lengthAdjust="spacing" textLength="316" x="129" y="203.8525">mobile contact, email contact, ID doc type, ID number)</text><polygon fill="#181818" points="459,236.4063,469,240.4063,459,244.4063,463,240.4063" style="stroke:#181818;stroke-width:1.0;"/><line style="stroke:#181818;stroke-width:1.0;" x1="101" x2="465" y1="240.4063" y2="240.4063"/><text fill="#000000" font-family="sans-serif" font-size="13" font-weight="bold" lengthAdjust="spacing" textLength="7" x="108" y="235.1436">4</text><text fill="#000000" font-family="sans-serif" font-size="13" lengthAdjust="spacing" textLength="122" x="119" y="235.1436">types requested data</text><polygon fill="#181818" points="112,267.6973,102,271.6973,112,275.6973,108,271.6973" style="stroke:#181818;stroke-width:1.0;"/><line style="stroke:#181818;stroke-width:1.0;stroke-dasharray:2.0,2.0;" x1="106" x2="475" y1="271.6973" y2="271.6973"/><text fill="#000000" font-family="sans-serif" font-size="13" font-weight="bold" lengthAdjust="spacing" textLength="7" x="118" y="266.4346">5</text><text fill="#000000" font-family="sans-serif" font-size="13" lengthAdjust="spacing" textLength="102" x="129" y="266.4346">shows typed data</text><polygon fill="#181818" points="459,298.9883,469,302.9883,459,306.9883,463,302.9883" style="stroke:#181818;stroke-width:1.0;"/><line style="stroke:#181818;stroke-width:1.0;" x1="101" x2="465" y1="302.9883" y2="302.9883"/><text fill="#000000" font-family="sans-serif" font-size="13" font-weight="bold" lengthAdjust="spacing" textLength="7" x="108" y="297.7256">6</text><text fill="#000000" font-family="sans-serif" font-size="13" lengthAdjust="spacing" textLength="75" x="119" y="297.7256">submits data</text><polygon fill="#181818" points="873,347.5703,883,351.5703,873,355.5703,877,351.5703" style="stroke:#181818;stroke-width:1.0;"/><line style="stroke:#181818;stroke-width:1.0;" x1="481" x2="879" y1="351.5703" y2="351.5703"/><text fill="#000000" font-family="sans-serif" font-size="13" font-weight="bold" lengthAdjust="spacing" textLength="7" x="488" y="337.6621">7</text><text fill="#000000" font-family="sans-serif" font-size="13" lengthAdjust="spacing" textLength="360" x="499" y="329.0166">registerCollaborator(name, birthdate, admission date, address,</text><text fill="#000000" font-family="sans-serif" font-size="13" lengthAdjust="spacing" textLength="316" x="499" y="346.3076">mobile contact, email contact, ID doc type, ID number)</text><line style="stroke:#181818;stroke-width:1.0;" x1="895" x2="942" y1="377.8613" y2="377.8613"/><line style="stroke:#181818;stroke-width:1.0;" x1="942" x2="942" y1="377.8613" y2="390.8613"/><line style="stroke:#181818;stroke-width:1.0;" x1="901" x2="942" y1="390.8613" y2="390.8613"/><polygon fill="#181818" points="911,386.8613,901,390.8613,911,394.8613,907,390.8613" style="stroke:#181818;stroke-width:1.0;"/><text fill="#000000" font-family="sans-serif" font-size="13" font-weight="bold" lengthAdjust="spacing" textLength="7" x="907" y="372.5986">8</text><text fill="#000000" font-family="sans-serif" font-size="13" lengthAdjust="spacing" textLength="161" x="918" y="372.5986">getEmployeeFromSession()</text><rect fill="none" height="59.2129" style="stroke:#000000;stroke-width:1.5;" width="217" x="776.5" y="403.8613"/><path d="M776.5,403.8613 L838.5,403.8613 L838.5,412.8613 L828.5,422.8613 L776.5,422.8613 L776.5,403.8613 " fill="#EEEEEE" style="stroke:#000000;stroke-width:2.0;"/><text fill="#000000" font-family="sans-serif" font-size="13" font-weight="bold" lengthAdjust="spacing" textLength="17" x="789.5" y="419.8896">ref</text><text fill="#000000" font-family="sans-serif" font-size="12" lengthAdjust="spacing" textLength="77" x="846.5" y="439.8105">Get Employee</text><text fill="#000000" font-family="sans-serif" font-size="12" lengthAdjust="spacing" textLength="3" x="883.5" y="455.7715">&#160;</text><line style="stroke:#181818;stroke-width:1.0;" x1="900" x2="942" y1="496.3652" y2="496.3652"/><line style="stroke:#181818;stroke-width:1.0;" x1="942" x2="942" y1="496.3652" y2="509.3652"/><line style="stroke:#181818;stroke-width:1.0;" x1="895" x2="942" y1="509.3652" y2="509.3652"/><polygon fill="#181818" points="905,505.3652,895,509.3652,905,513.3652,901,509.3652" style="stroke:#181818;stroke-width:1.0;"/><text fill="#000000" font-family="sans-serif" font-size="13" font-weight="bold" lengthAdjust="spacing" textLength="7" x="907" y="491.1025">9</text><text fill="#000000" font-family="sans-serif" font-size="13" lengthAdjust="spacing" textLength="56" x="918" y="491.1025">employee</text><polygon fill="#181818" points="1284,548.9473,1294,552.9473,1284,556.9473,1288,552.9473" style="stroke:#181818;stroke-width:1.0;"/><line style="stroke:#181818;stroke-width:1.0;" x1="895" x2="1290" y1="552.9473" y2="552.9473"/><text fill="#000000" font-family="sans-serif" font-size="13" font-weight="bold" lengthAdjust="spacing" textLength="14" x="902" y="539.0391">10</text><text fill="#000000" font-family="sans-serif" font-size="13" lengthAdjust="spacing" textLength="360" x="920" y="530.3936">registerCollaborator(name, birthdate, admission date, address,</text><text fill="#000000" font-family="sans-serif" font-size="13" lengthAdjust="spacing" textLength="316" x="920" y="547.6846">mobile contact, email contact, ID doc type, ID number)</text><rect fill="none" height="59.2129" style="stroke:#000000;stroke-width:1.5;" width="126" x="1249" y="560.9473"/><path d="M1249,560.9473 L1311,560.9473 L1311,569.9473 L1301,579.9473 L1249,579.9473 L1249,560.9473 " fill="#EEEEEE" style="stroke:#000000;stroke-width:2.0;"/><text fill="#000000" font-family="sans-serif" font-size="13" font-weight="bold" lengthAdjust="spacing" textLength="17" x="1262" y="576.9756">ref</text><text fill="#000000" font-family="sans-serif" font-size="12" lengthAdjust="spacing" textLength="118" x="1253" y="596.8965">Register Collaborator</text><text fill="#000000" font-family="sans-serif" font-size="12" lengthAdjust="spacing" textLength="3" x="1310.5" y="612.8574">&#160;</text><polygon fill="#181818" points="906,644.4512,896,648.4512,906,652.4512,902,648.4512" style="stroke:#181818;stroke-width:1.0;"/><line style="stroke:#181818;stroke-width:1.0;stroke-dasharray:2.0,2.0;" x1="900" x2="1300" y1="648.4512" y2="648.4512"/><text fill="#000000" font-family="sans-serif" font-size="13" font-weight="bold" lengthAdjust="spacing" textLength="14" x="912" y="643.1885">11</text><text fill="#000000" font-family="sans-serif" font-size="13" lengthAdjust="spacing" textLength="67" x="930" y="643.1885">collaborator</text><polygon fill="#181818" points="492,675.7422,482,679.7422,492,683.7422,488,679.7422" style="stroke:#181818;stroke-width:1.0;"/><line style="stroke:#181818;stroke-width:1.0;stroke-dasharray:2.0,2.0;" x1="486" x2="879" y1="679.7422" y2="679.7422"/><text fill="#000000" font-family="sans-serif" font-size="13" font-weight="bold" lengthAdjust="spacing" textLength="14" x="498" y="674.4795">12</text><text fill="#000000" font-family="sans-serif" font-size="13" lengthAdjust="spacing" textLength="67" x="516" y="674.4795">collaborator</text><polygon fill="#181818" points="107,707.0332,97,711.0332,107,715.0332,103,711.0332" style="stroke:#181818;stroke-width:1.0;"/><line style="stroke:#181818;stroke-width:1.0;stroke-dasharray:2.0,2.0;" x1="101" x2="475" y1="711.0332" y2="711.0332"/><text fill="#000000" font-family="sans-serif" font-size="13" font-weight="bold" lengthAdjust="spacing" textLength="14" x="113" y="705.7705">13</text><text fill="#000000" font-family="sans-serif" font-size="13" lengthAdjust="spacing" textLength="158" x="131" y="705.7705">displays operation success</text><!--SRC=[nLJ1Rjim3BtxAuXSrXRf3-GmO4YtDi2A0kbwwuMM6KU89NgYt2xx-j5Ad3XrakMqwMHAV8zFJoPbPNsD0HquzcoMWHr130rbiZkfqQomfEUuhWW2cOY-hFe9iiI2twqlOO6LK9PX4zatBgUGPP-MjY1OCCUSVsLe8WSOFJGEFSn9k0c611xHQuKm0XJuSlUOAM-qnjRe8umcSogjH0fJhYhCEQ1olCnIyiliWjmf-nWqtXQO_fX_FqHnAD7RtnWj-rS_UUg52V4qlyzQwVOD8oM16UZI3xZzh1fWebahWSZgpwO-89YUX0rWHw6oqqQx5AuahQYR6oKoWJHZVxp39Da7A8Mr4YPQz6T34WKAZ0XN7XsD8RSXBdL3Fx5mLaHl0rrS118Pmwjtd5jzLgCMQQKna4DRxSFP7HHi8AvhIi7cLQ-JZ886z-axqcAaaqP5qdRUXTrzPCdlaWXwiB-KaoPtTcl19MOdsuR_ohyoxypJjYift2ijANvrTSLhec_Qei-K15rT7s3EqBKhq0BuJV_CT0n7rZr5wCeCyUIBbcEm_q4gTGJzdDxRdRwhTjd_VvC38rFVd_InFJrcOpU2O3eO01_y76ugP-g3hPa78-I4eGEH6pzJNrp6CFWXziquWS9ANU5QW6iAQIHggnaTsdAiAtjXEoR_0000]--></g></svg>