<?xml version="1.0" encoding="us-ascii" standalone="no"?><svg xmlns="http://www.w3.org/2000/svg" xmlns:xlink="http://www.w3.org/1999/xlink" contentStyleType="text/css" height="730px" preserveAspectRatio="none" style="width:789px;height:730px;background:#FFFFFF;" version="1.1" viewBox="0 0 789 730" width="789px" zoomAndPan="magnify"><defs/><g><rect fill="#FFFFFF" height="31.291" style="stroke:#181818;stroke-width:1.0;" width="10" x="80" y="116.8242"/><rect fill="#FFFFFF" height="31.291" style="stroke:#181818;stroke-width:1.0;" width="10" x="80" y="179.4063"/><rect fill="#FFFFFF" height="31.291" style="stroke:#181818;stroke-width:1.0;" width="10" x="80" y="241.9883"/><rect fill="#FFFFFF" height="31.291" style="stroke:#181818;stroke-width:1.0;" width="10" x="80" y="304.5703"/><rect fill="#FFFFFF" height="31.291" style="stroke:#181818;stroke-width:1.0;" width="10" x="80" y="367.1523"/><rect fill="#FFFFFF" height="31.291" style="stroke:#181818;stroke-width:1.0;" width="10" x="80" y="429.7344"/><rect fill="#FFFFFF" height="31.291" style="stroke:#181818;stroke-width:1.0;" width="10" x="80" y="492.3164"/><rect fill="#FFFFFF" height="31.291" style="stroke:#181818;stroke-width:1.0;" width="10" x="80" y="554.8984"/><rect fill="#FFFFFF" height="31.291" style="stroke:#181818;stroke-width:1.0;" width="10" x="80" y="617.4805"/><rect fill="none" height="582.5293" style="stroke:#000000;stroke-width:1.5;" width="773" x="10" y="74.2422"/><line style="stroke:#181818;stroke-width:0.5;stroke-dasharray:5.0,5.0;" x1="85" x2="85" y1="57.2422" y2="673.7715"/><line style="stroke:#181818;stroke-width:0.5;stroke-dasharray:5.0,5.0;" x1="680" x2="680" y1="57.2422" y2="673.7715"/><rect fill="#E3E3E3" height="51.2422" rx="2.5" ry="2.5" style="stroke:#181818;stroke-width:0.5;" width="130" x="20" y="5"/><text fill="#000000" font-family="sans-serif" font-size="14" lengthAdjust="spacing" textLength="116" x="27" y="27.1074">vehicleRepository:</text><text fill="#000000" font-family="sans-serif" font-size="14" lengthAdjust="spacing" textLength="114" x="28" y="45.7285">VehicleRepository</text><rect fill="#E3E3E3" height="51.2422" rx="2.5" ry="2.5" style="stroke:#181818;stroke-width:0.5;" width="130" x="20" y="672.7715"/><text fill="#000000" font-family="sans-serif" font-size="14" lengthAdjust="spacing" textLength="116" x="27" y="694.8789">vehicleRepository:</text><text fill="#000000" font-family="sans-serif" font-size="14" lengthAdjust="spacing" textLength="114" x="28" y="713.5">VehicleRepository</text><rect fill="#E3E3E3" height="32.6211" rx="2.5" ry="2.5" style="stroke:#181818;stroke-width:0.5;" width="186" x="587" y="23.6211"/><text fill="#000000" font-family="sans-serif" font-size="14" lengthAdjust="spacing" textLength="172" x="594" y="45.7285">:ProduceMaintenanceListUI</text><rect fill="#E3E3E3" height="32.6211" rx="2.5" ry="2.5" style="stroke:#181818;stroke-width:0.5;" width="186" x="587" y="672.7715"/><text fill="#000000" font-family="sans-serif" font-size="14" lengthAdjust="spacing" textLength="172" x="594" y="694.8789">:ProduceMaintenanceListUI</text><rect fill="#FFFFFF" height="31.291" style="stroke:#181818;stroke-width:1.0;" width="10" x="80" y="116.8242"/><rect fill="#FFFFFF" height="31.291" style="stroke:#181818;stroke-width:1.0;" width="10" x="80" y="179.4063"/><rect fill="#FFFFFF" height="31.291" style="stroke:#181818;stroke-width:1.0;" width="10" x="80" y="241.9883"/><rect fill="#FFFFFF" height="31.291" style="stroke:#181818;stroke-width:1.0;" width="10" x="80" y="304.5703"/><rect fill="#FFFFFF" height="31.291" style="stroke:#181818;stroke-width:1.0;" width="10" x="80" y="367.1523"/><rect fill="#FFFFFF" height="31.291" style="stroke:#181818;stroke-width:1.0;" width="10" x="80" y="429.7344"/><rect fill="#FFFFFF" height="31.291" style="stroke:#181818;stroke-width:1.0;" width="10" x="80" y="492.3164"/><rect fill="#FFFFFF" height="31.291" style="stroke:#181818;stroke-width:1.0;" width="10" x="80" y="554.8984"/><rect fill="#FFFFFF" height="31.291" style="stroke:#181818;stroke-width:1.0;" width="10" x="80" y="617.4805"/><path d="M10,74.2422 L83,74.2422 L83,83.5332 L73,93.5332 L10,93.5332 L10,74.2422 " fill="#EEEEEE" style="stroke:#000000;stroke-width:1.5;"/><rect fill="none" height="582.5293" style="stroke:#000000;stroke-width:1.5;" width="773" x="10" y="74.2422"/><text fill="#000000" font-family="sans-serif" font-size="13" font-weight="bold" lengthAdjust="spacing" textLength="28" x="25" y="89.2705">loop</text><text fill="#000000" font-family="sans-serif" font-size="11" font-weight="bold" lengthAdjust="spacing" textLength="99" x="98" y="88.1123">[[for each vehicle]</text><polygon fill="#181818" points="101,112.8242,91,116.8242,101,120.8242,97,116.8242" style="stroke:#181818;stroke-width:1.0;"/><line style="stroke:#181818;stroke-width:1.0;" x1="95" x2="679" y1="116.8242" y2="116.8242"/><text fill="#000000" font-family="sans-serif" font-size="13" lengthAdjust="spacing" textLength="101" x="107" y="111.5615">getPlateNumber()</text><polygon fill="#181818" points="668,144.1152,678,148.1152,668,152.1152,672,148.1152" style="stroke:#181818;stroke-width:1.0;"/><line style="stroke:#181818;stroke-width:1.0;" x1="85" x2="674" y1="148.1152" y2="148.1152"/><text fill="#000000" font-family="sans-serif" font-size="13" lengthAdjust="spacing" textLength="73" x="92" y="142.8525">plateNumber</text><polygon fill="#181818" points="101,175.4063,91,179.4063,101,183.4063,97,179.4063" style="stroke:#181818;stroke-width:1.0;"/><line style="stroke:#181818;stroke-width:1.0;" x1="95" x2="679" y1="179.4063" y2="179.4063"/><text fill="#000000" font-family="sans-serif" font-size="13" lengthAdjust="spacing" textLength="60" x="107" y="174.1436">getBrand()</text><polygon fill="#181818" points="668,206.6973,678,210.6973,668,214.6973,672,210.6973" style="stroke:#181818;stroke-width:1.0;"/><line style="stroke:#181818;stroke-width:1.0;" x1="85" x2="674" y1="210.6973" y2="210.6973"/><text fill="#000000" font-family="sans-serif" font-size="13" lengthAdjust="spacing" textLength="32" x="92" y="205.4346">brand</text><polygon fill="#181818" points="101,237.9883,91,241.9883,101,245.9883,97,241.9883" style="stroke:#181818;stroke-width:1.0;"/><line style="stroke:#181818;stroke-width:1.0;" x1="95" x2="679" y1="241.9883" y2="241.9883"/><text fill="#000000" font-family="sans-serif" font-size="13" lengthAdjust="spacing" textLength="53" x="107" y="236.7256">getModel</text><polygon fill="#181818" points="668,269.2793,678,273.2793,668,277.2793,672,273.2793" style="stroke:#181818;stroke-width:1.0;"/><line style="stroke:#181818;stroke-width:1.0;" x1="85" x2="674" y1="273.2793" y2="273.2793"/><text fill="#000000" font-family="sans-serif" font-size="13" lengthAdjust="spacing" textLength="35" x="92" y="268.0166">model</text><polygon fill="#181818" points="101,300.5703,91,304.5703,101,308.5703,97,304.5703" style="stroke:#181818;stroke-width:1.0;"/><line style="stroke:#181818;stroke-width:1.0;" x1="95" x2="679" y1="304.5703" y2="304.5703"/><text fill="#000000" font-family="sans-serif" font-size="13" lengthAdjust="spacing" textLength="88" x="107" y="299.3076">getCurrentKm()</text><polygon fill="#181818" points="668,331.8613,678,335.8613,668,339.8613,672,335.8613" style="stroke:#181818;stroke-width:1.0;"/><line style="stroke:#181818;stroke-width:1.0;" x1="85" x2="674" y1="335.8613" y2="335.8613"/><text fill="#000000" font-family="sans-serif" font-size="13" lengthAdjust="spacing" textLength="68" x="92" y="330.5986">currentKm()</text><polygon fill="#181818" points="101,363.1523,91,367.1523,101,371.1523,97,367.1523" style="stroke:#181818;stroke-width:1.0;"/><line style="stroke:#181818;stroke-width:1.0;" x1="95" x2="679" y1="367.1523" y2="367.1523"/><text fill="#000000" font-family="sans-serif" font-size="13" lengthAdjust="spacing" textLength="152" x="107" y="361.8896">getLastMaintenanceDate()</text><polygon fill="#181818" points="668,394.4434,678,398.4434,668,402.4434,672,398.4434" style="stroke:#181818;stroke-width:1.0;"/><line style="stroke:#181818;stroke-width:1.0;" x1="85" x2="674" y1="398.4434" y2="398.4434"/><text fill="#000000" font-family="sans-serif" font-size="13" lengthAdjust="spacing" textLength="122" x="92" y="393.1807">lastMaintenanceDate</text><polygon fill="#181818" points="101,425.7344,91,429.7344,101,433.7344,97,429.7344" style="stroke:#181818;stroke-width:1.0;"/><line style="stroke:#181818;stroke-width:1.0;" x1="95" x2="679" y1="429.7344" y2="429.7344"/><text fill="#000000" font-family="sans-serif" font-size="13" lengthAdjust="spacing" textLength="181" x="107" y="424.4717">getMaintenanceFrequencyKm()</text><polygon fill="#181818" points="668,457.0254,678,461.0254,668,465.0254,672,461.0254" style="stroke:#181818;stroke-width:1.0;"/><line style="stroke:#181818;stroke-width:1.0;" x1="85" x2="674" y1="461.0254" y2="461.0254"/><text fill="#000000" font-family="sans-serif" font-size="13" lengthAdjust="spacing" textLength="155" x="92" y="455.7627">maintenanceFrequencyKm</text><polygon fill="#181818" points="101,488.3164,91,492.3164,101,496.3164,97,492.3164" style="stroke:#181818;stroke-width:1.0;"/><line style="stroke:#181818;stroke-width:1.0;" x1="95" x2="679" y1="492.3164" y2="492.3164"/><text fill="#000000" font-family="sans-serif" font-size="13" lengthAdjust="spacing" textLength="217" x="107" y="487.0537">plusDays(maintenanceFrequencyKm)</text><polygon fill="#181818" points="668,519.6074,678,523.6074,668,527.6074,672,523.6074" style="stroke:#181818;stroke-width:1.0;"/><line style="stroke:#181818;stroke-width:1.0;" x1="85" x2="674" y1="523.6074" y2="523.6074"/><text fill="#000000" font-family="sans-serif" font-size="13" lengthAdjust="spacing" textLength="126" x="92" y="518.3447">nextMaintenanceDate</text><polygon fill="#181818" points="101,550.8984,91,554.8984,101,558.8984,97,554.8984" style="stroke:#181818;stroke-width:1.0;"/><line style="stroke:#181818;stroke-width:1.0;" x1="95" x2="679" y1="554.8984" y2="554.8984"/><text fill="#000000" font-family="sans-serif" font-size="13" lengthAdjust="spacing" textLength="101" x="107" y="549.6357">getPlateNumber()</text><polygon fill="#181818" points="668,582.1895,678,586.1895,668,590.1895,672,586.1895" style="stroke:#181818;stroke-width:1.0;"/><line style="stroke:#181818;stroke-width:1.0;" x1="85" x2="674" y1="586.1895" y2="586.1895"/><text fill="#000000" font-family="sans-serif" font-size="13" lengthAdjust="spacing" textLength="81" x="92" y="580.9268">plateNumber()</text><polygon fill="#181818" points="101,613.4805,91,617.4805,101,621.4805,97,617.4805" style="stroke:#181818;stroke-width:1.0;"/><line style="stroke:#181818;stroke-width:1.0;" x1="95" x2="679" y1="617.4805" y2="617.4805"/><text fill="#000000" font-family="sans-serif" font-size="13" lengthAdjust="spacing" textLength="571" x="107" y="612.2178">plusDays(maintenanceFrequencyKm).until(LocalDate.now(), java.time.temporal.ChronoUnit.DAYS);</text><polygon fill="#181818" points="668,644.7715,678,648.7715,668,652.7715,672,648.7715" style="stroke:#181818;stroke-width:1.0;"/><line style="stroke:#181818;stroke-width:1.0;" x1="85" x2="674" y1="648.7715" y2="648.7715"/><text fill="#000000" font-family="sans-serif" font-size="13" lengthAdjust="spacing" textLength="126" x="92" y="643.5088">nextMaintenanceKms</text><!--SRC=[jPNHJi9044NV-nKRdo3HVW0c9Wen8O0Xa98OVHcs0wpipgwxKx1_Rp56A08sKlguS-VEoPrs6vQA77WmmbYoSk6jGS4-moZyL1p89SnnpBb6uL4oq5pl2i82KhjMD1Spq06Zg3Xc9PK3Od6rmeMI6aVeR51iVTvwfSd-sPM082QZScThw6sQIHo08aO2ajXNWPFkbphfHf7OURIrJhpCh1S8SY6-nvOaHO-ukIlcjCGSUQY1yIapK_IDPba7ajMgg6wGofN9QEEGT5l2RTlBaXIFjvS07ZnGkZ-w6iPXfEd6yBYmCjZ0fgZhmpAdxVQmJd2rC- -Hk6Vg34rMCQqSNHy2xxoldQAZJbZzsxwEVMyT7ps-PqWohpTaSt32kUXEPw43UMWSjg-Hd_3Z0hcVk87EWNNLR2j-Tt-576V4IZVwLeBUv1AJNJUQr-8DLX2pCXWp6cSzwBXT_5_89gGuxjm_Zvkt5rjGpuJ_xGUB2pJw1000]--></g></svg>