<?xml version="1.0" encoding="us-ascii" standalone="no"?><svg xmlns="http://www.w3.org/2000/svg" xmlns:xlink="http://www.w3.org/1999/xlink" contentStyleType="text/css" height="969px" preserveAspectRatio="none" style="width:1482px;height:969px;background:#FFFFFF;" version="1.1" viewBox="0 0 1482 969" width="1482.57px" zoomAndPan="magnify"><defs/><g><rect fill="#FFFFFF" height="869.9743" style="stroke:#181818;stroke-width:0.51;" width="5.1" x="37.74" y="47.7468"/><rect fill="#FFFFFF" height="858.0959" style="stroke:#181818;stroke-width:0.51;" width="5.1" x="196.86" y="59.6252"/><rect fill="#FFFFFF" height="390.5036" style="stroke:#181818;stroke-width:0.51;" width="5.1" x="309.57" y="97.8304"/><rect fill="#FFFFFF" height="342.6284" style="stroke:#181818;stroke-width:0.51;" width="5.1" x="312.12" y="145.7056"/><rect fill="#FFFFFF" height="294.7531" style="stroke:#181818;stroke-width:0.51;" width="5.1" x="314.67" y="193.5809"/><rect fill="#FFFFFF" height="261.9647" style="stroke:#181818;stroke-width:0.51;" width="5.1" x="317.22" y="226.3693"/><rect fill="#FFFFFF" height="15.9584" style="stroke:#181818;stroke-width:0.51;" width="5.1" x="457.47" y="113.7888"/><rect fill="#FFFFFF" height="15.9584" style="stroke:#181818;stroke-width:0.51;" width="5.1" x="457.47" y="161.664"/><rect fill="#FFFFFF" height="15.9584" style="stroke:#181818;stroke-width:0.51;" width="5.1" x="457.47" y="340.6282"/><rect fill="#FFFFFF" height="15.9584" style="stroke:#181818;stroke-width:0.51;" width="5.1" x="520.455" y="534.0208"/><rect fill="#FFFFFF" height="15.9584" style="stroke:#181818;stroke-width:0.51;" width="5.1" x="520.455" y="565.9376"/><rect fill="#FFFFFF" height="15.9584" style="stroke:#181818;stroke-width:0.51;" width="5.1" x="520.455" y="597.8545"/><rect fill="#FFFFFF" height="15.9584" style="stroke:#181818;stroke-width:0.51;" width="5.1" x="520.455" y="629.7713"/><rect fill="#FFFFFF" height="15.9584" style="stroke:#181818;stroke-width:0.51;" width="5.1" x="520.455" y="661.6881"/><rect fill="#FFFFFF" height="15.9584" style="stroke:#181818;stroke-width:0.51;" width="5.1" x="520.455" y="693.605"/><rect fill="#FFFFFF" height="15.9584" style="stroke:#181818;stroke-width:0.51;" width="5.1" x="520.455" y="725.5218"/><rect fill="#FFFFFF" height="15.9584" style="stroke:#181818;stroke-width:0.51;" width="5.1" x="520.455" y="757.4387"/><rect fill="#FFFFFF" height="15.9584" style="stroke:#181818;stroke-width:0.51;" width="5.1" x="520.455" y="789.3555"/><rect fill="#FFFFFF" height="15.9584" style="stroke:#181818;stroke-width:0.51;" width="5.1" x="593.64" y="244.8777"/><rect fill="#FFFFFF" height="15.9584" style="stroke:#181818;stroke-width:0.51;" width="5.1" x="668.61" y="276.7945"/><rect fill="#FFFFFF" height="15.9584" style="stroke:#181818;stroke-width:0.51;" width="5.1" x="736.44" y="308.7114"/><rect fill="#FFFFFF" height="64.8537" style="stroke:#181818;stroke-width:0.51;" width="5.1" x="810.9" y="372.545"/><rect fill="#FFFFFF" height="15.9584" style="stroke:#181818;stroke-width:0.51;" width="5.1" x="908.31" y="401.9119"/><rect fill="#FFFFFF" height="15.9584" style="stroke:#181818;stroke-width:0.51;" width="5.1" x="908.31" y="453.3571"/><rect fill="#FFFFFF" height="71.8204" style="stroke:#181818;stroke-width:0.51;" width="5.1" x="948.6" y="829.9423"/><rect fill="none" height="41.7553" style="stroke:#000000;stroke-width:0.765;" width="174.165" x="766.785" y="380.195"/><rect fill="none" height="297.0899" style="stroke:#000000;stroke-width:0.765;" width="414.375" x="146.88" y="512.304"/><line style="stroke:#181818;stroke-width:0.255;stroke-dasharray:5.0,5.0;" x1="40.29" x2="40.29" y1="42.6468" y2="926.9011"/><line style="stroke:#181818;stroke-width:0.255;stroke-dasharray:5.0,5.0;" x1="199.41" x2="199.41" y1="42.6468" y2="926.9011"/><line style="stroke:#181818;stroke-width:0.255;stroke-dasharray:5.0,5.0;" x1="312.12" x2="312.12" y1="79.9286" y2="926.9011"/><line style="stroke:#181818;stroke-width:0.255;stroke-dasharray:5.0,5.0;" x1="405.195" x2="405.195" y1="42.6468" y2="926.9011"/><line style="stroke:#181818;stroke-width:0.255;stroke-dasharray:5.0,5.0;" x1="459.765" x2="459.765" y1="42.6468" y2="926.9011"/><line style="stroke:#181818;stroke-width:0.255;stroke-dasharray:5.0,5.0;" x1="523.005" x2="523.005" y1="42.6468" y2="926.9011"/><line style="stroke:#181818;stroke-width:0.255;stroke-dasharray:5.0,5.0;" x1="595.935" x2="595.935" y1="42.6468" y2="926.9011"/><line style="stroke:#181818;stroke-width:0.255;stroke-dasharray:5.0,5.0;" x1="670.905" x2="670.905" y1="42.6468" y2="926.9011"/><line style="stroke:#181818;stroke-width:0.255;stroke-dasharray:5.0,5.0;" x1="738.735" x2="738.735" y1="42.6468" y2="926.9011"/><line style="stroke:#181818;stroke-width:0.255;stroke-dasharray:5.0,5.0;" x1="813.195" x2="813.195" y1="42.6468" y2="926.9011"/><line style="stroke:#181818;stroke-width:0.255;stroke-dasharray:5.0,5.0;" x1="910.86" x2="910.86" y1="42.6468" y2="926.9011"/><line style="stroke:#181818;stroke-width:0.255;stroke-dasharray:5.0,5.0;" x1="951.15" x2="951.15" y1="833.9357" y2="926.9011"/><text fill="#000000" font-family="sans-serif" font-size="7.14" lengthAdjust="spacing" textLength="72.42" x="2.55" y="40.8548">Vehicle Fleet Manager</text><ellipse cx="40.29" cy="6.885" fill="#E3E3E3" rx="4.08" ry="4.08" style="stroke:#181818;stroke-width:0.255;"/><path d="M40.29,10.965 L40.29,24.735 M33.66,15.045 L46.92,15.045 M40.29,24.735 L33.66,32.385 M40.29,24.735 L46.92,32.385 " fill="none" style="stroke:#181818;stroke-width:0.255;"/><text fill="#000000" font-family="sans-serif" font-size="7.14" lengthAdjust="spacing" textLength="72.42" x="2.55" y="934.0959">Vehicle Fleet Manager</text><ellipse cx="40.29" cy="940.2229" fill="#E3E3E3" rx="4.08" ry="4.08" style="stroke:#181818;stroke-width:0.255;"/><path d="M40.29,944.3029 L40.29,958.0729 M33.66,948.3829 L46.92,948.3829 M40.29,958.0729 L33.66,965.7229 M40.29,958.0729 L46.92,965.7229 " fill="none" style="stroke:#181818;stroke-width:0.255;"/><rect fill="#E3E3E3" height="16.6368" rx="1.275" ry="1.275" style="stroke:#181818;stroke-width:0.255;" width="94.86" x="151.98" y="25.5"/><text fill="#000000" font-family="sans-serif" font-size="7.14" lengthAdjust="spacing" textLength="87.72" x="155.55" y="36.7748">:ProduceMaintenanceListUI</text><rect fill="#E3E3E3" height="16.6368" rx="1.275" ry="1.275" style="stroke:#181818;stroke-width:0.255;" width="94.86" x="151.98" y="926.3911"/><text fill="#000000" font-family="sans-serif" font-size="7.14" lengthAdjust="spacing" textLength="87.72" x="155.55" y="937.6659">:ProduceMaintenanceListUI</text><rect fill="#E3E3E3" height="16.6368" rx="1.275" ry="1.275" style="stroke:#181818;stroke-width:0.255;" width="120.36" x="251.94" y="926.3911"/><text fill="#000000" font-family="sans-serif" font-size="7.14" lengthAdjust="spacing" textLength="113.22" x="255.51" y="937.6659">:ProduceMaintenanceListController</text><rect fill="#E3E3E3" height="16.6368" rx="1.275" ry="1.275" style="stroke:#181818;stroke-width:0.255;" width="49.47" x="380.715" y="25.5"/><text fill="#000000" font-family="sans-serif" font-size="7.14" lengthAdjust="spacing" textLength="42.33" x="384.285" y="36.7748">:Repositories</text><rect fill="#E3E3E3" height="16.6368" rx="1.275" ry="1.275" style="stroke:#181818;stroke-width:0.255;" width="49.47" x="380.715" y="926.3911"/><text fill="#000000" font-family="sans-serif" font-size="7.14" lengthAdjust="spacing" textLength="42.33" x="384.285" y="937.6659">:Repositories</text><rect fill="#E3E3E3" height="26.1335" rx="1.275" ry="1.275" style="stroke:#181818;stroke-width:0.255;" width="49.47" x="435.285" y="16.0032"/><text fill="#000000" font-family="sans-serif" font-size="7.14" lengthAdjust="spacing" textLength="37.74" x="441.15" y="27.278">repositories</text><text fill="#000000" font-family="sans-serif" font-size="7.14" lengthAdjust="spacing" textLength="42.33" x="438.855" y="36.7748">:Repositories</text><rect fill="#E3E3E3" height="26.1335" rx="1.275" ry="1.275" style="stroke:#181818;stroke-width:0.255;" width="49.47" x="435.285" y="926.3911"/><text fill="#000000" font-family="sans-serif" font-size="7.14" lengthAdjust="spacing" textLength="37.74" x="441.15" y="937.6659">repositories</text><text fill="#000000" font-family="sans-serif" font-size="7.14" lengthAdjust="spacing" textLength="42.33" x="438.855" y="947.1626">:Repositories</text><rect fill="#E3E3E3" height="26.1335" rx="1.275" ry="1.275" style="stroke:#181818;stroke-width:0.255;" width="66.3" x="489.855" y="16.0032"/><text fill="#000000" font-family="sans-serif" font-size="7.14" lengthAdjust="spacing" textLength="59.16" x="493.425" y="27.278">vehicleRepository:</text><text fill="#000000" font-family="sans-serif" font-size="7.14" lengthAdjust="spacing" textLength="58.14" x="493.935" y="36.7748">VehicleRepository</text><rect fill="#E3E3E3" height="26.1335" rx="1.275" ry="1.275" style="stroke:#181818;stroke-width:0.255;" width="66.3" x="489.855" y="926.3911"/><text fill="#000000" font-family="sans-serif" font-size="7.14" lengthAdjust="spacing" textLength="59.16" x="493.425" y="937.6659">vehicleRepository:</text><text fill="#000000" font-family="sans-serif" font-size="7.14" lengthAdjust="spacing" textLength="58.14" x="493.935" y="947.1626">VehicleRepository</text><rect fill="#E3E3E3" height="16.6368" rx="1.275" ry="1.275" style="stroke:#181818;stroke-width:0.255;" width="69.87" x="561.255" y="25.5"/><text fill="#000000" font-family="sans-serif" font-size="7.14" lengthAdjust="spacing" textLength="62.73" x="564.825" y="36.7748">:ApplicationSession</text><rect fill="#E3E3E3" height="16.6368" rx="1.275" ry="1.275" style="stroke:#181818;stroke-width:0.255;" width="69.87" x="561.255" y="926.3911"/><text fill="#000000" font-family="sans-serif" font-size="7.14" lengthAdjust="spacing" textLength="62.73" x="564.825" y="937.6659">:ApplicationSession</text><rect fill="#E3E3E3" height="26.1335" rx="1.275" ry="1.275" style="stroke:#181818;stroke-width:0.255;" width="69.87" x="636.225" y="16.0032"/><text fill="#000000" font-family="sans-serif" font-size="7.14" lengthAdjust="spacing" textLength="37.74" x="652.29" y="27.278">appSession</text><text fill="#000000" font-family="sans-serif" font-size="7.14" lengthAdjust="spacing" textLength="62.73" x="639.795" y="36.7748">:ApplicationSession</text><rect fill="#E3E3E3" height="26.1335" rx="1.275" ry="1.275" style="stroke:#181818;stroke-width:0.255;" width="69.87" x="636.225" y="926.3911"/><text fill="#000000" font-family="sans-serif" font-size="7.14" lengthAdjust="spacing" textLength="37.74" x="652.29" y="937.6659">appSession</text><text fill="#000000" font-family="sans-serif" font-size="7.14" lengthAdjust="spacing" textLength="62.73" x="639.795" y="947.1626">:ApplicationSession</text><rect fill="#E3E3E3" height="26.1335" rx="1.275" ry="1.275" style="stroke:#181818;stroke-width:0.255;" width="55.59" x="711.195" y="16.0032"/><text fill="#000000" font-family="sans-serif" font-size="7.14" lengthAdjust="spacing" textLength="48.45" x="714.765" y="27.278">currentSession</text><text fill="#000000" font-family="sans-serif" font-size="7.14" lengthAdjust="spacing" textLength="42.33" x="717.825" y="36.7748">:UserSession</text><rect fill="#E3E3E3" height="26.1335" rx="1.275" ry="1.275" style="stroke:#181818;stroke-width:0.255;" width="55.59" x="711.195" y="926.3911"/><text fill="#000000" font-family="sans-serif" font-size="7.14" lengthAdjust="spacing" textLength="48.45" x="714.765" y="937.6659">currentSession</text><text fill="#000000" font-family="sans-serif" font-size="7.14" lengthAdjust="spacing" textLength="42.33" x="717.825" y="947.1626">:UserSession</text><rect fill="#E3E3E3" height="26.1335" rx="1.275" ry="1.275" style="stroke:#181818;stroke-width:0.255;" width="83.13" x="771.885" y="16.0032"/><text fill="#000000" font-family="sans-serif" font-size="7.14" lengthAdjust="spacing" textLength="75.99" x="775.455" y="27.278">organizationRepository:</text><text fill="#000000" font-family="sans-serif" font-size="7.14" lengthAdjust="spacing" textLength="75.48" x="775.71" y="36.7748">OrganizationRepository</text><rect fill="#E3E3E3" height="26.1335" rx="1.275" ry="1.275" style="stroke:#181818;stroke-width:0.255;" width="83.13" x="771.885" y="926.3911"/><text fill="#000000" font-family="sans-serif" font-size="7.14" lengthAdjust="spacing" textLength="75.99" x="775.455" y="937.6659">organizationRepository:</text><text fill="#000000" font-family="sans-serif" font-size="7.14" lengthAdjust="spacing" textLength="75.48" x="775.71" y="947.1626">OrganizationRepository</text><rect fill="#E3E3E3" height="26.1335" rx="1.275" ry="1.275" style="stroke:#181818;stroke-width:0.255;" width="49.98" x="885.87" y="16.0032"/><text fill="#000000" font-family="sans-serif" font-size="7.14" lengthAdjust="spacing" textLength="39.27" x="891.225" y="27.278">organization</text><text fill="#000000" font-family="sans-serif" font-size="7.14" lengthAdjust="spacing" textLength="42.84" x="889.44" y="36.7748">:Organization</text><rect fill="#E3E3E3" height="26.1335" rx="1.275" ry="1.275" style="stroke:#181818;stroke-width:0.255;" width="49.98" x="885.87" y="926.3911"/><text fill="#000000" font-family="sans-serif" font-size="7.14" lengthAdjust="spacing" textLength="39.27" x="891.225" y="937.6659">organization</text><text fill="#000000" font-family="sans-serif" font-size="7.14" lengthAdjust="spacing" textLength="42.84" x="889.44" y="947.1626">:Organization</text><rect fill="#E3E3E3" height="26.1335" rx="1.275" ry="1.275" style="stroke:#181818;stroke-width:0.255;" width="20.4" x="940.95" y="926.3911"/><text fill="#000000" font-family="sans-serif" font-size="7.14" lengthAdjust="spacing" textLength="8.67" x="946.815" y="937.6659">list</text><text fill="#000000" font-family="sans-serif" font-size="7.14" lengthAdjust="spacing" textLength="13.26" x="944.52" y="947.1626">:List</text><rect fill="#FFFFFF" height="869.9743" style="stroke:#181818;stroke-width:0.51;" width="5.1" x="37.74" y="47.7468"/><rect fill="#FFFFFF" height="858.0959" style="stroke:#181818;stroke-width:0.51;" width="5.1" x="196.86" y="59.6252"/><rect fill="#FFFFFF" height="390.5036" style="stroke:#181818;stroke-width:0.51;" width="5.1" x="309.57" y="97.8304"/><rect fill="#FFFFFF" height="342.6284" style="stroke:#181818;stroke-width:0.51;" width="5.1" x="312.12" y="145.7056"/><rect fill="#FFFFFF" height="294.7531" style="stroke:#181818;stroke-width:0.51;" width="5.1" x="314.67" y="193.5809"/><rect fill="#FFFFFF" height="261.9647" style="stroke:#181818;stroke-width:0.51;" width="5.1" x="317.22" y="226.3693"/><rect fill="#FFFFFF" height="15.9584" style="stroke:#181818;stroke-width:0.51;" width="5.1" x="457.47" y="113.7888"/><rect fill="#FFFFFF" height="15.9584" style="stroke:#181818;stroke-width:0.51;" width="5.1" x="457.47" y="161.664"/><rect fill="#FFFFFF" height="15.9584" style="stroke:#181818;stroke-width:0.51;" width="5.1" x="457.47" y="340.6282"/><rect fill="#FFFFFF" height="15.9584" style="stroke:#181818;stroke-width:0.51;" width="5.1" x="520.455" y="534.0208"/><rect fill="#FFFFFF" height="15.9584" style="stroke:#181818;stroke-width:0.51;" width="5.1" x="520.455" y="565.9376"/><rect fill="#FFFFFF" height="15.9584" style="stroke:#181818;stroke-width:0.51;" width="5.1" x="520.455" y="597.8545"/><rect fill="#FFFFFF" height="15.9584" style="stroke:#181818;stroke-width:0.51;" width="5.1" x="520.455" y="629.7713"/><rect fill="#FFFFFF" height="15.9584" style="stroke:#181818;stroke-width:0.51;" width="5.1" x="520.455" y="661.6881"/><rect fill="#FFFFFF" height="15.9584" style="stroke:#181818;stroke-width:0.51;" width="5.1" x="520.455" y="693.605"/><rect fill="#FFFFFF" height="15.9584" style="stroke:#181818;stroke-width:0.51;" width="5.1" x="520.455" y="725.5218"/><rect fill="#FFFFFF" height="15.9584" style="stroke:#181818;stroke-width:0.51;" width="5.1" x="520.455" y="757.4387"/><rect fill="#FFFFFF" height="15.9584" style="stroke:#181818;stroke-width:0.51;" width="5.1" x="520.455" y="789.3555"/><rect fill="#FFFFFF" height="15.9584" style="stroke:#181818;stroke-width:0.51;" width="5.1" x="593.64" y="244.8777"/><rect fill="#FFFFFF" height="15.9584" style="stroke:#181818;stroke-width:0.51;" width="5.1" x="668.61" y="276.7945"/><rect fill="#FFFFFF" height="15.9584" style="stroke:#181818;stroke-width:0.51;" width="5.1" x="736.44" y="308.7114"/><rect fill="#FFFFFF" height="64.8537" style="stroke:#181818;stroke-width:0.51;" width="5.1" x="810.9" y="372.545"/><rect fill="#FFFFFF" height="15.9584" style="stroke:#181818;stroke-width:0.51;" width="5.1" x="908.31" y="401.9119"/><rect fill="#FFFFFF" height="15.9584" style="stroke:#181818;stroke-width:0.51;" width="5.1" x="908.31" y="453.3571"/><rect fill="#FFFFFF" height="71.8204" style="stroke:#181818;stroke-width:0.51;" width="5.1" x="948.6" y="829.9423"/><polygon fill="#181818" points="190.74,57.5852,195.84,59.6252,190.74,61.6652,192.78,59.6252" style="stroke:#181818;stroke-width:0.51;"/><line style="stroke:#181818;stroke-width:0.51;" x1="42.84" x2="193.8" y1="59.6252" y2="59.6252"/><text fill="#000000" font-family="sans-serif" font-size="6.63" font-weight="bold" lengthAdjust="spacing" textLength="3.57" x="46.41" y="56.9412">1</text><text fill="#000000" font-family="sans-serif" font-size="6.63" lengthAdjust="spacing" textLength="138.72" x="52.02" y="56.9412">asks to list the vehicles that need maintenance</text><polygon fill="#181818" points="245.82,73.5436,250.92,75.5836,245.82,77.6236,247.86,75.5836" style="stroke:#181818;stroke-width:0.51;"/><line style="stroke:#181818;stroke-width:0.51;" x1="201.96" x2="248.88" y1="75.5836" y2="75.5836"/><text fill="#000000" font-family="sans-serif" font-size="6.63" font-weight="bold" lengthAdjust="spacing" textLength="3.57" x="205.53" y="72.8996">2</text><text fill="#000000" font-family="sans-serif" font-size="6.63" lengthAdjust="spacing" textLength="18.36" x="211.14" y="72.8996">create</text><rect fill="#E3E3E3" height="16.6368" rx="1.275" ry="1.275" style="stroke:#181818;stroke-width:0.255;" width="120.36" x="251.94" y="63.7052"/><text fill="#000000" font-family="sans-serif" font-size="7.14" lengthAdjust="spacing" textLength="113.22" x="255.51" y="74.98">:ProduceMaintenanceListController</text><polygon fill="#181818" points="303.45,95.7904,308.55,97.8304,303.45,99.8704,305.49,97.8304" style="stroke:#181818;stroke-width:0.51;"/><line style="stroke:#181818;stroke-width:0.51;" x1="201.96" x2="306.51" y1="97.8304" y2="97.8304"/><text fill="#000000" font-family="sans-serif" font-size="6.63" font-weight="bold" lengthAdjust="spacing" textLength="3.57" x="205.53" y="95.1464">3</text><text fill="#000000" font-family="sans-serif" font-size="6.63" lengthAdjust="spacing" textLength="66.81" x="211.14" y="95.1464">getVehicleRepository()</text><polygon fill="#181818" points="451.35,111.7488,456.45,113.7888,451.35,115.8288,453.39,113.7888" style="stroke:#181818;stroke-width:0.51;"/><line style="stroke:#181818;stroke-width:0.51;" x1="314.67" x2="454.41" y1="113.7888" y2="113.7888"/><text fill="#000000" font-family="sans-serif" font-size="6.63" font-weight="bold" lengthAdjust="spacing" textLength="3.57" x="318.24" y="111.1048">4</text><text fill="#000000" font-family="sans-serif" font-size="6.63" lengthAdjust="spacing" textLength="66.81" x="323.85" y="111.1048">getVehicleRepository()</text><polygon fill="#181818" points="320.28,127.7072,315.18,129.7472,320.28,131.7872,318.24,129.7472" style="stroke:#181818;stroke-width:0.51;"/><line style="stroke:#181818;stroke-width:0.51;stroke-dasharray:2.0,2.0;" x1="317.22" x2="459.51" y1="129.7472" y2="129.7472"/><text fill="#000000" font-family="sans-serif" font-size="6.63" font-weight="bold" lengthAdjust="spacing" textLength="3.57" x="323.34" y="127.0632">5</text><text fill="#000000" font-family="sans-serif" font-size="6.63" lengthAdjust="spacing" textLength="51.51" x="328.95" y="127.0632">vehicleRepository</text><polygon fill="#181818" points="306,143.6656,311.1,145.7056,306,147.7456,308.04,145.7056" style="stroke:#181818;stroke-width:0.51;"/><line style="stroke:#181818;stroke-width:0.51;" x1="201.96" x2="309.06" y1="145.7056" y2="145.7056"/><text fill="#000000" font-family="sans-serif" font-size="6.63" font-weight="bold" lengthAdjust="spacing" textLength="3.57" x="205.53" y="143.0216">6</text><text fill="#000000" font-family="sans-serif" font-size="6.63" lengthAdjust="spacing" textLength="38.76" x="211.14" y="143.0216">getVehicles()</text><polygon fill="#181818" points="451.35,159.624,456.45,161.664,451.35,163.704,453.39,161.664" style="stroke:#181818;stroke-width:0.51;"/><line style="stroke:#181818;stroke-width:0.51;" x1="317.22" x2="454.41" y1="161.664" y2="161.664"/><text fill="#000000" font-family="sans-serif" font-size="6.63" font-weight="bold" lengthAdjust="spacing" textLength="3.57" x="320.79" y="158.98">7</text><text fill="#000000" font-family="sans-serif" font-size="6.63" lengthAdjust="spacing" textLength="38.76" x="326.4" y="158.98">getVehicles()</text><polygon fill="#181818" points="322.83,175.5824,317.73,177.6224,322.83,179.6624,320.79,177.6224" style="stroke:#181818;stroke-width:0.51;"/><line style="stroke:#181818;stroke-width:0.51;stroke-dasharray:2.0,2.0;" x1="319.77" x2="459.51" y1="177.6224" y2="177.6224"/><text fill="#000000" font-family="sans-serif" font-size="6.63" font-weight="bold" lengthAdjust="spacing" textLength="3.57" x="325.89" y="174.9385">8</text><text fill="#000000" font-family="sans-serif" font-size="6.63" lengthAdjust="spacing" textLength="23.46" x="331.5" y="174.9385">vehicles</text><polygon fill="#181818" points="308.55,191.5409,313.65,193.5809,308.55,195.6209,310.59,193.5809" style="stroke:#181818;stroke-width:0.51;"/><line style="stroke:#181818;stroke-width:0.51;" x1="201.96" x2="311.61" y1="193.5809" y2="193.5809"/><text fill="#000000" font-family="sans-serif" font-size="6.63" font-weight="bold" lengthAdjust="spacing" textLength="3.57" x="205.53" y="190.8969">9</text><text fill="#000000" font-family="sans-serif" font-size="6.63" lengthAdjust="spacing" textLength="75.99" x="211.14" y="190.8969">produceMaintenanecList()</text><line style="stroke:#181818;stroke-width:0.51;" x1="319.77" x2="343.74" y1="219.7393" y2="219.7393"/><line style="stroke:#181818;stroke-width:0.51;" x1="343.74" x2="343.74" y1="219.7393" y2="226.3693"/><line style="stroke:#181818;stroke-width:0.51;" x1="322.83" x2="343.74" y1="226.3693" y2="226.3693"/><polygon fill="#181818" points="327.93,224.3293,322.83,226.3693,327.93,228.4093,325.89,226.3693" style="stroke:#181818;stroke-width:0.51;"/><text fill="#000000" font-family="sans-serif" font-size="6.63" font-weight="bold" lengthAdjust="spacing" textLength="7.14" x="325.89" y="217.0553">10</text><text fill="#000000" font-family="sans-serif" font-size="6.63" lengthAdjust="spacing" textLength="66.81" x="335.07" y="217.0553">getVFMFromSession()</text><polygon fill="#181818" points="587.52,242.8377,592.62,244.8777,587.52,246.9177,589.56,244.8777" style="stroke:#181818;stroke-width:0.51;"/><line style="stroke:#181818;stroke-width:0.51;" x1="322.32" x2="590.58" y1="244.8777" y2="244.8777"/><text fill="#000000" font-family="sans-serif" font-size="6.63" font-weight="bold" lengthAdjust="spacing" textLength="7.14" x="325.89" y="242.1937">11</text><text fill="#000000" font-family="sans-serif" font-size="6.63" lengthAdjust="spacing" textLength="38.25" x="335.07" y="242.1937">getInstance()</text><polygon fill="#181818" points="327.93,258.7961,322.83,260.8361,327.93,262.8761,325.89,260.8361" style="stroke:#181818;stroke-width:0.51;"/><line style="stroke:#181818;stroke-width:0.51;" x1="324.87" x2="595.68" y1="260.8361" y2="260.8361"/><text fill="#000000" font-family="sans-serif" font-size="6.63" font-weight="bold" lengthAdjust="spacing" textLength="7.14" x="330.99" y="258.1521">12</text><text fill="#000000" font-family="sans-serif" font-size="6.63" lengthAdjust="spacing" textLength="34.68" x="340.17" y="258.1521">appSession</text><polygon fill="#181818" points="662.49,274.7545,667.59,276.7945,662.49,278.8345,664.53,276.7945" style="stroke:#181818;stroke-width:0.51;"/><line style="stroke:#181818;stroke-width:0.51;" x1="322.32" x2="665.55" y1="276.7945" y2="276.7945"/><text fill="#000000" font-family="sans-serif" font-size="6.63" font-weight="bold" lengthAdjust="spacing" textLength="7.14" x="325.89" y="274.1106">13</text><text fill="#000000" font-family="sans-serif" font-size="6.63" lengthAdjust="spacing" textLength="58.65" x="335.07" y="274.1106">getCurrentSession()</text><polygon fill="#181818" points="327.93,290.7129,322.83,292.7529,327.93,294.7929,325.89,292.7529" style="stroke:#181818;stroke-width:0.51;"/><line style="stroke:#181818;stroke-width:0.51;stroke-dasharray:2.0,2.0;" x1="324.87" x2="670.65" y1="292.7529" y2="292.7529"/><text fill="#000000" font-family="sans-serif" font-size="6.63" font-weight="bold" lengthAdjust="spacing" textLength="7.14" x="330.99" y="290.069">14</text><text fill="#000000" font-family="sans-serif" font-size="6.63" lengthAdjust="spacing" textLength="44.37" x="340.17" y="290.069">currentSession</text><polygon fill="#181818" points="730.32,306.6714,735.42,308.7114,730.32,310.7514,732.36,308.7114" style="stroke:#181818;stroke-width:0.51;"/><line style="stroke:#181818;stroke-width:0.51;" x1="322.32" x2="733.38" y1="308.7114" y2="308.7114"/><text fill="#000000" font-family="sans-serif" font-size="6.63" font-weight="bold" lengthAdjust="spacing" textLength="7.14" x="325.89" y="306.0274">15</text><text fill="#000000" font-family="sans-serif" font-size="6.63" lengthAdjust="spacing" textLength="67.83" x="335.07" y="306.0274">email = getUserEmail()</text><polygon fill="#181818" points="327.93,322.6298,322.83,324.6698,327.93,326.7098,325.89,324.6698" style="stroke:#181818;stroke-width:0.51;"/><line style="stroke:#181818;stroke-width:0.51;stroke-dasharray:2.0,2.0;" x1="324.87" x2="738.48" y1="324.6698" y2="324.6698"/><text fill="#000000" font-family="sans-serif" font-size="6.63" font-weight="bold" lengthAdjust="spacing" textLength="7.14" x="330.99" y="321.9858">16</text><text fill="#000000" font-family="sans-serif" font-size="6.63" lengthAdjust="spacing" textLength="15.81" x="340.17" y="321.9858">email</text><polygon fill="#181818" points="451.35,338.5882,456.45,340.6282,451.35,342.6682,453.39,340.6282" style="stroke:#181818;stroke-width:0.51;"/><line style="stroke:#181818;stroke-width:0.51;" x1="322.32" x2="454.41" y1="340.6282" y2="340.6282"/><text fill="#000000" font-family="sans-serif" font-size="6.63" font-weight="bold" lengthAdjust="spacing" textLength="7.14" x="325.89" y="337.9442">17</text><text fill="#000000" font-family="sans-serif" font-size="6.63" lengthAdjust="spacing" textLength="97.92" x="335.07" y="337.9442">getOrganizationRepository(email)</text><polygon fill="#181818" points="327.93,354.5466,322.83,356.5866,327.93,358.6266,325.89,356.5866" style="stroke:#181818;stroke-width:0.51;"/><line style="stroke:#181818;stroke-width:0.51;stroke-dasharray:2.0,2.0;" x1="324.87" x2="459.51" y1="356.5866" y2="356.5866"/><text fill="#000000" font-family="sans-serif" font-size="6.63" font-weight="bold" lengthAdjust="spacing" textLength="7.14" x="330.99" y="353.9026">18</text><text fill="#000000" font-family="sans-serif" font-size="6.63" lengthAdjust="spacing" textLength="67.32" x="340.17" y="353.9026">organizationRepository</text><polygon fill="#181818" points="804.78,370.505,809.88,372.545,804.78,374.585,806.82,372.545" style="stroke:#181818;stroke-width:0.51;"/><line style="stroke:#181818;stroke-width:0.51;" x1="322.32" x2="807.84" y1="372.545" y2="372.545"/><text fill="#000000" font-family="sans-serif" font-size="6.63" font-weight="bold" lengthAdjust="spacing" textLength="7.14" x="325.89" y="369.8611">19</text><text fill="#000000" font-family="sans-serif" font-size="6.63" lengthAdjust="spacing" textLength="105.57" x="335.07" y="369.8611">getOrganizationByVFMEmail(email)</text><path d="M766.785,380.195 L804.015,380.195 L804.015,384.9335 L798.915,390.0335 L766.785,390.0335 L766.785,380.195 " fill="#EEEEEE" style="stroke:#000000;stroke-width:0.765;"/><rect fill="none" height="41.7553" style="stroke:#000000;stroke-width:0.765;" width="174.165" x="766.785" y="380.195"/><text fill="#000000" font-family="sans-serif" font-size="6.63" font-weight="bold" lengthAdjust="spacing" textLength="14.28" x="774.435" y="387.8595">loop</text><text fill="#000000" font-family="sans-serif" font-size="5.61" font-weight="bold" lengthAdjust="spacing" textLength="65.28" x="811.665" y="387.2688">[[for each organization]</text><polygon fill="#181818" points="902.19,399.8719,907.29,401.9119,902.19,403.9519,904.23,401.9119" style="stroke:#181818;stroke-width:0.51;"/><line style="stroke:#181818;stroke-width:0.51;" x1="816" x2="905.25" y1="401.9119" y2="401.9119"/><text fill="#000000" font-family="sans-serif" font-size="6.63" font-weight="bold" lengthAdjust="spacing" textLength="7.14" x="819.57" y="399.2279">20</text><text fill="#000000" font-family="sans-serif" font-size="6.63" lengthAdjust="spacing" textLength="73.44" x="828.75" y="399.2279">anyVFMHasEmail(email)</text><polygon fill="#181818" points="821.61,415.8303,816.51,417.8703,821.61,419.9103,819.57,417.8703" style="stroke:#181818;stroke-width:0.51;"/><line style="stroke:#181818;stroke-width:0.51;stroke-dasharray:2.0,2.0;" x1="818.55" x2="910.35" y1="417.8703" y2="417.8703"/><text fill="#000000" font-family="sans-serif" font-size="6.63" font-weight="bold" lengthAdjust="spacing" textLength="7.14" x="824.67" y="415.1863">21</text><text fill="#000000" font-family="sans-serif" font-size="6.63" lengthAdjust="spacing" textLength="27.03" x="833.85" y="415.1863">true/false</text><polygon fill="#181818" points="327.93,435.3587,322.83,437.3987,327.93,439.4387,325.89,437.3987" style="stroke:#181818;stroke-width:0.51;"/><line style="stroke:#181818;stroke-width:0.51;stroke-dasharray:2.0,2.0;" x1="324.87" x2="812.94" y1="437.3987" y2="437.3987"/><text fill="#000000" font-family="sans-serif" font-size="6.63" font-weight="bold" lengthAdjust="spacing" textLength="7.14" x="330.99" y="434.7147">22</text><text fill="#000000" font-family="sans-serif" font-size="6.63" lengthAdjust="spacing" textLength="35.7" x="340.17" y="434.7147">organization</text><polygon fill="#181818" points="902.19,451.3171,907.29,453.3571,902.19,455.3971,904.23,453.3571" style="stroke:#181818;stroke-width:0.51;"/><line style="stroke:#181818;stroke-width:0.51;" x1="322.32" x2="905.25" y1="453.3571" y2="453.3571"/><text fill="#000000" font-family="sans-serif" font-size="6.63" font-weight="bold" lengthAdjust="spacing" textLength="7.14" x="325.89" y="450.6732">23</text><text fill="#000000" font-family="sans-serif" font-size="6.63" lengthAdjust="spacing" textLength="68.34" x="335.07" y="450.6732">getVFMByEmail(email)</text><polygon fill="#181818" points="327.93,467.2755,322.83,469.3155,327.93,471.3555,325.89,469.3155" style="stroke:#181818;stroke-width:0.51;"/><line style="stroke:#181818;stroke-width:0.51;stroke-dasharray:2.0,2.0;" x1="324.87" x2="910.35" y1="469.3155" y2="469.3155"/><text fill="#000000" font-family="sans-serif" font-size="6.63" font-weight="bold" lengthAdjust="spacing" textLength="7.14" x="330.99" y="466.6316">24</text><text fill="#000000" font-family="sans-serif" font-size="6.63" lengthAdjust="spacing" textLength="9.69" x="340.17" y="466.6316">vfm</text><line style="stroke:#181818;stroke-width:0.51;stroke-dasharray:2.0,2.0;" x1="322.32" x2="343.74" y1="487.824" y2="487.824"/><line style="stroke:#181818;stroke-width:0.51;stroke-dasharray:2.0,2.0;" x1="343.74" x2="343.74" y1="487.824" y2="494.454"/><line style="stroke:#181818;stroke-width:0.51;stroke-dasharray:2.0,2.0;" x1="319.77" x2="343.74" y1="494.454" y2="494.454"/><polygon fill="#181818" points="324.87,492.414,319.77,494.454,324.87,496.494,322.83,494.454" style="stroke:#181818;stroke-width:0.51;"/><text fill="#000000" font-family="sans-serif" font-size="6.63" font-weight="bold" lengthAdjust="spacing" textLength="7.14" x="325.89" y="485.14">25</text><text fill="#000000" font-family="sans-serif" font-size="6.63" lengthAdjust="spacing" textLength="9.69" x="335.07" y="485.14">vfm</text><path d="M146.88,512.304 L184.11,512.304 L184.11,517.0424 L179.01,522.1424 L146.88,522.1424 L146.88,512.304 " fill="#EEEEEE" style="stroke:#000000;stroke-width:0.765;"/><rect fill="none" height="297.0899" style="stroke:#000000;stroke-width:0.765;" width="414.375" x="146.88" y="512.304"/><text fill="#000000" font-family="sans-serif" font-size="6.63" font-weight="bold" lengthAdjust="spacing" textLength="14.28" x="154.53" y="519.9684">loop</text><text fill="#000000" font-family="sans-serif" font-size="5.61" font-weight="bold" lengthAdjust="spacing" textLength="50.49" x="191.76" y="519.3777">[[for each vehicle]</text><polygon fill="#181818" points="514.335,531.9808,519.435,534.0208,514.335,536.0608,516.375,534.0208" style="stroke:#181818;stroke-width:0.51;"/><line style="stroke:#181818;stroke-width:0.51;" x1="201.96" x2="517.395" y1="534.0208" y2="534.0208"/><text fill="#000000" font-family="sans-serif" font-size="6.63" font-weight="bold" lengthAdjust="spacing" textLength="7.14" x="205.53" y="531.3368">26</text><text fill="#000000" font-family="sans-serif" font-size="6.63" lengthAdjust="spacing" textLength="51.51" x="214.71" y="531.3368">getPlateNumber()</text><polygon fill="#181818" points="207.57,547.9392,202.47,549.9792,207.57,552.0192,205.53,549.9792" style="stroke:#181818;stroke-width:0.51;"/><line style="stroke:#181818;stroke-width:0.51;" x1="204.51" x2="522.495" y1="549.9792" y2="549.9792"/><text fill="#000000" font-family="sans-serif" font-size="6.63" font-weight="bold" lengthAdjust="spacing" textLength="7.14" x="210.63" y="547.2952">27</text><text fill="#000000" font-family="sans-serif" font-size="6.63" lengthAdjust="spacing" textLength="37.23" x="219.81" y="547.2952">plateNumber</text><polygon fill="#181818" points="514.335,563.8976,519.435,565.9376,514.335,567.9776,516.375,565.9376" style="stroke:#181818;stroke-width:0.51;"/><line style="stroke:#181818;stroke-width:0.51;" x1="201.96" x2="517.395" y1="565.9376" y2="565.9376"/><text fill="#000000" font-family="sans-serif" font-size="6.63" font-weight="bold" lengthAdjust="spacing" textLength="7.14" x="205.53" y="563.2537">28</text><text fill="#000000" font-family="sans-serif" font-size="6.63" lengthAdjust="spacing" textLength="30.6" x="214.71" y="563.2537">getBrand()</text><polygon fill="#181818" points="207.57,579.8561,202.47,581.8961,207.57,583.9361,205.53,581.8961" style="stroke:#181818;stroke-width:0.51;"/><line style="stroke:#181818;stroke-width:0.51;" x1="204.51" x2="522.495" y1="581.8961" y2="581.8961"/><text fill="#000000" font-family="sans-serif" font-size="6.63" font-weight="bold" lengthAdjust="spacing" textLength="7.14" x="210.63" y="579.2121">29</text><text fill="#000000" font-family="sans-serif" font-size="6.63" lengthAdjust="spacing" textLength="16.32" x="219.81" y="579.2121">brand</text><polygon fill="#181818" points="514.335,595.8145,519.435,597.8545,514.335,599.8945,516.375,597.8545" style="stroke:#181818;stroke-width:0.51;"/><line style="stroke:#181818;stroke-width:0.51;" x1="201.96" x2="517.395" y1="597.8545" y2="597.8545"/><text fill="#000000" font-family="sans-serif" font-size="6.63" font-weight="bold" lengthAdjust="spacing" textLength="7.14" x="205.53" y="595.1705">30</text><text fill="#000000" font-family="sans-serif" font-size="6.63" lengthAdjust="spacing" textLength="27.03" x="214.71" y="595.1705">getModel</text><polygon fill="#181818" points="207.57,611.7729,202.47,613.8129,207.57,615.8529,205.53,613.8129" style="stroke:#181818;stroke-width:0.51;"/><line style="stroke:#181818;stroke-width:0.51;" x1="204.51" x2="522.495" y1="613.8129" y2="613.8129"/><text fill="#000000" font-family="sans-serif" font-size="6.63" font-weight="bold" lengthAdjust="spacing" textLength="7.14" x="210.63" y="611.1289">31</text><text fill="#000000" font-family="sans-serif" font-size="6.63" lengthAdjust="spacing" textLength="17.85" x="219.81" y="611.1289">model</text><polygon fill="#181818" points="514.335,627.7313,519.435,629.7713,514.335,631.8113,516.375,629.7713" style="stroke:#181818;stroke-width:0.51;"/><line style="stroke:#181818;stroke-width:0.51;" x1="201.96" x2="517.395" y1="629.7713" y2="629.7713"/><text fill="#000000" font-family="sans-serif" font-size="6.63" font-weight="bold" lengthAdjust="spacing" textLength="7.14" x="205.53" y="627.0873">32</text><text fill="#000000" font-family="sans-serif" font-size="6.63" lengthAdjust="spacing" textLength="44.88" x="214.71" y="627.0873">getCurrentKm()</text><polygon fill="#181818" points="207.57,643.6897,202.47,645.7297,207.57,647.7697,205.53,645.7297" style="stroke:#181818;stroke-width:0.51;"/><line style="stroke:#181818;stroke-width:0.51;" x1="204.51" x2="522.495" y1="645.7297" y2="645.7297"/><text fill="#000000" font-family="sans-serif" font-size="6.63" font-weight="bold" lengthAdjust="spacing" textLength="7.14" x="210.63" y="643.0458">33</text><text fill="#000000" font-family="sans-serif" font-size="6.63" lengthAdjust="spacing" textLength="34.68" x="219.81" y="643.0458">currentKm()</text><polygon fill="#181818" points="514.335,659.6481,519.435,661.6881,514.335,663.7281,516.375,661.6881" style="stroke:#181818;stroke-width:0.51;"/><line style="stroke:#181818;stroke-width:0.51;" x1="201.96" x2="517.395" y1="661.6881" y2="661.6881"/><text fill="#000000" font-family="sans-serif" font-size="6.63" font-weight="bold" lengthAdjust="spacing" textLength="7.14" x="205.53" y="659.0042">34</text><text fill="#000000" font-family="sans-serif" font-size="6.63" lengthAdjust="spacing" textLength="77.52" x="214.71" y="659.0042">getLastMaintenanceDate()</text><polygon fill="#181818" points="207.57,675.6066,202.47,677.6466,207.57,679.6866,205.53,677.6466" style="stroke:#181818;stroke-width:0.51;"/><line style="stroke:#181818;stroke-width:0.51;" x1="204.51" x2="522.495" y1="677.6466" y2="677.6466"/><text fill="#000000" font-family="sans-serif" font-size="6.63" font-weight="bold" lengthAdjust="spacing" textLength="7.14" x="210.63" y="674.9626">35</text><text fill="#000000" font-family="sans-serif" font-size="6.63" lengthAdjust="spacing" textLength="62.22" x="219.81" y="674.9626">lastMaintenanceDate</text><polygon fill="#181818" points="514.335,691.565,519.435,693.605,514.335,695.645,516.375,693.605" style="stroke:#181818;stroke-width:0.51;"/><line style="stroke:#181818;stroke-width:0.51;" x1="201.96" x2="517.395" y1="693.605" y2="693.605"/><text fill="#000000" font-family="sans-serif" font-size="6.63" font-weight="bold" lengthAdjust="spacing" textLength="7.14" x="205.53" y="690.921">36</text><text fill="#000000" font-family="sans-serif" font-size="6.63" lengthAdjust="spacing" textLength="92.31" x="214.71" y="690.921">getMaintenanceFrequencyKm()</text><polygon fill="#181818" points="207.57,707.5234,202.47,709.5634,207.57,711.6034,205.53,709.5634" style="stroke:#181818;stroke-width:0.51;"/><line style="stroke:#181818;stroke-width:0.51;" x1="204.51" x2="522.495" y1="709.5634" y2="709.5634"/><text fill="#000000" font-family="sans-serif" font-size="6.63" font-weight="bold" lengthAdjust="spacing" textLength="7.14" x="210.63" y="706.8794">37</text><text fill="#000000" font-family="sans-serif" font-size="6.63" lengthAdjust="spacing" textLength="79.05" x="219.81" y="706.8794">maintenanceFrequencyKm</text><polygon fill="#181818" points="514.335,723.4818,519.435,725.5218,514.335,727.5618,516.375,725.5218" style="stroke:#181818;stroke-width:0.51;"/><line style="stroke:#181818;stroke-width:0.51;" x1="201.96" x2="517.395" y1="725.5218" y2="725.5218"/><text fill="#000000" font-family="sans-serif" font-size="6.63" font-weight="bold" lengthAdjust="spacing" textLength="7.14" x="205.53" y="722.8378">38</text><text fill="#000000" font-family="sans-serif" font-size="6.63" lengthAdjust="spacing" textLength="110.67" x="214.71" y="722.8378">plusDays(maintenanceFrequencyKm)</text><polygon fill="#181818" points="207.57,739.4402,202.47,741.4802,207.57,743.5202,205.53,741.4802" style="stroke:#181818;stroke-width:0.51;"/><line style="stroke:#181818;stroke-width:0.51;" x1="204.51" x2="522.495" y1="741.4802" y2="741.4802"/><text fill="#000000" font-family="sans-serif" font-size="6.63" font-weight="bold" lengthAdjust="spacing" textLength="7.14" x="210.63" y="738.7963">39</text><text fill="#000000" font-family="sans-serif" font-size="6.63" lengthAdjust="spacing" textLength="64.26" x="219.81" y="738.7963">nextMaintenanceDate</text><polygon fill="#181818" points="514.335,755.3987,519.435,757.4387,514.335,759.4787,516.375,757.4387" style="stroke:#181818;stroke-width:0.51;"/><line style="stroke:#181818;stroke-width:0.51;" x1="201.96" x2="517.395" y1="757.4387" y2="757.4387"/><text fill="#000000" font-family="sans-serif" font-size="6.63" font-weight="bold" lengthAdjust="spacing" textLength="7.14" x="205.53" y="754.7547">40</text><text fill="#000000" font-family="sans-serif" font-size="6.63" lengthAdjust="spacing" textLength="51.51" x="214.71" y="754.7547">getPlateNumber()</text><polygon fill="#181818" points="207.57,771.3571,202.47,773.3971,207.57,775.4371,205.53,773.3971" style="stroke:#181818;stroke-width:0.51;"/><line style="stroke:#181818;stroke-width:0.51;" x1="204.51" x2="522.495" y1="773.3971" y2="773.3971"/><text fill="#000000" font-family="sans-serif" font-size="6.63" font-weight="bold" lengthAdjust="spacing" textLength="7.14" x="210.63" y="770.7131">41</text><text fill="#000000" font-family="sans-serif" font-size="6.63" lengthAdjust="spacing" textLength="41.31" x="219.81" y="770.7131">plateNumber()</text><polygon fill="#181818" points="514.335,787.3155,519.435,789.3555,514.335,791.3955,516.375,789.3555" style="stroke:#181818;stroke-width:0.51;"/><line style="stroke:#181818;stroke-width:0.51;" x1="201.96" x2="517.395" y1="789.3555" y2="789.3555"/><text fill="#000000" font-family="sans-serif" font-size="6.63" font-weight="bold" lengthAdjust="spacing" textLength="7.14" x="205.53" y="786.6715">42</text><text fill="#000000" font-family="sans-serif" font-size="6.63" lengthAdjust="spacing" textLength="291.21" x="214.71" y="786.6715">plusDays(maintenanceFrequencyKm).until(LocalDate.now(), java.time.temporal.ChronoUnit.DAYS);</text><polygon fill="#181818" points="207.57,803.2739,202.47,805.3139,207.57,807.3539,205.53,805.3139" style="stroke:#181818;stroke-width:0.51;"/><line style="stroke:#181818;stroke-width:0.51;" x1="204.51" x2="522.495" y1="805.3139" y2="805.3139"/><text fill="#000000" font-family="sans-serif" font-size="6.63" font-weight="bold" lengthAdjust="spacing" textLength="7.14" x="210.63" y="802.6299">43</text><text fill="#000000" font-family="sans-serif" font-size="6.63" lengthAdjust="spacing" textLength="64.26" x="219.81" y="802.6299">nextMaintenanceKms</text><polygon fill="#181818" points="934.83,822.8023,939.93,824.8423,934.83,826.8823,936.87,824.8423" style="stroke:#181818;stroke-width:0.51;"/><line style="stroke:#181818;stroke-width:0.51;" x1="201.96" x2="937.89" y1="824.8423" y2="824.8423"/><text fill="#000000" font-family="sans-serif" font-size="6.63" font-weight="bold" lengthAdjust="spacing" textLength="7.14" x="205.53" y="822.1583">44</text><text fill="#000000" font-family="sans-serif" font-size="6.63" lengthAdjust="spacing" textLength="18.36" x="214.71" y="822.1583">create</text><rect fill="#E3E3E3" height="26.1335" rx="1.275" ry="1.275" style="stroke:#181818;stroke-width:0.255;" width="20.4" x="940.95" y="812.9639"/><text fill="#000000" font-family="sans-serif" font-size="7.14" lengthAdjust="spacing" textLength="8.67" x="946.815" y="824.2387">list</text><text fill="#000000" font-family="sans-serif" font-size="7.14" lengthAdjust="spacing" textLength="13.26" x="944.52" y="833.7354">:List</text><line style="stroke:#181818;stroke-width:0.51;" x1="953.7" x2="975.12" y1="856.5858" y2="856.5858"/><line style="stroke:#181818;stroke-width:0.51;" x1="975.12" x2="975.12" y1="856.5858" y2="863.2158"/><line style="stroke:#181818;stroke-width:0.51;" x1="954.21" x2="975.12" y1="863.2158" y2="863.2158"/><polygon fill="#181818" points="959.31,861.1758,954.21,863.2158,959.31,865.2558,957.27,863.2158" style="stroke:#181818;stroke-width:0.51;"/><text fill="#000000" font-family="sans-serif" font-size="6.63" font-weight="bold" lengthAdjust="spacing" textLength="7.14" x="957.27" y="853.9019">45</text><text fill="#000000" font-family="sans-serif" font-size="6.63" lengthAdjust="spacing" textLength="512.55" x="966.45" y="853.9019">String maintenanceData = String.format("%s %s %s %.0f %s %s",plateNumber, brand, model, currentKms, lastMaintenanceDate.toString(), nextMaintenanceDate.toString());</text><line style="stroke:#181818;stroke-width:0.51;" x1="953.7" x2="975.12" y1="879.1743" y2="879.1743"/><line style="stroke:#181818;stroke-width:0.51;" x1="975.12" x2="975.12" y1="879.1743" y2="885.8043"/><line style="stroke:#181818;stroke-width:0.51;" x1="954.21" x2="975.12" y1="885.8043" y2="885.8043"/><polygon fill="#181818" points="959.31,883.7643,954.21,885.8043,959.31,887.8443,957.27,885.8043" style="stroke:#181818;stroke-width:0.51;"/><text fill="#000000" font-family="sans-serif" font-size="6.63" font-weight="bold" lengthAdjust="spacing" textLength="7.14" x="957.27" y="876.4903">46</text><text fill="#000000" font-family="sans-serif" font-size="6.63" lengthAdjust="spacing" textLength="118.83" x="966.45" y="876.4903">maintenanceList.add(maintenanceData);</text><polygon fill="#181818" points="207.57,899.7227,202.47,901.7627,207.57,903.8027,205.53,901.7627" style="stroke:#181818;stroke-width:0.51;"/><line style="stroke:#181818;stroke-width:0.51;stroke-dasharray:2.0,2.0;" x1="204.51" x2="950.64" y1="901.7627" y2="901.7627"/><text fill="#000000" font-family="sans-serif" font-size="6.63" font-weight="bold" lengthAdjust="spacing" textLength="7.14" x="210.63" y="899.0787">47</text><text fill="#000000" font-family="sans-serif" font-size="6.63" lengthAdjust="spacing" textLength="48.45" x="219.81" y="899.0787">maintenanceList</text><polygon fill="#181818" points="45.9,915.6811,40.8,917.7211,45.9,919.7611,43.86,917.7211" style="stroke:#181818;stroke-width:0.51;"/><line style="stroke:#181818;stroke-width:0.51;stroke-dasharray:2.0,2.0;" x1="42.84" x2="198.9" y1="917.7211" y2="917.7211"/><text fill="#000000" font-family="sans-serif" font-size="6.63" font-weight="bold" lengthAdjust="spacing" textLength="7.14" x="48.96" y="915.0371">48</text><text fill="#000000" font-family="sans-serif" font-size="6.63" lengthAdjust="spacing" textLength="74.97" x="58.14" y="915.0371">displays maintenance list</text><!--SRC=[lLXjJ-Cu4FxkNs4XhIYevEvpJxTIeGk7jhsjMgXqEgILIQQjZyJEsIwxNV7ZptRI94wSaEEkH4X0FFFCCo-USIoVA4k980bEEEFXLl04i18xGB9OIKduH3QmLFiOi81G4RQ9gm9oIoB-ZR8DNfDO0a9afpZR9OyW43hTqWZmcdFroByZ4YekyCaAjZJKQDSnWC8pmZI-EC54ul5aXZIgeY5D2LFuP3GNFDg5C2EKAM24XJ2bKjtVMl7xsrxILvmfmUCuDt9rjvZMz1QGSaarEGhIoXGlzajg_DKUkIgYel70cW3pwVZErNZEl2wHHmziLNzdTLUB6hrnciOq98fojWGfzIyhztKydxkI94rp0SsfHQkX5Ew40APAnNi9eggn_BHSZh-uIbni2AC_BBhZqXVlWiNnBxNZQYfLbGnZSUCgn3h1Mj3asGfCRvTtOsHAZJuJ1RQa4CuV_G- - -AZh1e-qx9F4YcC3WDKMS9uW_N9B56O04KxAGYf12cXTVkWKLnwDUw7XZPMHtYj_xq0gYIEY21u8M8CESmX3784C1KsDJqECALjpaP0OFp1tHK6uPJg1iViwsWcI_HLogSvGbS1fAC0mioLUP_RHlZu_rzmoCTGYeWKse1grEN1j5M6mnfmbyrWW3MWsGZz01zJkdyQoUIpWHKvrX1lRgg4KWOjQNs-yQ8c4zF3r1wCJlLUGkcmruzJRNdlyPATUFOIeJ8qJhBJMVo4q-xBYIqVHlBoy85ziAdcudbth4PMtfhULe-cP5koMIMNsTLSHsWRhYuTPm4K8owxRLNiMh9tOWTULqusxs5ay7pjBhc3djlSkXbx00xzi28mmw9uOuryDLJCdFfb_krZcmyDBD5khSBNWNHGFQ9tjniRHFsm6riB_qNVy0n2zldFQcFi9DtovtEjja4NzDLzQvgtNkvZp5F-f9n7MXBUETwsTmOzlVLdSc0dB3DVVYEoaswIjHtnt5pFm5wqXqvRD6VQdx3ZQewKPWpuHO17wDtwNpQepV5NBFJDKrCZYvj09B_SzYw0jceSWvfIVrmbw9KOjjDenAlhTS_7uWfsZfbRy-KZqd8vM2nl-UQnnVxUVE6rJI9_XMxcj5jaXLC_B4gYDVHUGG-fI41RrEQBK47iT7ahAZyPCdrtLrupZn8n741_RXQJJo1jSwETRFja_9yTFKjZ3r7zDrPH8LVdGdcYWupiMDuqUhnPBEzVsOuw5-_T8NkArUnmtqtWd9sGl1twZH_ULmVTtosTxrpw2OsalOyVfDQybDTWnfKyEKnwIs4GyOFpRu6o8_oBF950qWK11ad91uk1gApZZzuogO3B-OtdsopiNnET4lY5ugEiKbyN9NXETdnTN8QtgXOtiOgcwPDyKO2EyLC9SWoPEFHFzhPGj1FQUHmrEFaYS_mG_hxC_JuQLWXbcGtQO3QfXsStbqDS00yKp0oQ7dWrLMQ_bh-v0xKdSQzI0HD6Wvfm6REGdHptSizLGKDj19x-uyz-dZN14fGxHNbRnxDqTgk6OMxdgH-raXlu1]--></g></svg>