<?xml version="1.0" encoding="us-ascii" standalone="no"?><svg xmlns="http://www.w3.org/2000/svg" xmlns:xlink="http://www.w3.org/1999/xlink" contentStyleType="text/css" height="518.5px" preserveAspectRatio="none" style="width:582px;height:518px;background:#FFFFFF;" version="1.1" viewBox="0 0 582 518" width="582.5px" zoomAndPan="magnify"><defs/><g><rect fill="#FFFFFF" height="421.3223" style="stroke:#181818;stroke-width:0.5;" width="5" x="45.5" y="46.8105"/><rect fill="#FFFFFF" height="115.6836" style="stroke:#181818;stroke-width:0.5;" width="5" x="200.5" y="58.4561"/><rect fill="#FFFFFF" height="15.6455" style="stroke:#181818;stroke-width:0.5;" width="5" x="200.5" y="189.7852"/><rect fill="#FFFFFF" height="247.0566" style="stroke:#181818;stroke-width:0.5;" width="5" x="200.5" y="221.0762"/><rect fill="#FFFFFF" height="62.582" style="stroke:#181818;stroke-width:0.5;" width="5" x="280.5" y="95.9121"/><rect fill="#FFFFFF" height="215.7656" style="stroke:#181818;stroke-width:0.5;" width="5" x="280.5" y="236.7217"/><rect fill="#FFFFFF" height="45.2715" style="stroke:#181818;stroke-width:0.5;" width="5" x="283" y="268.8672"/><rect fill="#FFFFFF" height="15.6455" style="stroke:#181818;stroke-width:0.5;" width="5" x="367.5" y="111.5576"/><rect fill="#FFFFFF" height="15.6455" style="stroke:#181818;stroke-width:0.5;" width="5" x="421" y="142.8486"/><rect fill="#FFFFFF" height="91.0576" style="stroke:#181818;stroke-width:0.5;" width="5" x="477.25" y="345.7842"/><line style="stroke:#181818;stroke-width:0.25;stroke-dasharray:5.0,5.0;" x1="48" x2="48" y1="41.8105" y2="477.1328"/><line style="stroke:#181818;stroke-width:0.25;stroke-dasharray:5.0,5.0;" x1="202.75" x2="202.75" y1="41.8105" y2="477.1328"/><line style="stroke:#181818;stroke-width:0.25;stroke-dasharray:5.0,5.0;" x1="282.75" x2="282.75" y1="78.3613" y2="477.1328"/><line style="stroke:#181818;stroke-width:0.25;stroke-dasharray:5.0,5.0;" x1="369.75" x2="369.75" y1="41.8105" y2="477.1328"/><line style="stroke:#181818;stroke-width:0.25;stroke-dasharray:5.0,5.0;" x1="423.25" x2="423.25" y1="41.8105" y2="477.1328"/><line style="stroke:#181818;stroke-width:0.25;stroke-dasharray:5.0,5.0;" x1="479.75" x2="479.75" y1="41.8105" y2="477.1328"/><line style="stroke:#181818;stroke-width:0.25;stroke-dasharray:5.0,5.0;" x1="569.75" x2="569.75" y1="370.3447" y2="477.1328"/><text fill="#000000" font-family="sans-serif" font-size="7" lengthAdjust="spacing" textLength="88" x="2.5" y="40.0537">Human Resources Manager</text><ellipse cx="48" cy="6.75" fill="#E3E3E3" rx="4" ry="4" style="stroke:#181818;stroke-width:0.25;"/><path d="M48,10.75 L48,24.25 M41.5,14.75 L54.5,14.75 M48,24.25 L41.5,31.75 M48,24.25 L54.5,31.75 " fill="none" style="stroke:#181818;stroke-width:0.25;"/><text fill="#000000" font-family="sans-serif" font-size="7" lengthAdjust="spacing" textLength="88" x="2.5" y="484.1865">Human Resources Manager</text><ellipse cx="48" cy="490.1934" fill="#E3E3E3" rx="4" ry="4" style="stroke:#181818;stroke-width:0.25;"/><path d="M48,494.1934 L48,507.6934 M41.5,498.1934 L54.5,498.1934 M48,507.6934 L41.5,515.1934 M48,507.6934 L54.5,515.1934 " fill="none" style="stroke:#181818;stroke-width:0.25;"/><rect fill="#E3E3E3" height="16.3105" rx="1.25" ry="1.25" style="stroke:#181818;stroke-width:0.25;" width="47.5" x="179.25" y="25"/><text fill="#000000" font-family="sans-serif" font-size="7" lengthAdjust="spacing" textLength="40.5" x="182.75" y="36.0537">:CreateJobUI</text><rect fill="#E3E3E3" height="16.3105" rx="1.25" ry="1.25" style="stroke:#181818;stroke-width:0.25;" width="47.5" x="179.25" y="476.6328"/><text fill="#000000" font-family="sans-serif" font-size="7" lengthAdjust="spacing" textLength="40.5" x="182.75" y="487.6865">:CreateJobUI</text><rect fill="#E3E3E3" height="16.3105" rx="1.25" ry="1.25" style="stroke:#181818;stroke-width:0.25;" width="72.5" x="246.75" y="476.6328"/><text fill="#000000" font-family="sans-serif" font-size="7" lengthAdjust="spacing" textLength="65.5" x="250.25" y="487.6865">:CreateJobController</text><rect fill="#E3E3E3" height="16.3105" rx="1.25" ry="1.25" style="stroke:#181818;stroke-width:0.25;" width="48.5" x="345.75" y="25"/><text fill="#000000" font-family="sans-serif" font-size="7" lengthAdjust="spacing" textLength="41.5" x="349.25" y="36.0537">:Repositories</text><rect fill="#E3E3E3" height="16.3105" rx="1.25" ry="1.25" style="stroke:#181818;stroke-width:0.25;" width="48.5" x="345.75" y="476.6328"/><text fill="#000000" font-family="sans-serif" font-size="7" lengthAdjust="spacing" textLength="41.5" x="349.25" y="487.6865">:Repositories</text><rect fill="#E3E3E3" height="25.6211" rx="1.25" ry="1.25" style="stroke:#181818;stroke-width:0.25;" width="48.5" x="399.25" y="15.6895"/><text fill="#000000" font-family="sans-serif" font-size="7" lengthAdjust="spacing" textLength="37" x="405" y="26.7432">repositories</text><text fill="#000000" font-family="sans-serif" font-size="7" lengthAdjust="spacing" textLength="41.5" x="402.75" y="36.0537">:Repositories</text><rect fill="#E3E3E3" height="25.6211" rx="1.25" ry="1.25" style="stroke:#181818;stroke-width:0.25;" width="48.5" x="399.25" y="476.6328"/><text fill="#000000" font-family="sans-serif" font-size="7" lengthAdjust="spacing" textLength="37" x="405" y="487.6865">repositories</text><text fill="#000000" font-family="sans-serif" font-size="7" lengthAdjust="spacing" textLength="41.5" x="402.75" y="496.9971">:Repositories</text><rect fill="#E3E3E3" height="25.6211" rx="1.25" ry="1.25" style="stroke:#181818;stroke-width:0.25;" width="54" x="452.75" y="15.6895"/><text fill="#000000" font-family="sans-serif" font-size="7" lengthAdjust="spacing" textLength="41" x="459.25" y="26.7432">jobrepository</text><text fill="#000000" font-family="sans-serif" font-size="7" lengthAdjust="spacing" textLength="47" x="456.25" y="36.0537">:JobRepository</text><rect fill="#E3E3E3" height="25.6211" rx="1.25" ry="1.25" style="stroke:#181818;stroke-width:0.25;" width="54" x="452.75" y="476.6328"/><text fill="#000000" font-family="sans-serif" font-size="7" lengthAdjust="spacing" textLength="41" x="459.25" y="487.6865">jobrepository</text><text fill="#000000" font-family="sans-serif" font-size="7" lengthAdjust="spacing" textLength="47" x="456.25" y="496.9971">:JobRepository</text><rect fill="#E3E3E3" height="25.6211" rx="1.25" ry="1.25" style="stroke:#181818;stroke-width:0.25;" width="20" x="559.75" y="476.6328"/><text fill="#000000" font-family="sans-serif" font-size="7" lengthAdjust="spacing" textLength="9.5" x="565" y="487.6865">job</text><text fill="#000000" font-family="sans-serif" font-size="7" lengthAdjust="spacing" textLength="13" x="563.25" y="496.9971">:Job</text><rect fill="#FFFFFF" height="421.3223" style="stroke:#181818;stroke-width:0.5;" width="5" x="45.5" y="46.8105"/><rect fill="#FFFFFF" height="115.6836" style="stroke:#181818;stroke-width:0.5;" width="5" x="200.5" y="58.4561"/><rect fill="#FFFFFF" height="15.6455" style="stroke:#181818;stroke-width:0.5;" width="5" x="200.5" y="189.7852"/><rect fill="#FFFFFF" height="247.0566" style="stroke:#181818;stroke-width:0.5;" width="5" x="200.5" y="221.0762"/><rect fill="#FFFFFF" height="62.582" style="stroke:#181818;stroke-width:0.5;" width="5" x="280.5" y="95.9121"/><rect fill="#FFFFFF" height="215.7656" style="stroke:#181818;stroke-width:0.5;" width="5" x="280.5" y="236.7217"/><rect fill="#FFFFFF" height="45.2715" style="stroke:#181818;stroke-width:0.5;" width="5" x="283" y="268.8672"/><rect fill="#FFFFFF" height="15.6455" style="stroke:#181818;stroke-width:0.5;" width="5" x="367.5" y="111.5576"/><rect fill="#FFFFFF" height="15.6455" style="stroke:#181818;stroke-width:0.5;" width="5" x="421" y="142.8486"/><rect fill="#FFFFFF" height="91.0576" style="stroke:#181818;stroke-width:0.5;" width="5" x="477.25" y="345.7842"/><polygon fill="#181818" points="194.5,56.4561,199.5,58.4561,194.5,60.4561,196.5,58.4561" style="stroke:#181818;stroke-width:0.5;"/><line style="stroke:#181818;stroke-width:0.5;" x1="50.5" x2="197.5" y1="58.4561" y2="58.4561"/><text fill="#000000" font-family="sans-serif" font-size="6.5" font-weight="bold" lengthAdjust="spacing" textLength="3.5" x="54" y="55.8247">1</text><text fill="#000000" font-family="sans-serif" font-size="6.5" lengthAdjust="spacing" textLength="71" x="59.5" y="55.8247">asks to create a new job</text><polygon fill="#181818" points="240.75,72.1016,245.75,74.1016,240.75,76.1016,242.75,74.1016" style="stroke:#181818;stroke-width:0.5;"/><line style="stroke:#181818;stroke-width:0.5;" x1="205.5" x2="243.75" y1="74.1016" y2="74.1016"/><text fill="#000000" font-family="sans-serif" font-size="6.5" font-weight="bold" lengthAdjust="spacing" textLength="3.5" x="209" y="71.4702">2</text><text fill="#000000" font-family="sans-serif" font-size="6.5" lengthAdjust="spacing" textLength="18" x="214.5" y="71.4702">create</text><rect fill="#E3E3E3" height="16.3105" rx="1.25" ry="1.25" style="stroke:#181818;stroke-width:0.25;" width="72.5" x="246.75" y="62.4561"/><text fill="#000000" font-family="sans-serif" font-size="7" lengthAdjust="spacing" textLength="65.5" x="250.25" y="73.5098">:CreateJobController</text><polygon fill="#181818" points="274.5,93.9121,279.5,95.9121,274.5,97.9121,276.5,95.9121" style="stroke:#181818;stroke-width:0.5;"/><line style="stroke:#181818;stroke-width:0.5;" x1="205.5" x2="277.5" y1="95.9121" y2="95.9121"/><text fill="#000000" font-family="sans-serif" font-size="6.5" font-weight="bold" lengthAdjust="spacing" textLength="3.5" x="209" y="93.2808">3</text><text fill="#000000" font-family="sans-serif" font-size="6.5" lengthAdjust="spacing" textLength="54" x="214.5" y="93.2808">getJobRepository()</text><polygon fill="#181818" points="361.5,109.5576,366.5,111.5576,361.5,113.5576,363.5,111.5576" style="stroke:#181818;stroke-width:0.5;"/><line style="stroke:#181818;stroke-width:0.5;" x1="285.5" x2="364.5" y1="111.5576" y2="111.5576"/><text fill="#000000" font-family="sans-serif" font-size="6.5" font-weight="bold" lengthAdjust="spacing" textLength="3.5" x="289" y="108.9263">4</text><text fill="#000000" font-family="sans-serif" font-size="6.5" lengthAdjust="spacing" textLength="37.5" x="294.5" y="108.9263">getInstance()</text><polygon fill="#181818" points="291,125.2031,286,127.2031,291,129.2031,289,127.2031" style="stroke:#181818;stroke-width:0.5;"/><line style="stroke:#181818;stroke-width:0.5;stroke-dasharray:2.0,2.0;" x1="288" x2="369.5" y1="127.2031" y2="127.2031"/><text fill="#000000" font-family="sans-serif" font-size="6.5" font-weight="bold" lengthAdjust="spacing" textLength="3.5" x="294" y="124.5718">5</text><text fill="#000000" font-family="sans-serif" font-size="6.5" lengthAdjust="spacing" textLength="33.5" x="299.5" y="124.5718">repositories</text><polygon fill="#181818" points="415,140.8486,420,142.8486,415,144.8486,417,142.8486" style="stroke:#181818;stroke-width:0.5;"/><line style="stroke:#181818;stroke-width:0.5;" x1="285.5" x2="418" y1="142.8486" y2="142.8486"/><text fill="#000000" font-family="sans-serif" font-size="6.5" font-weight="bold" lengthAdjust="spacing" textLength="3.5" x="289" y="140.2173">6</text><text fill="#000000" font-family="sans-serif" font-size="6.5" lengthAdjust="spacing" textLength="54" x="294.5" y="140.2173">getJobRepository()</text><polygon fill="#181818" points="288.5,156.4941,283.5,158.4941,288.5,160.4941,286.5,158.4941" style="stroke:#181818;stroke-width:0.5;"/><line style="stroke:#181818;stroke-width:0.5;" x1="285.5" x2="423" y1="158.4941" y2="158.4941"/><text fill="#000000" font-family="sans-serif" font-size="6.5" font-weight="bold" lengthAdjust="spacing" textLength="3.5" x="291.5" y="155.8628">7</text><text fill="#000000" font-family="sans-serif" font-size="6.5" lengthAdjust="spacing" textLength="39.5" x="297" y="155.8628">jobRepository</text><polygon fill="#181818" points="56,172.1396,51,174.1396,56,176.1396,54,174.1396" style="stroke:#181818;stroke-width:0.5;"/><line style="stroke:#181818;stroke-width:0.5;stroke-dasharray:2.0,2.0;" x1="53" x2="202.5" y1="174.1396" y2="174.1396"/><text fill="#000000" font-family="sans-serif" font-size="6.5" font-weight="bold" lengthAdjust="spacing" textLength="3.5" x="59" y="171.5083">8</text><text fill="#000000" font-family="sans-serif" font-size="6.5" lengthAdjust="spacing" textLength="43" x="64.5" y="171.5083">requests name</text><polygon fill="#181818" points="194.5,187.7852,199.5,189.7852,194.5,191.7852,196.5,189.7852" style="stroke:#181818;stroke-width:0.5;"/><line style="stroke:#181818;stroke-width:0.5;" x1="50.5" x2="197.5" y1="189.7852" y2="189.7852"/><text fill="#000000" font-family="sans-serif" font-size="6.5" font-weight="bold" lengthAdjust="spacing" textLength="3.5" x="54" y="187.1538">9</text><text fill="#000000" font-family="sans-serif" font-size="6.5" lengthAdjust="spacing" textLength="64.5" x="59.5" y="187.1538">types requested name</text><polygon fill="#181818" points="56,203.4307,51,205.4307,56,207.4307,54,205.4307" style="stroke:#181818;stroke-width:0.5;"/><line style="stroke:#181818;stroke-width:0.5;stroke-dasharray:2.0,2.0;" x1="53" x2="202.5" y1="205.4307" y2="205.4307"/><text fill="#000000" font-family="sans-serif" font-size="6.5" font-weight="bold" lengthAdjust="spacing" textLength="7" x="59" y="202.7993">10</text><text fill="#000000" font-family="sans-serif" font-size="6.5" lengthAdjust="spacing" textLength="129" x="68" y="202.7993">shows typed name and asks for confirmation</text><polygon fill="#181818" points="194.5,219.0762,199.5,221.0762,194.5,223.0762,196.5,221.0762" style="stroke:#181818;stroke-width:0.5;"/><line style="stroke:#181818;stroke-width:0.5;" x1="50.5" x2="197.5" y1="221.0762" y2="221.0762"/><text fill="#000000" font-family="sans-serif" font-size="6.5" font-weight="bold" lengthAdjust="spacing" textLength="7" x="54" y="218.4448">11</text><text fill="#000000" font-family="sans-serif" font-size="6.5" lengthAdjust="spacing" textLength="39" x="63" y="218.4448">confirms data</text><polygon fill="#181818" points="274.5,234.7217,279.5,236.7217,274.5,238.7217,276.5,236.7217" style="stroke:#181818;stroke-width:0.5;"/><line style="stroke:#181818;stroke-width:0.5;" x1="205.5" x2="277.5" y1="236.7217" y2="236.7217"/><text fill="#000000" font-family="sans-serif" font-size="6.5" font-weight="bold" lengthAdjust="spacing" textLength="7" x="209" y="234.0903">12</text><text fill="#000000" font-family="sans-serif" font-size="6.5" lengthAdjust="spacing" textLength="56.5" x="218" y="234.0903">createJob(jobname)</text><line style="stroke:#181818;stroke-width:0.5;" x1="285.5" x2="309" y1="262.3672" y2="262.3672"/><line style="stroke:#181818;stroke-width:0.5;" x1="309" x2="309" y1="262.3672" y2="268.8672"/><line style="stroke:#181818;stroke-width:0.5;" x1="288.5" x2="309" y1="268.8672" y2="268.8672"/><polygon fill="#181818" points="293.5,266.8672,288.5,268.8672,293.5,270.8672,291.5,268.8672" style="stroke:#181818;stroke-width:0.5;"/><text fill="#000000" font-family="sans-serif" font-size="6.5" font-weight="bold" lengthAdjust="spacing" textLength="7" x="291.5" y="259.7358">13</text><text fill="#000000" font-family="sans-serif" font-size="6.5" lengthAdjust="spacing" textLength="66" x="300.5" y="259.7358">getHRMFromSession()</text><rect fill="none" height="21.626" style="stroke:#000000;stroke-width:0.75;" width="75.5" x="245.25" y="275.3672"/><path d="M245.25,275.3672 L276.25,275.3672 L276.25,279.8672 L271.25,284.8672 L245.25,284.8672 L245.25,275.3672 " fill="#EEEEEE" style="stroke:#000000;stroke-width:1.0;"/><text fill="#000000" font-family="sans-serif" font-size="6.5" font-weight="bold" lengthAdjust="spacing" textLength="8.5" x="251.75" y="283.3813">ref</text><text fill="#000000" font-family="sans-serif" font-size="6" lengthAdjust="spacing" textLength="24.5" x="270.75" y="293.3418">Get HRM</text><line style="stroke:#181818;stroke-width:0.5;stroke-dasharray:2.0,2.0;" x1="288" x2="309" y1="313.6387" y2="313.6387"/><line style="stroke:#181818;stroke-width:0.5;stroke-dasharray:2.0,2.0;" x1="309" x2="309" y1="313.6387" y2="320.1387"/><line style="stroke:#181818;stroke-width:0.5;stroke-dasharray:2.0,2.0;" x1="285.5" x2="309" y1="320.1387" y2="320.1387"/><polygon fill="#181818" points="290.5,318.1387,285.5,320.1387,290.5,322.1387,288.5,320.1387" style="stroke:#181818;stroke-width:0.5;"/><text fill="#000000" font-family="sans-serif" font-size="6.5" font-weight="bold" lengthAdjust="spacing" textLength="7" x="291.5" y="311.0073">14</text><text fill="#000000" font-family="sans-serif" font-size="6.5" lengthAdjust="spacing" textLength="11" x="300.5" y="311.0073">hrm</text><polygon fill="#181818" points="471.25,343.7842,476.25,345.7842,471.25,347.7842,473.25,345.7842" style="stroke:#181818;stroke-width:0.5;"/><line style="stroke:#181818;stroke-width:0.5;" x1="285.5" x2="474.25" y1="345.7842" y2="345.7842"/><text fill="#000000" font-family="sans-serif" font-size="6.5" font-weight="bold" lengthAdjust="spacing" textLength="7" x="289" y="343.1528">15</text><text fill="#000000" font-family="sans-serif" font-size="6.5" lengthAdjust="spacing" textLength="56.5" x="298" y="343.1528">createJob(jobname)</text><polygon fill="#181818" points="553.75,359.4297,558.75,361.4297,553.75,363.4297,555.75,361.4297" style="stroke:#181818;stroke-width:0.5;"/><line style="stroke:#181818;stroke-width:0.5;" x1="482.25" x2="556.75" y1="361.4297" y2="361.4297"/><text fill="#000000" font-family="sans-serif" font-size="6.5" font-weight="bold" lengthAdjust="spacing" textLength="7" x="485.75" y="358.7983">16</text><text fill="#000000" font-family="sans-serif" font-size="6.5" lengthAdjust="spacing" textLength="56.5" x="494.75" y="358.7983">createJob(jobname)</text><rect fill="#E3E3E3" height="25.6211" rx="1.25" ry="1.25" style="stroke:#181818;stroke-width:0.25;" width="20" x="559.75" y="349.7842"/><text fill="#000000" font-family="sans-serif" font-size="7" lengthAdjust="spacing" textLength="9.5" x="565" y="360.8379">job</text><text fill="#000000" font-family="sans-serif" font-size="7" lengthAdjust="spacing" textLength="13" x="563.25" y="370.1484">:Job</text><line style="stroke:#181818;stroke-width:0.5;" x1="482.25" x2="503.25" y1="392.5508" y2="392.5508"/><line style="stroke:#181818;stroke-width:0.5;" x1="503.25" x2="503.25" y1="392.5508" y2="399.0508"/><line style="stroke:#181818;stroke-width:0.5;" x1="482.75" x2="503.25" y1="399.0508" y2="399.0508"/><polygon fill="#181818" points="487.75,397.0508,482.75,399.0508,487.75,401.0508,485.75,399.0508" style="stroke:#181818;stroke-width:0.5;"/><text fill="#000000" font-family="sans-serif" font-size="6.5" font-weight="bold" lengthAdjust="spacing" textLength="7" x="485.75" y="389.9194">17</text><text fill="#000000" font-family="sans-serif" font-size="6.5" lengthAdjust="spacing" textLength="44" x="494.75" y="389.9194">validateJob(job)</text><line style="stroke:#181818;stroke-width:0.5;" x1="482.25" x2="503.25" y1="414.6963" y2="414.6963"/><line style="stroke:#181818;stroke-width:0.5;" x1="503.25" x2="503.25" y1="414.6963" y2="421.1963"/><line style="stroke:#181818;stroke-width:0.5;" x1="482.75" x2="503.25" y1="421.1963" y2="421.1963"/><polygon fill="#181818" points="487.75,419.1963,482.75,421.1963,487.75,423.1963,485.75,421.1963" style="stroke:#181818;stroke-width:0.5;"/><text fill="#000000" font-family="sans-serif" font-size="6.5" font-weight="bold" lengthAdjust="spacing" textLength="7" x="485.75" y="412.0649">18</text><text fill="#000000" font-family="sans-serif" font-size="6.5" lengthAdjust="spacing" textLength="33" x="494.75" y="412.0649">addJob(job)</text><polygon fill="#181818" points="291,434.8418,286,436.8418,291,438.8418,289,436.8418" style="stroke:#181818;stroke-width:0.5;"/><line style="stroke:#181818;stroke-width:0.5;stroke-dasharray:2.0,2.0;" x1="288" x2="479.25" y1="436.8418" y2="436.8418"/><text fill="#000000" font-family="sans-serif" font-size="6.5" font-weight="bold" lengthAdjust="spacing" textLength="7" x="294" y="434.2104">19</text><text fill="#000000" font-family="sans-serif" font-size="6.5" lengthAdjust="spacing" textLength="8.5" x="303" y="434.2104">job</text><polygon fill="#181818" points="211,450.4873,206,452.4873,211,454.4873,209,452.4873" style="stroke:#181818;stroke-width:0.5;"/><line style="stroke:#181818;stroke-width:0.5;stroke-dasharray:2.0,2.0;" x1="208" x2="282.5" y1="452.4873" y2="452.4873"/><text fill="#000000" font-family="sans-serif" font-size="6.5" font-weight="bold" lengthAdjust="spacing" textLength="7" x="214" y="449.856">20</text><text fill="#000000" font-family="sans-serif" font-size="6.5" lengthAdjust="spacing" textLength="8.5" x="223" y="449.856">job</text><polygon fill="#181818" points="53.5,466.1328,48.5,468.1328,53.5,470.1328,51.5,468.1328" style="stroke:#181818;stroke-width:0.5;"/><line style="stroke:#181818;stroke-width:0.5;stroke-dasharray:2.0,2.0;" x1="50.5" x2="202.5" y1="468.1328" y2="468.1328"/><text fill="#000000" font-family="sans-serif" font-size="6.5" font-weight="bold" lengthAdjust="spacing" textLength="7" x="56.5" y="465.5015">21</text><text fill="#000000" font-family="sans-serif" font-size="6.5" lengthAdjust="spacing" textLength="79" x="65.5" y="465.5015">displays operation success</text><!--SRC=[bLNBRjim4BppAnQvs37W7_0XWEkYjOq4BHJxrWijhMqc4gcIL583_lWkAKLFMcbvapGpt1tEKkPLo9nhda6cf8hFMcK8LXV8JFqbv_4hF-6plQG86cFBvIbj0yoP9-fTo1CSUMgGCLvO9OliW9gnoLaa24Ubx47zOJosIiFTkiYuX0YDAdIC1fwuf1tq7N03owzFZ7IjY4NEfOMxnKeZjxXLX_t68_QRMu2LabQhDAsaLhleiGUDC5T6K142ZSVKBoxFmlL5bNSfkiNu9OS2Fn-NkoxZHHrgqeKeL5YpY-Tiem6ZnFclksZvPVcu_i6SNUADMlEcCAWMFS3yWMo01S5V3LW5iRS0E4Xy1v9hqBK6sSOcq5eaC2ST9xUWW_rTeB464cuvJ2NFy9wrqPDg2szgN-R1lvxDIAY4iHiG0fpGTXoPtdV1TS5-fyudhq1AWKChXJVIK3nZd7PhxwzwYz3fZpBT2kq-h_fpHZO16PLAy3_B-EZU9Ixiu-SD-xI6SLwsEQQNjZRxh0ElstjN9oKSD1UnFiLbj1znUydfYgXec3Iy0IiOR7DMxyQBb5JWCYd7vaXNKQpaKUYCMq6M1_fgIxUBgdZbk8HdBHZ- -EEgcfA_tI4RoVtrUWtEGJDHw-Zf6rtUpsWCTTABmeYoMngFeDvG3qVRhUzeWTG7xr4cGwcoiAQoiyxOZSJyUvVRQDItJeTqimwAsaPEvUDMdSs2QZTORkytdegamOzYUP8qi22kCs7ibZlzFcfZzvkIEEPgU1OMa0YJf_nYGEMeVUJ1537zW4re3bkFxlVp5m00]--></g></svg>