<?xml version="1.0" encoding="us-ascii" standalone="no"?><svg xmlns="http://www.w3.org/2000/svg" xmlns:xlink="http://www.w3.org/1999/xlink" contentStyleType="text/css" height="436.2px" preserveAspectRatio="none" style="width:978px;height:436px;background:#FFFFFF;" version="1.1" viewBox="0 0 978 436" width="978px" zoomAndPan="magnify"><defs/><g><rect fill="#FFFFFF" height="319.5703" style="stroke:#181818;stroke-width:0.6;" width="6" x="54.6" y="56.1727"/><rect fill="#FFFFFF" height="82.4965" style="stroke:#181818;stroke-width:0.6;" width="6" x="180.6" y="70.1473"/><rect fill="#FFFFFF" height="18.7746" style="stroke:#181818;stroke-width:0.6;" width="6" x="180.6" y="171.4184"/><rect fill="#FFFFFF" height="166.7754" style="stroke:#181818;stroke-width:0.6;" width="6" x="180.6" y="208.9676"/><rect fill="#FFFFFF" height="38.9473" style="stroke:#181818;stroke-width:0.6;" width="6" x="272.4" y="94.9219"/><rect fill="#FFFFFF" height="129.2262" style="stroke:#181818;stroke-width:0.6;" width="6" x="272.4" y="227.7422"/><rect fill="#FFFFFF" height="18.7746" style="stroke:#181818;stroke-width:0.6;" width="6" x="361.2" y="115.0945"/><rect fill="#FFFFFF" height="47.7258" style="stroke:#181818;stroke-width:0.6;" width="6" x="912.3" y="290.468"/><line style="stroke:#181818;stroke-width:0.3;stroke-dasharray:5.0,5.0;" x1="57.6" x2="57.6" y1="50.1727" y2="386.543"/><line style="stroke:#181818;stroke-width:0.3;stroke-dasharray:5.0,5.0;" x1="183.3" x2="183.3" y1="50.1727" y2="386.543"/><line style="stroke:#181818;stroke-width:0.3;stroke-dasharray:5.0,5.0;" x1="275.1" x2="275.1" y1="94.0336" y2="386.543"/><line style="stroke:#181818;stroke-width:0.3;stroke-dasharray:5.0,5.0;" x1="363.9" x2="363.9" y1="50.1727" y2="386.543"/><line style="stroke:#181818;stroke-width:0.3;stroke-dasharray:5.0,5.0;" x1="431.7" x2="431.7" y1="50.1727" y2="386.543"/><line style="stroke:#181818;stroke-width:0.3;stroke-dasharray:5.0,5.0;" x1="498.9" x2="498.9" y1="50.1727" y2="386.543"/><line style="stroke:#181818;stroke-width:0.3;stroke-dasharray:5.0,5.0;" x1="575.1" x2="575.1" y1="50.1727" y2="386.543"/><line style="stroke:#181818;stroke-width:0.3;stroke-dasharray:5.0,5.0;" x1="663.3" x2="663.3" y1="50.1727" y2="386.543"/><line style="stroke:#181818;stroke-width:0.3;stroke-dasharray:5.0,5.0;" x1="743.1" x2="743.1" y1="50.1727" y2="386.543"/><line style="stroke:#181818;stroke-width:0.3;stroke-dasharray:5.0,5.0;" x1="830.7" x2="830.7" y1="50.1727" y2="386.543"/><line style="stroke:#181818;stroke-width:0.3;stroke-dasharray:5.0,5.0;" x1="915.3" x2="915.3" y1="50.1727" y2="386.543"/><line style="stroke:#181818;stroke-width:0.3;stroke-dasharray:5.0,5.0;" x1="962.7" x2="962.7" y1="50.1727" y2="386.543"/><text fill="#000000" font-family="sans-serif" font-size="8.4" lengthAdjust="spacing" textLength="105.6" x="3" y="48.0645">Human Resources Manager</text><ellipse cx="57.6" cy="8.1" fill="#E3E3E3" rx="4.8" ry="4.8" style="stroke:#181818;stroke-width:0.3;"/><path d="M57.6,12.9 L57.6,29.1 M49.8,17.7 L65.4,17.7 M57.6,29.1 L49.8,38.1 M57.6,29.1 L65.4,38.1 " fill="none" style="stroke:#181818;stroke-width:0.3;"/><text fill="#000000" font-family="sans-serif" font-size="8.4" lengthAdjust="spacing" textLength="105.6" x="3" y="395.0074">Human Resources Manager</text><ellipse cx="57.6" cy="402.2156" fill="#E3E3E3" rx="4.8" ry="4.8" style="stroke:#181818;stroke-width:0.3;"/><path d="M57.6,407.0156 L57.6,423.2156 M49.8,411.8156 L65.4,411.8156 M57.6,423.2156 L49.8,432.2156 M57.6,423.2156 L65.4,432.2156 " fill="none" style="stroke:#181818;stroke-width:0.3;"/><rect fill="#E3E3E3" height="19.5727" rx="1.5" ry="1.5" style="stroke:#181818;stroke-width:0.3;" width="57" x="155.1" y="30"/><text fill="#000000" font-family="sans-serif" font-size="8.4" lengthAdjust="spacing" textLength="48.6" x="159.3" y="43.2645">:CreateJobUI</text><rect fill="#E3E3E3" height="19.5727" rx="1.5" ry="1.5" style="stroke:#181818;stroke-width:0.3;" width="57" x="155.1" y="385.943"/><text fill="#000000" font-family="sans-serif" font-size="8.4" lengthAdjust="spacing" textLength="48.6" x="159.3" y="399.2074">:CreateJobUI</text><rect fill="#E3E3E3" height="19.5727" rx="1.5" ry="1.5" style="stroke:#181818;stroke-width:0.3;" width="87" x="231.9" y="385.943"/><text fill="#000000" font-family="sans-serif" font-size="8.4" lengthAdjust="spacing" textLength="78.6" x="236.1" y="399.2074">:CreateJobController</text><rect fill="#E3E3E3" height="19.5727" rx="1.5" ry="1.5" style="stroke:#181818;stroke-width:0.3;" width="58.2" x="335.1" y="30"/><text fill="#000000" font-family="sans-serif" font-size="8.4" lengthAdjust="spacing" textLength="49.8" x="339.3" y="43.2645">:Repositories</text><rect fill="#E3E3E3" height="19.5727" rx="1.5" ry="1.5" style="stroke:#181818;stroke-width:0.3;" width="58.2" x="335.1" y="385.943"/><text fill="#000000" font-family="sans-serif" font-size="8.4" lengthAdjust="spacing" textLength="49.8" x="339.3" y="399.2074">:Repositories</text><rect fill="#E3E3E3" height="30.7453" rx="1.5" ry="1.5" style="stroke:#181818;stroke-width:0.3;" width="64.8" x="399.3" y="18.8273"/><text fill="#000000" font-family="sans-serif" font-size="8.4" lengthAdjust="spacing" textLength="49.2" x="407.1" y="32.0918">jobrepository</text><text fill="#000000" font-family="sans-serif" font-size="8.4" lengthAdjust="spacing" textLength="56.4" x="403.5" y="43.2645">:JobRepository</text><rect fill="#E3E3E3" height="30.7453" rx="1.5" ry="1.5" style="stroke:#181818;stroke-width:0.3;" width="64.8" x="399.3" y="385.943"/><text fill="#000000" font-family="sans-serif" font-size="8.4" lengthAdjust="spacing" textLength="49.2" x="407.1" y="399.2074">jobrepository</text><text fill="#000000" font-family="sans-serif" font-size="8.4" lengthAdjust="spacing" textLength="56.4" x="403.5" y="410.3801">:JobRepository</text><rect fill="#E3E3E3" height="30.7453" rx="1.5" ry="1.5" style="stroke:#181818;stroke-width:0.3;" width="58.2" x="470.1" y="18.8273"/><text fill="#000000" font-family="sans-serif" font-size="8.4" lengthAdjust="spacing" textLength="44.4" x="477" y="32.0918">repositories</text><text fill="#000000" font-family="sans-serif" font-size="8.4" lengthAdjust="spacing" textLength="49.8" x="474.3" y="43.2645">:Repositories</text><rect fill="#E3E3E3" height="30.7453" rx="1.5" ry="1.5" style="stroke:#181818;stroke-width:0.3;" width="58.2" x="470.1" y="385.943"/><text fill="#000000" font-family="sans-serif" font-size="8.4" lengthAdjust="spacing" textLength="44.4" x="477" y="399.2074">repositories</text><text fill="#000000" font-family="sans-serif" font-size="8.4" lengthAdjust="spacing" textLength="49.8" x="474.3" y="410.3801">:Repositories</text><rect fill="#E3E3E3" height="19.5727" rx="1.5" ry="1.5" style="stroke:#181818;stroke-width:0.3;" width="82.2" x="534.3" y="30"/><text fill="#000000" font-family="sans-serif" font-size="8.4" lengthAdjust="spacing" textLength="73.8" x="538.5" y="43.2645">:ApplicationSession</text><rect fill="#E3E3E3" height="19.5727" rx="1.5" ry="1.5" style="stroke:#181818;stroke-width:0.3;" width="82.2" x="534.3" y="385.943"/><text fill="#000000" font-family="sans-serif" font-size="8.4" lengthAdjust="spacing" textLength="73.8" x="538.5" y="399.2074">:ApplicationSession</text><rect fill="#E3E3E3" height="30.7453" rx="1.5" ry="1.5" style="stroke:#181818;stroke-width:0.3;" width="82.2" x="622.5" y="18.8273"/><text fill="#000000" font-family="sans-serif" font-size="8.4" lengthAdjust="spacing" textLength="44.4" x="641.4" y="32.0918">appSession</text><text fill="#000000" font-family="sans-serif" font-size="8.4" lengthAdjust="spacing" textLength="73.8" x="626.7" y="43.2645">:ApplicationSession</text><rect fill="#E3E3E3" height="30.7453" rx="1.5" ry="1.5" style="stroke:#181818;stroke-width:0.3;" width="82.2" x="622.5" y="385.943"/><text fill="#000000" font-family="sans-serif" font-size="8.4" lengthAdjust="spacing" textLength="44.4" x="641.4" y="399.2074">appSession</text><text fill="#000000" font-family="sans-serif" font-size="8.4" lengthAdjust="spacing" textLength="73.8" x="626.7" y="410.3801">:ApplicationSession</text><rect fill="#E3E3E3" height="30.7453" rx="1.5" ry="1.5" style="stroke:#181818;stroke-width:0.3;" width="65.4" x="710.7" y="18.8273"/><text fill="#000000" font-family="sans-serif" font-size="8.4" lengthAdjust="spacing" textLength="57" x="714.9" y="32.0918">currentSession</text><text fill="#000000" font-family="sans-serif" font-size="8.4" lengthAdjust="spacing" textLength="49.8" x="718.5" y="43.2645">:UserSession</text><rect fill="#E3E3E3" height="30.7453" rx="1.5" ry="1.5" style="stroke:#181818;stroke-width:0.3;" width="65.4" x="710.7" y="385.943"/><text fill="#000000" font-family="sans-serif" font-size="8.4" lengthAdjust="spacing" textLength="57" x="714.9" y="399.2074">currentSession</text><text fill="#000000" font-family="sans-serif" font-size="8.4" lengthAdjust="spacing" textLength="49.8" x="718.5" y="410.3801">:UserSession</text><rect fill="#E3E3E3" height="30.7453" rx="1.5" ry="1.5" style="stroke:#181818;stroke-width:0.3;" width="97.8" x="782.1" y="18.8273"/><text fill="#000000" font-family="sans-serif" font-size="8.4" lengthAdjust="spacing" textLength="89.4" x="786.3" y="32.0918">organizationRepository:</text><text fill="#000000" font-family="sans-serif" font-size="8.4" lengthAdjust="spacing" textLength="88.8" x="786.6" y="43.2645">OrganizationRepository</text><rect fill="#E3E3E3" height="30.7453" rx="1.5" ry="1.5" style="stroke:#181818;stroke-width:0.3;" width="97.8" x="782.1" y="385.943"/><text fill="#000000" font-family="sans-serif" font-size="8.4" lengthAdjust="spacing" textLength="89.4" x="786.3" y="399.2074">organizationRepository:</text><text fill="#000000" font-family="sans-serif" font-size="8.4" lengthAdjust="spacing" textLength="88.8" x="786.6" y="410.3801">OrganizationRepository</text><rect fill="#E3E3E3" height="30.7453" rx="1.5" ry="1.5" style="stroke:#181818;stroke-width:0.3;" width="58.8" x="885.9" y="18.8273"/><text fill="#000000" font-family="sans-serif" font-size="8.4" lengthAdjust="spacing" textLength="46.2" x="892.2" y="32.0918">organization</text><text fill="#000000" font-family="sans-serif" font-size="8.4" lengthAdjust="spacing" textLength="50.4" x="890.1" y="43.2645">:Organization</text><rect fill="#E3E3E3" height="30.7453" rx="1.5" ry="1.5" style="stroke:#181818;stroke-width:0.3;" width="58.8" x="885.9" y="385.943"/><text fill="#000000" font-family="sans-serif" font-size="8.4" lengthAdjust="spacing" textLength="46.2" x="892.2" y="399.2074">organization</text><text fill="#000000" font-family="sans-serif" font-size="8.4" lengthAdjust="spacing" textLength="50.4" x="890.1" y="410.3801">:Organization</text><rect fill="#E3E3E3" height="30.7453" rx="1.5" ry="1.5" style="stroke:#181818;stroke-width:0.3;" width="24" x="950.7" y="18.8273"/><text fill="#000000" font-family="sans-serif" font-size="8.4" lengthAdjust="spacing" textLength="11.4" x="957" y="32.0918">job</text><text fill="#000000" font-family="sans-serif" font-size="8.4" lengthAdjust="spacing" textLength="15.6" x="954.9" y="43.2645">:Job</text><rect fill="#E3E3E3" height="30.7453" rx="1.5" ry="1.5" style="stroke:#181818;stroke-width:0.3;" width="24" x="950.7" y="385.943"/><text fill="#000000" font-family="sans-serif" font-size="8.4" lengthAdjust="spacing" textLength="11.4" x="957" y="399.2074">job</text><text fill="#000000" font-family="sans-serif" font-size="8.4" lengthAdjust="spacing" textLength="15.6" x="954.9" y="410.3801">:Job</text><rect fill="#FFFFFF" height="319.5703" style="stroke:#181818;stroke-width:0.6;" width="6" x="54.6" y="56.1727"/><rect fill="#FFFFFF" height="82.4965" style="stroke:#181818;stroke-width:0.6;" width="6" x="180.6" y="70.1473"/><rect fill="#FFFFFF" height="18.7746" style="stroke:#181818;stroke-width:0.6;" width="6" x="180.6" y="171.4184"/><rect fill="#FFFFFF" height="166.7754" style="stroke:#181818;stroke-width:0.6;" width="6" x="180.6" y="208.9676"/><rect fill="#FFFFFF" height="38.9473" style="stroke:#181818;stroke-width:0.6;" width="6" x="272.4" y="94.9219"/><rect fill="#FFFFFF" height="129.2262" style="stroke:#181818;stroke-width:0.6;" width="6" x="272.4" y="227.7422"/><rect fill="#FFFFFF" height="18.7746" style="stroke:#181818;stroke-width:0.6;" width="6" x="361.2" y="115.0945"/><rect fill="#FFFFFF" height="47.7258" style="stroke:#181818;stroke-width:0.6;" width="6" x="912.3" y="290.468"/><polygon fill="#181818" points="173.4,67.7473,179.4,70.1473,173.4,72.5473,175.8,70.1473" style="stroke:#181818;stroke-width:0.6;"/><line style="stroke:#181818;stroke-width:0.6;" x1="60.6" x2="177" y1="70.1473" y2="70.1473"/><text fill="#000000" font-family="sans-serif" font-size="7.8" font-weight="bold" lengthAdjust="spacing" textLength="4.2" x="64.8" y="66.9896">1</text><text fill="#000000" font-family="sans-serif" font-size="7.8" lengthAdjust="spacing" textLength="85.2" x="71.4" y="66.9896">asks to create a new job</text><polygon fill="#181818" points="224.7,86.5219,230.7,88.9219,224.7,91.3219,227.1,88.9219" style="stroke:#181818;stroke-width:0.6;"/><line style="stroke:#181818;stroke-width:0.6;" x1="186.6" x2="228.3" y1="88.9219" y2="88.9219"/><text fill="#000000" font-family="sans-serif" font-size="7.8" font-weight="bold" lengthAdjust="spacing" textLength="4.2" x="190.8" y="85.7643">2</text><text fill="#000000" font-family="sans-serif" font-size="7.8" lengthAdjust="spacing" textLength="21.6" x="197.4" y="85.7643">create</text><rect fill="#E3E3E3" height="19.5727" rx="1.5" ry="1.5" style="stroke:#181818;stroke-width:0.3;" width="87" x="231.9" y="74.9473"/><text fill="#000000" font-family="sans-serif" font-size="8.4" lengthAdjust="spacing" textLength="78.6" x="236.1" y="88.2117">:CreateJobController</text><polygon fill="#181818" points="354,112.6945,360,115.0945,354,117.4945,356.4,115.0945" style="stroke:#181818;stroke-width:0.6;"/><line style="stroke:#181818;stroke-width:0.6;" x1="278.4" x2="357.6" y1="115.0945" y2="115.0945"/><text fill="#000000" font-family="sans-serif" font-size="7.8" font-weight="bold" lengthAdjust="spacing" textLength="4.2" x="282.6" y="111.9369">3</text><text fill="#000000" font-family="sans-serif" font-size="7.8" lengthAdjust="spacing" textLength="64.8" x="289.2" y="111.9369">getJobRepository()</text><polygon fill="#181818" points="282,131.4691,276,133.8691,282,136.2691,279.6,133.8691" style="stroke:#181818;stroke-width:0.6;"/><line style="stroke:#181818;stroke-width:0.6;stroke-dasharray:2.0,2.0;" x1="278.4" x2="363.6" y1="133.8691" y2="133.8691"/><text fill="#000000" font-family="sans-serif" font-size="7.8" font-weight="bold" lengthAdjust="spacing" textLength="4.2" x="285.6" y="130.7115">4</text><text fill="#000000" font-family="sans-serif" font-size="7.8" lengthAdjust="spacing" textLength="44.4" x="292.2" y="130.7115">jobrepository</text><polygon fill="#181818" points="67.2,150.2438,61.2,152.6437,67.2,155.0438,64.8,152.6437" style="stroke:#181818;stroke-width:0.6;"/><line style="stroke:#181818;stroke-width:0.6;stroke-dasharray:2.0,2.0;" x1="63.6" x2="183" y1="152.6437" y2="152.6437"/><text fill="#000000" font-family="sans-serif" font-size="7.8" font-weight="bold" lengthAdjust="spacing" textLength="4.2" x="70.8" y="149.4861">5</text><text fill="#000000" font-family="sans-serif" font-size="7.8" lengthAdjust="spacing" textLength="72.6" x="77.4" y="149.4861">requests name of job</text><polygon fill="#181818" points="173.4,169.0184,179.4,171.4184,173.4,173.8184,175.8,171.4184" style="stroke:#181818;stroke-width:0.6;"/><line style="stroke:#181818;stroke-width:0.6;" x1="60.6" x2="177" y1="171.4184" y2="171.4184"/><text fill="#000000" font-family="sans-serif" font-size="7.8" font-weight="bold" lengthAdjust="spacing" textLength="4.2" x="64.8" y="168.2607">6</text><text fill="#000000" font-family="sans-serif" font-size="7.8" lengthAdjust="spacing" textLength="77.4" x="71.4" y="168.2607">types requested name</text><polygon fill="#181818" points="67.2,187.793,61.2,190.193,67.2,192.593,64.8,190.193" style="stroke:#181818;stroke-width:0.6;"/><line style="stroke:#181818;stroke-width:0.6;stroke-dasharray:2.0,2.0;" x1="63.6" x2="183" y1="190.193" y2="190.193"/><text fill="#000000" font-family="sans-serif" font-size="7.8" font-weight="bold" lengthAdjust="spacing" textLength="4.2" x="70.8" y="187.0354">7</text><text fill="#000000" font-family="sans-serif" font-size="7.8" lengthAdjust="spacing" textLength="65.4" x="77.4" y="187.0354">shows typed name</text><polygon fill="#181818" points="173.4,206.5676,179.4,208.9676,173.4,211.3676,175.8,208.9676" style="stroke:#181818;stroke-width:0.6;"/><line style="stroke:#181818;stroke-width:0.6;" x1="60.6" x2="177" y1="208.9676" y2="208.9676"/><text fill="#000000" font-family="sans-serif" font-size="7.8" font-weight="bold" lengthAdjust="spacing" textLength="4.2" x="64.8" y="205.81">8</text><text fill="#000000" font-family="sans-serif" font-size="7.8" lengthAdjust="spacing" textLength="49.2" x="71.4" y="205.81">submits name</text><polygon fill="#181818" points="265.2,225.3422,271.2,227.7422,265.2,230.1422,267.6,227.7422" style="stroke:#181818;stroke-width:0.6;"/><line style="stroke:#181818;stroke-width:0.6;" x1="186.6" x2="268.8" y1="227.7422" y2="227.7422"/><text fill="#000000" font-family="sans-serif" font-size="7.8" font-weight="bold" lengthAdjust="spacing" textLength="4.2" x="190.8" y="224.5846">9</text><text fill="#000000" font-family="sans-serif" font-size="7.8" lengthAdjust="spacing" textLength="67.8" x="197.4" y="224.5846">createJob(jobname)</text><rect fill="none" height="25.9512" style="stroke:#000000;stroke-width:0.8999999999999999;" width="90.6" x="230.1" y="232.5422"/><path d="M230.1,232.5422 L267.3,232.5422 L267.3,237.9422 L261.3,243.9422 L230.1,243.9422 L230.1,232.5422 " fill="#EEEEEE" style="stroke:#000000;stroke-width:1.2;"/><text fill="#000000" font-family="sans-serif" font-size="7.8" font-weight="bold" lengthAdjust="spacing" textLength="10.2" x="237.9" y="242.1592">ref</text><text fill="#000000" font-family="sans-serif" font-size="7.2" lengthAdjust="spacing" textLength="29.4" x="260.7" y="254.1117">Get HRM</text><polygon fill="#181818" points="905.1,288.068,911.1,290.468,905.1,292.868,907.5,290.468" style="stroke:#181818;stroke-width:0.6;"/><line style="stroke:#181818;stroke-width:0.6;" x1="278.4" x2="908.7" y1="290.468" y2="290.468"/><text fill="#000000" font-family="sans-serif" font-size="7.8" font-weight="bold" lengthAdjust="spacing" textLength="8.4" x="282.6" y="287.3104">10</text><text fill="#000000" font-family="sans-serif" font-size="7.8" lengthAdjust="spacing" textLength="71.4" x="293.4" y="287.3104">creatJob(name, hrm)</text><rect fill="none" height="25.9512" style="stroke:#000000;stroke-width:0.8999999999999999;" width="62.4" x="884.1" y="295.268"/><path d="M884.1,295.268 L921.3,295.268 L921.3,300.668 L915.3,306.668 L884.1,306.668 L884.1,295.268 " fill="#EEEEEE" style="stroke:#000000;stroke-width:1.2;"/><text fill="#000000" font-family="sans-serif" font-size="7.8" font-weight="bold" lengthAdjust="spacing" textLength="10.2" x="891.9" y="304.885">ref</text><text fill="#000000" font-family="sans-serif" font-size="7.2" lengthAdjust="spacing" textLength="36" x="897.3" y="316.8375">Create Job</text><polygon fill="#181818" points="285,335.7938,279,338.1937,285,340.5938,282.6,338.1937" style="stroke:#181818;stroke-width:0.6;"/><line style="stroke:#181818;stroke-width:0.6;" x1="281.4" x2="914.7" y1="338.1937" y2="338.1937"/><text fill="#000000" font-family="sans-serif" font-size="7.8" font-weight="bold" lengthAdjust="spacing" textLength="8.4" x="288.6" y="335.0361">11</text><text fill="#000000" font-family="sans-serif" font-size="7.8" lengthAdjust="spacing" textLength="10.2" x="299.4" y="335.0361">job</text><polygon fill="#181818" points="193.2,354.5684,187.2,356.9684,193.2,359.3684,190.8,356.9684" style="stroke:#181818;stroke-width:0.6;"/><line style="stroke:#181818;stroke-width:0.6;stroke-dasharray:2.0,2.0;" x1="189.6" x2="274.8" y1="356.9684" y2="356.9684"/><text fill="#000000" font-family="sans-serif" font-size="7.8" font-weight="bold" lengthAdjust="spacing" textLength="8.4" x="196.8" y="353.8107">12</text><text fill="#000000" font-family="sans-serif" font-size="7.8" lengthAdjust="spacing" textLength="10.2" x="207.6" y="353.8107">job</text><polygon fill="#181818" points="64.2,373.343,58.2,375.743,64.2,378.143,61.8,375.743" style="stroke:#181818;stroke-width:0.6;"/><line style="stroke:#181818;stroke-width:0.6;stroke-dasharray:2.0,2.0;" x1="60.6" x2="183" y1="375.743" y2="375.743"/><text fill="#000000" font-family="sans-serif" font-size="7.8" font-weight="bold" lengthAdjust="spacing" textLength="8.4" x="67.8" y="372.5854">13</text><text fill="#000000" font-family="sans-serif" font-size="7.8" lengthAdjust="spacing" textLength="94.8" x="78.6" y="372.5854">displays operation success</text><!--SRC=[XLLDJ-Cm4BtxLuouj4Nm1t90YbWMgAYeKhWXhLndsdgRs5dRWUsA7xzZDvlcmsLzQUrvxytOy-pOlLGLDxo4KYijTaQN2CxKo6mRgRZOyosktA50C2WSLzkY2x0xdkiFgRQmuOL5ndZjjAhBDHh69ZkP8soqTclzct7Xj86BXxha2ZAqkZO2BIoueWpc0hY5zDk2aQwJGbPSERX8RWroXtEzVdqCYDV7Su1RhPpHHT58tRvaJmDeXfMsaegGQ0EcNJYifDyNLTwd_DHhqsBUL49fJfmWCS_w3DF9GOHHokLJ-Z8eAwsgGWhkf5Ohj9P-0l97kbpsaRog6W0fds6DIA8s1fKx4LyjcYvZTRTQfSzzaZPRhkIVe7xQSFAcdgE1e1CFdTUbKhgKeqPsFsh0yTX3-2NDxhwdp3j9lbFNWryOD8CcS7r33e64m7iBJeC8xW0E2Z-0n4xeLeCSnIRG6IHmJJfUBY7F_whHEWivTnoc1ZT8nodm2dAqmiZArtu58DL6cv8NyARw4OTYfwXHHNyvhmq__XFQkXdh5Z1fgWuM7bPs4vOlBwcs8wo7Q7SLkBsG7txLIqICJtfRT3s3JsSZWLO_TdL6Q3zYgQwRNIJGks0ZVevVvli2tjz-lAEAqtkdDy4M0xhtnD1Ixb3HQzMmCGzqDd9IDANTwGyR13gq_wIpzRgKJPNnD2Stj5wWzarfEvupOsVzG2O6_OwcQx1xTF2GBPePghpVpS_FJnOp4btO9hTFxVDUmSwKixWf_VNk1jf2Xe7ZemxpfZF_XYzhs7IYGjTEh7EkNZPITZZYfEtxEVl4tuG4ScchWXyiw0gFbvYQ9UXJPcDzxKpzQ_KN]--></g></svg>