<?xml version="1.0" encoding="us-ascii" standalone="no"?><svg xmlns="http://www.w3.org/2000/svg" xmlns:xlink="http://www.w3.org/1999/xlink" contentStyleType="text/css" height="828px" preserveAspectRatio="none" style="width:1016px;height:828px;background:#FFFFFF;" version="1.1" viewBox="0 0 1016 828" width="1016.8px" zoomAndPan="magnify"><defs/><g><!--class ApplicationSession--><g id="elem_ApplicationSession"><rect codeLine="11" fill="#F1F1F1" height="68.1938" id="ApplicationSession" rx="2" ry="2" style="stroke:#181818;stroke-width:0.4000000000000001;" width="120.8" x="800" y="174"/><ellipse cx="812" cy="186.8" fill="#ADD1B2" rx="8.8" ry="8.8" style="stroke:#181818;stroke-width:0.8000000000000002;"/><path d="M814.2125,183.5 Q814.3375,183.325 814.4875,183.2375 Q814.6375,183.15 814.8125,183.15 Q815.1125,183.15 815.3,183.3625 Q815.4875,183.5625 815.4875,184.05 L815.4875,185.2125 Q815.4875,185.7 815.3,185.9125 Q815.1125,186.125 814.8125,186.125 Q814.5375,186.125 814.375,185.9625 Q814.2125,185.8125 814.125,185.4 Q814.0875,185.1125 813.9375,184.9625 Q813.675,184.6625 813.1875,184.4875 Q812.7,184.3125 812.2,184.3125 Q811.5875,184.3125 811.075,184.575 Q810.575,184.8375 810.175,185.4375 Q809.7875,186.0375 809.7875,186.8625 L809.7875,187.7375 Q809.7875,188.725 810.5,189.3875 Q811.2125,190.0375 812.4875,190.0375 Q813.2375,190.0375 813.7625,189.8375 Q814.075,189.7125 814.4125,189.3625 Q814.625,189.15 814.7375,189.0875 Q814.8625,189.025 815.025,189.025 Q815.2875,189.025 815.4875,189.2375 Q815.7,189.4375 815.7,189.7125 Q815.7,189.9875 815.425,190.3125 Q815.025,190.775 814.3875,191.0375 Q813.525,191.4 812.4875,191.4 Q811.275,191.4 810.3125,190.9 Q809.525,190.5 808.975,189.65 Q808.425,188.7875 808.425,187.7625 L808.425,186.8375 Q808.425,185.775 808.9125,184.8625 Q809.4125,183.9375 810.2875,183.45 Q811.1625,182.95 812.15,182.95 Q812.7375,182.95 813.25,183.0875 Q813.775,183.2125 814.2125,183.5 Z " fill="#000000"/><text fill="#000000" font-family="sans-serif" font-size="11.2" lengthAdjust="spacing" textLength="95.2" x="823.2" y="191.4375">ApplicationSession</text><line style="stroke:#181818;stroke-width:0.4000000000000001;" x1="800.8" x2="920" y1="199.6" y2="199.6"/><line style="stroke:#181818;stroke-width:0.4000000000000001;" x1="800.8" x2="920" y1="206" y2="206"/><text fill="#000000" font-family="sans-serif" font-size="11.2" lengthAdjust="spacing" textLength="102.4" x="804.8" y="221.2859">+static getInstance()</text><text fill="#000000" font-family="sans-serif" font-size="11.2" lengthAdjust="spacing" textLength="108.8" x="804.8" y="236.1828">+getCurrentSession()</text></g><!--class UserSession--><g id="elem_UserSession"><rect codeLine="17" fill="#F1F1F1" height="53.2969" id="UserSession" rx="2" ry="2" style="stroke:#181818;stroke-width:0.4000000000000001;" width="90.4" x="920.8" y="364.8"/><ellipse cx="933.52" cy="377.6" fill="#ADD1B2" rx="8.8" ry="8.8" style="stroke:#181818;stroke-width:0.8000000000000002;"/><path d="M935.7325,374.3 Q935.8575,374.125 936.0075,374.0375 Q936.1575,373.95 936.3325,373.95 Q936.6325,373.95 936.82,374.1625 Q937.0075,374.3625 937.0075,374.85 L937.0075,376.0125 Q937.0075,376.5 936.82,376.7125 Q936.6325,376.925 936.3325,376.925 Q936.0575,376.925 935.895,376.7625 Q935.7325,376.6125 935.645,376.2 Q935.6075,375.9125 935.4575,375.7625 Q935.195,375.4625 934.7075,375.2875 Q934.22,375.1125 933.72,375.1125 Q933.1075,375.1125 932.595,375.375 Q932.095,375.6375 931.695,376.2375 Q931.3075,376.8375 931.3075,377.6625 L931.3075,378.5375 Q931.3075,379.525 932.02,380.1875 Q932.7325,380.8375 934.0075,380.8375 Q934.7575,380.8375 935.2825,380.6375 Q935.595,380.5125 935.9325,380.1625 Q936.145,379.95 936.2575,379.8875 Q936.3825,379.825 936.545,379.825 Q936.8075,379.825 937.0075,380.0375 Q937.22,380.2375 937.22,380.5125 Q937.22,380.7875 936.945,381.1125 Q936.545,381.575 935.9075,381.8375 Q935.045,382.2 934.0075,382.2 Q932.795,382.2 931.8325,381.7 Q931.045,381.3 930.495,380.45 Q929.945,379.5875 929.945,378.5625 L929.945,377.6375 Q929.945,376.575 930.4325,375.6625 Q930.9325,374.7375 931.8075,374.25 Q932.6825,373.75 933.67,373.75 Q934.2575,373.75 934.77,373.8875 Q935.295,374.0125 935.7325,374.3 Z " fill="#000000"/><text fill="#000000" font-family="sans-serif" font-size="11.2" lengthAdjust="spacing" textLength="63.2" x="944.88" y="382.2375">UserSession</text><line style="stroke:#181818;stroke-width:0.4000000000000001;" x1="921.6" x2="1010.4" y1="390.4" y2="390.4"/><line style="stroke:#181818;stroke-width:0.4000000000000001;" x1="921.6" x2="1010.4" y1="396.8" y2="396.8"/><text fill="#000000" font-family="sans-serif" font-size="11.2" lengthAdjust="spacing" textLength="80.8" x="925.6" y="412.0859">+getUserEmail()</text></g><!--class Job--><g id="elem_Job"><rect codeLine="22" fill="#F1F1F1" height="53.2969" id="Job" rx="2" ry="2" style="stroke:#181818;stroke-width:0.4000000000000001;" width="77.6" x="565.6" y="570.8"/><ellipse cx="593.08" cy="583.6" fill="#ADD1B2" rx="8.8" ry="8.8" style="stroke:#181818;stroke-width:0.8000000000000002;"/><path d="M595.2925,580.3 Q595.4175,580.125 595.5675,580.0375 Q595.7175,579.95 595.8925,579.95 Q596.1925,579.95 596.38,580.1625 Q596.5675,580.3625 596.5675,580.85 L596.5675,582.0125 Q596.5675,582.5 596.38,582.7125 Q596.1925,582.925 595.8925,582.925 Q595.6175,582.925 595.455,582.7625 Q595.2925,582.6125 595.205,582.2 Q595.1675,581.9125 595.0175,581.7625 Q594.755,581.4625 594.2675,581.2875 Q593.78,581.1125 593.28,581.1125 Q592.6675,581.1125 592.155,581.375 Q591.655,581.6375 591.255,582.2375 Q590.8675,582.8375 590.8675,583.6625 L590.8675,584.5375 Q590.8675,585.525 591.58,586.1875 Q592.2925,586.8375 593.5675,586.8375 Q594.3175,586.8375 594.8425,586.6375 Q595.155,586.5125 595.4925,586.1625 Q595.705,585.95 595.8175,585.8875 Q595.9425,585.825 596.105,585.825 Q596.3675,585.825 596.5675,586.0375 Q596.78,586.2375 596.78,586.5125 Q596.78,586.7875 596.505,587.1125 Q596.105,587.575 595.4675,587.8375 Q594.605,588.2 593.5675,588.2 Q592.355,588.2 591.3925,587.7 Q590.605,587.3 590.055,586.45 Q589.505,585.5875 589.505,584.5625 L589.505,583.6375 Q589.505,582.575 589.9925,581.6625 Q590.4925,580.7375 591.3675,580.25 Q592.2425,579.75 593.23,579.75 Q593.8175,579.75 594.33,579.8875 Q594.855,580.0125 595.2925,580.3 Z " fill="#000000"/><text fill="#000000" font-family="sans-serif" font-size="11.2" lengthAdjust="spacing" textLength="17.6" x="607.72" y="588.2375">Job</text><line style="stroke:#181818;stroke-width:0.4000000000000001;" x1="566.4" x2="642.4" y1="596.4" y2="596.4"/><text fill="#000000" font-family="sans-serif" font-size="11.2" lengthAdjust="spacing" textLength="68" x="570.4" y="611.6859">-name: String</text><line style="stroke:#181818;stroke-width:0.4000000000000001;" x1="566.4" x2="642.4" y1="617.6969" y2="617.6969"/></g><!--class JobRepository--><g id="elem_JobRepository"><rect codeLine="26" fill="#F1F1F1" height="157.575" id="JobRepository" rx="2" ry="2" style="stroke:#181818;stroke-width:0.4000000000000001;" width="210.4" x="584" y="312.8"/><ellipse cx="649.8" cy="325.6" fill="#ADD1B2" rx="8.8" ry="8.8" style="stroke:#181818;stroke-width:0.8000000000000002;"/><path d="M652.0125,322.3 Q652.1375,322.125 652.2875,322.0375 Q652.4375,321.95 652.6125,321.95 Q652.9125,321.95 653.1,322.1625 Q653.2875,322.3625 653.2875,322.85 L653.2875,324.0125 Q653.2875,324.5 653.1,324.7125 Q652.9125,324.925 652.6125,324.925 Q652.3375,324.925 652.175,324.7625 Q652.0125,324.6125 651.925,324.2 Q651.8875,323.9125 651.7375,323.7625 Q651.475,323.4625 650.9875,323.2875 Q650.5,323.1125 650,323.1125 Q649.3875,323.1125 648.875,323.375 Q648.375,323.6375 647.975,324.2375 Q647.5875,324.8375 647.5875,325.6625 L647.5875,326.5375 Q647.5875,327.525 648.3,328.1875 Q649.0125,328.8375 650.2875,328.8375 Q651.0375,328.8375 651.5625,328.6375 Q651.875,328.5125 652.2125,328.1625 Q652.425,327.95 652.5375,327.8875 Q652.6625,327.825 652.825,327.825 Q653.0875,327.825 653.2875,328.0375 Q653.5,328.2375 653.5,328.5125 Q653.5,328.7875 653.225,329.1125 Q652.825,329.575 652.1875,329.8375 Q651.325,330.2 650.2875,330.2 Q649.075,330.2 648.1125,329.7 Q647.325,329.3 646.775,328.45 Q646.225,327.5875 646.225,326.5625 L646.225,325.6375 Q646.225,324.575 646.7125,323.6625 Q647.2125,322.7375 648.0875,322.25 Q648.9625,321.75 649.95,321.75 Q650.5375,321.75 651.05,321.8875 Q651.575,322.0125 652.0125,322.3 Z " fill="#000000"/><text fill="#000000" font-family="sans-serif" font-size="11.2" lengthAdjust="spacing" textLength="72" x="666.2" y="330.2375">JobRepository</text><line style="stroke:#181818;stroke-width:0.4000000000000001;" x1="584.8" x2="793.6" y1="338.4" y2="338.4"/><text fill="#000000" font-family="sans-serif" font-size="11.2" lengthAdjust="spacing" textLength="76" x="588.8" y="353.6859">-List&lt;Job&gt; jobs</text><line style="stroke:#181818;stroke-width:0.4000000000000001;" x1="584.8" x2="793.6" y1="359.6969" y2="359.6969"/><text fill="#000000" font-family="sans-serif" font-size="11.2" lengthAdjust="spacing" textLength="151.2" x="588.8" y="374.9828">+boolean validateJob(Job job)</text><text fill="#000000" font-family="sans-serif" font-size="11.2" lengthAdjust="spacing" textLength="185.6" x="588.8" y="389.8797">+boolean jobsDoNotContain(Job job)</text><text fill="#000000" font-family="sans-serif" font-size="11.2" lengthAdjust="spacing" textLength="145.6" x="588.8" y="404.7766">+Optional&lt;Job&gt; add(Job job)</text><text fill="#000000" font-family="sans-serif" font-size="11.2" lengthAdjust="spacing" textLength="200.8" x="588.8" y="419.6734">+Optional&lt;Job&gt; createJob(String name)</text><text fill="#000000" font-family="sans-serif" font-size="11.2" lengthAdjust="spacing" textLength="104.8" x="588.8" y="434.5703">+List&lt;Job&gt; getJobs()</text><text fill="#000000" font-family="sans-serif" font-size="11.2" lengthAdjust="spacing" textLength="171.2" x="588.8" y="449.4672">+Job getJobByName(String name)</text><text fill="#000000" font-family="sans-serif" font-size="11.2" lengthAdjust="spacing" textLength="131.2" x="588.8" y="464.3641">+boolean addJob(Job job)</text></g><!--class Organization--><g id="elem_Organization"><rect codeLine="37" fill="#F1F1F1" height="127.7813" id="Organization" rx="2" ry="2" style="stroke:#181818;stroke-width:0.4000000000000001;" width="144" x="309.2" y="533.6"/><ellipse cx="345.8" cy="546.4" fill="#ADD1B2" rx="8.8" ry="8.8" style="stroke:#181818;stroke-width:0.8000000000000002;"/><path d="M348.0125,543.1 Q348.1375,542.925 348.2875,542.8375 Q348.4375,542.75 348.6125,542.75 Q348.9125,542.75 349.1,542.9625 Q349.2875,543.1625 349.2875,543.65 L349.2875,544.8125 Q349.2875,545.3 349.1,545.5125 Q348.9125,545.725 348.6125,545.725 Q348.3375,545.725 348.175,545.5625 Q348.0125,545.4125 347.925,545 Q347.8875,544.7125 347.7375,544.5625 Q347.475,544.2625 346.9875,544.0875 Q346.5,543.9125 346,543.9125 Q345.3875,543.9125 344.875,544.175 Q344.375,544.4375 343.975,545.0375 Q343.5875,545.6375 343.5875,546.4625 L343.5875,547.3375 Q343.5875,548.325 344.3,548.9875 Q345.0125,549.6375 346.2875,549.6375 Q347.0375,549.6375 347.5625,549.4375 Q347.875,549.3125 348.2125,548.9625 Q348.425,548.75 348.5375,548.6875 Q348.6625,548.625 348.825,548.625 Q349.0875,548.625 349.2875,548.8375 Q349.5,549.0375 349.5,549.3125 Q349.5,549.5875 349.225,549.9125 Q348.825,550.375 348.1875,550.6375 Q347.325,551 346.2875,551 Q345.075,551 344.1125,550.5 Q343.325,550.1 342.775,549.25 Q342.225,548.3875 342.225,547.3625 L342.225,546.4375 Q342.225,545.375 342.7125,544.4625 Q343.2125,543.5375 344.0875,543.05 Q344.9625,542.55 345.95,542.55 Q346.5375,542.55 347.05,542.6875 Q347.575,542.8125 348.0125,543.1 Z " fill="#000000"/><text fill="#000000" font-family="sans-serif" font-size="11.2" lengthAdjust="spacing" textLength="64" x="362.2" y="551.0375">Organization</text><line style="stroke:#181818;stroke-width:0.4000000000000001;" x1="310" x2="452.4" y1="559.2" y2="559.2"/><text fill="#000000" font-family="sans-serif" font-size="11.2" lengthAdjust="spacing" textLength="64.8" x="314" y="574.4859">-String name</text><text fill="#000000" font-family="sans-serif" font-size="11.2" lengthAdjust="spacing" textLength="91.2" x="314" y="589.3828">-String vatNumber</text><text fill="#000000" font-family="sans-serif" font-size="11.2" lengthAdjust="spacing" textLength="77.6" x="314" y="604.2797">-String address</text><text fill="#000000" font-family="sans-serif" font-size="11.2" lengthAdjust="spacing" textLength="68.8" x="314" y="619.1766">-String phone</text><text fill="#000000" font-family="sans-serif" font-size="11.2" lengthAdjust="spacing" textLength="63.2" x="314" y="634.0734">-String email</text><line style="stroke:#181818;stroke-width:0.4000000000000001;" x1="310" x2="452.4" y1="640.0844" y2="640.0844"/><text fill="#000000" font-family="sans-serif" font-size="11.2" lengthAdjust="spacing" textLength="134.4" x="314" y="655.3703">+boolean equals(Object o)</text></g><!--class OrganizationRepository--><g id="elem_OrganizationRepository"><rect codeLine="46" fill="#F1F1F1" height="112.8844" id="OrganizationRepository" rx="2" ry="2" style="stroke:#181818;stroke-width:0.4000000000000001;" width="349.6" x="206.4" y="335.2"/><ellipse cx="318.6" cy="348" fill="#ADD1B2" rx="8.8" ry="8.8" style="stroke:#181818;stroke-width:0.8000000000000002;"/><path d="M320.8125,344.7 Q320.9375,344.525 321.0875,344.4375 Q321.2375,344.35 321.4125,344.35 Q321.7125,344.35 321.9,344.5625 Q322.0875,344.7625 322.0875,345.25 L322.0875,346.4125 Q322.0875,346.9 321.9,347.1125 Q321.7125,347.325 321.4125,347.325 Q321.1375,347.325 320.975,347.1625 Q320.8125,347.0125 320.725,346.6 Q320.6875,346.3125 320.5375,346.1625 Q320.275,345.8625 319.7875,345.6875 Q319.3,345.5125 318.8,345.5125 Q318.1875,345.5125 317.675,345.775 Q317.175,346.0375 316.775,346.6375 Q316.3875,347.2375 316.3875,348.0625 L316.3875,348.9375 Q316.3875,349.925 317.1,350.5875 Q317.8125,351.2375 319.0875,351.2375 Q319.8375,351.2375 320.3625,351.0375 Q320.675,350.9125 321.0125,350.5625 Q321.225,350.35 321.3375,350.2875 Q321.4625,350.225 321.625,350.225 Q321.8875,350.225 322.0875,350.4375 Q322.3,350.6375 322.3,350.9125 Q322.3,351.1875 322.025,351.5125 Q321.625,351.975 320.9875,352.2375 Q320.125,352.6 319.0875,352.6 Q317.875,352.6 316.9125,352.1 Q316.125,351.7 315.575,350.85 Q315.025,349.9875 315.025,348.9625 L315.025,348.0375 Q315.025,346.975 315.5125,346.0625 Q316.0125,345.1375 316.8875,344.65 Q317.7625,344.15 318.75,344.15 Q319.3375,344.15 319.85,344.2875 Q320.375,344.4125 320.8125,344.7 Z " fill="#000000"/><text fill="#000000" font-family="sans-serif" font-size="11.2" lengthAdjust="spacing" textLength="118.4" x="335" y="352.6375">OrganizationRepository</text><line style="stroke:#181818;stroke-width:0.4000000000000001;" x1="207.2" x2="555.2" y1="360.8" y2="360.8"/><line style="stroke:#181818;stroke-width:0.4000000000000001;" x1="207.2" x2="555.2" y1="367.2" y2="367.2"/><text fill="#000000" font-family="sans-serif" font-size="11.2" lengthAdjust="spacing" textLength="300" x="211.2" y="382.4859">+Optional&lt;Organization&gt; getOrganizationByHRM(HRM hrm)</text><text fill="#000000" font-family="sans-serif" font-size="11.2" lengthAdjust="spacing" textLength="296.8" x="211.2" y="397.3828">+Optional&lt;Organization&gt; getOrganizationByVFM(VFM vfm)</text><text fill="#000000" font-family="sans-serif" font-size="11.2" lengthAdjust="spacing" textLength="340" x="211.2" y="412.2797">+Optional&lt;Organization&gt; getOrganizationByHRMEmail(String email)</text><text fill="#000000" font-family="sans-serif" font-size="11.2" lengthAdjust="spacing" textLength="284.8" x="211.2" y="427.1766">+Optional&lt;Organization&gt; add(Organization organization)</text><text fill="#000000" font-family="sans-serif" font-size="11.2" lengthAdjust="spacing" textLength="290.4" x="211.2" y="442.0734">+boolean validateOrganization(Organization organization)</text></g><!--class Repositories--><g id="elem_Repositories"><rect codeLine="54" fill="#F1F1F1" height="83.0906" id="Repositories" rx="2" ry="2" style="stroke:#181818;stroke-width:0.4000000000000001;" width="286.4" x="422" y="166.4"/><ellipse cx="530.2" cy="179.2" fill="#ADD1B2" rx="8.8" ry="8.8" style="stroke:#181818;stroke-width:0.8000000000000002;"/><path d="M532.4125,175.9 Q532.5375,175.725 532.6875,175.6375 Q532.8375,175.55 533.0125,175.55 Q533.3125,175.55 533.5,175.7625 Q533.6875,175.9625 533.6875,176.45 L533.6875,177.6125 Q533.6875,178.1 533.5,178.3125 Q533.3125,178.525 533.0125,178.525 Q532.7375,178.525 532.575,178.3625 Q532.4125,178.2125 532.325,177.8 Q532.2875,177.5125 532.1375,177.3625 Q531.875,177.0625 531.3875,176.8875 Q530.9,176.7125 530.4,176.7125 Q529.7875,176.7125 529.275,176.975 Q528.775,177.2375 528.375,177.8375 Q527.9875,178.4375 527.9875,179.2625 L527.9875,180.1375 Q527.9875,181.125 528.7,181.7875 Q529.4125,182.4375 530.6875,182.4375 Q531.4375,182.4375 531.9625,182.2375 Q532.275,182.1125 532.6125,181.7625 Q532.825,181.55 532.9375,181.4875 Q533.0625,181.425 533.225,181.425 Q533.4875,181.425 533.6875,181.6375 Q533.9,181.8375 533.9,182.1125 Q533.9,182.3875 533.625,182.7125 Q533.225,183.175 532.5875,183.4375 Q531.725,183.8 530.6875,183.8 Q529.475,183.8 528.5125,183.3 Q527.725,182.9 527.175,182.05 Q526.625,181.1875 526.625,180.1625 L526.625,179.2375 Q526.625,178.175 527.1125,177.2625 Q527.6125,176.3375 528.4875,175.85 Q529.3625,175.35 530.35,175.35 Q530.9375,175.35 531.45,175.4875 Q531.975,175.6125 532.4125,175.9 Z " fill="#000000"/><text fill="#000000" font-family="sans-serif" font-size="11.2" lengthAdjust="spacing" textLength="63.2" x="546.6" y="183.8375">Repositories</text><line style="stroke:#181818;stroke-width:0.4000000000000001;" x1="422.8" x2="707.6" y1="192" y2="192"/><line style="stroke:#181818;stroke-width:0.4000000000000001;" x1="422.8" x2="707.6" y1="198.4" y2="198.4"/><text fill="#000000" font-family="sans-serif" font-size="11.2" lengthAdjust="spacing" textLength="145.6" x="426.8" y="213.6859">+getInstance() : Repositories</text><text fill="#000000" font-family="sans-serif" font-size="11.2" lengthAdjust="spacing" textLength="184" x="426.8" y="228.5828">+getJobRepository() : JobRepository</text><text fill="#000000" font-family="sans-serif" font-size="11.2" lengthAdjust="spacing" textLength="276.8" x="426.8" y="243.4797">+getOrganizationRepository() : OrganizationRepository</text></g><!--class CreateJobController--><g id="elem_CreateJobController"><rect codeLine="60" fill="#F1F1F1" height="97.9875" id="CreateJobController" rx="2" ry="2" style="stroke:#181818;stroke-width:0.4000000000000001;" width="362.4" x="384" y="5.6"/><ellipse cx="511" cy="18.4" fill="#ADD1B2" rx="8.8" ry="8.8" style="stroke:#181818;stroke-width:0.8000000000000002;"/><path d="M513.2125,15.1 Q513.3375,14.925 513.4875,14.8375 Q513.6375,14.75 513.8125,14.75 Q514.1125,14.75 514.3,14.9625 Q514.4875,15.1625 514.4875,15.65 L514.4875,16.8125 Q514.4875,17.3 514.3,17.5125 Q514.1125,17.725 513.8125,17.725 Q513.5375,17.725 513.375,17.5625 Q513.2125,17.4125 513.125,17 Q513.0875,16.7125 512.9375,16.5625 Q512.675,16.2625 512.1875,16.0875 Q511.7,15.9125 511.2,15.9125 Q510.5875,15.9125 510.075,16.175 Q509.575,16.4375 509.175,17.0375 Q508.7875,17.6375 508.7875,18.4625 L508.7875,19.3375 Q508.7875,20.325 509.5,20.9875 Q510.2125,21.6375 511.4875,21.6375 Q512.2375,21.6375 512.7625,21.4375 Q513.075,21.3125 513.4125,20.9625 Q513.625,20.75 513.7375,20.6875 Q513.8625,20.625 514.025,20.625 Q514.2875,20.625 514.4875,20.8375 Q514.7,21.0375 514.7,21.3125 Q514.7,21.5875 514.425,21.9125 Q514.025,22.375 513.3875,22.6375 Q512.525,23 511.4875,23 Q510.275,23 509.3125,22.5 Q508.525,22.1 507.975,21.25 Q507.425,20.3875 507.425,19.3625 L507.425,18.4375 Q507.425,17.375 507.9125,16.4625 Q508.4125,15.5375 509.2875,15.05 Q510.1625,14.55 511.15,14.55 Q511.7375,14.55 512.25,14.6875 Q512.775,14.8125 513.2125,15.1 Z " fill="#000000"/><text fill="#000000" font-family="sans-serif" font-size="11.2" lengthAdjust="spacing" textLength="101.6" x="527.4" y="23.0375">CreateJobController</text><line style="stroke:#181818;stroke-width:0.4000000000000001;" x1="384.8" x2="745.6" y1="31.2" y2="31.2"/><text fill="#000000" font-family="sans-serif" font-size="11.2" lengthAdjust="spacing" textLength="148" x="388.8" y="46.4859">JobRepository jobRepository,</text><line style="stroke:#181818;stroke-width:0.4000000000000001;" x1="384.8" x2="745.6" y1="52.4969" y2="52.4969"/><text fill="#000000" font-family="sans-serif" font-size="11.2" lengthAdjust="spacing" textLength="352.8" x="388.8" y="67.7828">+CreateJobController(OrganizationRepository organizationRepository,</text><text fill="#000000" font-family="sans-serif" font-size="11.2" lengthAdjust="spacing" textLength="259.2" x="388.8" y="82.6797">AuthenticationRepository authenticationRepository)</text><text fill="#000000" font-family="sans-serif" font-size="11.2" lengthAdjust="spacing" textLength="200.8" x="388.8" y="97.5766">+Optional&lt;Job&gt; createJob(String name)</text></g><!--class CreateJobUI--><g id="elem_CreateJobUI"><rect codeLine="67" fill="#F1F1F1" height="53.2969" id="CreateJobUI" rx="2" ry="2" style="stroke:#181818;stroke-width:0.4000000000000001;" width="108.8" x="246.8" y="27.6"/><ellipse cx="268.52" cy="40.4" fill="#ADD1B2" rx="8.8" ry="8.8" style="stroke:#181818;stroke-width:0.8000000000000002;"/><path d="M270.7325,37.1 Q270.8575,36.925 271.0075,36.8375 Q271.1575,36.75 271.3325,36.75 Q271.6325,36.75 271.82,36.9625 Q272.0075,37.1625 272.0075,37.65 L272.0075,38.8125 Q272.0075,39.3 271.82,39.5125 Q271.6325,39.725 271.3325,39.725 Q271.0575,39.725 270.895,39.5625 Q270.7325,39.4125 270.645,39 Q270.6075,38.7125 270.4575,38.5625 Q270.195,38.2625 269.7075,38.0875 Q269.22,37.9125 268.72,37.9125 Q268.1075,37.9125 267.595,38.175 Q267.095,38.4375 266.695,39.0375 Q266.3075,39.6375 266.3075,40.4625 L266.3075,41.3375 Q266.3075,42.325 267.02,42.9875 Q267.7325,43.6375 269.0075,43.6375 Q269.7575,43.6375 270.2825,43.4375 Q270.595,43.3125 270.9325,42.9625 Q271.145,42.75 271.2575,42.6875 Q271.3825,42.625 271.545,42.625 Q271.8075,42.625 272.0075,42.8375 Q272.22,43.0375 272.22,43.3125 Q272.22,43.5875 271.945,43.9125 Q271.545,44.375 270.9075,44.6375 Q270.045,45 269.0075,45 Q267.795,45 266.8325,44.5 Q266.045,44.1 265.495,43.25 Q264.945,42.3875 264.945,41.3625 L264.945,40.4375 Q264.945,39.375 265.4325,38.4625 Q265.9325,37.5375 266.8075,37.05 Q267.6825,36.55 268.67,36.55 Q269.2575,36.55 269.77,36.6875 Q270.295,36.8125 270.7325,37.1 Z " fill="#000000"/><text fill="#000000" font-family="sans-serif" font-size="11.2" lengthAdjust="spacing" textLength="61.6" x="281.88" y="45.0375">CreateJobUI</text><line style="stroke:#181818;stroke-width:0.4000000000000001;" x1="247.6" x2="354.8" y1="53.2" y2="53.2"/><line style="stroke:#181818;stroke-width:0.4000000000000001;" x1="247.6" x2="354.8" y1="59.6" y2="59.6"/><text fill="#000000" font-family="sans-serif" font-size="11.2" lengthAdjust="spacing" textLength="99.2" x="251.6" y="74.8859">+requestJobName()</text></g><!--class HRM--><g id="elem_HRM"><rect codeLine="71" fill="#F1F1F1" height="97.9875" id="HRM" rx="2" ry="2" style="stroke:#181818;stroke-width:0.4000000000000001;" width="99.2" x="400.4" y="724.8"/><ellipse cx="434.72" cy="737.6" fill="#ADD1B2" rx="8.8" ry="8.8" style="stroke:#181818;stroke-width:0.8000000000000002;"/><path d="M436.9325,734.3 Q437.0575,734.125 437.2075,734.0375 Q437.3575,733.95 437.5325,733.95 Q437.8325,733.95 438.02,734.1625 Q438.2075,734.3625 438.2075,734.85 L438.2075,736.0125 Q438.2075,736.5 438.02,736.7125 Q437.8325,736.925 437.5325,736.925 Q437.2575,736.925 437.095,736.7625 Q436.9325,736.6125 436.845,736.2 Q436.8075,735.9125 436.6575,735.7625 Q436.395,735.4625 435.9075,735.2875 Q435.42,735.1125 434.92,735.1125 Q434.3075,735.1125 433.795,735.375 Q433.295,735.6375 432.895,736.2375 Q432.5075,736.8375 432.5075,737.6625 L432.5075,738.5375 Q432.5075,739.525 433.22,740.1875 Q433.9325,740.8375 435.2075,740.8375 Q435.9575,740.8375 436.4825,740.6375 Q436.795,740.5125 437.1325,740.1625 Q437.345,739.95 437.4575,739.8875 Q437.5825,739.825 437.745,739.825 Q438.0075,739.825 438.2075,740.0375 Q438.42,740.2375 438.42,740.5125 Q438.42,740.7875 438.145,741.1125 Q437.745,741.575 437.1075,741.8375 Q436.245,742.2 435.2075,742.2 Q433.995,742.2 433.0325,741.7 Q432.245,741.3 431.695,740.45 Q431.145,739.5875 431.145,738.5625 L431.145,737.6375 Q431.145,736.575 431.6325,735.6625 Q432.1325,734.7375 433.0075,734.25 Q433.8825,733.75 434.87,733.75 Q435.4575,733.75 435.97,733.8875 Q436.495,734.0125 436.9325,734.3 Z " fill="#000000"/><text fill="#000000" font-family="sans-serif" font-size="11.2" lengthAdjust="spacing" textLength="24" x="450.88" y="742.2375">HRM</text><line style="stroke:#181818;stroke-width:0.4000000000000001;" x1="401.2" x2="498.8" y1="750.4" y2="750.4"/><text fill="#000000" font-family="sans-serif" font-size="11.2" lengthAdjust="spacing" textLength="64.8" x="405.2" y="765.6859">-String name</text><text fill="#000000" font-family="sans-serif" font-size="11.2" lengthAdjust="spacing" textLength="73.6" x="405.2" y="780.5828">-int vatNumber</text><text fill="#000000" font-family="sans-serif" font-size="11.2" lengthAdjust="spacing" textLength="63.2" x="405.2" y="795.4797">-String email</text><text fill="#000000" font-family="sans-serif" font-size="11.2" lengthAdjust="spacing" textLength="89.6" x="405.2" y="810.3766">-int phonenumber</text><line style="stroke:#181818;stroke-width:0.4000000000000001;" x1="401.2" x2="498.8" y1="816.3875" y2="816.3875"/></g><g id="elem_GMN12"><path d="M774.4,36.4 L774.4,51.2 L746.528,54.4 L774.4,57.6 L774.4,72.0656 A0,0 0 0 0 774.4,72.0656 L996,72.0656 A0,0 0 0 0 996,72.0656 L996,44.4 L988,36.4 L774.4,36.4 A0,0 0 0 0 774.4,36.4 " fill="#FEFFDD" style="stroke:#181818;stroke-width:0.4000000000000001;"/><path d="M988,36.4 L988,44.4 L996,44.4 L988,36.4 " fill="#FEFFDD" style="stroke:#181818;stroke-width:0.4000000000000001;"/><text fill="#000000" font-family="sans-serif" font-size="10.4" lengthAdjust="spacing" textLength="204.8" x="779.2" y="51.6227">- Job name is obtained from the HRM's input</text><text fill="#000000" font-family="sans-serif" font-size="10.4" lengthAdjust="spacing" textLength="134.4" x="779.2" y="65.4555">- Updates the Job Repository</text></g><g id="elem_GMN15"><path d="M527.6,762.8 L527.6,770.4 L499.632,773.6 L527.6,776.8 L527.6,784.6328 A0,0 0 0 0 527.6,784.6328 L670,784.6328 A0,0 0 0 0 670,784.6328 L670,770.8 L662,762.8 L527.6,762.8 A0,0 0 0 0 527.6,762.8 " fill="#FEFFDD" style="stroke:#181818;stroke-width:0.4000000000000001;"/><path d="M662,762.8 L662,770.8 L670,770.8 L662,762.8 " fill="#FEFFDD" style="stroke:#181818;stroke-width:0.4000000000000001;"/><text fill="#000000" font-family="sans-serif" font-size="10.4" lengthAdjust="spacing" textLength="125.6" x="532.4" y="778.0227">- HRM initiates job creation</text></g><g id="elem_GMN18"><path d="M4.8,36.4 L4.8,72.0656 L218.4,72.0656 L218.4,44.4 L210.4,36.4 L4.8,36.4 " fill="#FEFFDD" style="stroke:#181818;stroke-width:0.4000000000000001;"/><path d="M210.4,36.4 L210.4,44.4 L218.4,44.4 L210.4,36.4 " fill="#FEFFDD" style="stroke:#181818;stroke-width:0.8000000000000002;"/><text fill="#000000" font-family="sans-serif" font-size="10.4" lengthAdjust="spacing" textLength="196.8" x="9.6" y="51.6227">- UI for HRM to input and confirm job name</text><text fill="#000000" font-family="sans-serif" font-size="10.4" lengthAdjust="spacing" textLength="191.2" x="9.6" y="65.4555">- Communicates with CreateJobController</text></g><g id="elem_GMN21"><path d="M119.6,579.6 L119.6,615.2656 A0,0 0 0 0 119.6,615.2656 L281.2,615.2656 A0,0 0 0 0 281.2,615.2656 L281.2,600.8 L309.128,597.6 L281.2,594.4 L281.2,587.6 L273.2,579.6 L119.6,579.6 A0,0 0 0 0 119.6,579.6 " fill="#FEFFDD" style="stroke:#181818;stroke-width:0.4000000000000001;"/><path d="M273.2,579.6 L273.2,587.6 L281.2,587.6 L273.2,579.6 " fill="#FEFFDD" style="stroke:#181818;stroke-width:0.4000000000000001;"/><text fill="#000000" font-family="sans-serif" font-size="10.4" lengthAdjust="spacing" textLength="71.2" x="124.4" y="594.8227">- Manages jobs</text><text fill="#000000" font-family="sans-serif" font-size="10.4" lengthAdjust="spacing" textLength="144.8" x="124.4" y="608.6555">- Handles organizational details</text></g><!--link GMN18 to CreateJobUI--><g id="link_GMN18_CreateJobUI"><path d="M218.696,54.4 C229.48,54.4 238,54.4 238,54.4 C238,54.4 241.472,54.4 246.784,54.4 " fill="none" id="GMN18-CreateJobUI" style="stroke:#181818;stroke-width:0.8000000000000002;stroke-dasharray:7.0,7.0;"/></g><!--link Repositories to Repositories--><g id="link_Repositories_Repositories"><path codeLine="97" d="M708.504,196.44 C725.392,198.56 736.4,202.408 736.4,208 C736.4,213.592 730.1546,216.8421 713.2666,218.9621 " fill="none" id="Repositories-to-Repositories" style="stroke:#181818;stroke-width:0.8000000000000002;"/><polygon fill="#181818" points="708.504,219.56,716.0465,221.8383,712.4729,219.0618,715.2494,215.4881,708.504,219.56" style="stroke:#181818;stroke-width:0.8000000000000002;"/><text fill="#000000" font-family="sans-serif" font-size="10.4" lengthAdjust="spacing" textLength="39.2" x="741.2" y="212.4227">instance</text></g><!--link ApplicationSession to ApplicationSession--><g id="link_ApplicationSession_ApplicationSession"><path codeLine="98" d="M920.928,194.632 C936.8,195.424 948.8,199.88 948.8,208 C948.8,216.12 941.594,220.3368 925.722,221.1288 " fill="none" id="ApplicationSession-to-ApplicationSession" style="stroke:#181818;stroke-width:0.8000000000000002;"/><polygon fill="#181818" points="920.928,221.368,928.2785,224.2052,924.923,221.1687,927.9596,217.8131,920.928,221.368" style="stroke:#181818;stroke-width:0.8000000000000002;"/><text fill="#000000" font-family="sans-serif" font-size="10.4" lengthAdjust="spacing" textLength="39.2" x="953.6" y="212.4227">instance</text></g><!--link CreateJobUI to CreateJobController--><g id="link_CreateJobUI_CreateJobController"><path codeLine="100" d="M355.68,54.4 C367.216,54.4 372.928,54.4 378.992,54.4 " fill="none" id="CreateJobUI-to-CreateJobController" style="stroke:#181818;stroke-width:0.8000000000000002;stroke-dasharray:7.0,7.0;"/><polygon fill="#181818" points="383.792,54.4,376.592,51.2,379.792,54.4,376.592,57.6,383.792,54.4" style="stroke:#181818;stroke-width:0.8000000000000002;"/></g><!--link CreateJobController to Repositories--><g id="link_CreateJobController_Repositories"><path codeLine="102" d="M565.2,103.296 C565.2,123.56 565.2,142.096 565.2,161.52 " fill="none" id="CreateJobController-to-Repositories" style="stroke:#181818;stroke-width:0.8000000000000002;"/><polygon fill="#181818" points="565.2,166.32,568.4,159.12,565.2,162.32,562,159.12,565.2,166.32" style="stroke:#181818;stroke-width:0.8000000000000002;"/><text fill="#000000" font-family="sans-serif" font-size="10.4" lengthAdjust="spacing" textLength="86.4" x="566" y="139.2227">retrieves instances</text></g><!--link Repositories to JobRepository--><g id="link_Repositories_JobRepository"><path codeLine="104" d="M593.032,249.648 C605.736,268.296 618.5295,287.0811 633.3375,308.8171 " fill="none" id="Repositories-to-JobRepository" style="stroke:#181818;stroke-width:0.8000000000000002;"/><polygon fill="#181818" points="636.04,312.784,634.6308,305.032,633.7879,309.4782,629.3416,308.6353,636.04,312.784" style="stroke:#181818;stroke-width:0.8000000000000002;"/><text fill="#000000" font-family="sans-serif" font-size="10.4" lengthAdjust="spacing" textLength="44.8" x="617.2" y="285.6227">accesses</text></g><!--link Repositories to OrganizationRepository--><g id="link_Repositories_OrganizationRepository"><path codeLine="105" d="M523.904,249.648 C498.48,274.8 468.9402,304.0081 441.1162,331.5361 " fill="none" id="Repositories-to-OrganizationRepository" style="stroke:#181818;stroke-width:0.8000000000000002;"/><polygon fill="#181818" points="437.704,334.912,445.0729,332.1229,440.5475,332.0987,440.5717,327.5733,437.704,334.912" style="stroke:#181818;stroke-width:0.8000000000000002;"/><text fill="#000000" font-family="sans-serif" font-size="10.4" lengthAdjust="spacing" textLength="44.8" x="496.4" y="285.6227">accesses</text></g><!--link CreateJobController to OrganizationRepository--><g id="link_CreateJobController_OrganizationRepository"><path codeLine="107" d="M450.592,103.328 C379.032,133.384 300.4,166.4 300.4,166.4 C300.4,166.4 300.4,249.6 300.4,249.6 C300.4,249.6 324.3839,291.5139 346.9999,331.0339 " fill="none" id="CreateJobController-to-OrganizationRepository" style="stroke:#181818;stroke-width:0.8000000000000002;stroke-dasharray:7.0,7.0;"/><polygon fill="#181818" points="349.384,335.2,348.5852,327.3615,347.3972,331.7283,343.0305,330.5403,349.384,335.2" style="stroke:#181818;stroke-width:0.8000000000000002;"/><text fill="#000000" font-family="sans-serif" font-size="10.4" lengthAdjust="spacing" textLength="105.6" x="301.2" y="212.4227">organizationRepository</text></g><!--link OrganizationRepository to Organization--><g id="link_OrganizationRepository_Organization"><path codeLine="109" d="M381.2,448.256 C381.2,474.616 381.2,501.392 381.2,528.64 " fill="none" id="OrganizationRepository-to-Organization" style="stroke:#181818;stroke-width:0.8000000000000002;"/><polygon fill="#181818" points="381.2,533.44,384.4,526.24,381.2,529.44,378,526.24,381.2,533.44" style="stroke:#181818;stroke-width:0.8000000000000002;"/><text fill="#000000" font-family="sans-serif" font-size="10.4" lengthAdjust="spacing" textLength="36.8" x="382" y="506.4227">persists</text><text fill="#000000" font-family="sans-serif" font-size="10.4" lengthAdjust="spacing" textLength="4" x="377.0156" y="524.5418">*</text></g><!--link ApplicationSession to UserSession--><g id="link_ApplicationSession_UserSession"><path codeLine="110" d="M879.768,242.184 C900.248,277.48 929.7266,328.2885 948.4466,360.5445 " fill="none" id="ApplicationSession-to-UserSession" style="stroke:#181818;stroke-width:0.8000000000000002;"/><polygon fill="#181818" points="950.856,364.696,950.0096,356.8625,948.8482,361.2364,944.4743,360.075,950.856,364.696" style="stroke:#181818;stroke-width:0.8000000000000002;"/><text fill="#000000" font-family="sans-serif" font-size="10.4" lengthAdjust="spacing" textLength="57.6" x="905.2" y="285.6227">userSession</text><text fill="#000000" font-family="sans-serif" font-size="10.4" lengthAdjust="spacing" textLength="5.6" x="941.7233" y="355.7359">1</text></g><!--link CreateJobController to Organization--><g id="link_CreateJobController_Organization"><path codeLine="112" d="M422.728,103.224 C383.544,116.432 351.6,127.2 351.6,127.2 C351.6,127.2 294,166.4 294,166.4 C294,166.4 192.4,312.8 192.4,312.8 C192.4,312.8 192.4,470.4 192.4,470.4 C192.4,470.4 294.8,533.6 294.8,533.6 C294.8,533.6 296.6715,534.9638 305.1915,541.2038 " fill="none" id="CreateJobController-to-Organization" style="stroke:#181818;stroke-width:0.8000000000000002;stroke-dasharray:7.0,7.0;"/><polygon fill="#181818" points="309.064,544.04,305.1461,537.2041,305.8369,541.6765,301.3645,542.3674,309.064,544.04" style="stroke:#181818;stroke-width:0.8000000000000002;"/><text fill="#000000" font-family="sans-serif" font-size="10.4" lengthAdjust="spacing" textLength="56" x="220.4" y="285.6227">organization</text><text fill="#000000" font-family="sans-serif" font-size="10.4" lengthAdjust="spacing" textLength="5.6" x="297.2584" y="536.6828">1</text></g><!--link CreateJobController to ApplicationSession--><g id="link_CreateJobController_ApplicationSession"><path codeLine="113" d="M660.416,103.328 C719.872,133.384 785.2,166.4 785.2,166.4 C785.2,166.4 786.9339,167.3333 795.4779,171.9733 " fill="none" id="CreateJobController-to-ApplicationSession" style="stroke:#181818;stroke-width:0.8000000000000002;stroke-dasharray:7.0,7.0;"/><polygon fill="#181818" points="799.696,174.264,794.896,168.0158,796.1809,172.3551,791.8417,173.64,799.696,174.264" style="stroke:#181818;stroke-width:0.8000000000000002;"/></g><!--link CreateJobController to UserSession--><g id="link_CreateJobController_UserSession"><path codeLine="114" d="M746.552,101.792 C865.072,132.248 998,166.4 998,166.4 C998,166.4 998,249.6 998,249.6 C998,249.6 982.261,319.0547 973.005,359.8947 " fill="none" id="CreateJobController-to-UserSession" style="stroke:#181818;stroke-width:0.8000000000000002;stroke-dasharray:7.0,7.0;"/><polygon fill="#181818" points="971.944,364.576,976.6563,358.2614,972.8281,360.6749,970.4146,356.8468,971.944,364.576" style="stroke:#181818;stroke-width:0.8000000000000002;"/></g><!--link JobRepository to Job--><g id="link_JobRepository_Job"><path codeLine="115" d="M656.776,470.552 C642.096,505.936 627.5588,540.9742 617.0948,566.2062 " fill="none" id="JobRepository-to-Job" style="stroke:#181818;stroke-width:0.8000000000000002;"/><polygon fill="#181818" points="615.256,570.64,620.97,565.2151,616.7883,566.9451,615.0583,562.7634,615.256,570.64" style="stroke:#181818;stroke-width:0.8000000000000002;"/><text fill="#000000" font-family="sans-serif" font-size="10.4" lengthAdjust="spacing" textLength="26.4" x="647.6" y="506.4227">saves</text><text fill="#000000" font-family="sans-serif" font-size="10.4" lengthAdjust="spacing" textLength="5.6" x="648.5892" y="488.0815">1</text><text fill="#000000" font-family="sans-serif" font-size="10.4" lengthAdjust="spacing" textLength="4" x="612.9442" y="561.8782">*</text></g><!--link Job to HRM--><g id="link_Job_HRM"><path codeLine="116" d="M581.288,624.512 C557.896,650.928 524.3818,688.7821 495.7258,721.1501 " fill="none" id="Job-to-HRM" style="stroke:#181818;stroke-width:0.8000000000000002;"/><polygon fill="#181818" points="492.544,724.744,499.7126,721.4743,495.1955,721.7491,494.9207,717.2319,492.544,724.744" style="stroke:#181818;stroke-width:0.8000000000000002;"/><text fill="#000000" font-family="sans-serif" font-size="10.4" lengthAdjust="spacing" textLength="47.2" x="528.4" y="697.6227">createdBy</text></g><!--link Organization to HRM--><g id="link_Organization_HRM"><path codeLine="118" d="M406.136,661.608 C414.328,682.376 421.5349,700.6388 429.2149,720.1108 " fill="none" id="Organization-to-HRM" style="stroke:#181818;stroke-width:0.8000000000000002;"/><polygon fill="#181818" points="430.976,724.576,431.3111,716.704,429.5084,720.855,425.3575,719.0522,430.976,724.576" style="stroke:#181818;stroke-width:0.8000000000000002;"/><text fill="#000000" font-family="sans-serif" font-size="10.4" lengthAdjust="spacing" textLength="39.2" x="421.2" y="697.6227">employs</text><text fill="#000000" font-family="sans-serif" font-size="10.4" lengthAdjust="spacing" textLength="4" x="424.5451" y="715.7351">*</text></g><!--SRC=[bLRVRzem47xFNt7g2x2DQdj5KwMMRHhJsaf3xDqa1xXrxCnsgEYq_trtJg0s96n5Gf2xxxjVlZjdu1wbheGL9PH6ctnZJOdWROtPYwOI-QDOuzpl58B5t0kzLZ70RKHXdgHUmqee5skKrEXt5K9br8uVia67qbXlieYLA-7SjVTMBckFizpekNn6U9zb0uKh3zw0bUkDXq9oEDBeB0iSkAug9NF1eZawnvhV6T3dBJXFuXpMw6UQ_kiSXwDMHR9fRIrgtv98ysTlSk7G7jiY0ei_bqAg6FlDBA71Z46B4YSmfoJqEa7ymCeuwOtT1UmOlaldFvBY2XxCqcNiO6cCGg5XAvGiX4VI3jau0KO9W1cVp9tnKwEza3f5tLTS2Q4Qww8epgbpYwsd9kYGGGDyYP0ofrytREHihP7SxEu8VShSnqc-anmE1RctQw7bSpYojXwHaVXvA_nTNIxHnaAoQ-bmOb6rCJeX8XzJ4Wt-ggbHX_VB1seVC3tX71rKLAyO5MeI2svsNt_S3kaB6rkENaNy-ULsI5_Ohbv996zDCyOfdpN1pP3KtaGFeyucZE7dk8TY7WeeqRKbJCOF9Wba3qXc9A0IoHxMVLG1twrw2MowRtMU6ckKGjl6rw4PzlI4wHI_2-F_Zq-w1HxYf__YNzT-GzkgtNIHAT6ZUCMydnPfCMkBOsbkqF7vX66FiDpjOV4TJoy9fFR9x9uEPWiAWwiR65dMncExvysgws32ZFD6OLyW7PWbhq0iO4NN650bEAw18-DLxGDwKN4Zkw1ZPjGSg0jWbyUEoKIWSefIIo-30Jgpfe1yBHnHmnqLXxoODSvdi38s6A8RB0G5WgXqlwsaBOFDmzARchAiDHyaUNkIVjDPWHxFSSS6QxT2qmtkzXSCPKEE5GdY9XOA2gGAAXVPJMPuV9NEz8IoQ8OvExrv6TqXZJXPt6ANLvqPPbspEgRN3NqQZ4NgAzoYExXmnmcqn7G09o1omZg2Tw9x5a14wupoyl8CjNjxP5aFOKnXNBovIA_B2LHe7TtDhhFyJFbm4R_04AEENcTwesRQaQSutbvUn-jN7pH-hKfFWvtlq-KPdO0JTAQC2dAUdqcxlOgRev8Tc0qAoqgPdSl-0W00]--></g></svg>