<?xml version="1.0" encoding="us-ascii" standalone="no"?><svg xmlns="http://www.w3.org/2000/svg" xmlns:xlink="http://www.w3.org/1999/xlink" contentStyleType="text/css" height="1181px" preserveAspectRatio="none" style="width:1295px;height:1181px;background:#FFFFFF;" version="1.1" viewBox="0 0 1295 1181" width="1295px" zoomAndPan="magnify"><defs/><g><!--class ApplicationSession--><g id="elem_ApplicationSession"><rect codeLine="11" fill="#F1F1F1" height="85.2422" id="ApplicationSession" rx="2.5" ry="2.5" style="stroke:#181818;stroke-width:0.5;" width="151" x="912.5" y="217.5"/><ellipse cx="927.5" cy="233.5" fill="#ADD1B2" rx="11" ry="11" style="stroke:#181818;stroke-width:1.0;"/><path d="M930.2656,229.375 Q930.4219,229.1563 930.6094,229.0469 Q930.7969,228.9375 931.0156,228.9375 Q931.3906,228.9375 931.625,229.2031 Q931.8594,229.4531 931.8594,230.0625 L931.8594,231.5156 Q931.8594,232.125 931.625,232.3906 Q931.3906,232.6563 931.0156,232.6563 Q930.6719,232.6563 930.4688,232.4531 Q930.2656,232.2656 930.1563,231.75 Q930.1094,231.3906 929.9219,231.2031 Q929.5938,230.8281 928.9844,230.6094 Q928.375,230.3906 927.75,230.3906 Q926.9844,230.3906 926.3438,230.7188 Q925.7188,231.0469 925.2188,231.7969 Q924.7344,232.5469 924.7344,233.5781 L924.7344,234.6719 Q924.7344,235.9063 925.625,236.7344 Q926.5156,237.5469 928.1094,237.5469 Q929.0469,237.5469 929.7031,237.2969 Q930.0938,237.1406 930.5156,236.7031 Q930.7813,236.4375 930.9219,236.3594 Q931.0781,236.2813 931.2813,236.2813 Q931.6094,236.2813 931.8594,236.5469 Q932.125,236.7969 932.125,237.1406 Q932.125,237.4844 931.7813,237.8906 Q931.2813,238.4688 930.4844,238.7969 Q929.4063,239.25 928.1094,239.25 Q926.5938,239.25 925.3906,238.625 Q924.4063,238.125 923.7188,237.0625 Q923.0313,235.9844 923.0313,234.7031 L923.0313,233.5469 Q923.0313,232.2188 923.6406,231.0781 Q924.2656,229.9219 925.3594,229.3125 Q926.4531,228.6875 927.6875,228.6875 Q928.4219,228.6875 929.0625,228.8594 Q929.7188,229.0156 930.2656,229.375 Z " fill="#000000"/><text fill="#000000" font-family="sans-serif" font-size="14" lengthAdjust="spacing" textLength="119" x="941.5" y="239.2969">ApplicationSession</text><line style="stroke:#181818;stroke-width:0.5;" x1="913.5" x2="1062.5" y1="249.5" y2="249.5"/><line style="stroke:#181818;stroke-width:0.5;" x1="913.5" x2="1062.5" y1="257.5" y2="257.5"/><text fill="#000000" font-family="sans-serif" font-size="14" lengthAdjust="spacing" textLength="128" x="918.5" y="276.6074">+static getInstance()</text><text fill="#000000" font-family="sans-serif" font-size="14" lengthAdjust="spacing" textLength="136" x="918.5" y="295.2285">+getCurrentSession()</text></g><!--class UserSession--><g id="elem_UserSession"><rect codeLine="17" fill="#F1F1F1" height="66.6211" id="UserSession" rx="2.5" ry="2.5" style="stroke:#181818;stroke-width:0.5;" width="113" x="1072.5" y="456"/><ellipse cx="1088.4" cy="472" fill="#ADD1B2" rx="11" ry="11" style="stroke:#181818;stroke-width:1.0;"/><path d="M1091.1656,467.875 Q1091.3219,467.6563 1091.5094,467.5469 Q1091.6969,467.4375 1091.9156,467.4375 Q1092.2906,467.4375 1092.525,467.7031 Q1092.7594,467.9531 1092.7594,468.5625 L1092.7594,470.0156 Q1092.7594,470.625 1092.525,470.8906 Q1092.2906,471.1563 1091.9156,471.1563 Q1091.5719,471.1563 1091.3688,470.9531 Q1091.1656,470.7656 1091.0563,470.25 Q1091.0094,469.8906 1090.8219,469.7031 Q1090.4938,469.3281 1089.8844,469.1094 Q1089.275,468.8906 1088.65,468.8906 Q1087.8844,468.8906 1087.2438,469.2188 Q1086.6188,469.5469 1086.1188,470.2969 Q1085.6344,471.0469 1085.6344,472.0781 L1085.6344,473.1719 Q1085.6344,474.4063 1086.525,475.2344 Q1087.4156,476.0469 1089.0094,476.0469 Q1089.9469,476.0469 1090.6031,475.7969 Q1090.9938,475.6406 1091.4156,475.2031 Q1091.6813,474.9375 1091.8219,474.8594 Q1091.9781,474.7813 1092.1813,474.7813 Q1092.5094,474.7813 1092.7594,475.0469 Q1093.025,475.2969 1093.025,475.6406 Q1093.025,475.9844 1092.6813,476.3906 Q1092.1813,476.9688 1091.3844,477.2969 Q1090.3063,477.75 1089.0094,477.75 Q1087.4938,477.75 1086.2906,477.125 Q1085.3063,476.625 1084.6188,475.5625 Q1083.9313,474.4844 1083.9313,473.2031 L1083.9313,472.0469 Q1083.9313,470.7188 1084.5406,469.5781 Q1085.1656,468.4219 1086.2594,467.8125 Q1087.3531,467.1875 1088.5875,467.1875 Q1089.3219,467.1875 1089.9625,467.3594 Q1090.6188,467.5156 1091.1656,467.875 Z " fill="#000000"/><text fill="#000000" font-family="sans-serif" font-size="14" lengthAdjust="spacing" textLength="79" x="1102.6" y="477.7969">UserSession</text><line style="stroke:#181818;stroke-width:0.5;" x1="1073.5" x2="1184.5" y1="488" y2="488"/><line style="stroke:#181818;stroke-width:0.5;" x1="1073.5" x2="1184.5" y1="496" y2="496"/><text fill="#000000" font-family="sans-serif" font-size="14" lengthAdjust="spacing" textLength="101" x="1078.5" y="515.1074">+getUserEmail()</text></g><!--class Skill--><g id="elem_Skill"><rect codeLine="22" fill="#F1F1F1" height="66.6211" id="Skill" rx="2.5" ry="2.5" style="stroke:#181818;stroke-width:0.5;" width="97" x="371.5" y="906"/><ellipse cx="404.5" cy="922" fill="#ADD1B2" rx="11" ry="11" style="stroke:#181818;stroke-width:1.0;"/><path d="M407.2656,917.875 Q407.4219,917.6563 407.6094,917.5469 Q407.7969,917.4375 408.0156,917.4375 Q408.3906,917.4375 408.625,917.7031 Q408.8594,917.9531 408.8594,918.5625 L408.8594,920.0156 Q408.8594,920.625 408.625,920.8906 Q408.3906,921.1563 408.0156,921.1563 Q407.6719,921.1563 407.4688,920.9531 Q407.2656,920.7656 407.1563,920.25 Q407.1094,919.8906 406.9219,919.7031 Q406.5938,919.3281 405.9844,919.1094 Q405.375,918.8906 404.75,918.8906 Q403.9844,918.8906 403.3438,919.2188 Q402.7188,919.5469 402.2188,920.2969 Q401.7344,921.0469 401.7344,922.0781 L401.7344,923.1719 Q401.7344,924.4063 402.625,925.2344 Q403.5156,926.0469 405.1094,926.0469 Q406.0469,926.0469 406.7031,925.7969 Q407.0938,925.6406 407.5156,925.2031 Q407.7813,924.9375 407.9219,924.8594 Q408.0781,924.7813 408.2813,924.7813 Q408.6094,924.7813 408.8594,925.0469 Q409.125,925.2969 409.125,925.6406 Q409.125,925.9844 408.7813,926.3906 Q408.2813,926.9688 407.4844,927.2969 Q406.4063,927.75 405.1094,927.75 Q403.5938,927.75 402.3906,927.125 Q401.4063,926.625 400.7188,925.5625 Q400.0313,924.4844 400.0313,923.2031 L400.0313,922.0469 Q400.0313,920.7188 400.6406,919.5781 Q401.2656,918.4219 402.3594,917.8125 Q403.4531,917.1875 404.6875,917.1875 Q405.4219,917.1875 406.0625,917.3594 Q406.7188,917.5156 407.2656,917.875 Z " fill="#000000"/><text fill="#000000" font-family="sans-serif" font-size="14" lengthAdjust="spacing" textLength="25" x="422.5" y="927.7969">Skill</text><line style="stroke:#181818;stroke-width:0.5;" x1="372.5" x2="467.5" y1="938" y2="938"/><text fill="#000000" font-family="sans-serif" font-size="14" lengthAdjust="spacing" textLength="85" x="377.5" y="957.1074">-name: String</text><line style="stroke:#181818;stroke-width:0.5;" x1="372.5" x2="467.5" y1="964.6211" y2="964.6211"/></g><!--class SkillRepository--><g id="elem_SkillRepository"><rect codeLine="26" fill="#F1F1F1" height="196.9688" id="SkillRepository" rx="2.5" ry="2.5" style="stroke:#181818;stroke-width:0.5;" width="269" x="228.5" y="391"/><ellipse cx="312.25" cy="407" fill="#ADD1B2" rx="11" ry="11" style="stroke:#181818;stroke-width:1.0;"/><path d="M315.0156,402.875 Q315.1719,402.6563 315.3594,402.5469 Q315.5469,402.4375 315.7656,402.4375 Q316.1406,402.4375 316.375,402.7031 Q316.6094,402.9531 316.6094,403.5625 L316.6094,405.0156 Q316.6094,405.625 316.375,405.8906 Q316.1406,406.1563 315.7656,406.1563 Q315.4219,406.1563 315.2188,405.9531 Q315.0156,405.7656 314.9063,405.25 Q314.8594,404.8906 314.6719,404.7031 Q314.3438,404.3281 313.7344,404.1094 Q313.125,403.8906 312.5,403.8906 Q311.7344,403.8906 311.0938,404.2188 Q310.4688,404.5469 309.9688,405.2969 Q309.4844,406.0469 309.4844,407.0781 L309.4844,408.1719 Q309.4844,409.4063 310.375,410.2344 Q311.2656,411.0469 312.8594,411.0469 Q313.7969,411.0469 314.4531,410.7969 Q314.8438,410.6406 315.2656,410.2031 Q315.5313,409.9375 315.6719,409.8594 Q315.8281,409.7813 316.0313,409.7813 Q316.3594,409.7813 316.6094,410.0469 Q316.875,410.2969 316.875,410.6406 Q316.875,410.9844 316.5313,411.3906 Q316.0313,411.9688 315.2344,412.2969 Q314.1563,412.75 312.8594,412.75 Q311.3438,412.75 310.1406,412.125 Q309.1563,411.625 308.4688,410.5625 Q307.7813,409.4844 307.7813,408.2031 L307.7813,407.0469 Q307.7813,405.7188 308.3906,404.5781 Q309.0156,403.4219 310.1094,402.8125 Q311.2031,402.1875 312.4375,402.1875 Q313.1719,402.1875 313.8125,402.3594 Q314.4688,402.5156 315.0156,402.875 Z " fill="#000000"/><text fill="#000000" font-family="sans-serif" font-size="14" lengthAdjust="spacing" textLength="93" x="332.75" y="412.7969">SkillRepository</text><line style="stroke:#181818;stroke-width:0.5;" x1="229.5" x2="496.5" y1="423" y2="423"/><text fill="#000000" font-family="sans-serif" font-size="14" lengthAdjust="spacing" textLength="102" x="234.5" y="442.1074">-List&lt;Skill&gt; skills</text><line style="stroke:#181818;stroke-width:0.5;" x1="229.5" x2="496.5" y1="449.6211" y2="449.6211"/><text fill="#000000" font-family="sans-serif" font-size="14" lengthAdjust="spacing" textLength="199" x="234.5" y="468.7285">+boolean validateSkill(Skill skill)</text><text fill="#000000" font-family="sans-serif" font-size="14" lengthAdjust="spacing" textLength="243" x="234.5" y="487.3496">+boolean skillsDoNotContain(Skill skill)</text><text fill="#000000" font-family="sans-serif" font-size="14" lengthAdjust="spacing" textLength="192" x="234.5" y="505.9707">+Optional&lt;Skill&gt; add(Skill skill)</text><text fill="#000000" font-family="sans-serif" font-size="14" lengthAdjust="spacing" textLength="257" x="234.5" y="524.5918">+Optional&lt;Skill&gt; createSkill(String name)</text><text fill="#000000" font-family="sans-serif" font-size="14" lengthAdjust="spacing" textLength="137" x="234.5" y="543.2129">+List&lt;Skill&gt; getSkills()</text><text fill="#000000" font-family="sans-serif" font-size="14" lengthAdjust="spacing" textLength="220" x="234.5" y="561.834">+Skill getSkillByName(String name)</text><text fill="#000000" font-family="sans-serif" font-size="14" lengthAdjust="spacing" textLength="174" x="234.5" y="580.4551">+boolean addSkill(Skill skill)</text></g><!--class Organization--><g id="elem_Organization"><rect codeLine="37" fill="#F1F1F1" height="159.7266" id="Organization" rx="2.5" ry="2.5" style="stroke:#181818;stroke-width:0.5;" width="180" x="243" y="667"/><ellipse cx="288.75" cy="683" fill="#ADD1B2" rx="11" ry="11" style="stroke:#181818;stroke-width:1.0;"/><path d="M291.5156,678.875 Q291.6719,678.6563 291.8594,678.5469 Q292.0469,678.4375 292.2656,678.4375 Q292.6406,678.4375 292.875,678.7031 Q293.1094,678.9531 293.1094,679.5625 L293.1094,681.0156 Q293.1094,681.625 292.875,681.8906 Q292.6406,682.1563 292.2656,682.1563 Q291.9219,682.1563 291.7188,681.9531 Q291.5156,681.7656 291.4063,681.25 Q291.3594,680.8906 291.1719,680.7031 Q290.8438,680.3281 290.2344,680.1094 Q289.625,679.8906 289,679.8906 Q288.2344,679.8906 287.5938,680.2188 Q286.9688,680.5469 286.4688,681.2969 Q285.9844,682.0469 285.9844,683.0781 L285.9844,684.1719 Q285.9844,685.4063 286.875,686.2344 Q287.7656,687.0469 289.3594,687.0469 Q290.2969,687.0469 290.9531,686.7969 Q291.3438,686.6406 291.7656,686.2031 Q292.0313,685.9375 292.1719,685.8594 Q292.3281,685.7813 292.5313,685.7813 Q292.8594,685.7813 293.1094,686.0469 Q293.375,686.2969 293.375,686.6406 Q293.375,686.9844 293.0313,687.3906 Q292.5313,687.9688 291.7344,688.2969 Q290.6563,688.75 289.3594,688.75 Q287.8438,688.75 286.6406,688.125 Q285.6563,687.625 284.9688,686.5625 Q284.2813,685.4844 284.2813,684.2031 L284.2813,683.0469 Q284.2813,681.7188 284.8906,680.5781 Q285.5156,679.4219 286.6094,678.8125 Q287.7031,678.1875 288.9375,678.1875 Q289.6719,678.1875 290.3125,678.3594 Q290.9688,678.5156 291.5156,678.875 Z " fill="#000000"/><text fill="#000000" font-family="sans-serif" font-size="14" lengthAdjust="spacing" textLength="80" x="309.25" y="688.7969">Organization</text><line style="stroke:#181818;stroke-width:0.5;" x1="244" x2="422" y1="699" y2="699"/><text fill="#000000" font-family="sans-serif" font-size="14" lengthAdjust="spacing" textLength="81" x="249" y="718.1074">-String name</text><text fill="#000000" font-family="sans-serif" font-size="14" lengthAdjust="spacing" textLength="114" x="249" y="736.7285">-String vatNumber</text><text fill="#000000" font-family="sans-serif" font-size="14" lengthAdjust="spacing" textLength="97" x="249" y="755.3496">-String address</text><text fill="#000000" font-family="sans-serif" font-size="14" lengthAdjust="spacing" textLength="86" x="249" y="773.9707">-String phone</text><text fill="#000000" font-family="sans-serif" font-size="14" lengthAdjust="spacing" textLength="79" x="249" y="792.5918">-String email</text><line style="stroke:#181818;stroke-width:0.5;" x1="244" x2="422" y1="800.1055" y2="800.1055"/><text fill="#000000" font-family="sans-serif" font-size="14" lengthAdjust="spacing" textLength="168" x="249" y="819.2129">+boolean equals(Object o)</text></g><!--class OrganizationRepository--><g id="elem_OrganizationRepository"><rect codeLine="46" fill="#F1F1F1" height="141.1055" id="OrganizationRepository" rx="2.5" ry="2.5" style="stroke:#181818;stroke-width:0.5;" width="437" x="532.5" y="419"/><ellipse cx="672.75" cy="435" fill="#ADD1B2" rx="11" ry="11" style="stroke:#181818;stroke-width:1.0;"/><path d="M675.5156,430.875 Q675.6719,430.6563 675.8594,430.5469 Q676.0469,430.4375 676.2656,430.4375 Q676.6406,430.4375 676.875,430.7031 Q677.1094,430.9531 677.1094,431.5625 L677.1094,433.0156 Q677.1094,433.625 676.875,433.8906 Q676.6406,434.1563 676.2656,434.1563 Q675.9219,434.1563 675.7188,433.9531 Q675.5156,433.7656 675.4063,433.25 Q675.3594,432.8906 675.1719,432.7031 Q674.8438,432.3281 674.2344,432.1094 Q673.625,431.8906 673,431.8906 Q672.2344,431.8906 671.5938,432.2188 Q670.9688,432.5469 670.4688,433.2969 Q669.9844,434.0469 669.9844,435.0781 L669.9844,436.1719 Q669.9844,437.4063 670.875,438.2344 Q671.7656,439.0469 673.3594,439.0469 Q674.2969,439.0469 674.9531,438.7969 Q675.3438,438.6406 675.7656,438.2031 Q676.0313,437.9375 676.1719,437.8594 Q676.3281,437.7813 676.5313,437.7813 Q676.8594,437.7813 677.1094,438.0469 Q677.375,438.2969 677.375,438.6406 Q677.375,438.9844 677.0313,439.3906 Q676.5313,439.9688 675.7344,440.2969 Q674.6563,440.75 673.3594,440.75 Q671.8438,440.75 670.6406,440.125 Q669.6563,439.625 668.9688,438.5625 Q668.2813,437.4844 668.2813,436.2031 L668.2813,435.0469 Q668.2813,433.7188 668.8906,432.5781 Q669.5156,431.4219 670.6094,430.8125 Q671.7031,430.1875 672.9375,430.1875 Q673.6719,430.1875 674.3125,430.3594 Q674.9688,430.5156 675.5156,430.875 Z " fill="#000000"/><text fill="#000000" font-family="sans-serif" font-size="14" lengthAdjust="spacing" textLength="148" x="693.25" y="440.7969">OrganizationRepository</text><line style="stroke:#181818;stroke-width:0.5;" x1="533.5" x2="968.5" y1="451" y2="451"/><line style="stroke:#181818;stroke-width:0.5;" x1="533.5" x2="968.5" y1="459" y2="459"/><text fill="#000000" font-family="sans-serif" font-size="14" lengthAdjust="spacing" textLength="375" x="538.5" y="478.1074">+Optional&lt;Organization&gt; getOrganizationByHRM(HRM hrm)</text><text fill="#000000" font-family="sans-serif" font-size="14" lengthAdjust="spacing" textLength="371" x="538.5" y="496.7285">+Optional&lt;Organization&gt; getOrganizationByVFM(VFM vfm)</text><text fill="#000000" font-family="sans-serif" font-size="14" lengthAdjust="spacing" textLength="425" x="538.5" y="515.3496">+Optional&lt;Organization&gt; getOrganizationByHRMEmail(String email)</text><text fill="#000000" font-family="sans-serif" font-size="14" lengthAdjust="spacing" textLength="356" x="538.5" y="533.9707">+Optional&lt;Organization&gt; add(Organization organization)</text><text fill="#000000" font-family="sans-serif" font-size="14" lengthAdjust="spacing" textLength="363" x="538.5" y="552.5918">+boolean validateOrganization(Organization organization)</text></g><!--class Repositories--><g id="elem_Repositories"><rect codeLine="54" fill="#F1F1F1" height="103.8633" id="Repositories" rx="2.5" ry="2.5" style="stroke:#181818;stroke-width:0.5;" width="358" x="236" y="208"/><ellipse cx="371.25" cy="224" fill="#ADD1B2" rx="11" ry="11" style="stroke:#181818;stroke-width:1.0;"/><path d="M374.0156,219.875 Q374.1719,219.6563 374.3594,219.5469 Q374.5469,219.4375 374.7656,219.4375 Q375.1406,219.4375 375.375,219.7031 Q375.6094,219.9531 375.6094,220.5625 L375.6094,222.0156 Q375.6094,222.625 375.375,222.8906 Q375.1406,223.1563 374.7656,223.1563 Q374.4219,223.1563 374.2188,222.9531 Q374.0156,222.7656 373.9063,222.25 Q373.8594,221.8906 373.6719,221.7031 Q373.3438,221.3281 372.7344,221.1094 Q372.125,220.8906 371.5,220.8906 Q370.7344,220.8906 370.0938,221.2188 Q369.4688,221.5469 368.9688,222.2969 Q368.4844,223.0469 368.4844,224.0781 L368.4844,225.1719 Q368.4844,226.4063 369.375,227.2344 Q370.2656,228.0469 371.8594,228.0469 Q372.7969,228.0469 373.4531,227.7969 Q373.8438,227.6406 374.2656,227.2031 Q374.5313,226.9375 374.6719,226.8594 Q374.8281,226.7813 375.0313,226.7813 Q375.3594,226.7813 375.6094,227.0469 Q375.875,227.2969 375.875,227.6406 Q375.875,227.9844 375.5313,228.3906 Q375.0313,228.9688 374.2344,229.2969 Q373.1563,229.75 371.8594,229.75 Q370.3438,229.75 369.1406,229.125 Q368.1563,228.625 367.4688,227.5625 Q366.7813,226.4844 366.7813,225.2031 L366.7813,224.0469 Q366.7813,222.7188 367.3906,221.5781 Q368.0156,220.4219 369.1094,219.8125 Q370.2031,219.1875 371.4375,219.1875 Q372.1719,219.1875 372.8125,219.3594 Q373.4688,219.5156 374.0156,219.875 Z " fill="#000000"/><text fill="#000000" font-family="sans-serif" font-size="14" lengthAdjust="spacing" textLength="79" x="391.75" y="229.7969">Repositories</text><line style="stroke:#181818;stroke-width:0.5;" x1="237" x2="593" y1="240" y2="240"/><line style="stroke:#181818;stroke-width:0.5;" x1="237" x2="593" y1="248" y2="248"/><text fill="#000000" font-family="sans-serif" font-size="14" lengthAdjust="spacing" textLength="182" x="242" y="267.1074">+getInstance() : Repositories</text><text fill="#000000" font-family="sans-serif" font-size="14" lengthAdjust="spacing" textLength="236" x="242" y="285.7285">+getSkillRepository() : SkillRepository</text><text fill="#000000" font-family="sans-serif" font-size="14" lengthAdjust="spacing" textLength="346" x="242" y="304.3496">+getOrganizationRepository() : OrganizationRepository</text></g><!--class CreateSkillController--><g id="elem_CreateSkillController"><rect codeLine="60" fill="#F1F1F1" height="122.4844" id="CreateSkillController" rx="2.5" ry="2.5" style="stroke:#181818;stroke-width:0.5;" width="456" x="515" y="7"/><ellipse cx="673.75" cy="23" fill="#ADD1B2" rx="11" ry="11" style="stroke:#181818;stroke-width:1.0;"/><path d="M676.5156,18.875 Q676.6719,18.6563 676.8594,18.5469 Q677.0469,18.4375 677.2656,18.4375 Q677.6406,18.4375 677.875,18.7031 Q678.1094,18.9531 678.1094,19.5625 L678.1094,21.0156 Q678.1094,21.625 677.875,21.8906 Q677.6406,22.1563 677.2656,22.1563 Q676.9219,22.1563 676.7188,21.9531 Q676.5156,21.7656 676.4063,21.25 Q676.3594,20.8906 676.1719,20.7031 Q675.8438,20.3281 675.2344,20.1094 Q674.625,19.8906 674,19.8906 Q673.2344,19.8906 672.5938,20.2188 Q671.9688,20.5469 671.4688,21.2969 Q670.9844,22.0469 670.9844,23.0781 L670.9844,24.1719 Q670.9844,25.4063 671.875,26.2344 Q672.7656,27.0469 674.3594,27.0469 Q675.2969,27.0469 675.9531,26.7969 Q676.3438,26.6406 676.7656,26.2031 Q677.0313,25.9375 677.1719,25.8594 Q677.3281,25.7813 677.5313,25.7813 Q677.8594,25.7813 678.1094,26.0469 Q678.375,26.2969 678.375,26.6406 Q678.375,26.9844 678.0313,27.3906 Q677.5313,27.9688 676.7344,28.2969 Q675.6563,28.75 674.3594,28.75 Q672.8438,28.75 671.6406,28.125 Q670.6563,27.625 669.9688,26.5625 Q669.2813,25.4844 669.2813,24.2031 L669.2813,23.0469 Q669.2813,21.7188 669.8906,20.5781 Q670.5156,19.4219 671.6094,18.8125 Q672.7031,18.1875 673.9375,18.1875 Q674.6719,18.1875 675.3125,18.3594 Q675.9688,18.5156 676.5156,18.875 Z " fill="#000000"/><text fill="#000000" font-family="sans-serif" font-size="14" lengthAdjust="spacing" textLength="130" x="694.25" y="28.7969">CreateSkillController</text><line style="stroke:#181818;stroke-width:0.5;" x1="516" x2="970" y1="39" y2="39"/><text fill="#000000" font-family="sans-serif" font-size="14" lengthAdjust="spacing" textLength="192" x="521" y="58.1074">SkillRepository skillRepository,</text><line style="stroke:#181818;stroke-width:0.5;" x1="516" x2="970" y1="65.6211" y2="65.6211"/><text fill="#000000" font-family="sans-serif" font-size="14" lengthAdjust="spacing" textLength="444" x="521" y="84.7285">+CreateSkillController(OrganizationRepository organizationRepository,</text><text fill="#000000" font-family="sans-serif" font-size="14" lengthAdjust="spacing" textLength="324" x="521" y="103.3496">AuthenticationRepository authenticationRepository)</text><text fill="#000000" font-family="sans-serif" font-size="14" lengthAdjust="spacing" textLength="257" x="521" y="121.9707">+Optional&lt;Skill&gt; createSkill(String name)</text></g><!--class CreateSkillUI--><g id="elem_CreateSkillUI"><rect codeLine="67" fill="#F1F1F1" height="66.6211" id="CreateSkillUI" rx="2.5" ry="2.5" style="stroke:#181818;stroke-width:0.5;" width="139" x="340.5" y="34.5"/><ellipse cx="367.65" cy="50.5" fill="#ADD1B2" rx="11" ry="11" style="stroke:#181818;stroke-width:1.0;"/><path d="M370.4156,46.375 Q370.5719,46.1563 370.7594,46.0469 Q370.9469,45.9375 371.1656,45.9375 Q371.5406,45.9375 371.775,46.2031 Q372.0094,46.4531 372.0094,47.0625 L372.0094,48.5156 Q372.0094,49.125 371.775,49.3906 Q371.5406,49.6563 371.1656,49.6563 Q370.8219,49.6563 370.6188,49.4531 Q370.4156,49.2656 370.3063,48.75 Q370.2594,48.3906 370.0719,48.2031 Q369.7438,47.8281 369.1344,47.6094 Q368.525,47.3906 367.9,47.3906 Q367.1344,47.3906 366.4938,47.7188 Q365.8688,48.0469 365.3688,48.7969 Q364.8844,49.5469 364.8844,50.5781 L364.8844,51.6719 Q364.8844,52.9063 365.775,53.7344 Q366.6656,54.5469 368.2594,54.5469 Q369.1969,54.5469 369.8531,54.2969 Q370.2438,54.1406 370.6656,53.7031 Q370.9313,53.4375 371.0719,53.3594 Q371.2281,53.2813 371.4313,53.2813 Q371.7594,53.2813 372.0094,53.5469 Q372.275,53.7969 372.275,54.1406 Q372.275,54.4844 371.9313,54.8906 Q371.4313,55.4688 370.6344,55.7969 Q369.5563,56.25 368.2594,56.25 Q366.7438,56.25 365.5406,55.625 Q364.5563,55.125 363.8688,54.0625 Q363.1813,52.9844 363.1813,51.7031 L363.1813,50.5469 Q363.1813,49.2188 363.7906,48.0781 Q364.4156,46.9219 365.5094,46.3125 Q366.6031,45.6875 367.8375,45.6875 Q368.5719,45.6875 369.2125,45.8594 Q369.8688,46.0156 370.4156,46.375 Z " fill="#000000"/><text fill="#000000" font-family="sans-serif" font-size="14" lengthAdjust="spacing" textLength="80" x="384.35" y="56.2969">CreateSkillUI</text><line style="stroke:#181818;stroke-width:0.5;" x1="341.5" x2="478.5" y1="66.5" y2="66.5"/><line style="stroke:#181818;stroke-width:0.5;" x1="341.5" x2="478.5" y1="74.5" y2="74.5"/><text fill="#000000" font-family="sans-serif" font-size="14" lengthAdjust="spacing" textLength="127" x="346.5" y="93.6074">+requestSkillName()</text></g><!--class HRM--><g id="elem_HRM"><rect codeLine="71" fill="#F1F1F1" height="122.4844" id="HRM" rx="2.5" ry="2.5" style="stroke:#181818;stroke-width:0.5;" width="124" x="252" y="1052"/><ellipse cx="294.9" cy="1068" fill="#ADD1B2" rx="11" ry="11" style="stroke:#181818;stroke-width:1.0;"/><path d="M297.6656,1063.875 Q297.8219,1063.6563 298.0094,1063.5469 Q298.1969,1063.4375 298.4156,1063.4375 Q298.7906,1063.4375 299.025,1063.7031 Q299.2594,1063.9531 299.2594,1064.5625 L299.2594,1066.0156 Q299.2594,1066.625 299.025,1066.8906 Q298.7906,1067.1563 298.4156,1067.1563 Q298.0719,1067.1563 297.8688,1066.9531 Q297.6656,1066.7656 297.5563,1066.25 Q297.5094,1065.8906 297.3219,1065.7031 Q296.9938,1065.3281 296.3844,1065.1094 Q295.775,1064.8906 295.15,1064.8906 Q294.3844,1064.8906 293.7438,1065.2188 Q293.1188,1065.5469 292.6188,1066.2969 Q292.1344,1067.0469 292.1344,1068.0781 L292.1344,1069.1719 Q292.1344,1070.4063 293.025,1071.2344 Q293.9156,1072.0469 295.5094,1072.0469 Q296.4469,1072.0469 297.1031,1071.7969 Q297.4938,1071.6406 297.9156,1071.2031 Q298.1813,1070.9375 298.3219,1070.8594 Q298.4781,1070.7813 298.6813,1070.7813 Q299.0094,1070.7813 299.2594,1071.0469 Q299.525,1071.2969 299.525,1071.6406 Q299.525,1071.9844 299.1813,1072.3906 Q298.6813,1072.9688 297.8844,1073.2969 Q296.8063,1073.75 295.5094,1073.75 Q293.9938,1073.75 292.7906,1073.125 Q291.8063,1072.625 291.1188,1071.5625 Q290.4313,1070.4844 290.4313,1069.2031 L290.4313,1068.0469 Q290.4313,1066.7188 291.0406,1065.5781 Q291.6656,1064.4219 292.7594,1063.8125 Q293.8531,1063.1875 295.0875,1063.1875 Q295.8219,1063.1875 296.4625,1063.3594 Q297.1188,1063.5156 297.6656,1063.875 Z " fill="#000000"/><text fill="#000000" font-family="sans-serif" font-size="14" lengthAdjust="spacing" textLength="30" x="315.1" y="1073.7969">HRM</text><line style="stroke:#181818;stroke-width:0.5;" x1="253" x2="375" y1="1084" y2="1084"/><text fill="#000000" font-family="sans-serif" font-size="14" lengthAdjust="spacing" textLength="81" x="258" y="1103.1074">-String name</text><text fill="#000000" font-family="sans-serif" font-size="14" lengthAdjust="spacing" textLength="92" x="258" y="1121.7285">-int vatNumber</text><text fill="#000000" font-family="sans-serif" font-size="14" lengthAdjust="spacing" textLength="79" x="258" y="1140.3496">-String email</text><text fill="#000000" font-family="sans-serif" font-size="14" lengthAdjust="spacing" textLength="112" x="258" y="1158.9707">-int phonenumber</text><line style="stroke:#181818;stroke-width:0.5;" x1="253" x2="375" y1="1166.4844" y2="1166.4844"/></g><g id="elem_GMN12"><path d="M1006,45.5 L1006,64 L971.2,68 L1006,72 L1006,90.082 A0,0 0 0 0 1006,90.082 L1288,90.082 A0,0 0 0 0 1288,90.082 L1288,55.5 L1278,45.5 L1006,45.5 A0,0 0 0 0 1006,45.5 " fill="#FEFFDD" style="stroke:#181818;stroke-width:0.5;"/><path d="M1278,45.5 L1278,55.5 L1288,55.5 L1278,45.5 " fill="#FEFFDD" style="stroke:#181818;stroke-width:0.5;"/><text fill="#000000" font-family="sans-serif" font-size="13" lengthAdjust="spacing" textLength="261" x="1012" y="64.5283">- Skill name is obtained from the HRM's input</text><text fill="#000000" font-family="sans-serif" font-size="13" lengthAdjust="spacing" textLength="173" x="1012" y="81.8193">- Updates the Skill Repository</text></g><g id="elem_GMN15"><path d="M411,1099.5 L411,1126.791 L595,1126.791 L595,1109.5 L585,1099.5 L411,1099.5 " fill="#FEFFDD" style="stroke:#181818;stroke-width:0.5;"/><path d="M585,1099.5 L585,1109.5 L595,1109.5 L585,1099.5 " fill="#FEFFDD" style="stroke:#181818;stroke-width:1.0;"/><text fill="#000000" font-family="sans-serif" font-size="13" lengthAdjust="spacing" textLength="163" x="417" y="1118.5283">- HRM initiates skill creation</text></g><g id="elem_GMN18"><path d="M32.5,45.5 L32.5,90.082 L305.5,90.082 L305.5,55.5 L295.5,45.5 L32.5,45.5 " fill="#FEFFDD" style="stroke:#181818;stroke-width:0.5;"/><path d="M295.5,45.5 L295.5,55.5 L305.5,55.5 L295.5,45.5 " fill="#FEFFDD" style="stroke:#181818;stroke-width:1.0;"/><text fill="#000000" font-family="sans-serif" font-size="13" lengthAdjust="spacing" textLength="252" x="38.5" y="64.5283">- UI for HRM to input and confirm skill name</text><text fill="#000000" font-family="sans-serif" font-size="13" lengthAdjust="spacing" textLength="244" x="38.5" y="81.8193">- Communicates with CreateSkillController</text></g><g id="elem_GMN21"><path d="M6,724.5 L6,769.082 A0,0 0 0 0 6,769.082 L208,769.082 A0,0 0 0 0 208,769.082 L208,751 L242.91,747 L208,743 L208,734.5 L198,724.5 L6,724.5 A0,0 0 0 0 6,724.5 " fill="#FEFFDD" style="stroke:#181818;stroke-width:0.5;"/><path d="M198,724.5 L198,734.5 L208,734.5 L198,724.5 " fill="#FEFFDD" style="stroke:#181818;stroke-width:0.5;"/><text fill="#000000" font-family="sans-serif" font-size="13" lengthAdjust="spacing" textLength="95" x="12" y="743.5283">- Manages skills</text><text fill="#000000" font-family="sans-serif" font-size="13" lengthAdjust="spacing" textLength="181" x="12" y="760.8193">- Handles organizational details</text></g><!--link HRM to GMN15--><g id="link_HRM_GMN15"><path d="M376.29,1113 C376.75,1113 377,1113 377,1113 C377,1113 394.26,1113 410.71,1113 " fill="none" id="HRM-GMN15" style="stroke:#181818;stroke-width:1.0;stroke-dasharray:7.0,7.0;"/></g><!--link GMN18 to CreateSkillUI--><g id="link_GMN18_CreateSkillUI"><path d="M305.56,68 C319.06,68 329.67,68 329.67,68 C329.67,68 333.79,68 340.17,68 " fill="none" id="GMN18-CreateSkillUI" style="stroke:#181818;stroke-width:1.0;stroke-dasharray:7.0,7.0;"/></g><!--link Repositories to Repositories--><g id="link_Repositories_Repositories"><path codeLine="97" d="M594.13,245.55 C615.24,248.2 629,253.01 629,260 C629,266.99 621.1933,271.0527 600.0833,273.7027 " fill="none" id="Repositories-to-Repositories" style="stroke:#181818;stroke-width:1.0;"/><polygon fill="#181818" points="594.13,274.45,603.5581,277.2979,599.0911,273.8272,602.5617,269.3602,594.13,274.45" style="stroke:#181818;stroke-width:1.0;"/><text fill="#000000" font-family="sans-serif" font-size="13" lengthAdjust="spacing" textLength="49" x="635" y="265.5283">instance</text></g><!--link ApplicationSession to ApplicationSession--><g id="link_ApplicationSession_ApplicationSession"><path codeLine="98" d="M1063.66,243.29 C1083.5,244.28 1098.5,249.85 1098.5,260 C1098.5,270.15 1089.4925,275.421 1069.6525,276.411 " fill="none" id="ApplicationSession-to-ApplicationSession" style="stroke:#181818;stroke-width:1.0;"/><polygon fill="#181818" points="1063.66,276.71,1072.8482,280.2565,1068.6538,276.4608,1072.4495,272.2664,1063.66,276.71" style="stroke:#181818;stroke-width:1.0;"/><text fill="#000000" font-family="sans-serif" font-size="13" lengthAdjust="spacing" textLength="49" x="1104.5" y="265.5283">instance</text></g><!--link CreateSkillUI to CreateSkillController--><g id="link_CreateSkillUI_CreateSkillController"><path codeLine="100" d="M479.67,68 C494.3,68 501.53,68 508.89,68 " fill="none" id="CreateSkillUI-to-CreateSkillController" style="stroke:#181818;stroke-width:1.0;stroke-dasharray:7.0,7.0;"/><polygon fill="#181818" points="514.89,68,505.89,64,509.89,68,505.89,72,514.89,68" style="stroke:#181818;stroke-width:1.0;"/></g><!--link CreateSkillController to Repositories--><g id="link_CreateSkillController_Repositories"><path codeLine="102" d="M639.22,129.12 C595.49,154.45 550.3114,180.6117 508.4114,204.8917 " fill="none" id="CreateSkillController-to-Repositories" style="stroke:#181818;stroke-width:1.0;"/><polygon fill="#181818" points="503.22,207.9,513.0126,206.8485,507.5461,205.3931,509.0015,199.9267,503.22,207.9" style="stroke:#181818;stroke-width:1.0;"/><text fill="#000000" font-family="sans-serif" font-size="13" lengthAdjust="spacing" textLength="108" x="580" y="174.0283">retrieves instances</text></g><!--link Repositories to SkillRepository--><g id="link_Repositories_SkillRepository"><path codeLine="104" d="M403.33,312.06 C398,335.37 392.8369,357.9608 386.6269,385.1308 " fill="none" id="Repositories-to-SkillRepository" style="stroke:#181818;stroke-width:1.0;"/><polygon fill="#181818" points="385.29,390.98,391.1948,383.0975,386.4041,386.1057,383.3959,381.315,385.29,390.98" style="stroke:#181818;stroke-width:1.0;"/><text fill="#000000" font-family="sans-serif" font-size="13" lengthAdjust="spacing" textLength="56" x="397" y="357.0283">accesses</text></g><!--link Repositories to OrganizationRepository--><g id="link_Repositories_OrganizationRepository"><path codeLine="105" d="M490.4,312.06 C536.94,343.56 592.2814,381.0365 643.1714,415.4865 " fill="none" id="Repositories-to-OrganizationRepository" style="stroke:#181818;stroke-width:1.0;"/><polygon fill="#181818" points="648.14,418.85,642.9294,410.4924,643.9995,416.0471,638.4448,417.1172,648.14,418.85" style="stroke:#181818;stroke-width:1.0;"/><text fill="#000000" font-family="sans-serif" font-size="13" lengthAdjust="spacing" textLength="56" x="554" y="357.0283">accesses</text></g><!--link CreateSkillController to OrganizationRepository--><g id="link_CreateSkillController_OrganizationRepository"><path codeLine="107" d="M744.15,129.1 C745.61,205.68 748.0159,331.7811 749.5559,412.7211 " fill="none" id="CreateSkillController-to-OrganizationRepository" style="stroke:#181818;stroke-width:1.0;stroke-dasharray:7.0,7.0;"/><polygon fill="#181818" points="749.67,418.72,753.4981,409.6455,749.5749,413.7209,745.4995,409.7977,749.67,418.72" style="stroke:#181818;stroke-width:1.0;"/><text fill="#000000" font-family="sans-serif" font-size="13" lengthAdjust="spacing" textLength="132" x="749" y="265.5283">organizationRepository</text></g><!--link OrganizationRepository to Organization--><g id="link_OrganizationRepository_Organization"><path codeLine="109" d="M637.06,560.15 C569.73,601.3 490.8094,649.5408 428.1494,687.8408 " fill="none" id="OrganizationRepository-to-Organization" style="stroke:#181818;stroke-width:1.0;"/><polygon fill="#181818" points="423.03,690.97,432.7952,689.6892,427.2962,688.3624,428.623,682.8633,423.03,690.97" style="stroke:#181818;stroke-width:1.0;"/><text fill="#000000" font-family="sans-serif" font-size="13" lengthAdjust="spacing" textLength="46" x="543" y="633.0283">persists</text><text fill="#000000" font-family="sans-serif" font-size="13" lengthAdjust="spacing" textLength="5" x="430.9818" y="682.477">*</text></g><!--link ApplicationSession to UserSession--><g id="link_ApplicationSession_UserSession"><path codeLine="110" d="M1013.86,302.73 C1041.21,346.85 1080.6182,410.4507 1105.6182,450.7707 " fill="none" id="ApplicationSession-to-UserSession" style="stroke:#181818;stroke-width:1.0;"/><polygon fill="#181818" points="1108.78,455.87,1107.4369,446.1132,1106.1452,451.6206,1100.6378,450.3289,1108.78,455.87" style="stroke:#181818;stroke-width:1.0;"/><text fill="#000000" font-family="sans-serif" font-size="13" lengthAdjust="spacing" textLength="72" x="1047" y="357.0283">userSession</text><text fill="#000000" font-family="sans-serif" font-size="13" lengthAdjust="spacing" textLength="7" x="1097.1101" y="444.6699">1</text></g><!--link CreateSkillController to Organization--><g id="link_CreateSkillController_Organization"><path codeLine="112" d="M516.16,129.06 C374.17,166.65 218,208 218,208 C218,208 211,391 211,391 C211,391 211,588 211,588 C211,588 237.5933,622.4407 267.9733,661.7907 " fill="none" id="CreateSkillController-to-Organization" style="stroke:#181818;stroke-width:1.0;stroke-dasharray:7.0,7.0;"/><polygon fill="#181818" points="271.64,666.54,269.3062,656.9716,268.5845,662.5823,262.9738,661.8605,271.64,666.54" style="stroke:#181818;stroke-width:1.0;"/><text fill="#000000" font-family="sans-serif" font-size="13" lengthAdjust="spacing" textLength="70" x="214" y="357.0283">organization</text><text fill="#000000" font-family="sans-serif" font-size="13" lengthAdjust="spacing" textLength="7" x="258.8634" y="655.6705">1</text></g><!--link CreateSkillController to ApplicationSession--><g id="link_CreateSkillController_ApplicationSession"><path codeLine="113" d="M820.52,129.12 C857.53,157.82 896.1588,187.7729 929.4888,213.6229 " fill="none" id="CreateSkillController-to-ApplicationSession" style="stroke:#181818;stroke-width:1.0;stroke-dasharray:7.0,7.0;"/><polygon fill="#181818" points="934.23,217.3,929.5697,208.6235,930.279,214.2357,924.6668,214.9451,934.23,217.3" style="stroke:#181818;stroke-width:1.0;"/></g><!--link CreateSkillController to UserSession--><g id="link_CreateSkillController_UserSession"><path codeLine="114" d="M923.17,129.06 C1035.95,166.65 1160,208 1160,208 C1160,208 1160,312 1160,312 C1160,312 1144.7572,398.7603 1135.7972,449.8103 " fill="none" id="CreateSkillController-to-UserSession" style="stroke:#181818;stroke-width:1.0;stroke-dasharray:7.0,7.0;"/><polygon fill="#181818" points="1134.76,455.72,1140.2556,447.547,1135.6244,450.7953,1132.3761,446.164,1134.76,455.72" style="stroke:#181818;stroke-width:1.0;"/></g><!--link Organization to Skill--><g id="link_Organization_Skill"><path codeLine="115" d="M369.14,827.13 C381.75,854.74 392.7077,878.7421 402.6077,900.4221 " fill="none" id="Organization-to-Skill" style="stroke:#181818;stroke-width:1.0;"/><polygon fill="#181818" points="405.1,905.88,405.0001,896.0316,403.0231,901.3318,397.723,899.3547,405.1,905.88" style="stroke:#181818;stroke-width:1.0;"/><text fill="#000000" font-family="sans-serif" font-size="13" lengthAdjust="spacing" textLength="30" x="391" y="872.0283">owns</text><text fill="#000000" font-family="sans-serif" font-size="13" lengthAdjust="spacing" textLength="7" x="364.945" y="848.7992">1</text><text fill="#000000" font-family="sans-serif" font-size="13" lengthAdjust="spacing" textLength="5" x="396.6744" y="894.6819">*</text></g><!--link Skill to HRM--><g id="link_Skill_HRM"><path codeLine="116" d="M399.81,973.16 C386.12,995.32 370.7541,1020.1759 354.4341,1046.5859 " fill="none" id="Skill-to-HRM" style="stroke:#181818;stroke-width:1.0;"/><polygon fill="#181818" points="351.28,1051.69,359.4138,1046.1366,353.9084,1047.4366,352.6084,1041.9311,351.28,1051.69" style="stroke:#181818;stroke-width:1.0;"/><text fill="#000000" font-family="sans-serif" font-size="13" lengthAdjust="spacing" textLength="59" x="381" y="1018.0283">createdBy</text></g><!--link Organization to HRM--><g id="link_Organization_HRM"><path codeLine="118" d="M317.91,827.46 C310.44,866.81 303,906 303,906 C303,906 303,973 303,973 C303,973 305.7972,1008.2887 308.7672,1045.8587 " fill="none" id="Organization-to-HRM" style="stroke:#181818;stroke-width:1.0;"/><polygon fill="#181818" points="309.24,1051.84,312.5183,1042.5528,308.846,1046.8556,304.5432,1043.1832,309.24,1051.84" style="stroke:#181818;stroke-width:1.0;"/><text fill="#000000" font-family="sans-serif" font-size="13" lengthAdjust="spacing" textLength="49" x="304" y="945.0283">employs</text><text fill="#000000" font-family="sans-serif" font-size="13" lengthAdjust="spacing" textLength="5" x="303.4006" y="1040.8027">*</text></g><!--SRC=[bLPHRnen37xFhx3w0coZsbxHXDIoJKDQMwc8lOSx0rbpoIt9KT5f_trESa3kkACh4eBOtsSxZkraO9-4AhdX1HHQwMnhT87WJ8Nif2bvziGtk71xYM0mSrnjP0gmMvxhPw4siERIfXef5BfzYL1gkVSBDkXGQkCqIrYPvDRUE6V4gd8upxHQY1U4ZumD9AuTE0r6RBOESk734Len5ZXmKvPIPDoB5cYjr_nXG9_tO1s9CzYWcolwhp8SZceLoMQLCQXSJIBDtuF9fKNJjaK4B_vQS25JxE99I0aHDGR52vp0WhQXDYtC8vRQ2gVDFg37y4DOzpcefc3zZsNUqKfhYLp1ZakHSuS1COnk0cpKW4Nc5tsltKmhnuKwnpwKFZjS7hpnF7yTb1ayUGyR2hkBu3HsoapuPuTH5oqVfBVxUsATMpZ4Jx5qxF2OkWUpuKgyXEEjyvQOIjSxxkwhOeKc5P9rGmUPYigjLWqY-YDjn8I_AohguSFg5vKQw9vmMWUQP315XVoaWjlzzyUx8NrXQuhHcuW_lzqDwGkxzHk9v2qMRhhbYoPyYJHohvF5gBDGK_WbxZ6PnmGAj7KA6wqAamRa06XrKy2rP0Tezt45HhVg5DpiLFw-huoM4aqTPQTks5CRkbFy8GoCLpxjkM6Rw_-oSLEvBKsvUa8cndYFuetJe2jXotcTA4ETX3QUM1W32TvtG1YRxOucWL2kqS_dpLg3GZEh22FBIZkixmczxZwcsFbXrdX_82pebH-RcCEQhaAWhFZO1fOSb9KB-6Nf2zm6NUGc9OCg1- -uxPwC1BBVg532YM0Yd65CfxzUMkHmrpL3NyvZ27DOQnECqLqOGWDEPBefry8KjTtZK9pfegYKFrpo-IpSjYSRFVxJMWxsxhYYzu0zNLIqBt8lIPGME9UG8sMJ82VBZJuVJvjzFw6zn8PdvpUvHtT84mvhbjtrj6UVhBkVn_I8KUSX6QHgmntQeoFRtaPDRBVe17X6Q4k4JdpFa4XeFP5UNryWTyyOnde8OmhawjrLytATG8d6qhrkEm_2KpvTfKyZObJ9G-b2t9xOyfL6V87PyRZh1wVFjeOxx_-mvzY-5C2piYmklChtrQIUSlbjAtL7SaHXKKgzj-mV]--></g></svg>