<?xml version="1.0" encoding="us-ascii" standalone="no"?><svg xmlns="http://www.w3.org/2000/svg" xmlns:xlink="http://www.w3.org/1999/xlink" contentStyleType="text/css" height="933.3px" preserveAspectRatio="none" style="width:1072px;height:933px;background:#FFFFFF;" version="1.1" viewBox="0 0 1072 933" width="1072.8px" zoomAndPan="magnify"><defs/><g><rect fill="#FFFFFF" height="758.3801" style="stroke:#181818;stroke-width:0.9;" width="9" x="81.9" y="84.259"/><rect fill="#FFFFFF" height="208.2305" style="stroke:#181818;stroke-width:0.9;" width="9" x="360.9" y="105.2209"/><rect fill="#FFFFFF" height="28.1619" style="stroke:#181818;stroke-width:0.9;" width="9" x="360.9" y="341.6133"/><rect fill="#FFFFFF" height="444.702" style="stroke:#181818;stroke-width:0.9;" width="9" x="360.9" y="397.9371"/><rect fill="#FFFFFF" height="112.6477" style="stroke:#181818;stroke-width:0.9;" width="9" x="514.8" y="172.6418"/><rect fill="#FFFFFF" height="388.3781" style="stroke:#181818;stroke-width:0.9;" width="9" x="514.8" y="426.099"/><rect fill="#FFFFFF" height="81.4887" style="stroke:#181818;stroke-width:0.9;" width="9" x="519.3" y="483.9609"/><rect fill="#FFFFFF" height="28.1619" style="stroke:#181818;stroke-width:0.9;" width="9" x="671.4" y="200.8037"/><rect fill="#FFFFFF" height="28.1619" style="stroke:#181818;stroke-width:0.9;" width="9" x="767.7" y="257.1275"/><rect fill="#FFFFFF" height="163.9037" style="stroke:#181818;stroke-width:0.9;" width="9" x="870.3" y="622.4115"/><line style="stroke:#181818;stroke-width:0.45;stroke-dasharray:5.0,5.0;" x1="86.4" x2="86.4" y1="75.259" y2="858.8391"/><line style="stroke:#181818;stroke-width:0.45;stroke-dasharray:5.0,5.0;" x1="365.4" x2="365.4" y1="75.259" y2="858.8391"/><line style="stroke:#181818;stroke-width:0.45;stroke-dasharray:5.0,5.0;" x1="519.3" x2="519.3" y1="141.0504" y2="858.8391"/><line style="stroke:#181818;stroke-width:0.45;stroke-dasharray:5.0,5.0;" x1="675.45" x2="675.45" y1="75.259" y2="858.8391"/><line style="stroke:#181818;stroke-width:0.45;stroke-dasharray:5.0,5.0;" x1="771.75" x2="771.75" y1="75.259" y2="858.8391"/><line style="stroke:#181818;stroke-width:0.45;stroke-dasharray:5.0,5.0;" x1="874.35" x2="874.35" y1="75.259" y2="858.8391"/><line style="stroke:#181818;stroke-width:0.45;stroke-dasharray:5.0,5.0;" x1="1047.6" x2="1047.6" y1="666.6205" y2="858.8391"/><text fill="#000000" font-family="sans-serif" font-size="12.6" lengthAdjust="spacing" textLength="158.4" x="4.5" y="72.0967">Human Resources Manager</text><ellipse cx="86.4" cy="12.15" fill="#E3E3E3" rx="7.2" ry="7.2" style="stroke:#181818;stroke-width:0.45;"/><path d="M86.4,19.35 L86.4,43.65 M74.7,26.55 L98.1,26.55 M86.4,43.65 L74.7,57.15 M86.4,43.65 L98.1,57.15 " fill="none" style="stroke:#181818;stroke-width:0.45;"/><text fill="#000000" font-family="sans-serif" font-size="12.6" lengthAdjust="spacing" textLength="158.4" x="4.5" y="871.5357">Human Resources Manager</text><ellipse cx="86.4" cy="882.348" fill="#E3E3E3" rx="7.2" ry="7.2" style="stroke:#181818;stroke-width:0.45;"/><path d="M86.4,889.548 L86.4,913.848 M74.7,896.748 L98.1,896.748 M86.4,913.848 L74.7,927.348 M86.4,913.848 L98.1,927.348 " fill="none" style="stroke:#181818;stroke-width:0.45;"/><rect fill="#E3E3E3" height="29.359" rx="2.25" ry="2.25" style="stroke:#181818;stroke-width:0.45;" width="88.2" x="321.3" y="45"/><text fill="#000000" font-family="sans-serif" font-size="12.6" lengthAdjust="spacing" textLength="75.6" x="327.6" y="64.8967">:CreateSkillUI</text><rect fill="#E3E3E3" height="29.359" rx="2.25" ry="2.25" style="stroke:#181818;stroke-width:0.45;" width="88.2" x="321.3" y="857.9391"/><text fill="#000000" font-family="sans-serif" font-size="12.6" lengthAdjust="spacing" textLength="75.6" x="327.6" y="877.8357">:CreateSkillUI</text><rect fill="#E3E3E3" height="29.359" rx="2.25" ry="2.25" style="stroke:#181818;stroke-width:0.45;" width="133.2" x="452.7" y="857.9391"/><text fill="#000000" font-family="sans-serif" font-size="12.6" lengthAdjust="spacing" textLength="120.6" x="459" y="877.8357">:CreateSkillController</text><rect fill="#E3E3E3" height="29.359" rx="2.25" ry="2.25" style="stroke:#181818;stroke-width:0.45;" width="87.3" x="632.25" y="45"/><text fill="#000000" font-family="sans-serif" font-size="12.6" lengthAdjust="spacing" textLength="74.7" x="638.55" y="64.8967">:Repositories</text><rect fill="#E3E3E3" height="29.359" rx="2.25" ry="2.25" style="stroke:#181818;stroke-width:0.45;" width="87.3" x="632.25" y="857.9391"/><text fill="#000000" font-family="sans-serif" font-size="12.6" lengthAdjust="spacing" textLength="74.7" x="638.55" y="877.8357">:Repositories</text><rect fill="#E3E3E3" height="46.118" rx="2.25" ry="2.25" style="stroke:#181818;stroke-width:0.45;" width="87.3" x="728.55" y="28.241"/><text fill="#000000" font-family="sans-serif" font-size="12.6" lengthAdjust="spacing" textLength="66.6" x="738.9" y="48.1377">repositories</text><text fill="#000000" font-family="sans-serif" font-size="12.6" lengthAdjust="spacing" textLength="74.7" x="734.85" y="64.8967">:Repositories</text><rect fill="#E3E3E3" height="46.118" rx="2.25" ry="2.25" style="stroke:#181818;stroke-width:0.45;" width="87.3" x="728.55" y="857.9391"/><text fill="#000000" font-family="sans-serif" font-size="12.6" lengthAdjust="spacing" textLength="66.6" x="738.9" y="877.8357">repositories</text><text fill="#000000" font-family="sans-serif" font-size="12.6" lengthAdjust="spacing" textLength="74.7" x="734.85" y="894.5947">:Repositories</text><rect fill="#E3E3E3" height="46.118" rx="2.25" ry="2.25" style="stroke:#181818;stroke-width:0.45;" width="99.9" x="824.85" y="28.241"/><text fill="#000000" font-family="sans-serif" font-size="12.6" lengthAdjust="spacing" textLength="77.4" x="836.1" y="48.1377">skillrepository</text><text fill="#000000" font-family="sans-serif" font-size="12.6" lengthAdjust="spacing" textLength="87.3" x="831.15" y="64.8967">:SkillRepository</text><rect fill="#E3E3E3" height="46.118" rx="2.25" ry="2.25" style="stroke:#181818;stroke-width:0.45;" width="99.9" x="824.85" y="857.9391"/><text fill="#000000" font-family="sans-serif" font-size="12.6" lengthAdjust="spacing" textLength="77.4" x="836.1" y="877.8357">skillrepository</text><text fill="#000000" font-family="sans-serif" font-size="12.6" lengthAdjust="spacing" textLength="87.3" x="831.15" y="894.5947">:SkillRepository</text><rect fill="#E3E3E3" height="46.118" rx="2.25" ry="2.25" style="stroke:#181818;stroke-width:0.45;" width="38.7" x="1028.7" y="857.9391"/><text fill="#000000" font-family="sans-serif" font-size="12.6" lengthAdjust="spacing" textLength="20.7" x="1037.7" y="877.8357">skill</text><text fill="#000000" font-family="sans-serif" font-size="12.6" lengthAdjust="spacing" textLength="26.1" x="1035" y="894.5947">:Skill</text><rect fill="#FFFFFF" height="758.3801" style="stroke:#181818;stroke-width:0.9;" width="9" x="81.9" y="84.259"/><rect fill="#FFFFFF" height="208.2305" style="stroke:#181818;stroke-width:0.9;" width="9" x="360.9" y="105.2209"/><rect fill="#FFFFFF" height="28.1619" style="stroke:#181818;stroke-width:0.9;" width="9" x="360.9" y="341.6133"/><rect fill="#FFFFFF" height="444.702" style="stroke:#181818;stroke-width:0.9;" width="9" x="360.9" y="397.9371"/><rect fill="#FFFFFF" height="112.6477" style="stroke:#181818;stroke-width:0.9;" width="9" x="514.8" y="172.6418"/><rect fill="#FFFFFF" height="388.3781" style="stroke:#181818;stroke-width:0.9;" width="9" x="514.8" y="426.099"/><rect fill="#FFFFFF" height="81.4887" style="stroke:#181818;stroke-width:0.9;" width="9" x="519.3" y="483.9609"/><rect fill="#FFFFFF" height="28.1619" style="stroke:#181818;stroke-width:0.9;" width="9" x="671.4" y="200.8037"/><rect fill="#FFFFFF" height="28.1619" style="stroke:#181818;stroke-width:0.9;" width="9" x="767.7" y="257.1275"/><rect fill="#FFFFFF" height="163.9037" style="stroke:#181818;stroke-width:0.9;" width="9" x="870.3" y="622.4115"/><polygon fill="#181818" points="350.1,101.6209,359.1,105.2209,350.1,108.8209,353.7,105.2209" style="stroke:#181818;stroke-width:0.9;"/><line style="stroke:#181818;stroke-width:0.9;" x1="90.9" x2="355.5" y1="105.2209" y2="105.2209"/><text fill="#000000" font-family="sans-serif" font-size="11.7" font-weight="bold" lengthAdjust="spacing" textLength="6.3" x="97.2" y="100.4845">1</text><text fill="#000000" font-family="sans-serif" font-size="11.7" lengthAdjust="spacing" textLength="133.2" x="107.1" y="100.4845">asks to create a new skill</text><polygon fill="#181818" points="441.9,129.7828,450.9,133.3828,441.9,136.9828,445.5,133.3828" style="stroke:#181818;stroke-width:0.9;"/><line style="stroke:#181818;stroke-width:0.9;" x1="369.9" x2="447.3" y1="133.3828" y2="133.3828"/><text fill="#000000" font-family="sans-serif" font-size="11.7" font-weight="bold" lengthAdjust="spacing" textLength="6.3" x="376.2" y="128.6464">2</text><text fill="#000000" font-family="sans-serif" font-size="11.7" lengthAdjust="spacing" textLength="32.4" x="386.1" y="128.6464">create</text><rect fill="#E3E3E3" height="29.359" rx="2.25" ry="2.25" style="stroke:#181818;stroke-width:0.45;" width="133.2" x="452.7" y="112.4209"/><text fill="#000000" font-family="sans-serif" font-size="12.6" lengthAdjust="spacing" textLength="120.6" x="459" y="132.3176">:CreateSkillController</text><polygon fill="#181818" points="504,169.0418,513,172.6418,504,176.2418,507.6,172.6418" style="stroke:#181818;stroke-width:0.9;"/><line style="stroke:#181818;stroke-width:0.9;" x1="369.9" x2="509.4" y1="172.6418" y2="172.6418"/><text fill="#000000" font-family="sans-serif" font-size="11.7" font-weight="bold" lengthAdjust="spacing" textLength="6.3" x="376.2" y="167.9054">3</text><text fill="#000000" font-family="sans-serif" font-size="11.7" lengthAdjust="spacing" textLength="101.7" x="386.1" y="167.9054">getSkillRepository()</text><polygon fill="#181818" points="660.6,197.2037,669.6,200.8037,660.6,204.4037,664.2,200.8037" style="stroke:#181818;stroke-width:0.9;"/><line style="stroke:#181818;stroke-width:0.9;" x1="523.8" x2="666" y1="200.8037" y2="200.8037"/><text fill="#000000" font-family="sans-serif" font-size="11.7" font-weight="bold" lengthAdjust="spacing" textLength="6.3" x="530.1" y="196.0673">4</text><text fill="#000000" font-family="sans-serif" font-size="11.7" lengthAdjust="spacing" textLength="67.5" x="540" y="196.0673">getInstance()</text><polygon fill="#181818" points="533.7,225.3656,524.7,228.9656,533.7,232.5656,530.1,228.9656" style="stroke:#181818;stroke-width:0.9;"/><line style="stroke:#181818;stroke-width:0.9;stroke-dasharray:2.0,2.0;" x1="528.3" x2="675" y1="228.9656" y2="228.9656"/><text fill="#000000" font-family="sans-serif" font-size="11.7" font-weight="bold" lengthAdjust="spacing" textLength="6.3" x="539.1" y="224.2292">5</text><text fill="#000000" font-family="sans-serif" font-size="11.7" lengthAdjust="spacing" textLength="60.3" x="549" y="224.2292">repositories</text><polygon fill="#181818" points="756.9,253.5275,765.9,257.1275,756.9,260.7275,760.5,257.1275" style="stroke:#181818;stroke-width:0.9;"/><line style="stroke:#181818;stroke-width:0.9;" x1="523.8" x2="762.3" y1="257.1275" y2="257.1275"/><text fill="#000000" font-family="sans-serif" font-size="11.7" font-weight="bold" lengthAdjust="spacing" textLength="6.3" x="530.1" y="252.3911">6</text><text fill="#000000" font-family="sans-serif" font-size="11.7" lengthAdjust="spacing" textLength="101.7" x="540" y="252.3911">getSkillRepository()</text><polygon fill="#181818" points="529.2,281.6895,520.2,285.2895,529.2,288.8895,525.6,285.2895" style="stroke:#181818;stroke-width:0.9;"/><line style="stroke:#181818;stroke-width:0.9;" x1="523.8" x2="771.3" y1="285.2895" y2="285.2895"/><text fill="#000000" font-family="sans-serif" font-size="11.7" font-weight="bold" lengthAdjust="spacing" textLength="6.3" x="534.6" y="280.553">7</text><text fill="#000000" font-family="sans-serif" font-size="11.7" lengthAdjust="spacing" textLength="76.5" x="544.5" y="280.553">skillRepository</text><polygon fill="#181818" points="100.8,309.8514,91.8,313.4514,100.8,317.0514,97.2,313.4514" style="stroke:#181818;stroke-width:0.9;"/><line style="stroke:#181818;stroke-width:0.9;stroke-dasharray:2.0,2.0;" x1="95.4" x2="364.5" y1="313.4514" y2="313.4514"/><text fill="#000000" font-family="sans-serif" font-size="11.7" font-weight="bold" lengthAdjust="spacing" textLength="6.3" x="106.2" y="308.7149">8</text><text fill="#000000" font-family="sans-serif" font-size="11.7" lengthAdjust="spacing" textLength="77.4" x="116.1" y="308.7149">requests name</text><polygon fill="#181818" points="350.1,338.0133,359.1,341.6133,350.1,345.2133,353.7,341.6133" style="stroke:#181818;stroke-width:0.9;"/><line style="stroke:#181818;stroke-width:0.9;" x1="90.9" x2="355.5" y1="341.6133" y2="341.6133"/><text fill="#000000" font-family="sans-serif" font-size="11.7" font-weight="bold" lengthAdjust="spacing" textLength="6.3" x="97.2" y="336.8769">9</text><text fill="#000000" font-family="sans-serif" font-size="11.7" lengthAdjust="spacing" textLength="116.1" x="107.1" y="336.8769">types requested name</text><polygon fill="#181818" points="100.8,366.1752,91.8,369.7752,100.8,373.3752,97.2,369.7752" style="stroke:#181818;stroke-width:0.9;"/><line style="stroke:#181818;stroke-width:0.9;stroke-dasharray:2.0,2.0;" x1="95.4" x2="364.5" y1="369.7752" y2="369.7752"/><text fill="#000000" font-family="sans-serif" font-size="11.7" font-weight="bold" lengthAdjust="spacing" textLength="12.6" x="106.2" y="365.0388">10</text><text fill="#000000" font-family="sans-serif" font-size="11.7" lengthAdjust="spacing" textLength="232.2" x="122.4" y="365.0388">shows typed name and asks for confirmation</text><polygon fill="#181818" points="350.1,394.3371,359.1,397.9371,350.1,401.5371,353.7,397.9371" style="stroke:#181818;stroke-width:0.9;"/><line style="stroke:#181818;stroke-width:0.9;" x1="90.9" x2="355.5" y1="397.9371" y2="397.9371"/><text fill="#000000" font-family="sans-serif" font-size="11.7" font-weight="bold" lengthAdjust="spacing" textLength="12.6" x="97.2" y="393.2007">11</text><text fill="#000000" font-family="sans-serif" font-size="11.7" lengthAdjust="spacing" textLength="70.2" x="113.4" y="393.2007">confirms data</text><polygon fill="#181818" points="504,422.499,513,426.099,504,429.699,507.6,426.099" style="stroke:#181818;stroke-width:0.9;"/><line style="stroke:#181818;stroke-width:0.9;" x1="369.9" x2="509.4" y1="426.099" y2="426.099"/><text fill="#000000" font-family="sans-serif" font-size="11.7" font-weight="bold" lengthAdjust="spacing" textLength="12.6" x="376.2" y="421.3626">12</text><text fill="#000000" font-family="sans-serif" font-size="11.7" lengthAdjust="spacing" textLength="111.6" x="392.4" y="421.3626">createSkill(skillname)</text><line style="stroke:#181818;stroke-width:0.9;" x1="523.8" x2="566.1" y1="472.2609" y2="472.2609"/><line style="stroke:#181818;stroke-width:0.9;" x1="566.1" x2="566.1" y1="472.2609" y2="483.9609"/><line style="stroke:#181818;stroke-width:0.9;" x1="529.2" x2="566.1" y1="483.9609" y2="483.9609"/><polygon fill="#181818" points="538.2,480.3609,529.2,483.9609,538.2,487.5609,534.6,483.9609" style="stroke:#181818;stroke-width:0.9;"/><text fill="#000000" font-family="sans-serif" font-size="11.7" font-weight="bold" lengthAdjust="spacing" textLength="12.6" x="534.6" y="467.5245">13</text><text fill="#000000" font-family="sans-serif" font-size="11.7" lengthAdjust="spacing" textLength="118.8" x="550.8" y="467.5245">getHRMFromSession()</text><rect fill="none" height="38.9268" style="stroke:#000000;stroke-width:1.35;" width="138.6" x="450" y="495.6609"/><path d="M450,495.6609 L505.8,495.6609 L505.8,503.7609 L496.8,512.7609 L450,512.7609 L450,495.6609 " fill="#EEEEEE" style="stroke:#000000;stroke-width:1.8;"/><text fill="#000000" font-family="sans-serif" font-size="11.7" font-weight="bold" lengthAdjust="spacing" textLength="15.3" x="461.7" y="510.0864">ref</text><text fill="#000000" font-family="sans-serif" font-size="10.8" lengthAdjust="spacing" textLength="44.1" x="497.25" y="528.0152">Get HRM</text><line style="stroke:#181818;stroke-width:0.9;stroke-dasharray:2.0,2.0;" x1="528.3" x2="566.1" y1="564.5496" y2="564.5496"/><line style="stroke:#181818;stroke-width:0.9;stroke-dasharray:2.0,2.0;" x1="566.1" x2="566.1" y1="564.5496" y2="576.2496"/><line style="stroke:#181818;stroke-width:0.9;stroke-dasharray:2.0,2.0;" x1="523.8" x2="566.1" y1="576.2496" y2="576.2496"/><polygon fill="#181818" points="532.8,572.6496,523.8,576.2496,532.8,579.8496,529.2,576.2496" style="stroke:#181818;stroke-width:0.9;"/><text fill="#000000" font-family="sans-serif" font-size="11.7" font-weight="bold" lengthAdjust="spacing" textLength="12.6" x="534.6" y="559.8132">14</text><text fill="#000000" font-family="sans-serif" font-size="11.7" lengthAdjust="spacing" textLength="19.8" x="550.8" y="559.8132">hrm</text><polygon fill="#181818" points="859.5,618.8115,868.5,622.4115,859.5,626.0115,863.1,622.4115" style="stroke:#181818;stroke-width:0.9;"/><line style="stroke:#181818;stroke-width:0.9;" x1="523.8" x2="864.9" y1="622.4115" y2="622.4115"/><text fill="#000000" font-family="sans-serif" font-size="11.7" font-weight="bold" lengthAdjust="spacing" textLength="12.6" x="530.1" y="617.6751">15</text><text fill="#000000" font-family="sans-serif" font-size="11.7" lengthAdjust="spacing" textLength="111.6" x="546.3" y="617.6751">createSkill(skillname)</text><polygon fill="#181818" points="1017.9,646.9734,1026.9,650.5734,1017.9,654.1734,1021.5,650.5734" style="stroke:#181818;stroke-width:0.9;"/><line style="stroke:#181818;stroke-width:0.9;" x1="879.3" x2="1023.3" y1="650.5734" y2="650.5734"/><text fill="#000000" font-family="sans-serif" font-size="11.7" font-weight="bold" lengthAdjust="spacing" textLength="12.6" x="885.6" y="645.837">16</text><text fill="#000000" font-family="sans-serif" font-size="11.7" lengthAdjust="spacing" textLength="111.6" x="901.8" y="645.837">createSkill(skillname)</text><rect fill="#E3E3E3" height="46.118" rx="2.25" ry="2.25" style="stroke:#181818;stroke-width:0.45;" width="38.7" x="1028.7" y="629.6115"/><text fill="#000000" font-family="sans-serif" font-size="12.6" lengthAdjust="spacing" textLength="20.7" x="1037.7" y="649.5082">skill</text><text fill="#000000" font-family="sans-serif" font-size="12.6" lengthAdjust="spacing" textLength="26.1" x="1035" y="666.2672">:Skill</text><line style="stroke:#181818;stroke-width:0.9;" x1="879.3" x2="917.1" y1="706.5914" y2="706.5914"/><line style="stroke:#181818;stroke-width:0.9;" x1="917.1" x2="917.1" y1="706.5914" y2="718.2914"/><line style="stroke:#181818;stroke-width:0.9;" x1="880.2" x2="917.1" y1="718.2914" y2="718.2914"/><polygon fill="#181818" points="889.2,714.6914,880.2,718.2914,889.2,721.8914,885.6,718.2914" style="stroke:#181818;stroke-width:0.9;"/><text fill="#000000" font-family="sans-serif" font-size="11.7" font-weight="bold" lengthAdjust="spacing" textLength="12.6" x="885.6" y="701.855">17</text><text fill="#000000" font-family="sans-serif" font-size="11.7" lengthAdjust="spacing" textLength="89.1" x="901.8" y="701.855">validateSkill(skill)</text><line style="stroke:#181818;stroke-width:0.9;" x1="879.3" x2="917.1" y1="746.4533" y2="746.4533"/><line style="stroke:#181818;stroke-width:0.9;" x1="917.1" x2="917.1" y1="746.4533" y2="758.1533"/><line style="stroke:#181818;stroke-width:0.9;" x1="880.2" x2="917.1" y1="758.1533" y2="758.1533"/><polygon fill="#181818" points="889.2,754.5533,880.2,758.1533,889.2,761.7533,885.6,758.1533" style="stroke:#181818;stroke-width:0.9;"/><text fill="#000000" font-family="sans-serif" font-size="11.7" font-weight="bold" lengthAdjust="spacing" textLength="12.6" x="885.6" y="741.7169">18</text><text fill="#000000" font-family="sans-serif" font-size="11.7" lengthAdjust="spacing" textLength="69.3" x="901.8" y="741.7169">addSkill(skill)</text><polygon fill="#181818" points="533.7,782.7152,524.7,786.3152,533.7,789.9152,530.1,786.3152" style="stroke:#181818;stroke-width:0.9;"/><line style="stroke:#181818;stroke-width:0.9;stroke-dasharray:2.0,2.0;" x1="528.3" x2="873.9" y1="786.3152" y2="786.3152"/><text fill="#000000" font-family="sans-serif" font-size="11.7" font-weight="bold" lengthAdjust="spacing" textLength="12.6" x="539.1" y="781.5788">19</text><text fill="#000000" font-family="sans-serif" font-size="11.7" lengthAdjust="spacing" textLength="20.7" x="555.3" y="781.5788">skill</text><polygon fill="#181818" points="379.8,810.8771,370.8,814.4771,379.8,818.0771,376.2,814.4771" style="stroke:#181818;stroke-width:0.9;"/><line style="stroke:#181818;stroke-width:0.9;stroke-dasharray:2.0,2.0;" x1="374.4" x2="518.4" y1="814.4771" y2="814.4771"/><text fill="#000000" font-family="sans-serif" font-size="11.7" font-weight="bold" lengthAdjust="spacing" textLength="12.6" x="385.2" y="809.7407">20</text><text fill="#000000" font-family="sans-serif" font-size="11.7" lengthAdjust="spacing" textLength="20.7" x="401.4" y="809.7407">skill</text><polygon fill="#181818" points="96.3,839.0391,87.3,842.6391,96.3,846.2391,92.7,842.6391" style="stroke:#181818;stroke-width:0.9;"/><line style="stroke:#181818;stroke-width:0.9;stroke-dasharray:2.0,2.0;" x1="90.9" x2="364.5" y1="842.6391" y2="842.6391"/><text fill="#000000" font-family="sans-serif" font-size="11.7" font-weight="bold" lengthAdjust="spacing" textLength="12.6" x="101.7" y="837.9026">21</text><text fill="#000000" font-family="sans-serif" font-size="11.7" lengthAdjust="spacing" textLength="142.2" x="117.9" y="837.9026">displays operation success</text><!--SRC=[bLNBRjim4BppAnQvs36G7_0XWEiqZO04AAJurWiZhMt24gcIL5m3_lWkQKTFIcvv4pKpt1tDKkOWPCarBw1GKgLxhGe4gojafdvJylJ0TvZOKuwWCRLSxl8smEnvfev2xc3BSuECySegMHKVg1cRxKM6i5NAVgW_ZATMQRXxgGek8KQZAfsYWJSkwGHz1zp0wkcDaQuLgIYvj72tN6la5fE3oFDDv36RQ1ooLj9gbUTNkVLx_De3nrWg8wWGWSPZwerJ8bnlL7sNebkCNt8eyFDrzTvb65TAJJiHoHVNdEHvIHnWVM4zucNrBNgDdbPFtvapJtnIczuY1jT53_3mI9R0aWW70rP1wkq03XAFu4KRVAr29h8Pj1P9F92I4rpIX_vTeR46Ccuvp2Kly9wrqRFh8TxWlioZtruiIEW2OoCG0kpGzhoPttVXTSd-hCuhhq5QWKzuaOwaeS2cEEzMtr_r4Q4iJ3BT2ft-SEtGMTd4PL8gm_yiuwjxbxyn9s-txDCRnddXvbEPhZgxrOLNxktLUGd7pGMjJt59xKVTdagwEAuqp1hUW1MCjzche_4Y5ofmcLt6PqiNLAhaLkY2Mq6s1_fgIxUBkl8kGnEUkE08fCtrDVSUTyTj8l_dypau3yrilSHlptIj9sWCTTCBn8IoMngte3vH3uVShHzeWTG7-oYpeTIbiAQolIxOI6h-lSialkbTfqkwRmU59R5JQkxPnM9KSuJhglZakSYwd4aypx8kD8ZjJHuRSwpVLsts9lgYJdaTdf8bPCAKEJyPK2LgFmnWgfH-s2OqeQr7zuFw2m00]--></g></svg>