<?xml version="1.0" encoding="us-ascii" standalone="no"?><svg xmlns="http://www.w3.org/2000/svg" xmlns:xlink="http://www.w3.org/1999/xlink" contentStyleType="text/css" height="621px" preserveAspectRatio="none" style="width:768px;height:621px;background:#FFFFFF;" version="1.1" viewBox="0 0 768 621" width="768.6px" zoomAndPan="magnify"><defs/><g><!--class ApplicationSession--><g id="elem_ApplicationSession"><rect codeLine="11" fill="#F1F1F1" height="51.1453" id="ApplicationSession" rx="1.5" ry="1.5" style="stroke:#181818;stroke-width:0.3;" width="90.6" x="606" y="130.5"/><ellipse cx="615" cy="140.1" fill="#ADD1B2" rx="6.6" ry="6.6" style="stroke:#181818;stroke-width:0.6;"/><path d="M616.6594,137.625 Q616.7531,137.4938 616.8656,137.4281 Q616.9781,137.3625 617.1094,137.3625 Q617.3344,137.3625 617.475,137.5219 Q617.6156,137.6719 617.6156,138.0375 L617.6156,138.9094 Q617.6156,139.275 617.475,139.4344 Q617.3344,139.5938 617.1094,139.5938 Q616.9031,139.5938 616.7813,139.4719 Q616.6594,139.3594 616.5938,139.05 Q616.5656,138.8344 616.4531,138.7219 Q616.2563,138.4969 615.8906,138.3656 Q615.525,138.2344 615.15,138.2344 Q614.6906,138.2344 614.3063,138.4313 Q613.9313,138.6281 613.6313,139.0781 Q613.3406,139.5281 613.3406,140.1469 L613.3406,140.8031 Q613.3406,141.5438 613.875,142.0406 Q614.4094,142.5281 615.3656,142.5281 Q615.9281,142.5281 616.3219,142.3781 Q616.5563,142.2844 616.8094,142.0219 Q616.9688,141.8625 617.0531,141.8156 Q617.1469,141.7687 617.2688,141.7687 Q617.4656,141.7687 617.6156,141.9281 Q617.775,142.0781 617.775,142.2844 Q617.775,142.4906 617.5688,142.7344 Q617.2688,143.0812 616.7906,143.2781 Q616.1438,143.55 615.3656,143.55 Q614.4563,143.55 613.7344,143.175 Q613.1438,142.875 612.7312,142.2375 Q612.3188,141.5906 612.3188,140.8219 L612.3188,140.1281 Q612.3188,139.3312 612.6844,138.6469 Q613.0594,137.9531 613.7156,137.5875 Q614.3719,137.2125 615.1125,137.2125 Q615.5531,137.2125 615.9375,137.3156 Q616.3313,137.4094 616.6594,137.625 Z " fill="#000000"/><text fill="#000000" font-family="sans-serif" font-size="8.4" lengthAdjust="spacing" textLength="71.4" x="623.4" y="143.5781">ApplicationSession</text><line style="stroke:#181818;stroke-width:0.3;" x1="606.6" x2="696" y1="149.7" y2="149.7"/><line style="stroke:#181818;stroke-width:0.3;" x1="606.6" x2="696" y1="154.5" y2="154.5"/><text fill="#000000" font-family="sans-serif" font-size="8.4" lengthAdjust="spacing" textLength="76.8" x="609.6" y="165.9645">+static getInstance()</text><text fill="#000000" font-family="sans-serif" font-size="8.4" lengthAdjust="spacing" textLength="81.6" x="609.6" y="177.1371">+getCurrentSession()</text></g><!--class UserSession--><g id="elem_UserSession"><rect codeLine="17" fill="#F1F1F1" height="39.9727" id="UserSession" rx="1.5" ry="1.5" style="stroke:#181818;stroke-width:0.3;" width="67.8" x="696.6" y="273.6"/><ellipse cx="706.14" cy="283.2" fill="#ADD1B2" rx="6.6" ry="6.6" style="stroke:#181818;stroke-width:0.6;"/><path d="M707.7994,280.725 Q707.8931,280.5938 708.0056,280.5281 Q708.1181,280.4625 708.2494,280.4625 Q708.4744,280.4625 708.615,280.6219 Q708.7556,280.7719 708.7556,281.1375 L708.7556,282.0094 Q708.7556,282.375 708.615,282.5344 Q708.4744,282.6937 708.2494,282.6937 Q708.0431,282.6937 707.9213,282.5719 Q707.7994,282.4594 707.7338,282.15 Q707.7056,281.9344 707.5931,281.8219 Q707.3963,281.5969 707.0306,281.4656 Q706.665,281.3344 706.29,281.3344 Q705.8306,281.3344 705.4463,281.5313 Q705.0713,281.7281 704.7713,282.1781 Q704.4806,282.6281 704.4806,283.2469 L704.4806,283.9031 Q704.4806,284.6438 705.015,285.1406 Q705.5494,285.6281 706.5056,285.6281 Q707.0681,285.6281 707.4619,285.4781 Q707.6963,285.3844 707.9494,285.1219 Q708.1088,284.9625 708.1931,284.9156 Q708.2869,284.8688 708.4088,284.8688 Q708.6056,284.8688 708.7556,285.0281 Q708.915,285.1781 708.915,285.3844 Q708.915,285.5906 708.7088,285.8344 Q708.4088,286.1813 707.9306,286.3781 Q707.2838,286.65 706.5056,286.65 Q705.5963,286.65 704.8744,286.275 Q704.2838,285.975 703.8713,285.3375 Q703.4588,284.6906 703.4588,283.9219 L703.4588,283.2281 Q703.4588,282.4313 703.8244,281.7469 Q704.1994,281.0531 704.8556,280.6875 Q705.5119,280.3125 706.2525,280.3125 Q706.6931,280.3125 707.0775,280.4156 Q707.4713,280.5094 707.7994,280.725 Z " fill="#000000"/><text fill="#000000" font-family="sans-serif" font-size="8.4" lengthAdjust="spacing" textLength="47.4" x="714.66" y="286.6781">UserSession</text><line style="stroke:#181818;stroke-width:0.3;" x1="697.2" x2="763.8" y1="292.8" y2="292.8"/><line style="stroke:#181818;stroke-width:0.3;" x1="697.2" x2="763.8" y1="297.6" y2="297.6"/><text fill="#000000" font-family="sans-serif" font-size="8.4" lengthAdjust="spacing" textLength="60.6" x="700.2" y="309.0645">+getUserEmail()</text></g><!--class Skill--><g id="elem_Skill"><rect codeLine="22" fill="#F1F1F1" height="39.9727" id="Skill" rx="1.5" ry="1.5" style="stroke:#181818;stroke-width:0.3;" width="58.2" x="431.4" y="428.1"/><ellipse cx="451.2" cy="437.7" fill="#ADD1B2" rx="6.6" ry="6.6" style="stroke:#181818;stroke-width:0.6;"/><path d="M452.8594,435.225 Q452.9531,435.0938 453.0656,435.0281 Q453.1781,434.9625 453.3094,434.9625 Q453.5344,434.9625 453.675,435.1219 Q453.8156,435.2719 453.8156,435.6375 L453.8156,436.5094 Q453.8156,436.875 453.675,437.0344 Q453.5344,437.1937 453.3094,437.1937 Q453.1031,437.1937 452.9813,437.0719 Q452.8594,436.9594 452.7938,436.65 Q452.7656,436.4344 452.6531,436.3219 Q452.4563,436.0969 452.0906,435.9656 Q451.725,435.8344 451.35,435.8344 Q450.8906,435.8344 450.5062,436.0313 Q450.1312,436.2281 449.8313,436.6781 Q449.5406,437.1281 449.5406,437.7469 L449.5406,438.4031 Q449.5406,439.1438 450.075,439.6406 Q450.6094,440.1281 451.5656,440.1281 Q452.1281,440.1281 452.5219,439.9781 Q452.7562,439.8844 453.0094,439.6219 Q453.1688,439.4625 453.2531,439.4156 Q453.3469,439.3688 453.4688,439.3688 Q453.6656,439.3688 453.8156,439.5281 Q453.975,439.6781 453.975,439.8844 Q453.975,440.0906 453.7688,440.3344 Q453.4688,440.6813 452.9906,440.8781 Q452.3438,441.15 451.5656,441.15 Q450.6563,441.15 449.9344,440.775 Q449.3438,440.475 448.9313,439.8375 Q448.5188,439.1906 448.5188,438.4219 L448.5188,437.7281 Q448.5188,436.9313 448.8844,436.2469 Q449.2594,435.5531 449.9156,435.1875 Q450.5719,434.8125 451.3125,434.8125 Q451.7531,434.8125 452.1375,434.9156 Q452.5313,435.0094 452.8594,435.225 Z " fill="#000000"/><text fill="#000000" font-family="sans-serif" font-size="8.4" lengthAdjust="spacing" textLength="15" x="462" y="441.1781">Skill</text><line style="stroke:#181818;stroke-width:0.3;" x1="432" x2="489" y1="447.3" y2="447.3"/><text fill="#000000" font-family="sans-serif" font-size="8.4" lengthAdjust="spacing" textLength="51" x="435" y="458.7645">-name: String</text><line style="stroke:#181818;stroke-width:0.3;" x1="432" x2="489" y1="463.2727" y2="463.2727"/></g><!--class SkillRepository--><g id="elem_SkillRepository"><rect codeLine="26" fill="#F1F1F1" height="118.1812" id="SkillRepository" rx="1.5" ry="1.5" style="stroke:#181818;stroke-width:0.3;" width="161.4" x="444" y="234.6"/><ellipse cx="494.25" cy="244.2" fill="#ADD1B2" rx="6.6" ry="6.6" style="stroke:#181818;stroke-width:0.6;"/><path d="M495.9094,241.725 Q496.0031,241.5938 496.1156,241.5281 Q496.2281,241.4625 496.3594,241.4625 Q496.5844,241.4625 496.725,241.6219 Q496.8656,241.7719 496.8656,242.1375 L496.8656,243.0094 Q496.8656,243.375 496.725,243.5344 Q496.5844,243.6938 496.3594,243.6938 Q496.1531,243.6938 496.0313,243.5719 Q495.9094,243.4594 495.8438,243.15 Q495.8156,242.9344 495.7031,242.8219 Q495.5062,242.5969 495.1406,242.4656 Q494.775,242.3344 494.4,242.3344 Q493.9406,242.3344 493.5563,242.5313 Q493.1813,242.7281 492.8812,243.1781 Q492.5906,243.6281 492.5906,244.2469 L492.5906,244.9031 Q492.5906,245.6437 493.125,246.1406 Q493.6594,246.6281 494.6156,246.6281 Q495.1781,246.6281 495.5719,246.4781 Q495.8063,246.3844 496.0594,246.1219 Q496.2188,245.9625 496.3031,245.9156 Q496.3969,245.8687 496.5187,245.8687 Q496.7156,245.8687 496.8656,246.0281 Q497.025,246.1781 497.025,246.3844 Q497.025,246.5906 496.8187,246.8344 Q496.5187,247.1812 496.0406,247.3781 Q495.3937,247.65 494.6156,247.65 Q493.7062,247.65 492.9844,247.275 Q492.3937,246.975 491.9813,246.3375 Q491.5687,245.6906 491.5687,244.9219 L491.5687,244.2281 Q491.5687,243.4312 491.9344,242.7469 Q492.3094,242.0531 492.9656,241.6875 Q493.6219,241.3125 494.3625,241.3125 Q494.8031,241.3125 495.1875,241.4156 Q495.5812,241.5094 495.9094,241.725 Z " fill="#000000"/><text fill="#000000" font-family="sans-serif" font-size="8.4" lengthAdjust="spacing" textLength="55.8" x="506.55" y="247.6781">SkillRepository</text><line style="stroke:#181818;stroke-width:0.3;" x1="444.6" x2="604.8" y1="253.8" y2="253.8"/><text fill="#000000" font-family="sans-serif" font-size="8.4" lengthAdjust="spacing" textLength="61.2" x="447.6" y="265.2645">-List&lt;Skill&gt; skills</text><line style="stroke:#181818;stroke-width:0.3;" x1="444.6" x2="604.8" y1="269.7727" y2="269.7727"/><text fill="#000000" font-family="sans-serif" font-size="8.4" lengthAdjust="spacing" textLength="119.4" x="447.6" y="281.2371">+boolean validateSkill(Skill skill)</text><text fill="#000000" font-family="sans-serif" font-size="8.4" lengthAdjust="spacing" textLength="145.8" x="447.6" y="292.4098">+boolean skillsDoNotContain(Skill skill)</text><text fill="#000000" font-family="sans-serif" font-size="8.4" lengthAdjust="spacing" textLength="115.2" x="447.6" y="303.5824">+Optional&lt;Skill&gt; add(Skill skill)</text><text fill="#000000" font-family="sans-serif" font-size="8.4" lengthAdjust="spacing" textLength="154.2" x="447.6" y="314.7551">+Optional&lt;Skill&gt; createSkill(String name)</text><text fill="#000000" font-family="sans-serif" font-size="8.4" lengthAdjust="spacing" textLength="82.2" x="447.6" y="325.9277">+List&lt;Skill&gt; getSkills()</text><text fill="#000000" font-family="sans-serif" font-size="8.4" lengthAdjust="spacing" textLength="132" x="447.6" y="337.1004">+Skill getSkillByName(String name)</text><text fill="#000000" font-family="sans-serif" font-size="8.4" lengthAdjust="spacing" textLength="104.4" x="447.6" y="348.273">+boolean addSkill(Skill skill)</text></g><!--class Organization--><g id="elem_Organization"><rect codeLine="37" fill="#F1F1F1" height="95.8359" id="Organization" rx="1.5" ry="1.5" style="stroke:#181818;stroke-width:0.3;" width="108" x="237.9" y="400.2"/><ellipse cx="265.35" cy="409.8" fill="#ADD1B2" rx="6.6" ry="6.6" style="stroke:#181818;stroke-width:0.6;"/><path d="M267.0094,407.325 Q267.1031,407.1937 267.2156,407.1281 Q267.3281,407.0625 267.4594,407.0625 Q267.6844,407.0625 267.825,407.2219 Q267.9656,407.3719 267.9656,407.7375 L267.9656,408.6094 Q267.9656,408.975 267.825,409.1344 Q267.6844,409.2938 267.4594,409.2938 Q267.2531,409.2938 267.1312,409.1719 Q267.0094,409.0594 266.9437,408.75 Q266.9156,408.5344 266.8031,408.4219 Q266.6063,408.1969 266.2406,408.0656 Q265.875,407.9344 265.5,407.9344 Q265.0406,407.9344 264.6563,408.1312 Q264.2813,408.3281 263.9813,408.7781 Q263.6906,409.2281 263.6906,409.8469 L263.6906,410.5031 Q263.6906,411.2438 264.225,411.7406 Q264.7594,412.2281 265.7156,412.2281 Q266.2781,412.2281 266.6719,412.0781 Q266.9063,411.9844 267.1594,411.7219 Q267.3187,411.5625 267.4031,411.5156 Q267.4969,411.4688 267.6188,411.4688 Q267.8156,411.4688 267.9656,411.6281 Q268.125,411.7781 268.125,411.9844 Q268.125,412.1906 267.9188,412.4344 Q267.6188,412.7813 267.1406,412.9781 Q266.4938,413.25 265.7156,413.25 Q264.8063,413.25 264.0844,412.875 Q263.4938,412.575 263.0813,411.9375 Q262.6688,411.2906 262.6688,410.5219 L262.6688,409.8281 Q262.6688,409.0313 263.0344,408.3469 Q263.4094,407.6531 264.0656,407.2875 Q264.7219,406.9125 265.4625,406.9125 Q265.9031,406.9125 266.2875,407.0156 Q266.6813,407.1094 267.0094,407.325 Z " fill="#000000"/><text fill="#000000" font-family="sans-serif" font-size="8.4" lengthAdjust="spacing" textLength="48" x="277.65" y="413.2781">Organization</text><line style="stroke:#181818;stroke-width:0.3;" x1="238.5" x2="345.3" y1="419.4" y2="419.4"/><text fill="#000000" font-family="sans-serif" font-size="8.4" lengthAdjust="spacing" textLength="48.6" x="241.5" y="430.8645">-String name</text><text fill="#000000" font-family="sans-serif" font-size="8.4" lengthAdjust="spacing" textLength="68.4" x="241.5" y="442.0371">-String vatNumber</text><text fill="#000000" font-family="sans-serif" font-size="8.4" lengthAdjust="spacing" textLength="58.2" x="241.5" y="453.2098">-String address</text><text fill="#000000" font-family="sans-serif" font-size="8.4" lengthAdjust="spacing" textLength="51.6" x="241.5" y="464.3824">-String phone</text><text fill="#000000" font-family="sans-serif" font-size="8.4" lengthAdjust="spacing" textLength="47.4" x="241.5" y="475.5551">-String email</text><line style="stroke:#181818;stroke-width:0.3;" x1="238.5" x2="345.3" y1="480.0633" y2="480.0633"/><text fill="#000000" font-family="sans-serif" font-size="8.4" lengthAdjust="spacing" textLength="100.8" x="241.5" y="491.5277">+boolean equals(Object o)</text></g><!--class OrganizationRepository--><g id="elem_OrganizationRepository"><rect codeLine="46" fill="#F1F1F1" height="84.6633" id="OrganizationRepository" rx="1.5" ry="1.5" style="stroke:#181818;stroke-width:0.3;" width="262.2" x="160.8" y="251.4"/><ellipse cx="244.95" cy="261" fill="#ADD1B2" rx="6.6" ry="6.6" style="stroke:#181818;stroke-width:0.6;"/><path d="M246.6094,258.525 Q246.7031,258.3938 246.8156,258.3281 Q246.9281,258.2625 247.0594,258.2625 Q247.2844,258.2625 247.425,258.4219 Q247.5656,258.5719 247.5656,258.9375 L247.5656,259.8094 Q247.5656,260.175 247.425,260.3344 Q247.2844,260.4938 247.0594,260.4938 Q246.8531,260.4938 246.7313,260.3719 Q246.6094,260.2594 246.5438,259.95 Q246.5156,259.7344 246.4031,259.6219 Q246.2062,259.3969 245.8406,259.2656 Q245.475,259.1344 245.1,259.1344 Q244.6406,259.1344 244.2563,259.3313 Q243.8813,259.5281 243.5812,259.9781 Q243.2906,260.4281 243.2906,261.0469 L243.2906,261.7031 Q243.2906,262.4437 243.825,262.9406 Q244.3594,263.4281 245.3156,263.4281 Q245.8781,263.4281 246.2719,263.2781 Q246.5063,263.1844 246.7594,262.9219 Q246.9188,262.7625 247.0031,262.7156 Q247.0969,262.6688 247.2188,262.6688 Q247.4156,262.6688 247.5656,262.8281 Q247.725,262.9781 247.725,263.1844 Q247.725,263.3906 247.5187,263.6344 Q247.2188,263.9813 246.7406,264.1781 Q246.0938,264.45 245.3156,264.45 Q244.4063,264.45 243.6844,264.075 Q243.0938,263.775 242.6812,263.1375 Q242.2687,262.4906 242.2687,261.7219 L242.2687,261.0281 Q242.2687,260.2313 242.6344,259.5469 Q243.0094,258.8531 243.6656,258.4875 Q244.3219,258.1125 245.0625,258.1125 Q245.5031,258.1125 245.8875,258.2156 Q246.2813,258.3094 246.6094,258.525 Z " fill="#000000"/><text fill="#000000" font-family="sans-serif" font-size="8.4" lengthAdjust="spacing" textLength="88.8" x="257.25" y="264.4781">OrganizationRepository</text><line style="stroke:#181818;stroke-width:0.3;" x1="161.4" x2="422.4" y1="270.6" y2="270.6"/><line style="stroke:#181818;stroke-width:0.3;" x1="161.4" x2="422.4" y1="275.4" y2="275.4"/><text fill="#000000" font-family="sans-serif" font-size="8.4" lengthAdjust="spacing" textLength="225" x="164.4" y="286.8645">+Optional&lt;Organization&gt; getOrganizationByHRM(HRM hrm)</text><text fill="#000000" font-family="sans-serif" font-size="8.4" lengthAdjust="spacing" textLength="222.6" x="164.4" y="298.0371">+Optional&lt;Organization&gt; getOrganizationByVFM(VFM vfm)</text><text fill="#000000" font-family="sans-serif" font-size="8.4" lengthAdjust="spacing" textLength="255" x="164.4" y="309.2098">+Optional&lt;Organization&gt; getOrganizationByHRMEmail(String email)</text><text fill="#000000" font-family="sans-serif" font-size="8.4" lengthAdjust="spacing" textLength="213.6" x="164.4" y="320.3824">+Optional&lt;Organization&gt; add(Organization organization)</text><text fill="#000000" font-family="sans-serif" font-size="8.4" lengthAdjust="spacing" textLength="217.8" x="164.4" y="331.5551">+boolean validateOrganization(Organization organization)</text></g><!--class Repositories--><g id="elem_Repositories"><rect codeLine="54" fill="#F1F1F1" height="62.318" id="Repositories" rx="1.5" ry="1.5" style="stroke:#181818;stroke-width:0.3;" width="214.8" x="322.5" y="124.8"/><ellipse cx="403.65" cy="134.4" fill="#ADD1B2" rx="6.6" ry="6.6" style="stroke:#181818;stroke-width:0.6;"/><path d="M405.3094,131.925 Q405.4031,131.7938 405.5156,131.7281 Q405.6281,131.6625 405.7594,131.6625 Q405.9844,131.6625 406.125,131.8219 Q406.2656,131.9719 406.2656,132.3375 L406.2656,133.2094 Q406.2656,133.575 406.125,133.7344 Q405.9844,133.8937 405.7594,133.8937 Q405.5531,133.8937 405.4313,133.7719 Q405.3094,133.6594 405.2438,133.35 Q405.2156,133.1344 405.1031,133.0219 Q404.9063,132.7969 404.5406,132.6656 Q404.175,132.5344 403.8,132.5344 Q403.3406,132.5344 402.9563,132.7313 Q402.5813,132.9281 402.2813,133.3781 Q401.9906,133.8281 401.9906,134.4469 L401.9906,135.1031 Q401.9906,135.8438 402.525,136.3406 Q403.0594,136.8281 404.0156,136.8281 Q404.5781,136.8281 404.9719,136.6781 Q405.2063,136.5844 405.4594,136.3219 Q405.6188,136.1625 405.7031,136.1156 Q405.7969,136.0688 405.9188,136.0688 Q406.1156,136.0688 406.2656,136.2281 Q406.425,136.3781 406.425,136.5844 Q406.425,136.7906 406.2188,137.0344 Q405.9188,137.3813 405.4406,137.5781 Q404.7938,137.85 404.0156,137.85 Q403.1063,137.85 402.3844,137.475 Q401.7938,137.175 401.3812,136.5375 Q400.9688,135.8906 400.9688,135.1219 L400.9688,134.4281 Q400.9688,133.6313 401.3344,132.9469 Q401.7094,132.2531 402.3656,131.8875 Q403.0219,131.5125 403.7625,131.5125 Q404.2031,131.5125 404.5875,131.6156 Q404.9813,131.7094 405.3094,131.925 Z " fill="#000000"/><text fill="#000000" font-family="sans-serif" font-size="8.4" lengthAdjust="spacing" textLength="47.4" x="415.95" y="137.8781">Repositories</text><line style="stroke:#181818;stroke-width:0.3;" x1="323.1" x2="536.7" y1="144" y2="144"/><line style="stroke:#181818;stroke-width:0.3;" x1="323.1" x2="536.7" y1="148.8" y2="148.8"/><text fill="#000000" font-family="sans-serif" font-size="8.4" lengthAdjust="spacing" textLength="109.2" x="326.1" y="160.2645">+getInstance() : Repositories</text><text fill="#000000" font-family="sans-serif" font-size="8.4" lengthAdjust="spacing" textLength="141.6" x="326.1" y="171.4371">+getSkillRepository() : SkillRepository</text><text fill="#000000" font-family="sans-serif" font-size="8.4" lengthAdjust="spacing" textLength="207.6" x="326.1" y="182.6098">+getOrganizationRepository() : OrganizationRepository</text></g><!--class CreateSkillController--><g id="elem_CreateSkillController"><rect codeLine="60" fill="#F1F1F1" height="73.4906" id="CreateSkillController" rx="1.5" ry="1.5" style="stroke:#181818;stroke-width:0.3;" width="273.6" x="293.1" y="4.2"/><ellipse cx="388.35" cy="13.8" fill="#ADD1B2" rx="6.6" ry="6.6" style="stroke:#181818;stroke-width:0.6;"/><path d="M390.0094,11.325 Q390.1031,11.1938 390.2156,11.1281 Q390.3281,11.0625 390.4594,11.0625 Q390.6844,11.0625 390.825,11.2219 Q390.9656,11.3719 390.9656,11.7375 L390.9656,12.6094 Q390.9656,12.975 390.825,13.1344 Q390.6844,13.2938 390.4594,13.2938 Q390.2531,13.2938 390.1312,13.1719 Q390.0094,13.0594 389.9437,12.75 Q389.9156,12.5344 389.8031,12.4219 Q389.6063,12.1969 389.2406,12.0656 Q388.875,11.9344 388.5,11.9344 Q388.0406,11.9344 387.6563,12.1313 Q387.2813,12.3281 386.9813,12.7781 Q386.6906,13.2281 386.6906,13.8469 L386.6906,14.5031 Q386.6906,15.2437 387.225,15.7406 Q387.7594,16.2281 388.7156,16.2281 Q389.2781,16.2281 389.6719,16.0781 Q389.9063,15.9844 390.1594,15.7219 Q390.3187,15.5625 390.4031,15.5156 Q390.4969,15.4688 390.6188,15.4688 Q390.8156,15.4688 390.9656,15.6281 Q391.125,15.7781 391.125,15.9844 Q391.125,16.1906 390.9188,16.4344 Q390.6188,16.7813 390.1406,16.9781 Q389.4938,17.25 388.7156,17.25 Q387.8063,17.25 387.0844,16.875 Q386.4938,16.575 386.0813,15.9375 Q385.6688,15.2906 385.6688,14.5219 L385.6688,13.8281 Q385.6688,13.0313 386.0344,12.3469 Q386.4094,11.6531 387.0656,11.2875 Q387.7219,10.9125 388.4625,10.9125 Q388.9031,10.9125 389.2875,11.0156 Q389.6813,11.1094 390.0094,11.325 Z " fill="#000000"/><text fill="#000000" font-family="sans-serif" font-size="8.4" lengthAdjust="spacing" textLength="78" x="400.65" y="17.2781">CreateSkillController</text><line style="stroke:#181818;stroke-width:0.3;" x1="293.7" x2="566.1" y1="23.4" y2="23.4"/><text fill="#000000" font-family="sans-serif" font-size="8.4" lengthAdjust="spacing" textLength="115.2" x="296.7" y="34.8645">SkillRepository skillRepository,</text><line style="stroke:#181818;stroke-width:0.3;" x1="293.7" x2="566.1" y1="39.3727" y2="39.3727"/><text fill="#000000" font-family="sans-serif" font-size="8.4" lengthAdjust="spacing" textLength="266.4" x="296.7" y="50.8371">+CreateSkillController(OrganizationRepository organizationRepository,</text><text fill="#000000" font-family="sans-serif" font-size="8.4" lengthAdjust="spacing" textLength="194.4" x="296.7" y="62.0098">AuthenticationRepository authenticationRepository)</text><text fill="#000000" font-family="sans-serif" font-size="8.4" lengthAdjust="spacing" textLength="154.2" x="296.7" y="73.1824">+Optional&lt;Skill&gt; createSkill(String name)</text></g><!--class CreateSkillUI--><g id="elem_CreateSkillUI"><rect codeLine="67" fill="#F1F1F1" height="39.9727" id="CreateSkillUI" rx="1.5" ry="1.5" style="stroke:#181818;stroke-width:0.3;" width="83.4" x="188.4" y="20.7"/><ellipse cx="204.69" cy="30.3" fill="#ADD1B2" rx="6.6" ry="6.6" style="stroke:#181818;stroke-width:0.6;"/><path d="M206.3494,27.825 Q206.4431,27.6937 206.5556,27.6281 Q206.6681,27.5625 206.7994,27.5625 Q207.0244,27.5625 207.165,27.7219 Q207.3056,27.8719 207.3056,28.2375 L207.3056,29.1094 Q207.3056,29.475 207.165,29.6344 Q207.0244,29.7938 206.7994,29.7938 Q206.5931,29.7938 206.4712,29.6719 Q206.3494,29.5594 206.2837,29.25 Q206.2556,29.0344 206.1431,28.9219 Q205.9463,28.6969 205.5806,28.5656 Q205.215,28.4344 204.84,28.4344 Q204.3806,28.4344 203.9962,28.6312 Q203.6212,28.8281 203.3213,29.2781 Q203.0306,29.7281 203.0306,30.3469 L203.0306,31.0031 Q203.0306,31.7438 203.565,32.2406 Q204.0994,32.7281 205.0556,32.7281 Q205.6181,32.7281 206.0119,32.5781 Q206.2462,32.4844 206.4994,32.2219 Q206.6587,32.0625 206.7431,32.0156 Q206.8369,31.9688 206.9587,31.9688 Q207.1556,31.9688 207.3056,32.1281 Q207.465,32.2781 207.465,32.4844 Q207.465,32.6906 207.2588,32.9344 Q206.9587,33.2813 206.4806,33.4781 Q205.8337,33.75 205.0556,33.75 Q204.1462,33.75 203.4244,33.375 Q202.8337,33.075 202.4213,32.4375 Q202.0088,31.7906 202.0088,31.0219 L202.0088,30.3281 Q202.0088,29.5313 202.3744,28.8469 Q202.7494,28.1531 203.4056,27.7875 Q204.0619,27.4125 204.8025,27.4125 Q205.2431,27.4125 205.6275,27.5156 Q206.0212,27.6094 206.3494,27.825 Z " fill="#000000"/><text fill="#000000" font-family="sans-serif" font-size="8.4" lengthAdjust="spacing" textLength="48" x="214.71" y="33.7781">CreateSkillUI</text><line style="stroke:#181818;stroke-width:0.3;" x1="189" x2="271.2" y1="39.9" y2="39.9"/><line style="stroke:#181818;stroke-width:0.3;" x1="189" x2="271.2" y1="44.7" y2="44.7"/><text fill="#000000" font-family="sans-serif" font-size="8.4" lengthAdjust="spacing" textLength="76.2" x="192" y="56.1645">+requestSkillName()</text></g><!--class HRM--><g id="elem_HRM"><rect codeLine="71" fill="#F1F1F1" height="73.4906" id="HRM" rx="1.5" ry="1.5" style="stroke:#181818;stroke-width:0.3;" width="74.4" x="306.3" y="543.6"/><ellipse cx="332.04" cy="553.2" fill="#ADD1B2" rx="6.6" ry="6.6" style="stroke:#181818;stroke-width:0.6;"/><path d="M333.6994,550.725 Q333.7931,550.5938 333.9056,550.5281 Q334.0181,550.4625 334.1494,550.4625 Q334.3744,550.4625 334.515,550.6219 Q334.6556,550.7719 334.6556,551.1375 L334.6556,552.0094 Q334.6556,552.375 334.515,552.5344 Q334.3744,552.6938 334.1494,552.6938 Q333.9431,552.6938 333.8212,552.5719 Q333.6994,552.4594 333.6337,552.15 Q333.6056,551.9344 333.4931,551.8219 Q333.2963,551.5969 332.9306,551.4656 Q332.565,551.3344 332.19,551.3344 Q331.7306,551.3344 331.3463,551.5313 Q330.9713,551.7281 330.6713,552.1781 Q330.3806,552.6281 330.3806,553.2469 L330.3806,553.9031 Q330.3806,554.6438 330.915,555.1406 Q331.4494,555.6281 332.4056,555.6281 Q332.9681,555.6281 333.3619,555.4781 Q333.5963,555.3844 333.8494,555.1219 Q334.0087,554.9625 334.0931,554.9156 Q334.1869,554.8688 334.3088,554.8688 Q334.5056,554.8688 334.6556,555.0281 Q334.815,555.1781 334.815,555.3844 Q334.815,555.5906 334.6088,555.8344 Q334.3088,556.1813 333.8306,556.3781 Q333.1838,556.65 332.4056,556.65 Q331.4963,556.65 330.7744,556.275 Q330.1838,555.975 329.7712,555.3375 Q329.3588,554.6906 329.3588,553.9219 L329.3588,553.2281 Q329.3588,552.4313 329.7244,551.7469 Q330.0994,551.0531 330.7556,550.6875 Q331.4119,550.3125 332.1525,550.3125 Q332.5931,550.3125 332.9775,550.4156 Q333.3713,550.5094 333.6994,550.725 Z " fill="#000000"/><text fill="#000000" font-family="sans-serif" font-size="8.4" lengthAdjust="spacing" textLength="18" x="344.16" y="556.6781">HRM</text><line style="stroke:#181818;stroke-width:0.3;" x1="306.9" x2="380.1" y1="562.8" y2="562.8"/><text fill="#000000" font-family="sans-serif" font-size="8.4" lengthAdjust="spacing" textLength="48.6" x="309.9" y="574.2645">-String name</text><text fill="#000000" font-family="sans-serif" font-size="8.4" lengthAdjust="spacing" textLength="55.2" x="309.9" y="585.4371">-int vatNumber</text><text fill="#000000" font-family="sans-serif" font-size="8.4" lengthAdjust="spacing" textLength="47.4" x="309.9" y="596.6098">-String email</text><text fill="#000000" font-family="sans-serif" font-size="8.4" lengthAdjust="spacing" textLength="67.2" x="309.9" y="607.7824">-int phonenumber</text><line style="stroke:#181818;stroke-width:0.3;" x1="306.9" x2="380.1" y1="612.2906" y2="612.2906"/></g><g id="elem_GMN12"><path d="M587.7,27.3 L587.7,38.4 L566.82,40.8 L587.7,43.2 L587.7,54.0492 A0,0 0 0 0 587.7,54.0492 L756.9,54.0492 A0,0 0 0 0 756.9,54.0492 L756.9,33.3 L750.9,27.3 L587.7,27.3 A0,0 0 0 0 587.7,27.3 " fill="#FEFFDD" style="stroke:#181818;stroke-width:0.3;"/><path d="M750.9,27.3 L750.9,33.3 L756.9,33.3 L750.9,27.3 " fill="#FEFFDD" style="stroke:#181818;stroke-width:0.3;"/><text fill="#000000" font-family="sans-serif" font-size="7.8" lengthAdjust="spacing" textLength="156.6" x="591.3" y="38.717">- Skill name is obtained from the HRM's input</text><text fill="#000000" font-family="sans-serif" font-size="7.8" lengthAdjust="spacing" textLength="103.8" x="591.3" y="49.0916">- Updates the Skill Repository</text></g><g id="elem_GMN15"><path d="M401.7,572.1 L401.7,588.4746 L512.1,588.4746 L512.1,578.1 L506.1,572.1 L401.7,572.1 " fill="#FEFFDD" style="stroke:#181818;stroke-width:0.3;"/><path d="M506.1,572.1 L506.1,578.1 L512.1,578.1 L506.1,572.1 " fill="#FEFFDD" style="stroke:#181818;stroke-width:0.6;"/><text fill="#000000" font-family="sans-serif" font-size="7.8" lengthAdjust="spacing" textLength="97.8" x="405.3" y="583.517">- HRM initiates skill creation</text></g><g id="elem_GMN18"><path d="M3.6,27.3 L3.6,54.0492 L167.4,54.0492 L167.4,33.3 L161.4,27.3 L3.6,27.3 " fill="#FEFFDD" style="stroke:#181818;stroke-width:0.3;"/><path d="M161.4,27.3 L161.4,33.3 L167.4,33.3 L161.4,27.3 " fill="#FEFFDD" style="stroke:#181818;stroke-width:0.6;"/><text fill="#000000" font-family="sans-serif" font-size="7.8" lengthAdjust="spacing" textLength="151.2" x="7.2" y="38.717">- UI for HRM to input and confirm skill name</text><text fill="#000000" font-family="sans-serif" font-size="7.8" lengthAdjust="spacing" textLength="146.4" x="7.2" y="49.0916">- Communicates with CreateSkillController</text></g><g id="elem_GMN21"><path d="M95.7,434.7 L95.7,461.4492 A0,0 0 0 0 95.7,461.4492 L216.9,461.4492 A0,0 0 0 0 216.9,461.4492 L216.9,450.6 L237.846,448.2 L216.9,445.8 L216.9,440.7 L210.9,434.7 L95.7,434.7 A0,0 0 0 0 95.7,434.7 " fill="#FEFFDD" style="stroke:#181818;stroke-width:0.3;"/><path d="M210.9,434.7 L210.9,440.7 L216.9,440.7 L210.9,434.7 " fill="#FEFFDD" style="stroke:#181818;stroke-width:0.3;"/><text fill="#000000" font-family="sans-serif" font-size="7.8" lengthAdjust="spacing" textLength="57" x="99.3" y="446.117">- Manages skills</text><text fill="#000000" font-family="sans-serif" font-size="7.8" lengthAdjust="spacing" textLength="108.6" x="99.3" y="456.4916">- Handles organizational details</text></g><!--link HRM to GMN15--><g id="link_HRM_GMN15"><path d="M380.874,580.2 C381.15,580.2 381.3,580.2 381.3,580.2 C381.3,580.2 391.656,580.2 401.526,580.2 " fill="none" id="HRM-GMN15" style="stroke:#181818;stroke-width:0.6;stroke-dasharray:7.0,7.0;"/></g><!--link GMN18 to CreateSkillUI--><g id="link_GMN18_CreateSkillUI"><path d="M167.436,40.8 C175.536,40.8 181.902,40.8 181.902,40.8 C181.902,40.8 184.374,40.8 188.202,40.8 " fill="none" id="GMN18-CreateSkillUI" style="stroke:#181818;stroke-width:0.6;stroke-dasharray:7.0,7.0;"/></g><!--link Repositories to Repositories--><g id="link_Repositories_Repositories"><path codeLine="97" d="M537.378,147.33 C550.044,148.92 558.3,151.806 558.3,156 C558.3,160.194 553.616,162.6316 540.95,164.2216 " fill="none" id="Repositories-to-Repositories" style="stroke:#181818;stroke-width:0.6;"/><polygon fill="#181818" points="537.378,164.67,543.0349,166.3787,540.3546,164.2963,542.437,161.6161,537.378,164.67" style="stroke:#181818;stroke-width:0.6;"/><text fill="#000000" font-family="sans-serif" font-size="7.8" lengthAdjust="spacing" textLength="29.4" x="561.9" y="159.317">instance</text></g><!--link ApplicationSession to ApplicationSession--><g id="link_ApplicationSession_ApplicationSession"><path codeLine="98" d="M696.696,145.974 C708.6,146.568 717.6,149.91 717.6,156 C717.6,162.09 712.1955,165.2526 700.2915,165.8466 " fill="none" id="ApplicationSession-to-ApplicationSession" style="stroke:#181818;stroke-width:0.6;"/><polygon fill="#181818" points="696.696,166.026,702.2089,168.1539,699.6923,165.8765,701.9697,163.3599,696.696,166.026" style="stroke:#181818;stroke-width:0.6;"/><text fill="#000000" font-family="sans-serif" font-size="7.8" lengthAdjust="spacing" textLength="29.4" x="721.2" y="159.317">instance</text></g><!--link CreateSkillUI to CreateSkillController--><g id="link_CreateSkillUI_CreateSkillController"><path codeLine="100" d="M271.902,40.8 C280.68,40.8 285.018,40.8 289.434,40.8 " fill="none" id="CreateSkillUI-to-CreateSkillController" style="stroke:#181818;stroke-width:0.6;stroke-dasharray:7.0,7.0;"/><polygon fill="#181818" points="293.034,40.8,287.634,38.4,290.034,40.8,287.634,43.2,293.034,40.8" style="stroke:#181818;stroke-width:0.6;"/></g><!--link CreateSkillController to Repositories--><g id="link_CreateSkillController_Repositories"><path codeLine="102" d="M429.9,77.472 C429.9,92.67 429.9,106.572 429.9,121.14 " fill="none" id="CreateSkillController-to-Repositories" style="stroke:#181818;stroke-width:0.6;"/><polygon fill="#181818" points="429.9,124.74,432.3,119.34,429.9,121.74,427.5,119.34,429.9,124.74" style="stroke:#181818;stroke-width:0.6;"/><text fill="#000000" font-family="sans-serif" font-size="7.8" lengthAdjust="spacing" textLength="64.8" x="430.5" y="104.417">retrieves instances</text></g><!--link Repositories to SkillRepository--><g id="link_Repositories_SkillRepository"><path codeLine="104" d="M451.176,187.236 C460.89,201.222 470.6864,215.3292 482.0084,231.6312 " fill="none" id="Repositories-to-SkillRepository" style="stroke:#181818;stroke-width:0.6;"/><polygon fill="#181818" points="484.062,234.588,482.9529,228.7837,482.3507,232.124,479.0104,231.5218,484.062,234.588" style="stroke:#181818;stroke-width:0.6;"/><text fill="#000000" font-family="sans-serif" font-size="7.8" lengthAdjust="spacing" textLength="33.6" x="469.5" y="214.217">accesses</text></g><!--link Repositories to OrganizationRepository--><g id="link_Repositories_OrganizationRepository"><path codeLine="105" d="M398.928,187.236 C379.86,206.1 357.7052,228.0061 336.8372,248.6521 " fill="none" id="Repositories-to-OrganizationRepository" style="stroke:#181818;stroke-width:0.6;"/><polygon fill="#181818" points="334.278,251.184,339.8047,249.0922,336.4106,249.0741,336.4288,245.68,334.278,251.184" style="stroke:#181818;stroke-width:0.6;"/><text fill="#000000" font-family="sans-serif" font-size="7.8" lengthAdjust="spacing" textLength="33.6" x="378.3" y="214.217">accesses</text></g><!--link CreateSkillController to OrganizationRepository--><g id="link_CreateSkillController_OrganizationRepository"><path codeLine="107" d="M343.944,77.496 C290.274,100.038 231.3,124.8 231.3,124.8 C231.3,124.8 231.3,187.2 231.3,187.2 C231.3,187.2 249.2879,218.6355 266.2499,248.2755 " fill="none" id="CreateSkillController-to-OrganizationRepository" style="stroke:#181818;stroke-width:0.6;stroke-dasharray:7.0,7.0;"/><polygon fill="#181818" points="268.038,251.4,267.4389,245.5211,266.5479,248.7962,263.2729,247.9052,268.038,251.4" style="stroke:#181818;stroke-width:0.6;"/><text fill="#000000" font-family="sans-serif" font-size="7.8" lengthAdjust="spacing" textLength="79.2" x="231.9" y="159.317">organizationRepository</text></g><!--link OrganizationRepository to Organization--><g id="link_OrganizationRepository_Organization"><path codeLine="109" d="M291.9,336.192 C291.9,355.962 291.9,376.044 291.9,396.48 " fill="none" id="OrganizationRepository-to-Organization" style="stroke:#181818;stroke-width:0.6;"/><polygon fill="#181818" points="291.9,400.08,294.3,394.68,291.9,397.08,289.5,394.68,291.9,400.08" style="stroke:#181818;stroke-width:0.6;"/><text fill="#000000" font-family="sans-serif" font-size="7.8" lengthAdjust="spacing" textLength="27.6" x="292.5" y="379.817">persists</text><text fill="#000000" font-family="sans-serif" font-size="7.8" lengthAdjust="spacing" textLength="3" x="288.7617" y="393.4064">*</text></g><!--link ApplicationSession to UserSession--><g id="link_ApplicationSession_UserSession"><path codeLine="110" d="M665.826,181.638 C681.186,208.11 703.295,246.2164 717.335,270.4084 " fill="none" id="ApplicationSession-to-UserSession" style="stroke:#181818;stroke-width:0.6;"/><polygon fill="#181818" points="719.142,273.522,718.5072,267.6469,717.6362,270.9273,714.3557,270.0562,719.142,273.522" style="stroke:#181818;stroke-width:0.6;"/><text fill="#000000" font-family="sans-serif" font-size="7.8" lengthAdjust="spacing" textLength="43.2" x="684.9" y="214.217">userSession</text><text fill="#000000" font-family="sans-serif" font-size="7.8" lengthAdjust="spacing" textLength="4.2" x="712.2925" y="266.802">1</text></g><!--link CreateSkillController to Organization--><g id="link_CreateSkillController_Organization"><path codeLine="112" d="M323.046,77.418 C293.658,87.324 269.7,95.4 269.7,95.4 C269.7,95.4 226.5,124.8 226.5,124.8 C226.5,124.8 150.3,234.6 150.3,234.6 C150.3,234.6 150.3,352.8 150.3,352.8 C150.3,352.8 227.1,400.2 227.1,400.2 C227.1,400.2 228.5036,401.2229 234.8936,405.9029 " fill="none" id="CreateSkillController-to-Organization" style="stroke:#181818;stroke-width:0.6;stroke-dasharray:7.0,7.0;"/><polygon fill="#181818" points="237.798,408.03,234.8596,402.9031,235.3777,406.2574,232.0234,406.7755,237.798,408.03" style="stroke:#181818;stroke-width:0.6;"/><text fill="#000000" font-family="sans-serif" font-size="7.8" lengthAdjust="spacing" textLength="42" x="171.3" y="214.217">organization</text><text fill="#000000" font-family="sans-serif" font-size="7.8" lengthAdjust="spacing" textLength="4.2" x="228.9438" y="402.5121">1</text></g><!--link CreateSkillController to ApplicationSession--><g id="link_CreateSkillController_ApplicationSession"><path codeLine="113" d="M501.312,77.496 C545.904,100.038 594.9,124.8 594.9,124.8 C594.9,124.8 596.2004,125.4999 602.6084,128.9799 " fill="none" id="CreateSkillController-to-ApplicationSession" style="stroke:#181818;stroke-width:0.6;stroke-dasharray:7.0,7.0;"/><polygon fill="#181818" points="605.772,130.698,602.172,126.0119,603.1357,129.2663,599.8812,130.23,605.772,130.698" style="stroke:#181818;stroke-width:0.6;"/></g><!--link CreateSkillController to UserSession--><g id="link_CreateSkillController_UserSession"><path codeLine="114" d="M566.856,76.59 C655.506,99.366 754.5,124.8 754.5,124.8 C754.5,124.8 754.5,187.2 754.5,187.2 C754.5,187.2 742.6957,239.291 735.7537,269.921 " fill="none" id="CreateSkillController-to-UserSession" style="stroke:#181818;stroke-width:0.6;stroke-dasharray:7.0,7.0;"/><polygon fill="#181818" points="734.958,273.432,738.4922,268.696,735.6211,270.5062,733.8109,267.6351,734.958,273.432" style="stroke:#181818;stroke-width:0.6;"/></g><!--link SkillRepository to Skill--><g id="link_SkillRepository_Skill"><path codeLine="115" d="M500.154,352.914 C489.036,379.452 478.0298,405.7351 470.1098,424.6591 " fill="none" id="SkillRepository-to-Skill" style="stroke:#181818;stroke-width:0.6;"/><polygon fill="#181818" points="468.72,427.98,473.0187,423.9252,469.8782,425.2126,468.5908,422.0721,468.72,427.98" style="stroke:#181818;stroke-width:0.6;"/><text fill="#000000" font-family="sans-serif" font-size="7.8" lengthAdjust="spacing" textLength="19.8" x="493.5" y="379.817">saves</text><text fill="#000000" font-family="sans-serif" font-size="7.8" lengthAdjust="spacing" textLength="4.2" x="493.9972" y="366.0612">1</text><text fill="#000000" font-family="sans-serif" font-size="7.8" lengthAdjust="spacing" textLength="3" x="467.001" y="421.4087">*</text></g><!--link Skill to HRM--><g id="link_Skill_HRM"><path codeLine="116" d="M442.986,468.384 C425.262,488.196 399.8584,516.5991 378.1384,540.8751 " fill="none" id="Skill-to-HRM" style="stroke:#181818;stroke-width:0.6;"/><polygon fill="#181818" points="375.738,543.558,381.1272,541.1339,377.7384,541.3222,377.55,537.9334,375.738,543.558" style="stroke:#181818;stroke-width:0.6;"/><text fill="#000000" font-family="sans-serif" font-size="7.8" lengthAdjust="spacing" textLength="35.4" x="402.9" y="523.217">createdBy</text></g><!--link Organization to HRM--><g id="link_Organization_HRM"><path codeLine="118" d="M310.602,496.206 C316.746,511.782 322.1511,525.4791 327.9111,540.0831 " fill="none" id="Organization-to-HRM" style="stroke:#181818;stroke-width:0.6;"/><polygon fill="#181818" points="329.232,543.432,329.4833,537.528,328.1313,540.6412,325.0181,539.2892,329.232,543.432" style="stroke:#181818;stroke-width:0.6;"/><text fill="#000000" font-family="sans-serif" font-size="7.8" lengthAdjust="spacing" textLength="29.4" x="321.9" y="523.217">employs</text><text fill="#000000" font-family="sans-serif" font-size="7.8" lengthAdjust="spacing" textLength="3" x="324.4088" y="536.8013">*</text></g><!--SRC=[bLRVRzem47xFNt7g2x2DQdj54rBBDWrfRQKYzcwI0xmwTcOxL7JQ_xwp7S093bsH4EJk- -xEzyiPc2SkAwPP2QMIAjzgLI9ONMDsqbGiVs8RNDYzGD2OMoOt8WQOBIlKCvSRM3DXOetW4ks-GgYKsBk7R91GAcrL5h5omOoviLRpLMrndYkvu2y87xDi871jmIhGVBErK70N3bSoopm7RgfAy9mvqGADSPe_6T3dFHXBuXmsQEUI_iiSXwD6HR9PhJLAsv18y_TWScbGTsqHmOc_beoB6Bjuua90G8r1iX8diA1Zo4q7yuYLCjmglVVeCVpWndxsgYaOzsCovsYbb40cOSS4BvX5ZnW6DnusQi42yukwLtQcf6LSdcCVAfST9WxUM56y3ierdhpx0_dJ1N0SEsN6_pF3e0kM3zBR_JsnpYqSugTO4YSyfkv1RvZaBxwyJTuYK_7pZjdxkboXZeLaNLCXOr6rLR95H5VILapukwQc7ZwiVb6hWUe9frFGA8CnokSd5jpklp_U3UaBMrsEtaJy-UrkI5_OhTz896-XSUCZNpJXMgILUnKzZ9AD6iClSO_9F2QGesbIs1fLcBGW1q1dcZok8pj0q-NoZBJg5DpirFvkhhGI0dKJPL8txEaDbHH_y0lZbKztRvZsyt_PkAdjbhPSio4ZOwn7ySPja4hOSjuaIjCaeGaLysiWmhi9y6kpEz4auDAsvlbyM1kG7sOPO6HPAelDFQ7MwJA5oVUxnla3Ra2jtDh40jPq5G9bnSKsCEIWggt7BolNuCRh0ZTg6PG5ECTTzsJ4azr1kUIMUnE-XY6TxdhfaFrTrmvzEGyXp66jj3T6Tw4F3HYHwQPSSrqsTezBSQRAifQkkEJpcTjjJpPw_CUzxEtTCKdl0-PqKT6voBqWKTpWJ421b4s2d2otvdmyRS_zXCuI1ZuxlyaTEY6DE5cxxQwdFUVCqlCyffSOUHwIHkestA4vEZBTOpJ4xeXEWEM4DaH8udkMH4JhYVJw-W8vlMEoh8Smfa2ktbsrBzS9LAWDtUicMGX7-NGLlneHeuvUb2x4xOWTNt745vY9bxj-SFpQrgcBY-1mwZ304p2C2Xo0NkT6Qz8ikkAsaxqZEw2mh8JQc-mV]--></g></svg>