<?xml version="1.0" encoding="us-ascii" standalone="no"?><svg xmlns="http://www.w3.org/2000/svg" xmlns:xlink="http://www.w3.org/1999/xlink" contentStyleType="text/css" height="331.2px" preserveAspectRatio="none" style="width:741px;height:331px;background:#FFFFFF;" version="1.1" viewBox="0 0 741 331" width="741.6px" zoomAndPan="magnify"><defs/><g><text fill="#000000" font-family="sans-serif" font-size="11.2" font-weight="bold" lengthAdjust="spacing" textLength="67.2" x="336.6" y="24.0859">SSD US013 -</text><rect fill="#FFFFFF" height="150.9969" style="stroke:#181818;stroke-width:0.8000000000000002;" width="8" x="10.8" y="106.5938"/><rect fill="#FFFFFF" height="25.0328" style="stroke:#181818;stroke-width:0.8000000000000002;" width="8" x="707.6" y="125.2266"/><rect fill="#FFFFFF" height="25.0328" style="stroke:#181818;stroke-width:0.8000000000000002;" width="8" x="707.6" y="175.2922"/><rect fill="#FFFFFF" height="25.0328" style="stroke:#181818;stroke-width:0.8000000000000002;" width="8" x="707.6" y="225.3578"/><line style="stroke:#181818;stroke-width:0.4000000000000001;stroke-dasharray:5.0,5.0;" x1="14.4" x2="14.4" y1="98.5938" y2="264.7906"/><line style="stroke:#181818;stroke-width:0.4000000000000001;stroke-dasharray:5.0,5.0;" x1="711.6" x2="711.6" y1="98.5938" y2="264.7906"/><text fill="#000000" font-family="sans-serif" font-size="11.2" lengthAdjust="spacing" textLength="3.2" x="10.8" y="95.7828">&#160;</text><ellipse cx="14.8" cy="42.4969" fill="#E3E3E3" rx="6.4" ry="6.4" style="stroke:#181818;stroke-width:0.4000000000000001;"/><path d="M14.8,48.8969 L14.8,70.4969 M4.4,55.2969 L25.2,55.2969 M14.8,70.4969 L4.4,82.4969 M14.8,70.4969 L25.2,82.4969 " fill="none" style="stroke:#181818;stroke-width:0.4000000000000001;"/><text fill="#000000" font-family="sans-serif" font-size="11.2" lengthAdjust="spacing" textLength="3.2" x="10.8" y="276.0766">&#160;</text><ellipse cx="14.8" cy="285.6875" fill="#E3E3E3" rx="6.4" ry="6.4" style="stroke:#181818;stroke-width:0.4000000000000001;"/><path d="M14.8,292.0875 L14.8,313.6875 M4.4,298.4875 L25.2,298.4875 M14.8,313.6875 L4.4,325.6875 M14.8,313.6875 L25.2,325.6875 " fill="none" style="stroke:#181818;stroke-width:0.4000000000000001;"/><rect fill="#E3E3E3" height="26.0969" rx="2" ry="2" style="stroke:#181818;stroke-width:0.4000000000000001;" width="51.2" x="686" y="71.6969"/><text fill="#000000" font-family="sans-serif" font-size="11.2" lengthAdjust="spacing" textLength="40" x="691.6" y="89.3828">:System</text><rect fill="#E3E3E3" height="26.0969" rx="2" ry="2" style="stroke:#181818;stroke-width:0.4000000000000001;" width="51.2" x="686" y="263.9906"/><text fill="#000000" font-family="sans-serif" font-size="11.2" lengthAdjust="spacing" textLength="40" x="691.6" y="281.6766">:System</text><rect fill="#FFFFFF" height="150.9969" style="stroke:#181818;stroke-width:0.8000000000000002;" width="8" x="10.8" y="106.5938"/><rect fill="#FFFFFF" height="25.0328" style="stroke:#181818;stroke-width:0.8000000000000002;" width="8" x="707.6" y="125.2266"/><rect fill="#FFFFFF" height="25.0328" style="stroke:#181818;stroke-width:0.8000000000000002;" width="8" x="707.6" y="175.2922"/><rect fill="#FFFFFF" height="25.0328" style="stroke:#181818;stroke-width:0.8000000000000002;" width="8" x="707.6" y="225.3578"/><polygon fill="#181818" points="698,122.0266,706,125.2266,698,128.4266,701.2,125.2266" style="stroke:#181818;stroke-width:0.8000000000000002;"/><line style="stroke:#181818;stroke-width:0.8000000000000002;" x1="18.8" x2="702.8" y1="125.2266" y2="125.2266"/><text fill="#000000" font-family="sans-serif" font-size="10.4" font-weight="bold" lengthAdjust="spacing" textLength="5.6" x="24.4" y="121.0164">1</text><text fill="#000000" font-family="sans-serif" font-size="10.4" lengthAdjust="spacing" textLength="663.2" x="33.2" y="121.0164">ask for the routes to be opened and pipes needed to be laid with a minimum accumulated cost, ensuring that all points are adequately supplied.</text><polygon fill="#181818" points="27.6,147.0594,19.6,150.2594,27.6,153.4594,24.4,150.2594" style="stroke:#181818;stroke-width:0.8000000000000002;"/><line style="stroke:#181818;stroke-width:0.8000000000000002;stroke-dasharray:2.0,2.0;" x1="22.8" x2="710.8" y1="150.2594" y2="150.2594"/><text fill="#000000" font-family="sans-serif" font-size="10.4" font-weight="bold" lengthAdjust="spacing" textLength="5.6" x="32.4" y="146.0492">2</text><text fill="#000000" font-family="sans-serif" font-size="10.4" lengthAdjust="spacing" textLength="351.2" x="41.2" y="146.0492">Ask for information about the terrain and the points that need to be supplied.</text><polygon fill="#181818" points="698,172.0922,706,175.2922,698,178.4922,701.2,175.2922" style="stroke:#181818;stroke-width:0.8000000000000002;"/><line style="stroke:#181818;stroke-width:0.8000000000000002;" x1="18.8" x2="702.8" y1="175.2922" y2="175.2922"/><text fill="#000000" font-family="sans-serif" font-size="10.4" font-weight="bold" lengthAdjust="spacing" textLength="5.6" x="24.4" y="171.082">3</text><text fill="#000000" font-family="sans-serif" font-size="10.4" lengthAdjust="spacing" textLength="85.6" x="33.2" y="171.082">Put the typed data</text><polygon fill="#181818" points="27.6,197.125,19.6,200.325,27.6,203.525,24.4,200.325" style="stroke:#181818;stroke-width:0.8000000000000002;"/><line style="stroke:#181818;stroke-width:0.8000000000000002;stroke-dasharray:2.0,2.0;" x1="22.8" x2="710.8" y1="200.325" y2="200.325"/><text fill="#000000" font-family="sans-serif" font-size="10.4" font-weight="bold" lengthAdjust="spacing" textLength="5.6" x="32.4" y="196.1148">4</text><text fill="#000000" font-family="sans-serif" font-size="10.4" lengthAdjust="spacing" textLength="199.2" x="41.2" y="196.1148">Ask about the costs of the pipes and labor.</text><polygon fill="#181818" points="698,222.1578,706,225.3578,698,228.5578,701.2,225.3578" style="stroke:#181818;stroke-width:0.8000000000000002;"/><line style="stroke:#181818;stroke-width:0.8000000000000002;" x1="18.8" x2="702.8" y1="225.3578" y2="225.3578"/><text fill="#000000" font-family="sans-serif" font-size="10.4" font-weight="bold" lengthAdjust="spacing" textLength="5.6" x="24.4" y="221.1477">5</text><text fill="#000000" font-family="sans-serif" font-size="10.4" lengthAdjust="spacing" textLength="85.6" x="33.2" y="221.1477">Put the typed data</text><polygon fill="#181818" points="27.6,247.1906,19.6,250.3906,27.6,253.5906,24.4,250.3906" style="stroke:#181818;stroke-width:0.8000000000000002;"/><line style="stroke:#181818;stroke-width:0.8000000000000002;stroke-dasharray:2.0,2.0;" x1="22.8" x2="710.8" y1="250.3906" y2="250.3906"/><text fill="#000000" font-family="sans-serif" font-size="10.4" font-weight="bold" lengthAdjust="spacing" textLength="5.6" x="32.4" y="246.1805">6</text><text fill="#000000" font-family="sans-serif" font-size="10.4" lengthAdjust="spacing" textLength="660.8" x="41.2" y="246.1805">returns the routes to be opened and pipes needed to be laid with a minimum accumulated cost, ensuring that all points are adequately supplied</text><!--SRC=[pP9DIyD048Rl-HKlFLjHlFKW27eNWZzWcfqsI_VBtLbB_hsJD6qLGc-26mZxCRFpF9EKWms9Cddu66BNv-WPaYitvNAIg3lGdbiP72Dp9nJsxcT0wSd4emrxxCWLRXgneg5j-ugFzk7n2UkceIenLB_bhFDEOiPA7ofuyyd5WRdHkyHsDb4Gh3RjK8Jz576QJcdsYuIlAGrqd5TOFy-Xs6ZQ0Jij8hqYnofS815RHamSs822GR99jmEpqOtJgIDhSBJIW-1jiBvwKDTLNvqMDkXYaJjmA3MFkjAJW9n3YZP80MK66Vwi6km6b9gIispk9yuB_ja7yvYXryf_STdWPJQmGT-UnCO0sghAv2ISCzamUOph6M026ercdzy4XXSP5XluVYuq9BtDaD1jYTiYL_2nWmLnTwAUli3eu3GY_ptbCc5cgJcK__6pBFS0pJS0]--></g></svg>