<?xml version="1.0" encoding="us-ascii" standalone="no"?><svg xmlns="http://www.w3.org/2000/svg" xmlns:xlink="http://www.w3.org/1999/xlink" contentStyleType="text/css" height="1315px" preserveAspectRatio="none" style="width:2394px;height:1315px;background:#FFFFFF;" version="1.1" viewBox="0 0 2394 1315" width="2394px" zoomAndPan="magnify"><defs/><g><rect fill="#FFFFFF" height="1120.8262" style="stroke:#181818;stroke-width:1.0;" width="10" x="91" y="93.6211"/><rect fill="#FFFFFF" height="342.2012" style="stroke:#181818;stroke-width:1.0;" width="10" x="526" y="116.9121"/><rect fill="#FFFFFF" height="190.377" style="stroke:#181818;stroke-width:1.0;" width="10" x="526" y="490.4043"/><rect fill="#FFFFFF" height="502.375" style="stroke:#181818;stroke-width:1.0;" width="10" x="526" y="712.0723"/><rect fill="#FFFFFF" height="235.998" style="stroke:#181818;stroke-width:1.0;" width="10" x="1062" y="191.8242"/><rect fill="#FFFFFF" height="328.959" style="stroke:#181818;stroke-width:1.0;" width="10" x="1062" y="854.1973"/><rect fill="#FFFFFF" height="90.543" style="stroke:#181818;stroke-width:1.0;" width="10" x="1067" y="918.4883"/><rect fill="#FFFFFF" height="31.291" style="stroke:#181818;stroke-width:1.0;" width="10" x="1638" y="223.1152"/><rect fill="#FFFFFF" height="31.291" style="stroke:#181818;stroke-width:1.0;" width="10" x="1638" y="285.6973"/><rect fill="#FFFFFF" height="79.543" style="stroke:#181818;stroke-width:1.0;" width="10" x="2331.5" y="1072.3223"/><line style="stroke:#181818;stroke-width:0.5;stroke-dasharray:5.0,5.0;" x1="96" x2="96" y1="83.6211" y2="1232.4473"/><line style="stroke:#181818;stroke-width:0.5;stroke-dasharray:5.0,5.0;" x1="530.5" x2="530.5" y1="83.6211" y2="1232.4473"/><line style="stroke:#181818;stroke-width:0.5;stroke-dasharray:5.0,5.0;" x1="1066.5" x2="1066.5" y1="156.7227" y2="1232.4473"/><line style="stroke:#181818;stroke-width:0.5;stroke-dasharray:5.0,5.0;" x1="1240.5" x2="1240.5" y1="83.6211" y2="1232.4473"/><line style="stroke:#181818;stroke-width:0.5;stroke-dasharray:5.0,5.0;" x1="1381.5" x2="1381.5" y1="83.6211" y2="1232.4473"/><line style="stroke:#181818;stroke-width:0.5;stroke-dasharray:5.0,5.0;" x1="1528.5" x2="1528.5" y1="83.6211" y2="1232.4473"/><line style="stroke:#181818;stroke-width:0.5;stroke-dasharray:5.0,5.0;" x1="1642.5" x2="1642.5" y1="83.6211" y2="1232.4473"/><line style="stroke:#181818;stroke-width:0.5;stroke-dasharray:5.0,5.0;" x1="1769.5" x2="1769.5" y1="83.6211" y2="1232.4473"/><line style="stroke:#181818;stroke-width:0.5;stroke-dasharray:5.0,5.0;" x1="1916.5" x2="1916.5" y1="83.6211" y2="1232.4473"/><line style="stroke:#181818;stroke-width:0.5;stroke-dasharray:5.0,5.0;" x1="2049.5" x2="2049.5" y1="83.6211" y2="1232.4473"/><line style="stroke:#181818;stroke-width:0.5;stroke-dasharray:5.0,5.0;" x1="2195.5" x2="2195.5" y1="83.6211" y2="1232.4473"/><line style="stroke:#181818;stroke-width:0.5;stroke-dasharray:5.0,5.0;" x1="2336.5" x2="2336.5" y1="83.6211" y2="1232.4473"/><text fill="#000000" font-family="sans-serif" font-size="14" lengthAdjust="spacing" textLength="176" x="5" y="80.1074">Human Resources Manager</text><ellipse cx="96" cy="13.5" fill="#E3E3E3" rx="8" ry="8" style="stroke:#181818;stroke-width:0.5;"/><path d="M96,21.5 L96,48.5 M83,29.5 L109,29.5 M96,48.5 L83,63.5 M96,48.5 L109,63.5 " fill="none" style="stroke:#181818;stroke-width:0.5;"/><text fill="#000000" font-family="sans-serif" font-size="14" lengthAdjust="spacing" textLength="176" x="5" y="1246.5547">Human Resources Manager</text><ellipse cx="96" cy="1258.5684" fill="#E3E3E3" rx="8" ry="8" style="stroke:#181818;stroke-width:0.5;"/><path d="M96,1266.5684 L96,1293.5684 M83,1274.5684 L109,1274.5684 M96,1293.5684 L83,1308.5684 M96,1293.5684 L109,1308.5684 " fill="none" style="stroke:#181818;stroke-width:0.5;"/><rect fill="#E3E3E3" height="32.6211" rx="2.5" ry="2.5" style="stroke:#181818;stroke-width:0.5;" width="97" x="482.5" y="50"/><text fill="#000000" font-family="sans-serif" font-size="14" lengthAdjust="spacing" textLength="83" x="489.5" y="72.1074">:AssignSkillUI</text><rect fill="#E3E3E3" height="32.6211" rx="2.5" ry="2.5" style="stroke:#181818;stroke-width:0.5;" width="97" x="482.5" y="1231.4473"/><text fill="#000000" font-family="sans-serif" font-size="14" lengthAdjust="spacing" textLength="83" x="489.5" y="1253.5547">:AssignSkillUI</text><rect fill="#E3E3E3" height="32.6211" rx="2.5" ry="2.5" style="stroke:#181818;stroke-width:0.5;" width="147" x="993.5" y="1231.4473"/><text fill="#000000" font-family="sans-serif" font-size="14" lengthAdjust="spacing" textLength="133" x="1000.5" y="1253.5547">:AssignSkillController</text><rect fill="#E3E3E3" height="32.6211" rx="2.5" ry="2.5" style="stroke:#181818;stroke-width:0.5;" width="97" x="1192.5" y="50"/><text fill="#000000" font-family="sans-serif" font-size="14" lengthAdjust="spacing" textLength="83" x="1199.5" y="72.1074">:Repositories</text><rect fill="#E3E3E3" height="32.6211" rx="2.5" ry="2.5" style="stroke:#181818;stroke-width:0.5;" width="97" x="1192.5" y="1231.4473"/><text fill="#000000" font-family="sans-serif" font-size="14" lengthAdjust="spacing" textLength="83" x="1199.5" y="1253.5547">:Repositories</text><rect fill="#E3E3E3" height="51.2422" rx="2.5" ry="2.5" style="stroke:#181818;stroke-width:0.5;" width="164" x="1299.5" y="31.3789"/><text fill="#000000" font-family="sans-serif" font-size="14" lengthAdjust="spacing" textLength="142" x="1310.5" y="53.4863">:collaboratorrepository</text><text fill="#000000" font-family="sans-serif" font-size="14" lengthAdjust="spacing" textLength="150" x="1306.5" y="72.1074">:CollaboratorRepository</text><rect fill="#E3E3E3" height="51.2422" rx="2.5" ry="2.5" style="stroke:#181818;stroke-width:0.5;" width="164" x="1299.5" y="1231.4473"/><text fill="#000000" font-family="sans-serif" font-size="14" lengthAdjust="spacing" textLength="142" x="1310.5" y="1253.5547">:collaboratorrepository</text><text fill="#000000" font-family="sans-serif" font-size="14" lengthAdjust="spacing" textLength="150" x="1306.5" y="1272.1758">:CollaboratorRepository</text><rect fill="#E3E3E3" height="51.2422" rx="2.5" ry="2.5" style="stroke:#181818;stroke-width:0.5;" width="111" x="1473.5" y="31.3789"/><text fill="#000000" font-family="sans-serif" font-size="14" lengthAdjust="spacing" textLength="86" x="1486" y="53.4863">skillrepository</text><text fill="#000000" font-family="sans-serif" font-size="14" lengthAdjust="spacing" textLength="97" x="1480.5" y="72.1074">:SkillRepository</text><rect fill="#E3E3E3" height="51.2422" rx="2.5" ry="2.5" style="stroke:#181818;stroke-width:0.5;" width="111" x="1473.5" y="1231.4473"/><text fill="#000000" font-family="sans-serif" font-size="14" lengthAdjust="spacing" textLength="86" x="1486" y="1253.5547">skillrepository</text><text fill="#000000" font-family="sans-serif" font-size="14" lengthAdjust="spacing" textLength="97" x="1480.5" y="1272.1758">:SkillRepository</text><rect fill="#E3E3E3" height="51.2422" rx="2.5" ry="2.5" style="stroke:#181818;stroke-width:0.5;" width="97" x="1594.5" y="31.3789"/><text fill="#000000" font-family="sans-serif" font-size="14" lengthAdjust="spacing" textLength="74" x="1606" y="53.4863">repositories</text><text fill="#000000" font-family="sans-serif" font-size="14" lengthAdjust="spacing" textLength="83" x="1601.5" y="72.1074">:Repositories</text><rect fill="#E3E3E3" height="51.2422" rx="2.5" ry="2.5" style="stroke:#181818;stroke-width:0.5;" width="97" x="1594.5" y="1231.4473"/><text fill="#000000" font-family="sans-serif" font-size="14" lengthAdjust="spacing" textLength="74" x="1606" y="1253.5547">repositories</text><text fill="#000000" font-family="sans-serif" font-size="14" lengthAdjust="spacing" textLength="83" x="1601.5" y="1272.1758">:Repositories</text><rect fill="#E3E3E3" height="32.6211" rx="2.5" ry="2.5" style="stroke:#181818;stroke-width:0.5;" width="137" x="1701.5" y="50"/><text fill="#000000" font-family="sans-serif" font-size="14" lengthAdjust="spacing" textLength="123" x="1708.5" y="72.1074">:ApplicationSession</text><rect fill="#E3E3E3" height="32.6211" rx="2.5" ry="2.5" style="stroke:#181818;stroke-width:0.5;" width="137" x="1701.5" y="1231.4473"/><text fill="#000000" font-family="sans-serif" font-size="14" lengthAdjust="spacing" textLength="123" x="1708.5" y="1253.5547">:ApplicationSession</text><rect fill="#E3E3E3" height="51.2422" rx="2.5" ry="2.5" style="stroke:#181818;stroke-width:0.5;" width="137" x="1848.5" y="31.3789"/><text fill="#000000" font-family="sans-serif" font-size="14" lengthAdjust="spacing" textLength="74" x="1880" y="53.4863">appSession</text><text fill="#000000" font-family="sans-serif" font-size="14" lengthAdjust="spacing" textLength="123" x="1855.5" y="72.1074">:ApplicationSession</text><rect fill="#E3E3E3" height="51.2422" rx="2.5" ry="2.5" style="stroke:#181818;stroke-width:0.5;" width="137" x="1848.5" y="1231.4473"/><text fill="#000000" font-family="sans-serif" font-size="14" lengthAdjust="spacing" textLength="74" x="1880" y="1253.5547">appSession</text><text fill="#000000" font-family="sans-serif" font-size="14" lengthAdjust="spacing" textLength="123" x="1855.5" y="1272.1758">:ApplicationSession</text><rect fill="#E3E3E3" height="51.2422" rx="2.5" ry="2.5" style="stroke:#181818;stroke-width:0.5;" width="109" x="1995.5" y="31.3789"/><text fill="#000000" font-family="sans-serif" font-size="14" lengthAdjust="spacing" textLength="95" x="2002.5" y="53.4863">currentSession</text><text fill="#000000" font-family="sans-serif" font-size="14" lengthAdjust="spacing" textLength="83" x="2008.5" y="72.1074">:UserSession</text><rect fill="#E3E3E3" height="51.2422" rx="2.5" ry="2.5" style="stroke:#181818;stroke-width:0.5;" width="109" x="1995.5" y="1231.4473"/><text fill="#000000" font-family="sans-serif" font-size="14" lengthAdjust="spacing" textLength="95" x="2002.5" y="1253.5547">currentSession</text><text fill="#000000" font-family="sans-serif" font-size="14" lengthAdjust="spacing" textLength="83" x="2008.5" y="1272.1758">:UserSession</text><rect fill="#E3E3E3" height="51.2422" rx="2.5" ry="2.5" style="stroke:#181818;stroke-width:0.5;" width="163" x="2114.5" y="31.3789"/><text fill="#000000" font-family="sans-serif" font-size="14" lengthAdjust="spacing" textLength="149" x="2121.5" y="53.4863">organizationRepository:</text><text fill="#000000" font-family="sans-serif" font-size="14" lengthAdjust="spacing" textLength="148" x="2122" y="72.1074">OrganizationRepository</text><rect fill="#E3E3E3" height="51.2422" rx="2.5" ry="2.5" style="stroke:#181818;stroke-width:0.5;" width="163" x="2114.5" y="1231.4473"/><text fill="#000000" font-family="sans-serif" font-size="14" lengthAdjust="spacing" textLength="149" x="2121.5" y="1253.5547">organizationRepository:</text><text fill="#000000" font-family="sans-serif" font-size="14" lengthAdjust="spacing" textLength="148" x="2122" y="1272.1758">OrganizationRepository</text><rect fill="#E3E3E3" height="51.2422" rx="2.5" ry="2.5" style="stroke:#181818;stroke-width:0.5;" width="98" x="2287.5" y="31.3789"/><text fill="#000000" font-family="sans-serif" font-size="14" lengthAdjust="spacing" textLength="77" x="2298" y="53.4863">organization</text><text fill="#000000" font-family="sans-serif" font-size="14" lengthAdjust="spacing" textLength="84" x="2294.5" y="72.1074">:Organization</text><rect fill="#E3E3E3" height="51.2422" rx="2.5" ry="2.5" style="stroke:#181818;stroke-width:0.5;" width="98" x="2287.5" y="1231.4473"/><text fill="#000000" font-family="sans-serif" font-size="14" lengthAdjust="spacing" textLength="77" x="2298" y="1253.5547">organization</text><text fill="#000000" font-family="sans-serif" font-size="14" lengthAdjust="spacing" textLength="84" x="2294.5" y="1272.1758">:Organization</text><rect fill="#FFFFFF" height="1120.8262" style="stroke:#181818;stroke-width:1.0;" width="10" x="91" y="93.6211"/><rect fill="#FFFFFF" height="342.2012" style="stroke:#181818;stroke-width:1.0;" width="10" x="526" y="116.9121"/><rect fill="#FFFFFF" height="190.377" style="stroke:#181818;stroke-width:1.0;" width="10" x="526" y="490.4043"/><rect fill="#FFFFFF" height="502.375" style="stroke:#181818;stroke-width:1.0;" width="10" x="526" y="712.0723"/><rect fill="#FFFFFF" height="235.998" style="stroke:#181818;stroke-width:1.0;" width="10" x="1062" y="191.8242"/><rect fill="#FFFFFF" height="328.959" style="stroke:#181818;stroke-width:1.0;" width="10" x="1062" y="854.1973"/><rect fill="#FFFFFF" height="90.543" style="stroke:#181818;stroke-width:1.0;" width="10" x="1067" y="918.4883"/><rect fill="#FFFFFF" height="31.291" style="stroke:#181818;stroke-width:1.0;" width="10" x="1638" y="223.1152"/><rect fill="#FFFFFF" height="31.291" style="stroke:#181818;stroke-width:1.0;" width="10" x="1638" y="285.6973"/><rect fill="#FFFFFF" height="79.543" style="stroke:#181818;stroke-width:1.0;" width="10" x="2331.5" y="1072.3223"/><polygon fill="#181818" points="514,112.9121,524,116.9121,514,120.9121,518,116.9121" style="stroke:#181818;stroke-width:1.0;"/><line style="stroke:#181818;stroke-width:1.0;" x1="101" x2="520" y1="116.9121" y2="116.9121"/><text fill="#000000" font-family="sans-serif" font-size="13" font-weight="bold" lengthAdjust="spacing" textLength="7" x="108" y="111.6494">1</text><text fill="#000000" font-family="sans-serif" font-size="13" lengthAdjust="spacing" textLength="224" x="119" y="111.6494">asks to assign a skill to a collaborator.</text><polygon fill="#181818" points="981.5,144.2031,991.5,148.2031,981.5,152.2031,985.5,148.2031" style="stroke:#181818;stroke-width:1.0;"/><line style="stroke:#181818;stroke-width:1.0;" x1="536" x2="987.5" y1="148.2031" y2="148.2031"/><text fill="#000000" font-family="sans-serif" font-size="13" font-weight="bold" lengthAdjust="spacing" textLength="7" x="543" y="142.9404">2</text><text fill="#000000" font-family="sans-serif" font-size="13" lengthAdjust="spacing" textLength="36" x="554" y="142.9404">create</text><rect fill="#E3E3E3" height="32.6211" rx="2.5" ry="2.5" style="stroke:#181818;stroke-width:0.5;" width="147" x="993.5" y="124.9121"/><text fill="#000000" font-family="sans-serif" font-size="14" lengthAdjust="spacing" textLength="133" x="1000.5" y="147.0195">:AssignSkillController</text><polygon fill="#181818" points="1050,187.8242,1060,191.8242,1050,195.8242,1054,191.8242" style="stroke:#181818;stroke-width:1.0;"/><line style="stroke:#181818;stroke-width:1.0;" x1="536" x2="1056" y1="191.8242" y2="191.8242"/><text fill="#000000" font-family="sans-serif" font-size="13" font-weight="bold" lengthAdjust="spacing" textLength="7" x="543" y="186.5615">3</text><text fill="#000000" font-family="sans-serif" font-size="13" lengthAdjust="spacing" textLength="157" x="554" y="186.5615">getCollaboratorRepository()</text><polygon fill="#181818" points="1626,219.1152,1636,223.1152,1626,227.1152,1630,223.1152" style="stroke:#181818;stroke-width:1.0;"/><line style="stroke:#181818;stroke-width:1.0;" x1="1072" x2="1632" y1="223.1152" y2="223.1152"/><text fill="#000000" font-family="sans-serif" font-size="13" font-weight="bold" lengthAdjust="spacing" textLength="7" x="1079" y="217.8525">4</text><text fill="#000000" font-family="sans-serif" font-size="13" lengthAdjust="spacing" textLength="157" x="1090" y="217.8525">getCollaboratorRepository()</text><polygon fill="#181818" points="1083,250.4063,1073,254.4063,1083,258.4063,1079,254.4063" style="stroke:#181818;stroke-width:1.0;"/><line style="stroke:#181818;stroke-width:1.0;" x1="1077" x2="1642" y1="254.4063" y2="254.4063"/><text fill="#000000" font-family="sans-serif" font-size="13" font-weight="bold" lengthAdjust="spacing" textLength="7" x="1089" y="249.1436">5</text><text fill="#000000" font-family="sans-serif" font-size="13" lengthAdjust="spacing" textLength="124" x="1100" y="249.1436">collaboratorrepository</text><polygon fill="#181818" points="1626,281.6973,1636,285.6973,1626,289.6973,1630,285.6973" style="stroke:#181818;stroke-width:1.0;"/><line style="stroke:#181818;stroke-width:1.0;" x1="1072" x2="1632" y1="285.6973" y2="285.6973"/><text fill="#000000" font-family="sans-serif" font-size="13" font-weight="bold" lengthAdjust="spacing" textLength="7" x="1079" y="280.4346">6</text><text fill="#000000" font-family="sans-serif" font-size="13" lengthAdjust="spacing" textLength="113" x="1090" y="280.4346">getSkillRepository()</text><polygon fill="#181818" points="1083,312.9883,1073,316.9883,1083,320.9883,1079,316.9883" style="stroke:#181818;stroke-width:1.0;"/><line style="stroke:#181818;stroke-width:1.0;" x1="1077" x2="1642" y1="316.9883" y2="316.9883"/><text fill="#000000" font-family="sans-serif" font-size="13" font-weight="bold" lengthAdjust="spacing" textLength="7" x="1089" y="311.7256">7</text><text fill="#000000" font-family="sans-serif" font-size="13" lengthAdjust="spacing" textLength="80" x="1100" y="311.7256">skillrepository</text><polygon fill="#181818" points="1050,344.2793,1060,348.2793,1050,352.2793,1054,348.2793" style="stroke:#181818;stroke-width:1.0;"/><line style="stroke:#181818;stroke-width:1.0;" x1="536" x2="1056" y1="348.2793" y2="348.2793"/><text fill="#000000" font-family="sans-serif" font-size="13" font-weight="bold" lengthAdjust="spacing" textLength="7" x="543" y="343.0166">8</text><text fill="#000000" font-family="sans-serif" font-size="13" lengthAdjust="spacing" textLength="116" x="554" y="343.0166">getCollaboratorList()</text><rect fill="none" height="43.252" style="stroke:#000000;stroke-width:1.5;" width="153" x="990.5" y="356.2793"/><path d="M990.5,356.2793 L1052.5,356.2793 L1052.5,365.2793 L1042.5,375.2793 L990.5,375.2793 L990.5,356.2793 " fill="#EEEEEE" style="stroke:#000000;stroke-width:2.0;"/><text fill="#000000" font-family="sans-serif" font-size="13" font-weight="bold" lengthAdjust="spacing" textLength="17" x="1003.5" y="372.3076">ref</text><text fill="#000000" font-family="sans-serif" font-size="12" lengthAdjust="spacing" textLength="113" x="1010.5" y="392.2285">Get Collaborator List</text><polygon fill="#181818" points="547,423.8223,537,427.8223,547,431.8223,543,427.8223" style="stroke:#181818;stroke-width:1.0;"/><line style="stroke:#181818;stroke-width:1.0;" x1="541" x2="1066" y1="427.8223" y2="427.8223"/><text fill="#000000" font-family="sans-serif" font-size="13" font-weight="bold" lengthAdjust="spacing" textLength="7" x="553" y="422.5596">9</text><text fill="#000000" font-family="sans-serif" font-size="13" lengthAdjust="spacing" textLength="74" x="564" y="422.5596">collaborators</text><polygon fill="#181818" points="112,455.1133,102,459.1133,112,463.1133,108,459.1133" style="stroke:#181818;stroke-width:1.0;"/><line style="stroke:#181818;stroke-width:1.0;stroke-dasharray:2.0,2.0;" x1="106" x2="530" y1="459.1133" y2="459.1133"/><text fill="#000000" font-family="sans-serif" font-size="13" font-weight="bold" lengthAdjust="spacing" textLength="14" x="118" y="453.8506">10</text><text fill="#000000" font-family="sans-serif" font-size="13" lengthAdjust="spacing" textLength="383" x="136" y="453.8506">shows list of existing collaborators and asks to select one or more</text><polygon fill="#181818" points="514,486.4043,524,490.4043,514,494.4043,518,490.4043" style="stroke:#181818;stroke-width:1.0;"/><line style="stroke:#181818;stroke-width:1.0;" x1="101" x2="520" y1="490.4043" y2="490.4043"/><text fill="#000000" font-family="sans-serif" font-size="13" font-weight="bold" lengthAdjust="spacing" textLength="14" x="108" y="485.1416">11</text><text fill="#000000" font-family="sans-serif" font-size="13" lengthAdjust="spacing" textLength="128" x="126" y="485.1416">selects collaborator(s)</text><rect fill="none" height="43.252" style="stroke:#000000;stroke-width:1.5;" width="164" x="479.5" y="498.4043"/><path d="M479.5,498.4043 L541.5,498.4043 L541.5,507.4043 L531.5,517.4043 L479.5,517.4043 L479.5,498.4043 " fill="#EEEEEE" style="stroke:#000000;stroke-width:2.0;"/><text fill="#000000" font-family="sans-serif" font-size="13" font-weight="bold" lengthAdjust="spacing" textLength="17" x="492.5" y="514.4326">ref</text><text fill="#000000" font-family="sans-serif" font-size="12" lengthAdjust="spacing" textLength="156" x="483.5" y="534.3535">Get Selected Collaborator(s)</text><polygon fill="#181818" points="1055,565.9473,1065,569.9473,1055,573.9473,1059,569.9473" style="stroke:#181818;stroke-width:1.0;"/><line style="stroke:#181818;stroke-width:1.0;" x1="536" x2="1061" y1="569.9473" y2="569.9473"/><text fill="#000000" font-family="sans-serif" font-size="13" font-weight="bold" lengthAdjust="spacing" textLength="14" x="543" y="564.6846">12</text><text fill="#000000" font-family="sans-serif" font-size="13" lengthAdjust="spacing" textLength="72" x="561" y="564.6846">getSkillList()</text><rect fill="none" height="43.252" style="stroke:#000000;stroke-width:1.5;" width="153" x="990.5" y="577.9473"/><path d="M990.5,577.9473 L1052.5,577.9473 L1052.5,586.9473 L1042.5,596.9473 L990.5,596.9473 L990.5,577.9473 " fill="#EEEEEE" style="stroke:#000000;stroke-width:2.0;"/><text fill="#000000" font-family="sans-serif" font-size="13" font-weight="bold" lengthAdjust="spacing" textLength="17" x="1003.5" y="593.9756">ref</text><text fill="#000000" font-family="sans-serif" font-size="12" lengthAdjust="spacing" textLength="68" x="1033" y="613.8965">Get Skill List</text><polygon fill="#181818" points="547,645.4902,537,649.4902,547,653.4902,543,649.4902" style="stroke:#181818;stroke-width:1.0;"/><line style="stroke:#181818;stroke-width:1.0;" x1="541" x2="1066" y1="649.4902" y2="649.4902"/><text fill="#000000" font-family="sans-serif" font-size="13" font-weight="bold" lengthAdjust="spacing" textLength="14" x="553" y="644.2275">13</text><text fill="#000000" font-family="sans-serif" font-size="13" lengthAdjust="spacing" textLength="30" x="571" y="644.2275">skills</text><polygon fill="#181818" points="112,676.7813,102,680.7813,112,684.7813,108,680.7813" style="stroke:#181818;stroke-width:1.0;"/><line style="stroke:#181818;stroke-width:1.0;stroke-dasharray:2.0,2.0;" x1="106" x2="530" y1="680.7813" y2="680.7813"/><text fill="#000000" font-family="sans-serif" font-size="13" font-weight="bold" lengthAdjust="spacing" textLength="14" x="118" y="675.5186">14</text><text fill="#000000" font-family="sans-serif" font-size="13" lengthAdjust="spacing" textLength="339" x="136" y="675.5186">shows list of existing skills and asks to select one or more</text><polygon fill="#181818" points="514,708.0723,524,712.0723,514,716.0723,518,712.0723" style="stroke:#181818;stroke-width:1.0;"/><line style="stroke:#181818;stroke-width:1.0;" x1="101" x2="520" y1="712.0723" y2="712.0723"/><text fill="#000000" font-family="sans-serif" font-size="13" font-weight="bold" lengthAdjust="spacing" textLength="14" x="108" y="706.8096">15</text><text fill="#000000" font-family="sans-serif" font-size="13" lengthAdjust="spacing" textLength="84" x="126" y="706.8096">selects skill(s)</text><rect fill="none" height="43.252" style="stroke:#000000;stroke-width:1.5;" width="111" x="479.5" y="720.0723"/><path d="M479.5,720.0723 L541.5,720.0723 L541.5,729.0723 L531.5,739.0723 L479.5,739.0723 L479.5,720.0723 " fill="#EEEEEE" style="stroke:#000000;stroke-width:2.0;"/><text fill="#000000" font-family="sans-serif" font-size="13" font-weight="bold" lengthAdjust="spacing" textLength="17" x="492.5" y="736.1006">ref</text><text fill="#000000" font-family="sans-serif" font-size="12" lengthAdjust="spacing" textLength="103" x="483.5" y="756.0215">Get Selected Skills</text><polygon fill="#181818" points="112,787.6152,102,791.6152,112,795.6152,108,791.6152" style="stroke:#181818;stroke-width:1.0;"/><line style="stroke:#181818;stroke-width:1.0;" x1="106" x2="525" y1="791.6152" y2="791.6152"/><text fill="#000000" font-family="sans-serif" font-size="13" font-weight="bold" lengthAdjust="spacing" textLength="14" x="118" y="786.3525">16</text><text fill="#000000" font-family="sans-serif" font-size="13" lengthAdjust="spacing" textLength="272" x="136" y="786.3525">shows selected data and requests confirmation</text><polygon fill="#181818" points="514,818.9063,524,822.9063,514,826.9063,518,822.9063" style="stroke:#181818;stroke-width:1.0;"/><line style="stroke:#181818;stroke-width:1.0;" x1="101" x2="520" y1="822.9063" y2="822.9063"/><text fill="#000000" font-family="sans-serif" font-size="13" font-weight="bold" lengthAdjust="spacing" textLength="14" x="108" y="817.6436">17</text><text fill="#000000" font-family="sans-serif" font-size="13" lengthAdjust="spacing" textLength="78" x="126" y="817.6436">confirms data</text><polygon fill="#181818" points="1050,850.1973,1060,854.1973,1050,858.1973,1054,854.1973" style="stroke:#181818;stroke-width:1.0;"/><line style="stroke:#181818;stroke-width:1.0;" x1="536" x2="1056" y1="854.1973" y2="854.1973"/><text fill="#000000" font-family="sans-serif" font-size="13" font-weight="bold" lengthAdjust="spacing" textLength="14" x="543" y="848.9346">18</text><text fill="#000000" font-family="sans-serif" font-size="13" lengthAdjust="spacing" textLength="489" x="561" y="848.9346">assignSkillsToCollaborator(selectedCollaborator.getIDNumber(), selectedSkillNames)</text><line style="stroke:#181818;stroke-width:1.0;" x1="1072" x2="1119" y1="905.4883" y2="905.4883"/><line style="stroke:#181818;stroke-width:1.0;" x1="1119" x2="1119" y1="905.4883" y2="918.4883"/><line style="stroke:#181818;stroke-width:1.0;" x1="1078" x2="1119" y1="918.4883" y2="918.4883"/><polygon fill="#181818" points="1088,914.4883,1078,918.4883,1088,922.4883,1084,918.4883" style="stroke:#181818;stroke-width:1.0;"/><text fill="#000000" font-family="sans-serif" font-size="13" font-weight="bold" lengthAdjust="spacing" textLength="14" x="1084" y="900.2256">19</text><text fill="#000000" font-family="sans-serif" font-size="13" lengthAdjust="spacing" textLength="132" x="1102" y="900.2256">getHRMFromSession()</text><rect fill="none" height="43.252" style="stroke:#000000;stroke-width:1.5;" width="153" x="990.5" y="931.4883"/><path d="M990.5,931.4883 L1052.5,931.4883 L1052.5,940.4883 L1042.5,950.4883 L990.5,950.4883 L990.5,931.4883 " fill="#EEEEEE" style="stroke:#000000;stroke-width:2.0;"/><text fill="#000000" font-family="sans-serif" font-size="13" font-weight="bold" lengthAdjust="spacing" textLength="17" x="1003.5" y="947.5166">ref</text><text fill="#000000" font-family="sans-serif" font-size="12" lengthAdjust="spacing" textLength="49" x="1042.5" y="967.4375">Get HRM</text><line style="stroke:#181818;stroke-width:1.0;stroke-dasharray:2.0,2.0;" x1="1077" x2="1119" y1="1008.0313" y2="1008.0313"/><line style="stroke:#181818;stroke-width:1.0;stroke-dasharray:2.0,2.0;" x1="1119" x2="1119" y1="1008.0313" y2="1021.0313"/><line style="stroke:#181818;stroke-width:1.0;stroke-dasharray:2.0,2.0;" x1="1072" x2="1119" y1="1021.0313" y2="1021.0313"/><polygon fill="#181818" points="1082,1017.0313,1072,1021.0313,1082,1025.0313,1078,1021.0313" style="stroke:#181818;stroke-width:1.0;"/><text fill="#000000" font-family="sans-serif" font-size="13" font-weight="bold" lengthAdjust="spacing" textLength="14" x="1084" y="1002.7686">20</text><text fill="#000000" font-family="sans-serif" font-size="13" lengthAdjust="spacing" textLength="22" x="1102" y="1002.7686">hrm</text><polygon fill="#181818" points="2319.5,1068.3223,2329.5,1072.3223,2319.5,1076.3223,2323.5,1072.3223" style="stroke:#181818;stroke-width:1.0;"/><line style="stroke:#181818;stroke-width:1.0;" x1="1072" x2="2325.5" y1="1072.3223" y2="1072.3223"/><text fill="#000000" font-family="sans-serif" font-size="13" font-weight="bold" lengthAdjust="spacing" textLength="14" x="1079" y="1067.0596">21</text><text fill="#000000" font-family="sans-serif" font-size="13" lengthAdjust="spacing" textLength="489" x="1097" y="1067.0596">assignSkillsToCollaborator(selectedCollaborator.getIDNumber(), selectedSkillNames)</text><rect fill="none" height="43.252" style="stroke:#000000;stroke-width:1.5;" width="104" x="2284.5" y="1080.3223"/><path d="M2284.5,1080.3223 L2346.5,1080.3223 L2346.5,1089.3223 L2336.5,1099.3223 L2284.5,1099.3223 L2284.5,1080.3223 " fill="#EEEEEE" style="stroke:#000000;stroke-width:2.0;"/><text fill="#000000" font-family="sans-serif" font-size="13" font-weight="bold" lengthAdjust="spacing" textLength="17" x="2297.5" y="1096.3506">ref</text><text fill="#000000" font-family="sans-serif" font-size="12" lengthAdjust="spacing" textLength="79" x="2297" y="1116.2715">Assign Skill(s)</text><polygon fill="#181818" points="1083,1147.8652,1073,1151.8652,1083,1155.8652,1079,1151.8652" style="stroke:#181818;stroke-width:1.0;"/><line style="stroke:#181818;stroke-width:1.0;stroke-dasharray:2.0,2.0;" x1="1077" x2="2335.5" y1="1151.8652" y2="1151.8652"/><text fill="#000000" font-family="sans-serif" font-size="13" font-weight="bold" lengthAdjust="spacing" textLength="14" x="1089" y="1146.6025">22</text><text fill="#000000" font-family="sans-serif" font-size="13" lengthAdjust="spacing" textLength="119" x="1107" y="1146.6025">assignedcollaborator</text><polygon fill="#181818" points="547,1179.1563,537,1183.1563,547,1187.1563,543,1183.1563" style="stroke:#181818;stroke-width:1.0;"/><line style="stroke:#181818;stroke-width:1.0;stroke-dasharray:2.0,2.0;" x1="541" x2="1066" y1="1183.1563" y2="1183.1563"/><text fill="#000000" font-family="sans-serif" font-size="13" font-weight="bold" lengthAdjust="spacing" textLength="14" x="553" y="1177.8936">23</text><text fill="#000000" font-family="sans-serif" font-size="13" lengthAdjust="spacing" textLength="119" x="571" y="1177.8936">assignedcollaborator</text><polygon fill="#181818" points="107,1210.4473,97,1214.4473,107,1218.4473,103,1214.4473" style="stroke:#181818;stroke-width:1.0;"/><line style="stroke:#181818;stroke-width:1.0;stroke-dasharray:2.0,2.0;" x1="101" x2="530" y1="1214.4473" y2="1214.4473"/><text fill="#000000" font-family="sans-serif" font-size="13" font-weight="bold" lengthAdjust="spacing" textLength="14" x="113" y="1209.1846">24</text><text fill="#000000" font-family="sans-serif" font-size="13" lengthAdjust="spacing" textLength="158" x="131" y="1209.1846">displays operation success</text><!--SRC=[lLRRRjim37tNLn1zQJgi_O0y50ZQhGtG6-BchS2WsamYn9OyIUbbwCUFbXDRikKWAxRvfOrqU4WUKfJCMiYIQrv0eQHALreL25Pla9bcf-JfcYyniUyvWiRKShdCVO1PyKoz2hc41SyDCiOtLibDyOoQiUELo10MIjbdzSPuQfM6e-jDmINCqAYDJj70BPVaGHy1Dp2vl6N4QqKgIYuj78qdneYbJDOYp-TJXvbFXo4NIbgjydnBT_4uk-c0PrWg8oWGWSPXceNtH5IvKVGTavG8-RFId42wGJ_9yOMtqTBKdcSXYQcY2unTl1shf6EblM39f1VxmytaiIj6MUOYvLOecI09ewH3_fWyF8H8NfPR034FMFMCqWqf86rhE3UeVOlaMv9CxaCZfPTSYb-ElKru_2JlenkE9xurp4kX-2Orn-oALKqdNhX5rreCjX_zWDDpQYKO4t9jm2hwMxKHS72rSYlWb_wiDMz8gHVPCNWVCPuISSK_flFoSuF66iYuvJ2IlC0JvgEFKuqLZUlJBisvM_xoXOXg60iW4CSJUeastfcZas669YKNop1kzpbVvBDgmS_w78p1zVLXTiv_ctlyh1v6bU6V1j0NeNEg_tFsdIdp5z9k6wjNunjXh9UVnWMe5zHXCr-X1Ty8Agjc5sNMkjk9EP-6PJGi4cdRfS69ColrQY0d7w0MW6_qJtKr1NJ0PTOSUeCvNMgW9085LoYDhEEfEkBTaL5RcO1tP6ejUeQ1EBJeIvCu8im2ZNPCZKBxAk8Qxk1IEFI1DN3Dj4VyWzMlYJuXEnkGtH5kLVgSt4cOMwqoQzJrqp4x6pV4goIQiPugkH2wS3TEBzZjPZtyFUwwShnzivX75LP_wz1VFADAJo_ltBDgTFAr2SeHtD6zqX73gz3k-_ZuOB7PrLuQrxFRx_G6t5xddT6rvtw8jzjESs8Dre9-2uDferdfWWtCgBx_eSpe_lzNGlTbSO-D-DHkzAamCK3zWAsRScJYLqPKDYBqLQjpnSmVIsn8HnTmj0RLuOzIxQj8_14qXaoOCkVl1bI9sfqKC9kKtlqcTkAzdzLxxJS0]--></g></svg>