<?xml version="1.0" encoding="us-ascii" standalone="no"?><svg xmlns="http://www.w3.org/2000/svg" xmlns:xlink="http://www.w3.org/1999/xlink" contentStyleType="text/css" height="916.2px" preserveAspectRatio="none" style="width:1125px;height:916px;background:#FFFFFF;" version="1.1" viewBox="0 0 1125 916" width="1125px" zoomAndPan="magnify"><defs/><g><rect fill="#FFFFFF" height="799.8352" style="stroke:#181818;stroke-width:0.6;" width="6" x="54.6" y="56.1727"/><rect fill="#FFFFFF" height="270.2426" style="stroke:#181818;stroke-width:0.6;" width="6" x="315.6" y="70.1473"/><rect fill="#FFFFFF" height="147.0223" style="stroke:#181818;stroke-width:0.6;" width="6" x="315.6" y="359.1645"/><rect fill="#FFFFFF" height="331.0465" style="stroke:#181818;stroke-width:0.6;" width="6" x="315.6" y="524.9613"/><rect fill="#FFFFFF" height="206.5207" style="stroke:#181818;stroke-width:0.6;" width="6" x="576" y="115.0945"/><rect fill="#FFFFFF" height="56.3238" style="stroke:#181818;stroke-width:0.6;" width="6" x="576" y="431.0883"/><rect fill="#FFFFFF" height="202.7988" style="stroke:#181818;stroke-width:0.6;" width="6" x="576" y="634.4344"/><rect fill="#FFFFFF" height="54.3258" style="stroke:#181818;stroke-width:0.6;" width="6" x="579" y="673.009"/><rect fill="#FFFFFF" height="18.7746" style="stroke:#181818;stroke-width:0.6;" width="6" x="680.4" y="133.8691"/><rect fill="#FFFFFF" height="18.7746" style="stroke:#181818;stroke-width:0.6;" width="6" x="764.7" y="284.066"/><rect fill="#FFFFFF" height="18.7746" style="stroke:#181818;stroke-width:0.6;" width="6" x="853.2" y="449.8629"/><rect fill="#FFFFFF" height="18.7746" style="stroke:#181818;stroke-width:0.6;" width="6" x="921.6" y="171.4184"/><rect fill="#FFFFFF" height="18.7746" style="stroke:#181818;stroke-width:0.6;" width="6" x="921.6" y="227.7422"/><rect fill="#FFFFFF" height="71.9238" style="stroke:#181818;stroke-width:0.6;" width="6" x="985.5" y="765.3094"/><line style="stroke:#181818;stroke-width:0.3;stroke-dasharray:5.0,5.0;" x1="57.6" x2="57.6" y1="50.1727" y2="866.8078"/><line style="stroke:#181818;stroke-width:0.3;stroke-dasharray:5.0,5.0;" x1="318.3" x2="318.3" y1="50.1727" y2="866.8078"/><line style="stroke:#181818;stroke-width:0.3;stroke-dasharray:5.0,5.0;" x1="578.7" x2="578.7" y1="94.0336" y2="866.8078"/><line style="stroke:#181818;stroke-width:0.3;stroke-dasharray:5.0,5.0;" x1="683.1" x2="683.1" y1="50.1727" y2="866.8078"/><line style="stroke:#181818;stroke-width:0.3;stroke-dasharray:5.0,5.0;" x1="767.7" x2="767.7" y1="50.1727" y2="866.8078"/><line style="stroke:#181818;stroke-width:0.3;stroke-dasharray:5.0,5.0;" x1="855.9" x2="855.9" y1="50.1727" y2="866.8078"/><line style="stroke:#181818;stroke-width:0.3;stroke-dasharray:5.0,5.0;" x1="924.3" x2="924.3" y1="50.1727" y2="866.8078"/><line style="stroke:#181818;stroke-width:0.3;stroke-dasharray:5.0,5.0;" x1="988.5" x2="988.5" y1="50.1727" y2="866.8078"/><text fill="#000000" font-family="sans-serif" font-size="8.4" lengthAdjust="spacing" textLength="105.6" x="3" y="48.0645">Human Resources Manager</text><ellipse cx="57.6" cy="8.1" fill="#E3E3E3" rx="4.8" ry="4.8" style="stroke:#181818;stroke-width:0.3;"/><path d="M57.6,12.9 L57.6,29.1 M49.8,17.7 L65.4,17.7 M57.6,29.1 L49.8,38.1 M57.6,29.1 L65.4,38.1 " fill="none" style="stroke:#181818;stroke-width:0.3;"/><text fill="#000000" font-family="sans-serif" font-size="8.4" lengthAdjust="spacing" textLength="105.6" x="3" y="875.2723">Human Resources Manager</text><ellipse cx="57.6" cy="882.4805" fill="#E3E3E3" rx="4.8" ry="4.8" style="stroke:#181818;stroke-width:0.3;"/><path d="M57.6,887.2805 L57.6,903.4805 M49.8,892.0805 L65.4,892.0805 M57.6,903.4805 L49.8,912.4805 M57.6,903.4805 L65.4,912.4805 " fill="none" style="stroke:#181818;stroke-width:0.3;"/><rect fill="#E3E3E3" height="19.5727" rx="1.5" ry="1.5" style="stroke:#181818;stroke-width:0.3;" width="58.2" x="289.5" y="30"/><text fill="#000000" font-family="sans-serif" font-size="8.4" lengthAdjust="spacing" textLength="49.8" x="293.7" y="43.2645">:AssignSkillUI</text><rect fill="#E3E3E3" height="19.5727" rx="1.5" ry="1.5" style="stroke:#181818;stroke-width:0.3;" width="58.2" x="289.5" y="866.2078"/><text fill="#000000" font-family="sans-serif" font-size="8.4" lengthAdjust="spacing" textLength="49.8" x="293.7" y="879.4723">:AssignSkillUI</text><rect fill="#E3E3E3" height="19.5727" rx="1.5" ry="1.5" style="stroke:#181818;stroke-width:0.3;" width="88.2" x="534.9" y="866.2078"/><text fill="#000000" font-family="sans-serif" font-size="8.4" lengthAdjust="spacing" textLength="79.8" x="539.1" y="879.4723">:AssignSkillController</text><rect fill="#E3E3E3" height="19.5727" rx="1.5" ry="1.5" style="stroke:#181818;stroke-width:0.3;" width="58.2" x="654.3" y="30"/><text fill="#000000" font-family="sans-serif" font-size="8.4" lengthAdjust="spacing" textLength="49.8" x="658.5" y="43.2645">:Repositories</text><rect fill="#E3E3E3" height="19.5727" rx="1.5" ry="1.5" style="stroke:#181818;stroke-width:0.3;" width="58.2" x="654.3" y="866.2078"/><text fill="#000000" font-family="sans-serif" font-size="8.4" lengthAdjust="spacing" textLength="49.8" x="658.5" y="879.4723">:Repositories</text><rect fill="#E3E3E3" height="30.7453" rx="1.5" ry="1.5" style="stroke:#181818;stroke-width:0.3;" width="98.4" x="718.5" y="18.8273"/><text fill="#000000" font-family="sans-serif" font-size="8.4" lengthAdjust="spacing" textLength="85.2" x="725.1" y="32.0918">:collaboratorrepository</text><text fill="#000000" font-family="sans-serif" font-size="8.4" lengthAdjust="spacing" textLength="90" x="722.7" y="43.2645">:CollaboratorRepository</text><rect fill="#E3E3E3" height="30.7453" rx="1.5" ry="1.5" style="stroke:#181818;stroke-width:0.3;" width="98.4" x="718.5" y="866.2078"/><text fill="#000000" font-family="sans-serif" font-size="8.4" lengthAdjust="spacing" textLength="85.2" x="725.1" y="879.4723">:collaboratorrepository</text><text fill="#000000" font-family="sans-serif" font-size="8.4" lengthAdjust="spacing" textLength="90" x="722.7" y="890.6449">:CollaboratorRepository</text><rect fill="#E3E3E3" height="30.7453" rx="1.5" ry="1.5" style="stroke:#181818;stroke-width:0.3;" width="66.6" x="822.9" y="18.8273"/><text fill="#000000" font-family="sans-serif" font-size="8.4" lengthAdjust="spacing" textLength="51.6" x="830.4" y="32.0918">skillrepository</text><text fill="#000000" font-family="sans-serif" font-size="8.4" lengthAdjust="spacing" textLength="58.2" x="827.1" y="43.2645">:SkillRepository</text><rect fill="#E3E3E3" height="30.7453" rx="1.5" ry="1.5" style="stroke:#181818;stroke-width:0.3;" width="66.6" x="822.9" y="866.2078"/><text fill="#000000" font-family="sans-serif" font-size="8.4" lengthAdjust="spacing" textLength="51.6" x="830.4" y="879.4723">skillrepository</text><text fill="#000000" font-family="sans-serif" font-size="8.4" lengthAdjust="spacing" textLength="58.2" x="827.1" y="890.6449">:SkillRepository</text><rect fill="#E3E3E3" height="30.7453" rx="1.5" ry="1.5" style="stroke:#181818;stroke-width:0.3;" width="58.2" x="895.5" y="18.8273"/><text fill="#000000" font-family="sans-serif" font-size="8.4" lengthAdjust="spacing" textLength="44.4" x="902.4" y="32.0918">repositories</text><text fill="#000000" font-family="sans-serif" font-size="8.4" lengthAdjust="spacing" textLength="49.8" x="899.7" y="43.2645">:Repositories</text><rect fill="#E3E3E3" height="30.7453" rx="1.5" ry="1.5" style="stroke:#181818;stroke-width:0.3;" width="58.2" x="895.5" y="866.2078"/><text fill="#000000" font-family="sans-serif" font-size="8.4" lengthAdjust="spacing" textLength="44.4" x="902.4" y="879.4723">repositories</text><text fill="#000000" font-family="sans-serif" font-size="8.4" lengthAdjust="spacing" textLength="49.8" x="899.7" y="890.6449">:Repositories</text><rect fill="#E3E3E3" height="30.7453" rx="1.5" ry="1.5" style="stroke:#181818;stroke-width:0.3;" width="57.6" x="959.7" y="18.8273"/><text fill="#000000" font-family="sans-serif" font-size="8.4" lengthAdjust="spacing" textLength="45" x="966" y="32.0918">collaborator</text><text fill="#000000" font-family="sans-serif" font-size="8.4" lengthAdjust="spacing" textLength="49.2" x="963.9" y="43.2645">:Collaborator</text><rect fill="#E3E3E3" height="30.7453" rx="1.5" ry="1.5" style="stroke:#181818;stroke-width:0.3;" width="57.6" x="959.7" y="866.2078"/><text fill="#000000" font-family="sans-serif" font-size="8.4" lengthAdjust="spacing" textLength="45" x="966" y="879.4723">collaborator</text><text fill="#000000" font-family="sans-serif" font-size="8.4" lengthAdjust="spacing" textLength="49.2" x="963.9" y="890.6449">:Collaborator</text><rect fill="#FFFFFF" height="799.8352" style="stroke:#181818;stroke-width:0.6;" width="6" x="54.6" y="56.1727"/><rect fill="#FFFFFF" height="270.2426" style="stroke:#181818;stroke-width:0.6;" width="6" x="315.6" y="70.1473"/><rect fill="#FFFFFF" height="147.0223" style="stroke:#181818;stroke-width:0.6;" width="6" x="315.6" y="359.1645"/><rect fill="#FFFFFF" height="331.0465" style="stroke:#181818;stroke-width:0.6;" width="6" x="315.6" y="524.9613"/><rect fill="#FFFFFF" height="206.5207" style="stroke:#181818;stroke-width:0.6;" width="6" x="576" y="115.0945"/><rect fill="#FFFFFF" height="56.3238" style="stroke:#181818;stroke-width:0.6;" width="6" x="576" y="431.0883"/><rect fill="#FFFFFF" height="202.7988" style="stroke:#181818;stroke-width:0.6;" width="6" x="576" y="634.4344"/><rect fill="#FFFFFF" height="54.3258" style="stroke:#181818;stroke-width:0.6;" width="6" x="579" y="673.009"/><rect fill="#FFFFFF" height="18.7746" style="stroke:#181818;stroke-width:0.6;" width="6" x="680.4" y="133.8691"/><rect fill="#FFFFFF" height="18.7746" style="stroke:#181818;stroke-width:0.6;" width="6" x="764.7" y="284.066"/><rect fill="#FFFFFF" height="18.7746" style="stroke:#181818;stroke-width:0.6;" width="6" x="853.2" y="449.8629"/><rect fill="#FFFFFF" height="18.7746" style="stroke:#181818;stroke-width:0.6;" width="6" x="921.6" y="171.4184"/><rect fill="#FFFFFF" height="18.7746" style="stroke:#181818;stroke-width:0.6;" width="6" x="921.6" y="227.7422"/><rect fill="#FFFFFF" height="71.9238" style="stroke:#181818;stroke-width:0.6;" width="6" x="985.5" y="765.3094"/><polygon fill="#181818" points="308.4,67.7473,314.4,70.1473,308.4,72.5473,310.8,70.1473" style="stroke:#181818;stroke-width:0.6;"/><line style="stroke:#181818;stroke-width:0.6;" x1="60.6" x2="312" y1="70.1473" y2="70.1473"/><text fill="#000000" font-family="sans-serif" font-size="7.8" font-weight="bold" lengthAdjust="spacing" textLength="4.2" x="64.8" y="66.9896">1</text><text fill="#000000" font-family="sans-serif" font-size="7.8" lengthAdjust="spacing" textLength="134.4" x="71.4" y="66.9896">asks to assign a skill to a collaborator.</text><polygon fill="#181818" points="527.7,86.5219,533.7,88.9219,527.7,91.3219,530.1,88.9219" style="stroke:#181818;stroke-width:0.6;"/><line style="stroke:#181818;stroke-width:0.6;" x1="321.6" x2="531.3" y1="88.9219" y2="88.9219"/><text fill="#000000" font-family="sans-serif" font-size="7.8" font-weight="bold" lengthAdjust="spacing" textLength="4.2" x="325.8" y="85.7643">2</text><text fill="#000000" font-family="sans-serif" font-size="7.8" lengthAdjust="spacing" textLength="21.6" x="332.4" y="85.7643">create</text><rect fill="#E3E3E3" height="19.5727" rx="1.5" ry="1.5" style="stroke:#181818;stroke-width:0.3;" width="88.2" x="534.9" y="74.9473"/><text fill="#000000" font-family="sans-serif" font-size="8.4" lengthAdjust="spacing" textLength="79.8" x="539.1" y="88.2117">:AssignSkillController</text><polygon fill="#181818" points="568.8,112.6945,574.8,115.0945,568.8,117.4945,571.2,115.0945" style="stroke:#181818;stroke-width:0.6;"/><line style="stroke:#181818;stroke-width:0.6;" x1="321.6" x2="572.4" y1="115.0945" y2="115.0945"/><text fill="#000000" font-family="sans-serif" font-size="7.8" font-weight="bold" lengthAdjust="spacing" textLength="4.2" x="325.8" y="111.9369">3</text><text fill="#000000" font-family="sans-serif" font-size="7.8" lengthAdjust="spacing" textLength="94.2" x="332.4" y="111.9369">getCollaboratorRepository()</text><polygon fill="#181818" points="673.2,131.4691,679.2,133.8691,673.2,136.2691,675.6,133.8691" style="stroke:#181818;stroke-width:0.6;"/><line style="stroke:#181818;stroke-width:0.6;" x1="582" x2="676.8" y1="133.8691" y2="133.8691"/><text fill="#000000" font-family="sans-serif" font-size="7.8" font-weight="bold" lengthAdjust="spacing" textLength="4.2" x="586.2" y="130.7115">4</text><text fill="#000000" font-family="sans-serif" font-size="7.8" lengthAdjust="spacing" textLength="45" x="592.8" y="130.7115">getInstance()</text><polygon fill="#181818" points="588.6,150.2438,582.6,152.6437,588.6,155.0438,586.2,152.6437" style="stroke:#181818;stroke-width:0.6;"/><line style="stroke:#181818;stroke-width:0.6;stroke-dasharray:2.0,2.0;" x1="585" x2="682.8" y1="152.6437" y2="152.6437"/><text fill="#000000" font-family="sans-serif" font-size="7.8" font-weight="bold" lengthAdjust="spacing" textLength="4.2" x="592.2" y="149.4861">5</text><text fill="#000000" font-family="sans-serif" font-size="7.8" lengthAdjust="spacing" textLength="40.2" x="598.8" y="149.4861">repositories</text><polygon fill="#181818" points="914.4,169.0184,920.4,171.4184,914.4,173.8184,916.8,171.4184" style="stroke:#181818;stroke-width:0.6;"/><line style="stroke:#181818;stroke-width:0.6;" x1="582" x2="918" y1="171.4184" y2="171.4184"/><text fill="#000000" font-family="sans-serif" font-size="7.8" font-weight="bold" lengthAdjust="spacing" textLength="4.2" x="586.2" y="168.2607">6</text><text fill="#000000" font-family="sans-serif" font-size="7.8" lengthAdjust="spacing" textLength="94.2" x="592.8" y="168.2607">getCollaboratorRepository()</text><polygon fill="#181818" points="588.6,187.793,582.6,190.193,588.6,192.593,586.2,190.193" style="stroke:#181818;stroke-width:0.6;"/><line style="stroke:#181818;stroke-width:0.6;" x1="585" x2="924" y1="190.193" y2="190.193"/><text fill="#000000" font-family="sans-serif" font-size="7.8" font-weight="bold" lengthAdjust="spacing" textLength="4.2" x="592.2" y="187.0354">7</text><text fill="#000000" font-family="sans-serif" font-size="7.8" lengthAdjust="spacing" textLength="74.4" x="598.8" y="187.0354">collaboratorrepository</text><polygon fill="#181818" points="568.8,206.5676,574.8,208.9676,568.8,211.3676,571.2,208.9676" style="stroke:#181818;stroke-width:0.6;"/><line style="stroke:#181818;stroke-width:0.6;" x1="321.6" x2="572.4" y1="208.9676" y2="208.9676"/><text fill="#000000" font-family="sans-serif" font-size="7.8" font-weight="bold" lengthAdjust="spacing" textLength="4.2" x="325.8" y="205.81">8</text><text fill="#000000" font-family="sans-serif" font-size="7.8" lengthAdjust="spacing" textLength="67.8" x="332.4" y="205.81">getSkillRepository()</text><polygon fill="#181818" points="914.4,225.3422,920.4,227.7422,914.4,230.1422,916.8,227.7422" style="stroke:#181818;stroke-width:0.6;"/><line style="stroke:#181818;stroke-width:0.6;" x1="582" x2="918" y1="227.7422" y2="227.7422"/><text fill="#000000" font-family="sans-serif" font-size="7.8" font-weight="bold" lengthAdjust="spacing" textLength="4.2" x="586.2" y="224.5846">9</text><text fill="#000000" font-family="sans-serif" font-size="7.8" lengthAdjust="spacing" textLength="67.8" x="592.8" y="224.5846">getSkillRepository()</text><polygon fill="#181818" points="588.6,244.1168,582.6,246.5168,588.6,248.9168,586.2,246.5168" style="stroke:#181818;stroke-width:0.6;"/><line style="stroke:#181818;stroke-width:0.6;" x1="585" x2="924" y1="246.5168" y2="246.5168"/><text fill="#000000" font-family="sans-serif" font-size="7.8" font-weight="bold" lengthAdjust="spacing" textLength="8.4" x="592.2" y="243.3592">10</text><text fill="#000000" font-family="sans-serif" font-size="7.8" lengthAdjust="spacing" textLength="48" x="603" y="243.3592">skillrepository</text><polygon fill="#181818" points="568.8,262.8914,574.8,265.2914,568.8,267.6914,571.2,265.2914" style="stroke:#181818;stroke-width:0.6;"/><line style="stroke:#181818;stroke-width:0.6;" x1="321.6" x2="572.4" y1="265.2914" y2="265.2914"/><text fill="#000000" font-family="sans-serif" font-size="7.8" font-weight="bold" lengthAdjust="spacing" textLength="8.4" x="325.8" y="262.1338">11</text><text fill="#000000" font-family="sans-serif" font-size="7.8" lengthAdjust="spacing" textLength="69.6" x="336.6" y="262.1338">getCollaboratorList()</text><polygon fill="#181818" points="757.5,281.666,763.5,284.066,757.5,286.466,759.9,284.066" style="stroke:#181818;stroke-width:0.6;"/><line style="stroke:#181818;stroke-width:0.6;" x1="582" x2="761.1" y1="284.066" y2="284.066"/><text fill="#000000" font-family="sans-serif" font-size="7.8" font-weight="bold" lengthAdjust="spacing" textLength="8.4" x="586.2" y="280.9084">12</text><text fill="#000000" font-family="sans-serif" font-size="7.8" lengthAdjust="spacing" textLength="69.6" x="597" y="280.9084">getCollaboratorList()</text><polygon fill="#181818" points="588.6,300.4406,582.6,302.8406,588.6,305.2406,586.2,302.8406" style="stroke:#181818;stroke-width:0.6;"/><line style="stroke:#181818;stroke-width:0.6;" x1="585" x2="767.1" y1="302.8406" y2="302.8406"/><text fill="#000000" font-family="sans-serif" font-size="7.8" font-weight="bold" lengthAdjust="spacing" textLength="8.4" x="592.2" y="299.683">13</text><text fill="#000000" font-family="sans-serif" font-size="7.8" lengthAdjust="spacing" textLength="44.4" x="603" y="299.683">collaborators</text><polygon fill="#181818" points="328.2,319.2152,322.2,321.6152,328.2,324.0152,325.8,321.6152" style="stroke:#181818;stroke-width:0.6;"/><line style="stroke:#181818;stroke-width:0.6;" x1="324.6" x2="578.4" y1="321.6152" y2="321.6152"/><text fill="#000000" font-family="sans-serif" font-size="7.8" font-weight="bold" lengthAdjust="spacing" textLength="8.4" x="331.8" y="318.4576">14</text><text fill="#000000" font-family="sans-serif" font-size="7.8" lengthAdjust="spacing" textLength="44.4" x="342.6" y="318.4576">collaborators</text><polygon fill="#181818" points="67.2,337.9898,61.2,340.3898,67.2,342.7898,64.8,340.3898" style="stroke:#181818;stroke-width:0.6;"/><line style="stroke:#181818;stroke-width:0.6;stroke-dasharray:2.0,2.0;" x1="63.6" x2="318" y1="340.3898" y2="340.3898"/><text fill="#000000" font-family="sans-serif" font-size="7.8" font-weight="bold" lengthAdjust="spacing" textLength="8.4" x="70.8" y="337.2322">15</text><text fill="#000000" font-family="sans-serif" font-size="7.8" lengthAdjust="spacing" textLength="229.8" x="81.6" y="337.2322">shows list of existing collaborators and asks to select one or more</text><polygon fill="#181818" points="308.4,356.7645,314.4,359.1645,308.4,361.5645,310.8,359.1645" style="stroke:#181818;stroke-width:0.6;"/><line style="stroke:#181818;stroke-width:0.6;" x1="60.6" x2="312" y1="359.1645" y2="359.1645"/><text fill="#000000" font-family="sans-serif" font-size="7.8" font-weight="bold" lengthAdjust="spacing" textLength="8.4" x="64.8" y="356.0068">16</text><text fill="#000000" font-family="sans-serif" font-size="7.8" lengthAdjust="spacing" textLength="76.8" x="75.6" y="356.0068">selects collaborator(s)</text><line style="stroke:#181818;stroke-width:0.6;" x1="321.6" x2="346.8" y1="377.9391" y2="377.9391"/><line style="stroke:#181818;stroke-width:0.6;" x1="346.8" x2="346.8" y1="377.9391" y2="385.7391"/><line style="stroke:#181818;stroke-width:0.6;" x1="322.2" x2="346.8" y1="385.7391" y2="385.7391"/><polygon fill="#181818" points="328.2,383.3391,322.2,385.7391,328.2,388.1391,325.8,385.7391" style="stroke:#181818;stroke-width:0.6;"/><text fill="#000000" font-family="sans-serif" font-size="7.8" font-weight="bold" lengthAdjust="spacing" textLength="8.4" x="325.8" y="374.7814">17</text><text fill="#000000" font-family="sans-serif" font-size="7.8" lengthAdjust="spacing" textLength="74.4" x="336.6" y="374.7814">get(collaboratorindex)</text><line style="stroke:#181818;stroke-width:0.6;stroke-dasharray:2.0,2.0;" x1="321.6" x2="346.8" y1="404.5137" y2="404.5137"/><line style="stroke:#181818;stroke-width:0.6;stroke-dasharray:2.0,2.0;" x1="346.8" x2="346.8" y1="404.5137" y2="412.3137"/><line style="stroke:#181818;stroke-width:0.6;stroke-dasharray:2.0,2.0;" x1="322.2" x2="346.8" y1="412.3137" y2="412.3137"/><polygon fill="#181818" points="328.2,409.9137,322.2,412.3137,328.2,414.7137,325.8,412.3137" style="stroke:#181818;stroke-width:0.6;"/><text fill="#000000" font-family="sans-serif" font-size="7.8" font-weight="bold" lengthAdjust="spacing" textLength="8.4" x="325.8" y="401.3561">18</text><text fill="#000000" font-family="sans-serif" font-size="7.8" lengthAdjust="spacing" textLength="73.8" x="336.6" y="401.3561">selectedcollaborators</text><polygon fill="#181818" points="568.8,428.6883,574.8,431.0883,568.8,433.4883,571.2,431.0883" style="stroke:#181818;stroke-width:0.6;"/><line style="stroke:#181818;stroke-width:0.6;" x1="321.6" x2="572.4" y1="431.0883" y2="431.0883"/><text fill="#000000" font-family="sans-serif" font-size="7.8" font-weight="bold" lengthAdjust="spacing" textLength="8.4" x="325.8" y="427.9307">19</text><text fill="#000000" font-family="sans-serif" font-size="7.8" lengthAdjust="spacing" textLength="43.2" x="336.6" y="427.9307">getSkillList()</text><polygon fill="#181818" points="846,447.4629,852,449.8629,846,452.2629,848.4,449.8629" style="stroke:#181818;stroke-width:0.6;"/><line style="stroke:#181818;stroke-width:0.6;" x1="582" x2="849.6" y1="449.8629" y2="449.8629"/><text fill="#000000" font-family="sans-serif" font-size="7.8" font-weight="bold" lengthAdjust="spacing" textLength="8.4" x="586.2" y="446.7053">20</text><text fill="#000000" font-family="sans-serif" font-size="7.8" lengthAdjust="spacing" textLength="43.2" x="597" y="446.7053">getSkillList()</text><polygon fill="#181818" points="588.6,466.2375,582.6,468.6375,588.6,471.0375,586.2,468.6375" style="stroke:#181818;stroke-width:0.6;"/><line style="stroke:#181818;stroke-width:0.6;" x1="585" x2="855.6" y1="468.6375" y2="468.6375"/><text fill="#000000" font-family="sans-serif" font-size="7.8" font-weight="bold" lengthAdjust="spacing" textLength="8.4" x="592.2" y="465.4799">21</text><text fill="#000000" font-family="sans-serif" font-size="7.8" lengthAdjust="spacing" textLength="18" x="603" y="465.4799">skills</text><polygon fill="#181818" points="328.2,485.0121,322.2,487.4121,328.2,489.8121,325.8,487.4121" style="stroke:#181818;stroke-width:0.6;"/><line style="stroke:#181818;stroke-width:0.6;" x1="324.6" x2="578.4" y1="487.4121" y2="487.4121"/><text fill="#000000" font-family="sans-serif" font-size="7.8" font-weight="bold" lengthAdjust="spacing" textLength="8.4" x="331.8" y="484.2545">22</text><text fill="#000000" font-family="sans-serif" font-size="7.8" lengthAdjust="spacing" textLength="18" x="342.6" y="484.2545">skills</text><polygon fill="#181818" points="67.2,503.7867,61.2,506.1867,67.2,508.5867,64.8,506.1867" style="stroke:#181818;stroke-width:0.6;"/><line style="stroke:#181818;stroke-width:0.6;stroke-dasharray:2.0,2.0;" x1="63.6" x2="318" y1="506.1867" y2="506.1867"/><text fill="#000000" font-family="sans-serif" font-size="7.8" font-weight="bold" lengthAdjust="spacing" textLength="8.4" x="70.8" y="503.0291">23</text><text fill="#000000" font-family="sans-serif" font-size="7.8" lengthAdjust="spacing" textLength="203.4" x="81.6" y="503.0291">shows list of existing skills and asks to select one or more</text><polygon fill="#181818" points="308.4,522.5613,314.4,524.9613,308.4,527.3613,310.8,524.9613" style="stroke:#181818;stroke-width:0.6;"/><line style="stroke:#181818;stroke-width:0.6;" x1="60.6" x2="312" y1="524.9613" y2="524.9613"/><text fill="#000000" font-family="sans-serif" font-size="7.8" font-weight="bold" lengthAdjust="spacing" textLength="8.4" x="64.8" y="521.8037">24</text><text fill="#000000" font-family="sans-serif" font-size="7.8" lengthAdjust="spacing" textLength="50.4" x="75.6" y="521.8037">selects skill(s)</text><line style="stroke:#181818;stroke-width:0.6;" x1="321.6" x2="346.8" y1="543.7359" y2="543.7359"/><line style="stroke:#181818;stroke-width:0.6;" x1="346.8" x2="346.8" y1="543.7359" y2="551.5359"/><line style="stroke:#181818;stroke-width:0.6;" x1="322.2" x2="346.8" y1="551.5359" y2="551.5359"/><polygon fill="#181818" points="328.2,549.1359,322.2,551.5359,328.2,553.9359,325.8,551.5359" style="stroke:#181818;stroke-width:0.6;"/><text fill="#000000" font-family="sans-serif" font-size="7.8" font-weight="bold" lengthAdjust="spacing" textLength="8.4" x="325.8" y="540.5783">25</text><text fill="#000000" font-family="sans-serif" font-size="7.8" lengthAdjust="spacing" textLength="144.6" x="336.6" y="540.5783">add(skills.get(skillIndex).getName().trim())</text><line style="stroke:#181818;stroke-width:0.6;stroke-dasharray:2.0,2.0;" x1="321.6" x2="346.8" y1="570.3105" y2="570.3105"/><line style="stroke:#181818;stroke-width:0.6;stroke-dasharray:2.0,2.0;" x1="346.8" x2="346.8" y1="570.3105" y2="578.1105"/><line style="stroke:#181818;stroke-width:0.6;stroke-dasharray:2.0,2.0;" x1="322.2" x2="346.8" y1="578.1105" y2="578.1105"/><polygon fill="#181818" points="328.2,575.7105,322.2,578.1105,328.2,580.5105,325.8,578.1105" style="stroke:#181818;stroke-width:0.6;"/><text fill="#000000" font-family="sans-serif" font-size="7.8" font-weight="bold" lengthAdjust="spacing" textLength="8.4" x="325.8" y="567.1529">26</text><text fill="#000000" font-family="sans-serif" font-size="7.8" lengthAdjust="spacing" textLength="69" x="336.6" y="567.1529">selectedSkillNames</text><polygon fill="#181818" points="67.2,594.4852,61.2,596.8852,67.2,599.2852,64.8,596.8852" style="stroke:#181818;stroke-width:0.6;"/><line style="stroke:#181818;stroke-width:0.6;" x1="63.6" x2="315" y1="596.8852" y2="596.8852"/><text fill="#000000" font-family="sans-serif" font-size="7.8" font-weight="bold" lengthAdjust="spacing" textLength="8.4" x="70.8" y="593.7275">27</text><text fill="#000000" font-family="sans-serif" font-size="7.8" lengthAdjust="spacing" textLength="163.2" x="81.6" y="593.7275">shows selected data and requests confirmation</text><polygon fill="#181818" points="308.4,613.2598,314.4,615.6598,308.4,618.0598,310.8,615.6598" style="stroke:#181818;stroke-width:0.6;"/><line style="stroke:#181818;stroke-width:0.6;" x1="60.6" x2="312" y1="615.6598" y2="615.6598"/><text fill="#000000" font-family="sans-serif" font-size="7.8" font-weight="bold" lengthAdjust="spacing" textLength="8.4" x="64.8" y="612.5021">28</text><text fill="#000000" font-family="sans-serif" font-size="7.8" lengthAdjust="spacing" textLength="46.8" x="75.6" y="612.5021">confirms data</text><polygon fill="#181818" points="568.8,632.0344,574.8,634.4344,568.8,636.8344,571.2,634.4344" style="stroke:#181818;stroke-width:0.6;"/><line style="stroke:#181818;stroke-width:0.6;" x1="321.6" x2="572.4" y1="634.4344" y2="634.4344"/><text fill="#000000" font-family="sans-serif" font-size="7.8" font-weight="bold" lengthAdjust="spacing" textLength="8.4" x="325.8" y="631.2768">29</text><text fill="#000000" font-family="sans-serif" font-size="7.8" lengthAdjust="spacing" textLength="232.2" x="336.6" y="631.2768">assignSkillsToCollaborator(collaborator.getIDNumber(), skillNames)</text><line style="stroke:#181818;stroke-width:0.6;" x1="582" x2="610.2" y1="665.209" y2="665.209"/><line style="stroke:#181818;stroke-width:0.6;" x1="610.2" x2="610.2" y1="665.209" y2="673.009"/><line style="stroke:#181818;stroke-width:0.6;" x1="585.6" x2="610.2" y1="673.009" y2="673.009"/><polygon fill="#181818" points="591.6,670.609,585.6,673.009,591.6,675.409,589.2,673.009" style="stroke:#181818;stroke-width:0.6;"/><text fill="#000000" font-family="sans-serif" font-size="7.8" font-weight="bold" lengthAdjust="spacing" textLength="8.4" x="589.2" y="662.0514">30</text><text fill="#000000" font-family="sans-serif" font-size="7.8" lengthAdjust="spacing" textLength="79.2" x="600" y="662.0514">getHRMFromSession()</text><rect fill="none" height="25.9512" style="stroke:#000000;stroke-width:0.8999999999999999;" width="91.8" x="533.1" y="680.809"/><path d="M533.1,680.809 L570.3,680.809 L570.3,686.209 L564.3,692.209 L533.1,692.209 L533.1,680.809 " fill="#EEEEEE" style="stroke:#000000;stroke-width:1.2;"/><text fill="#000000" font-family="sans-serif" font-size="7.8" font-weight="bold" lengthAdjust="spacing" textLength="10.2" x="540.9" y="690.426">ref</text><text fill="#000000" font-family="sans-serif" font-size="7.2" lengthAdjust="spacing" textLength="29.4" x="564.3" y="702.3785">Get HRM</text><line style="stroke:#181818;stroke-width:0.6;stroke-dasharray:2.0,2.0;" x1="585" x2="610.2" y1="726.7348" y2="726.7348"/><line style="stroke:#181818;stroke-width:0.6;stroke-dasharray:2.0,2.0;" x1="610.2" x2="610.2" y1="726.7348" y2="734.5348"/><line style="stroke:#181818;stroke-width:0.6;stroke-dasharray:2.0,2.0;" x1="582" x2="610.2" y1="734.5348" y2="734.5348"/><polygon fill="#181818" points="588,732.1348,582,734.5348,588,736.9348,585.6,734.5348" style="stroke:#181818;stroke-width:0.6;"/><text fill="#000000" font-family="sans-serif" font-size="7.8" font-weight="bold" lengthAdjust="spacing" textLength="8.4" x="589.2" y="723.5771">31</text><text fill="#000000" font-family="sans-serif" font-size="7.8" lengthAdjust="spacing" textLength="13.2" x="600" y="723.5771">hrm</text><polygon fill="#181818" points="978.3,762.9094,984.3,765.3094,978.3,767.7094,980.7,765.3094" style="stroke:#181818;stroke-width:0.6;"/><line style="stroke:#181818;stroke-width:0.6;" x1="582" x2="981.9" y1="765.3094" y2="765.3094"/><text fill="#000000" font-family="sans-serif" font-size="7.8" font-weight="bold" lengthAdjust="spacing" textLength="8.4" x="586.2" y="762.1518">32</text><text fill="#000000" font-family="sans-serif" font-size="7.8" lengthAdjust="spacing" textLength="232.2" x="597" y="762.1518">assignSkillsToCollaborator(collaborator.getIDNumber(), skillNames)</text><line style="stroke:#181818;stroke-width:0.6;" x1="991.5" x2="1016.7" y1="784.084" y2="784.084"/><line style="stroke:#181818;stroke-width:0.6;" x1="1016.7" x2="1016.7" y1="784.084" y2="791.884"/><line style="stroke:#181818;stroke-width:0.6;" x1="992.1" x2="1016.7" y1="791.884" y2="791.884"/><polygon fill="#181818" points="998.1,789.484,992.1,791.884,998.1,794.284,995.7,791.884" style="stroke:#181818;stroke-width:0.6;"/><text fill="#000000" font-family="sans-serif" font-size="7.8" font-weight="bold" lengthAdjust="spacing" textLength="8.4" x="995.7" y="780.9264">33</text><text fill="#000000" font-family="sans-serif" font-size="7.8" lengthAdjust="spacing" textLength="114.6" x="1006.5" y="780.9264">validateSkill(selectedSkillNames)</text><line style="stroke:#181818;stroke-width:0.6;" x1="991.5" x2="1016.7" y1="810.6586" y2="810.6586"/><line style="stroke:#181818;stroke-width:0.6;" x1="1016.7" x2="1016.7" y1="810.6586" y2="818.4586"/><line style="stroke:#181818;stroke-width:0.6;" x1="992.1" x2="1016.7" y1="818.4586" y2="818.4586"/><polygon fill="#181818" points="998.1,816.0586,992.1,818.4586,998.1,820.8586,995.7,818.4586" style="stroke:#181818;stroke-width:0.6;"/><text fill="#000000" font-family="sans-serif" font-size="7.8" font-weight="bold" lengthAdjust="spacing" textLength="8.4" x="995.7" y="807.501">34</text><text fill="#000000" font-family="sans-serif" font-size="7.8" lengthAdjust="spacing" textLength="46.2" x="1006.5" y="807.501">addSkill(skill)</text><polygon fill="#181818" points="760.5,834.8332,766.5,837.2332,760.5,839.6332,762.9,837.2332" style="stroke:#181818;stroke-width:0.6;"/><line style="stroke:#181818;stroke-width:0.6;stroke-dasharray:2.0,2.0;" x1="579" x2="764.1" y1="837.2332" y2="837.2332"/><text fill="#000000" font-family="sans-serif" font-size="7.8" font-weight="bold" lengthAdjust="spacing" textLength="8.4" x="583.2" y="834.0756">35</text><text fill="#000000" font-family="sans-serif" font-size="7.8" lengthAdjust="spacing" textLength="109.8" x="594" y="834.0756">updateCollaborator(collaborator)</text><polygon fill="#181818" points="64.2,853.6078,58.2,856.0078,64.2,858.4078,61.8,856.0078" style="stroke:#181818;stroke-width:0.6;"/><line style="stroke:#181818;stroke-width:0.6;stroke-dasharray:2.0,2.0;" x1="60.6" x2="318" y1="856.0078" y2="856.0078"/><text fill="#000000" font-family="sans-serif" font-size="7.8" font-weight="bold" lengthAdjust="spacing" textLength="8.4" x="67.8" y="852.8502">36</text><text fill="#000000" font-family="sans-serif" font-size="7.8" lengthAdjust="spacing" textLength="94.8" x="78.6" y="852.8502">displays operation success</text><!--SRC=[lLTDJ-Cm4BtxLuouaA257z03KhTebqe5LWdSzc8IjxMQs5tRvKFYn-_O3edprHOMRGvjayoycNblF7RrXeijLRI4KWgPhPKi6HYrOqJNRxOqsz0LIyrhmK2np52nAa83lQQvVEPY1KjQQ4O8tHafTkKZKuIShddEO2cbUPGlX6P6AZYvtfLKGCAqtAcCQRYX0YEe4w0QfbSt174Dp_YM2WCdawdMV2NI3I-AXxcpUPYFcyoaC4eMHGKtkqyM7UE4RQNcc0XdsjdK3rvJRcl3x3ik6GBIHwae6gdQ-hUOp88N3OoFdBH1jCskvUpoxNYb7IyL98iklTn_BQRtROymrqw6Fg-xnVJxNJAzkak85OG_KSCSxGIg2s_W_19fXWbwR3GOYT-MOg3Wwd1F80nrqRZNeAWJEONWGiHp1BRu4-obFpkcZOQS6WgHe2MBIMXzcYbcOPo6NPXBz_Zi386y6McPmB0zMg-O6LOjYiSHwf9SBgDsBWI66kWe7takDAwVZEsBDHPwg4sFHh7NK5Rd5J5MZgQrZeRDsJ-czywOxUFFYZFAc5iSn_cv-4sJ32zuyb5EZaoWsv-TmO2rVuR8Fih_PB0pxhw0keQbNfyik3P1VUzSp993biswJffWiwG953P2ioo2F5kELTo7-J6EzIHfJKMzbiyQ2amJv1BO2_wmMsiB3gZ8wy6iMO6RCaZ10FVMKYf6Ef7i6EwETU-bMxYHziJq71lsRMN8Q1IwSP6pbxXjMPdwA2nlax5NLjUreog5Eq6FzZGvZ906SgM1pgvT1tLAHmGUz_3A7Ysj1_g4fcH4KmTOYNb0IvhdaOz_OMLrF-TEJtj_Yrjo55yOnSietg-m8ztQMtb97ICi_DtKx_UstFe4a4cnvAgaXbURHbXMzTAV4m9iBnnjZdxwNePBlTMajfpvrQqxbKRnDy-HoxTDKw3T-_NszaQ69cqphw-JcnzuT4uPvY95Pz0UE3eejWJvn5J_b6Eldym0elUUCv7teNnYJMPhLPAHwThFPRJAvhZuLMGFK1EUIOVtcy2abzOJBJWs1qjzu_TQClum8gwB2in-neHqqsguHklTraOVfICULI4eUvzGmqVe2UHSRmlwga5kcNAB1_GkmtzKUcXS1BVsjFyN]--></g></svg>