<?xml version="1.0" encoding="us-ascii" standalone="no"?><svg xmlns="http://www.w3.org/2000/svg" xmlns:xlink="http://www.w3.org/1999/xlink" contentStyleType="text/css" height="810px" preserveAspectRatio="none" style="width:1786px;height:810px;background:#FFFFFF;" version="1.1" viewBox="0 0 1786 810" width="1786.2px" zoomAndPan="magnify"><defs/><g><!--class ApplicationSession--><g id="elem_ApplicationSession"><rect codeLine="10" fill="#F1F1F1" height="51.1453" id="ApplicationSession" rx="1.5" ry="1.5" style="stroke:#181818;stroke-width:0.3;" width="90.6" x="1489.5" y="278.7"/><ellipse cx="1498.5" cy="288.3" fill="#ADD1B2" rx="6.6" ry="6.6" style="stroke:#181818;stroke-width:0.6;"/><path d="M1500.1594,285.825 Q1500.2531,285.6937 1500.3656,285.6281 Q1500.4781,285.5625 1500.6094,285.5625 Q1500.8344,285.5625 1500.975,285.7219 Q1501.1156,285.8719 1501.1156,286.2375 L1501.1156,287.1094 Q1501.1156,287.475 1500.975,287.6344 Q1500.8344,287.7938 1500.6094,287.7938 Q1500.4031,287.7938 1500.2813,287.6719 Q1500.1594,287.5594 1500.0938,287.25 Q1500.0656,287.0344 1499.9531,286.9219 Q1499.7563,286.6969 1499.3906,286.5656 Q1499.025,286.4344 1498.65,286.4344 Q1498.1906,286.4344 1497.8062,286.6312 Q1497.4312,286.8281 1497.1313,287.2781 Q1496.8406,287.7281 1496.8406,288.3469 L1496.8406,289.0031 Q1496.8406,289.7438 1497.375,290.2406 Q1497.9094,290.7281 1498.8656,290.7281 Q1499.4281,290.7281 1499.8219,290.5781 Q1500.0562,290.4844 1500.3094,290.2219 Q1500.4688,290.0625 1500.5531,290.0156 Q1500.6469,289.9688 1500.7688,289.9688 Q1500.9656,289.9688 1501.1156,290.1281 Q1501.275,290.2781 1501.275,290.4844 Q1501.275,290.6906 1501.0688,290.9344 Q1500.7688,291.2813 1500.2906,291.4781 Q1499.6438,291.75 1498.8656,291.75 Q1497.9563,291.75 1497.2344,291.375 Q1496.6438,291.075 1496.2313,290.4375 Q1495.8188,289.7906 1495.8188,289.0219 L1495.8188,288.3281 Q1495.8188,287.5313 1496.1844,286.8469 Q1496.5594,286.1531 1497.2156,285.7875 Q1497.8719,285.4125 1498.6125,285.4125 Q1499.0531,285.4125 1499.4375,285.5156 Q1499.8313,285.6094 1500.1594,285.825 Z " fill="#000000"/><text fill="#000000" font-family="sans-serif" font-size="8.4" lengthAdjust="spacing" textLength="71.4" x="1506.9" y="291.7781">ApplicationSession</text><line style="stroke:#181818;stroke-width:0.3;" x1="1490.1" x2="1579.5" y1="297.9" y2="297.9"/><line style="stroke:#181818;stroke-width:0.3;" x1="1490.1" x2="1579.5" y1="302.7" y2="302.7"/><text fill="#000000" font-family="sans-serif" font-size="8.4" lengthAdjust="spacing" textLength="76.8" x="1493.1" y="314.1645">+static getInstance()</text><text fill="#000000" font-family="sans-serif" font-size="8.4" lengthAdjust="spacing" textLength="81.6" x="1493.1" y="325.3371">+getCurrentSession()</text></g><!--class UserSession--><g id="elem_UserSession"><rect codeLine="16" fill="#F1F1F1" height="39.9727" id="UserSession" rx="1.5" ry="1.5" style="stroke:#181818;stroke-width:0.3;" width="67.8" x="1580.1" y="505.5"/><ellipse cx="1589.64" cy="515.1" fill="#ADD1B2" rx="6.6" ry="6.6" style="stroke:#181818;stroke-width:0.6;"/><path d="M1591.2994,512.625 Q1591.3931,512.4938 1591.5056,512.4281 Q1591.6181,512.3625 1591.7494,512.3625 Q1591.9744,512.3625 1592.115,512.5219 Q1592.2556,512.6719 1592.2556,513.0375 L1592.2556,513.9094 Q1592.2556,514.275 1592.115,514.4344 Q1591.9744,514.5938 1591.7494,514.5938 Q1591.5431,514.5938 1591.4213,514.4719 Q1591.2994,514.3594 1591.2338,514.05 Q1591.2056,513.8344 1591.0931,513.7219 Q1590.8963,513.4969 1590.5306,513.3656 Q1590.165,513.2344 1589.79,513.2344 Q1589.3306,513.2344 1588.9463,513.4313 Q1588.5713,513.6281 1588.2713,514.0781 Q1587.9806,514.5281 1587.9806,515.1469 L1587.9806,515.8031 Q1587.9806,516.5437 1588.515,517.0406 Q1589.0494,517.5281 1590.0056,517.5281 Q1590.5681,517.5281 1590.9619,517.3781 Q1591.1963,517.2844 1591.4494,517.0219 Q1591.6088,516.8625 1591.6931,516.8156 Q1591.7869,516.7688 1591.9088,516.7688 Q1592.1056,516.7688 1592.2556,516.9281 Q1592.415,517.0781 1592.415,517.2844 Q1592.415,517.4906 1592.2088,517.7344 Q1591.9088,518.0813 1591.4306,518.2781 Q1590.7838,518.55 1590.0056,518.55 Q1589.0963,518.55 1588.3744,518.175 Q1587.7838,517.875 1587.3713,517.2375 Q1586.9588,516.5906 1586.9588,515.8219 L1586.9588,515.1281 Q1586.9588,514.3313 1587.3244,513.6469 Q1587.6994,512.9531 1588.3556,512.5875 Q1589.0119,512.2125 1589.7525,512.2125 Q1590.1931,512.2125 1590.5775,512.3156 Q1590.9713,512.4094 1591.2994,512.625 Z " fill="#000000"/><text fill="#000000" font-family="sans-serif" font-size="8.4" lengthAdjust="spacing" textLength="47.4" x="1598.16" y="518.5781">UserSession</text><line style="stroke:#181818;stroke-width:0.3;" x1="1580.7" x2="1647.3" y1="524.7" y2="524.7"/><line style="stroke:#181818;stroke-width:0.3;" x1="1580.7" x2="1647.3" y1="529.5" y2="529.5"/><text fill="#000000" font-family="sans-serif" font-size="8.4" lengthAdjust="spacing" textLength="60.6" x="1583.7" y="540.9645">+getUserEmail()</text></g><!--class TDLEntry--><g id="elem_TDLEntry"><rect codeLine="21" fill="#F1F1F1" height="140.5266" id="TDLEntry" rx="1.5" ry="1.5" style="stroke:#181818;stroke-width:0.3;" width="300" x="603.6" y="234"/><ellipse cx="733.05" cy="243.6" fill="#ADD1B2" rx="6.6" ry="6.6" style="stroke:#181818;stroke-width:0.6;"/><path d="M734.7094,241.125 Q734.8031,240.9937 734.9156,240.9281 Q735.0281,240.8625 735.1594,240.8625 Q735.3844,240.8625 735.525,241.0219 Q735.6656,241.1719 735.6656,241.5375 L735.6656,242.4094 Q735.6656,242.775 735.525,242.9344 Q735.3844,243.0938 735.1594,243.0938 Q734.9531,243.0938 734.8313,242.9719 Q734.7094,242.8594 734.6438,242.55 Q734.6156,242.3344 734.5031,242.2219 Q734.3063,241.9969 733.9406,241.8656 Q733.575,241.7344 733.2,241.7344 Q732.7406,241.7344 732.3562,241.9312 Q731.9812,242.1281 731.6813,242.5781 Q731.3906,243.0281 731.3906,243.6469 L731.3906,244.3031 Q731.3906,245.0438 731.925,245.5406 Q732.4594,246.0281 733.4156,246.0281 Q733.9781,246.0281 734.3719,245.8781 Q734.6062,245.7844 734.8594,245.5219 Q735.0188,245.3625 735.1031,245.3156 Q735.1969,245.2687 735.3188,245.2687 Q735.5156,245.2687 735.6656,245.4281 Q735.825,245.5781 735.825,245.7844 Q735.825,245.9906 735.6188,246.2344 Q735.3188,246.5812 734.8406,246.7781 Q734.1938,247.05 733.4156,247.05 Q732.5063,247.05 731.7844,246.675 Q731.1938,246.375 730.7813,245.7375 Q730.3688,245.0906 730.3688,244.3219 L730.3688,243.6281 Q730.3688,242.8312 730.7344,242.1469 Q731.1094,241.4531 731.7656,241.0875 Q732.4219,240.7125 733.1625,240.7125 Q733.6031,240.7125 733.9875,240.8156 Q734.3813,240.9094 734.7094,241.125 Z " fill="#000000"/><text fill="#000000" font-family="sans-serif" font-size="8.4" lengthAdjust="spacing" textLength="36" x="745.35" y="247.0781">TDLEntry</text><line style="stroke:#181818;stroke-width:0.3;" x1="604.2" x2="903" y1="253.2" y2="253.2"/><text fill="#000000" font-family="sans-serif" font-size="8.4" lengthAdjust="spacing" textLength="43.2" x="607.2" y="264.6645">-title: String</text><text fill="#000000" font-family="sans-serif" font-size="8.4" lengthAdjust="spacing" textLength="88.2" x="607.2" y="275.8371">-taskDescription: String</text><text fill="#000000" font-family="sans-serif" font-size="8.4" lengthAdjust="spacing" textLength="60.6" x="607.2" y="287.0098">-urgency: String</text><text fill="#000000" font-family="sans-serif" font-size="8.4" lengthAdjust="spacing" textLength="61.2" x="607.2" y="298.1824">-duration: String</text><text fill="#000000" font-family="sans-serif" font-size="8.4" lengthAdjust="spacing" textLength="144.6" x="607.2" y="309.3551">-associatedGreenSpace: GreenSpace</text><line style="stroke:#181818;stroke-width:0.3;" x1="604.2" x2="903" y1="313.8633" y2="313.8633"/><text fill="#000000" font-family="sans-serif" font-size="8.4" lengthAdjust="spacing" textLength="292.8" x="607.2" y="325.3277">+TDLEntry(String title, String taskDescription, String urgency, String duration)</text><text fill="#000000" font-family="sans-serif" font-size="8.4" lengthAdjust="spacing" textLength="202.8" x="607.2" y="336.5004">+boolean addGreenSpace(GreenSpace greenSpace)</text><text fill="#000000" font-family="sans-serif" font-size="8.4" lengthAdjust="spacing" textLength="100.8" x="607.2" y="347.673">+boolean equals(Object o)</text><text fill="#000000" font-family="sans-serif" font-size="8.4" lengthAdjust="spacing" textLength="61.2" x="607.2" y="358.8457">+int hashCode()</text><text fill="#000000" font-family="sans-serif" font-size="8.4" lengthAdjust="spacing" textLength="69.6" x="607.2" y="370.0184">+TDLEntry clone()</text></g><!--class AgendaEntry--><g id="elem_AgendaEntry"><rect codeLine="34" fill="#F1F1F1" height="207.5625" id="AgendaEntry" rx="1.5" ry="1.5" style="stroke:#181818;stroke-width:0.3;" width="445.8" x="260.7" y="421.8"/><ellipse cx="456.45" cy="431.4" fill="#ADD1B2" rx="6.6" ry="6.6" style="stroke:#181818;stroke-width:0.6;"/><path d="M458.1094,428.925 Q458.2031,428.7938 458.3156,428.7281 Q458.4281,428.6625 458.5594,428.6625 Q458.7844,428.6625 458.925,428.8219 Q459.0656,428.9719 459.0656,429.3375 L459.0656,430.2094 Q459.0656,430.575 458.925,430.7344 Q458.7844,430.8938 458.5594,430.8938 Q458.3531,430.8938 458.2313,430.7719 Q458.1094,430.6594 458.0438,430.35 Q458.0156,430.1344 457.9031,430.0219 Q457.7063,429.7969 457.3406,429.6656 Q456.975,429.5344 456.6,429.5344 Q456.1406,429.5344 455.7562,429.7313 Q455.3812,429.9281 455.0813,430.3781 Q454.7906,430.8281 454.7906,431.4469 L454.7906,432.1031 Q454.7906,432.8438 455.325,433.3406 Q455.8594,433.8281 456.8156,433.8281 Q457.3781,433.8281 457.7719,433.6781 Q458.0062,433.5844 458.2594,433.3219 Q458.4188,433.1625 458.5031,433.1156 Q458.5969,433.0687 458.7188,433.0687 Q458.9156,433.0687 459.0656,433.2281 Q459.225,433.3781 459.225,433.5844 Q459.225,433.7906 459.0188,434.0344 Q458.7188,434.3812 458.2406,434.5781 Q457.5938,434.85 456.8156,434.85 Q455.9063,434.85 455.1844,434.475 Q454.5938,434.175 454.1813,433.5375 Q453.7688,432.8906 453.7688,432.1219 L453.7688,431.4281 Q453.7688,430.6312 454.1344,429.9469 Q454.5094,429.2531 455.1656,428.8875 Q455.8219,428.5125 456.5625,428.5125 Q457.0031,428.5125 457.3875,428.6156 Q457.7813,428.7094 458.1094,428.925 Z " fill="#000000"/><text fill="#000000" font-family="sans-serif" font-size="8.4" lengthAdjust="spacing" textLength="49.2" x="468.75" y="434.8781">AgendaEntry</text><line style="stroke:#181818;stroke-width:0.3;" x1="261.3" x2="705.9" y1="441" y2="441"/><text fill="#000000" font-family="sans-serif" font-size="8.4" lengthAdjust="spacing" textLength="43.2" x="264.3" y="452.4645">-title: String</text><text fill="#000000" font-family="sans-serif" font-size="8.4" lengthAdjust="spacing" textLength="88.2" x="264.3" y="463.6371">-taskDescription: String</text><text fill="#000000" font-family="sans-serif" font-size="8.4" lengthAdjust="spacing" textLength="60.6" x="264.3" y="474.8098">-urgency: String</text><text fill="#000000" font-family="sans-serif" font-size="8.4" lengthAdjust="spacing" textLength="61.2" x="264.3" y="485.9824">-duration: String</text><text fill="#000000" font-family="sans-serif" font-size="8.4" lengthAdjust="spacing" textLength="144.6" x="264.3" y="497.1551">-associatedGreenSpace: GreenSpace</text><text fill="#000000" font-family="sans-serif" font-size="8.4" lengthAdjust="spacing" textLength="91.8" x="264.3" y="508.3277">-associatedTeam: Team</text><text fill="#000000" font-family="sans-serif" font-size="8.4" lengthAdjust="spacing" textLength="130.8" x="264.3" y="519.5004">-associatedVehicles: List&lt;Vehicle&gt;</text><text fill="#000000" font-family="sans-serif" font-size="8.4" lengthAdjust="spacing" textLength="52.8" x="264.3" y="530.673">-status: String</text><text fill="#000000" font-family="sans-serif" font-size="8.4" lengthAdjust="spacing" textLength="81" x="264.3" y="541.8457">-startDate: LocalDate</text><line style="stroke:#181818;stroke-width:0.3;" x1="261.3" x2="705.9" y1="546.3539" y2="546.3539"/><text fill="#000000" font-family="sans-serif" font-size="8.4" lengthAdjust="spacing" textLength="438.6" x="264.3" y="557.8184">+AgendaEntry(String title, String taskDescription, String urgency, String duration, String status, LocalDate startDate)</text><text fill="#000000" font-family="sans-serif" font-size="8.4" lengthAdjust="spacing" textLength="202.8" x="264.3" y="568.991">+boolean addGreenSpace(GreenSpace greenSpace)</text><text fill="#000000" font-family="sans-serif" font-size="8.4" lengthAdjust="spacing" textLength="122.4" x="264.3" y="580.1637">+boolean addTeam(Team team)</text><text fill="#000000" font-family="sans-serif" font-size="8.4" lengthAdjust="spacing" textLength="142.2" x="264.3" y="591.3363">+boolean addVehicle(Vehicle vehicle)</text><text fill="#000000" font-family="sans-serif" font-size="8.4" lengthAdjust="spacing" textLength="100.8" x="264.3" y="602.509">+boolean equals(Object o)</text><text fill="#000000" font-family="sans-serif" font-size="8.4" lengthAdjust="spacing" textLength="61.2" x="264.3" y="613.6816">+int hashCode()</text><text fill="#000000" font-family="sans-serif" font-size="8.4" lengthAdjust="spacing" textLength="82.8" x="264.3" y="624.8543">+AgendaEntry clone()</text></g><!--class ToDoList--><g id="elem_ToDoList"><rect codeLine="53" fill="#F1F1F1" height="107.0086" id="ToDoList" rx="1.5" ry="1.5" style="stroke:#181818;stroke-width:0.3;" width="193.8" x="893.7" y="688.2"/><ellipse cx="970.95" cy="697.8" fill="#ADD1B2" rx="6.6" ry="6.6" style="stroke:#181818;stroke-width:0.6;"/><path d="M972.6094,695.325 Q972.7031,695.1938 972.8156,695.1281 Q972.9281,695.0625 973.0594,695.0625 Q973.2844,695.0625 973.425,695.2219 Q973.5656,695.3719 973.5656,695.7375 L973.5656,696.6094 Q973.5656,696.975 973.425,697.1344 Q973.2844,697.2937 973.0594,697.2937 Q972.8531,697.2937 972.7312,697.1719 Q972.6094,697.0594 972.5437,696.75 Q972.5156,696.5344 972.4031,696.4219 Q972.2063,696.1969 971.8406,696.0656 Q971.475,695.9344 971.1,695.9344 Q970.6406,695.9344 970.2562,696.1313 Q969.8812,696.3281 969.5813,696.7781 Q969.2906,697.2281 969.2906,697.8469 L969.2906,698.5031 Q969.2906,699.2438 969.825,699.7406 Q970.3594,700.2281 971.3156,700.2281 Q971.8781,700.2281 972.2719,700.0781 Q972.5062,699.9844 972.7594,699.7219 Q972.9187,699.5625 973.0031,699.5156 Q973.0969,699.4688 973.2188,699.4688 Q973.4156,699.4688 973.5656,699.6281 Q973.725,699.7781 973.725,699.9844 Q973.725,700.1906 973.5188,700.4344 Q973.2188,700.7813 972.7406,700.9781 Q972.0938,701.25 971.3156,701.25 Q970.4063,701.25 969.6844,700.875 Q969.0938,700.575 968.6813,699.9375 Q968.2688,699.2906 968.2688,698.5219 L968.2688,697.8281 Q968.2688,697.0313 968.6344,696.3469 Q969.0094,695.6531 969.6656,695.2875 Q970.3219,694.9125 971.0625,694.9125 Q971.5031,694.9125 971.8875,695.0156 Q972.2813,695.1094 972.6094,695.325 Z " fill="#000000"/><text fill="#000000" font-family="sans-serif" font-size="8.4" lengthAdjust="spacing" textLength="34.2" x="983.25" y="701.2781">ToDoList</text><line style="stroke:#181818;stroke-width:0.3;" x1="894.3" x2="1086.9" y1="707.4" y2="707.4"/><text fill="#000000" font-family="sans-serif" font-size="8.4" lengthAdjust="spacing" textLength="105.6" x="897.3" y="718.8645">-entries: List&lt;AgendaEntry&gt;</text><text fill="#000000" font-family="sans-serif" font-size="8.4" lengthAdjust="spacing" textLength="42" x="897.3" y="730.0371">-gsm: GSM</text><line style="stroke:#181818;stroke-width:0.3;" x1="894.3" x2="1086.9" y1="734.5453" y2="734.5453"/><text fill="#000000" font-family="sans-serif" font-size="8.4" lengthAdjust="spacing" textLength="186.6" x="897.3" y="746.0098">+ToDoList(List&lt;AgendaEntry&gt; entries, GSM gsm)</text><text fill="#000000" font-family="sans-serif" font-size="8.4" lengthAdjust="spacing" textLength="119.4" x="897.3" y="757.1824">+boolean addEntry(Entry entry)</text><text fill="#000000" font-family="sans-serif" font-size="8.4" lengthAdjust="spacing" textLength="100.8" x="897.3" y="768.3551">+boolean equals(Object o)</text><text fill="#000000" font-family="sans-serif" font-size="8.4" lengthAdjust="spacing" textLength="61.2" x="897.3" y="779.5277">+int hashCode()</text><text fill="#000000" font-family="sans-serif" font-size="8.4" lengthAdjust="spacing" textLength="67.8" x="897.3" y="790.7004">+ToDoList clone()</text></g><!--class Agenda--><g id="elem_Agenda"><rect codeLine="63" fill="#F1F1F1" height="129.3539" id="Agenda" rx="1.5" ry="1.5" style="stroke:#181818;stroke-width:0.3;" width="189" x="389.1" y="676.8"/><ellipse cx="466.35" cy="686.4" fill="#ADD1B2" rx="6.6" ry="6.6" style="stroke:#181818;stroke-width:0.6;"/><path d="M468.0094,683.925 Q468.1031,683.7937 468.2156,683.7281 Q468.3281,683.6625 468.4594,683.6625 Q468.6844,683.6625 468.825,683.8219 Q468.9656,683.9719 468.9656,684.3375 L468.9656,685.2094 Q468.9656,685.575 468.825,685.7344 Q468.6844,685.8938 468.4594,685.8938 Q468.2531,685.8938 468.1312,685.7719 Q468.0094,685.6594 467.9437,685.35 Q467.9156,685.1344 467.8031,685.0219 Q467.6063,684.7969 467.2406,684.6656 Q466.875,684.5344 466.5,684.5344 Q466.0406,684.5344 465.6563,684.7312 Q465.2813,684.9281 464.9813,685.3781 Q464.6906,685.8281 464.6906,686.4469 L464.6906,687.1031 Q464.6906,687.8438 465.225,688.3406 Q465.7594,688.8281 466.7156,688.8281 Q467.2781,688.8281 467.6719,688.6781 Q467.9063,688.5844 468.1594,688.3219 Q468.3187,688.1625 468.4031,688.1156 Q468.4969,688.0688 468.6188,688.0688 Q468.8156,688.0688 468.9656,688.2281 Q469.125,688.3781 469.125,688.5844 Q469.125,688.7906 468.9188,689.0344 Q468.6188,689.3813 468.1406,689.5781 Q467.4938,689.85 466.7156,689.85 Q465.8063,689.85 465.0844,689.475 Q464.4938,689.175 464.0812,688.5375 Q463.6688,687.8906 463.6688,687.1219 L463.6688,686.4281 Q463.6688,685.6313 464.0344,684.9469 Q464.4094,684.2531 465.0656,683.8875 Q465.7219,683.5125 466.4625,683.5125 Q466.9031,683.5125 467.2875,683.6156 Q467.6813,683.7094 468.0094,683.925 Z " fill="#000000"/><text fill="#000000" font-family="sans-serif" font-size="8.4" lengthAdjust="spacing" textLength="29.4" x="478.65" y="689.8781">Agenda</text><line style="stroke:#181818;stroke-width:0.3;" x1="389.7" x2="577.5" y1="696" y2="696"/><text fill="#000000" font-family="sans-serif" font-size="8.4" lengthAdjust="spacing" textLength="105.6" x="392.7" y="707.4645">-entries: List&lt;AgendaEntry&gt;</text><text fill="#000000" font-family="sans-serif" font-size="8.4" lengthAdjust="spacing" textLength="42" x="392.7" y="718.6371">-gsm: GSM</text><line style="stroke:#181818;stroke-width:0.3;" x1="389.7" x2="577.5" y1="723.1453" y2="723.1453"/><text fill="#000000" font-family="sans-serif" font-size="8.4" lengthAdjust="spacing" textLength="181.8" x="392.7" y="734.6098">+Agenda(List&lt;AgendaEntry&gt; entries, GSM gsm)</text><text fill="#000000" font-family="sans-serif" font-size="8.4" lengthAdjust="spacing" textLength="148.8" x="392.7" y="745.7824">+boolean addEntry(AgendaEntry entry)</text><text fill="#000000" font-family="sans-serif" font-size="8.4" lengthAdjust="spacing" textLength="169.8" x="392.7" y="756.9551">+boolean postponeEntry(AgendaEntry entry)</text><text fill="#000000" font-family="sans-serif" font-size="8.4" lengthAdjust="spacing" textLength="159" x="392.7" y="768.1277">+boolean cancelEntry(AgendaEntry entry)</text><text fill="#000000" font-family="sans-serif" font-size="8.4" lengthAdjust="spacing" textLength="100.8" x="392.7" y="779.3004">+boolean equals(Object o)</text><text fill="#000000" font-family="sans-serif" font-size="8.4" lengthAdjust="spacing" textLength="61.2" x="392.7" y="790.473">+int hashCode()</text><text fill="#000000" font-family="sans-serif" font-size="8.4" lengthAdjust="spacing" textLength="82.8" x="392.7" y="801.6457">+AgendaEntry clone()</text></g><!--class ToDoListRepository--><g id="elem_ToDoListRepository"><rect codeLine="75" fill="#F1F1F1" height="84.6633" id="ToDoListRepository" rx="1.5" ry="1.5" style="stroke:#181818;stroke-width:0.3;" width="167.4" x="1196.1" y="483.3"/><ellipse cx="1239.75" cy="492.9" fill="#ADD1B2" rx="6.6" ry="6.6" style="stroke:#181818;stroke-width:0.6;"/><path d="M1241.4094,490.425 Q1241.5031,490.2938 1241.6156,490.2281 Q1241.7281,490.1625 1241.8594,490.1625 Q1242.0844,490.1625 1242.225,490.3219 Q1242.3656,490.4719 1242.3656,490.8375 L1242.3656,491.7094 Q1242.3656,492.075 1242.225,492.2344 Q1242.0844,492.3937 1241.8594,492.3937 Q1241.6531,492.3937 1241.5313,492.2719 Q1241.4094,492.1594 1241.3438,491.85 Q1241.3156,491.6344 1241.2031,491.5219 Q1241.0063,491.2969 1240.6406,491.1656 Q1240.275,491.0344 1239.9,491.0344 Q1239.4406,491.0344 1239.0562,491.2313 Q1238.6812,491.4281 1238.3813,491.8781 Q1238.0906,492.3281 1238.0906,492.9469 L1238.0906,493.6031 Q1238.0906,494.3438 1238.625,494.8406 Q1239.1594,495.3281 1240.1156,495.3281 Q1240.6781,495.3281 1241.0719,495.1781 Q1241.3062,495.0844 1241.5594,494.8219 Q1241.7188,494.6625 1241.8031,494.6156 Q1241.8969,494.5687 1242.0188,494.5687 Q1242.2156,494.5687 1242.3656,494.7281 Q1242.525,494.8781 1242.525,495.0844 Q1242.525,495.2906 1242.3188,495.5344 Q1242.0188,495.8812 1241.5406,496.0781 Q1240.8938,496.35 1240.1156,496.35 Q1239.2063,496.35 1238.4844,495.975 Q1237.8938,495.675 1237.4813,495.0375 Q1237.0688,494.3906 1237.0688,493.6219 L1237.0688,492.9281 Q1237.0688,492.1312 1237.4344,491.4469 Q1237.8094,490.7531 1238.4656,490.3875 Q1239.1219,490.0125 1239.8625,490.0125 Q1240.3031,490.0125 1240.6875,490.1156 Q1241.0813,490.2094 1241.4094,490.425 Z " fill="#000000"/><text fill="#000000" font-family="sans-serif" font-size="8.4" lengthAdjust="spacing" textLength="75" x="1252.05" y="496.3781">ToDoListRepository</text><line style="stroke:#181818;stroke-width:0.3;" x1="1196.7" x2="1362.9" y1="502.5" y2="502.5"/><text fill="#000000" font-family="sans-serif" font-size="8.4" lengthAdjust="spacing" textLength="97.8" x="1199.7" y="513.9645">-List&lt;ToDoList&gt; toDoLists</text><line style="stroke:#181818;stroke-width:0.3;" x1="1196.7" x2="1362.9" y1="518.4727" y2="518.4727"/><text fill="#000000" font-family="sans-serif" font-size="8.4" lengthAdjust="spacing" textLength="160.2" x="1199.7" y="529.9371">+boolean addToDoList(ToDoList toDoList)</text><text fill="#000000" font-family="sans-serif" font-size="8.4" lengthAdjust="spacing" textLength="120.6" x="1199.7" y="541.1098">+List&lt;ToDoList&gt; getToDoLists()</text><text fill="#000000" font-family="sans-serif" font-size="8.4" lengthAdjust="spacing" textLength="158.4" x="1199.7" y="552.2824">+ToDoList getToDoListByGSM(GSM gsm)</text><text fill="#000000" font-family="sans-serif" font-size="8.4" lengthAdjust="spacing" textLength="160.2" x="1199.7" y="563.4551">+boolean addToDoList(ToDoList toDoList)</text></g><!--class AgendaRepository--><g id="elem_AgendaRepository"><rect codeLine="83" fill="#F1F1F1" height="84.6633" id="AgendaRepository" rx="1.5" ry="1.5" style="stroke:#181818;stroke-width:0.3;" width="156" x="1018.8" y="483.3"/><ellipse cx="1059.15" cy="492.9" fill="#ADD1B2" rx="6.6" ry="6.6" style="stroke:#181818;stroke-width:0.6;"/><path d="M1060.8094,490.425 Q1060.9031,490.2938 1061.0156,490.2281 Q1061.1281,490.1625 1061.2594,490.1625 Q1061.4844,490.1625 1061.625,490.3219 Q1061.7656,490.4719 1061.7656,490.8375 L1061.7656,491.7094 Q1061.7656,492.075 1061.625,492.2344 Q1061.4844,492.3937 1061.2594,492.3937 Q1061.0531,492.3937 1060.9312,492.2719 Q1060.8094,492.1594 1060.7437,491.85 Q1060.7156,491.6344 1060.6031,491.5219 Q1060.4063,491.2969 1060.0406,491.1656 Q1059.675,491.0344 1059.3,491.0344 Q1058.8406,491.0344 1058.4563,491.2313 Q1058.0813,491.4281 1057.7813,491.8781 Q1057.4906,492.3281 1057.4906,492.9469 L1057.4906,493.6031 Q1057.4906,494.3438 1058.025,494.8406 Q1058.5594,495.3281 1059.5156,495.3281 Q1060.0781,495.3281 1060.4719,495.1781 Q1060.7063,495.0844 1060.9594,494.8219 Q1061.1187,494.6625 1061.2031,494.6156 Q1061.2969,494.5687 1061.4188,494.5687 Q1061.6156,494.5687 1061.7656,494.7281 Q1061.925,494.8781 1061.925,495.0844 Q1061.925,495.2906 1061.7188,495.5344 Q1061.4188,495.8812 1060.9406,496.0781 Q1060.2938,496.35 1059.5156,496.35 Q1058.6063,496.35 1057.8844,495.975 Q1057.2938,495.675 1056.8813,495.0375 Q1056.4688,494.3906 1056.4688,493.6219 L1056.4688,492.9281 Q1056.4688,492.1312 1056.8344,491.4469 Q1057.2094,490.7531 1057.8656,490.3875 Q1058.5219,490.0125 1059.2625,490.0125 Q1059.7031,490.0125 1060.0875,490.1156 Q1060.4813,490.2094 1060.8094,490.425 Z " fill="#000000"/><text fill="#000000" font-family="sans-serif" font-size="8.4" lengthAdjust="spacing" textLength="70.2" x="1071.45" y="496.3781">AgendaRepository</text><line style="stroke:#181818;stroke-width:0.3;" x1="1019.4" x2="1174.2" y1="502.5" y2="502.5"/><text fill="#000000" font-family="sans-serif" font-size="8.4" lengthAdjust="spacing" textLength="90.6" x="1022.4" y="513.9645">-List&lt;Agenda&gt; agendas</text><line style="stroke:#181818;stroke-width:0.3;" x1="1019.4" x2="1174.2" y1="518.4727" y2="518.4727"/><text fill="#000000" font-family="sans-serif" font-size="8.4" lengthAdjust="spacing" textLength="148.2" x="1022.4" y="529.9371">+boolean addAgenda(Agenda agenda)</text><text fill="#000000" font-family="sans-serif" font-size="8.4" lengthAdjust="spacing" textLength="111" x="1022.4" y="541.1098">+List&lt;Agenda&gt; getAgendas()</text><text fill="#000000" font-family="sans-serif" font-size="8.4" lengthAdjust="spacing" textLength="148.8" x="1022.4" y="552.2824">+Agenda getAgendaByGSM(GSM gsm)</text><text fill="#000000" font-family="sans-serif" font-size="8.4" lengthAdjust="spacing" textLength="148.2" x="1022.4" y="563.4551">+boolean addAgenda(Agenda agenda)</text></g><!--class Repositories--><g id="elem_Repositories"><rect codeLine="91" fill="#F1F1F1" height="62.318" id="Repositories" rx="1.5" ry="1.5" style="stroke:#181818;stroke-width:0.3;" width="187.2" x="1124.4" y="273"/><ellipse cx="1191.75" cy="282.6" fill="#ADD1B2" rx="6.6" ry="6.6" style="stroke:#181818;stroke-width:0.6;"/><path d="M1193.4094,280.125 Q1193.5031,279.9938 1193.6156,279.9281 Q1193.7281,279.8625 1193.8594,279.8625 Q1194.0844,279.8625 1194.225,280.0219 Q1194.3656,280.1719 1194.3656,280.5375 L1194.3656,281.4094 Q1194.3656,281.775 1194.225,281.9344 Q1194.0844,282.0938 1193.8594,282.0938 Q1193.6531,282.0938 1193.5313,281.9719 Q1193.4094,281.8594 1193.3438,281.55 Q1193.3156,281.3344 1193.2031,281.2219 Q1193.0063,280.9969 1192.6406,280.8656 Q1192.275,280.7344 1191.9,280.7344 Q1191.4406,280.7344 1191.0562,280.9313 Q1190.6812,281.1281 1190.3813,281.5781 Q1190.0906,282.0281 1190.0906,282.6469 L1190.0906,283.3031 Q1190.0906,284.0438 1190.625,284.5406 Q1191.1594,285.0281 1192.1156,285.0281 Q1192.6781,285.0281 1193.0719,284.8781 Q1193.3062,284.7844 1193.5594,284.5219 Q1193.7188,284.3625 1193.8031,284.3156 Q1193.8969,284.2688 1194.0188,284.2688 Q1194.2156,284.2688 1194.3656,284.4281 Q1194.525,284.5781 1194.525,284.7844 Q1194.525,284.9906 1194.3188,285.2344 Q1194.0188,285.5813 1193.5406,285.7781 Q1192.8938,286.05 1192.1156,286.05 Q1191.2063,286.05 1190.4844,285.675 Q1189.8938,285.375 1189.4813,284.7375 Q1189.0688,284.0906 1189.0688,283.3219 L1189.0688,282.6281 Q1189.0688,281.8313 1189.4344,281.1469 Q1189.8094,280.4531 1190.4656,280.0875 Q1191.1219,279.7125 1191.8625,279.7125 Q1192.3031,279.7125 1192.6875,279.8156 Q1193.0813,279.9094 1193.4094,280.125 Z " fill="#000000"/><text fill="#000000" font-family="sans-serif" font-size="8.4" lengthAdjust="spacing" textLength="47.4" x="1204.05" y="286.0781">Repositories</text><line style="stroke:#181818;stroke-width:0.3;" x1="1125" x2="1311" y1="292.2" y2="292.2"/><line style="stroke:#181818;stroke-width:0.3;" x1="1125" x2="1311" y1="297" y2="297"/><text fill="#000000" font-family="sans-serif" font-size="8.4" lengthAdjust="spacing" textLength="109.2" x="1128" y="308.4645">+getInstance() : Repositories</text><text fill="#000000" font-family="sans-serif" font-size="8.4" lengthAdjust="spacing" textLength="180" x="1128" y="319.6371">+getToDoListRepository() : ToDoListRepository</text><text fill="#000000" font-family="sans-serif" font-size="8.4" lengthAdjust="spacing" textLength="170.4" x="1128" y="330.8098">+getAgendaRepository() : AgendaRepository</text></g><!--class AddEntryAgendaUI--><g id="elem_AddEntryAgendaUI"><rect codeLine="97" fill="#F1F1F1" height="151.6992" id="AddEntryAgendaUI" rx="1.5" ry="1.5" style="stroke:#181818;stroke-width:0.3;" width="171" x="599.1" y="23.7"/><ellipse cx="646.35" cy="33.3" fill="#ADD1B2" rx="6.6" ry="6.6" style="stroke:#181818;stroke-width:0.6;"/><path d="M648.0094,30.825 Q648.1031,30.6937 648.2156,30.6281 Q648.3281,30.5625 648.4594,30.5625 Q648.6844,30.5625 648.825,30.7219 Q648.9656,30.8719 648.9656,31.2375 L648.9656,32.1094 Q648.9656,32.475 648.825,32.6344 Q648.6844,32.7937 648.4594,32.7937 Q648.2531,32.7937 648.1313,32.6719 Q648.0094,32.5594 647.9438,32.25 Q647.9156,32.0344 647.8031,31.9219 Q647.6062,31.6969 647.2406,31.5656 Q646.875,31.4344 646.5,31.4344 Q646.0406,31.4344 645.6563,31.6312 Q645.2813,31.8281 644.9812,32.2781 Q644.6906,32.7281 644.6906,33.3469 L644.6906,34.0031 Q644.6906,34.7438 645.225,35.2406 Q645.7594,35.7281 646.7156,35.7281 Q647.2781,35.7281 647.6719,35.5781 Q647.9063,35.4844 648.1594,35.2219 Q648.3188,35.0625 648.4031,35.0156 Q648.4969,34.9688 648.6188,34.9688 Q648.8156,34.9688 648.9656,35.1281 Q649.125,35.2781 649.125,35.4844 Q649.125,35.6906 648.9187,35.9344 Q648.6188,36.2813 648.1406,36.4781 Q647.4938,36.75 646.7156,36.75 Q645.8063,36.75 645.0844,36.375 Q644.4938,36.075 644.0813,35.4375 Q643.6687,34.7906 643.6687,34.0219 L643.6687,33.3281 Q643.6687,32.5313 644.0344,31.8469 Q644.4094,31.1531 645.0656,30.7875 Q645.7219,30.4125 646.4625,30.4125 Q646.9031,30.4125 647.2875,30.5156 Q647.6813,30.6094 648.0094,30.825 Z " fill="#000000"/><text fill="#000000" font-family="sans-serif" font-size="8.4" lengthAdjust="spacing" textLength="71.4" x="658.65" y="36.7781">AddEntryAgendaUI</text><line style="stroke:#181818;stroke-width:0.3;" x1="599.7" x2="769.5" y1="42.9" y2="42.9"/><text fill="#000000" font-family="sans-serif" font-size="8.4" lengthAdjust="spacing" textLength="144.6" x="602.7" y="54.3645">-controller: AddEntryAgendaController</text><text fill="#000000" font-family="sans-serif" font-size="8.4" lengthAdjust="spacing" textLength="94.8" x="602.7" y="65.5371">-toDoListEntry: TDLEntry</text><text fill="#000000" font-family="sans-serif" font-size="8.4" lengthAdjust="spacing" textLength="73.2" x="602.7" y="76.7098">-entryStatus: String</text><text fill="#000000" font-family="sans-serif" font-size="8.4" lengthAdjust="spacing" textLength="101.4" x="602.7" y="87.8824">-entryStartDate: LocalDate</text><text fill="#000000" font-family="sans-serif" font-size="8.4" lengthAdjust="spacing" textLength="144.6" x="602.7" y="99.0551">-associatedGreenSpace: GreenSpace</text><line style="stroke:#181818;stroke-width:0.3;" x1="599.7" x2="769.5" y1="103.5633" y2="103.5633"/><text fill="#000000" font-family="sans-serif" font-size="8.4" lengthAdjust="spacing" textLength="163.8" x="602.7" y="115.0277">+AddEntryAgendaController getController()</text><text fill="#000000" font-family="sans-serif" font-size="8.4" lengthAdjust="spacing" textLength="41.4" x="602.7" y="126.2004">+void run()</text><text fill="#000000" font-family="sans-serif" font-size="8.4" lengthAdjust="spacing" textLength="71.4" x="602.7" y="137.373">+void submitData()</text><text fill="#000000" font-family="sans-serif" font-size="8.4" lengthAdjust="spacing" textLength="75.6" x="602.7" y="148.5457">+void requestData()</text><text fill="#000000" font-family="sans-serif" font-size="8.4" lengthAdjust="spacing" textLength="132" x="602.7" y="159.7184">+TDLEntry requestToDoListEntry()</text><text fill="#000000" font-family="sans-serif" font-size="8.4" lengthAdjust="spacing" textLength="147.6" x="602.7" y="170.891">+LocalDate requestEntryStartingDate()</text></g><!--class AddEntryAgendaController--><g id="elem_AddEntryAgendaController"><rect codeLine="111" fill="#F1F1F1" height="174.0445" id="AddEntryAgendaController" rx="1.5" ry="1.5" style="stroke:#181818;stroke-width:0.3;" width="795" x="987.3" y="12.6"/><ellipse cx="1331.55" cy="22.2" fill="#ADD1B2" rx="6.6" ry="6.6" style="stroke:#181818;stroke-width:0.6;"/><path d="M1333.2094,19.725 Q1333.3031,19.5938 1333.4156,19.5281 Q1333.5281,19.4625 1333.6594,19.4625 Q1333.8844,19.4625 1334.025,19.6219 Q1334.1656,19.7719 1334.1656,20.1375 L1334.1656,21.0094 Q1334.1656,21.375 1334.025,21.5344 Q1333.8844,21.6937 1333.6594,21.6937 Q1333.4531,21.6937 1333.3313,21.5719 Q1333.2094,21.4594 1333.1438,21.15 Q1333.1156,20.9344 1333.0031,20.8219 Q1332.8062,20.5969 1332.4406,20.4656 Q1332.075,20.3344 1331.7,20.3344 Q1331.2406,20.3344 1330.8563,20.5313 Q1330.4813,20.7281 1330.1812,21.1781 Q1329.8906,21.6281 1329.8906,22.2469 L1329.8906,22.9031 Q1329.8906,23.6438 1330.425,24.1406 Q1330.9594,24.6281 1331.9156,24.6281 Q1332.4781,24.6281 1332.8719,24.4781 Q1333.1063,24.3844 1333.3594,24.1219 Q1333.5188,23.9625 1333.6031,23.9156 Q1333.6969,23.8688 1333.8188,23.8688 Q1334.0156,23.8688 1334.1656,24.0281 Q1334.325,24.1781 1334.325,24.3844 Q1334.325,24.5906 1334.1187,24.8344 Q1333.8188,25.1813 1333.3406,25.3781 Q1332.6938,25.65 1331.9156,25.65 Q1331.0063,25.65 1330.2844,25.275 Q1329.6938,24.975 1329.2813,24.3375 Q1328.8687,23.6906 1328.8687,22.9219 L1328.8687,22.2281 Q1328.8687,21.4313 1329.2344,20.7469 Q1329.6094,20.0531 1330.2656,19.6875 Q1330.9219,19.3125 1331.6625,19.3125 Q1332.1031,19.3125 1332.4875,19.4156 Q1332.8813,19.5094 1333.2094,19.725 Z " fill="#000000"/><text fill="#000000" font-family="sans-serif" font-size="8.4" lengthAdjust="spacing" textLength="101.4" x="1343.85" y="25.6781">AddEntryAgendaController</text><line style="stroke:#181818;stroke-width:0.3;" x1="987.9" x2="1781.7" y1="31.8" y2="31.8"/><text fill="#000000" font-family="sans-serif" font-size="8.4" lengthAdjust="spacing" textLength="183.6" x="990.9" y="43.2645">-greenSpaceRepository: GreenSpaceRepository</text><text fill="#000000" font-family="sans-serif" font-size="8.4" lengthAdjust="spacing" textLength="154.8" x="990.9" y="54.4371">-toDoListRepository: ToDoListRepository</text><text fill="#000000" font-family="sans-serif" font-size="8.4" lengthAdjust="spacing" textLength="147.6" x="990.9" y="65.6098">-agendaRepository: AgendaRepository</text><text fill="#000000" font-family="sans-serif" font-size="8.4" lengthAdjust="spacing" textLength="196.8" x="990.9" y="76.7824">-authenticationRepository: AuthenticationRepository</text><line style="stroke:#181818;stroke-width:0.3;" x1="987.9" x2="1781.7" y1="81.2906" y2="81.2906"/><text fill="#000000" font-family="sans-serif" font-size="8.4" lengthAdjust="spacing" textLength="787.8" x="990.9" y="92.7551">+AddEntryAgendaController(GreenSpaceRepository greenSpaceRepository, ToDoListRepository toDoListRepository, AgendaRepository agendaRepository, AuthenticationRepository authenticationRepository)</text><text fill="#000000" font-family="sans-serif" font-size="8.4" lengthAdjust="spacing" textLength="202.8" x="990.9" y="103.9277">+GreenSpaceRepository getGreenSpaceRepository()</text><text fill="#000000" font-family="sans-serif" font-size="8.4" lengthAdjust="spacing" textLength="175.2" x="990.9" y="115.1004">+ToDoListRepository getToDoListRepository()</text><text fill="#000000" font-family="sans-serif" font-size="8.4" lengthAdjust="spacing" textLength="165.6" x="990.9" y="126.273">+AgendaRepository getAgendaRepository()</text><text fill="#000000" font-family="sans-serif" font-size="8.4" lengthAdjust="spacing" textLength="214.8" x="990.9" y="137.4457">+AuthenticationRepository getAuthenticationRepository()</text><text fill="#000000" font-family="sans-serif" font-size="8.4" lengthAdjust="spacing" textLength="328.2" x="990.9" y="148.6184">+Optional&lt;AgendaEntry&gt; addEntry(TDLEntry entry, String status, LocalDate startDate)</text><text fill="#000000" font-family="sans-serif" font-size="8.4" lengthAdjust="spacing" textLength="130.2" x="990.9" y="159.791">+ToDoList getToDoList(GSM gsm)</text><text fill="#000000" font-family="sans-serif" font-size="8.4" lengthAdjust="spacing" textLength="120.6" x="990.9" y="170.9637">+Agenda getAgenda(GSM gsm)</text><text fill="#000000" font-family="sans-serif" font-size="8.4" lengthAdjust="spacing" textLength="112.2" x="990.9" y="182.1363">+GSM getGSMFromSession()</text></g><!--class GSM--><g id="elem_GSM"><rect codeLine="127" fill="#F1F1F1" height="73.4906" id="GSM" rx="1.5" ry="1.5" style="stroke:#181818;stroke-width:0.3;" width="74.4" x="486" y="63"/><ellipse cx="511.47" cy="72.6" fill="#ADD1B2" rx="6.6" ry="6.6" style="stroke:#181818;stroke-width:0.6;"/><path d="M513.1294,70.125 Q513.2231,69.9937 513.3356,69.9281 Q513.4481,69.8625 513.5794,69.8625 Q513.8044,69.8625 513.945,70.0219 Q514.0856,70.1719 514.0856,70.5375 L514.0856,71.4094 Q514.0856,71.775 513.945,71.9344 Q513.8044,72.0938 513.5794,72.0938 Q513.3731,72.0938 513.2513,71.9719 Q513.1294,71.8594 513.0638,71.55 Q513.0356,71.3344 512.9231,71.2219 Q512.7263,70.9969 512.3606,70.8656 Q511.995,70.7344 511.62,70.7344 Q511.1606,70.7344 510.7763,70.9312 Q510.4013,71.1281 510.1013,71.5781 Q509.8106,72.0281 509.8106,72.6469 L509.8106,73.3031 Q509.8106,74.0438 510.345,74.5406 Q510.8794,75.0281 511.8356,75.0281 Q512.3981,75.0281 512.7919,74.8781 Q513.0263,74.7844 513.2794,74.5219 Q513.4388,74.3625 513.5231,74.3156 Q513.6169,74.2688 513.7388,74.2688 Q513.9356,74.2688 514.0856,74.4281 Q514.245,74.5781 514.245,74.7844 Q514.245,74.9906 514.0388,75.2344 Q513.7388,75.5813 513.2606,75.7781 Q512.6138,76.05 511.8356,76.05 Q510.9263,76.05 510.2044,75.675 Q509.6138,75.375 509.2013,74.7375 Q508.7888,74.0906 508.7888,73.3219 L508.7888,72.6281 Q508.7888,71.8313 509.1544,71.1469 Q509.5294,70.4531 510.1856,70.0875 Q510.8419,69.7125 511.5825,69.7125 Q512.0231,69.7125 512.4075,69.8156 Q512.8013,69.9094 513.1294,70.125 Z " fill="#000000"/><text fill="#000000" font-family="sans-serif" font-size="8.4" lengthAdjust="spacing" textLength="18.6" x="523.53" y="76.0781">GSM</text><line style="stroke:#181818;stroke-width:0.3;" x1="486.6" x2="559.8" y1="82.2" y2="82.2"/><text fill="#000000" font-family="sans-serif" font-size="8.4" lengthAdjust="spacing" textLength="48.6" x="489.6" y="93.6645">-String name</text><text fill="#000000" font-family="sans-serif" font-size="8.4" lengthAdjust="spacing" textLength="55.2" x="489.6" y="104.8371">-int vatNumber</text><text fill="#000000" font-family="sans-serif" font-size="8.4" lengthAdjust="spacing" textLength="47.4" x="489.6" y="116.0098">-String email</text><text fill="#000000" font-family="sans-serif" font-size="8.4" lengthAdjust="spacing" textLength="67.2" x="489.6" y="127.1824">-int phonenumber</text><line style="stroke:#181818;stroke-width:0.3;" x1="486.6" x2="559.8" y1="131.6906" y2="131.6906"/></g><g id="elem_GMN14"><path d="M798,86.1 L798,112.8492 A0,0 0 0 0 798,112.8492 L966,112.8492 A0,0 0 0 0 966,112.8492 L966,102 L987.15,99.6 L966,97.2 L966,92.1 L960,86.1 L798,86.1 A0,0 0 0 0 798,86.1 " fill="#FEFFDD" style="stroke:#181818;stroke-width:0.3;"/><path d="M960,86.1 L960,92.1 L966,92.1 L960,86.1 " fill="#FEFFDD" style="stroke:#181818;stroke-width:0.3;"/><text fill="#000000" font-family="sans-serif" font-size="7.8" lengthAdjust="spacing" textLength="155.4" x="801.6" y="97.517">- AgendaEntry data is read from GSM's input</text><text fill="#000000" font-family="sans-serif" font-size="7.8" lengthAdjust="spacing" textLength="75.6" x="801.6" y="107.8916">- Updates the Agenda</text></g><g id="elem_GMN17"><path d="M3.6,86.1 L3.6,112.8492 L241.2,112.8492 L241.2,92.1 L235.2,86.1 L3.6,86.1 " fill="#FEFFDD" style="stroke:#181818;stroke-width:0.3;"/><path d="M235.2,86.1 L235.2,92.1 L241.2,92.1 L235.2,86.1 " fill="#FEFFDD" style="stroke:#181818;stroke-width:0.6;"/><text fill="#000000" font-family="sans-serif" font-size="7.8" lengthAdjust="spacing" textLength="225" x="7.2" y="97.517">- Responsible for adding Entries to the ToDoList and the Agenda.</text><text fill="#000000" font-family="sans-serif" font-size="7.8" lengthAdjust="spacing" textLength="154.8" x="7.2" y="107.8916">- Communicates with the AddEntryAgendaUI</text></g><g id="elem_GMN20"><path d="M262.2,81 L262.2,118.1238 L465,118.1238 L465,87 L459,81 L262.2,81 " fill="#FEFFDD" style="stroke:#181818;stroke-width:0.3;"/><path d="M459,81 L459,87 L465,87 L459,81 " fill="#FEFFDD" style="stroke:#181818;stroke-width:0.6;"/><text fill="#000000" font-family="sans-serif" font-size="7.8" lengthAdjust="spacing" textLength="148.2" x="265.8" y="92.417">- UI for GSM to add entries to the ToDoList</text><text fill="#000000" font-family="sans-serif" font-size="7.8" lengthAdjust="spacing" textLength="167.4" x="265.8" y="102.7916">- Communicates with AddEntryAgendaController</text><text fill="#000000" font-family="sans-serif" font-size="7.8" lengthAdjust="spacing" textLength="190.2" x="265.8" y="113.1662">- Receives repositories from AddEntryAgendaController</text></g><g id="elem_GMN23"><path d="M727.5,517.5 L727.5,523.2 L706.572,525.6 L727.5,528 L727.5,533.8746 A0,0 0 0 0 727.5,533.8746 L876.9,533.8746 A0,0 0 0 0 876.9,533.8746 L876.9,523.5 L870.9,517.5 L727.5,517.5 A0,0 0 0 0 727.5,517.5 " fill="#FEFFDD" style="stroke:#181818;stroke-width:0.3;"/><path d="M870.9,517.5 L870.9,523.5 L876.9,523.5 L870.9,517.5 " fill="#FEFFDD" style="stroke:#181818;stroke-width:0.3;"/><text fill="#000000" font-family="sans-serif" font-size="7.8" lengthAdjust="spacing" textLength="136.8" x="731.1" y="528.917">- Registered by the GSM in the Agenda</text></g><!--link GMN17 to GSM--><g id="link_GMN17_GSM"><path d="M142.092,86.052 C180.546,59.586 261.9,3.6 261.9,3.6 C261.9,3.6 464.7,3.6 464.7,3.6 C464.7,3.6 475.2,12.6 475.2,12.6 C475.2,12.6 489.864,39.18 502.98,62.958 " fill="none" id="GMN17-GSM" style="stroke:#181818;stroke-width:0.6;stroke-dasharray:7.0,7.0;"/></g><!--link GMN20 to AddEntryAgendaUI--><g id="link_GMN20_AddEntryAgendaUI"><path d="M387.432,80.862 C422.964,52.926 485.7,3.6 485.7,3.6 C485.7,3.6 560.1,3.6 560.1,3.6 C560.1,3.6 577.338,16.89 598.98,33.582 " fill="none" id="GMN20-AddEntryAgendaUI" style="stroke:#181818;stroke-width:0.6;stroke-dasharray:7.0,7.0;"/></g><!--link GSM to AgendaEntry--><g id="link_GSM_AgendaEntry"><path codeLine="154" d="M519.84,136.236 C514.02,198.69 502.1862,325.6355 493.5582,418.1855 " fill="none" id="GSM-to-AgendaEntry" style="stroke:#181818;stroke-width:0.6;"/><polygon fill="#181818" points="493.224,421.77,496.1149,416.6161,493.5025,418.783,491.3356,416.1705,493.224,421.77" style="stroke:#181818;stroke-width:0.6;"/><text fill="#000000" font-family="sans-serif" font-size="7.8" lengthAdjust="spacing" textLength="30" x="511.2" y="307.517">registers</text></g><!--link GSM to ToDoList--><g id="link_GSM_ToDoList"><path codeLine="155" d="M550.554,136.338 C568.476,160.014 588.6,186.6 588.6,186.6 C588.6,186.6 913.8,234 913.8,234 C913.8,234 963.6,421.8 963.6,421.8 C963.6,421.8 978.1528,593.8088 985.8208,684.5228 " fill="none" id="GSM-to-ToDoList" style="stroke:#181818;stroke-width:0.6;"/><polygon fill="#181818" points="986.124,688.11,988.0606,682.527,985.8713,685.1207,983.2777,682.9313,986.124,688.11" style="stroke:#181818;stroke-width:0.6;"/><text fill="#000000" font-family="sans-serif" font-size="7.8" lengthAdjust="spacing" textLength="16.8" x="959.4" y="401.417">uses</text></g><!--link GSM to Agenda--><g id="link_GSM_Agenda"><path codeLine="156" d="M503.124,136.338 C489.966,160.014 475.2,186.6 475.2,186.6 C475.2,186.6 250.2,421.8 250.2,421.8 C250.2,421.8 250.2,629.4 250.2,629.4 C250.2,629.4 321.0581,663.2833 385.7561,694.2133 " fill="none" id="GSM-to-Agenda" style="stroke:#181818;stroke-width:0.6;"/><polygon fill="#181818" points="389.004,695.766,385.1673,691.2716,386.2974,694.4721,383.097,695.6022,389.004,695.766" style="stroke:#181818;stroke-width:0.6;"/><text fill="#000000" font-family="sans-serif" font-size="7.8" lengthAdjust="spacing" textLength="16.8" x="277.8" y="401.417">uses</text></g><!--link AgendaEntry to Agenda--><g id="link_AgendaEntry_Agenda"><path codeLine="157" d="M483.6,629.508 C483.6,645.63 483.6,658.278 483.6,673.188 " fill="none" id="AgendaEntry-to-Agenda" style="stroke:#181818;stroke-width:0.6;"/><polygon fill="#181818" points="483.6,676.788,486,671.388,483.6,673.788,481.2,671.388,483.6,676.788" style="stroke:#181818;stroke-width:0.6;"/><text fill="#000000" font-family="sans-serif" font-size="7.8" lengthAdjust="spacing" textLength="30.6" x="484.2" y="656.417">shown in</text></g><!--link TDLEntry to ToDoList--><g id="link_TDLEntry_ToDoList"><path codeLine="158" d="M833.364,374.55 C862.02,399.606 887.4,421.8 887.4,421.8 C887.4,421.8 932.4,658.8 932.4,658.8 C932.4,658.8 939.7397,669.1699 951.0017,685.0759 " fill="none" id="TDLEntry-to-ToDoList" style="stroke:#181818;stroke-width:0.6;"/><polygon fill="#181818" points="953.082,688.014,951.9203,682.22,951.3484,685.5656,948.0028,684.9937,953.082,688.014" style="stroke:#181818;stroke-width:0.6;"/><text fill="#000000" font-family="sans-serif" font-size="7.8" lengthAdjust="spacing" textLength="30.6" x="927.6" y="528.917">shown in</text></g><!--link TDLEntry to AgendaEntry--><g id="link_TDLEntry_AgendaEntry"><path codeLine="159" d="M668.172,374.472 C649.71,389.532 632.5977,403.4806 612.9417,419.5126 " fill="none" id="TDLEntry-to-AgendaEntry" style="stroke:#181818;stroke-width:0.6;"/><polygon fill="#181818" points="610.152,421.788,615.8535,420.2347,612.4768,419.8918,612.8197,416.5151,610.152,421.788" style="stroke:#181818;stroke-width:0.6;"/><text fill="#000000" font-family="sans-serif" font-size="7.8" lengthAdjust="spacing" textLength="32.4" x="643.8" y="401.417">related to</text></g><!--link GSM to AddEntryAgendaUI--><g id="link_GSM_AddEntryAgendaUI"><path codeLine="160" d="M560.43,99.6 C572.07,99.6 581.826,99.6 595.368,99.6 " fill="none" id="GSM-to-AddEntryAgendaUI" style="stroke:#181818;stroke-width:0.6;"/><polygon fill="#181818" points="598.968,99.6,593.568,97.2,595.968,99.6,593.568,102,598.968,99.6" style="stroke:#181818;stroke-width:0.6;"/><text fill="#000000" font-family="sans-serif" font-size="7.8" lengthAdjust="spacing" textLength="16.8" x="571.35" y="95.417">uses</text></g><!--link Repositories to Repositories--><g id="link_Repositories_Repositories"><path codeLine="162" d="M1311.75,288.678 C1324.278,291.3 1332.6,296.478 1332.6,304.2 C1332.6,311.922 1327.8017,316.3625 1315.2737,318.9845 " fill="none" id="Repositories-to-Repositories" style="stroke:#181818;stroke-width:0.6;"/><polygon fill="#181818" points="1311.75,319.722,1317.5271,320.9649,1314.6864,319.1074,1316.5438,316.2667,1311.75,319.722" style="stroke:#181818;stroke-width:0.6;"/><text fill="#000000" font-family="sans-serif" font-size="7.8" lengthAdjust="spacing" textLength="29.4" x="1336.2" y="307.517">instance</text></g><!--link ApplicationSession to ApplicationSession--><g id="link_ApplicationSession_ApplicationSession"><path codeLine="163" d="M1580.196,286.818 C1592.1,287.85 1601.1,293.64 1601.1,304.2 C1601.1,314.76 1595.6865,320.2391 1583.7825,321.2711 " fill="none" id="ApplicationSession-to-ApplicationSession" style="stroke:#181818;stroke-width:0.6;"/><polygon fill="#181818" points="1580.196,321.582,1585.7831,323.5066,1583.1848,321.3229,1585.3685,318.7246,1580.196,321.582" style="stroke:#181818;stroke-width:0.6;"/><text fill="#000000" font-family="sans-serif" font-size="7.8" lengthAdjust="spacing" textLength="29.4" x="1604.7" y="307.517">instance</text></g><!--link AddEntryAgendaUI to AddEntryAgendaController--><g id="link_AddEntryAgendaUI_AddEntryAgendaController"><path codeLine="165" d="M770.322,26.838 C786.096,13.452 797.7,3.6 797.7,3.6 C797.7,3.6 965.7,3.6 965.7,3.6 C965.7,3.6 977.1549,6.222 1001.4309,11.784 " fill="none" id="AddEntryAgendaUI-to-AddEntryAgendaController" style="stroke:#181818;stroke-width:0.6;stroke-dasharray:7.0,7.0;"/><polygon fill="#181818" points="1004.94,12.588,1000.2124,9.0426,1002.0158,11.918,999.1404,13.7214,1004.94,12.588" style="stroke:#181818;stroke-width:0.6;"/></g><!--link AddEntryAgendaController to Repositories--><g id="link_AddEntryAgendaController_Repositories"><path codeLine="167" d="M1313.82,186.756 C1288.638,217.464 1264.1907,247.2723 1245.3807,270.2103 " fill="none" id="AddEntryAgendaController-to-Repositories" style="stroke:#181818;stroke-width:0.6;"/><polygon fill="#181818" points="1243.098,272.994,1248.3779,270.3403,1245.0003,270.6742,1244.6663,267.2966,1243.098,272.994" style="stroke:#181818;stroke-width:0.6;"/><text fill="#000000" font-family="sans-serif" font-size="7.8" lengthAdjust="spacing" textLength="64.8" x="1297.2" y="213.617">retrieves instances</text></g><!--link Repositories to ToDoListRepository--><g id="link_Repositories_ToDoListRepository"><path codeLine="169" d="M1226.592,335.418 C1237.386,373.884 1254.989,436.598 1267.091,479.708 " fill="none" id="Repositories-to-ToDoListRepository" style="stroke:#181818;stroke-width:0.6;"/><polygon fill="#181818" points="1268.064,483.174,1268.9152,477.3263,1267.2532,480.2857,1264.2938,478.6236,1268.064,483.174" style="stroke:#181818;stroke-width:0.6;"/><text fill="#000000" font-family="sans-serif" font-size="7.8" lengthAdjust="spacing" textLength="33.6" x="1246.2" y="401.417">accesses</text></g><!--link Repositories to AgendaRepository--><g id="link_Repositories_AgendaRepository"><path codeLine="170" d="M1201.146,335.418 C1179.978,373.884 1145.288,436.9102 1121.558,480.0202 " fill="none" id="Repositories-to-AgendaRepository" style="stroke:#181818;stroke-width:0.6;"/><polygon fill="#181818" points="1119.822,483.174,1124.5285,479.6007,1121.2687,480.5459,1120.3235,477.286,1119.822,483.174" style="stroke:#181818;stroke-width:0.6;"/><text fill="#000000" font-family="sans-serif" font-size="7.8" lengthAdjust="spacing" textLength="33.6" x="1169.4" y="401.417">accesses</text></g><!--link AddEntryAgendaController to ToDoListRepository--><g id="link_AddEntryAgendaController_ToDoListRepository"><path codeLine="172" d="M1379.874,186.768 C1375.302,267.126 1369.2,374.4 1369.2,374.4 C1369.2,374.4 1332.8773,435.5822 1306.4233,480.1562 " fill="none" id="AddEntryAgendaController-to-ToDoListRepository" style="stroke:#181818;stroke-width:0.6;stroke-dasharray:7.0,7.0;"/><polygon fill="#181818" points="1304.586,483.252,1309.4059,479.8331,1306.1171,480.6721,1305.2781,477.3834,1304.586,483.252" style="stroke:#181818;stroke-width:0.6;"/><text fill="#000000" font-family="sans-serif" font-size="7.8" lengthAdjust="spacing" textLength="66" x="1377.6" y="307.517">toDoListRepository</text></g><!--link AddEntryAgendaController to AgendaRepository--><g id="link_AddEntryAgendaController_AgendaRepository"><path codeLine="173" d="M1168.512,186.636 C1103.934,212.448 1050,234 1050,234 C1050,234 1050,374.4 1050,374.4 C1050,374.4 1068.9055,435.2402 1082.7595,479.8142 " fill="none" id="AddEntryAgendaController-to-AgendaRepository" style="stroke:#181818;stroke-width:0.6;stroke-dasharray:7.0,7.0;"/><polygon fill="#181818" points="1083.828,483.252,1084.5171,477.383,1082.9376,480.3872,1079.9334,478.8077,1083.828,483.252" style="stroke:#181818;stroke-width:0.6;"/><text fill="#000000" font-family="sans-serif" font-size="7.8" lengthAdjust="spacing" textLength="62.4" x="1050.6" y="307.517">agendaRepository</text></g><!--link ApplicationSession to UserSession--><g id="link_ApplicationSession_UserSession"><path codeLine="175" d="M1543.806,329.844 C1559.742,374.148 1591.3495,462.0325 1605.7495,502.0645 " fill="none" id="ApplicationSession-to-UserSession" style="stroke:#181818;stroke-width:0.6;"/><polygon fill="#181818" points="1606.968,505.452,1607.3985,499.5584,1605.9526,502.6291,1602.8819,501.1831,1606.968,505.452" style="stroke:#181818;stroke-width:0.6;"/><text fill="#000000" font-family="sans-serif" font-size="7.8" lengthAdjust="spacing" textLength="43.2" x="1570.8" y="401.417">userSession</text><text fill="#000000" font-family="sans-serif" font-size="7.8" lengthAdjust="spacing" textLength="4.2" x="1600.9701" y="498.7379">1</text></g><!--link AddEntryAgendaController to ApplicationSession--><g id="link_AddEntryAgendaController_ApplicationSession"><path codeLine="177" d="M1448.634,186.756 C1473.192,220.056 1497.2453,252.6787 1514.2193,275.6947 " fill="none" id="AddEntryAgendaController-to-ApplicationSession" style="stroke:#181818;stroke-width:0.6;stroke-dasharray:7.0,7.0;"/><polygon fill="#181818" points="1516.356,278.592,1515.0824,272.8216,1514.5754,276.1776,1511.2194,275.6705,1516.356,278.592" style="stroke:#181818;stroke-width:0.6;"/></g><!--link AddEntryAgendaController to UserSession--><g id="link_AddEntryAgendaController_UserSession"><path codeLine="178" d="M1548.372,186.636 C1597.212,212.448 1638,234 1638,234 C1638,234 1638,374.4 1638,374.4 C1638,374.4 1624.1724,461.1628 1617.6804,501.9088 " fill="none" id="AddEntryAgendaController-to-UserSession" style="stroke:#181818;stroke-width:0.6;stroke-dasharray:7.0,7.0;"/><polygon fill="#181818" points="1617.114,505.464,1620.3338,500.5089,1617.586,502.5014,1615.5936,499.7536,1617.114,505.464" style="stroke:#181818;stroke-width:0.6;"/></g><!--link ToDoListRepository to ToDoList--><g id="link_ToDoListRepository_ToDoList"><path codeLine="180" d="M1241.244,568.176 C1214.994,596.748 1185,629.4 1185,629.4 C1185,629.4 1136.0422,657.5058 1085.7982,686.3478 " fill="none" id="ToDoListRepository-to-ToDoList" style="stroke:#181818;stroke-width:0.6;stroke-dasharray:7.0,7.0;"/><polygon fill="#181818" points="1082.676,688.14,1088.5541,687.5331,1085.2778,686.6465,1086.1644,683.3702,1082.676,688.14" style="stroke:#181818;stroke-width:0.6;"/><text fill="#000000" font-family="sans-serif" font-size="7.8" lengthAdjust="spacing" textLength="21.6" x="1153.2" y="656.417">stores</text></g><!--link AgendaRepository to Agenda--><g id="link_AgendaRepository_Agenda"><path codeLine="181" d="M1039.656,568.026 C1000.566,596.634 955.8,629.4 955.8,629.4 C955.8,629.4 719.6515,685.2119 581.8075,717.7919 " fill="none" id="AgendaRepository-to-Agenda" style="stroke:#181818;stroke-width:0.6;stroke-dasharray:7.0,7.0;"/><polygon fill="#181818" points="578.304,718.62,584.1112,719.7136,581.2236,717.9299,583.0072,715.0423,578.304,718.62" style="stroke:#181818;stroke-width:0.6;"/><text fill="#000000" font-family="sans-serif" font-size="7.8" lengthAdjust="spacing" textLength="21.6" x="877.8" y="656.417">stores</text></g><!--SRC=[pLXBR-Cs4BxhLn1xYHUnW_Pg50RI95q4sEq2wwHtMc9iRYHI9Qa4Rj7_tk5J54cvHfF3-c2Bd6_8RnwSeNKXdodhiS0TwZZZzK7mZY0b1bADaXxNptXFjkhO4YH8hJ3Rjp507d33NodReoVSobZIKaRKiIUev-rH3wgBWf0BnQj8gswnbDTA2ReR5BclETlIlmZwgQeg8qBNVT_I6YiA4Y8b_5H_LmW-bqWgcAxHdgXx1i-i9ekFJWHpDuCGX2cd199__9AFaeXqBL3GqtSTfcsCVRZzVCUKE28BN255LKlMQ0kCsTxFOVbyIsGjQAzv9j91x0chZybiCmXS0CEUlAPOaUQJ88Hj8I2ms_Ziw7fQ2wjiMIsH7qtvX7d798mz1- -r7USjmGpX9jfzCJwYVNXCLSYV0-J3uklkEoGDubvCcK87B0ytl1c34tnQjvoHsDlNmA_1Fvx3OzW3mTqQwUzCz0SvqBebSeq-Kwb-SSEDm-bq7MIoFKmATGlAeCDhtEf7vwR86UyJvZ1XcIp77KSQxv0AeAAziz1VIC5N0U1Sit2_wCN-lYMhujp94kk1tt8Tav1LK1a43P6AT7sqzXAY_6dxnUUiMs2HuVrIIutMQWLpRH0jDmq_lkduU5jcZi__jj4Ytc9X78EYdJsNgWVMPy9hNTJRCy7ldYpV2D2bYhjYjB9-zD8DKkv9Lcdw-sG9eVBGZmQQh0Eznm_amYA2OYJxzGZkNqGXE7lF947ATbdP1c7pczdaaiEbc0L5rdXju6iVlILE8SoVjgAyI-0Vc4Cs6kwNq-wFrXE81-G1DT1ysYkaVZBmT39ogyj_YtYyTsw5oumIl6s9M2UGco0nG1yfWrY7_bZvGtpSfgrZd2zrZxEwskKi9tDx2YCNnnTE6oG65W_biEketXzFG70GYOodGyDteeVONeSPUv43tGK3mMGjc5IwEUhMysDp6iCLcp-9-EZ_65nCZfLBoHYOfOM13Ue04N8NrmbyHd8o8eiIzQALorBrokrRvgKWjMmvItNMEXl9CbUYIlD9kPigb8vjL5EcuFp8MkYS3LfbHkPKlvfR5MwdlJ3qkf3KvYIUUxSgb_PfFKnBvbHg1k3DxPVVu1zSuU-D1fWhmCfpOhWZTa8tmnUiVX-wdQaz8uReVpuZg3z0KsGM1Yip3eQqv0dwwjFfMXPtrWPA0A8IJZHkq1EmrTmk96pG3ygW7tl0G2s7G3ZD2hwGtYxPr5nJLb3U9TmV9Dt1fV692nqEpVxEtb0WqyrImSSO5XlNlj8htF2k6vWEEk1VgJfOG5B2vsXaE6F5lU6Y7Gy4W9A_CQLy33edSDAXtqXDw0lHNeoQd_7ch5v2Nj3zmR8VWsETkGTIH906xOw6g3Q1id8uj6orsiIBh86KNK86iRTrZGP9PABb9kCaYONom5yP4AZ2uPgkM9OdX5hTzi3pTkjD5ZB7ePfS9W0t6QzX5tkhgF8t46RLV3RIgR8hmTLcFbpLR3jRDM1mpaqGdLuwAVoEcJrEiL1PrmZNeA1zK5J9gckaCC_qwcfcixpvd5waj7tQOein0UeVVluGlzr19jJXNSz_x9k_Q3g9ZzyYLGNBOuT0vi9SIFm45RBVOlu5]--></g></svg>