<?xml version="1.0" encoding="us-ascii" standalone="no"?><svg xmlns="http://www.w3.org/2000/svg" xmlns:xlink="http://www.w3.org/1999/xlink" contentStyleType="text/css" height="1771px" preserveAspectRatio="none" style="width:3007px;height:1771px;background:#FFFFFF;" version="1.1" viewBox="0 0 3007 1771" width="3007px" zoomAndPan="magnify"><defs/><g><!--class ApplicationSession--><g id="elem_ApplicationSession"><rect codeLine="10" fill="#F1F1F1" height="85.2422" id="ApplicationSession" rx="2.5" ry="2.5" style="stroke:#181818;stroke-width:0.5;" width="151" x="2753.5" y="389.5"/><ellipse cx="2768.5" cy="405.5" fill="#ADD1B2" rx="11" ry="11" style="stroke:#181818;stroke-width:1.0;"/><path d="M2771.2656,401.375 Q2771.4219,401.1563 2771.6094,401.0469 Q2771.7969,400.9375 2772.0156,400.9375 Q2772.3906,400.9375 2772.625,401.2031 Q2772.8594,401.4531 2772.8594,402.0625 L2772.8594,403.5156 Q2772.8594,404.125 2772.625,404.3906 Q2772.3906,404.6563 2772.0156,404.6563 Q2771.6719,404.6563 2771.4688,404.4531 Q2771.2656,404.2656 2771.1563,403.75 Q2771.1094,403.3906 2770.9219,403.2031 Q2770.5938,402.8281 2769.9844,402.6094 Q2769.375,402.3906 2768.75,402.3906 Q2767.9844,402.3906 2767.3438,402.7188 Q2766.7188,403.0469 2766.2188,403.7969 Q2765.7344,404.5469 2765.7344,405.5781 L2765.7344,406.6719 Q2765.7344,407.9063 2766.625,408.7344 Q2767.5156,409.5469 2769.1094,409.5469 Q2770.0469,409.5469 2770.7031,409.2969 Q2771.0938,409.1406 2771.5156,408.7031 Q2771.7813,408.4375 2771.9219,408.3594 Q2772.0781,408.2813 2772.2813,408.2813 Q2772.6094,408.2813 2772.8594,408.5469 Q2773.125,408.7969 2773.125,409.1406 Q2773.125,409.4844 2772.7813,409.8906 Q2772.2813,410.4688 2771.4844,410.7969 Q2770.4063,411.25 2769.1094,411.25 Q2767.5938,411.25 2766.3906,410.625 Q2765.4063,410.125 2764.7188,409.0625 Q2764.0313,407.9844 2764.0313,406.7031 L2764.0313,405.5469 Q2764.0313,404.2188 2764.6406,403.0781 Q2765.2656,401.9219 2766.3594,401.3125 Q2767.4531,400.6875 2768.6875,400.6875 Q2769.4219,400.6875 2770.0625,400.8594 Q2770.7188,401.0156 2771.2656,401.375 Z " fill="#000000"/><text fill="#000000" font-family="sans-serif" font-size="14" lengthAdjust="spacing" textLength="119" x="2782.5" y="411.2969">ApplicationSession</text><line style="stroke:#181818;stroke-width:0.5;" x1="2754.5" x2="2903.5" y1="421.5" y2="421.5"/><line style="stroke:#181818;stroke-width:0.5;" x1="2754.5" x2="2903.5" y1="429.5" y2="429.5"/><text fill="#000000" font-family="sans-serif" font-size="14" lengthAdjust="spacing" textLength="128" x="2759.5" y="448.6074">+static getInstance()</text><text fill="#000000" font-family="sans-serif" font-size="14" lengthAdjust="spacing" textLength="136" x="2759.5" y="467.2285">+getCurrentSession()</text></g><!--class UserSession--><g id="elem_UserSession"><rect codeLine="16" fill="#F1F1F1" height="66.6211" id="UserSession" rx="2.5" ry="2.5" style="stroke:#181818;stroke-width:0.5;" width="113" x="2693.5" y="609"/><ellipse cx="2709.4" cy="625" fill="#ADD1B2" rx="11" ry="11" style="stroke:#181818;stroke-width:1.0;"/><path d="M2712.1656,620.875 Q2712.3219,620.6563 2712.5094,620.5469 Q2712.6969,620.4375 2712.9156,620.4375 Q2713.2906,620.4375 2713.525,620.7031 Q2713.7594,620.9531 2713.7594,621.5625 L2713.7594,623.0156 Q2713.7594,623.625 2713.525,623.8906 Q2713.2906,624.1563 2712.9156,624.1563 Q2712.5719,624.1563 2712.3688,623.9531 Q2712.1656,623.7656 2712.0563,623.25 Q2712.0094,622.8906 2711.8219,622.7031 Q2711.4938,622.3281 2710.8844,622.1094 Q2710.275,621.8906 2709.65,621.8906 Q2708.8844,621.8906 2708.2438,622.2188 Q2707.6188,622.5469 2707.1188,623.2969 Q2706.6344,624.0469 2706.6344,625.0781 L2706.6344,626.1719 Q2706.6344,627.4063 2707.525,628.2344 Q2708.4156,629.0469 2710.0094,629.0469 Q2710.9469,629.0469 2711.6031,628.7969 Q2711.9938,628.6406 2712.4156,628.2031 Q2712.6813,627.9375 2712.8219,627.8594 Q2712.9781,627.7813 2713.1813,627.7813 Q2713.5094,627.7813 2713.7594,628.0469 Q2714.025,628.2969 2714.025,628.6406 Q2714.025,628.9844 2713.6813,629.3906 Q2713.1813,629.9688 2712.3844,630.2969 Q2711.3063,630.75 2710.0094,630.75 Q2708.4938,630.75 2707.2906,630.125 Q2706.3063,629.625 2705.6188,628.5625 Q2704.9313,627.4844 2704.9313,626.2031 L2704.9313,625.0469 Q2704.9313,623.7188 2705.5406,622.5781 Q2706.1656,621.4219 2707.2594,620.8125 Q2708.3531,620.1875 2709.5875,620.1875 Q2710.3219,620.1875 2710.9625,620.3594 Q2711.6188,620.5156 2712.1656,620.875 Z " fill="#000000"/><text fill="#000000" font-family="sans-serif" font-size="14" lengthAdjust="spacing" textLength="79" x="2723.6" y="630.7969">UserSession</text><line style="stroke:#181818;stroke-width:0.5;" x1="2694.5" x2="2805.5" y1="641" y2="641"/><line style="stroke:#181818;stroke-width:0.5;" x1="2694.5" x2="2805.5" y1="649" y2="649"/><text fill="#000000" font-family="sans-serif" font-size="14" lengthAdjust="spacing" textLength="101" x="2699.5" y="668.1074">+getUserEmail()</text></g><!--class GreenSpace--><g id="elem_GreenSpace"><rect codeLine="21" fill="#F1F1F1" height="252.832" id="GreenSpace" rx="2.5" ry="2.5" style="stroke:#181818;stroke-width:0.5;" width="346" x="925" y="792"/><ellipse cx="1053.75" cy="808" fill="#ADD1B2" rx="11" ry="11" style="stroke:#181818;stroke-width:1.0;"/><path d="M1056.5156,803.875 Q1056.6719,803.6563 1056.8594,803.5469 Q1057.0469,803.4375 1057.2656,803.4375 Q1057.6406,803.4375 1057.875,803.7031 Q1058.1094,803.9531 1058.1094,804.5625 L1058.1094,806.0156 Q1058.1094,806.625 1057.875,806.8906 Q1057.6406,807.1563 1057.2656,807.1563 Q1056.9219,807.1563 1056.7188,806.9531 Q1056.5156,806.7656 1056.4063,806.25 Q1056.3594,805.8906 1056.1719,805.7031 Q1055.8438,805.3281 1055.2344,805.1094 Q1054.625,804.8906 1054,804.8906 Q1053.2344,804.8906 1052.5938,805.2188 Q1051.9688,805.5469 1051.4688,806.2969 Q1050.9844,807.0469 1050.9844,808.0781 L1050.9844,809.1719 Q1050.9844,810.4063 1051.875,811.2344 Q1052.7656,812.0469 1054.3594,812.0469 Q1055.2969,812.0469 1055.9531,811.7969 Q1056.3438,811.6406 1056.7656,811.2031 Q1057.0313,810.9375 1057.1719,810.8594 Q1057.3281,810.7813 1057.5313,810.7813 Q1057.8594,810.7813 1058.1094,811.0469 Q1058.375,811.2969 1058.375,811.6406 Q1058.375,811.9844 1058.0313,812.3906 Q1057.5313,812.9688 1056.7344,813.2969 Q1055.6563,813.75 1054.3594,813.75 Q1052.8438,813.75 1051.6406,813.125 Q1050.6563,812.625 1049.9688,811.5625 Q1049.2813,810.4844 1049.2813,809.2031 L1049.2813,808.0469 Q1049.2813,806.7188 1049.8906,805.5781 Q1050.5156,804.4219 1051.6094,803.8125 Q1052.7031,803.1875 1053.9375,803.1875 Q1054.6719,803.1875 1055.3125,803.3594 Q1055.9688,803.5156 1056.5156,803.875 Z " fill="#000000"/><text fill="#000000" font-family="sans-serif" font-size="14" lengthAdjust="spacing" textLength="80" x="1074.25" y="813.7969">GreenSpace</text><line style="stroke:#181818;stroke-width:0.5;" x1="926" x2="1270" y1="824" y2="824"/><text fill="#000000" font-family="sans-serif" font-size="14" lengthAdjust="spacing" textLength="85" x="931" y="843.1074">-name: String</text><text fill="#000000" font-family="sans-serif" font-size="14" lengthAdjust="spacing" textLength="77" x="931" y="861.7285">-type: String</text><text fill="#000000" font-family="sans-serif" font-size="14" lengthAdjust="spacing" textLength="85" x="931" y="880.3496">-area: double</text><line style="stroke:#181818;stroke-width:0.5;" x1="926" x2="1270" y1="887.8633" y2="887.8633"/><text fill="#000000" font-family="sans-serif" font-size="14" lengthAdjust="spacing" textLength="334" x="931" y="906.9707">+GreenSpace(String name, String type, double area)</text><text fill="#000000" font-family="sans-serif" font-size="14" lengthAdjust="spacing" textLength="289" x="931" y="925.5918">+void validateGreenSpaceName(String name)</text><text fill="#000000" font-family="sans-serif" font-size="14" lengthAdjust="spacing" textLength="277" x="931" y="944.2129">+void validateGreenSpaceType(String type)</text><text fill="#000000" font-family="sans-serif" font-size="14" lengthAdjust="spacing" textLength="283" x="931" y="962.834">+void validateGreenSpaceArea(double area)</text><text fill="#000000" font-family="sans-serif" font-size="14" lengthAdjust="spacing" textLength="168" x="931" y="981.4551">+boolean equals(Object o)</text><text fill="#000000" font-family="sans-serif" font-size="14" lengthAdjust="spacing" textLength="102" x="931" y="1000.0762">+int hashCode()</text><text fill="#000000" font-family="sans-serif" font-size="14" lengthAdjust="spacing" textLength="136" x="931" y="1018.6973">+GreenSpace clone()</text><text fill="#000000" font-family="sans-serif" font-size="14" lengthAdjust="spacing" textLength="210" x="931" y="1037.3184">+boolean isOfName(String name)</text></g><!--class TDLEntry--><g id="elem_TDLEntry"><rect codeLine="35" fill="#F1F1F1" height="234.2109" id="TDLEntry" rx="2.5" ry="2.5" style="stroke:#181818;stroke-width:0.5;" width="500" x="1386" y="801.5"/><ellipse cx="1601.75" cy="817.5" fill="#ADD1B2" rx="11" ry="11" style="stroke:#181818;stroke-width:1.0;"/><path d="M1604.5156,813.375 Q1604.6719,813.1563 1604.8594,813.0469 Q1605.0469,812.9375 1605.2656,812.9375 Q1605.6406,812.9375 1605.875,813.2031 Q1606.1094,813.4531 1606.1094,814.0625 L1606.1094,815.5156 Q1606.1094,816.125 1605.875,816.3906 Q1605.6406,816.6563 1605.2656,816.6563 Q1604.9219,816.6563 1604.7188,816.4531 Q1604.5156,816.2656 1604.4063,815.75 Q1604.3594,815.3906 1604.1719,815.2031 Q1603.8438,814.8281 1603.2344,814.6094 Q1602.625,814.3906 1602,814.3906 Q1601.2344,814.3906 1600.5938,814.7188 Q1599.9688,815.0469 1599.4688,815.7969 Q1598.9844,816.5469 1598.9844,817.5781 L1598.9844,818.6719 Q1598.9844,819.9063 1599.875,820.7344 Q1600.7656,821.5469 1602.3594,821.5469 Q1603.2969,821.5469 1603.9531,821.2969 Q1604.3438,821.1406 1604.7656,820.7031 Q1605.0313,820.4375 1605.1719,820.3594 Q1605.3281,820.2813 1605.5313,820.2813 Q1605.8594,820.2813 1606.1094,820.5469 Q1606.375,820.7969 1606.375,821.1406 Q1606.375,821.4844 1606.0313,821.8906 Q1605.5313,822.4688 1604.7344,822.7969 Q1603.6563,823.25 1602.3594,823.25 Q1600.8438,823.25 1599.6406,822.625 Q1598.6563,822.125 1597.9688,821.0625 Q1597.2813,819.9844 1597.2813,818.7031 L1597.2813,817.5469 Q1597.2813,816.2188 1597.8906,815.0781 Q1598.5156,813.9219 1599.6094,813.3125 Q1600.7031,812.6875 1601.9375,812.6875 Q1602.6719,812.6875 1603.3125,812.8594 Q1603.9688,813.0156 1604.5156,813.375 Z " fill="#000000"/><text fill="#000000" font-family="sans-serif" font-size="14" lengthAdjust="spacing" textLength="60" x="1622.25" y="823.2969">TDLEntry</text><line style="stroke:#181818;stroke-width:0.5;" x1="1387" x2="1885" y1="833.5" y2="833.5"/><text fill="#000000" font-family="sans-serif" font-size="14" lengthAdjust="spacing" textLength="72" x="1392" y="852.6074">-title: String</text><text fill="#000000" font-family="sans-serif" font-size="14" lengthAdjust="spacing" textLength="147" x="1392" y="871.2285">-taskDescription: String</text><text fill="#000000" font-family="sans-serif" font-size="14" lengthAdjust="spacing" textLength="101" x="1392" y="889.8496">-urgency: String</text><text fill="#000000" font-family="sans-serif" font-size="14" lengthAdjust="spacing" textLength="102" x="1392" y="908.4707">-duration: String</text><text fill="#000000" font-family="sans-serif" font-size="14" lengthAdjust="spacing" textLength="241" x="1392" y="927.0918">-associatedGreenSpace: GreenSpace</text><line style="stroke:#181818;stroke-width:0.5;" x1="1387" x2="1885" y1="934.6055" y2="934.6055"/><text fill="#000000" font-family="sans-serif" font-size="14" lengthAdjust="spacing" textLength="488" x="1392" y="953.7129">+TDLEntry(String title, String taskDescription, String urgency, String duration)</text><text fill="#000000" font-family="sans-serif" font-size="14" lengthAdjust="spacing" textLength="338" x="1392" y="972.334">+boolean addGreenSpace(GreenSpace greenSpace)</text><text fill="#000000" font-family="sans-serif" font-size="14" lengthAdjust="spacing" textLength="168" x="1392" y="990.9551">+boolean equals(Object o)</text><text fill="#000000" font-family="sans-serif" font-size="14" lengthAdjust="spacing" textLength="102" x="1392" y="1009.5762">+int hashCode()</text><text fill="#000000" font-family="sans-serif" font-size="14" lengthAdjust="spacing" textLength="116" x="1392" y="1028.1973">+TDLEntry clone()</text></g><!--class AgendaEntry--><g id="elem_AgendaEntry"><rect codeLine="48" fill="#F1F1F1" height="345.9375" id="AgendaEntry" rx="2.5" ry="2.5" style="stroke:#181818;stroke-width:0.5;" width="743" x="797.5" y="1124"/><ellipse cx="1123.75" cy="1140" fill="#ADD1B2" rx="11" ry="11" style="stroke:#181818;stroke-width:1.0;"/><path d="M1126.5156,1135.875 Q1126.6719,1135.6563 1126.8594,1135.5469 Q1127.0469,1135.4375 1127.2656,1135.4375 Q1127.6406,1135.4375 1127.875,1135.7031 Q1128.1094,1135.9531 1128.1094,1136.5625 L1128.1094,1138.0156 Q1128.1094,1138.625 1127.875,1138.8906 Q1127.6406,1139.1563 1127.2656,1139.1563 Q1126.9219,1139.1563 1126.7188,1138.9531 Q1126.5156,1138.7656 1126.4063,1138.25 Q1126.3594,1137.8906 1126.1719,1137.7031 Q1125.8438,1137.3281 1125.2344,1137.1094 Q1124.625,1136.8906 1124,1136.8906 Q1123.2344,1136.8906 1122.5938,1137.2188 Q1121.9688,1137.5469 1121.4688,1138.2969 Q1120.9844,1139.0469 1120.9844,1140.0781 L1120.9844,1141.1719 Q1120.9844,1142.4063 1121.875,1143.2344 Q1122.7656,1144.0469 1124.3594,1144.0469 Q1125.2969,1144.0469 1125.9531,1143.7969 Q1126.3438,1143.6406 1126.7656,1143.2031 Q1127.0313,1142.9375 1127.1719,1142.8594 Q1127.3281,1142.7813 1127.5313,1142.7813 Q1127.8594,1142.7813 1128.1094,1143.0469 Q1128.375,1143.2969 1128.375,1143.6406 Q1128.375,1143.9844 1128.0313,1144.3906 Q1127.5313,1144.9688 1126.7344,1145.2969 Q1125.6563,1145.75 1124.3594,1145.75 Q1122.8438,1145.75 1121.6406,1145.125 Q1120.6563,1144.625 1119.9688,1143.5625 Q1119.2813,1142.4844 1119.2813,1141.2031 L1119.2813,1140.0469 Q1119.2813,1138.7188 1119.8906,1137.5781 Q1120.5156,1136.4219 1121.6094,1135.8125 Q1122.7031,1135.1875 1123.9375,1135.1875 Q1124.6719,1135.1875 1125.3125,1135.3594 Q1125.9688,1135.5156 1126.5156,1135.875 Z " fill="#000000"/><text fill="#000000" font-family="sans-serif" font-size="14" lengthAdjust="spacing" textLength="82" x="1144.25" y="1145.7969">AgendaEntry</text><line style="stroke:#181818;stroke-width:0.5;" x1="798.5" x2="1539.5" y1="1156" y2="1156"/><text fill="#000000" font-family="sans-serif" font-size="14" lengthAdjust="spacing" textLength="72" x="803.5" y="1175.1074">-title: String</text><text fill="#000000" font-family="sans-serif" font-size="14" lengthAdjust="spacing" textLength="147" x="803.5" y="1193.7285">-taskDescription: String</text><text fill="#000000" font-family="sans-serif" font-size="14" lengthAdjust="spacing" textLength="101" x="803.5" y="1212.3496">-urgency: String</text><text fill="#000000" font-family="sans-serif" font-size="14" lengthAdjust="spacing" textLength="102" x="803.5" y="1230.9707">-duration: String</text><text fill="#000000" font-family="sans-serif" font-size="14" lengthAdjust="spacing" textLength="241" x="803.5" y="1249.5918">-associatedGreenSpace: GreenSpace</text><text fill="#000000" font-family="sans-serif" font-size="14" lengthAdjust="spacing" textLength="153" x="803.5" y="1268.2129">-associatedTeam: Team</text><text fill="#000000" font-family="sans-serif" font-size="14" lengthAdjust="spacing" textLength="218" x="803.5" y="1286.834">-associatedVehicles: List&lt;Vehicle&gt;</text><text fill="#000000" font-family="sans-serif" font-size="14" lengthAdjust="spacing" textLength="88" x="803.5" y="1305.4551">-status: String</text><text fill="#000000" font-family="sans-serif" font-size="14" lengthAdjust="spacing" textLength="135" x="803.5" y="1324.0762">-startDate: LocalDate</text><line style="stroke:#181818;stroke-width:0.5;" x1="798.5" x2="1539.5" y1="1331.5898" y2="1331.5898"/><text fill="#000000" font-family="sans-serif" font-size="14" lengthAdjust="spacing" textLength="731" x="803.5" y="1350.6973">+AgendaEntry(String title, String taskDescription, String urgency, String duration, String status, LocalDate startDate)</text><text fill="#000000" font-family="sans-serif" font-size="14" lengthAdjust="spacing" textLength="338" x="803.5" y="1369.3184">+boolean addGreenSpace(GreenSpace greenSpace)</text><text fill="#000000" font-family="sans-serif" font-size="14" lengthAdjust="spacing" textLength="204" x="803.5" y="1387.9395">+boolean addTeam(Team team)</text><text fill="#000000" font-family="sans-serif" font-size="14" lengthAdjust="spacing" textLength="237" x="803.5" y="1406.5605">+boolean addVehicle(Vehicle vehicle)</text><text fill="#000000" font-family="sans-serif" font-size="14" lengthAdjust="spacing" textLength="168" x="803.5" y="1425.1816">+boolean equals(Object o)</text><text fill="#000000" font-family="sans-serif" font-size="14" lengthAdjust="spacing" textLength="102" x="803.5" y="1443.8027">+int hashCode()</text><text fill="#000000" font-family="sans-serif" font-size="14" lengthAdjust="spacing" textLength="138" x="803.5" y="1462.4238">+AgendaEntry clone()</text></g><!--class ToDoList--><g id="elem_ToDoList"><rect codeLine="67" fill="#F1F1F1" height="178.3477" id="ToDoList" rx="2.5" ry="2.5" style="stroke:#181818;stroke-width:0.5;" width="323" x="1859.5" y="1208"/><ellipse cx="1988.25" cy="1224" fill="#ADD1B2" rx="11" ry="11" style="stroke:#181818;stroke-width:1.0;"/><path d="M1991.0156,1219.875 Q1991.1719,1219.6563 1991.3594,1219.5469 Q1991.5469,1219.4375 1991.7656,1219.4375 Q1992.1406,1219.4375 1992.375,1219.7031 Q1992.6094,1219.9531 1992.6094,1220.5625 L1992.6094,1222.0156 Q1992.6094,1222.625 1992.375,1222.8906 Q1992.1406,1223.1563 1991.7656,1223.1563 Q1991.4219,1223.1563 1991.2188,1222.9531 Q1991.0156,1222.7656 1990.9063,1222.25 Q1990.8594,1221.8906 1990.6719,1221.7031 Q1990.3438,1221.3281 1989.7344,1221.1094 Q1989.125,1220.8906 1988.5,1220.8906 Q1987.7344,1220.8906 1987.0938,1221.2188 Q1986.4688,1221.5469 1985.9688,1222.2969 Q1985.4844,1223.0469 1985.4844,1224.0781 L1985.4844,1225.1719 Q1985.4844,1226.4063 1986.375,1227.2344 Q1987.2656,1228.0469 1988.8594,1228.0469 Q1989.7969,1228.0469 1990.4531,1227.7969 Q1990.8438,1227.6406 1991.2656,1227.2031 Q1991.5313,1226.9375 1991.6719,1226.8594 Q1991.8281,1226.7813 1992.0313,1226.7813 Q1992.3594,1226.7813 1992.6094,1227.0469 Q1992.875,1227.2969 1992.875,1227.6406 Q1992.875,1227.9844 1992.5313,1228.3906 Q1992.0313,1228.9688 1991.2344,1229.2969 Q1990.1563,1229.75 1988.8594,1229.75 Q1987.3438,1229.75 1986.1406,1229.125 Q1985.1563,1228.625 1984.4688,1227.5625 Q1983.7813,1226.4844 1983.7813,1225.2031 L1983.7813,1224.0469 Q1983.7813,1222.7188 1984.3906,1221.5781 Q1985.0156,1220.4219 1986.1094,1219.8125 Q1987.2031,1219.1875 1988.4375,1219.1875 Q1989.1719,1219.1875 1989.8125,1219.3594 Q1990.4688,1219.5156 1991.0156,1219.875 Z " fill="#000000"/><text fill="#000000" font-family="sans-serif" font-size="14" lengthAdjust="spacing" textLength="57" x="2008.75" y="1229.7969">ToDoList</text><line style="stroke:#181818;stroke-width:0.5;" x1="1860.5" x2="2181.5" y1="1240" y2="1240"/><text fill="#000000" font-family="sans-serif" font-size="14" lengthAdjust="spacing" textLength="176" x="1865.5" y="1259.1074">-entries: List&lt;AgendaEntry&gt;</text><text fill="#000000" font-family="sans-serif" font-size="14" lengthAdjust="spacing" textLength="70" x="1865.5" y="1277.7285">-gsm: GSM</text><line style="stroke:#181818;stroke-width:0.5;" x1="1860.5" x2="2181.5" y1="1285.2422" y2="1285.2422"/><text fill="#000000" font-family="sans-serif" font-size="14" lengthAdjust="spacing" textLength="311" x="1865.5" y="1304.3496">+ToDoList(List&lt;AgendaEntry&gt; entries, GSM gsm)</text><text fill="#000000" font-family="sans-serif" font-size="14" lengthAdjust="spacing" textLength="199" x="1865.5" y="1322.9707">+boolean addEntry(Entry entry)</text><text fill="#000000" font-family="sans-serif" font-size="14" lengthAdjust="spacing" textLength="168" x="1865.5" y="1341.5918">+boolean equals(Object o)</text><text fill="#000000" font-family="sans-serif" font-size="14" lengthAdjust="spacing" textLength="102" x="1865.5" y="1360.2129">+int hashCode()</text><text fill="#000000" font-family="sans-serif" font-size="14" lengthAdjust="spacing" textLength="113" x="1865.5" y="1378.834">+ToDoList clone()</text></g><!--class Agenda--><g id="elem_Agenda"><rect codeLine="77" fill="#F1F1F1" height="215.5898" id="Agenda" rx="2.5" ry="2.5" style="stroke:#181818;stroke-width:0.5;" width="315" x="1011.5" y="1549"/><ellipse cx="1140.25" cy="1565" fill="#ADD1B2" rx="11" ry="11" style="stroke:#181818;stroke-width:1.0;"/><path d="M1143.0156,1560.875 Q1143.1719,1560.6563 1143.3594,1560.5469 Q1143.5469,1560.4375 1143.7656,1560.4375 Q1144.1406,1560.4375 1144.375,1560.7031 Q1144.6094,1560.9531 1144.6094,1561.5625 L1144.6094,1563.0156 Q1144.6094,1563.625 1144.375,1563.8906 Q1144.1406,1564.1563 1143.7656,1564.1563 Q1143.4219,1564.1563 1143.2188,1563.9531 Q1143.0156,1563.7656 1142.9063,1563.25 Q1142.8594,1562.8906 1142.6719,1562.7031 Q1142.3438,1562.3281 1141.7344,1562.1094 Q1141.125,1561.8906 1140.5,1561.8906 Q1139.7344,1561.8906 1139.0938,1562.2188 Q1138.4688,1562.5469 1137.9688,1563.2969 Q1137.4844,1564.0469 1137.4844,1565.0781 L1137.4844,1566.1719 Q1137.4844,1567.4063 1138.375,1568.2344 Q1139.2656,1569.0469 1140.8594,1569.0469 Q1141.7969,1569.0469 1142.4531,1568.7969 Q1142.8438,1568.6406 1143.2656,1568.2031 Q1143.5313,1567.9375 1143.6719,1567.8594 Q1143.8281,1567.7813 1144.0313,1567.7813 Q1144.3594,1567.7813 1144.6094,1568.0469 Q1144.875,1568.2969 1144.875,1568.6406 Q1144.875,1568.9844 1144.5313,1569.3906 Q1144.0313,1569.9688 1143.2344,1570.2969 Q1142.1563,1570.75 1140.8594,1570.75 Q1139.3438,1570.75 1138.1406,1570.125 Q1137.1563,1569.625 1136.4688,1568.5625 Q1135.7813,1567.4844 1135.7813,1566.2031 L1135.7813,1565.0469 Q1135.7813,1563.7188 1136.3906,1562.5781 Q1137.0156,1561.4219 1138.1094,1560.8125 Q1139.2031,1560.1875 1140.4375,1560.1875 Q1141.1719,1560.1875 1141.8125,1560.3594 Q1142.4688,1560.5156 1143.0156,1560.875 Z " fill="#000000"/><text fill="#000000" font-family="sans-serif" font-size="14" lengthAdjust="spacing" textLength="49" x="1160.75" y="1570.7969">Agenda</text><line style="stroke:#181818;stroke-width:0.5;" x1="1012.5" x2="1325.5" y1="1581" y2="1581"/><text fill="#000000" font-family="sans-serif" font-size="14" lengthAdjust="spacing" textLength="176" x="1017.5" y="1600.1074">-entries: List&lt;AgendaEntry&gt;</text><text fill="#000000" font-family="sans-serif" font-size="14" lengthAdjust="spacing" textLength="70" x="1017.5" y="1618.7285">-gsm: GSM</text><line style="stroke:#181818;stroke-width:0.5;" x1="1012.5" x2="1325.5" y1="1626.2422" y2="1626.2422"/><text fill="#000000" font-family="sans-serif" font-size="14" lengthAdjust="spacing" textLength="303" x="1017.5" y="1645.3496">+Agenda(List&lt;AgendaEntry&gt; entries, GSM gsm)</text><text fill="#000000" font-family="sans-serif" font-size="14" lengthAdjust="spacing" textLength="248" x="1017.5" y="1663.9707">+boolean addEntry(AgendaEntry entry)</text><text fill="#000000" font-family="sans-serif" font-size="14" lengthAdjust="spacing" textLength="283" x="1017.5" y="1682.5918">+boolean postponeEntry(AgendaEntry entry)</text><text fill="#000000" font-family="sans-serif" font-size="14" lengthAdjust="spacing" textLength="265" x="1017.5" y="1701.2129">+boolean cancelEntry(AgendaEntry entry)</text><text fill="#000000" font-family="sans-serif" font-size="14" lengthAdjust="spacing" textLength="168" x="1017.5" y="1719.834">+boolean equals(Object o)</text><text fill="#000000" font-family="sans-serif" font-size="14" lengthAdjust="spacing" textLength="102" x="1017.5" y="1738.4551">+int hashCode()</text><text fill="#000000" font-family="sans-serif" font-size="14" lengthAdjust="spacing" textLength="138" x="1017.5" y="1757.0762">+AgendaEntry clone()</text></g><!--class GreenSpaceRepository--><g id="elem_GreenSpaceRepository"><rect codeLine="89" fill="#F1F1F1" height="141.1055" id="GreenSpaceRepository" rx="2.5" ry="2.5" style="stroke:#181818;stroke-width:0.5;" width="616" x="1388" y="572"/><ellipse cx="1617.75" cy="588" fill="#ADD1B2" rx="11" ry="11" style="stroke:#181818;stroke-width:1.0;"/><path d="M1620.5156,583.875 Q1620.6719,583.6563 1620.8594,583.5469 Q1621.0469,583.4375 1621.2656,583.4375 Q1621.6406,583.4375 1621.875,583.7031 Q1622.1094,583.9531 1622.1094,584.5625 L1622.1094,586.0156 Q1622.1094,586.625 1621.875,586.8906 Q1621.6406,587.1563 1621.2656,587.1563 Q1620.9219,587.1563 1620.7188,586.9531 Q1620.5156,586.7656 1620.4063,586.25 Q1620.3594,585.8906 1620.1719,585.7031 Q1619.8438,585.3281 1619.2344,585.1094 Q1618.625,584.8906 1618,584.8906 Q1617.2344,584.8906 1616.5938,585.2188 Q1615.9688,585.5469 1615.4688,586.2969 Q1614.9844,587.0469 1614.9844,588.0781 L1614.9844,589.1719 Q1614.9844,590.4063 1615.875,591.2344 Q1616.7656,592.0469 1618.3594,592.0469 Q1619.2969,592.0469 1619.9531,591.7969 Q1620.3438,591.6406 1620.7656,591.2031 Q1621.0313,590.9375 1621.1719,590.8594 Q1621.3281,590.7813 1621.5313,590.7813 Q1621.8594,590.7813 1622.1094,591.0469 Q1622.375,591.2969 1622.375,591.6406 Q1622.375,591.9844 1622.0313,592.3906 Q1621.5313,592.9688 1620.7344,593.2969 Q1619.6563,593.75 1618.3594,593.75 Q1616.8438,593.75 1615.6406,593.125 Q1614.6563,592.625 1613.9688,591.5625 Q1613.2813,590.4844 1613.2813,589.2031 L1613.2813,588.0469 Q1613.2813,586.7188 1613.8906,585.5781 Q1614.5156,584.4219 1615.6094,583.8125 Q1616.7031,583.1875 1617.9375,583.1875 Q1618.6719,583.1875 1619.3125,583.3594 Q1619.9688,583.5156 1620.5156,583.875 Z " fill="#000000"/><text fill="#000000" font-family="sans-serif" font-size="14" lengthAdjust="spacing" textLength="148" x="1638.25" y="593.7969">GreenSpaceRepository</text><line style="stroke:#181818;stroke-width:0.5;" x1="1389" x2="2003" y1="604" y2="604"/><text fill="#000000" font-family="sans-serif" font-size="14" lengthAdjust="spacing" textLength="211" x="1394" y="623.1074">-List&lt;GreenSpace&gt; greenSpaces</text><line style="stroke:#181818;stroke-width:0.5;" x1="1389" x2="2003" y1="630.6211" y2="630.6211"/><text fill="#000000" font-family="sans-serif" font-size="14" lengthAdjust="spacing" textLength="604" x="1394" y="649.7285">+Optional&lt;GreenSpace&gt; registerGreenSpace(String name, String type, double area, GSM gsm)</text><text fill="#000000" font-family="sans-serif" font-size="14" lengthAdjust="spacing" textLength="338" x="1394" y="668.3496">+boolean addGreenSpace(GreenSpace greenSpace)</text><text fill="#000000" font-family="sans-serif" font-size="14" lengthAdjust="spacing" textLength="363" x="1394" y="686.9707">+boolean validateGreenSpace(GreenSpace greenSpace)</text><text fill="#000000" font-family="sans-serif" font-size="14" lengthAdjust="spacing" textLength="262" x="1394" y="705.5918">+List&lt;GreenSpace&gt; getGreenSpaceList()</text></g><!--class ToDoListRepository--><g id="elem_ToDoListRepository"><rect codeLine="97" fill="#F1F1F1" height="141.1055" id="ToDoListRepository" rx="2.5" ry="2.5" style="stroke:#181818;stroke-width:0.5;" width="279" x="2039.5" y="572"/><ellipse cx="2112.25" cy="588" fill="#ADD1B2" rx="11" ry="11" style="stroke:#181818;stroke-width:1.0;"/><path d="M2115.0156,583.875 Q2115.1719,583.6563 2115.3594,583.5469 Q2115.5469,583.4375 2115.7656,583.4375 Q2116.1406,583.4375 2116.375,583.7031 Q2116.6094,583.9531 2116.6094,584.5625 L2116.6094,586.0156 Q2116.6094,586.625 2116.375,586.8906 Q2116.1406,587.1563 2115.7656,587.1563 Q2115.4219,587.1563 2115.2188,586.9531 Q2115.0156,586.7656 2114.9063,586.25 Q2114.8594,585.8906 2114.6719,585.7031 Q2114.3438,585.3281 2113.7344,585.1094 Q2113.125,584.8906 2112.5,584.8906 Q2111.7344,584.8906 2111.0938,585.2188 Q2110.4688,585.5469 2109.9688,586.2969 Q2109.4844,587.0469 2109.4844,588.0781 L2109.4844,589.1719 Q2109.4844,590.4063 2110.375,591.2344 Q2111.2656,592.0469 2112.8594,592.0469 Q2113.7969,592.0469 2114.4531,591.7969 Q2114.8438,591.6406 2115.2656,591.2031 Q2115.5313,590.9375 2115.6719,590.8594 Q2115.8281,590.7813 2116.0313,590.7813 Q2116.3594,590.7813 2116.6094,591.0469 Q2116.875,591.2969 2116.875,591.6406 Q2116.875,591.9844 2116.5313,592.3906 Q2116.0313,592.9688 2115.2344,593.2969 Q2114.1563,593.75 2112.8594,593.75 Q2111.3438,593.75 2110.1406,593.125 Q2109.1563,592.625 2108.4688,591.5625 Q2107.7813,590.4844 2107.7813,589.2031 L2107.7813,588.0469 Q2107.7813,586.7188 2108.3906,585.5781 Q2109.0156,584.4219 2110.1094,583.8125 Q2111.2031,583.1875 2112.4375,583.1875 Q2113.1719,583.1875 2113.8125,583.3594 Q2114.4688,583.5156 2115.0156,583.875 Z " fill="#000000"/><text fill="#000000" font-family="sans-serif" font-size="14" lengthAdjust="spacing" textLength="125" x="2132.75" y="593.7969">ToDoListRepository</text><line style="stroke:#181818;stroke-width:0.5;" x1="2040.5" x2="2317.5" y1="604" y2="604"/><text fill="#000000" font-family="sans-serif" font-size="14" lengthAdjust="spacing" textLength="163" x="2045.5" y="623.1074">-List&lt;ToDoList&gt; toDoLists</text><line style="stroke:#181818;stroke-width:0.5;" x1="2040.5" x2="2317.5" y1="630.6211" y2="630.6211"/><text fill="#000000" font-family="sans-serif" font-size="14" lengthAdjust="spacing" textLength="267" x="2045.5" y="649.7285">+boolean addToDoList(ToDoList toDoList)</text><text fill="#000000" font-family="sans-serif" font-size="14" lengthAdjust="spacing" textLength="201" x="2045.5" y="668.3496">+List&lt;ToDoList&gt; getToDoLists()</text><text fill="#000000" font-family="sans-serif" font-size="14" lengthAdjust="spacing" textLength="264" x="2045.5" y="686.9707">+ToDoList getToDoListByGSM(GSM gsm)</text><text fill="#000000" font-family="sans-serif" font-size="14" lengthAdjust="spacing" textLength="267" x="2045.5" y="705.5918">+boolean addToDoList(ToDoList toDoList)</text></g><!--class AgendaRepository--><g id="elem_AgendaRepository"><rect codeLine="105" fill="#F1F1F1" height="141.1055" id="AgendaRepository" rx="2.5" ry="2.5" style="stroke:#181818;stroke-width:0.5;" width="260" x="2354" y="572"/><ellipse cx="2421.25" cy="588" fill="#ADD1B2" rx="11" ry="11" style="stroke:#181818;stroke-width:1.0;"/><path d="M2424.0156,583.875 Q2424.1719,583.6563 2424.3594,583.5469 Q2424.5469,583.4375 2424.7656,583.4375 Q2425.1406,583.4375 2425.375,583.7031 Q2425.6094,583.9531 2425.6094,584.5625 L2425.6094,586.0156 Q2425.6094,586.625 2425.375,586.8906 Q2425.1406,587.1563 2424.7656,587.1563 Q2424.4219,587.1563 2424.2188,586.9531 Q2424.0156,586.7656 2423.9063,586.25 Q2423.8594,585.8906 2423.6719,585.7031 Q2423.3438,585.3281 2422.7344,585.1094 Q2422.125,584.8906 2421.5,584.8906 Q2420.7344,584.8906 2420.0938,585.2188 Q2419.4688,585.5469 2418.9688,586.2969 Q2418.4844,587.0469 2418.4844,588.0781 L2418.4844,589.1719 Q2418.4844,590.4063 2419.375,591.2344 Q2420.2656,592.0469 2421.8594,592.0469 Q2422.7969,592.0469 2423.4531,591.7969 Q2423.8438,591.6406 2424.2656,591.2031 Q2424.5313,590.9375 2424.6719,590.8594 Q2424.8281,590.7813 2425.0313,590.7813 Q2425.3594,590.7813 2425.6094,591.0469 Q2425.875,591.2969 2425.875,591.6406 Q2425.875,591.9844 2425.5313,592.3906 Q2425.0313,592.9688 2424.2344,593.2969 Q2423.1563,593.75 2421.8594,593.75 Q2420.3438,593.75 2419.1406,593.125 Q2418.1563,592.625 2417.4688,591.5625 Q2416.7813,590.4844 2416.7813,589.2031 L2416.7813,588.0469 Q2416.7813,586.7188 2417.3906,585.5781 Q2418.0156,584.4219 2419.1094,583.8125 Q2420.2031,583.1875 2421.4375,583.1875 Q2422.1719,583.1875 2422.8125,583.3594 Q2423.4688,583.5156 2424.0156,583.875 Z " fill="#000000"/><text fill="#000000" font-family="sans-serif" font-size="14" lengthAdjust="spacing" textLength="117" x="2441.75" y="593.7969">AgendaRepository</text><line style="stroke:#181818;stroke-width:0.5;" x1="2355" x2="2613" y1="604" y2="604"/><text fill="#000000" font-family="sans-serif" font-size="14" lengthAdjust="spacing" textLength="151" x="2360" y="623.1074">-List&lt;Agenda&gt; agendas</text><line style="stroke:#181818;stroke-width:0.5;" x1="2355" x2="2613" y1="630.6211" y2="630.6211"/><text fill="#000000" font-family="sans-serif" font-size="14" lengthAdjust="spacing" textLength="247" x="2360" y="649.7285">+boolean addAgenda(Agenda agenda)</text><text fill="#000000" font-family="sans-serif" font-size="14" lengthAdjust="spacing" textLength="185" x="2360" y="668.3496">+List&lt;Agenda&gt; getAgendas()</text><text fill="#000000" font-family="sans-serif" font-size="14" lengthAdjust="spacing" textLength="248" x="2360" y="686.9707">+Agenda getAgendaByGSM(GSM gsm)</text><text fill="#000000" font-family="sans-serif" font-size="14" lengthAdjust="spacing" textLength="247" x="2360" y="705.5918">+boolean addAgenda(Agenda agenda)</text></g><!--class Repositories--><g id="elem_Repositories"><rect codeLine="113" fill="#F1F1F1" height="122.4844" id="Repositories" rx="2.5" ry="2.5" style="stroke:#181818;stroke-width:0.5;" width="358" x="2034" y="371"/><ellipse cx="2169.25" cy="387" fill="#ADD1B2" rx="11" ry="11" style="stroke:#181818;stroke-width:1.0;"/><path d="M2172.0156,382.875 Q2172.1719,382.6563 2172.3594,382.5469 Q2172.5469,382.4375 2172.7656,382.4375 Q2173.1406,382.4375 2173.375,382.7031 Q2173.6094,382.9531 2173.6094,383.5625 L2173.6094,385.0156 Q2173.6094,385.625 2173.375,385.8906 Q2173.1406,386.1563 2172.7656,386.1563 Q2172.4219,386.1563 2172.2188,385.9531 Q2172.0156,385.7656 2171.9063,385.25 Q2171.8594,384.8906 2171.6719,384.7031 Q2171.3438,384.3281 2170.7344,384.1094 Q2170.125,383.8906 2169.5,383.8906 Q2168.7344,383.8906 2168.0938,384.2188 Q2167.4688,384.5469 2166.9688,385.2969 Q2166.4844,386.0469 2166.4844,387.0781 L2166.4844,388.1719 Q2166.4844,389.4063 2167.375,390.2344 Q2168.2656,391.0469 2169.8594,391.0469 Q2170.7969,391.0469 2171.4531,390.7969 Q2171.8438,390.6406 2172.2656,390.2031 Q2172.5313,389.9375 2172.6719,389.8594 Q2172.8281,389.7813 2173.0313,389.7813 Q2173.3594,389.7813 2173.6094,390.0469 Q2173.875,390.2969 2173.875,390.6406 Q2173.875,390.9844 2173.5313,391.3906 Q2173.0313,391.9688 2172.2344,392.2969 Q2171.1563,392.75 2169.8594,392.75 Q2168.3438,392.75 2167.1406,392.125 Q2166.1563,391.625 2165.4688,390.5625 Q2164.7813,389.4844 2164.7813,388.2031 L2164.7813,387.0469 Q2164.7813,385.7188 2165.3906,384.5781 Q2166.0156,383.4219 2167.1094,382.8125 Q2168.2031,382.1875 2169.4375,382.1875 Q2170.1719,382.1875 2170.8125,382.3594 Q2171.4688,382.5156 2172.0156,382.875 Z " fill="#000000"/><text fill="#000000" font-family="sans-serif" font-size="14" lengthAdjust="spacing" textLength="79" x="2189.75" y="392.7969">Repositories</text><line style="stroke:#181818;stroke-width:0.5;" x1="2035" x2="2391" y1="403" y2="403"/><line style="stroke:#181818;stroke-width:0.5;" x1="2035" x2="2391" y1="411" y2="411"/><text fill="#000000" font-family="sans-serif" font-size="14" lengthAdjust="spacing" textLength="182" x="2040" y="430.1074">+getInstance() : Repositories</text><text fill="#000000" font-family="sans-serif" font-size="14" lengthAdjust="spacing" textLength="346" x="2040" y="448.7285">+getGreenSpaceRepository() : GreenSpaceRepository</text><text fill="#000000" font-family="sans-serif" font-size="14" lengthAdjust="spacing" textLength="300" x="2040" y="467.3496">+getToDoListRepository() : ToDoListRepository</text><text fill="#000000" font-family="sans-serif" font-size="14" lengthAdjust="spacing" textLength="284" x="2040" y="485.9707">+getAgendaRepository() : AgendaRepository</text></g><!--class AddEntryAgendaUI--><g id="elem_AddEntryAgendaUI"><rect codeLine="120" fill="#F1F1F1" height="271.4531" id="AddEntryAgendaUI" rx="2.5" ry="2.5" style="stroke:#181818;stroke-width:0.5;" width="285" x="998.5" y="21"/><ellipse cx="1077.25" cy="37" fill="#ADD1B2" rx="11" ry="11" style="stroke:#181818;stroke-width:1.0;"/><path d="M1080.0156,32.875 Q1080.1719,32.6563 1080.3594,32.5469 Q1080.5469,32.4375 1080.7656,32.4375 Q1081.1406,32.4375 1081.375,32.7031 Q1081.6094,32.9531 1081.6094,33.5625 L1081.6094,35.0156 Q1081.6094,35.625 1081.375,35.8906 Q1081.1406,36.1563 1080.7656,36.1563 Q1080.4219,36.1563 1080.2188,35.9531 Q1080.0156,35.7656 1079.9063,35.25 Q1079.8594,34.8906 1079.6719,34.7031 Q1079.3438,34.3281 1078.7344,34.1094 Q1078.125,33.8906 1077.5,33.8906 Q1076.7344,33.8906 1076.0938,34.2188 Q1075.4688,34.5469 1074.9688,35.2969 Q1074.4844,36.0469 1074.4844,37.0781 L1074.4844,38.1719 Q1074.4844,39.4063 1075.375,40.2344 Q1076.2656,41.0469 1077.8594,41.0469 Q1078.7969,41.0469 1079.4531,40.7969 Q1079.8438,40.6406 1080.2656,40.2031 Q1080.5313,39.9375 1080.6719,39.8594 Q1080.8281,39.7813 1081.0313,39.7813 Q1081.3594,39.7813 1081.6094,40.0469 Q1081.875,40.2969 1081.875,40.6406 Q1081.875,40.9844 1081.5313,41.3906 Q1081.0313,41.9688 1080.2344,42.2969 Q1079.1563,42.75 1077.8594,42.75 Q1076.3438,42.75 1075.1406,42.125 Q1074.1563,41.625 1073.4688,40.5625 Q1072.7813,39.4844 1072.7813,38.2031 L1072.7813,37.0469 Q1072.7813,35.7188 1073.3906,34.5781 Q1074.0156,33.4219 1075.1094,32.8125 Q1076.2031,32.1875 1077.4375,32.1875 Q1078.1719,32.1875 1078.8125,32.3594 Q1079.4688,32.5156 1080.0156,32.875 Z " fill="#000000"/><text fill="#000000" font-family="sans-serif" font-size="14" lengthAdjust="spacing" textLength="119" x="1097.75" y="42.7969">AddEntryAgendaUI</text><line style="stroke:#181818;stroke-width:0.5;" x1="999.5" x2="1282.5" y1="53" y2="53"/><text fill="#000000" font-family="sans-serif" font-size="14" lengthAdjust="spacing" textLength="241" x="1004.5" y="72.1074">-controller: AddEntryAgendaController</text><text fill="#000000" font-family="sans-serif" font-size="14" lengthAdjust="spacing" textLength="158" x="1004.5" y="90.7285">-toDoListEntry: TDLEntry</text><text fill="#000000" font-family="sans-serif" font-size="14" lengthAdjust="spacing" textLength="122" x="1004.5" y="109.3496">-entryStatus: String</text><text fill="#000000" font-family="sans-serif" font-size="14" lengthAdjust="spacing" textLength="169" x="1004.5" y="127.9707">-entryStartDate: LocalDate</text><text fill="#000000" font-family="sans-serif" font-size="14" lengthAdjust="spacing" textLength="241" x="1004.5" y="146.5918">-associatedGreenSpace: GreenSpace</text><line style="stroke:#181818;stroke-width:0.5;" x1="999.5" x2="1282.5" y1="154.1055" y2="154.1055"/><text fill="#000000" font-family="sans-serif" font-size="14" lengthAdjust="spacing" textLength="273" x="1004.5" y="173.2129">+AddEntryAgendaController getController()</text><text fill="#000000" font-family="sans-serif" font-size="14" lengthAdjust="spacing" textLength="69" x="1004.5" y="191.834">+void run()</text><text fill="#000000" font-family="sans-serif" font-size="14" lengthAdjust="spacing" textLength="119" x="1004.5" y="210.4551">+void submitData()</text><text fill="#000000" font-family="sans-serif" font-size="14" lengthAdjust="spacing" textLength="126" x="1004.5" y="229.0762">+void requestData()</text><text fill="#000000" font-family="sans-serif" font-size="14" lengthAdjust="spacing" textLength="220" x="1004.5" y="247.6973">+TDLEntry requestToDoListEntry()</text><text fill="#000000" font-family="sans-serif" font-size="14" lengthAdjust="spacing" textLength="180" x="1004.5" y="266.3184">+String requestEntryStatus()</text><text fill="#000000" font-family="sans-serif" font-size="14" lengthAdjust="spacing" textLength="246" x="1004.5" y="284.9395">+LocalDate requestEntryStartingDate()</text></g><!--class AddEntryAgendaController--><g id="elem_AddEntryAgendaController"><rect codeLine="135" fill="#F1F1F1" height="252.832" id="AddEntryAgendaController" rx="2.5" ry="2.5" style="stroke:#181818;stroke-width:0.5;" width="1325" x="1634.5" y="30"/><ellipse cx="2208.25" cy="46" fill="#ADD1B2" rx="11" ry="11" style="stroke:#181818;stroke-width:1.0;"/><path d="M2211.0156,41.875 Q2211.1719,41.6563 2211.3594,41.5469 Q2211.5469,41.4375 2211.7656,41.4375 Q2212.1406,41.4375 2212.375,41.7031 Q2212.6094,41.9531 2212.6094,42.5625 L2212.6094,44.0156 Q2212.6094,44.625 2212.375,44.8906 Q2212.1406,45.1563 2211.7656,45.1563 Q2211.4219,45.1563 2211.2188,44.9531 Q2211.0156,44.7656 2210.9063,44.25 Q2210.8594,43.8906 2210.6719,43.7031 Q2210.3438,43.3281 2209.7344,43.1094 Q2209.125,42.8906 2208.5,42.8906 Q2207.7344,42.8906 2207.0938,43.2188 Q2206.4688,43.5469 2205.9688,44.2969 Q2205.4844,45.0469 2205.4844,46.0781 L2205.4844,47.1719 Q2205.4844,48.4063 2206.375,49.2344 Q2207.2656,50.0469 2208.8594,50.0469 Q2209.7969,50.0469 2210.4531,49.7969 Q2210.8438,49.6406 2211.2656,49.2031 Q2211.5313,48.9375 2211.6719,48.8594 Q2211.8281,48.7813 2212.0313,48.7813 Q2212.3594,48.7813 2212.6094,49.0469 Q2212.875,49.2969 2212.875,49.6406 Q2212.875,49.9844 2212.5313,50.3906 Q2212.0313,50.9688 2211.2344,51.2969 Q2210.1563,51.75 2208.8594,51.75 Q2207.3438,51.75 2206.1406,51.125 Q2205.1563,50.625 2204.4688,49.5625 Q2203.7813,48.4844 2203.7813,47.2031 L2203.7813,46.0469 Q2203.7813,44.7188 2204.3906,43.5781 Q2205.0156,42.4219 2206.1094,41.8125 Q2207.2031,41.1875 2208.4375,41.1875 Q2209.1719,41.1875 2209.8125,41.3594 Q2210.4688,41.5156 2211.0156,41.875 Z " fill="#000000"/><text fill="#000000" font-family="sans-serif" font-size="14" lengthAdjust="spacing" textLength="169" x="2228.75" y="51.7969">AddEntryAgendaController</text><line style="stroke:#181818;stroke-width:0.5;" x1="1635.5" x2="2958.5" y1="62" y2="62"/><text fill="#000000" font-family="sans-serif" font-size="14" lengthAdjust="spacing" textLength="306" x="1640.5" y="81.1074">-greenSpaceRepository: GreenSpaceRepository</text><text fill="#000000" font-family="sans-serif" font-size="14" lengthAdjust="spacing" textLength="258" x="1640.5" y="99.7285">-toDoListRepository: ToDoListRepository</text><text fill="#000000" font-family="sans-serif" font-size="14" lengthAdjust="spacing" textLength="246" x="1640.5" y="118.3496">-agendaRepository: AgendaRepository</text><text fill="#000000" font-family="sans-serif" font-size="14" lengthAdjust="spacing" textLength="328" x="1640.5" y="136.9707">-authenticationRepository: AuthenticationRepository</text><line style="stroke:#181818;stroke-width:0.5;" x1="1635.5" x2="2958.5" y1="144.4844" y2="144.4844"/><text fill="#000000" font-family="sans-serif" font-size="14" lengthAdjust="spacing" textLength="1313" x="1640.5" y="163.5918">+AddEntryAgendaController(GreenSpaceRepository greenSpaceRepository, ToDoListRepository toDoListRepository, AgendaRepository agendaRepository, AuthenticationRepository authenticationRepository)</text><text fill="#000000" font-family="sans-serif" font-size="14" lengthAdjust="spacing" textLength="338" x="1640.5" y="182.2129">+GreenSpaceRepository getGreenSpaceRepository()</text><text fill="#000000" font-family="sans-serif" font-size="14" lengthAdjust="spacing" textLength="292" x="1640.5" y="200.834">+ToDoListRepository getToDoListRepository()</text><text fill="#000000" font-family="sans-serif" font-size="14" lengthAdjust="spacing" textLength="276" x="1640.5" y="219.4551">+AgendaRepository getAgendaRepository()</text><text fill="#000000" font-family="sans-serif" font-size="14" lengthAdjust="spacing" textLength="358" x="1640.5" y="238.0762">+AuthenticationRepository getAuthenticationRepository()</text><text fill="#000000" font-family="sans-serif" font-size="14" lengthAdjust="spacing" textLength="547" x="1640.5" y="256.6973">+Optional&lt;AgendaEntry&gt; addEntry(TDLEntry entry, String status, LocalDate startDate)</text><text fill="#000000" font-family="sans-serif" font-size="14" lengthAdjust="spacing" textLength="187" x="1640.5" y="275.3184">+GSM getGSMFromSession()</text></g><!--class GSM--><g id="elem_GSM"><rect codeLine="149" fill="#F1F1F1" height="122.4844" id="GSM" rx="2.5" ry="2.5" style="stroke:#181818;stroke-width:0.5;" width="124" x="810" y="95.5"/><ellipse cx="852.45" cy="111.5" fill="#ADD1B2" rx="11" ry="11" style="stroke:#181818;stroke-width:1.0;"/><path d="M855.2156,107.375 Q855.3719,107.1563 855.5594,107.0469 Q855.7469,106.9375 855.9656,106.9375 Q856.3406,106.9375 856.575,107.2031 Q856.8094,107.4531 856.8094,108.0625 L856.8094,109.5156 Q856.8094,110.125 856.575,110.3906 Q856.3406,110.6563 855.9656,110.6563 Q855.6219,110.6563 855.4188,110.4531 Q855.2156,110.2656 855.1063,109.75 Q855.0594,109.3906 854.8719,109.2031 Q854.5438,108.8281 853.9344,108.6094 Q853.325,108.3906 852.7,108.3906 Q851.9344,108.3906 851.2938,108.7188 Q850.6688,109.0469 850.1688,109.7969 Q849.6844,110.5469 849.6844,111.5781 L849.6844,112.6719 Q849.6844,113.9063 850.575,114.7344 Q851.4656,115.5469 853.0594,115.5469 Q853.9969,115.5469 854.6531,115.2969 Q855.0438,115.1406 855.4656,114.7031 Q855.7313,114.4375 855.8719,114.3594 Q856.0281,114.2813 856.2313,114.2813 Q856.5594,114.2813 856.8094,114.5469 Q857.075,114.7969 857.075,115.1406 Q857.075,115.4844 856.7313,115.8906 Q856.2313,116.4688 855.4344,116.7969 Q854.3563,117.25 853.0594,117.25 Q851.5438,117.25 850.3406,116.625 Q849.3563,116.125 848.6688,115.0625 Q847.9813,113.9844 847.9813,112.7031 L847.9813,111.5469 Q847.9813,110.2188 848.5906,109.0781 Q849.2156,107.9219 850.3094,107.3125 Q851.4031,106.6875 852.6375,106.6875 Q853.3719,106.6875 854.0125,106.8594 Q854.6688,107.0156 855.2156,107.375 Z " fill="#000000"/><text fill="#000000" font-family="sans-serif" font-size="14" lengthAdjust="spacing" textLength="31" x="872.55" y="117.2969">GSM</text><line style="stroke:#181818;stroke-width:0.5;" x1="811" x2="933" y1="127.5" y2="127.5"/><text fill="#000000" font-family="sans-serif" font-size="14" lengthAdjust="spacing" textLength="81" x="816" y="146.6074">-String name</text><text fill="#000000" font-family="sans-serif" font-size="14" lengthAdjust="spacing" textLength="92" x="816" y="165.2285">-int vatNumber</text><text fill="#000000" font-family="sans-serif" font-size="14" lengthAdjust="spacing" textLength="79" x="816" y="183.8496">-String email</text><text fill="#000000" font-family="sans-serif" font-size="14" lengthAdjust="spacing" textLength="112" x="816" y="202.4707">-int phonenumber</text><line style="stroke:#181818;stroke-width:0.5;" x1="811" x2="933" y1="209.9844" y2="209.9844"/></g><g id="elem_GMN16"><path d="M1319,134 L1319,178.582 A0,0 0 0 0 1319,178.582 L1599,178.582 A0,0 0 0 0 1599,178.582 L1599,160.5 L1634.25,156.5 L1599,152.5 L1599,144 L1589,134 L1319,134 A0,0 0 0 0 1319,134 " fill="#FEFFDD" style="stroke:#181818;stroke-width:0.5;"/><path d="M1589,134 L1589,144 L1599,144 L1589,134 " fill="#FEFFDD" style="stroke:#181818;stroke-width:0.5;"/><text fill="#000000" font-family="sans-serif" font-size="13" lengthAdjust="spacing" textLength="259" x="1325" y="153.0283">- AgendaEntry data is read from GSM's input</text><text fill="#000000" font-family="sans-serif" font-size="13" lengthAdjust="spacing" textLength="126" x="1325" y="170.3193">- Updates the Agenda</text></g><g id="elem_GMN19"><path d="M6,134 L6,178.582 L402,178.582 L402,144 L392,134 L6,134 " fill="#FEFFDD" style="stroke:#181818;stroke-width:0.5;"/><path d="M392,134 L392,144 L402,144 L392,134 " fill="#FEFFDD" style="stroke:#181818;stroke-width:1.0;"/><text fill="#000000" font-family="sans-serif" font-size="13" lengthAdjust="spacing" textLength="375" x="12" y="153.0283">- Responsible for adding Entries to the ToDoList and the Agenda.</text><text fill="#000000" font-family="sans-serif" font-size="13" lengthAdjust="spacing" textLength="258" x="12" y="170.3193">- Communicates with the AddEntryAgendaUI</text></g><g id="elem_GMN22"><path d="M437,125.5 L437,187.373 L775,187.373 L775,135.5 L765,125.5 L437,125.5 " fill="#FEFFDD" style="stroke:#181818;stroke-width:0.5;"/><path d="M765,125.5 L765,135.5 L775,135.5 L765,125.5 " fill="#FEFFDD" style="stroke:#181818;stroke-width:1.0;"/><text fill="#000000" font-family="sans-serif" font-size="13" lengthAdjust="spacing" textLength="247" x="443" y="144.5283">- UI for GSM to add entries to the ToDoList</text><text fill="#000000" font-family="sans-serif" font-size="13" lengthAdjust="spacing" textLength="279" x="443" y="161.8193">- Communicates with AddEntryAgendaController</text><text fill="#000000" font-family="sans-serif" font-size="13" lengthAdjust="spacing" textLength="317" x="443" y="179.1104">- Receives repositories from AddEntryAgendaController</text></g><g id="elem_GMN25"><path d="M1575.5,1283.5 L1575.5,1293 L1540.62,1297 L1575.5,1301 L1575.5,1310.791 A0,0 0 0 0 1575.5,1310.791 L1824.5,1310.791 A0,0 0 0 0 1824.5,1310.791 L1824.5,1293.5 L1814.5,1283.5 L1575.5,1283.5 A0,0 0 0 0 1575.5,1283.5 " fill="#FEFFDD" style="stroke:#181818;stroke-width:0.5;"/><path d="M1814.5,1283.5 L1814.5,1293.5 L1824.5,1293.5 L1814.5,1283.5 " fill="#FEFFDD" style="stroke:#181818;stroke-width:0.5;"/><text fill="#000000" font-family="sans-serif" font-size="13" lengthAdjust="spacing" textLength="228" x="1581.5" y="1302.5283">- Registered by the GSM in the Agenda</text></g><!--link GMN19 to GSM--><g id="link_GMN19_GSM"><path d="M238.81,133.97 C303.67,91.98 436.5,6 436.5,6 C436.5,6 774.5,6 774.5,6 C774.5,6 792,21 792,21 C792,21 814.74,59.52 835.98,95.49 " fill="none" id="GMN19-GSM" style="stroke:#181818;stroke-width:1.0;stroke-dasharray:7.0,7.0;"/></g><!--link GMN22 to AddEntryAgendaUI--><g id="link_GMN22_AddEntryAgendaUI"><path d="M648.17,125.32 C707.77,81.23 809.5,6 809.5,6 C809.5,6 933.5,6 933.5,6 C933.5,6 962.23,26.83 998.3,53 " fill="none" id="GMN22-AddEntryAgendaUI" style="stroke:#181818;stroke-width:1.0;stroke-dasharray:7.0,7.0;"/></g><!--link GSM to AgendaEntry--><g id="link_GSM_AgendaEntry"><path codeLine="176" d="M872,217.52 C872,298.03 872,431 872,431 C872,431 872,431 872,919.5 C872,919.5 907,1045 907,1045 C907,1045 939.1274,1075.7793 984.8474,1119.5793 " fill="none" id="GSM-to-AgendaEntry" style="stroke:#181818;stroke-width:1.0;"/><polygon fill="#181818" points="989.18,1123.73,985.4482,1114.6155,985.5695,1120.2711,979.9139,1120.3924,989.18,1123.73" style="stroke:#181818;stroke-width:1.0;"/><text fill="#000000" font-family="sans-serif" font-size="13" lengthAdjust="spacing" textLength="50" x="873" y="648.0283">registers</text></g><!--link GSM to ToDoList--><g id="link_GSM_ToDoList"><path codeLine="177" d="M920.76,217.67 C949.78,253.48 981,292 981,292 C981,292 1340,713 1340,713 C1340,713 1903,792 1903,792 C1903,792 1965.182,1057.608 1999.012,1202.078 " fill="none" id="GSM-to-ToDoList" style="stroke:#181818;stroke-width:1.0;"/><polygon fill="#181818" points="2000.38,1207.92,2002.2227,1198.2451,1999.24,1203.0517,1994.4334,1200.069,2000.38,1207.92" style="stroke:#181818;stroke-width:1.0;"/><text fill="#000000" font-family="sans-serif" font-size="13" lengthAdjust="spacing" textLength="28" x="1341" y="648.0283">uses</text></g><!--link GSM to Agenda--><g id="link_GSM_Agenda"><path codeLine="178" d="M843.91,217.52 C806.23,298.03 744,431 744,431 C744,431 744,431 744,1298 C744,1298 780,1470 780,1470 C780,1470 898.0968,1526.4721 1005.9268,1578.0221 " fill="none" id="GSM-to-Agenda" style="stroke:#181818;stroke-width:1.0;"/><polygon fill="#181818" points="1011.34,1580.61,1004.9454,1573.1194,1006.829,1578.4534,1001.4949,1580.337,1011.34,1580.61" style="stroke:#181818;stroke-width:1.0;"/><text fill="#000000" font-family="sans-serif" font-size="13" lengthAdjust="spacing" textLength="28" x="745" y="758.0283">uses</text></g><!--link AgendaEntry to Agenda--><g id="link_AgendaEntry_Agenda"><path codeLine="179" d="M1169,1470.18 C1169,1497.05 1169,1518.13 1169,1542.98 " fill="none" id="AgendaEntry-to-Agenda" style="stroke:#181818;stroke-width:1.0;"/><polygon fill="#181818" points="1169,1548.98,1173,1539.98,1169,1543.98,1165,1539.98,1169,1548.98" style="stroke:#181818;stroke-width:1.0;"/><text fill="#000000" font-family="sans-serif" font-size="13" lengthAdjust="spacing" textLength="51" x="1170" y="1515.0283">shown in</text></g><!--link TDLEntry to ToDoList--><g id="link_TDLEntry_ToDoList"><path codeLine="180" d="M1754.65,1035.53 C1811.44,1091.06 1874.0303,1152.275 1926.5703,1203.655 " fill="none" id="TDLEntry-to-ToDoList" style="stroke:#181818;stroke-width:1.0;"/><polygon fill="#181818" points="1930.86,1207.85,1927.2221,1198.6976,1927.2852,1204.3541,1921.6287,1204.4173,1930.86,1207.85" style="stroke:#181818;stroke-width:1.0;"/><text fill="#000000" font-family="sans-serif" font-size="13" lengthAdjust="spacing" textLength="51" x="1807" y="1090.0283">shown in</text></g><!--link TDLEntry to AgendaEntry--><g id="link_TDLEntry_AgendaEntry"><path codeLine="181" d="M1492.07,1035.53 C1457.37,1063.51 1424.2207,1090.2338 1387.0907,1120.1738 " fill="none" id="TDLEntry-to-AgendaEntry" style="stroke:#181818;stroke-width:1.0;"/><polygon fill="#181818" points="1382.42,1123.94,1391.9369,1121.4044,1386.3122,1120.8015,1386.9152,1115.1768,1382.42,1123.94" style="stroke:#181818;stroke-width:1.0;"/><text fill="#000000" font-family="sans-serif" font-size="13" lengthAdjust="spacing" textLength="54" x="1432" y="1090.0283">related to</text></g><!--link GSM to AddEntryAgendaUI--><g id="link_GSM_AddEntryAgendaUI"><path codeLine="182" d="M934.05,156.5 C953.45,156.5 969.71,156.5 992.28,156.5 " fill="none" id="GSM-to-AddEntryAgendaUI" style="stroke:#181818;stroke-width:1.0;"/><polygon fill="#181818" points="998.28,156.5,989.28,152.5,993.28,156.5,989.28,160.5,998.28,156.5" style="stroke:#181818;stroke-width:1.0;"/><text fill="#000000" font-family="sans-serif" font-size="13" lengthAdjust="spacing" textLength="28" x="952.25" y="149.5283">uses</text></g><!--link GreenSpace to AgendaEntry--><g id="link_GreenSpace_AgendaEntry"><path codeLine="183" d="M1121.69,1045.13 C1126.45,1070.36 1130.4176,1091.394 1135.4176,1117.894 " fill="none" id="GreenSpace-to-AgendaEntry" style="stroke:#181818;stroke-width:1.0;"/><polygon fill="#181818" points="1136.53,1123.79,1138.792,1114.2044,1135.603,1118.8767,1130.9307,1115.6877,1136.53,1123.79" style="stroke:#181818;stroke-width:1.0;"/><text fill="#000000" font-family="sans-serif" font-size="13" lengthAdjust="spacing" textLength="78" x="1131" y="1090.0283">associated to</text></g><!--link GreenSpace to TDLEntry--><g id="link_GreenSpace_TDLEntry"><path codeLine="184" d="M1271.19,918.5 C1307.74,918.5 1341.01,918.5 1379.76,918.5 " fill="none" id="GreenSpace-to-TDLEntry" style="stroke:#181818;stroke-width:1.0;"/><polygon fill="#181818" points="1385.76,918.5,1376.76,914.5,1380.76,918.5,1376.76,922.5,1385.76,918.5" style="stroke:#181818;stroke-width:1.0;"/><text fill="#000000" font-family="sans-serif" font-size="13" lengthAdjust="spacing" textLength="78" x="1289.5" y="911.5283">associated to</text></g><!--link Repositories to Repositories--><g id="link_Repositories_Repositories"><path codeLine="186" d="M2392.13,415.94 C2413.24,418.88 2427,424.24 2427,432 C2427,439.76 2419.1826,444.2924 2398.0726,447.2324 " fill="none" id="Repositories-to-Repositories" style="stroke:#181818;stroke-width:1.0;"/><polygon fill="#181818" points="2392.13,448.06,2401.5957,450.7803,2397.0822,447.3703,2400.4922,442.8568,2392.13,448.06" style="stroke:#181818;stroke-width:1.0;"/><text fill="#000000" font-family="sans-serif" font-size="13" lengthAdjust="spacing" textLength="49" x="2433" y="437.5283">instance</text></g><!--link ApplicationSession to ApplicationSession--><g id="link_ApplicationSession_ApplicationSession"><path codeLine="187" d="M2904.66,413.43 C2924.5,414.53 2939.5,420.72 2939.5,432 C2939.5,443.28 2930.4908,449.1378 2910.6508,450.2378 " fill="none" id="ApplicationSession-to-ApplicationSession" style="stroke:#181818;stroke-width:1.0;"/><polygon fill="#181818" points="2904.66,450.57,2913.8676,454.0656,2909.6523,450.2932,2913.4248,446.0779,2904.66,450.57" style="stroke:#181818;stroke-width:1.0;"/><text fill="#000000" font-family="sans-serif" font-size="13" lengthAdjust="spacing" textLength="49" x="2945.5" y="437.5283">instance</text></g><!--link AddEntryAgendaUI to AddEntryAgendaController--><g id="link_AddEntryAgendaUI_AddEntryAgendaController"><path codeLine="189" d="M1283.85,35.38 C1304.26,18.07 1318.5,6 1318.5,6 C1318.5,6 1598.5,6 1598.5,6 C1598.5,6 1637.1446,14.3263 1703.7046,28.6663 " fill="none" id="AddEntryAgendaUI-to-AddEntryAgendaController" style="stroke:#181818;stroke-width:1.0;stroke-dasharray:7.0,7.0;"/><polygon fill="#181818" points="1709.57,29.93,1701.6143,24.1242,1704.6822,28.8769,1699.9294,31.9448,1709.57,29.93" style="stroke:#181818;stroke-width:1.0;"/></g><!--link AddEntryAgendaController to Repositories--><g id="link_AddEntryAgendaController_Repositories"><path codeLine="191" d="M2258.44,283.04 C2249.04,313.66 2241.1728,339.2848 2233.2028,365.2148 " fill="none" id="AddEntryAgendaController-to-Repositories" style="stroke:#181818;stroke-width:1.0;"/><polygon fill="#181818" points="2231.44,370.95,2237.9077,363.5224,2232.909,366.1707,2230.2607,361.172,2231.44,370.95" style="stroke:#181818;stroke-width:1.0;"/><text fill="#000000" font-family="sans-serif" font-size="13" lengthAdjust="spacing" textLength="108" x="2247" y="337.0283">retrieves instances</text></g><!--link Repositories to GreenSpaceRepository--><g id="link_Repositories_GreenSpaceRepository"><path codeLine="193" d="M2064.16,493.03 C2003,517.69 1937.3645,544.1558 1873.9645,569.7258 " fill="none" id="Repositories-to-GreenSpaceRepository" style="stroke:#181818;stroke-width:1.0;"/><polygon fill="#181818" points="1868.4,571.97,1878.2429,572.3133,1873.0371,570.0998,1875.2506,564.894,1868.4,571.97" style="stroke:#181818;stroke-width:1.0;"/><text fill="#000000" font-family="sans-serif" font-size="13" lengthAdjust="spacing" textLength="56" x="1987" y="538.0283">accesses</text></g><!--link Repositories to ToDoListRepository--><g id="link_Repositories_ToDoListRepository"><path codeLine="194" d="M2203.21,493.03 C2199.19,517.69 2195.4757,540.4782 2191.3057,566.0482 " fill="none" id="Repositories-to-ToDoListRepository" style="stroke:#181818;stroke-width:1.0;"/><polygon fill="#181818" points="2190.34,571.97,2195.7364,563.7312,2191.1448,567.0352,2187.8408,562.4435,2190.34,571.97" style="stroke:#181818;stroke-width:1.0;"/><text fill="#000000" font-family="sans-serif" font-size="13" lengthAdjust="spacing" textLength="56" x="2200" y="538.0283">accesses</text></g><!--link Repositories to AgendaRepository--><g id="link_Repositories_AgendaRepository"><path codeLine="195" d="M2291.02,493.03 C2323.08,517.69 2355.6448,542.741 2388.8748,568.311 " fill="none" id="Repositories-to-AgendaRepository" style="stroke:#181818;stroke-width:1.0;"/><polygon fill="#181818" points="2393.63,571.97,2388.9366,563.3114,2389.6674,568.9208,2384.0579,569.6516,2393.63,571.97" style="stroke:#181818;stroke-width:1.0;"/><text fill="#000000" font-family="sans-serif" font-size="13" lengthAdjust="spacing" textLength="56" x="2350" y="538.0283">accesses</text></g><!--link AddEntryAgendaController to GreenSpaceRepository--><g id="link_AddEntryAgendaController_GreenSpaceRepository"><path codeLine="197" d="M1982.9,283.08 C1866.81,329.49 1763,371 1763,371 C1763,371 1734.5531,485.8661 1714.6931,566.0161 " fill="none" id="AddEntryAgendaController-to-GreenSpaceRepository" style="stroke:#181818;stroke-width:1.0;stroke-dasharray:7.0,7.0;"/><polygon fill="#181818" points="1713.25,571.84,1719.2972,564.0662,1714.4526,566.9868,1711.532,562.1421,1713.25,571.84" style="stroke:#181818;stroke-width:1.0;"/><text fill="#000000" font-family="sans-serif" font-size="13" lengthAdjust="spacing" textLength="131" x="1764" y="437.5283">greenSpaceRepository</text></g><!--link AddEntryAgendaController to ToDoListRepository--><g id="link_AddEntryAgendaController_ToDoListRepository"><path codeLine="198" d="M2065.83,283.08 C1980.4,329.49 1904,371 1904,371 C1904,371 1904,493 1904,493 C1904,493 1973.231,530.3784 2044.671,568.9684 " fill="none" id="AddEntryAgendaController-to-ToDoListRepository" style="stroke:#181818;stroke-width:1.0;stroke-dasharray:7.0,7.0;"/><polygon fill="#181818" points="2049.95,571.82,2043.9325,564.0232,2045.5508,569.4437,2040.1304,571.062,2049.95,571.82" style="stroke:#181818;stroke-width:1.0;"/><text fill="#000000" font-family="sans-serif" font-size="13" lengthAdjust="spacing" textLength="110" x="1905" y="437.5283">toDoListRepository</text></g><!--link AddEntryAgendaController to AgendaRepository--><g id="link_AddEntryAgendaController_AgendaRepository"><path codeLine="199" d="M2409.49,283.24 C2450.95,329.59 2488,371 2488,371 C2488,371 2488,493 2488,493 C2488,493 2487.0819,527.0822 2486.0419,565.6022 " fill="none" id="AddEntryAgendaController-to-AgendaRepository" style="stroke:#181818;stroke-width:1.0;stroke-dasharray:7.0,7.0;"/><polygon fill="#181818" points="2485.88,571.6,2490.1214,562.7112,2486.0149,566.6018,2482.1244,562.4953,2485.88,571.6" style="stroke:#181818;stroke-width:1.0;"/><text fill="#000000" font-family="sans-serif" font-size="13" lengthAdjust="spacing" textLength="104" x="2489" y="437.5283">agendaRepository</text></g><!--link ApplicationSession to UserSession--><g id="link_ApplicationSession_UserSession"><path codeLine="201" d="M2813.2,474.69 C2798.25,514.15 2778.2459,566.9593 2764.5259,603.1693 " fill="none" id="ApplicationSession-to-UserSession" style="stroke:#181818;stroke-width:1.0;"/><polygon fill="#181818" points="2762.4,608.78,2769.3294,601.7812,2764.1716,604.1044,2761.8484,598.9466,2762.4,608.78" style="stroke:#181818;stroke-width:1.0;"/><text fill="#000000" font-family="sans-serif" font-size="13" lengthAdjust="spacing" textLength="72" x="2796" y="538.0283">userSession</text><text fill="#000000" font-family="sans-serif" font-size="13" lengthAdjust="spacing" textLength="7" x="2757.0966" y="597.824">1</text></g><!--link AddEntryAgendaController to ApplicationSession--><g id="link_AddEntryAgendaController_ApplicationSession"><path codeLine="203" d="M2624.33,283.02 C2683.05,305.53 2726,322 2726,322 C2726,322 2756.5387,354.3194 2785.6487,385.1194 " fill="none" id="AddEntryAgendaController-to-ApplicationSession" style="stroke:#181818;stroke-width:1.0;stroke-dasharray:7.0,7.0;"/><polygon fill="#181818" points="2789.77,389.48,2786.4951,380.1916,2786.3356,385.8462,2780.681,385.6867,2789.77,389.48" style="stroke:#181818;stroke-width:1.0;"/></g><!--link AddEntryAgendaController to UserSession--><g id="link_AddEntryAgendaController_UserSession"><path codeLine="204" d="M2476.62,283.24 C2542.84,329.59 2602,371 2602,371 C2602,371 2689.8996,531.6666 2729.2696,603.6066 " fill="none" id="AddEntryAgendaController-to-UserSession" style="stroke:#181818;stroke-width:1.0;stroke-dasharray:7.0,7.0;"/><polygon fill="#181818" points="2732.15,608.87,2731.3383,599.0547,2729.7496,604.4839,2724.3204,602.8952,2732.15,608.87" style="stroke:#181818;stroke-width:1.0;"/></g><!--link GreenSpaceRepository to GreenSpace--><g id="link_GreenSpaceRepository_GreenSpace"><path codeLine="206" d="M1542.08,713.18 C1456.86,751.77 1368,792 1368,792 C1368,792 1329.311,809.981 1276.731,834.421 " fill="none" id="GreenSpaceRepository-to-GreenSpace" style="stroke:#181818;stroke-width:1.0;stroke-dasharray:7.0,7.0;"/><polygon fill="#181818" points="1271.29,836.95,1281.1375,836.7837,1275.8241,834.8425,1277.7654,829.5291,1271.29,836.95" style="stroke:#181818;stroke-width:1.0;"/><text fill="#000000" font-family="sans-serif" font-size="13" lengthAdjust="spacing" textLength="36" x="1476" y="758.0283">stores</text></g><!--link ToDoListRepository to ToDoList--><g id="link_ToDoListRepository_ToDoList"><path codeLine="207" d="M2162.17,713.02 C2133.22,832.55 2075.492,1070.9485 2043.722,1202.1585 " fill="none" id="ToDoListRepository-to-ToDoList" style="stroke:#181818;stroke-width:1.0;stroke-dasharray:7.0,7.0;"/><polygon fill="#181818" points="2042.31,1207.99,2048.3156,1200.1841,2043.4867,1203.1304,2040.5403,1198.3014,2042.31,1207.99" style="stroke:#181818;stroke-width:1.0;"/><text fill="#000000" font-family="sans-serif" font-size="13" lengthAdjust="spacing" textLength="36" x="2144" y="924.0283">stores</text></g><!--link AgendaRepository to Agenda--><g id="link_AgendaRepository_Agenda"><path codeLine="208" d="M2460.03,713.25 C2391.56,912.51 2200,1470 2200,1470 C2200,1470 1621.4247,1574.3746 1332.6147,1626.4846 " fill="none" id="AgendaRepository-to-Agenda" style="stroke:#181818;stroke-width:1.0;stroke-dasharray:7.0,7.0;"/><polygon fill="#181818" points="1326.71,1627.55,1336.2772,1629.8884,1331.6305,1626.6622,1334.8567,1622.0155,1326.71,1627.55" style="stroke:#181818;stroke-width:1.0;"/><text fill="#000000" font-family="sans-serif" font-size="13" lengthAdjust="spacing" textLength="36" x="2337" y="1090.0283">stores</text></g><!--SRC=[pLXBR-Cs4BxhLn1xYOhOGNir2WDfaYu2x6w0TNRljCJOR6HH9Qa4Rj7_tk6R8Yads-HG7soByytmcmSvOv-9HzeFcEC3Eh2UDNlE3WH9Ff8gI0RSFE8TsSXZHn0dZSJzhei1OezRzapx7Nh0dOWb7Us9F0u43QmxgeVgh21aNB8gqcewBCIbb9nkHqbk6zPlw5y4_LnLbHQXos7eQ8Cb1GaH0Zwgloi4htCa92mtQ4VaRG_V-uRKFraHh5sDd9DUMYMG_EDCVXE4fxP0GItV733jOkn7JaY_WR0GPA1BrEC3MQ4DKEvtTacvbYnXJl0AjMpSGlpC7i5MRQ3QrCBgQICBgw7LdJDFZBRe2NUqnP848rz0EJRq0lmUpDVHLY_0Bu50NI2pPQmZk4Vapn4AeBxR_W5LWfWJqrwYFHRxAzQ6R4H1R3hM1u4pHiNTG-wEJyBzzQURNlAZJu6aiijoWCNZDH4DfuCgbaGwyXtfcsEoseuS5y2m9sieXACDp5UH5vQze-MZgbY5T4xv-7NBn3yx3cbCS1ljNaSXtFclRyc9ZwdBY8_s9V1hyVylu37idk332gdtJFITx6dJ4R52dwYGlzh7jSMfEsCKoVQmoEKrA8CEQt2dljemHS5udpJx1SDa4NOCDDwX5415HQTMRqZ2Mm5WGrFRJ_HaFjzILN7jP8LrpwwPoeclAhYUEVMPYdHTjdO2ilnnyzdLh3LGPtXdQg7GIgtWhacYuQRWnpST7-VBpF7vppuQn5iyZ7DGz7DWGWx0-fNmHdNMxfNWTokMKELV2H2cajdhQ6aY6UJhw1Y8IXc-qqSHTnCG9plG8_n7k_0au3zy9eD2tc9FQUK-4XaUzI4edAnog9nqZQJz9b9N_CdoTUsW4PrW1yYu1r4RX5UCPByT8NJrNFXExPcSfh9VHhP6M7zcFjcJPC-Z0KNUE6tWQxuwJwo2Np_jHNaNpzypXwEhkPzFvrMqca0Se5Jz6bmIEAMy2hHAlkmKqk1gUBeOvSBUC0RnxTRc0cPsoLdN4RvA85TUee4klHgnyXD8vQx9uoPjpc6zr9zVDJUSptBIFnByaqs-deRvsCUFOjmUgDeVJq1mrH4HB_kHoehkOtyjnjuo5d4JlBRoC0qa42v1JmaclMREDPEPNQ5OPaiev2S65ujdQUiy1cPbes6Zt4C6xU-t2Nn6SZ9ZTR4fbBnSbAx4tBz5Vh-adYrcgSvwPp9PvZftj2Ttw5IXTAoZYseApe-qWSxve5HcP5RLDzF9DEAd3L_q-gI-ThezDqqLeh7v_3jdXyAlT0NGGzGIHNtQBAXnuWdBB-DXg- -MW27g1tm03NiOAte30yiz0o8TUO39vE7qNHNF9j2rCVn4XHE9M_G0R1MtCm4R3AFKw6-3wkm2GI2jPWLlI6sNRAe7lINS-G8cC47LaF70k0gdOdzZPZoeL6tADqOCneBj2sNXYXqEOw-I1lXdAlS6a5pHSpGodFRYLdDHWGS2GCdDd2aVZSu9d0peLz8G-aHK5AEEgACvgvUGvtItD-n3SammpMH7MhGzQgBA1TgNqw5ao-KwDhBomw7mOkVh2es2Y4JBBiP54Wl5dZttGA3oXsDgiInF27MghK7apTRhB6MEM9WXCoEXFMex4NBjcrMAgYOJ2m0dpojWRKQNAlzZJhFCLoETAXiXBjRpwQzcszkoXG3ct3XHvQgApEqeKd-iOl5oXb0qeAAYMbGgNCylgMHNTAGmxzx5nIp3KhCxRQZ8Ec-5fusK_4WRVh4Y80OVVlaG_-MATE7wFs1Vs3V_z_SaFlvhjog6S1fRE8km2iaeH2aEdiTbWGZHyPX_0G00]--></g></svg>