<?xml version="1.0" encoding="us-ascii" standalone="no"?><svg xmlns="http://www.w3.org/2000/svg" xmlns:xlink="http://www.w3.org/1999/xlink" contentStyleType="text/css" height="520px" preserveAspectRatio="none" style="width:860px;height:520px;background:#FFFFFF;" version="1.1" viewBox="0 0 860 520" width="860px" zoomAndPan="magnify"><defs/><g><rect fill="#FFFFFF" height="388.6188" style="stroke:#181818;stroke-width:0.8000000000000002;" width="8" x="109.6" y="72.4266"/><rect fill="#FFFFFF" height="59.9297" style="stroke:#181818;stroke-width:0.8000000000000002;" width="8" x="248" y="118.4922"/><rect fill="#FFFFFF" height="226.9578" style="stroke:#181818;stroke-width:0.8000000000000002;" width="8" x="345.2" y="203.4547"/><rect fill="#FFFFFF" height="29.0328" style="stroke:#181818;stroke-width:0.8000000000000002;" width="8" x="349.2" y="315.85"/><rect fill="none" height="352.3859" style="stroke:#000000;stroke-width:1.2000000000000002;" width="824.8" x="30.8" y="84.4266"/><rect fill="none" height="135.8281" style="stroke:#000000;stroke-width:1.2000000000000002;" width="540" x="307.6" y="250.3516"/><line style="stroke:#181818;stroke-width:0.4000000000000001;stroke-dasharray:5.0,5.0;" x1="113.2" x2="113.2" y1="45.7938" y2="475.4453"/><line style="stroke:#181818;stroke-width:0.4000000000000001;stroke-dasharray:5.0,5.0;" x1="251.6" x2="251.6" y1="45.7938" y2="475.4453"/><line style="stroke:#181818;stroke-width:0.4000000000000001;stroke-dasharray:5.0,5.0;" x1="349.2" x2="349.2" y1="45.7938" y2="475.4453"/><line style="stroke:#181818;stroke-width:0.4000000000000001;stroke-dasharray:5.0,5.0;" x1="564.4" x2="564.4" y1="150.3406" y2="475.4453"/><line style="stroke:#181818;stroke-width:0.4000000000000001;stroke-dasharray:5.0,5.0;" x1="672.4" x2="672.4" y1="235.3031" y2="475.4453"/><line style="stroke:#181818;stroke-width:0.4000000000000001;stroke-dasharray:5.0,5.0;" x1="787.6" x2="787.6" y1="351.6984" y2="475.4453"/><rect fill="#E3E3E3" height="26.0969" rx="2" ry="2" style="stroke:#181818;stroke-width:0.4000000000000001;" width="149.6" x="38.8" y="18.8969"/><text fill="#000000" font-family="sans-serif" font-size="11.2" lengthAdjust="spacing" textLength="138.4" x="44.4" y="36.5828">:AddEntryAgendaController</text><rect fill="#E3E3E3" height="26.0969" rx="2" ry="2" style="stroke:#181818;stroke-width:0.4000000000000001;" width="149.6" x="38.8" y="474.6453"/><text fill="#000000" font-family="sans-serif" font-size="11.2" lengthAdjust="spacing" textLength="138.4" x="44.4" y="492.3313">:AddEntryAgendaController</text><rect fill="#E3E3E3" height="40.9938" rx="2" ry="2" style="stroke:#181818;stroke-width:0.4000000000000001;" width="111.2" x="196.4" y="4"/><text fill="#000000" font-family="sans-serif" font-size="11.2" lengthAdjust="spacing" textLength="99.2" x="202.4" y="21.6859">toDoListRepository:</text><text fill="#000000" font-family="sans-serif" font-size="11.2" lengthAdjust="spacing" textLength="100" x="202" y="36.5828">ToDoListRepository</text><rect fill="#E3E3E3" height="40.9938" rx="2" ry="2" style="stroke:#181818;stroke-width:0.4000000000000001;" width="111.2" x="196.4" y="474.6453"/><text fill="#000000" font-family="sans-serif" font-size="11.2" lengthAdjust="spacing" textLength="99.2" x="202.4" y="492.3313">toDoListRepository:</text><text fill="#000000" font-family="sans-serif" font-size="11.2" lengthAdjust="spacing" textLength="100" x="202" y="507.2281">ToDoListRepository</text><rect fill="#E3E3E3" height="26.0969" rx="2" ry="2" style="stroke:#181818;stroke-width:0.4000000000000001;" width="67.2" x="315.6" y="18.8969"/><text fill="#000000" font-family="sans-serif" font-size="11.2" lengthAdjust="spacing" textLength="56" x="321.2" y="36.5828">ListMapper</text><rect fill="#E3E3E3" height="26.0969" rx="2" ry="2" style="stroke:#181818;stroke-width:0.4000000000000001;" width="67.2" x="315.6" y="474.6453"/><text fill="#000000" font-family="sans-serif" font-size="11.2" lengthAdjust="spacing" textLength="56" x="321.2" y="492.3313">ListMapper</text><rect fill="#E3E3E3" height="26.0969" rx="2" ry="2" style="stroke:#181818;stroke-width:0.4000000000000001;" width="88" x="520.4" y="474.6453"/><text fill="#000000" font-family="sans-serif" font-size="11.2" lengthAdjust="spacing" textLength="76.8" x="526" y="492.3313">toDoListEntries</text><rect fill="#E3E3E3" height="26.0969" rx="2" ry="2" style="stroke:#181818;stroke-width:0.4000000000000001;" width="112" x="616.4" y="474.6453"/><text fill="#000000" font-family="sans-serif" font-size="11.2" lengthAdjust="spacing" textLength="100.8" x="622" y="492.3313">toDoListEntriesDTO</text><rect fill="#E3E3E3" height="26.0969" rx="2" ry="2" style="stroke:#181818;stroke-width:0.4000000000000001;" width="103.2" x="736.4" y="474.6453"/><text fill="#000000" font-family="sans-serif" font-size="11.2" lengthAdjust="spacing" textLength="92" x="742" y="492.3313">toDoListEntryDTO</text><rect fill="#FFFFFF" height="388.6188" style="stroke:#181818;stroke-width:0.8000000000000002;" width="8" x="109.6" y="72.4266"/><rect fill="#FFFFFF" height="59.9297" style="stroke:#181818;stroke-width:0.8000000000000002;" width="8" x="248" y="118.4922"/><rect fill="#FFFFFF" height="226.9578" style="stroke:#181818;stroke-width:0.8000000000000002;" width="8" x="345.2" y="203.4547"/><rect fill="#FFFFFF" height="29.0328" style="stroke:#181818;stroke-width:0.8000000000000002;" width="8" x="349.2" y="315.85"/><polygon fill="#181818" points="100,69.2266,108,72.4266,100,75.6266,103.2,72.4266" style="stroke:#181818;stroke-width:0.8000000000000002;"/><line style="stroke:#181818;stroke-width:0.8000000000000002;" x1="0" x2="104.8" y1="72.4266" y2="72.4266"/><text fill="#000000" font-family="sans-serif" font-size="10.4" lengthAdjust="spacing" textLength="94.4" x="5.6" y="68.2164">getToDoListEntries()</text><path d="M30.8,84.4266 L175.6,84.4266 L175.6,91.8594 L167.6,99.8594 L30.8,99.8594 L30.8,84.4266 " fill="#EEEEEE" style="stroke:#000000;stroke-width:1.2000000000000002;"/><rect fill="none" height="352.3859" style="stroke:#000000;stroke-width:1.2000000000000002;" width="824.8" x="30.8" y="84.4266"/><text fill="#000000" font-family="sans-serif" font-size="10.4" font-weight="bold" lengthAdjust="spacing" textLength="108.8" x="42.8" y="96.4492">Get To-Do List Entries</text><polygon fill="#181818" points="238.4,115.2922,246.4,118.4922,238.4,121.6922,241.6,118.4922" style="stroke:#181818;stroke-width:0.8000000000000002;"/><line style="stroke:#181818;stroke-width:0.8000000000000002;" x1="117.6" x2="243.2" y1="118.4922" y2="118.4922"/><text fill="#000000" font-family="sans-serif" font-size="10.4" lengthAdjust="spacing" textLength="94.4" x="123.2" y="114.282">getToDoListEntries()</text><polygon fill="#181818" points="510.8,140.325,518.8,143.525,510.8,146.725,514,143.525" style="stroke:#181818;stroke-width:0.8000000000000002;"/><line style="stroke:#181818;stroke-width:0.8000000000000002;" x1="256" x2="515.6" y1="143.525" y2="143.525"/><text fill="#000000" font-family="sans-serif" font-size="10.4" lengthAdjust="spacing" textLength="35.2" x="261.6" y="139.3148">create()</text><rect fill="#E3E3E3" height="26.0969" rx="2" ry="2" style="stroke:#181818;stroke-width:0.4000000000000001;" width="88" x="520.4" y="124.8922"/><text fill="#000000" font-family="sans-serif" font-size="11.2" lengthAdjust="spacing" textLength="76.8" x="526" y="142.5781">toDoListEntries</text><polygon fill="#181818" points="126.4,175.2219,118.4,178.4219,126.4,181.6219,123.2,178.4219" style="stroke:#181818;stroke-width:0.8000000000000002;"/><line style="stroke:#181818;stroke-width:0.8000000000000002;stroke-dasharray:2.0,2.0;" x1="121.6" x2="251.2" y1="178.4219" y2="178.4219"/><text fill="#000000" font-family="sans-serif" font-size="10.4" lengthAdjust="spacing" textLength="71.2" x="131.2" y="174.2117">toDoListEntries</text><polygon fill="#181818" points="335.6,200.2547,343.6,203.4547,335.6,206.6547,338.8,203.4547" style="stroke:#181818;stroke-width:0.8000000000000002;"/><line style="stroke:#181818;stroke-width:0.8000000000000002;" x1="117.6" x2="340.4" y1="203.4547" y2="203.4547"/><text fill="#000000" font-family="sans-serif" font-size="10.4" lengthAdjust="spacing" textLength="107.2" x="123.2" y="199.2445">toDTO(toDoListEntries)</text><polygon fill="#181818" points="606.8,225.2875,614.8,228.4875,606.8,231.6875,610,228.4875" style="stroke:#181818;stroke-width:0.8000000000000002;"/><line style="stroke:#181818;stroke-width:0.8000000000000002;" x1="353.2" x2="611.6" y1="228.4875" y2="228.4875"/><text fill="#000000" font-family="sans-serif" font-size="10.4" lengthAdjust="spacing" textLength="35.2" x="358.8" y="224.2773">create()</text><rect fill="#E3E3E3" height="26.0969" rx="2" ry="2" style="stroke:#181818;stroke-width:0.4000000000000001;" width="112" x="616.4" y="209.8547"/><text fill="#000000" font-family="sans-serif" font-size="11.2" lengthAdjust="spacing" textLength="100.8" x="622" y="227.5406">toDoListEntriesDTO</text><path d="M307.6,250.3516 L366,250.3516 L366,257.7844 L358,265.7844 L307.6,265.7844 L307.6,250.3516 " fill="#EEEEEE" style="stroke:#000000;stroke-width:1.2000000000000002;"/><rect fill="none" height="135.8281" style="stroke:#000000;stroke-width:1.2000000000000002;" width="540" x="307.6" y="250.3516"/><text fill="#000000" font-family="sans-serif" font-size="10.4" font-weight="bold" lengthAdjust="spacing" textLength="22.4" x="319.6" y="262.3742">loop</text><text fill="#000000" font-family="sans-serif" font-size="8.8" font-weight="bold" lengthAdjust="spacing" textLength="148.8" x="378" y="261.4477">[for each entry in toDoListEntries]</text><polygon fill="#181818" points="554.8,281.2172,562.8,284.4172,554.8,287.6172,558,284.4172" style="stroke:#181818;stroke-width:0.8000000000000002;"/><line style="stroke:#181818;stroke-width:0.8000000000000002;" x1="353.2" x2="559.6" y1="284.4172" y2="284.4172"/><text fill="#000000" font-family="sans-serif" font-size="10.4" lengthAdjust="spacing" textLength="23.2" x="358.8" y="280.207">get(i)</text><line style="stroke:#181818;stroke-width:0.8000000000000002;" x1="353.2" x2="390.8" y1="305.45" y2="305.45"/><line style="stroke:#181818;stroke-width:0.8000000000000002;" x1="390.8" x2="390.8" y1="305.45" y2="315.85"/><line style="stroke:#181818;stroke-width:0.8000000000000002;" x1="358" x2="390.8" y1="315.85" y2="315.85"/><polygon fill="#181818" points="366,312.65,358,315.85,366,319.05,362.8,315.85" style="stroke:#181818;stroke-width:0.8000000000000002;"/><text fill="#000000" font-family="sans-serif" font-size="10.4" lengthAdjust="spacing" textLength="196" x="362.8" y="301.2398">toDoListEntryDTO = toDTO(toDoListEntry)</text><polygon fill="#181818" points="726.8,341.6828,734.8,344.8828,726.8,348.0828,730,344.8828" style="stroke:#181818;stroke-width:0.8000000000000002;"/><line style="stroke:#181818;stroke-width:0.8000000000000002;stroke-dasharray:2.0,2.0;" x1="353.2" x2="731.6" y1="344.8828" y2="344.8828"/><text fill="#000000" font-family="sans-serif" font-size="10.4" lengthAdjust="spacing" textLength="98.4" x="358.8" y="340.6727">create(toDoListEntry)</text><rect fill="#E3E3E3" height="26.0969" rx="2" ry="2" style="stroke:#181818;stroke-width:0.4000000000000001;" width="103.2" x="736.4" y="326.25"/><text fill="#000000" font-family="sans-serif" font-size="11.2" lengthAdjust="spacing" textLength="92" x="742" y="343.9359">toDoListEntryDTO</text><polygon fill="#181818" points="662.8,376.5797,670.8,379.7797,662.8,382.9797,666,379.7797" style="stroke:#181818;stroke-width:0.8000000000000002;"/><line style="stroke:#181818;stroke-width:0.8000000000000002;" x1="353.2" x2="667.6" y1="379.7797" y2="379.7797"/><text fill="#000000" font-family="sans-serif" font-size="10.4" lengthAdjust="spacing" textLength="107.2" x="358.8" y="375.5695">add(toDoListEntryDTO)</text><polygon fill="#181818" points="126.4,427.2125,118.4,430.4125,126.4,433.6125,123.2,430.4125" style="stroke:#181818;stroke-width:0.8000000000000002;"/><line style="stroke:#181818;stroke-width:0.8000000000000002;stroke-dasharray:2.0,2.0;" x1="121.6" x2="348.4" y1="430.4125" y2="430.4125"/><text fill="#000000" font-family="sans-serif" font-size="10.4" lengthAdjust="spacing" textLength="92" x="131.2" y="426.2023">toDoListEntriesDTO</text><polygon fill="#181818" points="8.8,457.8453,0.8,461.0453,8.8,464.2453,5.6,461.0453" style="stroke:#181818;stroke-width:0.8000000000000002;"/><line style="stroke:#181818;stroke-width:0.8000000000000002;stroke-dasharray:2.0,2.0;" x1="4" x2="112.8" y1="461.0453" y2="461.0453"/><text fill="#000000" font-family="sans-serif" font-size="10.4" lengthAdjust="spacing" textLength="92" x="13.6" y="456.8352">toDoListEntriesDTO</text><!--SRC=[fLJ1ReCm3Btp5TPEj18_WBP9LQbs0LLgEUuIWKkZqZWAwIQaVlmI5b6Wm93cKqYUd_rU7AeB5v8fTeKh2ShEYgu8MjtGgzeJoR8BA_2ewn91OQQPACeke3gpdBwvAE34oWez4-P0yunB9ZIyX9iytmcjwas18cTRCcigIrGlm2hOfeUuZzSKKSmhVK195TUawl1Jf4-RJNOQ7Vh95fCmAHrxd8npstuuLeuZtXrdOL6wVo3DnpIuxa8jqWCNmNiZ5K8eKATzVd_LmXx1Cis_cCPVX-nEeUWcuGCrf1H419O178Lr7QQYAMmQC6ujhpzimrezKSFoDlJ6dlKwX4oXoJ2iCt3dHmW3hyTJSkptCIipJXhMTEyFk2TajjHcMiOHSTBgCxGB99P44awamFHz1hIJ0LmyQVspMdDRFb_D8ftUtX32suW5zRyCS3tr3LX2txcyXGw7mFBS7sgQe3S_bSdflz_lC-_2gNBlyldHJsSE97bj7tRn6WGpd9tKvcLxFm00]--></g></svg>