<?xml version="1.0" encoding="us-ascii" standalone="no"?><svg xmlns="http://www.w3.org/2000/svg" xmlns:xlink="http://www.w3.org/1999/xlink" contentStyleType="text/css" height="1650px" preserveAspectRatio="none" style="width:1989px;height:1650px;background:#FFFFFF;" version="1.1" viewBox="0 0 1989 1650" width="1989px" zoomAndPan="magnify"><defs/><g><rect fill="#FFFFFF" height="1456.2227" style="stroke:#181818;stroke-width:1.0;" width="10" x="78.5" y="93.6211"/><rect fill="#FFFFFF" height="712.4023" style="stroke:#181818;stroke-width:1.0;" width="10" x="480.5" y="116.9121"/><rect fill="#FFFFFF" height="31.291" style="stroke:#181818;stroke-width:1.0;" width="10" x="480.5" y="860.6055"/><rect fill="#FFFFFF" height="31.291" style="stroke:#181818;stroke-width:1.0;" width="10" x="480.5" y="923.1875"/><rect fill="#FFFFFF" height="564.0742" style="stroke:#181818;stroke-width:1.0;" width="10" x="480.5" y="985.7695"/><rect fill="#FFFFFF" height="639.8203" style="stroke:#181818;stroke-width:1.0;" width="10" x="771.5" y="158.2031"/><rect fill="#FFFFFF" height="90.543" style="stroke:#181818;stroke-width:1.0;" width="10" x="776.5" y="262.4063"/><rect fill="#FFFFFF" height="541.7832" style="stroke:#181818;stroke-width:1.0;" width="10" x="771.5" y="1017.0605"/><rect fill="#FFFFFF" height="90.543" style="stroke:#181818;stroke-width:1.0;" width="10" x="776.5" y="1081.3516"/><rect fill="#FFFFFF" height="31.291" style="stroke:#181818;stroke-width:1.0;" width="10" x="946.5" y="191.8242"/><rect fill="#FFFFFF" height="31.291" style="stroke:#181818;stroke-width:1.0;" width="10" x="1053.5" y="391.2402"/><rect fill="#FFFFFF" height="31.291" style="stroke:#181818;stroke-width:1.0;" width="10" x="1053.5" y="453.8223"/><rect fill="#FFFFFF" height="31.291" style="stroke:#181818;stroke-width:1.0;" width="10" x="1053.5" y="516.4043"/><rect fill="#FFFFFF" height="31.291" style="stroke:#181818;stroke-width:1.0;" width="10" x="1359.5" y="610.2773"/><rect fill="#FFFFFF" height="31.291" style="stroke:#181818;stroke-width:1.0;" width="10" x="1359.5" y="735.4414"/><rect fill="#FFFFFF" height="31.291" style="stroke:#181818;stroke-width:1.0;" width="10" x="1508.5" y="1235.1855"/><rect fill="#FFFFFF" height="261.0762" style="stroke:#181818;stroke-width:1.0;" width="10" x="1698.5" y="1297.7676"/><rect fill="#FFFFFF" height="42.291" style="stroke:#181818;stroke-width:1.0;" width="10" x="1703.5" y="1380.6797"/><rect fill="#FFFFFF" height="42.291" style="stroke:#181818;stroke-width:1.0;" width="10" x="1703.5" y="1469.2617"/><line style="stroke:#181818;stroke-width:0.5;stroke-dasharray:5.0,5.0;" x1="83" x2="83" y1="83.6211" y2="1567.8438"/><line style="stroke:#181818;stroke-width:0.5;stroke-dasharray:5.0,5.0;" x1="485" x2="485" y1="83.6211" y2="1567.8438"/><line style="stroke:#181818;stroke-width:0.5;stroke-dasharray:5.0,5.0;" x1="776" x2="776" y1="156.7227" y2="1567.8438"/><line style="stroke:#181818;stroke-width:0.5;stroke-dasharray:5.0,5.0;" x1="951" x2="951" y1="83.6211" y2="1567.8438"/><line style="stroke:#181818;stroke-width:0.5;stroke-dasharray:5.0,5.0;" x1="1058" x2="1058" y1="83.6211" y2="1567.8438"/><line style="stroke:#181818;stroke-width:0.5;stroke-dasharray:5.0,5.0;" x1="1200" x2="1200" y1="83.6211" y2="1567.8438"/><line style="stroke:#181818;stroke-width:0.5;stroke-dasharray:5.0,5.0;" x1="1364" x2="1364" y1="83.6211" y2="1567.8438"/><line style="stroke:#181818;stroke-width:0.5;stroke-dasharray:5.0,5.0;" x1="1513" x2="1513" y1="83.6211" y2="1567.8438"/><line style="stroke:#181818;stroke-width:0.5;stroke-dasharray:5.0,5.0;" x1="1626" x2="1626" y1="83.6211" y2="1567.8438"/><line style="stroke:#181818;stroke-width:0.5;stroke-dasharray:5.0,5.0;" x1="1703" x2="1703" y1="83.6211" y2="1567.8438"/><line style="stroke:#181818;stroke-width:0.5;stroke-dasharray:5.0,5.0;" x1="1935.5" x2="1935.5" y1="1337.5781" y2="1567.8438"/><text fill="#000000" font-family="sans-serif" font-size="14" lengthAdjust="spacing" textLength="151" x="5" y="80.1074">Green Spaces Manager</text><ellipse cx="83.5" cy="13.5" fill="#E3E3E3" rx="8" ry="8" style="stroke:#181818;stroke-width:0.5;"/><path d="M83.5,21.5 L83.5,48.5 M70.5,29.5 L96.5,29.5 M83.5,48.5 L70.5,63.5 M83.5,48.5 L96.5,63.5 " fill="none" style="stroke:#181818;stroke-width:0.5;"/><text fill="#000000" font-family="sans-serif" font-size="14" lengthAdjust="spacing" textLength="151" x="5" y="1581.9512">Green Spaces Manager</text><ellipse cx="83.5" cy="1593.9648" fill="#E3E3E3" rx="8" ry="8" style="stroke:#181818;stroke-width:0.5;"/><path d="M83.5,1601.9648 L83.5,1628.9648 M70.5,1609.9648 L96.5,1609.9648 M83.5,1628.9648 L70.5,1643.9648 M83.5,1628.9648 L96.5,1643.9648 " fill="none" style="stroke:#181818;stroke-width:0.5;"/><rect fill="#E3E3E3" height="32.6211" rx="2.5" ry="2.5" style="stroke:#181818;stroke-width:0.5;" width="137" x="417" y="50"/><text fill="#000000" font-family="sans-serif" font-size="14" lengthAdjust="spacing" textLength="123" x="424" y="72.1074">:AddEntryAgendaUI</text><rect fill="#E3E3E3" height="32.6211" rx="2.5" ry="2.5" style="stroke:#181818;stroke-width:0.5;" width="137" x="417" y="1566.8438"/><text fill="#000000" font-family="sans-serif" font-size="14" lengthAdjust="spacing" textLength="123" x="424" y="1588.9512">:AddEntryAgendaUI</text><rect fill="#E3E3E3" height="32.6211" rx="2.5" ry="2.5" style="stroke:#181818;stroke-width:0.5;" width="187" x="683" y="1566.8438"/><text fill="#000000" font-family="sans-serif" font-size="14" lengthAdjust="spacing" textLength="173" x="690" y="1588.9512">:AddEntryAgendaController</text><rect fill="#E3E3E3" height="32.6211" rx="2.5" ry="2.5" style="stroke:#181818;stroke-width:0.5;" width="97" x="903" y="50"/><text fill="#000000" font-family="sans-serif" font-size="14" lengthAdjust="spacing" textLength="83" x="910" y="72.1074">:Repositories</text><rect fill="#E3E3E3" height="32.6211" rx="2.5" ry="2.5" style="stroke:#181818;stroke-width:0.5;" width="97" x="903" y="1566.8438"/><text fill="#000000" font-family="sans-serif" font-size="14" lengthAdjust="spacing" textLength="83" x="910" y="1588.9512">:Repositories</text><rect fill="#E3E3E3" height="51.2422" rx="2.5" ry="2.5" style="stroke:#181818;stroke-width:0.5;" width="97" x="1010" y="31.3789"/><text fill="#000000" font-family="sans-serif" font-size="14" lengthAdjust="spacing" textLength="74" x="1021.5" y="53.4863">repositories</text><text fill="#000000" font-family="sans-serif" font-size="14" lengthAdjust="spacing" textLength="83" x="1017" y="72.1074">:Repositories</text><rect fill="#E3E3E3" height="51.2422" rx="2.5" ry="2.5" style="stroke:#181818;stroke-width:0.5;" width="97" x="1010" y="1566.8438"/><text fill="#000000" font-family="sans-serif" font-size="14" lengthAdjust="spacing" textLength="74" x="1021.5" y="1588.9512">repositories</text><text fill="#000000" font-family="sans-serif" font-size="14" lengthAdjust="spacing" textLength="83" x="1017" y="1607.5723">:Repositories</text><rect fill="#E3E3E3" height="51.2422" rx="2.5" ry="2.5" style="stroke:#181818;stroke-width:0.5;" width="166" x="1117" y="31.3789"/><text fill="#000000" font-family="sans-serif" font-size="14" lengthAdjust="spacing" textLength="145" x="1127.5" y="53.4863">greenSpaceRepository</text><text fill="#000000" font-family="sans-serif" font-size="14" lengthAdjust="spacing" textLength="152" x="1124" y="72.1074">:GreenSpaceRepository</text><rect fill="#E3E3E3" height="51.2422" rx="2.5" ry="2.5" style="stroke:#181818;stroke-width:0.5;" width="166" x="1117" y="1566.8438"/><text fill="#000000" font-family="sans-serif" font-size="14" lengthAdjust="spacing" textLength="145" x="1127.5" y="1588.9512">greenSpaceRepository</text><text fill="#000000" font-family="sans-serif" font-size="14" lengthAdjust="spacing" textLength="152" x="1124" y="1607.5723">:GreenSpaceRepository</text><rect fill="#E3E3E3" height="51.2422" rx="2.5" ry="2.5" style="stroke:#181818;stroke-width:0.5;" width="143" x="1293" y="31.3789"/><text fill="#000000" font-family="sans-serif" font-size="14" lengthAdjust="spacing" textLength="120" x="1304.5" y="53.4863">toDoListRepository</text><text fill="#000000" font-family="sans-serif" font-size="14" lengthAdjust="spacing" textLength="129" x="1300" y="72.1074">:ToDoListRepository</text><rect fill="#E3E3E3" height="51.2422" rx="2.5" ry="2.5" style="stroke:#181818;stroke-width:0.5;" width="143" x="1293" y="1566.8438"/><text fill="#000000" font-family="sans-serif" font-size="14" lengthAdjust="spacing" textLength="120" x="1304.5" y="1588.9512">toDoListRepository</text><text fill="#000000" font-family="sans-serif" font-size="14" lengthAdjust="spacing" textLength="129" x="1300" y="1607.5723">:ToDoListRepository</text><rect fill="#E3E3E3" height="51.2422" rx="2.5" ry="2.5" style="stroke:#181818;stroke-width:0.5;" width="135" x="1446" y="31.3789"/><text fill="#000000" font-family="sans-serif" font-size="14" lengthAdjust="spacing" textLength="116" x="1455.5" y="53.4863">agendaRepository</text><text fill="#000000" font-family="sans-serif" font-size="14" lengthAdjust="spacing" textLength="121" x="1453" y="72.1074">:AgendaRepository</text><rect fill="#E3E3E3" height="51.2422" rx="2.5" ry="2.5" style="stroke:#181818;stroke-width:0.5;" width="135" x="1446" y="1566.8438"/><text fill="#000000" font-family="sans-serif" font-size="14" lengthAdjust="spacing" textLength="116" x="1455.5" y="1588.9512">agendaRepository</text><text fill="#000000" font-family="sans-serif" font-size="14" lengthAdjust="spacing" textLength="121" x="1453" y="1607.5723">:AgendaRepository</text><rect fill="#E3E3E3" height="32.6211" rx="2.5" ry="2.5" style="stroke:#181818;stroke-width:0.5;" width="71" x="1591" y="50"/><text fill="#000000" font-family="sans-serif" font-size="14" lengthAdjust="spacing" textLength="57" x="1598" y="72.1074">ToDoList</text><rect fill="#E3E3E3" height="32.6211" rx="2.5" ry="2.5" style="stroke:#181818;stroke-width:0.5;" width="71" x="1591" y="1566.8438"/><text fill="#000000" font-family="sans-serif" font-size="14" lengthAdjust="spacing" textLength="57" x="1598" y="1588.9512">ToDoList</text><rect fill="#E3E3E3" height="32.6211" rx="2.5" ry="2.5" style="stroke:#181818;stroke-width:0.5;" width="63" x="1672" y="50"/><text fill="#000000" font-family="sans-serif" font-size="14" lengthAdjust="spacing" textLength="49" x="1679" y="72.1074">Agenda</text><rect fill="#E3E3E3" height="32.6211" rx="2.5" ry="2.5" style="stroke:#181818;stroke-width:0.5;" width="63" x="1672" y="1566.8438"/><text fill="#000000" font-family="sans-serif" font-size="14" lengthAdjust="spacing" textLength="49" x="1679" y="1588.9512">Agenda</text><rect fill="#E3E3E3" height="32.6211" rx="2.5" ry="2.5" style="stroke:#181818;stroke-width:0.5;" width="96" x="1887.5" y="1566.8438"/><text fill="#000000" font-family="sans-serif" font-size="14" lengthAdjust="spacing" textLength="82" x="1894.5" y="1588.9512">AgendaEntry</text><rect fill="#FFFFFF" height="1456.2227" style="stroke:#181818;stroke-width:1.0;" width="10" x="78.5" y="93.6211"/><rect fill="#FFFFFF" height="712.4023" style="stroke:#181818;stroke-width:1.0;" width="10" x="480.5" y="116.9121"/><rect fill="#FFFFFF" height="31.291" style="stroke:#181818;stroke-width:1.0;" width="10" x="480.5" y="860.6055"/><rect fill="#FFFFFF" height="31.291" style="stroke:#181818;stroke-width:1.0;" width="10" x="480.5" y="923.1875"/><rect fill="#FFFFFF" height="564.0742" style="stroke:#181818;stroke-width:1.0;" width="10" x="480.5" y="985.7695"/><rect fill="#FFFFFF" height="639.8203" style="stroke:#181818;stroke-width:1.0;" width="10" x="771.5" y="158.2031"/><rect fill="#FFFFFF" height="90.543" style="stroke:#181818;stroke-width:1.0;" width="10" x="776.5" y="262.4063"/><rect fill="#FFFFFF" height="541.7832" style="stroke:#181818;stroke-width:1.0;" width="10" x="771.5" y="1017.0605"/><rect fill="#FFFFFF" height="90.543" style="stroke:#181818;stroke-width:1.0;" width="10" x="776.5" y="1081.3516"/><rect fill="#FFFFFF" height="31.291" style="stroke:#181818;stroke-width:1.0;" width="10" x="946.5" y="191.8242"/><rect fill="#FFFFFF" height="31.291" style="stroke:#181818;stroke-width:1.0;" width="10" x="1053.5" y="391.2402"/><rect fill="#FFFFFF" height="31.291" style="stroke:#181818;stroke-width:1.0;" width="10" x="1053.5" y="453.8223"/><rect fill="#FFFFFF" height="31.291" style="stroke:#181818;stroke-width:1.0;" width="10" x="1053.5" y="516.4043"/><rect fill="#FFFFFF" height="31.291" style="stroke:#181818;stroke-width:1.0;" width="10" x="1359.5" y="610.2773"/><rect fill="#FFFFFF" height="31.291" style="stroke:#181818;stroke-width:1.0;" width="10" x="1359.5" y="735.4414"/><rect fill="#FFFFFF" height="31.291" style="stroke:#181818;stroke-width:1.0;" width="10" x="1508.5" y="1235.1855"/><rect fill="#FFFFFF" height="261.0762" style="stroke:#181818;stroke-width:1.0;" width="10" x="1698.5" y="1297.7676"/><rect fill="#FFFFFF" height="42.291" style="stroke:#181818;stroke-width:1.0;" width="10" x="1703.5" y="1380.6797"/><rect fill="#FFFFFF" height="42.291" style="stroke:#181818;stroke-width:1.0;" width="10" x="1703.5" y="1469.2617"/><polygon fill="#181818" points="468.5,112.9121,478.5,116.9121,468.5,120.9121,472.5,116.9121" style="stroke:#181818;stroke-width:1.0;"/><line style="stroke:#181818;stroke-width:1.0;" x1="88.5" x2="474.5" y1="116.9121" y2="116.9121"/><text fill="#000000" font-family="sans-serif" font-size="13" font-weight="bold" lengthAdjust="spacing" textLength="7" x="95.5" y="111.6494">1</text><text fill="#000000" font-family="sans-serif" font-size="13" lengthAdjust="spacing" textLength="204" x="106.5" y="111.6494">asks to add an entry to the Agenda</text><polygon fill="#181818" points="671,144.2031,681,148.2031,671,152.2031,675,148.2031" style="stroke:#181818;stroke-width:1.0;"/><line style="stroke:#181818;stroke-width:1.0;" x1="490.5" x2="677" y1="148.2031" y2="148.2031"/><text fill="#000000" font-family="sans-serif" font-size="13" font-weight="bold" lengthAdjust="spacing" textLength="7" x="497.5" y="142.9404">2</text><text fill="#000000" font-family="sans-serif" font-size="13" lengthAdjust="spacing" textLength="36" x="508.5" y="142.9404">create</text><rect fill="#E3E3E3" height="32.6211" rx="2.5" ry="2.5" style="stroke:#181818;stroke-width:0.5;" width="187" x="683" y="124.9121"/><text fill="#000000" font-family="sans-serif" font-size="14" lengthAdjust="spacing" textLength="173" x="690" y="147.0195">:AddEntryAgendaController</text><polygon fill="#181818" points="934.5,187.8242,944.5,191.8242,934.5,195.8242,938.5,191.8242" style="stroke:#181818;stroke-width:1.0;"/><line style="stroke:#181818;stroke-width:1.0;" x1="781.5" x2="940.5" y1="191.8242" y2="191.8242"/><text fill="#000000" font-family="sans-serif" font-size="13" font-weight="bold" lengthAdjust="spacing" textLength="7" x="788.5" y="186.5615">3</text><text fill="#000000" font-family="sans-serif" font-size="13" lengthAdjust="spacing" textLength="75" x="799.5" y="186.5615">getInstance()</text><polygon fill="#181818" points="792.5,219.1152,782.5,223.1152,792.5,227.1152,788.5,223.1152" style="stroke:#181818;stroke-width:1.0;"/><line style="stroke:#181818;stroke-width:1.0;stroke-dasharray:2.0,2.0;" x1="786.5" x2="950.5" y1="223.1152" y2="223.1152"/><text fill="#000000" font-family="sans-serif" font-size="13" font-weight="bold" lengthAdjust="spacing" textLength="7" x="798.5" y="217.8525">4</text><text fill="#000000" font-family="sans-serif" font-size="13" lengthAdjust="spacing" textLength="67" x="809.5" y="217.8525">repositories</text><line style="stroke:#181818;stroke-width:1.0;" x1="781.5" x2="828.5" y1="249.4063" y2="249.4063"/><line style="stroke:#181818;stroke-width:1.0;" x1="828.5" x2="828.5" y1="249.4063" y2="262.4063"/><line style="stroke:#181818;stroke-width:1.0;" x1="787.5" x2="828.5" y1="262.4063" y2="262.4063"/><polygon fill="#181818" points="797.5,258.4063,787.5,262.4063,797.5,266.4063,793.5,262.4063" style="stroke:#181818;stroke-width:1.0;"/><text fill="#000000" font-family="sans-serif" font-size="13" font-weight="bold" lengthAdjust="spacing" textLength="7" x="793.5" y="244.1436">5</text><text fill="#000000" font-family="sans-serif" font-size="13" lengthAdjust="spacing" textLength="133" x="804.5" y="244.1436">getGSMFromSession()</text><rect fill="none" height="43.252" style="stroke:#000000;stroke-width:1.5;" width="193" x="680" y="275.4063"/><path d="M680,275.4063 L742,275.4063 L742,284.4063 L732,294.4063 L680,294.4063 L680,275.4063 " fill="#EEEEEE" style="stroke:#000000;stroke-width:2.0;"/><text fill="#000000" font-family="sans-serif" font-size="13" font-weight="bold" lengthAdjust="spacing" textLength="17" x="693" y="291.4346">ref</text><text fill="#000000" font-family="sans-serif" font-size="12" lengthAdjust="spacing" textLength="48" x="752.5" y="311.3555">Get GSM</text><line style="stroke:#181818;stroke-width:1.0;stroke-dasharray:2.0,2.0;" x1="786.5" x2="828.5" y1="351.9492" y2="351.9492"/><line style="stroke:#181818;stroke-width:1.0;stroke-dasharray:2.0,2.0;" x1="828.5" x2="828.5" y1="351.9492" y2="364.9492"/><line style="stroke:#181818;stroke-width:1.0;stroke-dasharray:2.0,2.0;" x1="781.5" x2="828.5" y1="364.9492" y2="364.9492"/><polygon fill="#181818" points="791.5,360.9492,781.5,364.9492,791.5,368.9492,787.5,364.9492" style="stroke:#181818;stroke-width:1.0;"/><text fill="#000000" font-family="sans-serif" font-size="13" font-weight="bold" lengthAdjust="spacing" textLength="7" x="793.5" y="346.6865">6</text><text fill="#000000" font-family="sans-serif" font-size="13" lengthAdjust="spacing" textLength="25" x="804.5" y="346.6865">gsm</text><polygon fill="#181818" points="1041.5,387.2402,1051.5,391.2402,1041.5,395.2402,1045.5,391.2402" style="stroke:#181818;stroke-width:1.0;"/><line style="stroke:#181818;stroke-width:1.0;" x1="781.5" x2="1047.5" y1="391.2402" y2="391.2402"/><text fill="#000000" font-family="sans-serif" font-size="13" font-weight="bold" lengthAdjust="spacing" textLength="7" x="788.5" y="385.9775">7</text><text fill="#000000" font-family="sans-serif" font-size="13" lengthAdjust="spacing" textLength="160" x="799.5" y="385.9775">getGreenSpaceRepository()</text><polygon fill="#181818" points="792.5,418.5313,782.5,422.5313,792.5,426.5313,788.5,422.5313" style="stroke:#181818;stroke-width:1.0;"/><line style="stroke:#181818;stroke-width:1.0;" x1="786.5" x2="1057.5" y1="422.5313" y2="422.5313"/><text fill="#000000" font-family="sans-serif" font-size="13" font-weight="bold" lengthAdjust="spacing" textLength="7" x="798.5" y="417.2686">8</text><text fill="#000000" font-family="sans-serif" font-size="13" lengthAdjust="spacing" textLength="134" x="809.5" y="417.2686">GreenSpaceRepository</text><polygon fill="#181818" points="1041.5,449.8223,1051.5,453.8223,1041.5,457.8223,1045.5,453.8223" style="stroke:#181818;stroke-width:1.0;"/><line style="stroke:#181818;stroke-width:1.0;" x1="781.5" x2="1047.5" y1="453.8223" y2="453.8223"/><text fill="#000000" font-family="sans-serif" font-size="13" font-weight="bold" lengthAdjust="spacing" textLength="7" x="788.5" y="448.5596">9</text><text fill="#000000" font-family="sans-serif" font-size="13" lengthAdjust="spacing" textLength="139" x="799.5" y="448.5596">getToDoListRepository()</text><polygon fill="#181818" points="792.5,481.1133,782.5,485.1133,792.5,489.1133,788.5,485.1133" style="stroke:#181818;stroke-width:1.0;"/><line style="stroke:#181818;stroke-width:1.0;" x1="786.5" x2="1057.5" y1="485.1133" y2="485.1133"/><text fill="#000000" font-family="sans-serif" font-size="13" font-weight="bold" lengthAdjust="spacing" textLength="14" x="798.5" y="479.8506">10</text><text fill="#000000" font-family="sans-serif" font-size="13" lengthAdjust="spacing" textLength="113" x="816.5" y="479.8506">ToDoListRepository</text><polygon fill="#181818" points="1041.5,512.4043,1051.5,516.4043,1041.5,520.4043,1045.5,516.4043" style="stroke:#181818;stroke-width:1.0;"/><line style="stroke:#181818;stroke-width:1.0;" x1="781.5" x2="1047.5" y1="516.4043" y2="516.4043"/><text fill="#000000" font-family="sans-serif" font-size="13" font-weight="bold" lengthAdjust="spacing" textLength="14" x="788.5" y="511.1416">11</text><text fill="#000000" font-family="sans-serif" font-size="13" lengthAdjust="spacing" textLength="132" x="806.5" y="511.1416">getAgendaRepository()</text><polygon fill="#181818" points="792.5,543.6953,782.5,547.6953,792.5,551.6953,788.5,547.6953" style="stroke:#181818;stroke-width:1.0;"/><line style="stroke:#181818;stroke-width:1.0;" x1="786.5" x2="1057.5" y1="547.6953" y2="547.6953"/><text fill="#000000" font-family="sans-serif" font-size="13" font-weight="bold" lengthAdjust="spacing" textLength="14" x="798.5" y="542.4326">12</text><text fill="#000000" font-family="sans-serif" font-size="13" lengthAdjust="spacing" textLength="106" x="816.5" y="542.4326">AgendaRepository</text><polygon fill="#181818" points="759.5,574.9863,769.5,578.9863,759.5,582.9863,763.5,578.9863" style="stroke:#181818;stroke-width:1.0;"/><line style="stroke:#181818;stroke-width:1.0;" x1="490.5" x2="765.5" y1="578.9863" y2="578.9863"/><text fill="#000000" font-family="sans-serif" font-size="13" font-weight="bold" lengthAdjust="spacing" textLength="14" x="497.5" y="573.7236">13</text><text fill="#000000" font-family="sans-serif" font-size="13" lengthAdjust="spacing" textLength="148" x="515.5" y="573.7236">getToDoListByGSM(gsm)</text><polygon fill="#181818" points="1347.5,606.2773,1357.5,610.2773,1347.5,614.2773,1351.5,610.2773" style="stroke:#181818;stroke-width:1.0;"/><line style="stroke:#181818;stroke-width:1.0;" x1="781.5" x2="1353.5" y1="610.2773" y2="610.2773"/><text fill="#000000" font-family="sans-serif" font-size="13" font-weight="bold" lengthAdjust="spacing" textLength="14" x="788.5" y="605.0146">14</text><text fill="#000000" font-family="sans-serif" font-size="13" lengthAdjust="spacing" textLength="148" x="806.5" y="605.0146">getToDoListByGSM(gsm)</text><polygon fill="#181818" points="792.5,637.5684,782.5,641.5684,792.5,645.5684,788.5,641.5684" style="stroke:#181818;stroke-width:1.0;"/><line style="stroke:#181818;stroke-width:1.0;stroke-dasharray:2.0,2.0;" x1="786.5" x2="1363.5" y1="641.5684" y2="641.5684"/><text fill="#000000" font-family="sans-serif" font-size="13" font-weight="bold" lengthAdjust="spacing" textLength="14" x="798.5" y="636.3057">15</text><text fill="#000000" font-family="sans-serif" font-size="13" lengthAdjust="spacing" textLength="48" x="816.5" y="636.3057">toDoList</text><polygon fill="#181818" points="501.5,668.8594,491.5,672.8594,501.5,676.8594,497.5,672.8594" style="stroke:#181818;stroke-width:1.0;"/><line style="stroke:#181818;stroke-width:1.0;stroke-dasharray:2.0,2.0;" x1="495.5" x2="770.5" y1="672.8594" y2="672.8594"/><text fill="#000000" font-family="sans-serif" font-size="13" font-weight="bold" lengthAdjust="spacing" textLength="14" x="507.5" y="667.5967">16</text><text fill="#000000" font-family="sans-serif" font-size="13" lengthAdjust="spacing" textLength="48" x="525.5" y="667.5967">toDoList</text><polygon fill="#181818" points="759.5,700.1504,769.5,704.1504,759.5,708.1504,763.5,704.1504" style="stroke:#181818;stroke-width:1.0;"/><line style="stroke:#181818;stroke-width:1.0;" x1="490.5" x2="765.5" y1="704.1504" y2="704.1504"/><text fill="#000000" font-family="sans-serif" font-size="13" font-weight="bold" lengthAdjust="spacing" textLength="14" x="497.5" y="698.8877">17</text><text fill="#000000" font-family="sans-serif" font-size="13" lengthAdjust="spacing" textLength="118" x="515.5" y="698.8877">getToDoListEntries()</text><polygon fill="#181818" points="1347.5,731.4414,1357.5,735.4414,1347.5,739.4414,1351.5,735.4414" style="stroke:#181818;stroke-width:1.0;"/><line style="stroke:#181818;stroke-width:1.0;" x1="781.5" x2="1353.5" y1="735.4414" y2="735.4414"/><text fill="#000000" font-family="sans-serif" font-size="13" font-weight="bold" lengthAdjust="spacing" textLength="14" x="788.5" y="730.1787">18</text><text fill="#000000" font-family="sans-serif" font-size="13" lengthAdjust="spacing" textLength="118" x="806.5" y="730.1787">getToDoListEntries()</text><polygon fill="#181818" points="792.5,762.7324,782.5,766.7324,792.5,770.7324,788.5,766.7324" style="stroke:#181818;stroke-width:1.0;"/><line style="stroke:#181818;stroke-width:1.0;stroke-dasharray:2.0,2.0;" x1="786.5" x2="1363.5" y1="766.7324" y2="766.7324"/><text fill="#000000" font-family="sans-serif" font-size="13" font-weight="bold" lengthAdjust="spacing" textLength="14" x="798.5" y="761.4697">19</text><text fill="#000000" font-family="sans-serif" font-size="13" lengthAdjust="spacing" textLength="87" x="816.5" y="761.4697">todoListEntries</text><polygon fill="#181818" points="501.5,794.0234,491.5,798.0234,501.5,802.0234,497.5,798.0234" style="stroke:#181818;stroke-width:1.0;"/><line style="stroke:#181818;stroke-width:1.0;stroke-dasharray:2.0,2.0;" x1="495.5" x2="775.5" y1="798.0234" y2="798.0234"/><text fill="#000000" font-family="sans-serif" font-size="13" font-weight="bold" lengthAdjust="spacing" textLength="14" x="507.5" y="792.7607">20</text><text fill="#000000" font-family="sans-serif" font-size="13" lengthAdjust="spacing" textLength="89" x="525.5" y="792.7607">toDoListEntries</text><polygon fill="#181818" points="99.5,825.3145,89.5,829.3145,99.5,833.3145,95.5,829.3145" style="stroke:#181818;stroke-width:1.0;"/><line style="stroke:#181818;stroke-width:1.0;stroke-dasharray:2.0,2.0;" x1="93.5" x2="484.5" y1="829.3145" y2="829.3145"/><text fill="#000000" font-family="sans-serif" font-size="13" font-weight="bold" lengthAdjust="spacing" textLength="14" x="105.5" y="824.0518">21</text><text fill="#000000" font-family="sans-serif" font-size="13" lengthAdjust="spacing" textLength="350" x="123.5" y="824.0518">shows list of entries in the To-Do List and asks to select one</text><polygon fill="#181818" points="468.5,856.6055,478.5,860.6055,468.5,864.6055,472.5,860.6055" style="stroke:#181818;stroke-width:1.0;"/><line style="stroke:#181818;stroke-width:1.0;" x1="88.5" x2="474.5" y1="860.6055" y2="860.6055"/><text fill="#000000" font-family="sans-serif" font-size="13" font-weight="bold" lengthAdjust="spacing" textLength="14" x="95.5" y="855.3428">22</text><text fill="#000000" font-family="sans-serif" font-size="13" lengthAdjust="spacing" textLength="75" x="113.5" y="855.3428">selects entry</text><polygon fill="#181818" points="99.5,887.8965,89.5,891.8965,99.5,895.8965,95.5,891.8965" style="stroke:#181818;stroke-width:1.0;"/><line style="stroke:#181818;stroke-width:1.0;stroke-dasharray:2.0,2.0;" x1="93.5" x2="484.5" y1="891.8965" y2="891.8965"/><text fill="#000000" font-family="sans-serif" font-size="13" font-weight="bold" lengthAdjust="spacing" textLength="14" x="105.5" y="886.6338">23</text><text fill="#000000" font-family="sans-serif" font-size="13" lengthAdjust="spacing" textLength="318" x="123.5" y="886.6338">asks to select current status and type the starting date</text><polygon fill="#181818" points="468.5,919.1875,478.5,923.1875,468.5,927.1875,472.5,923.1875" style="stroke:#181818;stroke-width:1.0;"/><line style="stroke:#181818;stroke-width:1.0;" x1="88.5" x2="474.5" y1="923.1875" y2="923.1875"/><text fill="#000000" font-family="sans-serif" font-size="13" font-weight="bold" lengthAdjust="spacing" textLength="14" x="95.5" y="917.9248">24</text><text fill="#000000" font-family="sans-serif" font-size="13" lengthAdjust="spacing" textLength="219" x="113.5" y="917.9248">selects status and types starting date</text><polygon fill="#181818" points="99.5,950.4785,89.5,954.4785,99.5,958.4785,95.5,954.4785" style="stroke:#181818;stroke-width:1.0;"/><line style="stroke:#181818;stroke-width:1.0;stroke-dasharray:2.0,2.0;" x1="93.5" x2="484.5" y1="954.4785" y2="954.4785"/><text fill="#000000" font-family="sans-serif" font-size="13" font-weight="bold" lengthAdjust="spacing" textLength="14" x="105.5" y="949.2158">25</text><text fill="#000000" font-family="sans-serif" font-size="13" lengthAdjust="spacing" textLength="219" x="123.5" y="949.2158">shows data and requests confirmation</text><polygon fill="#181818" points="468.5,981.7695,478.5,985.7695,468.5,989.7695,472.5,985.7695" style="stroke:#181818;stroke-width:1.0;"/><line style="stroke:#181818;stroke-width:1.0;" x1="88.5" x2="474.5" y1="985.7695" y2="985.7695"/><text fill="#000000" font-family="sans-serif" font-size="13" font-weight="bold" lengthAdjust="spacing" textLength="14" x="95.5" y="980.5068">26</text><text fill="#000000" font-family="sans-serif" font-size="13" lengthAdjust="spacing" textLength="78" x="113.5" y="980.5068">confirms data</text><polygon fill="#181818" points="759.5,1013.0605,769.5,1017.0605,759.5,1021.0605,763.5,1017.0605" style="stroke:#181818;stroke-width:1.0;"/><line style="stroke:#181818;stroke-width:1.0;" x1="490.5" x2="765.5" y1="1017.0605" y2="1017.0605"/><text fill="#000000" font-family="sans-serif" font-size="13" font-weight="bold" lengthAdjust="spacing" textLength="14" x="497.5" y="1011.7979">27</text><text fill="#000000" font-family="sans-serif" font-size="13" lengthAdjust="spacing" textLength="244" x="515.5" y="1011.7979">addEntry(toDoListEntry, status, startDate)</text><line style="stroke:#181818;stroke-width:1.0;" x1="781.5" x2="828.5" y1="1068.3516" y2="1068.3516"/><line style="stroke:#181818;stroke-width:1.0;" x1="828.5" x2="828.5" y1="1068.3516" y2="1081.3516"/><line style="stroke:#181818;stroke-width:1.0;" x1="787.5" x2="828.5" y1="1081.3516" y2="1081.3516"/><polygon fill="#181818" points="797.5,1077.3516,787.5,1081.3516,797.5,1085.3516,793.5,1081.3516" style="stroke:#181818;stroke-width:1.0;"/><text fill="#000000" font-family="sans-serif" font-size="13" font-weight="bold" lengthAdjust="spacing" textLength="14" x="793.5" y="1063.0889">28</text><text fill="#000000" font-family="sans-serif" font-size="13" lengthAdjust="spacing" textLength="133" x="811.5" y="1063.0889">getGSMFromSession()</text><rect fill="none" height="43.252" style="stroke:#000000;stroke-width:1.5;" width="193" x="680" y="1094.3516"/><path d="M680,1094.3516 L742,1094.3516 L742,1103.3516 L732,1113.3516 L680,1113.3516 L680,1094.3516 " fill="#EEEEEE" style="stroke:#000000;stroke-width:2.0;"/><text fill="#000000" font-family="sans-serif" font-size="13" font-weight="bold" lengthAdjust="spacing" textLength="17" x="693" y="1110.3799">ref</text><text fill="#000000" font-family="sans-serif" font-size="12" lengthAdjust="spacing" textLength="48" x="752.5" y="1130.3008">Get GSM</text><line style="stroke:#181818;stroke-width:1.0;stroke-dasharray:2.0,2.0;" x1="786.5" x2="828.5" y1="1170.8945" y2="1170.8945"/><line style="stroke:#181818;stroke-width:1.0;stroke-dasharray:2.0,2.0;" x1="828.5" x2="828.5" y1="1170.8945" y2="1183.8945"/><line style="stroke:#181818;stroke-width:1.0;stroke-dasharray:2.0,2.0;" x1="781.5" x2="828.5" y1="1183.8945" y2="1183.8945"/><polygon fill="#181818" points="791.5,1179.8945,781.5,1183.8945,791.5,1187.8945,787.5,1183.8945" style="stroke:#181818;stroke-width:1.0;"/><text fill="#000000" font-family="sans-serif" font-size="13" font-weight="bold" lengthAdjust="spacing" textLength="14" x="793.5" y="1165.6318">29</text><text fill="#000000" font-family="sans-serif" font-size="13" lengthAdjust="spacing" textLength="25" x="811.5" y="1165.6318">gsm</text><polygon fill="#181818" points="1496.5,1231.1855,1506.5,1235.1855,1496.5,1239.1855,1500.5,1235.1855" style="stroke:#181818;stroke-width:1.0;"/><line style="stroke:#181818;stroke-width:1.0;" x1="781.5" x2="1502.5" y1="1235.1855" y2="1235.1855"/><text fill="#000000" font-family="sans-serif" font-size="13" font-weight="bold" lengthAdjust="spacing" textLength="14" x="788.5" y="1229.9229">30</text><text fill="#000000" font-family="sans-serif" font-size="13" lengthAdjust="spacing" textLength="141" x="806.5" y="1229.9229">getAgendaByGSM(gsm)</text><polygon fill="#181818" points="792.5,1262.4766,782.5,1266.4766,792.5,1270.4766,788.5,1266.4766" style="stroke:#181818;stroke-width:1.0;"/><line style="stroke:#181818;stroke-width:1.0;stroke-dasharray:2.0,2.0;" x1="786.5" x2="1512.5" y1="1266.4766" y2="1266.4766"/><text fill="#000000" font-family="sans-serif" font-size="13" font-weight="bold" lengthAdjust="spacing" textLength="14" x="798.5" y="1261.2139">31</text><text fill="#000000" font-family="sans-serif" font-size="13" lengthAdjust="spacing" textLength="42" x="816.5" y="1261.2139">agenda</text><polygon fill="#181818" points="1686.5,1293.7676,1696.5,1297.7676,1686.5,1301.7676,1690.5,1297.7676" style="stroke:#181818;stroke-width:1.0;"/><line style="stroke:#181818;stroke-width:1.0;" x1="781.5" x2="1692.5" y1="1297.7676" y2="1297.7676"/><text fill="#000000" font-family="sans-serif" font-size="13" font-weight="bold" lengthAdjust="spacing" textLength="14" x="788.5" y="1292.5049">32</text><text fill="#000000" font-family="sans-serif" font-size="13" lengthAdjust="spacing" textLength="244" x="806.5" y="1292.5049">addEntry(toDoListEntry, status, startDate)</text><polygon fill="#181818" points="1875.5,1325.0586,1885.5,1329.0586,1875.5,1333.0586,1879.5,1329.0586" style="stroke:#181818;stroke-width:1.0;"/><line style="stroke:#181818;stroke-width:1.0;" x1="1708.5" x2="1881.5" y1="1329.0586" y2="1329.0586"/><text fill="#000000" font-family="sans-serif" font-size="13" font-weight="bold" lengthAdjust="spacing" textLength="14" x="1715.5" y="1323.7959">33</text><text fill="#000000" font-family="sans-serif" font-size="13" lengthAdjust="spacing" textLength="36" x="1733.5" y="1323.7959">create</text><rect fill="#E3E3E3" height="32.6211" rx="2.5" ry="2.5" style="stroke:#181818;stroke-width:0.5;" width="96" x="1887.5" y="1305.7676"/><text fill="#000000" font-family="sans-serif" font-size="14" lengthAdjust="spacing" textLength="82" x="1894.5" y="1327.875">AgendaEntry</text><line style="stroke:#181818;stroke-width:1.0;" x1="1708.5" x2="1755.5" y1="1367.6797" y2="1367.6797"/><line style="stroke:#181818;stroke-width:1.0;" x1="1755.5" x2="1755.5" y1="1367.6797" y2="1380.6797"/><line style="stroke:#181818;stroke-width:1.0;" x1="1714.5" x2="1755.5" y1="1380.6797" y2="1380.6797"/><polygon fill="#181818" points="1724.5,1376.6797,1714.5,1380.6797,1724.5,1384.6797,1720.5,1380.6797" style="stroke:#181818;stroke-width:1.0;"/><text fill="#000000" font-family="sans-serif" font-size="13" font-weight="bold" lengthAdjust="spacing" textLength="14" x="1720.5" y="1362.417">34</text><text fill="#000000" font-family="sans-serif" font-size="13" lengthAdjust="spacing" textLength="190" x="1738.5" y="1362.417">validateEntry(AgendaEntry entry)</text><line style="stroke:#181818;stroke-width:1.0;stroke-dasharray:2.0,2.0;" x1="1713.5" x2="1755.5" y1="1421.9707" y2="1421.9707"/><line style="stroke:#181818;stroke-width:1.0;stroke-dasharray:2.0,2.0;" x1="1755.5" x2="1755.5" y1="1421.9707" y2="1434.9707"/><line style="stroke:#181818;stroke-width:1.0;stroke-dasharray:2.0,2.0;" x1="1708.5" x2="1755.5" y1="1434.9707" y2="1434.9707"/><polygon fill="#181818" points="1718.5,1430.9707,1708.5,1434.9707,1718.5,1438.9707,1714.5,1434.9707" style="stroke:#181818;stroke-width:1.0;"/><text fill="#000000" font-family="sans-serif" font-size="13" font-weight="bold" lengthAdjust="spacing" textLength="14" x="1720.5" y="1416.708">35</text><text fill="#000000" font-family="sans-serif" font-size="13" lengthAdjust="spacing" textLength="22" x="1738.5" y="1416.708">true</text><line style="stroke:#181818;stroke-width:1.0;" x1="1708.5" x2="1755.5" y1="1456.2617" y2="1456.2617"/><line style="stroke:#181818;stroke-width:1.0;" x1="1755.5" x2="1755.5" y1="1456.2617" y2="1469.2617"/><line style="stroke:#181818;stroke-width:1.0;" x1="1714.5" x2="1755.5" y1="1469.2617" y2="1469.2617"/><polygon fill="#181818" points="1724.5,1465.2617,1714.5,1469.2617,1724.5,1473.2617,1720.5,1469.2617" style="stroke:#181818;stroke-width:1.0;"/><text fill="#000000" font-family="sans-serif" font-size="13" font-weight="bold" lengthAdjust="spacing" textLength="14" x="1720.5" y="1450.999">36</text><text fill="#000000" font-family="sans-serif" font-size="13" lengthAdjust="spacing" textLength="168" x="1738.5" y="1450.999">addEntry(AgendaEntry entry)</text><line style="stroke:#181818;stroke-width:1.0;stroke-dasharray:2.0,2.0;" x1="1713.5" x2="1755.5" y1="1510.5527" y2="1510.5527"/><line style="stroke:#181818;stroke-width:1.0;stroke-dasharray:2.0,2.0;" x1="1755.5" x2="1755.5" y1="1510.5527" y2="1523.5527"/><line style="stroke:#181818;stroke-width:1.0;stroke-dasharray:2.0,2.0;" x1="1708.5" x2="1755.5" y1="1523.5527" y2="1523.5527"/><polygon fill="#181818" points="1718.5,1519.5527,1708.5,1523.5527,1718.5,1527.5527,1714.5,1523.5527" style="stroke:#181818;stroke-width:1.0;"/><text fill="#000000" font-family="sans-serif" font-size="13" font-weight="bold" lengthAdjust="spacing" textLength="14" x="1720.5" y="1505.29">37</text><text fill="#000000" font-family="sans-serif" font-size="13" lengthAdjust="spacing" textLength="22" x="1738.5" y="1505.29">true</text><polygon fill="#181818" points="94.5,1545.8438,84.5,1549.8438,94.5,1553.8438,90.5,1549.8438" style="stroke:#181818;stroke-width:1.0;"/><line style="stroke:#181818;stroke-width:1.0;stroke-dasharray:2.0,2.0;" x1="88.5" x2="484.5" y1="1549.8438" y2="1549.8438"/><text fill="#000000" font-family="sans-serif" font-size="13" font-weight="bold" lengthAdjust="spacing" textLength="14" x="100.5" y="1544.5811">38</text><text fill="#000000" font-family="sans-serif" font-size="13" lengthAdjust="spacing" textLength="158" x="118.5" y="1544.5811">displays operation success</text><!--SRC=[lLZDJkCm4BxxAKPSQ2lw0ZqWPIaR8T7LgYstlPZ4RICIkskxi9Lu-1qxQU8uIPkmBBu0pimtVvxnPzHBmlTKqWmomKMqao9ZeEM14LL-sTFeXMxPIXzJ1f95cl9jwWge7Ot5MyAtiA6fOeJGWnRya3qpISZrBeaPR8JGp-8FeP4M4gv2oHY75I8p1GlA4LvU0LKGp1S4GNKI9NlADLpDWZY-vreUWotZCNrwi69F3sUbxWJ-BjAq0BrRBnyz-INR2vMWBmbJLgRSEAuI4nu6K5UHZiOltWJu-HYiwnfR4wIDiG97pR1bsoA4gsKTG8kvU4oKhgcl6vjMUJttbAdDH4qryBRoZ7jw9_m2rKjS3f4hXcsVR1Niz_iVwsKm3uYfUV9ADRF59L0i_0EcjrX9cA7qYm8jWCOnK0xCO9Y_zGwLB6obLwBX6I3Nu2o4cYAY0PxXEVrzO4ehYAccCE8qOsFYIbz7aXaOUpXyc5kxFPaWK2v6QYAb3rQvzibTvgl1QZbR2Bnb-e4hRAQ8ZSQT6FugJRSTsDuePhLvDIqYD_chpdTls9XzadkdpDcVDbNXQl4TXzEAAPK8FY1XVOlLM99jGBmosJmXPrV8D7Roehy27kzXXIkouwH7PVq1d1hrICYf46Qw5OLe6Lzzor5QjiFoiewrMiNPPfeC2RY7sMR0pO7xHU4s3V__OFqhuej2zSr-Tg3LJA-LzDiHEtM4xJFkcIYyPRi0XiyZSsNtLqDfPpoVgC67-juOxZTWxErSskgTv7hZ64g0jyY5e-Ia-2Fg_RFg9j965xjco80Sak4v76Wbdz15uclyHkt4cu8K8K5iB6D2M4YuvKnhCPqBCFQGJiKblL8iHVOEWZFYsJ5SoYTbkRJAsHXfKA-6HvwLw20bgW8o77rGrWzzt3Fh7-uXSSJtGcoeLOSlNVvuWAe5pNVsj4SwwMAUJiiL3N397YF1DudCg4RIGJgAr6N0TRx0oKsqSqaJDsdj9LeyRaRkAJhU59cuoHCmHumnwK5wtj_VoJzmhJF8tOofZHIryfvBrEOiUp6HjOOMB9tBhMDcLwyKhx43T-xchwekbtpLqdxueIBMtGgRsGf2Wruyj2QJziTA9MZSUALfOleazyLvi-LztXoo5nqeWEq_3SwCicx_QzdfuT4W3uTwF222Qe3C84xKFgL71MBFf9qMe0vHX1tKDjvSK7mJ_mK0]--></g></svg>