<?xml version="1.0" encoding="us-ascii" standalone="no"?><svg xmlns="http://www.w3.org/2000/svg" xmlns:xlink="http://www.w3.org/1999/xlink" contentStyleType="text/css" height="992px" preserveAspectRatio="none" style="width:4990px;height:992px;background:#FFFFFF;" version="1.1" viewBox="0 0 4990 992" width="4990px" zoomAndPan="magnify"><defs/><g><!--class ApplicationSession--><g id="elem_ApplicationSession"><rect codeLine="11" fill="#F1F1F1" height="85.2422" id="ApplicationSession" rx="2.5" ry="2.5" style="stroke:#181818;stroke-width:0.5;" width="151" x="2061.5" y="843.2627"/><ellipse cx="2076.5" cy="859.2627" fill="#ADD1B2" rx="11" ry="11" style="stroke:#181818;stroke-width:1.0;"/><path d="M2079.2656,855.1377 Q2079.4219,854.9189 2079.6094,854.8096 Q2079.7969,854.7002 2080.0156,854.7002 Q2080.3906,854.7002 2080.625,854.9658 Q2080.8594,855.2158 2080.8594,855.8252 L2080.8594,857.2783 Q2080.8594,857.8877 2080.625,858.1533 Q2080.3906,858.4189 2080.0156,858.4189 Q2079.6719,858.4189 2079.4688,858.2158 Q2079.2656,858.0283 2079.1563,857.5127 Q2079.1094,857.1533 2078.9219,856.9658 Q2078.5938,856.5908 2077.9844,856.3721 Q2077.375,856.1533 2076.75,856.1533 Q2075.9844,856.1533 2075.3438,856.4814 Q2074.7188,856.8096 2074.2188,857.5596 Q2073.7344,858.3096 2073.7344,859.3408 L2073.7344,860.4346 Q2073.7344,861.6689 2074.625,862.4971 Q2075.5156,863.3096 2077.1094,863.3096 Q2078.0469,863.3096 2078.7031,863.0596 Q2079.0938,862.9033 2079.5156,862.4658 Q2079.7813,862.2002 2079.9219,862.1221 Q2080.0781,862.0439 2080.2813,862.0439 Q2080.6094,862.0439 2080.8594,862.3096 Q2081.125,862.5596 2081.125,862.9033 Q2081.125,863.2471 2080.7813,863.6533 Q2080.2813,864.2314 2079.4844,864.5596 Q2078.4063,865.0127 2077.1094,865.0127 Q2075.5938,865.0127 2074.3906,864.3877 Q2073.4063,863.8877 2072.7188,862.8252 Q2072.0313,861.7471 2072.0313,860.4658 L2072.0313,859.3096 Q2072.0313,857.9814 2072.6406,856.8408 Q2073.2656,855.6846 2074.3594,855.0752 Q2075.4531,854.4502 2076.6875,854.4502 Q2077.4219,854.4502 2078.0625,854.6221 Q2078.7188,854.7783 2079.2656,855.1377 Z " fill="#000000"/><text fill="#000000" font-family="sans-serif" font-size="14" lengthAdjust="spacing" textLength="119" x="2090.5" y="865.0596">ApplicationSession</text><line style="stroke:#181818;stroke-width:0.5;" x1="2062.5" x2="2211.5" y1="875.2627" y2="875.2627"/><line style="stroke:#181818;stroke-width:0.5;" x1="2062.5" x2="2211.5" y1="883.2627" y2="883.2627"/><text fill="#000000" font-family="sans-serif" font-size="14" lengthAdjust="spacing" textLength="128" x="2067.5" y="902.3701">+static getInstance()</text><text fill="#000000" font-family="sans-serif" font-size="14" lengthAdjust="spacing" textLength="136" x="2067.5" y="920.9912">+getCurrentSession()</text></g><!--class UserSession--><g id="elem_UserSession"><rect codeLine="17" fill="#F1F1F1" height="66.6211" id="UserSession" rx="2.5" ry="2.5" style="stroke:#181818;stroke-width:0.5;" width="113" x="2701.5" y="919.2627"/><ellipse cx="2717.4" cy="935.2627" fill="#ADD1B2" rx="11" ry="11" style="stroke:#181818;stroke-width:1.0;"/><path d="M2720.1656,931.1377 Q2720.3219,930.9189 2720.5094,930.8096 Q2720.6969,930.7002 2720.9156,930.7002 Q2721.2906,930.7002 2721.525,930.9658 Q2721.7594,931.2158 2721.7594,931.8252 L2721.7594,933.2783 Q2721.7594,933.8877 2721.525,934.1533 Q2721.2906,934.4189 2720.9156,934.4189 Q2720.5719,934.4189 2720.3688,934.2158 Q2720.1656,934.0283 2720.0563,933.5127 Q2720.0094,933.1533 2719.8219,932.9658 Q2719.4938,932.5908 2718.8844,932.3721 Q2718.275,932.1533 2717.65,932.1533 Q2716.8844,932.1533 2716.2438,932.4814 Q2715.6188,932.8096 2715.1188,933.5596 Q2714.6344,934.3096 2714.6344,935.3408 L2714.6344,936.4346 Q2714.6344,937.6689 2715.525,938.4971 Q2716.4156,939.3096 2718.0094,939.3096 Q2718.9469,939.3096 2719.6031,939.0596 Q2719.9938,938.9033 2720.4156,938.4658 Q2720.6813,938.2002 2720.8219,938.1221 Q2720.9781,938.0439 2721.1813,938.0439 Q2721.5094,938.0439 2721.7594,938.3096 Q2722.025,938.5596 2722.025,938.9033 Q2722.025,939.2471 2721.6813,939.6533 Q2721.1813,940.2314 2720.3844,940.5596 Q2719.3063,941.0127 2718.0094,941.0127 Q2716.4938,941.0127 2715.2906,940.3877 Q2714.3063,939.8877 2713.6188,938.8252 Q2712.9313,937.7471 2712.9313,936.4658 L2712.9313,935.3096 Q2712.9313,933.9814 2713.5406,932.8408 Q2714.1656,931.6846 2715.2594,931.0752 Q2716.3531,930.4502 2717.5875,930.4502 Q2718.3219,930.4502 2718.9625,930.6221 Q2719.6188,930.7783 2720.1656,931.1377 Z " fill="#000000"/><text fill="#000000" font-family="sans-serif" font-size="14" lengthAdjust="spacing" textLength="79" x="2731.6" y="941.0596">UserSession</text><line style="stroke:#181818;stroke-width:0.5;" x1="2702.5" x2="2813.5" y1="951.2627" y2="951.2627"/><line style="stroke:#181818;stroke-width:0.5;" x1="2702.5" x2="2813.5" y1="959.2627" y2="959.2627"/><text fill="#000000" font-family="sans-serif" font-size="14" lengthAdjust="spacing" textLength="101" x="2707.5" y="978.3701">+getUserEmail()</text></g><!--class GreenSpace--><g id="elem_GreenSpace"><rect codeLine="22" fill="#F1F1F1" height="252.832" id="GreenSpace" rx="2.5" ry="2.5" style="stroke:#181818;stroke-width:0.5;" width="346" x="3241" y="650.2627"/><ellipse cx="3369.75" cy="666.2627" fill="#ADD1B2" rx="11" ry="11" style="stroke:#181818;stroke-width:1.0;"/><path d="M3372.5156,662.1377 Q3372.6719,661.9189 3372.8594,661.8096 Q3373.0469,661.7002 3373.2656,661.7002 Q3373.6406,661.7002 3373.875,661.9658 Q3374.1094,662.2158 3374.1094,662.8252 L3374.1094,664.2783 Q3374.1094,664.8877 3373.875,665.1533 Q3373.6406,665.4189 3373.2656,665.4189 Q3372.9219,665.4189 3372.7188,665.2158 Q3372.5156,665.0283 3372.4063,664.5127 Q3372.3594,664.1533 3372.1719,663.9658 Q3371.8438,663.5908 3371.2344,663.3721 Q3370.625,663.1533 3370,663.1533 Q3369.2344,663.1533 3368.5938,663.4814 Q3367.9688,663.8096 3367.4688,664.5596 Q3366.9844,665.3096 3366.9844,666.3408 L3366.9844,667.4346 Q3366.9844,668.6689 3367.875,669.4971 Q3368.7656,670.3096 3370.3594,670.3096 Q3371.2969,670.3096 3371.9531,670.0596 Q3372.3438,669.9033 3372.7656,669.4658 Q3373.0313,669.2002 3373.1719,669.1221 Q3373.3281,669.0439 3373.5313,669.0439 Q3373.8594,669.0439 3374.1094,669.3096 Q3374.375,669.5596 3374.375,669.9033 Q3374.375,670.2471 3374.0313,670.6533 Q3373.5313,671.2314 3372.7344,671.5596 Q3371.6563,672.0127 3370.3594,672.0127 Q3368.8438,672.0127 3367.6406,671.3877 Q3366.6563,670.8877 3365.9688,669.8252 Q3365.2813,668.7471 3365.2813,667.4658 L3365.2813,666.3096 Q3365.2813,664.9814 3365.8906,663.8408 Q3366.5156,662.6846 3367.6094,662.0752 Q3368.7031,661.4502 3369.9375,661.4502 Q3370.6719,661.4502 3371.3125,661.6221 Q3371.9688,661.7783 3372.5156,662.1377 Z " fill="#000000"/><text fill="#000000" font-family="sans-serif" font-size="14" lengthAdjust="spacing" textLength="80" x="3390.25" y="672.0596">GreenSpace</text><line style="stroke:#181818;stroke-width:0.5;" x1="3242" x2="3586" y1="682.2627" y2="682.2627"/><text fill="#000000" font-family="sans-serif" font-size="14" lengthAdjust="spacing" textLength="85" x="3247" y="701.3701">-name: String</text><text fill="#000000" font-family="sans-serif" font-size="14" lengthAdjust="spacing" textLength="77" x="3247" y="719.9912">-type: String</text><text fill="#000000" font-family="sans-serif" font-size="14" lengthAdjust="spacing" textLength="85" x="3247" y="738.6123">-area: double</text><line style="stroke:#181818;stroke-width:0.5;" x1="3242" x2="3586" y1="746.126" y2="746.126"/><text fill="#000000" font-family="sans-serif" font-size="14" lengthAdjust="spacing" textLength="334" x="3247" y="765.2334">+GreenSpace(String name, String type, double area)</text><text fill="#000000" font-family="sans-serif" font-size="14" lengthAdjust="spacing" textLength="289" x="3247" y="783.8545">+void validateGreenSpaceName(String name)</text><text fill="#000000" font-family="sans-serif" font-size="14" lengthAdjust="spacing" textLength="277" x="3247" y="802.4756">+void validateGreenSpaceType(String type)</text><text fill="#000000" font-family="sans-serif" font-size="14" lengthAdjust="spacing" textLength="283" x="3247" y="821.0967">+void validateGreenSpaceArea(double area)</text><text fill="#000000" font-family="sans-serif" font-size="14" lengthAdjust="spacing" textLength="168" x="3247" y="839.7178">+boolean equals(Object o)</text><text fill="#000000" font-family="sans-serif" font-size="14" lengthAdjust="spacing" textLength="102" x="3247" y="858.3389">+int hashCode()</text><text fill="#000000" font-family="sans-serif" font-size="14" lengthAdjust="spacing" textLength="136" x="3247" y="876.96">+GreenSpace clone()</text><text fill="#000000" font-family="sans-serif" font-size="14" lengthAdjust="spacing" textLength="210" x="3247" y="895.5811">+boolean isOfName(String name)</text></g><!--class TDLEntry--><g id="elem_TDLEntry"><rect codeLine="36" fill="#F1F1F1" height="234.2109" id="TDLEntry" rx="2.5" ry="2.5" style="stroke:#181818;stroke-width:0.5;" width="500" x="3164" y="309.7627"/><ellipse cx="3379.75" cy="325.7627" fill="#ADD1B2" rx="11" ry="11" style="stroke:#181818;stroke-width:1.0;"/><path d="M3382.5156,321.6377 Q3382.6719,321.4189 3382.8594,321.3096 Q3383.0469,321.2002 3383.2656,321.2002 Q3383.6406,321.2002 3383.875,321.4658 Q3384.1094,321.7158 3384.1094,322.3252 L3384.1094,323.7783 Q3384.1094,324.3877 3383.875,324.6533 Q3383.6406,324.9189 3383.2656,324.9189 Q3382.9219,324.9189 3382.7188,324.7158 Q3382.5156,324.5283 3382.4063,324.0127 Q3382.3594,323.6533 3382.1719,323.4658 Q3381.8438,323.0908 3381.2344,322.8721 Q3380.625,322.6533 3380,322.6533 Q3379.2344,322.6533 3378.5938,322.9814 Q3377.9688,323.3096 3377.4688,324.0596 Q3376.9844,324.8096 3376.9844,325.8408 L3376.9844,326.9346 Q3376.9844,328.1689 3377.875,328.9971 Q3378.7656,329.8096 3380.3594,329.8096 Q3381.2969,329.8096 3381.9531,329.5596 Q3382.3438,329.4033 3382.7656,328.9658 Q3383.0313,328.7002 3383.1719,328.6221 Q3383.3281,328.5439 3383.5313,328.5439 Q3383.8594,328.5439 3384.1094,328.8096 Q3384.375,329.0596 3384.375,329.4033 Q3384.375,329.7471 3384.0313,330.1533 Q3383.5313,330.7314 3382.7344,331.0596 Q3381.6563,331.5127 3380.3594,331.5127 Q3378.8438,331.5127 3377.6406,330.8877 Q3376.6563,330.3877 3375.9688,329.3252 Q3375.2813,328.2471 3375.2813,326.9658 L3375.2813,325.8096 Q3375.2813,324.4814 3375.8906,323.3408 Q3376.5156,322.1846 3377.6094,321.5752 Q3378.7031,320.9502 3379.9375,320.9502 Q3380.6719,320.9502 3381.3125,321.1221 Q3381.9688,321.2783 3382.5156,321.6377 Z " fill="#000000"/><text fill="#000000" font-family="sans-serif" font-size="14" lengthAdjust="spacing" textLength="60" x="3400.25" y="331.5596">TDLEntry</text><line style="stroke:#181818;stroke-width:0.5;" x1="3165" x2="3663" y1="341.7627" y2="341.7627"/><text fill="#000000" font-family="sans-serif" font-size="14" lengthAdjust="spacing" textLength="72" x="3170" y="360.8701">-title: String</text><text fill="#000000" font-family="sans-serif" font-size="14" lengthAdjust="spacing" textLength="147" x="3170" y="379.4912">-taskDescription: String</text><text fill="#000000" font-family="sans-serif" font-size="14" lengthAdjust="spacing" textLength="101" x="3170" y="398.1123">-urgency: String</text><text fill="#000000" font-family="sans-serif" font-size="14" lengthAdjust="spacing" textLength="102" x="3170" y="416.7334">-duration: String</text><text fill="#000000" font-family="sans-serif" font-size="14" lengthAdjust="spacing" textLength="241" x="3170" y="435.3545">-associatedGreenSpace: GreenSpace</text><line style="stroke:#181818;stroke-width:0.5;" x1="3165" x2="3663" y1="442.8682" y2="442.8682"/><text fill="#000000" font-family="sans-serif" font-size="14" lengthAdjust="spacing" textLength="488" x="3170" y="461.9756">+TDLEntry(String title, String taskDescription, String urgency, String duration)</text><text fill="#000000" font-family="sans-serif" font-size="14" lengthAdjust="spacing" textLength="338" x="3170" y="480.5967">+boolean addGreenSpace(GreenSpace greenSpace)</text><text fill="#000000" font-family="sans-serif" font-size="14" lengthAdjust="spacing" textLength="168" x="3170" y="499.2178">+boolean equals(Object o)</text><text fill="#000000" font-family="sans-serif" font-size="14" lengthAdjust="spacing" textLength="102" x="3170" y="517.8389">+int hashCode()</text><text fill="#000000" font-family="sans-serif" font-size="14" lengthAdjust="spacing" textLength="116" x="3170" y="536.46">+TDLEntry clone()</text></g><!--class AgendaEntry--><g id="elem_AgendaEntry"><rect codeLine="49" fill="#F1F1F1" height="345.9375" id="AgendaEntry" rx="2.5" ry="2.5" style="stroke:#181818;stroke-width:0.5;" width="743" x="3804" y="393.7627"/><ellipse cx="4130.25" cy="409.7627" fill="#ADD1B2" rx="11" ry="11" style="stroke:#181818;stroke-width:1.0;"/><path d="M4133.0156,405.6377 Q4133.1719,405.4189 4133.3594,405.3096 Q4133.5469,405.2002 4133.7656,405.2002 Q4134.1406,405.2002 4134.375,405.4658 Q4134.6094,405.7158 4134.6094,406.3252 L4134.6094,407.7783 Q4134.6094,408.3877 4134.375,408.6533 Q4134.1406,408.9189 4133.7656,408.9189 Q4133.4219,408.9189 4133.2188,408.7158 Q4133.0156,408.5283 4132.9063,408.0127 Q4132.8594,407.6533 4132.6719,407.4658 Q4132.3438,407.0908 4131.7344,406.8721 Q4131.125,406.6533 4130.5,406.6533 Q4129.7344,406.6533 4129.0938,406.9814 Q4128.4688,407.3096 4127.9688,408.0596 Q4127.4844,408.8096 4127.4844,409.8408 L4127.4844,410.9346 Q4127.4844,412.1689 4128.375,412.9971 Q4129.2656,413.8096 4130.8594,413.8096 Q4131.7969,413.8096 4132.4531,413.5596 Q4132.8438,413.4033 4133.2656,412.9658 Q4133.5313,412.7002 4133.6719,412.6221 Q4133.8281,412.5439 4134.0313,412.5439 Q4134.3594,412.5439 4134.6094,412.8096 Q4134.875,413.0596 4134.875,413.4033 Q4134.875,413.7471 4134.5313,414.1533 Q4134.0313,414.7314 4133.2344,415.0596 Q4132.1563,415.5127 4130.8594,415.5127 Q4129.3438,415.5127 4128.1406,414.8877 Q4127.1563,414.3877 4126.4688,413.3252 Q4125.7813,412.2471 4125.7813,410.9658 L4125.7813,409.8096 Q4125.7813,408.4814 4126.3906,407.3408 Q4127.0156,406.1846 4128.1094,405.5752 Q4129.2031,404.9502 4130.4375,404.9502 Q4131.1719,404.9502 4131.8125,405.1221 Q4132.4688,405.2783 4133.0156,405.6377 Z " fill="#000000"/><text fill="#000000" font-family="sans-serif" font-size="14" lengthAdjust="spacing" textLength="82" x="4150.75" y="415.5596">AgendaEntry</text><line style="stroke:#181818;stroke-width:0.5;" x1="3805" x2="4546" y1="425.7627" y2="425.7627"/><text fill="#000000" font-family="sans-serif" font-size="14" lengthAdjust="spacing" textLength="72" x="3810" y="444.8701">-title: String</text><text fill="#000000" font-family="sans-serif" font-size="14" lengthAdjust="spacing" textLength="147" x="3810" y="463.4912">-taskDescription: String</text><text fill="#000000" font-family="sans-serif" font-size="14" lengthAdjust="spacing" textLength="101" x="3810" y="482.1123">-urgency: String</text><text fill="#000000" font-family="sans-serif" font-size="14" lengthAdjust="spacing" textLength="102" x="3810" y="500.7334">-duration: String</text><text fill="#000000" font-family="sans-serif" font-size="14" lengthAdjust="spacing" textLength="241" x="3810" y="519.3545">-associatedGreenSpace: GreenSpace</text><text fill="#000000" font-family="sans-serif" font-size="14" lengthAdjust="spacing" textLength="153" x="3810" y="537.9756">-associatedTeam: Team</text><text fill="#000000" font-family="sans-serif" font-size="14" lengthAdjust="spacing" textLength="218" x="3810" y="556.5967">-associatedVehicles: List&lt;Vehicle&gt;</text><text fill="#000000" font-family="sans-serif" font-size="14" lengthAdjust="spacing" textLength="88" x="3810" y="575.2178">-status: String</text><text fill="#000000" font-family="sans-serif" font-size="14" lengthAdjust="spacing" textLength="135" x="3810" y="593.8389">-startDate: LocalDate</text><line style="stroke:#181818;stroke-width:0.5;" x1="3805" x2="4546" y1="601.3525" y2="601.3525"/><text fill="#000000" font-family="sans-serif" font-size="14" lengthAdjust="spacing" textLength="731" x="3810" y="620.46">+AgendaEntry(String title, String taskDescription, String urgency, String duration, String status, LocalDate startDate)</text><text fill="#000000" font-family="sans-serif" font-size="14" lengthAdjust="spacing" textLength="338" x="3810" y="639.0811">+boolean addGreenSpace(GreenSpace greenSpace)</text><text fill="#000000" font-family="sans-serif" font-size="14" lengthAdjust="spacing" textLength="204" x="3810" y="657.7021">+boolean addTeam(Team team)</text><text fill="#000000" font-family="sans-serif" font-size="14" lengthAdjust="spacing" textLength="237" x="3810" y="676.3232">+boolean addVehicle(Vehicle vehicle)</text><text fill="#000000" font-family="sans-serif" font-size="14" lengthAdjust="spacing" textLength="168" x="3810" y="694.9443">+boolean equals(Object o)</text><text fill="#000000" font-family="sans-serif" font-size="14" lengthAdjust="spacing" textLength="102" x="3810" y="713.5654">+int hashCode()</text><text fill="#000000" font-family="sans-serif" font-size="14" lengthAdjust="spacing" textLength="138" x="3810" y="732.1865">+AgendaEntry clone()</text></g><!--class ToDoList--><g id="elem_ToDoList"><rect codeLine="68" fill="#F1F1F1" height="178.3477" id="ToDoList" rx="2.5" ry="2.5" style="stroke:#181818;stroke-width:0.5;" width="323" x="4014" y="150.7627"/><ellipse cx="4142.75" cy="166.7627" fill="#ADD1B2" rx="11" ry="11" style="stroke:#181818;stroke-width:1.0;"/><path d="M4145.5156,162.6377 Q4145.6719,162.4189 4145.8594,162.3096 Q4146.0469,162.2002 4146.2656,162.2002 Q4146.6406,162.2002 4146.875,162.4658 Q4147.1094,162.7158 4147.1094,163.3252 L4147.1094,164.7783 Q4147.1094,165.3877 4146.875,165.6533 Q4146.6406,165.9189 4146.2656,165.9189 Q4145.9219,165.9189 4145.7188,165.7158 Q4145.5156,165.5283 4145.4063,165.0127 Q4145.3594,164.6533 4145.1719,164.4658 Q4144.8438,164.0908 4144.2344,163.8721 Q4143.625,163.6533 4143,163.6533 Q4142.2344,163.6533 4141.5938,163.9814 Q4140.9688,164.3096 4140.4688,165.0596 Q4139.9844,165.8096 4139.9844,166.8408 L4139.9844,167.9346 Q4139.9844,169.1689 4140.875,169.9971 Q4141.7656,170.8096 4143.3594,170.8096 Q4144.2969,170.8096 4144.9531,170.5596 Q4145.3438,170.4033 4145.7656,169.9658 Q4146.0313,169.7002 4146.1719,169.6221 Q4146.3281,169.5439 4146.5313,169.5439 Q4146.8594,169.5439 4147.1094,169.8096 Q4147.375,170.0596 4147.375,170.4033 Q4147.375,170.7471 4147.0313,171.1533 Q4146.5313,171.7314 4145.7344,172.0596 Q4144.6563,172.5127 4143.3594,172.5127 Q4141.8438,172.5127 4140.6406,171.8877 Q4139.6563,171.3877 4138.9688,170.3252 Q4138.2813,169.2471 4138.2813,167.9658 L4138.2813,166.8096 Q4138.2813,165.4814 4138.8906,164.3408 Q4139.5156,163.1846 4140.6094,162.5752 Q4141.7031,161.9502 4142.9375,161.9502 Q4143.6719,161.9502 4144.3125,162.1221 Q4144.9688,162.2783 4145.5156,162.6377 Z " fill="#000000"/><text fill="#000000" font-family="sans-serif" font-size="14" lengthAdjust="spacing" textLength="57" x="4163.25" y="172.5596">ToDoList</text><line style="stroke:#181818;stroke-width:0.5;" x1="4015" x2="4336" y1="182.7627" y2="182.7627"/><text fill="#000000" font-family="sans-serif" font-size="14" lengthAdjust="spacing" textLength="176" x="4020" y="201.8701">-entries: List&lt;AgendaEntry&gt;</text><text fill="#000000" font-family="sans-serif" font-size="14" lengthAdjust="spacing" textLength="70" x="4020" y="220.4912">-gsm: GSM</text><line style="stroke:#181818;stroke-width:0.5;" x1="4015" x2="4336" y1="228.0049" y2="228.0049"/><text fill="#000000" font-family="sans-serif" font-size="14" lengthAdjust="spacing" textLength="311" x="4020" y="247.1123">+ToDoList(List&lt;AgendaEntry&gt; entries, GSM gsm)</text><text fill="#000000" font-family="sans-serif" font-size="14" lengthAdjust="spacing" textLength="199" x="4020" y="265.7334">+boolean addEntry(Entry entry)</text><text fill="#000000" font-family="sans-serif" font-size="14" lengthAdjust="spacing" textLength="168" x="4020" y="284.3545">+boolean equals(Object o)</text><text fill="#000000" font-family="sans-serif" font-size="14" lengthAdjust="spacing" textLength="102" x="4020" y="302.9756">+int hashCode()</text><text fill="#000000" font-family="sans-serif" font-size="14" lengthAdjust="spacing" textLength="113" x="4020" y="321.5967">+ToDoList clone()</text></g><!--class Agenda--><g id="elem_Agenda"><rect codeLine="78" fill="#F1F1F1" height="178.3477" id="Agenda" rx="2.5" ry="2.5" style="stroke:#181818;stroke-width:0.5;" width="323" x="4660" y="7.7627"/><ellipse cx="4792.75" cy="23.7627" fill="#ADD1B2" rx="11" ry="11" style="stroke:#181818;stroke-width:1.0;"/><path d="M4795.5156,19.6377 Q4795.6719,19.4189 4795.8594,19.3096 Q4796.0469,19.2002 4796.2656,19.2002 Q4796.6406,19.2002 4796.875,19.4658 Q4797.1094,19.7158 4797.1094,20.3252 L4797.1094,21.7783 Q4797.1094,22.3877 4796.875,22.6533 Q4796.6406,22.9189 4796.2656,22.9189 Q4795.9219,22.9189 4795.7188,22.7158 Q4795.5156,22.5283 4795.4063,22.0127 Q4795.3594,21.6533 4795.1719,21.4658 Q4794.8438,21.0908 4794.2344,20.8721 Q4793.625,20.6533 4793,20.6533 Q4792.2344,20.6533 4791.5938,20.9814 Q4790.9688,21.3096 4790.4688,22.0596 Q4789.9844,22.8096 4789.9844,23.8408 L4789.9844,24.9346 Q4789.9844,26.1689 4790.875,26.9971 Q4791.7656,27.8096 4793.3594,27.8096 Q4794.2969,27.8096 4794.9531,27.5596 Q4795.3438,27.4033 4795.7656,26.9658 Q4796.0313,26.7002 4796.1719,26.6221 Q4796.3281,26.5439 4796.5313,26.5439 Q4796.8594,26.5439 4797.1094,26.8096 Q4797.375,27.0596 4797.375,27.4033 Q4797.375,27.7471 4797.0313,28.1533 Q4796.5313,28.7314 4795.7344,29.0596 Q4794.6563,29.5127 4793.3594,29.5127 Q4791.8438,29.5127 4790.6406,28.8877 Q4789.6563,28.3877 4788.9688,27.3252 Q4788.2813,26.2471 4788.2813,24.9658 L4788.2813,23.8096 Q4788.2813,22.4814 4788.8906,21.3408 Q4789.5156,20.1846 4790.6094,19.5752 Q4791.7031,18.9502 4792.9375,18.9502 Q4793.6719,18.9502 4794.3125,19.1221 Q4794.9688,19.2783 4795.5156,19.6377 Z " fill="#000000"/><text fill="#000000" font-family="sans-serif" font-size="14" lengthAdjust="spacing" textLength="49" x="4813.25" y="29.5596">Agenda</text><line style="stroke:#181818;stroke-width:0.5;" x1="4661" x2="4982" y1="39.7627" y2="39.7627"/><text fill="#000000" font-family="sans-serif" font-size="14" lengthAdjust="spacing" textLength="176" x="4666" y="58.8701">-entries: List&lt;AgendaEntry&gt;</text><text fill="#000000" font-family="sans-serif" font-size="14" lengthAdjust="spacing" textLength="70" x="4666" y="77.4912">-gsm: GSM</text><line style="stroke:#181818;stroke-width:0.5;" x1="4661" x2="4982" y1="85.0049" y2="85.0049"/><text fill="#000000" font-family="sans-serif" font-size="14" lengthAdjust="spacing" textLength="311" x="4666" y="104.1123">+ToDoList(List&lt;AgendaEntry&gt; entries, GSM gsm)</text><text fill="#000000" font-family="sans-serif" font-size="14" lengthAdjust="spacing" textLength="199" x="4666" y="122.7334">+boolean addEntry(Entry entry)</text><text fill="#000000" font-family="sans-serif" font-size="14" lengthAdjust="spacing" textLength="168" x="4666" y="141.3545">+boolean equals(Object o)</text><text fill="#000000" font-family="sans-serif" font-size="14" lengthAdjust="spacing" textLength="102" x="4666" y="159.9756">+int hashCode()</text><text fill="#000000" font-family="sans-serif" font-size="14" lengthAdjust="spacing" textLength="138" x="4666" y="178.5967">+AgendaEntry clone()</text></g><!--class GreenSpaceRepository--><g id="elem_GreenSpaceRepository"><rect codeLine="88" fill="#F1F1F1" height="141.1055" id="GreenSpaceRepository" rx="2.5" ry="2.5" style="stroke:#181818;stroke-width:0.5;" width="616" x="2450" y="655.2627"/><ellipse cx="2679.75" cy="671.2627" fill="#ADD1B2" rx="11" ry="11" style="stroke:#181818;stroke-width:1.0;"/><path d="M2682.5156,667.1377 Q2682.6719,666.9189 2682.8594,666.8096 Q2683.0469,666.7002 2683.2656,666.7002 Q2683.6406,666.7002 2683.875,666.9658 Q2684.1094,667.2158 2684.1094,667.8252 L2684.1094,669.2783 Q2684.1094,669.8877 2683.875,670.1533 Q2683.6406,670.4189 2683.2656,670.4189 Q2682.9219,670.4189 2682.7188,670.2158 Q2682.5156,670.0283 2682.4063,669.5127 Q2682.3594,669.1533 2682.1719,668.9658 Q2681.8438,668.5908 2681.2344,668.3721 Q2680.625,668.1533 2680,668.1533 Q2679.2344,668.1533 2678.5938,668.4814 Q2677.9688,668.8096 2677.4688,669.5596 Q2676.9844,670.3096 2676.9844,671.3408 L2676.9844,672.4346 Q2676.9844,673.6689 2677.875,674.4971 Q2678.7656,675.3096 2680.3594,675.3096 Q2681.2969,675.3096 2681.9531,675.0596 Q2682.3438,674.9033 2682.7656,674.4658 Q2683.0313,674.2002 2683.1719,674.1221 Q2683.3281,674.0439 2683.5313,674.0439 Q2683.8594,674.0439 2684.1094,674.3096 Q2684.375,674.5596 2684.375,674.9033 Q2684.375,675.2471 2684.0313,675.6533 Q2683.5313,676.2314 2682.7344,676.5596 Q2681.6563,677.0127 2680.3594,677.0127 Q2678.8438,677.0127 2677.6406,676.3877 Q2676.6563,675.8877 2675.9688,674.8252 Q2675.2813,673.7471 2675.2813,672.4658 L2675.2813,671.3096 Q2675.2813,669.9814 2675.8906,668.8408 Q2676.5156,667.6846 2677.6094,667.0752 Q2678.7031,666.4502 2679.9375,666.4502 Q2680.6719,666.4502 2681.3125,666.6221 Q2681.9688,666.7783 2682.5156,667.1377 Z " fill="#000000"/><text fill="#000000" font-family="sans-serif" font-size="14" lengthAdjust="spacing" textLength="148" x="2700.25" y="677.0596">GreenSpaceRepository</text><line style="stroke:#181818;stroke-width:0.5;" x1="2451" x2="3065" y1="687.2627" y2="687.2627"/><text fill="#000000" font-family="sans-serif" font-size="14" lengthAdjust="spacing" textLength="211" x="2456" y="706.3701">-List&lt;GreenSpace&gt; greenSpaces</text><line style="stroke:#181818;stroke-width:0.5;" x1="2451" x2="3065" y1="713.8838" y2="713.8838"/><text fill="#000000" font-family="sans-serif" font-size="14" lengthAdjust="spacing" textLength="604" x="2456" y="732.9912">+Optional&lt;GreenSpace&gt; registerGreenSpace(String name, String type, double area, GSM gsm)</text><text fill="#000000" font-family="sans-serif" font-size="14" lengthAdjust="spacing" textLength="338" x="2456" y="751.6123">+boolean addGreenSpace(GreenSpace greenSpace)</text><text fill="#000000" font-family="sans-serif" font-size="14" lengthAdjust="spacing" textLength="363" x="2456" y="770.2334">+boolean validateGreenSpace(GreenSpace greenSpace)</text><text fill="#000000" font-family="sans-serif" font-size="14" lengthAdjust="spacing" textLength="262" x="2456" y="788.8545">+List&lt;GreenSpace&gt; getGreenSpaceList()</text></g><!--class ToDoListRepository--><g id="elem_ToDoListRepository"><rect codeLine="96" fill="#F1F1F1" height="141.1055" id="ToDoListRepository" rx="2.5" ry="2.5" style="stroke:#181818;stroke-width:0.5;" width="279" x="2618.5" y="445.2627"/><ellipse cx="2691.25" cy="461.2627" fill="#ADD1B2" rx="11" ry="11" style="stroke:#181818;stroke-width:1.0;"/><path d="M2694.0156,457.1377 Q2694.1719,456.9189 2694.3594,456.8096 Q2694.5469,456.7002 2694.7656,456.7002 Q2695.1406,456.7002 2695.375,456.9658 Q2695.6094,457.2158 2695.6094,457.8252 L2695.6094,459.2783 Q2695.6094,459.8877 2695.375,460.1533 Q2695.1406,460.4189 2694.7656,460.4189 Q2694.4219,460.4189 2694.2188,460.2158 Q2694.0156,460.0283 2693.9063,459.5127 Q2693.8594,459.1533 2693.6719,458.9658 Q2693.3438,458.5908 2692.7344,458.3721 Q2692.125,458.1533 2691.5,458.1533 Q2690.7344,458.1533 2690.0938,458.4814 Q2689.4688,458.8096 2688.9688,459.5596 Q2688.4844,460.3096 2688.4844,461.3408 L2688.4844,462.4346 Q2688.4844,463.6689 2689.375,464.4971 Q2690.2656,465.3096 2691.8594,465.3096 Q2692.7969,465.3096 2693.4531,465.0596 Q2693.8438,464.9033 2694.2656,464.4658 Q2694.5313,464.2002 2694.6719,464.1221 Q2694.8281,464.0439 2695.0313,464.0439 Q2695.3594,464.0439 2695.6094,464.3096 Q2695.875,464.5596 2695.875,464.9033 Q2695.875,465.2471 2695.5313,465.6533 Q2695.0313,466.2314 2694.2344,466.5596 Q2693.1563,467.0127 2691.8594,467.0127 Q2690.3438,467.0127 2689.1406,466.3877 Q2688.1563,465.8877 2687.4688,464.8252 Q2686.7813,463.7471 2686.7813,462.4658 L2686.7813,461.3096 Q2686.7813,459.9814 2687.3906,458.8408 Q2688.0156,457.6846 2689.1094,457.0752 Q2690.2031,456.4502 2691.4375,456.4502 Q2692.1719,456.4502 2692.8125,456.6221 Q2693.4688,456.7783 2694.0156,457.1377 Z " fill="#000000"/><text fill="#000000" font-family="sans-serif" font-size="14" lengthAdjust="spacing" textLength="125" x="2711.75" y="467.0596">ToDoListRepository</text><line style="stroke:#181818;stroke-width:0.5;" x1="2619.5" x2="2896.5" y1="477.2627" y2="477.2627"/><text fill="#000000" font-family="sans-serif" font-size="14" lengthAdjust="spacing" textLength="163" x="2624.5" y="496.3701">-List&lt;ToDoList&gt; toDoLists</text><line style="stroke:#181818;stroke-width:0.5;" x1="2619.5" x2="2896.5" y1="503.8838" y2="503.8838"/><text fill="#000000" font-family="sans-serif" font-size="14" lengthAdjust="spacing" textLength="267" x="2624.5" y="522.9912">+boolean addToDoList(ToDoList toDoList)</text><text fill="#000000" font-family="sans-serif" font-size="14" lengthAdjust="spacing" textLength="201" x="2624.5" y="541.6123">+List&lt;ToDoList&gt; getToDoLists()</text><text fill="#000000" font-family="sans-serif" font-size="14" lengthAdjust="spacing" textLength="264" x="2624.5" y="560.2334">+ToDoList getToDoListByGSM(GSM gsm)</text><text fill="#000000" font-family="sans-serif" font-size="14" lengthAdjust="spacing" textLength="267" x="2624.5" y="578.8545">+boolean addToDoList(ToDoList toDoList)</text></g><!--class AgendaRepository--><g id="elem_AgendaRepository"><rect codeLine="104" fill="#F1F1F1" height="141.1055" id="AgendaRepository" rx="2.5" ry="2.5" style="stroke:#181818;stroke-width:0.5;" width="260" x="2628" y="268.2627"/><ellipse cx="2695.25" cy="284.2627" fill="#ADD1B2" rx="11" ry="11" style="stroke:#181818;stroke-width:1.0;"/><path d="M2698.0156,280.1377 Q2698.1719,279.9189 2698.3594,279.8096 Q2698.5469,279.7002 2698.7656,279.7002 Q2699.1406,279.7002 2699.375,279.9658 Q2699.6094,280.2158 2699.6094,280.8252 L2699.6094,282.2783 Q2699.6094,282.8877 2699.375,283.1533 Q2699.1406,283.4189 2698.7656,283.4189 Q2698.4219,283.4189 2698.2188,283.2158 Q2698.0156,283.0283 2697.9063,282.5127 Q2697.8594,282.1533 2697.6719,281.9658 Q2697.3438,281.5908 2696.7344,281.3721 Q2696.125,281.1533 2695.5,281.1533 Q2694.7344,281.1533 2694.0938,281.4814 Q2693.4688,281.8096 2692.9688,282.5596 Q2692.4844,283.3096 2692.4844,284.3408 L2692.4844,285.4346 Q2692.4844,286.6689 2693.375,287.4971 Q2694.2656,288.3096 2695.8594,288.3096 Q2696.7969,288.3096 2697.4531,288.0596 Q2697.8438,287.9033 2698.2656,287.4658 Q2698.5313,287.2002 2698.6719,287.1221 Q2698.8281,287.0439 2699.0313,287.0439 Q2699.3594,287.0439 2699.6094,287.3096 Q2699.875,287.5596 2699.875,287.9033 Q2699.875,288.2471 2699.5313,288.6533 Q2699.0313,289.2314 2698.2344,289.5596 Q2697.1563,290.0127 2695.8594,290.0127 Q2694.3438,290.0127 2693.1406,289.3877 Q2692.1563,288.8877 2691.4688,287.8252 Q2690.7813,286.7471 2690.7813,285.4658 L2690.7813,284.3096 Q2690.7813,282.9814 2691.3906,281.8408 Q2692.0156,280.6846 2693.1094,280.0752 Q2694.2031,279.4502 2695.4375,279.4502 Q2696.1719,279.4502 2696.8125,279.6221 Q2697.4688,279.7783 2698.0156,280.1377 Z " fill="#000000"/><text fill="#000000" font-family="sans-serif" font-size="14" lengthAdjust="spacing" textLength="117" x="2715.75" y="290.0596">AgendaRepository</text><line style="stroke:#181818;stroke-width:0.5;" x1="2629" x2="2887" y1="300.2627" y2="300.2627"/><text fill="#000000" font-family="sans-serif" font-size="14" lengthAdjust="spacing" textLength="151" x="2634" y="319.3701">-List&lt;Agenda&gt; agendas</text><line style="stroke:#181818;stroke-width:0.5;" x1="2629" x2="2887" y1="326.8838" y2="326.8838"/><text fill="#000000" font-family="sans-serif" font-size="14" lengthAdjust="spacing" textLength="247" x="2634" y="345.9912">+boolean addAgenda(Agenda agenda)</text><text fill="#000000" font-family="sans-serif" font-size="14" lengthAdjust="spacing" textLength="185" x="2634" y="364.6123">+List&lt;Agenda&gt; getAgendas()</text><text fill="#000000" font-family="sans-serif" font-size="14" lengthAdjust="spacing" textLength="248" x="2634" y="383.2334">+Agenda getAgendaByGSM(GSM gsm)</text><text fill="#000000" font-family="sans-serif" font-size="14" lengthAdjust="spacing" textLength="247" x="2634" y="401.8545">+boolean addAgenda(Agenda agenda)</text></g><!--class Repositories--><g id="elem_Repositories"><rect codeLine="112" fill="#F1F1F1" height="122.4844" id="Repositories" rx="2.5" ry="2.5" style="stroke:#181818;stroke-width:0.5;" width="358" x="1958" y="454.7627"/><ellipse cx="2093.25" cy="470.7627" fill="#ADD1B2" rx="11" ry="11" style="stroke:#181818;stroke-width:1.0;"/><path d="M2096.0156,466.6377 Q2096.1719,466.4189 2096.3594,466.3096 Q2096.5469,466.2002 2096.7656,466.2002 Q2097.1406,466.2002 2097.375,466.4658 Q2097.6094,466.7158 2097.6094,467.3252 L2097.6094,468.7783 Q2097.6094,469.3877 2097.375,469.6533 Q2097.1406,469.9189 2096.7656,469.9189 Q2096.4219,469.9189 2096.2188,469.7158 Q2096.0156,469.5283 2095.9063,469.0127 Q2095.8594,468.6533 2095.6719,468.4658 Q2095.3438,468.0908 2094.7344,467.8721 Q2094.125,467.6533 2093.5,467.6533 Q2092.7344,467.6533 2092.0938,467.9814 Q2091.4688,468.3096 2090.9688,469.0596 Q2090.4844,469.8096 2090.4844,470.8408 L2090.4844,471.9346 Q2090.4844,473.1689 2091.375,473.9971 Q2092.2656,474.8096 2093.8594,474.8096 Q2094.7969,474.8096 2095.4531,474.5596 Q2095.8438,474.4033 2096.2656,473.9658 Q2096.5313,473.7002 2096.6719,473.6221 Q2096.8281,473.5439 2097.0313,473.5439 Q2097.3594,473.5439 2097.6094,473.8096 Q2097.875,474.0596 2097.875,474.4033 Q2097.875,474.7471 2097.5313,475.1533 Q2097.0313,475.7314 2096.2344,476.0596 Q2095.1563,476.5127 2093.8594,476.5127 Q2092.3438,476.5127 2091.1406,475.8877 Q2090.1563,475.3877 2089.4688,474.3252 Q2088.7813,473.2471 2088.7813,471.9658 L2088.7813,470.8096 Q2088.7813,469.4814 2089.3906,468.3408 Q2090.0156,467.1846 2091.1094,466.5752 Q2092.2031,465.9502 2093.4375,465.9502 Q2094.1719,465.9502 2094.8125,466.1221 Q2095.4688,466.2783 2096.0156,466.6377 Z " fill="#000000"/><text fill="#000000" font-family="sans-serif" font-size="14" lengthAdjust="spacing" textLength="79" x="2113.75" y="476.5596">Repositories</text><line style="stroke:#181818;stroke-width:0.5;" x1="1959" x2="2315" y1="486.7627" y2="486.7627"/><line style="stroke:#181818;stroke-width:0.5;" x1="1959" x2="2315" y1="494.7627" y2="494.7627"/><text fill="#000000" font-family="sans-serif" font-size="14" lengthAdjust="spacing" textLength="182" x="1964" y="513.8701">+getInstance() : Repositories</text><text fill="#000000" font-family="sans-serif" font-size="14" lengthAdjust="spacing" textLength="346" x="1964" y="532.4912">+getGreenSpaceRepository() : GreenSpaceRepository</text><text fill="#000000" font-family="sans-serif" font-size="14" lengthAdjust="spacing" textLength="300" x="1964" y="551.1123">+getToDoListRepository() : ToDoListRepository</text><text fill="#000000" font-family="sans-serif" font-size="14" lengthAdjust="spacing" textLength="284" x="1964" y="569.7334">+getAgendaRepository() : AgendaRepository</text></g><!--class AddEntryAgendaUI--><g id="elem_AddEntryAgendaUI"><rect codeLine="119" fill="#F1F1F1" height="271.4531" id="AddEntryAgendaUI" rx="2.5" ry="2.5" style="stroke:#181818;stroke-width:0.5;" width="285" x="983" y="223.2627"/><ellipse cx="1061.75" cy="239.2627" fill="#ADD1B2" rx="11" ry="11" style="stroke:#181818;stroke-width:1.0;"/><path d="M1064.5156,235.1377 Q1064.6719,234.9189 1064.8594,234.8096 Q1065.0469,234.7002 1065.2656,234.7002 Q1065.6406,234.7002 1065.875,234.9658 Q1066.1094,235.2158 1066.1094,235.8252 L1066.1094,237.2783 Q1066.1094,237.8877 1065.875,238.1533 Q1065.6406,238.4189 1065.2656,238.4189 Q1064.9219,238.4189 1064.7188,238.2158 Q1064.5156,238.0283 1064.4063,237.5127 Q1064.3594,237.1533 1064.1719,236.9658 Q1063.8438,236.5908 1063.2344,236.3721 Q1062.625,236.1533 1062,236.1533 Q1061.2344,236.1533 1060.5938,236.4814 Q1059.9688,236.8096 1059.4688,237.5596 Q1058.9844,238.3096 1058.9844,239.3408 L1058.9844,240.4346 Q1058.9844,241.6689 1059.875,242.4971 Q1060.7656,243.3096 1062.3594,243.3096 Q1063.2969,243.3096 1063.9531,243.0596 Q1064.3438,242.9033 1064.7656,242.4658 Q1065.0313,242.2002 1065.1719,242.1221 Q1065.3281,242.0439 1065.5313,242.0439 Q1065.8594,242.0439 1066.1094,242.3096 Q1066.375,242.5596 1066.375,242.9033 Q1066.375,243.2471 1066.0313,243.6533 Q1065.5313,244.2314 1064.7344,244.5596 Q1063.6563,245.0127 1062.3594,245.0127 Q1060.8438,245.0127 1059.6406,244.3877 Q1058.6563,243.8877 1057.9688,242.8252 Q1057.2813,241.7471 1057.2813,240.4658 L1057.2813,239.3096 Q1057.2813,237.9814 1057.8906,236.8408 Q1058.5156,235.6846 1059.6094,235.0752 Q1060.7031,234.4502 1061.9375,234.4502 Q1062.6719,234.4502 1063.3125,234.6221 Q1063.9688,234.7783 1064.5156,235.1377 Z " fill="#000000"/><text fill="#000000" font-family="sans-serif" font-size="14" lengthAdjust="spacing" textLength="119" x="1082.25" y="245.0596">AddEntryAgendaUI</text><line style="stroke:#181818;stroke-width:0.5;" x1="984" x2="1267" y1="255.2627" y2="255.2627"/><text fill="#000000" font-family="sans-serif" font-size="14" lengthAdjust="spacing" textLength="241" x="989" y="274.3701">-controller: AddEntryAgendaController</text><text fill="#000000" font-family="sans-serif" font-size="14" lengthAdjust="spacing" textLength="158" x="989" y="292.9912">-toDoListEntry: TDLEntry</text><text fill="#000000" font-family="sans-serif" font-size="14" lengthAdjust="spacing" textLength="122" x="989" y="311.6123">-entryStatus: String</text><text fill="#000000" font-family="sans-serif" font-size="14" lengthAdjust="spacing" textLength="169" x="989" y="330.2334">-entryStartDate: LocalDate</text><text fill="#000000" font-family="sans-serif" font-size="14" lengthAdjust="spacing" textLength="241" x="989" y="348.8545">-associatedGreenSpace: GreenSpace</text><line style="stroke:#181818;stroke-width:0.5;" x1="984" x2="1267" y1="356.3682" y2="356.3682"/><text fill="#000000" font-family="sans-serif" font-size="14" lengthAdjust="spacing" textLength="273" x="989" y="375.4756">+AddEntryAgendaController getController()</text><text fill="#000000" font-family="sans-serif" font-size="14" lengthAdjust="spacing" textLength="69" x="989" y="394.0967">+void run()</text><text fill="#000000" font-family="sans-serif" font-size="14" lengthAdjust="spacing" textLength="119" x="989" y="412.7178">+void submitData()</text><text fill="#000000" font-family="sans-serif" font-size="14" lengthAdjust="spacing" textLength="126" x="989" y="431.3389">+void requestData()</text><text fill="#000000" font-family="sans-serif" font-size="14" lengthAdjust="spacing" textLength="220" x="989" y="449.96">+TDLEntry requestToDoListEntry()</text><text fill="#000000" font-family="sans-serif" font-size="14" lengthAdjust="spacing" textLength="180" x="989" y="468.5811">+String requestEntryStatus()</text><text fill="#000000" font-family="sans-serif" font-size="14" lengthAdjust="spacing" textLength="246" x="989" y="487.2021">+LocalDate requestEntryStartingDate()</text></g><!--class AddEntryAgendaController--><g id="elem_AddEntryAgendaController"><rect codeLine="134" fill="#F1F1F1" height="252.832" id="AddEntryAgendaController" rx="2.5" ry="2.5" style="stroke:#181818;stroke-width:0.5;" width="1325" x="463" y="529.2627"/><ellipse cx="1036.75" cy="545.2627" fill="#ADD1B2" rx="11" ry="11" style="stroke:#181818;stroke-width:1.0;"/><path d="M1039.5156,541.1377 Q1039.6719,540.9189 1039.8594,540.8096 Q1040.0469,540.7002 1040.2656,540.7002 Q1040.6406,540.7002 1040.875,540.9658 Q1041.1094,541.2158 1041.1094,541.8252 L1041.1094,543.2783 Q1041.1094,543.8877 1040.875,544.1533 Q1040.6406,544.4189 1040.2656,544.4189 Q1039.9219,544.4189 1039.7188,544.2158 Q1039.5156,544.0283 1039.4063,543.5127 Q1039.3594,543.1533 1039.1719,542.9658 Q1038.8438,542.5908 1038.2344,542.3721 Q1037.625,542.1533 1037,542.1533 Q1036.2344,542.1533 1035.5938,542.4814 Q1034.9688,542.8096 1034.4688,543.5596 Q1033.9844,544.3096 1033.9844,545.3408 L1033.9844,546.4346 Q1033.9844,547.6689 1034.875,548.4971 Q1035.7656,549.3096 1037.3594,549.3096 Q1038.2969,549.3096 1038.9531,549.0596 Q1039.3438,548.9033 1039.7656,548.4658 Q1040.0313,548.2002 1040.1719,548.1221 Q1040.3281,548.0439 1040.5313,548.0439 Q1040.8594,548.0439 1041.1094,548.3096 Q1041.375,548.5596 1041.375,548.9033 Q1041.375,549.2471 1041.0313,549.6533 Q1040.5313,550.2314 1039.7344,550.5596 Q1038.6563,551.0127 1037.3594,551.0127 Q1035.8438,551.0127 1034.6406,550.3877 Q1033.6563,549.8877 1032.9688,548.8252 Q1032.2813,547.7471 1032.2813,546.4658 L1032.2813,545.3096 Q1032.2813,543.9814 1032.8906,542.8408 Q1033.5156,541.6846 1034.6094,541.0752 Q1035.7031,540.4502 1036.9375,540.4502 Q1037.6719,540.4502 1038.3125,540.6221 Q1038.9688,540.7783 1039.5156,541.1377 Z " fill="#000000"/><text fill="#000000" font-family="sans-serif" font-size="14" lengthAdjust="spacing" textLength="169" x="1057.25" y="551.0596">AddEntryAgendaController</text><line style="stroke:#181818;stroke-width:0.5;" x1="464" x2="1787" y1="561.2627" y2="561.2627"/><text fill="#000000" font-family="sans-serif" font-size="14" lengthAdjust="spacing" textLength="306" x="469" y="580.3701">-greenSpaceRepository: GreenSpaceRepository</text><text fill="#000000" font-family="sans-serif" font-size="14" lengthAdjust="spacing" textLength="258" x="469" y="598.9912">-toDoListRepository: ToDoListRepository</text><text fill="#000000" font-family="sans-serif" font-size="14" lengthAdjust="spacing" textLength="246" x="469" y="617.6123">-agendaRepository: AgendaRepository</text><text fill="#000000" font-family="sans-serif" font-size="14" lengthAdjust="spacing" textLength="328" x="469" y="636.2334">-authenticationRepository: AuthenticationRepository</text><line style="stroke:#181818;stroke-width:0.5;" x1="464" x2="1787" y1="643.7471" y2="643.7471"/><text fill="#000000" font-family="sans-serif" font-size="14" lengthAdjust="spacing" textLength="1313" x="469" y="662.8545">+AddEntryAgendaController(GreenSpaceRepository greenSpaceRepository, ToDoListRepository toDoListRepository, AgendaRepository agendaRepository, AuthenticationRepository authenticationRepository)</text><text fill="#000000" font-family="sans-serif" font-size="14" lengthAdjust="spacing" textLength="338" x="469" y="681.4756">+GreenSpaceRepository getGreenSpaceRepository()</text><text fill="#000000" font-family="sans-serif" font-size="14" lengthAdjust="spacing" textLength="292" x="469" y="700.0967">+ToDoListRepository getToDoListRepository()</text><text fill="#000000" font-family="sans-serif" font-size="14" lengthAdjust="spacing" textLength="276" x="469" y="718.7178">+AgendaRepository getAgendaRepository()</text><text fill="#000000" font-family="sans-serif" font-size="14" lengthAdjust="spacing" textLength="358" x="469" y="737.3389">+AuthenticationRepository getAuthenticationRepository()</text><text fill="#000000" font-family="sans-serif" font-size="14" lengthAdjust="spacing" textLength="547" x="469" y="755.96">+Optional&lt;AgendaEntry&gt; addEntry(TDLEntry entry, String status, LocalDate startDate)</text><text fill="#000000" font-family="sans-serif" font-size="14" lengthAdjust="spacing" textLength="187" x="469" y="774.5811">+GSM getGSMFromSession()</text></g><!--class GSM--><g id="elem_GSM"><rect codeLine="148" fill="#F1F1F1" height="122.4844" id="GSM" rx="2.5" ry="2.5" style="stroke:#181818;stroke-width:0.5;" width="124" x="1063.5" y="47.7627"/><ellipse cx="1105.95" cy="63.7627" fill="#ADD1B2" rx="11" ry="11" style="stroke:#181818;stroke-width:1.0;"/><path d="M1108.7156,59.6377 Q1108.8719,59.4189 1109.0594,59.3096 Q1109.2469,59.2002 1109.4656,59.2002 Q1109.8406,59.2002 1110.075,59.4658 Q1110.3094,59.7158 1110.3094,60.3252 L1110.3094,61.7783 Q1110.3094,62.3877 1110.075,62.6533 Q1109.8406,62.9189 1109.4656,62.9189 Q1109.1219,62.9189 1108.9188,62.7158 Q1108.7156,62.5283 1108.6063,62.0127 Q1108.5594,61.6533 1108.3719,61.4658 Q1108.0438,61.0908 1107.4344,60.8721 Q1106.825,60.6533 1106.2,60.6533 Q1105.4344,60.6533 1104.7938,60.9814 Q1104.1688,61.3096 1103.6688,62.0596 Q1103.1844,62.8096 1103.1844,63.8408 L1103.1844,64.9346 Q1103.1844,66.1689 1104.075,66.9971 Q1104.9656,67.8096 1106.5594,67.8096 Q1107.4969,67.8096 1108.1531,67.5596 Q1108.5438,67.4033 1108.9656,66.9658 Q1109.2313,66.7002 1109.3719,66.6221 Q1109.5281,66.5439 1109.7313,66.5439 Q1110.0594,66.5439 1110.3094,66.8096 Q1110.575,67.0596 1110.575,67.4033 Q1110.575,67.7471 1110.2313,68.1533 Q1109.7313,68.7314 1108.9344,69.0596 Q1107.8563,69.5127 1106.5594,69.5127 Q1105.0438,69.5127 1103.8406,68.8877 Q1102.8563,68.3877 1102.1688,67.3252 Q1101.4813,66.2471 1101.4813,64.9658 L1101.4813,63.8096 Q1101.4813,62.4814 1102.0906,61.3408 Q1102.7156,60.1846 1103.8094,59.5752 Q1104.9031,58.9502 1106.1375,58.9502 Q1106.8719,58.9502 1107.5125,59.1221 Q1108.1688,59.2783 1108.7156,59.6377 Z " fill="#000000"/><text fill="#000000" font-family="sans-serif" font-size="14" lengthAdjust="spacing" textLength="31" x="1126.05" y="69.5596">GSM</text><line style="stroke:#181818;stroke-width:0.5;" x1="1064.5" x2="1186.5" y1="79.7627" y2="79.7627"/><text fill="#000000" font-family="sans-serif" font-size="14" lengthAdjust="spacing" textLength="81" x="1069.5" y="98.8701">-String name</text><text fill="#000000" font-family="sans-serif" font-size="14" lengthAdjust="spacing" textLength="92" x="1069.5" y="117.4912">-int vatNumber</text><text fill="#000000" font-family="sans-serif" font-size="14" lengthAdjust="spacing" textLength="79" x="1069.5" y="136.1123">-String email</text><text fill="#000000" font-family="sans-serif" font-size="14" lengthAdjust="spacing" textLength="112" x="1069.5" y="154.7334">-int phonenumber</text><line style="stroke:#181818;stroke-width:0.5;" x1="1064.5" x2="1186.5" y1="162.2471" y2="162.2471"/></g><g id="elem_GMN16"><path d="M64,633.2627 L64,677.8447 A0,0 0 0 0 64,677.8447 L344,677.8447 A0,0 0 0 0 344,677.8447 L344,659.7627 L462.96,655.7627 L344,651.7627 L344,643.2627 L334,633.2627 L64,633.2627 A0,0 0 0 0 64,633.2627 " fill="#FEFFDD" style="stroke:#181818;stroke-width:0.5;"/><path d="M334,633.2627 L334,643.2627 L344,643.2627 L334,633.2627 " fill="#FEFFDD" style="stroke:#181818;stroke-width:0.5;"/><text fill="#000000" font-family="sans-serif" font-size="13" lengthAdjust="spacing" textLength="259" x="70" y="652.291">- AgendaEntry data is read from GSM's input</text><text fill="#000000" font-family="sans-serif" font-size="13" lengthAdjust="spacing" textLength="126" x="70" y="669.582">- Updates the Agenda</text></g><g id="elem_GMN19"><path d="M6,86.2627 L6,130.8447 A0,0 0 0 0 6,130.8447 L402,130.8447 A0,0 0 0 0 402,130.8447 L402,112.7627 L1063.26,108.7627 L402,104.7627 L402,96.2627 L392,86.2627 L6,86.2627 A0,0 0 0 0 6,86.2627 " fill="#FEFFDD" style="stroke:#181818;stroke-width:0.5;"/><path d="M392,86.2627 L392,96.2627 L402,96.2627 L392,86.2627 " fill="#FEFFDD" style="stroke:#181818;stroke-width:0.5;"/><text fill="#000000" font-family="sans-serif" font-size="13" lengthAdjust="spacing" textLength="375" x="12" y="105.291">- Responsible for adding Entries to the ToDoList and the Agenda.</text><text fill="#000000" font-family="sans-serif" font-size="13" lengthAdjust="spacing" textLength="258" x="12" y="122.582">- Communicates with the AddEntryAgendaUI</text></g><g id="elem_GMN22"><path d="M35,327.7627 L35,389.6357 A0,0 0 0 0 35,389.6357 L373,389.6357 A0,0 0 0 0 373,389.6357 L373,362.7627 L982.74,358.7627 L373,354.7627 L373,337.7627 L363,327.7627 L35,327.7627 A0,0 0 0 0 35,327.7627 " fill="#FEFFDD" style="stroke:#181818;stroke-width:0.5;"/><path d="M363,327.7627 L363,337.7627 L373,337.7627 L363,327.7627 " fill="#FEFFDD" style="stroke:#181818;stroke-width:0.5;"/><text fill="#000000" font-family="sans-serif" font-size="13" lengthAdjust="spacing" textLength="247" x="41" y="346.791">- UI for GSM to add entries to the ToDoList</text><text fill="#000000" font-family="sans-serif" font-size="13" lengthAdjust="spacing" textLength="279" x="41" y="364.082">- Communicates with AddEntryAgendaController</text><text fill="#000000" font-family="sans-serif" font-size="13" lengthAdjust="spacing" textLength="317" x="41" y="381.373">- Receives repositories from AddEntryAgendaController</text></g><g id="elem_GMN25"><path d="M4693.5,553.2627 L4693.5,562.7627 L4547.39,566.7627 L4693.5,570.7627 L4693.5,580.5537 A0,0 0 0 0 4693.5,580.5537 L4949.5,580.5537 A0,0 0 0 0 4949.5,580.5537 L4949.5,563.2627 L4939.5,553.2627 L4693.5,553.2627 A0,0 0 0 0 4693.5,553.2627 " fill="#FEFFDD" style="stroke:#181818;stroke-width:0.5;"/><path d="M4939.5,553.2627 L4939.5,563.2627 L4949.5,563.2627 L4939.5,553.2627 " fill="#FEFFDD" style="stroke:#181818;stroke-width:0.5;"/><text fill="#000000" font-family="sans-serif" font-size="13" lengthAdjust="spacing" textLength="235" x="4699.5" y="572.291">- Registered by the GSM in the ToDoList</text></g><!--link GSM to AgendaEntry--><g id="link_GSM_AgendaEntry"><path codeLine="175" d="M1187.75,113.2427 C1517.43,137.3827 3066,250.7627 3066,250.7627 C3066,250.7627 3164,561.7627 3164,561.7627 C3164,561.7627 3509.5701,563.4729 3797.9701,564.9029 " fill="none" id="GSM-to-AgendaEntry" style="stroke:#181818;stroke-width:1.0;"/><polygon fill="#181818" points="3803.97,564.9327,3794.9899,560.8881,3798.9701,564.9079,3794.9503,568.888,3803.97,564.9327" style="stroke:#181818;stroke-width:1.0;"/><text fill="#000000" font-family="sans-serif" font-size="13" lengthAdjust="spacing" textLength="50" x="2733" y="201.791">registers</text></g><!--link GSM to ToDoList--><g id="link_GSM_ToDoList"><path codeLine="176" d="M1187.68,110.6827 C1524.12,121.2427 3134,171.7627 3134,171.7627 C3134,171.7627 3715.9628,209.7912 4007.9328,228.8812 " fill="none" id="GSM-to-ToDoList" style="stroke:#181818;stroke-width:1.0;"/><polygon fill="#181818" points="4013.92,229.2727,4005.2002,224.694,4008.9307,228.9465,4004.6782,232.677,4013.92,229.2727" style="stroke:#181818;stroke-width:1.0;"/><text fill="#000000" font-family="sans-serif" font-size="13" lengthAdjust="spacing" textLength="28" x="2744" y="145.791">uses</text></g><!--link GSM to Agenda--><g id="link_GSM_Agenda"><path codeLine="177" d="M1187.75,103.7227 C1406.47,85.7427 2136,25.7627 2136,25.7627 C2136,25.7627 2136,25.7627 4176.5,25.7627 C4176.5,25.7627 4462.9361,57.3452 4653.6861,78.3752 " fill="none" id="GSM-to-Agenda" style="stroke:#181818;stroke-width:1.0;"/><polygon fill="#181818" points="4659.65,79.0327,4651.1425,74.0705,4654.6801,78.4848,4650.2659,82.0223,4659.65,79.0327" style="stroke:#181818;stroke-width:1.0;"/><text fill="#000000" font-family="sans-serif" font-size="13" lengthAdjust="spacing" textLength="28" x="3101" y="21.791">uses</text></g><!--link AgendaEntry to Agenda--><g id="link_AgendaEntry_Agenda"><path codeLine="178" d="M4467.97,393.6927 C4514.13,366.2827 4547,346.7627 4547,346.7627 C4547,346.7627 4639.9411,261.8005 4718.4911,190.0105 " fill="none" id="AgendaEntry-to-Agenda" style="stroke:#181818;stroke-width:1.0;"/><polygon fill="#181818" points="4722.92,185.9627,4713.5781,189.0817,4719.2292,189.3358,4718.9751,194.987,4722.92,185.9627" style="stroke:#181818;stroke-width:1.0;"/><text fill="#000000" font-family="sans-serif" font-size="13" lengthAdjust="spacing" textLength="51" x="4578" y="268.791">shown in</text></g><!--link TDLEntry to ToDoList--><g id="link_TDLEntry_ToDoList"><path codeLine="179" d="M3664.21,365.4027 C3779.26,337.0727 3906.6741,305.7075 4008.1441,280.7175 " fill="none" id="TDLEntry-to-ToDoList" style="stroke:#181818;stroke-width:1.0;"/><polygon fill="#181818" points="4013.97,279.2827,4004.2746,277.551,4009.1151,280.4784,4006.1877,285.3188,4013.97,279.2827" style="stroke:#181818;stroke-width:1.0;"/><text fill="#000000" font-family="sans-serif" font-size="13" lengthAdjust="spacing" textLength="51" x="3708.5" y="334.791">shown in</text></g><!--link TDLEntry to AgendaEntry--><g id="link_TDLEntry_AgendaEntry"><path codeLine="180" d="M3664.21,472.7027 C3708.98,480.9527 3750.5893,488.6256 3797.9193,497.3456 " fill="none" id="TDLEntry-to-AgendaEntry" style="stroke:#181818;stroke-width:1.0;"/><polygon fill="#181818" points="3803.82,498.4327,3795.6937,492.8682,3798.9028,497.5268,3794.2442,500.7358,3803.82,498.4327" style="stroke:#181818;stroke-width:1.0;"/><text fill="#000000" font-family="sans-serif" font-size="13" lengthAdjust="spacing" textLength="54" x="3707" y="475.791">related to</text></g><!--link GSM to AddEntryAgendaUI--><g id="link_GSM_AddEntryAgendaUI"><path codeLine="181" d="M1125.5,169.9727 C1125.5,186.2827 1125.5,198.5627 1125.5,217.1527 " fill="none" id="GSM-to-AddEntryAgendaUI" style="stroke:#181818;stroke-width:1.0;"/><polygon fill="#181818" points="1125.5,223.1527,1129.5,214.1527,1125.5,218.1527,1121.5,214.1527,1125.5,223.1527" style="stroke:#181818;stroke-width:1.0;"/><text fill="#000000" font-family="sans-serif" font-size="13" lengthAdjust="spacing" textLength="28" x="1099" y="202.041">uses</text></g><!--link GreenSpace to AgendaEntry--><g id="link_GreenSpace_AgendaEntry"><path codeLine="182" d="M3587.34,729.1127 C3652.01,711.2327 3722.4671,691.7521 3798.2171,670.8021 " fill="none" id="GreenSpace-to-AgendaEntry" style="stroke:#181818;stroke-width:1.0;"/><polygon fill="#181818" points="3804,669.2027,3794.2594,667.7465,3799.1809,670.5355,3796.3919,675.457,3804,669.2027" style="stroke:#181818;stroke-width:1.0;"/><text fill="#000000" font-family="sans-serif" font-size="13" lengthAdjust="spacing" textLength="78" x="3695" y="673.791">associated to</text></g><!--link GreenSpace to TDLEntry--><g id="link_GreenSpace_TDLEntry"><path codeLine="183" d="M3414,649.9127 C3414,615.2827 3414,583.9327 3414,549.8727 " fill="none" id="GreenSpace-to-TDLEntry" style="stroke:#181818;stroke-width:1.0;"/><polygon fill="#181818" points="3414,543.8727,3410,552.8727,3414,548.8727,3418,552.8727,3414,543.8727" style="stroke:#181818;stroke-width:1.0;"/><text fill="#000000" font-family="sans-serif" font-size="13" lengthAdjust="spacing" textLength="78" x="3362.5" y="602.541">associated to</text></g><!--link Repositories to Repositories--><g id="link_Repositories_Repositories"><path codeLine="185" d="M2090.9,454.3627 C2091.6,435.0227 2106.97,419.7627 2137,419.7627 C2167.03,419.7627 2182.183,429.0266 2182.883,448.3666 " fill="none" id="Repositories-to-Repositories" style="stroke:#181818;stroke-width:1.0;"/><polygon fill="#181818" points="2183.1,454.3627,2186.7718,445.2239,2182.9191,449.366,2178.7771,445.5133,2183.1,454.3627" style="stroke:#181818;stroke-width:1.0;"/><text fill="#000000" font-family="sans-serif" font-size="13" lengthAdjust="spacing" textLength="49" x="2112.5" y="410.791">instance</text></g><!--link ApplicationSession to ApplicationSession--><g id="link_ApplicationSession_ApplicationSession"><path codeLine="186" d="M2091.51,843.1227 C2087.48,824.3827 2102.65,808.2627 2137,808.2627 C2171.35,808.2627 2187.7814,818.5168 2183.7514,837.2568 " fill="none" id="ApplicationSession-to-ApplicationSession" style="stroke:#181818;stroke-width:1.0;"/><polygon fill="#181818" points="2182.49,843.1227,2188.2928,835.1648,2183.5412,838.2344,2180.4716,833.4829,2182.49,843.1227" style="stroke:#181818;stroke-width:1.0;"/><text fill="#000000" font-family="sans-serif" font-size="13" lengthAdjust="spacing" textLength="49" x="2112.5" y="799.291">instance</text></g><!--link AddEntryAgendaUI to AddEntryAgendaController--><g id="link_AddEntryAgendaUI_AddEntryAgendaController"><path codeLine="188" d="M1125.5,494.4427 C1125.5,505.9427 1125.5,512.4327 1125.5,523.1827 " fill="none" id="AddEntryAgendaUI-to-AddEntryAgendaController" style="stroke:#181818;stroke-width:1.0;stroke-dasharray:7.0,7.0;"/><polygon fill="#181818" points="1125.5,529.1827,1129.5,520.1827,1125.5,524.1827,1121.5,520.1827,1125.5,529.1827" style="stroke:#181818;stroke-width:1.0;"/></g><!--link AddEntryAgendaController to Repositories--><g id="link_AddEntryAgendaController_Repositories"><path codeLine="190" d="M1788.23,563.9927 C1849.61,555.4827 1901.5969,548.2668 1951.9369,541.2868 " fill="none" id="AddEntryAgendaController-to-Repositories" style="stroke:#181818;stroke-width:1.0;"/><polygon fill="#181818" points="1957.88,540.4627,1948.4159,537.7367,1952.9274,541.1494,1949.5147,545.6609,1957.88,540.4627" style="stroke:#181818;stroke-width:1.0;"/><text fill="#000000" font-family="sans-serif" font-size="13" lengthAdjust="spacing" textLength="108" x="1819" y="541.791">retrieves instances</text></g><!--link Repositories to GreenSpaceRepository--><g id="link_Repositories_GreenSpaceRepository"><path codeLine="192" d="M2316.21,576.2227 C2388.89,600.8827 2467.7481,627.6351 2543.2381,653.2451 " fill="none" id="Repositories-to-GreenSpaceRepository" style="stroke:#181818;stroke-width:1.0;"/><polygon fill="#181818" points="2548.92,655.1727,2541.6822,648.4933,2544.1851,653.5664,2539.112,656.0693,2548.92,655.1727" style="stroke:#181818;stroke-width:1.0;"/><text fill="#000000" font-family="sans-serif" font-size="13" lengthAdjust="spacing" textLength="56" x="2355" y="584.791">accesses</text></g><!--link Repositories to ToDoListRepository--><g id="link_Repositories_ToDoListRepository"><path codeLine="193" d="M2316.21,515.7627 C2412.29,515.7627 2523.08,515.7627 2612.3,515.7627 " fill="none" id="Repositories-to-ToDoListRepository" style="stroke:#181818;stroke-width:1.0;"/><polygon fill="#181818" points="2618.3,515.7627,2609.3,511.7627,2613.3,515.7627,2609.3,519.7627,2618.3,515.7627" style="stroke:#181818;stroke-width:1.0;"/><text fill="#000000" font-family="sans-serif" font-size="13" lengthAdjust="spacing" textLength="56" x="2355" y="511.791">accesses</text></g><!--link Repositories to AgendaRepository--><g id="link_Repositories_AgendaRepository"><path codeLine="194" d="M2316.21,464.8027 C2415.68,436.3627 2531.5912,403.2224 2621.8812,377.4024 " fill="none" id="Repositories-to-AgendaRepository" style="stroke:#181818;stroke-width:1.0;"/><polygon fill="#181818" points="2627.65,375.7527,2617.8971,374.3814,2622.8427,377.1274,2620.0966,382.073,2627.65,375.7527" style="stroke:#181818;stroke-width:1.0;"/><text fill="#000000" font-family="sans-serif" font-size="13" lengthAdjust="spacing" textLength="56" x="2355" y="433.791">accesses</text></g><!--link AddEntryAgendaController to GreenSpaceRepository--><g id="link_AddEntryAgendaController_GreenSpaceRepository"><path codeLine="196" d="M1788.23,685.2127 C1887.82,689.6427 1958,692.7627 1958,692.7627 C1958,692.7627 2218.6051,703.5251 2443.8051,712.8251 " fill="none" id="AddEntryAgendaController-to-GreenSpaceRepository" style="stroke:#181818;stroke-width:1.0;stroke-dasharray:7.0,7.0;"/><polygon fill="#181818" points="2449.8,713.0727,2440.9727,708.7047,2444.8043,712.8664,2440.6426,716.6979,2449.8,713.0727" style="stroke:#181818;stroke-width:1.0;"/><text fill="#000000" font-family="sans-serif" font-size="13" lengthAdjust="spacing" textLength="131" x="2071.5" y="688.791">greenSpaceRepository</text></g><!--link AddEntryAgendaController to ToDoListRepository--><g id="link_AddEntryAgendaController_ToDoListRepository"><path codeLine="197" d="M1788.21,632.4027 C2061.67,622.7427 2316,613.7627 2316,613.7627 C2316,613.7627 2483.2128,576.6041 2612.5128,547.8741 " fill="none" id="AddEntryAgendaController-to-ToDoListRepository" style="stroke:#181818;stroke-width:1.0;stroke-dasharray:7.0,7.0;"/><polygon fill="#181818" points="2618.37,546.5727,2608.7166,544.6201,2613.489,547.6572,2610.4519,552.4296,2618.37,546.5727" style="stroke:#181818;stroke-width:1.0;"/><text fill="#000000" font-family="sans-serif" font-size="13" lengthAdjust="spacing" textLength="110" x="2082" y="609.791">toDoListRepository</text></g><!--link AddEntryAgendaController to AgendaRepository--><g id="link_AddEntryAgendaController_AgendaRepository"><path codeLine="198" d="M1707.88,529.2027 C1756.77,518.5627 1788,511.7627 1788,511.7627 C1788,511.7627 1958,390.7627 1958,390.7627 C1958,390.7627 2395.6127,362.2824 2621.7527,347.5624 " fill="none" id="AddEntryAgendaController-to-AgendaRepository" style="stroke:#181818;stroke-width:1.0;stroke-dasharray:7.0,7.0;"/><polygon fill="#181818" points="2627.74,347.1727,2618.4992,343.7657,2622.7506,347.4975,2619.0188,351.7488,2627.74,347.1727" style="stroke:#181818;stroke-width:1.0;"/><text fill="#000000" font-family="sans-serif" font-size="13" lengthAdjust="spacing" textLength="104" x="2085" y="363.791">agendaRepository</text></g><!--link ApplicationSession to UserSession--><g id="link_ApplicationSession_UserSession"><path codeLine="200" d="M2212.67,893.8427 C2338.39,907.4527 2583.5748,933.987 2695.2648,946.077 " fill="none" id="ApplicationSession-to-UserSession" style="stroke:#181818;stroke-width:1.0;"/><polygon fill="#181818" points="2701.23,946.7227,2692.7127,941.7774,2696.259,946.1846,2691.8518,949.7309,2701.23,946.7227" style="stroke:#181818;stroke-width:1.0;"/><text fill="#000000" font-family="sans-serif" font-size="13" lengthAdjust="spacing" textLength="72" x="2347" y="904.791">userSession</text><text fill="#000000" font-family="sans-serif" font-size="13" lengthAdjust="spacing" textLength="7" x="2686.5079" y="961.1091">1</text></g><!--link AddEntryAgendaController to ApplicationSession--><g id="link_AddEntryAgendaController_ApplicationSession"><path codeLine="202" d="M1681.82,782.2827 C1832.47,816.6027 1971.19,848.2094 2055.3,867.3794 " fill="none" id="AddEntryAgendaController-to-ApplicationSession" style="stroke:#181818;stroke-width:1.0;stroke-dasharray:7.0,7.0;"/><polygon fill="#181818" points="2061.15,868.7127,2053.2639,862.8128,2056.275,867.6016,2051.4862,870.6127,2061.15,868.7127" style="stroke:#181818;stroke-width:1.0;"/></g><!--link AddEntryAgendaController to UserSession--><g id="link_AddEntryAgendaController_UserSession"><path codeLine="203" d="M1489.39,782.3327 C1713.3,860.4227 1958,945.7627 1958,945.7627 C1958,945.7627 2514.2502,950.6404 2695.4502,952.2204 " fill="none" id="AddEntryAgendaController-to-UserSession" style="stroke:#181818;stroke-width:1.0;stroke-dasharray:7.0,7.0;"/><polygon fill="#181818" points="2701.45,952.2727,2692.4852,948.1944,2696.4502,952.2291,2692.4155,956.1941,2701.45,952.2727" style="stroke:#181818;stroke-width:1.0;"/></g><!--link GreenSpaceRepository to GreenSpace--><g id="link_GreenSpaceRepository_GreenSpace"><path codeLine="205" d="M3066.37,749.7327 C3126.39,754.4127 3181.3081,758.6967 3234.9681,762.8767 " fill="none" id="GreenSpaceRepository-to-GreenSpace" style="stroke:#181818;stroke-width:1.0;stroke-dasharray:7.0,7.0;"/><polygon fill="#181818" points="3240.95,763.3427,3232.2878,758.6558,3235.9651,762.9544,3231.6665,766.6317,3240.95,763.3427" style="stroke:#181818;stroke-width:1.0;"/><text fill="#000000" font-family="sans-serif" font-size="13" lengthAdjust="spacing" textLength="36" x="3097" y="748.791">stores</text></g><!--link ToDoListRepository to ToDoList--><g id="link_ToDoListRepository_ToDoList"><path codeLine="206" d="M2897.68,475.5627 C2979.04,451.9727 3066,426.7627 3066,426.7627 C3066,426.7627 3164,292.7627 3164,292.7627 C3164,292.7627 3722.7182,263.4569 4007.8282,248.5069 " fill="none" id="ToDoListRepository-to-ToDoList" style="stroke:#181818;stroke-width:1.0;stroke-dasharray:7.0,7.0;"/><polygon fill="#181818" points="4013.82,248.1927,4004.6229,244.6695,4008.8269,248.4545,4005.0418,252.6585,4013.82,248.1927" style="stroke:#181818;stroke-width:1.0;"/><text fill="#000000" font-family="sans-serif" font-size="13" lengthAdjust="spacing" textLength="36" x="3396" y="262.791">stores</text></g><!--link AgendaRepository to Agenda--><g id="link_AgendaRepository_Agenda"><path codeLine="207" d="M2888.26,307.1627 C3006.78,278.1927 3164,239.7627 3164,239.7627 C3164,239.7627 3804,133.7627 3804,133.7627 C3804,133.7627 4367.554,113.251 4653.994,102.821 " fill="none" id="AgendaRepository-to-Agenda" style="stroke:#181818;stroke-width:1.0;stroke-dasharray:7.0,7.0;"/><polygon fill="#181818" points="4659.99,102.6027,4650.8504,98.9328,4654.9933,102.7846,4651.1415,106.9275,4659.99,102.6027" style="stroke:#181818;stroke-width:1.0;"/><text fill="#000000" font-family="sans-serif" font-size="13" lengthAdjust="spacing" textLength="36" x="3716" y="134.791">stores</text></g><!--SRC=[tLXBR-Cs4BxhLn1xYOhOGNir2WDfaYu2x6w0TNRlj4JRR6HI9Qa4Rj7_tk6R4Ybd5zb3qHmSY_FDy9i7EMDTo2VAUYpm4Hqvuyr1y2D1IWoaYf8UDqzuJpRgr14aIACmstSfG1vmoryeswCTxcGgwIWZwjGJrFFkf1-gYuAG2yMhHAlfi9JNIWcw7HIvRpZRqBy8-hcgEh9JI74awFwWK4ir6yfPLHaLTDtt7MsmNjeGARNaxmh1toMI2fORj2Vgdi5trf3w9oU2jPj12CAKKmB9Fzxa5qd4r1OewEMx8wPTYdql264R21T15hf431_92ct05RPtIzhboH8M1AzGouSjnDNk4MtL5cfCBPoUCR9m6aRTE_FCQOkUSKTRh4WqyWcKKqElm1_1V9rizGhy6WZK1J9RpZk26I9_3b0OzSFs3yWNubvCcK87B0ytl8tPI8BOT9n5WJT6vSCkToSauV7smnrJuXHIeAZgiXnW-NHBP2Dehujb8Xt4dh3cD5bj1u4BODYJDnJ2qKRcgyGBnzxJ2b7Lh68wntp2kcCIdZs7QKnmc-nU9o7SXwzloKc8gSz8YFOry6lnVo_WAUoHuECAwSzCz9KSQDCHkK8Vg5I_kiUrm-axOv2JxM5Hg5jG1XtUu4v_TM5AWl5ZqXmMB9D5t37I-06b02ewEhN-G0e-2W0NcjhzHy_s_rkgAgsThB0U-ItNEGbL1TUpe25JYQxFrbv2bjzlFlgQTGRg3EzDBJHQgnNSjKcqt3JyzARZutsPEJx_1n_F9ZDMuMVISqaLTzV5qdeQvUkaJ6Mb3J-OeuAx4KYGFUWHyRrTSXIExpupKI5lWUUqSX-9YeycWONABuVAIzSm1jblSkfAg8fGTnwQq8bsW8n_aBL51CL4zji9GbVFXU_SdfDgB_jbPMk4pV_C9okktNcneCGRhmryxLVlYLC8w-UzAEyI-0VcSB0CzylnF8bM8uW7bAhVW4i2hvHNWL79bxt2DBW6FbrCSk7ElqLykNUvW5bR2TvrHAmca9iWCK2VNeDOXGcXyjVOQJDjdd6zr3-_gQzVpd8oGtnuSiatqweOMFeeX-sHwltn20HN7P7fSXXvdEWnzTTXt2tZ47VHQoUFtNe24Ghqj63K2-PSivdP5ufbjeHYVb9miNYMhivJO5Os1ZQe0sJG_RuQmMSaPpDM5vj2oSj5wKhC_LlazylKiyKirLdlR2RBNEUEzkWE7IkKZdLoKOt1-P6sq3aVjCgCpAc6PZgQ5S8i48hUdDHldJulRLE5Q6m-_YxuiV0hMWFCaBD4IP-s2tgSUCRgqt3SchibOeZ-WHr1_G762cPXO9bn869U2F3T-RigdKsWQsFu2Gad4hTe1smrjmi96_I3CkWllUxi4a4WdMO57qXlDzdK369BkFDbpvcaUiZOSQ73gTdVsGbClwxGfa9Zn60ishxI5cxuyJWmdJJ0lr1ri8395Jr78yCPB-uD5nru802K_4GuvMFGEO6p0VrC6aAVYOvYqX5DD6Vr9kJj6npDFYR71jDETgH5svCXgbsWRCmv6jFIvNATcbc5yL06iTTSeK4IET5oYscPf49vu2yCA5JXU8mjbkKJGfrkR11xk_KwIved5gV8p4XiaCPEWbo7TZL5LQEP1O2ZvnMmjiDBbRywCopprKIdoeQ8g_Ly0LIp3MxPGW1pReBeWjLbvdUKKt-SOl5wXb0qeAAZMbGgND2lgMINTA8mxzxLrIp3KhixRwZ8Ec-6vusK_9Ys_695G0pU_V8kVIcAJE66LwIlx9k_dpsBJr- -LiKGZcCBPn5M8Hc5AAN12xWi434w0VCl]--></g></svg>