<?xml version="1.0" encoding="us-ascii" standalone="no"?><svg xmlns="http://www.w3.org/2000/svg" xmlns:xlink="http://www.w3.org/1999/xlink" contentStyleType="text/css" height="346.8px" preserveAspectRatio="none" style="width:602px;height:346px;background:#FFFFFF;" version="1.1" viewBox="0 0 602 346" width="602.2px" zoomAndPan="magnify"><defs/><g><!--class ApplicationSession--><g id="elem_ApplicationSession"><rect codeLine="10" fill="#F1F1F1" height="17.0484" id="ApplicationSession" rx="0.5" ry="0.5" style="stroke:#181818;stroke-width:0.10000000000000002;" width="30.2" x="551.5" y="77.9"/><ellipse cx="554.5" cy="81.1" fill="#ADD1B2" rx="2.2" ry="2.2" style="stroke:#181818;stroke-width:0.20000000000000004;"/><path d="M555.0531,80.275 Q555.0844,80.2313 555.1219,80.2094 Q555.1594,80.1875 555.2031,80.1875 Q555.2781,80.1875 555.325,80.2406 Q555.3719,80.2906 555.3719,80.4125 L555.3719,80.7031 Q555.3719,80.825 555.325,80.8781 Q555.2781,80.9313 555.2031,80.9313 Q555.1344,80.9313 555.0938,80.8906 Q555.0531,80.8531 555.0313,80.75 Q555.0219,80.6781 554.9844,80.6406 Q554.9188,80.5656 554.7969,80.5219 Q554.675,80.4781 554.55,80.4781 Q554.3969,80.4781 554.2688,80.5438 Q554.1438,80.6094 554.0438,80.7594 Q553.9469,80.9094 553.9469,81.1156 L553.9469,81.3344 Q553.9469,81.5813 554.125,81.7469 Q554.3031,81.9094 554.6219,81.9094 Q554.8094,81.9094 554.9406,81.8594 Q555.0188,81.8281 555.1031,81.7406 Q555.1563,81.6875 555.1844,81.6719 Q555.2156,81.6563 555.2563,81.6563 Q555.3219,81.6563 555.3719,81.7094 Q555.425,81.7594 555.425,81.8281 Q555.425,81.8969 555.3563,81.9781 Q555.2563,82.0938 555.0969,82.1594 Q554.8813,82.25 554.6219,82.25 Q554.3188,82.25 554.0781,82.125 Q553.8813,82.025 553.7438,81.8125 Q553.6063,81.5969 553.6063,81.3406 L553.6063,81.1094 Q553.6063,80.8438 553.7281,80.6156 Q553.8531,80.3844 554.0719,80.2625 Q554.2906,80.1375 554.5375,80.1375 Q554.6844,80.1375 554.8125,80.1719 Q554.9438,80.2031 555.0531,80.275 Z " fill="#000000"/><text fill="#000000" font-family="sans-serif" font-size="2.8" lengthAdjust="spacing" textLength="23.8" x="557.3" y="82.2594">ApplicationSession</text><line style="stroke:#181818;stroke-width:0.10000000000000002;" x1="551.7" x2="581.5" y1="84.3" y2="84.3"/><line style="stroke:#181818;stroke-width:0.10000000000000002;" x1="551.7" x2="581.5" y1="85.9" y2="85.9"/><text fill="#000000" font-family="sans-serif" font-size="2.8" lengthAdjust="spacing" textLength="25.6" x="552.7" y="89.7215">+static getInstance()</text><text fill="#000000" font-family="sans-serif" font-size="2.8" lengthAdjust="spacing" textLength="27.2" x="552.7" y="93.4457">+getCurrentSession()</text></g><!--class UserSession--><g id="elem_UserSession"><rect codeLine="16" fill="#F1F1F1" height="13.3242" id="UserSession" rx="0.5" ry="0.5" style="stroke:#181818;stroke-width:0.10000000000000002;" width="22.6" x="539.5" y="121.8"/><ellipse cx="542.68" cy="125" fill="#ADD1B2" rx="2.2" ry="2.2" style="stroke:#181818;stroke-width:0.20000000000000004;"/><path d="M543.2331,124.175 Q543.2644,124.1313 543.3019,124.1094 Q543.3394,124.0875 543.3831,124.0875 Q543.4581,124.0875 543.505,124.1406 Q543.5519,124.1906 543.5519,124.3125 L543.5519,124.6031 Q543.5519,124.725 543.505,124.7781 Q543.4581,124.8313 543.3831,124.8313 Q543.3144,124.8313 543.2738,124.7906 Q543.2331,124.7531 543.2113,124.65 Q543.2019,124.5781 543.1644,124.5406 Q543.0988,124.4656 542.9769,124.4219 Q542.855,124.3781 542.73,124.3781 Q542.5769,124.3781 542.4488,124.4438 Q542.3238,124.5094 542.2238,124.6594 Q542.1269,124.8094 542.1269,125.0156 L542.1269,125.2344 Q542.1269,125.4813 542.305,125.6469 Q542.4831,125.8094 542.8019,125.8094 Q542.9894,125.8094 543.1206,125.7594 Q543.1988,125.7281 543.2831,125.6406 Q543.3363,125.5875 543.3644,125.5719 Q543.3956,125.5563 543.4363,125.5563 Q543.5019,125.5563 543.5519,125.6094 Q543.605,125.6594 543.605,125.7281 Q543.605,125.7969 543.5363,125.8781 Q543.4363,125.9938 543.2769,126.0594 Q543.0613,126.15 542.8019,126.15 Q542.4988,126.15 542.2581,126.025 Q542.0613,125.925 541.9238,125.7125 Q541.7863,125.4969 541.7863,125.2406 L541.7863,125.0094 Q541.7863,124.7438 541.9081,124.5156 Q542.0331,124.2844 542.2519,124.1625 Q542.4706,124.0375 542.7175,124.0375 Q542.8644,124.0375 542.9925,124.0719 Q543.1238,124.1031 543.2331,124.175 Z " fill="#000000"/><text fill="#000000" font-family="sans-serif" font-size="2.8" lengthAdjust="spacing" textLength="15.8" x="545.52" y="126.1594">UserSession</text><line style="stroke:#181818;stroke-width:0.10000000000000002;" x1="539.7" x2="561.9" y1="128.2" y2="128.2"/><line style="stroke:#181818;stroke-width:0.10000000000000002;" x1="539.7" x2="561.9" y1="129.8" y2="129.8"/><text fill="#000000" font-family="sans-serif" font-size="2.8" lengthAdjust="spacing" textLength="20.2" x="540.7" y="133.6215">+getUserEmail()</text></g><!--class GreenSpace--><g id="elem_GreenSpace"><rect codeLine="21" fill="#F1F1F1" height="50.5664" id="GreenSpace" rx="0.5" ry="0.5" style="stroke:#181818;stroke-width:0.10000000000000002;" width="69.2" x="185" y="158.4"/><ellipse cx="210.75" cy="161.6" fill="#ADD1B2" rx="2.2" ry="2.2" style="stroke:#181818;stroke-width:0.20000000000000004;"/><path d="M211.3031,160.775 Q211.3344,160.7313 211.3719,160.7094 Q211.4094,160.6875 211.4531,160.6875 Q211.5281,160.6875 211.575,160.7406 Q211.6219,160.7906 211.6219,160.9125 L211.6219,161.2031 Q211.6219,161.325 211.575,161.3781 Q211.5281,161.4313 211.4531,161.4313 Q211.3844,161.4313 211.3438,161.3906 Q211.3031,161.3531 211.2813,161.25 Q211.2719,161.1781 211.2344,161.1406 Q211.1688,161.0656 211.0469,161.0219 Q210.925,160.9781 210.8,160.9781 Q210.6469,160.9781 210.5188,161.0438 Q210.3938,161.1094 210.2938,161.2594 Q210.1969,161.4094 210.1969,161.6156 L210.1969,161.8344 Q210.1969,162.0813 210.375,162.2469 Q210.5531,162.4094 210.8719,162.4094 Q211.0594,162.4094 211.1906,162.3594 Q211.2688,162.3281 211.3531,162.2406 Q211.4063,162.1875 211.4344,162.1719 Q211.4656,162.1563 211.5063,162.1563 Q211.5719,162.1563 211.6219,162.2094 Q211.675,162.2594 211.675,162.3281 Q211.675,162.3969 211.6063,162.4781 Q211.5063,162.5938 211.3469,162.6594 Q211.1313,162.75 210.8719,162.75 Q210.5688,162.75 210.3281,162.625 Q210.1313,162.525 209.9938,162.3125 Q209.8563,162.0969 209.8563,161.8406 L209.8563,161.6094 Q209.8563,161.3438 209.9781,161.1156 Q210.1031,160.8844 210.3219,160.7625 Q210.5406,160.6375 210.7875,160.6375 Q210.9344,160.6375 211.0625,160.6719 Q211.1938,160.7031 211.3031,160.775 Z " fill="#000000"/><text fill="#000000" font-family="sans-serif" font-size="2.8" lengthAdjust="spacing" textLength="16" x="214.85" y="162.7594">GreenSpace</text><line style="stroke:#181818;stroke-width:0.10000000000000002;" x1="185.2" x2="254" y1="164.8" y2="164.8"/><text fill="#000000" font-family="sans-serif" font-size="2.8" lengthAdjust="spacing" textLength="17" x="186.2" y="168.6215">-name: String</text><text fill="#000000" font-family="sans-serif" font-size="2.8" lengthAdjust="spacing" textLength="15.4" x="186.2" y="172.3457">-type: String</text><text fill="#000000" font-family="sans-serif" font-size="2.8" lengthAdjust="spacing" textLength="17" x="186.2" y="176.0699">-area: double</text><line style="stroke:#181818;stroke-width:0.10000000000000002;" x1="185.2" x2="254" y1="177.5727" y2="177.5727"/><text fill="#000000" font-family="sans-serif" font-size="2.8" lengthAdjust="spacing" textLength="66.8" x="186.2" y="181.3941">+GreenSpace(String name, String type, double area)</text><text fill="#000000" font-family="sans-serif" font-size="2.8" lengthAdjust="spacing" textLength="57.8" x="186.2" y="185.1184">+void validateGreenSpaceName(String name)</text><text fill="#000000" font-family="sans-serif" font-size="2.8" lengthAdjust="spacing" textLength="55.4" x="186.2" y="188.8426">+void validateGreenSpaceType(String type)</text><text fill="#000000" font-family="sans-serif" font-size="2.8" lengthAdjust="spacing" textLength="56.6" x="186.2" y="192.5668">+void validateGreenSpaceArea(double area)</text><text fill="#000000" font-family="sans-serif" font-size="2.8" lengthAdjust="spacing" textLength="33.6" x="186.2" y="196.291">+boolean equals(Object o)</text><text fill="#000000" font-family="sans-serif" font-size="2.8" lengthAdjust="spacing" textLength="20.4" x="186.2" y="200.0152">+int hashCode()</text><text fill="#000000" font-family="sans-serif" font-size="2.8" lengthAdjust="spacing" textLength="27.2" x="186.2" y="203.7395">+GreenSpace clone()</text><text fill="#000000" font-family="sans-serif" font-size="2.8" lengthAdjust="spacing" textLength="42" x="186.2" y="207.4637">+boolean isOfName(String name)</text></g><!--class TDLEntry--><g id="elem_TDLEntry"><rect codeLine="35" fill="#F1F1F1" height="46.8422" id="TDLEntry" rx="0.5" ry="0.5" style="stroke:#181818;stroke-width:0.10000000000000002;" width="100" x="277.2" y="160.3"/><ellipse cx="320.35" cy="163.5" fill="#ADD1B2" rx="2.2" ry="2.2" style="stroke:#181818;stroke-width:0.20000000000000004;"/><path d="M320.9031,162.675 Q320.9344,162.6313 320.9719,162.6094 Q321.0094,162.5875 321.0531,162.5875 Q321.1281,162.5875 321.175,162.6406 Q321.2219,162.6906 321.2219,162.8125 L321.2219,163.1031 Q321.2219,163.225 321.175,163.2781 Q321.1281,163.3313 321.0531,163.3313 Q320.9844,163.3313 320.9438,163.2906 Q320.9031,163.2531 320.8813,163.15 Q320.8719,163.0781 320.8344,163.0406 Q320.7688,162.9656 320.6469,162.9219 Q320.525,162.8781 320.4,162.8781 Q320.2469,162.8781 320.1188,162.9438 Q319.9938,163.0094 319.8938,163.1594 Q319.7969,163.3094 319.7969,163.5156 L319.7969,163.7344 Q319.7969,163.9813 319.975,164.1469 Q320.1531,164.3094 320.4719,164.3094 Q320.6594,164.3094 320.7906,164.2594 Q320.8688,164.2281 320.9531,164.1406 Q321.0063,164.0875 321.0344,164.0719 Q321.0656,164.0563 321.1063,164.0563 Q321.1719,164.0563 321.2219,164.1094 Q321.275,164.1594 321.275,164.2281 Q321.275,164.2969 321.2063,164.3781 Q321.1063,164.4938 320.9469,164.5594 Q320.7313,164.65 320.4719,164.65 Q320.1688,164.65 319.9281,164.525 Q319.7313,164.425 319.5938,164.2125 Q319.4563,163.9969 319.4563,163.7406 L319.4563,163.5094 Q319.4563,163.2438 319.5781,163.0156 Q319.7031,162.7844 319.9219,162.6625 Q320.1406,162.5375 320.3875,162.5375 Q320.5344,162.5375 320.6625,162.5719 Q320.7938,162.6031 320.9031,162.675 Z " fill="#000000"/><text fill="#000000" font-family="sans-serif" font-size="2.8" lengthAdjust="spacing" textLength="12" x="324.45" y="164.6594">TDLEntry</text><line style="stroke:#181818;stroke-width:0.10000000000000002;" x1="277.4" x2="377" y1="166.7" y2="166.7"/><text fill="#000000" font-family="sans-serif" font-size="2.8" lengthAdjust="spacing" textLength="14.4" x="278.4" y="170.5215">-title: String</text><text fill="#000000" font-family="sans-serif" font-size="2.8" lengthAdjust="spacing" textLength="29.4" x="278.4" y="174.2457">-taskDescription: String</text><text fill="#000000" font-family="sans-serif" font-size="2.8" lengthAdjust="spacing" textLength="20.2" x="278.4" y="177.9699">-urgency: String</text><text fill="#000000" font-family="sans-serif" font-size="2.8" lengthAdjust="spacing" textLength="20.4" x="278.4" y="181.6941">-duration: String</text><text fill="#000000" font-family="sans-serif" font-size="2.8" lengthAdjust="spacing" textLength="48.2" x="278.4" y="185.4184">-associatedGreenSpace: GreenSpace</text><line style="stroke:#181818;stroke-width:0.10000000000000002;" x1="277.4" x2="377" y1="186.9211" y2="186.9211"/><text fill="#000000" font-family="sans-serif" font-size="2.8" lengthAdjust="spacing" textLength="97.6" x="278.4" y="190.7426">+TDLEntry(String title, String taskDescription, String urgency, String duration)</text><text fill="#000000" font-family="sans-serif" font-size="2.8" lengthAdjust="spacing" textLength="67.6" x="278.4" y="194.4668">+boolean addGreenSpace(GreenSpace greenSpace)</text><text fill="#000000" font-family="sans-serif" font-size="2.8" lengthAdjust="spacing" textLength="33.6" x="278.4" y="198.191">+boolean equals(Object o)</text><text fill="#000000" font-family="sans-serif" font-size="2.8" lengthAdjust="spacing" textLength="20.4" x="278.4" y="201.9152">+int hashCode()</text><text fill="#000000" font-family="sans-serif" font-size="2.8" lengthAdjust="spacing" textLength="23.2" x="278.4" y="205.6395">+TDLEntry clone()</text></g><!--class AgendaEntry--><g id="elem_AgendaEntry"><rect codeLine="48" fill="#F1F1F1" height="69.1875" id="AgendaEntry" rx="0.5" ry="0.5" style="stroke:#181818;stroke-width:0.10000000000000002;" width="148.6" x="158.9" y="224.8"/><ellipse cx="224.15" cy="228" fill="#ADD1B2" rx="2.2" ry="2.2" style="stroke:#181818;stroke-width:0.20000000000000004;"/><path d="M224.7031,227.175 Q224.7344,227.1313 224.7719,227.1094 Q224.8094,227.0875 224.8531,227.0875 Q224.9281,227.0875 224.975,227.1406 Q225.0219,227.1906 225.0219,227.3125 L225.0219,227.6031 Q225.0219,227.725 224.975,227.7781 Q224.9281,227.8313 224.8531,227.8313 Q224.7844,227.8313 224.7438,227.7906 Q224.7031,227.7531 224.6813,227.65 Q224.6719,227.5781 224.6344,227.5406 Q224.5688,227.4656 224.4469,227.4219 Q224.325,227.3781 224.2,227.3781 Q224.0469,227.3781 223.9188,227.4438 Q223.7938,227.5094 223.6938,227.6594 Q223.5969,227.8094 223.5969,228.0156 L223.5969,228.2344 Q223.5969,228.4813 223.775,228.6469 Q223.9531,228.8094 224.2719,228.8094 Q224.4594,228.8094 224.5906,228.7594 Q224.6688,228.7281 224.7531,228.6406 Q224.8063,228.5875 224.8344,228.5719 Q224.8656,228.5563 224.9063,228.5563 Q224.9719,228.5563 225.0219,228.6094 Q225.075,228.6594 225.075,228.7281 Q225.075,228.7969 225.0063,228.8781 Q224.9063,228.9938 224.7469,229.0594 Q224.5313,229.15 224.2719,229.15 Q223.9688,229.15 223.7281,229.025 Q223.5313,228.925 223.3938,228.7125 Q223.2563,228.4969 223.2563,228.2406 L223.2563,228.0094 Q223.2563,227.7438 223.3781,227.5156 Q223.5031,227.2844 223.7219,227.1625 Q223.9406,227.0375 224.1875,227.0375 Q224.3344,227.0375 224.4625,227.0719 Q224.5938,227.1031 224.7031,227.175 Z " fill="#000000"/><text fill="#000000" font-family="sans-serif" font-size="2.8" lengthAdjust="spacing" textLength="16.4" x="228.25" y="229.1594">AgendaEntry</text><line style="stroke:#181818;stroke-width:0.10000000000000002;" x1="159.1" x2="307.3" y1="231.2" y2="231.2"/><text fill="#000000" font-family="sans-serif" font-size="2.8" lengthAdjust="spacing" textLength="14.4" x="160.1" y="235.0215">-title: String</text><text fill="#000000" font-family="sans-serif" font-size="2.8" lengthAdjust="spacing" textLength="29.4" x="160.1" y="238.7457">-taskDescription: String</text><text fill="#000000" font-family="sans-serif" font-size="2.8" lengthAdjust="spacing" textLength="20.2" x="160.1" y="242.4699">-urgency: String</text><text fill="#000000" font-family="sans-serif" font-size="2.8" lengthAdjust="spacing" textLength="20.4" x="160.1" y="246.1941">-duration: String</text><text fill="#000000" font-family="sans-serif" font-size="2.8" lengthAdjust="spacing" textLength="48.2" x="160.1" y="249.9184">-associatedGreenSpace: GreenSpace</text><text fill="#000000" font-family="sans-serif" font-size="2.8" lengthAdjust="spacing" textLength="30.6" x="160.1" y="253.6426">-associatedTeam: Team</text><text fill="#000000" font-family="sans-serif" font-size="2.8" lengthAdjust="spacing" textLength="43.6" x="160.1" y="257.3668">-associatedVehicles: List&lt;Vehicle&gt;</text><text fill="#000000" font-family="sans-serif" font-size="2.8" lengthAdjust="spacing" textLength="17.6" x="160.1" y="261.091">-status: String</text><text fill="#000000" font-family="sans-serif" font-size="2.8" lengthAdjust="spacing" textLength="27" x="160.1" y="264.8152">-startDate: LocalDate</text><line style="stroke:#181818;stroke-width:0.10000000000000002;" x1="159.1" x2="307.3" y1="266.318" y2="266.318"/><text fill="#000000" font-family="sans-serif" font-size="2.8" lengthAdjust="spacing" textLength="146.2" x="160.1" y="270.1395">+AgendaEntry(String title, String taskDescription, String urgency, String duration, String status, LocalDate startDate)</text><text fill="#000000" font-family="sans-serif" font-size="2.8" lengthAdjust="spacing" textLength="67.6" x="160.1" y="273.8637">+boolean addGreenSpace(GreenSpace greenSpace)</text><text fill="#000000" font-family="sans-serif" font-size="2.8" lengthAdjust="spacing" textLength="40.8" x="160.1" y="277.5879">+boolean addTeam(Team team)</text><text fill="#000000" font-family="sans-serif" font-size="2.8" lengthAdjust="spacing" textLength="47.4" x="160.1" y="281.3121">+boolean addVehicle(Vehicle vehicle)</text><text fill="#000000" font-family="sans-serif" font-size="2.8" lengthAdjust="spacing" textLength="33.6" x="160.1" y="285.0363">+boolean equals(Object o)</text><text fill="#000000" font-family="sans-serif" font-size="2.8" lengthAdjust="spacing" textLength="20.4" x="160.1" y="288.7605">+int hashCode()</text><text fill="#000000" font-family="sans-serif" font-size="2.8" lengthAdjust="spacing" textLength="27.6" x="160.1" y="292.4848">+AgendaEntry clone()</text></g><!--class ToDoList--><g id="elem_ToDoList"><rect codeLine="67" fill="#F1F1F1" height="35.6695" id="ToDoList" rx="0.5" ry="0.5" style="stroke:#181818;stroke-width:0.10000000000000002;" width="64.6" x="372.9" y="241.6"/><ellipse cx="398.65" cy="244.8" fill="#ADD1B2" rx="2.2" ry="2.2" style="stroke:#181818;stroke-width:0.20000000000000004;"/><path d="M399.2031,243.975 Q399.2344,243.9313 399.2719,243.9094 Q399.3094,243.8875 399.3531,243.8875 Q399.4281,243.8875 399.475,243.9406 Q399.5219,243.9906 399.5219,244.1125 L399.5219,244.4031 Q399.5219,244.525 399.475,244.5781 Q399.4281,244.6313 399.3531,244.6313 Q399.2844,244.6313 399.2438,244.5906 Q399.2031,244.5531 399.1813,244.45 Q399.1719,244.3781 399.1344,244.3406 Q399.0688,244.2656 398.9469,244.2219 Q398.825,244.1781 398.7,244.1781 Q398.5469,244.1781 398.4188,244.2438 Q398.2938,244.3094 398.1938,244.4594 Q398.0969,244.6094 398.0969,244.8156 L398.0969,245.0344 Q398.0969,245.2813 398.275,245.4469 Q398.4531,245.6094 398.7719,245.6094 Q398.9594,245.6094 399.0906,245.5594 Q399.1688,245.5281 399.2531,245.4406 Q399.3063,245.3875 399.3344,245.3719 Q399.3656,245.3563 399.4063,245.3563 Q399.4719,245.3563 399.5219,245.4094 Q399.575,245.4594 399.575,245.5281 Q399.575,245.5969 399.5063,245.6781 Q399.4063,245.7938 399.2469,245.8594 Q399.0313,245.95 398.7719,245.95 Q398.4688,245.95 398.2281,245.825 Q398.0313,245.725 397.8938,245.5125 Q397.7563,245.2969 397.7563,245.0406 L397.7563,244.8094 Q397.7563,244.5438 397.8781,244.3156 Q398.0031,244.0844 398.2219,243.9625 Q398.4406,243.8375 398.6875,243.8375 Q398.8344,243.8375 398.9625,243.8719 Q399.0938,243.9031 399.2031,243.975 Z " fill="#000000"/><text fill="#000000" font-family="sans-serif" font-size="2.8" lengthAdjust="spacing" textLength="11.4" x="402.75" y="245.9594">ToDoList</text><line style="stroke:#181818;stroke-width:0.10000000000000002;" x1="373.1" x2="437.3" y1="248" y2="248"/><text fill="#000000" font-family="sans-serif" font-size="2.8" lengthAdjust="spacing" textLength="35.2" x="374.1" y="251.8215">-entries: List&lt;AgendaEntry&gt;</text><text fill="#000000" font-family="sans-serif" font-size="2.8" lengthAdjust="spacing" textLength="14" x="374.1" y="255.5457">-gsm: GSM</text><line style="stroke:#181818;stroke-width:0.10000000000000002;" x1="373.1" x2="437.3" y1="257.0484" y2="257.0484"/><text fill="#000000" font-family="sans-serif" font-size="2.8" lengthAdjust="spacing" textLength="62.2" x="374.1" y="260.8699">+ToDoList(List&lt;AgendaEntry&gt; entries, GSM gsm)</text><text fill="#000000" font-family="sans-serif" font-size="2.8" lengthAdjust="spacing" textLength="39.8" x="374.1" y="264.5941">+boolean addEntry(Entry entry)</text><text fill="#000000" font-family="sans-serif" font-size="2.8" lengthAdjust="spacing" textLength="33.6" x="374.1" y="268.3184">+boolean equals(Object o)</text><text fill="#000000" font-family="sans-serif" font-size="2.8" lengthAdjust="spacing" textLength="20.4" x="374.1" y="272.0426">+int hashCode()</text><text fill="#000000" font-family="sans-serif" font-size="2.8" lengthAdjust="spacing" textLength="22.6" x="374.1" y="275.7668">+ToDoList clone()</text></g><!--class Agenda--><g id="elem_Agenda"><rect codeLine="77" fill="#F1F1F1" height="35.6695" id="Agenda" rx="0.5" ry="0.5" style="stroke:#181818;stroke-width:0.10000000000000002;" width="64.6" x="200.9" y="309.8"/><ellipse cx="227.45" cy="313" fill="#ADD1B2" rx="2.2" ry="2.2" style="stroke:#181818;stroke-width:0.20000000000000004;"/><path d="M228.0031,312.175 Q228.0344,312.1313 228.0719,312.1094 Q228.1094,312.0875 228.1531,312.0875 Q228.2281,312.0875 228.275,312.1406 Q228.3219,312.1906 228.3219,312.3125 L228.3219,312.6031 Q228.3219,312.725 228.275,312.7781 Q228.2281,312.8313 228.1531,312.8313 Q228.0844,312.8313 228.0438,312.7906 Q228.0031,312.7531 227.9813,312.65 Q227.9719,312.5781 227.9344,312.5406 Q227.8688,312.4656 227.7469,312.4219 Q227.625,312.3781 227.5,312.3781 Q227.3469,312.3781 227.2188,312.4438 Q227.0938,312.5094 226.9938,312.6594 Q226.8969,312.8094 226.8969,313.0156 L226.8969,313.2344 Q226.8969,313.4813 227.075,313.6469 Q227.2531,313.8094 227.5719,313.8094 Q227.7594,313.8094 227.8906,313.7594 Q227.9688,313.7281 228.0531,313.6406 Q228.1063,313.5875 228.1344,313.5719 Q228.1656,313.5563 228.2063,313.5563 Q228.2719,313.5563 228.3219,313.6094 Q228.375,313.6594 228.375,313.7281 Q228.375,313.7969 228.3063,313.8781 Q228.2063,313.9938 228.0469,314.0594 Q227.8313,314.15 227.5719,314.15 Q227.2688,314.15 227.0281,314.025 Q226.8313,313.925 226.6938,313.7125 Q226.5563,313.4969 226.5563,313.2406 L226.5563,313.0094 Q226.5563,312.7438 226.6781,312.5156 Q226.8031,312.2844 227.0219,312.1625 Q227.2406,312.0375 227.4875,312.0375 Q227.6344,312.0375 227.7625,312.0719 Q227.8938,312.1031 228.0031,312.175 Z " fill="#000000"/><text fill="#000000" font-family="sans-serif" font-size="2.8" lengthAdjust="spacing" textLength="9.8" x="231.55" y="314.1594">Agenda</text><line style="stroke:#181818;stroke-width:0.10000000000000002;" x1="201.1" x2="265.3" y1="316.2" y2="316.2"/><text fill="#000000" font-family="sans-serif" font-size="2.8" lengthAdjust="spacing" textLength="35.2" x="202.1" y="320.0215">-entries: List&lt;AgendaEntry&gt;</text><text fill="#000000" font-family="sans-serif" font-size="2.8" lengthAdjust="spacing" textLength="14" x="202.1" y="323.7457">-gsm: GSM</text><line style="stroke:#181818;stroke-width:0.10000000000000002;" x1="201.1" x2="265.3" y1="325.2484" y2="325.2484"/><text fill="#000000" font-family="sans-serif" font-size="2.8" lengthAdjust="spacing" textLength="62.2" x="202.1" y="329.0699">+ToDoList(List&lt;AgendaEntry&gt; entries, GSM gsm)</text><text fill="#000000" font-family="sans-serif" font-size="2.8" lengthAdjust="spacing" textLength="39.8" x="202.1" y="332.7941">+boolean addEntry(Entry entry)</text><text fill="#000000" font-family="sans-serif" font-size="2.8" lengthAdjust="spacing" textLength="33.6" x="202.1" y="336.5184">+boolean equals(Object o)</text><text fill="#000000" font-family="sans-serif" font-size="2.8" lengthAdjust="spacing" textLength="20.4" x="202.1" y="340.2426">+int hashCode()</text><text fill="#000000" font-family="sans-serif" font-size="2.8" lengthAdjust="spacing" textLength="27.6" x="202.1" y="343.9668">+AgendaEntry clone()</text></g><!--class GreenSpaceRepository--><g id="elem_GreenSpaceRepository"><rect codeLine="87" fill="#F1F1F1" height="28.2211" id="GreenSpaceRepository" rx="0.5" ry="0.5" style="stroke:#181818;stroke-width:0.10000000000000002;" width="123.2" x="278.4" y="114.4"/><ellipse cx="324.35" cy="117.6" fill="#ADD1B2" rx="2.2" ry="2.2" style="stroke:#181818;stroke-width:0.20000000000000004;"/><path d="M324.9031,116.775 Q324.9344,116.7313 324.9719,116.7094 Q325.0094,116.6875 325.0531,116.6875 Q325.1281,116.6875 325.175,116.7406 Q325.2219,116.7906 325.2219,116.9125 L325.2219,117.2031 Q325.2219,117.325 325.175,117.3781 Q325.1281,117.4313 325.0531,117.4313 Q324.9844,117.4313 324.9438,117.3906 Q324.9031,117.3531 324.8813,117.25 Q324.8719,117.1781 324.8344,117.1406 Q324.7688,117.0656 324.6469,117.0219 Q324.525,116.9781 324.4,116.9781 Q324.2469,116.9781 324.1188,117.0438 Q323.9938,117.1094 323.8938,117.2594 Q323.7969,117.4094 323.7969,117.6156 L323.7969,117.8344 Q323.7969,118.0813 323.975,118.2469 Q324.1531,118.4094 324.4719,118.4094 Q324.6594,118.4094 324.7906,118.3594 Q324.8688,118.3281 324.9531,118.2406 Q325.0063,118.1875 325.0344,118.1719 Q325.0656,118.1563 325.1063,118.1563 Q325.1719,118.1563 325.2219,118.2094 Q325.275,118.2594 325.275,118.3281 Q325.275,118.3969 325.2063,118.4781 Q325.1063,118.5938 324.9469,118.6594 Q324.7313,118.75 324.4719,118.75 Q324.1688,118.75 323.9281,118.625 Q323.7313,118.525 323.5938,118.3125 Q323.4563,118.0969 323.4563,117.8406 L323.4563,117.6094 Q323.4563,117.3438 323.5781,117.1156 Q323.7031,116.8844 323.9219,116.7625 Q324.1406,116.6375 324.3875,116.6375 Q324.5344,116.6375 324.6625,116.6719 Q324.7938,116.7031 324.9031,116.775 Z " fill="#000000"/><text fill="#000000" font-family="sans-serif" font-size="2.8" lengthAdjust="spacing" textLength="29.6" x="328.45" y="118.7594">GreenSpaceRepository</text><line style="stroke:#181818;stroke-width:0.10000000000000002;" x1="278.6" x2="401.4" y1="120.8" y2="120.8"/><text fill="#000000" font-family="sans-serif" font-size="2.8" lengthAdjust="spacing" textLength="42.2" x="279.6" y="124.6215">-List&lt;GreenSpace&gt; greenSpaces</text><line style="stroke:#181818;stroke-width:0.10000000000000002;" x1="278.6" x2="401.4" y1="126.1242" y2="126.1242"/><text fill="#000000" font-family="sans-serif" font-size="2.8" lengthAdjust="spacing" textLength="120.8" x="279.6" y="129.9457">+Optional&lt;GreenSpace&gt; registerGreenSpace(String name, String type, double area, GSM gsm)</text><text fill="#000000" font-family="sans-serif" font-size="2.8" lengthAdjust="spacing" textLength="67.6" x="279.6" y="133.6699">+boolean addGreenSpace(GreenSpace greenSpace)</text><text fill="#000000" font-family="sans-serif" font-size="2.8" lengthAdjust="spacing" textLength="72.6" x="279.6" y="137.3941">+boolean validateGreenSpace(GreenSpace greenSpace)</text><text fill="#000000" font-family="sans-serif" font-size="2.8" lengthAdjust="spacing" textLength="52.4" x="279.6" y="141.1184">+List&lt;GreenSpace&gt; getGreenSpaceList()</text></g><!--class ToDoListRepository--><g id="elem_ToDoListRepository"><rect codeLine="95" fill="#F1F1F1" height="28.2211" id="ToDoListRepository" rx="0.5" ry="0.5" style="stroke:#181818;stroke-width:0.10000000000000002;" width="55.8" x="408.7" y="114.4"/><ellipse cx="423.25" cy="117.6" fill="#ADD1B2" rx="2.2" ry="2.2" style="stroke:#181818;stroke-width:0.20000000000000004;"/><path d="M423.8031,116.775 Q423.8344,116.7313 423.8719,116.7094 Q423.9094,116.6875 423.9531,116.6875 Q424.0281,116.6875 424.075,116.7406 Q424.1219,116.7906 424.1219,116.9125 L424.1219,117.2031 Q424.1219,117.325 424.075,117.3781 Q424.0281,117.4313 423.9531,117.4313 Q423.8844,117.4313 423.8438,117.3906 Q423.8031,117.3531 423.7813,117.25 Q423.7719,117.1781 423.7344,117.1406 Q423.6688,117.0656 423.5469,117.0219 Q423.425,116.9781 423.3,116.9781 Q423.1469,116.9781 423.0188,117.0438 Q422.8938,117.1094 422.7938,117.2594 Q422.6969,117.4094 422.6969,117.6156 L422.6969,117.8344 Q422.6969,118.0813 422.875,118.2469 Q423.0531,118.4094 423.3719,118.4094 Q423.5594,118.4094 423.6906,118.3594 Q423.7688,118.3281 423.8531,118.2406 Q423.9063,118.1875 423.9344,118.1719 Q423.9656,118.1563 424.0063,118.1563 Q424.0719,118.1563 424.1219,118.2094 Q424.175,118.2594 424.175,118.3281 Q424.175,118.3969 424.1063,118.4781 Q424.0063,118.5938 423.8469,118.6594 Q423.6313,118.75 423.3719,118.75 Q423.0688,118.75 422.8281,118.625 Q422.6313,118.525 422.4938,118.3125 Q422.3563,118.0969 422.3563,117.8406 L422.3563,117.6094 Q422.3563,117.3438 422.4781,117.1156 Q422.6031,116.8844 422.8219,116.7625 Q423.0406,116.6375 423.2875,116.6375 Q423.4344,116.6375 423.5625,116.6719 Q423.6938,116.7031 423.8031,116.775 Z " fill="#000000"/><text fill="#000000" font-family="sans-serif" font-size="2.8" lengthAdjust="spacing" textLength="25" x="427.35" y="118.7594">ToDoListRepository</text><line style="stroke:#181818;stroke-width:0.10000000000000002;" x1="408.9" x2="464.3" y1="120.8" y2="120.8"/><text fill="#000000" font-family="sans-serif" font-size="2.8" lengthAdjust="spacing" textLength="32.6" x="409.9" y="124.6215">-List&lt;ToDoList&gt; toDoLists</text><line style="stroke:#181818;stroke-width:0.10000000000000002;" x1="408.9" x2="464.3" y1="126.1242" y2="126.1242"/><text fill="#000000" font-family="sans-serif" font-size="2.8" lengthAdjust="spacing" textLength="53.4" x="409.9" y="129.9457">+boolean addToDoList(ToDoList toDoList)</text><text fill="#000000" font-family="sans-serif" font-size="2.8" lengthAdjust="spacing" textLength="40.2" x="409.9" y="133.6699">+List&lt;ToDoList&gt; getToDoLists()</text><text fill="#000000" font-family="sans-serif" font-size="2.8" lengthAdjust="spacing" textLength="52.8" x="409.9" y="137.3941">+ToDoList getToDoListByGSM(GSM gsm)</text><text fill="#000000" font-family="sans-serif" font-size="2.8" lengthAdjust="spacing" textLength="53.4" x="409.9" y="141.1184">+boolean addToDoList(ToDoList toDoList)</text></g><!--class AgendaRepository--><g id="elem_AgendaRepository"><rect codeLine="103" fill="#F1F1F1" height="28.2211" id="AgendaRepository" rx="0.5" ry="0.5" style="stroke:#181818;stroke-width:0.10000000000000002;" width="52" x="471.6" y="114.4"/><ellipse cx="485.05" cy="117.6" fill="#ADD1B2" rx="2.2" ry="2.2" style="stroke:#181818;stroke-width:0.20000000000000004;"/><path d="M485.6031,116.775 Q485.6344,116.7313 485.6719,116.7094 Q485.7094,116.6875 485.7531,116.6875 Q485.8281,116.6875 485.875,116.7406 Q485.9219,116.7906 485.9219,116.9125 L485.9219,117.2031 Q485.9219,117.325 485.875,117.3781 Q485.8281,117.4313 485.7531,117.4313 Q485.6844,117.4313 485.6438,117.3906 Q485.6031,117.3531 485.5813,117.25 Q485.5719,117.1781 485.5344,117.1406 Q485.4688,117.0656 485.3469,117.0219 Q485.225,116.9781 485.1,116.9781 Q484.9469,116.9781 484.8188,117.0438 Q484.6938,117.1094 484.5938,117.2594 Q484.4969,117.4094 484.4969,117.6156 L484.4969,117.8344 Q484.4969,118.0813 484.675,118.2469 Q484.8531,118.4094 485.1719,118.4094 Q485.3594,118.4094 485.4906,118.3594 Q485.5688,118.3281 485.6531,118.2406 Q485.7063,118.1875 485.7344,118.1719 Q485.7656,118.1563 485.8063,118.1563 Q485.8719,118.1563 485.9219,118.2094 Q485.975,118.2594 485.975,118.3281 Q485.975,118.3969 485.9063,118.4781 Q485.8063,118.5938 485.6469,118.6594 Q485.4313,118.75 485.1719,118.75 Q484.8688,118.75 484.6281,118.625 Q484.4313,118.525 484.2938,118.3125 Q484.1563,118.0969 484.1563,117.8406 L484.1563,117.6094 Q484.1563,117.3438 484.2781,117.1156 Q484.4031,116.8844 484.6219,116.7625 Q484.8406,116.6375 485.0875,116.6375 Q485.2344,116.6375 485.3625,116.6719 Q485.4938,116.7031 485.6031,116.775 Z " fill="#000000"/><text fill="#000000" font-family="sans-serif" font-size="2.8" lengthAdjust="spacing" textLength="23.4" x="489.15" y="118.7594">AgendaRepository</text><line style="stroke:#181818;stroke-width:0.10000000000000002;" x1="471.8" x2="523.4" y1="120.8" y2="120.8"/><text fill="#000000" font-family="sans-serif" font-size="2.8" lengthAdjust="spacing" textLength="30.2" x="472.8" y="124.6215">-List&lt;Agenda&gt; agendas</text><line style="stroke:#181818;stroke-width:0.10000000000000002;" x1="471.8" x2="523.4" y1="126.1242" y2="126.1242"/><text fill="#000000" font-family="sans-serif" font-size="2.8" lengthAdjust="spacing" textLength="49.4" x="472.8" y="129.9457">+boolean addAgenda(Agenda agenda)</text><text fill="#000000" font-family="sans-serif" font-size="2.8" lengthAdjust="spacing" textLength="37" x="472.8" y="133.6699">+List&lt;Agenda&gt; getAgendas()</text><text fill="#000000" font-family="sans-serif" font-size="2.8" lengthAdjust="spacing" textLength="49.6" x="472.8" y="137.3941">+Agenda getAgendaByGSM(GSM gsm)</text><text fill="#000000" font-family="sans-serif" font-size="2.8" lengthAdjust="spacing" textLength="49.4" x="472.8" y="141.1184">+boolean addAgenda(Agenda agenda)</text></g><!--class Repositories--><g id="elem_Repositories"><rect codeLine="111" fill="#F1F1F1" height="24.4969" id="Repositories" rx="0.5" ry="0.5" style="stroke:#181818;stroke-width:0.10000000000000002;" width="71.6" x="407.6" y="74.2"/><ellipse cx="434.65" cy="77.4" fill="#ADD1B2" rx="2.2" ry="2.2" style="stroke:#181818;stroke-width:0.20000000000000004;"/><path d="M435.2031,76.575 Q435.2344,76.5313 435.2719,76.5094 Q435.3094,76.4875 435.3531,76.4875 Q435.4281,76.4875 435.475,76.5406 Q435.5219,76.5906 435.5219,76.7125 L435.5219,77.0031 Q435.5219,77.125 435.475,77.1781 Q435.4281,77.2313 435.3531,77.2313 Q435.2844,77.2313 435.2438,77.1906 Q435.2031,77.1531 435.1813,77.05 Q435.1719,76.9781 435.1344,76.9406 Q435.0688,76.8656 434.9469,76.8219 Q434.825,76.7781 434.7,76.7781 Q434.5469,76.7781 434.4188,76.8438 Q434.2938,76.9094 434.1938,77.0594 Q434.0969,77.2094 434.0969,77.4156 L434.0969,77.6344 Q434.0969,77.8813 434.275,78.0469 Q434.4531,78.2094 434.7719,78.2094 Q434.9594,78.2094 435.0906,78.1594 Q435.1688,78.1281 435.2531,78.0406 Q435.3063,77.9875 435.3344,77.9719 Q435.3656,77.9563 435.4063,77.9563 Q435.4719,77.9563 435.5219,78.0094 Q435.575,78.0594 435.575,78.1281 Q435.575,78.1969 435.5063,78.2781 Q435.4063,78.3938 435.2469,78.4594 Q435.0313,78.55 434.7719,78.55 Q434.4688,78.55 434.2281,78.425 Q434.0313,78.325 433.8938,78.1125 Q433.7563,77.8969 433.7563,77.6406 L433.7563,77.4094 Q433.7563,77.1438 433.8781,76.9156 Q434.0031,76.6844 434.2219,76.5625 Q434.4406,76.4375 434.6875,76.4375 Q434.8344,76.4375 434.9625,76.4719 Q435.0938,76.5031 435.2031,76.575 Z " fill="#000000"/><text fill="#000000" font-family="sans-serif" font-size="2.8" lengthAdjust="spacing" textLength="15.8" x="438.75" y="78.5594">Repositories</text><line style="stroke:#181818;stroke-width:0.10000000000000002;" x1="407.8" x2="479" y1="80.6" y2="80.6"/><line style="stroke:#181818;stroke-width:0.10000000000000002;" x1="407.8" x2="479" y1="82.2" y2="82.2"/><text fill="#000000" font-family="sans-serif" font-size="2.8" lengthAdjust="spacing" textLength="36.4" x="408.8" y="86.0215">+getInstance() : Repositories</text><text fill="#000000" font-family="sans-serif" font-size="2.8" lengthAdjust="spacing" textLength="69.2" x="408.8" y="89.7457">+getGreenSpaceRepository() : GreenSpaceRepository</text><text fill="#000000" font-family="sans-serif" font-size="2.8" lengthAdjust="spacing" textLength="60" x="408.8" y="93.4699">+getToDoListRepository() : ToDoListRepository</text><text fill="#000000" font-family="sans-serif" font-size="2.8" lengthAdjust="spacing" textLength="56.8" x="408.8" y="97.1941">+getAgendaRepository() : AgendaRepository</text></g><!--class AddEntryAgendaUI--><g id="elem_AddEntryAgendaUI"><rect codeLine="118" fill="#F1F1F1" height="54.2906" id="AddEntryAgendaUI" rx="0.5" ry="0.5" style="stroke:#181818;stroke-width:0.10000000000000002;" width="57" x="199.7" y="4.2"/><ellipse cx="215.45" cy="7.4" fill="#ADD1B2" rx="2.2" ry="2.2" style="stroke:#181818;stroke-width:0.20000000000000004;"/><path d="M216.0031,6.575 Q216.0344,6.5313 216.0719,6.5094 Q216.1094,6.4875 216.1531,6.4875 Q216.2281,6.4875 216.275,6.5406 Q216.3219,6.5906 216.3219,6.7125 L216.3219,7.0031 Q216.3219,7.125 216.275,7.1781 Q216.2281,7.2313 216.1531,7.2313 Q216.0844,7.2313 216.0438,7.1906 Q216.0031,7.1531 215.9813,7.05 Q215.9719,6.9781 215.9344,6.9406 Q215.8688,6.8656 215.7469,6.8219 Q215.625,6.7781 215.5,6.7781 Q215.3469,6.7781 215.2188,6.8438 Q215.0938,6.9094 214.9938,7.0594 Q214.8969,7.2094 214.8969,7.4156 L214.8969,7.6344 Q214.8969,7.8813 215.075,8.0469 Q215.2531,8.2094 215.5719,8.2094 Q215.7594,8.2094 215.8906,8.1594 Q215.9688,8.1281 216.0531,8.0406 Q216.1063,7.9875 216.1344,7.9719 Q216.1656,7.9563 216.2063,7.9563 Q216.2719,7.9563 216.3219,8.0094 Q216.375,8.0594 216.375,8.1281 Q216.375,8.1969 216.3063,8.2781 Q216.2063,8.3938 216.0469,8.4594 Q215.8313,8.55 215.5719,8.55 Q215.2688,8.55 215.0281,8.425 Q214.8313,8.325 214.6938,8.1125 Q214.5563,7.8969 214.5563,7.6406 L214.5563,7.4094 Q214.5563,7.1438 214.6781,6.9156 Q214.8031,6.6844 215.0219,6.5625 Q215.2406,6.4375 215.4875,6.4375 Q215.6344,6.4375 215.7625,6.4719 Q215.8938,6.5031 216.0031,6.575 Z " fill="#000000"/><text fill="#000000" font-family="sans-serif" font-size="2.8" lengthAdjust="spacing" textLength="23.8" x="219.55" y="8.5594">AddEntryAgendaUI</text><line style="stroke:#181818;stroke-width:0.10000000000000002;" x1="199.9" x2="256.5" y1="10.6" y2="10.6"/><text fill="#000000" font-family="sans-serif" font-size="2.8" lengthAdjust="spacing" textLength="48.2" x="200.9" y="14.4215">-controller: AddEntryAgendaController</text><text fill="#000000" font-family="sans-serif" font-size="2.8" lengthAdjust="spacing" textLength="31.6" x="200.9" y="18.1457">-toDoListEntry: TDLEntry</text><text fill="#000000" font-family="sans-serif" font-size="2.8" lengthAdjust="spacing" textLength="24.4" x="200.9" y="21.8699">-entryStatus: String</text><text fill="#000000" font-family="sans-serif" font-size="2.8" lengthAdjust="spacing" textLength="33.8" x="200.9" y="25.5941">-entryStartDate: LocalDate</text><text fill="#000000" font-family="sans-serif" font-size="2.8" lengthAdjust="spacing" textLength="48.2" x="200.9" y="29.3184">-associatedGreenSpace: GreenSpace</text><line style="stroke:#181818;stroke-width:0.10000000000000002;" x1="199.9" x2="256.5" y1="30.8211" y2="30.8211"/><text fill="#000000" font-family="sans-serif" font-size="2.8" lengthAdjust="spacing" textLength="54.6" x="200.9" y="34.6426">+AddEntryAgendaController getController()</text><text fill="#000000" font-family="sans-serif" font-size="2.8" lengthAdjust="spacing" textLength="13.8" x="200.9" y="38.3668">+void run()</text><text fill="#000000" font-family="sans-serif" font-size="2.8" lengthAdjust="spacing" textLength="23.8" x="200.9" y="42.091">+void submitData()</text><text fill="#000000" font-family="sans-serif" font-size="2.8" lengthAdjust="spacing" textLength="25.2" x="200.9" y="45.8152">+void requestData()</text><text fill="#000000" font-family="sans-serif" font-size="2.8" lengthAdjust="spacing" textLength="44" x="200.9" y="49.5395">+TDLEntry requestToDoListEntry()</text><text fill="#000000" font-family="sans-serif" font-size="2.8" lengthAdjust="spacing" textLength="36" x="200.9" y="53.2637">+String requestEntryStatus()</text><text fill="#000000" font-family="sans-serif" font-size="2.8" lengthAdjust="spacing" textLength="49.2" x="200.9" y="56.9879">+LocalDate requestEntryStartingDate()</text></g><!--class AddEntryAgendaController--><g id="elem_AddEntryAgendaController"><rect codeLine="133" fill="#F1F1F1" height="50.5664" id="AddEntryAgendaController" rx="0.5" ry="0.5" style="stroke:#181818;stroke-width:0.10000000000000002;" width="265" x="326.9" y="6"/><ellipse cx="441.65" cy="9.2" fill="#ADD1B2" rx="2.2" ry="2.2" style="stroke:#181818;stroke-width:0.20000000000000004;"/><path d="M442.2031,8.375 Q442.2344,8.3313 442.2719,8.3094 Q442.3094,8.2875 442.3531,8.2875 Q442.4281,8.2875 442.475,8.3406 Q442.5219,8.3906 442.5219,8.5125 L442.5219,8.8031 Q442.5219,8.925 442.475,8.9781 Q442.4281,9.0313 442.3531,9.0313 Q442.2844,9.0313 442.2438,8.9906 Q442.2031,8.9531 442.1813,8.85 Q442.1719,8.7781 442.1344,8.7406 Q442.0688,8.6656 441.9469,8.6219 Q441.825,8.5781 441.7,8.5781 Q441.5469,8.5781 441.4188,8.6438 Q441.2938,8.7094 441.1938,8.8594 Q441.0969,9.0094 441.0969,9.2156 L441.0969,9.4344 Q441.0969,9.6813 441.275,9.8469 Q441.4531,10.0094 441.7719,10.0094 Q441.9594,10.0094 442.0906,9.9594 Q442.1688,9.9281 442.2531,9.8406 Q442.3063,9.7875 442.3344,9.7719 Q442.3656,9.7563 442.4063,9.7563 Q442.4719,9.7563 442.5219,9.8094 Q442.575,9.8594 442.575,9.9281 Q442.575,9.9969 442.5063,10.0781 Q442.4063,10.1938 442.2469,10.2594 Q442.0313,10.35 441.7719,10.35 Q441.4688,10.35 441.2281,10.225 Q441.0313,10.125 440.8938,9.9125 Q440.7563,9.6969 440.7563,9.4406 L440.7563,9.2094 Q440.7563,8.9438 440.8781,8.7156 Q441.0031,8.4844 441.2219,8.3625 Q441.4406,8.2375 441.6875,8.2375 Q441.8344,8.2375 441.9625,8.2719 Q442.0938,8.3031 442.2031,8.375 Z " fill="#000000"/><text fill="#000000" font-family="sans-serif" font-size="2.8" lengthAdjust="spacing" textLength="33.8" x="445.75" y="10.3594">AddEntryAgendaController</text><line style="stroke:#181818;stroke-width:0.10000000000000002;" x1="327.1" x2="591.7" y1="12.4" y2="12.4"/><text fill="#000000" font-family="sans-serif" font-size="2.8" lengthAdjust="spacing" textLength="61.2" x="328.1" y="16.2215">-greenSpaceRepository: GreenSpaceRepository</text><text fill="#000000" font-family="sans-serif" font-size="2.8" lengthAdjust="spacing" textLength="51.6" x="328.1" y="19.9457">-toDoListRepository: ToDoListRepository</text><text fill="#000000" font-family="sans-serif" font-size="2.8" lengthAdjust="spacing" textLength="49.2" x="328.1" y="23.6699">-agendaRepository: AgendaRepository</text><text fill="#000000" font-family="sans-serif" font-size="2.8" lengthAdjust="spacing" textLength="65.6" x="328.1" y="27.3941">-authenticationRepository: AuthenticationRepository</text><line style="stroke:#181818;stroke-width:0.10000000000000002;" x1="327.1" x2="591.7" y1="28.8969" y2="28.8969"/><text fill="#000000" font-family="sans-serif" font-size="2.8" lengthAdjust="spacing" textLength="262.6" x="328.1" y="32.7184">+AddEntryAgendaController(GreenSpaceRepository greenSpaceRepository, ToDoListRepository toDoListRepository, AgendaRepository agendaRepository, AuthenticationRepository authenticationRepository)</text><text fill="#000000" font-family="sans-serif" font-size="2.8" lengthAdjust="spacing" textLength="67.6" x="328.1" y="36.4426">+GreenSpaceRepository getGreenSpaceRepository()</text><text fill="#000000" font-family="sans-serif" font-size="2.8" lengthAdjust="spacing" textLength="58.4" x="328.1" y="40.1668">+ToDoListRepository getToDoListRepository()</text><text fill="#000000" font-family="sans-serif" font-size="2.8" lengthAdjust="spacing" textLength="55.2" x="328.1" y="43.891">+AgendaRepository getAgendaRepository()</text><text fill="#000000" font-family="sans-serif" font-size="2.8" lengthAdjust="spacing" textLength="71.6" x="328.1" y="47.6152">+AuthenticationRepository getAuthenticationRepository()</text><text fill="#000000" font-family="sans-serif" font-size="2.8" lengthAdjust="spacing" textLength="109.4" x="328.1" y="51.3395">+Optional&lt;AgendaEntry&gt; addEntry(TDLEntry entry, String status, LocalDate startDate)</text><text fill="#000000" font-family="sans-serif" font-size="2.8" lengthAdjust="spacing" textLength="37.4" x="328.1" y="55.0637">+GSM getGSMFromSession()</text></g><!--class GSM--><g id="elem_GSM"><rect codeLine="147" fill="#F1F1F1" height="24.4969" id="GSM" rx="0.5" ry="0.5" style="stroke:#181818;stroke-width:0.10000000000000002;" width="24.8" x="162" y="19.1"/><ellipse cx="170.49" cy="22.3" fill="#ADD1B2" rx="2.2" ry="2.2" style="stroke:#181818;stroke-width:0.20000000000000004;"/><path d="M171.0431,21.475 Q171.0744,21.4313 171.1119,21.4094 Q171.1494,21.3875 171.1931,21.3875 Q171.2681,21.3875 171.315,21.4406 Q171.3619,21.4906 171.3619,21.6125 L171.3619,21.9031 Q171.3619,22.025 171.315,22.0781 Q171.2681,22.1313 171.1931,22.1313 Q171.1244,22.1313 171.0838,22.0906 Q171.0431,22.0531 171.0213,21.95 Q171.0119,21.8781 170.9744,21.8406 Q170.9088,21.7656 170.7869,21.7219 Q170.665,21.6781 170.54,21.6781 Q170.3869,21.6781 170.2588,21.7438 Q170.1338,21.8094 170.0338,21.9594 Q169.9369,22.1094 169.9369,22.3156 L169.9369,22.5344 Q169.9369,22.7813 170.115,22.9469 Q170.2931,23.1094 170.6119,23.1094 Q170.7994,23.1094 170.9306,23.0594 Q171.0088,23.0281 171.0931,22.9406 Q171.1463,22.8875 171.1744,22.8719 Q171.2056,22.8563 171.2463,22.8563 Q171.3119,22.8563 171.3619,22.9094 Q171.415,22.9594 171.415,23.0281 Q171.415,23.0969 171.3463,23.1781 Q171.2463,23.2938 171.0869,23.3594 Q170.8713,23.45 170.6119,23.45 Q170.3088,23.45 170.0681,23.325 Q169.8713,23.225 169.7338,23.0125 Q169.5963,22.7969 169.5963,22.5406 L169.5963,22.3094 Q169.5963,22.0438 169.7181,21.8156 Q169.8431,21.5844 170.0619,21.4625 Q170.2806,21.3375 170.5275,21.3375 Q170.6744,21.3375 170.8025,21.3719 Q170.9338,21.4031 171.0431,21.475 Z " fill="#000000"/><text fill="#000000" font-family="sans-serif" font-size="2.8" lengthAdjust="spacing" textLength="6.2" x="174.51" y="23.4594">GSM</text><line style="stroke:#181818;stroke-width:0.10000000000000002;" x1="162.2" x2="186.6" y1="25.5" y2="25.5"/><text fill="#000000" font-family="sans-serif" font-size="2.8" lengthAdjust="spacing" textLength="16.2" x="163.2" y="29.3215">-String name</text><text fill="#000000" font-family="sans-serif" font-size="2.8" lengthAdjust="spacing" textLength="18.4" x="163.2" y="33.0457">-int vatNumber</text><text fill="#000000" font-family="sans-serif" font-size="2.8" lengthAdjust="spacing" textLength="15.8" x="163.2" y="36.7699">-String email</text><text fill="#000000" font-family="sans-serif" font-size="2.8" lengthAdjust="spacing" textLength="22.4" x="163.2" y="40.4941">-int phonenumber</text><line style="stroke:#181818;stroke-width:0.10000000000000002;" x1="162.2" x2="186.6" y1="41.9969" y2="41.9969"/></g><g id="elem_GMN16"><path d="M263.8,26.8 L263.8,35.7164 A0,0 0 0 0 263.8,35.7164 L319.8,35.7164 A0,0 0 0 0 319.8,35.7164 L319.8,32.1 L326.85,31.3 L319.8,30.5 L319.8,28.8 L317.8,26.8 L263.8,26.8 A0,0 0 0 0 263.8,26.8 " fill="#FEFFDD" style="stroke:#181818;stroke-width:0.10000000000000002;"/><path d="M317.8,26.8 L317.8,28.8 L319.8,28.8 L317.8,26.8 " fill="#FEFFDD" style="stroke:#181818;stroke-width:0.10000000000000002;"/><text fill="#000000" font-family="sans-serif" font-size="2.6" lengthAdjust="spacing" textLength="51.8" x="265" y="30.6057">- AgendaEntry data is read from GSM's input</text><text fill="#000000" font-family="sans-serif" font-size="2.6" lengthAdjust="spacing" textLength="25.2" x="265" y="34.0639">- Updates the Agenda</text></g><g id="elem_GMN19"><path d="M1.2,26.8 L1.2,35.7164 L80.4,35.7164 L80.4,28.8 L78.4,26.8 L1.2,26.8 " fill="#FEFFDD" style="stroke:#181818;stroke-width:0.10000000000000002;"/><path d="M78.4,26.8 L78.4,28.8 L80.4,28.8 L78.4,26.8 " fill="#FEFFDD" style="stroke:#181818;stroke-width:0.20000000000000004;"/><text fill="#000000" font-family="sans-serif" font-size="2.6" lengthAdjust="spacing" textLength="75" x="2.4" y="30.6057">- Responsible for adding Entries to the ToDoList and the Agenda.</text><text fill="#000000" font-family="sans-serif" font-size="2.6" lengthAdjust="spacing" textLength="51.6" x="2.4" y="34.0639">- Communicates with the AddEntryAgendaUI</text></g><g id="elem_GMN22"><path d="M87.4,25.1 L87.4,37.4746 L155,37.4746 L155,27.1 L153,25.1 L87.4,25.1 " fill="#FEFFDD" style="stroke:#181818;stroke-width:0.10000000000000002;"/><path d="M153,25.1 L153,27.1 L155,27.1 L153,25.1 " fill="#FEFFDD" style="stroke:#181818;stroke-width:0.20000000000000004;"/><text fill="#000000" font-family="sans-serif" font-size="2.6" lengthAdjust="spacing" textLength="49.4" x="88.6" y="28.9057">- UI for GSM to add entries to the ToDoList</text><text fill="#000000" font-family="sans-serif" font-size="2.6" lengthAdjust="spacing" textLength="55.8" x="88.6" y="32.3639">- Communicates with AddEntryAgendaController</text><text fill="#000000" font-family="sans-serif" font-size="2.6" lengthAdjust="spacing" textLength="63.4" x="88.6" y="35.8221">- Receives repositories from AddEntryAgendaController</text></g><g id="elem_GMN25"><path d="M314.6,256.7 L314.6,258.6 L307.512,259.4 L314.6,260.2 L314.6,262.1582 A0,0 0 0 0 314.6,262.1582 L365.8,262.1582 A0,0 0 0 0 365.8,262.1582 L365.8,258.7 L363.8,256.7 L314.6,256.7 A0,0 0 0 0 314.6,256.7 " fill="#FEFFDD" style="stroke:#181818;stroke-width:0.10000000000000002;"/><path d="M363.8,256.7 L363.8,258.7 L365.8,258.7 L363.8,256.7 " fill="#FEFFDD" style="stroke:#181818;stroke-width:0.10000000000000002;"/><text fill="#000000" font-family="sans-serif" font-size="2.6" lengthAdjust="spacing" textLength="47" x="315.8" y="260.5057">- Registered by the GSM in the ToDoList</text></g><!--link GMN19 to GSM--><g id="link_GMN19_GSM"><path d="M47.762,26.794 C60.734,18.396 87.3,1.2 87.3,1.2 C87.3,1.2 154.9,1.2 154.9,1.2 C154.9,1.2 158.4,4.2 158.4,4.2 C158.4,4.2 162.948,11.904 167.196,19.098 " fill="none" id="GMN19-GSM" style="stroke:#181818;stroke-width:0.20000000000000004;stroke-dasharray:7.0,7.0;"/></g><!--link GMN22 to AddEntryAgendaUI--><g id="link_GMN22_AddEntryAgendaUI"><path d="M129.634,25.064 C141.554,16.246 161.9,1.2 161.9,1.2 C161.9,1.2 186.7,1.2 186.7,1.2 C186.7,1.2 192.446,5.366 199.66,10.6 " fill="none" id="GMN22-AddEntryAgendaUI" style="stroke:#181818;stroke-width:0.20000000000000004;stroke-dasharray:7.0,7.0;"/></g><!--link GSM to AgendaEntry--><g id="link_GSM_AgendaEntry"><path codeLine="174" d="M174.4,43.504 C174.4,59.606 174.4,86.2 174.4,86.2 C174.4,86.2 174.4,86.2 174.4,183.9 C174.4,183.9 181.4,209 181.4,209 C181.4,209 187.7462,215.1509 196.7862,223.9109 " fill="none" id="GSM-to-AgendaEntry" style="stroke:#181818;stroke-width:0.20000000000000004;"/><polygon fill="#181818" points="197.648,224.746,196.9121,222.9189,196.9299,224.0501,195.7986,224.0679,197.648,224.746" style="stroke:#181818;stroke-width:0.20000000000000004;"/><text fill="#000000" font-family="sans-serif" font-size="2.6" lengthAdjust="spacing" textLength="10" x="174.6" y="129.6057">registers</text></g><!--link GSM to ToDoList--><g id="link_GSM_ToDoList"><path codeLine="175" d="M184.152,43.534 C189.956,50.696 196.2,58.4 196.2,58.4 C196.2,58.4 268.8,142.6 268.8,142.6 C268.8,142.6 380.6,158.4 380.6,158.4 C380.6,158.4 393.5656,211.5242 400.6156,240.4182 " fill="none" id="GSM-to-ToDoList" style="stroke:#181818;stroke-width:0.20000000000000004;"/><polygon fill="#181818" points="400.9,241.584,401.2505,239.6457,400.663,240.6125,399.6961,240.0249,400.9,241.584" style="stroke:#181818;stroke-width:0.20000000000000004;"/><text fill="#000000" font-family="sans-serif" font-size="2.6" lengthAdjust="spacing" textLength="5.6" x="269" y="129.6057">uses</text></g><!--link GSM to Agenda--><g id="link_GSM_Agenda"><path codeLine="176" d="M168.65,43.504 C160.938,59.606 148.2,86.2 148.2,86.2 C148.2,86.2 148.2,86.2 148.2,259.6 C148.2,259.6 155.4,294 155.4,294 C155.4,294 178.4033,303.8746 199.7793,313.0526 " fill="none" id="GSM-to-Agenda" style="stroke:#181818;stroke-width:0.20000000000000004;"/><polygon fill="#181818" points="200.882,313.526,199.5436,312.0807,199.9631,313.1315,198.9124,313.5509,200.882,313.526" style="stroke:#181818;stroke-width:0.20000000000000004;"/><text fill="#000000" font-family="sans-serif" font-size="2.6" lengthAdjust="spacing" textLength="5.6" x="148.4" y="151.6057">uses</text></g><!--link AgendaEntry to Agenda--><g id="link_AgendaEntry_Agenda"><path codeLine="177" d="M233.2,294.096 C233.2,299.526 233.2,303.736 233.2,308.568 " fill="none" id="AgendaEntry-to-Agenda" style="stroke:#181818;stroke-width:0.20000000000000004;"/><polygon fill="#181818" points="233.2,309.768,234,307.968,233.2,308.768,232.4,307.968,233.2,309.768" style="stroke:#181818;stroke-width:0.20000000000000004;"/><text fill="#000000" font-family="sans-serif" font-size="2.6" lengthAdjust="spacing" textLength="10.2" x="233.4" y="303.0057">shown in</text></g><!--link TDLEntry to ToDoList--><g id="link_TDLEntry_ToDoList"><path codeLine="178" d="M351.24,207.106 C362.742,218.212 375.4307,230.4605 386.0747,240.7365 " fill="none" id="TDLEntry-to-ToDoList" style="stroke:#181818;stroke-width:0.20000000000000004;"/><polygon fill="#181818" points="386.938,241.57,386.1987,239.7442,386.2186,240.8754,385.0874,240.8953,386.938,241.57" style="stroke:#181818;stroke-width:0.20000000000000004;"/><text fill="#000000" font-family="sans-serif" font-size="2.6" lengthAdjust="spacing" textLength="10.2" x="361.8" y="218.0057">shown in</text></g><!--link TDLEntry to AgendaEntry--><g id="link_TDLEntry_AgendaEntry"><path codeLine="179" d="M298.23,207.106 C291.244,212.702 284.5685,218.0497 277.0945,224.0377 " fill="none" id="TDLEntry-to-AgendaEntry" style="stroke:#181818;stroke-width:0.20000000000000004;"/><polygon fill="#181818" points="276.158,224.788,278.063,224.2869,276.9384,224.1627,277.0626,223.0382,276.158,224.788" style="stroke:#181818;stroke-width:0.20000000000000004;"/><text fill="#000000" font-family="sans-serif" font-size="2.6" lengthAdjust="spacing" textLength="10.8" x="286.2" y="218.0057">related to</text></g><!--link GSM to AddEntryAgendaUI--><g id="link_GSM_AddEntryAgendaUI"><path codeLine="180" d="M186.81,31.3 C190.69,31.3 193.942,31.3 198.456,31.3 " fill="none" id="GSM-to-AddEntryAgendaUI" style="stroke:#181818;stroke-width:0.20000000000000004;"/><polygon fill="#181818" points="199.656,31.3,197.856,30.5,198.656,31.3,197.856,32.1,199.656,31.3" style="stroke:#181818;stroke-width:0.20000000000000004;"/><text fill="#000000" font-family="sans-serif" font-size="2.6" lengthAdjust="spacing" textLength="5.6" x="190.45" y="29.9057">uses</text></g><!--link GreenSpace to AgendaEntry--><g id="link_GreenSpace_AgendaEntry"><path codeLine="181" d="M224.138,209.026 C225.05,214.072 225.8086,218.2771 226.7666,223.5771 " fill="none" id="GreenSpace-to-AgendaEntry" style="stroke:#181818;stroke-width:0.20000000000000004;"/><polygon fill="#181818" points="226.98,224.758,227.4471,222.8444,226.8021,223.7739,225.8726,223.129,226.98,224.758" style="stroke:#181818;stroke-width:0.20000000000000004;"/><text fill="#000000" font-family="sans-serif" font-size="2.6" lengthAdjust="spacing" textLength="15.6" x="225.8" y="218.0057">associated to</text></g><!--link GreenSpace to TDLEntry--><g id="link_GreenSpace_TDLEntry"><path codeLine="182" d="M254.238,183.7 C261.548,183.7 268.202,183.7 275.952,183.7 " fill="none" id="GreenSpace-to-TDLEntry" style="stroke:#181818;stroke-width:0.20000000000000004;"/><polygon fill="#181818" points="277.152,183.7,275.352,182.9,276.152,183.7,275.352,184.5,277.152,183.7" style="stroke:#181818;stroke-width:0.20000000000000004;"/><text fill="#000000" font-family="sans-serif" font-size="2.6" lengthAdjust="spacing" textLength="15.6" x="257.9" y="182.3057">associated to</text></g><!--link Repositories to Repositories--><g id="link_Repositories_Repositories"><path codeLine="184" d="M479.226,83.188 C483.448,83.776 486.2,84.848 486.2,86.4 C486.2,87.952 484.6365,88.8585 480.4145,89.4465 " fill="none" id="Repositories-to-Repositories" style="stroke:#181818;stroke-width:0.20000000000000004;"/><polygon fill="#181818" points="479.226,89.612,481.1191,90.1561,480.2164,89.4741,480.8984,88.5714,479.226,89.612" style="stroke:#181818;stroke-width:0.20000000000000004;"/><text fill="#000000" font-family="sans-serif" font-size="2.6" lengthAdjust="spacing" textLength="9.8" x="487.4" y="87.5057">instance</text></g><!--link ApplicationSession to ApplicationSession--><g id="link_ApplicationSession_ApplicationSession"><path codeLine="185" d="M581.732,82.686 C585.7,82.906 588.7,84.144 588.7,86.4 C588.7,88.656 586.8982,89.8276 582.9302,90.0476 " fill="none" id="ApplicationSession-to-ApplicationSession" style="stroke:#181818;stroke-width:0.20000000000000004;"/><polygon fill="#181818" points="581.732,90.114,583.5735,90.8131,582.7305,90.0586,583.485,89.2156,581.732,90.114" style="stroke:#181818;stroke-width:0.20000000000000004;"/><text fill="#000000" font-family="sans-serif" font-size="2.6" lengthAdjust="spacing" textLength="9.8" x="589.9" y="87.5057">instance</text></g><!--link AddEntryAgendaUI to AddEntryAgendaController--><g id="link_AddEntryAgendaUI_AddEntryAgendaController"><path codeLine="187" d="M256.77,7.076 C260.852,3.614 263.7,1.2 263.7,1.2 C263.7,1.2 319.7,1.2 319.7,1.2 C319.7,1.2 327.4289,2.8653 340.7409,5.7333 " fill="none" id="AddEntryAgendaUI-to-AddEntryAgendaController" style="stroke:#181818;stroke-width:0.20000000000000004;stroke-dasharray:7.0,7.0;"/><polygon fill="#181818" points="341.914,5.986,340.3229,4.8248,340.9364,5.7754,339.9859,6.389,341.914,5.986" style="stroke:#181818;stroke-width:0.20000000000000004;"/></g><!--link AddEntryAgendaController to Repositories--><g id="link_AddEntryAgendaController_Repositories"><path codeLine="189" d="M452.056,56.608 C450.264,62.732 448.7671,67.8523 447.2491,73.0383 " fill="none" id="AddEntryAgendaController-to-Repositories" style="stroke:#181818;stroke-width:0.20000000000000004;"/><polygon fill="#181818" points="446.912,74.19,448.1854,72.6872,447.1929,73.2303,446.6499,72.2377,446.912,74.19" style="stroke:#181818;stroke-width:0.20000000000000004;"/><text fill="#000000" font-family="sans-serif" font-size="2.6" lengthAdjust="spacing" textLength="21.6" x="449.8" y="67.4057">retrieves instances</text></g><!--link Repositories to GreenSpaceRepository--><g id="link_Repositories_GreenSpaceRepository"><path codeLine="191" d="M413.632,98.606 C401.4,103.538 388.2729,108.8312 375.5929,113.9452 " fill="none" id="Repositories-to-GreenSpaceRepository" style="stroke:#181818;stroke-width:0.20000000000000004;"/><polygon fill="#181818" points="374.48,114.394,376.4486,114.4627,375.4074,114.02,375.8501,112.9788,374.48,114.394" style="stroke:#181818;stroke-width:0.20000000000000004;"/><text fill="#000000" font-family="sans-serif" font-size="2.6" lengthAdjust="spacing" textLength="11.2" x="398.2" y="107.6057">accesses</text></g><!--link Repositories to ToDoListRepository--><g id="link_Repositories_ToDoListRepository"><path codeLine="192" d="M441.442,98.606 C440.638,103.538 439.8951,108.0956 439.0611,113.2096 " fill="none" id="Repositories-to-ToDoListRepository" style="stroke:#181818;stroke-width:0.20000000000000004;"/><polygon fill="#181818" points="438.868,114.394,439.9473,112.7462,439.029,113.407,438.3682,112.4887,438.868,114.394" style="stroke:#181818;stroke-width:0.20000000000000004;"/><text fill="#000000" font-family="sans-serif" font-size="2.6" lengthAdjust="spacing" textLength="11.2" x="440.8" y="107.6057">accesses</text></g><!--link Repositories to AgendaRepository--><g id="link_Repositories_AgendaRepository"><path codeLine="193" d="M459.004,98.606 C465.416,103.538 471.929,108.5482 478.575,113.6622 " fill="none" id="Repositories-to-AgendaRepository" style="stroke:#181818;stroke-width:0.20000000000000004;"/><polygon fill="#181818" points="479.526,114.394,478.5873,112.6623,478.7335,113.7842,477.6116,113.9303,479.526,114.394" style="stroke:#181818;stroke-width:0.20000000000000004;"/><text fill="#000000" font-family="sans-serif" font-size="2.6" lengthAdjust="spacing" textLength="11.2" x="470.8" y="107.6057">accesses</text></g><!--link AddEntryAgendaController to GreenSpaceRepository--><g id="link_AddEntryAgendaController_GreenSpaceRepository"><path codeLine="195" d="M397.05,56.616 C374.008,65.898 353.4,74.2 353.4,74.2 C353.4,74.2 347.7106,97.1732 343.7386,113.2032 " fill="none" id="AddEntryAgendaController-to-GreenSpaceRepository" style="stroke:#181818;stroke-width:0.20000000000000004;stroke-dasharray:7.0,7.0;"/><polygon fill="#181818" points="343.45,114.368,344.6594,112.8132,343.6905,113.3974,343.1064,112.4284,343.45,114.368" style="stroke:#181818;stroke-width:0.20000000000000004;"/><text fill="#000000" font-family="sans-serif" font-size="2.6" lengthAdjust="spacing" textLength="26.2" x="353.6" y="87.5057">greenSpaceRepository</text></g><!--link AddEntryAgendaController to ToDoListRepository--><g id="link_AddEntryAgendaController_ToDoListRepository"><path codeLine="196" d="M413.638,56.616 C396.724,65.898 381.6,74.2 381.6,74.2 C381.6,74.2 381.6,98.6 381.6,98.6 C381.6,98.6 395.4462,106.0757 409.7342,113.7937 " fill="none" id="AddEntryAgendaController-to-ToDoListRepository" style="stroke:#181818;stroke-width:0.20000000000000004;stroke-dasharray:7.0,7.0;"/><polygon fill="#181818" points="410.79,114.364,409.5865,112.8046,409.9102,113.8887,408.8261,114.2124,410.79,114.364" style="stroke:#181818;stroke-width:0.20000000000000004;"/><text fill="#000000" font-family="sans-serif" font-size="2.6" lengthAdjust="spacing" textLength="22" x="381.8" y="87.5057">toDoListRepository</text></g><!--link AddEntryAgendaController to AgendaRepository--><g id="link_AddEntryAgendaController_AgendaRepository"><path codeLine="197" d="M482.368,56.648 C490.834,65.918 498.4,74.2 498.4,74.2 C498.4,74.2 498.4,98.6 498.4,98.6 C498.4,98.6 498.2164,105.4164 498.0084,113.1204 " fill="none" id="AddEntryAgendaController-to-AgendaRepository" style="stroke:#181818;stroke-width:0.20000000000000004;stroke-dasharray:7.0,7.0;"/><polygon fill="#181818" points="497.976,114.32,498.8243,112.5422,498.003,113.3204,497.2249,112.4991,497.976,114.32" style="stroke:#181818;stroke-width:0.20000000000000004;"/><text fill="#000000" font-family="sans-serif" font-size="2.6" lengthAdjust="spacing" textLength="20.8" x="498.6" y="87.5057">agendaRepository</text></g><!--link ApplicationSession to UserSession--><g id="link_ApplicationSession_UserSession"><path codeLine="199" d="M563.44,94.938 C560.45,102.83 556.4492,113.3919 553.7052,120.6339 " fill="none" id="ApplicationSession-to-UserSession" style="stroke:#181818;stroke-width:0.20000000000000004;"/><polygon fill="#181818" points="553.28,121.756,554.6659,120.3562,553.6343,120.8209,553.1697,119.7893,553.28,121.756" style="stroke:#181818;stroke-width:0.20000000000000004;"/><text fill="#000000" font-family="sans-serif" font-size="2.6" lengthAdjust="spacing" textLength="14.4" x="560" y="107.6057">userSession</text><text fill="#000000" font-family="sans-serif" font-size="2.6" lengthAdjust="spacing" textLength="1.4" x="552.2193" y="119.5648">1</text></g><!--link AddEntryAgendaController to ApplicationSession--><g id="link_AddEntryAgendaController_ApplicationSession"><path codeLine="201" d="M525.478,56.604 C537.33,61.106 546,64.4 546,64.4 C546,64.4 552.1077,70.8639 557.9297,77.0239 " fill="none" id="AddEntryAgendaController-to-ApplicationSession" style="stroke:#181818;stroke-width:0.20000000000000004;stroke-dasharray:7.0,7.0;"/><polygon fill="#181818" points="558.754,77.896,558.099,76.0383,558.0671,77.1692,556.9362,77.1373,558.754,77.896" style="stroke:#181818;stroke-width:0.20000000000000004;"/></g><!--link AddEntryAgendaController to UserSession--><g id="link_AddEntryAgendaController_UserSession"><path codeLine="202" d="M495.796,56.648 C509.212,65.918 521.2,74.2 521.2,74.2 C521.2,74.2 538.7799,106.3333 546.6539,120.7213 " fill="none" id="AddEntryAgendaController-to-UserSession" style="stroke:#181818;stroke-width:0.20000000000000004;stroke-dasharray:7.0,7.0;"/><polygon fill="#181818" points="547.23,121.774,547.0677,119.8109,546.7499,120.8968,545.6641,120.579,547.23,121.774" style="stroke:#181818;stroke-width:0.20000000000000004;"/></g><!--link GreenSpaceRepository to GreenSpace--><g id="link_GreenSpaceRepository_GreenSpace"><path codeLine="204" d="M308.842,142.636 C291.59,150.354 273.6,158.4 273.6,158.4 C273.6,158.4 265.8622,161.9962 255.3462,166.8842 " fill="none" id="GreenSpaceRepository-to-GreenSpace" style="stroke:#181818;stroke-width:0.20000000000000004;stroke-dasharray:7.0,7.0;"/><polygon fill="#181818" points="254.258,167.39,256.2275,167.3567,255.1648,166.9685,255.5531,165.9058,254.258,167.39" style="stroke:#181818;stroke-width:0.20000000000000004;"/><text fill="#000000" font-family="sans-serif" font-size="2.6" lengthAdjust="spacing" textLength="7.2" x="295.4" y="151.6057">stores</text></g><!--link ToDoListRepository to ToDoList--><g id="link_ToDoListRepository_ToDoList"><path codeLine="205" d="M433.254,142.604 C427.502,166.51 416.0307,214.1893 409.7167,240.4313 " fill="none" id="ToDoListRepository-to-ToDoList" style="stroke:#181818;stroke-width:0.20000000000000004;stroke-dasharray:7.0,7.0;"/><polygon fill="#181818" points="409.436,241.598,410.6349,240.0351,409.6699,240.6257,409.0793,239.6608,409.436,241.598" style="stroke:#181818;stroke-width:0.20000000000000004;"/><text fill="#000000" font-family="sans-serif" font-size="2.6" lengthAdjust="spacing" textLength="7.2" x="429.6" y="184.8057">stores</text></g><!--link AgendaRepository to Agenda--><g id="link_AgendaRepository_Agenda"><path codeLine="206" d="M492.824,142.65 C479.178,182.502 441,294 441,294 C441,294 325.1448,312.6216 266.7388,322.0096 " fill="none" id="AgendaRepository-to-Agenda" style="stroke:#181818;stroke-width:0.20000000000000004;stroke-dasharray:7.0,7.0;"/><polygon fill="#181818" points="265.554,322.2,267.4581,322.7042,266.5413,322.0413,267.2042,321.1245,265.554,322.2" style="stroke:#181818;stroke-width:0.20000000000000004;"/><text fill="#000000" font-family="sans-serif" font-size="2.6" lengthAdjust="spacing" textLength="7.2" x="468.2" y="218.0057">stores</text></g><!--SRC=[tLXBRnit4Bxlho1oyHQMZFOg509SsmqC934GERbJkvJ4UaLkIQuDjUX_x_3DNNBb1CwXg0wIblFDy9i7EIDTo2VAUYpm4Hqvuyr1y2D1IWoaYf8UDqzuJpRgr14aIACmstSfG1vmoryeswCTxcGgwIWZwjGJrFFkf1-gYuAG2yMhHAlfi9JNIWcw7HIvRpZRqBy8-hcgAYD2rttVqGOh2X8Y9NnKVrS8NfT8AbXkq9weUmRVMKFgdvm8rcu68GXJJWaa_tYJNoGHKrkWe9VlZfXsAVQz88Hj82m4MUWICNmaAxG1ocplbhHhaoKi25wXbWzRY9_T8zggBTIOMZWzOsJXD8owT-QPqnOzuuwsM95ev1CefuPUWJ-2-JhPwXNuDH2e2sIsd7S4CqJ-7A00weVj7r0bY7inPGeTi3pSy3Pc8mbYqt4M1TuObG-xt9sGXCVR3tTCYLD8WQAgotA0vTCjaOsWlIwMYNGGUyAQqsIr7GGkW65Ftb08HnkPhn8l77jFAqHLiuhf7FC9wuv9UFOSfZ71RR9xdOHm7xw-9ISXfZuZ8ThNmA_5_xs0fx17WeyhfDypqLToe4r7v0fze5BzwXxN3gVlZ45EjeT5eMv16NHuWplzrOKf2SQFINDOi4mMSST8umUK0gZewDJw3IbuAm1SQ6htYPxjvrkgAgsThB0U-ItNEGbL1TUpe25JYQxFrbv2bjzlFlgQTGRg3EzDBJHQgnNSjKcqt3JyzARZutsPEJx_1n_F9ZDMuMVISqaLTzV5qdeQvUkaJ6Mb3J-OeuAx4KYGFUWHyRrTSXIExpupKI5lWUUqSX-9YeycWONABuVAIzT8kMzowageYb1t7fhGYNQ0Z7-GjKK4nKJssmb2Ly-5xzoUasel-sLbQuJDP-QJ5TVkl5XGuetN1hxsg_V4AOJryrwKTmdy0tCuM8RxvNYUHAiHn0DArM_09O5Nogl0gEJBNc4QN0EVBYQvSEVV8hxSkrp0JAq4xpeYLXF8JP0Oe4-lGQp2X53vQ-oqcJRFk5xgdz_KrozdEPaXFZovv9jfLGmiVPJ3zaZr_dW4WgkEo7GvZ3nEz9Zwwp3kbd68k-YrayTkFO481NfQCEe5SwxPpEmBnJ9RGZ4_ARXOF4jNvoamAni36zG1CkX-NutWCvAp6QkBJQ7avQ9q9UR-BVBxPUhPOfRgh7SsasMkSqTxT8UE5Kh7Ehcenk3yI5led0zQPKRcL4Cp7SqAOHO8HMzEwhTEdvUsgK8qDXz_5_nO-1Mj0MR8MQAaJzi5FKuyO_LfE6xDtH8nHF_0Zg3-06C5ip2mp3WGwSWE9fFT-RigdKsWQsFu2Gad4hTe1smrjmi96_I3CkWllUxi4a4WdMO5RqXlDzdK369BkFDbpvcaUiZOSQ73gTdVsGaCAjMO2eqHWx5e-qfRkE77uy1qqW3_GjN10YPNz1oD36Uyk3TSTE21053o4-6KZq7d1Cu6z3Df27qcEef9HpJHdDMRa1TqVx3iOt9iCEraHrgqFHcYsWNAnfoZCIrTBjUfcLKO3sKGUyqL6YIH4ostc9P9AfG7_iA0GXMEnzXYMJuXrEd61h6tMw-pf7bYSOhCZCG6QUmao7LeLrDKDPfP03XwNW5hExnK-LzdXcM-ckXKsH1njPulW6gsmIrR263EJH1TiBhC_8vowezJB5xF48e6L7HKYqg52_erbUoIJXJctRkwccLOQdVd3HLPvytml96I7zEMNwm8YC6xNzwbVueYKxZXBz9Nzit_dpsBJ_zyhOeX7CSMpYAiGZ8AKKg35t1P869q0kPV]--></g></svg>