<?xml version="1.0" encoding="us-ascii" standalone="no"?><svg xmlns="http://www.w3.org/2000/svg" xmlns:xlink="http://www.w3.org/1999/xlink" contentStyleType="text/css" height="1514px" preserveAspectRatio="none" style="width:1989px;height:1514px;background:#FFFFFF;" version="1.1" viewBox="0 0 1989 1514" width="1989px" zoomAndPan="magnify"><defs/><g><rect fill="#FFFFFF" height="1319.3887" style="stroke:#181818;stroke-width:1.0;" width="10" x="78.5" y="93.6211"/><rect fill="#FFFFFF" height="575.5684" style="stroke:#181818;stroke-width:1.0;" width="10" x="480.5" y="116.9121"/><rect fill="#FFFFFF" height="31.291" style="stroke:#181818;stroke-width:1.0;" width="10" x="480.5" y="723.7715"/><rect fill="#FFFFFF" height="31.291" style="stroke:#181818;stroke-width:1.0;" width="10" x="480.5" y="786.3535"/><rect fill="#FFFFFF" height="564.0742" style="stroke:#181818;stroke-width:1.0;" width="10" x="480.5" y="848.9355"/><rect fill="#FFFFFF" height="502.9863" style="stroke:#181818;stroke-width:1.0;" width="10" x="771.5" y="158.2031"/><rect fill="#FFFFFF" height="541.7832" style="stroke:#181818;stroke-width:1.0;" width="10" x="771.5" y="880.2266"/><rect fill="#FFFFFF" height="90.543" style="stroke:#181818;stroke-width:1.0;" width="10" x="776.5" y="944.5176"/><rect fill="#FFFFFF" height="31.291" style="stroke:#181818;stroke-width:1.0;" width="10" x="946.5" y="191.8242"/><rect fill="#FFFFFF" height="31.291" style="stroke:#181818;stroke-width:1.0;" width="10" x="1053.5" y="254.4063"/><rect fill="#FFFFFF" height="31.291" style="stroke:#181818;stroke-width:1.0;" width="10" x="1053.5" y="316.9883"/><rect fill="#FFFFFF" height="31.291" style="stroke:#181818;stroke-width:1.0;" width="10" x="1053.5" y="379.5703"/><rect fill="#FFFFFF" height="31.291" style="stroke:#181818;stroke-width:1.0;" width="10" x="1359.5" y="473.4434"/><rect fill="#FFFFFF" height="823.4023" style="stroke:#181818;stroke-width:1.0;" width="10" x="1359.5" y="598.6074"/><rect fill="#FFFFFF" height="31.291" style="stroke:#181818;stroke-width:1.0;" width="10" x="1508.5" y="1098.3516"/><rect fill="#FFFFFF" height="261.0762" style="stroke:#181818;stroke-width:1.0;" width="10" x="1698.5" y="1160.9336"/><rect fill="#FFFFFF" height="42.291" style="stroke:#181818;stroke-width:1.0;" width="10" x="1703.5" y="1243.8457"/><rect fill="#FFFFFF" height="42.291" style="stroke:#181818;stroke-width:1.0;" width="10" x="1703.5" y="1332.4277"/><line style="stroke:#181818;stroke-width:0.5;stroke-dasharray:5.0,5.0;" x1="83" x2="83" y1="83.6211" y2="1431.0098"/><line style="stroke:#181818;stroke-width:0.5;stroke-dasharray:5.0,5.0;" x1="485" x2="485" y1="83.6211" y2="1431.0098"/><line style="stroke:#181818;stroke-width:0.5;stroke-dasharray:5.0,5.0;" x1="776" x2="776" y1="156.7227" y2="1431.0098"/><line style="stroke:#181818;stroke-width:0.5;stroke-dasharray:5.0,5.0;" x1="951" x2="951" y1="83.6211" y2="1431.0098"/><line style="stroke:#181818;stroke-width:0.5;stroke-dasharray:5.0,5.0;" x1="1058" x2="1058" y1="83.6211" y2="1431.0098"/><line style="stroke:#181818;stroke-width:0.5;stroke-dasharray:5.0,5.0;" x1="1200" x2="1200" y1="83.6211" y2="1431.0098"/><line style="stroke:#181818;stroke-width:0.5;stroke-dasharray:5.0,5.0;" x1="1364" x2="1364" y1="83.6211" y2="1431.0098"/><line style="stroke:#181818;stroke-width:0.5;stroke-dasharray:5.0,5.0;" x1="1513" x2="1513" y1="83.6211" y2="1431.0098"/><line style="stroke:#181818;stroke-width:0.5;stroke-dasharray:5.0,5.0;" x1="1626" x2="1626" y1="83.6211" y2="1431.0098"/><line style="stroke:#181818;stroke-width:0.5;stroke-dasharray:5.0,5.0;" x1="1703" x2="1703" y1="83.6211" y2="1431.0098"/><line style="stroke:#181818;stroke-width:0.5;stroke-dasharray:5.0,5.0;" x1="1935.5" x2="1935.5" y1="1200.7441" y2="1431.0098"/><text fill="#000000" font-family="sans-serif" font-size="14" lengthAdjust="spacing" textLength="151" x="5" y="80.1074">Green Spaces Manager</text><ellipse cx="83.5" cy="13.5" fill="#E3E3E3" rx="8" ry="8" style="stroke:#181818;stroke-width:0.5;"/><path d="M83.5,21.5 L83.5,48.5 M70.5,29.5 L96.5,29.5 M83.5,48.5 L70.5,63.5 M83.5,48.5 L96.5,63.5 " fill="none" style="stroke:#181818;stroke-width:0.5;"/><text fill="#000000" font-family="sans-serif" font-size="14" lengthAdjust="spacing" textLength="151" x="5" y="1445.1172">Green Spaces Manager</text><ellipse cx="83.5" cy="1457.1309" fill="#E3E3E3" rx="8" ry="8" style="stroke:#181818;stroke-width:0.5;"/><path d="M83.5,1465.1309 L83.5,1492.1309 M70.5,1473.1309 L96.5,1473.1309 M83.5,1492.1309 L70.5,1507.1309 M83.5,1492.1309 L96.5,1507.1309 " fill="none" style="stroke:#181818;stroke-width:0.5;"/><rect fill="#E3E3E3" height="32.6211" rx="2.5" ry="2.5" style="stroke:#181818;stroke-width:0.5;" width="137" x="417" y="50"/><text fill="#000000" font-family="sans-serif" font-size="14" lengthAdjust="spacing" textLength="123" x="424" y="72.1074">:AddEntryAgendaUI</text><rect fill="#E3E3E3" height="32.6211" rx="2.5" ry="2.5" style="stroke:#181818;stroke-width:0.5;" width="137" x="417" y="1430.0098"/><text fill="#000000" font-family="sans-serif" font-size="14" lengthAdjust="spacing" textLength="123" x="424" y="1452.1172">:AddEntryAgendaUI</text><rect fill="#E3E3E3" height="32.6211" rx="2.5" ry="2.5" style="stroke:#181818;stroke-width:0.5;" width="187" x="683" y="1430.0098"/><text fill="#000000" font-family="sans-serif" font-size="14" lengthAdjust="spacing" textLength="173" x="690" y="1452.1172">:AddEntryAgendaController</text><rect fill="#E3E3E3" height="32.6211" rx="2.5" ry="2.5" style="stroke:#181818;stroke-width:0.5;" width="97" x="903" y="50"/><text fill="#000000" font-family="sans-serif" font-size="14" lengthAdjust="spacing" textLength="83" x="910" y="72.1074">:Repositories</text><rect fill="#E3E3E3" height="32.6211" rx="2.5" ry="2.5" style="stroke:#181818;stroke-width:0.5;" width="97" x="903" y="1430.0098"/><text fill="#000000" font-family="sans-serif" font-size="14" lengthAdjust="spacing" textLength="83" x="910" y="1452.1172">:Repositories</text><rect fill="#E3E3E3" height="51.2422" rx="2.5" ry="2.5" style="stroke:#181818;stroke-width:0.5;" width="97" x="1010" y="31.3789"/><text fill="#000000" font-family="sans-serif" font-size="14" lengthAdjust="spacing" textLength="74" x="1021.5" y="53.4863">repositories</text><text fill="#000000" font-family="sans-serif" font-size="14" lengthAdjust="spacing" textLength="83" x="1017" y="72.1074">:Repositories</text><rect fill="#E3E3E3" height="51.2422" rx="2.5" ry="2.5" style="stroke:#181818;stroke-width:0.5;" width="97" x="1010" y="1430.0098"/><text fill="#000000" font-family="sans-serif" font-size="14" lengthAdjust="spacing" textLength="74" x="1021.5" y="1452.1172">repositories</text><text fill="#000000" font-family="sans-serif" font-size="14" lengthAdjust="spacing" textLength="83" x="1017" y="1470.7383">:Repositories</text><rect fill="#E3E3E3" height="51.2422" rx="2.5" ry="2.5" style="stroke:#181818;stroke-width:0.5;" width="166" x="1117" y="31.3789"/><text fill="#000000" font-family="sans-serif" font-size="14" lengthAdjust="spacing" textLength="145" x="1127.5" y="53.4863">greenSpaceRepository</text><text fill="#000000" font-family="sans-serif" font-size="14" lengthAdjust="spacing" textLength="152" x="1124" y="72.1074">:GreenSpaceRepository</text><rect fill="#E3E3E3" height="51.2422" rx="2.5" ry="2.5" style="stroke:#181818;stroke-width:0.5;" width="166" x="1117" y="1430.0098"/><text fill="#000000" font-family="sans-serif" font-size="14" lengthAdjust="spacing" textLength="145" x="1127.5" y="1452.1172">greenSpaceRepository</text><text fill="#000000" font-family="sans-serif" font-size="14" lengthAdjust="spacing" textLength="152" x="1124" y="1470.7383">:GreenSpaceRepository</text><rect fill="#E3E3E3" height="51.2422" rx="2.5" ry="2.5" style="stroke:#181818;stroke-width:0.5;" width="143" x="1293" y="31.3789"/><text fill="#000000" font-family="sans-serif" font-size="14" lengthAdjust="spacing" textLength="120" x="1304.5" y="53.4863">toDoListRepository</text><text fill="#000000" font-family="sans-serif" font-size="14" lengthAdjust="spacing" textLength="129" x="1300" y="72.1074">:ToDoListRepository</text><rect fill="#E3E3E3" height="51.2422" rx="2.5" ry="2.5" style="stroke:#181818;stroke-width:0.5;" width="143" x="1293" y="1430.0098"/><text fill="#000000" font-family="sans-serif" font-size="14" lengthAdjust="spacing" textLength="120" x="1304.5" y="1452.1172">toDoListRepository</text><text fill="#000000" font-family="sans-serif" font-size="14" lengthAdjust="spacing" textLength="129" x="1300" y="1470.7383">:ToDoListRepository</text><rect fill="#E3E3E3" height="51.2422" rx="2.5" ry="2.5" style="stroke:#181818;stroke-width:0.5;" width="135" x="1446" y="31.3789"/><text fill="#000000" font-family="sans-serif" font-size="14" lengthAdjust="spacing" textLength="116" x="1455.5" y="53.4863">agendaRepository</text><text fill="#000000" font-family="sans-serif" font-size="14" lengthAdjust="spacing" textLength="121" x="1453" y="72.1074">:AgendaRepository</text><rect fill="#E3E3E3" height="51.2422" rx="2.5" ry="2.5" style="stroke:#181818;stroke-width:0.5;" width="135" x="1446" y="1430.0098"/><text fill="#000000" font-family="sans-serif" font-size="14" lengthAdjust="spacing" textLength="116" x="1455.5" y="1452.1172">agendaRepository</text><text fill="#000000" font-family="sans-serif" font-size="14" lengthAdjust="spacing" textLength="121" x="1453" y="1470.7383">:AgendaRepository</text><rect fill="#E3E3E3" height="32.6211" rx="2.5" ry="2.5" style="stroke:#181818;stroke-width:0.5;" width="71" x="1591" y="50"/><text fill="#000000" font-family="sans-serif" font-size="14" lengthAdjust="spacing" textLength="57" x="1598" y="72.1074">ToDoList</text><rect fill="#E3E3E3" height="32.6211" rx="2.5" ry="2.5" style="stroke:#181818;stroke-width:0.5;" width="71" x="1591" y="1430.0098"/><text fill="#000000" font-family="sans-serif" font-size="14" lengthAdjust="spacing" textLength="57" x="1598" y="1452.1172">ToDoList</text><rect fill="#E3E3E3" height="32.6211" rx="2.5" ry="2.5" style="stroke:#181818;stroke-width:0.5;" width="63" x="1672" y="50"/><text fill="#000000" font-family="sans-serif" font-size="14" lengthAdjust="spacing" textLength="49" x="1679" y="72.1074">Agenda</text><rect fill="#E3E3E3" height="32.6211" rx="2.5" ry="2.5" style="stroke:#181818;stroke-width:0.5;" width="63" x="1672" y="1430.0098"/><text fill="#000000" font-family="sans-serif" font-size="14" lengthAdjust="spacing" textLength="49" x="1679" y="1452.1172">Agenda</text><rect fill="#E3E3E3" height="32.6211" rx="2.5" ry="2.5" style="stroke:#181818;stroke-width:0.5;" width="96" x="1887.5" y="1430.0098"/><text fill="#000000" font-family="sans-serif" font-size="14" lengthAdjust="spacing" textLength="82" x="1894.5" y="1452.1172">AgendaEntry</text><rect fill="#FFFFFF" height="1319.3887" style="stroke:#181818;stroke-width:1.0;" width="10" x="78.5" y="93.6211"/><rect fill="#FFFFFF" height="575.5684" style="stroke:#181818;stroke-width:1.0;" width="10" x="480.5" y="116.9121"/><rect fill="#FFFFFF" height="31.291" style="stroke:#181818;stroke-width:1.0;" width="10" x="480.5" y="723.7715"/><rect fill="#FFFFFF" height="31.291" style="stroke:#181818;stroke-width:1.0;" width="10" x="480.5" y="786.3535"/><rect fill="#FFFFFF" height="564.0742" style="stroke:#181818;stroke-width:1.0;" width="10" x="480.5" y="848.9355"/><rect fill="#FFFFFF" height="502.9863" style="stroke:#181818;stroke-width:1.0;" width="10" x="771.5" y="158.2031"/><rect fill="#FFFFFF" height="541.7832" style="stroke:#181818;stroke-width:1.0;" width="10" x="771.5" y="880.2266"/><rect fill="#FFFFFF" height="90.543" style="stroke:#181818;stroke-width:1.0;" width="10" x="776.5" y="944.5176"/><rect fill="#FFFFFF" height="31.291" style="stroke:#181818;stroke-width:1.0;" width="10" x="946.5" y="191.8242"/><rect fill="#FFFFFF" height="31.291" style="stroke:#181818;stroke-width:1.0;" width="10" x="1053.5" y="254.4063"/><rect fill="#FFFFFF" height="31.291" style="stroke:#181818;stroke-width:1.0;" width="10" x="1053.5" y="316.9883"/><rect fill="#FFFFFF" height="31.291" style="stroke:#181818;stroke-width:1.0;" width="10" x="1053.5" y="379.5703"/><rect fill="#FFFFFF" height="31.291" style="stroke:#181818;stroke-width:1.0;" width="10" x="1359.5" y="473.4434"/><rect fill="#FFFFFF" height="823.4023" style="stroke:#181818;stroke-width:1.0;" width="10" x="1359.5" y="598.6074"/><rect fill="#FFFFFF" height="31.291" style="stroke:#181818;stroke-width:1.0;" width="10" x="1508.5" y="1098.3516"/><rect fill="#FFFFFF" height="261.0762" style="stroke:#181818;stroke-width:1.0;" width="10" x="1698.5" y="1160.9336"/><rect fill="#FFFFFF" height="42.291" style="stroke:#181818;stroke-width:1.0;" width="10" x="1703.5" y="1243.8457"/><rect fill="#FFFFFF" height="42.291" style="stroke:#181818;stroke-width:1.0;" width="10" x="1703.5" y="1332.4277"/><polygon fill="#181818" points="468.5,112.9121,478.5,116.9121,468.5,120.9121,472.5,116.9121" style="stroke:#181818;stroke-width:1.0;"/><line style="stroke:#181818;stroke-width:1.0;" x1="88.5" x2="474.5" y1="116.9121" y2="116.9121"/><text fill="#000000" font-family="sans-serif" font-size="13" font-weight="bold" lengthAdjust="spacing" textLength="7" x="95.5" y="111.6494">1</text><text fill="#000000" font-family="sans-serif" font-size="13" lengthAdjust="spacing" textLength="204" x="106.5" y="111.6494">asks to add an entry to the Agenda</text><polygon fill="#181818" points="671,144.2031,681,148.2031,671,152.2031,675,148.2031" style="stroke:#181818;stroke-width:1.0;"/><line style="stroke:#181818;stroke-width:1.0;" x1="490.5" x2="677" y1="148.2031" y2="148.2031"/><text fill="#000000" font-family="sans-serif" font-size="13" font-weight="bold" lengthAdjust="spacing" textLength="7" x="497.5" y="142.9404">2</text><text fill="#000000" font-family="sans-serif" font-size="13" lengthAdjust="spacing" textLength="36" x="508.5" y="142.9404">create</text><rect fill="#E3E3E3" height="32.6211" rx="2.5" ry="2.5" style="stroke:#181818;stroke-width:0.5;" width="187" x="683" y="124.9121"/><text fill="#000000" font-family="sans-serif" font-size="14" lengthAdjust="spacing" textLength="173" x="690" y="147.0195">:AddEntryAgendaController</text><polygon fill="#181818" points="934.5,187.8242,944.5,191.8242,934.5,195.8242,938.5,191.8242" style="stroke:#181818;stroke-width:1.0;"/><line style="stroke:#181818;stroke-width:1.0;" x1="781.5" x2="940.5" y1="191.8242" y2="191.8242"/><text fill="#000000" font-family="sans-serif" font-size="13" font-weight="bold" lengthAdjust="spacing" textLength="7" x="788.5" y="186.5615">3</text><text fill="#000000" font-family="sans-serif" font-size="13" lengthAdjust="spacing" textLength="75" x="799.5" y="186.5615">getInstance()</text><polygon fill="#181818" points="792.5,219.1152,782.5,223.1152,792.5,227.1152,788.5,223.1152" style="stroke:#181818;stroke-width:1.0;"/><line style="stroke:#181818;stroke-width:1.0;stroke-dasharray:2.0,2.0;" x1="786.5" x2="950.5" y1="223.1152" y2="223.1152"/><text fill="#000000" font-family="sans-serif" font-size="13" font-weight="bold" lengthAdjust="spacing" textLength="7" x="798.5" y="217.8525">4</text><text fill="#000000" font-family="sans-serif" font-size="13" lengthAdjust="spacing" textLength="67" x="809.5" y="217.8525">repositories</text><polygon fill="#181818" points="1041.5,250.4063,1051.5,254.4063,1041.5,258.4063,1045.5,254.4063" style="stroke:#181818;stroke-width:1.0;"/><line style="stroke:#181818;stroke-width:1.0;" x1="781.5" x2="1047.5" y1="254.4063" y2="254.4063"/><text fill="#000000" font-family="sans-serif" font-size="13" font-weight="bold" lengthAdjust="spacing" textLength="7" x="788.5" y="249.1436">5</text><text fill="#000000" font-family="sans-serif" font-size="13" lengthAdjust="spacing" textLength="160" x="799.5" y="249.1436">getGreenSpaceRepository()</text><polygon fill="#181818" points="792.5,281.6973,782.5,285.6973,792.5,289.6973,788.5,285.6973" style="stroke:#181818;stroke-width:1.0;"/><line style="stroke:#181818;stroke-width:1.0;" x1="786.5" x2="1057.5" y1="285.6973" y2="285.6973"/><text fill="#000000" font-family="sans-serif" font-size="13" font-weight="bold" lengthAdjust="spacing" textLength="7" x="798.5" y="280.4346">6</text><text fill="#000000" font-family="sans-serif" font-size="13" lengthAdjust="spacing" textLength="134" x="809.5" y="280.4346">GreenSpaceRepository</text><polygon fill="#181818" points="1041.5,312.9883,1051.5,316.9883,1041.5,320.9883,1045.5,316.9883" style="stroke:#181818;stroke-width:1.0;"/><line style="stroke:#181818;stroke-width:1.0;" x1="781.5" x2="1047.5" y1="316.9883" y2="316.9883"/><text fill="#000000" font-family="sans-serif" font-size="13" font-weight="bold" lengthAdjust="spacing" textLength="7" x="788.5" y="311.7256">7</text><text fill="#000000" font-family="sans-serif" font-size="13" lengthAdjust="spacing" textLength="139" x="799.5" y="311.7256">getToDoListRepository()</text><polygon fill="#181818" points="792.5,344.2793,782.5,348.2793,792.5,352.2793,788.5,348.2793" style="stroke:#181818;stroke-width:1.0;"/><line style="stroke:#181818;stroke-width:1.0;" x1="786.5" x2="1057.5" y1="348.2793" y2="348.2793"/><text fill="#000000" font-family="sans-serif" font-size="13" font-weight="bold" lengthAdjust="spacing" textLength="7" x="798.5" y="343.0166">8</text><text fill="#000000" font-family="sans-serif" font-size="13" lengthAdjust="spacing" textLength="113" x="809.5" y="343.0166">ToDoListRepository</text><polygon fill="#181818" points="1041.5,375.5703,1051.5,379.5703,1041.5,383.5703,1045.5,379.5703" style="stroke:#181818;stroke-width:1.0;"/><line style="stroke:#181818;stroke-width:1.0;" x1="781.5" x2="1047.5" y1="379.5703" y2="379.5703"/><text fill="#000000" font-family="sans-serif" font-size="13" font-weight="bold" lengthAdjust="spacing" textLength="7" x="788.5" y="374.3076">9</text><text fill="#000000" font-family="sans-serif" font-size="13" lengthAdjust="spacing" textLength="132" x="799.5" y="374.3076">getAgendaRepository()</text><polygon fill="#181818" points="792.5,406.8613,782.5,410.8613,792.5,414.8613,788.5,410.8613" style="stroke:#181818;stroke-width:1.0;"/><line style="stroke:#181818;stroke-width:1.0;" x1="786.5" x2="1057.5" y1="410.8613" y2="410.8613"/><text fill="#000000" font-family="sans-serif" font-size="13" font-weight="bold" lengthAdjust="spacing" textLength="14" x="798.5" y="405.5986">10</text><text fill="#000000" font-family="sans-serif" font-size="13" lengthAdjust="spacing" textLength="106" x="816.5" y="405.5986">AgendaRepository</text><polygon fill="#181818" points="759.5,438.1523,769.5,442.1523,759.5,446.1523,763.5,442.1523" style="stroke:#181818;stroke-width:1.0;"/><line style="stroke:#181818;stroke-width:1.0;" x1="490.5" x2="765.5" y1="442.1523" y2="442.1523"/><text fill="#000000" font-family="sans-serif" font-size="13" font-weight="bold" lengthAdjust="spacing" textLength="14" x="497.5" y="436.8896">11</text><text fill="#000000" font-family="sans-serif" font-size="13" lengthAdjust="spacing" textLength="148" x="515.5" y="436.8896">getToDoListByGSM(gsm)</text><polygon fill="#181818" points="1347.5,469.4434,1357.5,473.4434,1347.5,477.4434,1351.5,473.4434" style="stroke:#181818;stroke-width:1.0;"/><line style="stroke:#181818;stroke-width:1.0;" x1="781.5" x2="1353.5" y1="473.4434" y2="473.4434"/><text fill="#000000" font-family="sans-serif" font-size="13" font-weight="bold" lengthAdjust="spacing" textLength="14" x="788.5" y="468.1807">12</text><text fill="#000000" font-family="sans-serif" font-size="13" lengthAdjust="spacing" textLength="148" x="806.5" y="468.1807">getToDoListByGSM(gsm)</text><polygon fill="#181818" points="792.5,500.7344,782.5,504.7344,792.5,508.7344,788.5,504.7344" style="stroke:#181818;stroke-width:1.0;"/><line style="stroke:#181818;stroke-width:1.0;stroke-dasharray:2.0,2.0;" x1="786.5" x2="1363.5" y1="504.7344" y2="504.7344"/><text fill="#000000" font-family="sans-serif" font-size="13" font-weight="bold" lengthAdjust="spacing" textLength="14" x="798.5" y="499.4717">13</text><text fill="#000000" font-family="sans-serif" font-size="13" lengthAdjust="spacing" textLength="48" x="816.5" y="499.4717">toDoList</text><polygon fill="#181818" points="501.5,532.0254,491.5,536.0254,501.5,540.0254,497.5,536.0254" style="stroke:#181818;stroke-width:1.0;"/><line style="stroke:#181818;stroke-width:1.0;stroke-dasharray:2.0,2.0;" x1="495.5" x2="770.5" y1="536.0254" y2="536.0254"/><text fill="#000000" font-family="sans-serif" font-size="13" font-weight="bold" lengthAdjust="spacing" textLength="14" x="507.5" y="530.7627">14</text><text fill="#000000" font-family="sans-serif" font-size="13" lengthAdjust="spacing" textLength="48" x="525.5" y="530.7627">toDoList</text><polygon fill="#181818" points="759.5,563.3164,769.5,567.3164,759.5,571.3164,763.5,567.3164" style="stroke:#181818;stroke-width:1.0;"/><line style="stroke:#181818;stroke-width:1.0;" x1="490.5" x2="765.5" y1="567.3164" y2="567.3164"/><text fill="#000000" font-family="sans-serif" font-size="13" font-weight="bold" lengthAdjust="spacing" textLength="14" x="497.5" y="562.0537">15</text><text fill="#000000" font-family="sans-serif" font-size="13" lengthAdjust="spacing" textLength="118" x="515.5" y="562.0537">getToDoListEntries()</text><polygon fill="#181818" points="1347.5,594.6074,1357.5,598.6074,1347.5,602.6074,1351.5,598.6074" style="stroke:#181818;stroke-width:1.0;"/><line style="stroke:#181818;stroke-width:1.0;" x1="781.5" x2="1353.5" y1="598.6074" y2="598.6074"/><text fill="#000000" font-family="sans-serif" font-size="13" font-weight="bold" lengthAdjust="spacing" textLength="14" x="788.5" y="593.3447">16</text><text fill="#000000" font-family="sans-serif" font-size="13" lengthAdjust="spacing" textLength="118" x="806.5" y="593.3447">getToDoListEntries()</text><polygon fill="#181818" points="792.5,625.8984,782.5,629.8984,792.5,633.8984,788.5,629.8984" style="stroke:#181818;stroke-width:1.0;"/><line style="stroke:#181818;stroke-width:1.0;stroke-dasharray:2.0,2.0;" x1="786.5" x2="1358.5" y1="629.8984" y2="629.8984"/><text fill="#000000" font-family="sans-serif" font-size="13" font-weight="bold" lengthAdjust="spacing" textLength="14" x="798.5" y="624.6357">17</text><text fill="#000000" font-family="sans-serif" font-size="13" lengthAdjust="spacing" textLength="87" x="816.5" y="624.6357">todoListEntries</text><polygon fill="#181818" points="501.5,657.1895,491.5,661.1895,501.5,665.1895,497.5,661.1895" style="stroke:#181818;stroke-width:1.0;"/><line style="stroke:#181818;stroke-width:1.0;stroke-dasharray:2.0,2.0;" x1="495.5" x2="775.5" y1="661.1895" y2="661.1895"/><text fill="#000000" font-family="sans-serif" font-size="13" font-weight="bold" lengthAdjust="spacing" textLength="14" x="507.5" y="655.9268">18</text><text fill="#000000" font-family="sans-serif" font-size="13" lengthAdjust="spacing" textLength="89" x="525.5" y="655.9268">toDoListEntries</text><polygon fill="#181818" points="99.5,688.4805,89.5,692.4805,99.5,696.4805,95.5,692.4805" style="stroke:#181818;stroke-width:1.0;"/><line style="stroke:#181818;stroke-width:1.0;stroke-dasharray:2.0,2.0;" x1="93.5" x2="484.5" y1="692.4805" y2="692.4805"/><text fill="#000000" font-family="sans-serif" font-size="13" font-weight="bold" lengthAdjust="spacing" textLength="14" x="105.5" y="687.2178">19</text><text fill="#000000" font-family="sans-serif" font-size="13" lengthAdjust="spacing" textLength="350" x="123.5" y="687.2178">shows list of entries in the To-Do List and asks to select one</text><polygon fill="#181818" points="468.5,719.7715,478.5,723.7715,468.5,727.7715,472.5,723.7715" style="stroke:#181818;stroke-width:1.0;"/><line style="stroke:#181818;stroke-width:1.0;" x1="88.5" x2="474.5" y1="723.7715" y2="723.7715"/><text fill="#000000" font-family="sans-serif" font-size="13" font-weight="bold" lengthAdjust="spacing" textLength="14" x="95.5" y="718.5088">20</text><text fill="#000000" font-family="sans-serif" font-size="13" lengthAdjust="spacing" textLength="75" x="113.5" y="718.5088">selects entry</text><polygon fill="#181818" points="99.5,751.0625,89.5,755.0625,99.5,759.0625,95.5,755.0625" style="stroke:#181818;stroke-width:1.0;"/><line style="stroke:#181818;stroke-width:1.0;stroke-dasharray:2.0,2.0;" x1="93.5" x2="484.5" y1="755.0625" y2="755.0625"/><text fill="#000000" font-family="sans-serif" font-size="13" font-weight="bold" lengthAdjust="spacing" textLength="14" x="105.5" y="749.7998">21</text><text fill="#000000" font-family="sans-serif" font-size="13" lengthAdjust="spacing" textLength="318" x="123.5" y="749.7998">asks to select current status and type the starting date</text><polygon fill="#181818" points="468.5,782.3535,478.5,786.3535,468.5,790.3535,472.5,786.3535" style="stroke:#181818;stroke-width:1.0;"/><line style="stroke:#181818;stroke-width:1.0;" x1="88.5" x2="474.5" y1="786.3535" y2="786.3535"/><text fill="#000000" font-family="sans-serif" font-size="13" font-weight="bold" lengthAdjust="spacing" textLength="14" x="95.5" y="781.0908">22</text><text fill="#000000" font-family="sans-serif" font-size="13" lengthAdjust="spacing" textLength="219" x="113.5" y="781.0908">selects status and types starting date</text><polygon fill="#181818" points="99.5,813.6445,89.5,817.6445,99.5,821.6445,95.5,817.6445" style="stroke:#181818;stroke-width:1.0;"/><line style="stroke:#181818;stroke-width:1.0;stroke-dasharray:2.0,2.0;" x1="93.5" x2="484.5" y1="817.6445" y2="817.6445"/><text fill="#000000" font-family="sans-serif" font-size="13" font-weight="bold" lengthAdjust="spacing" textLength="14" x="105.5" y="812.3818">23</text><text fill="#000000" font-family="sans-serif" font-size="13" lengthAdjust="spacing" textLength="219" x="123.5" y="812.3818">shows data and requests confirmation</text><polygon fill="#181818" points="468.5,844.9355,478.5,848.9355,468.5,852.9355,472.5,848.9355" style="stroke:#181818;stroke-width:1.0;"/><line style="stroke:#181818;stroke-width:1.0;" x1="88.5" x2="474.5" y1="848.9355" y2="848.9355"/><text fill="#000000" font-family="sans-serif" font-size="13" font-weight="bold" lengthAdjust="spacing" textLength="14" x="95.5" y="843.6729">24</text><text fill="#000000" font-family="sans-serif" font-size="13" lengthAdjust="spacing" textLength="78" x="113.5" y="843.6729">confirms data</text><polygon fill="#181818" points="759.5,876.2266,769.5,880.2266,759.5,884.2266,763.5,880.2266" style="stroke:#181818;stroke-width:1.0;"/><line style="stroke:#181818;stroke-width:1.0;" x1="490.5" x2="765.5" y1="880.2266" y2="880.2266"/><text fill="#000000" font-family="sans-serif" font-size="13" font-weight="bold" lengthAdjust="spacing" textLength="14" x="497.5" y="874.9639">25</text><text fill="#000000" font-family="sans-serif" font-size="13" lengthAdjust="spacing" textLength="244" x="515.5" y="874.9639">addEntry(toDoListEntry, status, startDate)</text><line style="stroke:#181818;stroke-width:1.0;" x1="781.5" x2="828.5" y1="931.5176" y2="931.5176"/><line style="stroke:#181818;stroke-width:1.0;" x1="828.5" x2="828.5" y1="931.5176" y2="944.5176"/><line style="stroke:#181818;stroke-width:1.0;" x1="787.5" x2="828.5" y1="944.5176" y2="944.5176"/><polygon fill="#181818" points="797.5,940.5176,787.5,944.5176,797.5,948.5176,793.5,944.5176" style="stroke:#181818;stroke-width:1.0;"/><text fill="#000000" font-family="sans-serif" font-size="13" font-weight="bold" lengthAdjust="spacing" textLength="14" x="793.5" y="926.2549">26</text><text fill="#000000" font-family="sans-serif" font-size="13" lengthAdjust="spacing" textLength="133" x="811.5" y="926.2549">getGSMFromSession()</text><rect fill="none" height="43.252" style="stroke:#000000;stroke-width:1.5;" width="193" x="680" y="957.5176"/><path d="M680,957.5176 L742,957.5176 L742,966.5176 L732,976.5176 L680,976.5176 L680,957.5176 " fill="#EEEEEE" style="stroke:#000000;stroke-width:2.0;"/><text fill="#000000" font-family="sans-serif" font-size="13" font-weight="bold" lengthAdjust="spacing" textLength="17" x="693" y="973.5459">ref</text><text fill="#000000" font-family="sans-serif" font-size="12" lengthAdjust="spacing" textLength="48" x="752.5" y="993.4668">Get GSM</text><line style="stroke:#181818;stroke-width:1.0;stroke-dasharray:2.0,2.0;" x1="786.5" x2="828.5" y1="1034.0605" y2="1034.0605"/><line style="stroke:#181818;stroke-width:1.0;stroke-dasharray:2.0,2.0;" x1="828.5" x2="828.5" y1="1034.0605" y2="1047.0605"/><line style="stroke:#181818;stroke-width:1.0;stroke-dasharray:2.0,2.0;" x1="781.5" x2="828.5" y1="1047.0605" y2="1047.0605"/><polygon fill="#181818" points="791.5,1043.0605,781.5,1047.0605,791.5,1051.0605,787.5,1047.0605" style="stroke:#181818;stroke-width:1.0;"/><text fill="#000000" font-family="sans-serif" font-size="13" font-weight="bold" lengthAdjust="spacing" textLength="14" x="793.5" y="1028.7979">27</text><text fill="#000000" font-family="sans-serif" font-size="13" lengthAdjust="spacing" textLength="25" x="811.5" y="1028.7979">gsm</text><polygon fill="#181818" points="1496.5,1094.3516,1506.5,1098.3516,1496.5,1102.3516,1500.5,1098.3516" style="stroke:#181818;stroke-width:1.0;"/><line style="stroke:#181818;stroke-width:1.0;" x1="781.5" x2="1502.5" y1="1098.3516" y2="1098.3516"/><text fill="#000000" font-family="sans-serif" font-size="13" font-weight="bold" lengthAdjust="spacing" textLength="14" x="788.5" y="1093.0889">28</text><text fill="#000000" font-family="sans-serif" font-size="13" lengthAdjust="spacing" textLength="141" x="806.5" y="1093.0889">getAgendaByGSM(gsm)</text><polygon fill="#181818" points="792.5,1125.6426,782.5,1129.6426,792.5,1133.6426,788.5,1129.6426" style="stroke:#181818;stroke-width:1.0;"/><line style="stroke:#181818;stroke-width:1.0;stroke-dasharray:2.0,2.0;" x1="786.5" x2="1512.5" y1="1129.6426" y2="1129.6426"/><text fill="#000000" font-family="sans-serif" font-size="13" font-weight="bold" lengthAdjust="spacing" textLength="14" x="798.5" y="1124.3799">29</text><text fill="#000000" font-family="sans-serif" font-size="13" lengthAdjust="spacing" textLength="42" x="816.5" y="1124.3799">agenda</text><polygon fill="#181818" points="1686.5,1156.9336,1696.5,1160.9336,1686.5,1164.9336,1690.5,1160.9336" style="stroke:#181818;stroke-width:1.0;"/><line style="stroke:#181818;stroke-width:1.0;" x1="781.5" x2="1692.5" y1="1160.9336" y2="1160.9336"/><text fill="#000000" font-family="sans-serif" font-size="13" font-weight="bold" lengthAdjust="spacing" textLength="14" x="788.5" y="1155.6709">30</text><text fill="#000000" font-family="sans-serif" font-size="13" lengthAdjust="spacing" textLength="244" x="806.5" y="1155.6709">addEntry(toDoListEntry, status, startDate)</text><polygon fill="#181818" points="1875.5,1188.2246,1885.5,1192.2246,1875.5,1196.2246,1879.5,1192.2246" style="stroke:#181818;stroke-width:1.0;"/><line style="stroke:#181818;stroke-width:1.0;" x1="1708.5" x2="1881.5" y1="1192.2246" y2="1192.2246"/><text fill="#000000" font-family="sans-serif" font-size="13" font-weight="bold" lengthAdjust="spacing" textLength="14" x="1715.5" y="1186.9619">31</text><text fill="#000000" font-family="sans-serif" font-size="13" lengthAdjust="spacing" textLength="36" x="1733.5" y="1186.9619">create</text><rect fill="#E3E3E3" height="32.6211" rx="2.5" ry="2.5" style="stroke:#181818;stroke-width:0.5;" width="96" x="1887.5" y="1168.9336"/><text fill="#000000" font-family="sans-serif" font-size="14" lengthAdjust="spacing" textLength="82" x="1894.5" y="1191.041">AgendaEntry</text><line style="stroke:#181818;stroke-width:1.0;" x1="1708.5" x2="1755.5" y1="1230.8457" y2="1230.8457"/><line style="stroke:#181818;stroke-width:1.0;" x1="1755.5" x2="1755.5" y1="1230.8457" y2="1243.8457"/><line style="stroke:#181818;stroke-width:1.0;" x1="1714.5" x2="1755.5" y1="1243.8457" y2="1243.8457"/><polygon fill="#181818" points="1724.5,1239.8457,1714.5,1243.8457,1724.5,1247.8457,1720.5,1243.8457" style="stroke:#181818;stroke-width:1.0;"/><text fill="#000000" font-family="sans-serif" font-size="13" font-weight="bold" lengthAdjust="spacing" textLength="14" x="1720.5" y="1225.583">32</text><text fill="#000000" font-family="sans-serif" font-size="13" lengthAdjust="spacing" textLength="190" x="1738.5" y="1225.583">validateEntry(AgendaEntry entry)</text><line style="stroke:#181818;stroke-width:1.0;stroke-dasharray:2.0,2.0;" x1="1713.5" x2="1755.5" y1="1285.1367" y2="1285.1367"/><line style="stroke:#181818;stroke-width:1.0;stroke-dasharray:2.0,2.0;" x1="1755.5" x2="1755.5" y1="1285.1367" y2="1298.1367"/><line style="stroke:#181818;stroke-width:1.0;stroke-dasharray:2.0,2.0;" x1="1708.5" x2="1755.5" y1="1298.1367" y2="1298.1367"/><polygon fill="#181818" points="1718.5,1294.1367,1708.5,1298.1367,1718.5,1302.1367,1714.5,1298.1367" style="stroke:#181818;stroke-width:1.0;"/><text fill="#000000" font-family="sans-serif" font-size="13" font-weight="bold" lengthAdjust="spacing" textLength="14" x="1720.5" y="1279.874">33</text><text fill="#000000" font-family="sans-serif" font-size="13" lengthAdjust="spacing" textLength="22" x="1738.5" y="1279.874">true</text><line style="stroke:#181818;stroke-width:1.0;" x1="1708.5" x2="1755.5" y1="1319.4277" y2="1319.4277"/><line style="stroke:#181818;stroke-width:1.0;" x1="1755.5" x2="1755.5" y1="1319.4277" y2="1332.4277"/><line style="stroke:#181818;stroke-width:1.0;" x1="1714.5" x2="1755.5" y1="1332.4277" y2="1332.4277"/><polygon fill="#181818" points="1724.5,1328.4277,1714.5,1332.4277,1724.5,1336.4277,1720.5,1332.4277" style="stroke:#181818;stroke-width:1.0;"/><text fill="#000000" font-family="sans-serif" font-size="13" font-weight="bold" lengthAdjust="spacing" textLength="14" x="1720.5" y="1314.165">34</text><text fill="#000000" font-family="sans-serif" font-size="13" lengthAdjust="spacing" textLength="168" x="1738.5" y="1314.165">addEntry(AgendaEntry entry)</text><line style="stroke:#181818;stroke-width:1.0;stroke-dasharray:2.0,2.0;" x1="1713.5" x2="1755.5" y1="1373.7188" y2="1373.7188"/><line style="stroke:#181818;stroke-width:1.0;stroke-dasharray:2.0,2.0;" x1="1755.5" x2="1755.5" y1="1373.7188" y2="1386.7188"/><line style="stroke:#181818;stroke-width:1.0;stroke-dasharray:2.0,2.0;" x1="1708.5" x2="1755.5" y1="1386.7188" y2="1386.7188"/><polygon fill="#181818" points="1718.5,1382.7188,1708.5,1386.7188,1718.5,1390.7188,1714.5,1386.7188" style="stroke:#181818;stroke-width:1.0;"/><text fill="#000000" font-family="sans-serif" font-size="13" font-weight="bold" lengthAdjust="spacing" textLength="14" x="1720.5" y="1368.4561">35</text><text fill="#000000" font-family="sans-serif" font-size="13" lengthAdjust="spacing" textLength="22" x="1738.5" y="1368.4561">true</text><polygon fill="#181818" points="94.5,1409.0098,84.5,1413.0098,94.5,1417.0098,90.5,1413.0098" style="stroke:#181818;stroke-width:1.0;"/><line style="stroke:#181818;stroke-width:1.0;stroke-dasharray:2.0,2.0;" x1="88.5" x2="484.5" y1="1413.0098" y2="1413.0098"/><text fill="#000000" font-family="sans-serif" font-size="13" font-weight="bold" lengthAdjust="spacing" textLength="14" x="100.5" y="1407.7471">36</text><text fill="#000000" font-family="sans-serif" font-size="13" lengthAdjust="spacing" textLength="158" x="118.5" y="1407.7471">displays operation success</text><!--SRC=[lLVDSjem4BxhANPo2J3X1JXanWsf9pEXqm5owqMr1MXYIrGIIPd9mtSb6rkMRMBIDZw1jFljjoljZ_Gp5tkgQ0wv53BPAPapCEh0YAvszZHvfbksCiUCWMA9eMAR-G9wHrFvoiKMDZJJZ11wC58SyfzC4NAzuoc3ZPJcf_nDQ6AaWgjOCIPWXSXCmu8AX5TNG3L4ymL1KCCJlgV2mDKiIjDxOTGnsZAHqgS79_RqS5RgJk9lcMKbwDrw-HZ8BzbUQevSEDDEfbeuhhXr3nregYXFuuTe0tn_ZDPDZQrrqlbOWwDctB7i4EBLiWbWv5m-ScqQwklMebDUpmDbwYBHK8s2fIBYWTu9lqGD0bT058fnrvOx1RT__sszZEOHiMVENwXXxd09b1_-WUajdYJCKFfPWv50qnIe06Onx7-pGoK7M-jLQ7W7o3Lu7q9D4T42p_2U_ZemRJIar50O2PgpCV6bhnF5B8ox727ChLkUJ12e42CDaOg3Ksvi-P_TjLWTTmk1jymy28t9bB3Hk1SZ_2hJNHTsC8hzkbXDIyzj_EhxFHWsPNz1xnGjcqX5UBeoPMYeAY8kBz_NSLPBxz5wbsboYVy3pBOTRkVs9xdRDlp_dGshqIUv6fhzruxMvQDnf5-EyMenskfyF31GMD3x0E3YOc6xmt0rbFOgmQaB3TVt0cOD3t3tr0WgMuE3t4mSstsmOBrpbRmGVqHzU5JzG3hlKjyC6HX3EnUGosDuePMYbPM1RxHIlPEl6ZA41BbnpHbXWGlNdjToEfTWxM7dJgjEhbc6Wo98mKXWnxRjiFyNqhfe_AJLvLkC0Yl9GIbK1Mocvg0T3tFSCySFrt16mT4qjLsyXqiVdm1GTw25P4zhf7SoASBfnX8BN0qgYHGRhd9gEBRAdaFgC-2JBt4A4zrZY_MRTEOIBUVeaN-BZZTb96wA0CmHOqm634DlRs-aA_7gnCMQzXNV72kcDReT9DuPPCKs85-OQezlCJEOCOl66bRyTWPLMNDYetDoDZT2ppfTYvPUS-kfsVL072HsvDVTOe3lenIgLlRZ3nrYarRSZbOKM_HoffzCkkVYMj3IUA4PjtbISF6U1qMUjulikmHAOFS-FLFA-lateZE0qKKCBsLyWGTr0Pb1olK-eqSDSi-KgnQW3ma-f7LNUVD1yVdr1m00]--></g></svg>