<?xml version="1.0" encoding="us-ascii" standalone="no"?><svg xmlns="http://www.w3.org/2000/svg" xmlns:xlink="http://www.w3.org/1999/xlink" contentStyleType="text/css" height="1949px" preserveAspectRatio="none" style="width:2346px;height:1949px;background:#FFFFFF;" version="1.1" viewBox="0 0 2346 1949" width="2346px" zoomAndPan="magnify"><defs/><g><!--class ApplicationSession--><g id="elem_ApplicationSession"><rect codeLine="10" fill="#F1F1F1" height="85.2422" id="ApplicationSession" rx="2.5" ry="2.5" style="stroke:#181818;stroke-width:0.5;" width="151" x="1889.5" y="427.5"/><ellipse cx="1904.5" cy="443.5" fill="#ADD1B2" rx="11" ry="11" style="stroke:#181818;stroke-width:1.0;"/><path d="M1907.2656,439.375 Q1907.4219,439.1563 1907.6094,439.0469 Q1907.7969,438.9375 1908.0156,438.9375 Q1908.3906,438.9375 1908.625,439.2031 Q1908.8594,439.4531 1908.8594,440.0625 L1908.8594,441.5156 Q1908.8594,442.125 1908.625,442.3906 Q1908.3906,442.6563 1908.0156,442.6563 Q1907.6719,442.6563 1907.4688,442.4531 Q1907.2656,442.2656 1907.1563,441.75 Q1907.1094,441.3906 1906.9219,441.2031 Q1906.5938,440.8281 1905.9844,440.6094 Q1905.375,440.3906 1904.75,440.3906 Q1903.9844,440.3906 1903.3438,440.7188 Q1902.7188,441.0469 1902.2188,441.7969 Q1901.7344,442.5469 1901.7344,443.5781 L1901.7344,444.6719 Q1901.7344,445.9063 1902.625,446.7344 Q1903.5156,447.5469 1905.1094,447.5469 Q1906.0469,447.5469 1906.7031,447.2969 Q1907.0938,447.1406 1907.5156,446.7031 Q1907.7813,446.4375 1907.9219,446.3594 Q1908.0781,446.2813 1908.2813,446.2813 Q1908.6094,446.2813 1908.8594,446.5469 Q1909.125,446.7969 1909.125,447.1406 Q1909.125,447.4844 1908.7813,447.8906 Q1908.2813,448.4688 1907.4844,448.7969 Q1906.4063,449.25 1905.1094,449.25 Q1903.5938,449.25 1902.3906,448.625 Q1901.4063,448.125 1900.7188,447.0625 Q1900.0313,445.9844 1900.0313,444.7031 L1900.0313,443.5469 Q1900.0313,442.2188 1900.6406,441.0781 Q1901.2656,439.9219 1902.3594,439.3125 Q1903.4531,438.6875 1904.6875,438.6875 Q1905.4219,438.6875 1906.0625,438.8594 Q1906.7188,439.0156 1907.2656,439.375 Z " fill="#000000"/><text fill="#000000" font-family="sans-serif" font-size="14" lengthAdjust="spacing" textLength="119" x="1918.5" y="449.2969">ApplicationSession</text><line style="stroke:#181818;stroke-width:0.5;" x1="1890.5" x2="2039.5" y1="459.5" y2="459.5"/><line style="stroke:#181818;stroke-width:0.5;" x1="1890.5" x2="2039.5" y1="467.5" y2="467.5"/><text fill="#000000" font-family="sans-serif" font-size="14" lengthAdjust="spacing" textLength="128" x="1895.5" y="486.6074">+static getInstance()</text><text fill="#000000" font-family="sans-serif" font-size="14" lengthAdjust="spacing" textLength="136" x="1895.5" y="505.2285">+getCurrentSession()</text></g><!--class UserSession--><g id="elem_UserSession"><rect codeLine="16" fill="#F1F1F1" height="66.6211" id="UserSession" rx="2.5" ry="2.5" style="stroke:#181818;stroke-width:0.5;" width="113" x="1826.5" y="647"/><ellipse cx="1842.4" cy="663" fill="#ADD1B2" rx="11" ry="11" style="stroke:#181818;stroke-width:1.0;"/><path d="M1845.1656,658.875 Q1845.3219,658.6563 1845.5094,658.5469 Q1845.6969,658.4375 1845.9156,658.4375 Q1846.2906,658.4375 1846.525,658.7031 Q1846.7594,658.9531 1846.7594,659.5625 L1846.7594,661.0156 Q1846.7594,661.625 1846.525,661.8906 Q1846.2906,662.1563 1845.9156,662.1563 Q1845.5719,662.1563 1845.3688,661.9531 Q1845.1656,661.7656 1845.0563,661.25 Q1845.0094,660.8906 1844.8219,660.7031 Q1844.4938,660.3281 1843.8844,660.1094 Q1843.275,659.8906 1842.65,659.8906 Q1841.8844,659.8906 1841.2438,660.2188 Q1840.6188,660.5469 1840.1188,661.2969 Q1839.6344,662.0469 1839.6344,663.0781 L1839.6344,664.1719 Q1839.6344,665.4063 1840.525,666.2344 Q1841.4156,667.0469 1843.0094,667.0469 Q1843.9469,667.0469 1844.6031,666.7969 Q1844.9938,666.6406 1845.4156,666.2031 Q1845.6813,665.9375 1845.8219,665.8594 Q1845.9781,665.7813 1846.1813,665.7813 Q1846.5094,665.7813 1846.7594,666.0469 Q1847.025,666.2969 1847.025,666.6406 Q1847.025,666.9844 1846.6813,667.3906 Q1846.1813,667.9688 1845.3844,668.2969 Q1844.3063,668.75 1843.0094,668.75 Q1841.4938,668.75 1840.2906,668.125 Q1839.3063,667.625 1838.6188,666.5625 Q1837.9313,665.4844 1837.9313,664.2031 L1837.9313,663.0469 Q1837.9313,661.7188 1838.5406,660.5781 Q1839.1656,659.4219 1840.2594,658.8125 Q1841.3531,658.1875 1842.5875,658.1875 Q1843.3219,658.1875 1843.9625,658.3594 Q1844.6188,658.5156 1845.1656,658.875 Z " fill="#000000"/><text fill="#000000" font-family="sans-serif" font-size="14" lengthAdjust="spacing" textLength="79" x="1856.6" y="668.7969">UserSession</text><line style="stroke:#181818;stroke-width:0.5;" x1="1827.5" x2="1938.5" y1="679" y2="679"/><line style="stroke:#181818;stroke-width:0.5;" x1="1827.5" x2="1938.5" y1="687" y2="687"/><text fill="#000000" font-family="sans-serif" font-size="14" lengthAdjust="spacing" textLength="101" x="1832.5" y="706.1074">+getUserEmail()</text></g><!--class TDLEntry--><g id="elem_TDLEntry"><rect codeLine="21" fill="#F1F1F1" height="234.2109" id="TDLEntry" rx="2.5" ry="2.5" style="stroke:#181818;stroke-width:0.5;" width="500" x="970" y="1284"/><ellipse cx="1185.75" cy="1300" fill="#ADD1B2" rx="11" ry="11" style="stroke:#181818;stroke-width:1.0;"/><path d="M1188.5156,1295.875 Q1188.6719,1295.6563 1188.8594,1295.5469 Q1189.0469,1295.4375 1189.2656,1295.4375 Q1189.6406,1295.4375 1189.875,1295.7031 Q1190.1094,1295.9531 1190.1094,1296.5625 L1190.1094,1298.0156 Q1190.1094,1298.625 1189.875,1298.8906 Q1189.6406,1299.1563 1189.2656,1299.1563 Q1188.9219,1299.1563 1188.7188,1298.9531 Q1188.5156,1298.7656 1188.4063,1298.25 Q1188.3594,1297.8906 1188.1719,1297.7031 Q1187.8438,1297.3281 1187.2344,1297.1094 Q1186.625,1296.8906 1186,1296.8906 Q1185.2344,1296.8906 1184.5938,1297.2188 Q1183.9688,1297.5469 1183.4688,1298.2969 Q1182.9844,1299.0469 1182.9844,1300.0781 L1182.9844,1301.1719 Q1182.9844,1302.4063 1183.875,1303.2344 Q1184.7656,1304.0469 1186.3594,1304.0469 Q1187.2969,1304.0469 1187.9531,1303.7969 Q1188.3438,1303.6406 1188.7656,1303.2031 Q1189.0313,1302.9375 1189.1719,1302.8594 Q1189.3281,1302.7813 1189.5313,1302.7813 Q1189.8594,1302.7813 1190.1094,1303.0469 Q1190.375,1303.2969 1190.375,1303.6406 Q1190.375,1303.9844 1190.0313,1304.3906 Q1189.5313,1304.9688 1188.7344,1305.2969 Q1187.6563,1305.75 1186.3594,1305.75 Q1184.8438,1305.75 1183.6406,1305.125 Q1182.6563,1304.625 1181.9688,1303.5625 Q1181.2813,1302.4844 1181.2813,1301.2031 L1181.2813,1300.0469 Q1181.2813,1298.7188 1181.8906,1297.5781 Q1182.5156,1296.4219 1183.6094,1295.8125 Q1184.7031,1295.1875 1185.9375,1295.1875 Q1186.6719,1295.1875 1187.3125,1295.3594 Q1187.9688,1295.5156 1188.5156,1295.875 Z " fill="#000000"/><text fill="#000000" font-family="sans-serif" font-size="14" lengthAdjust="spacing" textLength="60" x="1206.25" y="1305.7969">TDLEntry</text><line style="stroke:#181818;stroke-width:0.5;" x1="971" x2="1469" y1="1316" y2="1316"/><text fill="#000000" font-family="sans-serif" font-size="14" lengthAdjust="spacing" textLength="72" x="976" y="1335.1074">-title: String</text><text fill="#000000" font-family="sans-serif" font-size="14" lengthAdjust="spacing" textLength="147" x="976" y="1353.7285">-taskDescription: String</text><text fill="#000000" font-family="sans-serif" font-size="14" lengthAdjust="spacing" textLength="101" x="976" y="1372.3496">-urgency: String</text><text fill="#000000" font-family="sans-serif" font-size="14" lengthAdjust="spacing" textLength="102" x="976" y="1390.9707">-duration: String</text><text fill="#000000" font-family="sans-serif" font-size="14" lengthAdjust="spacing" textLength="241" x="976" y="1409.5918">-associatedGreenSpace: GreenSpace</text><line style="stroke:#181818;stroke-width:0.5;" x1="971" x2="1469" y1="1417.1055" y2="1417.1055"/><text fill="#000000" font-family="sans-serif" font-size="14" lengthAdjust="spacing" textLength="488" x="976" y="1436.2129">+TDLEntry(String title, String taskDescription, String urgency, String duration)</text><text fill="#000000" font-family="sans-serif" font-size="14" lengthAdjust="spacing" textLength="338" x="976" y="1454.834">+boolean addGreenSpace(GreenSpace greenSpace)</text><text fill="#000000" font-family="sans-serif" font-size="14" lengthAdjust="spacing" textLength="168" x="976" y="1473.4551">+boolean equals(Object o)</text><text fill="#000000" font-family="sans-serif" font-size="14" lengthAdjust="spacing" textLength="102" x="976" y="1492.0762">+int hashCode()</text><text fill="#000000" font-family="sans-serif" font-size="14" lengthAdjust="spacing" textLength="116" x="976" y="1510.6973">+TDLEntry clone()</text></g><!--class AgendaEntry--><g id="elem_AgendaEntry"><rect codeLine="34" fill="#F1F1F1" height="345.9375" id="AgendaEntry" rx="2.5" ry="2.5" style="stroke:#181818;stroke-width:0.5;" width="743" x="1008.5" y="1597"/><ellipse cx="1334.75" cy="1613" fill="#ADD1B2" rx="11" ry="11" style="stroke:#181818;stroke-width:1.0;"/><path d="M1337.5156,1608.875 Q1337.6719,1608.6563 1337.8594,1608.5469 Q1338.0469,1608.4375 1338.2656,1608.4375 Q1338.6406,1608.4375 1338.875,1608.7031 Q1339.1094,1608.9531 1339.1094,1609.5625 L1339.1094,1611.0156 Q1339.1094,1611.625 1338.875,1611.8906 Q1338.6406,1612.1563 1338.2656,1612.1563 Q1337.9219,1612.1563 1337.7188,1611.9531 Q1337.5156,1611.7656 1337.4063,1611.25 Q1337.3594,1610.8906 1337.1719,1610.7031 Q1336.8438,1610.3281 1336.2344,1610.1094 Q1335.625,1609.8906 1335,1609.8906 Q1334.2344,1609.8906 1333.5938,1610.2188 Q1332.9688,1610.5469 1332.4688,1611.2969 Q1331.9844,1612.0469 1331.9844,1613.0781 L1331.9844,1614.1719 Q1331.9844,1615.4063 1332.875,1616.2344 Q1333.7656,1617.0469 1335.3594,1617.0469 Q1336.2969,1617.0469 1336.9531,1616.7969 Q1337.3438,1616.6406 1337.7656,1616.2031 Q1338.0313,1615.9375 1338.1719,1615.8594 Q1338.3281,1615.7813 1338.5313,1615.7813 Q1338.8594,1615.7813 1339.1094,1616.0469 Q1339.375,1616.2969 1339.375,1616.6406 Q1339.375,1616.9844 1339.0313,1617.3906 Q1338.5313,1617.9688 1337.7344,1618.2969 Q1336.6563,1618.75 1335.3594,1618.75 Q1333.8438,1618.75 1332.6406,1618.125 Q1331.6563,1617.625 1330.9688,1616.5625 Q1330.2813,1615.4844 1330.2813,1614.2031 L1330.2813,1613.0469 Q1330.2813,1611.7188 1330.8906,1610.5781 Q1331.5156,1609.4219 1332.6094,1608.8125 Q1333.7031,1608.1875 1334.9375,1608.1875 Q1335.6719,1608.1875 1336.3125,1608.3594 Q1336.9688,1608.5156 1337.5156,1608.875 Z " fill="#000000"/><text fill="#000000" font-family="sans-serif" font-size="14" lengthAdjust="spacing" textLength="82" x="1355.25" y="1618.7969">AgendaEntry</text><line style="stroke:#181818;stroke-width:0.5;" x1="1009.5" x2="1750.5" y1="1629" y2="1629"/><text fill="#000000" font-family="sans-serif" font-size="14" lengthAdjust="spacing" textLength="72" x="1014.5" y="1648.1074">-title: String</text><text fill="#000000" font-family="sans-serif" font-size="14" lengthAdjust="spacing" textLength="147" x="1014.5" y="1666.7285">-taskDescription: String</text><text fill="#000000" font-family="sans-serif" font-size="14" lengthAdjust="spacing" textLength="101" x="1014.5" y="1685.3496">-urgency: String</text><text fill="#000000" font-family="sans-serif" font-size="14" lengthAdjust="spacing" textLength="102" x="1014.5" y="1703.9707">-duration: String</text><text fill="#000000" font-family="sans-serif" font-size="14" lengthAdjust="spacing" textLength="241" x="1014.5" y="1722.5918">-associatedGreenSpace: GreenSpace</text><text fill="#000000" font-family="sans-serif" font-size="14" lengthAdjust="spacing" textLength="153" x="1014.5" y="1741.2129">-associatedTeam: Team</text><text fill="#000000" font-family="sans-serif" font-size="14" lengthAdjust="spacing" textLength="218" x="1014.5" y="1759.834">-associatedVehicles: List&lt;Vehicle&gt;</text><text fill="#000000" font-family="sans-serif" font-size="14" lengthAdjust="spacing" textLength="88" x="1014.5" y="1778.4551">-status: String</text><text fill="#000000" font-family="sans-serif" font-size="14" lengthAdjust="spacing" textLength="135" x="1014.5" y="1797.0762">-startDate: LocalDate</text><line style="stroke:#181818;stroke-width:0.5;" x1="1009.5" x2="1750.5" y1="1804.5898" y2="1804.5898"/><text fill="#000000" font-family="sans-serif" font-size="14" lengthAdjust="spacing" textLength="731" x="1014.5" y="1823.6973">+AgendaEntry(String title, String taskDescription, String urgency, String duration, String status, LocalDate startDate)</text><text fill="#000000" font-family="sans-serif" font-size="14" lengthAdjust="spacing" textLength="338" x="1014.5" y="1842.3184">+boolean addGreenSpace(GreenSpace greenSpace)</text><text fill="#000000" font-family="sans-serif" font-size="14" lengthAdjust="spacing" textLength="204" x="1014.5" y="1860.9395">+boolean addTeam(Team team)</text><text fill="#000000" font-family="sans-serif" font-size="14" lengthAdjust="spacing" textLength="237" x="1014.5" y="1879.5605">+boolean addVehicle(Vehicle vehicle)</text><text fill="#000000" font-family="sans-serif" font-size="14" lengthAdjust="spacing" textLength="168" x="1014.5" y="1898.1816">+boolean equals(Object o)</text><text fill="#000000" font-family="sans-serif" font-size="14" lengthAdjust="spacing" textLength="102" x="1014.5" y="1916.8027">+int hashCode()</text><text fill="#000000" font-family="sans-serif" font-size="14" lengthAdjust="spacing" textLength="138" x="1014.5" y="1935.4238">+AgendaEntry clone()</text></g><!--class ToDoList--><g id="elem_ToDoList"><rect codeLine="53" fill="#F1F1F1" height="178.3477" id="ToDoList" rx="2.5" ry="2.5" style="stroke:#181818;stroke-width:0.5;" width="323" x="1058.5" y="830"/><ellipse cx="1187.25" cy="846" fill="#ADD1B2" rx="11" ry="11" style="stroke:#181818;stroke-width:1.0;"/><path d="M1190.0156,841.875 Q1190.1719,841.6563 1190.3594,841.5469 Q1190.5469,841.4375 1190.7656,841.4375 Q1191.1406,841.4375 1191.375,841.7031 Q1191.6094,841.9531 1191.6094,842.5625 L1191.6094,844.0156 Q1191.6094,844.625 1191.375,844.8906 Q1191.1406,845.1563 1190.7656,845.1563 Q1190.4219,845.1563 1190.2188,844.9531 Q1190.0156,844.7656 1189.9063,844.25 Q1189.8594,843.8906 1189.6719,843.7031 Q1189.3438,843.3281 1188.7344,843.1094 Q1188.125,842.8906 1187.5,842.8906 Q1186.7344,842.8906 1186.0938,843.2188 Q1185.4688,843.5469 1184.9688,844.2969 Q1184.4844,845.0469 1184.4844,846.0781 L1184.4844,847.1719 Q1184.4844,848.4063 1185.375,849.2344 Q1186.2656,850.0469 1187.8594,850.0469 Q1188.7969,850.0469 1189.4531,849.7969 Q1189.8438,849.6406 1190.2656,849.2031 Q1190.5313,848.9375 1190.6719,848.8594 Q1190.8281,848.7813 1191.0313,848.7813 Q1191.3594,848.7813 1191.6094,849.0469 Q1191.875,849.2969 1191.875,849.6406 Q1191.875,849.9844 1191.5313,850.3906 Q1191.0313,850.9688 1190.2344,851.2969 Q1189.1563,851.75 1187.8594,851.75 Q1186.3438,851.75 1185.1406,851.125 Q1184.1563,850.625 1183.4688,849.5625 Q1182.7813,848.4844 1182.7813,847.2031 L1182.7813,846.0469 Q1182.7813,844.7188 1183.3906,843.5781 Q1184.0156,842.4219 1185.1094,841.8125 Q1186.2031,841.1875 1187.4375,841.1875 Q1188.1719,841.1875 1188.8125,841.3594 Q1189.4688,841.5156 1190.0156,841.875 Z " fill="#000000"/><text fill="#000000" font-family="sans-serif" font-size="14" lengthAdjust="spacing" textLength="57" x="1207.75" y="851.7969">ToDoList</text><line style="stroke:#181818;stroke-width:0.5;" x1="1059.5" x2="1380.5" y1="862" y2="862"/><text fill="#000000" font-family="sans-serif" font-size="14" lengthAdjust="spacing" textLength="176" x="1064.5" y="881.1074">-entries: List&lt;AgendaEntry&gt;</text><text fill="#000000" font-family="sans-serif" font-size="14" lengthAdjust="spacing" textLength="70" x="1064.5" y="899.7285">-gsm: GSM</text><line style="stroke:#181818;stroke-width:0.5;" x1="1059.5" x2="1380.5" y1="907.2422" y2="907.2422"/><text fill="#000000" font-family="sans-serif" font-size="14" lengthAdjust="spacing" textLength="311" x="1064.5" y="926.3496">+ToDoList(List&lt;AgendaEntry&gt; entries, GSM gsm)</text><text fill="#000000" font-family="sans-serif" font-size="14" lengthAdjust="spacing" textLength="199" x="1064.5" y="944.9707">+boolean addEntry(Entry entry)</text><text fill="#000000" font-family="sans-serif" font-size="14" lengthAdjust="spacing" textLength="168" x="1064.5" y="963.5918">+boolean equals(Object o)</text><text fill="#000000" font-family="sans-serif" font-size="14" lengthAdjust="spacing" textLength="102" x="1064.5" y="982.2129">+int hashCode()</text><text fill="#000000" font-family="sans-serif" font-size="14" lengthAdjust="spacing" textLength="113" x="1064.5" y="1000.834">+ToDoList clone()</text></g><!--class Agenda--><g id="elem_Agenda"><rect codeLine="63" fill="#F1F1F1" height="215.5898" id="Agenda" rx="2.5" ry="2.5" style="stroke:#181818;stroke-width:0.5;" width="315" x="1382.5" y="1038"/><ellipse cx="1511.25" cy="1054" fill="#ADD1B2" rx="11" ry="11" style="stroke:#181818;stroke-width:1.0;"/><path d="M1514.0156,1049.875 Q1514.1719,1049.6563 1514.3594,1049.5469 Q1514.5469,1049.4375 1514.7656,1049.4375 Q1515.1406,1049.4375 1515.375,1049.7031 Q1515.6094,1049.9531 1515.6094,1050.5625 L1515.6094,1052.0156 Q1515.6094,1052.625 1515.375,1052.8906 Q1515.1406,1053.1563 1514.7656,1053.1563 Q1514.4219,1053.1563 1514.2188,1052.9531 Q1514.0156,1052.7656 1513.9063,1052.25 Q1513.8594,1051.8906 1513.6719,1051.7031 Q1513.3438,1051.3281 1512.7344,1051.1094 Q1512.125,1050.8906 1511.5,1050.8906 Q1510.7344,1050.8906 1510.0938,1051.2188 Q1509.4688,1051.5469 1508.9688,1052.2969 Q1508.4844,1053.0469 1508.4844,1054.0781 L1508.4844,1055.1719 Q1508.4844,1056.4063 1509.375,1057.2344 Q1510.2656,1058.0469 1511.8594,1058.0469 Q1512.7969,1058.0469 1513.4531,1057.7969 Q1513.8438,1057.6406 1514.2656,1057.2031 Q1514.5313,1056.9375 1514.6719,1056.8594 Q1514.8281,1056.7813 1515.0313,1056.7813 Q1515.3594,1056.7813 1515.6094,1057.0469 Q1515.875,1057.2969 1515.875,1057.6406 Q1515.875,1057.9844 1515.5313,1058.3906 Q1515.0313,1058.9688 1514.2344,1059.2969 Q1513.1563,1059.75 1511.8594,1059.75 Q1510.3438,1059.75 1509.1406,1059.125 Q1508.1563,1058.625 1507.4688,1057.5625 Q1506.7813,1056.4844 1506.7813,1055.2031 L1506.7813,1054.0469 Q1506.7813,1052.7188 1507.3906,1051.5781 Q1508.0156,1050.4219 1509.1094,1049.8125 Q1510.2031,1049.1875 1511.4375,1049.1875 Q1512.1719,1049.1875 1512.8125,1049.3594 Q1513.4688,1049.5156 1514.0156,1049.875 Z " fill="#000000"/><text fill="#000000" font-family="sans-serif" font-size="14" lengthAdjust="spacing" textLength="49" x="1531.75" y="1059.7969">Agenda</text><line style="stroke:#181818;stroke-width:0.5;" x1="1383.5" x2="1696.5" y1="1070" y2="1070"/><text fill="#000000" font-family="sans-serif" font-size="14" lengthAdjust="spacing" textLength="176" x="1388.5" y="1089.1074">-entries: List&lt;AgendaEntry&gt;</text><text fill="#000000" font-family="sans-serif" font-size="14" lengthAdjust="spacing" textLength="70" x="1388.5" y="1107.7285">-gsm: GSM</text><line style="stroke:#181818;stroke-width:0.5;" x1="1383.5" x2="1696.5" y1="1115.2422" y2="1115.2422"/><text fill="#000000" font-family="sans-serif" font-size="14" lengthAdjust="spacing" textLength="303" x="1388.5" y="1134.3496">+Agenda(List&lt;AgendaEntry&gt; entries, GSM gsm)</text><text fill="#000000" font-family="sans-serif" font-size="14" lengthAdjust="spacing" textLength="248" x="1388.5" y="1152.9707">+boolean addEntry(AgendaEntry entry)</text><text fill="#000000" font-family="sans-serif" font-size="14" lengthAdjust="spacing" textLength="283" x="1388.5" y="1171.5918">+boolean postponeEntry(AgendaEntry entry)</text><text fill="#000000" font-family="sans-serif" font-size="14" lengthAdjust="spacing" textLength="265" x="1388.5" y="1190.2129">+boolean cancelEntry(AgendaEntry entry)</text><text fill="#000000" font-family="sans-serif" font-size="14" lengthAdjust="spacing" textLength="168" x="1388.5" y="1208.834">+boolean equals(Object o)</text><text fill="#000000" font-family="sans-serif" font-size="14" lengthAdjust="spacing" textLength="102" x="1388.5" y="1227.4551">+int hashCode()</text><text fill="#000000" font-family="sans-serif" font-size="14" lengthAdjust="spacing" textLength="138" x="1388.5" y="1246.0762">+AgendaEntry clone()</text></g><!--class ToDoListRepository--><g id="elem_ToDoListRepository"><rect codeLine="75" fill="#F1F1F1" height="141.1055" id="ToDoListRepository" rx="2.5" ry="2.5" style="stroke:#181818;stroke-width:0.5;" width="279" x="1080.5" y="610"/><ellipse cx="1153.25" cy="626" fill="#ADD1B2" rx="11" ry="11" style="stroke:#181818;stroke-width:1.0;"/><path d="M1156.0156,621.875 Q1156.1719,621.6563 1156.3594,621.5469 Q1156.5469,621.4375 1156.7656,621.4375 Q1157.1406,621.4375 1157.375,621.7031 Q1157.6094,621.9531 1157.6094,622.5625 L1157.6094,624.0156 Q1157.6094,624.625 1157.375,624.8906 Q1157.1406,625.1563 1156.7656,625.1563 Q1156.4219,625.1563 1156.2188,624.9531 Q1156.0156,624.7656 1155.9063,624.25 Q1155.8594,623.8906 1155.6719,623.7031 Q1155.3438,623.3281 1154.7344,623.1094 Q1154.125,622.8906 1153.5,622.8906 Q1152.7344,622.8906 1152.0938,623.2188 Q1151.4688,623.5469 1150.9688,624.2969 Q1150.4844,625.0469 1150.4844,626.0781 L1150.4844,627.1719 Q1150.4844,628.4063 1151.375,629.2344 Q1152.2656,630.0469 1153.8594,630.0469 Q1154.7969,630.0469 1155.4531,629.7969 Q1155.8438,629.6406 1156.2656,629.2031 Q1156.5313,628.9375 1156.6719,628.8594 Q1156.8281,628.7813 1157.0313,628.7813 Q1157.3594,628.7813 1157.6094,629.0469 Q1157.875,629.2969 1157.875,629.6406 Q1157.875,629.9844 1157.5313,630.3906 Q1157.0313,630.9688 1156.2344,631.2969 Q1155.1563,631.75 1153.8594,631.75 Q1152.3438,631.75 1151.1406,631.125 Q1150.1563,630.625 1149.4688,629.5625 Q1148.7813,628.4844 1148.7813,627.2031 L1148.7813,626.0469 Q1148.7813,624.7188 1149.3906,623.5781 Q1150.0156,622.4219 1151.1094,621.8125 Q1152.2031,621.1875 1153.4375,621.1875 Q1154.1719,621.1875 1154.8125,621.3594 Q1155.4688,621.5156 1156.0156,621.875 Z " fill="#000000"/><text fill="#000000" font-family="sans-serif" font-size="14" lengthAdjust="spacing" textLength="125" x="1173.75" y="631.7969">ToDoListRepository</text><line style="stroke:#181818;stroke-width:0.5;" x1="1081.5" x2="1358.5" y1="642" y2="642"/><text fill="#000000" font-family="sans-serif" font-size="14" lengthAdjust="spacing" textLength="163" x="1086.5" y="661.1074">-List&lt;ToDoList&gt; toDoLists</text><line style="stroke:#181818;stroke-width:0.5;" x1="1081.5" x2="1358.5" y1="668.6211" y2="668.6211"/><text fill="#000000" font-family="sans-serif" font-size="14" lengthAdjust="spacing" textLength="267" x="1086.5" y="687.7285">+boolean addToDoList(ToDoList toDoList)</text><text fill="#000000" font-family="sans-serif" font-size="14" lengthAdjust="spacing" textLength="201" x="1086.5" y="706.3496">+List&lt;ToDoList&gt; getToDoLists()</text><text fill="#000000" font-family="sans-serif" font-size="14" lengthAdjust="spacing" textLength="264" x="1086.5" y="724.9707">+ToDoList getToDoListByGSM(GSM gsm)</text><text fill="#000000" font-family="sans-serif" font-size="14" lengthAdjust="spacing" textLength="267" x="1086.5" y="743.5918">+boolean addToDoList(ToDoList toDoList)</text></g><!--class AgendaRepository--><g id="elem_AgendaRepository"><rect codeLine="83" fill="#F1F1F1" height="141.1055" id="AgendaRepository" rx="2.5" ry="2.5" style="stroke:#181818;stroke-width:0.5;" width="260" x="1410" y="610"/><ellipse cx="1477.25" cy="626" fill="#ADD1B2" rx="11" ry="11" style="stroke:#181818;stroke-width:1.0;"/><path d="M1480.0156,621.875 Q1480.1719,621.6563 1480.3594,621.5469 Q1480.5469,621.4375 1480.7656,621.4375 Q1481.1406,621.4375 1481.375,621.7031 Q1481.6094,621.9531 1481.6094,622.5625 L1481.6094,624.0156 Q1481.6094,624.625 1481.375,624.8906 Q1481.1406,625.1563 1480.7656,625.1563 Q1480.4219,625.1563 1480.2188,624.9531 Q1480.0156,624.7656 1479.9063,624.25 Q1479.8594,623.8906 1479.6719,623.7031 Q1479.3438,623.3281 1478.7344,623.1094 Q1478.125,622.8906 1477.5,622.8906 Q1476.7344,622.8906 1476.0938,623.2188 Q1475.4688,623.5469 1474.9688,624.2969 Q1474.4844,625.0469 1474.4844,626.0781 L1474.4844,627.1719 Q1474.4844,628.4063 1475.375,629.2344 Q1476.2656,630.0469 1477.8594,630.0469 Q1478.7969,630.0469 1479.4531,629.7969 Q1479.8438,629.6406 1480.2656,629.2031 Q1480.5313,628.9375 1480.6719,628.8594 Q1480.8281,628.7813 1481.0313,628.7813 Q1481.3594,628.7813 1481.6094,629.0469 Q1481.875,629.2969 1481.875,629.6406 Q1481.875,629.9844 1481.5313,630.3906 Q1481.0313,630.9688 1480.2344,631.2969 Q1479.1563,631.75 1477.8594,631.75 Q1476.3438,631.75 1475.1406,631.125 Q1474.1563,630.625 1473.4688,629.5625 Q1472.7813,628.4844 1472.7813,627.2031 L1472.7813,626.0469 Q1472.7813,624.7188 1473.3906,623.5781 Q1474.0156,622.4219 1475.1094,621.8125 Q1476.2031,621.1875 1477.4375,621.1875 Q1478.1719,621.1875 1478.8125,621.3594 Q1479.4688,621.5156 1480.0156,621.875 Z " fill="#000000"/><text fill="#000000" font-family="sans-serif" font-size="14" lengthAdjust="spacing" textLength="117" x="1497.75" y="631.7969">AgendaRepository</text><line style="stroke:#181818;stroke-width:0.5;" x1="1411" x2="1669" y1="642" y2="642"/><text fill="#000000" font-family="sans-serif" font-size="14" lengthAdjust="spacing" textLength="151" x="1416" y="661.1074">-List&lt;Agenda&gt; agendas</text><line style="stroke:#181818;stroke-width:0.5;" x1="1411" x2="1669" y1="668.6211" y2="668.6211"/><text fill="#000000" font-family="sans-serif" font-size="14" lengthAdjust="spacing" textLength="247" x="1416" y="687.7285">+boolean addAgenda(Agenda agenda)</text><text fill="#000000" font-family="sans-serif" font-size="14" lengthAdjust="spacing" textLength="185" x="1416" y="706.3496">+List&lt;Agenda&gt; getAgendas()</text><text fill="#000000" font-family="sans-serif" font-size="14" lengthAdjust="spacing" textLength="248" x="1416" y="724.9707">+Agenda getAgendaByGSM(GSM gsm)</text><text fill="#000000" font-family="sans-serif" font-size="14" lengthAdjust="spacing" textLength="247" x="1416" y="743.5918">+boolean addAgenda(Agenda agenda)</text></g><!--class Repositories--><g id="elem_Repositories"><rect codeLine="91" fill="#F1F1F1" height="122.4844" id="Repositories" rx="2.5" ry="2.5" style="stroke:#181818;stroke-width:0.5;" width="312" x="1216" y="409"/><ellipse cx="1328.25" cy="425" fill="#ADD1B2" rx="11" ry="11" style="stroke:#181818;stroke-width:1.0;"/><path d="M1331.0156,420.875 Q1331.1719,420.6563 1331.3594,420.5469 Q1331.5469,420.4375 1331.7656,420.4375 Q1332.1406,420.4375 1332.375,420.7031 Q1332.6094,420.9531 1332.6094,421.5625 L1332.6094,423.0156 Q1332.6094,423.625 1332.375,423.8906 Q1332.1406,424.1563 1331.7656,424.1563 Q1331.4219,424.1563 1331.2188,423.9531 Q1331.0156,423.7656 1330.9063,423.25 Q1330.8594,422.8906 1330.6719,422.7031 Q1330.3438,422.3281 1329.7344,422.1094 Q1329.125,421.8906 1328.5,421.8906 Q1327.7344,421.8906 1327.0938,422.2188 Q1326.4688,422.5469 1325.9688,423.2969 Q1325.4844,424.0469 1325.4844,425.0781 L1325.4844,426.1719 Q1325.4844,427.4063 1326.375,428.2344 Q1327.2656,429.0469 1328.8594,429.0469 Q1329.7969,429.0469 1330.4531,428.7969 Q1330.8438,428.6406 1331.2656,428.2031 Q1331.5313,427.9375 1331.6719,427.8594 Q1331.8281,427.7813 1332.0313,427.7813 Q1332.3594,427.7813 1332.6094,428.0469 Q1332.875,428.2969 1332.875,428.6406 Q1332.875,428.9844 1332.5313,429.3906 Q1332.0313,429.9688 1331.2344,430.2969 Q1330.1563,430.75 1328.8594,430.75 Q1327.3438,430.75 1326.1406,430.125 Q1325.1563,429.625 1324.4688,428.5625 Q1323.7813,427.4844 1323.7813,426.2031 L1323.7813,425.0469 Q1323.7813,423.7188 1324.3906,422.5781 Q1325.0156,421.4219 1326.1094,420.8125 Q1327.2031,420.1875 1328.4375,420.1875 Q1329.1719,420.1875 1329.8125,420.3594 Q1330.4688,420.5156 1331.0156,420.875 Z " fill="#000000"/><text fill="#000000" font-family="sans-serif" font-size="14" lengthAdjust="spacing" textLength="79" x="1348.75" y="430.7969">Repositories</text><line style="stroke:#181818;stroke-width:0.5;" x1="1217" x2="1527" y1="441" y2="441"/><line style="stroke:#181818;stroke-width:0.5;" x1="1217" x2="1527" y1="449" y2="449"/><text fill="#000000" font-family="sans-serif" font-size="14" lengthAdjust="spacing" textLength="182" x="1222" y="468.1074">+getInstance() : Repositories</text><text fill="#000000" font-family="sans-serif" font-size="14" lengthAdjust="spacing" textLength="300" x="1222" y="486.7285">+getToDoListRepository() : ToDoListRepository</text><text fill="#000000" font-family="sans-serif" font-size="14" lengthAdjust="spacing" textLength="284" x="1222" y="505.3496">+getAgendaRepository() : AgendaRepository</text><text fill="#000000" font-family="sans-serif" font-size="14" lengthAdjust="spacing" textLength="248" x="1222" y="523.9707">+getTaskRepository() : TaskRepository</text></g><!--class AddEntryAgendaUI--><g id="elem_AddEntryAgendaUI"><rect codeLine="98" fill="#F1F1F1" height="252.832" id="AddEntryAgendaUI" rx="2.5" ry="2.5" style="stroke:#181818;stroke-width:0.5;" width="285" x="694.5" y="49"/><ellipse cx="773.25" cy="65" fill="#ADD1B2" rx="11" ry="11" style="stroke:#181818;stroke-width:1.0;"/><path d="M776.0156,60.875 Q776.1719,60.6563 776.3594,60.5469 Q776.5469,60.4375 776.7656,60.4375 Q777.1406,60.4375 777.375,60.7031 Q777.6094,60.9531 777.6094,61.5625 L777.6094,63.0156 Q777.6094,63.625 777.375,63.8906 Q777.1406,64.1563 776.7656,64.1563 Q776.4219,64.1563 776.2188,63.9531 Q776.0156,63.7656 775.9063,63.25 Q775.8594,62.8906 775.6719,62.7031 Q775.3438,62.3281 774.7344,62.1094 Q774.125,61.8906 773.5,61.8906 Q772.7344,61.8906 772.0938,62.2188 Q771.4688,62.5469 770.9688,63.2969 Q770.4844,64.0469 770.4844,65.0781 L770.4844,66.1719 Q770.4844,67.4063 771.375,68.2344 Q772.2656,69.0469 773.8594,69.0469 Q774.7969,69.0469 775.4531,68.7969 Q775.8438,68.6406 776.2656,68.2031 Q776.5313,67.9375 776.6719,67.8594 Q776.8281,67.7813 777.0313,67.7813 Q777.3594,67.7813 777.6094,68.0469 Q777.875,68.2969 777.875,68.6406 Q777.875,68.9844 777.5313,69.3906 Q777.0313,69.9688 776.2344,70.2969 Q775.1563,70.75 773.8594,70.75 Q772.3438,70.75 771.1406,70.125 Q770.1563,69.625 769.4688,68.5625 Q768.7813,67.4844 768.7813,66.2031 L768.7813,65.0469 Q768.7813,63.7188 769.3906,62.5781 Q770.0156,61.4219 771.1094,60.8125 Q772.2031,60.1875 773.4375,60.1875 Q774.1719,60.1875 774.8125,60.3594 Q775.4688,60.5156 776.0156,60.875 Z " fill="#000000"/><text fill="#000000" font-family="sans-serif" font-size="14" lengthAdjust="spacing" textLength="119" x="793.75" y="70.7969">AddEntryAgendaUI</text><line style="stroke:#181818;stroke-width:0.5;" x1="695.5" x2="978.5" y1="81" y2="81"/><text fill="#000000" font-family="sans-serif" font-size="14" lengthAdjust="spacing" textLength="241" x="700.5" y="100.1074">-controller: AddEntryAgendaController</text><text fill="#000000" font-family="sans-serif" font-size="14" lengthAdjust="spacing" textLength="158" x="700.5" y="118.7285">-toDoListEntry: TDLEntry</text><text fill="#000000" font-family="sans-serif" font-size="14" lengthAdjust="spacing" textLength="122" x="700.5" y="137.3496">-entryStatus: String</text><text fill="#000000" font-family="sans-serif" font-size="14" lengthAdjust="spacing" textLength="169" x="700.5" y="155.9707">-entryStartDate: LocalDate</text><text fill="#000000" font-family="sans-serif" font-size="14" lengthAdjust="spacing" textLength="241" x="700.5" y="174.5918">-associatedGreenSpace: GreenSpace</text><line style="stroke:#181818;stroke-width:0.5;" x1="695.5" x2="978.5" y1="182.1055" y2="182.1055"/><text fill="#000000" font-family="sans-serif" font-size="14" lengthAdjust="spacing" textLength="273" x="700.5" y="201.2129">+AddEntryAgendaController getController()</text><text fill="#000000" font-family="sans-serif" font-size="14" lengthAdjust="spacing" textLength="69" x="700.5" y="219.834">+void run()</text><text fill="#000000" font-family="sans-serif" font-size="14" lengthAdjust="spacing" textLength="119" x="700.5" y="238.4551">+void submitData()</text><text fill="#000000" font-family="sans-serif" font-size="14" lengthAdjust="spacing" textLength="126" x="700.5" y="257.0762">+void requestData()</text><text fill="#000000" font-family="sans-serif" font-size="14" lengthAdjust="spacing" textLength="220" x="700.5" y="275.6973">+TDLEntry requestToDoListEntry()</text><text fill="#000000" font-family="sans-serif" font-size="14" lengthAdjust="spacing" textLength="246" x="700.5" y="294.3184">+LocalDate requestEntryStartingDate()</text></g><!--class AddEntryAgendaController--><g id="elem_AddEntryAgendaController"><rect codeLine="112" fill="#F1F1F1" height="308.6953" id="AddEntryAgendaController" rx="2.5" ry="2.5" style="stroke:#181818;stroke-width:0.5;" width="1325" x="1014.5" y="21"/><ellipse cx="1588.25" cy="37" fill="#ADD1B2" rx="11" ry="11" style="stroke:#181818;stroke-width:1.0;"/><path d="M1591.0156,32.875 Q1591.1719,32.6563 1591.3594,32.5469 Q1591.5469,32.4375 1591.7656,32.4375 Q1592.1406,32.4375 1592.375,32.7031 Q1592.6094,32.9531 1592.6094,33.5625 L1592.6094,35.0156 Q1592.6094,35.625 1592.375,35.8906 Q1592.1406,36.1563 1591.7656,36.1563 Q1591.4219,36.1563 1591.2188,35.9531 Q1591.0156,35.7656 1590.9063,35.25 Q1590.8594,34.8906 1590.6719,34.7031 Q1590.3438,34.3281 1589.7344,34.1094 Q1589.125,33.8906 1588.5,33.8906 Q1587.7344,33.8906 1587.0938,34.2188 Q1586.4688,34.5469 1585.9688,35.2969 Q1585.4844,36.0469 1585.4844,37.0781 L1585.4844,38.1719 Q1585.4844,39.4063 1586.375,40.2344 Q1587.2656,41.0469 1588.8594,41.0469 Q1589.7969,41.0469 1590.4531,40.7969 Q1590.8438,40.6406 1591.2656,40.2031 Q1591.5313,39.9375 1591.6719,39.8594 Q1591.8281,39.7813 1592.0313,39.7813 Q1592.3594,39.7813 1592.6094,40.0469 Q1592.875,40.2969 1592.875,40.6406 Q1592.875,40.9844 1592.5313,41.3906 Q1592.0313,41.9688 1591.2344,42.2969 Q1590.1563,42.75 1588.8594,42.75 Q1587.3438,42.75 1586.1406,42.125 Q1585.1563,41.625 1584.4688,40.5625 Q1583.7813,39.4844 1583.7813,38.2031 L1583.7813,37.0469 Q1583.7813,35.7188 1584.3906,34.5781 Q1585.0156,33.4219 1586.1094,32.8125 Q1587.2031,32.1875 1588.4375,32.1875 Q1589.1719,32.1875 1589.8125,32.3594 Q1590.4688,32.5156 1591.0156,32.875 Z " fill="#000000"/><text fill="#000000" font-family="sans-serif" font-size="14" lengthAdjust="spacing" textLength="169" x="1608.75" y="42.7969">AddEntryAgendaController</text><line style="stroke:#181818;stroke-width:0.5;" x1="1015.5" x2="2338.5" y1="53" y2="53"/><text fill="#000000" font-family="sans-serif" font-size="14" lengthAdjust="spacing" textLength="306" x="1020.5" y="72.1074">-greenSpaceRepository: GreenSpaceRepository</text><text fill="#000000" font-family="sans-serif" font-size="14" lengthAdjust="spacing" textLength="258" x="1020.5" y="90.7285">-toDoListRepository: ToDoListRepository</text><text fill="#000000" font-family="sans-serif" font-size="14" lengthAdjust="spacing" textLength="246" x="1020.5" y="109.3496">-agendaRepository: AgendaRepository</text><text fill="#000000" font-family="sans-serif" font-size="14" lengthAdjust="spacing" textLength="206" x="1020.5" y="127.9707">-taskRepository: TaskRepository</text><text fill="#000000" font-family="sans-serif" font-size="14" lengthAdjust="spacing" textLength="328" x="1020.5" y="146.5918">-authenticationRepository: AuthenticationRepository</text><line style="stroke:#181818;stroke-width:0.5;" x1="1015.5" x2="2338.5" y1="154.1055" y2="154.1055"/><text fill="#000000" font-family="sans-serif" font-size="14" lengthAdjust="spacing" textLength="1313" x="1020.5" y="173.2129">+AddEntryAgendaController(GreenSpaceRepository greenSpaceRepository, ToDoListRepository toDoListRepository, AgendaRepository agendaRepository, AuthenticationRepository authenticationRepository)</text><text fill="#000000" font-family="sans-serif" font-size="14" lengthAdjust="spacing" textLength="338" x="1020.5" y="191.834">+GreenSpaceRepository getGreenSpaceRepository()</text><text fill="#000000" font-family="sans-serif" font-size="14" lengthAdjust="spacing" textLength="292" x="1020.5" y="210.4551">+ToDoListRepository getToDoListRepository()</text><text fill="#000000" font-family="sans-serif" font-size="14" lengthAdjust="spacing" textLength="276" x="1020.5" y="229.0762">+AgendaRepository getAgendaRepository()</text><text fill="#000000" font-family="sans-serif" font-size="14" lengthAdjust="spacing" textLength="358" x="1020.5" y="247.6973">+AuthenticationRepository getAuthenticationRepository()</text><text fill="#000000" font-family="sans-serif" font-size="14" lengthAdjust="spacing" textLength="547" x="1020.5" y="266.3184">+Optional&lt;AgendaEntry&gt; addEntry(TDLEntry entry, String status, LocalDate startDate)</text><text fill="#000000" font-family="sans-serif" font-size="14" lengthAdjust="spacing" textLength="217" x="1020.5" y="284.9395">+ToDoList getToDoList(GSM gsm)</text><text fill="#000000" font-family="sans-serif" font-size="14" lengthAdjust="spacing" textLength="201" x="1020.5" y="303.5605">+Agenda getAgenda(GSM gsm)</text><text fill="#000000" font-family="sans-serif" font-size="14" lengthAdjust="spacing" textLength="187" x="1020.5" y="322.1816">+GSM getGSMFromSession()</text></g><g id="elem_GMN13"><path d="M6,153 L6,197.582 L286,197.582 L286,163 L276,153 L6,153 " fill="#FEFFDD" style="stroke:#181818;stroke-width:0.5;"/><path d="M276,153 L276,163 L286,163 L276,153 " fill="#FEFFDD" style="stroke:#181818;stroke-width:1.0;"/><text fill="#000000" font-family="sans-serif" font-size="13" lengthAdjust="spacing" textLength="259" x="12" y="172.0283">- AgendaEntry data is read from GSM's input</text><text fill="#000000" font-family="sans-serif" font-size="13" lengthAdjust="spacing" textLength="126" x="12" y="189.3193">- Updates the Agenda</text></g><g id="elem_GMN16"><path d="M321,144.5 L321,206.373 A0,0 0 0 0 321,206.373 L659,206.373 A0,0 0 0 0 659,206.373 L659,179.5 L694.28,175.5 L659,171.5 L659,154.5 L649,144.5 L321,144.5 A0,0 0 0 0 321,144.5 " fill="#FEFFDD" style="stroke:#181818;stroke-width:0.5;"/><path d="M649,144.5 L649,154.5 L659,154.5 L649,144.5 " fill="#FEFFDD" style="stroke:#181818;stroke-width:0.5;"/><text fill="#000000" font-family="sans-serif" font-size="13" lengthAdjust="spacing" textLength="247" x="327" y="163.5283">- UI for GSM to add entries to the ToDoList</text><text fill="#000000" font-family="sans-serif" font-size="13" lengthAdjust="spacing" textLength="279" x="327" y="180.8193">- Communicates with AddEntryAgendaController</text><text fill="#000000" font-family="sans-serif" font-size="13" lengthAdjust="spacing" textLength="317" x="327" y="198.1104">- Receives repositories from AddEntryAgendaController</text></g><g id="elem_GMN19"><path d="M1786.5,1756.5 L1786.5,1766 L1751.62,1770 L1786.5,1774 L1786.5,1783.791 A0,0 0 0 0 1786.5,1783.791 L2035.5,1783.791 A0,0 0 0 0 2035.5,1783.791 L2035.5,1766.5 L2025.5,1756.5 L1786.5,1756.5 A0,0 0 0 0 1786.5,1756.5 " fill="#FEFFDD" style="stroke:#181818;stroke-width:0.5;"/><path d="M2025.5,1756.5 L2025.5,1766.5 L2035.5,1766.5 L2025.5,1756.5 " fill="#FEFFDD" style="stroke:#181818;stroke-width:0.5;"/><text fill="#000000" font-family="sans-serif" font-size="13" lengthAdjust="spacing" textLength="228" x="1792.5" y="1775.5283">- Registered by the GSM in the Agenda</text></g><!--link GMN13 to AddEntryAgendaController--><g id="link_GMN13_AddEntryAgendaController"><path d="M169.17,152.7 C212.84,109.73 303,21 303,21 C303,21 320.5,6 320.5,6 C320.5,6 979.5,6 979.5,6 C979.5,6 1002.89,11.68 1041.09,20.97 " fill="none" id="GMN13-AddEntryAgendaController" style="stroke:#181818;stroke-width:1.0;stroke-dasharray:7.0,7.0;"/></g><!--link Agenda to AgendaEntry--><g id="link_Agenda_AgendaEntry"><path codeLine="145" d="M1524.67,1254.31 C1509.02,1363.88 1487,1518 1487,1518 C1487,1518 1474.4627,1547.4105 1455.7927,1591.2105 " fill="none" id="Agenda-to-AgendaEntry" style="stroke:#181818;stroke-width:1.0;"/><polygon fill="#181818" points="1453.44,1596.73,1460.6487,1590.0192,1455.4006,1592.1304,1453.2894,1586.8823,1453.44,1596.73" style="stroke:#181818;stroke-width:1.0;"/><text fill="#000000" font-family="sans-serif" font-size="13" lengthAdjust="spacing" textLength="37" x="1522" y="1406.5283">shows</text></g><!--link ToDoList to TDLEntry--><g id="link_ToDoList_TDLEntry"><path codeLine="146" d="M1220,1008.04 C1220,1085.44 1220,1192.68 1220,1277.56 " fill="none" id="ToDoList-to-TDLEntry" style="stroke:#181818;stroke-width:1.0;"/><polygon fill="#181818" points="1220,1283.56,1224,1274.56,1220,1278.56,1216,1274.56,1220,1283.56" style="stroke:#181818;stroke-width:1.0;"/><text fill="#000000" font-family="sans-serif" font-size="13" lengthAdjust="spacing" textLength="37" x="1221" y="1151.5283">shows</text></g><!--link TDLEntry to AgendaEntry--><g id="link_TDLEntry_AgendaEntry"><path codeLine="147" d="M1270.62,1518.12 C1281.57,1543.22 1290.962,1564.76 1302.612,1591.48 " fill="none" id="TDLEntry-to-AgendaEntry" style="stroke:#181818;stroke-width:1.0;"/><polygon fill="#181818" points="1305.01,1596.98,1305.0796,1587.1314,1303.0117,1592.3967,1297.7464,1590.3287,1305.01,1596.98" style="stroke:#181818;stroke-width:1.0;"/><text fill="#000000" font-family="sans-serif" font-size="13" lengthAdjust="spacing" textLength="54" x="1292" y="1563.0283">related to</text></g><!--link Repositories to Repositories--><g id="link_Repositories_Repositories"><path codeLine="149" d="M1528.25,453.42 C1549.13,456.22 1563,461.75 1563,470 C1563,478.25 1555.0768,482.9825 1534.1968,485.7825 " fill="none" id="Repositories-to-Repositories" style="stroke:#181818;stroke-width:1.0;"/><polygon fill="#181818" points="1528.25,486.58,1537.7018,489.3483,1533.2056,485.9155,1536.6385,481.4193,1528.25,486.58" style="stroke:#181818;stroke-width:1.0;"/><text fill="#000000" font-family="sans-serif" font-size="13" lengthAdjust="spacing" textLength="49" x="1569" y="475.5283">instance</text></g><!--link ApplicationSession to ApplicationSession--><g id="link_ApplicationSession_ApplicationSession"><path codeLine="150" d="M2040.66,451.43 C2060.5,452.53 2075.5,458.72 2075.5,470 C2075.5,481.28 2066.4908,487.1378 2046.6508,488.2378 " fill="none" id="ApplicationSession-to-ApplicationSession" style="stroke:#181818;stroke-width:1.0;"/><polygon fill="#181818" points="2040.66,488.57,2049.8676,492.0656,2045.6523,488.2932,2049.4248,484.0779,2040.66,488.57" style="stroke:#181818;stroke-width:1.0;"/><text fill="#000000" font-family="sans-serif" font-size="13" lengthAdjust="spacing" textLength="49" x="2081.5" y="475.5283">instance</text></g><!--link AddEntryAgendaUI to AddEntryAgendaController--><g id="link_AddEntryAgendaUI_AddEntryAgendaController"><path codeLine="152" d="M979.87,175.5 C991.47,175.5 997.03,175.5 1008.26,175.5 " fill="none" id="AddEntryAgendaUI-to-AddEntryAgendaController" style="stroke:#181818;stroke-width:1.0;stroke-dasharray:7.0,7.0;"/><polygon fill="#181818" points="1014.26,175.5,1005.26,171.5,1009.26,175.5,1005.26,179.5,1014.26,175.5" style="stroke:#181818;stroke-width:1.0;"/></g><!--link AddEntryAgendaController to Repositories--><g id="link_AddEntryAgendaController_Repositories"><path codeLine="154" d="M1516.91,330.03 C1487.71,358.03 1463.2204,381.517 1439.0604,404.687 " fill="none" id="AddEntryAgendaController-to-Repositories" style="stroke:#181818;stroke-width:1.0;"/><polygon fill="#181818" points="1434.73,408.84,1443.9943,405.4975,1438.3387,405.3792,1438.457,399.7236,1434.73,408.84" style="stroke:#181818;stroke-width:1.0;"/><text fill="#000000" font-family="sans-serif" font-size="13" lengthAdjust="spacing" textLength="108" x="1481" y="375.0283">retrieves instances</text></g><!--link Repositories to ToDoListRepository--><g id="link_Repositories_ToDoListRepository"><path codeLine="156" d="M1328.24,531.03 C1310.26,555.69 1292.8644,579.5515 1274.2244,605.1215 " fill="none" id="Repositories-to-ToDoListRepository" style="stroke:#181818;stroke-width:1.0;"/><polygon fill="#181818" points="1270.69,609.97,1279.224,605.0536,1273.6354,605.9296,1272.7593,600.341,1270.69,609.97" style="stroke:#181818;stroke-width:1.0;"/><text fill="#000000" font-family="sans-serif" font-size="13" lengthAdjust="spacing" textLength="56" x="1307" y="576.0283">accesses</text></g><!--link Repositories to AgendaRepository--><g id="link_Repositories_AgendaRepository"><path codeLine="157" d="M1420.37,531.03 C1440.24,555.69 1459.6158,579.7277 1480.2158,605.2977 " fill="none" id="Repositories-to-AgendaRepository" style="stroke:#181818;stroke-width:1.0;"/><polygon fill="#181818" points="1483.98,609.97,1481.4486,600.452,1480.8432,606.0764,1475.2188,605.4709,1483.98,609.97" style="stroke:#181818;stroke-width:1.0;"/><text fill="#000000" font-family="sans-serif" font-size="13" lengthAdjust="spacing" textLength="56" x="1457" y="576.0283">accesses</text></g><!--link AddEntryAgendaController to ToDoListRepository--><g id="link_AddEntryAgendaController_ToDoListRepository"><path codeLine="159" d="M1286.5,330.12 C1176.41,373.43 1086,409 1086,409 C1086,409 1086,531 1086,531 C1086,531 1118.151,566.625 1152.901,605.145 " fill="none" id="AddEntryAgendaController-to-ToDoListRepository" style="stroke:#181818;stroke-width:1.0;stroke-dasharray:7.0,7.0;"/><polygon fill="#181818" points="1156.92,609.6,1153.8615,600.2381,1153.5708,605.8875,1147.9214,605.5968,1156.92,609.6" style="stroke:#181818;stroke-width:1.0;"/><text fill="#000000" font-family="sans-serif" font-size="13" lengthAdjust="spacing" textLength="110" x="1087" y="475.5283">toDoListRepository</text></g><!--link AddEntryAgendaController to AgendaRepository--><g id="link_AddEntryAgendaController_AgendaRepository"><path codeLine="160" d="M1654.02,330.18 C1639.71,425.92 1624,531 1624,531 C1624,531 1604.2842,565.8577 1582.4942,604.3777 " fill="none" id="AddEntryAgendaController-to-AgendaRepository" style="stroke:#181818;stroke-width:1.0;stroke-dasharray:7.0,7.0;"/><polygon fill="#181818" points="1579.54,609.6,1587.4528,603.7359,1582.0018,605.248,1580.4897,599.797,1579.54,609.6" style="stroke:#181818;stroke-width:1.0;"/><text fill="#000000" font-family="sans-serif" font-size="13" lengthAdjust="spacing" textLength="104" x="1643" y="475.5283">agendaRepository</text></g><!--link ApplicationSession to UserSession--><g id="link_ApplicationSession_UserSession"><path codeLine="162" d="M1948.6,512.69 C1933.09,552.15 1912.3059,604.9863 1898.0659,641.1963 " fill="none" id="ApplicationSession-to-UserSession" style="stroke:#181818;stroke-width:1.0;"/><polygon fill="#181818" points="1895.87,646.78,1902.8863,639.8683,1897.6999,642.1269,1895.4413,636.9405,1895.87,646.78" style="stroke:#181818;stroke-width:1.0;"/><text fill="#000000" font-family="sans-serif" font-size="13" lengthAdjust="spacing" textLength="72" x="1929" y="576.0283">userSession</text><text fill="#000000" font-family="sans-serif" font-size="13" lengthAdjust="spacing" textLength="7" x="1890.6562" y="635.824">1</text></g><!--link AddEntryAgendaController to ApplicationSession--><g id="link_AddEntryAgendaController_ApplicationSession"><path codeLine="164" d="M1831.86,330.11 C1849.89,347.99 1862,360 1862,360 C1862,360 1892.5387,392.3194 1921.6487,423.1194 " fill="none" id="AddEntryAgendaController-to-ApplicationSession" style="stroke:#181818;stroke-width:1.0;stroke-dasharray:7.0,7.0;"/><polygon fill="#181818" points="1925.77,427.48,1922.4951,418.1916,1922.3356,423.8462,1916.681,423.6867,1925.77,427.48" style="stroke:#181818;stroke-width:1.0;"/></g><!--link AddEntryAgendaController to UserSession--><g id="link_AddEntryAgendaController_UserSession"><path codeLine="165" d="M1739.93,330.15 C1785.6,441.67 1841.4562,578.0475 1867.2962,641.1475 " fill="none" id="AddEntryAgendaController-to-UserSession" style="stroke:#181818;stroke-width:1.0;stroke-dasharray:7.0,7.0;"/><polygon fill="#181818" points="1869.57,646.7,1869.861,636.8554,1867.6752,642.0729,1862.4577,639.8872,1869.57,646.7" style="stroke:#181818;stroke-width:1.0;"/></g><!--link ToDoListRepository to ToDoList--><g id="link_ToDoListRepository_ToDoList"><path codeLine="167" d="M1220,751.18 C1220,775.84 1220,797.91 1220,823.9 " fill="none" id="ToDoListRepository-to-ToDoList" style="stroke:#181818;stroke-width:1.0;stroke-dasharray:7.0,7.0;"/><polygon fill="#181818" points="1220,829.9,1224,820.9,1220,824.9,1216,820.9,1220,829.9" style="stroke:#181818;stroke-width:1.0;"/><text fill="#000000" font-family="sans-serif" font-size="13" lengthAdjust="spacing" textLength="36" x="1221" y="796.0283">stores</text></g><!--link AgendaRepository to Agenda--><g id="link_AgendaRepository_Agenda"><path codeLine="168" d="M1540,751.14 C1540,827.08 1540,943.55 1540,1031.78 " fill="none" id="AgendaRepository-to-Agenda" style="stroke:#181818;stroke-width:1.0;stroke-dasharray:7.0,7.0;"/><polygon fill="#181818" points="1540,1037.78,1544,1028.78,1540,1032.78,1536,1028.78,1540,1037.78" style="stroke:#181818;stroke-width:1.0;"/><text fill="#000000" font-family="sans-serif" font-size="13" lengthAdjust="spacing" textLength="36" x="1541" y="796.0283">stores</text></g><!--SRC=[pLXBR-Cs4BxhLn1xYHQnW_Pg50QoIRemi8i5radlj4JBtD2aIb89tAB_lSEdA8boZIQ7zK4MPxuPpeipagxKC-KjblY8ZeABwY35aI0jErBqd1PNpxWXMtrY14bIQSmRbWBK0TVYbV86xJ5JAOTHJlIf9QWLx6GMnLM6AQGMHI9LCQpKhTQIxZfDDfNWM_eNGRyKHM5PwBPj6Qsmfi0XIi5VyNU1u7UDb0PoXHgYDnpkUKNAZvu5jBjEIiAr5mBEFq7bao9oh0i43FdXY2bBiO_tNnwubYVaW4kagMPaXRPWCMy23QldUw8gILjZvuZRoORmwZIYrft46J3iAIgADQa_IqBu5X82k_NttjnWLkc4dLKB55P3UoBTMnBNmOOGjPqGZ62ES9tiNlQtg8ctOn7oPmVrK7xR_O2YGIAmATVeWDNXJjHzSc9CAoOuIQDz2_RL-ESBU0fx9FYuGkOwOVr13hHYHAtG5whqRtwvzZXJhfqQRGz4gUz166H4XPcvzM5AWl4-QOu4PycYtx4tunrA0KHCT4fpGHek6O0FJUd_qOlxVqjLfRKpAQn7SIzCJc9LGMUGD6OgaGtPQXHa-VFsQwXPhw2Su8EgXK4RiOoxBedEDWC_lUdu15zcZi__zj4Xtk9XceEidwrGkWMhBuHNfgcp2y7lNYpV2PXBjV3DQEdY6BXhfFsTAiRb7uebfYf0FrheI0_Cdh1GfKD4mOJtwGJXBvCKNBpdg43oVZdU6c7xF_795uSlCGTAl0dIOA-x3PvuWKW_xqL-bsX_j1ogqTf-FPp-Q3M01C0qeHOw9GU1SPmiV4oCsg4DZpKFI4dy_K5ngfusFlxmrAEbO8p8rGXo5paM659g4QiuI8jmsa_RyOpfwRanSz7ukvwroJvcnPLF-8kWDP8TJvUgsnsfsHyFG71YYKh9ySd0invJVpsc7reUz10T19SDOz0IvqntaU-dM9-krFr1jlluf-1i5IrzxQR0JFsu9vc1jc7bM4sTFa0I_KFmGECCvspIofntsK0iSfrm6eB5jAsCdL_CcZhhdKjstbQYS_HHwnmAv5f0qf-6uEdnTz0v7up83C-BVhDFQ9WDvsgScx7kxM6zz3ajFoQ6lNNSVeTSku1eRh_-3c-3WrUbWWlOZv4zZDBz-QwK3jCQ3ZEY2iuchj4Ub9ezhXHCuRRJ5ltK0WRQDyJBInPmGMQxivi-RPpu1ks5j9PhOI8OdaxCqkWCSR3eEt4yTjna1G2lL1_EU_ATL8I-46D-CcYi6xDo8-CbRGxE-ZugXLNTW554aXhjJjPGumBb-JZuj2sNwrJF2bw_nQigOjeDFzHEP8PQcWXBmaoZH-ODV3190JXOhy0kDrABwUktGMUeYKmn6NCtw_du5RCjUbcBLpwrJHAJRvEbiACQ- -C5CwrWXN050WfaiYAJTf08p5jwSpEpsRHRdbUIstuyDh8v0TC__FeX_RG1ebtoeUC_zfr-PJcBJp-X51dFqu10OG8DuZTnhlSuOlu5]--></g></svg>