<?xml version="1.0" encoding="us-ascii" standalone="no"?><svg xmlns="http://www.w3.org/2000/svg" xmlns:xlink="http://www.w3.org/1999/xlink" contentStyleType="text/css" height="966px" preserveAspectRatio="none" style="width:1816px;height:966px;background:#FFFFFF;" version="1.1" viewBox="0 0 1816 966" width="1816px" zoomAndPan="magnify"><defs/><g><rect fill="#FFFFFF" height="771.3633" style="stroke:#181818;stroke-width:1.0;" width="10" x="78.5" y="93.6211"/><rect fill="#FFFFFF" height="200.0762" style="stroke:#181818;stroke-width:1.0;" width="10" x="712.5" y="116.9121"/><rect fill="#FFFFFF" height="31.291" style="stroke:#181818;stroke-width:1.0;" width="10" x="712.5" y="348.2793"/><rect fill="#FFFFFF" height="31.291" style="stroke:#181818;stroke-width:1.0;" width="10" x="712.5" y="410.8613"/><rect fill="#FFFFFF" height="391.541" style="stroke:#181818;stroke-width:1.0;" width="10" x="712.5" y="473.4434"/><rect fill="#FFFFFF" height="127.4941" style="stroke:#181818;stroke-width:1.0;" width="10" x="1165.5" y="158.2031"/><rect fill="#FFFFFF" height="328.959" style="stroke:#181818;stroke-width:1.0;" width="10" x="1165.5" y="504.7344"/><rect fill="#FFFFFF" height="90.543" style="stroke:#181818;stroke-width:1.0;" width="10" x="1170.5" y="569.0254"/><rect fill="#FFFFFF" height="31.291" style="stroke:#181818;stroke-width:1.0;" width="10" x="1340.5" y="191.8242"/><rect fill="#FFFFFF" height="31.291" style="stroke:#181818;stroke-width:1.0;" width="10" x="1447.5" y="254.4063"/><rect fill="#FFFFFF" height="79.543" style="stroke:#181818;stroke-width:1.0;" width="10" x="1618.5" y="722.8594"/><line style="stroke:#181818;stroke-width:0.5;stroke-dasharray:5.0,5.0;" x1="83" x2="83" y1="83.6211" y2="882.9844"/><line style="stroke:#181818;stroke-width:0.5;stroke-dasharray:5.0,5.0;" x1="717" x2="717" y1="83.6211" y2="882.9844"/><line style="stroke:#181818;stroke-width:0.5;stroke-dasharray:5.0,5.0;" x1="1170" x2="1170" y1="156.7227" y2="882.9844"/><line style="stroke:#181818;stroke-width:0.5;stroke-dasharray:5.0,5.0;" x1="1345" x2="1345" y1="83.6211" y2="882.9844"/><line style="stroke:#181818;stroke-width:0.5;stroke-dasharray:5.0,5.0;" x1="1452" x2="1452" y1="83.6211" y2="882.9844"/><line style="stroke:#181818;stroke-width:0.5;stroke-dasharray:5.0,5.0;" x1="1623.5" x2="1623.5" y1="83.6211" y2="882.9844"/><line style="stroke:#181818;stroke-width:0.5;stroke-dasharray:5.0,5.0;" x1="1763.5" x2="1763.5" y1="83.6211" y2="882.9844"/><text fill="#000000" font-family="sans-serif" font-size="14" lengthAdjust="spacing" textLength="151" x="5" y="80.1074">Green Spaces Manager</text><ellipse cx="83.5" cy="13.5" fill="#E3E3E3" rx="8" ry="8" style="stroke:#181818;stroke-width:0.5;"/><path d="M83.5,21.5 L83.5,48.5 M70.5,29.5 L96.5,29.5 M83.5,48.5 L70.5,63.5 M83.5,48.5 L96.5,63.5 " fill="none" style="stroke:#181818;stroke-width:0.5;"/><text fill="#000000" font-family="sans-serif" font-size="14" lengthAdjust="spacing" textLength="151" x="5" y="897.0918">Green Spaces Manager</text><ellipse cx="83.5" cy="909.1055" fill="#E3E3E3" rx="8" ry="8" style="stroke:#181818;stroke-width:0.5;"/><path d="M83.5,917.1055 L83.5,944.1055 M70.5,925.1055 L96.5,925.1055 M83.5,944.1055 L70.5,959.1055 M83.5,944.1055 L96.5,959.1055 " fill="none" style="stroke:#181818;stroke-width:0.5;"/><rect fill="#E3E3E3" height="32.6211" rx="2.5" ry="2.5" style="stroke:#181818;stroke-width:0.5;" width="103" x="666" y="50"/><text fill="#000000" font-family="sans-serif" font-size="14" lengthAdjust="spacing" textLength="89" x="673" y="72.1074">:RegisterGSUI</text><rect fill="#E3E3E3" height="32.6211" rx="2.5" ry="2.5" style="stroke:#181818;stroke-width:0.5;" width="103" x="666" y="881.9844"/><text fill="#000000" font-family="sans-serif" font-size="14" lengthAdjust="spacing" textLength="89" x="673" y="904.0918">:RegisterGSUI</text><rect fill="#E3E3E3" height="32.6211" rx="2.5" ry="2.5" style="stroke:#181818;stroke-width:0.5;" width="153" x="1094" y="881.9844"/><text fill="#000000" font-family="sans-serif" font-size="14" lengthAdjust="spacing" textLength="139" x="1101" y="904.0918">:RegisterGSController</text><rect fill="#E3E3E3" height="32.6211" rx="2.5" ry="2.5" style="stroke:#181818;stroke-width:0.5;" width="97" x="1297" y="50"/><text fill="#000000" font-family="sans-serif" font-size="14" lengthAdjust="spacing" textLength="83" x="1304" y="72.1074">:Repositories</text><rect fill="#E3E3E3" height="32.6211" rx="2.5" ry="2.5" style="stroke:#181818;stroke-width:0.5;" width="97" x="1297" y="881.9844"/><text fill="#000000" font-family="sans-serif" font-size="14" lengthAdjust="spacing" textLength="83" x="1304" y="904.0918">:Repositories</text><rect fill="#E3E3E3" height="51.2422" rx="2.5" ry="2.5" style="stroke:#181818;stroke-width:0.5;" width="97" x="1404" y="31.3789"/><text fill="#000000" font-family="sans-serif" font-size="14" lengthAdjust="spacing" textLength="74" x="1415.5" y="53.4863">repositories</text><text fill="#000000" font-family="sans-serif" font-size="14" lengthAdjust="spacing" textLength="83" x="1411" y="72.1074">:Repositories</text><rect fill="#E3E3E3" height="51.2422" rx="2.5" ry="2.5" style="stroke:#181818;stroke-width:0.5;" width="97" x="1404" y="881.9844"/><text fill="#000000" font-family="sans-serif" font-size="14" lengthAdjust="spacing" textLength="74" x="1415.5" y="904.0918">repositories</text><text fill="#000000" font-family="sans-serif" font-size="14" lengthAdjust="spacing" textLength="83" x="1411" y="922.7129">:Repositories</text><rect fill="#E3E3E3" height="51.2422" rx="2.5" ry="2.5" style="stroke:#181818;stroke-width:0.5;" width="166" x="1540.5" y="31.3789"/><text fill="#000000" font-family="sans-serif" font-size="14" lengthAdjust="spacing" textLength="145" x="1551" y="53.4863">greenSpaceRepository</text><text fill="#000000" font-family="sans-serif" font-size="14" lengthAdjust="spacing" textLength="152" x="1547.5" y="72.1074">:GreenSpaceRepository</text><rect fill="#E3E3E3" height="51.2422" rx="2.5" ry="2.5" style="stroke:#181818;stroke-width:0.5;" width="166" x="1540.5" y="881.9844"/><text fill="#000000" font-family="sans-serif" font-size="14" lengthAdjust="spacing" textLength="145" x="1551" y="904.0918">greenSpaceRepository</text><text fill="#000000" font-family="sans-serif" font-size="14" lengthAdjust="spacing" textLength="152" x="1547.5" y="922.7129">:GreenSpaceRepository</text><rect fill="#E3E3E3" height="32.6211" rx="2.5" ry="2.5" style="stroke:#181818;stroke-width:0.5;" width="94" x="1716.5" y="50"/><text fill="#000000" font-family="sans-serif" font-size="14" lengthAdjust="spacing" textLength="80" x="1723.5" y="72.1074">GreenSpace</text><rect fill="#E3E3E3" height="32.6211" rx="2.5" ry="2.5" style="stroke:#181818;stroke-width:0.5;" width="94" x="1716.5" y="881.9844"/><text fill="#000000" font-family="sans-serif" font-size="14" lengthAdjust="spacing" textLength="80" x="1723.5" y="904.0918">GreenSpace</text><rect fill="#FFFFFF" height="771.3633" style="stroke:#181818;stroke-width:1.0;" width="10" x="78.5" y="93.6211"/><rect fill="#FFFFFF" height="200.0762" style="stroke:#181818;stroke-width:1.0;" width="10" x="712.5" y="116.9121"/><rect fill="#FFFFFF" height="31.291" style="stroke:#181818;stroke-width:1.0;" width="10" x="712.5" y="348.2793"/><rect fill="#FFFFFF" height="31.291" style="stroke:#181818;stroke-width:1.0;" width="10" x="712.5" y="410.8613"/><rect fill="#FFFFFF" height="391.541" style="stroke:#181818;stroke-width:1.0;" width="10" x="712.5" y="473.4434"/><rect fill="#FFFFFF" height="127.4941" style="stroke:#181818;stroke-width:1.0;" width="10" x="1165.5" y="158.2031"/><rect fill="#FFFFFF" height="328.959" style="stroke:#181818;stroke-width:1.0;" width="10" x="1165.5" y="504.7344"/><rect fill="#FFFFFF" height="90.543" style="stroke:#181818;stroke-width:1.0;" width="10" x="1170.5" y="569.0254"/><rect fill="#FFFFFF" height="31.291" style="stroke:#181818;stroke-width:1.0;" width="10" x="1340.5" y="191.8242"/><rect fill="#FFFFFF" height="31.291" style="stroke:#181818;stroke-width:1.0;" width="10" x="1447.5" y="254.4063"/><rect fill="#FFFFFF" height="79.543" style="stroke:#181818;stroke-width:1.0;" width="10" x="1618.5" y="722.8594"/><polygon fill="#181818" points="700.5,112.9121,710.5,116.9121,700.5,120.9121,704.5,116.9121" style="stroke:#181818;stroke-width:1.0;"/><line style="stroke:#181818;stroke-width:1.0;" x1="88.5" x2="706.5" y1="116.9121" y2="116.9121"/><text fill="#000000" font-family="sans-serif" font-size="13" font-weight="bold" lengthAdjust="spacing" textLength="7" x="95.5" y="111.6494">1</text><text fill="#000000" font-family="sans-serif" font-size="13" lengthAdjust="spacing" textLength="594" x="106.5" y="111.6494">asks to register a green space (garden, medium-sized park or large-sized park) and its respective area.</text><polygon fill="#181818" points="1082,144.2031,1092,148.2031,1082,152.2031,1086,148.2031" style="stroke:#181818;stroke-width:1.0;"/><line style="stroke:#181818;stroke-width:1.0;" x1="722.5" x2="1088" y1="148.2031" y2="148.2031"/><text fill="#000000" font-family="sans-serif" font-size="13" font-weight="bold" lengthAdjust="spacing" textLength="7" x="729.5" y="142.9404">2</text><text fill="#000000" font-family="sans-serif" font-size="13" lengthAdjust="spacing" textLength="36" x="740.5" y="142.9404">create</text><rect fill="#E3E3E3" height="32.6211" rx="2.5" ry="2.5" style="stroke:#181818;stroke-width:0.5;" width="153" x="1094" y="124.9121"/><text fill="#000000" font-family="sans-serif" font-size="14" lengthAdjust="spacing" textLength="139" x="1101" y="147.0195">:RegisterGSController</text><polygon fill="#181818" points="1328.5,187.8242,1338.5,191.8242,1328.5,195.8242,1332.5,191.8242" style="stroke:#181818;stroke-width:1.0;"/><line style="stroke:#181818;stroke-width:1.0;" x1="1175.5" x2="1334.5" y1="191.8242" y2="191.8242"/><text fill="#000000" font-family="sans-serif" font-size="13" font-weight="bold" lengthAdjust="spacing" textLength="7" x="1182.5" y="186.5615">3</text><text fill="#000000" font-family="sans-serif" font-size="13" lengthAdjust="spacing" textLength="75" x="1193.5" y="186.5615">getInstance()</text><polygon fill="#181818" points="1186.5,219.1152,1176.5,223.1152,1186.5,227.1152,1182.5,223.1152" style="stroke:#181818;stroke-width:1.0;"/><line style="stroke:#181818;stroke-width:1.0;stroke-dasharray:2.0,2.0;" x1="1180.5" x2="1344.5" y1="223.1152" y2="223.1152"/><text fill="#000000" font-family="sans-serif" font-size="13" font-weight="bold" lengthAdjust="spacing" textLength="7" x="1192.5" y="217.8525">4</text><text fill="#000000" font-family="sans-serif" font-size="13" lengthAdjust="spacing" textLength="67" x="1203.5" y="217.8525">repositories</text><polygon fill="#181818" points="1435.5,250.4063,1445.5,254.4063,1435.5,258.4063,1439.5,254.4063" style="stroke:#181818;stroke-width:1.0;"/><line style="stroke:#181818;stroke-width:1.0;" x1="1175.5" x2="1441.5" y1="254.4063" y2="254.4063"/><text fill="#000000" font-family="sans-serif" font-size="13" font-weight="bold" lengthAdjust="spacing" textLength="7" x="1182.5" y="249.1436">5</text><text fill="#000000" font-family="sans-serif" font-size="13" lengthAdjust="spacing" textLength="160" x="1193.5" y="249.1436">getGreenSpaceRepository()</text><polygon fill="#181818" points="1181.5,281.6973,1171.5,285.6973,1181.5,289.6973,1177.5,285.6973" style="stroke:#181818;stroke-width:1.0;"/><line style="stroke:#181818;stroke-width:1.0;" x1="1175.5" x2="1451.5" y1="285.6973" y2="285.6973"/><text fill="#000000" font-family="sans-serif" font-size="13" font-weight="bold" lengthAdjust="spacing" textLength="7" x="1187.5" y="280.4346">6</text><text fill="#000000" font-family="sans-serif" font-size="13" lengthAdjust="spacing" textLength="134" x="1198.5" y="280.4346">GreenSpaceRepository</text><polygon fill="#181818" points="99.5,312.9883,89.5,316.9883,99.5,320.9883,95.5,316.9883" style="stroke:#181818;stroke-width:1.0;"/><line style="stroke:#181818;stroke-width:1.0;stroke-dasharray:2.0,2.0;" x1="93.5" x2="716.5" y1="316.9883" y2="316.9883"/><text fill="#000000" font-family="sans-serif" font-size="13" font-weight="bold" lengthAdjust="spacing" textLength="7" x="105.5" y="311.7256">7</text><text fill="#000000" font-family="sans-serif" font-size="13" lengthAdjust="spacing" textLength="357" x="116.5" y="311.7256">shows possible types of green spaces and asks to select one</text><polygon fill="#181818" points="700.5,344.2793,710.5,348.2793,700.5,352.2793,704.5,348.2793" style="stroke:#181818;stroke-width:1.0;"/><line style="stroke:#181818;stroke-width:1.0;" x1="88.5" x2="706.5" y1="348.2793" y2="348.2793"/><text fill="#000000" font-family="sans-serif" font-size="13" font-weight="bold" lengthAdjust="spacing" textLength="7" x="95.5" y="343.0166">8</text><text fill="#000000" font-family="sans-serif" font-size="13" lengthAdjust="spacing" textLength="71" x="106.5" y="343.0166">selects type</text><polygon fill="#181818" points="99.5,375.5703,89.5,379.5703,99.5,383.5703,95.5,379.5703" style="stroke:#181818;stroke-width:1.0;"/><line style="stroke:#181818;stroke-width:1.0;stroke-dasharray:2.0,2.0;" x1="93.5" x2="716.5" y1="379.5703" y2="379.5703"/><text fill="#000000" font-family="sans-serif" font-size="13" font-weight="bold" lengthAdjust="spacing" textLength="7" x="105.5" y="374.3076">9</text><text fill="#000000" font-family="sans-serif" font-size="13" lengthAdjust="spacing" textLength="251" x="116.5" y="374.3076">requests name and area of the green space</text><polygon fill="#181818" points="700.5,406.8613,710.5,410.8613,700.5,414.8613,704.5,410.8613" style="stroke:#181818;stroke-width:1.0;"/><line style="stroke:#181818;stroke-width:1.0;" x1="88.5" x2="706.5" y1="410.8613" y2="410.8613"/><text fill="#000000" font-family="sans-serif" font-size="13" font-weight="bold" lengthAdjust="spacing" textLength="14" x="95.5" y="405.5986">10</text><text fill="#000000" font-family="sans-serif" font-size="13" lengthAdjust="spacing" textLength="122" x="113.5" y="405.5986">types name and area</text><polygon fill="#181818" points="99.5,438.1523,89.5,442.1523,99.5,446.1523,95.5,442.1523" style="stroke:#181818;stroke-width:1.0;"/><line style="stroke:#181818;stroke-width:1.0;stroke-dasharray:2.0,2.0;" x1="93.5" x2="716.5" y1="442.1523" y2="442.1523"/><text fill="#000000" font-family="sans-serif" font-size="13" font-weight="bold" lengthAdjust="spacing" textLength="14" x="105.5" y="436.8896">11</text><text fill="#000000" font-family="sans-serif" font-size="13" lengthAdjust="spacing" textLength="219" x="123.5" y="436.8896">shows data and requests confirmation</text><polygon fill="#181818" points="700.5,469.4434,710.5,473.4434,700.5,477.4434,704.5,473.4434" style="stroke:#181818;stroke-width:1.0;"/><line style="stroke:#181818;stroke-width:1.0;" x1="88.5" x2="706.5" y1="473.4434" y2="473.4434"/><text fill="#000000" font-family="sans-serif" font-size="13" font-weight="bold" lengthAdjust="spacing" textLength="14" x="95.5" y="468.1807">12</text><text fill="#000000" font-family="sans-serif" font-size="13" lengthAdjust="spacing" textLength="78" x="113.5" y="468.1807">confirms data</text><polygon fill="#181818" points="1153.5,500.7344,1163.5,504.7344,1153.5,508.7344,1157.5,504.7344" style="stroke:#181818;stroke-width:1.0;"/><line style="stroke:#181818;stroke-width:1.0;" x1="722.5" x2="1159.5" y1="504.7344" y2="504.7344"/><text fill="#000000" font-family="sans-serif" font-size="13" font-weight="bold" lengthAdjust="spacing" textLength="14" x="729.5" y="499.4717">13</text><text fill="#000000" font-family="sans-serif" font-size="13" lengthAdjust="spacing" textLength="406" x="747.5" y="499.4717">registerGreenSpace(String name, String type, double area, GSM gsm)</text><line style="stroke:#181818;stroke-width:1.0;" x1="1175.5" x2="1222.5" y1="556.0254" y2="556.0254"/><line style="stroke:#181818;stroke-width:1.0;" x1="1222.5" x2="1222.5" y1="556.0254" y2="569.0254"/><line style="stroke:#181818;stroke-width:1.0;" x1="1181.5" x2="1222.5" y1="569.0254" y2="569.0254"/><polygon fill="#181818" points="1191.5,565.0254,1181.5,569.0254,1191.5,573.0254,1187.5,569.0254" style="stroke:#181818;stroke-width:1.0;"/><text fill="#000000" font-family="sans-serif" font-size="13" font-weight="bold" lengthAdjust="spacing" textLength="14" x="1187.5" y="550.7627">14</text><text fill="#000000" font-family="sans-serif" font-size="13" lengthAdjust="spacing" textLength="133" x="1205.5" y="550.7627">getGSMFromSession()</text><rect fill="none" height="43.252" style="stroke:#000000;stroke-width:1.5;" width="159" x="1091" y="582.0254"/><path d="M1091,582.0254 L1153,582.0254 L1153,591.0254 L1143,601.0254 L1091,601.0254 L1091,582.0254 " fill="#EEEEEE" style="stroke:#000000;stroke-width:2.0;"/><text fill="#000000" font-family="sans-serif" font-size="13" font-weight="bold" lengthAdjust="spacing" textLength="17" x="1104" y="598.0537">ref</text><text fill="#000000" font-family="sans-serif" font-size="12" lengthAdjust="spacing" textLength="48" x="1146.5" y="617.9746">Get GSM</text><line style="stroke:#181818;stroke-width:1.0;stroke-dasharray:2.0,2.0;" x1="1180.5" x2="1222.5" y1="658.5684" y2="658.5684"/><line style="stroke:#181818;stroke-width:1.0;stroke-dasharray:2.0,2.0;" x1="1222.5" x2="1222.5" y1="658.5684" y2="671.5684"/><line style="stroke:#181818;stroke-width:1.0;stroke-dasharray:2.0,2.0;" x1="1175.5" x2="1222.5" y1="671.5684" y2="671.5684"/><polygon fill="#181818" points="1185.5,667.5684,1175.5,671.5684,1185.5,675.5684,1181.5,671.5684" style="stroke:#181818;stroke-width:1.0;"/><text fill="#000000" font-family="sans-serif" font-size="13" font-weight="bold" lengthAdjust="spacing" textLength="14" x="1187.5" y="653.3057">15</text><text fill="#000000" font-family="sans-serif" font-size="13" lengthAdjust="spacing" textLength="25" x="1205.5" y="653.3057">gsm</text><polygon fill="#181818" points="1606.5,718.8594,1616.5,722.8594,1606.5,726.8594,1610.5,722.8594" style="stroke:#181818;stroke-width:1.0;"/><line style="stroke:#181818;stroke-width:1.0;" x1="1175.5" x2="1612.5" y1="722.8594" y2="722.8594"/><text fill="#000000" font-family="sans-serif" font-size="13" font-weight="bold" lengthAdjust="spacing" textLength="14" x="1182.5" y="717.5967">16</text><text fill="#000000" font-family="sans-serif" font-size="13" lengthAdjust="spacing" textLength="406" x="1200.5" y="717.5967">registerGreenSpace(String name, String type, double area, GSM gsm)</text><rect fill="none" height="43.252" style="stroke:#000000;stroke-width:1.5;" width="172" x="1537.5" y="730.8594"/><path d="M1537.5,730.8594 L1599.5,730.8594 L1599.5,739.8594 L1589.5,749.8594 L1537.5,749.8594 L1537.5,730.8594 " fill="#EEEEEE" style="stroke:#000000;stroke-width:2.0;"/><text fill="#000000" font-family="sans-serif" font-size="13" font-weight="bold" lengthAdjust="spacing" textLength="17" x="1550.5" y="746.8877">ref</text><text fill="#000000" font-family="sans-serif" font-size="12" lengthAdjust="spacing" textLength="122" x="1562.5" y="766.8086">Register Green Space</text><polygon fill="#181818" points="1186.5,798.4023,1176.5,802.4023,1186.5,806.4023,1182.5,802.4023" style="stroke:#181818;stroke-width:1.0;"/><line style="stroke:#181818;stroke-width:1.0;stroke-dasharray:2.0,2.0;" x1="1180.5" x2="1622.5" y1="802.4023" y2="802.4023"/><text fill="#000000" font-family="sans-serif" font-size="13" font-weight="bold" lengthAdjust="spacing" textLength="14" x="1192.5" y="797.1396">17</text><text fill="#000000" font-family="sans-serif" font-size="13" lengthAdjust="spacing" textLength="69" x="1210.5" y="797.1396">greenSpace</text><polygon fill="#181818" points="733.5,829.6934,723.5,833.6934,733.5,837.6934,729.5,833.6934" style="stroke:#181818;stroke-width:1.0;"/><line style="stroke:#181818;stroke-width:1.0;stroke-dasharray:2.0,2.0;" x1="727.5" x2="1169.5" y1="833.6934" y2="833.6934"/><text fill="#000000" font-family="sans-serif" font-size="13" font-weight="bold" lengthAdjust="spacing" textLength="14" x="739.5" y="828.4307">18</text><text fill="#000000" font-family="sans-serif" font-size="13" lengthAdjust="spacing" textLength="69" x="757.5" y="828.4307">greenSpace</text><polygon fill="#181818" points="94.5,860.9844,84.5,864.9844,94.5,868.9844,90.5,864.9844" style="stroke:#181818;stroke-width:1.0;"/><line style="stroke:#181818;stroke-width:1.0;stroke-dasharray:2.0,2.0;" x1="88.5" x2="716.5" y1="864.9844" y2="864.9844"/><text fill="#000000" font-family="sans-serif" font-size="13" font-weight="bold" lengthAdjust="spacing" textLength="14" x="100.5" y="859.7217">19</text><text fill="#000000" font-family="sans-serif" font-size="13" lengthAdjust="spacing" textLength="158" x="118.5" y="859.7217">displays operation success</text><!--SRC=[hLR1Rjim3BthAuXUcXJ9FY270bcxPG4QOAZRsowgpJX2RCaJvNOP-l6ZPDUn7ITDj-bcYNnwVDAZJ5kb2sbb3hdH9jvOaoCuMwAWPgMGyLQc6BbTXc0nTbAdMJk0DZ8nBqgdi9OPeH2oT4QN-HDQ8IutAa5O6-EUp2yXOsSiN2mieeQ8aP5W9JN3smkG1FFRbM1Gfs9LIEtWOdQFgIA7TX4zBaF8u_9en8tHpfeigy5k7kxl3c8BGuevAAGGqqpi8kNBOkBT5DlA-A4F0RxVpH-w6QalBjIs1-VCnS1qG5X4zrs0VMHO_pR_lBnRtivllmYldtgM3eDG0kh17p2zPcLWnWbR0cVue2fLG48W1EG1OPHAcw2UG8w9AlCfgT-Oy17RBV31PDAcs9eRWzG9A4SCHmNwpH6aHVbfltb3YGz6N49hC9yfq_BiPWpmiqHYf4Gw2ICjSnoBTlHbpBWC4qwj3tCTfg-k6AWA4vsGXaD8xYorXr_rM0E7pi0fkgKcljqnZiP7CVgZsNhe9fsDuiSGgsbTkTTlV_7EXatm7-YzgULlU2NFq1K-Lwg6I33C-pbXrxfwtdreQ_6H-iEs7qcehbB5j7EJQMDU29W4gIVkY6vNS1CpwxRDAFZcpOg46Li7Z4RHsyDRPiZ4LGO5x66ZlUypxx2A1Xl6ytCRR7CKH-hkexTvLRLsa8TzU99Y9M3e0nwbOHmRlLOsbqxntVmBTdL-1NsSrnvWtrc2SFKpqjoqKUIiVzLylHEeFxm44qXCwS_U2p3X1hw2bFAnEACTlRw-YY6JrIIyoQBLLtw68-JxPNJFNYUGBQx1F7F3FsYW2tIUOsSETN9emefCYmtbugGxpgcCdxV_Acv71lzszijeXF2B1pssVXLRVo3zc45f6AkZJ5E7EARG0RL6tSTb1-2KmiCUca6YgCZaZljEWJOO1gYCkV7GK8jfVVh_XZy0]--></g></svg>