<?xml version="1.0" encoding="us-ascii" standalone="no"?><svg xmlns="http://www.w3.org/2000/svg" xmlns:xlink="http://www.w3.org/1999/xlink" contentStyleType="text/css" height="1138px" preserveAspectRatio="none" style="width:1986px;height:1138px;background:#FFFFFF;" version="1.1" viewBox="0 0 1986 1138" width="1986px" zoomAndPan="magnify"><defs/><g><rect fill="#FFFFFF" height="943.8965" style="stroke:#181818;stroke-width:1.0;" width="10" x="78.5" y="93.6211"/><rect fill="#FFFFFF" height="200.0762" style="stroke:#181818;stroke-width:1.0;" width="10" x="712.5" y="116.9121"/><rect fill="#FFFFFF" height="31.291" style="stroke:#181818;stroke-width:1.0;" width="10" x="712.5" y="348.2793"/><rect fill="#FFFFFF" height="31.291" style="stroke:#181818;stroke-width:1.0;" width="10" x="712.5" y="410.8613"/><rect fill="#FFFFFF" height="564.0742" style="stroke:#181818;stroke-width:1.0;" width="10" x="712.5" y="473.4434"/><rect fill="#FFFFFF" height="127.4941" style="stroke:#181818;stroke-width:1.0;" width="10" x="1165.5" y="158.2031"/><rect fill="#FFFFFF" height="501.4922" style="stroke:#181818;stroke-width:1.0;" width="10" x="1165.5" y="504.7344"/><rect fill="#FFFFFF" height="90.543" style="stroke:#181818;stroke-width:1.0;" width="10" x="1170.5" y="569.0254"/><rect fill="#FFFFFF" height="31.291" style="stroke:#181818;stroke-width:1.0;" width="10" x="1340.5" y="191.8242"/><rect fill="#FFFFFF" height="31.291" style="stroke:#181818;stroke-width:1.0;" width="10" x="1447.5" y="254.4063"/><rect fill="#FFFFFF" height="252.0762" style="stroke:#181818;stroke-width:1.0;" width="10" x="1618.5" y="722.8594"/><rect fill="#FFFFFF" height="42.291" style="stroke:#181818;stroke-width:1.0;" width="10" x="1623.5" y="805.7715"/><rect fill="#FFFFFF" height="42.291" style="stroke:#181818;stroke-width:1.0;" width="10" x="1623.5" y="894.3535"/><line style="stroke:#181818;stroke-width:0.5;stroke-dasharray:5.0,5.0;" x1="83" x2="83" y1="83.6211" y2="1055.5176"/><line style="stroke:#181818;stroke-width:0.5;stroke-dasharray:5.0,5.0;" x1="717" x2="717" y1="83.6211" y2="1055.5176"/><line style="stroke:#181818;stroke-width:0.5;stroke-dasharray:5.0,5.0;" x1="1170" x2="1170" y1="156.7227" y2="1055.5176"/><line style="stroke:#181818;stroke-width:0.5;stroke-dasharray:5.0,5.0;" x1="1345" x2="1345" y1="83.6211" y2="1055.5176"/><line style="stroke:#181818;stroke-width:0.5;stroke-dasharray:5.0,5.0;" x1="1452" x2="1452" y1="83.6211" y2="1055.5176"/><line style="stroke:#181818;stroke-width:0.5;stroke-dasharray:5.0,5.0;" x1="1623.5" x2="1623.5" y1="83.6211" y2="1055.5176"/><line style="stroke:#181818;stroke-width:0.5;stroke-dasharray:5.0,5.0;" x1="1933.5" x2="1933.5" y1="762.6699" y2="1055.5176"/><text fill="#000000" font-family="sans-serif" font-size="14" lengthAdjust="spacing" textLength="151" x="5" y="80.1074">Green Spaces Manager</text><ellipse cx="83.5" cy="13.5" fill="#E3E3E3" rx="8" ry="8" style="stroke:#181818;stroke-width:0.5;"/><path d="M83.5,21.5 L83.5,48.5 M70.5,29.5 L96.5,29.5 M83.5,48.5 L70.5,63.5 M83.5,48.5 L96.5,63.5 " fill="none" style="stroke:#181818;stroke-width:0.5;"/><text fill="#000000" font-family="sans-serif" font-size="14" lengthAdjust="spacing" textLength="151" x="5" y="1069.625">Green Spaces Manager</text><ellipse cx="83.5" cy="1081.6387" fill="#E3E3E3" rx="8" ry="8" style="stroke:#181818;stroke-width:0.5;"/><path d="M83.5,1089.6387 L83.5,1116.6387 M70.5,1097.6387 L96.5,1097.6387 M83.5,1116.6387 L70.5,1131.6387 M83.5,1116.6387 L96.5,1131.6387 " fill="none" style="stroke:#181818;stroke-width:0.5;"/><rect fill="#E3E3E3" height="32.6211" rx="2.5" ry="2.5" style="stroke:#181818;stroke-width:0.5;" width="103" x="666" y="50"/><text fill="#000000" font-family="sans-serif" font-size="14" lengthAdjust="spacing" textLength="89" x="673" y="72.1074">:RegisterGSUI</text><rect fill="#E3E3E3" height="32.6211" rx="2.5" ry="2.5" style="stroke:#181818;stroke-width:0.5;" width="103" x="666" y="1054.5176"/><text fill="#000000" font-family="sans-serif" font-size="14" lengthAdjust="spacing" textLength="89" x="673" y="1076.625">:RegisterGSUI</text><rect fill="#E3E3E3" height="32.6211" rx="2.5" ry="2.5" style="stroke:#181818;stroke-width:0.5;" width="153" x="1094" y="1054.5176"/><text fill="#000000" font-family="sans-serif" font-size="14" lengthAdjust="spacing" textLength="139" x="1101" y="1076.625">:RegisterGSController</text><rect fill="#E3E3E3" height="32.6211" rx="2.5" ry="2.5" style="stroke:#181818;stroke-width:0.5;" width="97" x="1297" y="50"/><text fill="#000000" font-family="sans-serif" font-size="14" lengthAdjust="spacing" textLength="83" x="1304" y="72.1074">:Repositories</text><rect fill="#E3E3E3" height="32.6211" rx="2.5" ry="2.5" style="stroke:#181818;stroke-width:0.5;" width="97" x="1297" y="1054.5176"/><text fill="#000000" font-family="sans-serif" font-size="14" lengthAdjust="spacing" textLength="83" x="1304" y="1076.625">:Repositories</text><rect fill="#E3E3E3" height="51.2422" rx="2.5" ry="2.5" style="stroke:#181818;stroke-width:0.5;" width="97" x="1404" y="31.3789"/><text fill="#000000" font-family="sans-serif" font-size="14" lengthAdjust="spacing" textLength="74" x="1415.5" y="53.4863">repositories</text><text fill="#000000" font-family="sans-serif" font-size="14" lengthAdjust="spacing" textLength="83" x="1411" y="72.1074">:Repositories</text><rect fill="#E3E3E3" height="51.2422" rx="2.5" ry="2.5" style="stroke:#181818;stroke-width:0.5;" width="97" x="1404" y="1054.5176"/><text fill="#000000" font-family="sans-serif" font-size="14" lengthAdjust="spacing" textLength="74" x="1415.5" y="1076.625">repositories</text><text fill="#000000" font-family="sans-serif" font-size="14" lengthAdjust="spacing" textLength="83" x="1411" y="1095.2461">:Repositories</text><rect fill="#E3E3E3" height="51.2422" rx="2.5" ry="2.5" style="stroke:#181818;stroke-width:0.5;" width="166" x="1540.5" y="31.3789"/><text fill="#000000" font-family="sans-serif" font-size="14" lengthAdjust="spacing" textLength="145" x="1551" y="53.4863">greenSpaceRepository</text><text fill="#000000" font-family="sans-serif" font-size="14" lengthAdjust="spacing" textLength="152" x="1547.5" y="72.1074">:GreenSpaceRepository</text><rect fill="#E3E3E3" height="51.2422" rx="2.5" ry="2.5" style="stroke:#181818;stroke-width:0.5;" width="166" x="1540.5" y="1054.5176"/><text fill="#000000" font-family="sans-serif" font-size="14" lengthAdjust="spacing" textLength="145" x="1551" y="1076.625">greenSpaceRepository</text><text fill="#000000" font-family="sans-serif" font-size="14" lengthAdjust="spacing" textLength="152" x="1547.5" y="1095.2461">:GreenSpaceRepository</text><rect fill="#E3E3E3" height="32.6211" rx="2.5" ry="2.5" style="stroke:#181818;stroke-width:0.5;" width="94" x="1886.5" y="1054.5176"/><text fill="#000000" font-family="sans-serif" font-size="14" lengthAdjust="spacing" textLength="80" x="1893.5" y="1076.625">GreenSpace</text><rect fill="#FFFFFF" height="943.8965" style="stroke:#181818;stroke-width:1.0;" width="10" x="78.5" y="93.6211"/><rect fill="#FFFFFF" height="200.0762" style="stroke:#181818;stroke-width:1.0;" width="10" x="712.5" y="116.9121"/><rect fill="#FFFFFF" height="31.291" style="stroke:#181818;stroke-width:1.0;" width="10" x="712.5" y="348.2793"/><rect fill="#FFFFFF" height="31.291" style="stroke:#181818;stroke-width:1.0;" width="10" x="712.5" y="410.8613"/><rect fill="#FFFFFF" height="564.0742" style="stroke:#181818;stroke-width:1.0;" width="10" x="712.5" y="473.4434"/><rect fill="#FFFFFF" height="127.4941" style="stroke:#181818;stroke-width:1.0;" width="10" x="1165.5" y="158.2031"/><rect fill="#FFFFFF" height="501.4922" style="stroke:#181818;stroke-width:1.0;" width="10" x="1165.5" y="504.7344"/><rect fill="#FFFFFF" height="90.543" style="stroke:#181818;stroke-width:1.0;" width="10" x="1170.5" y="569.0254"/><rect fill="#FFFFFF" height="31.291" style="stroke:#181818;stroke-width:1.0;" width="10" x="1340.5" y="191.8242"/><rect fill="#FFFFFF" height="31.291" style="stroke:#181818;stroke-width:1.0;" width="10" x="1447.5" y="254.4063"/><rect fill="#FFFFFF" height="252.0762" style="stroke:#181818;stroke-width:1.0;" width="10" x="1618.5" y="722.8594"/><rect fill="#FFFFFF" height="42.291" style="stroke:#181818;stroke-width:1.0;" width="10" x="1623.5" y="805.7715"/><rect fill="#FFFFFF" height="42.291" style="stroke:#181818;stroke-width:1.0;" width="10" x="1623.5" y="894.3535"/><polygon fill="#181818" points="700.5,112.9121,710.5,116.9121,700.5,120.9121,704.5,116.9121" style="stroke:#181818;stroke-width:1.0;"/><line style="stroke:#181818;stroke-width:1.0;" x1="88.5" x2="706.5" y1="116.9121" y2="116.9121"/><text fill="#000000" font-family="sans-serif" font-size="13" font-weight="bold" lengthAdjust="spacing" textLength="7" x="95.5" y="111.6494">1</text><text fill="#000000" font-family="sans-serif" font-size="13" lengthAdjust="spacing" textLength="594" x="106.5" y="111.6494">asks to register a green space (garden, medium-sized park or large-sized park) and its respective area.</text><polygon fill="#181818" points="1082,144.2031,1092,148.2031,1082,152.2031,1086,148.2031" style="stroke:#181818;stroke-width:1.0;"/><line style="stroke:#181818;stroke-width:1.0;" x1="722.5" x2="1088" y1="148.2031" y2="148.2031"/><text fill="#000000" font-family="sans-serif" font-size="13" font-weight="bold" lengthAdjust="spacing" textLength="7" x="729.5" y="142.9404">2</text><text fill="#000000" font-family="sans-serif" font-size="13" lengthAdjust="spacing" textLength="36" x="740.5" y="142.9404">create</text><rect fill="#E3E3E3" height="32.6211" rx="2.5" ry="2.5" style="stroke:#181818;stroke-width:0.5;" width="153" x="1094" y="124.9121"/><text fill="#000000" font-family="sans-serif" font-size="14" lengthAdjust="spacing" textLength="139" x="1101" y="147.0195">:RegisterGSController</text><polygon fill="#181818" points="1328.5,187.8242,1338.5,191.8242,1328.5,195.8242,1332.5,191.8242" style="stroke:#181818;stroke-width:1.0;"/><line style="stroke:#181818;stroke-width:1.0;" x1="1175.5" x2="1334.5" y1="191.8242" y2="191.8242"/><text fill="#000000" font-family="sans-serif" font-size="13" font-weight="bold" lengthAdjust="spacing" textLength="7" x="1182.5" y="186.5615">3</text><text fill="#000000" font-family="sans-serif" font-size="13" lengthAdjust="spacing" textLength="75" x="1193.5" y="186.5615">getInstance()</text><polygon fill="#181818" points="1186.5,219.1152,1176.5,223.1152,1186.5,227.1152,1182.5,223.1152" style="stroke:#181818;stroke-width:1.0;"/><line style="stroke:#181818;stroke-width:1.0;stroke-dasharray:2.0,2.0;" x1="1180.5" x2="1344.5" y1="223.1152" y2="223.1152"/><text fill="#000000" font-family="sans-serif" font-size="13" font-weight="bold" lengthAdjust="spacing" textLength="7" x="1192.5" y="217.8525">4</text><text fill="#000000" font-family="sans-serif" font-size="13" lengthAdjust="spacing" textLength="67" x="1203.5" y="217.8525">repositories</text><polygon fill="#181818" points="1435.5,250.4063,1445.5,254.4063,1435.5,258.4063,1439.5,254.4063" style="stroke:#181818;stroke-width:1.0;"/><line style="stroke:#181818;stroke-width:1.0;" x1="1175.5" x2="1441.5" y1="254.4063" y2="254.4063"/><text fill="#000000" font-family="sans-serif" font-size="13" font-weight="bold" lengthAdjust="spacing" textLength="7" x="1182.5" y="249.1436">5</text><text fill="#000000" font-family="sans-serif" font-size="13" lengthAdjust="spacing" textLength="160" x="1193.5" y="249.1436">getGreenSpaceRepository()</text><polygon fill="#181818" points="1181.5,281.6973,1171.5,285.6973,1181.5,289.6973,1177.5,285.6973" style="stroke:#181818;stroke-width:1.0;"/><line style="stroke:#181818;stroke-width:1.0;" x1="1175.5" x2="1451.5" y1="285.6973" y2="285.6973"/><text fill="#000000" font-family="sans-serif" font-size="13" font-weight="bold" lengthAdjust="spacing" textLength="7" x="1187.5" y="280.4346">6</text><text fill="#000000" font-family="sans-serif" font-size="13" lengthAdjust="spacing" textLength="134" x="1198.5" y="280.4346">GreenSpaceRepository</text><polygon fill="#181818" points="99.5,312.9883,89.5,316.9883,99.5,320.9883,95.5,316.9883" style="stroke:#181818;stroke-width:1.0;"/><line style="stroke:#181818;stroke-width:1.0;stroke-dasharray:2.0,2.0;" x1="93.5" x2="716.5" y1="316.9883" y2="316.9883"/><text fill="#000000" font-family="sans-serif" font-size="13" font-weight="bold" lengthAdjust="spacing" textLength="7" x="105.5" y="311.7256">7</text><text fill="#000000" font-family="sans-serif" font-size="13" lengthAdjust="spacing" textLength="357" x="116.5" y="311.7256">shows possible types of green spaces and asks to select one</text><polygon fill="#181818" points="700.5,344.2793,710.5,348.2793,700.5,352.2793,704.5,348.2793" style="stroke:#181818;stroke-width:1.0;"/><line style="stroke:#181818;stroke-width:1.0;" x1="88.5" x2="706.5" y1="348.2793" y2="348.2793"/><text fill="#000000" font-family="sans-serif" font-size="13" font-weight="bold" lengthAdjust="spacing" textLength="7" x="95.5" y="343.0166">8</text><text fill="#000000" font-family="sans-serif" font-size="13" lengthAdjust="spacing" textLength="71" x="106.5" y="343.0166">selects type</text><polygon fill="#181818" points="99.5,375.5703,89.5,379.5703,99.5,383.5703,95.5,379.5703" style="stroke:#181818;stroke-width:1.0;"/><line style="stroke:#181818;stroke-width:1.0;stroke-dasharray:2.0,2.0;" x1="93.5" x2="716.5" y1="379.5703" y2="379.5703"/><text fill="#000000" font-family="sans-serif" font-size="13" font-weight="bold" lengthAdjust="spacing" textLength="7" x="105.5" y="374.3076">9</text><text fill="#000000" font-family="sans-serif" font-size="13" lengthAdjust="spacing" textLength="251" x="116.5" y="374.3076">requests name and area of the green space</text><polygon fill="#181818" points="700.5,406.8613,710.5,410.8613,700.5,414.8613,704.5,410.8613" style="stroke:#181818;stroke-width:1.0;"/><line style="stroke:#181818;stroke-width:1.0;" x1="88.5" x2="706.5" y1="410.8613" y2="410.8613"/><text fill="#000000" font-family="sans-serif" font-size="13" font-weight="bold" lengthAdjust="spacing" textLength="14" x="95.5" y="405.5986">10</text><text fill="#000000" font-family="sans-serif" font-size="13" lengthAdjust="spacing" textLength="122" x="113.5" y="405.5986">types name and area</text><polygon fill="#181818" points="99.5,438.1523,89.5,442.1523,99.5,446.1523,95.5,442.1523" style="stroke:#181818;stroke-width:1.0;"/><line style="stroke:#181818;stroke-width:1.0;stroke-dasharray:2.0,2.0;" x1="93.5" x2="716.5" y1="442.1523" y2="442.1523"/><text fill="#000000" font-family="sans-serif" font-size="13" font-weight="bold" lengthAdjust="spacing" textLength="14" x="105.5" y="436.8896">11</text><text fill="#000000" font-family="sans-serif" font-size="13" lengthAdjust="spacing" textLength="219" x="123.5" y="436.8896">shows data and requests confirmation</text><polygon fill="#181818" points="700.5,469.4434,710.5,473.4434,700.5,477.4434,704.5,473.4434" style="stroke:#181818;stroke-width:1.0;"/><line style="stroke:#181818;stroke-width:1.0;" x1="88.5" x2="706.5" y1="473.4434" y2="473.4434"/><text fill="#000000" font-family="sans-serif" font-size="13" font-weight="bold" lengthAdjust="spacing" textLength="14" x="95.5" y="468.1807">12</text><text fill="#000000" font-family="sans-serif" font-size="13" lengthAdjust="spacing" textLength="78" x="113.5" y="468.1807">confirms data</text><polygon fill="#181818" points="1153.5,500.7344,1163.5,504.7344,1153.5,508.7344,1157.5,504.7344" style="stroke:#181818;stroke-width:1.0;"/><line style="stroke:#181818;stroke-width:1.0;" x1="722.5" x2="1159.5" y1="504.7344" y2="504.7344"/><text fill="#000000" font-family="sans-serif" font-size="13" font-weight="bold" lengthAdjust="spacing" textLength="14" x="729.5" y="499.4717">13</text><text fill="#000000" font-family="sans-serif" font-size="13" lengthAdjust="spacing" textLength="406" x="747.5" y="499.4717">registerGreenSpace(String name, String type, double area, GSM gsm)</text><line style="stroke:#181818;stroke-width:1.0;" x1="1175.5" x2="1222.5" y1="556.0254" y2="556.0254"/><line style="stroke:#181818;stroke-width:1.0;" x1="1222.5" x2="1222.5" y1="556.0254" y2="569.0254"/><line style="stroke:#181818;stroke-width:1.0;" x1="1181.5" x2="1222.5" y1="569.0254" y2="569.0254"/><polygon fill="#181818" points="1191.5,565.0254,1181.5,569.0254,1191.5,573.0254,1187.5,569.0254" style="stroke:#181818;stroke-width:1.0;"/><text fill="#000000" font-family="sans-serif" font-size="13" font-weight="bold" lengthAdjust="spacing" textLength="14" x="1187.5" y="550.7627">14</text><text fill="#000000" font-family="sans-serif" font-size="13" lengthAdjust="spacing" textLength="133" x="1205.5" y="550.7627">getGSMFromSession()</text><rect fill="none" height="43.252" style="stroke:#000000;stroke-width:1.5;" width="159" x="1091" y="582.0254"/><path d="M1091,582.0254 L1153,582.0254 L1153,591.0254 L1143,601.0254 L1091,601.0254 L1091,582.0254 " fill="#EEEEEE" style="stroke:#000000;stroke-width:2.0;"/><text fill="#000000" font-family="sans-serif" font-size="13" font-weight="bold" lengthAdjust="spacing" textLength="17" x="1104" y="598.0537">ref</text><text fill="#000000" font-family="sans-serif" font-size="12" lengthAdjust="spacing" textLength="48" x="1146.5" y="617.9746">Get GSM</text><line style="stroke:#181818;stroke-width:1.0;stroke-dasharray:2.0,2.0;" x1="1180.5" x2="1222.5" y1="658.5684" y2="658.5684"/><line style="stroke:#181818;stroke-width:1.0;stroke-dasharray:2.0,2.0;" x1="1222.5" x2="1222.5" y1="658.5684" y2="671.5684"/><line style="stroke:#181818;stroke-width:1.0;stroke-dasharray:2.0,2.0;" x1="1175.5" x2="1222.5" y1="671.5684" y2="671.5684"/><polygon fill="#181818" points="1185.5,667.5684,1175.5,671.5684,1185.5,675.5684,1181.5,671.5684" style="stroke:#181818;stroke-width:1.0;"/><text fill="#000000" font-family="sans-serif" font-size="13" font-weight="bold" lengthAdjust="spacing" textLength="14" x="1187.5" y="653.3057">15</text><text fill="#000000" font-family="sans-serif" font-size="13" lengthAdjust="spacing" textLength="25" x="1205.5" y="653.3057">gsm</text><polygon fill="#181818" points="1606.5,718.8594,1616.5,722.8594,1606.5,726.8594,1610.5,722.8594" style="stroke:#181818;stroke-width:1.0;"/><line style="stroke:#181818;stroke-width:1.0;" x1="1175.5" x2="1612.5" y1="722.8594" y2="722.8594"/><text fill="#000000" font-family="sans-serif" font-size="13" font-weight="bold" lengthAdjust="spacing" textLength="14" x="1182.5" y="717.5967">16</text><text fill="#000000" font-family="sans-serif" font-size="13" lengthAdjust="spacing" textLength="406" x="1200.5" y="717.5967">registerGreenSpace(String name, String type, double area, GSM gsm)</text><polygon fill="#181818" points="1874.5,750.1504,1884.5,754.1504,1874.5,758.1504,1878.5,754.1504" style="stroke:#181818;stroke-width:1.0;"/><line style="stroke:#181818;stroke-width:1.0;" x1="1628.5" x2="1880.5" y1="754.1504" y2="754.1504"/><text fill="#000000" font-family="sans-serif" font-size="13" font-weight="bold" lengthAdjust="spacing" textLength="14" x="1635.5" y="748.8877">17</text><text fill="#000000" font-family="sans-serif" font-size="13" lengthAdjust="spacing" textLength="36" x="1653.5" y="748.8877">create</text><rect fill="#E3E3E3" height="32.6211" rx="2.5" ry="2.5" style="stroke:#181818;stroke-width:0.5;" width="94" x="1886.5" y="730.8594"/><text fill="#000000" font-family="sans-serif" font-size="14" lengthAdjust="spacing" textLength="80" x="1893.5" y="752.9668">GreenSpace</text><line style="stroke:#181818;stroke-width:1.0;" x1="1628.5" x2="1675.5" y1="792.7715" y2="792.7715"/><line style="stroke:#181818;stroke-width:1.0;" x1="1675.5" x2="1675.5" y1="792.7715" y2="805.7715"/><line style="stroke:#181818;stroke-width:1.0;" x1="1634.5" x2="1675.5" y1="805.7715" y2="805.7715"/><polygon fill="#181818" points="1644.5,801.7715,1634.5,805.7715,1644.5,809.7715,1640.5,805.7715" style="stroke:#181818;stroke-width:1.0;"/><text fill="#000000" font-family="sans-serif" font-size="13" font-weight="bold" lengthAdjust="spacing" textLength="14" x="1640.5" y="787.5088">18</text><text fill="#000000" font-family="sans-serif" font-size="13" lengthAdjust="spacing" textLength="268" x="1658.5" y="787.5088">validateGreenSpace(GreenSpace greenSpace)</text><line style="stroke:#181818;stroke-width:1.0;stroke-dasharray:2.0,2.0;" x1="1633.5" x2="1675.5" y1="847.0625" y2="847.0625"/><line style="stroke:#181818;stroke-width:1.0;stroke-dasharray:2.0,2.0;" x1="1675.5" x2="1675.5" y1="847.0625" y2="860.0625"/><line style="stroke:#181818;stroke-width:1.0;stroke-dasharray:2.0,2.0;" x1="1628.5" x2="1675.5" y1="860.0625" y2="860.0625"/><polygon fill="#181818" points="1638.5,856.0625,1628.5,860.0625,1638.5,864.0625,1634.5,860.0625" style="stroke:#181818;stroke-width:1.0;"/><text fill="#000000" font-family="sans-serif" font-size="13" font-weight="bold" lengthAdjust="spacing" textLength="14" x="1640.5" y="841.7998">19</text><text fill="#000000" font-family="sans-serif" font-size="13" lengthAdjust="spacing" textLength="22" x="1658.5" y="841.7998">true</text><line style="stroke:#181818;stroke-width:1.0;" x1="1628.5" x2="1675.5" y1="881.3535" y2="881.3535"/><line style="stroke:#181818;stroke-width:1.0;" x1="1675.5" x2="1675.5" y1="881.3535" y2="894.3535"/><line style="stroke:#181818;stroke-width:1.0;" x1="1634.5" x2="1675.5" y1="894.3535" y2="894.3535"/><polygon fill="#181818" points="1644.5,890.3535,1634.5,894.3535,1644.5,898.3535,1640.5,894.3535" style="stroke:#181818;stroke-width:1.0;"/><text fill="#000000" font-family="sans-serif" font-size="13" font-weight="bold" lengthAdjust="spacing" textLength="14" x="1640.5" y="876.0908">20</text><text fill="#000000" font-family="sans-serif" font-size="13" lengthAdjust="spacing" textLength="246" x="1658.5" y="876.0908">addGreenSpace(GreenSpace greenSpace)</text><line style="stroke:#181818;stroke-width:1.0;stroke-dasharray:2.0,2.0;" x1="1633.5" x2="1675.5" y1="935.6445" y2="935.6445"/><line style="stroke:#181818;stroke-width:1.0;stroke-dasharray:2.0,2.0;" x1="1675.5" x2="1675.5" y1="935.6445" y2="948.6445"/><line style="stroke:#181818;stroke-width:1.0;stroke-dasharray:2.0,2.0;" x1="1628.5" x2="1675.5" y1="948.6445" y2="948.6445"/><polygon fill="#181818" points="1638.5,944.6445,1628.5,948.6445,1638.5,952.6445,1634.5,948.6445" style="stroke:#181818;stroke-width:1.0;"/><text fill="#000000" font-family="sans-serif" font-size="13" font-weight="bold" lengthAdjust="spacing" textLength="14" x="1640.5" y="930.3818">21</text><text fill="#000000" font-family="sans-serif" font-size="13" lengthAdjust="spacing" textLength="22" x="1658.5" y="930.3818">true</text><polygon fill="#181818" points="1186.5,970.9355,1176.5,974.9355,1186.5,978.9355,1182.5,974.9355" style="stroke:#181818;stroke-width:1.0;"/><line style="stroke:#181818;stroke-width:1.0;stroke-dasharray:2.0,2.0;" x1="1180.5" x2="1622.5" y1="974.9355" y2="974.9355"/><text fill="#000000" font-family="sans-serif" font-size="13" font-weight="bold" lengthAdjust="spacing" textLength="14" x="1192.5" y="969.6729">22</text><text fill="#000000" font-family="sans-serif" font-size="13" lengthAdjust="spacing" textLength="69" x="1210.5" y="969.6729">greenSpace</text><polygon fill="#181818" points="733.5,1002.2266,723.5,1006.2266,733.5,1010.2266,729.5,1006.2266" style="stroke:#181818;stroke-width:1.0;"/><line style="stroke:#181818;stroke-width:1.0;stroke-dasharray:2.0,2.0;" x1="727.5" x2="1169.5" y1="1006.2266" y2="1006.2266"/><text fill="#000000" font-family="sans-serif" font-size="13" font-weight="bold" lengthAdjust="spacing" textLength="14" x="739.5" y="1000.9639">23</text><text fill="#000000" font-family="sans-serif" font-size="13" lengthAdjust="spacing" textLength="69" x="757.5" y="1000.9639">greenSpace</text><polygon fill="#181818" points="94.5,1033.5176,84.5,1037.5176,94.5,1041.5176,90.5,1037.5176" style="stroke:#181818;stroke-width:1.0;"/><line style="stroke:#181818;stroke-width:1.0;stroke-dasharray:2.0,2.0;" x1="88.5" x2="716.5" y1="1037.5176" y2="1037.5176"/><text fill="#000000" font-family="sans-serif" font-size="13" font-weight="bold" lengthAdjust="spacing" textLength="14" x="100.5" y="1032.2549">24</text><text fill="#000000" font-family="sans-serif" font-size="13" lengthAdjust="spacing" textLength="158" x="118.5" y="1032.2549">displays operation success</text><!--SRC=[hLPDRzim3BthLn2zD0cI_O0S2cJDbWLeWA5kRxkeDkC8iILFajjbw8yV9Jl-Y9tKGQTJB56FZnGV6RCNCkEQfv0ggSATLYc2rJaoKvraFDpp60DxI10qXfRBE6aQc1sFr9kGCMnvOf0ndbiby_G5DMEtEn4XR9MoB-eFuw5L6cvM6b52GCXeOCCbmUiRu0OMomqZK2j2aN5fuMR-YB4m5lKgU5vxa-VrMOjx9QrMILA2tJyzFdHiCsK4SH1el4srSGY42uk8jw_enerViWlmys7nrBuHk-1yR3KutLprR7k4LV3O1gWj_VcFnTVrmtgvM7vZBd_YbLlqYM9GBlg0sHrb1kPqOM_0Adge8Yl0mHC2um1X57CTePn2Yf78qvaHVp6Y9zPxe8T9k8wniJS6BYCGrX2SoT0vH-0Q-PVQUKM97eRTGcCHdndHSkpc1F0xHqD84RSSHfAdE6PDwzkGS0d6lzefp9tVdam8g31ZBPEAWx_SEcekT-gmUXwTW6EqQscekaCSZSzYdAxATLyb3KPngu_Lh8pSvQyklC6m4Nw2tZ5RhiABzFILyD1KLKIyO3w-uxsMqPFtFjViclYzssik5AN4EeLiTkhD074mueKQeZrarCFKjgaousLpLAB1X9G3IY8xSU4KqwVXueRnsBqwE-wnZ-NcX5RG8TquddQ7JQxiJFZdl3Hv5h6tFFJBSX3b8h6-FJYqAe9GoQtGARU2IlOJR4kSmiLPdgn-ahhn-8IMKwOgn55WjHjwBlufb1yk9LE8LEvgmoLaIlrz0x59nsn0jtf_VsTz6Yn9E0q6c-yqfGEa-bFoH7qNa3LkGRtIFEZqrnLQnx6rXpBgQhGWqs1ZKdPHF4CYe-dtNvFRIeCRhPqmQDCvhiVgPD8_LHh6dkKhJmJL3ZPOrZ-X7llTZZY0qD69__DreIrT2ia3y2Ywdk1rXAyFuAE0pkRaM6eLTyQ69gOgr-Tr2-1IoVOtfpb4mcG9Fr2Zpr3xJWGc3wdJcxwUtlXq_zF-0G00]--></g></svg>