<?xml version="1.0" encoding="us-ascii" standalone="no"?><svg xmlns="http://www.w3.org/2000/svg" xmlns:xlink="http://www.w3.org/1999/xlink" contentStyleType="text/css" height="982px" preserveAspectRatio="none" style="width:1746px;height:982px;background:#FFFFFF;" version="1.1" viewBox="0 0 1746 982" width="1746px" zoomAndPan="magnify"><defs/><g><!--class ApplicationSession--><g id="elem_ApplicationSession"><rect codeLine="11" fill="#F1F1F1" height="85.2422" id="ApplicationSession" rx="2.5" ry="2.5" style="stroke:#181818;stroke-width:0.5;" width="151" x="1126" y="339"/><ellipse cx="1141" cy="355" fill="#ADD1B2" rx="11" ry="11" style="stroke:#181818;stroke-width:1.0;"/><path d="M1143.7656,350.875 Q1143.9219,350.6563 1144.1094,350.5469 Q1144.2969,350.4375 1144.5156,350.4375 Q1144.8906,350.4375 1145.125,350.7031 Q1145.3594,350.9531 1145.3594,351.5625 L1145.3594,353.0156 Q1145.3594,353.625 1145.125,353.8906 Q1144.8906,354.1563 1144.5156,354.1563 Q1144.1719,354.1563 1143.9688,353.9531 Q1143.7656,353.7656 1143.6563,353.25 Q1143.6094,352.8906 1143.4219,352.7031 Q1143.0938,352.3281 1142.4844,352.1094 Q1141.875,351.8906 1141.25,351.8906 Q1140.4844,351.8906 1139.8438,352.2188 Q1139.2188,352.5469 1138.7188,353.2969 Q1138.2344,354.0469 1138.2344,355.0781 L1138.2344,356.1719 Q1138.2344,357.4063 1139.125,358.2344 Q1140.0156,359.0469 1141.6094,359.0469 Q1142.5469,359.0469 1143.2031,358.7969 Q1143.5938,358.6406 1144.0156,358.2031 Q1144.2813,357.9375 1144.4219,357.8594 Q1144.5781,357.7813 1144.7813,357.7813 Q1145.1094,357.7813 1145.3594,358.0469 Q1145.625,358.2969 1145.625,358.6406 Q1145.625,358.9844 1145.2813,359.3906 Q1144.7813,359.9688 1143.9844,360.2969 Q1142.9063,360.75 1141.6094,360.75 Q1140.0938,360.75 1138.8906,360.125 Q1137.9063,359.625 1137.2188,358.5625 Q1136.5313,357.4844 1136.5313,356.2031 L1136.5313,355.0469 Q1136.5313,353.7188 1137.1406,352.5781 Q1137.7656,351.4219 1138.8594,350.8125 Q1139.9531,350.1875 1141.1875,350.1875 Q1141.9219,350.1875 1142.5625,350.3594 Q1143.2188,350.5156 1143.7656,350.875 Z " fill="#000000"/><text fill="#000000" font-family="sans-serif" font-size="14" lengthAdjust="spacing" textLength="119" x="1155" y="360.7969">ApplicationSession</text><line style="stroke:#181818;stroke-width:0.5;" x1="1127" x2="1276" y1="371" y2="371"/><line style="stroke:#181818;stroke-width:0.5;" x1="1127" x2="1276" y1="379" y2="379"/><text fill="#000000" font-family="sans-serif" font-size="14" lengthAdjust="spacing" textLength="128" x="1132" y="398.1074">+static getInstance()</text><text fill="#000000" font-family="sans-serif" font-size="14" lengthAdjust="spacing" textLength="136" x="1132" y="416.7285">+getCurrentSession()</text></g><!--class UserSession--><g id="elem_UserSession"><rect codeLine="17" fill="#F1F1F1" height="66.6211" id="UserSession" rx="2.5" ry="2.5" style="stroke:#181818;stroke-width:0.5;" width="113" x="1277" y="540"/><ellipse cx="1292.9" cy="556" fill="#ADD1B2" rx="11" ry="11" style="stroke:#181818;stroke-width:1.0;"/><path d="M1295.6656,551.875 Q1295.8219,551.6563 1296.0094,551.5469 Q1296.1969,551.4375 1296.4156,551.4375 Q1296.7906,551.4375 1297.025,551.7031 Q1297.2594,551.9531 1297.2594,552.5625 L1297.2594,554.0156 Q1297.2594,554.625 1297.025,554.8906 Q1296.7906,555.1563 1296.4156,555.1563 Q1296.0719,555.1563 1295.8688,554.9531 Q1295.6656,554.7656 1295.5563,554.25 Q1295.5094,553.8906 1295.3219,553.7031 Q1294.9938,553.3281 1294.3844,553.1094 Q1293.775,552.8906 1293.15,552.8906 Q1292.3844,552.8906 1291.7438,553.2188 Q1291.1188,553.5469 1290.6188,554.2969 Q1290.1344,555.0469 1290.1344,556.0781 L1290.1344,557.1719 Q1290.1344,558.4063 1291.025,559.2344 Q1291.9156,560.0469 1293.5094,560.0469 Q1294.4469,560.0469 1295.1031,559.7969 Q1295.4938,559.6406 1295.9156,559.2031 Q1296.1813,558.9375 1296.3219,558.8594 Q1296.4781,558.7813 1296.6813,558.7813 Q1297.0094,558.7813 1297.2594,559.0469 Q1297.525,559.2969 1297.525,559.6406 Q1297.525,559.9844 1297.1813,560.3906 Q1296.6813,560.9688 1295.8844,561.2969 Q1294.8063,561.75 1293.5094,561.75 Q1291.9938,561.75 1290.7906,561.125 Q1289.8063,560.625 1289.1188,559.5625 Q1288.4313,558.4844 1288.4313,557.2031 L1288.4313,556.0469 Q1288.4313,554.7188 1289.0406,553.5781 Q1289.6656,552.4219 1290.7594,551.8125 Q1291.8531,551.1875 1293.0875,551.1875 Q1293.8219,551.1875 1294.4625,551.3594 Q1295.1188,551.5156 1295.6656,551.875 Z " fill="#000000"/><text fill="#000000" font-family="sans-serif" font-size="14" lengthAdjust="spacing" textLength="79" x="1307.1" y="561.7969">UserSession</text><line style="stroke:#181818;stroke-width:0.5;" x1="1278" x2="1389" y1="572" y2="572"/><line style="stroke:#181818;stroke-width:0.5;" x1="1278" x2="1389" y1="580" y2="580"/><text fill="#000000" font-family="sans-serif" font-size="14" lengthAdjust="spacing" textLength="101" x="1283" y="599.1074">+getUserEmail()</text></g><!--class GreenSpace--><g id="elem_GreenSpace"><rect codeLine="22" fill="#F1F1F1" height="252.832" id="GreenSpace" rx="2.5" ry="2.5" style="stroke:#181818;stroke-width:0.5;" width="346" x="682.5" y="723"/><ellipse cx="811.25" cy="739" fill="#ADD1B2" rx="11" ry="11" style="stroke:#181818;stroke-width:1.0;"/><path d="M814.0156,734.875 Q814.1719,734.6563 814.3594,734.5469 Q814.5469,734.4375 814.7656,734.4375 Q815.1406,734.4375 815.375,734.7031 Q815.6094,734.9531 815.6094,735.5625 L815.6094,737.0156 Q815.6094,737.625 815.375,737.8906 Q815.1406,738.1563 814.7656,738.1563 Q814.4219,738.1563 814.2188,737.9531 Q814.0156,737.7656 813.9063,737.25 Q813.8594,736.8906 813.6719,736.7031 Q813.3438,736.3281 812.7344,736.1094 Q812.125,735.8906 811.5,735.8906 Q810.7344,735.8906 810.0938,736.2188 Q809.4688,736.5469 808.9688,737.2969 Q808.4844,738.0469 808.4844,739.0781 L808.4844,740.1719 Q808.4844,741.4063 809.375,742.2344 Q810.2656,743.0469 811.8594,743.0469 Q812.7969,743.0469 813.4531,742.7969 Q813.8438,742.6406 814.2656,742.2031 Q814.5313,741.9375 814.6719,741.8594 Q814.8281,741.7813 815.0313,741.7813 Q815.3594,741.7813 815.6094,742.0469 Q815.875,742.2969 815.875,742.6406 Q815.875,742.9844 815.5313,743.3906 Q815.0313,743.9688 814.2344,744.2969 Q813.1563,744.75 811.8594,744.75 Q810.3438,744.75 809.1406,744.125 Q808.1563,743.625 807.4688,742.5625 Q806.7813,741.4844 806.7813,740.2031 L806.7813,739.0469 Q806.7813,737.7188 807.3906,736.5781 Q808.0156,735.4219 809.1094,734.8125 Q810.2031,734.1875 811.4375,734.1875 Q812.1719,734.1875 812.8125,734.3594 Q813.4688,734.5156 814.0156,734.875 Z " fill="#000000"/><text fill="#000000" font-family="sans-serif" font-size="14" lengthAdjust="spacing" textLength="80" x="831.75" y="744.7969">GreenSpace</text><line style="stroke:#181818;stroke-width:0.5;" x1="683.5" x2="1027.5" y1="755" y2="755"/><text fill="#000000" font-family="sans-serif" font-size="14" lengthAdjust="spacing" textLength="85" x="688.5" y="774.1074">-name: String</text><text fill="#000000" font-family="sans-serif" font-size="14" lengthAdjust="spacing" textLength="77" x="688.5" y="792.7285">-type: String</text><text fill="#000000" font-family="sans-serif" font-size="14" lengthAdjust="spacing" textLength="85" x="688.5" y="811.3496">-area: double</text><line style="stroke:#181818;stroke-width:0.5;" x1="683.5" x2="1027.5" y1="818.8633" y2="818.8633"/><text fill="#000000" font-family="sans-serif" font-size="14" lengthAdjust="spacing" textLength="334" x="688.5" y="837.9707">+GreenSpace(String name, String type, double area)</text><text fill="#000000" font-family="sans-serif" font-size="14" lengthAdjust="spacing" textLength="289" x="688.5" y="856.5918">+void validateGreenSpaceName(String name)</text><text fill="#000000" font-family="sans-serif" font-size="14" lengthAdjust="spacing" textLength="277" x="688.5" y="875.2129">+void validateGreenSpaceType(String type)</text><text fill="#000000" font-family="sans-serif" font-size="14" lengthAdjust="spacing" textLength="283" x="688.5" y="893.834">+void validateGreenSpaceArea(double area)</text><text fill="#000000" font-family="sans-serif" font-size="14" lengthAdjust="spacing" textLength="168" x="688.5" y="912.4551">+boolean equals(Object o)</text><text fill="#000000" font-family="sans-serif" font-size="14" lengthAdjust="spacing" textLength="102" x="688.5" y="931.0762">+int hashCode()</text><text fill="#000000" font-family="sans-serif" font-size="14" lengthAdjust="spacing" textLength="136" x="688.5" y="949.6973">+GreenSpace clone()</text><text fill="#000000" font-family="sans-serif" font-size="14" lengthAdjust="spacing" textLength="210" x="688.5" y="968.3184">+boolean isOfName(String name)</text></g><!--class GreenSpaceRepository--><g id="elem_GreenSpaceRepository"><rect codeLine="36" fill="#F1F1F1" height="141.1055" id="GreenSpaceRepository" rx="2.5" ry="2.5" style="stroke:#181818;stroke-width:0.5;" width="616" x="547.5" y="503"/><ellipse cx="777.25" cy="519" fill="#ADD1B2" rx="11" ry="11" style="stroke:#181818;stroke-width:1.0;"/><path d="M780.0156,514.875 Q780.1719,514.6563 780.3594,514.5469 Q780.5469,514.4375 780.7656,514.4375 Q781.1406,514.4375 781.375,514.7031 Q781.6094,514.9531 781.6094,515.5625 L781.6094,517.0156 Q781.6094,517.625 781.375,517.8906 Q781.1406,518.1563 780.7656,518.1563 Q780.4219,518.1563 780.2188,517.9531 Q780.0156,517.7656 779.9063,517.25 Q779.8594,516.8906 779.6719,516.7031 Q779.3438,516.3281 778.7344,516.1094 Q778.125,515.8906 777.5,515.8906 Q776.7344,515.8906 776.0938,516.2188 Q775.4688,516.5469 774.9688,517.2969 Q774.4844,518.0469 774.4844,519.0781 L774.4844,520.1719 Q774.4844,521.4063 775.375,522.2344 Q776.2656,523.0469 777.8594,523.0469 Q778.7969,523.0469 779.4531,522.7969 Q779.8438,522.6406 780.2656,522.2031 Q780.5313,521.9375 780.6719,521.8594 Q780.8281,521.7813 781.0313,521.7813 Q781.3594,521.7813 781.6094,522.0469 Q781.875,522.2969 781.875,522.6406 Q781.875,522.9844 781.5313,523.3906 Q781.0313,523.9688 780.2344,524.2969 Q779.1563,524.75 777.8594,524.75 Q776.3438,524.75 775.1406,524.125 Q774.1563,523.625 773.4688,522.5625 Q772.7813,521.4844 772.7813,520.2031 L772.7813,519.0469 Q772.7813,517.7188 773.3906,516.5781 Q774.0156,515.4219 775.1094,514.8125 Q776.2031,514.1875 777.4375,514.1875 Q778.1719,514.1875 778.8125,514.3594 Q779.4688,514.5156 780.0156,514.875 Z " fill="#000000"/><text fill="#000000" font-family="sans-serif" font-size="14" lengthAdjust="spacing" textLength="148" x="797.75" y="524.7969">GreenSpaceRepository</text><line style="stroke:#181818;stroke-width:0.5;" x1="548.5" x2="1162.5" y1="535" y2="535"/><text fill="#000000" font-family="sans-serif" font-size="14" lengthAdjust="spacing" textLength="211" x="553.5" y="554.1074">-List&lt;GreenSpace&gt; greenSpaces</text><line style="stroke:#181818;stroke-width:0.5;" x1="548.5" x2="1162.5" y1="561.6211" y2="561.6211"/><text fill="#000000" font-family="sans-serif" font-size="14" lengthAdjust="spacing" textLength="604" x="553.5" y="580.7285">+Optional&lt;GreenSpace&gt; registerGreenSpace(String name, String type, double area, GSM gsm)</text><text fill="#000000" font-family="sans-serif" font-size="14" lengthAdjust="spacing" textLength="338" x="553.5" y="599.3496">+boolean addGreenSpace(GreenSpace greenSpace)</text><text fill="#000000" font-family="sans-serif" font-size="14" lengthAdjust="spacing" textLength="363" x="553.5" y="617.9707">+boolean validateGreenSpace(GreenSpace greenSpace)</text><text fill="#000000" font-family="sans-serif" font-size="14" lengthAdjust="spacing" textLength="262" x="553.5" y="636.5918">+List&lt;GreenSpace&gt; getGreenSpaceList()</text></g><!--class Repositories--><g id="elem_Repositories"><rect codeLine="44" fill="#F1F1F1" height="85.2422" id="Repositories" rx="2.5" ry="2.5" style="stroke:#181818;stroke-width:0.5;" width="358" x="450.5" y="339"/><ellipse cx="585.75" cy="355" fill="#ADD1B2" rx="11" ry="11" style="stroke:#181818;stroke-width:1.0;"/><path d="M588.5156,350.875 Q588.6719,350.6563 588.8594,350.5469 Q589.0469,350.4375 589.2656,350.4375 Q589.6406,350.4375 589.875,350.7031 Q590.1094,350.9531 590.1094,351.5625 L590.1094,353.0156 Q590.1094,353.625 589.875,353.8906 Q589.6406,354.1563 589.2656,354.1563 Q588.9219,354.1563 588.7188,353.9531 Q588.5156,353.7656 588.4063,353.25 Q588.3594,352.8906 588.1719,352.7031 Q587.8438,352.3281 587.2344,352.1094 Q586.625,351.8906 586,351.8906 Q585.2344,351.8906 584.5938,352.2188 Q583.9688,352.5469 583.4688,353.2969 Q582.9844,354.0469 582.9844,355.0781 L582.9844,356.1719 Q582.9844,357.4063 583.875,358.2344 Q584.7656,359.0469 586.3594,359.0469 Q587.2969,359.0469 587.9531,358.7969 Q588.3438,358.6406 588.7656,358.2031 Q589.0313,357.9375 589.1719,357.8594 Q589.3281,357.7813 589.5313,357.7813 Q589.8594,357.7813 590.1094,358.0469 Q590.375,358.2969 590.375,358.6406 Q590.375,358.9844 590.0313,359.3906 Q589.5313,359.9688 588.7344,360.2969 Q587.6563,360.75 586.3594,360.75 Q584.8438,360.75 583.6406,360.125 Q582.6563,359.625 581.9688,358.5625 Q581.2813,357.4844 581.2813,356.2031 L581.2813,355.0469 Q581.2813,353.7188 581.8906,352.5781 Q582.5156,351.4219 583.6094,350.8125 Q584.7031,350.1875 585.9375,350.1875 Q586.6719,350.1875 587.3125,350.3594 Q587.9688,350.5156 588.5156,350.875 Z " fill="#000000"/><text fill="#000000" font-family="sans-serif" font-size="14" lengthAdjust="spacing" textLength="79" x="606.25" y="360.7969">Repositories</text><line style="stroke:#181818;stroke-width:0.5;" x1="451.5" x2="807.5" y1="371" y2="371"/><line style="stroke:#181818;stroke-width:0.5;" x1="451.5" x2="807.5" y1="379" y2="379"/><text fill="#000000" font-family="sans-serif" font-size="14" lengthAdjust="spacing" textLength="182" x="456.5" y="398.1074">+getInstance() : Repositories</text><text fill="#000000" font-family="sans-serif" font-size="14" lengthAdjust="spacing" textLength="346" x="456.5" y="416.7285">+getGreenSpaceRepository() : GreenSpaceRepository</text></g><!--class RegisterGSUI--><g id="elem_RegisterGSUI"><rect codeLine="49" fill="#F1F1F1" height="252.832" id="RegisterGSUI" rx="2.5" ry="2.5" style="stroke:#181818;stroke-width:0.5;" width="251" x="348" y="7"/><ellipse cx="426.75" cy="23" fill="#ADD1B2" rx="11" ry="11" style="stroke:#181818;stroke-width:1.0;"/><path d="M429.5156,18.875 Q429.6719,18.6563 429.8594,18.5469 Q430.0469,18.4375 430.2656,18.4375 Q430.6406,18.4375 430.875,18.7031 Q431.1094,18.9531 431.1094,19.5625 L431.1094,21.0156 Q431.1094,21.625 430.875,21.8906 Q430.6406,22.1563 430.2656,22.1563 Q429.9219,22.1563 429.7188,21.9531 Q429.5156,21.7656 429.4063,21.25 Q429.3594,20.8906 429.1719,20.7031 Q428.8438,20.3281 428.2344,20.1094 Q427.625,19.8906 427,19.8906 Q426.2344,19.8906 425.5938,20.2188 Q424.9688,20.5469 424.4688,21.2969 Q423.9844,22.0469 423.9844,23.0781 L423.9844,24.1719 Q423.9844,25.4063 424.875,26.2344 Q425.7656,27.0469 427.3594,27.0469 Q428.2969,27.0469 428.9531,26.7969 Q429.3438,26.6406 429.7656,26.2031 Q430.0313,25.9375 430.1719,25.8594 Q430.3281,25.7813 430.5313,25.7813 Q430.8594,25.7813 431.1094,26.0469 Q431.375,26.2969 431.375,26.6406 Q431.375,26.9844 431.0313,27.3906 Q430.5313,27.9688 429.7344,28.2969 Q428.6563,28.75 427.3594,28.75 Q425.8438,28.75 424.6406,28.125 Q423.6563,27.625 422.9688,26.5625 Q422.2813,25.4844 422.2813,24.2031 L422.2813,23.0469 Q422.2813,21.7188 422.8906,20.5781 Q423.5156,19.4219 424.6094,18.8125 Q425.7031,18.1875 426.9375,18.1875 Q427.6719,18.1875 428.3125,18.3594 Q428.9688,18.5156 429.5156,18.875 Z " fill="#000000"/><text fill="#000000" font-family="sans-serif" font-size="14" lengthAdjust="spacing" textLength="85" x="447.25" y="28.7969">RegisterGSUI</text><line style="stroke:#181818;stroke-width:0.5;" x1="349" x2="598" y1="39" y2="39"/><text fill="#000000" font-family="sans-serif" font-size="14" lengthAdjust="spacing" textLength="207" x="354" y="58.1074">-controller: RegisterGSController</text><text fill="#000000" font-family="sans-serif" font-size="14" lengthAdjust="spacing" textLength="163" x="354" y="76.7285">-greenSpaceName: String</text><text fill="#000000" font-family="sans-serif" font-size="14" lengthAdjust="spacing" textLength="159" x="354" y="95.3496">-greenSpaceType: String</text><text fill="#000000" font-family="sans-serif" font-size="14" lengthAdjust="spacing" textLength="163" x="354" y="113.9707">-greenSpaceArea: double</text><line style="stroke:#181818;stroke-width:0.5;" x1="349" x2="598" y1="121.4844" y2="121.4844"/><text fill="#000000" font-family="sans-serif" font-size="14" lengthAdjust="spacing" textLength="239" x="354" y="140.5918">+RegisterGSController getController()</text><text fill="#000000" font-family="sans-serif" font-size="14" lengthAdjust="spacing" textLength="69" x="354" y="159.2129">+void run()</text><text fill="#000000" font-family="sans-serif" font-size="14" lengthAdjust="spacing" textLength="119" x="354" y="177.834">+void submitData()</text><text fill="#000000" font-family="sans-serif" font-size="14" lengthAdjust="spacing" textLength="126" x="354" y="196.4551">+void requestData()</text><text fill="#000000" font-family="sans-serif" font-size="14" lengthAdjust="spacing" textLength="159" x="354" y="215.0762">+String requestGSType()</text><text fill="#000000" font-family="sans-serif" font-size="14" lengthAdjust="spacing" textLength="163" x="354" y="233.6973">+String requestGSName()</text><text fill="#000000" font-family="sans-serif" font-size="14" lengthAdjust="spacing" textLength="163" x="354" y="252.3184">+double requestGSArea()</text></g><!--class RegisterGSController--><g id="elem_RegisterGSController"><rect codeLine="63" fill="#F1F1F1" height="178.3477" id="RegisterGSController" rx="2.5" ry="2.5" style="stroke:#181818;stroke-width:0.5;" width="789" x="634" y="44.5"/><ellipse cx="956.75" cy="60.5" fill="#ADD1B2" rx="11" ry="11" style="stroke:#181818;stroke-width:1.0;"/><path d="M959.5156,56.375 Q959.6719,56.1563 959.8594,56.0469 Q960.0469,55.9375 960.2656,55.9375 Q960.6406,55.9375 960.875,56.2031 Q961.1094,56.4531 961.1094,57.0625 L961.1094,58.5156 Q961.1094,59.125 960.875,59.3906 Q960.6406,59.6563 960.2656,59.6563 Q959.9219,59.6563 959.7188,59.4531 Q959.5156,59.2656 959.4063,58.75 Q959.3594,58.3906 959.1719,58.2031 Q958.8438,57.8281 958.2344,57.6094 Q957.625,57.3906 957,57.3906 Q956.2344,57.3906 955.5938,57.7188 Q954.9688,58.0469 954.4688,58.7969 Q953.9844,59.5469 953.9844,60.5781 L953.9844,61.6719 Q953.9844,62.9063 954.875,63.7344 Q955.7656,64.5469 957.3594,64.5469 Q958.2969,64.5469 958.9531,64.2969 Q959.3438,64.1406 959.7656,63.7031 Q960.0313,63.4375 960.1719,63.3594 Q960.3281,63.2813 960.5313,63.2813 Q960.8594,63.2813 961.1094,63.5469 Q961.375,63.7969 961.375,64.1406 Q961.375,64.4844 961.0313,64.8906 Q960.5313,65.4688 959.7344,65.7969 Q958.6563,66.25 957.3594,66.25 Q955.8438,66.25 954.6406,65.625 Q953.6563,65.125 952.9688,64.0625 Q952.2813,62.9844 952.2813,61.7031 L952.2813,60.5469 Q952.2813,59.2188 952.8906,58.0781 Q953.5156,56.9219 954.6094,56.3125 Q955.7031,55.6875 956.9375,55.6875 Q957.6719,55.6875 958.3125,55.8594 Q958.9688,56.0156 959.5156,56.375 Z " fill="#000000"/><text fill="#000000" font-family="sans-serif" font-size="14" lengthAdjust="spacing" textLength="135" x="977.25" y="66.2969">RegisterGSController</text><line style="stroke:#181818;stroke-width:0.5;" x1="635" x2="1422" y1="76.5" y2="76.5"/><text fill="#000000" font-family="sans-serif" font-size="14" lengthAdjust="spacing" textLength="306" x="640" y="95.6074">-greenSpaceRepository: GreenSpaceRepository</text><text fill="#000000" font-family="sans-serif" font-size="14" lengthAdjust="spacing" textLength="328" x="640" y="114.2285">-authenticationRepository: AuthenticationRepository</text><line style="stroke:#181818;stroke-width:0.5;" x1="635" x2="1422" y1="121.7422" y2="121.7422"/><text fill="#000000" font-family="sans-serif" font-size="14" lengthAdjust="spacing" textLength="777" x="640" y="140.8496">+RegisterGSController(GreenSpaceRepository greenSpaceRepository, AuthenticationRepository authenticationRepository)</text><text fill="#000000" font-family="sans-serif" font-size="14" lengthAdjust="spacing" textLength="338" x="640" y="159.4707">+GreenSpaceRepository getGreenSpaceRepository()</text><text fill="#000000" font-family="sans-serif" font-size="14" lengthAdjust="spacing" textLength="358" x="640" y="178.0918">+AuthenticationRepository getAuthenticationRepository()</text><text fill="#000000" font-family="sans-serif" font-size="14" lengthAdjust="spacing" textLength="604" x="640" y="196.7129">+Optional&lt;GreenSpace&gt; registerGreenSpace(String name, String type, double area, GSM gsm)</text><text fill="#000000" font-family="sans-serif" font-size="14" lengthAdjust="spacing" textLength="187" x="640" y="215.334">+GSM getGSMFromSession()</text></g><g id="elem_GMN9"><path d="M1458,111 L1458,129.5 L1423.09,133.5 L1458,137.5 L1458,155.582 A0,0 0 0 0 1458,155.582 L1739,155.582 A0,0 0 0 0 1739,155.582 L1739,121 L1729,111 L1458,111 A0,0 0 0 0 1458,111 " fill="#FEFFDD" style="stroke:#181818;stroke-width:0.5;"/><path d="M1729,111 L1729,121 L1739,121 L1729,111 " fill="#FEFFDD" style="stroke:#181818;stroke-width:0.5;"/><text fill="#000000" font-family="sans-serif" font-size="13" lengthAdjust="spacing" textLength="260" x="1464" y="130.0283">- Green Space data is read from GSM's input</text><text fill="#000000" font-family="sans-serif" font-size="13" lengthAdjust="spacing" textLength="224" x="1464" y="147.3193">- Updates the Green Space Repository</text></g><g id="elem_GMN12"><path d="M6,102.5 L6,164.373 A0,0 0 0 0 6,164.373 L313,164.373 A0,0 0 0 0 313,164.373 L313,137.5 L347.89,133.5 L313,129.5 L313,112.5 L303,102.5 L6,102.5 A0,0 0 0 0 6,102.5 " fill="#FEFFDD" style="stroke:#181818;stroke-width:0.5;"/><path d="M303,102.5 L303,112.5 L313,112.5 L303,102.5 " fill="#FEFFDD" style="stroke:#181818;stroke-width:0.5;"/><text fill="#000000" font-family="sans-serif" font-size="13" lengthAdjust="spacing" textLength="223" x="12" y="121.5283">- UI for GSM to input green space data</text><text fill="#000000" font-family="sans-serif" font-size="13" lengthAdjust="spacing" textLength="248" x="12" y="138.8193">- Communicates with RegisterGSController</text><text fill="#000000" font-family="sans-serif" font-size="13" lengthAdjust="spacing" textLength="286" x="12" y="156.1104">- Receives repositories from RegisterGSController</text></g><!--link Repositories to Repositories--><g id="link_Repositories_Repositories"><path codeLine="84" d="M808.63,368.33 C829.74,370.74 843.5,375.13 843.5,381.5 C843.5,387.87 835.7013,391.5794 814.5913,393.9894 " fill="none" id="Repositories-to-Repositories" style="stroke:#181818;stroke-width:1.0;"/><polygon fill="#181818" points="808.63,394.67,818.0256,397.6233,813.5977,394.1029,817.1182,389.675,808.63,394.67" style="stroke:#181818;stroke-width:1.0;"/><text fill="#000000" font-family="sans-serif" font-size="13" lengthAdjust="spacing" textLength="49" x="849.5" y="387.0283">instance</text></g><!--link ApplicationSession to ApplicationSession--><g id="link_ApplicationSession_ApplicationSession"><path codeLine="85" d="M1277.16,366.27 C1297,367.17 1312,372.25 1312,381.5 C1312,390.75 1302.9938,395.5581 1283.1538,396.4581 " fill="none" id="ApplicationSession-to-ApplicationSession" style="stroke:#181818;stroke-width:1.0;"/><polygon fill="#181818" points="1277.16,396.73,1286.332,400.318,1282.1549,396.5034,1285.9695,392.3263,1277.16,396.73" style="stroke:#181818;stroke-width:1.0;"/><text fill="#000000" font-family="sans-serif" font-size="13" lengthAdjust="spacing" textLength="49" x="1318" y="387.0283">instance</text></g><!--link RegisterGSUI to RegisterGSController--><g id="link_RegisterGSUI_RegisterGSController"><path codeLine="87" d="M599.2,133.5 C612.17,133.5 618.14,133.5 627.87,133.5 " fill="none" id="RegisterGSUI-to-RegisterGSController" style="stroke:#181818;stroke-width:1.0;stroke-dasharray:7.0,7.0;"/><polygon fill="#181818" points="633.87,133.5,624.87,129.5,628.87,133.5,624.87,137.5,633.87,133.5" style="stroke:#181818;stroke-width:1.0;"/></g><!--link RegisterGSController to Repositories--><g id="link_RegisterGSController_Repositories"><path codeLine="89" d="M885.58,222.62 C821.29,262.25 753.5672,304.011 702.0572,335.771 " fill="none" id="RegisterGSController-to-Repositories" style="stroke:#181818;stroke-width:1.0;"/><polygon fill="#181818" points="696.95,338.92,706.7102,337.6013,701.206,336.2958,702.5115,330.7917,696.95,338.92" style="stroke:#181818;stroke-width:1.0;"/><text fill="#000000" font-family="sans-serif" font-size="13" lengthAdjust="spacing" textLength="108" x="771.5" y="305.0283">retrieves instances</text></g><!--link Repositories to GreenSpaceRepository--><g id="link_Repositories_GreenSpaceRepository"><path codeLine="91" d="M679.1,424.2 C706.51,447.25 736.6977,472.6185 768.1177,499.0385 " fill="none" id="Repositories-to-GreenSpaceRepository" style="stroke:#181818;stroke-width:1.0;"/><polygon fill="#181818" points="772.71,502.9,768.3959,494.0463,768.8831,499.6821,763.2473,500.1693,772.71,502.9" style="stroke:#181818;stroke-width:1.0;"/><text fill="#000000" font-family="sans-serif" font-size="13" lengthAdjust="spacing" textLength="56" x="737.5" y="469.0283">accesses</text></g><!--link RegisterGSController to GreenSpaceRepository--><g id="link_RegisterGSController_GreenSpaceRepository"><path codeLine="93" d="M993.7,222.61 C961.09,305.17 915.1943,421.3596 885.1943,497.3096 " fill="none" id="RegisterGSController-to-GreenSpaceRepository" style="stroke:#181818;stroke-width:1.0;stroke-dasharray:7.0,7.0;"/><polygon fill="#181818" points="882.99,502.89,890.0167,495.9888,884.8269,498.2396,882.5761,493.0498,882.99,502.89" style="stroke:#181818;stroke-width:1.0;"/><text fill="#000000" font-family="sans-serif" font-size="13" lengthAdjust="spacing" textLength="131" x="946.5" y="387.0283">greenSpaceRepository</text></g><!--link ApplicationSession to UserSession--><g id="link_ApplicationSession_UserSession"><path codeLine="95" d="M1230.47,424.2 C1254.6,458.93 1285.0761,502.8028 1307.3061,534.7928 " fill="none" id="ApplicationSession-to-UserSession" style="stroke:#181818;stroke-width:1.0;"/><polygon fill="#181818" points="1310.73,539.72,1308.8789,530.0467,1307.8767,535.614,1302.3094,534.6119,1310.73,539.72" style="stroke:#181818;stroke-width:1.0;"/><text fill="#000000" font-family="sans-serif" font-size="13" lengthAdjust="spacing" textLength="72" x="1265.5" y="469.0283">userSession</text><text fill="#000000" font-family="sans-serif" font-size="13" lengthAdjust="spacing" textLength="7" x="1298.7223" y="528.7525">1</text></g><!--link RegisterGSController to ApplicationSession--><g id="link_RegisterGSController_ApplicationSession"><path codeLine="97" d="M1090.47,222.62 C1118.29,262.18 1146.3583,302.0922 1168.6883,333.8422 " fill="none" id="RegisterGSController-to-ApplicationSession" style="stroke:#181818;stroke-width:1.0;stroke-dasharray:7.0,7.0;"/><polygon fill="#181818" points="1172.14,338.75,1170.2343,329.0873,1169.2636,334.6602,1163.6907,333.6895,1172.14,338.75" style="stroke:#181818;stroke-width:1.0;"/></g><!--link RegisterGSController to UserSession--><g id="link_RegisterGSController_UserSession"><path codeLine="98" d="M1177.06,222.56 C1270.5,277.95 1373.5,339 1373.5,339 C1373.5,339 1373.5,424 1373.5,424 C1373.5,424 1355.6101,490.4064 1343.8401,534.1164 " fill="none" id="RegisterGSController-to-UserSession" style="stroke:#181818;stroke-width:1.0;stroke-dasharray:7.0,7.0;"/><polygon fill="#181818" points="1342.28,539.91,1348.4825,532.2596,1343.5801,535.082,1340.7577,530.1795,1342.28,539.91" style="stroke:#181818;stroke-width:1.0;"/></g><!--link GreenSpaceRepository to GreenSpace--><g id="link_GreenSpaceRepository_GreenSpace"><path codeLine="100" d="M855.5,644.35 C855.5,668.29 855.5,689.87 855.5,716.85 " fill="none" id="GreenSpaceRepository-to-GreenSpace" style="stroke:#181818;stroke-width:1.0;"/><polygon fill="#181818" points="855.5,722.85,859.5,713.85,855.5,717.85,851.5,713.85,855.5,722.85" style="stroke:#181818;stroke-width:1.0;"/><text fill="#000000" font-family="sans-serif" font-size="13" lengthAdjust="spacing" textLength="36" x="856.5" y="689.0283">stores</text></g><!--SRC=[jLRDRjim3BxxAOXUag99iLs3eK2GRKM0TGNgzW4Kct6qsf8doIsoOky-IbPYAP5NxB2SOdxy-2UIqaG_Sz4onHfef935Jia6mQWEim5fMV7CAipDlaPGM1WcgZfKq3jMobSkAjYoMeT8pGMQVOlGodflFx990fJAo2nW5JNJUccCuflEuBgG8kU_43vasQJ6hG4ZGV5gPw3aDXmkHPOv3YpRjkO5iw8SjRR8MmRqkm9jI5n0XMOjwByeS7hf8PAjEgLG64yYvFV1v9D6TMgB25RyfM6y3dLl5QB8gLu8lUeS16jm0Jdb8YeliZcVY9X2je1ITXigREzZi3NjLPsfcUSv8pFFSFH3CY-Ib_32QbuoWuEHxqGE3RsZ_aZcfu6hTzIN5C0q4Sn6oXgP0FpPKMTCxpS_wBn07c0k3EoOtgraEPn6KCIYbc803iQulj-UfvCuX0TifUP6ghqxZZbyuzfy6l0Rg8x_TMPTtBUsTLWTAIciY8VgNqza1hVv7LIwkSp2y5bP1fQ2R8TWOi9vkV_6EiyHpV1fqR1ZZoNYg5sHhk89WKMaSb18rTWffu3Gcwza_hJsHqB3RPIiQrIB05uTfKwfYjeuc9qGUep7AeIMyNXT9JsvDN3yclRLTFskEX5-wcxJSFEP6HOfKO-Z3iM-BpnmcxkPIaEkdNl8Dz0HSgDrcQfX4FhRIS93yKUEn2sTpknev_bz6LAM8yXexQR9eKl5CnirFXfFNvUqXx5MT9HHJqGRmpprVou2zq61vtTVwRgDhXmX3VgxJMx7vy450FtyqsPWj18fE5R2bWnQ-nDDkxNjZDD-Qktsq409HypWN56KO7tx2Dmj6mNmjEvDhM4hbSk0Bc7deZzbqCTWdE9ADaqdR7N9yIitk_5a7h10_e8sWs0NkKoId27MQ7dDR-9bjg3m-YsMdRyAh7P26d2oQ5TTtwHZoPBJEAVNa3YFHo7r1zfC3rxqQGwUcEpr1R22ABfd9TnUNuyoKvEO9Uj2tYy-NeIl7g9tmHjet7VYyJMg6xwgicJGywWE2tg_IMLJ_mC0]--></g></svg>