<?xml version="1.0" encoding="us-ascii" standalone="no"?><svg xmlns="http://www.w3.org/2000/svg" xmlns:xlink="http://www.w3.org/1999/xlink" contentStyleType="text/css" height="405px" preserveAspectRatio="none" style="width:782px;height:405px;background:#FFFFFF;" version="1.1" viewBox="0 0 782 405" width="782px" zoomAndPan="magnify"><defs/><g><rect fill="#FFFFFF" height="252.0762" style="stroke:#181818;stroke-width:1.0;" width="10" x="432" y="98.2031"/><rect fill="#FFFFFF" height="42.291" style="stroke:#181818;stroke-width:1.0;" width="10" x="437" y="181.1152"/><rect fill="#FFFFFF" height="42.291" style="stroke:#181818;stroke-width:1.0;" width="10" x="437" y="269.6973"/><line style="stroke:#181818;stroke-width:0.5;stroke-dasharray:5.0,5.0;" x1="437" x2="437" y1="38.6211" y2="368.2793"/><line style="stroke:#181818;stroke-width:0.5;stroke-dasharray:5.0,5.0;" x1="729" x2="729" y1="138.0137" y2="368.2793"/><rect fill="#E3E3E3" height="32.6211" rx="2.5" ry="2.5" style="stroke:#181818;stroke-width:0.5;" width="162" x="356" y="5"/><text fill="#000000" font-family="sans-serif" font-size="14" lengthAdjust="spacing" textLength="148" x="363" y="27.1074">GreenSpaceRepository</text><rect fill="#E3E3E3" height="32.6211" rx="2.5" ry="2.5" style="stroke:#181818;stroke-width:0.5;" width="162" x="356" y="367.2793"/><text fill="#000000" font-family="sans-serif" font-size="14" lengthAdjust="spacing" textLength="148" x="363" y="389.3867">GreenSpaceRepository</text><rect fill="#E3E3E3" height="32.6211" rx="2.5" ry="2.5" style="stroke:#181818;stroke-width:0.5;" width="94" x="682" y="367.2793"/><text fill="#000000" font-family="sans-serif" font-size="14" lengthAdjust="spacing" textLength="80" x="689" y="389.3867">GreenSpace</text><rect fill="#FFFFFF" height="252.0762" style="stroke:#181818;stroke-width:1.0;" width="10" x="432" y="98.2031"/><rect fill="#FFFFFF" height="42.291" style="stroke:#181818;stroke-width:1.0;" width="10" x="437" y="181.1152"/><rect fill="#FFFFFF" height="42.291" style="stroke:#181818;stroke-width:1.0;" width="10" x="437" y="269.6973"/><polygon fill="#181818" points="420,94.2031,430,98.2031,420,102.2031,424,98.2031" style="stroke:#181818;stroke-width:1.0;"/><line style="stroke:#181818;stroke-width:1.0;" x1="0" x2="426" y1="98.2031" y2="98.2031"/><text fill="#000000" font-family="sans-serif" font-size="13" lengthAdjust="spacing" textLength="406" x="7" y="92.9404">registerGreenSpace(String name, String type, double area, GSM gsm)</text><polygon fill="#181818" points="670,125.4941,680,129.4941,670,133.4941,674,129.4941" style="stroke:#181818;stroke-width:1.0;"/><line style="stroke:#181818;stroke-width:1.0;" x1="442" x2="676" y1="129.4941" y2="129.4941"/><text fill="#000000" font-family="sans-serif" font-size="13" lengthAdjust="spacing" textLength="36" x="449" y="124.2314">create</text><rect fill="#E3E3E3" height="32.6211" rx="2.5" ry="2.5" style="stroke:#181818;stroke-width:0.5;" width="94" x="682" y="106.2031"/><text fill="#000000" font-family="sans-serif" font-size="14" lengthAdjust="spacing" textLength="80" x="689" y="128.3105">GreenSpace</text><line style="stroke:#181818;stroke-width:1.0;" x1="442" x2="489" y1="168.1152" y2="168.1152"/><line style="stroke:#181818;stroke-width:1.0;" x1="489" x2="489" y1="168.1152" y2="181.1152"/><line style="stroke:#181818;stroke-width:1.0;" x1="448" x2="489" y1="181.1152" y2="181.1152"/><polygon fill="#181818" points="458,177.1152,448,181.1152,458,185.1152,454,181.1152" style="stroke:#181818;stroke-width:1.0;"/><text fill="#000000" font-family="sans-serif" font-size="13" lengthAdjust="spacing" textLength="268" x="454" y="162.8525">validateGreenSpace(GreenSpace greenSpace)</text><line style="stroke:#181818;stroke-width:1.0;stroke-dasharray:2.0,2.0;" x1="447" x2="489" y1="222.4063" y2="222.4063"/><line style="stroke:#181818;stroke-width:1.0;stroke-dasharray:2.0,2.0;" x1="489" x2="489" y1="222.4063" y2="235.4063"/><line style="stroke:#181818;stroke-width:1.0;stroke-dasharray:2.0,2.0;" x1="442" x2="489" y1="235.4063" y2="235.4063"/><polygon fill="#181818" points="452,231.4063,442,235.4063,452,239.4063,448,235.4063" style="stroke:#181818;stroke-width:1.0;"/><text fill="#000000" font-family="sans-serif" font-size="13" lengthAdjust="spacing" textLength="22" x="454" y="217.1436">true</text><line style="stroke:#181818;stroke-width:1.0;" x1="442" x2="489" y1="256.6973" y2="256.6973"/><line style="stroke:#181818;stroke-width:1.0;" x1="489" x2="489" y1="256.6973" y2="269.6973"/><line style="stroke:#181818;stroke-width:1.0;" x1="448" x2="489" y1="269.6973" y2="269.6973"/><polygon fill="#181818" points="458,265.6973,448,269.6973,458,273.6973,454,269.6973" style="stroke:#181818;stroke-width:1.0;"/><text fill="#000000" font-family="sans-serif" font-size="13" lengthAdjust="spacing" textLength="246" x="454" y="251.4346">addGreenSpace(GreenSpace greenSpace)</text><line style="stroke:#181818;stroke-width:1.0;stroke-dasharray:2.0,2.0;" x1="447" x2="489" y1="310.9883" y2="310.9883"/><line style="stroke:#181818;stroke-width:1.0;stroke-dasharray:2.0,2.0;" x1="489" x2="489" y1="310.9883" y2="323.9883"/><line style="stroke:#181818;stroke-width:1.0;stroke-dasharray:2.0,2.0;" x1="442" x2="489" y1="323.9883" y2="323.9883"/><polygon fill="#181818" points="452,319.9883,442,323.9883,452,327.9883,448,323.9883" style="stroke:#181818;stroke-width:1.0;"/><text fill="#000000" font-family="sans-serif" font-size="13" lengthAdjust="spacing" textLength="22" x="454" y="305.7256">true</text><polygon fill="#181818" points="11,346.2793,1,350.2793,11,354.2793,7,350.2793" style="stroke:#181818;stroke-width:1.0;"/><line style="stroke:#181818;stroke-width:1.0;stroke-dasharray:2.0,2.0;" x1="5" x2="436" y1="350.2793" y2="350.2793"/><text fill="#000000" font-family="sans-serif" font-size="13" lengthAdjust="spacing" textLength="69" x="17" y="345.0166">greenSpace</text><!--SRC=[rL91JiCm4Bpd5QkUQDLy8498HKLj9RWaBrZinRMQs9QzAShlSLnAGaafL_QqzixCpbWE1sqSUcoWiSQAlRSD0VkMil0rSIWEgAZYhYRm91YDgiU0i4TftxLHy8Pre2pBuZrheHqQXjd64vaggb19pWRDrdSpm02Rgho6JFFjwd7tl5klrazH4c8fRri79IaTc3maE2JyQNvP-KE_euYcJun1_wvYtnissD0IFW_SkNYGjdsDGT4JBYFz1LHevfFoA5WVaIa5cKJq5OUzaI7COb60YEfCLpaNt1JYYBMMaJGACRJnQSxj_ARgttn_yt0saRx6BOQatpUCKw6K_ozGTdt9VPwd1L2C4ap3VwX-0000]--></g></svg>