<?xml version="1.0" encoding="us-ascii" standalone="no"?><svg xmlns="http://www.w3.org/2000/svg" xmlns:xlink="http://www.w3.org/1999/xlink" contentStyleType="text/css" height="1031px" preserveAspectRatio="none" style="width:2214px;height:1031px;background:#FFFFFF;" version="1.1" viewBox="0 0 2214 1031" width="2214px" zoomAndPan="magnify"><defs/><g><!--class ApplicationSession--><g id="elem_ApplicationSession"><rect codeLine="11" fill="#F1F1F1" height="85.2422" id="ApplicationSession" rx="2.5" ry="2.5" style="stroke:#181818;stroke-width:0.5;" width="151" x="1125.5" y="387.7627"/><ellipse cx="1140.5" cy="403.7627" fill="#ADD1B2" rx="11" ry="11" style="stroke:#181818;stroke-width:1.0;"/><path d="M1143.2656,399.6377 Q1143.4219,399.4189 1143.6094,399.3096 Q1143.7969,399.2002 1144.0156,399.2002 Q1144.3906,399.2002 1144.625,399.4658 Q1144.8594,399.7158 1144.8594,400.3252 L1144.8594,401.7783 Q1144.8594,402.3877 1144.625,402.6533 Q1144.3906,402.9189 1144.0156,402.9189 Q1143.6719,402.9189 1143.4688,402.7158 Q1143.2656,402.5283 1143.1563,402.0127 Q1143.1094,401.6533 1142.9219,401.4658 Q1142.5938,401.0908 1141.9844,400.8721 Q1141.375,400.6533 1140.75,400.6533 Q1139.9844,400.6533 1139.3438,400.9814 Q1138.7188,401.3096 1138.2188,402.0596 Q1137.7344,402.8096 1137.7344,403.8408 L1137.7344,404.9346 Q1137.7344,406.1689 1138.625,406.9971 Q1139.5156,407.8096 1141.1094,407.8096 Q1142.0469,407.8096 1142.7031,407.5596 Q1143.0938,407.4033 1143.5156,406.9658 Q1143.7813,406.7002 1143.9219,406.6221 Q1144.0781,406.5439 1144.2813,406.5439 Q1144.6094,406.5439 1144.8594,406.8096 Q1145.125,407.0596 1145.125,407.4033 Q1145.125,407.7471 1144.7813,408.1533 Q1144.2813,408.7314 1143.4844,409.0596 Q1142.4063,409.5127 1141.1094,409.5127 Q1139.5938,409.5127 1138.3906,408.8877 Q1137.4063,408.3877 1136.7188,407.3252 Q1136.0313,406.2471 1136.0313,404.9658 L1136.0313,403.8096 Q1136.0313,402.4814 1136.6406,401.3408 Q1137.2656,400.1846 1138.3594,399.5752 Q1139.4531,398.9502 1140.6875,398.9502 Q1141.4219,398.9502 1142.0625,399.1221 Q1142.7188,399.2783 1143.2656,399.6377 Z " fill="#000000"/><text fill="#000000" font-family="sans-serif" font-size="14" lengthAdjust="spacing" textLength="119" x="1154.5" y="409.5596">ApplicationSession</text><line style="stroke:#181818;stroke-width:0.5;" x1="1126.5" x2="1275.5" y1="419.7627" y2="419.7627"/><line style="stroke:#181818;stroke-width:0.5;" x1="1126.5" x2="1275.5" y1="427.7627" y2="427.7627"/><text fill="#000000" font-family="sans-serif" font-size="14" lengthAdjust="spacing" textLength="128" x="1131.5" y="446.8701">+static getInstance()</text><text fill="#000000" font-family="sans-serif" font-size="14" lengthAdjust="spacing" textLength="136" x="1131.5" y="465.4912">+getCurrentSession()</text></g><!--class UserSession--><g id="elem_UserSession"><rect codeLine="17" fill="#F1F1F1" height="66.6211" id="UserSession" rx="2.5" ry="2.5" style="stroke:#181818;stroke-width:0.5;" width="113" x="1144.5" y="588.7627"/><ellipse cx="1160.4" cy="604.7627" fill="#ADD1B2" rx="11" ry="11" style="stroke:#181818;stroke-width:1.0;"/><path d="M1163.1656,600.6377 Q1163.3219,600.4189 1163.5094,600.3096 Q1163.6969,600.2002 1163.9156,600.2002 Q1164.2906,600.2002 1164.525,600.4658 Q1164.7594,600.7158 1164.7594,601.3252 L1164.7594,602.7783 Q1164.7594,603.3877 1164.525,603.6533 Q1164.2906,603.9189 1163.9156,603.9189 Q1163.5719,603.9189 1163.3688,603.7158 Q1163.1656,603.5283 1163.0563,603.0127 Q1163.0094,602.6533 1162.8219,602.4658 Q1162.4938,602.0908 1161.8844,601.8721 Q1161.275,601.6533 1160.65,601.6533 Q1159.8844,601.6533 1159.2438,601.9814 Q1158.6188,602.3096 1158.1188,603.0596 Q1157.6344,603.8096 1157.6344,604.8408 L1157.6344,605.9346 Q1157.6344,607.1689 1158.525,607.9971 Q1159.4156,608.8096 1161.0094,608.8096 Q1161.9469,608.8096 1162.6031,608.5596 Q1162.9938,608.4033 1163.4156,607.9658 Q1163.6813,607.7002 1163.8219,607.6221 Q1163.9781,607.5439 1164.1813,607.5439 Q1164.5094,607.5439 1164.7594,607.8096 Q1165.025,608.0596 1165.025,608.4033 Q1165.025,608.7471 1164.6813,609.1533 Q1164.1813,609.7314 1163.3844,610.0596 Q1162.3063,610.5127 1161.0094,610.5127 Q1159.4938,610.5127 1158.2906,609.8877 Q1157.3063,609.3877 1156.6188,608.3252 Q1155.9313,607.2471 1155.9313,605.9658 L1155.9313,604.8096 Q1155.9313,603.4814 1156.5406,602.3408 Q1157.1656,601.1846 1158.2594,600.5752 Q1159.3531,599.9502 1160.5875,599.9502 Q1161.3219,599.9502 1161.9625,600.1221 Q1162.6188,600.2783 1163.1656,600.6377 Z " fill="#000000"/><text fill="#000000" font-family="sans-serif" font-size="14" lengthAdjust="spacing" textLength="79" x="1174.6" y="610.5596">UserSession</text><line style="stroke:#181818;stroke-width:0.5;" x1="1145.5" x2="1256.5" y1="620.7627" y2="620.7627"/><line style="stroke:#181818;stroke-width:0.5;" x1="1145.5" x2="1256.5" y1="628.7627" y2="628.7627"/><text fill="#000000" font-family="sans-serif" font-size="14" lengthAdjust="spacing" textLength="101" x="1150.5" y="647.8701">+getUserEmail()</text></g><!--class GreenSpace--><g id="elem_GreenSpace"><rect codeLine="22" fill="#F1F1F1" height="252.832" id="GreenSpace" rx="2.5" ry="2.5" style="stroke:#181818;stroke-width:0.5;" width="346" x="404" y="771.7627"/><ellipse cx="532.75" cy="787.7627" fill="#ADD1B2" rx="11" ry="11" style="stroke:#181818;stroke-width:1.0;"/><path d="M535.5156,783.6377 Q535.6719,783.4189 535.8594,783.3096 Q536.0469,783.2002 536.2656,783.2002 Q536.6406,783.2002 536.875,783.4658 Q537.1094,783.7158 537.1094,784.3252 L537.1094,785.7783 Q537.1094,786.3877 536.875,786.6533 Q536.6406,786.9189 536.2656,786.9189 Q535.9219,786.9189 535.7188,786.7158 Q535.5156,786.5283 535.4063,786.0127 Q535.3594,785.6533 535.1719,785.4658 Q534.8438,785.0908 534.2344,784.8721 Q533.625,784.6533 533,784.6533 Q532.2344,784.6533 531.5938,784.9814 Q530.9688,785.3096 530.4688,786.0596 Q529.9844,786.8096 529.9844,787.8408 L529.9844,788.9346 Q529.9844,790.1689 530.875,790.9971 Q531.7656,791.8096 533.3594,791.8096 Q534.2969,791.8096 534.9531,791.5596 Q535.3438,791.4033 535.7656,790.9658 Q536.0313,790.7002 536.1719,790.6221 Q536.3281,790.5439 536.5313,790.5439 Q536.8594,790.5439 537.1094,790.8096 Q537.375,791.0596 537.375,791.4033 Q537.375,791.7471 537.0313,792.1533 Q536.5313,792.7314 535.7344,793.0596 Q534.6563,793.5127 533.3594,793.5127 Q531.8438,793.5127 530.6406,792.8877 Q529.6563,792.3877 528.9688,791.3252 Q528.2813,790.2471 528.2813,788.9658 L528.2813,787.8096 Q528.2813,786.4814 528.8906,785.3408 Q529.5156,784.1846 530.6094,783.5752 Q531.7031,782.9502 532.9375,782.9502 Q533.6719,782.9502 534.3125,783.1221 Q534.9688,783.2783 535.5156,783.6377 Z " fill="#000000"/><text fill="#000000" font-family="sans-serif" font-size="14" lengthAdjust="spacing" textLength="80" x="553.25" y="793.5596">GreenSpace</text><line style="stroke:#181818;stroke-width:0.5;" x1="405" x2="749" y1="803.7627" y2="803.7627"/><text fill="#000000" font-family="sans-serif" font-size="14" lengthAdjust="spacing" textLength="85" x="410" y="822.8701">-name: String</text><text fill="#000000" font-family="sans-serif" font-size="14" lengthAdjust="spacing" textLength="77" x="410" y="841.4912">-type: String</text><text fill="#000000" font-family="sans-serif" font-size="14" lengthAdjust="spacing" textLength="85" x="410" y="860.1123">-area: double</text><line style="stroke:#181818;stroke-width:0.5;" x1="405" x2="749" y1="867.626" y2="867.626"/><text fill="#000000" font-family="sans-serif" font-size="14" lengthAdjust="spacing" textLength="334" x="410" y="886.7334">+GreenSpace(String name, String type, double area)</text><text fill="#000000" font-family="sans-serif" font-size="14" lengthAdjust="spacing" textLength="289" x="410" y="905.3545">+void validateGreenSpaceName(String name)</text><text fill="#000000" font-family="sans-serif" font-size="14" lengthAdjust="spacing" textLength="277" x="410" y="923.9756">+void validateGreenSpaceType(String type)</text><text fill="#000000" font-family="sans-serif" font-size="14" lengthAdjust="spacing" textLength="283" x="410" y="942.5967">+void validateGreenSpaceArea(double area)</text><text fill="#000000" font-family="sans-serif" font-size="14" lengthAdjust="spacing" textLength="168" x="410" y="961.2178">+boolean equals(Object o)</text><text fill="#000000" font-family="sans-serif" font-size="14" lengthAdjust="spacing" textLength="102" x="410" y="979.8389">+int hashCode()</text><text fill="#000000" font-family="sans-serif" font-size="14" lengthAdjust="spacing" textLength="136" x="410" y="998.46">+GreenSpace clone()</text><text fill="#000000" font-family="sans-serif" font-size="14" lengthAdjust="spacing" textLength="210" x="410" y="1017.0811">+boolean isOfName(String name)</text></g><!--class GreenSpaceRepository--><g id="elem_GreenSpaceRepository"><rect codeLine="36" fill="#F1F1F1" height="141.1055" id="GreenSpaceRepository" rx="2.5" ry="2.5" style="stroke:#181818;stroke-width:0.5;" width="616" x="1293" y="551.7627"/><ellipse cx="1522.75" cy="567.7627" fill="#ADD1B2" rx="11" ry="11" style="stroke:#181818;stroke-width:1.0;"/><path d="M1525.5156,563.6377 Q1525.6719,563.4189 1525.8594,563.3096 Q1526.0469,563.2002 1526.2656,563.2002 Q1526.6406,563.2002 1526.875,563.4658 Q1527.1094,563.7158 1527.1094,564.3252 L1527.1094,565.7783 Q1527.1094,566.3877 1526.875,566.6533 Q1526.6406,566.9189 1526.2656,566.9189 Q1525.9219,566.9189 1525.7188,566.7158 Q1525.5156,566.5283 1525.4063,566.0127 Q1525.3594,565.6533 1525.1719,565.4658 Q1524.8438,565.0908 1524.2344,564.8721 Q1523.625,564.6533 1523,564.6533 Q1522.2344,564.6533 1521.5938,564.9814 Q1520.9688,565.3096 1520.4688,566.0596 Q1519.9844,566.8096 1519.9844,567.8408 L1519.9844,568.9346 Q1519.9844,570.1689 1520.875,570.9971 Q1521.7656,571.8096 1523.3594,571.8096 Q1524.2969,571.8096 1524.9531,571.5596 Q1525.3438,571.4033 1525.7656,570.9658 Q1526.0313,570.7002 1526.1719,570.6221 Q1526.3281,570.5439 1526.5313,570.5439 Q1526.8594,570.5439 1527.1094,570.8096 Q1527.375,571.0596 1527.375,571.4033 Q1527.375,571.7471 1527.0313,572.1533 Q1526.5313,572.7314 1525.7344,573.0596 Q1524.6563,573.5127 1523.3594,573.5127 Q1521.8438,573.5127 1520.6406,572.8877 Q1519.6563,572.3877 1518.9688,571.3252 Q1518.2813,570.2471 1518.2813,568.9658 L1518.2813,567.8096 Q1518.2813,566.4814 1518.8906,565.3408 Q1519.5156,564.1846 1520.6094,563.5752 Q1521.7031,562.9502 1522.9375,562.9502 Q1523.6719,562.9502 1524.3125,563.1221 Q1524.9688,563.2783 1525.5156,563.6377 Z " fill="#000000"/><text fill="#000000" font-family="sans-serif" font-size="14" lengthAdjust="spacing" textLength="148" x="1543.25" y="573.5596">GreenSpaceRepository</text><line style="stroke:#181818;stroke-width:0.5;" x1="1294" x2="1908" y1="583.7627" y2="583.7627"/><text fill="#000000" font-family="sans-serif" font-size="14" lengthAdjust="spacing" textLength="211" x="1299" y="602.8701">-List&lt;GreenSpace&gt; greenSpaces</text><line style="stroke:#181818;stroke-width:0.5;" x1="1294" x2="1908" y1="610.3838" y2="610.3838"/><text fill="#000000" font-family="sans-serif" font-size="14" lengthAdjust="spacing" textLength="604" x="1299" y="629.4912">+Optional&lt;GreenSpace&gt; registerGreenSpace(String name, String type, double area, GSM gsm)</text><text fill="#000000" font-family="sans-serif" font-size="14" lengthAdjust="spacing" textLength="338" x="1299" y="648.1123">+boolean addGreenSpace(GreenSpace greenSpace)</text><text fill="#000000" font-family="sans-serif" font-size="14" lengthAdjust="spacing" textLength="363" x="1299" y="666.7334">+boolean validateGreenSpace(GreenSpace greenSpace)</text><text fill="#000000" font-family="sans-serif" font-size="14" lengthAdjust="spacing" textLength="262" x="1299" y="685.3545">+List&lt;GreenSpace&gt; getGreenSpaceList()</text></g><!--class Repositories--><g id="elem_Repositories"><rect codeLine="44" fill="#F1F1F1" height="85.2422" id="Repositories" rx="2.5" ry="2.5" style="stroke:#181818;stroke-width:0.5;" width="358" x="1665" y="387.7627"/><ellipse cx="1800.25" cy="403.7627" fill="#ADD1B2" rx="11" ry="11" style="stroke:#181818;stroke-width:1.0;"/><path d="M1803.0156,399.6377 Q1803.1719,399.4189 1803.3594,399.3096 Q1803.5469,399.2002 1803.7656,399.2002 Q1804.1406,399.2002 1804.375,399.4658 Q1804.6094,399.7158 1804.6094,400.3252 L1804.6094,401.7783 Q1804.6094,402.3877 1804.375,402.6533 Q1804.1406,402.9189 1803.7656,402.9189 Q1803.4219,402.9189 1803.2188,402.7158 Q1803.0156,402.5283 1802.9063,402.0127 Q1802.8594,401.6533 1802.6719,401.4658 Q1802.3438,401.0908 1801.7344,400.8721 Q1801.125,400.6533 1800.5,400.6533 Q1799.7344,400.6533 1799.0938,400.9814 Q1798.4688,401.3096 1797.9688,402.0596 Q1797.4844,402.8096 1797.4844,403.8408 L1797.4844,404.9346 Q1797.4844,406.1689 1798.375,406.9971 Q1799.2656,407.8096 1800.8594,407.8096 Q1801.7969,407.8096 1802.4531,407.5596 Q1802.8438,407.4033 1803.2656,406.9658 Q1803.5313,406.7002 1803.6719,406.6221 Q1803.8281,406.5439 1804.0313,406.5439 Q1804.3594,406.5439 1804.6094,406.8096 Q1804.875,407.0596 1804.875,407.4033 Q1804.875,407.7471 1804.5313,408.1533 Q1804.0313,408.7314 1803.2344,409.0596 Q1802.1563,409.5127 1800.8594,409.5127 Q1799.3438,409.5127 1798.1406,408.8877 Q1797.1563,408.3877 1796.4688,407.3252 Q1795.7813,406.2471 1795.7813,404.9658 L1795.7813,403.8096 Q1795.7813,402.4814 1796.3906,401.3408 Q1797.0156,400.1846 1798.1094,399.5752 Q1799.2031,398.9502 1800.4375,398.9502 Q1801.1719,398.9502 1801.8125,399.1221 Q1802.4688,399.2783 1803.0156,399.6377 Z " fill="#000000"/><text fill="#000000" font-family="sans-serif" font-size="14" lengthAdjust="spacing" textLength="79" x="1820.75" y="409.5596">Repositories</text><line style="stroke:#181818;stroke-width:0.5;" x1="1666" x2="2022" y1="419.7627" y2="419.7627"/><line style="stroke:#181818;stroke-width:0.5;" x1="1666" x2="2022" y1="427.7627" y2="427.7627"/><text fill="#000000" font-family="sans-serif" font-size="14" lengthAdjust="spacing" textLength="182" x="1671" y="446.8701">+getInstance() : Repositories</text><text fill="#000000" font-family="sans-serif" font-size="14" lengthAdjust="spacing" textLength="346" x="1671" y="465.4912">+getGreenSpaceRepository() : GreenSpaceRepository</text></g><!--class RegisterGSUI--><g id="elem_RegisterGSUI"><rect codeLine="49" fill="#F1F1F1" height="252.832" id="RegisterGSUI" rx="2.5" ry="2.5" style="stroke:#181818;stroke-width:0.5;" width="251" x="816.5" y="55.7627"/><ellipse cx="895.25" cy="71.7627" fill="#ADD1B2" rx="11" ry="11" style="stroke:#181818;stroke-width:1.0;"/><path d="M898.0156,67.6377 Q898.1719,67.4189 898.3594,67.3096 Q898.5469,67.2002 898.7656,67.2002 Q899.1406,67.2002 899.375,67.4658 Q899.6094,67.7158 899.6094,68.3252 L899.6094,69.7783 Q899.6094,70.3877 899.375,70.6533 Q899.1406,70.9189 898.7656,70.9189 Q898.4219,70.9189 898.2188,70.7158 Q898.0156,70.5283 897.9063,70.0127 Q897.8594,69.6533 897.6719,69.4658 Q897.3438,69.0908 896.7344,68.8721 Q896.125,68.6533 895.5,68.6533 Q894.7344,68.6533 894.0938,68.9814 Q893.4688,69.3096 892.9688,70.0596 Q892.4844,70.8096 892.4844,71.8408 L892.4844,72.9346 Q892.4844,74.1689 893.375,74.9971 Q894.2656,75.8096 895.8594,75.8096 Q896.7969,75.8096 897.4531,75.5596 Q897.8438,75.4033 898.2656,74.9658 Q898.5313,74.7002 898.6719,74.6221 Q898.8281,74.5439 899.0313,74.5439 Q899.3594,74.5439 899.6094,74.8096 Q899.875,75.0596 899.875,75.4033 Q899.875,75.7471 899.5313,76.1533 Q899.0313,76.7314 898.2344,77.0596 Q897.1563,77.5127 895.8594,77.5127 Q894.3438,77.5127 893.1406,76.8877 Q892.1563,76.3877 891.4688,75.3252 Q890.7813,74.2471 890.7813,72.9658 L890.7813,71.8096 Q890.7813,70.4814 891.3906,69.3408 Q892.0156,68.1846 893.1094,67.5752 Q894.2031,66.9502 895.4375,66.9502 Q896.1719,66.9502 896.8125,67.1221 Q897.4688,67.2783 898.0156,67.6377 Z " fill="#000000"/><text fill="#000000" font-family="sans-serif" font-size="14" lengthAdjust="spacing" textLength="85" x="915.75" y="77.5596">RegisterGSUI</text><line style="stroke:#181818;stroke-width:0.5;" x1="817.5" x2="1066.5" y1="87.7627" y2="87.7627"/><text fill="#000000" font-family="sans-serif" font-size="14" lengthAdjust="spacing" textLength="207" x="822.5" y="106.8701">-controller: RegisterGSController</text><text fill="#000000" font-family="sans-serif" font-size="14" lengthAdjust="spacing" textLength="163" x="822.5" y="125.4912">-greenSpaceName: String</text><text fill="#000000" font-family="sans-serif" font-size="14" lengthAdjust="spacing" textLength="159" x="822.5" y="144.1123">-greenSpaceType: String</text><text fill="#000000" font-family="sans-serif" font-size="14" lengthAdjust="spacing" textLength="163" x="822.5" y="162.7334">-greenSpaceArea: double</text><line style="stroke:#181818;stroke-width:0.5;" x1="817.5" x2="1066.5" y1="170.2471" y2="170.2471"/><text fill="#000000" font-family="sans-serif" font-size="14" lengthAdjust="spacing" textLength="239" x="822.5" y="189.3545">+RegisterGSController getController()</text><text fill="#000000" font-family="sans-serif" font-size="14" lengthAdjust="spacing" textLength="69" x="822.5" y="207.9756">+void run()</text><text fill="#000000" font-family="sans-serif" font-size="14" lengthAdjust="spacing" textLength="119" x="822.5" y="226.5967">+void submitData()</text><text fill="#000000" font-family="sans-serif" font-size="14" lengthAdjust="spacing" textLength="126" x="822.5" y="245.2178">+void requestData()</text><text fill="#000000" font-family="sans-serif" font-size="14" lengthAdjust="spacing" textLength="159" x="822.5" y="263.8389">+String requestGSType()</text><text fill="#000000" font-family="sans-serif" font-size="14" lengthAdjust="spacing" textLength="163" x="822.5" y="282.46">+String requestGSName()</text><text fill="#000000" font-family="sans-serif" font-size="14" lengthAdjust="spacing" textLength="163" x="822.5" y="301.0811">+double requestGSArea()</text></g><!--class RegisterGSController--><g id="elem_RegisterGSController"><rect codeLine="63" fill="#F1F1F1" height="178.3477" id="RegisterGSController" rx="2.5" ry="2.5" style="stroke:#181818;stroke-width:0.5;" width="789" x="1102.5" y="93.2627"/><ellipse cx="1425.25" cy="109.2627" fill="#ADD1B2" rx="11" ry="11" style="stroke:#181818;stroke-width:1.0;"/><path d="M1428.0156,105.1377 Q1428.1719,104.9189 1428.3594,104.8096 Q1428.5469,104.7002 1428.7656,104.7002 Q1429.1406,104.7002 1429.375,104.9658 Q1429.6094,105.2158 1429.6094,105.8252 L1429.6094,107.2783 Q1429.6094,107.8877 1429.375,108.1533 Q1429.1406,108.4189 1428.7656,108.4189 Q1428.4219,108.4189 1428.2188,108.2158 Q1428.0156,108.0283 1427.9063,107.5127 Q1427.8594,107.1533 1427.6719,106.9658 Q1427.3438,106.5908 1426.7344,106.3721 Q1426.125,106.1533 1425.5,106.1533 Q1424.7344,106.1533 1424.0938,106.4814 Q1423.4688,106.8096 1422.9688,107.5596 Q1422.4844,108.3096 1422.4844,109.3408 L1422.4844,110.4346 Q1422.4844,111.6689 1423.375,112.4971 Q1424.2656,113.3096 1425.8594,113.3096 Q1426.7969,113.3096 1427.4531,113.0596 Q1427.8438,112.9033 1428.2656,112.4658 Q1428.5313,112.2002 1428.6719,112.1221 Q1428.8281,112.0439 1429.0313,112.0439 Q1429.3594,112.0439 1429.6094,112.3096 Q1429.875,112.5596 1429.875,112.9033 Q1429.875,113.2471 1429.5313,113.6533 Q1429.0313,114.2314 1428.2344,114.5596 Q1427.1563,115.0127 1425.8594,115.0127 Q1424.3438,115.0127 1423.1406,114.3877 Q1422.1563,113.8877 1421.4688,112.8252 Q1420.7813,111.7471 1420.7813,110.4658 L1420.7813,109.3096 Q1420.7813,107.9814 1421.3906,106.8408 Q1422.0156,105.6846 1423.1094,105.0752 Q1424.2031,104.4502 1425.4375,104.4502 Q1426.1719,104.4502 1426.8125,104.6221 Q1427.4688,104.7783 1428.0156,105.1377 Z " fill="#000000"/><text fill="#000000" font-family="sans-serif" font-size="14" lengthAdjust="spacing" textLength="135" x="1445.75" y="115.0596">RegisterGSController</text><line style="stroke:#181818;stroke-width:0.5;" x1="1103.5" x2="1890.5" y1="125.2627" y2="125.2627"/><text fill="#000000" font-family="sans-serif" font-size="14" lengthAdjust="spacing" textLength="306" x="1108.5" y="144.3701">-greenSpaceRepository: GreenSpaceRepository</text><text fill="#000000" font-family="sans-serif" font-size="14" lengthAdjust="spacing" textLength="328" x="1108.5" y="162.9912">-authenticationRepository: AuthenticationRepository</text><line style="stroke:#181818;stroke-width:0.5;" x1="1103.5" x2="1890.5" y1="170.5049" y2="170.5049"/><text fill="#000000" font-family="sans-serif" font-size="14" lengthAdjust="spacing" textLength="777" x="1108.5" y="189.6123">+RegisterGSController(GreenSpaceRepository greenSpaceRepository, AuthenticationRepository authenticationRepository)</text><text fill="#000000" font-family="sans-serif" font-size="14" lengthAdjust="spacing" textLength="338" x="1108.5" y="208.2334">+GreenSpaceRepository getGreenSpaceRepository()</text><text fill="#000000" font-family="sans-serif" font-size="14" lengthAdjust="spacing" textLength="358" x="1108.5" y="226.8545">+AuthenticationRepository getAuthenticationRepository()</text><text fill="#000000" font-family="sans-serif" font-size="14" lengthAdjust="spacing" textLength="604" x="1108.5" y="245.4756">+Optional&lt;GreenSpace&gt; registerGreenSpace(String name, String type, double area, GSM gsm)</text><text fill="#000000" font-family="sans-serif" font-size="14" lengthAdjust="spacing" textLength="187" x="1108.5" y="264.0967">+GSM getGSMFromSession()</text></g><!--class GSM--><g id="elem_GSM"><rect codeLine="73" fill="#F1F1F1" height="122.4844" id="GSM" rx="2.5" ry="2.5" style="stroke:#181818;stroke-width:0.5;" width="124" x="7" y="121.2627"/><ellipse cx="49.45" cy="137.2627" fill="#ADD1B2" rx="11" ry="11" style="stroke:#181818;stroke-width:1.0;"/><path d="M52.2156,133.1377 Q52.3719,132.9189 52.5594,132.8096 Q52.7469,132.7002 52.9656,132.7002 Q53.3406,132.7002 53.575,132.9658 Q53.8094,133.2158 53.8094,133.8252 L53.8094,135.2783 Q53.8094,135.8877 53.575,136.1533 Q53.3406,136.4189 52.9656,136.4189 Q52.6219,136.4189 52.4188,136.2158 Q52.2156,136.0283 52.1063,135.5127 Q52.0594,135.1533 51.8719,134.9658 Q51.5438,134.5908 50.9344,134.3721 Q50.325,134.1533 49.7,134.1533 Q48.9344,134.1533 48.2938,134.4814 Q47.6688,134.8096 47.1688,135.5596 Q46.6844,136.3096 46.6844,137.3408 L46.6844,138.4346 Q46.6844,139.6689 47.575,140.4971 Q48.4656,141.3096 50.0594,141.3096 Q50.9969,141.3096 51.6531,141.0596 Q52.0438,140.9033 52.4656,140.4658 Q52.7313,140.2002 52.8719,140.1221 Q53.0281,140.0439 53.2313,140.0439 Q53.5594,140.0439 53.8094,140.3096 Q54.075,140.5596 54.075,140.9033 Q54.075,141.2471 53.7313,141.6533 Q53.2313,142.2314 52.4344,142.5596 Q51.3563,143.0127 50.0594,143.0127 Q48.5438,143.0127 47.3406,142.3877 Q46.3563,141.8877 45.6688,140.8252 Q44.9813,139.7471 44.9813,138.4658 L44.9813,137.3096 Q44.9813,135.9814 45.5906,134.8408 Q46.2156,133.6846 47.3094,133.0752 Q48.4031,132.4502 49.6375,132.4502 Q50.3719,132.4502 51.0125,132.6221 Q51.6688,132.7783 52.2156,133.1377 Z " fill="#000000"/><text fill="#000000" font-family="sans-serif" font-size="14" lengthAdjust="spacing" textLength="31" x="69.55" y="143.0596">GSM</text><line style="stroke:#181818;stroke-width:0.5;" x1="8" x2="130" y1="153.2627" y2="153.2627"/><text fill="#000000" font-family="sans-serif" font-size="14" lengthAdjust="spacing" textLength="81" x="13" y="172.3701">-String name</text><text fill="#000000" font-family="sans-serif" font-size="14" lengthAdjust="spacing" textLength="92" x="13" y="190.9912">-int vatNumber</text><text fill="#000000" font-family="sans-serif" font-size="14" lengthAdjust="spacing" textLength="79" x="13" y="209.6123">-String email</text><text fill="#000000" font-family="sans-serif" font-size="14" lengthAdjust="spacing" textLength="112" x="13" y="228.2334">-int phonenumber</text><line style="stroke:#181818;stroke-width:0.5;" x1="8" x2="130" y1="235.7471" y2="235.7471"/></g><g id="elem_GMN10"><path d="M1926.5,159.7627 L1926.5,178.2627 L1891.59,182.2627 L1926.5,186.2627 L1926.5,204.3447 A0,0 0 0 0 1926.5,204.3447 L2207.5,204.3447 A0,0 0 0 0 2207.5,204.3447 L2207.5,169.7627 L2197.5,159.7627 L1926.5,159.7627 A0,0 0 0 0 1926.5,159.7627 " fill="#FEFFDD" style="stroke:#181818;stroke-width:0.5;"/><path d="M2197.5,159.7627 L2197.5,169.7627 L2207.5,169.7627 L2197.5,159.7627 " fill="#FEFFDD" style="stroke:#181818;stroke-width:0.5;"/><text fill="#000000" font-family="sans-serif" font-size="13" lengthAdjust="spacing" textLength="260" x="1932.5" y="178.791">- Green Space data is read from GSM's input</text><text fill="#000000" font-family="sans-serif" font-size="13" lengthAdjust="spacing" textLength="224" x="1932.5" y="196.082">- Updates the Green Space Repository</text></g><g id="elem_GMN13"><path d="M166.5,159.7627 L166.5,204.3447 L439.5,204.3447 L439.5,169.7627 L429.5,159.7627 L166.5,159.7627 " fill="#FEFFDD" style="stroke:#181818;stroke-width:0.5;"/><path d="M429.5,159.7627 L429.5,169.7627 L439.5,169.7627 L429.5,159.7627 " fill="#FEFFDD" style="stroke:#181818;stroke-width:1.0;"/><text fill="#000000" font-family="sans-serif" font-size="13" lengthAdjust="spacing" textLength="252" x="172.5" y="178.791">- Responsible for registering Green Spaces.</text><text fill="#000000" font-family="sans-serif" font-size="13" lengthAdjust="spacing" textLength="227" x="172.5" y="196.082">- Communicates with the RegisterGSUI</text></g><g id="elem_GMN16"><path d="M474.5,151.2627 L474.5,213.1357 A0,0 0 0 0 474.5,213.1357 L781.5,213.1357 A0,0 0 0 0 781.5,213.1357 L781.5,186.2627 L816.39,182.2627 L781.5,178.2627 L781.5,161.2627 L771.5,151.2627 L474.5,151.2627 A0,0 0 0 0 474.5,151.2627 " fill="#FEFFDD" style="stroke:#181818;stroke-width:0.5;"/><path d="M771.5,151.2627 L771.5,161.2627 L781.5,161.2627 L771.5,151.2627 " fill="#FEFFDD" style="stroke:#181818;stroke-width:0.5;"/><text fill="#000000" font-family="sans-serif" font-size="13" lengthAdjust="spacing" textLength="223" x="480.5" y="170.291">- UI for GSM to input green space data</text><text fill="#000000" font-family="sans-serif" font-size="13" lengthAdjust="spacing" textLength="248" x="480.5" y="187.582">- Communicates with RegisterGSController</text><text fill="#000000" font-family="sans-serif" font-size="13" lengthAdjust="spacing" textLength="286" x="480.5" y="204.873">- Receives repositories from RegisterGSController</text></g><!--link GSM to GMN13--><g id="link_GSM_GMN13"><path d="M131.22,182.2627 C140.48,182.2627 147,182.2627 147,182.2627 C147,182.2627 155.2,182.2627 166.28,182.2627 " fill="none" id="GSM-GMN13" style="stroke:#181818;stroke-width:1.0;stroke-dasharray:7.0,7.0;"/></g><!--link GSM to GreenSpace--><g id="link_GSM_GreenSpace"><path codeLine="96" d="M107.36,243.4427 C127.89,275.6527 149,308.7627 149,308.7627 C149,308.7627 356.4809,594.0504 482.1809,766.8804 " fill="none" id="GSM-to-GreenSpace" style="stroke:#181818;stroke-width:1.0;"/><polygon fill="#181818" points="485.71,771.7327,483.6512,762.1014,482.7691,767.6891,477.1814,766.8069,485.71,771.7327" style="stroke:#181818;stroke-width:1.0;"/><text fill="#000000" font-family="sans-serif" font-size="13" lengthAdjust="spacing" textLength="132" x="301" y="517.791">registers and manages</text></g><!--link GSM to RegisterGSUI--><g id="link_GSM_RegisterGSUI"><path codeLine="97" d="M107.59,121.2327 C128.05,88.8827 149,55.7627 149,55.7627 C149,55.7627 459,33.7627 459,33.7627 C459,33.7627 489,33.7627 489,33.7627 C489,33.7627 799,55.7627 799,55.7627 C799,55.7627 801.225,57.7384 811.755,67.0484 " fill="none" id="GSM-to-RegisterGSUI" style="stroke:#181818;stroke-width:1.0;"/><polygon fill="#181818" points="816.25,71.0227,812.1569,62.0646,812.5041,67.7108,806.8579,68.058,816.25,71.0227" style="stroke:#181818;stroke-width:1.0;"/><text fill="#000000" font-family="sans-serif" font-size="13" lengthAdjust="spacing" textLength="28" x="460" y="21.791">uses</text></g><!--link Repositories to Repositories--><g id="link_Repositories_Repositories"><path codeLine="99" d="M2023.13,417.0927 C2044.24,419.5027 2058,423.8927 2058,430.2627 C2058,436.6327 2050.2013,440.3421 2029.0913,442.7521 " fill="none" id="Repositories-to-Repositories" style="stroke:#181818;stroke-width:1.0;"/><polygon fill="#181818" points="2023.13,443.4327,2032.5256,446.386,2028.0977,442.8656,2031.6182,438.4377,2023.13,443.4327" style="stroke:#181818;stroke-width:1.0;"/><text fill="#000000" font-family="sans-serif" font-size="13" lengthAdjust="spacing" textLength="49" x="2064" y="435.791">instance</text></g><!--link ApplicationSession to ApplicationSession--><g id="link_ApplicationSession_ApplicationSession"><path codeLine="100" d="M1276.66,415.0327 C1296.5,415.9327 1311.5,421.0127 1311.5,430.2627 C1311.5,439.5127 1302.4938,444.3208 1282.6538,445.2208 " fill="none" id="ApplicationSession-to-ApplicationSession" style="stroke:#181818;stroke-width:1.0;"/><polygon fill="#181818" points="1276.66,445.4927,1285.832,449.0807,1281.6549,445.2661,1285.4695,441.089,1276.66,445.4927" style="stroke:#181818;stroke-width:1.0;"/><text fill="#000000" font-family="sans-serif" font-size="13" lengthAdjust="spacing" textLength="49" x="1317.5" y="435.791">instance</text></g><!--link RegisterGSUI to RegisterGSController--><g id="link_RegisterGSUI_RegisterGSController"><path codeLine="102" d="M1067.7,182.2627 C1080.67,182.2627 1086.64,182.2627 1096.37,182.2627 " fill="none" id="RegisterGSUI-to-RegisterGSController" style="stroke:#181818;stroke-width:1.0;stroke-dasharray:7.0,7.0;"/><polygon fill="#181818" points="1102.37,182.2627,1093.37,178.2627,1097.37,182.2627,1093.37,186.2627,1102.37,182.2627" style="stroke:#181818;stroke-width:1.0;"/></g><!--link RegisterGSController to Repositories--><g id="link_RegisterGSController_Repositories"><path codeLine="104" d="M1621.29,271.3827 C1677.11,310.9427 1735.4354,352.2923 1780.2154,384.0423 " fill="none" id="RegisterGSController-to-Repositories" style="stroke:#181818;stroke-width:1.0;"/><polygon fill="#181818" points="1785.11,387.5127,1780.0817,379.0441,1781.0312,384.6207,1775.4546,385.5702,1785.11,387.5127" style="stroke:#181818;stroke-width:1.0;"/><text fill="#000000" font-family="sans-serif" font-size="13" lengthAdjust="spacing" textLength="108" x="1742" y="353.791">retrieves instances</text></g><!--link Repositories to GreenSpaceRepository--><g id="link_Repositories_GreenSpaceRepository"><path codeLine="106" d="M1790.67,472.9627 C1761.19,496.0127 1728.5262,521.5463 1694.7462,547.9663 " fill="none" id="Repositories-to-GreenSpaceRepository" style="stroke:#181818;stroke-width:1.0;"/><polygon fill="#181818" points="1690.02,551.6627,1699.5735,549.2688,1693.9585,548.5823,1694.645,542.9673,1690.02,551.6627" style="stroke:#181818;stroke-width:1.0;"/><text fill="#000000" font-family="sans-serif" font-size="13" lengthAdjust="spacing" textLength="56" x="1752" y="517.791">accesses</text></g><!--link RegisterGSController to GreenSpaceRepository--><g id="link_RegisterGSController_GreenSpaceRepository"><path codeLine="108" d="M1502.47,271.3027 C1507.77,356.4727 1515,472.7627 1515,472.7627 C1515,472.7627 1535.2029,507.6507 1557.5129,546.1707 " fill="none" id="RegisterGSController-to-GreenSpaceRepository" style="stroke:#181818;stroke-width:1.0;stroke-dasharray:7.0,7.0;"/><polygon fill="#181818" points="1560.52,551.3627,1559.4707,541.5699,1558.0141,547.036,1552.548,545.5794,1560.52,551.3627" style="stroke:#181818;stroke-width:1.0;"/><text fill="#000000" font-family="sans-serif" font-size="13" lengthAdjust="spacing" textLength="131" x="1516" y="435.791">greenSpaceRepository</text></g><!--link ApplicationSession to UserSession--><g id="link_ApplicationSession_UserSession"><path codeLine="110" d="M1201,472.9627 C1201,507.6927 1201,550.4927 1201,582.4827 " fill="none" id="ApplicationSession-to-UserSession" style="stroke:#181818;stroke-width:1.0;"/><polygon fill="#181818" points="1201,588.4827,1205,579.4827,1201,583.4827,1197,579.4827,1201,588.4827" style="stroke:#181818;stroke-width:1.0;"/><text fill="#000000" font-family="sans-serif" font-size="13" lengthAdjust="spacing" textLength="72" x="1202" y="517.791">userSession</text><text fill="#000000" font-family="sans-serif" font-size="13" lengthAdjust="spacing" textLength="7" x="1193.3328" y="577.5152">1</text></g><!--link RegisterGSController to ApplicationSession--><g id="link_RegisterGSController_ApplicationSession"><path codeLine="112" d="M1390.97,271.3827 C1343.36,310.9427 1294.0548,351.9281 1255.8448,383.6781 " fill="none" id="RegisterGSController-to-ApplicationSession" style="stroke:#181818;stroke-width:1.0;stroke-dasharray:7.0,7.0;"/><polygon fill="#181818" points="1251.23,387.5127,1260.7085,384.8374,1255.0756,384.3172,1255.5958,378.6843,1251.23,387.5127" style="stroke:#181818;stroke-width:1.0;"/></g><!--link RegisterGSController to UserSession--><g id="link_RegisterGSController_UserSession"><path codeLine="113" d="M1459.29,271.3027 C1422.81,356.4727 1373,472.7627 1373,472.7627 C1373,472.7627 1275,551.7627 1275,551.7627 C1275,551.7627 1259.4038,566.4154 1240.2038,584.4454 " fill="none" id="RegisterGSController-to-UserSession" style="stroke:#181818;stroke-width:1.0;stroke-dasharray:7.0,7.0;"/><polygon fill="#181818" points="1235.83,588.5527,1245.1289,585.3076,1239.4748,585.13,1239.6525,579.4759,1235.83,588.5527" style="stroke:#181818;stroke-width:1.0;"/></g><!--link GreenSpaceRepository to GreenSpace--><g id="link_GreenSpaceRepository_GreenSpace"><path codeLine="115" d="M1340.95,692.8427 C1155.78,742.3927 917.8561,806.0619 756.0261,849.3619 " fill="none" id="GreenSpaceRepository-to-GreenSpace" style="stroke:#181818;stroke-width:1.0;"/><polygon fill="#181818" points="750.23,850.9127,759.9581,852.4505,755.0601,849.6203,757.8903,844.7224,750.23,850.9127" style="stroke:#181818;stroke-width:1.0;"/><text fill="#000000" font-family="sans-serif" font-size="13" lengthAdjust="spacing" textLength="36" x="1212" y="737.791">stores</text></g><!--SRC=[jLRDRjim3BxhAOXUag99i5s3eK2GRKM0jGNgzG4Kct6qsf8doIcoOky-IdPiEP5NxB2S8lBZtoUIriIy25bnpKiebLJfNgiImUeQMQ-fUFh2SqpiiK3Gc5ekyo84c3tFrAkGEUnuOK9D8IJQOuLGgUBe3cmIKIfj5Gkiqe8Rix9MYsrjSPCgcOXV21yOcnIuis0LQ97lBMJ2fIEKPCpRmAgg2f5o9qhG6ATvOq2_6p2Mn2daQ3UI_iiKfzUjYcJhMckKjZKYpU-JosU3-jmN6JZnbvAB8iJUQKIP45y83NGEafUuX8HgaNahSZMVYRX6leHCrLiYjedH-vesKEzgrjfv9xFMmfkVYZaeaS615oBZ5did3sGSEde7_ftSJuDGxy1NbC0qainMgGAv1FnPKsTC7xS_wBv0dTH2MjXpir-hhB-DWCIqKB9Nd9m9yxYxB2To2KzOAIEiqaT_7NFu9epzrEjl8U_-6-P2F5QkTNWn06dCoGxrlzx83EwIUyXDUSt2z7cM1Pw2QljaXWQNTF_Dwh96jFtHQSEExIWIQ3n9DyC9WUK0SWB4EFRWc2ACrZAPF6_QAw7XjbeL1Ufbe5vtKW_A1sqSp4we-ZuSgr2r6exNJJIINmFTQTgmwVjTrp8ycdfR2lkPMpu0KO-Z2SLjNxIAkyJFL5pbsxbHjGtKgVneNSSu359_Eoku9t_aIlpIgUsUTbwxBqEJrOXcbBjfTEXY-Sn6dO_cq_0IZp3MYjvaD1APZUbQq_-v2Fo14a_klzBdDlB9SG3__PX3uByHk9LvuFQXBhT-E7eCkgzH3whsj3jb0oFFKbbilvfgDpvflZHeDWlj74xBbihc6UmeLPVOn93tghOU_LovlMI0g1nO1Xs3CWCN-pm3SiN8mnEQIaaZ75KxfJkANK61HxDmuBKgorgwAwEOhyBkVU1mgPo7yy-5GRs4yPblV3Z7DBqcV4LDkuBfQlV0ovYZt3rXYkA0Zh1WgNhYeZPzhYwD-VmswF5bnuG1JhYIItg2cGPvEwXd2RKX3HkiSey9pakgiTdfxFADvD0HQM331fjxSHilY4LtqvpUXl8o7utKjkZeEaMvgA4rZ4x-4dXA9ctbaR2BnQXbR2-nA2yK_UhZLVW614ztzo8SZnrvYevYmpScYoPztXs6fAxqFm00]--></g></svg>