<?xml version="1.0" encoding="us-ascii" standalone="no"?><svg xmlns="http://www.w3.org/2000/svg" xmlns:xlink="http://www.w3.org/1999/xlink" contentStyleType="text/css" height="1321px" preserveAspectRatio="none" style="width:3949px;height:1321px;background:#FFFFFF;" version="1.1" viewBox="0 0 3949 1321" width="3949px" zoomAndPan="magnify"><defs/><g><rect fill="#FFFFFF" height="1126.5938" style="stroke:#181818;stroke-width:1.0;" width="10" x="123.5" y="93.6211"/><rect fill="#FFFFFF" height="92.2031" style="stroke:#181818;stroke-width:1.0;" width="10" x="789.5" y="116.9121"/><rect fill="#FFFFFF" height="31.291" style="stroke:#181818;stroke-width:1.0;" width="10" x="789.5" y="240.4063"/><rect fill="#FFFFFF" height="917.2266" style="stroke:#181818;stroke-width:1.0;" width="10" x="789.5" y="302.9883"/><rect fill="#FFFFFF" height="854.6445" style="stroke:#181818;stroke-width:1.0;" width="10" x="2252.5" y="334.2793"/><rect fill="#FFFFFF" height="513.6563" style="stroke:#181818;stroke-width:1.0;" width="10" x="2257.5" y="398.5703"/><rect fill="#FFFFFF" height="31.291" style="stroke:#181818;stroke-width:1.0;" width="10" x="2525.5" y="622.6074"/><rect fill="#FFFFFF" height="31.291" style="stroke:#181818;stroke-width:1.0;" width="10" x="2794.5" y="434.8613"/><rect fill="#FFFFFF" height="31.291" style="stroke:#181818;stroke-width:1.0;" width="10" x="2941.5" y="497.4434"/><rect fill="#FFFFFF" height="31.291" style="stroke:#181818;stroke-width:1.0;" width="10" x="3074.5" y="560.0254"/><rect fill="#FFFFFF" height="127.1641" style="stroke:#181818;stroke-width:1.0;" width="10" x="3220.5" y="685.1895"/><rect fill="#FFFFFF" height="31.291" style="stroke:#181818;stroke-width:1.0;" width="10" x="3722.5" y="742.7715"/><rect fill="#FFFFFF" height="31.291" style="stroke:#181818;stroke-width:1.0;" width="10" x="3722.5" y="843.6445"/><rect fill="#FFFFFF" height="182.1152" style="stroke:#181818;stroke-width:1.0;" width="10" x="3722.5" y="975.5176"/><rect fill="#FFFFFF" height="42.291" style="stroke:#181818;stroke-width:1.0;" width="10" x="3727.5" y="1077.0508"/><rect fill="none" height="81.873" style="stroke:#000000;stroke-width:1.5;" width="652.5" x="3134" y="700.1895"/><line style="stroke:#181818;stroke-width:0.5;stroke-dasharray:5.0,5.0;" x1="128" x2="128" y1="83.6211" y2="1238.2148"/><line style="stroke:#181818;stroke-width:0.5;stroke-dasharray:5.0,5.0;" x1="794" x2="794" y1="83.6211" y2="1238.2148"/><line style="stroke:#181818;stroke-width:0.5;stroke-dasharray:5.0,5.0;" x1="2257" x2="2257" y1="156.7227" y2="1238.2148"/><line style="stroke:#181818;stroke-width:0.5;stroke-dasharray:5.0,5.0;" x1="2423" x2="2423" y1="83.6211" y2="1238.2148"/><line style="stroke:#181818;stroke-width:0.5;stroke-dasharray:5.0,5.0;" x1="2530" x2="2530" y1="83.6211" y2="1238.2148"/><line style="stroke:#181818;stroke-width:0.5;stroke-dasharray:5.0,5.0;" x1="2655" x2="2655" y1="83.6211" y2="1238.2148"/><line style="stroke:#181818;stroke-width:0.5;stroke-dasharray:5.0,5.0;" x1="2799" x2="2799" y1="83.6211" y2="1238.2148"/><line style="stroke:#181818;stroke-width:0.5;stroke-dasharray:5.0,5.0;" x1="2946" x2="2946" y1="83.6211" y2="1238.2148"/><line style="stroke:#181818;stroke-width:0.5;stroke-dasharray:5.0,5.0;" x1="3079" x2="3079" y1="83.6211" y2="1238.2148"/><line style="stroke:#181818;stroke-width:0.5;stroke-dasharray:5.0,5.0;" x1="3225" x2="3225" y1="83.6211" y2="1238.2148"/><line style="stroke:#181818;stroke-width:0.5;stroke-dasharray:5.0,5.0;" x1="3727.5" x2="3727.5" y1="83.6211" y2="1238.2148"/><line style="stroke:#181818;stroke-width:0.5;stroke-dasharray:5.0,5.0;" x1="3911.5" x2="3911.5" y1="1024.6387" y2="1238.2148"/><text fill="#000000" font-family="sans-serif" font-size="14" lengthAdjust="spacing" textLength="241" x="5" y="80.1074">Vehicle and Equipment Fleet Maneger</text><ellipse cx="128.5" cy="13.5" fill="#E3E3E3" rx="8" ry="8" style="stroke:#181818;stroke-width:0.5;"/><path d="M128.5,21.5 L128.5,48.5 M115.5,29.5 L141.5,29.5 M128.5,48.5 L115.5,63.5 M128.5,48.5 L141.5,63.5 " fill="none" style="stroke:#181818;stroke-width:0.5;"/><text fill="#000000" font-family="sans-serif" font-size="14" lengthAdjust="spacing" textLength="241" x="5" y="1252.3223">Vehicle and Equipment Fleet Maneger</text><ellipse cx="128.5" cy="1264.3359" fill="#E3E3E3" rx="8" ry="8" style="stroke:#181818;stroke-width:0.5;"/><path d="M128.5,1272.3359 L128.5,1299.3359 M115.5,1280.3359 L141.5,1280.3359 M128.5,1299.3359 L115.5,1314.3359 M128.5,1299.3359 L141.5,1314.3359 " fill="none" style="stroke:#181818;stroke-width:0.5;"/><rect fill="#E3E3E3" height="32.6211" rx="2.5" ry="2.5" style="stroke:#181818;stroke-width:0.5;" width="101" x="744" y="50"/><text fill="#000000" font-family="sans-serif" font-size="14" lengthAdjust="spacing" textLength="87" x="751" y="72.1074">:AddVehicleUI</text><rect fill="#E3E3E3" height="32.6211" rx="2.5" ry="2.5" style="stroke:#181818;stroke-width:0.5;" width="101" x="744" y="1237.2148"/><text fill="#000000" font-family="sans-serif" font-size="14" lengthAdjust="spacing" textLength="87" x="751" y="1259.3223">:AddVehicleUI</text><rect fill="#E3E3E3" height="32.6211" rx="2.5" ry="2.5" style="stroke:#181818;stroke-width:0.5;" width="151" x="2182" y="1237.2148"/><text fill="#000000" font-family="sans-serif" font-size="14" lengthAdjust="spacing" textLength="137" x="2189" y="1259.3223">:AddVehicleController</text><rect fill="#E3E3E3" height="32.6211" rx="2.5" ry="2.5" style="stroke:#181818;stroke-width:0.5;" width="97" x="2375" y="50"/><text fill="#000000" font-family="sans-serif" font-size="14" lengthAdjust="spacing" textLength="83" x="2382" y="72.1074">:Repositories</text><rect fill="#E3E3E3" height="32.6211" rx="2.5" ry="2.5" style="stroke:#181818;stroke-width:0.5;" width="97" x="2375" y="1237.2148"/><text fill="#000000" font-family="sans-serif" font-size="14" lengthAdjust="spacing" textLength="83" x="2382" y="1259.3223">:Repositories</text><rect fill="#E3E3E3" height="51.2422" rx="2.5" ry="2.5" style="stroke:#181818;stroke-width:0.5;" width="97" x="2482" y="31.3789"/><text fill="#000000" font-family="sans-serif" font-size="14" lengthAdjust="spacing" textLength="74" x="2493.5" y="53.4863">repositories</text><text fill="#000000" font-family="sans-serif" font-size="14" lengthAdjust="spacing" textLength="83" x="2489" y="72.1074">:Repositories</text><rect fill="#E3E3E3" height="51.2422" rx="2.5" ry="2.5" style="stroke:#181818;stroke-width:0.5;" width="97" x="2482" y="1237.2148"/><text fill="#000000" font-family="sans-serif" font-size="14" lengthAdjust="spacing" textLength="74" x="2493.5" y="1259.3223">repositories</text><text fill="#000000" font-family="sans-serif" font-size="14" lengthAdjust="spacing" textLength="83" x="2489" y="1277.9434">:Repositories</text><rect fill="#E3E3E3" height="51.2422" rx="2.5" ry="2.5" style="stroke:#181818;stroke-width:0.5;" width="132" x="2589" y="31.3789"/><text fill="#000000" font-family="sans-serif" font-size="14" lengthAdjust="spacing" textLength="112" x="2599" y="53.4863">vehicleRepository</text><text fill="#000000" font-family="sans-serif" font-size="14" lengthAdjust="spacing" textLength="118" x="2596" y="72.1074">:VehicleRepository</text><rect fill="#E3E3E3" height="51.2422" rx="2.5" ry="2.5" style="stroke:#181818;stroke-width:0.5;" width="132" x="2589" y="1237.2148"/><text fill="#000000" font-family="sans-serif" font-size="14" lengthAdjust="spacing" textLength="112" x="2599" y="1259.3223">vehicleRepository</text><text fill="#000000" font-family="sans-serif" font-size="14" lengthAdjust="spacing" textLength="118" x="2596" y="1277.9434">:VehicleRepository</text><rect fill="#E3E3E3" height="32.6211" rx="2.5" ry="2.5" style="stroke:#181818;stroke-width:0.5;" width="137" x="2731" y="50"/><text fill="#000000" font-family="sans-serif" font-size="14" lengthAdjust="spacing" textLength="123" x="2738" y="72.1074">:ApplicationSession</text><rect fill="#E3E3E3" height="32.6211" rx="2.5" ry="2.5" style="stroke:#181818;stroke-width:0.5;" width="137" x="2731" y="1237.2148"/><text fill="#000000" font-family="sans-serif" font-size="14" lengthAdjust="spacing" textLength="123" x="2738" y="1259.3223">:ApplicationSession</text><rect fill="#E3E3E3" height="51.2422" rx="2.5" ry="2.5" style="stroke:#181818;stroke-width:0.5;" width="137" x="2878" y="31.3789"/><text fill="#000000" font-family="sans-serif" font-size="14" lengthAdjust="spacing" textLength="74" x="2909.5" y="53.4863">appSession</text><text fill="#000000" font-family="sans-serif" font-size="14" lengthAdjust="spacing" textLength="123" x="2885" y="72.1074">:ApplicationSession</text><rect fill="#E3E3E3" height="51.2422" rx="2.5" ry="2.5" style="stroke:#181818;stroke-width:0.5;" width="137" x="2878" y="1237.2148"/><text fill="#000000" font-family="sans-serif" font-size="14" lengthAdjust="spacing" textLength="74" x="2909.5" y="1259.3223">appSession</text><text fill="#000000" font-family="sans-serif" font-size="14" lengthAdjust="spacing" textLength="123" x="2885" y="1277.9434">:ApplicationSession</text><rect fill="#E3E3E3" height="51.2422" rx="2.5" ry="2.5" style="stroke:#181818;stroke-width:0.5;" width="109" x="3025" y="31.3789"/><text fill="#000000" font-family="sans-serif" font-size="14" lengthAdjust="spacing" textLength="95" x="3032" y="53.4863">currentSession</text><text fill="#000000" font-family="sans-serif" font-size="14" lengthAdjust="spacing" textLength="83" x="3038" y="72.1074">:UserSession</text><rect fill="#E3E3E3" height="51.2422" rx="2.5" ry="2.5" style="stroke:#181818;stroke-width:0.5;" width="109" x="3025" y="1237.2148"/><text fill="#000000" font-family="sans-serif" font-size="14" lengthAdjust="spacing" textLength="95" x="3032" y="1259.3223">currentSession</text><text fill="#000000" font-family="sans-serif" font-size="14" lengthAdjust="spacing" textLength="83" x="3038" y="1277.9434">:UserSession</text><rect fill="#E3E3E3" height="51.2422" rx="2.5" ry="2.5" style="stroke:#181818;stroke-width:0.5;" width="163" x="3144" y="31.3789"/><text fill="#000000" font-family="sans-serif" font-size="14" lengthAdjust="spacing" textLength="149" x="3151" y="53.4863">organizationRepository:</text><text fill="#000000" font-family="sans-serif" font-size="14" lengthAdjust="spacing" textLength="148" x="3151.5" y="72.1074">OrganizationRepository</text><rect fill="#E3E3E3" height="51.2422" rx="2.5" ry="2.5" style="stroke:#181818;stroke-width:0.5;" width="163" x="3144" y="1237.2148"/><text fill="#000000" font-family="sans-serif" font-size="14" lengthAdjust="spacing" textLength="149" x="3151" y="1259.3223">organizationRepository:</text><text fill="#000000" font-family="sans-serif" font-size="14" lengthAdjust="spacing" textLength="148" x="3151.5" y="1277.9434">OrganizationRepository</text><rect fill="#E3E3E3" height="51.2422" rx="2.5" ry="2.5" style="stroke:#181818;stroke-width:0.5;" width="98" x="3678.5" y="31.3789"/><text fill="#000000" font-family="sans-serif" font-size="14" lengthAdjust="spacing" textLength="77" x="3689" y="53.4863">organization</text><text fill="#000000" font-family="sans-serif" font-size="14" lengthAdjust="spacing" textLength="84" x="3685.5" y="72.1074">:Organization</text><rect fill="#E3E3E3" height="51.2422" rx="2.5" ry="2.5" style="stroke:#181818;stroke-width:0.5;" width="98" x="3678.5" y="1237.2148"/><text fill="#000000" font-family="sans-serif" font-size="14" lengthAdjust="spacing" textLength="77" x="3689" y="1259.3223">organization</text><text fill="#000000" font-family="sans-serif" font-size="14" lengthAdjust="spacing" textLength="84" x="3685.5" y="1277.9434">:Organization</text><rect fill="#E3E3E3" height="51.2422" rx="2.5" ry="2.5" style="stroke:#181818;stroke-width:0.5;" width="64" x="3879.5" y="1237.2148"/><text fill="#000000" font-family="sans-serif" font-size="14" lengthAdjust="spacing" textLength="44" x="3889.5" y="1259.3223">vehicle</text><text fill="#000000" font-family="sans-serif" font-size="14" lengthAdjust="spacing" textLength="50" x="3886.5" y="1277.9434">:Vehicle</text><rect fill="#FFFFFF" height="1126.5938" style="stroke:#181818;stroke-width:1.0;" width="10" x="123.5" y="93.6211"/><rect fill="#FFFFFF" height="92.2031" style="stroke:#181818;stroke-width:1.0;" width="10" x="789.5" y="116.9121"/><rect fill="#FFFFFF" height="31.291" style="stroke:#181818;stroke-width:1.0;" width="10" x="789.5" y="240.4063"/><rect fill="#FFFFFF" height="917.2266" style="stroke:#181818;stroke-width:1.0;" width="10" x="789.5" y="302.9883"/><rect fill="#FFFFFF" height="854.6445" style="stroke:#181818;stroke-width:1.0;" width="10" x="2252.5" y="334.2793"/><rect fill="#FFFFFF" height="513.6563" style="stroke:#181818;stroke-width:1.0;" width="10" x="2257.5" y="398.5703"/><rect fill="#FFFFFF" height="31.291" style="stroke:#181818;stroke-width:1.0;" width="10" x="2525.5" y="622.6074"/><rect fill="#FFFFFF" height="31.291" style="stroke:#181818;stroke-width:1.0;" width="10" x="2794.5" y="434.8613"/><rect fill="#FFFFFF" height="31.291" style="stroke:#181818;stroke-width:1.0;" width="10" x="2941.5" y="497.4434"/><rect fill="#FFFFFF" height="31.291" style="stroke:#181818;stroke-width:1.0;" width="10" x="3074.5" y="560.0254"/><rect fill="#FFFFFF" height="127.1641" style="stroke:#181818;stroke-width:1.0;" width="10" x="3220.5" y="685.1895"/><rect fill="#FFFFFF" height="31.291" style="stroke:#181818;stroke-width:1.0;" width="10" x="3722.5" y="742.7715"/><rect fill="#FFFFFF" height="31.291" style="stroke:#181818;stroke-width:1.0;" width="10" x="3722.5" y="843.6445"/><rect fill="#FFFFFF" height="182.1152" style="stroke:#181818;stroke-width:1.0;" width="10" x="3722.5" y="975.5176"/><rect fill="#FFFFFF" height="42.291" style="stroke:#181818;stroke-width:1.0;" width="10" x="3727.5" y="1077.0508"/><polygon fill="#181818" points="777.5,112.9121,787.5,116.9121,777.5,120.9121,781.5,116.9121" style="stroke:#181818;stroke-width:1.0;"/><line style="stroke:#181818;stroke-width:1.0;" x1="133.5" x2="783.5" y1="116.9121" y2="116.9121"/><text fill="#000000" font-family="sans-serif" font-size="13" font-weight="bold" lengthAdjust="spacing" textLength="7" x="140.5" y="111.6494">1</text><text fill="#000000" font-family="sans-serif" font-size="13" lengthAdjust="spacing" textLength="144" x="151.5" y="111.6494">asks to register a vehicle</text><polygon fill="#181818" points="2170,144.2031,2180,148.2031,2170,152.2031,2174,148.2031" style="stroke:#181818;stroke-width:1.0;"/><line style="stroke:#181818;stroke-width:1.0;" x1="799.5" x2="2176" y1="148.2031" y2="148.2031"/><text fill="#000000" font-family="sans-serif" font-size="13" font-weight="bold" lengthAdjust="spacing" textLength="7" x="806.5" y="142.9404">2</text><text fill="#000000" font-family="sans-serif" font-size="13" lengthAdjust="spacing" textLength="36" x="817.5" y="142.9404">create</text><rect fill="#E3E3E3" height="32.6211" rx="2.5" ry="2.5" style="stroke:#181818;stroke-width:0.5;" width="151" x="2182" y="124.9121"/><text fill="#000000" font-family="sans-serif" font-size="14" lengthAdjust="spacing" textLength="137" x="2189" y="147.0195">:AddVehicleController</text><polygon fill="#181818" points="144.5,205.1152,134.5,209.1152,144.5,213.1152,140.5,209.1152" style="stroke:#181818;stroke-width:1.0;"/><line style="stroke:#181818;stroke-width:1.0;stroke-dasharray:2.0,2.0;" x1="138.5" x2="793.5" y1="209.1152" y2="209.1152"/><text fill="#000000" font-family="sans-serif" font-size="13" font-weight="bold" lengthAdjust="spacing" textLength="7" x="150.5" y="195.207">3</text><text fill="#000000" font-family="sans-serif" font-size="13" lengthAdjust="spacing" textLength="399" x="161.5" y="186.5615">requests data (Brand, Model, Type, Tare, Gross Weight, Current Km,</text><text fill="#000000" font-family="sans-serif" font-size="13" lengthAdjust="spacing" textLength="621" x="161.5" y="203.8525">Register Date, Acquisition Date, Maintenance/Check-up Frequency, Plate Number, Last Maintenance Date)</text><polygon fill="#181818" points="777.5,236.4063,787.5,240.4063,777.5,244.4063,781.5,240.4063" style="stroke:#181818;stroke-width:1.0;"/><line style="stroke:#181818;stroke-width:1.0;" x1="133.5" x2="783.5" y1="240.4063" y2="240.4063"/><text fill="#000000" font-family="sans-serif" font-size="13" font-weight="bold" lengthAdjust="spacing" textLength="7" x="140.5" y="235.1436">4</text><text fill="#000000" font-family="sans-serif" font-size="13" lengthAdjust="spacing" textLength="122" x="151.5" y="235.1436">types requested data</text><polygon fill="#181818" points="144.5,267.6973,134.5,271.6973,144.5,275.6973,140.5,271.6973" style="stroke:#181818;stroke-width:1.0;"/><line style="stroke:#181818;stroke-width:1.0;stroke-dasharray:2.0,2.0;" x1="138.5" x2="793.5" y1="271.6973" y2="271.6973"/><text fill="#000000" font-family="sans-serif" font-size="13" font-weight="bold" lengthAdjust="spacing" textLength="7" x="150.5" y="266.4346">5</text><text fill="#000000" font-family="sans-serif" font-size="13" lengthAdjust="spacing" textLength="236" x="161.5" y="266.4346">shows all data and requests confirmation</text><polygon fill="#181818" points="777.5,298.9883,787.5,302.9883,777.5,306.9883,781.5,302.9883" style="stroke:#181818;stroke-width:1.0;"/><line style="stroke:#181818;stroke-width:1.0;" x1="133.5" x2="783.5" y1="302.9883" y2="302.9883"/><text fill="#000000" font-family="sans-serif" font-size="13" font-weight="bold" lengthAdjust="spacing" textLength="7" x="140.5" y="297.7256">6</text><text fill="#000000" font-family="sans-serif" font-size="13" lengthAdjust="spacing" textLength="99" x="151.5" y="297.7256">confirmation data</text><polygon fill="#181818" points="2240.5,330.2793,2250.5,334.2793,2240.5,338.2793,2244.5,334.2793" style="stroke:#181818;stroke-width:1.0;"/><line style="stroke:#181818;stroke-width:1.0;" x1="799.5" x2="2246.5" y1="334.2793" y2="334.2793"/><text fill="#000000" font-family="sans-serif" font-size="13" font-weight="bold" lengthAdjust="spacing" textLength="7" x="806.5" y="329.0166">7</text><text fill="#000000" font-family="sans-serif" font-size="13" lengthAdjust="spacing" textLength="1423" x="817.5" y="329.0166">addVehicle(vehicleModel,vehicleBrand,vehicleType, vehicleTareWeight, vehicleGrossWeight, vehicleCurrentKm, vehicleRegisterDate, vehicleAcquisitionDate, vehicleMaintenanceFrequencyKm, vehiclePlateNumber, vehicleLastMaintenanceDate, vfm)</text><line style="stroke:#181818;stroke-width:1.0;" x1="2262.5" x2="2309.5" y1="385.5703" y2="385.5703"/><line style="stroke:#181818;stroke-width:1.0;" x1="2309.5" x2="2309.5" y1="385.5703" y2="398.5703"/><line style="stroke:#181818;stroke-width:1.0;" x1="2268.5" x2="2309.5" y1="398.5703" y2="398.5703"/><polygon fill="#181818" points="2278.5,394.5703,2268.5,398.5703,2278.5,402.5703,2274.5,398.5703" style="stroke:#181818;stroke-width:1.0;"/><text fill="#000000" font-family="sans-serif" font-size="13" font-weight="bold" lengthAdjust="spacing" textLength="7" x="2274.5" y="380.3076">8</text><text fill="#000000" font-family="sans-serif" font-size="13" lengthAdjust="spacing" textLength="131" x="2285.5" y="380.3076">getVFMFromSession()</text><polygon fill="#181818" points="2782.5,430.8613,2792.5,434.8613,2782.5,438.8613,2786.5,434.8613" style="stroke:#181818;stroke-width:1.0;"/><line style="stroke:#181818;stroke-width:1.0;" x1="2267.5" x2="2788.5" y1="434.8613" y2="434.8613"/><text fill="#000000" font-family="sans-serif" font-size="13" font-weight="bold" lengthAdjust="spacing" textLength="7" x="2274.5" y="429.5986">9</text><text fill="#000000" font-family="sans-serif" font-size="13" lengthAdjust="spacing" textLength="75" x="2285.5" y="429.5986">getInstance()</text><polygon fill="#181818" points="2278.5,462.1523,2268.5,466.1523,2278.5,470.1523,2274.5,466.1523" style="stroke:#181818;stroke-width:1.0;"/><line style="stroke:#181818;stroke-width:1.0;" x1="2272.5" x2="2798.5" y1="466.1523" y2="466.1523"/><text fill="#000000" font-family="sans-serif" font-size="13" font-weight="bold" lengthAdjust="spacing" textLength="14" x="2284.5" y="460.8896">10</text><text fill="#000000" font-family="sans-serif" font-size="13" lengthAdjust="spacing" textLength="68" x="2302.5" y="460.8896">appSession</text><polygon fill="#181818" points="2929.5,493.4434,2939.5,497.4434,2929.5,501.4434,2933.5,497.4434" style="stroke:#181818;stroke-width:1.0;"/><line style="stroke:#181818;stroke-width:1.0;" x1="2267.5" x2="2935.5" y1="497.4434" y2="497.4434"/><text fill="#000000" font-family="sans-serif" font-size="13" font-weight="bold" lengthAdjust="spacing" textLength="14" x="2274.5" y="492.1807">11</text><text fill="#000000" font-family="sans-serif" font-size="13" lengthAdjust="spacing" textLength="115" x="2292.5" y="492.1807">getCurrentSession()</text><polygon fill="#181818" points="2278.5,524.7344,2268.5,528.7344,2278.5,532.7344,2274.5,528.7344" style="stroke:#181818;stroke-width:1.0;"/><line style="stroke:#181818;stroke-width:1.0;stroke-dasharray:2.0,2.0;" x1="2272.5" x2="2945.5" y1="528.7344" y2="528.7344"/><text fill="#000000" font-family="sans-serif" font-size="13" font-weight="bold" lengthAdjust="spacing" textLength="14" x="2284.5" y="523.4717">12</text><text fill="#000000" font-family="sans-serif" font-size="13" lengthAdjust="spacing" textLength="87" x="2302.5" y="523.4717">currentSession</text><polygon fill="#181818" points="3062.5,556.0254,3072.5,560.0254,3062.5,564.0254,3066.5,560.0254" style="stroke:#181818;stroke-width:1.0;"/><line style="stroke:#181818;stroke-width:1.0;" x1="2267.5" x2="3068.5" y1="560.0254" y2="560.0254"/><text fill="#000000" font-family="sans-serif" font-size="13" font-weight="bold" lengthAdjust="spacing" textLength="14" x="2274.5" y="554.7627">13</text><text fill="#000000" font-family="sans-serif" font-size="13" lengthAdjust="spacing" textLength="133" x="2292.5" y="554.7627">email = getUserEmail()</text><polygon fill="#181818" points="2278.5,587.3164,2268.5,591.3164,2278.5,595.3164,2274.5,591.3164" style="stroke:#181818;stroke-width:1.0;"/><line style="stroke:#181818;stroke-width:1.0;stroke-dasharray:2.0,2.0;" x1="2272.5" x2="3078.5" y1="591.3164" y2="591.3164"/><text fill="#000000" font-family="sans-serif" font-size="13" font-weight="bold" lengthAdjust="spacing" textLength="14" x="2284.5" y="586.0537">14</text><text fill="#000000" font-family="sans-serif" font-size="13" lengthAdjust="spacing" textLength="31" x="2302.5" y="586.0537">email</text><polygon fill="#181818" points="2513.5,618.6074,2523.5,622.6074,2513.5,626.6074,2517.5,622.6074" style="stroke:#181818;stroke-width:1.0;"/><line style="stroke:#181818;stroke-width:1.0;" x1="2267.5" x2="2519.5" y1="622.6074" y2="622.6074"/><text fill="#000000" font-family="sans-serif" font-size="13" font-weight="bold" lengthAdjust="spacing" textLength="14" x="2274.5" y="617.3447">15</text><text fill="#000000" font-family="sans-serif" font-size="13" lengthAdjust="spacing" textLength="192" x="2292.5" y="617.3447">getOrganizationRepository(email)</text><polygon fill="#181818" points="2278.5,649.8984,2268.5,653.8984,2278.5,657.8984,2274.5,653.8984" style="stroke:#181818;stroke-width:1.0;"/><line style="stroke:#181818;stroke-width:1.0;stroke-dasharray:2.0,2.0;" x1="2272.5" x2="2529.5" y1="653.8984" y2="653.8984"/><text fill="#000000" font-family="sans-serif" font-size="13" font-weight="bold" lengthAdjust="spacing" textLength="14" x="2284.5" y="648.6357">16</text><text fill="#000000" font-family="sans-serif" font-size="13" lengthAdjust="spacing" textLength="132" x="2302.5" y="648.6357">organizationRepository</text><polygon fill="#181818" points="3208.5,681.1895,3218.5,685.1895,3208.5,689.1895,3212.5,685.1895" style="stroke:#181818;stroke-width:1.0;"/><line style="stroke:#181818;stroke-width:1.0;" x1="2267.5" x2="3214.5" y1="685.1895" y2="685.1895"/><text fill="#000000" font-family="sans-serif" font-size="13" font-weight="bold" lengthAdjust="spacing" textLength="14" x="2274.5" y="679.9268">17</text><text fill="#000000" font-family="sans-serif" font-size="13" lengthAdjust="spacing" textLength="207" x="2292.5" y="679.9268">getOrganizationByVFMEmail(email)</text><path d="M3134,700.1895 L3207,700.1895 L3207,709.4805 L3197,719.4805 L3134,719.4805 L3134,700.1895 " fill="#EEEEEE" style="stroke:#000000;stroke-width:1.5;"/><rect fill="none" height="81.873" style="stroke:#000000;stroke-width:1.5;" width="652.5" x="3134" y="700.1895"/><text fill="#000000" font-family="sans-serif" font-size="13" font-weight="bold" lengthAdjust="spacing" textLength="28" x="3149" y="715.2178">loop</text><text fill="#000000" font-family="sans-serif" font-size="11" font-weight="bold" lengthAdjust="spacing" textLength="128" x="3222" y="714.0596">[[for each organization]</text><polygon fill="#181818" points="3710.5,738.7715,3720.5,742.7715,3710.5,746.7715,3714.5,742.7715" style="stroke:#181818;stroke-width:1.0;"/><line style="stroke:#181818;stroke-width:1.0;" x1="3230.5" x2="3716.5" y1="742.7715" y2="742.7715"/><text fill="#000000" font-family="sans-serif" font-size="13" font-weight="bold" lengthAdjust="spacing" textLength="14" x="3237.5" y="737.5088">18</text><text fill="#000000" font-family="sans-serif" font-size="13" lengthAdjust="spacing" textLength="144" x="3255.5" y="737.5088">anyVFMHasEmail(email)</text><polygon fill="#181818" points="3241.5,770.0625,3231.5,774.0625,3241.5,778.0625,3237.5,774.0625" style="stroke:#181818;stroke-width:1.0;"/><line style="stroke:#181818;stroke-width:1.0;stroke-dasharray:2.0,2.0;" x1="3235.5" x2="3726.5" y1="774.0625" y2="774.0625"/><text fill="#000000" font-family="sans-serif" font-size="13" font-weight="bold" lengthAdjust="spacing" textLength="14" x="3247.5" y="768.7998">19</text><text fill="#000000" font-family="sans-serif" font-size="13" lengthAdjust="spacing" textLength="53" x="3265.5" y="768.7998">true/false</text><polygon fill="#181818" points="2278.5,808.3535,2268.5,812.3535,2278.5,816.3535,2274.5,812.3535" style="stroke:#181818;stroke-width:1.0;"/><line style="stroke:#181818;stroke-width:1.0;stroke-dasharray:2.0,2.0;" x1="2272.5" x2="3224.5" y1="812.3535" y2="812.3535"/><text fill="#000000" font-family="sans-serif" font-size="13" font-weight="bold" lengthAdjust="spacing" textLength="14" x="2284.5" y="807.0908">20</text><text fill="#000000" font-family="sans-serif" font-size="13" lengthAdjust="spacing" textLength="70" x="2302.5" y="807.0908">organization</text><polygon fill="#181818" points="3710.5,839.6445,3720.5,843.6445,3710.5,847.6445,3714.5,843.6445" style="stroke:#181818;stroke-width:1.0;"/><line style="stroke:#181818;stroke-width:1.0;" x1="2267.5" x2="3716.5" y1="843.6445" y2="843.6445"/><text fill="#000000" font-family="sans-serif" font-size="13" font-weight="bold" lengthAdjust="spacing" textLength="14" x="2274.5" y="838.3818">21</text><text fill="#000000" font-family="sans-serif" font-size="13" lengthAdjust="spacing" textLength="134" x="2292.5" y="838.3818">getVFMByEmail(email)</text><polygon fill="#181818" points="2278.5,870.9355,2268.5,874.9355,2278.5,878.9355,2274.5,874.9355" style="stroke:#181818;stroke-width:1.0;"/><line style="stroke:#181818;stroke-width:1.0;stroke-dasharray:2.0,2.0;" x1="2272.5" x2="3726.5" y1="874.9355" y2="874.9355"/><text fill="#000000" font-family="sans-serif" font-size="13" font-weight="bold" lengthAdjust="spacing" textLength="14" x="2284.5" y="869.6729">22</text><text fill="#000000" font-family="sans-serif" font-size="13" lengthAdjust="spacing" textLength="19" x="2302.5" y="869.6729">vfm</text><line style="stroke:#181818;stroke-width:1.0;stroke-dasharray:2.0,2.0;" x1="2267.5" x2="2309.5" y1="911.2266" y2="911.2266"/><line style="stroke:#181818;stroke-width:1.0;stroke-dasharray:2.0,2.0;" x1="2309.5" x2="2309.5" y1="911.2266" y2="924.2266"/><line style="stroke:#181818;stroke-width:1.0;stroke-dasharray:2.0,2.0;" x1="2262.5" x2="2309.5" y1="924.2266" y2="924.2266"/><polygon fill="#181818" points="2272.5,920.2266,2262.5,924.2266,2272.5,928.2266,2268.5,924.2266" style="stroke:#181818;stroke-width:1.0;"/><text fill="#000000" font-family="sans-serif" font-size="13" font-weight="bold" lengthAdjust="spacing" textLength="14" x="2274.5" y="905.9639">23</text><text fill="#000000" font-family="sans-serif" font-size="13" lengthAdjust="spacing" textLength="19" x="2292.5" y="905.9639">vfm</text><polygon fill="#181818" points="3710.5,971.5176,3720.5,975.5176,3710.5,979.5176,3714.5,975.5176" style="stroke:#181818;stroke-width:1.0;"/><line style="stroke:#181818;stroke-width:1.0;" x1="2262.5" x2="3716.5" y1="975.5176" y2="975.5176"/><text fill="#000000" font-family="sans-serif" font-size="13" font-weight="bold" lengthAdjust="spacing" textLength="14" x="2269.5" y="970.2549">24</text><text fill="#000000" font-family="sans-serif" font-size="13" lengthAdjust="spacing" textLength="1423" x="2287.5" y="970.2549">addVehicle(vehicleModel,vehicleBrand,vehicleType, vehicleTareWeight, vehicleGrossWeight, vehicleCurrentKm, vehicleRegisterDate, vehicleAcquisitionDate, vehicleMaintenanceFrequencyKm, vehiclePlateNumber, vehicleLastMaintenanceDate, vfm)</text><polygon fill="#181818" points="3867.5,1002.8086,3877.5,1006.8086,3867.5,1010.8086,3871.5,1006.8086" style="stroke:#181818;stroke-width:1.0;"/><line style="stroke:#181818;stroke-width:1.0;" x1="3732.5" x2="3873.5" y1="1006.8086" y2="1006.8086"/><text fill="#000000" font-family="sans-serif" font-size="13" font-weight="bold" lengthAdjust="spacing" textLength="14" x="3739.5" y="1001.5459">25</text><text fill="#000000" font-family="sans-serif" font-size="13" lengthAdjust="spacing" textLength="36" x="3757.5" y="1001.5459">create</text><rect fill="#E3E3E3" height="51.2422" rx="2.5" ry="2.5" style="stroke:#181818;stroke-width:0.5;" width="64" x="3879.5" y="983.5176"/><text fill="#000000" font-family="sans-serif" font-size="14" lengthAdjust="spacing" textLength="44" x="3889.5" y="1005.625">vehicle</text><text fill="#000000" font-family="sans-serif" font-size="14" lengthAdjust="spacing" textLength="50" x="3886.5" y="1024.2461">:Vehicle</text><line style="stroke:#181818;stroke-width:1.0;" x1="3732.5" x2="3779.5" y1="1064.0508" y2="1064.0508"/><line style="stroke:#181818;stroke-width:1.0;" x1="3779.5" x2="3779.5" y1="1064.0508" y2="1077.0508"/><line style="stroke:#181818;stroke-width:1.0;" x1="3738.5" x2="3779.5" y1="1077.0508" y2="1077.0508"/><polygon fill="#181818" points="3748.5,1073.0508,3738.5,1077.0508,3748.5,1081.0508,3744.5,1077.0508" style="stroke:#181818;stroke-width:1.0;"/><text fill="#000000" font-family="sans-serif" font-size="13" font-weight="bold" lengthAdjust="spacing" textLength="14" x="3744.5" y="1058.7881">26</text><text fill="#000000" font-family="sans-serif" font-size="13" lengthAdjust="spacing" textLength="115" x="3762.5" y="1058.7881">addVehicle (vehicle)</text><line style="stroke:#181818;stroke-width:1.0;" x1="3737.5" x2="3779.5" y1="1118.3418" y2="1118.3418"/><line style="stroke:#181818;stroke-width:1.0;" x1="3779.5" x2="3779.5" y1="1118.3418" y2="1131.3418"/><line style="stroke:#181818;stroke-width:1.0;" x1="3732.5" x2="3779.5" y1="1131.3418" y2="1131.3418"/><polygon fill="#181818" points="3742.5,1127.3418,3732.5,1131.3418,3742.5,1135.3418,3738.5,1131.3418" style="stroke:#181818;stroke-width:1.0;"/><text fill="#000000" font-family="sans-serif" font-size="13" font-weight="bold" lengthAdjust="spacing" textLength="14" x="3744.5" y="1113.0791">27</text><text fill="#000000" font-family="sans-serif" font-size="13" lengthAdjust="spacing" textLength="137" x="3762.5" y="1113.0791">validateVehicle (vehicle)</text><polygon fill="#181818" points="2273.5,1153.6328,2263.5,1157.6328,2273.5,1161.6328,2269.5,1157.6328" style="stroke:#181818;stroke-width:1.0;"/><line style="stroke:#181818;stroke-width:1.0;stroke-dasharray:2.0,2.0;" x1="2267.5" x2="3726.5" y1="1157.6328" y2="1157.6328"/><text fill="#000000" font-family="sans-serif" font-size="13" font-weight="bold" lengthAdjust="spacing" textLength="14" x="2279.5" y="1152.3701">28</text><text fill="#000000" font-family="sans-serif" font-size="13" lengthAdjust="spacing" textLength="39" x="2297.5" y="1152.3701">vehicle</text><polygon fill="#181818" points="810.5,1184.9238,800.5,1188.9238,810.5,1192.9238,806.5,1188.9238" style="stroke:#181818;stroke-width:1.0;"/><line style="stroke:#181818;stroke-width:1.0;stroke-dasharray:2.0,2.0;" x1="804.5" x2="2256.5" y1="1188.9238" y2="1188.9238"/><text fill="#000000" font-family="sans-serif" font-size="13" font-weight="bold" lengthAdjust="spacing" textLength="14" x="816.5" y="1183.6611">29</text><text fill="#000000" font-family="sans-serif" font-size="13" lengthAdjust="spacing" textLength="39" x="834.5" y="1183.6611">vehicle</text><polygon fill="#181818" points="139.5,1216.2148,129.5,1220.2148,139.5,1224.2148,135.5,1220.2148" style="stroke:#181818;stroke-width:1.0;"/><line style="stroke:#181818;stroke-width:1.0;stroke-dasharray:2.0,2.0;" x1="133.5" x2="793.5" y1="1220.2148" y2="1220.2148"/><text fill="#000000" font-family="sans-serif" font-size="13" font-weight="bold" lengthAdjust="spacing" textLength="14" x="145.5" y="1214.9521">30</text><text fill="#000000" font-family="sans-serif" font-size="13" lengthAdjust="spacing" textLength="158" x="163.5" y="1214.9521">displays operation success</text><!--SRC=[vLTDR-Cs4BthLmnooGSKxDr00pZU93KQDu4TfuS6ABZIs2OYargIpjP5Vdo7f2HJCcLxqMDrI29gvl7DlE4Cez-vA9bYQrXB8RELaci4epQOwEPBoR9tjiIPsHO82ZF3nB883VIAvV875qjOi49Zah2DaMAp_eOgISvNF4TOI6c-oRyJbXcfuEmLLpmZD2PokFk-uUKQXO7x0j70X0bSeZe3fc7uTPBG7ePdl6HaSJOOvddbF1yxa_curs8aXL6oA2gmqSlqiMCxnL9gJfGuQcVJB6ndt4P9SVnd5nLul8bzWEV7uKlRuyFpto6JssjtpVc-JhlHbsN1CsQu53FKcduvkx-6pyzjIrQMbG61ztZjEMKRfKYfdUDSemezPdUpsV2fxIJLaWd-ZqFVqH-yYQVe1uSJ_zIFIrH25uynVOYcTPTCdyAxyMZ- -9JOskGVpA2hkWIgXrxW-eRA30Pa_Qx1I3e4IwuDAc1GOUxi6nGgpEGSWeSWhWd90Wu8uli6jT6GCyFWGk42ARCPff2ZpXGlRHWf01SBgTQiW3VH_c8mMmdIh6Wlvnl5_5-PrEOo2GcSPmejCtSGkinktFBL5N7pPaboAlbRHUSuXOdCiKZXPLjI52zCqSy79RM6Fv0lLoQ5aQyU-6sTKZZJEebVQRCKXXdr0PAPk5Sh4yQ5GS4eArz6AypUhpSbtBkzHRPDuRcmmVpk-amAZqoRqCM1xEBFiILCLrb3f7KT5-Oki6HFpcWoz4h-qC2AmcV3jhGcFvaK2qxosQYI4sY4zYTmy9hPmcnwtaLLa5wCwiKBLBruVUeNagcMfrfocdNMAkMiS4rlykfvgQh5GCFMUY1Ber-0vOIiTQpMh9o1MmMtM5_k7pHNpkrg_VpyRBsxDEtIjKJpUZ-vfs5NzQwBza7fG4FdgT5iKtLWOw6DPTc1QK6v3WoHntwekP6IJLlUCmvgnu7r4wjvZLhj-X0xXnTZvyWrxDhz_n33A63Dpq-90U2QyG9-iLJj8BcphuTOLjCbIjH_2xWwy4CKQxHUcdOmkpp6fz65s-40NJVOesJjbu1gV48UukwXUvd72U_5ShkbO-2pVYoMde4SZQwGieG_QMu14LwreelQsoUExsAPFjWE9opNNva-I7UVDjq1UgtynWH_tPioEnheDlp5NspxC09Xx8On4nHvyZDnxvhLmVI5Ev-eK5CZquUw4zvkJoo2lcpMIQmeKvzEZkIeXrO_Hk2_tvNx-hsByVyu78_BvYIxgM-_LrVDjQ_7i9DAg7Dv6Mb3Hqz3YFd12avN7Tm7_jaIwbPXzsf-3ACfmVbuvtse1kCNv07aN9S5ssgG9VhhEEXDbj7KZ5q2mwb9_tdy2m00]--></g></svg>