<?xml version="1.0" encoding="us-ascii" standalone="no"?><svg xmlns="http://www.w3.org/2000/svg" xmlns:xlink="http://www.w3.org/1999/xlink" contentStyleType="text/css" height="1168px" preserveAspectRatio="none" style="width:1750px;height:1168px;background:#FFFFFF;" version="1.1" viewBox="0 0 1750 1168" width="1750px" zoomAndPan="magnify"><defs/><g><!--class VehicleFleetManager--><g id="elem_VehicleFleetManager"><rect codeLine="7" fill="#F1F1F1" height="122.4844" id="VehicleFleetManager" rx="2.5" ry="2.5" style="stroke:#181818;stroke-width:0.5;" width="166" x="447" y="7"/><ellipse cx="462" cy="23" fill="#ADD1B2" rx="11" ry="11" style="stroke:#181818;stroke-width:1.0;"/><path d="M464.7656,18.875 Q464.9219,18.6563 465.1094,18.5469 Q465.2969,18.4375 465.5156,18.4375 Q465.8906,18.4375 466.125,18.7031 Q466.3594,18.9531 466.3594,19.5625 L466.3594,21.0156 Q466.3594,21.625 466.125,21.8906 Q465.8906,22.1563 465.5156,22.1563 Q465.1719,22.1563 464.9688,21.9531 Q464.7656,21.7656 464.6563,21.25 Q464.6094,20.8906 464.4219,20.7031 Q464.0938,20.3281 463.4844,20.1094 Q462.875,19.8906 462.25,19.8906 Q461.4844,19.8906 460.8438,20.2188 Q460.2188,20.5469 459.7188,21.2969 Q459.2344,22.0469 459.2344,23.0781 L459.2344,24.1719 Q459.2344,25.4063 460.125,26.2344 Q461.0156,27.0469 462.6094,27.0469 Q463.5469,27.0469 464.2031,26.7969 Q464.5938,26.6406 465.0156,26.2031 Q465.2813,25.9375 465.4219,25.8594 Q465.5781,25.7813 465.7813,25.7813 Q466.1094,25.7813 466.3594,26.0469 Q466.625,26.2969 466.625,26.6406 Q466.625,26.9844 466.2813,27.3906 Q465.7813,27.9688 464.9844,28.2969 Q463.9063,28.75 462.6094,28.75 Q461.0938,28.75 459.8906,28.125 Q458.9063,27.625 458.2188,26.5625 Q457.5313,25.4844 457.5313,24.2031 L457.5313,23.0469 Q457.5313,21.7188 458.1406,20.5781 Q458.7656,19.4219 459.8594,18.8125 Q460.9531,18.1875 462.1875,18.1875 Q462.9219,18.1875 463.5625,18.3594 Q464.2188,18.5156 464.7656,18.875 Z " fill="#000000"/><text fill="#000000" font-family="sans-serif" font-size="14" lengthAdjust="spacing" textLength="134" x="476" y="28.7969">VehicleFleetManager</text><line style="stroke:#181818;stroke-width:0.5;" x1="448" x2="612" y1="39" y2="39"/><text fill="#000000" font-family="sans-serif" font-size="14" lengthAdjust="spacing" textLength="81" x="453" y="58.1074">-String name</text><text fill="#000000" font-family="sans-serif" font-size="14" lengthAdjust="spacing" textLength="79" x="453" y="76.7285">-String email</text><text fill="#000000" font-family="sans-serif" font-size="14" lengthAdjust="spacing" textLength="95" x="453" y="95.3496">-String position</text><text fill="#000000" font-family="sans-serif" font-size="14" lengthAdjust="spacing" textLength="64" x="453" y="113.9707">-int phone</text><line style="stroke:#181818;stroke-width:0.5;" x1="448" x2="612" y1="121.4844" y2="121.4844"/></g><!--class Vehicle--><g id="elem_Vehicle"><rect codeLine="14" fill="#F1F1F1" height="345.9375" id="Vehicle" rx="2.5" ry="2.5" style="stroke:#181818;stroke-width:0.5;" width="233" x="1278.5" y="558"/><ellipse cx="1367.75" cy="574" fill="#ADD1B2" rx="11" ry="11" style="stroke:#181818;stroke-width:1.0;"/><path d="M1370.5156,569.875 Q1370.6719,569.6563 1370.8594,569.5469 Q1371.0469,569.4375 1371.2656,569.4375 Q1371.6406,569.4375 1371.875,569.7031 Q1372.1094,569.9531 1372.1094,570.5625 L1372.1094,572.0156 Q1372.1094,572.625 1371.875,572.8906 Q1371.6406,573.1563 1371.2656,573.1563 Q1370.9219,573.1563 1370.7188,572.9531 Q1370.5156,572.7656 1370.4063,572.25 Q1370.3594,571.8906 1370.1719,571.7031 Q1369.8438,571.3281 1369.2344,571.1094 Q1368.625,570.8906 1368,570.8906 Q1367.2344,570.8906 1366.5938,571.2188 Q1365.9688,571.5469 1365.4688,572.2969 Q1364.9844,573.0469 1364.9844,574.0781 L1364.9844,575.1719 Q1364.9844,576.4063 1365.875,577.2344 Q1366.7656,578.0469 1368.3594,578.0469 Q1369.2969,578.0469 1369.9531,577.7969 Q1370.3438,577.6406 1370.7656,577.2031 Q1371.0313,576.9375 1371.1719,576.8594 Q1371.3281,576.7813 1371.5313,576.7813 Q1371.8594,576.7813 1372.1094,577.0469 Q1372.375,577.2969 1372.375,577.6406 Q1372.375,577.9844 1372.0313,578.3906 Q1371.5313,578.9688 1370.7344,579.2969 Q1369.6563,579.75 1368.3594,579.75 Q1366.8438,579.75 1365.6406,579.125 Q1364.6563,578.625 1363.9688,577.5625 Q1363.2813,576.4844 1363.2813,575.2031 L1363.2813,574.0469 Q1363.2813,572.7188 1363.8906,571.5781 Q1364.5156,570.4219 1365.6094,569.8125 Q1366.7031,569.1875 1367.9375,569.1875 Q1368.6719,569.1875 1369.3125,569.3594 Q1369.9688,569.5156 1370.5156,569.875 Z " fill="#000000"/><text fill="#000000" font-family="sans-serif" font-size="14" lengthAdjust="spacing" textLength="46" x="1388.25" y="579.7969">Vehicle</text><line style="stroke:#181818;stroke-width:0.5;" x1="1279.5" x2="1510.5" y1="590" y2="590"/><text fill="#000000" font-family="sans-serif" font-size="14" lengthAdjust="spacing" textLength="83" x="1284.5" y="609.1074">-String brand</text><text fill="#000000" font-family="sans-serif" font-size="14" lengthAdjust="spacing" textLength="84" x="1284.5" y="627.7285">-String model</text><text fill="#000000" font-family="sans-serif" font-size="14" lengthAdjust="spacing" textLength="73" x="1284.5" y="646.3496">-String type</text><text fill="#000000" font-family="sans-serif" font-size="14" lengthAdjust="spacing" textLength="123" x="1284.5" y="664.9707">-Double tareWeight</text><text fill="#000000" font-family="sans-serif" font-size="14" lengthAdjust="spacing" textLength="133" x="1284.5" y="683.5918">-Double grossWeight</text><text fill="#000000" font-family="sans-serif" font-size="14" lengthAdjust="spacing" textLength="89" x="1284.5" y="702.2129">-int currentKm</text><text fill="#000000" font-family="sans-serif" font-size="14" lengthAdjust="spacing" textLength="151" x="1284.5" y="720.834">-LocalDate registerDate</text><text fill="#000000" font-family="sans-serif" font-size="14" lengthAdjust="spacing" textLength="170" x="1284.5" y="739.4551">-LocalDate acquisitionDate</text><text fill="#000000" font-family="sans-serif" font-size="14" lengthAdjust="spacing" textLength="173" x="1284.5" y="758.0762">-int maintenanceFrequency</text><text fill="#000000" font-family="sans-serif" font-size="14" lengthAdjust="spacing" textLength="126" x="1284.5" y="776.6973">-String plateNumber</text><text fill="#000000" font-family="sans-serif" font-size="14" lengthAdjust="spacing" textLength="206" x="1284.5" y="795.3184">-LocalDate lastMaintenanceDate</text><line style="stroke:#181818;stroke-width:0.5;" x1="1279.5" x2="1510.5" y1="802.832" y2="802.832"/><text fill="#000000" font-family="sans-serif" font-size="14" lengthAdjust="spacing" textLength="178" x="1284.5" y="821.9395">+validateVehicle(String trait)</text><text fill="#000000" font-family="sans-serif" font-size="14" lengthAdjust="spacing" textLength="205" x="1284.5" y="840.5605">+validateVehicle(LocalDate trait)</text><text fill="#000000" font-family="sans-serif" font-size="14" lengthAdjust="spacing" textLength="156" x="1284.5" y="859.1816">+validateVehicle(int trait)</text><text fill="#000000" font-family="sans-serif" font-size="14" lengthAdjust="spacing" textLength="186" x="1284.5" y="877.8027">+validateVehicle(Double trait)</text><text fill="#000000" font-family="sans-serif" font-size="14" lengthAdjust="spacing" textLength="221" x="1284.5" y="896.4238">+String getVehiclebyPlateNumber()</text></g><!--class Organization--><g id="elem_Organization"><rect codeLine="34" fill="#F1F1F1" height="141.1055" id="Organization" rx="2.5" ry="2.5" style="stroke:#181818;stroke-width:0.5;" width="126" x="732" y="660.5"/><ellipse cx="753.3" cy="676.5" fill="#ADD1B2" rx="11" ry="11" style="stroke:#181818;stroke-width:1.0;"/><path d="M756.0656,672.375 Q756.2219,672.1563 756.4094,672.0469 Q756.5969,671.9375 756.8156,671.9375 Q757.1906,671.9375 757.425,672.2031 Q757.6594,672.4531 757.6594,673.0625 L757.6594,674.5156 Q757.6594,675.125 757.425,675.3906 Q757.1906,675.6563 756.8156,675.6563 Q756.4719,675.6563 756.2688,675.4531 Q756.0656,675.2656 755.9563,674.75 Q755.9094,674.3906 755.7219,674.2031 Q755.3938,673.8281 754.7844,673.6094 Q754.175,673.3906 753.55,673.3906 Q752.7844,673.3906 752.1438,673.7188 Q751.5188,674.0469 751.0188,674.7969 Q750.5344,675.5469 750.5344,676.5781 L750.5344,677.6719 Q750.5344,678.9063 751.425,679.7344 Q752.3156,680.5469 753.9094,680.5469 Q754.8469,680.5469 755.5031,680.2969 Q755.8938,680.1406 756.3156,679.7031 Q756.5813,679.4375 756.7219,679.3594 Q756.8781,679.2813 757.0813,679.2813 Q757.4094,679.2813 757.6594,679.5469 Q757.925,679.7969 757.925,680.1406 Q757.925,680.4844 757.5813,680.8906 Q757.0813,681.4688 756.2844,681.7969 Q755.2063,682.25 753.9094,682.25 Q752.3938,682.25 751.1906,681.625 Q750.2063,681.125 749.5188,680.0625 Q748.8313,678.9844 748.8313,677.7031 L748.8313,676.5469 Q748.8313,675.2188 749.4406,674.0781 Q750.0656,672.9219 751.1594,672.3125 Q752.2531,671.6875 753.4875,671.6875 Q754.2219,671.6875 754.8625,671.8594 Q755.5188,672.0156 756.0656,672.375 Z " fill="#000000"/><text fill="#000000" font-family="sans-serif" font-size="14" lengthAdjust="spacing" textLength="80" x="768.7" y="682.2969">Organization</text><line style="stroke:#181818;stroke-width:0.5;" x1="733" x2="857" y1="692.5" y2="692.5"/><text fill="#000000" font-family="sans-serif" font-size="14" lengthAdjust="spacing" textLength="81" x="738" y="711.6074">-String name</text><text fill="#000000" font-family="sans-serif" font-size="14" lengthAdjust="spacing" textLength="114" x="738" y="730.2285">-String vatNumber</text><text fill="#000000" font-family="sans-serif" font-size="14" lengthAdjust="spacing" textLength="97" x="738" y="748.8496">-String address</text><text fill="#000000" font-family="sans-serif" font-size="14" lengthAdjust="spacing" textLength="86" x="738" y="767.4707">-String phone</text><text fill="#000000" font-family="sans-serif" font-size="14" lengthAdjust="spacing" textLength="79" x="738" y="786.0918">-String email</text><line style="stroke:#181818;stroke-width:0.5;" x1="733" x2="857" y1="793.6055" y2="793.6055"/></g><!--class OrganizationRepository--><g id="elem_OrganizationRepository"><rect codeLine="42" fill="#F1F1F1" height="141.1055" id="OrganizationRepository" rx="2.5" ry="2.5" style="stroke:#181818;stroke-width:0.5;" width="437" x="576.5" y="1001.5"/><ellipse cx="716.75" cy="1017.5" fill="#ADD1B2" rx="11" ry="11" style="stroke:#181818;stroke-width:1.0;"/><path d="M719.5156,1013.375 Q719.6719,1013.1563 719.8594,1013.0469 Q720.0469,1012.9375 720.2656,1012.9375 Q720.6406,1012.9375 720.875,1013.2031 Q721.1094,1013.4531 721.1094,1014.0625 L721.1094,1015.5156 Q721.1094,1016.125 720.875,1016.3906 Q720.6406,1016.6563 720.2656,1016.6563 Q719.9219,1016.6563 719.7188,1016.4531 Q719.5156,1016.2656 719.4063,1015.75 Q719.3594,1015.3906 719.1719,1015.2031 Q718.8438,1014.8281 718.2344,1014.6094 Q717.625,1014.3906 717,1014.3906 Q716.2344,1014.3906 715.5938,1014.7188 Q714.9688,1015.0469 714.4688,1015.7969 Q713.9844,1016.5469 713.9844,1017.5781 L713.9844,1018.6719 Q713.9844,1019.9063 714.875,1020.7344 Q715.7656,1021.5469 717.3594,1021.5469 Q718.2969,1021.5469 718.9531,1021.2969 Q719.3438,1021.1406 719.7656,1020.7031 Q720.0313,1020.4375 720.1719,1020.3594 Q720.3281,1020.2813 720.5313,1020.2813 Q720.8594,1020.2813 721.1094,1020.5469 Q721.375,1020.7969 721.375,1021.1406 Q721.375,1021.4844 721.0313,1021.8906 Q720.5313,1022.4688 719.7344,1022.7969 Q718.6563,1023.25 717.3594,1023.25 Q715.8438,1023.25 714.6406,1022.625 Q713.6563,1022.125 712.9688,1021.0625 Q712.2813,1019.9844 712.2813,1018.7031 L712.2813,1017.5469 Q712.2813,1016.2188 712.8906,1015.0781 Q713.5156,1013.9219 714.6094,1013.3125 Q715.7031,1012.6875 716.9375,1012.6875 Q717.6719,1012.6875 718.3125,1012.8594 Q718.9688,1013.0156 719.5156,1013.375 Z " fill="#000000"/><text fill="#000000" font-family="sans-serif" font-size="14" lengthAdjust="spacing" textLength="148" x="737.25" y="1023.2969">OrganizationRepository</text><line style="stroke:#181818;stroke-width:0.5;" x1="577.5" x2="1012.5" y1="1033.5" y2="1033.5"/><line style="stroke:#181818;stroke-width:0.5;" x1="577.5" x2="1012.5" y1="1041.5" y2="1041.5"/><text fill="#000000" font-family="sans-serif" font-size="14" lengthAdjust="spacing" textLength="375" x="582.5" y="1060.6074">+Optional&lt;Organization&gt; getOrganizationByHRM(HRM hrm)</text><text fill="#000000" font-family="sans-serif" font-size="14" lengthAdjust="spacing" textLength="371" x="582.5" y="1079.2285">+Optional&lt;Organization&gt; getOrganizationByVFM(VFM vfm)</text><text fill="#000000" font-family="sans-serif" font-size="14" lengthAdjust="spacing" textLength="425" x="582.5" y="1097.8496">+Optional&lt;Organization&gt; getOrganizationByHRMEmail(String email)</text><text fill="#000000" font-family="sans-serif" font-size="14" lengthAdjust="spacing" textLength="356" x="582.5" y="1116.4707">+Optional&lt;Organization&gt; add(Organization organization)</text><text fill="#000000" font-family="sans-serif" font-size="14" lengthAdjust="spacing" textLength="363" x="582.5" y="1135.0918">+boolean validateOrganization(Organization organization)</text></g><!--class Repositories--><g id="elem_Repositories"><rect codeLine="50" fill="#F1F1F1" height="103.8633" id="Repositories" rx="2.5" ry="2.5" style="stroke:#181818;stroke-width:0.5;" width="350" x="893" y="679"/><ellipse cx="1024.25" cy="695" fill="#ADD1B2" rx="11" ry="11" style="stroke:#181818;stroke-width:1.0;"/><path d="M1027.0156,690.875 Q1027.1719,690.6563 1027.3594,690.5469 Q1027.5469,690.4375 1027.7656,690.4375 Q1028.1406,690.4375 1028.375,690.7031 Q1028.6094,690.9531 1028.6094,691.5625 L1028.6094,693.0156 Q1028.6094,693.625 1028.375,693.8906 Q1028.1406,694.1563 1027.7656,694.1563 Q1027.4219,694.1563 1027.2188,693.9531 Q1027.0156,693.7656 1026.9063,693.25 Q1026.8594,692.8906 1026.6719,692.7031 Q1026.3438,692.3281 1025.7344,692.1094 Q1025.125,691.8906 1024.5,691.8906 Q1023.7344,691.8906 1023.0938,692.2188 Q1022.4688,692.5469 1021.9688,693.2969 Q1021.4844,694.0469 1021.4844,695.0781 L1021.4844,696.1719 Q1021.4844,697.4063 1022.375,698.2344 Q1023.2656,699.0469 1024.8594,699.0469 Q1025.7969,699.0469 1026.4531,698.7969 Q1026.8438,698.6406 1027.2656,698.2031 Q1027.5313,697.9375 1027.6719,697.8594 Q1027.8281,697.7813 1028.0313,697.7813 Q1028.3594,697.7813 1028.6094,698.0469 Q1028.875,698.2969 1028.875,698.6406 Q1028.875,698.9844 1028.5313,699.3906 Q1028.0313,699.9688 1027.2344,700.2969 Q1026.1563,700.75 1024.8594,700.75 Q1023.3438,700.75 1022.1406,700.125 Q1021.1563,699.625 1020.4688,698.5625 Q1019.7813,697.4844 1019.7813,696.2031 L1019.7813,695.0469 Q1019.7813,693.7188 1020.3906,692.5781 Q1021.0156,691.4219 1022.1094,690.8125 Q1023.2031,690.1875 1024.4375,690.1875 Q1025.1719,690.1875 1025.8125,690.3594 Q1026.4688,690.5156 1027.0156,690.875 Z " fill="#000000"/><text fill="#000000" font-family="sans-serif" font-size="14" lengthAdjust="spacing" textLength="79" x="1044.75" y="700.7969">Repositories</text><line style="stroke:#181818;stroke-width:0.5;" x1="894" x2="1242" y1="711" y2="711"/><line style="stroke:#181818;stroke-width:0.5;" x1="894" x2="1242" y1="719" y2="719"/><text fill="#000000" font-family="sans-serif" font-size="14" lengthAdjust="spacing" textLength="174" x="899" y="738.1074">+Repositories getInstance()</text><text fill="#000000" font-family="sans-serif" font-size="14" lengthAdjust="spacing" textLength="338" x="899" y="756.7285">+OrganizationRepository getOrganizationRepository()</text><text fill="#000000" font-family="sans-serif" font-size="14" lengthAdjust="spacing" textLength="270" x="899" y="775.3496">+VehicleRepository getVehicleRepository()</text></g><!--class AddVehicleController--><g id="elem_AddVehicleController"><rect codeLine="56" fill="#F1F1F1" height="141.1055" id="AddVehicleController" rx="2.5" ry="2.5" style="stroke:#181818;stroke-width:0.5;" width="515" x="810.5" y="273"/><ellipse cx="997.25" cy="289" fill="#ADD1B2" rx="11" ry="11" style="stroke:#181818;stroke-width:1.0;"/><path d="M1000.0156,284.875 Q1000.1719,284.6563 1000.3594,284.5469 Q1000.5469,284.4375 1000.7656,284.4375 Q1001.1406,284.4375 1001.375,284.7031 Q1001.6094,284.9531 1001.6094,285.5625 L1001.6094,287.0156 Q1001.6094,287.625 1001.375,287.8906 Q1001.1406,288.1563 1000.7656,288.1563 Q1000.4219,288.1563 1000.2188,287.9531 Q1000.0156,287.7656 999.9063,287.25 Q999.8594,286.8906 999.6719,286.7031 Q999.3438,286.3281 998.7344,286.1094 Q998.125,285.8906 997.5,285.8906 Q996.7344,285.8906 996.0938,286.2188 Q995.4688,286.5469 994.9688,287.2969 Q994.4844,288.0469 994.4844,289.0781 L994.4844,290.1719 Q994.4844,291.4063 995.375,292.2344 Q996.2656,293.0469 997.8594,293.0469 Q998.7969,293.0469 999.4531,292.7969 Q999.8438,292.6406 1000.2656,292.2031 Q1000.5313,291.9375 1000.6719,291.8594 Q1000.8281,291.7813 1001.0313,291.7813 Q1001.3594,291.7813 1001.6094,292.0469 Q1001.875,292.2969 1001.875,292.6406 Q1001.875,292.9844 1001.5313,293.3906 Q1001.0313,293.9688 1000.2344,294.2969 Q999.1563,294.75 997.8594,294.75 Q996.3438,294.75 995.1406,294.125 Q994.1563,293.625 993.4688,292.5625 Q992.7813,291.4844 992.7813,290.2031 L992.7813,289.0469 Q992.7813,287.7188 993.3906,286.5781 Q994.0156,285.4219 995.1094,284.8125 Q996.2031,284.1875 997.4375,284.1875 Q998.1719,284.1875 998.8125,284.3594 Q999.4688,284.5156 1000.0156,284.875 Z " fill="#000000"/><text fill="#000000" font-family="sans-serif" font-size="14" lengthAdjust="spacing" textLength="133" x="1017.75" y="294.7969">AddVehicleController</text><line style="stroke:#181818;stroke-width:0.5;" x1="811.5" x2="1324.5" y1="305" y2="305"/><line style="stroke:#181818;stroke-width:0.5;" x1="811.5" x2="1324.5" y1="313" y2="313"/><text fill="#000000" font-family="sans-serif" font-size="14" lengthAdjust="spacing" textLength="270" x="816.5" y="332.1074">+VehicleRepository getVehicleRepository()</text><text fill="#000000" font-family="sans-serif" font-size="14" lengthAdjust="spacing" textLength="338" x="816.5" y="350.7285">+OrganizationRepository getOrganizationRepository()</text><text fill="#000000" font-family="sans-serif" font-size="14" lengthAdjust="spacing" textLength="358" x="816.5" y="369.3496">+AuthenticationRepository getAuthenticationRepository()</text><text fill="#000000" font-family="sans-serif" font-size="14" lengthAdjust="spacing" textLength="503" x="816.5" y="387.9707">+Optional&lt;Vehicle&gt; addVehicle(String model,String brand,String type, VFM vfm)</text><text fill="#000000" font-family="sans-serif" font-size="14" lengthAdjust="spacing" textLength="183" x="816.5" y="406.5918">+VFM getVFMFromSession()</text></g><!--class AddVehicleUI--><g id="elem_AddVehicleUI"><rect codeLine="64" fill="#F1F1F1" height="271.4531" id="AddVehicleUI" rx="2.5" ry="2.5" style="stroke:#181818;stroke-width:0.5;" width="330" x="365" y="208"/><ellipse cx="484.25" cy="224" fill="#ADD1B2" rx="11" ry="11" style="stroke:#181818;stroke-width:1.0;"/><path d="M487.0156,219.875 Q487.1719,219.6563 487.3594,219.5469 Q487.5469,219.4375 487.7656,219.4375 Q488.1406,219.4375 488.375,219.7031 Q488.6094,219.9531 488.6094,220.5625 L488.6094,222.0156 Q488.6094,222.625 488.375,222.8906 Q488.1406,223.1563 487.7656,223.1563 Q487.4219,223.1563 487.2188,222.9531 Q487.0156,222.7656 486.9063,222.25 Q486.8594,221.8906 486.6719,221.7031 Q486.3438,221.3281 485.7344,221.1094 Q485.125,220.8906 484.5,220.8906 Q483.7344,220.8906 483.0938,221.2188 Q482.4688,221.5469 481.9688,222.2969 Q481.4844,223.0469 481.4844,224.0781 L481.4844,225.1719 Q481.4844,226.4063 482.375,227.2344 Q483.2656,228.0469 484.8594,228.0469 Q485.7969,228.0469 486.4531,227.7969 Q486.8438,227.6406 487.2656,227.2031 Q487.5313,226.9375 487.6719,226.8594 Q487.8281,226.7813 488.0313,226.7813 Q488.3594,226.7813 488.6094,227.0469 Q488.875,227.2969 488.875,227.6406 Q488.875,227.9844 488.5313,228.3906 Q488.0313,228.9688 487.2344,229.2969 Q486.1563,229.75 484.8594,229.75 Q483.3438,229.75 482.1406,229.125 Q481.1563,228.625 480.4688,227.5625 Q479.7813,226.4844 479.7813,225.2031 L479.7813,224.0469 Q479.7813,222.7188 480.3906,221.5781 Q481.0156,220.4219 482.1094,219.8125 Q483.2031,219.1875 484.4375,219.1875 Q485.1719,219.1875 485.8125,219.3594 Q486.4688,219.5156 487.0156,219.875 Z " fill="#000000"/><text fill="#000000" font-family="sans-serif" font-size="14" lengthAdjust="spacing" textLength="83" x="504.75" y="229.7969">AddVehicleUI</text><line style="stroke:#181818;stroke-width:0.5;" x1="366" x2="694" y1="240" y2="240"/><line style="stroke:#181818;stroke-width:0.5;" x1="366" x2="694" y1="248" y2="248"/><text fill="#000000" font-family="sans-serif" font-size="14" lengthAdjust="spacing" textLength="237" x="371" y="267.1074">+AddVehicleController getController()</text><text fill="#000000" font-family="sans-serif" font-size="14" lengthAdjust="spacing" textLength="191" x="371" y="285.7285">+String requestVehicleModel()</text><text fill="#000000" font-family="sans-serif" font-size="14" lengthAdjust="spacing" textLength="191" x="371" y="304.3496">+String requestVehicleBrand()</text><text fill="#000000" font-family="sans-serif" font-size="14" lengthAdjust="spacing" textLength="185" x="371" y="322.9707">+String requestVehicleType()</text><text fill="#000000" font-family="sans-serif" font-size="14" lengthAdjust="spacing" textLength="233" x="371" y="341.5918">+double requestVehicleTareWeight()</text><text fill="#000000" font-family="sans-serif" font-size="14" lengthAdjust="spacing" textLength="241" x="371" y="360.2129">+double requestVehicleGrossWeight()</text><text fill="#000000" font-family="sans-serif" font-size="14" lengthAdjust="spacing" textLength="227" x="371" y="378.834">+double requestVehicleCurrentKm()</text><text fill="#000000" font-family="sans-serif" font-size="14" lengthAdjust="spacing" textLength="263" x="371" y="397.4551">+LocalDate requestVehicleRegisterDate()</text><text fill="#000000" font-family="sans-serif" font-size="14" lengthAdjust="spacing" textLength="278" x="371" y="416.0762">+LocalDate requestVehicleAcquisitionDate()</text><text fill="#000000" font-family="sans-serif" font-size="14" lengthAdjust="spacing" textLength="300" x="371" y="434.6973">+int requestVehicleMaintenanceFrequencyKM()</text><text fill="#000000" font-family="sans-serif" font-size="14" lengthAdjust="spacing" textLength="234" x="371" y="453.3184">+String requestVehiclePlateNumber()</text><text fill="#000000" font-family="sans-serif" font-size="14" lengthAdjust="spacing" textLength="318" x="371" y="471.9395">+LocalDate requestVehicleLastMaintenanceDate()</text></g><!--class VehicleRepository--><g id="elem_VehicleRepository"><rect codeLine="79" fill="#F1F1F1" height="178.3477" id="VehicleRepository" rx="2.5" ry="2.5" style="stroke:#181818;stroke-width:0.5;" width="535" x="1048.5" y="983"/><ellipse cx="1254.75" cy="999" fill="#ADD1B2" rx="11" ry="11" style="stroke:#181818;stroke-width:1.0;"/><path d="M1257.5156,994.875 Q1257.6719,994.6563 1257.8594,994.5469 Q1258.0469,994.4375 1258.2656,994.4375 Q1258.6406,994.4375 1258.875,994.7031 Q1259.1094,994.9531 1259.1094,995.5625 L1259.1094,997.0156 Q1259.1094,997.625 1258.875,997.8906 Q1258.6406,998.1563 1258.2656,998.1563 Q1257.9219,998.1563 1257.7188,997.9531 Q1257.5156,997.7656 1257.4063,997.25 Q1257.3594,996.8906 1257.1719,996.7031 Q1256.8438,996.3281 1256.2344,996.1094 Q1255.625,995.8906 1255,995.8906 Q1254.2344,995.8906 1253.5938,996.2188 Q1252.9688,996.5469 1252.4688,997.2969 Q1251.9844,998.0469 1251.9844,999.0781 L1251.9844,1000.1719 Q1251.9844,1001.4063 1252.875,1002.2344 Q1253.7656,1003.0469 1255.3594,1003.0469 Q1256.2969,1003.0469 1256.9531,1002.7969 Q1257.3438,1002.6406 1257.7656,1002.2031 Q1258.0313,1001.9375 1258.1719,1001.8594 Q1258.3281,1001.7813 1258.5313,1001.7813 Q1258.8594,1001.7813 1259.1094,1002.0469 Q1259.375,1002.2969 1259.375,1002.6406 Q1259.375,1002.9844 1259.0313,1003.3906 Q1258.5313,1003.9688 1257.7344,1004.2969 Q1256.6563,1004.75 1255.3594,1004.75 Q1253.8438,1004.75 1252.6406,1004.125 Q1251.6563,1003.625 1250.9688,1002.5625 Q1250.2813,1001.4844 1250.2813,1000.2031 L1250.2813,999.0469 Q1250.2813,997.7188 1250.8906,996.5781 Q1251.5156,995.4219 1252.6094,994.8125 Q1253.7031,994.1875 1254.9375,994.1875 Q1255.6719,994.1875 1256.3125,994.3594 Q1256.9688,994.5156 1257.5156,994.875 Z " fill="#000000"/><text fill="#000000" font-family="sans-serif" font-size="14" lengthAdjust="spacing" textLength="114" x="1275.25" y="1004.7969">VehicleRepository</text><line style="stroke:#181818;stroke-width:0.5;" x1="1049.5" x2="1582.5" y1="1015" y2="1015"/><text fill="#000000" font-family="sans-serif" font-size="14" lengthAdjust="spacing" textLength="144" x="1054.5" y="1034.1074">-List&lt;Vehicle&gt; vehicles</text><line style="stroke:#181818;stroke-width:0.5;" x1="1049.5" x2="1582.5" y1="1041.6211" y2="1041.6211"/><text fill="#000000" font-family="sans-serif" font-size="14" lengthAdjust="spacing" textLength="351" x="1054.5" y="1060.7285">+Vehicle getVehiclebyPlateNumber(String plateNumber)</text><text fill="#000000" font-family="sans-serif" font-size="14" lengthAdjust="spacing" textLength="262" x="1054.5" y="1079.3496">+boolean validateVehicle(Vehicle vehicle)</text><text fill="#000000" font-family="sans-serif" font-size="14" lengthAdjust="spacing" textLength="179" x="1054.5" y="1097.9707">+List&lt;Vehicle&gt; getVehicles()</text><text fill="#000000" font-family="sans-serif" font-size="14" lengthAdjust="spacing" textLength="523" x="1054.5" y="1116.5918">+Optional&lt;Vehicle&gt; createVehicle(String model,String brand, String type, VFM vfm)</text><text fill="#000000" font-family="sans-serif" font-size="14" lengthAdjust="spacing" textLength="237" x="1054.5" y="1135.2129">+boolean addVehicle(Vehicle vehicle)</text><text fill="#000000" font-family="sans-serif" font-size="14" lengthAdjust="spacing" textLength="306" x="1054.5" y="1153.834">+boolean vehiclesDoNotContain(Vehicle vehicle)</text></g><g id="elem_GMN10"><path d="M1360.5,321 L1360.5,339.5 L1325.64,343.5 L1360.5,347.5 L1360.5,365.582 A0,0 0 0 0 1360.5,365.582 L1673.5,365.582 A0,0 0 0 0 1673.5,365.582 L1673.5,331 L1663.5,321 L1360.5,321 A0,0 0 0 0 1360.5,321 " fill="#FEFFDD" style="stroke:#181818;stroke-width:0.5;"/><path d="M1663.5,321 L1663.5,331 L1673.5,331 L1663.5,321 " fill="#FEFFDD" style="stroke:#181818;stroke-width:0.5;"/><text fill="#000000" font-family="sans-serif" font-size="13" lengthAdjust="spacing" textLength="292" x="1366.5" y="340.0283">- Vehicle details are obtained from the VFM's input</text><text fill="#000000" font-family="sans-serif" font-size="13" lengthAdjust="spacing" textLength="192" x="1366.5" y="357.3193">- Updates the Organization's fleet</text></g><g id="elem_GMN13"><path d="M62,321 L62,365.582 A0,0 0 0 0 62,365.582 L330,365.582 A0,0 0 0 0 330,365.582 L330,347.5 L364.64,343.5 L330,339.5 L330,331 L320,321 L62,321 A0,0 0 0 0 62,321 " fill="#FEFFDD" style="stroke:#181818;stroke-width:0.5;"/><path d="M320,321 L320,331 L330,331 L320,321 " fill="#FEFFDD" style="stroke:#181818;stroke-width:0.5;"/><text fill="#000000" font-family="sans-serif" font-size="13" lengthAdjust="spacing" textLength="202" x="68" y="340.0283">- UI for VFM to input vehicle details</text><text fill="#000000" font-family="sans-serif" font-size="13" lengthAdjust="spacing" textLength="247" x="68" y="357.3193">- Communicates with AddVehicleController</text></g><g id="elem_GMN16"><path d="M495,708.5 L495,753.082 L697,753.082 L697,718.5 L687,708.5 L495,708.5 " fill="#FEFFDD" style="stroke:#181818;stroke-width:0.5;"/><path d="M687,708.5 L687,718.5 L697,718.5 L687,708.5 " fill="#FEFFDD" style="stroke:#181818;stroke-width:1.0;"/><text fill="#000000" font-family="sans-serif" font-size="13" lengthAdjust="spacing" textLength="175" x="501" y="727.5283">- Manages the fleet of vehicles</text><text fill="#000000" font-family="sans-serif" font-size="13" lengthAdjust="spacing" textLength="181" x="501" y="744.8193">- Handles organizational details</text></g><g id="elem_GMN19"><path d="M116,45.5 L116,90.082 L412,90.082 L412,55.5 L402,45.5 L116,45.5 " fill="#FEFFDD" style="stroke:#181818;stroke-width:0.5;"/><path d="M402,45.5 L402,55.5 L412,55.5 L402,45.5 " fill="#FEFFDD" style="stroke:#181818;stroke-width:1.0;"/><text fill="#000000" font-family="sans-serif" font-size="13" lengthAdjust="spacing" textLength="275" x="122" y="64.5283">- Responsible for managing vehicle registrations</text><text fill="#000000" font-family="sans-serif" font-size="13" lengthAdjust="spacing" textLength="218" x="122" y="81.8193">- Interfaces with the UI and controllers</text></g><!--link GMN16 to Organization--><g id="link_GMN16_Organization"><path d="M697.05,731 C713.1,731 728.67,731 728.67,731 C728.67,731 729.84,731 731.87,731 " fill="none" id="GMN16-Organization" style="stroke:#181818;stroke-width:1.0;stroke-dasharray:7.0,7.0;"/></g><!--link GMN19 to VehicleFleetManager--><g id="link_GMN19_VehicleFleetManager"><path d="M412.3,68 C428.34,68 441.33,68 441.33,68 C441.33,68 443.39,68 446.88,68 " fill="none" id="GMN19-VehicleFleetManager" style="stroke:#181818;stroke-width:1.0;stroke-dasharray:7.0,7.0;"/></g><!--link VehicleFleetManager to AddVehicleUI--><g id="link_VehicleFleetManager_AddVehicleUI"><path codeLine="109" d="M530,129.02 C530,152.37 530,174.14 530,201.79 " fill="none" id="VehicleFleetManager-to-AddVehicleUI" style="stroke:#181818;stroke-width:1.0;"/><polygon fill="#181818" points="530,207.79,534,198.79,530,202.79,526,198.79,530,207.79" style="stroke:#181818;stroke-width:1.0;"/><text fill="#000000" font-family="sans-serif" font-size="13" lengthAdjust="spacing" textLength="77" x="531" y="174.0283">interacts with</text></g><!--link AddVehicleUI to AddVehicleController--><g id="link_AddVehicleUI_AddVehicleController"><path codeLine="110" d="M695.07,343.5 C731.52,343.5 764.98,343.5 804.12,343.5 " fill="none" id="AddVehicleUI-to-AddVehicleController" style="stroke:#181818;stroke-width:1.0;"/><polygon fill="#181818" points="810.12,343.5,801.12,339.5,805.12,343.5,801.12,347.5,810.12,343.5" style="stroke:#181818;stroke-width:1.0;"/><text fill="#000000" font-family="sans-serif" font-size="13" lengthAdjust="spacing" textLength="79" x="713.25" y="336.5283">sends data to</text></g><!--link AddVehicleController to Repositories--><g id="link_AddVehicleController_Repositories"><path codeLine="111" d="M1068,414.31 C1068,490.58 1068,604.92 1068,672.87 " fill="none" id="AddVehicleController-to-Repositories" style="stroke:#181818;stroke-width:1.0;"/><polygon fill="#181818" points="1068,678.87,1072,669.87,1068,673.87,1064,669.87,1068,678.87" style="stroke:#181818;stroke-width:1.0;"/><text fill="#000000" font-family="sans-serif" font-size="13" lengthAdjust="spacing" textLength="108" x="1069" y="524.0283">retrieves instances</text></g><!--link Repositories to OrganizationRepository--><g id="link_Repositories_OrganizationRepository"><path codeLine="112" d="M1026.83,783.12 C980.06,841.2 907.2233,931.647 854.9733,996.527 " fill="none" id="Repositories-to-OrganizationRepository" style="stroke:#181818;stroke-width:1.0;"/><polygon fill="#181818" points="851.21,1001.2,859.9704,996.6993,854.3461,997.3058,853.7397,991.6816,851.21,1001.2" style="stroke:#181818;stroke-width:1.0;"/><text fill="#000000" font-family="sans-serif" font-size="13" lengthAdjust="spacing" textLength="56" x="900" y="949.0283">accesses</text></g><!--link Organization to Vehicle--><g id="link_Organization_Vehicle"><path codeLine="113" d="M828.18,660.14 C850.55,612.36 876,558 876,558 C876,558 977.5,544 977.5,544 C977.5,544 1000.5,544 1000.5,544 C1000.5,544 1261,558 1261,558 C1261,558 1264.0858,561.9865 1274.5658,575.5165 " fill="none" id="Organization-to-Vehicle" style="stroke:#181818;stroke-width:1.0;"/><polygon fill="#181818" points="1278.24,580.26,1275.8911,570.6954,1275.1782,576.3071,1269.5664,575.5942,1278.24,580.26" style="stroke:#181818;stroke-width:1.0;"/><text fill="#000000" font-family="sans-serif" font-size="13" lengthAdjust="spacing" textLength="21" x="978.5" y="524.0283">has</text></g><!--reverse link Organization to OrganizationRepository--><g id="link_Organization_OrganizationRepository"><path codeLine="114" d="M795,807.83 C795,866.17 795,942.94 795,1001.26 " fill="none" id="Organization-backto-OrganizationRepository" style="stroke:#181818;stroke-width:1.0;stroke-dasharray:7.0,7.0;"/><polygon fill="#181818" points="795,801.83,791,810.83,795,806.83,799,810.83,795,801.83" style="stroke:#181818;stroke-width:1.0;"/><text fill="#000000" font-family="sans-serif" font-size="13" lengthAdjust="spacing" textLength="46" x="796" y="949.0283">persists</text></g><!--link Repositories to VehicleRepository--><g id="link_Repositories_VehicleRepository"><path codeLine="115" d="M1105.4,783.12 C1144.03,835.93 1201.5174,914.5075 1247.9574,977.9875 " fill="none" id="Repositories-to-VehicleRepository" style="stroke:#181818;stroke-width:1.0;"/><polygon fill="#181818" points="1251.5,982.83,1249.4144,973.2045,1248.5478,978.7946,1242.9577,977.928,1251.5,982.83" style="stroke:#181818;stroke-width:1.0;"/><text fill="#000000" font-family="sans-serif" font-size="13" lengthAdjust="spacing" textLength="56" x="1229" y="949.0283">accesses</text></g><!--link VehicleFleetManager to Organization--><g id="link_VehicleFleetManager_Organization"><path codeLine="117" d="M446.59,118.55 C436.13,124.77 429,129 429,129 C429,129 6,208 6,208 C6,208 6,479 6,479 C6,479 715,558 715,558 C715,558 737.7795,606.9797 759.9295,654.5997 " fill="none" id="VehicleFleetManager-to-Organization" style="stroke:#181818;stroke-width:1.0;"/><polygon fill="#181818" points="762.46,660.04,762.2911,650.1926,760.3513,655.5064,755.0374,653.5666,762.46,660.04" style="stroke:#181818;stroke-width:1.0;"/><text fill="#000000" font-family="sans-serif" font-size="13" lengthAdjust="spacing" textLength="36" x="7" y="349.0283">part of</text></g><!--link VehicleFleetManager to Vehicle--><g id="link_VehicleFleetManager_Vehicle"><path codeLine="118" d="M613.03,78.94 C878.76,110.75 1691,208 1691,208 C1691,208 1691,479 1691,479 C1691,479 1598.9661,557.0394 1516.1361,627.2794 " fill="none" id="VehicleFleetManager-to-Vehicle" style="stroke:#181818;stroke-width:1.0;"/><polygon fill="#181818" points="1511.56,631.16,1521.0113,628.3899,1515.3735,627.9262,1515.8372,622.2884,1511.56,631.16" style="stroke:#181818;stroke-width:1.0;"/><text fill="#000000" font-family="sans-serif" font-size="13" lengthAdjust="spacing" textLength="50" x="1692" y="349.0283">registers</text></g><!--link AddVehicleController to Vehicle--><g id="link_AddVehicleController_Vehicle"><path codeLine="120" d="M1130.93,414.11 C1187.25,476.42 1261,558 1261,558 C1261,558 1264.0722,561.9471 1274.5522,575.3971 " fill="none" id="AddVehicleController-to-Vehicle" style="stroke:#181818;stroke-width:1.0;stroke-dasharray:7.0,7.0;"/><polygon fill="#181818" points="1278.24,580.13,1275.8636,570.5721,1275.1668,576.1859,1269.5531,575.4892,1278.24,580.13" style="stroke:#181818;stroke-width:1.0;"/><text fill="#000000" font-family="sans-serif" font-size="13" lengthAdjust="spacing" textLength="43" x="1233" y="524.0283">creates</text></g><!--link AddVehicleController to Organization--><g id="link_AddVehicleController_Organization"><path codeLine="121" d="M985.16,414.02 C931.67,458.92 872,509 872,509 C872,509 843.8041,589.934 821.2341,654.714 " fill="none" id="AddVehicleController-to-Organization" style="stroke:#181818;stroke-width:1.0;stroke-dasharray:7.0,7.0;"/><polygon fill="#181818" points="819.26,660.38,825.9984,653.1971,820.9051,655.6584,818.4438,650.565,819.26,660.38" style="stroke:#181818;stroke-width:1.0;"/><text fill="#000000" font-family="sans-serif" font-size="13" lengthAdjust="spacing" textLength="96" x="873" y="524.0283">updates vehicles</text></g><!--SRC=[fLPBRziu4BxxL_1M1Os3FHkB0cbIRut6RP5isZCjZMsY5AcIb0ktw7_V6OgII5bI4Up1WCLvVVFDWtnblmbLSSDBLcgbywFH9J1dQbZqaehdt_W1djnP0ZEGEwuECbQmHrxe7q8Ts9vB6qkaKE3E5R1AopDzHB9SScjldJDYLplOv5ezYP_0_beil8HzWQF89QmbWDjoXGWC-xLWRCcUq0Q3ALv2_0qb5p8-gBGLJcZbpuHoh3fgXF1x427rkZDS5V51gGj8t592_ljUrpiqTzp0Ln27eujF3qPR6nrJ_Bms1fJxKFgJ1vrpUSyTaNeGre6XZu68vzzhqQJHISaLvgeSAAvoM1luNeFApqdk4hK_rkKEpC0ZfevyTjR1wsjsub8K-15OoTfi3HVkQbIZzpcZH61dn2s7lKQ8Um0NT7RdptqosHNLBnJmapbm9NvoOcU-DqxSHMI4GruK1gnDQFCTSj5KlySYFe9lC6tEFlPhzgcYOox_ZhNUK2RnmTlp-yTjXZzsDENLYmo_hBSP_jXf_q93ZFQE4idYh6PT83TPGg-EFXhBdTOIkEfA6glFsNPaTWGAi872v0ZJs2Zhg4kp07QS_a6-lIIOXKPABIuEimZQRL44-PrMpcWfm_PvWRF_0VYsTaTS528VCPoIPODw1aY-b8EPzYljEbvurz5kksP9Zz47PRZUhl5sUCA1eVgESlMy2HoDqeTE-gyi6NQ_mMpBufRWpIcy9SXp2lzY6a5UD0jc8EzMzfpMF_qAdrExQxTwK8htUgpt66tvFwZUfbi_QDCg7J0rSWjysCunawxIEGmFb_T4NFNBCMWMy0FcsFVUgVbZuycPNEsNLzVueccxkVKNWeHqalXzA3iv7xc1osjlP4JOz8oq2ADH6mNNPH8mtUkFsWy5ydnfWLmhJNMX3cHwFpfMdlJMj03q92t3zcPwHrwXO7iSMuOxWo2_ijX5LTqyIPuhOjDwMRoEK6bFhwu5g88HWe13mdu0utdJEDgmlJQU4gUR06qMBIIlTwVBibQqkJ3g3-6EunbDX8qXUdVDgx31xm6JLjHnI_OUwuR_amk8omxJHA2HbwVtzWYsqieAMW6KRqao_xe8kJRlEEF3D00sE3vcp_CsNuAAR24ibdS9nq36NhrBV5shvPjqqQve7O3XkMjSBnBfqlTCOXDjuXMp6D4oB3_7YYr6bTgeoPMymXnn2k04r4ZDtMmNYKfhDt7rhV19YpOMpP8tGeUuxUKLE_9K9_9oGxMwIOEWHOLaOWKc45skh0ZCBFF3CDnGeyoQz6cqhtkCCKhqpKsitMmZEwqwm5A78Uxw_Zy0]--></g></svg>