<?xml version="1.0" encoding="us-ascii" standalone="no"?><svg xmlns="http://www.w3.org/2000/svg" xmlns:xlink="http://www.w3.org/1999/xlink" contentStyleType="text/css" height="920px" preserveAspectRatio="none" style="width:3826px;height:920px;background:#FFFFFF;" version="1.1" viewBox="0 0 3826 920" width="3826px" zoomAndPan="magnify"><defs/><g><rect fill="#FFFFFF" height="726.0723" style="stroke:#181818;stroke-width:1.0;" width="10" x="123.5" y="93.6211"/><rect fill="#FFFFFF" height="217.3672" style="stroke:#181818;stroke-width:1.0;" width="10" x="789.5" y="116.9121"/><rect fill="#FFFFFF" height="31.291" style="stroke:#181818;stroke-width:1.0;" width="10" x="789.5" y="365.5703"/><rect fill="#FFFFFF" height="391.541" style="stroke:#181818;stroke-width:1.0;" width="10" x="789.5" y="428.1523"/><rect fill="#FFFFFF" height="127.4941" style="stroke:#181818;stroke-width:1.0;" width="10" x="2232.5" y="158.2031"/><rect fill="#FFFFFF" height="328.959" style="stroke:#181818;stroke-width:1.0;" width="10" x="2232.5" y="459.4434"/><rect fill="#FFFFFF" height="90.543" style="stroke:#181818;stroke-width:1.0;" width="10" x="2237.5" y="523.7344"/><rect fill="#FFFFFF" height="31.291" style="stroke:#181818;stroke-width:1.0;" width="10" x="2405.5" y="191.8242"/><rect fill="#FFFFFF" height="31.291" style="stroke:#181818;stroke-width:1.0;" width="10" x="2512.5" y="254.4063"/><rect fill="#FFFFFF" height="79.543" style="stroke:#181818;stroke-width:1.0;" width="10" x="3675.5" y="677.5684"/><line style="stroke:#181818;stroke-width:0.5;stroke-dasharray:5.0,5.0;" x1="128" x2="128" y1="83.6211" y2="837.6934"/><line style="stroke:#181818;stroke-width:0.5;stroke-dasharray:5.0,5.0;" x1="794" x2="794" y1="83.6211" y2="837.6934"/><line style="stroke:#181818;stroke-width:0.5;stroke-dasharray:5.0,5.0;" x1="2237" x2="2237" y1="156.7227" y2="837.6934"/><line style="stroke:#181818;stroke-width:0.5;stroke-dasharray:5.0,5.0;" x1="2410" x2="2410" y1="83.6211" y2="837.6934"/><line style="stroke:#181818;stroke-width:0.5;stroke-dasharray:5.0,5.0;" x1="2517" x2="2517" y1="83.6211" y2="837.6934"/><line style="stroke:#181818;stroke-width:0.5;stroke-dasharray:5.0,5.0;" x1="3680.5" x2="3680.5" y1="83.6211" y2="837.6934"/><line style="stroke:#181818;stroke-width:0.5;stroke-dasharray:5.0,5.0;" x1="3788.5" x2="3788.5" y1="83.6211" y2="837.6934"/><text fill="#000000" font-family="sans-serif" font-size="14" lengthAdjust="spacing" textLength="241" x="5" y="80.1074">Vehicle and Equipment Fleet Maneger</text><ellipse cx="128.5" cy="13.5" fill="#E3E3E3" rx="8" ry="8" style="stroke:#181818;stroke-width:0.5;"/><path d="M128.5,21.5 L128.5,48.5 M115.5,29.5 L141.5,29.5 M128.5,48.5 L115.5,63.5 M128.5,48.5 L141.5,63.5 " fill="none" style="stroke:#181818;stroke-width:0.5;"/><text fill="#000000" font-family="sans-serif" font-size="14" lengthAdjust="spacing" textLength="241" x="5" y="851.8008">Vehicle and Equipment Fleet Maneger</text><ellipse cx="128.5" cy="863.8145" fill="#E3E3E3" rx="8" ry="8" style="stroke:#181818;stroke-width:0.5;"/><path d="M128.5,871.8145 L128.5,898.8145 M115.5,879.8145 L141.5,879.8145 M128.5,898.8145 L115.5,913.8145 M128.5,898.8145 L141.5,913.8145 " fill="none" style="stroke:#181818;stroke-width:0.5;"/><rect fill="#E3E3E3" height="32.6211" rx="2.5" ry="2.5" style="stroke:#181818;stroke-width:0.5;" width="101" x="744" y="50"/><text fill="#000000" font-family="sans-serif" font-size="14" lengthAdjust="spacing" textLength="87" x="751" y="72.1074">:AddVehicleUI</text><rect fill="#E3E3E3" height="32.6211" rx="2.5" ry="2.5" style="stroke:#181818;stroke-width:0.5;" width="101" x="744" y="836.6934"/><text fill="#000000" font-family="sans-serif" font-size="14" lengthAdjust="spacing" textLength="87" x="751" y="858.8008">:AddVehicleUI</text><rect fill="#E3E3E3" height="32.6211" rx="2.5" ry="2.5" style="stroke:#181818;stroke-width:0.5;" width="151" x="2162" y="836.6934"/><text fill="#000000" font-family="sans-serif" font-size="14" lengthAdjust="spacing" textLength="137" x="2169" y="858.8008">:AddVehicleController</text><rect fill="#E3E3E3" height="32.6211" rx="2.5" ry="2.5" style="stroke:#181818;stroke-width:0.5;" width="97" x="2362" y="50"/><text fill="#000000" font-family="sans-serif" font-size="14" lengthAdjust="spacing" textLength="83" x="2369" y="72.1074">:Repositories</text><rect fill="#E3E3E3" height="32.6211" rx="2.5" ry="2.5" style="stroke:#181818;stroke-width:0.5;" width="97" x="2362" y="836.6934"/><text fill="#000000" font-family="sans-serif" font-size="14" lengthAdjust="spacing" textLength="83" x="2369" y="858.8008">:Repositories</text><rect fill="#E3E3E3" height="51.2422" rx="2.5" ry="2.5" style="stroke:#181818;stroke-width:0.5;" width="97" x="2469" y="31.3789"/><text fill="#000000" font-family="sans-serif" font-size="14" lengthAdjust="spacing" textLength="74" x="2480.5" y="53.4863">repositories</text><text fill="#000000" font-family="sans-serif" font-size="14" lengthAdjust="spacing" textLength="83" x="2476" y="72.1074">:Repositories</text><rect fill="#E3E3E3" height="51.2422" rx="2.5" ry="2.5" style="stroke:#181818;stroke-width:0.5;" width="97" x="2469" y="836.6934"/><text fill="#000000" font-family="sans-serif" font-size="14" lengthAdjust="spacing" textLength="74" x="2480.5" y="858.8008">repositories</text><text fill="#000000" font-family="sans-serif" font-size="14" lengthAdjust="spacing" textLength="83" x="2476" y="877.4219">:Repositories</text><rect fill="#E3E3E3" height="51.2422" rx="2.5" ry="2.5" style="stroke:#181818;stroke-width:0.5;" width="132" x="3614.5" y="31.3789"/><text fill="#000000" font-family="sans-serif" font-size="14" lengthAdjust="spacing" textLength="112" x="3624.5" y="53.4863">vehicleRepository</text><text fill="#000000" font-family="sans-serif" font-size="14" lengthAdjust="spacing" textLength="118" x="3621.5" y="72.1074">:VehicleRepository</text><rect fill="#E3E3E3" height="51.2422" rx="2.5" ry="2.5" style="stroke:#181818;stroke-width:0.5;" width="132" x="3614.5" y="836.6934"/><text fill="#000000" font-family="sans-serif" font-size="14" lengthAdjust="spacing" textLength="112" x="3624.5" y="858.8008">vehicleRepository</text><text fill="#000000" font-family="sans-serif" font-size="14" lengthAdjust="spacing" textLength="118" x="3621.5" y="877.4219">:VehicleRepository</text><rect fill="#E3E3E3" height="51.2422" rx="2.5" ry="2.5" style="stroke:#181818;stroke-width:0.5;" width="64" x="3756.5" y="31.3789"/><text fill="#000000" font-family="sans-serif" font-size="14" lengthAdjust="spacing" textLength="44" x="3766.5" y="53.4863">vehicle</text><text fill="#000000" font-family="sans-serif" font-size="14" lengthAdjust="spacing" textLength="50" x="3763.5" y="72.1074">:Vehicle</text><rect fill="#E3E3E3" height="51.2422" rx="2.5" ry="2.5" style="stroke:#181818;stroke-width:0.5;" width="64" x="3756.5" y="836.6934"/><text fill="#000000" font-family="sans-serif" font-size="14" lengthAdjust="spacing" textLength="44" x="3766.5" y="858.8008">vehicle</text><text fill="#000000" font-family="sans-serif" font-size="14" lengthAdjust="spacing" textLength="50" x="3763.5" y="877.4219">:Vehicle</text><rect fill="#FFFFFF" height="726.0723" style="stroke:#181818;stroke-width:1.0;" width="10" x="123.5" y="93.6211"/><rect fill="#FFFFFF" height="217.3672" style="stroke:#181818;stroke-width:1.0;" width="10" x="789.5" y="116.9121"/><rect fill="#FFFFFF" height="31.291" style="stroke:#181818;stroke-width:1.0;" width="10" x="789.5" y="365.5703"/><rect fill="#FFFFFF" height="391.541" style="stroke:#181818;stroke-width:1.0;" width="10" x="789.5" y="428.1523"/><rect fill="#FFFFFF" height="127.4941" style="stroke:#181818;stroke-width:1.0;" width="10" x="2232.5" y="158.2031"/><rect fill="#FFFFFF" height="328.959" style="stroke:#181818;stroke-width:1.0;" width="10" x="2232.5" y="459.4434"/><rect fill="#FFFFFF" height="90.543" style="stroke:#181818;stroke-width:1.0;" width="10" x="2237.5" y="523.7344"/><rect fill="#FFFFFF" height="31.291" style="stroke:#181818;stroke-width:1.0;" width="10" x="2405.5" y="191.8242"/><rect fill="#FFFFFF" height="31.291" style="stroke:#181818;stroke-width:1.0;" width="10" x="2512.5" y="254.4063"/><rect fill="#FFFFFF" height="79.543" style="stroke:#181818;stroke-width:1.0;" width="10" x="3675.5" y="677.5684"/><polygon fill="#181818" points="777.5,112.9121,787.5,116.9121,777.5,120.9121,781.5,116.9121" style="stroke:#181818;stroke-width:1.0;"/><line style="stroke:#181818;stroke-width:1.0;" x1="133.5" x2="783.5" y1="116.9121" y2="116.9121"/><text fill="#000000" font-family="sans-serif" font-size="13" font-weight="bold" lengthAdjust="spacing" textLength="7" x="140.5" y="111.6494">1</text><text fill="#000000" font-family="sans-serif" font-size="13" lengthAdjust="spacing" textLength="144" x="151.5" y="111.6494">asks to register a vehicle</text><polygon fill="#181818" points="2150,144.2031,2160,148.2031,2150,152.2031,2154,148.2031" style="stroke:#181818;stroke-width:1.0;"/><line style="stroke:#181818;stroke-width:1.0;" x1="799.5" x2="2156" y1="148.2031" y2="148.2031"/><text fill="#000000" font-family="sans-serif" font-size="13" font-weight="bold" lengthAdjust="spacing" textLength="7" x="806.5" y="142.9404">2</text><text fill="#000000" font-family="sans-serif" font-size="13" lengthAdjust="spacing" textLength="36" x="817.5" y="142.9404">create</text><rect fill="#E3E3E3" height="32.6211" rx="2.5" ry="2.5" style="stroke:#181818;stroke-width:0.5;" width="151" x="2162" y="124.9121"/><text fill="#000000" font-family="sans-serif" font-size="14" lengthAdjust="spacing" textLength="137" x="2169" y="147.0195">:AddVehicleController</text><polygon fill="#181818" points="2393.5,187.8242,2403.5,191.8242,2393.5,195.8242,2397.5,191.8242" style="stroke:#181818;stroke-width:1.0;"/><line style="stroke:#181818;stroke-width:1.0;" x1="2242.5" x2="2399.5" y1="191.8242" y2="191.8242"/><text fill="#000000" font-family="sans-serif" font-size="13" font-weight="bold" lengthAdjust="spacing" textLength="7" x="2249.5" y="186.5615">3</text><text fill="#000000" font-family="sans-serif" font-size="13" lengthAdjust="spacing" textLength="75" x="2260.5" y="186.5615">getInstance()</text><polygon fill="#181818" points="2253.5,219.1152,2243.5,223.1152,2253.5,227.1152,2249.5,223.1152" style="stroke:#181818;stroke-width:1.0;"/><line style="stroke:#181818;stroke-width:1.0;stroke-dasharray:2.0,2.0;" x1="2247.5" x2="2409.5" y1="223.1152" y2="223.1152"/><text fill="#000000" font-family="sans-serif" font-size="13" font-weight="bold" lengthAdjust="spacing" textLength="7" x="2259.5" y="217.8525">4</text><text fill="#000000" font-family="sans-serif" font-size="13" lengthAdjust="spacing" textLength="67" x="2270.5" y="217.8525">repositories</text><polygon fill="#181818" points="2500.5,250.4063,2510.5,254.4063,2500.5,258.4063,2504.5,254.4063" style="stroke:#181818;stroke-width:1.0;"/><line style="stroke:#181818;stroke-width:1.0;" x1="2242.5" x2="2506.5" y1="254.4063" y2="254.4063"/><text fill="#000000" font-family="sans-serif" font-size="13" font-weight="bold" lengthAdjust="spacing" textLength="7" x="2249.5" y="249.1436">5</text><text fill="#000000" font-family="sans-serif" font-size="13" lengthAdjust="spacing" textLength="131" x="2260.5" y="249.1436">getVehicleRepository()</text><polygon fill="#181818" points="2248.5,281.6973,2238.5,285.6973,2248.5,289.6973,2244.5,285.6973" style="stroke:#181818;stroke-width:1.0;"/><line style="stroke:#181818;stroke-width:1.0;" x1="2242.5" x2="2516.5" y1="285.6973" y2="285.6973"/><text fill="#000000" font-family="sans-serif" font-size="13" font-weight="bold" lengthAdjust="spacing" textLength="7" x="2254.5" y="280.4346">6</text><text fill="#000000" font-family="sans-serif" font-size="13" lengthAdjust="spacing" textLength="101" x="2265.5" y="280.4346">vehicleRepository</text><polygon fill="#181818" points="144.5,330.2793,134.5,334.2793,144.5,338.2793,140.5,334.2793" style="stroke:#181818;stroke-width:1.0;"/><line style="stroke:#181818;stroke-width:1.0;stroke-dasharray:2.0,2.0;" x1="138.5" x2="793.5" y1="334.2793" y2="334.2793"/><text fill="#000000" font-family="sans-serif" font-size="13" font-weight="bold" lengthAdjust="spacing" textLength="7" x="150.5" y="320.3711">7</text><text fill="#000000" font-family="sans-serif" font-size="13" lengthAdjust="spacing" textLength="399" x="161.5" y="311.7256">requests data (Brand, Model, Type, Tare, Gross Weight, Current Km,</text><text fill="#000000" font-family="sans-serif" font-size="13" lengthAdjust="spacing" textLength="621" x="161.5" y="329.0166">Register Date, Acquisition Date, Maintenance/Check-up Frequency, Plate Number, Last Maintenance Date)</text><polygon fill="#181818" points="777.5,361.5703,787.5,365.5703,777.5,369.5703,781.5,365.5703" style="stroke:#181818;stroke-width:1.0;"/><line style="stroke:#181818;stroke-width:1.0;" x1="133.5" x2="783.5" y1="365.5703" y2="365.5703"/><text fill="#000000" font-family="sans-serif" font-size="13" font-weight="bold" lengthAdjust="spacing" textLength="7" x="140.5" y="360.3076">8</text><text fill="#000000" font-family="sans-serif" font-size="13" lengthAdjust="spacing" textLength="122" x="151.5" y="360.3076">types requested data</text><polygon fill="#181818" points="144.5,392.8613,134.5,396.8613,144.5,400.8613,140.5,396.8613" style="stroke:#181818;stroke-width:1.0;"/><line style="stroke:#181818;stroke-width:1.0;stroke-dasharray:2.0,2.0;" x1="138.5" x2="793.5" y1="396.8613" y2="396.8613"/><text fill="#000000" font-family="sans-serif" font-size="13" font-weight="bold" lengthAdjust="spacing" textLength="7" x="150.5" y="391.5986">9</text><text fill="#000000" font-family="sans-serif" font-size="13" lengthAdjust="spacing" textLength="236" x="161.5" y="391.5986">shows all data and requests confirmation</text><polygon fill="#181818" points="777.5,424.1523,787.5,428.1523,777.5,432.1523,781.5,428.1523" style="stroke:#181818;stroke-width:1.0;"/><line style="stroke:#181818;stroke-width:1.0;" x1="133.5" x2="783.5" y1="428.1523" y2="428.1523"/><text fill="#000000" font-family="sans-serif" font-size="13" font-weight="bold" lengthAdjust="spacing" textLength="14" x="140.5" y="422.8896">10</text><text fill="#000000" font-family="sans-serif" font-size="13" lengthAdjust="spacing" textLength="78" x="158.5" y="422.8896">confirms data</text><polygon fill="#181818" points="2220.5,455.4434,2230.5,459.4434,2220.5,463.4434,2224.5,459.4434" style="stroke:#181818;stroke-width:1.0;"/><line style="stroke:#181818;stroke-width:1.0;" x1="799.5" x2="2226.5" y1="459.4434" y2="459.4434"/><text fill="#000000" font-family="sans-serif" font-size="13" font-weight="bold" lengthAdjust="spacing" textLength="14" x="806.5" y="454.1807">11</text><text fill="#000000" font-family="sans-serif" font-size="13" lengthAdjust="spacing" textLength="1396" x="824.5" y="454.1807">addVehicle(vehicleModel,vehicleBrand,vehicleType, vehicleTareWeight, vehicleGrossWeight, vehicleCurrentKm, vehicleRegisterDate, vehicleAcquisitionDate, vehicleMaintenanceFrequencyKm, vehiclePlateNumber, vehicleLastMaintenanceDate)</text><line style="stroke:#181818;stroke-width:1.0;" x1="2242.5" x2="2289.5" y1="510.7344" y2="510.7344"/><line style="stroke:#181818;stroke-width:1.0;" x1="2289.5" x2="2289.5" y1="510.7344" y2="523.7344"/><line style="stroke:#181818;stroke-width:1.0;" x1="2248.5" x2="2289.5" y1="523.7344" y2="523.7344"/><polygon fill="#181818" points="2258.5,519.7344,2248.5,523.7344,2258.5,527.7344,2254.5,523.7344" style="stroke:#181818;stroke-width:1.0;"/><text fill="#000000" font-family="sans-serif" font-size="13" font-weight="bold" lengthAdjust="spacing" textLength="14" x="2254.5" y="505.4717">12</text><text fill="#000000" font-family="sans-serif" font-size="13" lengthAdjust="spacing" textLength="131" x="2272.5" y="505.4717">getVFMFromSession()</text><rect fill="none" height="43.252" style="stroke:#000000;stroke-width:1.5;" width="157" x="2159" y="536.7344"/><path d="M2159,536.7344 L2221,536.7344 L2221,545.7344 L2211,555.7344 L2159,555.7344 L2159,536.7344 " fill="#EEEEEE" style="stroke:#000000;stroke-width:2.0;"/><text fill="#000000" font-family="sans-serif" font-size="13" font-weight="bold" lengthAdjust="spacing" textLength="17" x="2172" y="552.7627">ref</text><text fill="#000000" font-family="sans-serif" font-size="12" lengthAdjust="spacing" textLength="45" x="2215" y="572.6836">Get VFM</text><line style="stroke:#181818;stroke-width:1.0;stroke-dasharray:2.0,2.0;" x1="2247.5" x2="2289.5" y1="613.2773" y2="613.2773"/><line style="stroke:#181818;stroke-width:1.0;stroke-dasharray:2.0,2.0;" x1="2289.5" x2="2289.5" y1="613.2773" y2="626.2773"/><line style="stroke:#181818;stroke-width:1.0;stroke-dasharray:2.0,2.0;" x1="2242.5" x2="2289.5" y1="626.2773" y2="626.2773"/><polygon fill="#181818" points="2252.5,622.2773,2242.5,626.2773,2252.5,630.2773,2248.5,626.2773" style="stroke:#181818;stroke-width:1.0;"/><text fill="#000000" font-family="sans-serif" font-size="13" font-weight="bold" lengthAdjust="spacing" textLength="14" x="2254.5" y="608.0146">13</text><text fill="#000000" font-family="sans-serif" font-size="13" lengthAdjust="spacing" textLength="19" x="2272.5" y="608.0146">vfm</text><polygon fill="#181818" points="3663.5,673.5684,3673.5,677.5684,3663.5,681.5684,3667.5,677.5684" style="stroke:#181818;stroke-width:1.0;"/><line style="stroke:#181818;stroke-width:1.0;" x1="2242.5" x2="3669.5" y1="677.5684" y2="677.5684"/><text fill="#000000" font-family="sans-serif" font-size="13" font-weight="bold" lengthAdjust="spacing" textLength="14" x="2249.5" y="672.3057">14</text><text fill="#000000" font-family="sans-serif" font-size="13" lengthAdjust="spacing" textLength="1396" x="2267.5" y="672.3057">addVehicle(vehicleModel,vehicleBrand,vehicleType, vehicleTareWeight, vehicleGrossWeight, vehicleCurrentKm, vehicleRegisterDate, vehicleAcquisitionDate, vehicleMaintenanceFrequencyKm, vehiclePlateNumber, vehicleLastMaintenanceDate)</text><rect fill="none" height="43.252" style="stroke:#000000;stroke-width:1.5;" width="138" x="3611.5" y="685.5684"/><path d="M3611.5,685.5684 L3673.5,685.5684 L3673.5,694.5684 L3663.5,704.5684 L3611.5,704.5684 L3611.5,685.5684 " fill="#EEEEEE" style="stroke:#000000;stroke-width:2.0;"/><text fill="#000000" font-family="sans-serif" font-size="13" font-weight="bold" lengthAdjust="spacing" textLength="17" x="3624.5" y="701.5967">ref</text><text fill="#000000" font-family="sans-serif" font-size="12" lengthAdjust="spacing" textLength="80" x="3640.5" y="721.5176">Create Vehicle</text><polygon fill="#181818" points="2253.5,753.1113,2243.5,757.1113,2253.5,761.1113,2249.5,757.1113" style="stroke:#181818;stroke-width:1.0;"/><line style="stroke:#181818;stroke-width:1.0;stroke-dasharray:2.0,2.0;" x1="2247.5" x2="3679.5" y1="757.1113" y2="757.1113"/><text fill="#000000" font-family="sans-serif" font-size="13" font-weight="bold" lengthAdjust="spacing" textLength="14" x="2259.5" y="751.8486">15</text><text fill="#000000" font-family="sans-serif" font-size="13" lengthAdjust="spacing" textLength="39" x="2277.5" y="751.8486">vehicle</text><polygon fill="#181818" points="810.5,784.4023,800.5,788.4023,810.5,792.4023,806.5,788.4023" style="stroke:#181818;stroke-width:1.0;"/><line style="stroke:#181818;stroke-width:1.0;stroke-dasharray:2.0,2.0;" x1="804.5" x2="2236.5" y1="788.4023" y2="788.4023"/><text fill="#000000" font-family="sans-serif" font-size="13" font-weight="bold" lengthAdjust="spacing" textLength="14" x="816.5" y="783.1396">16</text><text fill="#000000" font-family="sans-serif" font-size="13" lengthAdjust="spacing" textLength="39" x="834.5" y="783.1396">vehicle</text><polygon fill="#181818" points="139.5,815.6934,129.5,819.6934,139.5,823.6934,135.5,819.6934" style="stroke:#181818;stroke-width:1.0;"/><line style="stroke:#181818;stroke-width:1.0;stroke-dasharray:2.0,2.0;" x1="133.5" x2="793.5" y1="819.6934" y2="819.6934"/><text fill="#000000" font-family="sans-serif" font-size="13" font-weight="bold" lengthAdjust="spacing" textLength="14" x="145.5" y="814.4307">17</text><text fill="#000000" font-family="sans-serif" font-size="13" lengthAdjust="spacing" textLength="158" x="163.5" y="814.4307">displays operation success</text><!--SRC=[vLPBRzim3BxxLn2zz047k-TG84kR8bYo5McINNfHPIOMOakk9BSBq1y_obOSlzgbw74w1155VYBvaRJCJiYCQPP2ggJYiLOfWjKv1gOwoHZViIq-s7s2e95R9hT9NS74B5AlGcvXmnA3GS1ogsIUFg4EWlDOH0WRfUoJ-XCmRfM6ipN6WXCQan7SFkSYIr5Qc2I85kPCuXRr6J03evjvG7TOmKN6IEDiE8eYRxoQ5YghwRiQOoMjLadYmSRBnQobky1C6K4k2JI5JYNOFmWN9SNnPHDTitYKNO3xsMZPj7Wf_JyYazcwBIjirujUowD-gNKx7QzclmANVl72B1Q93S0lsi3WcZ89GzBU6R2AUDuAOr430uzvrAzGAFV1ETGMGGm8oG4E2U8vHsCDHCmokD2uGOsIOmWH6gv5PeMI8O2G6wLJbi2ZR9vOvB4Kd4uQuYZNhFp7bR6NGTs1SwxHULPmtVRikX1VNP5lfLf3euggi6qSrPSxTL0zj1Fk5krK6keGZXUNxsAqLtLrNosTZE9MdrS37xXZv5Xw9yD6-0Nt3jboDLwcfrF7f-QfygBebt_R55VwqEdgJay5ducykFCp1jqY-gWtlckQX27CLOH92CjzHasoP9f-xxGo1dwZsCOsX76kjPkKFzAGkcLnwD4RkZ644QT9Ih5HQtZ9d0bfKRfg_3QEaUy6UGQJucx9zo7S9yxLdyMa3c76ZAsR5217Sch1kRvl3mvBJfj3N1WLWGMTQT6R31EhLmCiISfik8z2bH-kv4RGT71H1IUuuVND2VTNfS6gByQ5hvAI2ByfoV6Rafl3XYWwKED51LyjcMVDaLPLOSbSIPCNrlXho6kKLDpLi0eI3nnwcQEoPjOaibMZZI9zUtiB-lhNPyhrxsG-eLV20nf3ZhQQzuFof_4FweMAjJEQx-YZJwWD6Sges-AbCxMMtgJ1oUttNcJhnNzN00scw0NHINJ55HrsI2W_i3vVdUDUujQB1ctjzqIBkxP75UshwT7u8zxxf-uG8c6oXEqDg0pB9mIOd7EgvBx9Kjkwrz9V]--></g></svg>