<?xml version="1.0" encoding="us-ascii" standalone="no"?><svg xmlns="http://www.w3.org/2000/svg" xmlns:xlink="http://www.w3.org/1999/xlink" contentStyleType="text/css" height="380px" preserveAspectRatio="none" style="width:2309px;height:380px;background:#FFFFFF;" version="1.1" viewBox="0 0 2309 380" width="2309px" zoomAndPan="magnify"><defs/><g><rect fill="#FFFFFF" height="215.4063" style="stroke:#181818;stroke-width:1.0;" width="10" x="1442" y="90.5332"/><rect fill="#FFFFFF" height="85.2422" style="stroke:#181818;stroke-width:1.0;" width="10" x="1447" y="175.4063"/><rect fill="none" height="170.1152" style="stroke:#000000;stroke-width:1.5;" width="932" x="1371" y="105.5332"/><line style="stroke:#181818;stroke-width:0.5;stroke-dasharray:5.0,5.0;" x1="1447" x2="1447" y1="57.2422" y2="323.9395"/><line style="stroke:#181818;stroke-width:0.5;stroke-dasharray:5.0,5.0;" x1="2261" x2="2261" y1="165.9453" y2="323.9395"/><rect fill="#E3E3E3" height="51.2422" rx="2.5" ry="2.5" style="stroke:#181818;stroke-width:0.5;" width="132" x="1381" y="5"/><text fill="#000000" font-family="sans-serif" font-size="14" lengthAdjust="spacing" textLength="112" x="1391" y="27.1074">vehicleRepository</text><text fill="#000000" font-family="sans-serif" font-size="14" lengthAdjust="spacing" textLength="118" x="1388" y="45.7285">:VehicleRepository</text><rect fill="#E3E3E3" height="51.2422" rx="2.5" ry="2.5" style="stroke:#181818;stroke-width:0.5;" width="132" x="1381" y="322.9395"/><text fill="#000000" font-family="sans-serif" font-size="14" lengthAdjust="spacing" textLength="112" x="1391" y="345.0469">vehicleRepository</text><text fill="#000000" font-family="sans-serif" font-size="14" lengthAdjust="spacing" textLength="118" x="1388" y="363.668">:VehicleRepository</text><rect fill="#E3E3E3" height="51.2422" rx="2.5" ry="2.5" style="stroke:#181818;stroke-width:0.5;" width="64" x="2229" y="322.9395"/><text fill="#000000" font-family="sans-serif" font-size="14" lengthAdjust="spacing" textLength="44" x="2239" y="345.0469">vehicle</text><text fill="#000000" font-family="sans-serif" font-size="14" lengthAdjust="spacing" textLength="50" x="2236" y="363.668">:Vehicle</text><rect fill="#FFFFFF" height="215.4063" style="stroke:#181818;stroke-width:1.0;" width="10" x="1442" y="90.5332"/><rect fill="#FFFFFF" height="85.2422" style="stroke:#181818;stroke-width:1.0;" width="10" x="1447" y="175.4063"/><polygon fill="#181818" points="1430,86.5332,1440,90.5332,1430,94.5332,1434,90.5332" style="stroke:#181818;stroke-width:1.0;"/><line style="stroke:#181818;stroke-width:1.0;" x1="0" x2="1436" y1="90.5332" y2="90.5332"/><text fill="#000000" font-family="sans-serif" font-size="13" lengthAdjust="spacing" textLength="1423" x="7" y="85.2705">addVehicle(vehicleModel,vehicleBrand,vehicleType, vehicleTareWeight, vehicleGrossWeight, vehicleCurrentKm, vehicleRegisterDate, vehicleAcquisitionDate, vehicleMaintenanceFrequencyKm, vehiclePlateNumber, vehicleLastMaintenanceDate, vfm)</text><path d="M1371,105.5332 L1510,105.5332 L1510,114.8242 L1500,124.8242 L1371,124.8242 L1371,105.5332 " fill="#EEEEEE" style="stroke:#000000;stroke-width:1.5;"/><rect fill="none" height="170.1152" style="stroke:#000000;stroke-width:1.5;" width="932" x="1371" y="105.5332"/><text fill="#000000" font-family="sans-serif" font-size="13" font-weight="bold" lengthAdjust="spacing" textLength="94" x="1386" y="120.5615">Create Vehicle</text><polygon fill="#181818" points="2217,161.4063,2227,165.4063,2217,169.4063,2221,165.4063" style="stroke:#181818;stroke-width:1.0;"/><line style="stroke:#181818;stroke-width:1.0;" x1="1452" x2="2223" y1="165.4063" y2="165.4063"/><text fill="#000000" font-family="sans-serif" font-size="13" lengthAdjust="spacing" textLength="654" x="1459" y="142.8525">createVehicle(vehicleModel,vehicleBrand,vehicleType, vehicleTareWeight, vehicleGrossWeight, vehicleCurrentKm,</text><text fill="#000000" font-family="sans-serif" font-size="13" lengthAdjust="spacing" textLength="753" x="1459" y="160.1436">vehicleRegisterDate, vehicleAcquisitionDate, vehicleMaintenanceFrequencyKm, vehiclePlateNumber, vehicleLastMaintenanceDate)</text><rect fill="#E3E3E3" height="51.2422" rx="2.5" ry="2.5" style="stroke:#181818;stroke-width:0.5;" width="64" x="2229" y="124.8242"/><text fill="#000000" font-family="sans-serif" font-size="14" lengthAdjust="spacing" textLength="44" x="2239" y="146.9316">vehicle</text><text fill="#000000" font-family="sans-serif" font-size="14" lengthAdjust="spacing" textLength="50" x="2236" y="165.5527">:Vehicle</text><line style="stroke:#181818;stroke-width:1.0;" x1="1457" x2="1499" y1="210.3574" y2="210.3574"/><line style="stroke:#181818;stroke-width:1.0;" x1="1499" x2="1499" y1="210.3574" y2="223.3574"/><line style="stroke:#181818;stroke-width:1.0;" x1="1458" x2="1499" y1="223.3574" y2="223.3574"/><polygon fill="#181818" points="1468,219.3574,1458,223.3574,1468,227.3574,1464,223.3574" style="stroke:#181818;stroke-width:1.0;"/><text fill="#000000" font-family="sans-serif" font-size="13" lengthAdjust="spacing" textLength="133" x="1464" y="205.0947">validateVehicle(vehicle)</text><line style="stroke:#181818;stroke-width:1.0;" x1="1457" x2="1499" y1="259.6484" y2="259.6484"/><line style="stroke:#181818;stroke-width:1.0;" x1="1499" x2="1499" y1="259.6484" y2="272.6484"/><line style="stroke:#181818;stroke-width:1.0;" x1="1452" x2="1499" y1="272.6484" y2="272.6484"/><polygon fill="#181818" points="1462,268.6484,1452,272.6484,1462,276.6484,1458,272.6484" style="stroke:#181818;stroke-width:1.0;"/><text fill="#000000" font-family="sans-serif" font-size="13" lengthAdjust="spacing" textLength="111" x="1464" y="254.3857">addVehicle(vehicle)</text><polygon fill="#181818" points="11,301.9395,1,305.9395,11,309.9395,7,305.9395" style="stroke:#181818;stroke-width:1.0;"/><line style="stroke:#181818;stroke-width:1.0;stroke-dasharray:2.0,2.0;" x1="5" x2="1446" y1="305.9395" y2="305.9395"/><text fill="#000000" font-family="sans-serif" font-size="13" lengthAdjust="spacing" textLength="39" x="17" y="300.6768">vehicle</text><!--SRC=[nP9DJiCm48NtFeN5YbRj1IA414MmW28KKDbqCzZJnAepJiTEKMwFs_mqJLd3h3oVtppBp_PRGoKm5B9mv5JEha0Pk4BX-vqIr1OoV0-rHSce0b1cXmAVWtRVXZAv0UjHY8Y3KQO42l9gZxbH5bCidJV1SRscP3LcLnAyNAM_JfxqZQfP2p6_ZHE91ArRTDqEB9r6EskRUmRINVDHbpYJNGECdsYoFFJeYPtt8xQec972Sz6J53FZ0_83X9FRdTfL9bx6E3hZIp0Ka80KFZBkAYHL3xpUR1I_LiKNSizUm8V1M6ktAIP2W0fc7_j3LZ9MngugvOBnoBfaP5khL1v2Ql1qcaXr5FvLN6lwly0cVGXTZQCRLnjM_55xi4PVvZGHbzBBpnSVwSnUu_3WunQIRXOty_d1A-dk8KRY7m00]--></g></svg>