<?xml version="1.0" encoding="us-ascii" standalone="no"?><svg xmlns="http://www.w3.org/2000/svg" xmlns:xlink="http://www.w3.org/1999/xlink" contentStyleType="text/css" height="367.8px" preserveAspectRatio="none" style="width:939px;height:367px;background:#FFFFFF;" version="1.1" viewBox="0 0 939 367" width="939.6px" zoomAndPan="magnify"><defs/><g><!--class VehicleFleetManager--><g id="elem_VehicleFleetManager"><rect codeLine="7" fill="#F1F1F1" height="73.4906" id="VehicleFleetManager" rx="1.5" ry="1.5" style="stroke:#181818;stroke-width:0.3;" width="182.4" x="319.8" y="4.2"/><ellipse cx="368.25" cy="13.8" fill="#ADD1B2" rx="6.6" ry="6.6" style="stroke:#181818;stroke-width:0.6;"/><path d="M369.9094,11.325 Q370.0031,11.1938 370.1156,11.1281 Q370.2281,11.0625 370.3594,11.0625 Q370.5844,11.0625 370.725,11.2219 Q370.8656,11.3719 370.8656,11.7375 L370.8656,12.6094 Q370.8656,12.975 370.725,13.1344 Q370.5844,13.2938 370.3594,13.2938 Q370.1531,13.2938 370.0313,13.1719 Q369.9094,13.0594 369.8438,12.75 Q369.8156,12.5344 369.7031,12.4219 Q369.5062,12.1969 369.1406,12.0656 Q368.775,11.9344 368.4,11.9344 Q367.9406,11.9344 367.5563,12.1313 Q367.1813,12.3281 366.8812,12.7781 Q366.5906,13.2281 366.5906,13.8469 L366.5906,14.5031 Q366.5906,15.2437 367.125,15.7406 Q367.6594,16.2281 368.6156,16.2281 Q369.1781,16.2281 369.5719,16.0781 Q369.8063,15.9844 370.0594,15.7219 Q370.2188,15.5625 370.3031,15.5156 Q370.3969,15.4688 370.5188,15.4688 Q370.7156,15.4688 370.8656,15.6281 Q371.025,15.7781 371.025,15.9844 Q371.025,16.1906 370.8187,16.4344 Q370.5188,16.7813 370.0406,16.9781 Q369.3938,17.25 368.6156,17.25 Q367.7063,17.25 366.9844,16.875 Q366.3938,16.575 365.9813,15.9375 Q365.5687,15.2906 365.5687,14.5219 L365.5687,13.8281 Q365.5687,13.0313 365.9344,12.3469 Q366.3094,11.6531 366.9656,11.2875 Q367.6219,10.9125 368.3625,10.9125 Q368.8031,10.9125 369.1875,11.0156 Q369.5813,11.1094 369.9094,11.325 Z " fill="#000000"/><text fill="#000000" font-family="sans-serif" font-size="8.4" lengthAdjust="spacing" textLength="80.4" x="380.55" y="17.2781">VehicleFleetManager</text><line style="stroke:#181818;stroke-width:0.3;" x1="320.4" x2="501.6" y1="23.4" y2="23.4"/><rect fill="none" height="3.6" style="stroke:#C82930;stroke-width:0.6;" width="3.6" x="324.6" y="30.4863"/><text fill="#000000" font-family="sans-serif" font-size="8.4" lengthAdjust="spacing" textLength="45.6" x="331.8" y="34.8645">String name</text><rect fill="none" height="3.6" style="stroke:#C82930;stroke-width:0.6;" width="3.6" x="324.6" y="41.659"/><text fill="#000000" font-family="sans-serif" font-size="8.4" lengthAdjust="spacing" textLength="44.4" x="331.8" y="46.0371">String email</text><rect fill="none" height="3.6" style="stroke:#C82930;stroke-width:0.6;" width="3.6" x="324.6" y="52.8316"/><text fill="#000000" font-family="sans-serif" font-size="8.4" lengthAdjust="spacing" textLength="48.6" x="331.8" y="57.2098">String phone</text><line style="stroke:#181818;stroke-width:0.3;" x1="320.4" x2="501.6" y1="61.718" y2="61.718"/><ellipse cx="326.4" cy="70.6043" fill="#84BE84" rx="1.8" ry="1.8" style="stroke:#038048;stroke-width:0.6;"/><text fill="#000000" font-family="sans-serif" font-size="8.4" lengthAdjust="spacing" textLength="166.8" x="331.8" y="73.1824">requestMaintenanceReport() : List&lt;Vehicle&gt;</text></g><!--class Vehicle--><g id="elem_Vehicle"><rect codeLine="14" fill="#F1F1F1" height="140.5266" id="Vehicle" rx="1.5" ry="1.5" style="stroke:#181818;stroke-width:0.3;" width="129.6" x="144.6" y="223.2"/><ellipse cx="193.05" cy="232.8" fill="#ADD1B2" rx="6.6" ry="6.6" style="stroke:#181818;stroke-width:0.6;"/><path d="M194.7094,230.325 Q194.8031,230.1938 194.9156,230.1281 Q195.0281,230.0625 195.1594,230.0625 Q195.3844,230.0625 195.525,230.2219 Q195.6656,230.3719 195.6656,230.7375 L195.6656,231.6094 Q195.6656,231.975 195.525,232.1344 Q195.3844,232.2938 195.1594,232.2938 Q194.9531,232.2938 194.8312,232.1719 Q194.7094,232.0594 194.6437,231.75 Q194.6156,231.5344 194.5031,231.4219 Q194.3063,231.1969 193.9406,231.0656 Q193.575,230.9344 193.2,230.9344 Q192.7406,230.9344 192.3563,231.1313 Q191.9813,231.3281 191.6813,231.7781 Q191.3906,232.2281 191.3906,232.8469 L191.3906,233.5031 Q191.3906,234.2437 191.925,234.7406 Q192.4594,235.2281 193.4156,235.2281 Q193.9781,235.2281 194.3719,235.0781 Q194.6063,234.9844 194.8594,234.7219 Q195.0187,234.5625 195.1031,234.5156 Q195.1969,234.4688 195.3188,234.4688 Q195.5156,234.4688 195.6656,234.6281 Q195.825,234.7781 195.825,234.9844 Q195.825,235.1906 195.6188,235.4344 Q195.3188,235.7813 194.8406,235.9781 Q194.1938,236.25 193.4156,236.25 Q192.5063,236.25 191.7844,235.875 Q191.1938,235.575 190.7813,234.9375 Q190.3688,234.2906 190.3688,233.5219 L190.3688,232.8281 Q190.3688,232.0313 190.7344,231.3469 Q191.1094,230.6531 191.7656,230.2875 Q192.4219,229.9125 193.1625,229.9125 Q193.6031,229.9125 193.9875,230.0156 Q194.3813,230.1094 194.7094,230.325 Z " fill="#000000"/><text fill="#000000" font-family="sans-serif" font-size="8.4" lengthAdjust="spacing" textLength="27.6" x="205.35" y="236.2781">Vehicle</text><line style="stroke:#181818;stroke-width:0.3;" x1="145.2" x2="273.6" y1="242.4" y2="242.4"/><rect fill="none" height="3.6" style="stroke:#C82930;stroke-width:0.6;" width="3.6" x="149.4" y="249.4863"/><text fill="#000000" font-family="sans-serif" font-size="8.4" lengthAdjust="spacing" textLength="46.8" x="156.6" y="253.8645">String brand</text><rect fill="none" height="3.6" style="stroke:#C82930;stroke-width:0.6;" width="3.6" x="149.4" y="260.659"/><text fill="#000000" font-family="sans-serif" font-size="8.4" lengthAdjust="spacing" textLength="47.4" x="156.6" y="265.0371">String model</text><rect fill="none" height="3.6" style="stroke:#C82930;stroke-width:0.6;" width="3.6" x="149.4" y="271.8316"/><text fill="#000000" font-family="sans-serif" font-size="8.4" lengthAdjust="spacing" textLength="40.8" x="156.6" y="276.2098">String type</text><rect fill="none" height="3.6" style="stroke:#C82930;stroke-width:0.6;" width="3.6" x="149.4" y="283.0043"/><text fill="#000000" font-family="sans-serif" font-size="8.4" lengthAdjust="spacing" textLength="70.8" x="156.6" y="287.3824">Double tareWeight</text><rect fill="none" height="3.6" style="stroke:#C82930;stroke-width:0.6;" width="3.6" x="149.4" y="294.177"/><text fill="#000000" font-family="sans-serif" font-size="8.4" lengthAdjust="spacing" textLength="76.8" x="156.6" y="298.5551">Double grossWeight</text><rect fill="none" height="3.6" style="stroke:#C82930;stroke-width:0.6;" width="3.6" x="149.4" y="305.3496"/><text fill="#000000" font-family="sans-serif" font-size="8.4" lengthAdjust="spacing" textLength="50.4" x="156.6" y="309.7277">Int currentKm</text><rect fill="none" height="3.6" style="stroke:#C82930;stroke-width:0.6;" width="3.6" x="149.4" y="316.5223"/><text fill="#000000" font-family="sans-serif" font-size="8.4" lengthAdjust="spacing" textLength="58.2" x="156.6" y="320.9004">Int registerDate</text><rect fill="none" height="3.6" style="stroke:#C82930;stroke-width:0.6;" width="3.6" x="149.4" y="327.6949"/><text fill="#000000" font-family="sans-serif" font-size="8.4" lengthAdjust="spacing" textLength="69.6" x="156.6" y="332.073">Int acquisitionDate</text><rect fill="none" height="3.6" style="stroke:#C82930;stroke-width:0.6;" width="3.6" x="149.4" y="338.8676"/><text fill="#000000" font-family="sans-serif" font-size="8.4" lengthAdjust="spacing" textLength="100.8" x="156.6" y="343.2457">Int maintenanceFrequency</text><line style="stroke:#181818;stroke-width:0.3;" x1="145.2" x2="273.6" y1="347.7539" y2="347.7539"/><ellipse cx="151.2" cy="356.6402" fill="#84BE84" rx="1.8" ry="1.8" style="stroke:#038048;stroke-width:0.6;"/><text fill="#000000" font-family="sans-serif" font-size="8.4" lengthAdjust="spacing" textLength="114" x="156.6" y="359.2184">isMaintenanceDue() : boolean</text></g><!--class VehicleMaintenance--><g id="elem_VehicleMaintenance"><rect codeLine="27" fill="#F1F1F1" height="62.318" id="VehicleMaintenance" rx="1.5" ry="1.5" style="stroke:#181818;stroke-width:0.3;" width="102.6" x="68.1" y="9.6"/><ellipse cx="80.34" cy="19.2" fill="#ADD1B2" rx="6.6" ry="6.6" style="stroke:#181818;stroke-width:0.6;"/><path d="M81.9994,16.725 Q82.0931,16.5938 82.2056,16.5281 Q82.3181,16.4625 82.4494,16.4625 Q82.6744,16.4625 82.815,16.6219 Q82.9556,16.7719 82.9556,17.1375 L82.9556,18.0094 Q82.9556,18.375 82.815,18.5344 Q82.6744,18.6937 82.4494,18.6937 Q82.2431,18.6937 82.1213,18.5719 Q81.9994,18.4594 81.9338,18.15 Q81.9056,17.9344 81.7931,17.8219 Q81.5963,17.5969 81.2306,17.4656 Q80.865,17.3344 80.49,17.3344 Q80.0306,17.3344 79.6463,17.5313 Q79.2713,17.7281 78.9713,18.1781 Q78.6806,18.6281 78.6806,19.2469 L78.6806,19.9031 Q78.6806,20.6438 79.215,21.1406 Q79.7494,21.6281 80.7056,21.6281 Q81.2681,21.6281 81.6619,21.4781 Q81.8963,21.3844 82.1494,21.1219 Q82.3088,20.9625 82.3931,20.9156 Q82.4869,20.8688 82.6088,20.8688 Q82.8056,20.8688 82.9556,21.0281 Q83.115,21.1781 83.115,21.3844 Q83.115,21.5906 82.9088,21.8344 Q82.6088,22.1813 82.1306,22.3781 Q81.4838,22.65 80.7056,22.65 Q79.7963,22.65 79.0744,22.275 Q78.4838,21.975 78.0713,21.3375 Q77.6588,20.6906 77.6588,19.9219 L77.6588,19.2281 Q77.6588,18.4313 78.0244,17.7469 Q78.3994,17.0531 79.0556,16.6875 Q79.7119,16.3125 80.4525,16.3125 Q80.8931,16.3125 81.2775,16.4156 Q81.6713,16.5094 81.9994,16.725 Z " fill="#000000"/><text fill="#000000" font-family="sans-serif" font-size="8.4" lengthAdjust="spacing" textLength="76.2" x="89.46" y="22.6781">VehicleMaintenance</text><line style="stroke:#181818;stroke-width:0.3;" x1="68.7" x2="170.1" y1="28.8" y2="28.8"/><rect fill="none" height="3.6" style="stroke:#C82930;stroke-width:0.6;" width="3.6" x="72.9" y="35.8863"/><text fill="#000000" font-family="sans-serif" font-size="8.4" lengthAdjust="spacing" textLength="87" x="80.1" y="40.2645">Date maintenanceDate</text><rect fill="none" height="3.6" style="stroke:#C82930;stroke-width:0.6;" width="3.6" x="72.9" y="47.059"/><text fill="#000000" font-family="sans-serif" font-size="8.4" lengthAdjust="spacing" textLength="49.2" x="80.1" y="51.4371">String details</text><rect fill="none" height="3.6" style="stroke:#C82930;stroke-width:0.6;" width="3.6" x="72.9" y="58.2316"/><text fill="#000000" font-family="sans-serif" font-size="8.4" lengthAdjust="spacing" textLength="45" x="80.1" y="62.6098">Double cost</text><line style="stroke:#181818;stroke-width:0.3;" x1="68.7" x2="170.1" y1="67.118" y2="67.118"/></g><!--class VehicleRepository--><g id="elem_VehicleRepository"><rect codeLine="33" fill="#F1F1F1" height="51.1453" id="VehicleRepository" rx="1.5" ry="1.5" style="stroke:#181818;stroke-width:0.3;" width="197.4" x="312.3" y="267.9"/><ellipse cx="374.25" cy="277.5" fill="#ADD1B2" rx="6.6" ry="6.6" style="stroke:#181818;stroke-width:0.6;"/><path d="M375.9094,275.025 Q376.0031,274.8938 376.1156,274.8281 Q376.2281,274.7625 376.3594,274.7625 Q376.5844,274.7625 376.725,274.9219 Q376.8656,275.0719 376.8656,275.4375 L376.8656,276.3094 Q376.8656,276.675 376.725,276.8344 Q376.5844,276.9938 376.3594,276.9938 Q376.1531,276.9938 376.0313,276.8719 Q375.9094,276.7594 375.8438,276.45 Q375.8156,276.2344 375.7031,276.1219 Q375.5062,275.8969 375.1406,275.7656 Q374.775,275.6344 374.4,275.6344 Q373.9406,275.6344 373.5563,275.8313 Q373.1813,276.0281 372.8812,276.4781 Q372.5906,276.9281 372.5906,277.5469 L372.5906,278.2031 Q372.5906,278.9437 373.125,279.4406 Q373.6594,279.9281 374.6156,279.9281 Q375.1781,279.9281 375.5719,279.7781 Q375.8063,279.6844 376.0594,279.4219 Q376.2188,279.2625 376.3031,279.2156 Q376.3969,279.1688 376.5188,279.1688 Q376.7156,279.1688 376.8656,279.3281 Q377.025,279.4781 377.025,279.6844 Q377.025,279.8906 376.8187,280.1344 Q376.5188,280.4813 376.0406,280.6781 Q375.3938,280.95 374.6156,280.95 Q373.7063,280.95 372.9844,280.575 Q372.3938,280.275 371.9813,279.6375 Q371.5687,278.9906 371.5687,278.2219 L371.5687,277.5281 Q371.5687,276.7313 371.9344,276.0469 Q372.3094,275.3531 372.9656,274.9875 Q373.6219,274.6125 374.3625,274.6125 Q374.8031,274.6125 375.1875,274.7156 Q375.5813,274.8094 375.9094,275.025 Z " fill="#000000"/><text fill="#000000" font-family="sans-serif" font-size="8.4" lengthAdjust="spacing" textLength="68.4" x="386.55" y="280.9781">VehicleRepository</text><line style="stroke:#181818;stroke-width:0.3;" x1="312.9" x2="509.1" y1="287.1" y2="287.1"/><line style="stroke:#181818;stroke-width:0.3;" x1="312.9" x2="509.1" y1="291.9" y2="291.9"/><ellipse cx="318.9" cy="300.7863" fill="#84BE84" rx="1.8" ry="1.8" style="stroke:#038048;stroke-width:0.6;"/><text fill="#000000" font-family="sans-serif" font-size="8.4" lengthAdjust="spacing" textLength="81.6" x="324.3" y="303.3645">List&lt;Vehicle&gt; findAll()</text><ellipse cx="318.9" cy="311.959" fill="#84BE84" rx="1.8" ry="1.8" style="stroke:#038048;stroke-width:0.6;"/><text fill="#000000" font-family="sans-serif" font-size="8.4" lengthAdjust="spacing" textLength="181.8" x="324.3" y="314.5371">List&lt;Vehicle&gt; findVehiclesDueForMaintenance()</text></g><!--class MaintenanceRepository--><g id="elem_MaintenanceRepository"><rect codeLine="38" fill="#F1F1F1" height="51.1453" id="MaintenanceRepository" rx="1.5" ry="1.5" style="stroke:#181818;stroke-width:0.3;" width="230.4" x="4.2" y="124.8"/><ellipse cx="72.15" cy="134.4" fill="#ADD1B2" rx="6.6" ry="6.6" style="stroke:#181818;stroke-width:0.6;"/><path d="M73.8094,131.925 Q73.9031,131.7938 74.0156,131.7281 Q74.1281,131.6625 74.2594,131.6625 Q74.4844,131.6625 74.625,131.8219 Q74.7656,131.9719 74.7656,132.3375 L74.7656,133.2094 Q74.7656,133.575 74.625,133.7344 Q74.4844,133.8937 74.2594,133.8937 Q74.0531,133.8937 73.9312,133.7719 Q73.8094,133.6594 73.7437,133.35 Q73.7156,133.1344 73.6031,133.0219 Q73.4063,132.7969 73.0406,132.6656 Q72.675,132.5344 72.3,132.5344 Q71.8406,132.5344 71.4563,132.7313 Q71.0813,132.9281 70.7813,133.3781 Q70.4906,133.8281 70.4906,134.4469 L70.4906,135.1031 Q70.4906,135.8438 71.025,136.3406 Q71.5594,136.8281 72.5156,136.8281 Q73.0781,136.8281 73.4719,136.6781 Q73.7063,136.5844 73.9594,136.3219 Q74.1187,136.1625 74.2031,136.1156 Q74.2969,136.0688 74.4188,136.0688 Q74.6156,136.0688 74.7656,136.2281 Q74.925,136.3781 74.925,136.5844 Q74.925,136.7906 74.7188,137.0344 Q74.4188,137.3813 73.9406,137.5781 Q73.2938,137.85 72.5156,137.85 Q71.6063,137.85 70.8844,137.475 Q70.2938,137.175 69.8813,136.5375 Q69.4688,135.8906 69.4688,135.1219 L69.4688,134.4281 Q69.4688,133.6313 69.8344,132.9469 Q70.2094,132.2531 70.8656,131.8875 Q71.5219,131.5125 72.2625,131.5125 Q72.7031,131.5125 73.0875,131.6156 Q73.4813,131.7094 73.8094,131.925 Z " fill="#000000"/><text fill="#000000" font-family="sans-serif" font-size="8.4" lengthAdjust="spacing" textLength="89.4" x="84.45" y="137.8781">MaintenanceRepository</text><line style="stroke:#181818;stroke-width:0.3;" x1="4.8" x2="234" y1="144" y2="144"/><line style="stroke:#181818;stroke-width:0.3;" x1="4.8" x2="234" y1="148.8" y2="148.8"/><ellipse cx="10.8" cy="157.6863" fill="#84BE84" rx="1.8" ry="1.8" style="stroke:#038048;stroke-width:0.6;"/><text fill="#000000" font-family="sans-serif" font-size="8.4" lengthAdjust="spacing" textLength="211.8" x="16.2" y="160.2645">boolean save(VehicleMaintenance maintenanceRecord)</text><ellipse cx="10.8" cy="168.859" fill="#84BE84" rx="1.8" ry="1.8" style="stroke:#038048;stroke-width:0.6;"/><text fill="#000000" font-family="sans-serif" font-size="8.4" lengthAdjust="spacing" textLength="214.8" x="16.2" y="171.4371">List&lt;VehicleMaintenance&gt; findByVehicle(Vehicle vehicle)</text></g><!--class MaintenanceReportGenerator--><g id="elem_MaintenanceReportGenerator"><rect codeLine="43" fill="#F1F1F1" height="51.1453" id="MaintenanceReportGenerator" rx="1.5" ry="1.5" style="stroke:#181818;stroke-width:0.3;" width="275.4" x="273.3" y="124.8"/><ellipse cx="351.75" cy="134.4" fill="#ADD1B2" rx="6.6" ry="6.6" style="stroke:#181818;stroke-width:0.6;"/><path d="M353.4094,131.925 Q353.5031,131.7938 353.6156,131.7281 Q353.7281,131.6625 353.8594,131.6625 Q354.0844,131.6625 354.225,131.8219 Q354.3656,131.9719 354.3656,132.3375 L354.3656,133.2094 Q354.3656,133.575 354.225,133.7344 Q354.0844,133.8937 353.8594,133.8937 Q353.6531,133.8937 353.5313,133.7719 Q353.4094,133.6594 353.3438,133.35 Q353.3156,133.1344 353.2031,133.0219 Q353.0062,132.7969 352.6406,132.6656 Q352.275,132.5344 351.9,132.5344 Q351.4406,132.5344 351.0563,132.7313 Q350.6813,132.9281 350.3812,133.3781 Q350.0906,133.8281 350.0906,134.4469 L350.0906,135.1031 Q350.0906,135.8438 350.625,136.3406 Q351.1594,136.8281 352.1156,136.8281 Q352.6781,136.8281 353.0719,136.6781 Q353.3063,136.5844 353.5594,136.3219 Q353.7188,136.1625 353.8031,136.1156 Q353.8969,136.0688 354.0188,136.0688 Q354.2156,136.0688 354.3656,136.2281 Q354.525,136.3781 354.525,136.5844 Q354.525,136.7906 354.3187,137.0344 Q354.0188,137.3813 353.5406,137.5781 Q352.8938,137.85 352.1156,137.85 Q351.2063,137.85 350.4844,137.475 Q349.8938,137.175 349.4813,136.5375 Q349.0687,135.8906 349.0687,135.1219 L349.0687,134.4281 Q349.0687,133.6313 349.4344,132.9469 Q349.8094,132.2531 350.4656,131.8875 Q351.1219,131.5125 351.8625,131.5125 Q352.3031,131.5125 352.6875,131.6156 Q353.0813,131.7094 353.4094,131.925 Z " fill="#000000"/><text fill="#000000" font-family="sans-serif" font-size="8.4" lengthAdjust="spacing" textLength="113.4" x="364.05" y="137.8781">MaintenanceReportGenerator</text><line style="stroke:#181818;stroke-width:0.3;" x1="273.9" x2="548.1" y1="144" y2="144"/><line style="stroke:#181818;stroke-width:0.3;" x1="273.9" x2="548.1" y1="148.8" y2="148.8"/><ellipse cx="279.9" cy="157.6863" fill="#84BE84" rx="1.8" ry="1.8" style="stroke:#038048;stroke-width:0.6;"/><text fill="#000000" font-family="sans-serif" font-size="8.4" lengthAdjust="spacing" textLength="259.8" x="285.3" y="160.2645">MaintenanceReportGenerator(vehicleRepository: VehicleRepository)</text><ellipse cx="279.9" cy="168.859" fill="#84BE84" rx="1.8" ry="1.8" style="stroke:#038048;stroke-width:0.6;"/><text fill="#000000" font-family="sans-serif" font-size="8.4" lengthAdjust="spacing" textLength="167.4" x="285.3" y="171.4371">List&lt;Vehicle&gt; generateMaintenanceReport()</text></g><!--class Repositories--><g id="elem_Repositories"><rect codeLine="48" fill="#F1F1F1" height="73.4906" id="Repositories" rx="1.5" ry="1.5" style="stroke:#181818;stroke-width:0.3;" width="219.6" x="715.8" y="4.2"/><ellipse cx="799.35" cy="13.8" fill="#ADD1B2" rx="6.6" ry="6.6" style="stroke:#181818;stroke-width:0.6;"/><path d="M801.0094,11.325 Q801.1031,11.1938 801.2156,11.1281 Q801.3281,11.0625 801.4594,11.0625 Q801.6844,11.0625 801.825,11.2219 Q801.9656,11.3719 801.9656,11.7375 L801.9656,12.6094 Q801.9656,12.975 801.825,13.1344 Q801.6844,13.2938 801.4594,13.2938 Q801.2531,13.2938 801.1313,13.1719 Q801.0094,13.0594 800.9438,12.75 Q800.9156,12.5344 800.8031,12.4219 Q800.6062,12.1969 800.2406,12.0656 Q799.875,11.9344 799.5,11.9344 Q799.0406,11.9344 798.6563,12.1313 Q798.2813,12.3281 797.9812,12.7781 Q797.6906,13.2281 797.6906,13.8469 L797.6906,14.5031 Q797.6906,15.2437 798.225,15.7406 Q798.7594,16.2281 799.7156,16.2281 Q800.2781,16.2281 800.6719,16.0781 Q800.9063,15.9844 801.1594,15.7219 Q801.3188,15.5625 801.4031,15.5156 Q801.4969,15.4688 801.6188,15.4688 Q801.8156,15.4688 801.9656,15.6281 Q802.125,15.7781 802.125,15.9844 Q802.125,16.1906 801.9187,16.4344 Q801.6188,16.7813 801.1406,16.9781 Q800.4938,17.25 799.7156,17.25 Q798.8063,17.25 798.0844,16.875 Q797.4938,16.575 797.0813,15.9375 Q796.6687,15.2906 796.6687,14.5219 L796.6687,13.8281 Q796.6687,13.0313 797.0344,12.3469 Q797.4094,11.6531 798.0656,11.2875 Q798.7219,10.9125 799.4625,10.9125 Q799.9031,10.9125 800.2875,11.0156 Q800.6813,11.1094 801.0094,11.325 Z " fill="#000000"/><text fill="#000000" font-family="sans-serif" font-size="8.4" lengthAdjust="spacing" textLength="47.4" x="811.65" y="17.2781">Repositories</text><line style="stroke:#181818;stroke-width:0.3;" x1="716.4" x2="934.8" y1="23.4" y2="23.4"/><rect fill="none" height="3.6" style="stroke:#C82930;stroke-width:0.6;" width="3.6" x="720.6" y="30.4863"/><text fill="#000000" font-family="sans-serif" font-size="8.4" lengthAdjust="spacing" textLength="108.6" x="727.8" y="34.8645">static instance : Repositories</text><line style="stroke:#181818;stroke-width:0.3;" x1="716.4" x2="934.8" y1="39.3727" y2="39.3727"/><ellipse cx="722.4" cy="48.259" fill="#84BE84" rx="1.8" ry="1.8" style="stroke:#038048;stroke-width:0.6;"/><text fill="#000000" font-family="sans-serif" font-size="8.4" lengthAdjust="spacing" textLength="104.4" x="727.8" y="50.8371">getInstance() : Repositories</text><ellipse cx="722.4" cy="59.4316" fill="#84BE84" rx="1.8" ry="1.8" style="stroke:#038048;stroke-width:0.6;"/><text fill="#000000" font-family="sans-serif" font-size="8.4" lengthAdjust="spacing" textLength="162" x="727.8" y="62.0098">getVehicleRepository() : VehicleRepository</text><ellipse cx="722.4" cy="70.6043" fill="#84BE84" rx="1.8" ry="1.8" style="stroke:#038048;stroke-width:0.6;"/><text fill="#000000" font-family="sans-serif" font-size="8.4" lengthAdjust="spacing" textLength="204" x="727.8" y="73.1824">getMaintenanceRepository() : MaintenanceRepository</text></g><g id="elem_GMN9"><path d="M523.5,32.7 L523.5,38.4 L502.326,40.8 L523.5,43.2 L523.5,49.0746 A0,0 0 0 0 523.5,49.0746 L694.5,49.0746 A0,0 0 0 0 694.5,49.0746 L694.5,38.7 L688.5,32.7 L523.5,32.7 A0,0 0 0 0 523.5,32.7 " fill="#FEFFDD" style="stroke:#181818;stroke-width:0.3;"/><path d="M688.5,32.7 L688.5,38.7 L694.5,38.7 L688.5,32.7 " fill="#FEFFDD" style="stroke:#181818;stroke-width:0.3;"/><text fill="#000000" font-family="sans-serif" font-size="7.8" lengthAdjust="spacing" textLength="158.4" x="527.1" y="44.117">- VFM initiates maintenance report generation</text></g><g id="elem_GMN12"><path d="M570,136.8 L570,147.9 L548.706,150.3 L570,152.7 L570,163.5492 A0,0 0 0 0 570,163.5492 L861.6,163.5492 A0,0 0 0 0 861.6,163.5492 L861.6,142.8 L855.6,136.8 L570,136.8 A0,0 0 0 0 570,136.8 " fill="#FEFFDD" style="stroke:#181818;stroke-width:0.3;"/><path d="M855.6,136.8 L855.6,142.8 L861.6,142.8 L855.6,136.8 " fill="#FEFFDD" style="stroke:#181818;stroke-width:0.3;"/><text fill="#000000" font-family="sans-serif" font-size="7.8" lengthAdjust="spacing" textLength="249" x="573.6" y="148.217">- Queries the VehicleRepository to identify vehicles due for maintenance</text><text fill="#000000" font-family="sans-serif" font-size="7.8" lengthAdjust="spacing" textLength="279" x="573.6" y="158.5916">- Generates a report based on criteria (e.g., maintenance frequency, last service)</text></g><g id="elem_GMN15"><path d="M530.7,285.3 L530.7,301.6746 L834.9,301.6746 L834.9,291.3 L828.9,285.3 L530.7,285.3 " fill="#FEFFDD" style="stroke:#181818;stroke-width:0.3;"/><path d="M828.9,285.3 L828.9,291.3 L834.9,291.3 L828.9,285.3 " fill="#FEFFDD" style="stroke:#181818;stroke-width:0.6;"/><text fill="#000000" font-family="sans-serif" font-size="7.8" lengthAdjust="spacing" textLength="291.6" x="534.3" y="296.717">- Determines if maintenance is due based on currentKm and maintenanceFrequency</text></g><!--link Vehicle to GMN15--><g id="link_Vehicle_GMN15"><path d="M274.278,234.198 C294.822,215.448 312.3,199.5 312.3,199.5 C312.3,199.5 509.7,199.5 509.7,199.5 C509.7,199.5 625.626,262.386 667.74,285.234 " fill="none" id="Vehicle-GMN15" style="stroke:#181818;stroke-width:0.6;stroke-dasharray:7.0,7.0;"/></g><!--link VehicleFleetManager to MaintenanceReportGenerator--><g id="link_VehicleFleetManager_MaintenanceReportGenerator"><path codeLine="68" d="M411,77.46 C411,92.97 411,107.112 411,121.128 " fill="none" id="VehicleFleetManager-to-MaintenanceReportGenerator" style="stroke:#181818;stroke-width:0.6;"/><polygon fill="#181818" points="411,124.728,413.4,119.328,411,121.728,408.6,119.328,411,124.728" style="stroke:#181818;stroke-width:0.6;"/><text fill="#000000" font-family="sans-serif" font-size="7.8" lengthAdjust="spacing" textLength="52.2" x="411.6" y="104.417">requests report</text></g><!--link MaintenanceReportGenerator to VehicleRepository--><g id="link_MaintenanceReportGenerator_VehicleRepository"><path codeLine="69" d="M411,175.944 C411,201.798 411,238.314 411,264.168 " fill="none" id="MaintenanceReportGenerator-to-VehicleRepository" style="stroke:#181818;stroke-width:0.6;"/><polygon fill="#181818" points="411,267.768,413.4,262.368,411,264.768,408.6,262.368,411,267.768" style="stroke:#181818;stroke-width:0.6;"/><text fill="#000000" font-family="sans-serif" font-size="7.8" lengthAdjust="spacing" textLength="16.8" x="411.6" y="202.817">uses</text></g><!--reverse link Vehicle to VehicleRepository--><g id="link_Vehicle_VehicleRepository"><path codeLine="70" d="M277.896,293.4 C290.04,293.4 299.382,293.4 312.282,293.4 " fill="none" id="Vehicle-backto-VehicleRepository" style="stroke:#181818;stroke-width:0.6;"/><polygon fill="#181818" points="274.296,293.4,279.696,295.8,277.296,293.4,279.696,291,274.296,293.4" style="stroke:#181818;stroke-width:0.6;"/><text fill="#000000" font-family="sans-serif" font-size="7.8" lengthAdjust="spacing" textLength="16.2" x="285.15" y="289.217">finds</text></g><!--reverse link MaintenanceRepository to MaintenanceReportGenerator--><g id="link_MaintenanceRepository_MaintenanceReportGenerator"><path codeLine="71" d="M238.248,150.3 C250.902,150.3 260.28,150.3 273.174,150.3 " fill="none" id="MaintenanceRepository-backto-MaintenanceReportGenerator" style="stroke:#181818;stroke-width:0.6;"/><polygon fill="#181818" points="234.648,150.3,240.048,152.7,237.648,150.3,240.048,147.9,234.648,150.3" style="stroke:#181818;stroke-width:0.6;"/><text fill="#000000" font-family="sans-serif" font-size="7.8" lengthAdjust="spacing" textLength="16.8" x="245.55" y="146.117">uses</text></g><!--reverse link VehicleMaintenance to MaintenanceRepository--><g id="link_VehicleMaintenance_MaintenanceRepository"><path codeLine="72" d="M119.4,75.744 C119.4,92.382 119.4,109.062 119.4,124.716 " fill="none" id="VehicleMaintenance-backto-MaintenanceRepository" style="stroke:#181818;stroke-width:0.6;"/><polygon fill="#181818" points="119.4,72.144,117,77.544,119.4,75.144,121.8,77.544,119.4,72.144" style="stroke:#181818;stroke-width:0.6;"/><text fill="#000000" font-family="sans-serif" font-size="7.8" lengthAdjust="spacing" textLength="28.8" x="120" y="104.417">retrieves</text></g><!--SRC=[VLLDRzim3BtxL_3M56sAdOEXG8SWGx3ri0NepefCEq9boPNe3Dwm_pvQaMCvTd9AnA_t7YNIT_vTcLeuKK5bZPK7Poi4SWrcWwSMybsKkADM8pYK94ofqm1_4BdzhKm9XT0-zMXbaDeQeRQwxGxPtU2KMdZ_GkJKlY7SIcjswW_2fomB7dZ3Wv8QDngHNeLX2Wx-PW1Bs74EenbHONh6IYYT6kg3DLt40zF-QD1p6MK8ZJ0IVs9j7ItkOGNVbQVF4Uqv-tU1FyRSEs7or53P74UWdTvmNjjcp-aa7Fv2LHuejPREUf-OjuP0DiwXeM_LsUAmP6xereBmR1Joer5UaR9cPAy6SPkWryWsY5S-qRrkC8ZUMwjHc8dS93Ggxq3IucVGA3X7uhxxL9sqdYQLkuupRUlQKFXXt7SebCbVj5xSN_75WsS16-iIcfnnXhguu15SL0nU774nexPASwLr-PH94duYzQMDdhuW74-_rpav-ee6dM1caTZrWCNnidMhQJVd6bQUAk3CWn-8dKiezF6kFGbI4fJXFrrFLgEW05GYRQCxFAIvW0d743cnzk6pjnPIPZsT0cFvKRfkVC0MSwiYo7dRlB8M7XLkXKylc2UhwqRV9nwb34qENTNBsjTl9q3yQ33qZmuuyz39WifvfbNHzY_3GzuW57px2PzGAXRc2D7psmkFELW3qYdU0qh00f_AfyUHbgAVzaVWUoNmw8vAyXEy9YdoF4qiSjsALxC7LOpAgXFJWKA_de1NuFos6G3dblUIln9c-Nnh85RzflQn0zcDuBxUjEqhQ3o_ngbZgR6W8OK3kodsDr5YolngYKZppcLJ3rZfgkbaylB48wV-1m00]--></g></svg>