<?xml version="1.0" encoding="us-ascii" standalone="no"?><svg xmlns="http://www.w3.org/2000/svg" xmlns:xlink="http://www.w3.org/1999/xlink" contentStyleType="text/css" height="1587px" preserveAspectRatio="none" style="width:1559px;height:1587px;background:#FFFFFF;" version="1.1" viewBox="0 0 1559 1587" width="1559px" zoomAndPan="magnify"><defs/><g><rect fill="#FFFFFF" height="1392.8926" style="stroke:#181818;stroke-width:1.0;" width="10" x="78.5" y="93.6211"/><rect fill="#FFFFFF" height="635.4902" style="stroke:#181818;stroke-width:1.0;" width="10" x="397.5" y="116.9121"/><rect fill="#FFFFFF" height="219.0371" style="stroke:#181818;stroke-width:1.0;" width="10" x="397.5" y="783.6934"/><rect fill="#FFFFFF" height="93.873" style="stroke:#181818;stroke-width:1.0;" width="10" x="397.5" y="1034.0215"/><rect fill="#FFFFFF" height="327.3281" style="stroke:#181818;stroke-width:1.0;" width="10" x="397.5" y="1159.1855"/><rect fill="#FFFFFF" height="562.9082" style="stroke:#181818;stroke-width:1.0;" width="10" x="632.5" y="158.2031"/><rect fill="#FFFFFF" height="90.543" style="stroke:#181818;stroke-width:1.0;" width="10" x="637.5" y="262.4063"/><rect fill="#FFFFFF" height="93.873" style="stroke:#181818;stroke-width:1.0;" width="10" x="632.5" y="877.5664"/><rect fill="#FFFFFF" height="226.4551" style="stroke:#181818;stroke-width:1.0;" width="10" x="632.5" y="1190.4766"/><rect fill="#FFFFFF" height="31.291" style="stroke:#181818;stroke-width:1.0;" width="10" x="800.5" y="191.8242"/><rect fill="#FFFFFF" height="31.291" style="stroke:#181818;stroke-width:1.0;" width="10" x="907.5" y="391.2402"/><rect fill="#FFFFFF" height="31.291" style="stroke:#181818;stroke-width:1.0;" width="10" x="907.5" y="453.8223"/><rect fill="#FFFFFF" height="31.291" style="stroke:#181818;stroke-width:1.0;" width="10" x="1033.5" y="547.6953"/><rect fill="#FFFFFF" height="31.291" style="stroke:#181818;stroke-width:1.0;" width="10" x="1172" y="908.8574"/><rect fill="#FFFFFF" height="31.291" style="stroke:#181818;stroke-width:1.0;" width="10" x="1172" y="1065.3125"/><rect fill="#FFFFFF" height="31.291" style="stroke:#181818;stroke-width:1.0;" width="10" x="1274.5" y="814.9844"/><rect fill="#FFFFFF" height="248.7461" style="stroke:#181818;stroke-width:1.0;" width="10" x="1364" y="1246.7676"/><rect fill="#FFFFFF" height="42.291" style="stroke:#181818;stroke-width:1.0;" width="10" x="1369" y="1286.0586"/><rect fill="#FFFFFF" height="42.291" style="stroke:#181818;stroke-width:1.0;" width="10" x="1369" y="1374.6406"/><line style="stroke:#181818;stroke-width:0.5;stroke-dasharray:5.0,5.0;" x1="83" x2="83" y1="83.6211" y2="1504.5137"/><line style="stroke:#181818;stroke-width:0.5;stroke-dasharray:5.0,5.0;" x1="402.5" x2="402.5" y1="83.6211" y2="1504.5137"/><line style="stroke:#181818;stroke-width:0.5;stroke-dasharray:5.0,5.0;" x1="637.5" x2="637.5" y1="156.7227" y2="1504.5137"/><line style="stroke:#181818;stroke-width:0.5;stroke-dasharray:5.0,5.0;" x1="805" x2="805" y1="83.6211" y2="1504.5137"/><line style="stroke:#181818;stroke-width:0.5;stroke-dasharray:5.0,5.0;" x1="912" x2="912" y1="83.6211" y2="1504.5137"/><line style="stroke:#181818;stroke-width:0.5;stroke-dasharray:5.0,5.0;" x1="1038" x2="1038" y1="83.6211" y2="1504.5137"/><line style="stroke:#181818;stroke-width:0.5;stroke-dasharray:5.0,5.0;" x1="1177" x2="1177" y1="83.6211" y2="1504.5137"/><line style="stroke:#181818;stroke-width:0.5;stroke-dasharray:5.0,5.0;" x1="1279" x2="1279" y1="83.6211" y2="1504.5137"/><line style="stroke:#181818;stroke-width:0.5;stroke-dasharray:5.0,5.0;" x1="1369" x2="1369" y1="83.6211" y2="1504.5137"/><text fill="#000000" font-family="sans-serif" font-size="14" lengthAdjust="spacing" textLength="151" x="5" y="80.1074">Green Spaces Manager</text><ellipse cx="83.5" cy="13.5" fill="#E3E3E3" rx="8" ry="8" style="stroke:#181818;stroke-width:0.5;"/><path d="M83.5,21.5 L83.5,48.5 M70.5,29.5 L96.5,29.5 M83.5,48.5 L70.5,63.5 M83.5,48.5 L96.5,63.5 " fill="none" style="stroke:#181818;stroke-width:0.5;"/><text fill="#000000" font-family="sans-serif" font-size="14" lengthAdjust="spacing" textLength="151" x="5" y="1518.6211">Green Spaces Manager</text><ellipse cx="83.5" cy="1530.6348" fill="#E3E3E3" rx="8" ry="8" style="stroke:#181818;stroke-width:0.5;"/><path d="M83.5,1538.6348 L83.5,1565.6348 M70.5,1546.6348 L96.5,1546.6348 M83.5,1565.6348 L70.5,1580.6348 M83.5,1565.6348 L96.5,1580.6348 " fill="none" style="stroke:#181818;stroke-width:0.5;"/><rect fill="#E3E3E3" height="32.6211" rx="2.5" ry="2.5" style="stroke:#181818;stroke-width:0.5;" width="108" x="348.5" y="50"/><text fill="#000000" font-family="sans-serif" font-size="14" lengthAdjust="spacing" textLength="94" x="355.5" y="72.1074">:AssignTeamUI</text><rect fill="#E3E3E3" height="32.6211" rx="2.5" ry="2.5" style="stroke:#181818;stroke-width:0.5;" width="108" x="348.5" y="1503.5137"/><text fill="#000000" font-family="sans-serif" font-size="14" lengthAdjust="spacing" textLength="94" x="355.5" y="1525.6211">:AssignTeamUI</text><rect fill="#E3E3E3" height="32.6211" rx="2.5" ry="2.5" style="stroke:#181818;stroke-width:0.5;" width="158" x="558.5" y="1503.5137"/><text fill="#000000" font-family="sans-serif" font-size="14" lengthAdjust="spacing" textLength="144" x="565.5" y="1525.6211">:AssignTeamController</text><rect fill="#E3E3E3" height="32.6211" rx="2.5" ry="2.5" style="stroke:#181818;stroke-width:0.5;" width="97" x="757" y="50"/><text fill="#000000" font-family="sans-serif" font-size="14" lengthAdjust="spacing" textLength="83" x="764" y="72.1074">:Repositories</text><rect fill="#E3E3E3" height="32.6211" rx="2.5" ry="2.5" style="stroke:#181818;stroke-width:0.5;" width="97" x="757" y="1503.5137"/><text fill="#000000" font-family="sans-serif" font-size="14" lengthAdjust="spacing" textLength="83" x="764" y="1525.6211">:Repositories</text><rect fill="#E3E3E3" height="51.2422" rx="2.5" ry="2.5" style="stroke:#181818;stroke-width:0.5;" width="97" x="864" y="31.3789"/><text fill="#000000" font-family="sans-serif" font-size="14" lengthAdjust="spacing" textLength="74" x="875.5" y="53.4863">repositories</text><text fill="#000000" font-family="sans-serif" font-size="14" lengthAdjust="spacing" textLength="83" x="871" y="72.1074">:Repositories</text><rect fill="#E3E3E3" height="51.2422" rx="2.5" ry="2.5" style="stroke:#181818;stroke-width:0.5;" width="97" x="864" y="1503.5137"/><text fill="#000000" font-family="sans-serif" font-size="14" lengthAdjust="spacing" textLength="74" x="875.5" y="1525.6211">repositories</text><text fill="#000000" font-family="sans-serif" font-size="14" lengthAdjust="spacing" textLength="83" x="871" y="1544.2422">:Repositories</text><rect fill="#E3E3E3" height="51.2422" rx="2.5" ry="2.5" style="stroke:#181818;stroke-width:0.5;" width="135" x="971" y="31.3789"/><text fill="#000000" font-family="sans-serif" font-size="14" lengthAdjust="spacing" textLength="116" x="980.5" y="53.4863">agendaRepository</text><text fill="#000000" font-family="sans-serif" font-size="14" lengthAdjust="spacing" textLength="121" x="978" y="72.1074">:AgendaRepository</text><rect fill="#E3E3E3" height="51.2422" rx="2.5" ry="2.5" style="stroke:#181818;stroke-width:0.5;" width="135" x="971" y="1503.5137"/><text fill="#000000" font-family="sans-serif" font-size="14" lengthAdjust="spacing" textLength="116" x="980.5" y="1525.6211">agendaRepository</text><text fill="#000000" font-family="sans-serif" font-size="14" lengthAdjust="spacing" textLength="121" x="978" y="1544.2422">:AgendaRepository</text><rect fill="#E3E3E3" height="51.2422" rx="2.5" ry="2.5" style="stroke:#181818;stroke-width:0.5;" width="122" x="1116" y="31.3789"/><text fill="#000000" font-family="sans-serif" font-size="14" lengthAdjust="spacing" textLength="99" x="1127.5" y="53.4863">teamRepository</text><text fill="#000000" font-family="sans-serif" font-size="14" lengthAdjust="spacing" textLength="108" x="1123" y="72.1074">:TeamRepository</text><rect fill="#E3E3E3" height="51.2422" rx="2.5" ry="2.5" style="stroke:#181818;stroke-width:0.5;" width="122" x="1116" y="1503.5137"/><text fill="#000000" font-family="sans-serif" font-size="14" lengthAdjust="spacing" textLength="99" x="1127.5" y="1525.6211">teamRepository</text><text fill="#000000" font-family="sans-serif" font-size="14" lengthAdjust="spacing" textLength="108" x="1123" y="1544.2422">:TeamRepository</text><rect fill="#E3E3E3" height="32.6211" rx="2.5" ry="2.5" style="stroke:#181818;stroke-width:0.5;" width="63" x="1248" y="50"/><text fill="#000000" font-family="sans-serif" font-size="14" lengthAdjust="spacing" textLength="49" x="1255" y="72.1074">Agenda</text><rect fill="#E3E3E3" height="32.6211" rx="2.5" ry="2.5" style="stroke:#181818;stroke-width:0.5;" width="63" x="1248" y="1503.5137"/><text fill="#000000" font-family="sans-serif" font-size="14" lengthAdjust="spacing" textLength="49" x="1255" y="1525.6211">Agenda</text><rect fill="#E3E3E3" height="32.6211" rx="2.5" ry="2.5" style="stroke:#181818;stroke-width:0.5;" width="96" x="1321" y="50"/><text fill="#000000" font-family="sans-serif" font-size="14" lengthAdjust="spacing" textLength="82" x="1328" y="72.1074">AgendaEntry</text><rect fill="#E3E3E3" height="32.6211" rx="2.5" ry="2.5" style="stroke:#181818;stroke-width:0.5;" width="96" x="1321" y="1503.5137"/><text fill="#000000" font-family="sans-serif" font-size="14" lengthAdjust="spacing" textLength="82" x="1328" y="1525.6211">AgendaEntry</text><rect fill="#FFFFFF" height="1392.8926" style="stroke:#181818;stroke-width:1.0;" width="10" x="78.5" y="93.6211"/><rect fill="#FFFFFF" height="635.4902" style="stroke:#181818;stroke-width:1.0;" width="10" x="397.5" y="116.9121"/><rect fill="#FFFFFF" height="219.0371" style="stroke:#181818;stroke-width:1.0;" width="10" x="397.5" y="783.6934"/><rect fill="#FFFFFF" height="93.873" style="stroke:#181818;stroke-width:1.0;" width="10" x="397.5" y="1034.0215"/><rect fill="#FFFFFF" height="327.3281" style="stroke:#181818;stroke-width:1.0;" width="10" x="397.5" y="1159.1855"/><rect fill="#FFFFFF" height="562.9082" style="stroke:#181818;stroke-width:1.0;" width="10" x="632.5" y="158.2031"/><rect fill="#FFFFFF" height="90.543" style="stroke:#181818;stroke-width:1.0;" width="10" x="637.5" y="262.4063"/><rect fill="#FFFFFF" height="93.873" style="stroke:#181818;stroke-width:1.0;" width="10" x="632.5" y="877.5664"/><rect fill="#FFFFFF" height="226.4551" style="stroke:#181818;stroke-width:1.0;" width="10" x="632.5" y="1190.4766"/><rect fill="#FFFFFF" height="31.291" style="stroke:#181818;stroke-width:1.0;" width="10" x="800.5" y="191.8242"/><rect fill="#FFFFFF" height="31.291" style="stroke:#181818;stroke-width:1.0;" width="10" x="907.5" y="391.2402"/><rect fill="#FFFFFF" height="31.291" style="stroke:#181818;stroke-width:1.0;" width="10" x="907.5" y="453.8223"/><rect fill="#FFFFFF" height="31.291" style="stroke:#181818;stroke-width:1.0;" width="10" x="1033.5" y="547.6953"/><rect fill="#FFFFFF" height="31.291" style="stroke:#181818;stroke-width:1.0;" width="10" x="1172" y="908.8574"/><rect fill="#FFFFFF" height="31.291" style="stroke:#181818;stroke-width:1.0;" width="10" x="1172" y="1065.3125"/><rect fill="#FFFFFF" height="31.291" style="stroke:#181818;stroke-width:1.0;" width="10" x="1274.5" y="814.9844"/><rect fill="#FFFFFF" height="248.7461" style="stroke:#181818;stroke-width:1.0;" width="10" x="1364" y="1246.7676"/><rect fill="#FFFFFF" height="42.291" style="stroke:#181818;stroke-width:1.0;" width="10" x="1369" y="1286.0586"/><rect fill="#FFFFFF" height="42.291" style="stroke:#181818;stroke-width:1.0;" width="10" x="1369" y="1374.6406"/><polygon fill="#181818" points="385.5,112.9121,395.5,116.9121,385.5,120.9121,389.5,116.9121" style="stroke:#181818;stroke-width:1.0;"/><line style="stroke:#181818;stroke-width:1.0;" x1="88.5" x2="391.5" y1="116.9121" y2="116.9121"/><text fill="#000000" font-family="sans-serif" font-size="13" font-weight="bold" lengthAdjust="spacing" textLength="7" x="95.5" y="111.6494">1</text><text fill="#000000" font-family="sans-serif" font-size="13" lengthAdjust="spacing" textLength="279" x="106.5" y="111.6494">asks to assign a team to an entry in the Agenda</text><polygon fill="#181818" points="546.5,144.2031,556.5,148.2031,546.5,152.2031,550.5,148.2031" style="stroke:#181818;stroke-width:1.0;"/><line style="stroke:#181818;stroke-width:1.0;" x1="407.5" x2="552.5" y1="148.2031" y2="148.2031"/><text fill="#000000" font-family="sans-serif" font-size="13" font-weight="bold" lengthAdjust="spacing" textLength="7" x="414.5" y="142.9404">2</text><text fill="#000000" font-family="sans-serif" font-size="13" lengthAdjust="spacing" textLength="36" x="425.5" y="142.9404">create</text><rect fill="#E3E3E3" height="32.6211" rx="2.5" ry="2.5" style="stroke:#181818;stroke-width:0.5;" width="158" x="558.5" y="124.9121"/><text fill="#000000" font-family="sans-serif" font-size="14" lengthAdjust="spacing" textLength="144" x="565.5" y="147.0195">:AssignTeamController</text><polygon fill="#181818" points="788.5,187.8242,798.5,191.8242,788.5,195.8242,792.5,191.8242" style="stroke:#181818;stroke-width:1.0;"/><line style="stroke:#181818;stroke-width:1.0;" x1="642.5" x2="794.5" y1="191.8242" y2="191.8242"/><text fill="#000000" font-family="sans-serif" font-size="13" font-weight="bold" lengthAdjust="spacing" textLength="7" x="649.5" y="186.5615">3</text><text fill="#000000" font-family="sans-serif" font-size="13" lengthAdjust="spacing" textLength="75" x="660.5" y="186.5615">getInstance()</text><polygon fill="#181818" points="653.5,219.1152,643.5,223.1152,653.5,227.1152,649.5,223.1152" style="stroke:#181818;stroke-width:1.0;"/><line style="stroke:#181818;stroke-width:1.0;stroke-dasharray:2.0,2.0;" x1="647.5" x2="804.5" y1="223.1152" y2="223.1152"/><text fill="#000000" font-family="sans-serif" font-size="13" font-weight="bold" lengthAdjust="spacing" textLength="7" x="659.5" y="217.8525">4</text><text fill="#000000" font-family="sans-serif" font-size="13" lengthAdjust="spacing" textLength="67" x="670.5" y="217.8525">repositories</text><line style="stroke:#181818;stroke-width:1.0;" x1="642.5" x2="689.5" y1="249.4063" y2="249.4063"/><line style="stroke:#181818;stroke-width:1.0;" x1="689.5" x2="689.5" y1="249.4063" y2="262.4063"/><line style="stroke:#181818;stroke-width:1.0;" x1="648.5" x2="689.5" y1="262.4063" y2="262.4063"/><polygon fill="#181818" points="658.5,258.4063,648.5,262.4063,658.5,266.4063,654.5,262.4063" style="stroke:#181818;stroke-width:1.0;"/><text fill="#000000" font-family="sans-serif" font-size="13" font-weight="bold" lengthAdjust="spacing" textLength="7" x="654.5" y="244.1436">5</text><text fill="#000000" font-family="sans-serif" font-size="13" lengthAdjust="spacing" textLength="133" x="665.5" y="244.1436">getGSMFromSession()</text><rect fill="none" height="43.252" style="stroke:#000000;stroke-width:1.5;" width="164" x="555.5" y="275.4063"/><path d="M555.5,275.4063 L617.5,275.4063 L617.5,284.4063 L607.5,294.4063 L555.5,294.4063 L555.5,275.4063 " fill="#EEEEEE" style="stroke:#000000;stroke-width:2.0;"/><text fill="#000000" font-family="sans-serif" font-size="13" font-weight="bold" lengthAdjust="spacing" textLength="17" x="568.5" y="291.4346">ref</text><text fill="#000000" font-family="sans-serif" font-size="12" lengthAdjust="spacing" textLength="48" x="613.5" y="311.3555">Get GSM</text><line style="stroke:#181818;stroke-width:1.0;stroke-dasharray:2.0,2.0;" x1="647.5" x2="689.5" y1="351.9492" y2="351.9492"/><line style="stroke:#181818;stroke-width:1.0;stroke-dasharray:2.0,2.0;" x1="689.5" x2="689.5" y1="351.9492" y2="364.9492"/><line style="stroke:#181818;stroke-width:1.0;stroke-dasharray:2.0,2.0;" x1="642.5" x2="689.5" y1="364.9492" y2="364.9492"/><polygon fill="#181818" points="652.5,360.9492,642.5,364.9492,652.5,368.9492,648.5,364.9492" style="stroke:#181818;stroke-width:1.0;"/><text fill="#000000" font-family="sans-serif" font-size="13" font-weight="bold" lengthAdjust="spacing" textLength="7" x="654.5" y="346.6865">6</text><text fill="#000000" font-family="sans-serif" font-size="13" lengthAdjust="spacing" textLength="25" x="665.5" y="346.6865">gsm</text><polygon fill="#181818" points="895.5,387.2402,905.5,391.2402,895.5,395.2402,899.5,391.2402" style="stroke:#181818;stroke-width:1.0;"/><line style="stroke:#181818;stroke-width:1.0;" x1="642.5" x2="901.5" y1="391.2402" y2="391.2402"/><text fill="#000000" font-family="sans-serif" font-size="13" font-weight="bold" lengthAdjust="spacing" textLength="7" x="649.5" y="385.9775">7</text><text fill="#000000" font-family="sans-serif" font-size="13" lengthAdjust="spacing" textLength="120" x="660.5" y="385.9775">getTeamRepository()</text><polygon fill="#181818" points="653.5,418.5313,643.5,422.5313,653.5,426.5313,649.5,422.5313" style="stroke:#181818;stroke-width:1.0;"/><line style="stroke:#181818;stroke-width:1.0;" x1="647.5" x2="911.5" y1="422.5313" y2="422.5313"/><text fill="#000000" font-family="sans-serif" font-size="13" font-weight="bold" lengthAdjust="spacing" textLength="7" x="659.5" y="417.2686">8</text><text fill="#000000" font-family="sans-serif" font-size="13" lengthAdjust="spacing" textLength="94" x="670.5" y="417.2686">TeamRepository</text><polygon fill="#181818" points="895.5,449.8223,905.5,453.8223,895.5,457.8223,899.5,453.8223" style="stroke:#181818;stroke-width:1.0;"/><line style="stroke:#181818;stroke-width:1.0;" x1="642.5" x2="901.5" y1="453.8223" y2="453.8223"/><text fill="#000000" font-family="sans-serif" font-size="13" font-weight="bold" lengthAdjust="spacing" textLength="7" x="649.5" y="448.5596">9</text><text fill="#000000" font-family="sans-serif" font-size="13" lengthAdjust="spacing" textLength="132" x="660.5" y="448.5596">getAgendaRepository()</text><polygon fill="#181818" points="653.5,481.1133,643.5,485.1133,653.5,489.1133,649.5,485.1133" style="stroke:#181818;stroke-width:1.0;"/><line style="stroke:#181818;stroke-width:1.0;" x1="647.5" x2="911.5" y1="485.1133" y2="485.1133"/><text fill="#000000" font-family="sans-serif" font-size="13" font-weight="bold" lengthAdjust="spacing" textLength="14" x="659.5" y="479.8506">10</text><text fill="#000000" font-family="sans-serif" font-size="13" lengthAdjust="spacing" textLength="106" x="677.5" y="479.8506">AgendaRepository</text><polygon fill="#181818" points="620.5,512.4043,630.5,516.4043,620.5,520.4043,624.5,516.4043" style="stroke:#181818;stroke-width:1.0;"/><line style="stroke:#181818;stroke-width:1.0;" x1="407.5" x2="626.5" y1="516.4043" y2="516.4043"/><text fill="#000000" font-family="sans-serif" font-size="13" font-weight="bold" lengthAdjust="spacing" textLength="14" x="414.5" y="511.1416">11</text><text fill="#000000" font-family="sans-serif" font-size="13" lengthAdjust="spacing" textLength="141" x="432.5" y="511.1416">getAgendaByGSM(gsm)</text><polygon fill="#181818" points="1021.5,543.6953,1031.5,547.6953,1021.5,551.6953,1025.5,547.6953" style="stroke:#181818;stroke-width:1.0;"/><line style="stroke:#181818;stroke-width:1.0;" x1="642.5" x2="1027.5" y1="547.6953" y2="547.6953"/><text fill="#000000" font-family="sans-serif" font-size="13" font-weight="bold" lengthAdjust="spacing" textLength="14" x="649.5" y="542.4326">12</text><text fill="#000000" font-family="sans-serif" font-size="13" lengthAdjust="spacing" textLength="141" x="667.5" y="542.4326">getAgendaByGSM(gsm)</text><polygon fill="#181818" points="653.5,574.9863,643.5,578.9863,653.5,582.9863,649.5,578.9863" style="stroke:#181818;stroke-width:1.0;"/><line style="stroke:#181818;stroke-width:1.0;stroke-dasharray:2.0,2.0;" x1="647.5" x2="1037.5" y1="578.9863" y2="578.9863"/><text fill="#000000" font-family="sans-serif" font-size="13" font-weight="bold" lengthAdjust="spacing" textLength="14" x="659.5" y="573.7236">13</text><text fill="#000000" font-family="sans-serif" font-size="13" lengthAdjust="spacing" textLength="42" x="677.5" y="573.7236">agenda</text><polygon fill="#181818" points="418.5,606.2773,408.5,610.2773,418.5,614.2773,414.5,610.2773" style="stroke:#181818;stroke-width:1.0;"/><line style="stroke:#181818;stroke-width:1.0;stroke-dasharray:2.0,2.0;" x1="412.5" x2="631.5" y1="610.2773" y2="610.2773"/><text fill="#000000" font-family="sans-serif" font-size="13" font-weight="bold" lengthAdjust="spacing" textLength="14" x="424.5" y="605.0146">14</text><text fill="#000000" font-family="sans-serif" font-size="13" lengthAdjust="spacing" textLength="42" x="442.5" y="605.0146">agenda</text><polygon fill="#181818" points="620.5,637.5684,630.5,641.5684,620.5,645.5684,624.5,641.5684" style="stroke:#181818;stroke-width:1.0;"/><line style="stroke:#181818;stroke-width:1.0;" x1="407.5" x2="626.5" y1="641.5684" y2="641.5684"/><text fill="#000000" font-family="sans-serif" font-size="13" font-weight="bold" lengthAdjust="spacing" textLength="14" x="414.5" y="636.3057">15</text><text fill="#000000" font-family="sans-serif" font-size="13" lengthAdjust="spacing" textLength="111" x="432.5" y="636.3057">getAgendaEntries()</text><rect fill="none" height="43.252" style="stroke:#000000;stroke-width:1.5;" width="164" x="555.5" y="649.5684"/><path d="M555.5,649.5684 L617.5,649.5684 L617.5,658.5684 L607.5,668.5684 L555.5,668.5684 L555.5,649.5684 " fill="#EEEEEE" style="stroke:#000000;stroke-width:2.0;"/><text fill="#000000" font-family="sans-serif" font-size="13" font-weight="bold" lengthAdjust="spacing" textLength="17" x="568.5" y="665.5967">ref</text><text fill="#000000" font-family="sans-serif" font-size="12" lengthAdjust="spacing" textLength="106" x="584.5" y="685.5176">Get Agenda Entries</text><polygon fill="#181818" points="418.5,717.1113,408.5,721.1113,418.5,725.1113,414.5,721.1113" style="stroke:#181818;stroke-width:1.0;"/><line style="stroke:#181818;stroke-width:1.0;stroke-dasharray:2.0,2.0;" x1="412.5" x2="636.5" y1="721.1113" y2="721.1113"/><text fill="#000000" font-family="sans-serif" font-size="13" font-weight="bold" lengthAdjust="spacing" textLength="14" x="424.5" y="715.8486">16</text><text fill="#000000" font-family="sans-serif" font-size="13" lengthAdjust="spacing" textLength="83" x="442.5" y="715.8486">agendaEntries</text><polygon fill="#181818" points="99.5,748.4023,89.5,752.4023,99.5,756.4023,95.5,752.4023" style="stroke:#181818;stroke-width:1.0;"/><line style="stroke:#181818;stroke-width:1.0;stroke-dasharray:2.0,2.0;" x1="93.5" x2="401.5" y1="752.4023" y2="752.4023"/><text fill="#000000" font-family="sans-serif" font-size="13" font-weight="bold" lengthAdjust="spacing" textLength="14" x="105.5" y="747.1396">17</text><text fill="#000000" font-family="sans-serif" font-size="13" lengthAdjust="spacing" textLength="251" x="123.5" y="747.1396">shows list of entries and asks to select one</text><polygon fill="#181818" points="385.5,779.6934,395.5,783.6934,385.5,787.6934,389.5,783.6934" style="stroke:#181818;stroke-width:1.0;"/><line style="stroke:#181818;stroke-width:1.0;" x1="88.5" x2="391.5" y1="783.6934" y2="783.6934"/><text fill="#000000" font-family="sans-serif" font-size="13" font-weight="bold" lengthAdjust="spacing" textLength="14" x="95.5" y="778.4307">18</text><text fill="#000000" font-family="sans-serif" font-size="13" lengthAdjust="spacing" textLength="75" x="113.5" y="778.4307">selects entry</text><polygon fill="#181818" points="1262.5,810.9844,1272.5,814.9844,1262.5,818.9844,1266.5,814.9844" style="stroke:#181818;stroke-width:1.0;"/><line style="stroke:#181818;stroke-width:1.0;" x1="407.5" x2="1268.5" y1="814.9844" y2="814.9844"/><text fill="#000000" font-family="sans-serif" font-size="13" font-weight="bold" lengthAdjust="spacing" textLength="14" x="414.5" y="809.7217">19</text><text fill="#000000" font-family="sans-serif" font-size="13" lengthAdjust="spacing" textLength="106" x="432.5" y="809.7217">get(selectedIndex)</text><polygon fill="#181818" points="418.5,842.2754,408.5,846.2754,418.5,850.2754,414.5,846.2754" style="stroke:#181818;stroke-width:1.0;"/><line style="stroke:#181818;stroke-width:1.0;stroke-dasharray:2.0,2.0;" x1="412.5" x2="1278.5" y1="846.2754" y2="846.2754"/><text fill="#000000" font-family="sans-serif" font-size="13" font-weight="bold" lengthAdjust="spacing" textLength="14" x="424.5" y="841.0127">20</text><text fill="#000000" font-family="sans-serif" font-size="13" lengthAdjust="spacing" textLength="73" x="442.5" y="841.0127">agendaEntry</text><polygon fill="#181818" points="620.5,873.5664,630.5,877.5664,620.5,881.5664,624.5,877.5664" style="stroke:#181818;stroke-width:1.0;"/><line style="stroke:#181818;stroke-width:1.0;" x1="407.5" x2="626.5" y1="877.5664" y2="877.5664"/><text fill="#000000" font-family="sans-serif" font-size="13" font-weight="bold" lengthAdjust="spacing" textLength="14" x="414.5" y="872.3037">21</text><text fill="#000000" font-family="sans-serif" font-size="13" lengthAdjust="spacing" textLength="79" x="432.5" y="872.3037">getTeamList()</text><polygon fill="#181818" points="1160,904.8574,1170,908.8574,1160,912.8574,1164,908.8574" style="stroke:#181818;stroke-width:1.0;"/><line style="stroke:#181818;stroke-width:1.0;" x1="642.5" x2="1166" y1="908.8574" y2="908.8574"/><text fill="#000000" font-family="sans-serif" font-size="13" font-weight="bold" lengthAdjust="spacing" textLength="14" x="649.5" y="903.5947">22</text><text fill="#000000" font-family="sans-serif" font-size="13" lengthAdjust="spacing" textLength="79" x="667.5" y="903.5947">getTeamList()</text><polygon fill="#181818" points="653.5,936.1484,643.5,940.1484,653.5,944.1484,649.5,940.1484" style="stroke:#181818;stroke-width:1.0;"/><line style="stroke:#181818;stroke-width:1.0;stroke-dasharray:2.0,2.0;" x1="647.5" x2="1176" y1="940.1484" y2="940.1484"/><text fill="#000000" font-family="sans-serif" font-size="13" font-weight="bold" lengthAdjust="spacing" textLength="14" x="659.5" y="934.8857">23</text><text fill="#000000" font-family="sans-serif" font-size="13" lengthAdjust="spacing" textLength="36" x="677.5" y="934.8857">teams</text><polygon fill="#181818" points="418.5,967.4395,408.5,971.4395,418.5,975.4395,414.5,971.4395" style="stroke:#181818;stroke-width:1.0;"/><line style="stroke:#181818;stroke-width:1.0;stroke-dasharray:2.0,2.0;" x1="412.5" x2="636.5" y1="971.4395" y2="971.4395"/><text fill="#000000" font-family="sans-serif" font-size="13" font-weight="bold" lengthAdjust="spacing" textLength="14" x="424.5" y="966.1768">24</text><text fill="#000000" font-family="sans-serif" font-size="13" lengthAdjust="spacing" textLength="36" x="442.5" y="966.1768">teams</text><polygon fill="#181818" points="99.5,998.7305,89.5,1002.7305,99.5,1006.7305,95.5,1002.7305" style="stroke:#181818;stroke-width:1.0;"/><line style="stroke:#181818;stroke-width:1.0;stroke-dasharray:2.0,2.0;" x1="93.5" x2="401.5" y1="1002.7305" y2="1002.7305"/><text fill="#000000" font-family="sans-serif" font-size="13" font-weight="bold" lengthAdjust="spacing" textLength="14" x="105.5" y="997.4678">25</text><text fill="#000000" font-family="sans-serif" font-size="13" lengthAdjust="spacing" textLength="248" x="123.5" y="997.4678">shows list of teams and asks to select one</text><polygon fill="#181818" points="385.5,1030.0215,395.5,1034.0215,385.5,1038.0215,389.5,1034.0215" style="stroke:#181818;stroke-width:1.0;"/><line style="stroke:#181818;stroke-width:1.0;" x1="88.5" x2="391.5" y1="1034.0215" y2="1034.0215"/><text fill="#000000" font-family="sans-serif" font-size="13" font-weight="bold" lengthAdjust="spacing" textLength="14" x="95.5" y="1028.7588">26</text><text fill="#000000" font-family="sans-serif" font-size="13" lengthAdjust="spacing" textLength="75" x="113.5" y="1028.7588">selects team</text><polygon fill="#181818" points="1160,1061.3125,1170,1065.3125,1160,1069.3125,1164,1065.3125" style="stroke:#181818;stroke-width:1.0;"/><line style="stroke:#181818;stroke-width:1.0;" x1="407.5" x2="1166" y1="1065.3125" y2="1065.3125"/><text fill="#000000" font-family="sans-serif" font-size="13" font-weight="bold" lengthAdjust="spacing" textLength="14" x="414.5" y="1060.0498">27</text><text fill="#000000" font-family="sans-serif" font-size="13" lengthAdjust="spacing" textLength="106" x="432.5" y="1060.0498">get(selectedIndex)</text><polygon fill="#181818" points="418.5,1092.6035,408.5,1096.6035,418.5,1100.6035,414.5,1096.6035" style="stroke:#181818;stroke-width:1.0;"/><line style="stroke:#181818;stroke-width:1.0;stroke-dasharray:2.0,2.0;" x1="412.5" x2="1176" y1="1096.6035" y2="1096.6035"/><text fill="#000000" font-family="sans-serif" font-size="13" font-weight="bold" lengthAdjust="spacing" textLength="14" x="424.5" y="1091.3408">28</text><text fill="#000000" font-family="sans-serif" font-size="13" lengthAdjust="spacing" textLength="29" x="442.5" y="1091.3408">team</text><polygon fill="#181818" points="99.5,1123.8945,89.5,1127.8945,99.5,1131.8945,95.5,1127.8945" style="stroke:#181818;stroke-width:1.0;"/><line style="stroke:#181818;stroke-width:1.0;stroke-dasharray:2.0,2.0;" x1="93.5" x2="401.5" y1="1127.8945" y2="1127.8945"/><text fill="#000000" font-family="sans-serif" font-size="13" font-weight="bold" lengthAdjust="spacing" textLength="14" x="105.5" y="1122.6318">29</text><text fill="#000000" font-family="sans-serif" font-size="13" lengthAdjust="spacing" textLength="219" x="123.5" y="1122.6318">shows data and requests confirmation</text><polygon fill="#181818" points="385.5,1155.1855,395.5,1159.1855,385.5,1163.1855,389.5,1159.1855" style="stroke:#181818;stroke-width:1.0;"/><line style="stroke:#181818;stroke-width:1.0;" x1="88.5" x2="391.5" y1="1159.1855" y2="1159.1855"/><text fill="#000000" font-family="sans-serif" font-size="13" font-weight="bold" lengthAdjust="spacing" textLength="14" x="95.5" y="1153.9229">30</text><text fill="#000000" font-family="sans-serif" font-size="13" lengthAdjust="spacing" textLength="78" x="113.5" y="1153.9229">confirms data</text><polygon fill="#181818" points="620.5,1186.4766,630.5,1190.4766,620.5,1194.4766,624.5,1190.4766" style="stroke:#181818;stroke-width:1.0;"/><line style="stroke:#181818;stroke-width:1.0;" x1="407.5" x2="626.5" y1="1190.4766" y2="1190.4766"/><text fill="#000000" font-family="sans-serif" font-size="13" font-weight="bold" lengthAdjust="spacing" textLength="14" x="414.5" y="1185.2139">31</text><text fill="#000000" font-family="sans-serif" font-size="13" lengthAdjust="spacing" textLength="188" x="432.5" y="1185.2139">assignTeam(agendaEntry, team)</text><polygon fill="#181818" points="1352,1242.7676,1362,1246.7676,1352,1250.7676,1356,1246.7676" style="stroke:#181818;stroke-width:1.0;"/><line style="stroke:#181818;stroke-width:1.0;" x1="642.5" x2="1358" y1="1246.7676" y2="1246.7676"/><text fill="#000000" font-family="sans-serif" font-size="13" font-weight="bold" lengthAdjust="spacing" textLength="14" x="649.5" y="1241.5049">32</text><text fill="#000000" font-family="sans-serif" font-size="13" lengthAdjust="spacing" textLength="188" x="667.5" y="1241.5049">assignTeam(agendaEntry, team)</text><line style="stroke:#181818;stroke-width:1.0;" x1="1374" x2="1421" y1="1273.0586" y2="1273.0586"/><line style="stroke:#181818;stroke-width:1.0;" x1="1421" x2="1421" y1="1273.0586" y2="1286.0586"/><line style="stroke:#181818;stroke-width:1.0;" x1="1380" x2="1421" y1="1286.0586" y2="1286.0586"/><polygon fill="#181818" points="1390,1282.0586,1380,1286.0586,1390,1290.0586,1386,1286.0586" style="stroke:#181818;stroke-width:1.0;"/><text fill="#000000" font-family="sans-serif" font-size="13" font-weight="bold" lengthAdjust="spacing" textLength="14" x="1386" y="1267.7959">33</text><text fill="#000000" font-family="sans-serif" font-size="13" lengthAdjust="spacing" textLength="148" x="1404" y="1267.7959">validateTeam(Team team)</text><line style="stroke:#181818;stroke-width:1.0;stroke-dasharray:2.0,2.0;" x1="1379" x2="1421" y1="1327.3496" y2="1327.3496"/><line style="stroke:#181818;stroke-width:1.0;stroke-dasharray:2.0,2.0;" x1="1421" x2="1421" y1="1327.3496" y2="1340.3496"/><line style="stroke:#181818;stroke-width:1.0;stroke-dasharray:2.0,2.0;" x1="1374" x2="1421" y1="1340.3496" y2="1340.3496"/><polygon fill="#181818" points="1384,1336.3496,1374,1340.3496,1384,1344.3496,1380,1340.3496" style="stroke:#181818;stroke-width:1.0;"/><text fill="#000000" font-family="sans-serif" font-size="13" font-weight="bold" lengthAdjust="spacing" textLength="14" x="1386" y="1322.0869">34</text><text fill="#000000" font-family="sans-serif" font-size="13" lengthAdjust="spacing" textLength="22" x="1404" y="1322.0869">true</text><line style="stroke:#181818;stroke-width:1.0;" x1="1374" x2="1421" y1="1361.6406" y2="1361.6406"/><line style="stroke:#181818;stroke-width:1.0;" x1="1421" x2="1421" y1="1361.6406" y2="1374.6406"/><line style="stroke:#181818;stroke-width:1.0;" x1="1380" x2="1421" y1="1374.6406" y2="1374.6406"/><polygon fill="#181818" points="1390,1370.6406,1380,1374.6406,1390,1378.6406,1386,1374.6406" style="stroke:#181818;stroke-width:1.0;"/><text fill="#000000" font-family="sans-serif" font-size="13" font-weight="bold" lengthAdjust="spacing" textLength="14" x="1386" y="1356.3779">35</text><text fill="#000000" font-family="sans-serif" font-size="13" lengthAdjust="spacing" textLength="90" x="1404" y="1356.3779">addTeam(team)</text><line style="stroke:#181818;stroke-width:1.0;stroke-dasharray:2.0,2.0;" x1="1379" x2="1421" y1="1415.9316" y2="1415.9316"/><line style="stroke:#181818;stroke-width:1.0;stroke-dasharray:2.0,2.0;" x1="1421" x2="1421" y1="1415.9316" y2="1428.9316"/><line style="stroke:#181818;stroke-width:1.0;stroke-dasharray:2.0,2.0;" x1="1374" x2="1421" y1="1428.9316" y2="1428.9316"/><polygon fill="#181818" points="1384,1424.9316,1374,1428.9316,1384,1432.9316,1380,1428.9316" style="stroke:#181818;stroke-width:1.0;"/><text fill="#000000" font-family="sans-serif" font-size="13" font-weight="bold" lengthAdjust="spacing" textLength="14" x="1386" y="1410.6689">36</text><text fill="#000000" font-family="sans-serif" font-size="13" lengthAdjust="spacing" textLength="22" x="1404" y="1410.6689">true</text><polygon fill="#181818" points="99.5,1451.2227,89.5,1455.2227,99.5,1459.2227,95.5,1455.2227" style="stroke:#181818;stroke-width:1.0;"/><line style="stroke:#181818;stroke-width:1.0;stroke-dasharray:2.0,2.0;" x1="93.5" x2="396.5" y1="1455.2227" y2="1455.2227"/><text fill="#000000" font-family="sans-serif" font-size="13" font-weight="bold" lengthAdjust="spacing" textLength="14" x="105.5" y="1449.96">37</text><text fill="#000000" font-family="sans-serif" font-size="13" lengthAdjust="spacing" textLength="158" x="123.5" y="1449.96">displays operation success</text><polygon fill="#181818" points="94.5,1482.5137,84.5,1486.5137,94.5,1490.5137,90.5,1486.5137" style="stroke:#181818;stroke-width:1.0;"/><line style="stroke:#181818;stroke-width:1.0;stroke-dasharray:2.0,2.0;" x1="88.5" x2="401.5" y1="1486.5137" y2="1486.5137"/><text fill="#000000" font-family="sans-serif" font-size="13" font-weight="bold" lengthAdjust="spacing" textLength="14" x="100.5" y="1481.251">38</text><text fill="#000000" font-family="sans-serif" font-size="13" lengthAdjust="spacing" textLength="198" x="118.5" y="1481.251">sends message to team members</text><!--SRC=[lLXBJ-Cm4BxxLuouKD3o1tf0oW9RLOBLAWstlPXasaOaTZTsWKhy-1tRQUey2auNhIy8n_DzdeVdKVMSYmslU0cb539TLx94qDKMcMg-R7Zwp5UuqBi2eS9KSx4g_0DgpJFvceiLB7cXa36-rL9iooUi63jVvnd2Kahz9DyOJxMiu6nM8GfO438gUE22uAipu0gYsmT6e3fFymqN6iwcaLBvIYJ8oyUvFV8uFthYHWfToQAemMwI-BvpDiQDL3dT8KTbppGRkqLkrAABjqKgJ-Atw0Fyke-IjWGf8p9-02QfgBFbT8tRSfeqQ4abhGqhatHa7B23cmrzkYEBED6xdqaStKRC-21_uHgjiHdKY_w1gskoBapfzBC2BUcliInmC5Up6mBG048kGAy9mN8SG1feSX8x1syHxXN16vOf1T6VBIgj8EEQmqJm4Y-OV_eyhT30M0zsOQxjzkKb0RbZh7MakOCLRdtob_bgi0O2W81NgET2KQIdEBauYj5T3VLGL0MZc3LqgwjQSsE_Gn06msRuHTVRMyx-jQQQBHv-KEPO8CMB52CC5kgitgfm2V85gtw4VBXcg84k6ov0uJtESRLrFFEeCXp0yr60GVQEC2d8EQATCK8TqN3QNFQvZEKxQDWcPMEK323iAzbDflz9pIxjLojwI6sUbjzt5AuJYg6BG3D5yR3q-1T9vIbSAegzzEGAu4bHJwHXhylLgRhyX1hMZnzJ62bzJZunR7YYCRd5GKEDpVufimof6WBSoo6rVLeLMAtbgu8YLnhaqjPqWgNodZMrNs51hHv8WQo3QcgxW_Hx1dTUkVw0zPg1e41mdefcpayJ1udPN6JuDlQHKpiK945i0qRUiR61EsC1VDrGDAdpdfmGai96bifzGaZYqLGDKnAG0fBOhtQcKVoy9V7i5aBHVWcZAGxs-k09MDGH3s2eRTu_0OCrt1AFwYHSiEpzTz9hECcZ0zvj33zAkEtc_IuxEXOuZzYPm3YYcH9IAPPvLN9DpIKxGa3M7IJm_LFZE8hXcS7cji7NofifS-AbYM_MAXSiu96-lx-tD_Olj1xCGYbQDCrGrxLz_Q65_yABd5H7ov3OaQw7V3HoZZ8DilgqzkU4m3WPfG_FCglAi1OzpDCl6tB13rltGvXF8SlLfk0x1NA3bOrfKDiqfTdfg8YYO51GqX6A2vERx3nUelc5HGrb9xymqP3_5m00]--></g></svg>