<?xml version="1.0" encoding="us-ascii" standalone="no"?><svg xmlns="http://www.w3.org/2000/svg" xmlns:xlink="http://www.w3.org/1999/xlink" contentStyleType="text/css" height="1384px" preserveAspectRatio="none" style="width:2031px;height:1384px;background:#FFFFFF;" version="1.1" viewBox="0 0 2031 1384" width="2031px" zoomAndPan="magnify"><defs/><g><!--class ApplicationSession--><g id="elem_ApplicationSession"><rect codeLine="9" fill="#F1F1F1" height="85.2422" id="ApplicationSession" rx="2.5" ry="2.5" style="stroke:#181818;stroke-width:0.5;" width="151" x="1571.5" y="343.5"/><ellipse cx="1586.5" cy="359.5" fill="#ADD1B2" rx="11" ry="11" style="stroke:#181818;stroke-width:1.0;"/><path d="M1589.2656,355.375 Q1589.4219,355.1563 1589.6094,355.0469 Q1589.7969,354.9375 1590.0156,354.9375 Q1590.3906,354.9375 1590.625,355.2031 Q1590.8594,355.4531 1590.8594,356.0625 L1590.8594,357.5156 Q1590.8594,358.125 1590.625,358.3906 Q1590.3906,358.6563 1590.0156,358.6563 Q1589.6719,358.6563 1589.4688,358.4531 Q1589.2656,358.2656 1589.1563,357.75 Q1589.1094,357.3906 1588.9219,357.2031 Q1588.5938,356.8281 1587.9844,356.6094 Q1587.375,356.3906 1586.75,356.3906 Q1585.9844,356.3906 1585.3438,356.7188 Q1584.7188,357.0469 1584.2188,357.7969 Q1583.7344,358.5469 1583.7344,359.5781 L1583.7344,360.6719 Q1583.7344,361.9063 1584.625,362.7344 Q1585.5156,363.5469 1587.1094,363.5469 Q1588.0469,363.5469 1588.7031,363.2969 Q1589.0938,363.1406 1589.5156,362.7031 Q1589.7813,362.4375 1589.9219,362.3594 Q1590.0781,362.2813 1590.2813,362.2813 Q1590.6094,362.2813 1590.8594,362.5469 Q1591.125,362.7969 1591.125,363.1406 Q1591.125,363.4844 1590.7813,363.8906 Q1590.2813,364.4688 1589.4844,364.7969 Q1588.4063,365.25 1587.1094,365.25 Q1585.5938,365.25 1584.3906,364.625 Q1583.4063,364.125 1582.7188,363.0625 Q1582.0313,361.9844 1582.0313,360.7031 L1582.0313,359.5469 Q1582.0313,358.2188 1582.6406,357.0781 Q1583.2656,355.9219 1584.3594,355.3125 Q1585.4531,354.6875 1586.6875,354.6875 Q1587.4219,354.6875 1588.0625,354.8594 Q1588.7188,355.0156 1589.2656,355.375 Z " fill="#000000"/><text fill="#000000" font-family="sans-serif" font-size="14" lengthAdjust="spacing" textLength="119" x="1600.5" y="365.2969">ApplicationSession</text><line style="stroke:#181818;stroke-width:0.5;" x1="1572.5" x2="1721.5" y1="375.5" y2="375.5"/><line style="stroke:#181818;stroke-width:0.5;" x1="1572.5" x2="1721.5" y1="383.5" y2="383.5"/><text fill="#000000" font-family="sans-serif" font-size="14" lengthAdjust="spacing" textLength="128" x="1577.5" y="402.6074">+static getInstance()</text><text fill="#000000" font-family="sans-serif" font-size="14" lengthAdjust="spacing" textLength="136" x="1577.5" y="421.2285">+getCurrentSession()</text></g><!--class UserSession--><g id="elem_UserSession"><rect codeLine="15" fill="#F1F1F1" height="66.6211" id="UserSession" rx="2.5" ry="2.5" style="stroke:#181818;stroke-width:0.5;" width="113" x="1722.5" y="554"/><ellipse cx="1738.4" cy="570" fill="#ADD1B2" rx="11" ry="11" style="stroke:#181818;stroke-width:1.0;"/><path d="M1741.1656,565.875 Q1741.3219,565.6563 1741.5094,565.5469 Q1741.6969,565.4375 1741.9156,565.4375 Q1742.2906,565.4375 1742.525,565.7031 Q1742.7594,565.9531 1742.7594,566.5625 L1742.7594,568.0156 Q1742.7594,568.625 1742.525,568.8906 Q1742.2906,569.1563 1741.9156,569.1563 Q1741.5719,569.1563 1741.3688,568.9531 Q1741.1656,568.7656 1741.0563,568.25 Q1741.0094,567.8906 1740.8219,567.7031 Q1740.4938,567.3281 1739.8844,567.1094 Q1739.275,566.8906 1738.65,566.8906 Q1737.8844,566.8906 1737.2438,567.2188 Q1736.6188,567.5469 1736.1188,568.2969 Q1735.6344,569.0469 1735.6344,570.0781 L1735.6344,571.1719 Q1735.6344,572.4063 1736.525,573.2344 Q1737.4156,574.0469 1739.0094,574.0469 Q1739.9469,574.0469 1740.6031,573.7969 Q1740.9938,573.6406 1741.4156,573.2031 Q1741.6813,572.9375 1741.8219,572.8594 Q1741.9781,572.7813 1742.1813,572.7813 Q1742.5094,572.7813 1742.7594,573.0469 Q1743.025,573.2969 1743.025,573.6406 Q1743.025,573.9844 1742.6813,574.3906 Q1742.1813,574.9688 1741.3844,575.2969 Q1740.3063,575.75 1739.0094,575.75 Q1737.4938,575.75 1736.2906,575.125 Q1735.3063,574.625 1734.6188,573.5625 Q1733.9313,572.4844 1733.9313,571.2031 L1733.9313,570.0469 Q1733.9313,568.7188 1734.5406,567.5781 Q1735.1656,566.4219 1736.2594,565.8125 Q1737.3531,565.1875 1738.5875,565.1875 Q1739.3219,565.1875 1739.9625,565.3594 Q1740.6188,565.5156 1741.1656,565.875 Z " fill="#000000"/><text fill="#000000" font-family="sans-serif" font-size="14" lengthAdjust="spacing" textLength="79" x="1752.6" y="575.7969">UserSession</text><line style="stroke:#181818;stroke-width:0.5;" x1="1723.5" x2="1834.5" y1="586" y2="586"/><line style="stroke:#181818;stroke-width:0.5;" x1="1723.5" x2="1834.5" y1="594" y2="594"/><text fill="#000000" font-family="sans-serif" font-size="14" lengthAdjust="spacing" textLength="101" x="1728.5" y="613.1074">+getUserEmail()</text></g><!--class Team--><g id="elem_Team"><rect codeLine="20" fill="#F1F1F1" height="159.7266" id="Team" rx="2.5" ry="2.5" style="stroke:#181818;stroke-width:0.5;" width="262" x="992" y="1125"/><ellipse cx="1100.75" cy="1141" fill="#ADD1B2" rx="11" ry="11" style="stroke:#181818;stroke-width:1.0;"/><path d="M1103.5156,1136.875 Q1103.6719,1136.6563 1103.8594,1136.5469 Q1104.0469,1136.4375 1104.2656,1136.4375 Q1104.6406,1136.4375 1104.875,1136.7031 Q1105.1094,1136.9531 1105.1094,1137.5625 L1105.1094,1139.0156 Q1105.1094,1139.625 1104.875,1139.8906 Q1104.6406,1140.1563 1104.2656,1140.1563 Q1103.9219,1140.1563 1103.7188,1139.9531 Q1103.5156,1139.7656 1103.4063,1139.25 Q1103.3594,1138.8906 1103.1719,1138.7031 Q1102.8438,1138.3281 1102.2344,1138.1094 Q1101.625,1137.8906 1101,1137.8906 Q1100.2344,1137.8906 1099.5938,1138.2188 Q1098.9688,1138.5469 1098.4688,1139.2969 Q1097.9844,1140.0469 1097.9844,1141.0781 L1097.9844,1142.1719 Q1097.9844,1143.4063 1098.875,1144.2344 Q1099.7656,1145.0469 1101.3594,1145.0469 Q1102.2969,1145.0469 1102.9531,1144.7969 Q1103.3438,1144.6406 1103.7656,1144.2031 Q1104.0313,1143.9375 1104.1719,1143.8594 Q1104.3281,1143.7813 1104.5313,1143.7813 Q1104.8594,1143.7813 1105.1094,1144.0469 Q1105.375,1144.2969 1105.375,1144.6406 Q1105.375,1144.9844 1105.0313,1145.3906 Q1104.5313,1145.9688 1103.7344,1146.2969 Q1102.6563,1146.75 1101.3594,1146.75 Q1099.8438,1146.75 1098.6406,1146.125 Q1097.6563,1145.625 1096.9688,1144.5625 Q1096.2813,1143.4844 1096.2813,1142.2031 L1096.2813,1141.0469 Q1096.2813,1139.7188 1096.8906,1138.5781 Q1097.5156,1137.4219 1098.6094,1136.8125 Q1099.7031,1136.1875 1100.9375,1136.1875 Q1101.6719,1136.1875 1102.3125,1136.3594 Q1102.9688,1136.5156 1103.5156,1136.875 Z " fill="#000000"/><text fill="#000000" font-family="sans-serif" font-size="14" lengthAdjust="spacing" textLength="36" x="1121.25" y="1146.7969">Team</text><line style="stroke:#181818;stroke-width:0.5;" x1="993" x2="1253" y1="1157" y2="1157"/><text fill="#000000" font-family="sans-serif" font-size="14" lengthAdjust="spacing" textLength="211" x="998" y="1176.1074">-collaborators: List&lt;Collaborator&gt;</text><text fill="#000000" font-family="sans-serif" font-size="14" lengthAdjust="spacing" textLength="72" x="998" y="1194.7285">-teamID: int</text><line style="stroke:#181818;stroke-width:0.5;" x1="993" x2="1253" y1="1202.2422" y2="1202.2422"/><text fill="#000000" font-family="sans-serif" font-size="14" lengthAdjust="spacing" textLength="250" x="998" y="1221.3496">+boolean addCollaborator(collaborator)</text><text fill="#000000" font-family="sans-serif" font-size="14" lengthAdjust="spacing" textLength="168" x="998" y="1239.9707">+boolean equals(Object o)</text><text fill="#000000" font-family="sans-serif" font-size="14" lengthAdjust="spacing" textLength="102" x="998" y="1258.5918">+int hashCode()</text><text fill="#000000" font-family="sans-serif" font-size="14" lengthAdjust="spacing" textLength="92" x="998" y="1277.2129">+Team clone()</text></g><!--class TeamRepository--><g id="elem_TeamRepository"><rect codeLine="29" fill="#F1F1F1" height="141.1055" id="TeamRepository" rx="2.5" ry="2.5" style="stroke:#181818;stroke-width:0.5;" width="331" x="1022.5" y="517"/><ellipse cx="1131.75" cy="533" fill="#ADD1B2" rx="11" ry="11" style="stroke:#181818;stroke-width:1.0;"/><path d="M1134.5156,528.875 Q1134.6719,528.6563 1134.8594,528.5469 Q1135.0469,528.4375 1135.2656,528.4375 Q1135.6406,528.4375 1135.875,528.7031 Q1136.1094,528.9531 1136.1094,529.5625 L1136.1094,531.0156 Q1136.1094,531.625 1135.875,531.8906 Q1135.6406,532.1563 1135.2656,532.1563 Q1134.9219,532.1563 1134.7188,531.9531 Q1134.5156,531.7656 1134.4063,531.25 Q1134.3594,530.8906 1134.1719,530.7031 Q1133.8438,530.3281 1133.2344,530.1094 Q1132.625,529.8906 1132,529.8906 Q1131.2344,529.8906 1130.5938,530.2188 Q1129.9688,530.5469 1129.4688,531.2969 Q1128.9844,532.0469 1128.9844,533.0781 L1128.9844,534.1719 Q1128.9844,535.4063 1129.875,536.2344 Q1130.7656,537.0469 1132.3594,537.0469 Q1133.2969,537.0469 1133.9531,536.7969 Q1134.3438,536.6406 1134.7656,536.2031 Q1135.0313,535.9375 1135.1719,535.8594 Q1135.3281,535.7813 1135.5313,535.7813 Q1135.8594,535.7813 1136.1094,536.0469 Q1136.375,536.2969 1136.375,536.6406 Q1136.375,536.9844 1136.0313,537.3906 Q1135.5313,537.9688 1134.7344,538.2969 Q1133.6563,538.75 1132.3594,538.75 Q1130.8438,538.75 1129.6406,538.125 Q1128.6563,537.625 1127.9688,536.5625 Q1127.2813,535.4844 1127.2813,534.2031 L1127.2813,533.0469 Q1127.2813,531.7188 1127.8906,530.5781 Q1128.5156,529.4219 1129.6094,528.8125 Q1130.7031,528.1875 1131.9375,528.1875 Q1132.6719,528.1875 1133.3125,528.3594 Q1133.9688,528.5156 1134.5156,528.875 Z " fill="#000000"/><text fill="#000000" font-family="sans-serif" font-size="14" lengthAdjust="spacing" textLength="104" x="1152.25" y="538.7969">TeamRepository</text><line style="stroke:#181818;stroke-width:0.5;" x1="1023.5" x2="1352.5" y1="549" y2="549"/><text fill="#000000" font-family="sans-serif" font-size="14" lengthAdjust="spacing" textLength="121" x="1028.5" y="568.1074">-List&lt;Team&gt; teams</text><line style="stroke:#181818;stroke-width:0.5;" x1="1023.5" x2="1352.5" y1="575.6211" y2="575.6211"/><text fill="#000000" font-family="sans-serif" font-size="14" lengthAdjust="spacing" textLength="319" x="1028.5" y="594.7285">+Optional&lt;Team&gt; createTeam(List&lt;Collaborator&gt;)</text><text fill="#000000" font-family="sans-serif" font-size="14" lengthAdjust="spacing" textLength="204" x="1028.5" y="613.3496">+boolean addTeam(Team team)</text><text fill="#000000" font-family="sans-serif" font-size="14" lengthAdjust="spacing" textLength="229" x="1028.5" y="631.9707">+boolean validateTeam(Team team)</text><text fill="#000000" font-family="sans-serif" font-size="14" lengthAdjust="spacing" textLength="174" x="1028.5" y="650.5918">+List&lt;Team&gt; getTeamList()</text></g><!--class Collaborator--><g id="elem_Collaborator"><rect codeLine="37" fill="#F1F1F1" height="234.2109" id="Collaborator" rx="2.5" ry="2.5" style="stroke:#181818;stroke-width:0.5;" width="157" x="1353.5" y="1088"/><ellipse cx="1389.65" cy="1104" fill="#ADD1B2" rx="11" ry="11" style="stroke:#181818;stroke-width:1.0;"/><path d="M1392.4156,1099.875 Q1392.5719,1099.6563 1392.7594,1099.5469 Q1392.9469,1099.4375 1393.1656,1099.4375 Q1393.5406,1099.4375 1393.775,1099.7031 Q1394.0094,1099.9531 1394.0094,1100.5625 L1394.0094,1102.0156 Q1394.0094,1102.625 1393.775,1102.8906 Q1393.5406,1103.1563 1393.1656,1103.1563 Q1392.8219,1103.1563 1392.6188,1102.9531 Q1392.4156,1102.7656 1392.3063,1102.25 Q1392.2594,1101.8906 1392.0719,1101.7031 Q1391.7438,1101.3281 1391.1344,1101.1094 Q1390.525,1100.8906 1389.9,1100.8906 Q1389.1344,1100.8906 1388.4938,1101.2188 Q1387.8688,1101.5469 1387.3688,1102.2969 Q1386.8844,1103.0469 1386.8844,1104.0781 L1386.8844,1105.1719 Q1386.8844,1106.4063 1387.775,1107.2344 Q1388.6656,1108.0469 1390.2594,1108.0469 Q1391.1969,1108.0469 1391.8531,1107.7969 Q1392.2438,1107.6406 1392.6656,1107.2031 Q1392.9313,1106.9375 1393.0719,1106.8594 Q1393.2281,1106.7813 1393.4313,1106.7813 Q1393.7594,1106.7813 1394.0094,1107.0469 Q1394.275,1107.2969 1394.275,1107.6406 Q1394.275,1107.9844 1393.9313,1108.3906 Q1393.4313,1108.9688 1392.6344,1109.2969 Q1391.5563,1109.75 1390.2594,1109.75 Q1388.7438,1109.75 1387.5406,1109.125 Q1386.5563,1108.625 1385.8688,1107.5625 Q1385.1813,1106.4844 1385.1813,1105.2031 L1385.1813,1104.0469 Q1385.1813,1102.7188 1385.7906,1101.5781 Q1386.4156,1100.4219 1387.5094,1099.8125 Q1388.6031,1099.1875 1389.8375,1099.1875 Q1390.5719,1099.1875 1391.2125,1099.3594 Q1391.8688,1099.5156 1392.4156,1099.875 Z " fill="#000000"/><text fill="#000000" font-family="sans-serif" font-size="14" lengthAdjust="spacing" textLength="78" x="1408.35" y="1109.7969">Collaborator</text><line style="stroke:#181818;stroke-width:0.5;" x1="1354.5" x2="1509.5" y1="1120" y2="1120"/><text fill="#000000" font-family="sans-serif" font-size="14" lengthAdjust="spacing" textLength="85" x="1359.5" y="1139.1074">-name: String</text><text fill="#000000" font-family="sans-serif" font-size="14" lengthAdjust="spacing" textLength="106" x="1359.5" y="1157.7285">-birthdate: String</text><text fill="#000000" font-family="sans-serif" font-size="14" lengthAdjust="spacing" textLength="145" x="1359.5" y="1176.3496">-admission date: String</text><text fill="#000000" font-family="sans-serif" font-size="14" lengthAdjust="spacing" textLength="101" x="1359.5" y="1194.9707">-address: String</text><text fill="#000000" font-family="sans-serif" font-size="14" lengthAdjust="spacing" textLength="122" x="1359.5" y="1213.5918">-mobile Contact: int</text><text fill="#000000" font-family="sans-serif" font-size="14" lengthAdjust="spacing" textLength="133" x="1359.5" y="1232.2129">-email contact: String</text><text fill="#000000" font-family="sans-serif" font-size="14" lengthAdjust="spacing" textLength="134" x="1359.5" y="1250.834">-taxpayer number: int</text><text fill="#000000" font-family="sans-serif" font-size="14" lengthAdjust="spacing" textLength="121" x="1359.5" y="1269.4551">-ID doc type: String</text><text fill="#000000" font-family="sans-serif" font-size="14" lengthAdjust="spacing" textLength="93" x="1359.5" y="1288.0762">-ID number: int</text><line style="stroke:#181818;stroke-width:0.5;" x1="1354.5" x2="1509.5" y1="1295.5898" y2="1295.5898"/><text fill="#000000" font-family="sans-serif" font-size="14" lengthAdjust="spacing" textLength="145" x="1359.5" y="1314.6973">+boolean addSkill(skill)</text></g><!--class AgendaEntry--><g id="elem_AgendaEntry"><rect codeLine="50" fill="#F1F1F1" height="345.9375" id="AgendaEntry" rx="2.5" ry="2.5" style="stroke:#181818;stroke-width:0.5;" width="743" x="133.5" y="1032"/><ellipse cx="459.75" cy="1048" fill="#ADD1B2" rx="11" ry="11" style="stroke:#181818;stroke-width:1.0;"/><path d="M462.5156,1043.875 Q462.6719,1043.6563 462.8594,1043.5469 Q463.0469,1043.4375 463.2656,1043.4375 Q463.6406,1043.4375 463.875,1043.7031 Q464.1094,1043.9531 464.1094,1044.5625 L464.1094,1046.0156 Q464.1094,1046.625 463.875,1046.8906 Q463.6406,1047.1563 463.2656,1047.1563 Q462.9219,1047.1563 462.7188,1046.9531 Q462.5156,1046.7656 462.4063,1046.25 Q462.3594,1045.8906 462.1719,1045.7031 Q461.8438,1045.3281 461.2344,1045.1094 Q460.625,1044.8906 460,1044.8906 Q459.2344,1044.8906 458.5938,1045.2188 Q457.9688,1045.5469 457.4688,1046.2969 Q456.9844,1047.0469 456.9844,1048.0781 L456.9844,1049.1719 Q456.9844,1050.4063 457.875,1051.2344 Q458.7656,1052.0469 460.3594,1052.0469 Q461.2969,1052.0469 461.9531,1051.7969 Q462.3438,1051.6406 462.7656,1051.2031 Q463.0313,1050.9375 463.1719,1050.8594 Q463.3281,1050.7813 463.5313,1050.7813 Q463.8594,1050.7813 464.1094,1051.0469 Q464.375,1051.2969 464.375,1051.6406 Q464.375,1051.9844 464.0313,1052.3906 Q463.5313,1052.9688 462.7344,1053.2969 Q461.6563,1053.75 460.3594,1053.75 Q458.8438,1053.75 457.6406,1053.125 Q456.6563,1052.625 455.9688,1051.5625 Q455.2813,1050.4844 455.2813,1049.2031 L455.2813,1048.0469 Q455.2813,1046.7188 455.8906,1045.5781 Q456.5156,1044.4219 457.6094,1043.8125 Q458.7031,1043.1875 459.9375,1043.1875 Q460.6719,1043.1875 461.3125,1043.3594 Q461.9688,1043.5156 462.5156,1043.875 Z " fill="#000000"/><text fill="#000000" font-family="sans-serif" font-size="14" lengthAdjust="spacing" textLength="82" x="480.25" y="1053.7969">AgendaEntry</text><line style="stroke:#181818;stroke-width:0.5;" x1="134.5" x2="875.5" y1="1064" y2="1064"/><text fill="#000000" font-family="sans-serif" font-size="14" lengthAdjust="spacing" textLength="72" x="139.5" y="1083.1074">-title: String</text><text fill="#000000" font-family="sans-serif" font-size="14" lengthAdjust="spacing" textLength="147" x="139.5" y="1101.7285">-taskDescription: String</text><text fill="#000000" font-family="sans-serif" font-size="14" lengthAdjust="spacing" textLength="101" x="139.5" y="1120.3496">-urgency: String</text><text fill="#000000" font-family="sans-serif" font-size="14" lengthAdjust="spacing" textLength="102" x="139.5" y="1138.9707">-duration: String</text><text fill="#000000" font-family="sans-serif" font-size="14" lengthAdjust="spacing" textLength="241" x="139.5" y="1157.5918">-associatedGreenSpace: GreenSpace</text><text fill="#000000" font-family="sans-serif" font-size="14" lengthAdjust="spacing" textLength="153" x="139.5" y="1176.2129">-associatedTeam: Team</text><text fill="#000000" font-family="sans-serif" font-size="14" lengthAdjust="spacing" textLength="218" x="139.5" y="1194.834">-associatedVehicles: List&lt;Vehicle&gt;</text><text fill="#000000" font-family="sans-serif" font-size="14" lengthAdjust="spacing" textLength="88" x="139.5" y="1213.4551">-status: String</text><text fill="#000000" font-family="sans-serif" font-size="14" lengthAdjust="spacing" textLength="135" x="139.5" y="1232.0762">-startDate: LocalDate</text><line style="stroke:#181818;stroke-width:0.5;" x1="134.5" x2="875.5" y1="1239.5898" y2="1239.5898"/><text fill="#000000" font-family="sans-serif" font-size="14" lengthAdjust="spacing" textLength="731" x="139.5" y="1258.6973">+AgendaEntry(String title, String taskDescription, String urgency, String duration, String status, LocalDate startDate)</text><text fill="#000000" font-family="sans-serif" font-size="14" lengthAdjust="spacing" textLength="338" x="139.5" y="1277.3184">+boolean addGreenSpace(GreenSpace greenSpace)</text><text fill="#000000" font-family="sans-serif" font-size="14" lengthAdjust="spacing" textLength="204" x="139.5" y="1295.9395">+boolean addTeam(Team team)</text><text fill="#000000" font-family="sans-serif" font-size="14" lengthAdjust="spacing" textLength="237" x="139.5" y="1314.5605">+boolean addVehicle(Vehicle vehicle)</text><text fill="#000000" font-family="sans-serif" font-size="14" lengthAdjust="spacing" textLength="168" x="139.5" y="1333.1816">+boolean equals(Object o)</text><text fill="#000000" font-family="sans-serif" font-size="14" lengthAdjust="spacing" textLength="102" x="139.5" y="1351.8027">+int hashCode()</text><text fill="#000000" font-family="sans-serif" font-size="14" lengthAdjust="spacing" textLength="138" x="139.5" y="1370.4238">+AgendaEntry clone()</text></g><!--class Agenda--><g id="elem_Agenda"><rect codeLine="69" fill="#F1F1F1" height="215.5898" id="Agenda" rx="2.5" ry="2.5" style="stroke:#181818;stroke-width:0.5;" width="315" x="640.5" y="737"/><ellipse cx="769.25" cy="753" fill="#ADD1B2" rx="11" ry="11" style="stroke:#181818;stroke-width:1.0;"/><path d="M772.0156,748.875 Q772.1719,748.6563 772.3594,748.5469 Q772.5469,748.4375 772.7656,748.4375 Q773.1406,748.4375 773.375,748.7031 Q773.6094,748.9531 773.6094,749.5625 L773.6094,751.0156 Q773.6094,751.625 773.375,751.8906 Q773.1406,752.1563 772.7656,752.1563 Q772.4219,752.1563 772.2188,751.9531 Q772.0156,751.7656 771.9063,751.25 Q771.8594,750.8906 771.6719,750.7031 Q771.3438,750.3281 770.7344,750.1094 Q770.125,749.8906 769.5,749.8906 Q768.7344,749.8906 768.0938,750.2188 Q767.4688,750.5469 766.9688,751.2969 Q766.4844,752.0469 766.4844,753.0781 L766.4844,754.1719 Q766.4844,755.4063 767.375,756.2344 Q768.2656,757.0469 769.8594,757.0469 Q770.7969,757.0469 771.4531,756.7969 Q771.8438,756.6406 772.2656,756.2031 Q772.5313,755.9375 772.6719,755.8594 Q772.8281,755.7813 773.0313,755.7813 Q773.3594,755.7813 773.6094,756.0469 Q773.875,756.2969 773.875,756.6406 Q773.875,756.9844 773.5313,757.3906 Q773.0313,757.9688 772.2344,758.2969 Q771.1563,758.75 769.8594,758.75 Q768.3438,758.75 767.1406,758.125 Q766.1563,757.625 765.4688,756.5625 Q764.7813,755.4844 764.7813,754.2031 L764.7813,753.0469 Q764.7813,751.7188 765.3906,750.5781 Q766.0156,749.4219 767.1094,748.8125 Q768.2031,748.1875 769.4375,748.1875 Q770.1719,748.1875 770.8125,748.3594 Q771.4688,748.5156 772.0156,748.875 Z " fill="#000000"/><text fill="#000000" font-family="sans-serif" font-size="14" lengthAdjust="spacing" textLength="49" x="789.75" y="758.7969">Agenda</text><line style="stroke:#181818;stroke-width:0.5;" x1="641.5" x2="954.5" y1="769" y2="769"/><text fill="#000000" font-family="sans-serif" font-size="14" lengthAdjust="spacing" textLength="176" x="646.5" y="788.1074">-entries: List&lt;AgendaEntry&gt;</text><text fill="#000000" font-family="sans-serif" font-size="14" lengthAdjust="spacing" textLength="70" x="646.5" y="806.7285">-gsm: GSM</text><line style="stroke:#181818;stroke-width:0.5;" x1="641.5" x2="954.5" y1="814.2422" y2="814.2422"/><text fill="#000000" font-family="sans-serif" font-size="14" lengthAdjust="spacing" textLength="303" x="646.5" y="833.3496">+Agenda(List&lt;AgendaEntry&gt; entries, GSM gsm)</text><text fill="#000000" font-family="sans-serif" font-size="14" lengthAdjust="spacing" textLength="199" x="646.5" y="851.9707">+boolean addEntry(Entry entry)</text><text fill="#000000" font-family="sans-serif" font-size="14" lengthAdjust="spacing" textLength="283" x="646.5" y="870.5918">+boolean postponeEntry(AgendaEntry entry)</text><text fill="#000000" font-family="sans-serif" font-size="14" lengthAdjust="spacing" textLength="265" x="646.5" y="889.2129">+boolean cancelEntry(AgendaEntry entry)</text><text fill="#000000" font-family="sans-serif" font-size="14" lengthAdjust="spacing" textLength="168" x="646.5" y="907.834">+boolean equals(Object o)</text><text fill="#000000" font-family="sans-serif" font-size="14" lengthAdjust="spacing" textLength="102" x="646.5" y="926.4551">+int hashCode()</text><text fill="#000000" font-family="sans-serif" font-size="14" lengthAdjust="spacing" textLength="138" x="646.5" y="945.0762">+AgendaEntry clone()</text></g><!--class AgendaRepository--><g id="elem_AgendaRepository"><rect codeLine="81" fill="#F1F1F1" height="141.1055" id="AgendaRepository" rx="2.5" ry="2.5" style="stroke:#181818;stroke-width:0.5;" width="260" x="727" y="517"/><ellipse cx="794.25" cy="533" fill="#ADD1B2" rx="11" ry="11" style="stroke:#181818;stroke-width:1.0;"/><path d="M797.0156,528.875 Q797.1719,528.6563 797.3594,528.5469 Q797.5469,528.4375 797.7656,528.4375 Q798.1406,528.4375 798.375,528.7031 Q798.6094,528.9531 798.6094,529.5625 L798.6094,531.0156 Q798.6094,531.625 798.375,531.8906 Q798.1406,532.1563 797.7656,532.1563 Q797.4219,532.1563 797.2188,531.9531 Q797.0156,531.7656 796.9063,531.25 Q796.8594,530.8906 796.6719,530.7031 Q796.3438,530.3281 795.7344,530.1094 Q795.125,529.8906 794.5,529.8906 Q793.7344,529.8906 793.0938,530.2188 Q792.4688,530.5469 791.9688,531.2969 Q791.4844,532.0469 791.4844,533.0781 L791.4844,534.1719 Q791.4844,535.4063 792.375,536.2344 Q793.2656,537.0469 794.8594,537.0469 Q795.7969,537.0469 796.4531,536.7969 Q796.8438,536.6406 797.2656,536.2031 Q797.5313,535.9375 797.6719,535.8594 Q797.8281,535.7813 798.0313,535.7813 Q798.3594,535.7813 798.6094,536.0469 Q798.875,536.2969 798.875,536.6406 Q798.875,536.9844 798.5313,537.3906 Q798.0313,537.9688 797.2344,538.2969 Q796.1563,538.75 794.8594,538.75 Q793.3438,538.75 792.1406,538.125 Q791.1563,537.625 790.4688,536.5625 Q789.7813,535.4844 789.7813,534.2031 L789.7813,533.0469 Q789.7813,531.7188 790.3906,530.5781 Q791.0156,529.4219 792.1094,528.8125 Q793.2031,528.1875 794.4375,528.1875 Q795.1719,528.1875 795.8125,528.3594 Q796.4688,528.5156 797.0156,528.875 Z " fill="#000000"/><text fill="#000000" font-family="sans-serif" font-size="14" lengthAdjust="spacing" textLength="117" x="814.75" y="538.7969">AgendaRepository</text><line style="stroke:#181818;stroke-width:0.5;" x1="728" x2="986" y1="549" y2="549"/><text fill="#000000" font-family="sans-serif" font-size="14" lengthAdjust="spacing" textLength="151" x="733" y="568.1074">-List&lt;Agenda&gt; agendas</text><line style="stroke:#181818;stroke-width:0.5;" x1="728" x2="986" y1="575.6211" y2="575.6211"/><text fill="#000000" font-family="sans-serif" font-size="14" lengthAdjust="spacing" textLength="247" x="733" y="594.7285">+boolean addAgenda(Agenda agenda)</text><text fill="#000000" font-family="sans-serif" font-size="14" lengthAdjust="spacing" textLength="185" x="733" y="613.3496">+List&lt;Agenda&gt; getAgendas()</text><text fill="#000000" font-family="sans-serif" font-size="14" lengthAdjust="spacing" textLength="248" x="733" y="631.9707">+Agenda getAgendaByGSM(GSM gsm)</text><text fill="#000000" font-family="sans-serif" font-size="14" lengthAdjust="spacing" textLength="247" x="733" y="650.5918">+boolean addAgenda(Agenda agenda)</text></g><!--class Repositories--><g id="elem_Repositories"><rect codeLine="89" fill="#F1F1F1" height="103.8633" id="Repositories" rx="2.5" ry="2.5" style="stroke:#181818;stroke-width:0.5;" width="296" x="998" y="334"/><ellipse cx="1102.25" cy="350" fill="#ADD1B2" rx="11" ry="11" style="stroke:#181818;stroke-width:1.0;"/><path d="M1105.0156,345.875 Q1105.1719,345.6563 1105.3594,345.5469 Q1105.5469,345.4375 1105.7656,345.4375 Q1106.1406,345.4375 1106.375,345.7031 Q1106.6094,345.9531 1106.6094,346.5625 L1106.6094,348.0156 Q1106.6094,348.625 1106.375,348.8906 Q1106.1406,349.1563 1105.7656,349.1563 Q1105.4219,349.1563 1105.2188,348.9531 Q1105.0156,348.7656 1104.9063,348.25 Q1104.8594,347.8906 1104.6719,347.7031 Q1104.3438,347.3281 1103.7344,347.1094 Q1103.125,346.8906 1102.5,346.8906 Q1101.7344,346.8906 1101.0938,347.2188 Q1100.4688,347.5469 1099.9688,348.2969 Q1099.4844,349.0469 1099.4844,350.0781 L1099.4844,351.1719 Q1099.4844,352.4063 1100.375,353.2344 Q1101.2656,354.0469 1102.8594,354.0469 Q1103.7969,354.0469 1104.4531,353.7969 Q1104.8438,353.6406 1105.2656,353.2031 Q1105.5313,352.9375 1105.6719,352.8594 Q1105.8281,352.7813 1106.0313,352.7813 Q1106.3594,352.7813 1106.6094,353.0469 Q1106.875,353.2969 1106.875,353.6406 Q1106.875,353.9844 1106.5313,354.3906 Q1106.0313,354.9688 1105.2344,355.2969 Q1104.1563,355.75 1102.8594,355.75 Q1101.3438,355.75 1100.1406,355.125 Q1099.1563,354.625 1098.4688,353.5625 Q1097.7813,352.4844 1097.7813,351.2031 L1097.7813,350.0469 Q1097.7813,348.7188 1098.3906,347.5781 Q1099.0156,346.4219 1100.1094,345.8125 Q1101.2031,345.1875 1102.4375,345.1875 Q1103.1719,345.1875 1103.8125,345.3594 Q1104.4688,345.5156 1105.0156,345.875 Z " fill="#000000"/><text fill="#000000" font-family="sans-serif" font-size="14" lengthAdjust="spacing" textLength="79" x="1122.75" y="355.7969">Repositories</text><line style="stroke:#181818;stroke-width:0.5;" x1="999" x2="1293" y1="366" y2="366"/><line style="stroke:#181818;stroke-width:0.5;" x1="999" x2="1293" y1="374" y2="374"/><text fill="#000000" font-family="sans-serif" font-size="14" lengthAdjust="spacing" textLength="182" x="1004" y="393.1074">+getInstance() : Repositories</text><text fill="#000000" font-family="sans-serif" font-size="14" lengthAdjust="spacing" textLength="258" x="1004" y="411.7285">+getTeamRepository() : TeamRepository</text><text fill="#000000" font-family="sans-serif" font-size="14" lengthAdjust="spacing" textLength="284" x="1004" y="430.3496">+getAgendaRepository() : AgendaRepository</text></g><!--class AssignTeamUI--><g id="elem_AssignTeamUI"><rect codeLine="95" fill="#F1F1F1" height="234.2109" id="AssignTeamUI" rx="2.5" ry="2.5" style="stroke:#181818;stroke-width:0.5;" width="256" x="373" y="21"/><ellipse cx="451.75" cy="37" fill="#ADD1B2" rx="11" ry="11" style="stroke:#181818;stroke-width:1.0;"/><path d="M454.5156,32.875 Q454.6719,32.6563 454.8594,32.5469 Q455.0469,32.4375 455.2656,32.4375 Q455.6406,32.4375 455.875,32.7031 Q456.1094,32.9531 456.1094,33.5625 L456.1094,35.0156 Q456.1094,35.625 455.875,35.8906 Q455.6406,36.1563 455.2656,36.1563 Q454.9219,36.1563 454.7188,35.9531 Q454.5156,35.7656 454.4063,35.25 Q454.3594,34.8906 454.1719,34.7031 Q453.8438,34.3281 453.2344,34.1094 Q452.625,33.8906 452,33.8906 Q451.2344,33.8906 450.5938,34.2188 Q449.9688,34.5469 449.4688,35.2969 Q448.9844,36.0469 448.9844,37.0781 L448.9844,38.1719 Q448.9844,39.4063 449.875,40.2344 Q450.7656,41.0469 452.3594,41.0469 Q453.2969,41.0469 453.9531,40.7969 Q454.3438,40.6406 454.7656,40.2031 Q455.0313,39.9375 455.1719,39.8594 Q455.3281,39.7813 455.5313,39.7813 Q455.8594,39.7813 456.1094,40.0469 Q456.375,40.2969 456.375,40.6406 Q456.375,40.9844 456.0313,41.3906 Q455.5313,41.9688 454.7344,42.2969 Q453.6563,42.75 452.3594,42.75 Q450.8438,42.75 449.6406,42.125 Q448.6563,41.625 447.9688,40.5625 Q447.2813,39.4844 447.2813,38.2031 L447.2813,37.0469 Q447.2813,35.7188 447.8906,34.5781 Q448.5156,33.4219 449.6094,32.8125 Q450.7031,32.1875 451.9375,32.1875 Q452.6719,32.1875 453.3125,32.3594 Q453.9688,32.5156 454.5156,32.875 Z " fill="#000000"/><text fill="#000000" font-family="sans-serif" font-size="14" lengthAdjust="spacing" textLength="90" x="472.25" y="42.7969">AssignTeamUI</text><line style="stroke:#181818;stroke-width:0.5;" x1="374" x2="628" y1="53" y2="53"/><text fill="#000000" font-family="sans-serif" font-size="14" lengthAdjust="spacing" textLength="212" x="379" y="72.1074">-controller: AssignTeamController</text><text fill="#000000" font-family="sans-serif" font-size="14" lengthAdjust="spacing" textLength="80" x="379" y="90.7285">-team: Team</text><text fill="#000000" font-family="sans-serif" font-size="14" lengthAdjust="spacing" textLength="176" x="379" y="109.3496">-agendaEntry: AgendaEntry</text><line style="stroke:#181818;stroke-width:0.5;" x1="374" x2="628" y1="116.8633" y2="116.8633"/><text fill="#000000" font-family="sans-serif" font-size="14" lengthAdjust="spacing" textLength="244" x="379" y="135.9707">+AssignTeamController getController()</text><text fill="#000000" font-family="sans-serif" font-size="14" lengthAdjust="spacing" textLength="69" x="379" y="154.5918">+void run()</text><text fill="#000000" font-family="sans-serif" font-size="14" lengthAdjust="spacing" textLength="119" x="379" y="173.2129">+void submitData()</text><text fill="#000000" font-family="sans-serif" font-size="14" lengthAdjust="spacing" textLength="126" x="379" y="191.834">+void requestData()</text><text fill="#000000" font-family="sans-serif" font-size="14" lengthAdjust="spacing" textLength="234" x="379" y="210.4551">+AgendaEntry requestAgendaEntry()</text><text fill="#000000" font-family="sans-serif" font-size="14" lengthAdjust="spacing" textLength="142" x="379" y="229.0762">+Team requestTeam()</text><text fill="#000000" font-family="sans-serif" font-size="14" lengthAdjust="spacing" textLength="226" x="379" y="247.6973">+void sendNotifications(Team team)</text></g><!--class AssignTeamController--><g id="elem_AssignTeamController"><rect codeLine="108" fill="#F1F1F1" height="215.5898" id="AssignTeamController" rx="2.5" ry="2.5" style="stroke:#181818;stroke-width:0.5;" width="949" x="1075.5" y="30"/><ellipse cx="1475.75" cy="46" fill="#ADD1B2" rx="11" ry="11" style="stroke:#181818;stroke-width:1.0;"/><path d="M1478.5156,41.875 Q1478.6719,41.6563 1478.8594,41.5469 Q1479.0469,41.4375 1479.2656,41.4375 Q1479.6406,41.4375 1479.875,41.7031 Q1480.1094,41.9531 1480.1094,42.5625 L1480.1094,44.0156 Q1480.1094,44.625 1479.875,44.8906 Q1479.6406,45.1563 1479.2656,45.1563 Q1478.9219,45.1563 1478.7188,44.9531 Q1478.5156,44.7656 1478.4063,44.25 Q1478.3594,43.8906 1478.1719,43.7031 Q1477.8438,43.3281 1477.2344,43.1094 Q1476.625,42.8906 1476,42.8906 Q1475.2344,42.8906 1474.5938,43.2188 Q1473.9688,43.5469 1473.4688,44.2969 Q1472.9844,45.0469 1472.9844,46.0781 L1472.9844,47.1719 Q1472.9844,48.4063 1473.875,49.2344 Q1474.7656,50.0469 1476.3594,50.0469 Q1477.2969,50.0469 1477.9531,49.7969 Q1478.3438,49.6406 1478.7656,49.2031 Q1479.0313,48.9375 1479.1719,48.8594 Q1479.3281,48.7813 1479.5313,48.7813 Q1479.8594,48.7813 1480.1094,49.0469 Q1480.375,49.2969 1480.375,49.6406 Q1480.375,49.9844 1480.0313,50.3906 Q1479.5313,50.9688 1478.7344,51.2969 Q1477.6563,51.75 1476.3594,51.75 Q1474.8438,51.75 1473.6406,51.125 Q1472.6563,50.625 1471.9688,49.5625 Q1471.2813,48.4844 1471.2813,47.2031 L1471.2813,46.0469 Q1471.2813,44.7188 1471.8906,43.5781 Q1472.5156,42.4219 1473.6094,41.8125 Q1474.7031,41.1875 1475.9375,41.1875 Q1476.6719,41.1875 1477.3125,41.3594 Q1477.9688,41.5156 1478.5156,41.875 Z " fill="#000000"/><text fill="#000000" font-family="sans-serif" font-size="14" lengthAdjust="spacing" textLength="140" x="1496.25" y="51.7969">AssignTeamController</text><line style="stroke:#181818;stroke-width:0.5;" x1="1076.5" x2="2023.5" y1="62" y2="62"/><text fill="#000000" font-family="sans-serif" font-size="14" lengthAdjust="spacing" textLength="216" x="1081.5" y="81.1074">-teamRepository: TeamRepository</text><text fill="#000000" font-family="sans-serif" font-size="14" lengthAdjust="spacing" textLength="246" x="1081.5" y="99.7285">-agendaRepository: AgendaRepository</text><text fill="#000000" font-family="sans-serif" font-size="14" lengthAdjust="spacing" textLength="328" x="1081.5" y="118.3496">-authenticationRepository: AuthenticationRepository</text><line style="stroke:#181818;stroke-width:0.5;" x1="1076.5" x2="2023.5" y1="125.8633" y2="125.8633"/><text fill="#000000" font-family="sans-serif" font-size="14" lengthAdjust="spacing" textLength="937" x="1081.5" y="144.9707">+AssignTeamController(teamRepository TeamRepository, AgendaRepository agendaRepository, AuthenticationRepository authenticationRepository)</text><text fill="#000000" font-family="sans-serif" font-size="14" lengthAdjust="spacing" textLength="250" x="1081.5" y="163.5918">+TeamRepository getTeamRepository()</text><text fill="#000000" font-family="sans-serif" font-size="14" lengthAdjust="spacing" textLength="276" x="1081.5" y="182.2129">+AgendaRepository getAgendaRepository()</text><text fill="#000000" font-family="sans-serif" font-size="14" lengthAdjust="spacing" textLength="358" x="1081.5" y="200.834">+AuthenticationRepository getAuthenticationRepository()</text><text fill="#000000" font-family="sans-serif" font-size="14" lengthAdjust="spacing" textLength="447" x="1081.5" y="219.4551">+Optional&lt;AgendaEntry&gt; assignTeam(AgendaEntry entry, Team team)</text><text fill="#000000" font-family="sans-serif" font-size="14" lengthAdjust="spacing" textLength="187" x="1081.5" y="238.0762">+GSM getGSMFromSession()</text></g><g id="elem_GMN13"><path d="M664,107 L664,168.873 A0,0 0 0 0 664,168.873 L1040,168.873 A0,0 0 0 0 1040,168.873 L1040,142 L1075.36,138 L1040,134 L1040,117 L1030,107 L664,107 A0,0 0 0 0 664,107 " fill="#FEFFDD" style="stroke:#181818;stroke-width:0.5;"/><path d="M1030,107 L1030,117 L1040,117 L1030,107 " fill="#FEFFDD" style="stroke:#181818;stroke-width:0.5;"/><text fill="#000000" font-family="sans-serif" font-size="13" lengthAdjust="spacing" textLength="355" x="670" y="126.0283">- Selected AgendaEntry and team are read from GSM's input.</text><text fill="#000000" font-family="sans-serif" font-size="13" lengthAdjust="spacing" textLength="161" x="670" y="143.3193">- Updates the AgendaEntry.</text><text fill="#000000" font-family="sans-serif" font-size="13" lengthAdjust="spacing" textLength="349" x="670" y="160.6104">- Sends message to the collaborators of the assigned Team.</text></g><g id="elem_GMN16"><path d="M6,107 L6,168.873 A0,0 0 0 0 6,168.873 L338,168.873 A0,0 0 0 0 338,168.873 L338,142 L372.89,138 L338,134 L338,117 L328,107 L6,107 A0,0 0 0 0 6,107 " fill="#FEFFDD" style="stroke:#181818;stroke-width:0.5;"/><path d="M328,107 L328,117 L338,117 L328,107 " fill="#FEFFDD" style="stroke:#181818;stroke-width:0.5;"/><text fill="#000000" font-family="sans-serif" font-size="13" lengthAdjust="spacing" textLength="311" x="12" y="126.0283">- UI for GSM to assign teams to entries in the Agenda</text><text fill="#000000" font-family="sans-serif" font-size="13" lengthAdjust="spacing" textLength="253" x="12" y="143.3193">- Communicates with AssignTeamController</text><text fill="#000000" font-family="sans-serif" font-size="13" lengthAdjust="spacing" textLength="291" x="12" y="160.6104">- Receives repositories from AssignTeamController</text></g><g id="elem_GMN19"><path d="M1545.5,1191.5 L1545.5,1218.791 L1794.5,1218.791 L1794.5,1201.5 L1784.5,1191.5 L1545.5,1191.5 " fill="#FEFFDD" style="stroke:#181818;stroke-width:0.5;"/><path d="M1784.5,1191.5 L1784.5,1201.5 L1794.5,1201.5 L1784.5,1191.5 " fill="#FEFFDD" style="stroke:#181818;stroke-width:1.0;"/><text fill="#000000" font-family="sans-serif" font-size="13" lengthAdjust="spacing" textLength="228" x="1551.5" y="1210.5283">- Registered by the GSM in the Agenda</text></g><!--link AgendaEntry to GMN19--><g id="link_AgendaEntry_GMN19"><path d="M876.51,1042.72 C942.95,1013.71 991.5,992.5 991.5,992.5 C991.5,992.5 1510.5,992.5 1510.5,992.5 C1510.5,992.5 1624.58,1144.48 1659.78,1191.38 " fill="none" id="AgendaEntry-GMN19" style="stroke:#181818;stroke-width:1.0;stroke-dasharray:7.0,7.0;"/></g><!--link AgendaEntry to Team--><g id="link_AgendaEntry_Team"><path codeLine="137" d="M876.53,1205 C917.49,1205 950.92,1205 985.77,1205 " fill="none" id="AgendaEntry-to-Team" style="stroke:#181818;stroke-width:1.0;"/><polygon fill="#181818" points="991.77,1205,982.77,1201,986.77,1205,982.77,1209,991.77,1205" style="stroke:#181818;stroke-width:1.0;"/><text fill="#000000" font-family="sans-serif" font-size="13" lengthAdjust="spacing" textLength="79" x="894.75" y="1198.0283">assigned with</text></g><!--link Team to Collaborator--><g id="link_Team_Collaborator"><path codeLine="138" d="M1254.04,1205 C1287.76,1205 1317.01,1205 1347.15,1205 " fill="none" id="Team-to-Collaborator" style="stroke:#181818;stroke-width:1.0;"/><polygon fill="#181818" points="1353.15,1205,1344.15,1201,1348.15,1205,1344.15,1209,1353.15,1205" style="stroke:#181818;stroke-width:1.0;"/><text fill="#000000" font-family="sans-serif" font-size="13" lengthAdjust="spacing" textLength="63" x="1272.25" y="1198.0283">consists of</text></g><!--link Agenda to AgendaEntry--><g id="link_Agenda_AgendaEntry"><path codeLine="139" d="M710.09,953.41 C689.86,978.13 671.6499,1000.3766 649.7999,1027.0766 " fill="none" id="Agenda-to-AgendaEntry" style="stroke:#181818;stroke-width:1.0;"/><polygon fill="#181818" points="646,1031.72,654.7954,1027.2882,649.1666,1027.8505,648.6043,1022.2217,646,1031.72" style="stroke:#181818;stroke-width:1.0;"/><text fill="#000000" font-family="sans-serif" font-size="13" lengthAdjust="spacing" textLength="37" x="679" y="998.0283">shows</text></g><!--link AssignTeamUI to Team--><g id="link_AssignTeamUI_Team"><path codeLine="140" d="M532.16,255.16 C549.25,318.85 567,385 567,385 C567,385 567,385 567,846 C567,846 623,953 623,953 C623,953 894,1032 894,1032 C894,1032 952.6529,1076.0462 1012.7529,1121.1962 " fill="none" id="AssignTeamUI-to-Team" style="stroke:#181818;stroke-width:1.0;"/><polygon fill="#181818" points="1017.55,1124.8,1012.7569,1116.1962,1013.5524,1121.7968,1007.9518,1122.5923,1017.55,1124.8" style="stroke:#181818;stroke-width:1.0;"/><text fill="#000000" font-family="sans-serif" font-size="13" lengthAdjust="spacing" textLength="123" x="568" y="593.0283">sends notifications to</text></g><!--link Repositories to Repositories--><g id="link_Repositories_Repositories"><path codeLine="143" d="M1294.27,370.9 C1315.07,373.36 1329,378.4 1329,386 C1329,393.6 1321.0285,397.9353 1300.2285,400.3953 " fill="none" id="Repositories-to-Repositories" style="stroke:#181818;stroke-width:1.0;"/><polygon fill="#181818" points="1294.27,401.1,1303.6775,404.0153,1299.2354,400.5127,1302.7379,396.0706,1294.27,401.1" style="stroke:#181818;stroke-width:1.0;"/><text fill="#000000" font-family="sans-serif" font-size="13" lengthAdjust="spacing" textLength="49" x="1335" y="391.5283">instance</text></g><!--link ApplicationSession to ApplicationSession--><g id="link_ApplicationSession_ApplicationSession"><path codeLine="144" d="M1722.66,369.29 C1742.5,370.28 1757.5,375.85 1757.5,386 C1757.5,396.15 1748.4925,401.421 1728.6525,402.411 " fill="none" id="ApplicationSession-to-ApplicationSession" style="stroke:#181818;stroke-width:1.0;"/><polygon fill="#181818" points="1722.66,402.71,1731.8482,406.2565,1727.6538,402.4608,1731.4495,398.2664,1722.66,402.71" style="stroke:#181818;stroke-width:1.0;"/><text fill="#000000" font-family="sans-serif" font-size="13" lengthAdjust="spacing" textLength="49" x="1763.5" y="391.5283">instance</text></g><!--link AssignTeamUI to AssignTeamController--><g id="link_AssignTeamUI_AssignTeamController"><path codeLine="146" d="M629.04,33.99 C649.18,17.63 663.5,6 663.5,6 C663.5,6 1039.5,6 1039.5,6 C1039.5,6 1071.4511,14.2576 1126.4311,28.4776 " fill="none" id="AssignTeamUI-to-AssignTeamController" style="stroke:#181818;stroke-width:1.0;stroke-dasharray:7.0,7.0;"/><polygon fill="#181818" points="1132.24,29.98,1124.5283,23.8538,1127.3993,28.728,1122.5251,31.599,1132.24,29.98" style="stroke:#181818;stroke-width:1.0;"/></g><!--link AssignTeamController to Repositories--><g id="link_AssignTeamController_Repositories"><path codeLine="148" d="M1371.8,246.07 C1334.9,268.23 1307,285 1307,285 C1307,285 1273.0964,306.0535 1233.4864,330.6635 " fill="none" id="AssignTeamController-to-Repositories" style="stroke:#181818;stroke-width:1.0;"/><polygon fill="#181818" points="1228.39,333.83,1238.1456,332.4779,1232.637,331.1913,1233.9237,325.6827,1228.39,333.83" style="stroke:#181818;stroke-width:1.0;"/><text fill="#000000" font-family="sans-serif" font-size="13" lengthAdjust="spacing" textLength="108" x="1308" y="300.0283">retrieves instances</text></g><!--link Repositories to AgendaRepository--><g id="link_Repositories_AgendaRepository"><path codeLine="150" d="M1071.95,438.12 C1037.25,462.07 1000.3074,487.5709 962.7674,513.4909 " fill="none" id="Repositories-to-AgendaRepository" style="stroke:#181818;stroke-width:1.0;"/><polygon fill="#181818" points="957.83,516.9,967.5089,515.078,961.9445,514.0591,962.9634,508.4947,957.83,516.9" style="stroke:#181818;stroke-width:1.0;"/><text fill="#000000" font-family="sans-serif" font-size="13" lengthAdjust="spacing" textLength="56" x="1029" y="483.0283">accesses</text></g><!--link Repositories to TeamRepository--><g id="link_Repositories_TeamRepository"><path codeLine="151" d="M1156.76,438.12 C1161.79,462.01 1166.6231,484.9689 1172.0731,510.8389 " fill="none" id="Repositories-to-TeamRepository" style="stroke:#181818;stroke-width:1.0;"/><polygon fill="#181818" points="1173.31,516.71,1175.3688,507.0787,1172.2793,511.8174,1167.5406,508.7279,1173.31,516.71" style="stroke:#181818;stroke-width:1.0;"/><text fill="#000000" font-family="sans-serif" font-size="13" lengthAdjust="spacing" textLength="56" x="1168" y="483.0283">accesses</text></g><!--link AssignTeamController to TeamRepository--><g id="link_AssignTeamController_TeamRepository"><path codeLine="153" d="M1492.69,246.1 C1446.78,331.9 1390,438 1390,438 C1390,438 1340.1038,474.6756 1287.6238,513.2656 " fill="none" id="AssignTeamController-to-TeamRepository" style="stroke:#181818;stroke-width:1.0;stroke-dasharray:7.0,7.0;"/><polygon fill="#181818" points="1282.79,516.82,1292.4104,514.7109,1286.8182,513.858,1287.6711,508.2658,1282.79,516.82" style="stroke:#181818;stroke-width:1.0;"/><text fill="#000000" font-family="sans-serif" font-size="13" lengthAdjust="spacing" textLength="91" x="1445" y="391.5283">teamRepository</text></g><!--link AssignTeamController to AgendaRepository--><g id="link_AssignTeamController_AgendaRepository"><path codeLine="154" d="M1178.87,246.06 C1021.61,291.42 874,334 874,334 C874,334 867.1229,436.1135 862.0929,510.8435 " fill="none" id="AssignTeamController-to-AgendaRepository" style="stroke:#181818;stroke-width:1.0;stroke-dasharray:7.0,7.0;"/><polygon fill="#181818" points="861.69,516.83,866.2854,508.1189,862.0258,511.8413,858.3034,507.5817,861.69,516.83" style="stroke:#181818;stroke-width:1.0;"/><text fill="#000000" font-family="sans-serif" font-size="13" lengthAdjust="spacing" textLength="104" x="875" y="391.5283">agendaRepository</text></g><!--link ApplicationSession to UserSession--><g id="link_ApplicationSession_UserSession"><path codeLine="156" d="M1674.67,428.82 C1699.32,466.07 1731.5584,514.8067 1754.1484,548.9367 " fill="none" id="ApplicationSession-to-UserSession" style="stroke:#181818;stroke-width:1.0;"/><polygon fill="#181818" points="1757.46,553.94,1755.8281,544.2273,1754.7003,549.7706,1749.157,548.6427,1757.46,553.94" style="stroke:#181818;stroke-width:1.0;"/><text fill="#000000" font-family="sans-serif" font-size="13" lengthAdjust="spacing" textLength="72" x="1714" y="483.0283">userSession</text><text fill="#000000" font-family="sans-serif" font-size="13" lengthAdjust="spacing" textLength="7" x="1745.5303" y="542.7537">1</text></g><!--link AssignTeamController to ApplicationSession--><g id="link_AssignTeamController_ApplicationSession"><path codeLine="158" d="M1592.26,246.18 C1605.79,280.49 1617.779,310.8983 1628.319,337.6283 " fill="none" id="AssignTeamController-to-ApplicationSession" style="stroke:#181818;stroke-width:1.0;stroke-dasharray:7.0,7.0;"/><polygon fill="#181818" points="1630.52,343.21,1630.9397,333.3701,1628.6859,338.5586,1623.4974,336.3047,1630.52,343.21" style="stroke:#181818;stroke-width:1.0;"/></g><!--link AssignTeamController to UserSession--><g id="link_AssignTeamController_UserSession"><path codeLine="159" d="M1697.88,246.2 C1760.39,291.51 1819,334 1819,334 C1819,334 1819,438 1819,438 C1819,438 1801.1101,504.4064 1789.3401,548.1164 " fill="none" id="AssignTeamController-to-UserSession" style="stroke:#181818;stroke-width:1.0;stroke-dasharray:7.0,7.0;"/><polygon fill="#181818" points="1787.78,553.91,1793.9825,546.2596,1789.0801,549.082,1786.2577,544.1795,1787.78,553.91" style="stroke:#181818;stroke-width:1.0;"/></g><!--link TeamRepository to Team--><g id="link_TeamRepository_Team"><path codeLine="161" d="M1180.64,658.21 C1168.46,773.56 1144.8099,997.4632 1131.9999,1118.8032 " fill="none" id="TeamRepository-to-Team" style="stroke:#181818;stroke-width:1.0;stroke-dasharray:7.0,7.0;"/><polygon fill="#181818" points="1131.37,1124.77,1136.2928,1116.2397,1131.8949,1119.7976,1128.337,1115.3998,1131.37,1124.77" style="stroke:#181818;stroke-width:1.0;"/><text fill="#000000" font-family="sans-serif" font-size="13" lengthAdjust="spacing" textLength="36" x="1174" y="850.5283">stores</text></g><!--link AgendaRepository to Agenda--><g id="link_AgendaRepository_Agenda"><path codeLine="162" d="M840.88,658.32 C835.28,682.55 830.2203,704.4639 824.0903,731.0039 " fill="none" id="AgendaRepository-to-Agenda" style="stroke:#181818;stroke-width:1.0;stroke-dasharray:7.0,7.0;"/><polygon fill="#181818" points="822.74,736.85,828.6628,728.9811,823.8652,731.9783,820.868,727.1807,822.74,736.85" style="stroke:#181818;stroke-width:1.0;"/><text fill="#000000" font-family="sans-serif" font-size="13" lengthAdjust="spacing" textLength="36" x="834" y="703.0283">stores</text></g><!--SRC=[hLTDR-Cs4BthLn1xYOBOHdirYW2firqOs7Q1TTCxBT4o6ufKIIfRTz7_tk67fA545GkqESGIvytmpHjoIDsPLouxgcbBMYLLTTMgPSJgdXMJfQFLAstOoTu48vfLbif6O82vqbfzuR8X5oeCjWWkcRrrZ7HAtDnBSPSnAcrLWRmgGOrvibRpSs_PiLBonFzYvBkYy1Ror7M2LzHoC31ZuAVuMX3uUo36md156cQF4fvbnShxQ8AnGwyrapOwWUNl8UIBONeU2npSyFkMSe6nlpBW641RKYaXw5bfQfKsU_AH6_l30OqzHfm5f-Fpdd1fO_YpKe9HIMXTOuSIHxoVOTaVFIXSVZh_3cKWQZ13K7AbvdfGzPIlfra99TcS_6VMASCX_2scuHbwwixywCcQmV90FdLEQYgYjTACMkQUosMwzvCRIj23FI4NEeDveuBNGzGS4B63khW7Du8pmpJ6yaZQiZqvmLAIJHmwSsslRgxPEArRxXS0oHfh3SjZDjggCuSzSL3IqifEnTqIvXODB8veIBmi_REZDwQ9xDipqzZj-4ngLH6tAsPEO9d34uLFhro8qhZ_I9EdXicQlfTsB3LCpwrW2qhczPcPIdDVwfcrrn2ckir6wrxJ31YcLHK71UiFcZ5vWku1iqtF2vYhvTwlouNfDtRbbM33leglmvPoUxsVbmG6jNts1VoeAYhSOrGBYL46dw35XWnlgGhZUCn_V1yo7mS2ayqquqJZVbcgIOjoUYJD-9XnoMsB112bAUClUGk__wL_uBMpQ2F1EAufQAgQZtL2daEj6WCr_d3wEObTBj13e8t3EgTCgg60WPU3t-OOQ6ws0xu1YDF8mYjtIeXl1F_F0iuwyHRhzqYe_tMDE14WYXTB443tnTWa1szea-7HbC4Q7SRn7syWSec4_ePPHluZSwYMv_wG7hfadq06G7hyU5WwD03d-dZeV1392PsxaIxKop5AwPglXZF1jSp9V1X7Y-5O7flFDgRfIxR7zGlwPOBuMyNu5eL-KxmckfVurVJdbhkEG1CGh2Tcy31UDD6A-rO0-KuGhRuru8a0_8ko_19lI0RtZOnUA9UleoIJn9dw339XqA8o7jRRA-oYI2I1hrXMTIvJLZDIc-LscbFShCwvIdFI6e4pQnZLBGKkrt20hX5nBYksw3hUn9AcIKV1bWriGv9Zuo4qLcRXvoUux2TNOQdWv1Bi0etjihvbJan0xsDribIfhFqSX6htZK1hSe7eRh8x0zsnw-tEExzqxd9b26I9_NSnigmDQO4IL8zOvL791TiHSuCXO-3W-EqAy2EE_6eABySm-v5Su7Be983e8KYuxBhtUFO0NKJF-nrKs_RI5GNCNxYzhglpcLMClm5CumRfnSZwpAXhtbm3TznyNDW6UZlJaFBvvkcv95AcKwW2bsRxIC8LQnJDPL3uPG4sV6tUkwPfO28dT0n2jW1wmdtHNDKNKoGTTvp3-19At7-8-xWhalC2uCcxkzE6WwDOVjivT6OK-QHSTezvfOjipzl2bwjSyj7ChOKtlnh2B6QUGtHSR7mGkWAu0O-imwoX87YUuMwNyKdRuRfZZjsyLMSr1wBlld-7lul1jKTVoVyov_BpV1MBlxkBMPP3uh2gu1tqMIGpPJXY_W40]--></g></svg>