<?xml version="1.0" encoding="us-ascii" standalone="no"?><svg xmlns="http://www.w3.org/2000/svg" xmlns:xlink="http://www.w3.org/1999/xlink" contentStyleType="text/css" height="1601px" preserveAspectRatio="none" style="width:1559px;height:1601px;background:#FFFFFF;" version="1.1" viewBox="0 0 1559 1601" width="1559px" zoomAndPan="magnify"><defs/><g><rect fill="#FFFFFF" height="1407.2227" style="stroke:#181818;stroke-width:1.0;" width="10" x="78.5" y="93.6211"/><rect fill="#FFFFFF" height="649.8203" style="stroke:#181818;stroke-width:1.0;" width="10" x="397.5" y="116.9121"/><rect fill="#FFFFFF" height="219.0371" style="stroke:#181818;stroke-width:1.0;" width="10" x="397.5" y="798.0234"/><rect fill="#FFFFFF" height="93.873" style="stroke:#181818;stroke-width:1.0;" width="10" x="397.5" y="1048.3516"/><rect fill="#FFFFFF" height="327.3281" style="stroke:#181818;stroke-width:1.0;" width="10" x="397.5" y="1173.5156"/><rect fill="#FFFFFF" height="577.2383" style="stroke:#181818;stroke-width:1.0;" width="10" x="632.5" y="158.2031"/><rect fill="#FFFFFF" height="90.543" style="stroke:#181818;stroke-width:1.0;" width="10" x="637.5" y="262.4063"/><rect fill="#FFFFFF" height="93.873" style="stroke:#181818;stroke-width:1.0;" width="10" x="632.5" y="891.8965"/><rect fill="#FFFFFF" height="226.4551" style="stroke:#181818;stroke-width:1.0;" width="10" x="632.5" y="1204.8066"/><rect fill="#FFFFFF" height="31.291" style="stroke:#181818;stroke-width:1.0;" width="10" x="800.5" y="191.8242"/><rect fill="#FFFFFF" height="31.291" style="stroke:#181818;stroke-width:1.0;" width="10" x="907.5" y="391.2402"/><rect fill="#FFFFFF" height="31.291" style="stroke:#181818;stroke-width:1.0;" width="10" x="907.5" y="453.8223"/><rect fill="#FFFFFF" height="31.291" style="stroke:#181818;stroke-width:1.0;" width="10" x="1033.5" y="547.6953"/><rect fill="#FFFFFF" height="31.291" style="stroke:#181818;stroke-width:1.0;" width="10" x="1172" y="923.1875"/><rect fill="#FFFFFF" height="31.291" style="stroke:#181818;stroke-width:1.0;" width="10" x="1172" y="1079.6426"/><rect fill="#FFFFFF" height="31.291" style="stroke:#181818;stroke-width:1.0;" width="10" x="1274.5" y="672.8594"/><rect fill="#FFFFFF" height="31.291" style="stroke:#181818;stroke-width:1.0;" width="10" x="1274.5" y="829.3145"/><rect fill="#FFFFFF" height="248.7461" style="stroke:#181818;stroke-width:1.0;" width="10" x="1364" y="1261.0977"/><rect fill="#FFFFFF" height="42.291" style="stroke:#181818;stroke-width:1.0;" width="10" x="1369" y="1300.3887"/><rect fill="#FFFFFF" height="42.291" style="stroke:#181818;stroke-width:1.0;" width="10" x="1369" y="1388.9707"/><line style="stroke:#181818;stroke-width:0.5;stroke-dasharray:5.0,5.0;" x1="83" x2="83" y1="83.6211" y2="1518.8438"/><line style="stroke:#181818;stroke-width:0.5;stroke-dasharray:5.0,5.0;" x1="402.5" x2="402.5" y1="83.6211" y2="1518.8438"/><line style="stroke:#181818;stroke-width:0.5;stroke-dasharray:5.0,5.0;" x1="637.5" x2="637.5" y1="156.7227" y2="1518.8438"/><line style="stroke:#181818;stroke-width:0.5;stroke-dasharray:5.0,5.0;" x1="805" x2="805" y1="83.6211" y2="1518.8438"/><line style="stroke:#181818;stroke-width:0.5;stroke-dasharray:5.0,5.0;" x1="912" x2="912" y1="83.6211" y2="1518.8438"/><line style="stroke:#181818;stroke-width:0.5;stroke-dasharray:5.0,5.0;" x1="1038" x2="1038" y1="83.6211" y2="1518.8438"/><line style="stroke:#181818;stroke-width:0.5;stroke-dasharray:5.0,5.0;" x1="1177" x2="1177" y1="83.6211" y2="1518.8438"/><line style="stroke:#181818;stroke-width:0.5;stroke-dasharray:5.0,5.0;" x1="1279" x2="1279" y1="83.6211" y2="1518.8438"/><line style="stroke:#181818;stroke-width:0.5;stroke-dasharray:5.0,5.0;" x1="1369" x2="1369" y1="83.6211" y2="1518.8438"/><text fill="#000000" font-family="sans-serif" font-size="14" lengthAdjust="spacing" textLength="151" x="5" y="80.1074">Green Spaces Manager</text><ellipse cx="83.5" cy="13.5" fill="#E3E3E3" rx="8" ry="8" style="stroke:#181818;stroke-width:0.5;"/><path d="M83.5,21.5 L83.5,48.5 M70.5,29.5 L96.5,29.5 M83.5,48.5 L70.5,63.5 M83.5,48.5 L96.5,63.5 " fill="none" style="stroke:#181818;stroke-width:0.5;"/><text fill="#000000" font-family="sans-serif" font-size="14" lengthAdjust="spacing" textLength="151" x="5" y="1532.9512">Green Spaces Manager</text><ellipse cx="83.5" cy="1544.9648" fill="#E3E3E3" rx="8" ry="8" style="stroke:#181818;stroke-width:0.5;"/><path d="M83.5,1552.9648 L83.5,1579.9648 M70.5,1560.9648 L96.5,1560.9648 M83.5,1579.9648 L70.5,1594.9648 M83.5,1579.9648 L96.5,1594.9648 " fill="none" style="stroke:#181818;stroke-width:0.5;"/><rect fill="#E3E3E3" height="32.6211" rx="2.5" ry="2.5" style="stroke:#181818;stroke-width:0.5;" width="108" x="348.5" y="50"/><text fill="#000000" font-family="sans-serif" font-size="14" lengthAdjust="spacing" textLength="94" x="355.5" y="72.1074">:AssignTeamUI</text><rect fill="#E3E3E3" height="32.6211" rx="2.5" ry="2.5" style="stroke:#181818;stroke-width:0.5;" width="108" x="348.5" y="1517.8438"/><text fill="#000000" font-family="sans-serif" font-size="14" lengthAdjust="spacing" textLength="94" x="355.5" y="1539.9512">:AssignTeamUI</text><rect fill="#E3E3E3" height="32.6211" rx="2.5" ry="2.5" style="stroke:#181818;stroke-width:0.5;" width="158" x="558.5" y="1517.8438"/><text fill="#000000" font-family="sans-serif" font-size="14" lengthAdjust="spacing" textLength="144" x="565.5" y="1539.9512">:AssignTeamController</text><rect fill="#E3E3E3" height="32.6211" rx="2.5" ry="2.5" style="stroke:#181818;stroke-width:0.5;" width="97" x="757" y="50"/><text fill="#000000" font-family="sans-serif" font-size="14" lengthAdjust="spacing" textLength="83" x="764" y="72.1074">:Repositories</text><rect fill="#E3E3E3" height="32.6211" rx="2.5" ry="2.5" style="stroke:#181818;stroke-width:0.5;" width="97" x="757" y="1517.8438"/><text fill="#000000" font-family="sans-serif" font-size="14" lengthAdjust="spacing" textLength="83" x="764" y="1539.9512">:Repositories</text><rect fill="#E3E3E3" height="51.2422" rx="2.5" ry="2.5" style="stroke:#181818;stroke-width:0.5;" width="97" x="864" y="31.3789"/><text fill="#000000" font-family="sans-serif" font-size="14" lengthAdjust="spacing" textLength="74" x="875.5" y="53.4863">repositories</text><text fill="#000000" font-family="sans-serif" font-size="14" lengthAdjust="spacing" textLength="83" x="871" y="72.1074">:Repositories</text><rect fill="#E3E3E3" height="51.2422" rx="2.5" ry="2.5" style="stroke:#181818;stroke-width:0.5;" width="97" x="864" y="1517.8438"/><text fill="#000000" font-family="sans-serif" font-size="14" lengthAdjust="spacing" textLength="74" x="875.5" y="1539.9512">repositories</text><text fill="#000000" font-family="sans-serif" font-size="14" lengthAdjust="spacing" textLength="83" x="871" y="1558.5723">:Repositories</text><rect fill="#E3E3E3" height="51.2422" rx="2.5" ry="2.5" style="stroke:#181818;stroke-width:0.5;" width="135" x="971" y="31.3789"/><text fill="#000000" font-family="sans-serif" font-size="14" lengthAdjust="spacing" textLength="116" x="980.5" y="53.4863">agendaRepository</text><text fill="#000000" font-family="sans-serif" font-size="14" lengthAdjust="spacing" textLength="121" x="978" y="72.1074">:AgendaRepository</text><rect fill="#E3E3E3" height="51.2422" rx="2.5" ry="2.5" style="stroke:#181818;stroke-width:0.5;" width="135" x="971" y="1517.8438"/><text fill="#000000" font-family="sans-serif" font-size="14" lengthAdjust="spacing" textLength="116" x="980.5" y="1539.9512">agendaRepository</text><text fill="#000000" font-family="sans-serif" font-size="14" lengthAdjust="spacing" textLength="121" x="978" y="1558.5723">:AgendaRepository</text><rect fill="#E3E3E3" height="51.2422" rx="2.5" ry="2.5" style="stroke:#181818;stroke-width:0.5;" width="122" x="1116" y="31.3789"/><text fill="#000000" font-family="sans-serif" font-size="14" lengthAdjust="spacing" textLength="99" x="1127.5" y="53.4863">teamRepository</text><text fill="#000000" font-family="sans-serif" font-size="14" lengthAdjust="spacing" textLength="108" x="1123" y="72.1074">:TeamRepository</text><rect fill="#E3E3E3" height="51.2422" rx="2.5" ry="2.5" style="stroke:#181818;stroke-width:0.5;" width="122" x="1116" y="1517.8438"/><text fill="#000000" font-family="sans-serif" font-size="14" lengthAdjust="spacing" textLength="99" x="1127.5" y="1539.9512">teamRepository</text><text fill="#000000" font-family="sans-serif" font-size="14" lengthAdjust="spacing" textLength="108" x="1123" y="1558.5723">:TeamRepository</text><rect fill="#E3E3E3" height="32.6211" rx="2.5" ry="2.5" style="stroke:#181818;stroke-width:0.5;" width="63" x="1248" y="50"/><text fill="#000000" font-family="sans-serif" font-size="14" lengthAdjust="spacing" textLength="49" x="1255" y="72.1074">Agenda</text><rect fill="#E3E3E3" height="32.6211" rx="2.5" ry="2.5" style="stroke:#181818;stroke-width:0.5;" width="63" x="1248" y="1517.8438"/><text fill="#000000" font-family="sans-serif" font-size="14" lengthAdjust="spacing" textLength="49" x="1255" y="1539.9512">Agenda</text><rect fill="#E3E3E3" height="32.6211" rx="2.5" ry="2.5" style="stroke:#181818;stroke-width:0.5;" width="96" x="1321" y="50"/><text fill="#000000" font-family="sans-serif" font-size="14" lengthAdjust="spacing" textLength="82" x="1328" y="72.1074">AgendaEntry</text><rect fill="#E3E3E3" height="32.6211" rx="2.5" ry="2.5" style="stroke:#181818;stroke-width:0.5;" width="96" x="1321" y="1517.8438"/><text fill="#000000" font-family="sans-serif" font-size="14" lengthAdjust="spacing" textLength="82" x="1328" y="1539.9512">AgendaEntry</text><rect fill="#FFFFFF" height="1407.2227" style="stroke:#181818;stroke-width:1.0;" width="10" x="78.5" y="93.6211"/><rect fill="#FFFFFF" height="649.8203" style="stroke:#181818;stroke-width:1.0;" width="10" x="397.5" y="116.9121"/><rect fill="#FFFFFF" height="219.0371" style="stroke:#181818;stroke-width:1.0;" width="10" x="397.5" y="798.0234"/><rect fill="#FFFFFF" height="93.873" style="stroke:#181818;stroke-width:1.0;" width="10" x="397.5" y="1048.3516"/><rect fill="#FFFFFF" height="327.3281" style="stroke:#181818;stroke-width:1.0;" width="10" x="397.5" y="1173.5156"/><rect fill="#FFFFFF" height="577.2383" style="stroke:#181818;stroke-width:1.0;" width="10" x="632.5" y="158.2031"/><rect fill="#FFFFFF" height="90.543" style="stroke:#181818;stroke-width:1.0;" width="10" x="637.5" y="262.4063"/><rect fill="#FFFFFF" height="93.873" style="stroke:#181818;stroke-width:1.0;" width="10" x="632.5" y="891.8965"/><rect fill="#FFFFFF" height="226.4551" style="stroke:#181818;stroke-width:1.0;" width="10" x="632.5" y="1204.8066"/><rect fill="#FFFFFF" height="31.291" style="stroke:#181818;stroke-width:1.0;" width="10" x="800.5" y="191.8242"/><rect fill="#FFFFFF" height="31.291" style="stroke:#181818;stroke-width:1.0;" width="10" x="907.5" y="391.2402"/><rect fill="#FFFFFF" height="31.291" style="stroke:#181818;stroke-width:1.0;" width="10" x="907.5" y="453.8223"/><rect fill="#FFFFFF" height="31.291" style="stroke:#181818;stroke-width:1.0;" width="10" x="1033.5" y="547.6953"/><rect fill="#FFFFFF" height="31.291" style="stroke:#181818;stroke-width:1.0;" width="10" x="1172" y="923.1875"/><rect fill="#FFFFFF" height="31.291" style="stroke:#181818;stroke-width:1.0;" width="10" x="1172" y="1079.6426"/><rect fill="#FFFFFF" height="31.291" style="stroke:#181818;stroke-width:1.0;" width="10" x="1274.5" y="672.8594"/><rect fill="#FFFFFF" height="31.291" style="stroke:#181818;stroke-width:1.0;" width="10" x="1274.5" y="829.3145"/><rect fill="#FFFFFF" height="248.7461" style="stroke:#181818;stroke-width:1.0;" width="10" x="1364" y="1261.0977"/><rect fill="#FFFFFF" height="42.291" style="stroke:#181818;stroke-width:1.0;" width="10" x="1369" y="1300.3887"/><rect fill="#FFFFFF" height="42.291" style="stroke:#181818;stroke-width:1.0;" width="10" x="1369" y="1388.9707"/><polygon fill="#181818" points="385.5,112.9121,395.5,116.9121,385.5,120.9121,389.5,116.9121" style="stroke:#181818;stroke-width:1.0;"/><line style="stroke:#181818;stroke-width:1.0;" x1="88.5" x2="391.5" y1="116.9121" y2="116.9121"/><text fill="#000000" font-family="sans-serif" font-size="13" font-weight="bold" lengthAdjust="spacing" textLength="7" x="95.5" y="111.6494">1</text><text fill="#000000" font-family="sans-serif" font-size="13" lengthAdjust="spacing" textLength="279" x="106.5" y="111.6494">asks to assign a team to an entry in the Agenda</text><polygon fill="#181818" points="546.5,144.2031,556.5,148.2031,546.5,152.2031,550.5,148.2031" style="stroke:#181818;stroke-width:1.0;"/><line style="stroke:#181818;stroke-width:1.0;" x1="407.5" x2="552.5" y1="148.2031" y2="148.2031"/><text fill="#000000" font-family="sans-serif" font-size="13" font-weight="bold" lengthAdjust="spacing" textLength="7" x="414.5" y="142.9404">2</text><text fill="#000000" font-family="sans-serif" font-size="13" lengthAdjust="spacing" textLength="36" x="425.5" y="142.9404">create</text><rect fill="#E3E3E3" height="32.6211" rx="2.5" ry="2.5" style="stroke:#181818;stroke-width:0.5;" width="158" x="558.5" y="124.9121"/><text fill="#000000" font-family="sans-serif" font-size="14" lengthAdjust="spacing" textLength="144" x="565.5" y="147.0195">:AssignTeamController</text><polygon fill="#181818" points="788.5,187.8242,798.5,191.8242,788.5,195.8242,792.5,191.8242" style="stroke:#181818;stroke-width:1.0;"/><line style="stroke:#181818;stroke-width:1.0;" x1="642.5" x2="794.5" y1="191.8242" y2="191.8242"/><text fill="#000000" font-family="sans-serif" font-size="13" font-weight="bold" lengthAdjust="spacing" textLength="7" x="649.5" y="186.5615">3</text><text fill="#000000" font-family="sans-serif" font-size="13" lengthAdjust="spacing" textLength="75" x="660.5" y="186.5615">getInstance()</text><polygon fill="#181818" points="653.5,219.1152,643.5,223.1152,653.5,227.1152,649.5,223.1152" style="stroke:#181818;stroke-width:1.0;"/><line style="stroke:#181818;stroke-width:1.0;stroke-dasharray:2.0,2.0;" x1="647.5" x2="804.5" y1="223.1152" y2="223.1152"/><text fill="#000000" font-family="sans-serif" font-size="13" font-weight="bold" lengthAdjust="spacing" textLength="7" x="659.5" y="217.8525">4</text><text fill="#000000" font-family="sans-serif" font-size="13" lengthAdjust="spacing" textLength="67" x="670.5" y="217.8525">repositories</text><line style="stroke:#181818;stroke-width:1.0;" x1="642.5" x2="689.5" y1="249.4063" y2="249.4063"/><line style="stroke:#181818;stroke-width:1.0;" x1="689.5" x2="689.5" y1="249.4063" y2="262.4063"/><line style="stroke:#181818;stroke-width:1.0;" x1="648.5" x2="689.5" y1="262.4063" y2="262.4063"/><polygon fill="#181818" points="658.5,258.4063,648.5,262.4063,658.5,266.4063,654.5,262.4063" style="stroke:#181818;stroke-width:1.0;"/><text fill="#000000" font-family="sans-serif" font-size="13" font-weight="bold" lengthAdjust="spacing" textLength="7" x="654.5" y="244.1436">5</text><text fill="#000000" font-family="sans-serif" font-size="13" lengthAdjust="spacing" textLength="133" x="665.5" y="244.1436">getGSMFromSession()</text><rect fill="none" height="43.252" style="stroke:#000000;stroke-width:1.5;" width="164" x="555.5" y="275.4063"/><path d="M555.5,275.4063 L617.5,275.4063 L617.5,284.4063 L607.5,294.4063 L555.5,294.4063 L555.5,275.4063 " fill="#EEEEEE" style="stroke:#000000;stroke-width:2.0;"/><text fill="#000000" font-family="sans-serif" font-size="13" font-weight="bold" lengthAdjust="spacing" textLength="17" x="568.5" y="291.4346">ref</text><text fill="#000000" font-family="sans-serif" font-size="12" lengthAdjust="spacing" textLength="48" x="613.5" y="311.3555">Get GSM</text><line style="stroke:#181818;stroke-width:1.0;stroke-dasharray:2.0,2.0;" x1="647.5" x2="689.5" y1="351.9492" y2="351.9492"/><line style="stroke:#181818;stroke-width:1.0;stroke-dasharray:2.0,2.0;" x1="689.5" x2="689.5" y1="351.9492" y2="364.9492"/><line style="stroke:#181818;stroke-width:1.0;stroke-dasharray:2.0,2.0;" x1="642.5" x2="689.5" y1="364.9492" y2="364.9492"/><polygon fill="#181818" points="652.5,360.9492,642.5,364.9492,652.5,368.9492,648.5,364.9492" style="stroke:#181818;stroke-width:1.0;"/><text fill="#000000" font-family="sans-serif" font-size="13" font-weight="bold" lengthAdjust="spacing" textLength="7" x="654.5" y="346.6865">6</text><text fill="#000000" font-family="sans-serif" font-size="13" lengthAdjust="spacing" textLength="25" x="665.5" y="346.6865">gsm</text><polygon fill="#181818" points="895.5,387.2402,905.5,391.2402,895.5,395.2402,899.5,391.2402" style="stroke:#181818;stroke-width:1.0;"/><line style="stroke:#181818;stroke-width:1.0;" x1="642.5" x2="901.5" y1="391.2402" y2="391.2402"/><text fill="#000000" font-family="sans-serif" font-size="13" font-weight="bold" lengthAdjust="spacing" textLength="7" x="649.5" y="385.9775">7</text><text fill="#000000" font-family="sans-serif" font-size="13" lengthAdjust="spacing" textLength="120" x="660.5" y="385.9775">getTeamRepository()</text><polygon fill="#181818" points="653.5,418.5313,643.5,422.5313,653.5,426.5313,649.5,422.5313" style="stroke:#181818;stroke-width:1.0;"/><line style="stroke:#181818;stroke-width:1.0;" x1="647.5" x2="911.5" y1="422.5313" y2="422.5313"/><text fill="#000000" font-family="sans-serif" font-size="13" font-weight="bold" lengthAdjust="spacing" textLength="7" x="659.5" y="417.2686">8</text><text fill="#000000" font-family="sans-serif" font-size="13" lengthAdjust="spacing" textLength="94" x="670.5" y="417.2686">TeamRepository</text><polygon fill="#181818" points="895.5,449.8223,905.5,453.8223,895.5,457.8223,899.5,453.8223" style="stroke:#181818;stroke-width:1.0;"/><line style="stroke:#181818;stroke-width:1.0;" x1="642.5" x2="901.5" y1="453.8223" y2="453.8223"/><text fill="#000000" font-family="sans-serif" font-size="13" font-weight="bold" lengthAdjust="spacing" textLength="7" x="649.5" y="448.5596">9</text><text fill="#000000" font-family="sans-serif" font-size="13" lengthAdjust="spacing" textLength="132" x="660.5" y="448.5596">getAgendaRepository()</text><polygon fill="#181818" points="653.5,481.1133,643.5,485.1133,653.5,489.1133,649.5,485.1133" style="stroke:#181818;stroke-width:1.0;"/><line style="stroke:#181818;stroke-width:1.0;" x1="647.5" x2="911.5" y1="485.1133" y2="485.1133"/><text fill="#000000" font-family="sans-serif" font-size="13" font-weight="bold" lengthAdjust="spacing" textLength="14" x="659.5" y="479.8506">10</text><text fill="#000000" font-family="sans-serif" font-size="13" lengthAdjust="spacing" textLength="106" x="677.5" y="479.8506">AgendaRepository</text><polygon fill="#181818" points="620.5,512.4043,630.5,516.4043,620.5,520.4043,624.5,516.4043" style="stroke:#181818;stroke-width:1.0;"/><line style="stroke:#181818;stroke-width:1.0;" x1="407.5" x2="626.5" y1="516.4043" y2="516.4043"/><text fill="#000000" font-family="sans-serif" font-size="13" font-weight="bold" lengthAdjust="spacing" textLength="14" x="414.5" y="511.1416">11</text><text fill="#000000" font-family="sans-serif" font-size="13" lengthAdjust="spacing" textLength="141" x="432.5" y="511.1416">getAgendaByGSM(gsm)</text><polygon fill="#181818" points="1021.5,543.6953,1031.5,547.6953,1021.5,551.6953,1025.5,547.6953" style="stroke:#181818;stroke-width:1.0;"/><line style="stroke:#181818;stroke-width:1.0;" x1="642.5" x2="1027.5" y1="547.6953" y2="547.6953"/><text fill="#000000" font-family="sans-serif" font-size="13" font-weight="bold" lengthAdjust="spacing" textLength="14" x="649.5" y="542.4326">12</text><text fill="#000000" font-family="sans-serif" font-size="13" lengthAdjust="spacing" textLength="141" x="667.5" y="542.4326">getAgendaByGSM(gsm)</text><polygon fill="#181818" points="653.5,574.9863,643.5,578.9863,653.5,582.9863,649.5,578.9863" style="stroke:#181818;stroke-width:1.0;"/><line style="stroke:#181818;stroke-width:1.0;stroke-dasharray:2.0,2.0;" x1="647.5" x2="1037.5" y1="578.9863" y2="578.9863"/><text fill="#000000" font-family="sans-serif" font-size="13" font-weight="bold" lengthAdjust="spacing" textLength="14" x="659.5" y="573.7236">13</text><text fill="#000000" font-family="sans-serif" font-size="13" lengthAdjust="spacing" textLength="42" x="677.5" y="573.7236">agenda</text><polygon fill="#181818" points="418.5,606.2773,408.5,610.2773,418.5,614.2773,414.5,610.2773" style="stroke:#181818;stroke-width:1.0;"/><line style="stroke:#181818;stroke-width:1.0;stroke-dasharray:2.0,2.0;" x1="412.5" x2="631.5" y1="610.2773" y2="610.2773"/><text fill="#000000" font-family="sans-serif" font-size="13" font-weight="bold" lengthAdjust="spacing" textLength="14" x="424.5" y="605.0146">14</text><text fill="#000000" font-family="sans-serif" font-size="13" lengthAdjust="spacing" textLength="42" x="442.5" y="605.0146">agenda</text><polygon fill="#181818" points="620.5,637.5684,630.5,641.5684,620.5,645.5684,624.5,641.5684" style="stroke:#181818;stroke-width:1.0;"/><line style="stroke:#181818;stroke-width:1.0;" x1="407.5" x2="626.5" y1="641.5684" y2="641.5684"/><text fill="#000000" font-family="sans-serif" font-size="13" font-weight="bold" lengthAdjust="spacing" textLength="14" x="414.5" y="636.3057">15</text><text fill="#000000" font-family="sans-serif" font-size="13" lengthAdjust="spacing" textLength="111" x="432.5" y="636.3057">getAgendaEntries()</text><polygon fill="#181818" points="1262.5,668.8594,1272.5,672.8594,1262.5,676.8594,1266.5,672.8594" style="stroke:#181818;stroke-width:1.0;"/><line style="stroke:#181818;stroke-width:1.0;" x1="642.5" x2="1268.5" y1="672.8594" y2="672.8594"/><text fill="#000000" font-family="sans-serif" font-size="13" font-weight="bold" lengthAdjust="spacing" textLength="14" x="649.5" y="667.5967">16</text><text fill="#000000" font-family="sans-serif" font-size="13" lengthAdjust="spacing" textLength="111" x="667.5" y="667.5967">getAgendaEntries()</text><polygon fill="#181818" points="653.5,700.1504,643.5,704.1504,653.5,708.1504,649.5,704.1504" style="stroke:#181818;stroke-width:1.0;"/><line style="stroke:#181818;stroke-width:1.0;stroke-dasharray:2.0,2.0;" x1="647.5" x2="1278.5" y1="704.1504" y2="704.1504"/><text fill="#000000" font-family="sans-serif" font-size="13" font-weight="bold" lengthAdjust="spacing" textLength="14" x="659.5" y="698.8877">17</text><text fill="#000000" font-family="sans-serif" font-size="13" lengthAdjust="spacing" textLength="83" x="677.5" y="698.8877">agendaEntries</text><polygon fill="#181818" points="418.5,731.4414,408.5,735.4414,418.5,739.4414,414.5,735.4414" style="stroke:#181818;stroke-width:1.0;"/><line style="stroke:#181818;stroke-width:1.0;stroke-dasharray:2.0,2.0;" x1="412.5" x2="636.5" y1="735.4414" y2="735.4414"/><text fill="#000000" font-family="sans-serif" font-size="13" font-weight="bold" lengthAdjust="spacing" textLength="14" x="424.5" y="730.1787">18</text><text fill="#000000" font-family="sans-serif" font-size="13" lengthAdjust="spacing" textLength="83" x="442.5" y="730.1787">agendaEntries</text><polygon fill="#181818" points="99.5,762.7324,89.5,766.7324,99.5,770.7324,95.5,766.7324" style="stroke:#181818;stroke-width:1.0;"/><line style="stroke:#181818;stroke-width:1.0;stroke-dasharray:2.0,2.0;" x1="93.5" x2="401.5" y1="766.7324" y2="766.7324"/><text fill="#000000" font-family="sans-serif" font-size="13" font-weight="bold" lengthAdjust="spacing" textLength="14" x="105.5" y="761.4697">19</text><text fill="#000000" font-family="sans-serif" font-size="13" lengthAdjust="spacing" textLength="251" x="123.5" y="761.4697">shows list of entries and asks to select one</text><polygon fill="#181818" points="385.5,794.0234,395.5,798.0234,385.5,802.0234,389.5,798.0234" style="stroke:#181818;stroke-width:1.0;"/><line style="stroke:#181818;stroke-width:1.0;" x1="88.5" x2="391.5" y1="798.0234" y2="798.0234"/><text fill="#000000" font-family="sans-serif" font-size="13" font-weight="bold" lengthAdjust="spacing" textLength="14" x="95.5" y="792.7607">20</text><text fill="#000000" font-family="sans-serif" font-size="13" lengthAdjust="spacing" textLength="75" x="113.5" y="792.7607">selects entry</text><polygon fill="#181818" points="1262.5,825.3145,1272.5,829.3145,1262.5,833.3145,1266.5,829.3145" style="stroke:#181818;stroke-width:1.0;"/><line style="stroke:#181818;stroke-width:1.0;" x1="407.5" x2="1268.5" y1="829.3145" y2="829.3145"/><text fill="#000000" font-family="sans-serif" font-size="13" font-weight="bold" lengthAdjust="spacing" textLength="14" x="414.5" y="824.0518">21</text><text fill="#000000" font-family="sans-serif" font-size="13" lengthAdjust="spacing" textLength="106" x="432.5" y="824.0518">get(selectedIndex)</text><polygon fill="#181818" points="418.5,856.6055,408.5,860.6055,418.5,864.6055,414.5,860.6055" style="stroke:#181818;stroke-width:1.0;"/><line style="stroke:#181818;stroke-width:1.0;stroke-dasharray:2.0,2.0;" x1="412.5" x2="1278.5" y1="860.6055" y2="860.6055"/><text fill="#000000" font-family="sans-serif" font-size="13" font-weight="bold" lengthAdjust="spacing" textLength="14" x="424.5" y="855.3428">22</text><text fill="#000000" font-family="sans-serif" font-size="13" lengthAdjust="spacing" textLength="73" x="442.5" y="855.3428">agendaEntry</text><polygon fill="#181818" points="620.5,887.8965,630.5,891.8965,620.5,895.8965,624.5,891.8965" style="stroke:#181818;stroke-width:1.0;"/><line style="stroke:#181818;stroke-width:1.0;" x1="407.5" x2="626.5" y1="891.8965" y2="891.8965"/><text fill="#000000" font-family="sans-serif" font-size="13" font-weight="bold" lengthAdjust="spacing" textLength="14" x="414.5" y="886.6338">23</text><text fill="#000000" font-family="sans-serif" font-size="13" lengthAdjust="spacing" textLength="79" x="432.5" y="886.6338">getTeamList()</text><polygon fill="#181818" points="1160,919.1875,1170,923.1875,1160,927.1875,1164,923.1875" style="stroke:#181818;stroke-width:1.0;"/><line style="stroke:#181818;stroke-width:1.0;" x1="642.5" x2="1166" y1="923.1875" y2="923.1875"/><text fill="#000000" font-family="sans-serif" font-size="13" font-weight="bold" lengthAdjust="spacing" textLength="14" x="649.5" y="917.9248">24</text><text fill="#000000" font-family="sans-serif" font-size="13" lengthAdjust="spacing" textLength="79" x="667.5" y="917.9248">getTeamList()</text><polygon fill="#181818" points="653.5,950.4785,643.5,954.4785,653.5,958.4785,649.5,954.4785" style="stroke:#181818;stroke-width:1.0;"/><line style="stroke:#181818;stroke-width:1.0;stroke-dasharray:2.0,2.0;" x1="647.5" x2="1176" y1="954.4785" y2="954.4785"/><text fill="#000000" font-family="sans-serif" font-size="13" font-weight="bold" lengthAdjust="spacing" textLength="14" x="659.5" y="949.2158">25</text><text fill="#000000" font-family="sans-serif" font-size="13" lengthAdjust="spacing" textLength="36" x="677.5" y="949.2158">teams</text><polygon fill="#181818" points="418.5,981.7695,408.5,985.7695,418.5,989.7695,414.5,985.7695" style="stroke:#181818;stroke-width:1.0;"/><line style="stroke:#181818;stroke-width:1.0;stroke-dasharray:2.0,2.0;" x1="412.5" x2="636.5" y1="985.7695" y2="985.7695"/><text fill="#000000" font-family="sans-serif" font-size="13" font-weight="bold" lengthAdjust="spacing" textLength="14" x="424.5" y="980.5068">26</text><text fill="#000000" font-family="sans-serif" font-size="13" lengthAdjust="spacing" textLength="36" x="442.5" y="980.5068">teams</text><polygon fill="#181818" points="99.5,1013.0605,89.5,1017.0605,99.5,1021.0605,95.5,1017.0605" style="stroke:#181818;stroke-width:1.0;"/><line style="stroke:#181818;stroke-width:1.0;stroke-dasharray:2.0,2.0;" x1="93.5" x2="401.5" y1="1017.0605" y2="1017.0605"/><text fill="#000000" font-family="sans-serif" font-size="13" font-weight="bold" lengthAdjust="spacing" textLength="14" x="105.5" y="1011.7979">27</text><text fill="#000000" font-family="sans-serif" font-size="13" lengthAdjust="spacing" textLength="248" x="123.5" y="1011.7979">shows list of teams and asks to select one</text><polygon fill="#181818" points="385.5,1044.3516,395.5,1048.3516,385.5,1052.3516,389.5,1048.3516" style="stroke:#181818;stroke-width:1.0;"/><line style="stroke:#181818;stroke-width:1.0;" x1="88.5" x2="391.5" y1="1048.3516" y2="1048.3516"/><text fill="#000000" font-family="sans-serif" font-size="13" font-weight="bold" lengthAdjust="spacing" textLength="14" x="95.5" y="1043.0889">28</text><text fill="#000000" font-family="sans-serif" font-size="13" lengthAdjust="spacing" textLength="75" x="113.5" y="1043.0889">selects team</text><polygon fill="#181818" points="1160,1075.6426,1170,1079.6426,1160,1083.6426,1164,1079.6426" style="stroke:#181818;stroke-width:1.0;"/><line style="stroke:#181818;stroke-width:1.0;" x1="407.5" x2="1166" y1="1079.6426" y2="1079.6426"/><text fill="#000000" font-family="sans-serif" font-size="13" font-weight="bold" lengthAdjust="spacing" textLength="14" x="414.5" y="1074.3799">29</text><text fill="#000000" font-family="sans-serif" font-size="13" lengthAdjust="spacing" textLength="106" x="432.5" y="1074.3799">get(selectedIndex)</text><polygon fill="#181818" points="418.5,1106.9336,408.5,1110.9336,418.5,1114.9336,414.5,1110.9336" style="stroke:#181818;stroke-width:1.0;"/><line style="stroke:#181818;stroke-width:1.0;stroke-dasharray:2.0,2.0;" x1="412.5" x2="1176" y1="1110.9336" y2="1110.9336"/><text fill="#000000" font-family="sans-serif" font-size="13" font-weight="bold" lengthAdjust="spacing" textLength="14" x="424.5" y="1105.6709">30</text><text fill="#000000" font-family="sans-serif" font-size="13" lengthAdjust="spacing" textLength="29" x="442.5" y="1105.6709">team</text><polygon fill="#181818" points="99.5,1138.2246,89.5,1142.2246,99.5,1146.2246,95.5,1142.2246" style="stroke:#181818;stroke-width:1.0;"/><line style="stroke:#181818;stroke-width:1.0;stroke-dasharray:2.0,2.0;" x1="93.5" x2="401.5" y1="1142.2246" y2="1142.2246"/><text fill="#000000" font-family="sans-serif" font-size="13" font-weight="bold" lengthAdjust="spacing" textLength="14" x="105.5" y="1136.9619">31</text><text fill="#000000" font-family="sans-serif" font-size="13" lengthAdjust="spacing" textLength="219" x="123.5" y="1136.9619">shows data and requests confirmation</text><polygon fill="#181818" points="385.5,1169.5156,395.5,1173.5156,385.5,1177.5156,389.5,1173.5156" style="stroke:#181818;stroke-width:1.0;"/><line style="stroke:#181818;stroke-width:1.0;" x1="88.5" x2="391.5" y1="1173.5156" y2="1173.5156"/><text fill="#000000" font-family="sans-serif" font-size="13" font-weight="bold" lengthAdjust="spacing" textLength="14" x="95.5" y="1168.2529">32</text><text fill="#000000" font-family="sans-serif" font-size="13" lengthAdjust="spacing" textLength="78" x="113.5" y="1168.2529">confirms data</text><polygon fill="#181818" points="620.5,1200.8066,630.5,1204.8066,620.5,1208.8066,624.5,1204.8066" style="stroke:#181818;stroke-width:1.0;"/><line style="stroke:#181818;stroke-width:1.0;" x1="407.5" x2="626.5" y1="1204.8066" y2="1204.8066"/><text fill="#000000" font-family="sans-serif" font-size="13" font-weight="bold" lengthAdjust="spacing" textLength="14" x="414.5" y="1199.5439">33</text><text fill="#000000" font-family="sans-serif" font-size="13" lengthAdjust="spacing" textLength="188" x="432.5" y="1199.5439">assignTeam(agendaEntry, team)</text><polygon fill="#181818" points="1352,1257.0977,1362,1261.0977,1352,1265.0977,1356,1261.0977" style="stroke:#181818;stroke-width:1.0;"/><line style="stroke:#181818;stroke-width:1.0;" x1="642.5" x2="1358" y1="1261.0977" y2="1261.0977"/><text fill="#000000" font-family="sans-serif" font-size="13" font-weight="bold" lengthAdjust="spacing" textLength="14" x="649.5" y="1255.835">34</text><text fill="#000000" font-family="sans-serif" font-size="13" lengthAdjust="spacing" textLength="188" x="667.5" y="1255.835">assignTeam(agendaEntry, team)</text><line style="stroke:#181818;stroke-width:1.0;" x1="1374" x2="1421" y1="1287.3887" y2="1287.3887"/><line style="stroke:#181818;stroke-width:1.0;" x1="1421" x2="1421" y1="1287.3887" y2="1300.3887"/><line style="stroke:#181818;stroke-width:1.0;" x1="1380" x2="1421" y1="1300.3887" y2="1300.3887"/><polygon fill="#181818" points="1390,1296.3887,1380,1300.3887,1390,1304.3887,1386,1300.3887" style="stroke:#181818;stroke-width:1.0;"/><text fill="#000000" font-family="sans-serif" font-size="13" font-weight="bold" lengthAdjust="spacing" textLength="14" x="1386" y="1282.126">35</text><text fill="#000000" font-family="sans-serif" font-size="13" lengthAdjust="spacing" textLength="148" x="1404" y="1282.126">validateTeam(Team team)</text><line style="stroke:#181818;stroke-width:1.0;stroke-dasharray:2.0,2.0;" x1="1379" x2="1421" y1="1341.6797" y2="1341.6797"/><line style="stroke:#181818;stroke-width:1.0;stroke-dasharray:2.0,2.0;" x1="1421" x2="1421" y1="1341.6797" y2="1354.6797"/><line style="stroke:#181818;stroke-width:1.0;stroke-dasharray:2.0,2.0;" x1="1374" x2="1421" y1="1354.6797" y2="1354.6797"/><polygon fill="#181818" points="1384,1350.6797,1374,1354.6797,1384,1358.6797,1380,1354.6797" style="stroke:#181818;stroke-width:1.0;"/><text fill="#000000" font-family="sans-serif" font-size="13" font-weight="bold" lengthAdjust="spacing" textLength="14" x="1386" y="1336.417">36</text><text fill="#000000" font-family="sans-serif" font-size="13" lengthAdjust="spacing" textLength="22" x="1404" y="1336.417">true</text><line style="stroke:#181818;stroke-width:1.0;" x1="1374" x2="1421" y1="1375.9707" y2="1375.9707"/><line style="stroke:#181818;stroke-width:1.0;" x1="1421" x2="1421" y1="1375.9707" y2="1388.9707"/><line style="stroke:#181818;stroke-width:1.0;" x1="1380" x2="1421" y1="1388.9707" y2="1388.9707"/><polygon fill="#181818" points="1390,1384.9707,1380,1388.9707,1390,1392.9707,1386,1388.9707" style="stroke:#181818;stroke-width:1.0;"/><text fill="#000000" font-family="sans-serif" font-size="13" font-weight="bold" lengthAdjust="spacing" textLength="14" x="1386" y="1370.708">37</text><text fill="#000000" font-family="sans-serif" font-size="13" lengthAdjust="spacing" textLength="90" x="1404" y="1370.708">addTeam(team)</text><line style="stroke:#181818;stroke-width:1.0;stroke-dasharray:2.0,2.0;" x1="1379" x2="1421" y1="1430.2617" y2="1430.2617"/><line style="stroke:#181818;stroke-width:1.0;stroke-dasharray:2.0,2.0;" x1="1421" x2="1421" y1="1430.2617" y2="1443.2617"/><line style="stroke:#181818;stroke-width:1.0;stroke-dasharray:2.0,2.0;" x1="1374" x2="1421" y1="1443.2617" y2="1443.2617"/><polygon fill="#181818" points="1384,1439.2617,1374,1443.2617,1384,1447.2617,1380,1443.2617" style="stroke:#181818;stroke-width:1.0;"/><text fill="#000000" font-family="sans-serif" font-size="13" font-weight="bold" lengthAdjust="spacing" textLength="14" x="1386" y="1424.999">38</text><text fill="#000000" font-family="sans-serif" font-size="13" lengthAdjust="spacing" textLength="22" x="1404" y="1424.999">true</text><polygon fill="#181818" points="99.5,1465.5527,89.5,1469.5527,99.5,1473.5527,95.5,1469.5527" style="stroke:#181818;stroke-width:1.0;"/><line style="stroke:#181818;stroke-width:1.0;stroke-dasharray:2.0,2.0;" x1="93.5" x2="396.5" y1="1469.5527" y2="1469.5527"/><text fill="#000000" font-family="sans-serif" font-size="13" font-weight="bold" lengthAdjust="spacing" textLength="14" x="105.5" y="1464.29">39</text><text fill="#000000" font-family="sans-serif" font-size="13" lengthAdjust="spacing" textLength="158" x="123.5" y="1464.29">displays operation success</text><polygon fill="#181818" points="94.5,1496.8438,84.5,1500.8438,94.5,1504.8438,90.5,1500.8438" style="stroke:#181818;stroke-width:1.0;"/><line style="stroke:#181818;stroke-width:1.0;stroke-dasharray:2.0,2.0;" x1="88.5" x2="401.5" y1="1500.8438" y2="1500.8438"/><text fill="#000000" font-family="sans-serif" font-size="13" font-weight="bold" lengthAdjust="spacing" textLength="14" x="100.5" y="1495.5811">40</text><text fill="#000000" font-family="sans-serif" font-size="13" lengthAdjust="spacing" textLength="198" x="118.5" y="1495.5811">sends message to team members</text><!--SRC=[lLXDR-8m4BtxLunwAQssVu139RRj8gIoMa5wsuit6I1gOhEnQOlK7xzZEnzE2E2WQdsfwdZUyxmPZyUerrHiUS5poAMGyQQGEO8kTiXK_MNBurU-ngNUPmW5nfgBTUOlK1kUoFTKh675CuMCyPsMOfV_mOAnwqsQ8Aoar7_a1-EnbWLSJGj40Kj2HWLpBWY-k0AkOF8uPmIgqpZTSg7XQZnHAbsB27d-ChDBNcP7Lpn8eGkPPINOGxHuxgnTu5QgbFQGeh9hwedzCZLkqSRR9eLdyLiS0lnwdaHj2t969Bm19gj9PyhvkcZRQVAWPHMr9gnDrB5nm0vkslVfYHHnfay_eyNaSS9C3D8thj6ApQ0Sz0_StPEwCARLhmgqfBz6MU1WjcOd1A01X5I0tX22vMX0QcWA4hi6Rn3k7S4RbZ4bqTyTAgqWuPh3IF0SRvY_-ZekqC3O27PXxktqxIq1kMMijQJUWpLkVVA7-MgmUXA0WDUePq9HfiSukZcAqHqrTLzM1QEOqRUhkz9per-JXC6m2NxHzYhbx5yhrNGv_q6LOucKBr8C42mqM0UZm1N8DomEC-JacA86scou0QNtiC2LwdZog3mSm8jHW21L84m9Se5eLupGGDISjfQTjx5yZOTjKZR4oG32GoUxnVG_kTcb_Mf7czBcUVbzJ-aweXow2PHfikYt7duYwNeAjveilFBaBi2Bifv8mqwNkwVAwoTKM3z_pCL8vVDCyjIoJeVRDavDJ- -GmBs2mNqA5ghR6Oe-tGPIk89KYjswpjL6lYl8KgL1hco3GB3KAoHr8w4mexuHf43MGJMDWeFq6n2tNhbcWnrq5a5PvS9U1Mxa836PYGG_XbQCS_9s8jaHUS-6de8f2-3hvhMfmyyKX91wEF3UhOv1j1XCLJD50VKaMlWdmNITv_iRJxSGYlP964pHw7NY25ZK0GUWhmUlZe31wk-l1xKbBbcg-5rq6YwAQ4zqQ-476RV3NCsoesyC5n7xm321g9ySiHIhjCYvfawL7I4WTNi9_FYKE8wY_m5YQrllQUNratNabOblLfKR5d18Fpy_snFL2IrVUQ4KBPhwXTZLllpGmd_ZMKgkesM8xFlm0FbevXnbwcNrQUrl4u5vCiWVdYJMbNul3Z0lszmbcptv9cXIVWn9ghOPtokGMoniVeFQnJ4zoewQA4eC1JajeHmnTSe-z7CqFzselahbNrAFS_OF]--></g></svg>