<?xml version="1.0" encoding="us-ascii" standalone="no"?><svg xmlns="http://www.w3.org/2000/svg" xmlns:xlink="http://www.w3.org/1999/xlink" contentStyleType="text/css" height="808.2px" preserveAspectRatio="none" style="width:1589px;height:808px;background:#FFFFFF;" version="1.1" viewBox="0 0 1589 808" width="1589.4px" zoomAndPan="magnify"><defs/><g><!--class ApplicationSession--><g id="elem_ApplicationSession"><rect codeLine="9" fill="#F1F1F1" height="51.1453" id="ApplicationSession" rx="1.5" ry="1.5" style="stroke:#181818;stroke-width:0.3;" width="90.6" x="1385.7" y="206.1"/><ellipse cx="1394.7" cy="215.7" fill="#ADD1B2" rx="6.6" ry="6.6" style="stroke:#181818;stroke-width:0.6;"/><path d="M1396.3594,213.225 Q1396.4531,213.0938 1396.5656,213.0281 Q1396.6781,212.9625 1396.8094,212.9625 Q1397.0344,212.9625 1397.175,213.1219 Q1397.3156,213.2719 1397.3156,213.6375 L1397.3156,214.5094 Q1397.3156,214.875 1397.175,215.0344 Q1397.0344,215.1938 1396.8094,215.1938 Q1396.6031,215.1938 1396.4813,215.0719 Q1396.3594,214.9594 1396.2938,214.65 Q1396.2656,214.4344 1396.1531,214.3219 Q1395.9563,214.0969 1395.5906,213.9656 Q1395.225,213.8344 1394.85,213.8344 Q1394.3906,213.8344 1394.0063,214.0313 Q1393.6313,214.2281 1393.3313,214.6781 Q1393.0406,215.1281 1393.0406,215.7469 L1393.0406,216.4031 Q1393.0406,217.1437 1393.575,217.6406 Q1394.1094,218.1281 1395.0656,218.1281 Q1395.6281,218.1281 1396.0219,217.9781 Q1396.2563,217.8844 1396.5094,217.6219 Q1396.6688,217.4625 1396.7531,217.4156 Q1396.8469,217.3688 1396.9688,217.3688 Q1397.1656,217.3688 1397.3156,217.5281 Q1397.475,217.6781 1397.475,217.8844 Q1397.475,218.0906 1397.2688,218.3344 Q1396.9688,218.6813 1396.4906,218.8781 Q1395.8438,219.15 1395.0656,219.15 Q1394.1563,219.15 1393.4344,218.775 Q1392.8438,218.475 1392.4312,217.8375 Q1392.0188,217.1906 1392.0188,216.4219 L1392.0188,215.7281 Q1392.0188,214.9313 1392.3844,214.2469 Q1392.7594,213.5531 1393.4156,213.1875 Q1394.0719,212.8125 1394.8125,212.8125 Q1395.2531,212.8125 1395.6375,212.9156 Q1396.0313,213.0094 1396.3594,213.225 Z " fill="#000000"/><text fill="#000000" font-family="sans-serif" font-size="8.4" lengthAdjust="spacing" textLength="71.4" x="1403.1" y="219.1781">ApplicationSession</text><line style="stroke:#181818;stroke-width:0.3;" x1="1386.3" x2="1475.7" y1="225.3" y2="225.3"/><line style="stroke:#181818;stroke-width:0.3;" x1="1386.3" x2="1475.7" y1="230.1" y2="230.1"/><text fill="#000000" font-family="sans-serif" font-size="8.4" lengthAdjust="spacing" textLength="76.8" x="1389.3" y="241.5645">+static getInstance()</text><text fill="#000000" font-family="sans-serif" font-size="8.4" lengthAdjust="spacing" textLength="81.6" x="1389.3" y="252.7371">+getCurrentSession()</text></g><!--class UserSession--><g id="elem_UserSession"><rect codeLine="15" fill="#F1F1F1" height="39.9727" id="UserSession" rx="1.5" ry="1.5" style="stroke:#181818;stroke-width:0.3;" width="67.8" x="1476.3" y="332.4"/><ellipse cx="1485.84" cy="342" fill="#ADD1B2" rx="6.6" ry="6.6" style="stroke:#181818;stroke-width:0.6;"/><path d="M1487.4994,339.525 Q1487.5931,339.3938 1487.7056,339.3281 Q1487.8181,339.2625 1487.9494,339.2625 Q1488.1744,339.2625 1488.315,339.4219 Q1488.4556,339.5719 1488.4556,339.9375 L1488.4556,340.8094 Q1488.4556,341.175 1488.315,341.3344 Q1488.1744,341.4938 1487.9494,341.4938 Q1487.7431,341.4938 1487.6213,341.3719 Q1487.4994,341.2594 1487.4338,340.95 Q1487.4056,340.7344 1487.2931,340.6219 Q1487.0963,340.3969 1486.7306,340.2656 Q1486.365,340.1344 1485.99,340.1344 Q1485.5306,340.1344 1485.1463,340.3313 Q1484.7713,340.5281 1484.4713,340.9781 Q1484.1806,341.4281 1484.1806,342.0469 L1484.1806,342.7031 Q1484.1806,343.4437 1484.715,343.9406 Q1485.2494,344.4281 1486.2056,344.4281 Q1486.7681,344.4281 1487.1619,344.2781 Q1487.3963,344.1844 1487.6494,343.9219 Q1487.8088,343.7625 1487.8931,343.7156 Q1487.9869,343.6688 1488.1088,343.6688 Q1488.3056,343.6688 1488.4556,343.8281 Q1488.615,343.9781 1488.615,344.1844 Q1488.615,344.3906 1488.4088,344.6344 Q1488.1088,344.9813 1487.6306,345.1781 Q1486.9838,345.45 1486.2056,345.45 Q1485.2963,345.45 1484.5744,345.075 Q1483.9838,344.775 1483.5713,344.1375 Q1483.1588,343.4906 1483.1588,342.7219 L1483.1588,342.0281 Q1483.1588,341.2313 1483.5244,340.5469 Q1483.8994,339.8531 1484.5556,339.4875 Q1485.2119,339.1125 1485.9525,339.1125 Q1486.3931,339.1125 1486.7775,339.2156 Q1487.1713,339.3094 1487.4994,339.525 Z " fill="#000000"/><text fill="#000000" font-family="sans-serif" font-size="8.4" lengthAdjust="spacing" textLength="47.4" x="1494.36" y="345.4781">UserSession</text><line style="stroke:#181818;stroke-width:0.3;" x1="1476.9" x2="1543.5" y1="351.6" y2="351.6"/><line style="stroke:#181818;stroke-width:0.3;" x1="1476.9" x2="1543.5" y1="356.4" y2="356.4"/><text fill="#000000" font-family="sans-serif" font-size="8.4" lengthAdjust="spacing" textLength="60.6" x="1479.9" y="367.8645">+getUserEmail()</text></g><!--class Team--><g id="elem_Team"><rect codeLine="20" fill="#F1F1F1" height="95.8359" id="Team" rx="1.5" ry="1.5" style="stroke:#181818;stroke-width:0.3;" width="157.2" x="493.8" y="498"/><ellipse cx="559.05" cy="507.6" fill="#ADD1B2" rx="6.6" ry="6.6" style="stroke:#181818;stroke-width:0.6;"/><path d="M560.7094,505.125 Q560.8031,504.9938 560.9156,504.9281 Q561.0281,504.8625 561.1594,504.8625 Q561.3844,504.8625 561.525,505.0219 Q561.6656,505.1719 561.6656,505.5375 L561.6656,506.4094 Q561.6656,506.775 561.525,506.9344 Q561.3844,507.0938 561.1594,507.0938 Q560.9531,507.0938 560.8313,506.9719 Q560.7094,506.8594 560.6438,506.55 Q560.6156,506.3344 560.5031,506.2219 Q560.3063,505.9969 559.9406,505.8656 Q559.575,505.7344 559.2,505.7344 Q558.7406,505.7344 558.3562,505.9313 Q557.9812,506.1281 557.6813,506.5781 Q557.3906,507.0281 557.3906,507.6469 L557.3906,508.3031 Q557.3906,509.0438 557.925,509.5406 Q558.4594,510.0281 559.4156,510.0281 Q559.9781,510.0281 560.3719,509.8781 Q560.6062,509.7844 560.8594,509.5219 Q561.0188,509.3625 561.1031,509.3156 Q561.1969,509.2687 561.3188,509.2687 Q561.5156,509.2687 561.6656,509.4281 Q561.825,509.5781 561.825,509.7844 Q561.825,509.9906 561.6188,510.2344 Q561.3188,510.5812 560.8406,510.7781 Q560.1938,511.05 559.4156,511.05 Q558.5063,511.05 557.7844,510.675 Q557.1938,510.375 556.7813,509.7375 Q556.3688,509.0906 556.3688,508.3219 L556.3688,507.6281 Q556.3688,506.8312 556.7344,506.1469 Q557.1094,505.4531 557.7656,505.0875 Q558.4219,504.7125 559.1625,504.7125 Q559.6031,504.7125 559.9875,504.8156 Q560.3813,504.9094 560.7094,505.125 Z " fill="#000000"/><text fill="#000000" font-family="sans-serif" font-size="8.4" lengthAdjust="spacing" textLength="21.6" x="571.35" y="511.0781">Team</text><line style="stroke:#181818;stroke-width:0.3;" x1="494.4" x2="650.4" y1="517.2" y2="517.2"/><text fill="#000000" font-family="sans-serif" font-size="8.4" lengthAdjust="spacing" textLength="126.6" x="497.4" y="528.6645">-collaborators: List&lt;Collaborator&gt;</text><text fill="#000000" font-family="sans-serif" font-size="8.4" lengthAdjust="spacing" textLength="43.2" x="497.4" y="539.8371">-teamID: int</text><line style="stroke:#181818;stroke-width:0.3;" x1="494.4" x2="650.4" y1="544.3453" y2="544.3453"/><text fill="#000000" font-family="sans-serif" font-size="8.4" lengthAdjust="spacing" textLength="150" x="497.4" y="555.8098">+boolean addCollaborator(collaborator)</text><text fill="#000000" font-family="sans-serif" font-size="8.4" lengthAdjust="spacing" textLength="100.8" x="497.4" y="566.9824">+boolean equals(Object o)</text><text fill="#000000" font-family="sans-serif" font-size="8.4" lengthAdjust="spacing" textLength="61.2" x="497.4" y="578.1551">+int hashCode()</text><text fill="#000000" font-family="sans-serif" font-size="8.4" lengthAdjust="spacing" textLength="55.2" x="497.4" y="589.3277">+Team clone()</text></g><!--class TeamRepository--><g id="elem_TeamRepository"><rect codeLine="29" fill="#F1F1F1" height="84.6633" id="TeamRepository" rx="1.5" ry="1.5" style="stroke:#181818;stroke-width:0.3;" width="198.6" x="857.7" y="310.2"/><ellipse cx="923.25" cy="319.8" fill="#ADD1B2" rx="6.6" ry="6.6" style="stroke:#181818;stroke-width:0.6;"/><path d="M924.9094,317.325 Q925.0031,317.1937 925.1156,317.1281 Q925.2281,317.0625 925.3594,317.0625 Q925.5844,317.0625 925.725,317.2219 Q925.8656,317.3719 925.8656,317.7375 L925.8656,318.6094 Q925.8656,318.975 925.725,319.1344 Q925.5844,319.2938 925.3594,319.2938 Q925.1531,319.2938 925.0313,319.1719 Q924.9094,319.0594 924.8438,318.75 Q924.8156,318.5344 924.7031,318.4219 Q924.5062,318.1969 924.1406,318.0656 Q923.775,317.9344 923.4,317.9344 Q922.9406,317.9344 922.5563,318.1312 Q922.1813,318.3281 921.8812,318.7781 Q921.5906,319.2281 921.5906,319.8469 L921.5906,320.5031 Q921.5906,321.2438 922.125,321.7406 Q922.6594,322.2281 923.6156,322.2281 Q924.1781,322.2281 924.5719,322.0781 Q924.8063,321.9844 925.0594,321.7219 Q925.2188,321.5625 925.3031,321.5156 Q925.3969,321.4688 925.5188,321.4688 Q925.7156,321.4688 925.8656,321.6281 Q926.025,321.7781 926.025,321.9844 Q926.025,322.1906 925.8187,322.4344 Q925.5188,322.7813 925.0406,322.9781 Q924.3938,323.25 923.6156,323.25 Q922.7063,323.25 921.9844,322.875 Q921.3938,322.575 920.9812,321.9375 Q920.5688,321.2906 920.5688,320.5219 L920.5688,319.8281 Q920.5688,319.0313 920.9344,318.3469 Q921.3094,317.6531 921.9656,317.2875 Q922.6219,316.9125 923.3625,316.9125 Q923.8031,316.9125 924.1875,317.0156 Q924.5813,317.1094 924.9094,317.325 Z " fill="#000000"/><text fill="#000000" font-family="sans-serif" font-size="8.4" lengthAdjust="spacing" textLength="62.4" x="935.55" y="323.2781">TeamRepository</text><line style="stroke:#181818;stroke-width:0.3;" x1="858.3" x2="1055.7" y1="329.4" y2="329.4"/><text fill="#000000" font-family="sans-serif" font-size="8.4" lengthAdjust="spacing" textLength="72.6" x="861.3" y="340.8645">-List&lt;Team&gt; teams</text><line style="stroke:#181818;stroke-width:0.3;" x1="858.3" x2="1055.7" y1="345.3727" y2="345.3727"/><text fill="#000000" font-family="sans-serif" font-size="8.4" lengthAdjust="spacing" textLength="191.4" x="861.3" y="356.8371">+Optional&lt;Team&gt; createTeam(List&lt;Collaborator&gt;)</text><text fill="#000000" font-family="sans-serif" font-size="8.4" lengthAdjust="spacing" textLength="122.4" x="861.3" y="368.0098">+boolean addTeam(Team team)</text><text fill="#000000" font-family="sans-serif" font-size="8.4" lengthAdjust="spacing" textLength="137.4" x="861.3" y="379.1824">+boolean validateTeam(Team team)</text><text fill="#000000" font-family="sans-serif" font-size="8.4" lengthAdjust="spacing" textLength="104.4" x="861.3" y="390.3551">+List&lt;Team&gt; getTeamList()</text></g><!--class Collaborator--><g id="elem_Collaborator"><rect codeLine="37" fill="#F1F1F1" height="140.5266" id="Collaborator" rx="1.5" ry="1.5" style="stroke:#181818;stroke-width:0.3;" width="94.2" x="1355.1" y="475.8"/><ellipse cx="1376.79" cy="485.4" fill="#ADD1B2" rx="6.6" ry="6.6" style="stroke:#181818;stroke-width:0.6;"/><path d="M1378.4494,482.925 Q1378.5431,482.7938 1378.6556,482.7281 Q1378.7681,482.6625 1378.8994,482.6625 Q1379.1244,482.6625 1379.265,482.8219 Q1379.4056,482.9719 1379.4056,483.3375 L1379.4056,484.2094 Q1379.4056,484.575 1379.265,484.7344 Q1379.1244,484.8937 1378.8994,484.8937 Q1378.6931,484.8937 1378.5713,484.7719 Q1378.4494,484.6594 1378.3838,484.35 Q1378.3556,484.1344 1378.2431,484.0219 Q1378.0463,483.7969 1377.6806,483.6656 Q1377.315,483.5344 1376.94,483.5344 Q1376.4806,483.5344 1376.0963,483.7313 Q1375.7213,483.9281 1375.4213,484.3781 Q1375.1306,484.8281 1375.1306,485.4469 L1375.1306,486.1031 Q1375.1306,486.8438 1375.665,487.3406 Q1376.1994,487.8281 1377.1556,487.8281 Q1377.7181,487.8281 1378.1119,487.6781 Q1378.3463,487.5844 1378.5994,487.3219 Q1378.7588,487.1625 1378.8431,487.1156 Q1378.9369,487.0687 1379.0588,487.0687 Q1379.2556,487.0687 1379.4056,487.2281 Q1379.565,487.3781 1379.565,487.5844 Q1379.565,487.7906 1379.3588,488.0344 Q1379.0588,488.3812 1378.5806,488.5781 Q1377.9338,488.85 1377.1556,488.85 Q1376.2463,488.85 1375.5244,488.475 Q1374.9338,488.175 1374.5213,487.5375 Q1374.1088,486.8906 1374.1088,486.1219 L1374.1088,485.4281 Q1374.1088,484.6312 1374.4744,483.9469 Q1374.8494,483.2531 1375.5056,482.8875 Q1376.1619,482.5125 1376.9025,482.5125 Q1377.3431,482.5125 1377.7275,482.6156 Q1378.1213,482.7094 1378.4494,482.925 Z " fill="#000000"/><text fill="#000000" font-family="sans-serif" font-size="8.4" lengthAdjust="spacing" textLength="46.8" x="1388.01" y="488.8781">Collaborator</text><line style="stroke:#181818;stroke-width:0.3;" x1="1355.7" x2="1448.7" y1="495" y2="495"/><text fill="#000000" font-family="sans-serif" font-size="8.4" lengthAdjust="spacing" textLength="51" x="1358.7" y="506.4645">-name: String</text><text fill="#000000" font-family="sans-serif" font-size="8.4" lengthAdjust="spacing" textLength="63.6" x="1358.7" y="517.6371">-birthdate: String</text><text fill="#000000" font-family="sans-serif" font-size="8.4" lengthAdjust="spacing" textLength="87" x="1358.7" y="528.8098">-admission date: String</text><text fill="#000000" font-family="sans-serif" font-size="8.4" lengthAdjust="spacing" textLength="60.6" x="1358.7" y="539.9824">-address: String</text><text fill="#000000" font-family="sans-serif" font-size="8.4" lengthAdjust="spacing" textLength="73.2" x="1358.7" y="551.1551">-mobile Contact: int</text><text fill="#000000" font-family="sans-serif" font-size="8.4" lengthAdjust="spacing" textLength="79.8" x="1358.7" y="562.3277">-email contact: String</text><text fill="#000000" font-family="sans-serif" font-size="8.4" lengthAdjust="spacing" textLength="80.4" x="1358.7" y="573.5004">-taxpayer number: int</text><text fill="#000000" font-family="sans-serif" font-size="8.4" lengthAdjust="spacing" textLength="72.6" x="1358.7" y="584.673">-ID doc type: String</text><text fill="#000000" font-family="sans-serif" font-size="8.4" lengthAdjust="spacing" textLength="55.8" x="1358.7" y="595.8457">-ID number: int</text><line style="stroke:#181818;stroke-width:0.3;" x1="1355.7" x2="1448.7" y1="600.3539" y2="600.3539"/><text fill="#000000" font-family="sans-serif" font-size="8.4" lengthAdjust="spacing" textLength="87" x="1358.7" y="611.8184">+boolean addSkill(skill)</text></g><!--class AgendaEntry--><g id="elem_AgendaEntry"><rect codeLine="50" fill="#F1F1F1" height="207.5625" id="AgendaEntry" rx="1.5" ry="1.5" style="stroke:#181818;stroke-width:0.3;" width="445.8" x="713.1" y="442.2"/><ellipse cx="908.85" cy="451.8" fill="#ADD1B2" rx="6.6" ry="6.6" style="stroke:#181818;stroke-width:0.6;"/><path d="M910.5094,449.325 Q910.6031,449.1937 910.7156,449.1281 Q910.8281,449.0625 910.9594,449.0625 Q911.1844,449.0625 911.325,449.2219 Q911.4656,449.3719 911.4656,449.7375 L911.4656,450.6094 Q911.4656,450.975 911.325,451.1344 Q911.1844,451.2938 910.9594,451.2938 Q910.7531,451.2938 910.6313,451.1719 Q910.5094,451.0594 910.4438,450.75 Q910.4156,450.5344 910.3031,450.4219 Q910.1062,450.1969 909.7406,450.0656 Q909.375,449.9344 909,449.9344 Q908.5406,449.9344 908.1563,450.1312 Q907.7813,450.3281 907.4812,450.7781 Q907.1906,451.2281 907.1906,451.8469 L907.1906,452.5031 Q907.1906,453.2438 907.725,453.7406 Q908.2594,454.2281 909.2156,454.2281 Q909.7781,454.2281 910.1719,454.0781 Q910.4063,453.9844 910.6594,453.7219 Q910.8188,453.5625 910.9031,453.5156 Q910.9969,453.4688 911.1188,453.4688 Q911.3156,453.4688 911.4656,453.6281 Q911.625,453.7781 911.625,453.9844 Q911.625,454.1906 911.4187,454.4344 Q911.1188,454.7813 910.6406,454.9781 Q909.9938,455.25 909.2156,455.25 Q908.3063,455.25 907.5844,454.875 Q906.9938,454.575 906.5813,453.9375 Q906.1687,453.2906 906.1687,452.5219 L906.1687,451.8281 Q906.1687,451.0313 906.5344,450.3469 Q906.9094,449.6531 907.5656,449.2875 Q908.2219,448.9125 908.9625,448.9125 Q909.4031,448.9125 909.7875,449.0156 Q910.1813,449.1094 910.5094,449.325 Z " fill="#000000"/><text fill="#000000" font-family="sans-serif" font-size="8.4" lengthAdjust="spacing" textLength="49.2" x="921.15" y="455.2781">AgendaEntry</text><line style="stroke:#181818;stroke-width:0.3;" x1="713.7" x2="1158.3" y1="461.4" y2="461.4"/><text fill="#000000" font-family="sans-serif" font-size="8.4" lengthAdjust="spacing" textLength="43.2" x="716.7" y="472.8645">-title: String</text><text fill="#000000" font-family="sans-serif" font-size="8.4" lengthAdjust="spacing" textLength="88.2" x="716.7" y="484.0371">-taskDescription: String</text><text fill="#000000" font-family="sans-serif" font-size="8.4" lengthAdjust="spacing" textLength="60.6" x="716.7" y="495.2098">-urgency: String</text><text fill="#000000" font-family="sans-serif" font-size="8.4" lengthAdjust="spacing" textLength="61.2" x="716.7" y="506.3824">-duration: String</text><text fill="#000000" font-family="sans-serif" font-size="8.4" lengthAdjust="spacing" textLength="144.6" x="716.7" y="517.5551">-associatedGreenSpace: GreenSpace</text><text fill="#000000" font-family="sans-serif" font-size="8.4" lengthAdjust="spacing" textLength="91.8" x="716.7" y="528.7277">-associatedTeam: Team</text><text fill="#000000" font-family="sans-serif" font-size="8.4" lengthAdjust="spacing" textLength="130.8" x="716.7" y="539.9004">-associatedVehicles: List&lt;Vehicle&gt;</text><text fill="#000000" font-family="sans-serif" font-size="8.4" lengthAdjust="spacing" textLength="52.8" x="716.7" y="551.073">-status: String</text><text fill="#000000" font-family="sans-serif" font-size="8.4" lengthAdjust="spacing" textLength="81" x="716.7" y="562.2457">-startDate: LocalDate</text><line style="stroke:#181818;stroke-width:0.3;" x1="713.7" x2="1158.3" y1="566.7539" y2="566.7539"/><text fill="#000000" font-family="sans-serif" font-size="8.4" lengthAdjust="spacing" textLength="438.6" x="716.7" y="578.2184">+AgendaEntry(String title, String taskDescription, String urgency, String duration, String status, LocalDate startDate)</text><text fill="#000000" font-family="sans-serif" font-size="8.4" lengthAdjust="spacing" textLength="202.8" x="716.7" y="589.391">+boolean addGreenSpace(GreenSpace greenSpace)</text><text fill="#000000" font-family="sans-serif" font-size="8.4" lengthAdjust="spacing" textLength="122.4" x="716.7" y="600.5637">+boolean addTeam(Team team)</text><text fill="#000000" font-family="sans-serif" font-size="8.4" lengthAdjust="spacing" textLength="142.2" x="716.7" y="611.7363">+boolean addVehicle(Vehicle vehicle)</text><text fill="#000000" font-family="sans-serif" font-size="8.4" lengthAdjust="spacing" textLength="100.8" x="716.7" y="622.909">+boolean equals(Object o)</text><text fill="#000000" font-family="sans-serif" font-size="8.4" lengthAdjust="spacing" textLength="61.2" x="716.7" y="634.0816">+int hashCode()</text><text fill="#000000" font-family="sans-serif" font-size="8.4" lengthAdjust="spacing" textLength="82.8" x="716.7" y="645.2543">+AgendaEntry clone()</text></g><!--class Agenda--><g id="elem_Agenda"><rect codeLine="69" fill="#F1F1F1" height="107.0086" id="Agenda" rx="1.5" ry="1.5" style="stroke:#181818;stroke-width:0.3;" width="193.8" x="839.1" y="697.2"/><ellipse cx="918.75" cy="706.8" fill="#ADD1B2" rx="6.6" ry="6.6" style="stroke:#181818;stroke-width:0.6;"/><path d="M920.4094,704.325 Q920.5031,704.1938 920.6156,704.1281 Q920.7281,704.0625 920.8594,704.0625 Q921.0844,704.0625 921.225,704.2219 Q921.3656,704.3719 921.3656,704.7375 L921.3656,705.6094 Q921.3656,705.975 921.225,706.1344 Q921.0844,706.2937 920.8594,706.2937 Q920.6531,706.2937 920.5313,706.1719 Q920.4094,706.0594 920.3438,705.75 Q920.3156,705.5344 920.2031,705.4219 Q920.0063,705.1969 919.6406,705.0656 Q919.275,704.9344 918.9,704.9344 Q918.4406,704.9344 918.0563,705.1313 Q917.6813,705.3281 917.3813,705.7781 Q917.0906,706.2281 917.0906,706.8469 L917.0906,707.5031 Q917.0906,708.2438 917.625,708.7406 Q918.1594,709.2281 919.1156,709.2281 Q919.6781,709.2281 920.0719,709.0781 Q920.3063,708.9844 920.5594,708.7219 Q920.7188,708.5625 920.8031,708.5156 Q920.8969,708.4688 921.0188,708.4688 Q921.2156,708.4688 921.3656,708.6281 Q921.525,708.7781 921.525,708.9844 Q921.525,709.1906 921.3188,709.4344 Q921.0188,709.7813 920.5406,709.9781 Q919.8938,710.25 919.1156,710.25 Q918.2063,710.25 917.4844,709.875 Q916.8938,709.575 916.4812,708.9375 Q916.0688,708.2906 916.0688,707.5219 L916.0688,706.8281 Q916.0688,706.0313 916.4344,705.3469 Q916.8094,704.6531 917.4656,704.2875 Q918.1219,703.9125 918.8625,703.9125 Q919.3031,703.9125 919.6875,704.0156 Q920.0813,704.1094 920.4094,704.325 Z " fill="#000000"/><text fill="#000000" font-family="sans-serif" font-size="8.4" lengthAdjust="spacing" textLength="29.4" x="931.05" y="710.2781">Agenda</text><line style="stroke:#181818;stroke-width:0.3;" x1="839.7" x2="1032.3" y1="716.4" y2="716.4"/><text fill="#000000" font-family="sans-serif" font-size="8.4" lengthAdjust="spacing" textLength="105.6" x="842.7" y="727.8645">-entries: List&lt;AgendaEntry&gt;</text><text fill="#000000" font-family="sans-serif" font-size="8.4" lengthAdjust="spacing" textLength="42" x="842.7" y="739.0371">-gsm: GSM</text><line style="stroke:#181818;stroke-width:0.3;" x1="839.7" x2="1032.3" y1="743.5453" y2="743.5453"/><text fill="#000000" font-family="sans-serif" font-size="8.4" lengthAdjust="spacing" textLength="186.6" x="842.7" y="755.0098">+ToDoList(List&lt;AgendaEntry&gt; entries, GSM gsm)</text><text fill="#000000" font-family="sans-serif" font-size="8.4" lengthAdjust="spacing" textLength="119.4" x="842.7" y="766.1824">+boolean addEntry(Entry entry)</text><text fill="#000000" font-family="sans-serif" font-size="8.4" lengthAdjust="spacing" textLength="100.8" x="842.7" y="777.3551">+boolean equals(Object o)</text><text fill="#000000" font-family="sans-serif" font-size="8.4" lengthAdjust="spacing" textLength="61.2" x="842.7" y="788.5277">+int hashCode()</text><text fill="#000000" font-family="sans-serif" font-size="8.4" lengthAdjust="spacing" textLength="82.8" x="842.7" y="799.7004">+AgendaEntry clone()</text></g><!--class AgendaRepository--><g id="elem_AgendaRepository"><rect codeLine="79" fill="#F1F1F1" height="84.6633" id="AgendaRepository" rx="1.5" ry="1.5" style="stroke:#181818;stroke-width:0.3;" width="156" x="1222.8" y="310.2"/><ellipse cx="1263.15" cy="319.8" fill="#ADD1B2" rx="6.6" ry="6.6" style="stroke:#181818;stroke-width:0.6;"/><path d="M1264.8094,317.325 Q1264.9031,317.1937 1265.0156,317.1281 Q1265.1281,317.0625 1265.2594,317.0625 Q1265.4844,317.0625 1265.625,317.2219 Q1265.7656,317.3719 1265.7656,317.7375 L1265.7656,318.6094 Q1265.7656,318.975 1265.625,319.1344 Q1265.4844,319.2938 1265.2594,319.2938 Q1265.0531,319.2938 1264.9312,319.1719 Q1264.8094,319.0594 1264.7437,318.75 Q1264.7156,318.5344 1264.6031,318.4219 Q1264.4063,318.1969 1264.0406,318.0656 Q1263.675,317.9344 1263.3,317.9344 Q1262.8406,317.9344 1262.4563,318.1312 Q1262.0813,318.3281 1261.7813,318.7781 Q1261.4906,319.2281 1261.4906,319.8469 L1261.4906,320.5031 Q1261.4906,321.2438 1262.025,321.7406 Q1262.5594,322.2281 1263.5156,322.2281 Q1264.0781,322.2281 1264.4719,322.0781 Q1264.7063,321.9844 1264.9594,321.7219 Q1265.1187,321.5625 1265.2031,321.5156 Q1265.2969,321.4688 1265.4188,321.4688 Q1265.6156,321.4688 1265.7656,321.6281 Q1265.925,321.7781 1265.925,321.9844 Q1265.925,322.1906 1265.7188,322.4344 Q1265.4188,322.7813 1264.9406,322.9781 Q1264.2938,323.25 1263.5156,323.25 Q1262.6063,323.25 1261.8844,322.875 Q1261.2938,322.575 1260.8813,321.9375 Q1260.4688,321.2906 1260.4688,320.5219 L1260.4688,319.8281 Q1260.4688,319.0313 1260.8344,318.3469 Q1261.2094,317.6531 1261.8656,317.2875 Q1262.5219,316.9125 1263.2625,316.9125 Q1263.7031,316.9125 1264.0875,317.0156 Q1264.4813,317.1094 1264.8094,317.325 Z " fill="#000000"/><text fill="#000000" font-family="sans-serif" font-size="8.4" lengthAdjust="spacing" textLength="70.2" x="1275.45" y="323.2781">AgendaRepository</text><line style="stroke:#181818;stroke-width:0.3;" x1="1223.4" x2="1378.2" y1="329.4" y2="329.4"/><text fill="#000000" font-family="sans-serif" font-size="8.4" lengthAdjust="spacing" textLength="90.6" x="1226.4" y="340.8645">-List&lt;Agenda&gt; agendas</text><line style="stroke:#181818;stroke-width:0.3;" x1="1223.4" x2="1378.2" y1="345.3727" y2="345.3727"/><text fill="#000000" font-family="sans-serif" font-size="8.4" lengthAdjust="spacing" textLength="148.2" x="1226.4" y="356.8371">+boolean addAgenda(Agenda agenda)</text><text fill="#000000" font-family="sans-serif" font-size="8.4" lengthAdjust="spacing" textLength="111" x="1226.4" y="368.0098">+List&lt;Agenda&gt; getAgendas()</text><text fill="#000000" font-family="sans-serif" font-size="8.4" lengthAdjust="spacing" textLength="148.8" x="1226.4" y="379.1824">+Agenda getAgendaByGSM(GSM gsm)</text><text fill="#000000" font-family="sans-serif" font-size="8.4" lengthAdjust="spacing" textLength="148.2" x="1226.4" y="390.3551">+boolean addAgenda(Agenda agenda)</text></g><!--class Repositories--><g id="elem_Repositories"><rect codeLine="87" fill="#F1F1F1" height="62.318" id="Repositories" rx="1.5" ry="1.5" style="stroke:#181818;stroke-width:0.3;" width="177.6" x="1033.8" y="200.4"/><ellipse cx="1096.35" cy="210" fill="#ADD1B2" rx="6.6" ry="6.6" style="stroke:#181818;stroke-width:0.6;"/><path d="M1098.0094,207.525 Q1098.1031,207.3937 1098.2156,207.3281 Q1098.3281,207.2625 1098.4594,207.2625 Q1098.6844,207.2625 1098.825,207.4219 Q1098.9656,207.5719 1098.9656,207.9375 L1098.9656,208.8094 Q1098.9656,209.175 1098.825,209.3344 Q1098.6844,209.4938 1098.4594,209.4938 Q1098.2531,209.4938 1098.1313,209.3719 Q1098.0094,209.2594 1097.9438,208.95 Q1097.9156,208.7344 1097.8031,208.6219 Q1097.6063,208.3969 1097.2406,208.2656 Q1096.875,208.1344 1096.5,208.1344 Q1096.0406,208.1344 1095.6563,208.3312 Q1095.2813,208.5281 1094.9813,208.9781 Q1094.6906,209.4281 1094.6906,210.0469 L1094.6906,210.7031 Q1094.6906,211.4438 1095.225,211.9406 Q1095.7594,212.4281 1096.7156,212.4281 Q1097.2781,212.4281 1097.6719,212.2781 Q1097.9063,212.1844 1098.1594,211.9219 Q1098.3188,211.7625 1098.4031,211.7156 Q1098.4969,211.6688 1098.6187,211.6688 Q1098.8156,211.6688 1098.9656,211.8281 Q1099.125,211.9781 1099.125,212.1844 Q1099.125,212.3906 1098.9188,212.6344 Q1098.6187,212.9813 1098.1406,213.1781 Q1097.4937,213.45 1096.7156,213.45 Q1095.8062,213.45 1095.0844,213.075 Q1094.4937,212.775 1094.0813,212.1375 Q1093.6688,211.4906 1093.6688,210.7219 L1093.6688,210.0281 Q1093.6688,209.2313 1094.0344,208.5469 Q1094.4094,207.8531 1095.0656,207.4875 Q1095.7219,207.1125 1096.4625,207.1125 Q1096.9031,207.1125 1097.2875,207.2156 Q1097.6812,207.3094 1098.0094,207.525 Z " fill="#000000"/><text fill="#000000" font-family="sans-serif" font-size="8.4" lengthAdjust="spacing" textLength="47.4" x="1108.65" y="213.4781">Repositories</text><line style="stroke:#181818;stroke-width:0.3;" x1="1034.4" x2="1210.8" y1="219.6" y2="219.6"/><line style="stroke:#181818;stroke-width:0.3;" x1="1034.4" x2="1210.8" y1="224.4" y2="224.4"/><text fill="#000000" font-family="sans-serif" font-size="8.4" lengthAdjust="spacing" textLength="109.2" x="1037.4" y="235.8645">+getInstance() : Repositories</text><text fill="#000000" font-family="sans-serif" font-size="8.4" lengthAdjust="spacing" textLength="154.8" x="1037.4" y="247.0371">+getTeamRepository() : TeamRepository</text><text fill="#000000" font-family="sans-serif" font-size="8.4" lengthAdjust="spacing" textLength="170.4" x="1037.4" y="258.2098">+getAgendaRepository() : AgendaRepository</text></g><!--class AssignTeamUI--><g id="elem_AssignTeamUI"><rect codeLine="93" fill="#F1F1F1" height="140.5266" id="AssignTeamUI" rx="1.5" ry="1.5" style="stroke:#181818;stroke-width:0.3;" width="164.4" x="583.8" y="12.6"/><ellipse cx="636.45" cy="22.2" fill="#ADD1B2" rx="6.6" ry="6.6" style="stroke:#181818;stroke-width:0.6;"/><path d="M638.1094,19.725 Q638.2031,19.5938 638.3156,19.5281 Q638.4281,19.4625 638.5594,19.4625 Q638.7844,19.4625 638.925,19.6219 Q639.0656,19.7719 639.0656,20.1375 L639.0656,21.0094 Q639.0656,21.375 638.925,21.5344 Q638.7844,21.6937 638.5594,21.6937 Q638.3531,21.6937 638.2312,21.5719 Q638.1094,21.4594 638.0437,21.15 Q638.0156,20.9344 637.9031,20.8219 Q637.7063,20.5969 637.3406,20.4656 Q636.975,20.3344 636.6,20.3344 Q636.1406,20.3344 635.7563,20.5313 Q635.3813,20.7281 635.0813,21.1781 Q634.7906,21.6281 634.7906,22.2469 L634.7906,22.9031 Q634.7906,23.6438 635.325,24.1406 Q635.8594,24.6281 636.8156,24.6281 Q637.3781,24.6281 637.7719,24.4781 Q638.0063,24.3844 638.2594,24.1219 Q638.4187,23.9625 638.5031,23.9156 Q638.5969,23.8688 638.7188,23.8688 Q638.9156,23.8688 639.0656,24.0281 Q639.225,24.1781 639.225,24.3844 Q639.225,24.5906 639.0188,24.8344 Q638.7188,25.1813 638.2406,25.3781 Q637.5938,25.65 636.8156,25.65 Q635.9063,25.65 635.1844,25.275 Q634.5938,24.975 634.1813,24.3375 Q633.7688,23.6906 633.7688,22.9219 L633.7688,22.2281 Q633.7688,21.4313 634.1344,20.7469 Q634.5094,20.0531 635.1656,19.6875 Q635.8219,19.3125 636.5625,19.3125 Q637.0031,19.3125 637.3875,19.4156 Q637.7813,19.5094 638.1094,19.725 Z " fill="#000000"/><text fill="#000000" font-family="sans-serif" font-size="8.4" lengthAdjust="spacing" textLength="54" x="648.75" y="25.6781">AssignTeamUI</text><line style="stroke:#181818;stroke-width:0.3;" x1="584.4" x2="747.6" y1="31.8" y2="31.8"/><text fill="#000000" font-family="sans-serif" font-size="8.4" lengthAdjust="spacing" textLength="127.2" x="587.4" y="43.2645">-controller: AssignTeamController</text><text fill="#000000" font-family="sans-serif" font-size="8.4" lengthAdjust="spacing" textLength="48" x="587.4" y="54.4371">-team: Team</text><text fill="#000000" font-family="sans-serif" font-size="8.4" lengthAdjust="spacing" textLength="105.6" x="587.4" y="65.6098">-agendaEntry: AgendaEntry</text><text fill="#000000" font-family="sans-serif" font-size="8.4" lengthAdjust="spacing" textLength="157.2" x="587.4" y="76.7824">+PERGUNTAR AO PROFESSOR PPROG</text><line style="stroke:#181818;stroke-width:0.3;" x1="584.4" x2="747.6" y1="81.2906" y2="81.2906"/><text fill="#000000" font-family="sans-serif" font-size="8.4" lengthAdjust="spacing" textLength="146.4" x="587.4" y="92.7551">+AssignTeamController getController()</text><text fill="#000000" font-family="sans-serif" font-size="8.4" lengthAdjust="spacing" textLength="41.4" x="587.4" y="103.9277">+void run()</text><text fill="#000000" font-family="sans-serif" font-size="8.4" lengthAdjust="spacing" textLength="71.4" x="587.4" y="115.1004">+void submitData()</text><text fill="#000000" font-family="sans-serif" font-size="8.4" lengthAdjust="spacing" textLength="75.6" x="587.4" y="126.273">+void requestData()</text><text fill="#000000" font-family="sans-serif" font-size="8.4" lengthAdjust="spacing" textLength="140.4" x="587.4" y="137.4457">+AgendaEntry requestAgendaEntry()</text><text fill="#000000" font-family="sans-serif" font-size="8.4" lengthAdjust="spacing" textLength="85.2" x="587.4" y="148.6184">+Team requestTeam()</text></g><!--class AssignTeamController--><g id="elem_AssignTeamController"><rect codeLine="106" fill="#F1F1F1" height="129.3539" id="AssignTeamController" rx="1.5" ry="1.5" style="stroke:#181818;stroke-width:0.3;" width="569.4" x="1016.1" y="18"/><ellipse cx="1256.25" cy="27.6" fill="#ADD1B2" rx="6.6" ry="6.6" style="stroke:#181818;stroke-width:0.6;"/><path d="M1257.9094,25.125 Q1258.0031,24.9938 1258.1156,24.9281 Q1258.2281,24.8625 1258.3594,24.8625 Q1258.5844,24.8625 1258.725,25.0219 Q1258.8656,25.1719 1258.8656,25.5375 L1258.8656,26.4094 Q1258.8656,26.775 1258.725,26.9344 Q1258.5844,27.0938 1258.3594,27.0938 Q1258.1531,27.0938 1258.0313,26.9719 Q1257.9094,26.8594 1257.8438,26.55 Q1257.8156,26.3344 1257.7031,26.2219 Q1257.5063,25.9969 1257.1406,25.8656 Q1256.775,25.7344 1256.4,25.7344 Q1255.9406,25.7344 1255.5562,25.9313 Q1255.1812,26.1281 1254.8813,26.5781 Q1254.5906,27.0281 1254.5906,27.6469 L1254.5906,28.3031 Q1254.5906,29.0438 1255.125,29.5406 Q1255.6594,30.0281 1256.6156,30.0281 Q1257.1781,30.0281 1257.5719,29.8781 Q1257.8062,29.7844 1258.0594,29.5219 Q1258.2188,29.3625 1258.3031,29.3156 Q1258.3969,29.2687 1258.5188,29.2687 Q1258.7156,29.2687 1258.8656,29.4281 Q1259.025,29.5781 1259.025,29.7844 Q1259.025,29.9906 1258.8188,30.2344 Q1258.5188,30.5812 1258.0406,30.7781 Q1257.3938,31.05 1256.6156,31.05 Q1255.7063,31.05 1254.9844,30.675 Q1254.3938,30.375 1253.9813,29.7375 Q1253.5688,29.0906 1253.5688,28.3219 L1253.5688,27.6281 Q1253.5688,26.8313 1253.9344,26.1469 Q1254.3094,25.4531 1254.9656,25.0875 Q1255.6219,24.7125 1256.3625,24.7125 Q1256.8031,24.7125 1257.1875,24.8156 Q1257.5813,24.9094 1257.9094,25.125 Z " fill="#000000"/><text fill="#000000" font-family="sans-serif" font-size="8.4" lengthAdjust="spacing" textLength="84" x="1268.55" y="31.0781">AssignTeamController</text><line style="stroke:#181818;stroke-width:0.3;" x1="1016.7" x2="1584.9" y1="37.2" y2="37.2"/><text fill="#000000" font-family="sans-serif" font-size="8.4" lengthAdjust="spacing" textLength="129.6" x="1019.7" y="48.6645">-teamRepository: TeamRepository</text><text fill="#000000" font-family="sans-serif" font-size="8.4" lengthAdjust="spacing" textLength="147.6" x="1019.7" y="59.8371">-agendaRepository: AgendaRepository</text><text fill="#000000" font-family="sans-serif" font-size="8.4" lengthAdjust="spacing" textLength="196.8" x="1019.7" y="71.0098">-authenticationRepository: AuthenticationRepository</text><line style="stroke:#181818;stroke-width:0.3;" x1="1016.7" x2="1584.9" y1="75.518" y2="75.518"/><text fill="#000000" font-family="sans-serif" font-size="8.4" lengthAdjust="spacing" textLength="562.2" x="1019.7" y="86.9824">+AssignTeamController(teamRepository TeamRepository, AgendaRepository agendaRepository, AuthenticationRepository authenticationRepository)</text><text fill="#000000" font-family="sans-serif" font-size="8.4" lengthAdjust="spacing" textLength="150" x="1019.7" y="98.1551">+TeamRepository getTeamRepository()</text><text fill="#000000" font-family="sans-serif" font-size="8.4" lengthAdjust="spacing" textLength="165.6" x="1019.7" y="109.3277">+AgendaRepository getAgendaRepository()</text><text fill="#000000" font-family="sans-serif" font-size="8.4" lengthAdjust="spacing" textLength="214.8" x="1019.7" y="120.5004">+AuthenticationRepository getAuthenticationRepository()</text><text fill="#000000" font-family="sans-serif" font-size="8.4" lengthAdjust="spacing" textLength="268.2" x="1019.7" y="131.673">+Optional&lt;AgendaEntry&gt; assignTeam(AgendaEntry entry, Team team)</text><text fill="#000000" font-family="sans-serif" font-size="8.4" lengthAdjust="spacing" textLength="112.2" x="1019.7" y="142.8457">+GSM getGSMFromSession()</text></g><!--class GSM--><g id="elem_GSM"><rect codeLine="118" fill="#F1F1F1" height="73.4906" id="GSM" rx="1.5" ry="1.5" style="stroke:#181818;stroke-width:0.3;" width="74.4" x="470.4" y="46.2"/><ellipse cx="495.87" cy="55.8" fill="#ADD1B2" rx="6.6" ry="6.6" style="stroke:#181818;stroke-width:0.6;"/><path d="M497.5294,53.325 Q497.6231,53.1938 497.7356,53.1281 Q497.8481,53.0625 497.9794,53.0625 Q498.2044,53.0625 498.345,53.2219 Q498.4856,53.3719 498.4856,53.7375 L498.4856,54.6094 Q498.4856,54.975 498.345,55.1344 Q498.2044,55.2937 497.9794,55.2937 Q497.7731,55.2937 497.6513,55.1719 Q497.5294,55.0594 497.4638,54.75 Q497.4356,54.5344 497.3231,54.4219 Q497.1263,54.1969 496.7606,54.0656 Q496.395,53.9344 496.02,53.9344 Q495.5606,53.9344 495.1763,54.1313 Q494.8013,54.3281 494.5013,54.7781 Q494.2106,55.2281 494.2106,55.8469 L494.2106,56.5031 Q494.2106,57.2438 494.745,57.7406 Q495.2794,58.2281 496.2356,58.2281 Q496.7981,58.2281 497.1919,58.0781 Q497.4263,57.9844 497.6794,57.7219 Q497.8388,57.5625 497.9231,57.5156 Q498.0169,57.4688 498.1388,57.4688 Q498.3356,57.4688 498.4856,57.6281 Q498.645,57.7781 498.645,57.9844 Q498.645,58.1906 498.4388,58.4344 Q498.1388,58.7813 497.6606,58.9781 Q497.0138,59.25 496.2356,59.25 Q495.3263,59.25 494.6044,58.875 Q494.0138,58.575 493.6013,57.9375 Q493.1888,57.2906 493.1888,56.5219 L493.1888,55.8281 Q493.1888,55.0313 493.5544,54.3469 Q493.9294,53.6531 494.5856,53.2875 Q495.2419,52.9125 495.9825,52.9125 Q496.4231,52.9125 496.8075,53.0156 Q497.2013,53.1094 497.5294,53.325 Z " fill="#000000"/><text fill="#000000" font-family="sans-serif" font-size="8.4" lengthAdjust="spacing" textLength="18.6" x="507.93" y="59.2781">GSM</text><line style="stroke:#181818;stroke-width:0.3;" x1="471" x2="544.2" y1="65.4" y2="65.4"/><text fill="#000000" font-family="sans-serif" font-size="8.4" lengthAdjust="spacing" textLength="48.6" x="474" y="76.8645">-String name</text><text fill="#000000" font-family="sans-serif" font-size="8.4" lengthAdjust="spacing" textLength="55.2" x="474" y="88.0371">-int vatNumber</text><text fill="#000000" font-family="sans-serif" font-size="8.4" lengthAdjust="spacing" textLength="47.4" x="474" y="99.2098">-String email</text><text fill="#000000" font-family="sans-serif" font-size="8.4" lengthAdjust="spacing" textLength="67.2" x="474" y="110.3824">-int phonenumber</text><line style="stroke:#181818;stroke-width:0.3;" x1="471" x2="544.2" y1="114.8906" y2="114.8906"/></g><g id="elem_GMN14"><path d="M769.2,64.2 L769.2,101.3238 A0,0 0 0 0 769.2,101.3238 L994.8,101.3238 A0,0 0 0 0 994.8,101.3238 L994.8,85.2 L1016.016,82.8 L994.8,80.4 L994.8,70.2 L988.8,64.2 L769.2,64.2 A0,0 0 0 0 769.2,64.2 " fill="#FEFFDD" style="stroke:#181818;stroke-width:0.3;"/><path d="M988.8,64.2 L988.8,70.2 L994.8,70.2 L988.8,64.2 " fill="#FEFFDD" style="stroke:#181818;stroke-width:0.3;"/><text fill="#000000" font-family="sans-serif" font-size="7.8" lengthAdjust="spacing" textLength="213" x="772.8" y="75.617">- Selected AgendaEntry and team are read from GSM's input.</text><text fill="#000000" font-family="sans-serif" font-size="7.8" lengthAdjust="spacing" textLength="96.6" x="772.8" y="85.9916">- Updates the AgendaEntry.</text><text fill="#000000" font-family="sans-serif" font-size="7.8" lengthAdjust="spacing" textLength="209.4" x="772.8" y="96.3662">- Sends message to the collaborators of the assigned Team.</text></g><g id="elem_GMN17"><path d="M3.6,69.3 L3.6,96.0492 L229.2,96.0492 L229.2,75.3 L223.2,69.3 L3.6,69.3 " fill="#FEFFDD" style="stroke:#181818;stroke-width:0.3;"/><path d="M223.2,69.3 L223.2,75.3 L229.2,75.3 L223.2,69.3 " fill="#FEFFDD" style="stroke:#181818;stroke-width:0.6;"/><text fill="#000000" font-family="sans-serif" font-size="7.8" lengthAdjust="spacing" textLength="213" x="7.2" y="80.717">- Responsible for assigning Teams to an Entry in the Agenda.</text><text fill="#000000" font-family="sans-serif" font-size="7.8" lengthAdjust="spacing" textLength="139.2" x="7.2" y="91.0916">- Communicates with the AssignTeamUI</text></g><g id="elem_GMN20"><path d="M250.2,64.2 L250.2,101.3238 L449.4,101.3238 L449.4,70.2 L443.4,64.2 L250.2,64.2 " fill="#FEFFDD" style="stroke:#181818;stroke-width:0.3;"/><path d="M443.4,64.2 L443.4,70.2 L449.4,70.2 L443.4,64.2 " fill="#FEFFDD" style="stroke:#181818;stroke-width:0.6;"/><text fill="#000000" font-family="sans-serif" font-size="7.8" lengthAdjust="spacing" textLength="186.6" x="253.8" y="75.617">- UI for GSM to assign teams to entries in the Agenda</text><text fill="#000000" font-family="sans-serif" font-size="7.8" lengthAdjust="spacing" textLength="151.8" x="253.8" y="85.9916">- Communicates with AssignTeamController</text><text fill="#000000" font-family="sans-serif" font-size="7.8" lengthAdjust="spacing" textLength="174.6" x="253.8" y="96.3662">- Receives repositories from AssignTeamController</text></g><g id="elem_GMN23"><path d="M1180.2,537.9 L1180.2,543.6 L1158.936,546 L1180.2,548.4 L1180.2,554.2746 A0,0 0 0 0 1180.2,554.2746 L1333.8,554.2746 A0,0 0 0 0 1333.8,554.2746 L1333.8,543.9 L1327.8,537.9 L1180.2,537.9 A0,0 0 0 0 1180.2,537.9 " fill="#FEFFDD" style="stroke:#181818;stroke-width:0.3;"/><path d="M1327.8,537.9 L1327.8,543.9 L1333.8,543.9 L1327.8,537.9 " fill="#FEFFDD" style="stroke:#181818;stroke-width:0.3;"/><text fill="#000000" font-family="sans-serif" font-size="7.8" lengthAdjust="spacing" textLength="141" x="1183.8" y="549.317">- Registered by the GSM in the ToDoList</text></g><!--link GMN17 to GSM--><g id="link_GMN17_GSM"><path d="M139.2,69.276 C177.324,46.656 249.9,3.6 249.9,3.6 C249.9,3.6 449.1,3.6 449.1,3.6 C449.1,3.6 459.6,12.6 459.6,12.6 C459.6,12.6 470.862,29.07 482.478,46.056 " fill="none" id="GMN17-GSM" style="stroke:#181818;stroke-width:0.6;stroke-dasharray:7.0,7.0;"/></g><!--link GMN20 to AssignTeamUI--><g id="link_GMN20_AssignTeamUI"><path d="M378.156,64.128 C413.724,40.716 470.1,3.6 470.1,3.6 C470.1,3.6 544.5,3.6 544.5,3.6 C544.5,3.6 562.032,15.03 583.782,29.202 " fill="none" id="GMN20-AssignTeamUI" style="stroke:#181818;stroke-width:0.6;stroke-dasharray:7.0,7.0;"/></g><!--link GSM to Team--><g id="link_GSM_Team"><path codeLine="146" d="M512.658,119.46 C524.25,202.122 552.25,401.7169 565.246,494.3809 " fill="none" id="GSM-to-Team" style="stroke:#181818;stroke-width:0.6;"/><polygon fill="#181818" points="565.746,497.946,567.3727,492.265,565.3293,494.9751,562.6193,492.9317,565.746,497.946" style="stroke:#181818;stroke-width:0.6;"/><text fill="#000000" font-family="sans-serif" font-size="7.8" lengthAdjust="spacing" textLength="27" x="537" y="289.817">assigns</text></g><!--link Team to AgendaEntry--><g id="link_Team_AgendaEntry"><path codeLine="147" d="M651.072,546 C669.972,546 687.486,546 709.452,546 " fill="none" id="Team-to-AgendaEntry" style="stroke:#181818;stroke-width:0.6;"/><polygon fill="#181818" points="713.052,546,707.652,543.6,710.052,546,707.652,548.4,713.052,546" style="stroke:#181818;stroke-width:0.6;"/><text fill="#000000" font-family="sans-serif" font-size="7.8" lengthAdjust="spacing" textLength="40.2" x="661.95" y="541.817">assigned to</text></g><!--link Team to Collaborator--><g id="link_Team_Collaborator"><path codeLine="148" d="M632.736,497.898 C666.792,470.748 702.6,442.2 702.6,442.2 C702.6,442.2 789.3,433.8 789.3,433.8 C789.3,433.8 828.3,433.8 828.3,433.8 C828.3,433.8 1344,442.2 1344,442.2 C1344,442.2 1350.5972,453.964 1360.9772,472.474 " fill="none" id="Team-to-Collaborator" style="stroke:#181818;stroke-width:0.6;"/><polygon fill="#181818" points="1362.738,475.614,1362.1901,469.7301,1361.2706,472.9974,1358.0034,472.0779,1362.738,475.614" style="stroke:#181818;stroke-width:0.6;"/><text fill="#000000" font-family="sans-serif" font-size="7.8" lengthAdjust="spacing" textLength="37.8" x="789.9" y="421.817">consists of</text></g><!--link GSM to Agenda--><g id="link_GSM_Agenda"><path codeLine="149" d="M496.446,119.508 C482.946,163.206 462,231 462,231 C462,231 462,231 462,546.6 C462,546.6 483,649.8 483,649.8 C483,649.8 702.511,698.3545 835.585,727.7905 " fill="none" id="GSM-to-Agenda" style="stroke:#181818;stroke-width:0.6;"/><polygon fill="#181818" points="839.1,728.568,834.3458,725.0584,836.1708,727.9201,833.3091,729.7451,839.1,728.568" style="stroke:#181818;stroke-width:0.6;"/><text fill="#000000" font-family="sans-serif" font-size="7.8" lengthAdjust="spacing" textLength="16.8" x="462.6" y="355.817">uses</text></g><!--link AgendaEntry to Agenda--><g id="link_AgendaEntry_Agenda"><path codeLine="150" d="M936,650.088 C936,666.378 936,679.008 936,693.504 " fill="none" id="AgendaEntry-to-Agenda" style="stroke:#181818;stroke-width:0.6;"/><polygon fill="#181818" points="936,697.104,938.4,691.704,936,694.104,933.6,691.704,936,697.104" style="stroke:#181818;stroke-width:0.6;"/><text fill="#000000" font-family="sans-serif" font-size="7.8" lengthAdjust="spacing" textLength="30.6" x="936.6" y="676.817">shown in</text></g><!--link GSM to AssignTeamUI--><g id="link_GSM_AssignTeamUI"><path codeLine="151" d="M544.938,82.8 C556.692,82.8 566.568,82.8 580.17,82.8 " fill="none" id="GSM-to-AssignTeamUI" style="stroke:#181818;stroke-width:0.6;"/><polygon fill="#181818" points="583.77,82.8,578.37,80.4,580.77,82.8,578.37,85.2,583.77,82.8" style="stroke:#181818;stroke-width:0.6;"/><text fill="#000000" font-family="sans-serif" font-size="7.8" lengthAdjust="spacing" textLength="16.8" x="555.9" y="78.617">uses</text></g><!--link Repositories to Repositories--><g id="link_Repositories_Repositories"><path codeLine="153" d="M1211.562,222.54 C1224.042,224.016 1232.4,227.04 1232.4,231.6 C1232.4,236.16 1227.6171,238.7612 1215.1371,240.2372 " fill="none" id="Repositories-to-Repositories" style="stroke:#181818;stroke-width:0.6;"/><polygon fill="#181818" points="1211.562,240.66,1217.2065,242.4092,1214.5412,240.3076,1216.6427,237.6424,1211.562,240.66" style="stroke:#181818;stroke-width:0.6;"/><text fill="#000000" font-family="sans-serif" font-size="7.8" lengthAdjust="spacing" textLength="29.4" x="1236" y="234.917">instance</text></g><!--link ApplicationSession to ApplicationSession--><g id="link_ApplicationSession_ApplicationSession"><path codeLine="154" d="M1476.396,221.574 C1488.3,222.168 1497.3,225.51 1497.3,231.6 C1497.3,237.69 1491.8955,240.8526 1479.9915,241.4466 " fill="none" id="ApplicationSession-to-ApplicationSession" style="stroke:#181818;stroke-width:0.6;"/><polygon fill="#181818" points="1476.396,241.626,1481.9089,243.7539,1479.3923,241.4765,1481.6697,238.9599,1476.396,241.626" style="stroke:#181818;stroke-width:0.6;"/><text fill="#000000" font-family="sans-serif" font-size="7.8" lengthAdjust="spacing" textLength="29.4" x="1500.9" y="234.917">instance</text></g><!--link AssignTeamUI to AssignTeamController--><g id="link_AssignTeamUI_AssignTeamController"><path codeLine="156" d="M748.326,19.434 C760.416,10.128 768.9,3.6 768.9,3.6 C768.9,3.6 994.5,3.6 994.5,3.6 C994.5,3.6 1013.6707,8.5546 1046.6587,17.0866 " fill="none" id="AssignTeamUI-to-AssignTeamController" style="stroke:#181818;stroke-width:0.6;stroke-dasharray:7.0,7.0;"/><polygon fill="#181818" points="1050.144,17.988,1045.517,14.3123,1047.2396,17.2368,1044.3151,18.9594,1050.144,17.988" style="stroke:#181818;stroke-width:0.6;"/></g><!--link AssignTeamController to Repositories--><g id="link_AssignTeamController_Repositories"><path codeLine="158" d="M1223.16,147.708 C1201.116,165.966 1180.8963,182.7134 1162.4703,197.9774 " fill="none" id="AssignTeamController-to-Repositories" style="stroke:#181818;stroke-width:0.6;"/><polygon fill="#181818" points="1159.698,200.274,1165.3875,198.6774,1162.0083,198.3602,1162.3254,194.9809,1159.698,200.274" style="stroke:#181818;stroke-width:0.6;"/><text fill="#000000" font-family="sans-serif" font-size="7.8" lengthAdjust="spacing" textLength="64.8" x="1191.6" y="180.017">retrieves instances</text></g><!--link Repositories to AgendaRepository--><g id="link_Repositories_AgendaRepository"><path codeLine="160" d="M1168.26,262.872 C1189.656,277.242 1212.4918,292.5804 1235.6398,308.1324 " fill="none" id="Repositories-to-AgendaRepository" style="stroke:#181818;stroke-width:0.6;"/><polygon fill="#181818" points="1238.628,310.14,1235.4841,305.1364,1236.1378,308.467,1232.8073,309.1207,1238.628,310.14" style="stroke:#181818;stroke-width:0.6;"/><text fill="#000000" font-family="sans-serif" font-size="7.8" lengthAdjust="spacing" textLength="33.6" x="1212.6" y="289.817">accesses</text></g><!--link Repositories to TeamRepository--><g id="link_Repositories_TeamRepository"><path codeLine="161" d="M1080.168,262.872 C1060.284,277.242 1039.2014,292.4787 1017.6914,308.0307 " fill="none" id="Repositories-to-TeamRepository" style="stroke:#181818;stroke-width:0.6;"/><polygon fill="#181818" points="1014.774,310.14,1020.5562,308.921,1017.2051,308.3823,1017.7438,305.0312,1014.774,310.14" style="stroke:#181818;stroke-width:0.6;"/><text fill="#000000" font-family="sans-serif" font-size="7.8" lengthAdjust="spacing" textLength="33.6" x="1055.4" y="289.817">accesses</text></g><!--link AssignTeamController to TeamRepository--><g id="link_AssignTeamController_TeamRepository"><path codeLine="163" d="M1117.65,147.636 C1040.046,174.852 967.2,200.4 967.2,200.4 C967.2,200.4 963.0738,261.6681 960.0558,306.5061 " fill="none" id="AssignTeamController-to-TeamRepository" style="stroke:#181818;stroke-width:0.6;stroke-dasharray:7.0,7.0;"/><polygon fill="#181818" points="959.814,310.098,962.5712,304.8714,960.0155,307.1048,957.7821,304.549,959.814,310.098" style="stroke:#181818;stroke-width:0.6;"/><text fill="#000000" font-family="sans-serif" font-size="7.8" lengthAdjust="spacing" textLength="54.6" x="967.8" y="234.917">teamRepository</text></g><!--link AssignTeamController to AgendaRepository--><g id="link_AssignTeamController_AgendaRepository"><path codeLine="164" d="M1300.8,147.714 C1300.8,198.054 1300.8,263.004 1300.8,306.462 " fill="none" id="AssignTeamController-to-AgendaRepository" style="stroke:#181818;stroke-width:0.6;stroke-dasharray:7.0,7.0;"/><polygon fill="#181818" points="1300.8,310.062,1303.2,304.662,1300.8,307.062,1298.4,304.662,1300.8,310.062" style="stroke:#181818;stroke-width:0.6;"/><text fill="#000000" font-family="sans-serif" font-size="7.8" lengthAdjust="spacing" textLength="62.4" x="1301.4" y="234.917">agendaRepository</text></g><!--link ApplicationSession to UserSession--><g id="link_ApplicationSession_UserSession"><path codeLine="166" d="M1447.602,257.292 C1462.392,279.642 1481.735,308.884 1495.289,329.362 " fill="none" id="ApplicationSession-to-UserSession" style="stroke:#181818;stroke-width:0.6;"/><polygon fill="#181818" points="1497.276,332.364,1496.2969,326.5364,1495.6202,329.8623,1492.2942,329.1856,1497.276,332.364" style="stroke:#181818;stroke-width:0.6;"/><text fill="#000000" font-family="sans-serif" font-size="7.8" lengthAdjust="spacing" textLength="43.2" x="1471.2" y="289.817">userSession</text><text fill="#000000" font-family="sans-serif" font-size="7.8" lengthAdjust="spacing" textLength="4.2" x="1490.1182" y="325.6522">1</text></g><!--link AssignTeamController to ApplicationSession--><g id="link_AssignTeamController_ApplicationSession"><path codeLine="168" d="M1357.53,147.708 C1375.686,168.294 1392.3485,187.1883 1406.4965,203.2263 " fill="none" id="AssignTeamController-to-ApplicationSession" style="stroke:#181818;stroke-width:0.6;stroke-dasharray:7.0,7.0;"/><polygon fill="#181818" points="1408.878,205.926,1407.1055,200.2888,1406.8934,203.6763,1403.5059,203.4642,1408.878,205.926" style="stroke:#181818;stroke-width:0.6;"/></g><!--link AssignTeamController to UserSession--><g id="link_AssignTeamController_UserSession"><path codeLine="169" d="M1428.936,147.636 C1483.236,174.852 1534.2,200.4 1534.2,200.4 C1534.2,200.4 1534.2,262.8 1534.2,262.8 C1534.2,262.8 1523.466,302.6438 1516.404,328.8698 " fill="none" id="AssignTeamController-to-UserSession" style="stroke:#181818;stroke-width:0.6;stroke-dasharray:7.0,7.0;"/><polygon fill="#181818" points="1515.468,332.346,1519.1895,327.7558,1516.248,329.4492,1514.5546,326.5077,1515.468,332.346" style="stroke:#181818;stroke-width:0.6;"/></g><!--link TeamRepository to Team--><g id="link_TeamRepository_Team"><path codeLine="171" d="M884.034,394.872 C856.998,410.346 832.8,424.2 832.8,424.2 C832.8,424.2 702.6,442.2 702.6,442.2 C702.6,442.2 669.349,468.5535 635.179,495.6435 " fill="none" id="TeamRepository-to-Team" style="stroke:#181818;stroke-width:0.6;stroke-dasharray:7.0,7.0;"/><polygon fill="#181818" points="632.358,497.88,638.0805,496.4059,634.7088,496.0163,635.0985,492.6446,632.358,497.88" style="stroke:#181818;stroke-width:0.6;"/><text fill="#000000" font-family="sans-serif" font-size="7.8" lengthAdjust="spacing" textLength="21.6" x="852" y="421.817">stores</text></g><!--link AgendaRepository to Agenda--><g id="link_AgendaRepository_Agenda"><path codeLine="172" d="M1375.41,394.908 C1416.72,418.062 1459.8,442.2 1459.8,442.2 C1459.8,442.2 1459.8,649.8 1459.8,649.8 C1459.8,649.8 1187.9419,701.8035 1036.5259,730.7715 " fill="none" id="AgendaRepository-to-Agenda" style="stroke:#181818;stroke-width:0.6;stroke-dasharray:7.0,7.0;"/><polygon fill="#181818" points="1032.99,731.448,1038.7448,732.7906,1035.9366,730.8843,1037.8428,728.0761,1032.99,731.448" style="stroke:#181818;stroke-width:0.6;"/><text fill="#000000" font-family="sans-serif" font-size="7.8" lengthAdjust="spacing" textLength="21.6" x="1460.4" y="549.317">stores</text></g><!--SRC=[jLXDR-Cs4BthLn1xYOBOHdir2WEkamqCR3U1lUcTbcYRZKIg9ENKNVI_TuQaA5AIYm95zx2MPjuCttnmIELEltFHK4LhKaiXYxEIDID6jIphDGqjtkc9xSsrOaInmb1ngcA0FjDIVd1n8aTQwLXJSS7CjM6aaTKLNxAx2QLKHcQHLL5HhTV6A7ve3TiMKkpvdupya6LMGzPDK_626WuAfZNyPDyp0lyUY3OWBiY9cQs0Pr6m_DwhGBPfbMB2U2FG_DMvVDDC3Ns10OgVQigh6FkD0KS7cfD2LXKzI4MDL7f9ld1jVjf4ifN76J3QFYu95yQxFqXPCIe8BSlO88yztW-mxFSMCfo_77w3CX3PgS4fELDztiYoZzVIB2efs93yZZLISt1_zM5OXfOwgbUMhEuq3-IbmLJJociBnQXX-9oFmxtlpQ80BTWIGjSJc0kjUDbvdG96xA0k-82IEBAOHYYFe3LRaZsqaZXvqO4hSyQr1d9Qrjms09bKbWhQOo2jvO73djX8OMXX-kBE2SEcWURmYiJAq3yQUcMAYBO-C1MRRHz9AGk2ks9W19eXFCdm_frNLQxn_oWdwnCJ9NqI9fGQbkUcOYDA-lsHwK9nM-g1jbNWfhWEf6Mhw0GObfK5XmoMpueniOVf0QlrpoCOrd9f-tAa-fMTUL6nRb_vrsvBuLvlXoK1eJAFje1VP44hVFJPYfAHEnkNYndftj8i1BcFFxntaGU1OpBhL-nft8zBrUSYxn_9AJnEc4njYmJWKvFxNt9nl_zbViIzCneZJXbw2eQgug5EaMLNgvE66Z_lV-bcatoKTl-Ey9sh6QBHR29OLqB73E7N_pdCmRoSnr6k2BM_E2uJaawT-qGvq7qMHbbd3SFCFUhSQRr1aFzyXKJaKJB-nIg1Vs0E6RNS7zAZaImJI0T83maBIqKTS9WV2nqAetJ2V3q9TFMszQd44QbWSkDWwzMR8CswmpECYBaFqvPi6TVFvM_2YJtxmvjFz4NoagXMnA-wFTGSzorDGD1FJCVYk6cyDfuk3cJtgzVQ3Up4hq-xvxUltzOxiduXhxkNpq_x_SkElCBZyrIgeZ2-XspqsPqeJPUX63GgYeMrvWmRoD-b4lWDpSqKvoch0QdPU2SDASvkhdcJPf_c23pHlb79Kk2uVHtq5X4qkQ7pfk6gbCmq6XAMnvrZPzUC97FzmSqzPk3dCzp69-wg2B23TzwTFtZBSG8SSHTgljghGeAnDv8Ur9nXrBaR1NeM4WwjYXrXMXvlxyCzgs2WiZBfVofAovvGXPy7j2H7u8qixpGirRHcOOtV6hnNQGBvY-qNthCeDQaXMEWBOgH59NTh98P2bqlWWFmM6TWH93y8mHurSnXkkf52ymCSYKUu5ZfZJ0TQQrm8vgYBWuk8sWAjDxAkMu6b1jeVt9mT81fYjvPFC3RuhLqVIuThMhMxPkExF_DI2jPkJE5cSNQiOFm2C1KFVLkBIPi1TSLFPySz7gZezWJd5LEGySFLqiCWFDFk78-SeNO-Nn5thNEHwipsE4ZNyUWEfOJFlmuGt-ANU3feS8_53uwTYoLfDHnOSIF6IdsM7m9OEgjLKX1lcYM78s2ITxnckrCo6tzkMezZQMIJ9KVTOZLTWcnooi_XOrgC-IY6JNAnRU9M6SNW3KUZ3b9T01oZdZGOZD08FirmiPYmIG-0suPJx8Q7qsJEWUYd7p_5d-h4bZ9ykF_3ckE_6Dp4ndyAo0PHTe53Wy5xwBy18ZIXm_mD]--></g></svg>