<?xml version="1.0" encoding="us-ascii" standalone="no"?><svg xmlns="http://www.w3.org/2000/svg" xmlns:xlink="http://www.w3.org/1999/xlink" contentStyleType="text/css" height="1573px" preserveAspectRatio="none" style="width:1559px;height:1573px;background:#FFFFFF;" version="1.1" viewBox="0 0 1559 1573" width="1559px" zoomAndPan="magnify"><defs/><g><rect fill="#FFFFFF" height="1378.5625" style="stroke:#181818;stroke-width:1.0;" width="10" x="78.5" y="93.6211"/><rect fill="#FFFFFF" height="635.4902" style="stroke:#181818;stroke-width:1.0;" width="10" x="397.5" y="116.9121"/><rect fill="#FFFFFF" height="204.707" style="stroke:#181818;stroke-width:1.0;" width="10" x="397.5" y="783.6934"/><rect fill="#FFFFFF" height="93.873" style="stroke:#181818;stroke-width:1.0;" width="10" x="397.5" y="1019.6914"/><rect fill="#FFFFFF" height="327.3281" style="stroke:#181818;stroke-width:1.0;" width="10" x="397.5" y="1144.8555"/><rect fill="#FFFFFF" height="562.9082" style="stroke:#181818;stroke-width:1.0;" width="10" x="632.5" y="158.2031"/><rect fill="#FFFFFF" height="90.543" style="stroke:#181818;stroke-width:1.0;" width="10" x="637.5" y="262.4063"/><rect fill="#FFFFFF" height="79.543" style="stroke:#181818;stroke-width:1.0;" width="10" x="632.5" y="877.5664"/><rect fill="#FFFFFF" height="226.4551" style="stroke:#181818;stroke-width:1.0;" width="10" x="632.5" y="1176.1465"/><rect fill="#FFFFFF" height="31.291" style="stroke:#181818;stroke-width:1.0;" width="10" x="800.5" y="191.8242"/><rect fill="#FFFFFF" height="31.291" style="stroke:#181818;stroke-width:1.0;" width="10" x="907.5" y="391.2402"/><rect fill="#FFFFFF" height="31.291" style="stroke:#181818;stroke-width:1.0;" width="10" x="907.5" y="453.8223"/><rect fill="#FFFFFF" height="31.291" style="stroke:#181818;stroke-width:1.0;" width="10" x="1033.5" y="547.6953"/><rect fill="#FFFFFF" height="31.291" style="stroke:#181818;stroke-width:1.0;" width="10" x="1172" y="1050.9824"/><rect fill="#FFFFFF" height="31.291" style="stroke:#181818;stroke-width:1.0;" width="10" x="1274.5" y="814.9844"/><rect fill="#FFFFFF" height="248.7461" style="stroke:#181818;stroke-width:1.0;" width="10" x="1364" y="1232.4375"/><rect fill="#FFFFFF" height="42.291" style="stroke:#181818;stroke-width:1.0;" width="10" x="1369" y="1271.7285"/><rect fill="#FFFFFF" height="42.291" style="stroke:#181818;stroke-width:1.0;" width="10" x="1369" y="1360.3105"/><line style="stroke:#181818;stroke-width:0.5;stroke-dasharray:5.0,5.0;" x1="83" x2="83" y1="83.6211" y2="1490.1836"/><line style="stroke:#181818;stroke-width:0.5;stroke-dasharray:5.0,5.0;" x1="402.5" x2="402.5" y1="83.6211" y2="1490.1836"/><line style="stroke:#181818;stroke-width:0.5;stroke-dasharray:5.0,5.0;" x1="637.5" x2="637.5" y1="156.7227" y2="1490.1836"/><line style="stroke:#181818;stroke-width:0.5;stroke-dasharray:5.0,5.0;" x1="805" x2="805" y1="83.6211" y2="1490.1836"/><line style="stroke:#181818;stroke-width:0.5;stroke-dasharray:5.0,5.0;" x1="912" x2="912" y1="83.6211" y2="1490.1836"/><line style="stroke:#181818;stroke-width:0.5;stroke-dasharray:5.0,5.0;" x1="1038" x2="1038" y1="83.6211" y2="1490.1836"/><line style="stroke:#181818;stroke-width:0.5;stroke-dasharray:5.0,5.0;" x1="1177" x2="1177" y1="83.6211" y2="1490.1836"/><line style="stroke:#181818;stroke-width:0.5;stroke-dasharray:5.0,5.0;" x1="1279" x2="1279" y1="83.6211" y2="1490.1836"/><line style="stroke:#181818;stroke-width:0.5;stroke-dasharray:5.0,5.0;" x1="1369" x2="1369" y1="83.6211" y2="1490.1836"/><text fill="#000000" font-family="sans-serif" font-size="14" lengthAdjust="spacing" textLength="151" x="5" y="80.1074">Green Spaces Manager</text><ellipse cx="83.5" cy="13.5" fill="#E3E3E3" rx="8" ry="8" style="stroke:#181818;stroke-width:0.5;"/><path d="M83.5,21.5 L83.5,48.5 M70.5,29.5 L96.5,29.5 M83.5,48.5 L70.5,63.5 M83.5,48.5 L96.5,63.5 " fill="none" style="stroke:#181818;stroke-width:0.5;"/><text fill="#000000" font-family="sans-serif" font-size="14" lengthAdjust="spacing" textLength="151" x="5" y="1504.291">Green Spaces Manager</text><ellipse cx="83.5" cy="1516.3047" fill="#E3E3E3" rx="8" ry="8" style="stroke:#181818;stroke-width:0.5;"/><path d="M83.5,1524.3047 L83.5,1551.3047 M70.5,1532.3047 L96.5,1532.3047 M83.5,1551.3047 L70.5,1566.3047 M83.5,1551.3047 L96.5,1566.3047 " fill="none" style="stroke:#181818;stroke-width:0.5;"/><rect fill="#E3E3E3" height="32.6211" rx="2.5" ry="2.5" style="stroke:#181818;stroke-width:0.5;" width="108" x="348.5" y="50"/><text fill="#000000" font-family="sans-serif" font-size="14" lengthAdjust="spacing" textLength="94" x="355.5" y="72.1074">:AssignTeamUI</text><rect fill="#E3E3E3" height="32.6211" rx="2.5" ry="2.5" style="stroke:#181818;stroke-width:0.5;" width="108" x="348.5" y="1489.1836"/><text fill="#000000" font-family="sans-serif" font-size="14" lengthAdjust="spacing" textLength="94" x="355.5" y="1511.291">:AssignTeamUI</text><rect fill="#E3E3E3" height="32.6211" rx="2.5" ry="2.5" style="stroke:#181818;stroke-width:0.5;" width="158" x="558.5" y="1489.1836"/><text fill="#000000" font-family="sans-serif" font-size="14" lengthAdjust="spacing" textLength="144" x="565.5" y="1511.291">:AssignTeamController</text><rect fill="#E3E3E3" height="32.6211" rx="2.5" ry="2.5" style="stroke:#181818;stroke-width:0.5;" width="97" x="757" y="50"/><text fill="#000000" font-family="sans-serif" font-size="14" lengthAdjust="spacing" textLength="83" x="764" y="72.1074">:Repositories</text><rect fill="#E3E3E3" height="32.6211" rx="2.5" ry="2.5" style="stroke:#181818;stroke-width:0.5;" width="97" x="757" y="1489.1836"/><text fill="#000000" font-family="sans-serif" font-size="14" lengthAdjust="spacing" textLength="83" x="764" y="1511.291">:Repositories</text><rect fill="#E3E3E3" height="51.2422" rx="2.5" ry="2.5" style="stroke:#181818;stroke-width:0.5;" width="97" x="864" y="31.3789"/><text fill="#000000" font-family="sans-serif" font-size="14" lengthAdjust="spacing" textLength="74" x="875.5" y="53.4863">repositories</text><text fill="#000000" font-family="sans-serif" font-size="14" lengthAdjust="spacing" textLength="83" x="871" y="72.1074">:Repositories</text><rect fill="#E3E3E3" height="51.2422" rx="2.5" ry="2.5" style="stroke:#181818;stroke-width:0.5;" width="97" x="864" y="1489.1836"/><text fill="#000000" font-family="sans-serif" font-size="14" lengthAdjust="spacing" textLength="74" x="875.5" y="1511.291">repositories</text><text fill="#000000" font-family="sans-serif" font-size="14" lengthAdjust="spacing" textLength="83" x="871" y="1529.9121">:Repositories</text><rect fill="#E3E3E3" height="51.2422" rx="2.5" ry="2.5" style="stroke:#181818;stroke-width:0.5;" width="135" x="971" y="31.3789"/><text fill="#000000" font-family="sans-serif" font-size="14" lengthAdjust="spacing" textLength="116" x="980.5" y="53.4863">agendaRepository</text><text fill="#000000" font-family="sans-serif" font-size="14" lengthAdjust="spacing" textLength="121" x="978" y="72.1074">:AgendaRepository</text><rect fill="#E3E3E3" height="51.2422" rx="2.5" ry="2.5" style="stroke:#181818;stroke-width:0.5;" width="135" x="971" y="1489.1836"/><text fill="#000000" font-family="sans-serif" font-size="14" lengthAdjust="spacing" textLength="116" x="980.5" y="1511.291">agendaRepository</text><text fill="#000000" font-family="sans-serif" font-size="14" lengthAdjust="spacing" textLength="121" x="978" y="1529.9121">:AgendaRepository</text><rect fill="#E3E3E3" height="51.2422" rx="2.5" ry="2.5" style="stroke:#181818;stroke-width:0.5;" width="122" x="1116" y="31.3789"/><text fill="#000000" font-family="sans-serif" font-size="14" lengthAdjust="spacing" textLength="99" x="1127.5" y="53.4863">teamRepository</text><text fill="#000000" font-family="sans-serif" font-size="14" lengthAdjust="spacing" textLength="108" x="1123" y="72.1074">:TeamRepository</text><rect fill="#E3E3E3" height="51.2422" rx="2.5" ry="2.5" style="stroke:#181818;stroke-width:0.5;" width="122" x="1116" y="1489.1836"/><text fill="#000000" font-family="sans-serif" font-size="14" lengthAdjust="spacing" textLength="99" x="1127.5" y="1511.291">teamRepository</text><text fill="#000000" font-family="sans-serif" font-size="14" lengthAdjust="spacing" textLength="108" x="1123" y="1529.9121">:TeamRepository</text><rect fill="#E3E3E3" height="32.6211" rx="2.5" ry="2.5" style="stroke:#181818;stroke-width:0.5;" width="63" x="1248" y="50"/><text fill="#000000" font-family="sans-serif" font-size="14" lengthAdjust="spacing" textLength="49" x="1255" y="72.1074">Agenda</text><rect fill="#E3E3E3" height="32.6211" rx="2.5" ry="2.5" style="stroke:#181818;stroke-width:0.5;" width="63" x="1248" y="1489.1836"/><text fill="#000000" font-family="sans-serif" font-size="14" lengthAdjust="spacing" textLength="49" x="1255" y="1511.291">Agenda</text><rect fill="#E3E3E3" height="32.6211" rx="2.5" ry="2.5" style="stroke:#181818;stroke-width:0.5;" width="96" x="1321" y="50"/><text fill="#000000" font-family="sans-serif" font-size="14" lengthAdjust="spacing" textLength="82" x="1328" y="72.1074">AgendaEntry</text><rect fill="#E3E3E3" height="32.6211" rx="2.5" ry="2.5" style="stroke:#181818;stroke-width:0.5;" width="96" x="1321" y="1489.1836"/><text fill="#000000" font-family="sans-serif" font-size="14" lengthAdjust="spacing" textLength="82" x="1328" y="1511.291">AgendaEntry</text><rect fill="#FFFFFF" height="1378.5625" style="stroke:#181818;stroke-width:1.0;" width="10" x="78.5" y="93.6211"/><rect fill="#FFFFFF" height="635.4902" style="stroke:#181818;stroke-width:1.0;" width="10" x="397.5" y="116.9121"/><rect fill="#FFFFFF" height="204.707" style="stroke:#181818;stroke-width:1.0;" width="10" x="397.5" y="783.6934"/><rect fill="#FFFFFF" height="93.873" style="stroke:#181818;stroke-width:1.0;" width="10" x="397.5" y="1019.6914"/><rect fill="#FFFFFF" height="327.3281" style="stroke:#181818;stroke-width:1.0;" width="10" x="397.5" y="1144.8555"/><rect fill="#FFFFFF" height="562.9082" style="stroke:#181818;stroke-width:1.0;" width="10" x="632.5" y="158.2031"/><rect fill="#FFFFFF" height="90.543" style="stroke:#181818;stroke-width:1.0;" width="10" x="637.5" y="262.4063"/><rect fill="#FFFFFF" height="79.543" style="stroke:#181818;stroke-width:1.0;" width="10" x="632.5" y="877.5664"/><rect fill="#FFFFFF" height="226.4551" style="stroke:#181818;stroke-width:1.0;" width="10" x="632.5" y="1176.1465"/><rect fill="#FFFFFF" height="31.291" style="stroke:#181818;stroke-width:1.0;" width="10" x="800.5" y="191.8242"/><rect fill="#FFFFFF" height="31.291" style="stroke:#181818;stroke-width:1.0;" width="10" x="907.5" y="391.2402"/><rect fill="#FFFFFF" height="31.291" style="stroke:#181818;stroke-width:1.0;" width="10" x="907.5" y="453.8223"/><rect fill="#FFFFFF" height="31.291" style="stroke:#181818;stroke-width:1.0;" width="10" x="1033.5" y="547.6953"/><rect fill="#FFFFFF" height="31.291" style="stroke:#181818;stroke-width:1.0;" width="10" x="1172" y="1050.9824"/><rect fill="#FFFFFF" height="31.291" style="stroke:#181818;stroke-width:1.0;" width="10" x="1274.5" y="814.9844"/><rect fill="#FFFFFF" height="248.7461" style="stroke:#181818;stroke-width:1.0;" width="10" x="1364" y="1232.4375"/><rect fill="#FFFFFF" height="42.291" style="stroke:#181818;stroke-width:1.0;" width="10" x="1369" y="1271.7285"/><rect fill="#FFFFFF" height="42.291" style="stroke:#181818;stroke-width:1.0;" width="10" x="1369" y="1360.3105"/><polygon fill="#181818" points="385.5,112.9121,395.5,116.9121,385.5,120.9121,389.5,116.9121" style="stroke:#181818;stroke-width:1.0;"/><line style="stroke:#181818;stroke-width:1.0;" x1="88.5" x2="391.5" y1="116.9121" y2="116.9121"/><text fill="#000000" font-family="sans-serif" font-size="13" font-weight="bold" lengthAdjust="spacing" textLength="7" x="95.5" y="111.6494">1</text><text fill="#000000" font-family="sans-serif" font-size="13" lengthAdjust="spacing" textLength="279" x="106.5" y="111.6494">asks to assign a team to an entry in the Agenda</text><polygon fill="#181818" points="546.5,144.2031,556.5,148.2031,546.5,152.2031,550.5,148.2031" style="stroke:#181818;stroke-width:1.0;"/><line style="stroke:#181818;stroke-width:1.0;" x1="407.5" x2="552.5" y1="148.2031" y2="148.2031"/><text fill="#000000" font-family="sans-serif" font-size="13" font-weight="bold" lengthAdjust="spacing" textLength="7" x="414.5" y="142.9404">2</text><text fill="#000000" font-family="sans-serif" font-size="13" lengthAdjust="spacing" textLength="36" x="425.5" y="142.9404">create</text><rect fill="#E3E3E3" height="32.6211" rx="2.5" ry="2.5" style="stroke:#181818;stroke-width:0.5;" width="158" x="558.5" y="124.9121"/><text fill="#000000" font-family="sans-serif" font-size="14" lengthAdjust="spacing" textLength="144" x="565.5" y="147.0195">:AssignTeamController</text><polygon fill="#181818" points="788.5,187.8242,798.5,191.8242,788.5,195.8242,792.5,191.8242" style="stroke:#181818;stroke-width:1.0;"/><line style="stroke:#181818;stroke-width:1.0;" x1="642.5" x2="794.5" y1="191.8242" y2="191.8242"/><text fill="#000000" font-family="sans-serif" font-size="13" font-weight="bold" lengthAdjust="spacing" textLength="7" x="649.5" y="186.5615">3</text><text fill="#000000" font-family="sans-serif" font-size="13" lengthAdjust="spacing" textLength="75" x="660.5" y="186.5615">getInstance()</text><polygon fill="#181818" points="653.5,219.1152,643.5,223.1152,653.5,227.1152,649.5,223.1152" style="stroke:#181818;stroke-width:1.0;"/><line style="stroke:#181818;stroke-width:1.0;stroke-dasharray:2.0,2.0;" x1="647.5" x2="804.5" y1="223.1152" y2="223.1152"/><text fill="#000000" font-family="sans-serif" font-size="13" font-weight="bold" lengthAdjust="spacing" textLength="7" x="659.5" y="217.8525">4</text><text fill="#000000" font-family="sans-serif" font-size="13" lengthAdjust="spacing" textLength="67" x="670.5" y="217.8525">repositories</text><line style="stroke:#181818;stroke-width:1.0;" x1="642.5" x2="689.5" y1="249.4063" y2="249.4063"/><line style="stroke:#181818;stroke-width:1.0;" x1="689.5" x2="689.5" y1="249.4063" y2="262.4063"/><line style="stroke:#181818;stroke-width:1.0;" x1="648.5" x2="689.5" y1="262.4063" y2="262.4063"/><polygon fill="#181818" points="658.5,258.4063,648.5,262.4063,658.5,266.4063,654.5,262.4063" style="stroke:#181818;stroke-width:1.0;"/><text fill="#000000" font-family="sans-serif" font-size="13" font-weight="bold" lengthAdjust="spacing" textLength="7" x="654.5" y="244.1436">5</text><text fill="#000000" font-family="sans-serif" font-size="13" lengthAdjust="spacing" textLength="133" x="665.5" y="244.1436">getGSMFromSession()</text><rect fill="none" height="43.252" style="stroke:#000000;stroke-width:1.5;" width="164" x="555.5" y="275.4063"/><path d="M555.5,275.4063 L617.5,275.4063 L617.5,284.4063 L607.5,294.4063 L555.5,294.4063 L555.5,275.4063 " fill="#EEEEEE" style="stroke:#000000;stroke-width:2.0;"/><text fill="#000000" font-family="sans-serif" font-size="13" font-weight="bold" lengthAdjust="spacing" textLength="17" x="568.5" y="291.4346">ref</text><text fill="#000000" font-family="sans-serif" font-size="12" lengthAdjust="spacing" textLength="48" x="613.5" y="311.3555">Get GSM</text><line style="stroke:#181818;stroke-width:1.0;stroke-dasharray:2.0,2.0;" x1="647.5" x2="689.5" y1="351.9492" y2="351.9492"/><line style="stroke:#181818;stroke-width:1.0;stroke-dasharray:2.0,2.0;" x1="689.5" x2="689.5" y1="351.9492" y2="364.9492"/><line style="stroke:#181818;stroke-width:1.0;stroke-dasharray:2.0,2.0;" x1="642.5" x2="689.5" y1="364.9492" y2="364.9492"/><polygon fill="#181818" points="652.5,360.9492,642.5,364.9492,652.5,368.9492,648.5,364.9492" style="stroke:#181818;stroke-width:1.0;"/><text fill="#000000" font-family="sans-serif" font-size="13" font-weight="bold" lengthAdjust="spacing" textLength="7" x="654.5" y="346.6865">6</text><text fill="#000000" font-family="sans-serif" font-size="13" lengthAdjust="spacing" textLength="25" x="665.5" y="346.6865">gsm</text><polygon fill="#181818" points="895.5,387.2402,905.5,391.2402,895.5,395.2402,899.5,391.2402" style="stroke:#181818;stroke-width:1.0;"/><line style="stroke:#181818;stroke-width:1.0;" x1="642.5" x2="901.5" y1="391.2402" y2="391.2402"/><text fill="#000000" font-family="sans-serif" font-size="13" font-weight="bold" lengthAdjust="spacing" textLength="7" x="649.5" y="385.9775">7</text><text fill="#000000" font-family="sans-serif" font-size="13" lengthAdjust="spacing" textLength="120" x="660.5" y="385.9775">getTeamRepository()</text><polygon fill="#181818" points="653.5,418.5313,643.5,422.5313,653.5,426.5313,649.5,422.5313" style="stroke:#181818;stroke-width:1.0;"/><line style="stroke:#181818;stroke-width:1.0;" x1="647.5" x2="911.5" y1="422.5313" y2="422.5313"/><text fill="#000000" font-family="sans-serif" font-size="13" font-weight="bold" lengthAdjust="spacing" textLength="7" x="659.5" y="417.2686">8</text><text fill="#000000" font-family="sans-serif" font-size="13" lengthAdjust="spacing" textLength="94" x="670.5" y="417.2686">TeamRepository</text><polygon fill="#181818" points="895.5,449.8223,905.5,453.8223,895.5,457.8223,899.5,453.8223" style="stroke:#181818;stroke-width:1.0;"/><line style="stroke:#181818;stroke-width:1.0;" x1="642.5" x2="901.5" y1="453.8223" y2="453.8223"/><text fill="#000000" font-family="sans-serif" font-size="13" font-weight="bold" lengthAdjust="spacing" textLength="7" x="649.5" y="448.5596">9</text><text fill="#000000" font-family="sans-serif" font-size="13" lengthAdjust="spacing" textLength="132" x="660.5" y="448.5596">getAgendaRepository()</text><polygon fill="#181818" points="653.5,481.1133,643.5,485.1133,653.5,489.1133,649.5,485.1133" style="stroke:#181818;stroke-width:1.0;"/><line style="stroke:#181818;stroke-width:1.0;" x1="647.5" x2="911.5" y1="485.1133" y2="485.1133"/><text fill="#000000" font-family="sans-serif" font-size="13" font-weight="bold" lengthAdjust="spacing" textLength="14" x="659.5" y="479.8506">10</text><text fill="#000000" font-family="sans-serif" font-size="13" lengthAdjust="spacing" textLength="106" x="677.5" y="479.8506">AgendaRepository</text><polygon fill="#181818" points="620.5,512.4043,630.5,516.4043,620.5,520.4043,624.5,516.4043" style="stroke:#181818;stroke-width:1.0;"/><line style="stroke:#181818;stroke-width:1.0;" x1="407.5" x2="626.5" y1="516.4043" y2="516.4043"/><text fill="#000000" font-family="sans-serif" font-size="13" font-weight="bold" lengthAdjust="spacing" textLength="14" x="414.5" y="511.1416">11</text><text fill="#000000" font-family="sans-serif" font-size="13" lengthAdjust="spacing" textLength="141" x="432.5" y="511.1416">getAgendaByGSM(gsm)</text><polygon fill="#181818" points="1021.5,543.6953,1031.5,547.6953,1021.5,551.6953,1025.5,547.6953" style="stroke:#181818;stroke-width:1.0;"/><line style="stroke:#181818;stroke-width:1.0;" x1="642.5" x2="1027.5" y1="547.6953" y2="547.6953"/><text fill="#000000" font-family="sans-serif" font-size="13" font-weight="bold" lengthAdjust="spacing" textLength="14" x="649.5" y="542.4326">12</text><text fill="#000000" font-family="sans-serif" font-size="13" lengthAdjust="spacing" textLength="141" x="667.5" y="542.4326">getAgendaByGSM(gsm)</text><polygon fill="#181818" points="653.5,574.9863,643.5,578.9863,653.5,582.9863,649.5,578.9863" style="stroke:#181818;stroke-width:1.0;"/><line style="stroke:#181818;stroke-width:1.0;stroke-dasharray:2.0,2.0;" x1="647.5" x2="1037.5" y1="578.9863" y2="578.9863"/><text fill="#000000" font-family="sans-serif" font-size="13" font-weight="bold" lengthAdjust="spacing" textLength="14" x="659.5" y="573.7236">13</text><text fill="#000000" font-family="sans-serif" font-size="13" lengthAdjust="spacing" textLength="42" x="677.5" y="573.7236">agenda</text><polygon fill="#181818" points="418.5,606.2773,408.5,610.2773,418.5,614.2773,414.5,610.2773" style="stroke:#181818;stroke-width:1.0;"/><line style="stroke:#181818;stroke-width:1.0;stroke-dasharray:2.0,2.0;" x1="412.5" x2="631.5" y1="610.2773" y2="610.2773"/><text fill="#000000" font-family="sans-serif" font-size="13" font-weight="bold" lengthAdjust="spacing" textLength="14" x="424.5" y="605.0146">14</text><text fill="#000000" font-family="sans-serif" font-size="13" lengthAdjust="spacing" textLength="42" x="442.5" y="605.0146">agenda</text><polygon fill="#181818" points="620.5,637.5684,630.5,641.5684,620.5,645.5684,624.5,641.5684" style="stroke:#181818;stroke-width:1.0;"/><line style="stroke:#181818;stroke-width:1.0;" x1="407.5" x2="626.5" y1="641.5684" y2="641.5684"/><text fill="#000000" font-family="sans-serif" font-size="13" font-weight="bold" lengthAdjust="spacing" textLength="14" x="414.5" y="636.3057">15</text><text fill="#000000" font-family="sans-serif" font-size="13" lengthAdjust="spacing" textLength="111" x="432.5" y="636.3057">getAgendaEntries()</text><rect fill="none" height="43.252" style="stroke:#000000;stroke-width:1.5;" width="164" x="555.5" y="649.5684"/><path d="M555.5,649.5684 L617.5,649.5684 L617.5,658.5684 L607.5,668.5684 L555.5,668.5684 L555.5,649.5684 " fill="#EEEEEE" style="stroke:#000000;stroke-width:2.0;"/><text fill="#000000" font-family="sans-serif" font-size="13" font-weight="bold" lengthAdjust="spacing" textLength="17" x="568.5" y="665.5967">ref</text><text fill="#000000" font-family="sans-serif" font-size="12" lengthAdjust="spacing" textLength="106" x="584.5" y="685.5176">Get Agenda Entries</text><polygon fill="#181818" points="418.5,717.1113,408.5,721.1113,418.5,725.1113,414.5,721.1113" style="stroke:#181818;stroke-width:1.0;"/><line style="stroke:#181818;stroke-width:1.0;stroke-dasharray:2.0,2.0;" x1="412.5" x2="636.5" y1="721.1113" y2="721.1113"/><text fill="#000000" font-family="sans-serif" font-size="13" font-weight="bold" lengthAdjust="spacing" textLength="14" x="424.5" y="715.8486">16</text><text fill="#000000" font-family="sans-serif" font-size="13" lengthAdjust="spacing" textLength="83" x="442.5" y="715.8486">agendaEntries</text><polygon fill="#181818" points="99.5,748.4023,89.5,752.4023,99.5,756.4023,95.5,752.4023" style="stroke:#181818;stroke-width:1.0;"/><line style="stroke:#181818;stroke-width:1.0;stroke-dasharray:2.0,2.0;" x1="93.5" x2="401.5" y1="752.4023" y2="752.4023"/><text fill="#000000" font-family="sans-serif" font-size="13" font-weight="bold" lengthAdjust="spacing" textLength="14" x="105.5" y="747.1396">17</text><text fill="#000000" font-family="sans-serif" font-size="13" lengthAdjust="spacing" textLength="251" x="123.5" y="747.1396">shows list of entries and asks to select one</text><polygon fill="#181818" points="385.5,779.6934,395.5,783.6934,385.5,787.6934,389.5,783.6934" style="stroke:#181818;stroke-width:1.0;"/><line style="stroke:#181818;stroke-width:1.0;" x1="88.5" x2="391.5" y1="783.6934" y2="783.6934"/><text fill="#000000" font-family="sans-serif" font-size="13" font-weight="bold" lengthAdjust="spacing" textLength="14" x="95.5" y="778.4307">18</text><text fill="#000000" font-family="sans-serif" font-size="13" lengthAdjust="spacing" textLength="75" x="113.5" y="778.4307">selects entry</text><polygon fill="#181818" points="1262.5,810.9844,1272.5,814.9844,1262.5,818.9844,1266.5,814.9844" style="stroke:#181818;stroke-width:1.0;"/><line style="stroke:#181818;stroke-width:1.0;" x1="407.5" x2="1268.5" y1="814.9844" y2="814.9844"/><text fill="#000000" font-family="sans-serif" font-size="13" font-weight="bold" lengthAdjust="spacing" textLength="14" x="414.5" y="809.7217">19</text><text fill="#000000" font-family="sans-serif" font-size="13" lengthAdjust="spacing" textLength="106" x="432.5" y="809.7217">get(selectedIndex)</text><polygon fill="#181818" points="418.5,842.2754,408.5,846.2754,418.5,850.2754,414.5,846.2754" style="stroke:#181818;stroke-width:1.0;"/><line style="stroke:#181818;stroke-width:1.0;stroke-dasharray:2.0,2.0;" x1="412.5" x2="1278.5" y1="846.2754" y2="846.2754"/><text fill="#000000" font-family="sans-serif" font-size="13" font-weight="bold" lengthAdjust="spacing" textLength="14" x="424.5" y="841.0127">20</text><text fill="#000000" font-family="sans-serif" font-size="13" lengthAdjust="spacing" textLength="73" x="442.5" y="841.0127">agendaEntry</text><polygon fill="#181818" points="620.5,873.5664,630.5,877.5664,620.5,881.5664,624.5,877.5664" style="stroke:#181818;stroke-width:1.0;"/><line style="stroke:#181818;stroke-width:1.0;" x1="407.5" x2="626.5" y1="877.5664" y2="877.5664"/><text fill="#000000" font-family="sans-serif" font-size="13" font-weight="bold" lengthAdjust="spacing" textLength="14" x="414.5" y="872.3037">21</text><text fill="#000000" font-family="sans-serif" font-size="13" lengthAdjust="spacing" textLength="79" x="432.5" y="872.3037">getTeamList()</text><rect fill="none" height="43.252" style="stroke:#000000;stroke-width:1.5;" width="164" x="555.5" y="885.5664"/><path d="M555.5,885.5664 L617.5,885.5664 L617.5,894.5664 L607.5,904.5664 L555.5,904.5664 L555.5,885.5664 " fill="#EEEEEE" style="stroke:#000000;stroke-width:2.0;"/><text fill="#000000" font-family="sans-serif" font-size="13" font-weight="bold" lengthAdjust="spacing" textLength="17" x="568.5" y="901.5947">ref</text><text fill="#000000" font-family="sans-serif" font-size="12" lengthAdjust="spacing" textLength="77" x="599" y="921.5156">Get Team List</text><polygon fill="#181818" points="418.5,953.1094,408.5,957.1094,418.5,961.1094,414.5,957.1094" style="stroke:#181818;stroke-width:1.0;"/><line style="stroke:#181818;stroke-width:1.0;stroke-dasharray:2.0,2.0;" x1="412.5" x2="636.5" y1="957.1094" y2="957.1094"/><text fill="#000000" font-family="sans-serif" font-size="13" font-weight="bold" lengthAdjust="spacing" textLength="14" x="424.5" y="951.8467">22</text><text fill="#000000" font-family="sans-serif" font-size="13" lengthAdjust="spacing" textLength="36" x="442.5" y="951.8467">teams</text><polygon fill="#181818" points="99.5,984.4004,89.5,988.4004,99.5,992.4004,95.5,988.4004" style="stroke:#181818;stroke-width:1.0;"/><line style="stroke:#181818;stroke-width:1.0;stroke-dasharray:2.0,2.0;" x1="93.5" x2="401.5" y1="988.4004" y2="988.4004"/><text fill="#000000" font-family="sans-serif" font-size="13" font-weight="bold" lengthAdjust="spacing" textLength="14" x="105.5" y="983.1377">23</text><text fill="#000000" font-family="sans-serif" font-size="13" lengthAdjust="spacing" textLength="248" x="123.5" y="983.1377">shows list of teams and asks to select one</text><polygon fill="#181818" points="385.5,1015.6914,395.5,1019.6914,385.5,1023.6914,389.5,1019.6914" style="stroke:#181818;stroke-width:1.0;"/><line style="stroke:#181818;stroke-width:1.0;" x1="88.5" x2="391.5" y1="1019.6914" y2="1019.6914"/><text fill="#000000" font-family="sans-serif" font-size="13" font-weight="bold" lengthAdjust="spacing" textLength="14" x="95.5" y="1014.4287">24</text><text fill="#000000" font-family="sans-serif" font-size="13" lengthAdjust="spacing" textLength="75" x="113.5" y="1014.4287">selects team</text><polygon fill="#181818" points="1160,1046.9824,1170,1050.9824,1160,1054.9824,1164,1050.9824" style="stroke:#181818;stroke-width:1.0;"/><line style="stroke:#181818;stroke-width:1.0;" x1="407.5" x2="1166" y1="1050.9824" y2="1050.9824"/><text fill="#000000" font-family="sans-serif" font-size="13" font-weight="bold" lengthAdjust="spacing" textLength="14" x="414.5" y="1045.7197">25</text><text fill="#000000" font-family="sans-serif" font-size="13" lengthAdjust="spacing" textLength="106" x="432.5" y="1045.7197">get(selectedIndex)</text><polygon fill="#181818" points="418.5,1078.2734,408.5,1082.2734,418.5,1086.2734,414.5,1082.2734" style="stroke:#181818;stroke-width:1.0;"/><line style="stroke:#181818;stroke-width:1.0;stroke-dasharray:2.0,2.0;" x1="412.5" x2="1176" y1="1082.2734" y2="1082.2734"/><text fill="#000000" font-family="sans-serif" font-size="13" font-weight="bold" lengthAdjust="spacing" textLength="14" x="424.5" y="1077.0107">26</text><text fill="#000000" font-family="sans-serif" font-size="13" lengthAdjust="spacing" textLength="29" x="442.5" y="1077.0107">team</text><polygon fill="#181818" points="99.5,1109.5645,89.5,1113.5645,99.5,1117.5645,95.5,1113.5645" style="stroke:#181818;stroke-width:1.0;"/><line style="stroke:#181818;stroke-width:1.0;stroke-dasharray:2.0,2.0;" x1="93.5" x2="401.5" y1="1113.5645" y2="1113.5645"/><text fill="#000000" font-family="sans-serif" font-size="13" font-weight="bold" lengthAdjust="spacing" textLength="14" x="105.5" y="1108.3018">27</text><text fill="#000000" font-family="sans-serif" font-size="13" lengthAdjust="spacing" textLength="219" x="123.5" y="1108.3018">shows data and requests confirmation</text><polygon fill="#181818" points="385.5,1140.8555,395.5,1144.8555,385.5,1148.8555,389.5,1144.8555" style="stroke:#181818;stroke-width:1.0;"/><line style="stroke:#181818;stroke-width:1.0;" x1="88.5" x2="391.5" y1="1144.8555" y2="1144.8555"/><text fill="#000000" font-family="sans-serif" font-size="13" font-weight="bold" lengthAdjust="spacing" textLength="14" x="95.5" y="1139.5928">28</text><text fill="#000000" font-family="sans-serif" font-size="13" lengthAdjust="spacing" textLength="78" x="113.5" y="1139.5928">confirms data</text><polygon fill="#181818" points="620.5,1172.1465,630.5,1176.1465,620.5,1180.1465,624.5,1176.1465" style="stroke:#181818;stroke-width:1.0;"/><line style="stroke:#181818;stroke-width:1.0;" x1="407.5" x2="626.5" y1="1176.1465" y2="1176.1465"/><text fill="#000000" font-family="sans-serif" font-size="13" font-weight="bold" lengthAdjust="spacing" textLength="14" x="414.5" y="1170.8838">29</text><text fill="#000000" font-family="sans-serif" font-size="13" lengthAdjust="spacing" textLength="188" x="432.5" y="1170.8838">assignTeam(agendaEntry, team)</text><polygon fill="#181818" points="1352,1228.4375,1362,1232.4375,1352,1236.4375,1356,1232.4375" style="stroke:#181818;stroke-width:1.0;"/><line style="stroke:#181818;stroke-width:1.0;" x1="642.5" x2="1358" y1="1232.4375" y2="1232.4375"/><text fill="#000000" font-family="sans-serif" font-size="13" font-weight="bold" lengthAdjust="spacing" textLength="14" x="649.5" y="1227.1748">30</text><text fill="#000000" font-family="sans-serif" font-size="13" lengthAdjust="spacing" textLength="188" x="667.5" y="1227.1748">assignTeam(agendaEntry, team)</text><line style="stroke:#181818;stroke-width:1.0;" x1="1374" x2="1421" y1="1258.7285" y2="1258.7285"/><line style="stroke:#181818;stroke-width:1.0;" x1="1421" x2="1421" y1="1258.7285" y2="1271.7285"/><line style="stroke:#181818;stroke-width:1.0;" x1="1380" x2="1421" y1="1271.7285" y2="1271.7285"/><polygon fill="#181818" points="1390,1267.7285,1380,1271.7285,1390,1275.7285,1386,1271.7285" style="stroke:#181818;stroke-width:1.0;"/><text fill="#000000" font-family="sans-serif" font-size="13" font-weight="bold" lengthAdjust="spacing" textLength="14" x="1386" y="1253.4658">31</text><text fill="#000000" font-family="sans-serif" font-size="13" lengthAdjust="spacing" textLength="148" x="1404" y="1253.4658">validateTeam(Team team)</text><line style="stroke:#181818;stroke-width:1.0;stroke-dasharray:2.0,2.0;" x1="1379" x2="1421" y1="1313.0195" y2="1313.0195"/><line style="stroke:#181818;stroke-width:1.0;stroke-dasharray:2.0,2.0;" x1="1421" x2="1421" y1="1313.0195" y2="1326.0195"/><line style="stroke:#181818;stroke-width:1.0;stroke-dasharray:2.0,2.0;" x1="1374" x2="1421" y1="1326.0195" y2="1326.0195"/><polygon fill="#181818" points="1384,1322.0195,1374,1326.0195,1384,1330.0195,1380,1326.0195" style="stroke:#181818;stroke-width:1.0;"/><text fill="#000000" font-family="sans-serif" font-size="13" font-weight="bold" lengthAdjust="spacing" textLength="14" x="1386" y="1307.7568">32</text><text fill="#000000" font-family="sans-serif" font-size="13" lengthAdjust="spacing" textLength="22" x="1404" y="1307.7568">true</text><line style="stroke:#181818;stroke-width:1.0;" x1="1374" x2="1421" y1="1347.3105" y2="1347.3105"/><line style="stroke:#181818;stroke-width:1.0;" x1="1421" x2="1421" y1="1347.3105" y2="1360.3105"/><line style="stroke:#181818;stroke-width:1.0;" x1="1380" x2="1421" y1="1360.3105" y2="1360.3105"/><polygon fill="#181818" points="1390,1356.3105,1380,1360.3105,1390,1364.3105,1386,1360.3105" style="stroke:#181818;stroke-width:1.0;"/><text fill="#000000" font-family="sans-serif" font-size="13" font-weight="bold" lengthAdjust="spacing" textLength="14" x="1386" y="1342.0479">33</text><text fill="#000000" font-family="sans-serif" font-size="13" lengthAdjust="spacing" textLength="90" x="1404" y="1342.0479">addTeam(team)</text><line style="stroke:#181818;stroke-width:1.0;stroke-dasharray:2.0,2.0;" x1="1379" x2="1421" y1="1401.6016" y2="1401.6016"/><line style="stroke:#181818;stroke-width:1.0;stroke-dasharray:2.0,2.0;" x1="1421" x2="1421" y1="1401.6016" y2="1414.6016"/><line style="stroke:#181818;stroke-width:1.0;stroke-dasharray:2.0,2.0;" x1="1374" x2="1421" y1="1414.6016" y2="1414.6016"/><polygon fill="#181818" points="1384,1410.6016,1374,1414.6016,1384,1418.6016,1380,1414.6016" style="stroke:#181818;stroke-width:1.0;"/><text fill="#000000" font-family="sans-serif" font-size="13" font-weight="bold" lengthAdjust="spacing" textLength="14" x="1386" y="1396.3389">34</text><text fill="#000000" font-family="sans-serif" font-size="13" lengthAdjust="spacing" textLength="22" x="1404" y="1396.3389">true</text><polygon fill="#181818" points="99.5,1436.8926,89.5,1440.8926,99.5,1444.8926,95.5,1440.8926" style="stroke:#181818;stroke-width:1.0;"/><line style="stroke:#181818;stroke-width:1.0;stroke-dasharray:2.0,2.0;" x1="93.5" x2="396.5" y1="1440.8926" y2="1440.8926"/><text fill="#000000" font-family="sans-serif" font-size="13" font-weight="bold" lengthAdjust="spacing" textLength="14" x="105.5" y="1435.6299">35</text><text fill="#000000" font-family="sans-serif" font-size="13" lengthAdjust="spacing" textLength="158" x="123.5" y="1435.6299">displays operation success</text><polygon fill="#181818" points="94.5,1468.1836,84.5,1472.1836,94.5,1476.1836,90.5,1472.1836" style="stroke:#181818;stroke-width:1.0;"/><line style="stroke:#181818;stroke-width:1.0;stroke-dasharray:2.0,2.0;" x1="88.5" x2="401.5" y1="1472.1836" y2="1472.1836"/><text fill="#000000" font-family="sans-serif" font-size="13" font-weight="bold" lengthAdjust="spacing" textLength="14" x="100.5" y="1466.9209">36</text><text fill="#000000" font-family="sans-serif" font-size="13" lengthAdjust="spacing" textLength="198" x="118.5" y="1466.9209">sends message to team members</text><!--SRC=[lLZDJkCm4BxxAKPSQD7o0ZqWPLcsgWIhLHfkUp79j8r8x6xi0fLu-1tRQUhy51n0wml2yNppztbcNFMOYoslU0cb53BTLB94qDKEcMg-R7dwoDUurFi2eS9KSx4k_0DgmpFvd8irh7YXa36-qrBioWUi63lVv1d2Iahz85yOJxMiu6nU8GfO4Z8gkEE2uAipu0gY7tUCG7MUvbikD9pD8gNojKYGb_SBU-H-SVB4jHIwaaLHWrqdyMtdR8nRgNAo8KTbppGR-sLkt2B3soAL9_57z05-tqP9MuAS4Ha_0fDKrDboliPjEKqUjAIIreQLIJeo3jZ1pOS-tL14dEZDhoIEVaJCv21_uXfji1dKY_w1ookABipezAC2BUclYInmCARP3G5e024Ne3U4O7KSGHfeIX8x1syHxYN16oqp8j7V7Igj8EEQmqJm4gVCFtsULcXWR0QxC5Ts- -A2WDmnrZhIs625Mv_yPRuQh0424F0QzK8eOdgAa-b9ZEvgL0-nAXZ5h26hBclFJVoE90o6pV2Bp3j4plwrePelxtvIvLWYyKMA4G4BJLPlLRW2-OHLdo5lhZbg86F31OZUun9NHySBZoh30RmS1GJaa0XJWbmYsXKZD16DJblBtfUn-euUjfMoCKu6AEmxsIsc_ydDhjglTlHOsZmll- -9hXFYq3GmJ54yB3t-Hb9x2fUAOgyykGRu8TQJqh3RvVfKtNv20-lpnpH6Af-JTm8RNcXCRN7GK6EpJrMM8LT3W7irf8vFgmEhZNnMKEHAWrpPdawmrDwpflShB6ZK0ocGTL1DRtUG_ipWpYit7x3UC11419UfQExoD76Gc2r4XYzZBpcDGq4If6qWo7isbhXp5g2lIqLJEcyf2I4bR6Ih7DSX3NcDCM2iOL_I5TlyDHFa-xFAOFzxWxWMTGHjXuRT0t4Drl0WEwh_knGdyISut3CYYSSPaSJjm8yIzaAM7AinEpdCkupOITuaefdjKobMULLoJICXEw60eZkemCzFZUDK34_wjY8DtZ7Ul0qdtkN-PgCoPG5Nw_NrjRrnQBJrSofKHKjDynJhnhx-qC9_uaLEhgFLOEze7_aaSqvg6jJggxK_0WJoP9G_FCkiAyDUz30_Rco8WMyEt4UQpo3BrRRWUmLoYvNbDAXTcjABvwI88Z8eAEa8ySBK9lkABj7yBgA6gfFVJkXf_Wy0]--></g></svg>