<?xml version="1.0" encoding="us-ascii" standalone="no"?><svg xmlns="http://www.w3.org/2000/svg" xmlns:xlink="http://www.w3.org/1999/xlink" contentStyleType="text/css" height="468px" preserveAspectRatio="none" style="width:337px;height:468px;background:#FFFFFF;" version="1.1" viewBox="0 0 337 468" width="337px" zoomAndPan="magnify"><defs/><g><rect fill="#FFFFFF" height="303.9883" style="stroke:#181818;stroke-width:1.0;" width="10" x="138" y="90.5332"/><rect fill="#FFFFFF" height="130.873" style="stroke:#181818;stroke-width:1.0;" width="10" x="143" y="218.3574"/><rect fill="#FFFFFF" height="42.291" style="stroke:#181818;stroke-width:1.0;" width="10" x="148" y="262.6484"/><rect fill="none" height="258.6973" style="stroke:#000000;stroke-width:1.5;" width="247.5" x="84" y="105.5332"/><line style="stroke:#181818;stroke-width:0.5;stroke-dasharray:5.0,5.0;" x1="143" x2="143" y1="57.2422" y2="412.5215"/><line style="stroke:#181818;stroke-width:0.5;stroke-dasharray:5.0,5.0;" x1="299.5" x2="299.5" y1="165.9453" y2="412.5215"/><rect fill="#E3E3E3" height="51.2422" rx="2.5" ry="2.5" style="stroke:#181818;stroke-width:0.5;" width="98" x="94" y="5"/><text fill="#000000" font-family="sans-serif" font-size="14" lengthAdjust="spacing" textLength="77" x="104.5" y="27.1074">organization</text><text fill="#000000" font-family="sans-serif" font-size="14" lengthAdjust="spacing" textLength="84" x="101" y="45.7285">:Organization</text><rect fill="#E3E3E3" height="51.2422" rx="2.5" ry="2.5" style="stroke:#181818;stroke-width:0.5;" width="98" x="94" y="411.5215"/><text fill="#000000" font-family="sans-serif" font-size="14" lengthAdjust="spacing" textLength="77" x="104.5" y="433.6289">organization</text><text fill="#000000" font-family="sans-serif" font-size="14" lengthAdjust="spacing" textLength="84" x="101" y="452.25">:Organization</text><rect fill="#E3E3E3" height="51.2422" rx="2.5" ry="2.5" style="stroke:#181818;stroke-width:0.5;" width="43" x="278.5" y="411.5215"/><text fill="#000000" font-family="sans-serif" font-size="14" lengthAdjust="spacing" textLength="23" x="288.5" y="433.6289">skill</text><text fill="#000000" font-family="sans-serif" font-size="14" lengthAdjust="spacing" textLength="29" x="285.5" y="452.25">:Skill</text><rect fill="#FFFFFF" height="303.9883" style="stroke:#181818;stroke-width:1.0;" width="10" x="138" y="90.5332"/><rect fill="#FFFFFF" height="130.873" style="stroke:#181818;stroke-width:1.0;" width="10" x="143" y="218.3574"/><rect fill="#FFFFFF" height="42.291" style="stroke:#181818;stroke-width:1.0;" width="10" x="148" y="262.6484"/><polygon fill="#181818" points="126,86.5332,136,90.5332,126,94.5332,130,90.5332" style="stroke:#181818;stroke-width:1.0;"/><line style="stroke:#181818;stroke-width:1.0;" x1="0" x2="132" y1="90.5332" y2="90.5332"/><text fill="#000000" font-family="sans-serif" font-size="13" font-weight="bold" lengthAdjust="spacing" textLength="14" x="7" y="85.2705">16</text><text fill="#000000" font-family="sans-serif" font-size="13" lengthAdjust="spacing" textLength="101" x="25" y="85.2705">createSkill(name)</text><path d="M84,105.5332 L204,105.5332 L204,114.8242 L194,124.8242 L84,124.8242 L84,105.5332 " fill="#EEEEEE" style="stroke:#000000;stroke-width:1.5;"/><rect fill="none" height="258.6973" style="stroke:#000000;stroke-width:1.5;" width="247.5" x="84" y="105.5332"/><text fill="#000000" font-family="sans-serif" font-size="13" font-weight="bold" lengthAdjust="spacing" textLength="75" x="99" y="120.5615">Create Task</text><polygon fill="#181818" points="266.5,144.1152,276.5,148.1152,266.5,152.1152,270.5,148.1152" style="stroke:#181818;stroke-width:1.0;"/><line style="stroke:#181818;stroke-width:1.0;" x1="148" x2="272.5" y1="148.1152" y2="148.1152"/><text fill="#000000" font-family="sans-serif" font-size="13" font-weight="bold" lengthAdjust="spacing" textLength="25" x="155" y="142.8525">16.1</text><text fill="#000000" font-family="sans-serif" font-size="13" lengthAdjust="spacing" textLength="76" x="184" y="142.8525">create(name)</text><rect fill="#E3E3E3" height="51.2422" rx="2.5" ry="2.5" style="stroke:#181818;stroke-width:0.5;" width="43" x="278.5" y="124.8242"/><text fill="#000000" font-family="sans-serif" font-size="14" lengthAdjust="spacing" textLength="23" x="288.5" y="146.9316">skill</text><text fill="#000000" font-family="sans-serif" font-size="14" lengthAdjust="spacing" textLength="29" x="285.5" y="165.5527">:Skill</text><line style="stroke:#181818;stroke-width:1.0;" x1="148" x2="195" y1="205.3574" y2="205.3574"/><line style="stroke:#181818;stroke-width:1.0;" x1="195" x2="195" y1="205.3574" y2="218.3574"/><line style="stroke:#181818;stroke-width:1.0;" x1="154" x2="195" y1="218.3574" y2="218.3574"/><polygon fill="#181818" points="164,214.3574,154,218.3574,164,222.3574,160,218.3574" style="stroke:#181818;stroke-width:1.0;"/><text fill="#000000" font-family="sans-serif" font-size="13" font-weight="bold" lengthAdjust="spacing" textLength="25" x="160" y="200.0947">16.2</text><text fill="#000000" font-family="sans-serif" font-size="13" lengthAdjust="spacing" textLength="81" x="189" y="200.0947">addSkill (skill)</text><line style="stroke:#181818;stroke-width:1.0;" x1="153" x2="200" y1="249.6484" y2="249.6484"/><line style="stroke:#181818;stroke-width:1.0;" x1="200" x2="200" y1="249.6484" y2="262.6484"/><line style="stroke:#181818;stroke-width:1.0;" x1="159" x2="200" y1="262.6484" y2="262.6484"/><polygon fill="#181818" points="169,258.6484,159,262.6484,169,266.6484,165,262.6484" style="stroke:#181818;stroke-width:1.0;"/><text fill="#000000" font-family="sans-serif" font-size="13" font-weight="bold" lengthAdjust="spacing" textLength="25" x="165" y="244.3857">16.3</text><text fill="#000000" font-family="sans-serif" font-size="13" lengthAdjust="spacing" textLength="99" x="194" y="244.3857">validateSkill(skill)</text><line style="stroke:#181818;stroke-width:1.0;stroke-dasharray:2.0,2.0;" x1="158" x2="200" y1="303.9395" y2="303.9395"/><line style="stroke:#181818;stroke-width:1.0;stroke-dasharray:2.0,2.0;" x1="200" x2="200" y1="303.9395" y2="316.9395"/><line style="stroke:#181818;stroke-width:1.0;stroke-dasharray:2.0,2.0;" x1="153" x2="200" y1="316.9395" y2="316.9395"/><polygon fill="#181818" points="163,312.9395,153,316.9395,163,320.9395,159,316.9395" style="stroke:#181818;stroke-width:1.0;"/><text fill="#000000" font-family="sans-serif" font-size="13" font-weight="bold" lengthAdjust="spacing" textLength="25" x="165" y="298.6768">16.4</text><text fill="#000000" font-family="sans-serif" font-size="13" lengthAdjust="spacing" textLength="4" x="194" y="298.6768">&#160;</text><line style="stroke:#181818;stroke-width:1.0;stroke-dasharray:2.0,2.0;" x1="153" x2="195" y1="348.2305" y2="348.2305"/><line style="stroke:#181818;stroke-width:1.0;stroke-dasharray:2.0,2.0;" x1="195" x2="195" y1="348.2305" y2="361.2305"/><line style="stroke:#181818;stroke-width:1.0;stroke-dasharray:2.0,2.0;" x1="148" x2="195" y1="361.2305" y2="361.2305"/><polygon fill="#181818" points="158,357.2305,148,361.2305,158,365.2305,154,361.2305" style="stroke:#181818;stroke-width:1.0;"/><text fill="#000000" font-family="sans-serif" font-size="13" font-weight="bold" lengthAdjust="spacing" textLength="25" x="160" y="342.9678">16.5</text><text fill="#000000" font-family="sans-serif" font-size="13" lengthAdjust="spacing" textLength="4" x="189" y="342.9678">&#160;</text><polygon fill="#181818" points="11,390.5215,1,394.5215,11,398.5215,7,394.5215" style="stroke:#181818;stroke-width:1.0;"/><line style="stroke:#181818;stroke-width:1.0;stroke-dasharray:2.0,2.0;" x1="5" x2="142" y1="394.5215" y2="394.5215"/><text fill="#000000" font-family="sans-serif" font-size="13" font-weight="bold" lengthAdjust="spacing" textLength="14" x="17" y="389.2588">17</text><text fill="#000000" font-family="sans-serif" font-size="13" lengthAdjust="spacing" textLength="23" x="35" y="389.2588">skill</text><!--SRC=[XP11IyCm5CVl-HIFdRP1XLqKYWX3rEDWsz7BCtbseSbBITA9VdhJTDQsAkPI-lBx__wl3RNc1ZrQi8wTF7bd2Q9lIOJXfa5POqM7-6u8FCc8N9an44wet9lc2bxH118YZQEMka6Ei72-GjOV6BNZPovtezS5O83T_caQI69Z4ddedXavRlSFZriXi8sEM_j27ZRNehZhiYL8JnWfqqj6IwiPUBKHAAC-9oYNGJgLTsq3zpa9HmoroEFk90IIkkzShx_y5_MCoWkWKhaTbddrrRVhH-zlyJCQhOOlk2Z6y9-MmTIh9dUA9Z7nNsR6ToDYrUV6l_CcJswB8bjAoFkAUTid]--></g></svg>