<?xml version="1.0" encoding="us-ascii" standalone="no"?><svg xmlns="http://www.w3.org/2000/svg" xmlns:xlink="http://www.w3.org/1999/xlink" contentStyleType="text/css" height="1904px" preserveAspectRatio="none" style="width:1841px;height:1904px;background:#FFFFFF;" version="1.1" viewBox="0 0 1841 1904" width="1841px" zoomAndPan="magnify"><defs/><g><!--class ApplicationSession--><g id="elem_ApplicationSession"><rect codeLine="11" fill="#F1F1F1" height="85.2422" id="ApplicationSession" rx="2.5" ry="2.5" style="stroke:#181818;stroke-width:0.5;" width="151" x="1543.5" y="441.5"/><ellipse cx="1558.5" cy="457.5" fill="#ADD1B2" rx="11" ry="11" style="stroke:#181818;stroke-width:1.0;"/><path d="M1561.2656,453.375 Q1561.4219,453.1563 1561.6094,453.0469 Q1561.7969,452.9375 1562.0156,452.9375 Q1562.3906,452.9375 1562.625,453.2031 Q1562.8594,453.4531 1562.8594,454.0625 L1562.8594,455.5156 Q1562.8594,456.125 1562.625,456.3906 Q1562.3906,456.6563 1562.0156,456.6563 Q1561.6719,456.6563 1561.4688,456.4531 Q1561.2656,456.2656 1561.1563,455.75 Q1561.1094,455.3906 1560.9219,455.2031 Q1560.5938,454.8281 1559.9844,454.6094 Q1559.375,454.3906 1558.75,454.3906 Q1557.9844,454.3906 1557.3438,454.7188 Q1556.7188,455.0469 1556.2188,455.7969 Q1555.7344,456.5469 1555.7344,457.5781 L1555.7344,458.6719 Q1555.7344,459.9063 1556.625,460.7344 Q1557.5156,461.5469 1559.1094,461.5469 Q1560.0469,461.5469 1560.7031,461.2969 Q1561.0938,461.1406 1561.5156,460.7031 Q1561.7813,460.4375 1561.9219,460.3594 Q1562.0781,460.2813 1562.2813,460.2813 Q1562.6094,460.2813 1562.8594,460.5469 Q1563.125,460.7969 1563.125,461.1406 Q1563.125,461.4844 1562.7813,461.8906 Q1562.2813,462.4688 1561.4844,462.7969 Q1560.4063,463.25 1559.1094,463.25 Q1557.5938,463.25 1556.3906,462.625 Q1555.4063,462.125 1554.7188,461.0625 Q1554.0313,459.9844 1554.0313,458.7031 L1554.0313,457.5469 Q1554.0313,456.2188 1554.6406,455.0781 Q1555.2656,453.9219 1556.3594,453.3125 Q1557.4531,452.6875 1558.6875,452.6875 Q1559.4219,452.6875 1560.0625,452.8594 Q1560.7188,453.0156 1561.2656,453.375 Z " fill="#000000"/><text fill="#000000" font-family="sans-serif" font-size="14" lengthAdjust="spacing" textLength="119" x="1572.5" y="463.2969">ApplicationSession</text><line style="stroke:#181818;stroke-width:0.5;" x1="1544.5" x2="1693.5" y1="473.5" y2="473.5"/><line style="stroke:#181818;stroke-width:0.5;" x1="1544.5" x2="1693.5" y1="481.5" y2="481.5"/><text fill="#000000" font-family="sans-serif" font-size="14" lengthAdjust="spacing" textLength="128" x="1549.5" y="500.6074">+static getInstance()</text><text fill="#000000" font-family="sans-serif" font-size="14" lengthAdjust="spacing" textLength="136" x="1549.5" y="519.2285">+getCurrentSession()</text></g><!--class UserSession--><g id="elem_UserSession"><rect codeLine="17" fill="#F1F1F1" height="66.6211" id="UserSession" rx="2.5" ry="2.5" style="stroke:#181818;stroke-width:0.5;" width="113" x="1513.5" y="661.5"/><ellipse cx="1529.4" cy="677.5" fill="#ADD1B2" rx="11" ry="11" style="stroke:#181818;stroke-width:1.0;"/><path d="M1532.1656,673.375 Q1532.3219,673.1563 1532.5094,673.0469 Q1532.6969,672.9375 1532.9156,672.9375 Q1533.2906,672.9375 1533.525,673.2031 Q1533.7594,673.4531 1533.7594,674.0625 L1533.7594,675.5156 Q1533.7594,676.125 1533.525,676.3906 Q1533.2906,676.6563 1532.9156,676.6563 Q1532.5719,676.6563 1532.3688,676.4531 Q1532.1656,676.2656 1532.0563,675.75 Q1532.0094,675.3906 1531.8219,675.2031 Q1531.4938,674.8281 1530.8844,674.6094 Q1530.275,674.3906 1529.65,674.3906 Q1528.8844,674.3906 1528.2438,674.7188 Q1527.6188,675.0469 1527.1188,675.7969 Q1526.6344,676.5469 1526.6344,677.5781 L1526.6344,678.6719 Q1526.6344,679.9063 1527.525,680.7344 Q1528.4156,681.5469 1530.0094,681.5469 Q1530.9469,681.5469 1531.6031,681.2969 Q1531.9938,681.1406 1532.4156,680.7031 Q1532.6813,680.4375 1532.8219,680.3594 Q1532.9781,680.2813 1533.1813,680.2813 Q1533.5094,680.2813 1533.7594,680.5469 Q1534.025,680.7969 1534.025,681.1406 Q1534.025,681.4844 1533.6813,681.8906 Q1533.1813,682.4688 1532.3844,682.7969 Q1531.3063,683.25 1530.0094,683.25 Q1528.4938,683.25 1527.2906,682.625 Q1526.3063,682.125 1525.6188,681.0625 Q1524.9313,679.9844 1524.9313,678.7031 L1524.9313,677.5469 Q1524.9313,676.2188 1525.5406,675.0781 Q1526.1656,673.9219 1527.2594,673.3125 Q1528.3531,672.6875 1529.5875,672.6875 Q1530.3219,672.6875 1530.9625,672.8594 Q1531.6188,673.0156 1532.1656,673.375 Z " fill="#000000"/><text fill="#000000" font-family="sans-serif" font-size="14" lengthAdjust="spacing" textLength="79" x="1543.6" y="683.2969">UserSession</text><line style="stroke:#181818;stroke-width:0.5;" x1="1514.5" x2="1625.5" y1="693.5" y2="693.5"/><line style="stroke:#181818;stroke-width:0.5;" x1="1514.5" x2="1625.5" y1="701.5" y2="701.5"/><text fill="#000000" font-family="sans-serif" font-size="14" lengthAdjust="spacing" textLength="101" x="1519.5" y="720.6074">+getUserEmail()</text></g><!--class Collaborator--><g id="elem_Collaborator"><rect codeLine="22" fill="#F1F1F1" height="234.2109" id="Collaborator" rx="2.5" ry="2.5" style="stroke:#181818;stroke-width:0.5;" width="157" x="418.5" y="1663"/><ellipse cx="454.65" cy="1679" fill="#ADD1B2" rx="11" ry="11" style="stroke:#181818;stroke-width:1.0;"/><path d="M457.4156,1674.875 Q457.5719,1674.6563 457.7594,1674.5469 Q457.9469,1674.4375 458.1656,1674.4375 Q458.5406,1674.4375 458.775,1674.7031 Q459.0094,1674.9531 459.0094,1675.5625 L459.0094,1677.0156 Q459.0094,1677.625 458.775,1677.8906 Q458.5406,1678.1563 458.1656,1678.1563 Q457.8219,1678.1563 457.6188,1677.9531 Q457.4156,1677.7656 457.3063,1677.25 Q457.2594,1676.8906 457.0719,1676.7031 Q456.7438,1676.3281 456.1344,1676.1094 Q455.525,1675.8906 454.9,1675.8906 Q454.1344,1675.8906 453.4938,1676.2188 Q452.8688,1676.5469 452.3688,1677.2969 Q451.8844,1678.0469 451.8844,1679.0781 L451.8844,1680.1719 Q451.8844,1681.4063 452.775,1682.2344 Q453.6656,1683.0469 455.2594,1683.0469 Q456.1969,1683.0469 456.8531,1682.7969 Q457.2438,1682.6406 457.6656,1682.2031 Q457.9313,1681.9375 458.0719,1681.8594 Q458.2281,1681.7813 458.4313,1681.7813 Q458.7594,1681.7813 459.0094,1682.0469 Q459.275,1682.2969 459.275,1682.6406 Q459.275,1682.9844 458.9313,1683.3906 Q458.4313,1683.9688 457.6344,1684.2969 Q456.5563,1684.75 455.2594,1684.75 Q453.7438,1684.75 452.5406,1684.125 Q451.5563,1683.625 450.8688,1682.5625 Q450.1813,1681.4844 450.1813,1680.2031 L450.1813,1679.0469 Q450.1813,1677.7188 450.7906,1676.5781 Q451.4156,1675.4219 452.5094,1674.8125 Q453.6031,1674.1875 454.8375,1674.1875 Q455.5719,1674.1875 456.2125,1674.3594 Q456.8688,1674.5156 457.4156,1674.875 Z " fill="#000000"/><text fill="#000000" font-family="sans-serif" font-size="14" lengthAdjust="spacing" textLength="78" x="473.35" y="1684.7969">Collaborator</text><line style="stroke:#181818;stroke-width:0.5;" x1="419.5" x2="574.5" y1="1695" y2="1695"/><text fill="#000000" font-family="sans-serif" font-size="14" lengthAdjust="spacing" textLength="85" x="424.5" y="1714.1074">-name: String</text><text fill="#000000" font-family="sans-serif" font-size="14" lengthAdjust="spacing" textLength="106" x="424.5" y="1732.7285">-birthdate: String</text><text fill="#000000" font-family="sans-serif" font-size="14" lengthAdjust="spacing" textLength="145" x="424.5" y="1751.3496">-admission date: String</text><text fill="#000000" font-family="sans-serif" font-size="14" lengthAdjust="spacing" textLength="101" x="424.5" y="1769.9707">-address: String</text><text fill="#000000" font-family="sans-serif" font-size="14" lengthAdjust="spacing" textLength="122" x="424.5" y="1788.5918">-mobile Contact: int</text><text fill="#000000" font-family="sans-serif" font-size="14" lengthAdjust="spacing" textLength="133" x="424.5" y="1807.2129">-email contact: String</text><text fill="#000000" font-family="sans-serif" font-size="14" lengthAdjust="spacing" textLength="134" x="424.5" y="1825.834">-taxpayer number: int</text><text fill="#000000" font-family="sans-serif" font-size="14" lengthAdjust="spacing" textLength="121" x="424.5" y="1844.4551">-ID doc type: String</text><text fill="#000000" font-family="sans-serif" font-size="14" lengthAdjust="spacing" textLength="93" x="424.5" y="1863.0762">-ID number: int</text><line style="stroke:#181818;stroke-width:0.5;" x1="419.5" x2="574.5" y1="1870.5898" y2="1870.5898"/><text fill="#000000" font-family="sans-serif" font-size="14" lengthAdjust="spacing" textLength="90" x="424.5" y="1889.6973">+addSkill(skill)</text></g><!--class CollaboratorRepository--><g id="elem_CollaboratorRepository"><rect codeLine="35" fill="#F1F1F1" height="159.7266" id="CollaboratorRepository" rx="2.5" ry="2.5" style="stroke:#181818;stroke-width:0.5;" width="401" x="893.5" y="615"/><ellipse cx="1016.75" cy="631" fill="#ADD1B2" rx="11" ry="11" style="stroke:#181818;stroke-width:1.0;"/><path d="M1019.5156,626.875 Q1019.6719,626.6563 1019.8594,626.5469 Q1020.0469,626.4375 1020.2656,626.4375 Q1020.6406,626.4375 1020.875,626.7031 Q1021.1094,626.9531 1021.1094,627.5625 L1021.1094,629.0156 Q1021.1094,629.625 1020.875,629.8906 Q1020.6406,630.1563 1020.2656,630.1563 Q1019.9219,630.1563 1019.7188,629.9531 Q1019.5156,629.7656 1019.4063,629.25 Q1019.3594,628.8906 1019.1719,628.7031 Q1018.8438,628.3281 1018.2344,628.1094 Q1017.625,627.8906 1017,627.8906 Q1016.2344,627.8906 1015.5938,628.2188 Q1014.9688,628.5469 1014.4688,629.2969 Q1013.9844,630.0469 1013.9844,631.0781 L1013.9844,632.1719 Q1013.9844,633.4063 1014.875,634.2344 Q1015.7656,635.0469 1017.3594,635.0469 Q1018.2969,635.0469 1018.9531,634.7969 Q1019.3438,634.6406 1019.7656,634.2031 Q1020.0313,633.9375 1020.1719,633.8594 Q1020.3281,633.7813 1020.5313,633.7813 Q1020.8594,633.7813 1021.1094,634.0469 Q1021.375,634.2969 1021.375,634.6406 Q1021.375,634.9844 1021.0313,635.3906 Q1020.5313,635.9688 1019.7344,636.2969 Q1018.6563,636.75 1017.3594,636.75 Q1015.8438,636.75 1014.6406,636.125 Q1013.6563,635.625 1012.9688,634.5625 Q1012.2813,633.4844 1012.2813,632.2031 L1012.2813,631.0469 Q1012.2813,629.7188 1012.8906,628.5781 Q1013.5156,627.4219 1014.6094,626.8125 Q1015.7031,626.1875 1016.9375,626.1875 Q1017.6719,626.1875 1018.3125,626.3594 Q1018.9688,626.5156 1019.5156,626.875 Z " fill="#000000"/><text fill="#000000" font-family="sans-serif" font-size="14" lengthAdjust="spacing" textLength="146" x="1037.25" y="636.7969">CollaboratorRepository</text><line style="stroke:#181818;stroke-width:0.5;" x1="894.5" x2="1293.5" y1="647" y2="647"/><text fill="#000000" font-family="sans-serif" font-size="14" lengthAdjust="spacing" textLength="99" x="899.5" y="666.1074">-List&lt;Job&gt;: jobs</text><line style="stroke:#181818;stroke-width:0.5;" x1="894.5" x2="1293.5" y1="673.6211" y2="673.6211"/><text fill="#000000" font-family="sans-serif" font-size="14" lengthAdjust="spacing" textLength="350" x="899.5" y="692.7285">+Optional&lt;Collaborator&gt; add(Collaborator collaborator)</text><text fill="#000000" font-family="sans-serif" font-size="14" lengthAdjust="spacing" textLength="307" x="899.5" y="711.3496">+Collaborator getCollaboratorByID(int IDnumber)</text><text fill="#000000" font-family="sans-serif" font-size="14" lengthAdjust="spacing" textLength="243" x="899.5" y="729.9707">+List&lt;Collaborator&gt; getCollaborators()</text><text fill="#000000" font-family="sans-serif" font-size="14" lengthAdjust="spacing" textLength="357" x="899.5" y="748.5918">+boolean validateCollaborator(Collaborator collaborator)</text><text fill="#000000" font-family="sans-serif" font-size="14" lengthAdjust="spacing" textLength="389" x="899.5" y="767.2129">+void updateCollaborator(Collaborator collaboratorToUpdate)</text></g><!--class Organization--><g id="elem_Organization"><rect codeLine="44" fill="#F1F1F1" height="401.8008" id="Organization" rx="2.5" ry="2.5" style="stroke:#181818;stroke-width:0.5;" width="413" x="243.5" y="854"/><ellipse cx="405.75" cy="870" fill="#ADD1B2" rx="11" ry="11" style="stroke:#181818;stroke-width:1.0;"/><path d="M408.5156,865.875 Q408.6719,865.6563 408.8594,865.5469 Q409.0469,865.4375 409.2656,865.4375 Q409.6406,865.4375 409.875,865.7031 Q410.1094,865.9531 410.1094,866.5625 L410.1094,868.0156 Q410.1094,868.625 409.875,868.8906 Q409.6406,869.1563 409.2656,869.1563 Q408.9219,869.1563 408.7188,868.9531 Q408.5156,868.7656 408.4063,868.25 Q408.3594,867.8906 408.1719,867.7031 Q407.8438,867.3281 407.2344,867.1094 Q406.625,866.8906 406,866.8906 Q405.2344,866.8906 404.5938,867.2188 Q403.9688,867.5469 403.4688,868.2969 Q402.9844,869.0469 402.9844,870.0781 L402.9844,871.1719 Q402.9844,872.4063 403.875,873.2344 Q404.7656,874.0469 406.3594,874.0469 Q407.2969,874.0469 407.9531,873.7969 Q408.3438,873.6406 408.7656,873.2031 Q409.0313,872.9375 409.1719,872.8594 Q409.3281,872.7813 409.5313,872.7813 Q409.8594,872.7813 410.1094,873.0469 Q410.375,873.2969 410.375,873.6406 Q410.375,873.9844 410.0313,874.3906 Q409.5313,874.9688 408.7344,875.2969 Q407.6563,875.75 406.3594,875.75 Q404.8438,875.75 403.6406,875.125 Q402.6563,874.625 401.9688,873.5625 Q401.2813,872.4844 401.2813,871.2031 L401.2813,870.0469 Q401.2813,868.7188 401.8906,867.5781 Q402.5156,866.4219 403.6094,865.8125 Q404.7031,865.1875 405.9375,865.1875 Q406.6719,865.1875 407.3125,865.3594 Q407.9688,865.5156 408.5156,865.875 Z " fill="#000000"/><text fill="#000000" font-family="sans-serif" font-size="14" lengthAdjust="spacing" textLength="80" x="426.25" y="875.7969">Organization</text><line style="stroke:#181818;stroke-width:0.5;" x1="244.5" x2="655.5" y1="886" y2="886"/><text fill="#000000" font-family="sans-serif" font-size="14" lengthAdjust="spacing" textLength="81" x="249.5" y="905.1074">-String name</text><text fill="#000000" font-family="sans-serif" font-size="14" lengthAdjust="spacing" textLength="114" x="249.5" y="923.7285">-String vatNumber</text><text fill="#000000" font-family="sans-serif" font-size="14" lengthAdjust="spacing" textLength="97" x="249.5" y="942.3496">-String address</text><text fill="#000000" font-family="sans-serif" font-size="14" lengthAdjust="spacing" textLength="86" x="249.5" y="960.9707">-String phone</text><text fill="#000000" font-family="sans-serif" font-size="14" lengthAdjust="spacing" textLength="79" x="249.5" y="979.5918">-String email</text><line style="stroke:#181818;stroke-width:0.5;" x1="244.5" x2="655.5" y1="987.1055" y2="987.1055"/><text fill="#000000" font-family="sans-serif" font-size="14" lengthAdjust="spacing" textLength="277" x="249.5" y="1006.2129">+addCollaborator(Collaborator collaborator)</text><text fill="#000000" font-family="sans-serif" font-size="14" lengthAdjust="spacing" textLength="302" x="249.5" y="1024.834">+validateCollaborator(Collaborator collaborator)</text><text fill="#000000" font-family="sans-serif" font-size="14" lengthAdjust="spacing" textLength="307" x="249.5" y="1043.4551">+Collaborator getCollaboratorByID(int IDnumber)</text><text fill="#000000" font-family="sans-serif" font-size="14" lengthAdjust="spacing" textLength="258" x="249.5" y="1062.0762">+List&lt;Collaborator&gt; getCollaboratorList()</text><text fill="#000000" font-family="sans-serif" font-size="14" lengthAdjust="spacing" textLength="397" x="249.5" y="1080.6973">+Optional&lt;Collaborator&gt; registerCollaborator(HRManager hrm,</text><text fill="#000000" font-family="sans-serif" font-size="14" lengthAdjust="spacing" textLength="84" x="249.5" y="1099.3184">name: String,</text><text fill="#000000" font-family="sans-serif" font-size="14" lengthAdjust="spacing" textLength="105" x="249.5" y="1117.9395">birthdate: String,</text><text fill="#000000" font-family="sans-serif" font-size="14" lengthAdjust="spacing" textLength="140" x="249.5" y="1136.5605">admissiondate: String,</text><text fill="#000000" font-family="sans-serif" font-size="14" lengthAdjust="spacing" textLength="100" x="249.5" y="1155.1816">address: String,</text><text fill="#000000" font-family="sans-serif" font-size="14" lengthAdjust="spacing" textLength="68" x="249.5" y="1173.8027">mobile: int,</text><text fill="#000000" font-family="sans-serif" font-size="14" lengthAdjust="spacing" textLength="82" x="249.5" y="1192.4238">email: String,</text><text fill="#000000" font-family="sans-serif" font-size="14" lengthAdjust="spacing" textLength="81" x="249.5" y="1211.0449">taxpayer: int,</text><text fill="#000000" font-family="sans-serif" font-size="14" lengthAdjust="spacing" textLength="112" x="249.5" y="1229.666">IDdoctype: String,</text><text fill="#000000" font-family="sans-serif" font-size="14" lengthAdjust="spacing" textLength="89" x="249.5" y="1248.2871">IDnumber: int)</text></g><!--class OrganizationRepository--><g id="elem_OrganizationRepository"><rect codeLine="57" fill="#F1F1F1" height="141.1055" id="OrganizationRepository" rx="2.5" ry="2.5" style="stroke:#181818;stroke-width:0.5;" width="437" x="421.5" y="624.5"/><ellipse cx="561.75" cy="640.5" fill="#ADD1B2" rx="11" ry="11" style="stroke:#181818;stroke-width:1.0;"/><path d="M564.5156,636.375 Q564.6719,636.1563 564.8594,636.0469 Q565.0469,635.9375 565.2656,635.9375 Q565.6406,635.9375 565.875,636.2031 Q566.1094,636.4531 566.1094,637.0625 L566.1094,638.5156 Q566.1094,639.125 565.875,639.3906 Q565.6406,639.6563 565.2656,639.6563 Q564.9219,639.6563 564.7188,639.4531 Q564.5156,639.2656 564.4063,638.75 Q564.3594,638.3906 564.1719,638.2031 Q563.8438,637.8281 563.2344,637.6094 Q562.625,637.3906 562,637.3906 Q561.2344,637.3906 560.5938,637.7188 Q559.9688,638.0469 559.4688,638.7969 Q558.9844,639.5469 558.9844,640.5781 L558.9844,641.6719 Q558.9844,642.9063 559.875,643.7344 Q560.7656,644.5469 562.3594,644.5469 Q563.2969,644.5469 563.9531,644.2969 Q564.3438,644.1406 564.7656,643.7031 Q565.0313,643.4375 565.1719,643.3594 Q565.3281,643.2813 565.5313,643.2813 Q565.8594,643.2813 566.1094,643.5469 Q566.375,643.7969 566.375,644.1406 Q566.375,644.4844 566.0313,644.8906 Q565.5313,645.4688 564.7344,645.7969 Q563.6563,646.25 562.3594,646.25 Q560.8438,646.25 559.6406,645.625 Q558.6563,645.125 557.9688,644.0625 Q557.2813,642.9844 557.2813,641.7031 L557.2813,640.5469 Q557.2813,639.2188 557.8906,638.0781 Q558.5156,636.9219 559.6094,636.3125 Q560.7031,635.6875 561.9375,635.6875 Q562.6719,635.6875 563.3125,635.8594 Q563.9688,636.0156 564.5156,636.375 Z " fill="#000000"/><text fill="#000000" font-family="sans-serif" font-size="14" lengthAdjust="spacing" textLength="148" x="582.25" y="646.2969">OrganizationRepository</text><line style="stroke:#181818;stroke-width:0.5;" x1="422.5" x2="857.5" y1="656.5" y2="656.5"/><line style="stroke:#181818;stroke-width:0.5;" x1="422.5" x2="857.5" y1="664.5" y2="664.5"/><text fill="#000000" font-family="sans-serif" font-size="14" lengthAdjust="spacing" textLength="375" x="427.5" y="683.6074">+Optional&lt;Organization&gt; getOrganizationByHRM(HRM hrm)</text><text fill="#000000" font-family="sans-serif" font-size="14" lengthAdjust="spacing" textLength="371" x="427.5" y="702.2285">+Optional&lt;Organization&gt; getOrganizationByVFM(VFM vfm)</text><text fill="#000000" font-family="sans-serif" font-size="14" lengthAdjust="spacing" textLength="425" x="427.5" y="720.8496">+Optional&lt;Organization&gt; getOrganizationByHRMEmail(String email)</text><text fill="#000000" font-family="sans-serif" font-size="14" lengthAdjust="spacing" textLength="356" x="427.5" y="739.4707">+Optional&lt;Organization&gt; add(Organization organization)</text><text fill="#000000" font-family="sans-serif" font-size="14" lengthAdjust="spacing" textLength="363" x="427.5" y="758.0918">+boolean validateOrganization(Organization organization)</text></g><!--class Repositories--><g id="elem_Repositories"><rect codeLine="65" fill="#F1F1F1" height="103.8633" id="Repositories" rx="2.5" ry="2.5" style="stroke:#181818;stroke-width:0.5;" width="358" x="849" y="432"/><ellipse cx="984.25" cy="448" fill="#ADD1B2" rx="11" ry="11" style="stroke:#181818;stroke-width:1.0;"/><path d="M987.0156,443.875 Q987.1719,443.6563 987.3594,443.5469 Q987.5469,443.4375 987.7656,443.4375 Q988.1406,443.4375 988.375,443.7031 Q988.6094,443.9531 988.6094,444.5625 L988.6094,446.0156 Q988.6094,446.625 988.375,446.8906 Q988.1406,447.1563 987.7656,447.1563 Q987.4219,447.1563 987.2188,446.9531 Q987.0156,446.7656 986.9063,446.25 Q986.8594,445.8906 986.6719,445.7031 Q986.3438,445.3281 985.7344,445.1094 Q985.125,444.8906 984.5,444.8906 Q983.7344,444.8906 983.0938,445.2188 Q982.4688,445.5469 981.9688,446.2969 Q981.4844,447.0469 981.4844,448.0781 L981.4844,449.1719 Q981.4844,450.4063 982.375,451.2344 Q983.2656,452.0469 984.8594,452.0469 Q985.7969,452.0469 986.4531,451.7969 Q986.8438,451.6406 987.2656,451.2031 Q987.5313,450.9375 987.6719,450.8594 Q987.8281,450.7813 988.0313,450.7813 Q988.3594,450.7813 988.6094,451.0469 Q988.875,451.2969 988.875,451.6406 Q988.875,451.9844 988.5313,452.3906 Q988.0313,452.9688 987.2344,453.2969 Q986.1563,453.75 984.8594,453.75 Q983.3438,453.75 982.1406,453.125 Q981.1563,452.625 980.4688,451.5625 Q979.7813,450.4844 979.7813,449.2031 L979.7813,448.0469 Q979.7813,446.7188 980.3906,445.5781 Q981.0156,444.4219 982.1094,443.8125 Q983.2031,443.1875 984.4375,443.1875 Q985.1719,443.1875 985.8125,443.3594 Q986.4688,443.5156 987.0156,443.875 Z " fill="#000000"/><text fill="#000000" font-family="sans-serif" font-size="14" lengthAdjust="spacing" textLength="79" x="1004.75" y="453.7969">Repositories</text><line style="stroke:#181818;stroke-width:0.5;" x1="850" x2="1206" y1="464" y2="464"/><line style="stroke:#181818;stroke-width:0.5;" x1="850" x2="1206" y1="472" y2="472"/><text fill="#000000" font-family="sans-serif" font-size="14" lengthAdjust="spacing" textLength="182" x="855" y="491.1074">+getInstance() : Repositories</text><text fill="#000000" font-family="sans-serif" font-size="14" lengthAdjust="spacing" textLength="342" x="855" y="509.7285">+getCollaboratorRepository() : CollaboratorRepository</text><text fill="#000000" font-family="sans-serif" font-size="14" lengthAdjust="spacing" textLength="346" x="855" y="528.3496">+getOrganizationRepository() : OrganizationRepository</text></g><!--class RegisterCollaboratorController--><g id="elem_RegisterCollaboratorController"><rect codeLine="71" fill="#F1F1F1" height="345.9375" id="RegisterCollaboratorController" rx="2.5" ry="2.5" style="stroke:#181818;stroke-width:0.5;" width="413" x="1067.5" y="7"/><ellipse cx="1173.25" cy="23" fill="#ADD1B2" rx="11" ry="11" style="stroke:#181818;stroke-width:1.0;"/><path d="M1176.0156,18.875 Q1176.1719,18.6563 1176.3594,18.5469 Q1176.5469,18.4375 1176.7656,18.4375 Q1177.1406,18.4375 1177.375,18.7031 Q1177.6094,18.9531 1177.6094,19.5625 L1177.6094,21.0156 Q1177.6094,21.625 1177.375,21.8906 Q1177.1406,22.1563 1176.7656,22.1563 Q1176.4219,22.1563 1176.2188,21.9531 Q1176.0156,21.7656 1175.9063,21.25 Q1175.8594,20.8906 1175.6719,20.7031 Q1175.3438,20.3281 1174.7344,20.1094 Q1174.125,19.8906 1173.5,19.8906 Q1172.7344,19.8906 1172.0938,20.2188 Q1171.4688,20.5469 1170.9688,21.2969 Q1170.4844,22.0469 1170.4844,23.0781 L1170.4844,24.1719 Q1170.4844,25.4063 1171.375,26.2344 Q1172.2656,27.0469 1173.8594,27.0469 Q1174.7969,27.0469 1175.4531,26.7969 Q1175.8438,26.6406 1176.2656,26.2031 Q1176.5313,25.9375 1176.6719,25.8594 Q1176.8281,25.7813 1177.0313,25.7813 Q1177.3594,25.7813 1177.6094,26.0469 Q1177.875,26.2969 1177.875,26.6406 Q1177.875,26.9844 1177.5313,27.3906 Q1177.0313,27.9688 1176.2344,28.2969 Q1175.1563,28.75 1173.8594,28.75 Q1172.3438,28.75 1171.1406,28.125 Q1170.1563,27.625 1169.4688,26.5625 Q1168.7813,25.4844 1168.7813,24.2031 L1168.7813,23.0469 Q1168.7813,21.7188 1169.3906,20.5781 Q1170.0156,19.4219 1171.1094,18.8125 Q1172.2031,18.1875 1173.4375,18.1875 Q1174.1719,18.1875 1174.8125,18.3594 Q1175.4688,18.5156 1176.0156,18.875 Z " fill="#000000"/><text fill="#000000" font-family="sans-serif" font-size="14" lengthAdjust="spacing" textLength="193" x="1193.75" y="28.7969">RegisterCollaboratorController</text><line style="stroke:#181818;stroke-width:0.5;" x1="1068.5" x2="1479.5" y1="39" y2="39"/><line style="stroke:#181818;stroke-width:0.5;" x1="1068.5" x2="1479.5" y1="47" y2="47"/><text fill="#000000" font-family="sans-serif" font-size="14" lengthAdjust="spacing" textLength="334" x="1073.5" y="66.1074">+CollaboratorRepository getCollaboratorRepository()</text><text fill="#000000" font-family="sans-serif" font-size="14" lengthAdjust="spacing" textLength="338" x="1073.5" y="84.7285">+OrganizationRepository getOrganizationRepository()</text><text fill="#000000" font-family="sans-serif" font-size="14" lengthAdjust="spacing" textLength="358" x="1073.5" y="103.3496">+AuthenticationRepository getAuthenticationRepository()</text><text fill="#000000" font-family="sans-serif" font-size="14" lengthAdjust="spacing" textLength="222" x="1073.5" y="121.9707">+JobRepository getJobRepository()</text><text fill="#000000" font-family="sans-serif" font-size="14" lengthAdjust="spacing" textLength="185" x="1073.5" y="140.5918">+HRM getHRMFromSession()</text><text fill="#000000" font-family="sans-serif" font-size="14" lengthAdjust="spacing" textLength="397" x="1073.5" y="159.2129">+Optional&lt;Collaborator&gt; registerCollaborator(HRManager hrm,</text><text fill="#000000" font-family="sans-serif" font-size="14" lengthAdjust="spacing" textLength="84" x="1073.5" y="177.834">name: String,</text><text fill="#000000" font-family="sans-serif" font-size="14" lengthAdjust="spacing" textLength="105" x="1073.5" y="196.4551">birthdate: String,</text><text fill="#000000" font-family="sans-serif" font-size="14" lengthAdjust="spacing" textLength="140" x="1073.5" y="215.0762">admissiondate: String,</text><text fill="#000000" font-family="sans-serif" font-size="14" lengthAdjust="spacing" textLength="100" x="1073.5" y="233.6973">address: String,</text><text fill="#000000" font-family="sans-serif" font-size="14" lengthAdjust="spacing" textLength="68" x="1073.5" y="252.3184">mobile: int,</text><text fill="#000000" font-family="sans-serif" font-size="14" lengthAdjust="spacing" textLength="82" x="1073.5" y="270.9395">email: String,</text><text fill="#000000" font-family="sans-serif" font-size="14" lengthAdjust="spacing" textLength="133" x="1073.5" y="289.5605">taxpayer number: int,</text><text fill="#000000" font-family="sans-serif" font-size="14" lengthAdjust="spacing" textLength="112" x="1073.5" y="308.1816">IDdoctype: String,</text><text fill="#000000" font-family="sans-serif" font-size="14" lengthAdjust="spacing" textLength="89" x="1073.5" y="326.8027">IDnumber: int)</text><text fill="#000000" font-family="sans-serif" font-size="14" lengthAdjust="spacing" textLength="357" x="1073.5" y="345.4238">+void assignJobToCollaborator(collaboratorID, jobName)</text></g><!--class RegisterCollaboratorUI--><g id="elem_RegisterCollaboratorUI"><rect codeLine="81" fill="#F1F1F1" height="252.832" id="RegisterCollaboratorUI" rx="2.5" ry="2.5" style="stroke:#181818;stroke-width:0.5;" width="375" x="657.5" y="53.5"/><ellipse cx="769.25" cy="69.5" fill="#ADD1B2" rx="11" ry="11" style="stroke:#181818;stroke-width:1.0;"/><path d="M772.0156,65.375 Q772.1719,65.1563 772.3594,65.0469 Q772.5469,64.9375 772.7656,64.9375 Q773.1406,64.9375 773.375,65.2031 Q773.6094,65.4531 773.6094,66.0625 L773.6094,67.5156 Q773.6094,68.125 773.375,68.3906 Q773.1406,68.6563 772.7656,68.6563 Q772.4219,68.6563 772.2188,68.4531 Q772.0156,68.2656 771.9063,67.75 Q771.8594,67.3906 771.6719,67.2031 Q771.3438,66.8281 770.7344,66.6094 Q770.125,66.3906 769.5,66.3906 Q768.7344,66.3906 768.0938,66.7188 Q767.4688,67.0469 766.9688,67.7969 Q766.4844,68.5469 766.4844,69.5781 L766.4844,70.6719 Q766.4844,71.9063 767.375,72.7344 Q768.2656,73.5469 769.8594,73.5469 Q770.7969,73.5469 771.4531,73.2969 Q771.8438,73.1406 772.2656,72.7031 Q772.5313,72.4375 772.6719,72.3594 Q772.8281,72.2813 773.0313,72.2813 Q773.3594,72.2813 773.6094,72.5469 Q773.875,72.7969 773.875,73.1406 Q773.875,73.4844 773.5313,73.8906 Q773.0313,74.4688 772.2344,74.7969 Q771.1563,75.25 769.8594,75.25 Q768.3438,75.25 767.1406,74.625 Q766.1563,74.125 765.4688,73.0625 Q764.7813,71.9844 764.7813,70.7031 L764.7813,69.5469 Q764.7813,68.2188 765.3906,67.0781 Q766.0156,65.9219 767.1094,65.3125 Q768.2031,64.6875 769.4375,64.6875 Q770.1719,64.6875 770.8125,64.8594 Q771.4688,65.0156 772.0156,65.375 Z " fill="#000000"/><text fill="#000000" font-family="sans-serif" font-size="14" lengthAdjust="spacing" textLength="143" x="789.75" y="75.2969">RegisterCollaboratorUI</text><line style="stroke:#181818;stroke-width:0.5;" x1="658.5" x2="1031.5" y1="85.5" y2="85.5"/><line style="stroke:#181818;stroke-width:0.5;" x1="658.5" x2="1031.5" y1="93.5" y2="93.5"/><text fill="#000000" font-family="sans-serif" font-size="14" lengthAdjust="spacing" textLength="221" x="663.5" y="112.6074">+String requestCollaboratorName()</text><text fill="#000000" font-family="sans-serif" font-size="14" lengthAdjust="spacing" textLength="244" x="663.5" y="131.2285">+String requestCollaboratorBirthDate()</text><text fill="#000000" font-family="sans-serif" font-size="14" lengthAdjust="spacing" textLength="279" x="663.5" y="149.8496">+String requestCollaboratorAdmissionDate()</text><text fill="#000000" font-family="sans-serif" font-size="14" lengthAdjust="spacing" textLength="237" x="663.5" y="168.4707">+String requestCollaboratorAddress()</text><text fill="#000000" font-family="sans-serif" font-size="14" lengthAdjust="spacing" textLength="204" x="663.5" y="187.0918">+int requestCollaboratorMobile()</text><text fill="#000000" font-family="sans-serif" font-size="14" lengthAdjust="spacing" textLength="219" x="663.5" y="205.7129">+String requestCollaboratorEmail()</text><text fill="#000000" font-family="sans-serif" font-size="14" lengthAdjust="spacing" textLength="271" x="663.5" y="224.334">+int requestCollaboratorTaxpayerNumber()</text><text fill="#000000" font-family="sans-serif" font-size="14" lengthAdjust="spacing" textLength="242" x="663.5" y="242.9551">+String requestCollaboratorDocType()</text><text fill="#000000" font-family="sans-serif" font-size="14" lengthAdjust="spacing" textLength="225" x="663.5" y="261.5762">+int requestCollaboratorIDNumber()</text><text fill="#000000" font-family="sans-serif" font-size="14" lengthAdjust="spacing" textLength="363" x="663.5" y="280.1973">+void assignJobToCollaborator(Collaborator collaborator)</text><text fill="#000000" font-family="sans-serif" font-size="14" lengthAdjust="spacing" textLength="103" x="663.5" y="298.8184">+Job selectJob()</text></g><!--class HRManager--><g id="elem_HRManager"><rect codeLine="95" fill="#F1F1F1" height="122.4844" id="HRManager" rx="2.5" ry="2.5" style="stroke:#181818;stroke-width:0.5;" width="107" x="462.5" y="1335"/><ellipse cx="477.5" cy="1351" fill="#ADD1B2" rx="11" ry="11" style="stroke:#181818;stroke-width:1.0;"/><path d="M480.2656,1346.875 Q480.4219,1346.6563 480.6094,1346.5469 Q480.7969,1346.4375 481.0156,1346.4375 Q481.3906,1346.4375 481.625,1346.7031 Q481.8594,1346.9531 481.8594,1347.5625 L481.8594,1349.0156 Q481.8594,1349.625 481.625,1349.8906 Q481.3906,1350.1563 481.0156,1350.1563 Q480.6719,1350.1563 480.4688,1349.9531 Q480.2656,1349.7656 480.1563,1349.25 Q480.1094,1348.8906 479.9219,1348.7031 Q479.5938,1348.3281 478.9844,1348.1094 Q478.375,1347.8906 477.75,1347.8906 Q476.9844,1347.8906 476.3438,1348.2188 Q475.7188,1348.5469 475.2188,1349.2969 Q474.7344,1350.0469 474.7344,1351.0781 L474.7344,1352.1719 Q474.7344,1353.4063 475.625,1354.2344 Q476.5156,1355.0469 478.1094,1355.0469 Q479.0469,1355.0469 479.7031,1354.7969 Q480.0938,1354.6406 480.5156,1354.2031 Q480.7813,1353.9375 480.9219,1353.8594 Q481.0781,1353.7813 481.2813,1353.7813 Q481.6094,1353.7813 481.8594,1354.0469 Q482.125,1354.2969 482.125,1354.6406 Q482.125,1354.9844 481.7813,1355.3906 Q481.2813,1355.9688 480.4844,1356.2969 Q479.4063,1356.75 478.1094,1356.75 Q476.5938,1356.75 475.3906,1356.125 Q474.4063,1355.625 473.7188,1354.5625 Q473.0313,1353.4844 473.0313,1352.2031 L473.0313,1351.0469 Q473.0313,1349.7188 473.6406,1348.5781 Q474.2656,1347.4219 475.3594,1346.8125 Q476.4531,1346.1875 477.6875,1346.1875 Q478.4219,1346.1875 479.0625,1346.3594 Q479.7188,1346.5156 480.2656,1346.875 Z " fill="#000000"/><text fill="#000000" font-family="sans-serif" font-size="14" lengthAdjust="spacing" textLength="75" x="491.5" y="1356.7969">HRManager</text><line style="stroke:#181818;stroke-width:0.5;" x1="463.5" x2="568.5" y1="1367" y2="1367"/><text fill="#000000" font-family="sans-serif" font-size="14" lengthAdjust="spacing" textLength="81" x="468.5" y="1386.1074">-String name</text><text fill="#000000" font-family="sans-serif" font-size="14" lengthAdjust="spacing" textLength="92" x="468.5" y="1404.7285">-int vatNumber</text><text fill="#000000" font-family="sans-serif" font-size="14" lengthAdjust="spacing" textLength="79" x="468.5" y="1423.3496">-String email</text><text fill="#000000" font-family="sans-serif" font-size="14" lengthAdjust="spacing" textLength="72" x="468.5" y="1441.9707">-int number</text><line style="stroke:#181818;stroke-width:0.5;" x1="463.5" x2="568.5" y1="1449.4844" y2="1449.4844"/></g><!--class CollaboratorManager--><g id="elem_CollaboratorManager"><rect fill="#F1F1F1" height="48" id="CollaboratorManager" rx="2.5" ry="2.5" style="stroke:#181818;stroke-width:0.5;" width="166" x="593" y="1536"/><ellipse cx="608" cy="1552" fill="#ADD1B2" rx="11" ry="11" style="stroke:#181818;stroke-width:1.0;"/><path d="M610.7656,1547.875 Q610.9219,1547.6563 611.1094,1547.5469 Q611.2969,1547.4375 611.5156,1547.4375 Q611.8906,1547.4375 612.125,1547.7031 Q612.3594,1547.9531 612.3594,1548.5625 L612.3594,1550.0156 Q612.3594,1550.625 612.125,1550.8906 Q611.8906,1551.1563 611.5156,1551.1563 Q611.1719,1551.1563 610.9688,1550.9531 Q610.7656,1550.7656 610.6563,1550.25 Q610.6094,1549.8906 610.4219,1549.7031 Q610.0938,1549.3281 609.4844,1549.1094 Q608.875,1548.8906 608.25,1548.8906 Q607.4844,1548.8906 606.8438,1549.2188 Q606.2188,1549.5469 605.7188,1550.2969 Q605.2344,1551.0469 605.2344,1552.0781 L605.2344,1553.1719 Q605.2344,1554.4063 606.125,1555.2344 Q607.0156,1556.0469 608.6094,1556.0469 Q609.5469,1556.0469 610.2031,1555.7969 Q610.5938,1555.6406 611.0156,1555.2031 Q611.2813,1554.9375 611.4219,1554.8594 Q611.5781,1554.7813 611.7813,1554.7813 Q612.1094,1554.7813 612.3594,1555.0469 Q612.625,1555.2969 612.625,1555.6406 Q612.625,1555.9844 612.2813,1556.3906 Q611.7813,1556.9688 610.9844,1557.2969 Q609.9063,1557.75 608.6094,1557.75 Q607.0938,1557.75 605.8906,1557.125 Q604.9063,1556.625 604.2188,1555.5625 Q603.5313,1554.4844 603.5313,1553.2031 L603.5313,1552.0469 Q603.5313,1550.7188 604.1406,1549.5781 Q604.7656,1548.4219 605.8594,1547.8125 Q606.9531,1547.1875 608.1875,1547.1875 Q608.9219,1547.1875 609.5625,1547.3594 Q610.2188,1547.5156 610.7656,1547.875 Z " fill="#000000"/><text fill="#000000" font-family="sans-serif" font-size="14" lengthAdjust="spacing" textLength="134" x="622" y="1557.7969">CollaboratorManager</text><line style="stroke:#181818;stroke-width:0.5;" x1="594" x2="758" y1="1568" y2="1568"/><line style="stroke:#181818;stroke-width:0.5;" x1="594" x2="758" y1="1576" y2="1576"/></g><g id="elem_GMN15"><path d="M1515.5,157.5 L1515.5,176 L1480.76,180 L1515.5,184 L1515.5,202.082 A0,0 0 0 0 1515.5,202.082 L1834.5,202.082 A0,0 0 0 0 1834.5,202.082 L1834.5,167.5 L1824.5,157.5 L1515.5,157.5 A0,0 0 0 0 1515.5,157.5 " fill="#FEFFDD" style="stroke:#181818;stroke-width:0.5;"/><path d="M1824.5,157.5 L1824.5,167.5 L1834.5,167.5 L1824.5,157.5 " fill="#FEFFDD" style="stroke:#181818;stroke-width:0.5;"/><text fill="#000000" font-family="sans-serif" font-size="13" lengthAdjust="spacing" textLength="298" x="1521.5" y="176.5283">- Collaborator data is obtained from the HRM's input</text><text fill="#000000" font-family="sans-serif" font-size="13" lengthAdjust="spacing" textLength="217" x="1521.5" y="193.8193">- Updates the Collaborator Repository</text></g><g id="elem_GMN18"><path d="M605,1382.5 L605,1409.791 L851,1409.791 L851,1392.5 L841,1382.5 L605,1382.5 " fill="#FEFFDD" style="stroke:#181818;stroke-width:0.5;"/><path d="M841,1382.5 L841,1392.5 L851,1392.5 L841,1382.5 " fill="#FEFFDD" style="stroke:#181818;stroke-width:1.0;"/><text fill="#000000" font-family="sans-serif" font-size="13" lengthAdjust="spacing" textLength="225" x="611" y="1401.5283">- HRM initiates collaborator registration</text></g><g id="elem_GMN21"><path d="M303.5,157.5 L303.5,202.082 A0,0 0 0 0 303.5,202.082 L622.5,202.082 A0,0 0 0 0 622.5,202.082 L622.5,184 L657.03,180 L622.5,176 L622.5,167.5 L612.5,157.5 L303.5,157.5 A0,0 0 0 0 303.5,157.5 " fill="#FEFFDD" style="stroke:#181818;stroke-width:0.5;"/><path d="M612.5,157.5 L612.5,167.5 L622.5,167.5 L612.5,157.5 " fill="#FEFFDD" style="stroke:#181818;stroke-width:0.5;"/><text fill="#000000" font-family="sans-serif" font-size="13" lengthAdjust="spacing" textLength="296" x="309.5" y="176.5283">- UI for HRM to input and confirm collaborator name</text><text fill="#000000" font-family="sans-serif" font-size="13" lengthAdjust="spacing" textLength="298" x="309.5" y="193.8193">- Communicates with RegisterCollaboratorController</text></g><g id="elem_GMN24"><path d="M6,1032.5 L6,1077.082 L208,1077.082 L208,1042.5 L198,1032.5 L6,1032.5 " fill="#FEFFDD" style="stroke:#181818;stroke-width:0.5;"/><path d="M198,1032.5 L198,1042.5 L208,1042.5 L198,1032.5 " fill="#FEFFDD" style="stroke:#181818;stroke-width:1.0;"/><text fill="#000000" font-family="sans-serif" font-size="13" lengthAdjust="spacing" textLength="139" x="12" y="1051.5283">- Manages collaborators</text><text fill="#000000" font-family="sans-serif" font-size="13" lengthAdjust="spacing" textLength="181" x="12" y="1068.8193">- Handles organizational details</text></g><!--class JobRepository--><g id="elem_JobRepository"><rect fill="#F1F1F1" height="48" id="JobRepository" rx="2.5" ry="2.5" style="stroke:#181818;stroke-width:0.5;" width="122" x="1330" y="671"/><ellipse cx="1345" cy="687" fill="#ADD1B2" rx="11" ry="11" style="stroke:#181818;stroke-width:1.0;"/><path d="M1347.7656,682.875 Q1347.9219,682.6563 1348.1094,682.5469 Q1348.2969,682.4375 1348.5156,682.4375 Q1348.8906,682.4375 1349.125,682.7031 Q1349.3594,682.9531 1349.3594,683.5625 L1349.3594,685.0156 Q1349.3594,685.625 1349.125,685.8906 Q1348.8906,686.1563 1348.5156,686.1563 Q1348.1719,686.1563 1347.9688,685.9531 Q1347.7656,685.7656 1347.6563,685.25 Q1347.6094,684.8906 1347.4219,684.7031 Q1347.0938,684.3281 1346.4844,684.1094 Q1345.875,683.8906 1345.25,683.8906 Q1344.4844,683.8906 1343.8438,684.2188 Q1343.2188,684.5469 1342.7188,685.2969 Q1342.2344,686.0469 1342.2344,687.0781 L1342.2344,688.1719 Q1342.2344,689.4063 1343.125,690.2344 Q1344.0156,691.0469 1345.6094,691.0469 Q1346.5469,691.0469 1347.2031,690.7969 Q1347.5938,690.6406 1348.0156,690.2031 Q1348.2813,689.9375 1348.4219,689.8594 Q1348.5781,689.7813 1348.7813,689.7813 Q1349.1094,689.7813 1349.3594,690.0469 Q1349.625,690.2969 1349.625,690.6406 Q1349.625,690.9844 1349.2813,691.3906 Q1348.7813,691.9688 1347.9844,692.2969 Q1346.9063,692.75 1345.6094,692.75 Q1344.0938,692.75 1342.8906,692.125 Q1341.9063,691.625 1341.2188,690.5625 Q1340.5313,689.4844 1340.5313,688.2031 L1340.5313,687.0469 Q1340.5313,685.7188 1341.1406,684.5781 Q1341.7656,683.4219 1342.8594,682.8125 Q1343.9531,682.1875 1345.1875,682.1875 Q1345.9219,682.1875 1346.5625,682.3594 Q1347.2188,682.5156 1347.7656,682.875 Z " fill="#000000"/><text fill="#000000" font-family="sans-serif" font-size="14" lengthAdjust="spacing" textLength="90" x="1359" y="692.7969">JobRepository</text><line style="stroke:#181818;stroke-width:0.5;" x1="1331" x2="1451" y1="703" y2="703"/><line style="stroke:#181818;stroke-width:0.5;" x1="1331" x2="1451" y1="711" y2="711"/></g><!--link CollaboratorManager to Collaborator--><g id="link_CollaboratorManager_Collaborator"><path codeLine="102" d="M656.84,1584.33 C637.27,1608.17 609.3877,1642.123 579.3577,1678.693 " fill="none" id="CollaboratorManager-to-Collaborator" style="stroke:#181818;stroke-width:1.0;"/><polygon fill="#181818" points="575.55,1683.33,584.3529,1678.913,578.7231,1679.4659,578.1703,1673.8361,575.55,1683.33" style="stroke:#181818;stroke-width:1.0;"/><text fill="#000000" font-family="sans-serif" font-size="13" lengthAdjust="spacing" textLength="53" x="629" y="1629.0283">Manages</text></g><!--link HRManager to CollaboratorManager--><g id="link_HRManager_CollaboratorManager"><path codeLine="103" d="M569.72,1451.39 C598.05,1480.07 627.1037,1509.4912 648.7737,1531.4312 " fill="none" id="HRManager-to-CollaboratorManager" style="stroke:#181818;stroke-width:1.0;"/><polygon fill="#181818" points="652.99,1535.7,649.5114,1526.4859,649.4764,1532.1426,643.8197,1532.1076,652.99,1535.7" style="stroke:#181818;stroke-width:1.0;"/><text fill="#000000" font-family="sans-serif" font-size="13" lengthAdjust="spacing" textLength="30" x="621" y="1502.0283">Uses</text></g><!--link HRManager to GMN18--><g id="link_HRManager_GMN18"><path d="M569.56,1396 C579.42,1396 586.67,1396 586.67,1396 C586.67,1396 594.46,1396 604.87,1396 " fill="none" id="HRManager-GMN18" style="stroke:#181818;stroke-width:1.0;stroke-dasharray:7.0,7.0;"/></g><!--link GMN24 to Organization--><g id="link_GMN24_Organization"><path d="M208.22,1055 C216.25,1055 221.33,1055 221.33,1055 C221.33,1055 230.38,1055 243.38,1055 " fill="none" id="GMN24-Organization" style="stroke:#181818;stroke-width:1.0;stroke-dasharray:7.0,7.0;"/></g><!--link Repositories to Repositories--><g id="link_Repositories_Repositories"><path codeLine="124" d="M1207.13,469.55 C1228.24,472.2 1242,477.01 1242,484 C1242,490.99 1234.1933,495.0527 1213.0833,497.7027 " fill="none" id="Repositories-to-Repositories" style="stroke:#181818;stroke-width:1.0;"/><polygon fill="#181818" points="1207.13,498.45,1216.5581,501.2979,1212.0911,497.8272,1215.5617,493.3602,1207.13,498.45" style="stroke:#181818;stroke-width:1.0;"/><text fill="#000000" font-family="sans-serif" font-size="13" lengthAdjust="spacing" textLength="49" x="1248" y="489.5283">instance</text></g><!--link ApplicationSession to ApplicationSession--><g id="link_ApplicationSession_ApplicationSession"><path codeLine="125" d="M1694.66,467.29 C1714.5,468.28 1729.5,473.85 1729.5,484 C1729.5,494.15 1720.4925,499.421 1700.6525,500.411 " fill="none" id="ApplicationSession-to-ApplicationSession" style="stroke:#181818;stroke-width:1.0;"/><polygon fill="#181818" points="1694.66,500.71,1703.8482,504.2565,1699.6538,500.4608,1703.4495,496.2664,1694.66,500.71" style="stroke:#181818;stroke-width:1.0;"/><text fill="#000000" font-family="sans-serif" font-size="13" lengthAdjust="spacing" textLength="49" x="1735.5" y="489.5283">instance</text></g><!--link RegisterCollaboratorUI to RegisterCollaboratorController--><g id="link_RegisterCollaboratorUI_RegisterCollaboratorController"><path codeLine="127" d="M1032.85,180 C1043.83,180 1049.78,180 1061.45,180 " fill="none" id="RegisterCollaboratorUI-to-RegisterCollaboratorController" style="stroke:#181818;stroke-width:1.0;stroke-dasharray:7.0,7.0;"/><polygon fill="#181818" points="1067.45,180,1058.45,176,1062.45,180,1058.45,184,1067.45,180" style="stroke:#181818;stroke-width:1.0;"/></g><!--link RegisterCollaboratorController to Repositories--><g id="link_RegisterCollaboratorController_Repositories"><path codeLine="129" d="M1133.75,353.17 C1110.34,381.92 1091.5704,404.9689 1073.3404,427.3389 " fill="none" id="RegisterCollaboratorController-to-Repositories" style="stroke:#181818;stroke-width:1.0;"/><polygon fill="#181818" points="1069.55,431.99,1078.3363,427.5402,1072.7086,428.114,1072.1348,422.4864,1069.55,431.99" style="stroke:#181818;stroke-width:1.0;"/><text fill="#000000" font-family="sans-serif" font-size="13" lengthAdjust="spacing" textLength="108" x="1109" y="398.0283">retrieves instances</text></g><!--link RegisterCollaboratorController to OrganizationRepository--><g id="link_RegisterCollaboratorController_OrganizationRepository"><path codeLine="132" d="M1067.2,339.79 C1056.47,348.03 1050,353 1050,353 C1050,353 697,432 697,432 C697,432 673.285,540.997 656.405,618.617 " fill="none" id="RegisterCollaboratorController-to-OrganizationRepository" style="stroke:#181818;stroke-width:1.0;stroke-dasharray:7.0,7.0;"/><polygon fill="#181818" points="655.13,624.48,660.9512,616.5356,656.1925,619.5942,653.1339,614.8355,655.13,624.48" style="stroke:#181818;stroke-width:1.0;"/><text fill="#000000" font-family="sans-serif" font-size="13" lengthAdjust="spacing" textLength="132" x="698" y="489.5283">organizationRepository</text></g><!--link RegisterCollaboratorController to JobRepository--><g id="link_RegisterCollaboratorController_JobRepository"><path codeLine="133" d="M1313.28,353.25 C1340.1,470.84 1371.6557,609.1702 1384.3357,664.7602 " fill="none" id="RegisterCollaboratorController-to-JobRepository" style="stroke:#181818;stroke-width:1.0;stroke-dasharray:7.0,7.0;"/><polygon fill="#181818" points="1385.67,670.61,1387.5684,660.9458,1384.5581,665.7352,1379.7687,662.7249,1385.67,670.61" style="stroke:#181818;stroke-width:1.0;"/><text fill="#000000" font-family="sans-serif" font-size="13" lengthAdjust="spacing" textLength="79" x="1355" y="489.5283">jobRepository</text></g><!--link Repositories to OrganizationRepository--><g id="link_Repositories_OrganizationRepository"><path codeLine="135" d="M933.08,536.13 C883.73,562.71 827.952,592.7539 774.372,621.6239 " fill="none" id="Repositories-to-OrganizationRepository" style="stroke:#181818;stroke-width:1.0;"/><polygon fill="#181818" points="769.09,624.47,778.9104,623.7223,773.4917,622.0983,775.1157,616.6795,769.09,624.47" style="stroke:#181818;stroke-width:1.0;"/><text fill="#000000" font-family="sans-serif" font-size="13" lengthAdjust="spacing" textLength="7" x="775.0415" y="613.3579">1</text></g><!--link Repositories to CollaboratorRepository--><g id="link_Repositories_CollaboratorRepository"><path codeLine="136" d="M1044.15,536.13 C1051.63,559.81 1058.872,582.7789 1067.212,609.1689 " fill="none" id="Repositories-to-CollaboratorRepository" style="stroke:#181818;stroke-width:1.0;"/><polygon fill="#181818" points="1069.02,614.89,1070.122,605.103,1067.5133,610.1224,1062.4939,607.5137,1069.02,614.89" style="stroke:#181818;stroke-width:1.0;"/><text fill="#000000" font-family="sans-serif" font-size="13" lengthAdjust="spacing" textLength="7" x="1059.3945" y="603.7756">1</text></g><!--link Repositories to JobRepository--><g id="link_Repositories_JobRepository"><path codeLine="137" d="M1139.43,536.01 C1218.99,572.43 1312,615 1312,615 C1312,615 1340.1774,643.1774 1363.4774,666.4774 " fill="none" id="Repositories-to-JobRepository" style="stroke:#181818;stroke-width:1.0;"/><polygon fill="#181818" points="1367.72,670.72,1364.1845,661.5276,1364.1845,667.1845,1358.5276,667.1845,1367.72,670.72" style="stroke:#181818;stroke-width:1.0;"/><text fill="#000000" font-family="sans-serif" font-size="13" lengthAdjust="spacing" textLength="7" x="1354.1924" y="659.7937">1</text></g><!--link OrganizationRepository to Organization--><g id="link_OrganizationRepository_Organization"><path codeLine="139" d="M602.92,765.88 C589.25,791.62 575.823,816.9303 559.103,848.4303 " fill="none" id="OrganizationRepository-to-Organization" style="stroke:#181818;stroke-width:1.0;"/><polygon fill="#181818" points="556.29,853.73,564.0427,847.6558,558.6342,849.3136,556.9764,843.9051,556.29,853.73" style="stroke:#181818;stroke-width:1.0;"/><text fill="#000000" font-family="sans-serif" font-size="13" lengthAdjust="spacing" textLength="46" x="580" y="820.0283">persists</text><text fill="#000000" font-family="sans-serif" font-size="13" lengthAdjust="spacing" textLength="5" x="555.3443" y="842.5738">*</text></g><!--link ApplicationSession to UserSession--><g id="link_ApplicationSession_UserSession"><path codeLine="140" d="M1609.26,526.54 C1599.97,566.18 1587.5196,619.2584 1578.9996,655.5984 " fill="none" id="ApplicationSession-to-UserSession" style="stroke:#181818;stroke-width:1.0;"/><polygon fill="#181818" points="1577.63,661.44,1583.5788,653.5907,1578.7713,656.572,1575.79,651.7646,1577.63,661.44" style="stroke:#181818;stroke-width:1.0;"/><text fill="#000000" font-family="sans-serif" font-size="13" lengthAdjust="spacing" textLength="72" x="1599" y="581.0283">userSession</text><text fill="#000000" font-family="sans-serif" font-size="13" lengthAdjust="spacing" textLength="7" x="1571.4431" y="650.2537">1</text></g><!--link RegisterCollaboratorController to Organization--><g id="link_RegisterCollaboratorController_Organization"><path codeLine="142" d="M1067.2,339.79 C1056.47,348.03 1050,353 1050,353 C1050,353 825,383 825,383 C825,383 668,432 668,432 C668,432 404,615 404,615 C404,615 404,775 404,775 C404,775 408.6731,803.3701 416.0231,847.9101 " fill="none" id="RegisterCollaboratorController-to-Organization" style="stroke:#181818;stroke-width:1.0;stroke-dasharray:7.0,7.0;"/><polygon fill="#181818" points="417,853.83,419.4813,844.2988,416.1859,848.8967,411.588,845.6014,417,853.83" style="stroke:#181818;stroke-width:1.0;"/><text fill="#000000" font-family="sans-serif" font-size="13" lengthAdjust="spacing" textLength="70" x="476" y="581.0283">organization</text><text fill="#000000" font-family="sans-serif" font-size="13" lengthAdjust="spacing" textLength="7" x="408.5742" y="842.6777">1</text></g><!--link RegisterCollaboratorController to ApplicationSession--><g id="link_RegisterCollaboratorController_ApplicationSession"><path codeLine="143" d="M1480.29,353.19 C1501.81,371.15 1516,383 1516,383 C1516,383 1543.6055,409.8002 1571.9055,437.2802 " fill="none" id="RegisterCollaboratorController-to-ApplicationSession" style="stroke:#181818;stroke-width:1.0;stroke-dasharray:7.0,7.0;"/><polygon fill="#181818" points="1576.21,441.46,1572.5397,432.3206,1572.6229,437.9768,1566.9666,438.06,1576.21,441.46" style="stroke:#181818;stroke-width:1.0;"/></g><!--link RegisterCollaboratorController to UserSession--><g id="link_RegisterCollaboratorController_UserSession"><path codeLine="144" d="M1389.99,353.27 C1419.48,397.07 1443,432 1443,432 C1443,432 1517.5133,585.7106 1551.5533,655.9506 " fill="none" id="RegisterCollaboratorController-to-UserSession" style="stroke:#181818;stroke-width:1.0;stroke-dasharray:7.0,7.0;"/><polygon fill="#181818" points="1554.17,661.35,1553.8446,651.5065,1551.9894,656.8505,1546.6454,654.9954,1554.17,661.35" style="stroke:#181818;stroke-width:1.0;"/></g><!--link Organization to Collaborator--><g id="link_Organization_Collaborator"><path codeLine="145" d="M446.41,1256.17 C445.61,1300.71 445,1335 445,1335 C445,1335 445,1457 445,1457 C445,1457 462.3731,1564.5968 477.2731,1656.8268 " fill="none" id="Organization-to-Collaborator" style="stroke:#181818;stroke-width:1.0;"/><polygon fill="#181818" points="478.23,1662.75,480.7434,1653.2273,477.4326,1657.814,472.8458,1654.5031,478.23,1662.75" style="stroke:#181818;stroke-width:1.0;"/><text fill="#000000" font-family="sans-serif" font-size="13" lengthAdjust="spacing" textLength="30" x="454" y="1502.0283">owns</text><text fill="#000000" font-family="sans-serif" font-size="13" lengthAdjust="spacing" textLength="7" x="439.1552" y="1277.7421">1</text><text fill="#000000" font-family="sans-serif" font-size="13" lengthAdjust="spacing" textLength="5" x="471.8674" y="1651.725">*</text></g><!--link Collaborator to HRManager--><g id="link_Collaborator_HRManager"><path codeLine="146" d="M502.78,1662.7 C506.16,1594.84 509.9822,1518.0426 512.7122,1463.1026 " fill="none" id="Collaborator-to-HRManager" style="stroke:#181818;stroke-width:1.0;"/><polygon fill="#181818" points="513.01,1457.11,508.5683,1465.9004,512.7619,1462.1038,516.5584,1466.2974,513.01,1457.11" style="stroke:#181818;stroke-width:1.0;"/><text fill="#000000" font-family="sans-serif" font-size="13" lengthAdjust="spacing" textLength="59" x="511" y="1565.5283">createdBy</text></g><!--link Organization to HRManager--><g id="link_Organization_HRManager"><path codeLine="148" d="M488.96,1256.14 C494.52,1284.66 498.6937,1306.1005 503.1237,1328.8605 " fill="none" id="Organization-to-HRManager" style="stroke:#181818;stroke-width:1.0;"/><polygon fill="#181818" points="504.27,1334.75,506.4768,1325.1516,503.3147,1329.8421,498.6242,1326.68,504.27,1334.75" style="stroke:#181818;stroke-width:1.0;"/><text fill="#000000" font-family="sans-serif" font-size="13" lengthAdjust="spacing" textLength="49" x="500" y="1301.0283">employs</text><text fill="#000000" font-family="sans-serif" font-size="13" lengthAdjust="spacing" textLength="5" x="497.6247" y="1323.7023">*</text></g><!--SRC=[xHXTRzisy5s_uj2Ns4iT95aoO4OHB8cJrLdS1B6JlUo5bcYRYqHg9ENC7VRVTwGacvJbZmpeW04gqDQwBnxlcmS7wfNnb4YIG2Au26TI91Iqp6W0ArHAmbSofKEzY2b86ch2fx57eMOa4c-CJs52OkMXOiQfNgGKKX4lp4S01pLO8RK8NBum9afTQYtPEDEq7me-P5yf72FHGKmd6hG0oQOp3H4pEZ714MMvu39DOnOI0njIfGmA_Wh0_3a4fH4HmfJgFiVVFAIjTeb3u7Kc9UMwu3EelvTodnMLwmAHoI1k4iBYWZudlnPnJCP24YraGTu1JXBQXI7UYqyBq9X9FOk8hi99b31x6DGY8ucgLA2963DqqhNWceIw2uph0aEDUX2M28zBapzJig0IU9QCgNJP-Zs8H0Z6HnKcn5J93urMmrSMnorb_cq7AzkvndYYgL0CVonoitJWdYdzwKwCBxhmknYhm0fxI8q7IVp9vRqmPxGyquREHpjdzV36gyxtrQBVQw7AU8Fy0WMFrS4_giAfMWNfM8YO4Wvp4ZFZ6vTefsvpmIB8qltvHkBPKdkn-22dXBElDiXBA-R-iI7c0UP4Vx4tzQ1517cmT2QupslZ9YYT-xwB_XlhV1lF6OhIUHl2Ij8f4b7fQVlvQK0urZu9CvbyXD-ucxxcUort3N2PkEi8BsaDACzOcqFcqvhRnPUvkQJezp0XtNpCWKukkZN83PDAsZcMSAcixLp0rGAjO2nXRD1-5-FBxQ25Vs4-UISZdfRNKpSAjuemLS7B2U5yv9pLh7N9j_6kacvfGKPLddI7VYE1haUpfAYlVfQ-7hNah7UWvQn7kKNYgIQcJM-G-4rbUOCDfNcBsaKYrSVM5gLplijCpx355XtQvzo4AtcnH_WC7g2aCi6AEFpl5YSQfvV_V_FVRRPxbu5bky5WO5EEjXe9xtvk0UxtFfhc-mLlsDuLHC_zOg0vBFk4f7zaL7aHOoGLizKsiYjZmXvQQW_QozAoUzDRWoyfJVEe8HjO9-mXRpdaRPCsAboMzzmzfFP4E49FxfBRxrKaRdNjzaQRfn8e6kFiZB_yGNSLzkNOMXaj46AKz0QBcfcX8EC5ZJd0CtjnIATpuS6xa6EmVguqgH8LyAwPoXKAvaBJuaKW9ZigNpxXU1R2L2N058Yn9lWeYM22bGEm61aL3XJU8yrqpfTFOyeYFHbk4QOyiYgjQRQyKIxCb2h6cMPMfEkdeY99MmdN1Tf7q8QRFlSBJVimGK7c37mksIi0GJdu39WmcVZ7hSR6Qv4a6JSr65LwOtgsqvoRb7CRGIwxyAntT363VaRLOaIvtPV4457qIAoyGxn6Z87XVPlgbpVaeEOfQCXhe0vJiAda7LtiCaImg-Lsy9tCrnMM53E7pgbQQe4XlLFO4IgqeGbtFIkwWRc7JB_9sYUP8w5gVRpDXvCF6wUHMk9DGqyjyLtb-0rNjkJV-OgWyYcL2Y-iwcEXEC9vsIDBvhppzp9OzVuLy-ybesvfiGURjvFmT31AbJRnoXGgzyQLNuejvQhOTY6K5DC_kgeQV2dI9QP96ek5gS8_OP9cIHnym_tHVbkYPXVKx8AQNL2p2sfsGSqkgDa5DRkWPXVKx8AQNL2p2sfsGSqkgDa5DRkWPXVqt-s27cF2zVFW7kR6_iXtSdHwV7fsz7rhDClWbexXv1nEVkoU7NUFp-7Ncn4OT3je_Vnu3qfaCgGGcV9djZns3ByZSm9F6Gw7PWHxI2c_w_rI0k26pvaKFC7XCRXx6Qm8VZZhN34DGofH4tWP13qw8LciaICK4ROh7C7JazFpq-2Uy6c6DyAOqS6rGC5oqON7qJy0]--></g></svg>