<?xml version="1.0" encoding="us-ascii" standalone="no"?><svg xmlns="http://www.w3.org/2000/svg" xmlns:xlink="http://www.w3.org/1999/xlink" contentStyleType="text/css" height="1843px" preserveAspectRatio="none" style="width:2857px;height:1843px;background:#FFFFFF;" version="1.1" viewBox="0 0 2857 1843" width="2857px" zoomAndPan="magnify"><defs/><g><rect fill="#FFFFFF" height="1648.832" style="stroke:#181818;stroke-width:1.0;" width="10" x="91" y="93.6211"/><rect fill="#FFFFFF" height="1625.541" style="stroke:#181818;stroke-width:1.0;" width="10" x="557" y="116.9121"/><rect fill="#FFFFFF" height="156.4551" style="stroke:#181818;stroke-width:1.0;" width="10" x="968" y="191.8242"/><rect fill="#FFFFFF" height="93.873" style="stroke:#181818;stroke-width:1.0;" width="10" x="968" y="459.4434"/><rect fill="#FFFFFF" height="1046.6816" style="stroke:#181818;stroke-width:1.0;" width="10" x="968" y="664.4805"/><rect fill="#FFFFFF" height="513.6563" style="stroke:#181818;stroke-width:1.0;" width="10" x="973" y="728.7715"/><rect fill="#FFFFFF" height="31.291" style="stroke:#181818;stroke-width:1.0;" width="10" x="1282.5" y="1492.125"/><rect fill="#FFFFFF" height="31.291" style="stroke:#181818;stroke-width:1.0;" width="10" x="1428.5" y="490.7344"/><rect fill="#FFFFFF" height="31.291" style="stroke:#181818;stroke-width:1.0;" width="10" x="1428.5" y="1554.707"/><rect fill="#FFFFFF" height="31.291" style="stroke:#181818;stroke-width:1.0;" width="10" x="1541" y="223.1152"/><rect fill="#FFFFFF" height="31.291" style="stroke:#181818;stroke-width:1.0;" width="10" x="1541" y="316.9883"/><rect fill="#FFFFFF" height="31.291" style="stroke:#181818;stroke-width:1.0;" width="10" x="1541" y="952.8086"/><rect fill="#FFFFFF" height="31.291" style="stroke:#181818;stroke-width:1.0;" width="10" x="1668" y="765.0625"/><rect fill="#FFFFFF" height="31.291" style="stroke:#181818;stroke-width:1.0;" width="10" x="1815" y="827.6445"/><rect fill="#FFFFFF" height="31.291" style="stroke:#181818;stroke-width:1.0;" width="10" x="1948" y="890.2266"/><rect fill="#FFFFFF" height="127.1641" style="stroke:#181818;stroke-width:1.0;" width="10" x="2094" y="1015.3906"/><rect fill="#FFFFFF" height="31.291" style="stroke:#181818;stroke-width:1.0;" width="10" x="2286" y="1072.9727"/><rect fill="#FFFFFF" height="31.291" style="stroke:#181818;stroke-width:1.0;" width="10" x="2286" y="1173.8457"/><rect fill="#FFFFFF" height="356.8613" style="stroke:#181818;stroke-width:1.0;" width="10" x="2286" y="1323.0098"/><rect fill="none" height="81.873" style="stroke:#000000;stroke-width:1.5;" width="342.5" x="2007.5" y="1030.3906"/><line style="stroke:#181818;stroke-width:0.5;stroke-dasharray:5.0,5.0;" x1="96" x2="96" y1="83.6211" y2="1760.4531"/><line style="stroke:#181818;stroke-width:0.5;stroke-dasharray:5.0,5.0;" x1="561.5" x2="561.5" y1="83.6211" y2="1760.4531"/><line style="stroke:#181818;stroke-width:0.5;stroke-dasharray:5.0,5.0;" x1="972.5" x2="972.5" y1="156.7227" y2="1760.4531"/><line style="stroke:#181818;stroke-width:0.5;stroke-dasharray:5.0,5.0;" x1="1146.5" x2="1146.5" y1="83.6211" y2="1760.4531"/><line style="stroke:#181818;stroke-width:0.5;stroke-dasharray:5.0,5.0;" x1="1287.5" x2="1287.5" y1="83.6211" y2="1760.4531"/><line style="stroke:#181818;stroke-width:0.5;stroke-dasharray:5.0,5.0;" x1="1433.5" x2="1433.5" y1="83.6211" y2="1760.4531"/><line style="stroke:#181818;stroke-width:0.5;stroke-dasharray:5.0,5.0;" x1="1545.5" x2="1545.5" y1="83.6211" y2="1760.4531"/><line style="stroke:#181818;stroke-width:0.5;stroke-dasharray:5.0,5.0;" x1="1672.5" x2="1672.5" y1="83.6211" y2="1760.4531"/><line style="stroke:#181818;stroke-width:0.5;stroke-dasharray:5.0,5.0;" x1="1819.5" x2="1819.5" y1="83.6211" y2="1760.4531"/><line style="stroke:#181818;stroke-width:0.5;stroke-dasharray:5.0,5.0;" x1="1952.5" x2="1952.5" y1="83.6211" y2="1760.4531"/><line style="stroke:#181818;stroke-width:0.5;stroke-dasharray:5.0,5.0;" x1="2098.5" x2="2098.5" y1="83.6211" y2="1760.4531"/><line style="stroke:#181818;stroke-width:0.5;stroke-dasharray:5.0,5.0;" x1="2291" x2="2291" y1="83.6211" y2="1760.4531"/><line style="stroke:#181818;stroke-width:0.5;stroke-dasharray:5.0,5.0;" x1="2803" x2="2803" y1="1372.1309" y2="1760.4531"/><text fill="#000000" font-family="sans-serif" font-size="14" lengthAdjust="spacing" textLength="176" x="5" y="80.1074">Human Resources Manager</text><ellipse cx="96" cy="13.5" fill="#E3E3E3" rx="8" ry="8" style="stroke:#181818;stroke-width:0.5;"/><path d="M96,21.5 L96,48.5 M83,29.5 L109,29.5 M96,48.5 L83,63.5 M96,48.5 L109,63.5 " fill="none" style="stroke:#181818;stroke-width:0.5;"/><text fill="#000000" font-family="sans-serif" font-size="14" lengthAdjust="spacing" textLength="176" x="5" y="1774.5605">Human Resources Manager</text><ellipse cx="96" cy="1786.5742" fill="#E3E3E3" rx="8" ry="8" style="stroke:#181818;stroke-width:0.5;"/><path d="M96,1794.5742 L96,1821.5742 M83,1802.5742 L109,1802.5742 M96,1821.5742 L83,1836.5742 M96,1821.5742 L109,1836.5742 " fill="none" style="stroke:#181818;stroke-width:0.5;"/><rect fill="#E3E3E3" height="32.6211" rx="2.5" ry="2.5" style="stroke:#181818;stroke-width:0.5;" width="161" x="481.5" y="50"/><text fill="#000000" font-family="sans-serif" font-size="14" lengthAdjust="spacing" textLength="147" x="488.5" y="72.1074">:RegisterCollaboratorUI</text><rect fill="#E3E3E3" height="32.6211" rx="2.5" ry="2.5" style="stroke:#181818;stroke-width:0.5;" width="161" x="481.5" y="1759.4531"/><text fill="#000000" font-family="sans-serif" font-size="14" lengthAdjust="spacing" textLength="147" x="488.5" y="1781.5605">:RegisterCollaboratorUI</text><rect fill="#E3E3E3" height="32.6211" rx="2.5" ry="2.5" style="stroke:#181818;stroke-width:0.5;" width="211" x="867.5" y="1759.4531"/><text fill="#000000" font-family="sans-serif" font-size="14" lengthAdjust="spacing" textLength="197" x="874.5" y="1781.5605">:RegisterCollaboratorController</text><rect fill="#E3E3E3" height="32.6211" rx="2.5" ry="2.5" style="stroke:#181818;stroke-width:0.5;" width="97" x="1098.5" y="50"/><text fill="#000000" font-family="sans-serif" font-size="14" lengthAdjust="spacing" textLength="83" x="1105.5" y="72.1074">:Repositories</text><rect fill="#E3E3E3" height="32.6211" rx="2.5" ry="2.5" style="stroke:#181818;stroke-width:0.5;" width="97" x="1098.5" y="1759.4531"/><text fill="#000000" font-family="sans-serif" font-size="14" lengthAdjust="spacing" textLength="83" x="1105.5" y="1781.5605">:Repositories</text><rect fill="#E3E3E3" height="51.2422" rx="2.5" ry="2.5" style="stroke:#181818;stroke-width:0.5;" width="164" x="1205.5" y="31.3789"/><text fill="#000000" font-family="sans-serif" font-size="14" lengthAdjust="spacing" textLength="142" x="1216.5" y="53.4863">:collaboratorrepository</text><text fill="#000000" font-family="sans-serif" font-size="14" lengthAdjust="spacing" textLength="150" x="1212.5" y="72.1074">:CollaboratorRepository</text><rect fill="#E3E3E3" height="51.2422" rx="2.5" ry="2.5" style="stroke:#181818;stroke-width:0.5;" width="164" x="1205.5" y="1759.4531"/><text fill="#000000" font-family="sans-serif" font-size="14" lengthAdjust="spacing" textLength="142" x="1216.5" y="1781.5605">:collaboratorrepository</text><text fill="#000000" font-family="sans-serif" font-size="14" lengthAdjust="spacing" textLength="150" x="1212.5" y="1800.1816">:CollaboratorRepository</text><rect fill="#E3E3E3" height="51.2422" rx="2.5" ry="2.5" style="stroke:#181818;stroke-width:0.5;" width="108" x="1379.5" y="31.3789"/><text fill="#000000" font-family="sans-serif" font-size="14" lengthAdjust="spacing" textLength="82" x="1392.5" y="53.4863">jobrepository</text><text fill="#000000" font-family="sans-serif" font-size="14" lengthAdjust="spacing" textLength="94" x="1386.5" y="72.1074">:JobRepository</text><rect fill="#E3E3E3" height="51.2422" rx="2.5" ry="2.5" style="stroke:#181818;stroke-width:0.5;" width="108" x="1379.5" y="1759.4531"/><text fill="#000000" font-family="sans-serif" font-size="14" lengthAdjust="spacing" textLength="82" x="1392.5" y="1781.5605">jobrepository</text><text fill="#000000" font-family="sans-serif" font-size="14" lengthAdjust="spacing" textLength="94" x="1386.5" y="1800.1816">:JobRepository</text><rect fill="#E3E3E3" height="51.2422" rx="2.5" ry="2.5" style="stroke:#181818;stroke-width:0.5;" width="97" x="1497.5" y="31.3789"/><text fill="#000000" font-family="sans-serif" font-size="14" lengthAdjust="spacing" textLength="74" x="1509" y="53.4863">repositories</text><text fill="#000000" font-family="sans-serif" font-size="14" lengthAdjust="spacing" textLength="83" x="1504.5" y="72.1074">:Repositories</text><rect fill="#E3E3E3" height="51.2422" rx="2.5" ry="2.5" style="stroke:#181818;stroke-width:0.5;" width="97" x="1497.5" y="1759.4531"/><text fill="#000000" font-family="sans-serif" font-size="14" lengthAdjust="spacing" textLength="74" x="1509" y="1781.5605">repositories</text><text fill="#000000" font-family="sans-serif" font-size="14" lengthAdjust="spacing" textLength="83" x="1504.5" y="1800.1816">:Repositories</text><rect fill="#E3E3E3" height="32.6211" rx="2.5" ry="2.5" style="stroke:#181818;stroke-width:0.5;" width="137" x="1604.5" y="50"/><text fill="#000000" font-family="sans-serif" font-size="14" lengthAdjust="spacing" textLength="123" x="1611.5" y="72.1074">:ApplicationSession</text><rect fill="#E3E3E3" height="32.6211" rx="2.5" ry="2.5" style="stroke:#181818;stroke-width:0.5;" width="137" x="1604.5" y="1759.4531"/><text fill="#000000" font-family="sans-serif" font-size="14" lengthAdjust="spacing" textLength="123" x="1611.5" y="1781.5605">:ApplicationSession</text><rect fill="#E3E3E3" height="51.2422" rx="2.5" ry="2.5" style="stroke:#181818;stroke-width:0.5;" width="137" x="1751.5" y="31.3789"/><text fill="#000000" font-family="sans-serif" font-size="14" lengthAdjust="spacing" textLength="74" x="1783" y="53.4863">appSession</text><text fill="#000000" font-family="sans-serif" font-size="14" lengthAdjust="spacing" textLength="123" x="1758.5" y="72.1074">:ApplicationSession</text><rect fill="#E3E3E3" height="51.2422" rx="2.5" ry="2.5" style="stroke:#181818;stroke-width:0.5;" width="137" x="1751.5" y="1759.4531"/><text fill="#000000" font-family="sans-serif" font-size="14" lengthAdjust="spacing" textLength="74" x="1783" y="1781.5605">appSession</text><text fill="#000000" font-family="sans-serif" font-size="14" lengthAdjust="spacing" textLength="123" x="1758.5" y="1800.1816">:ApplicationSession</text><rect fill="#E3E3E3" height="51.2422" rx="2.5" ry="2.5" style="stroke:#181818;stroke-width:0.5;" width="109" x="1898.5" y="31.3789"/><text fill="#000000" font-family="sans-serif" font-size="14" lengthAdjust="spacing" textLength="95" x="1905.5" y="53.4863">currentSession</text><text fill="#000000" font-family="sans-serif" font-size="14" lengthAdjust="spacing" textLength="83" x="1911.5" y="72.1074">:UserSession</text><rect fill="#E3E3E3" height="51.2422" rx="2.5" ry="2.5" style="stroke:#181818;stroke-width:0.5;" width="109" x="1898.5" y="1759.4531"/><text fill="#000000" font-family="sans-serif" font-size="14" lengthAdjust="spacing" textLength="95" x="1905.5" y="1781.5605">currentSession</text><text fill="#000000" font-family="sans-serif" font-size="14" lengthAdjust="spacing" textLength="83" x="1911.5" y="1800.1816">:UserSession</text><rect fill="#E3E3E3" height="51.2422" rx="2.5" ry="2.5" style="stroke:#181818;stroke-width:0.5;" width="163" x="2017.5" y="31.3789"/><text fill="#000000" font-family="sans-serif" font-size="14" lengthAdjust="spacing" textLength="149" x="2024.5" y="53.4863">organizationRepository:</text><text fill="#000000" font-family="sans-serif" font-size="14" lengthAdjust="spacing" textLength="148" x="2025" y="72.1074">OrganizationRepository</text><rect fill="#E3E3E3" height="51.2422" rx="2.5" ry="2.5" style="stroke:#181818;stroke-width:0.5;" width="163" x="2017.5" y="1759.4531"/><text fill="#000000" font-family="sans-serif" font-size="14" lengthAdjust="spacing" textLength="149" x="2024.5" y="1781.5605">organizationRepository:</text><text fill="#000000" font-family="sans-serif" font-size="14" lengthAdjust="spacing" textLength="148" x="2025" y="1800.1816">OrganizationRepository</text><rect fill="#E3E3E3" height="51.2422" rx="2.5" ry="2.5" style="stroke:#181818;stroke-width:0.5;" width="98" x="2242" y="31.3789"/><text fill="#000000" font-family="sans-serif" font-size="14" lengthAdjust="spacing" textLength="77" x="2252.5" y="53.4863">organization</text><text fill="#000000" font-family="sans-serif" font-size="14" lengthAdjust="spacing" textLength="84" x="2249" y="72.1074">:Organization</text><rect fill="#E3E3E3" height="51.2422" rx="2.5" ry="2.5" style="stroke:#181818;stroke-width:0.5;" width="98" x="2242" y="1759.4531"/><text fill="#000000" font-family="sans-serif" font-size="14" lengthAdjust="spacing" textLength="77" x="2252.5" y="1781.5605">organization</text><text fill="#000000" font-family="sans-serif" font-size="14" lengthAdjust="spacing" textLength="84" x="2249" y="1800.1816">:Organization</text><rect fill="#E3E3E3" height="51.2422" rx="2.5" ry="2.5" style="stroke:#181818;stroke-width:0.5;" width="96" x="2755" y="1759.4531"/><text fill="#000000" font-family="sans-serif" font-size="14" lengthAdjust="spacing" textLength="75" x="2765.5" y="1781.5605">collaborator</text><text fill="#000000" font-family="sans-serif" font-size="14" lengthAdjust="spacing" textLength="82" x="2762" y="1800.1816">:Collaborator</text><rect fill="#FFFFFF" height="1648.832" style="stroke:#181818;stroke-width:1.0;" width="10" x="91" y="93.6211"/><rect fill="#FFFFFF" height="1625.541" style="stroke:#181818;stroke-width:1.0;" width="10" x="557" y="116.9121"/><rect fill="#FFFFFF" height="156.4551" style="stroke:#181818;stroke-width:1.0;" width="10" x="968" y="191.8242"/><rect fill="#FFFFFF" height="93.873" style="stroke:#181818;stroke-width:1.0;" width="10" x="968" y="459.4434"/><rect fill="#FFFFFF" height="1046.6816" style="stroke:#181818;stroke-width:1.0;" width="10" x="968" y="664.4805"/><rect fill="#FFFFFF" height="513.6563" style="stroke:#181818;stroke-width:1.0;" width="10" x="973" y="728.7715"/><rect fill="#FFFFFF" height="31.291" style="stroke:#181818;stroke-width:1.0;" width="10" x="1282.5" y="1492.125"/><rect fill="#FFFFFF" height="31.291" style="stroke:#181818;stroke-width:1.0;" width="10" x="1428.5" y="490.7344"/><rect fill="#FFFFFF" height="31.291" style="stroke:#181818;stroke-width:1.0;" width="10" x="1428.5" y="1554.707"/><rect fill="#FFFFFF" height="31.291" style="stroke:#181818;stroke-width:1.0;" width="10" x="1541" y="223.1152"/><rect fill="#FFFFFF" height="31.291" style="stroke:#181818;stroke-width:1.0;" width="10" x="1541" y="316.9883"/><rect fill="#FFFFFF" height="31.291" style="stroke:#181818;stroke-width:1.0;" width="10" x="1541" y="952.8086"/><rect fill="#FFFFFF" height="31.291" style="stroke:#181818;stroke-width:1.0;" width="10" x="1668" y="765.0625"/><rect fill="#FFFFFF" height="31.291" style="stroke:#181818;stroke-width:1.0;" width="10" x="1815" y="827.6445"/><rect fill="#FFFFFF" height="31.291" style="stroke:#181818;stroke-width:1.0;" width="10" x="1948" y="890.2266"/><rect fill="#FFFFFF" height="127.1641" style="stroke:#181818;stroke-width:1.0;" width="10" x="2094" y="1015.3906"/><rect fill="#FFFFFF" height="31.291" style="stroke:#181818;stroke-width:1.0;" width="10" x="2286" y="1072.9727"/><rect fill="#FFFFFF" height="31.291" style="stroke:#181818;stroke-width:1.0;" width="10" x="2286" y="1173.8457"/><rect fill="#FFFFFF" height="356.8613" style="stroke:#181818;stroke-width:1.0;" width="10" x="2286" y="1323.0098"/><polygon fill="#181818" points="545,112.9121,555,116.9121,545,120.9121,549,116.9121" style="stroke:#181818;stroke-width:1.0;"/><line style="stroke:#181818;stroke-width:1.0;" x1="101" x2="551" y1="116.9121" y2="116.9121"/><text fill="#000000" font-family="sans-serif" font-size="13" font-weight="bold" lengthAdjust="spacing" textLength="7" x="108" y="111.6494">1</text><text fill="#000000" font-family="sans-serif" font-size="13" lengthAdjust="spacing" textLength="172" x="119" y="111.6494">asks to register a collaborator</text><polygon fill="#181818" points="855.5,144.2031,865.5,148.2031,855.5,152.2031,859.5,148.2031" style="stroke:#181818;stroke-width:1.0;"/><line style="stroke:#181818;stroke-width:1.0;" x1="567" x2="861.5" y1="148.2031" y2="148.2031"/><text fill="#000000" font-family="sans-serif" font-size="13" font-weight="bold" lengthAdjust="spacing" textLength="7" x="574" y="142.9404">2</text><text fill="#000000" font-family="sans-serif" font-size="13" lengthAdjust="spacing" textLength="36" x="585" y="142.9404">create</text><rect fill="#E3E3E3" height="32.6211" rx="2.5" ry="2.5" style="stroke:#181818;stroke-width:0.5;" width="211" x="867.5" y="124.9121"/><text fill="#000000" font-family="sans-serif" font-size="14" lengthAdjust="spacing" textLength="197" x="874.5" y="147.0195">:RegisterCollaboratorController</text><polygon fill="#181818" points="956,187.8242,966,191.8242,956,195.8242,960,191.8242" style="stroke:#181818;stroke-width:1.0;"/><line style="stroke:#181818;stroke-width:1.0;" x1="567" x2="962" y1="191.8242" y2="191.8242"/><text fill="#000000" font-family="sans-serif" font-size="13" font-weight="bold" lengthAdjust="spacing" textLength="7" x="574" y="186.5615">3</text><text fill="#000000" font-family="sans-serif" font-size="13" lengthAdjust="spacing" textLength="157" x="585" y="186.5615">getCollaboratorRepository()</text><polygon fill="#181818" points="1529,219.1152,1539,223.1152,1529,227.1152,1533,223.1152" style="stroke:#181818;stroke-width:1.0;"/><line style="stroke:#181818;stroke-width:1.0;" x1="978" x2="1535" y1="223.1152" y2="223.1152"/><text fill="#000000" font-family="sans-serif" font-size="13" font-weight="bold" lengthAdjust="spacing" textLength="7" x="985" y="217.8525">4</text><text fill="#000000" font-family="sans-serif" font-size="13" lengthAdjust="spacing" textLength="157" x="996" y="217.8525">getCollaboratorRepository()</text><polygon fill="#181818" points="989,250.4063,979,254.4063,989,258.4063,985,254.4063" style="stroke:#181818;stroke-width:1.0;"/><line style="stroke:#181818;stroke-width:1.0;stroke-dasharray:2.0,2.0;" x1="983" x2="1545" y1="254.4063" y2="254.4063"/><text fill="#000000" font-family="sans-serif" font-size="13" font-weight="bold" lengthAdjust="spacing" textLength="7" x="995" y="249.1436">5</text><text fill="#000000" font-family="sans-serif" font-size="13" lengthAdjust="spacing" textLength="124" x="1006" y="249.1436">collaboratorrepository</text><polygon fill="#181818" points="956,281.6973,966,285.6973,956,289.6973,960,285.6973" style="stroke:#181818;stroke-width:1.0;"/><line style="stroke:#181818;stroke-width:1.0;" x1="567" x2="962" y1="285.6973" y2="285.6973"/><text fill="#000000" font-family="sans-serif" font-size="13" font-weight="bold" lengthAdjust="spacing" textLength="7" x="574" y="280.4346">6</text><text fill="#000000" font-family="sans-serif" font-size="13" lengthAdjust="spacing" textLength="108" x="585" y="280.4346">getJobRepository()</text><polygon fill="#181818" points="1529,312.9883,1539,316.9883,1529,320.9883,1533,316.9883" style="stroke:#181818;stroke-width:1.0;"/><line style="stroke:#181818;stroke-width:1.0;" x1="978" x2="1535" y1="316.9883" y2="316.9883"/><text fill="#000000" font-family="sans-serif" font-size="13" font-weight="bold" lengthAdjust="spacing" textLength="7" x="985" y="311.7256">7</text><text fill="#000000" font-family="sans-serif" font-size="13" lengthAdjust="spacing" textLength="108" x="996" y="311.7256">getJobRepository()</text><polygon fill="#181818" points="984,344.2793,974,348.2793,984,352.2793,980,348.2793" style="stroke:#181818;stroke-width:1.0;"/><line style="stroke:#181818;stroke-width:1.0;stroke-dasharray:2.0,2.0;" x1="978" x2="1545" y1="348.2793" y2="348.2793"/><text fill="#000000" font-family="sans-serif" font-size="13" font-weight="bold" lengthAdjust="spacing" textLength="7" x="990" y="343.0166">8</text><text fill="#000000" font-family="sans-serif" font-size="13" lengthAdjust="spacing" textLength="74" x="1001" y="343.0166">jobrepository</text><polygon fill="#181818" points="112,392.8613,102,396.8613,112,400.8613,108,396.8613" style="stroke:#181818;stroke-width:1.0;"/><line style="stroke:#181818;stroke-width:1.0;" x1="106" x2="556" y1="396.8613" y2="396.8613"/><text fill="#000000" font-family="sans-serif" font-size="13" font-weight="bold" lengthAdjust="spacing" textLength="7" x="118" y="382.9531">9</text><text fill="#000000" font-family="sans-serif" font-size="13" lengthAdjust="spacing" textLength="331" x="129" y="374.3076">requests data (name, birthdate, admission date, address,</text><text fill="#000000" font-family="sans-serif" font-size="13" lengthAdjust="spacing" textLength="421" x="129" y="391.5986">mobile contact, email contact, taxpayer number, ID doc type, ID number)</text><polygon fill="#181818" points="545,424.1523,555,428.1523,545,432.1523,549,428.1523" style="stroke:#181818;stroke-width:1.0;"/><line style="stroke:#181818;stroke-width:1.0;" x1="101" x2="551" y1="428.1523" y2="428.1523"/><text fill="#000000" font-family="sans-serif" font-size="13" font-weight="bold" lengthAdjust="spacing" textLength="14" x="108" y="422.8896">10</text><text fill="#000000" font-family="sans-serif" font-size="13" lengthAdjust="spacing" textLength="122" x="126" y="422.8896">types requested data</text><polygon fill="#181818" points="956,455.4434,966,459.4434,956,463.4434,960,459.4434" style="stroke:#181818;stroke-width:1.0;"/><line style="stroke:#181818;stroke-width:1.0;" x1="567" x2="962" y1="459.4434" y2="459.4434"/><text fill="#000000" font-family="sans-serif" font-size="13" font-weight="bold" lengthAdjust="spacing" textLength="14" x="574" y="454.1807">11</text><text fill="#000000" font-family="sans-serif" font-size="13" lengthAdjust="spacing" textLength="53" x="592" y="454.1807">getJobs()</text><polygon fill="#181818" points="1416.5,486.7344,1426.5,490.7344,1416.5,494.7344,1420.5,490.7344" style="stroke:#181818;stroke-width:1.0;"/><line style="stroke:#181818;stroke-width:1.0;" x1="978" x2="1422.5" y1="490.7344" y2="490.7344"/><text fill="#000000" font-family="sans-serif" font-size="13" font-weight="bold" lengthAdjust="spacing" textLength="14" x="985" y="485.4717">12</text><text fill="#000000" font-family="sans-serif" font-size="13" lengthAdjust="spacing" textLength="53" x="1003" y="485.4717">getJobs()</text><polygon fill="#181818" points="989,518.0254,979,522.0254,989,526.0254,985,522.0254" style="stroke:#181818;stroke-width:1.0;"/><line style="stroke:#181818;stroke-width:1.0;stroke-dasharray:2.0,2.0;" x1="983" x2="1432.5" y1="522.0254" y2="522.0254"/><text fill="#000000" font-family="sans-serif" font-size="13" font-weight="bold" lengthAdjust="spacing" textLength="14" x="995" y="516.7627">13</text><text fill="#000000" font-family="sans-serif" font-size="13" lengthAdjust="spacing" textLength="64" x="1013" y="516.7627">List&lt;Jobs&gt;</text><polygon fill="#181818" points="578,549.3164,568,553.3164,578,557.3164,574,553.3164" style="stroke:#181818;stroke-width:1.0;"/><line style="stroke:#181818;stroke-width:1.0;stroke-dasharray:2.0,2.0;" x1="572" x2="972" y1="553.3164" y2="553.3164"/><text fill="#000000" font-family="sans-serif" font-size="13" font-weight="bold" lengthAdjust="spacing" textLength="14" x="584" y="548.0537">14</text><text fill="#000000" font-family="sans-serif" font-size="13" lengthAdjust="spacing" textLength="64" x="602" y="548.0537">List&lt;Jobs&gt;</text><polygon fill="#181818" points="112,580.6074,102,584.6074,112,588.6074,108,584.6074" style="stroke:#181818;stroke-width:1.0;"/><line style="stroke:#181818;stroke-width:1.0;" x1="106" x2="556" y1="584.6074" y2="584.6074"/><text fill="#000000" font-family="sans-serif" font-size="13" font-weight="bold" lengthAdjust="spacing" textLength="14" x="118" y="579.3447">15</text><text fill="#000000" font-family="sans-serif" font-size="13" lengthAdjust="spacing" textLength="215" x="136" y="579.3447">shows job list and asks to select one</text><polygon fill="#181818" points="545,611.8984,555,615.8984,545,619.8984,549,615.8984" style="stroke:#181818;stroke-width:1.0;"/><line style="stroke:#181818;stroke-width:1.0;" x1="101" x2="551" y1="615.8984" y2="615.8984"/><text fill="#000000" font-family="sans-serif" font-size="13" font-weight="bold" lengthAdjust="spacing" textLength="14" x="108" y="610.6357">16</text><text fill="#000000" font-family="sans-serif" font-size="13" lengthAdjust="spacing" textLength="63" x="126" y="610.6357">selects job</text><polygon fill="#181818" points="956,660.4805,966,664.4805,956,668.4805,960,664.4805" style="stroke:#181818;stroke-width:1.0;"/><line style="stroke:#181818;stroke-width:1.0;" x1="567" x2="962" y1="664.4805" y2="664.4805"/><text fill="#000000" font-family="sans-serif" font-size="13" font-weight="bold" lengthAdjust="spacing" textLength="14" x="574" y="650.5723">17</text><text fill="#000000" font-family="sans-serif" font-size="13" lengthAdjust="spacing" textLength="360" x="592" y="641.9268">registerCollaborator(name, birthdate, admission date, address,</text><text fill="#000000" font-family="sans-serif" font-size="13" lengthAdjust="spacing" textLength="341" x="592" y="659.2178">mobile contact, email contact, ID doc type, ID number, job)</text><line style="stroke:#181818;stroke-width:1.0;" x1="978" x2="1025" y1="715.7715" y2="715.7715"/><line style="stroke:#181818;stroke-width:1.0;" x1="1025" x2="1025" y1="715.7715" y2="728.7715"/><line style="stroke:#181818;stroke-width:1.0;" x1="984" x2="1025" y1="728.7715" y2="728.7715"/><polygon fill="#181818" points="994,724.7715,984,728.7715,994,732.7715,990,728.7715" style="stroke:#181818;stroke-width:1.0;"/><text fill="#000000" font-family="sans-serif" font-size="13" font-weight="bold" lengthAdjust="spacing" textLength="14" x="990" y="710.5088">18</text><text fill="#000000" font-family="sans-serif" font-size="13" lengthAdjust="spacing" textLength="132" x="1008" y="710.5088">getHRMFromSession()</text><polygon fill="#181818" points="1656,761.0625,1666,765.0625,1656,769.0625,1660,765.0625" style="stroke:#181818;stroke-width:1.0;"/><line style="stroke:#181818;stroke-width:1.0;" x1="983" x2="1662" y1="765.0625" y2="765.0625"/><text fill="#000000" font-family="sans-serif" font-size="13" font-weight="bold" lengthAdjust="spacing" textLength="14" x="990" y="759.7998">19</text><text fill="#000000" font-family="sans-serif" font-size="13" lengthAdjust="spacing" textLength="75" x="1008" y="759.7998">getInstance()</text><polygon fill="#181818" points="994,792.3535,984,796.3535,994,800.3535,990,796.3535" style="stroke:#181818;stroke-width:1.0;"/><line style="stroke:#181818;stroke-width:1.0;" x1="988" x2="1672" y1="796.3535" y2="796.3535"/><text fill="#000000" font-family="sans-serif" font-size="13" font-weight="bold" lengthAdjust="spacing" textLength="14" x="1000" y="791.0908">20</text><text fill="#000000" font-family="sans-serif" font-size="13" lengthAdjust="spacing" textLength="68" x="1018" y="791.0908">appSession</text><polygon fill="#181818" points="1803,823.6445,1813,827.6445,1803,831.6445,1807,827.6445" style="stroke:#181818;stroke-width:1.0;"/><line style="stroke:#181818;stroke-width:1.0;" x1="983" x2="1809" y1="827.6445" y2="827.6445"/><text fill="#000000" font-family="sans-serif" font-size="13" font-weight="bold" lengthAdjust="spacing" textLength="14" x="990" y="822.3818">21</text><text fill="#000000" font-family="sans-serif" font-size="13" lengthAdjust="spacing" textLength="115" x="1008" y="822.3818">getCurrentSession()</text><polygon fill="#181818" points="994,854.9355,984,858.9355,994,862.9355,990,858.9355" style="stroke:#181818;stroke-width:1.0;"/><line style="stroke:#181818;stroke-width:1.0;stroke-dasharray:2.0,2.0;" x1="988" x2="1819" y1="858.9355" y2="858.9355"/><text fill="#000000" font-family="sans-serif" font-size="13" font-weight="bold" lengthAdjust="spacing" textLength="14" x="1000" y="853.6729">22</text><text fill="#000000" font-family="sans-serif" font-size="13" lengthAdjust="spacing" textLength="87" x="1018" y="853.6729">currentSession</text><polygon fill="#181818" points="1936,886.2266,1946,890.2266,1936,894.2266,1940,890.2266" style="stroke:#181818;stroke-width:1.0;"/><line style="stroke:#181818;stroke-width:1.0;" x1="983" x2="1942" y1="890.2266" y2="890.2266"/><text fill="#000000" font-family="sans-serif" font-size="13" font-weight="bold" lengthAdjust="spacing" textLength="14" x="990" y="884.9639">23</text><text fill="#000000" font-family="sans-serif" font-size="13" lengthAdjust="spacing" textLength="133" x="1008" y="884.9639">email = getUserEmail()</text><polygon fill="#181818" points="994,917.5176,984,921.5176,994,925.5176,990,921.5176" style="stroke:#181818;stroke-width:1.0;"/><line style="stroke:#181818;stroke-width:1.0;stroke-dasharray:2.0,2.0;" x1="988" x2="1952" y1="921.5176" y2="921.5176"/><text fill="#000000" font-family="sans-serif" font-size="13" font-weight="bold" lengthAdjust="spacing" textLength="14" x="1000" y="916.2549">24</text><text fill="#000000" font-family="sans-serif" font-size="13" lengthAdjust="spacing" textLength="31" x="1018" y="916.2549">email</text><polygon fill="#181818" points="1529,948.8086,1539,952.8086,1529,956.8086,1533,952.8086" style="stroke:#181818;stroke-width:1.0;"/><line style="stroke:#181818;stroke-width:1.0;" x1="983" x2="1535" y1="952.8086" y2="952.8086"/><text fill="#000000" font-family="sans-serif" font-size="13" font-weight="bold" lengthAdjust="spacing" textLength="14" x="990" y="947.5459">25</text><text fill="#000000" font-family="sans-serif" font-size="13" lengthAdjust="spacing" textLength="192" x="1008" y="947.5459">getOrganizationRepository(email)</text><polygon fill="#181818" points="994,980.0996,984,984.0996,994,988.0996,990,984.0996" style="stroke:#181818;stroke-width:1.0;"/><line style="stroke:#181818;stroke-width:1.0;stroke-dasharray:2.0,2.0;" x1="988" x2="1545" y1="984.0996" y2="984.0996"/><text fill="#000000" font-family="sans-serif" font-size="13" font-weight="bold" lengthAdjust="spacing" textLength="14" x="1000" y="978.8369">26</text><text fill="#000000" font-family="sans-serif" font-size="13" lengthAdjust="spacing" textLength="132" x="1018" y="978.8369">organizationRepository</text><polygon fill="#181818" points="2082,1011.3906,2092,1015.3906,2082,1019.3906,2086,1015.3906" style="stroke:#181818;stroke-width:1.0;"/><line style="stroke:#181818;stroke-width:1.0;" x1="983" x2="2088" y1="1015.3906" y2="1015.3906"/><text fill="#000000" font-family="sans-serif" font-size="13" font-weight="bold" lengthAdjust="spacing" textLength="14" x="990" y="1010.1279">27</text><text fill="#000000" font-family="sans-serif" font-size="13" lengthAdjust="spacing" textLength="208" x="1008" y="1010.1279">getOrganizationByHRMEmail(email)</text><path d="M2007.5,1030.3906 L2080.5,1030.3906 L2080.5,1039.6816 L2070.5,1049.6816 L2007.5,1049.6816 L2007.5,1030.3906 " fill="#EEEEEE" style="stroke:#000000;stroke-width:1.5;"/><rect fill="none" height="81.873" style="stroke:#000000;stroke-width:1.5;" width="342.5" x="2007.5" y="1030.3906"/><text fill="#000000" font-family="sans-serif" font-size="13" font-weight="bold" lengthAdjust="spacing" textLength="28" x="2022.5" y="1045.4189">loop</text><text fill="#000000" font-family="sans-serif" font-size="11" font-weight="bold" lengthAdjust="spacing" textLength="128" x="2095.5" y="1044.2607">[[for each organization]</text><polygon fill="#181818" points="2274,1068.9727,2284,1072.9727,2274,1076.9727,2278,1072.9727" style="stroke:#181818;stroke-width:1.0;"/><line style="stroke:#181818;stroke-width:1.0;" x1="2104" x2="2280" y1="1072.9727" y2="1072.9727"/><text fill="#000000" font-family="sans-serif" font-size="13" font-weight="bold" lengthAdjust="spacing" textLength="14" x="2111" y="1067.71">28</text><text fill="#000000" font-family="sans-serif" font-size="13" lengthAdjust="spacing" textLength="145" x="2129" y="1067.71">anyHRMHasEmail(email)</text><polygon fill="#181818" points="2115,1100.2637,2105,1104.2637,2115,1108.2637,2111,1104.2637" style="stroke:#181818;stroke-width:1.0;"/><line style="stroke:#181818;stroke-width:1.0;stroke-dasharray:2.0,2.0;" x1="2109" x2="2290" y1="1104.2637" y2="1104.2637"/><text fill="#000000" font-family="sans-serif" font-size="13" font-weight="bold" lengthAdjust="spacing" textLength="14" x="2121" y="1099.001">29</text><text fill="#000000" font-family="sans-serif" font-size="13" lengthAdjust="spacing" textLength="53" x="2139" y="1099.001">true/false</text><polygon fill="#181818" points="994,1138.5547,984,1142.5547,994,1146.5547,990,1142.5547" style="stroke:#181818;stroke-width:1.0;"/><line style="stroke:#181818;stroke-width:1.0;stroke-dasharray:2.0,2.0;" x1="988" x2="2098" y1="1142.5547" y2="1142.5547"/><text fill="#000000" font-family="sans-serif" font-size="13" font-weight="bold" lengthAdjust="spacing" textLength="14" x="1000" y="1137.292">30</text><text fill="#000000" font-family="sans-serif" font-size="13" lengthAdjust="spacing" textLength="70" x="1018" y="1137.292">organization</text><polygon fill="#181818" points="2274,1169.8457,2284,1173.8457,2274,1177.8457,2278,1173.8457" style="stroke:#181818;stroke-width:1.0;"/><line style="stroke:#181818;stroke-width:1.0;" x1="983" x2="2280" y1="1173.8457" y2="1173.8457"/><text fill="#000000" font-family="sans-serif" font-size="13" font-weight="bold" lengthAdjust="spacing" textLength="14" x="990" y="1168.583">31</text><text fill="#000000" font-family="sans-serif" font-size="13" lengthAdjust="spacing" textLength="135" x="1008" y="1168.583">getHRMByEmail(email)</text><polygon fill="#181818" points="994,1201.1367,984,1205.1367,994,1209.1367,990,1205.1367" style="stroke:#181818;stroke-width:1.0;"/><line style="stroke:#181818;stroke-width:1.0;stroke-dasharray:2.0,2.0;" x1="988" x2="2290" y1="1205.1367" y2="1205.1367"/><text fill="#000000" font-family="sans-serif" font-size="13" font-weight="bold" lengthAdjust="spacing" textLength="14" x="1000" y="1199.874">32</text><text fill="#000000" font-family="sans-serif" font-size="13" lengthAdjust="spacing" textLength="22" x="1018" y="1199.874">hrm</text><line style="stroke:#181818;stroke-width:1.0;stroke-dasharray:2.0,2.0;" x1="983" x2="1025" y1="1241.4277" y2="1241.4277"/><line style="stroke:#181818;stroke-width:1.0;stroke-dasharray:2.0,2.0;" x1="1025" x2="1025" y1="1241.4277" y2="1254.4277"/><line style="stroke:#181818;stroke-width:1.0;stroke-dasharray:2.0,2.0;" x1="978" x2="1025" y1="1254.4277" y2="1254.4277"/><polygon fill="#181818" points="988,1250.4277,978,1254.4277,988,1258.4277,984,1254.4277" style="stroke:#181818;stroke-width:1.0;"/><text fill="#000000" font-family="sans-serif" font-size="13" font-weight="bold" lengthAdjust="spacing" textLength="14" x="990" y="1236.165">33</text><text fill="#000000" font-family="sans-serif" font-size="13" lengthAdjust="spacing" textLength="22" x="1008" y="1236.165">hrm</text><polygon fill="#181818" points="2274,1319.0098,2284,1323.0098,2274,1327.0098,2278,1323.0098" style="stroke:#181818;stroke-width:1.0;"/><line style="stroke:#181818;stroke-width:1.0;" x1="978" x2="2280" y1="1323.0098" y2="1323.0098"/><text fill="#000000" font-family="sans-serif" font-size="13" font-weight="bold" lengthAdjust="spacing" textLength="14" x="985" y="1309.1016">34</text><text fill="#000000" font-family="sans-serif" font-size="13" lengthAdjust="spacing" textLength="360" x="1003" y="1300.4561">registerCollaborator(name, birthdate, admission date, address,</text><text fill="#000000" font-family="sans-serif" font-size="13" lengthAdjust="spacing" textLength="421" x="1003" y="1317.7471">mobile contact, email contact, taxpayer number, ID doc type, ID number)</text><polygon fill="#181818" points="2743,1367.5918,2753,1371.5918,2743,1375.5918,2747,1371.5918" style="stroke:#181818;stroke-width:1.0;"/><line style="stroke:#181818;stroke-width:1.0;" x1="2296" x2="2749" y1="1371.5918" y2="1371.5918"/><text fill="#000000" font-family="sans-serif" font-size="13" font-weight="bold" lengthAdjust="spacing" textLength="14" x="2303" y="1357.6836">35</text><text fill="#000000" font-family="sans-serif" font-size="13" lengthAdjust="spacing" textLength="284" x="2321" y="1349.0381">create(name, birthdate, admission date, address,</text><text fill="#000000" font-family="sans-serif" font-size="13" lengthAdjust="spacing" textLength="417" x="2321" y="1366.3291">mobile contact, email contact, taxpayer number ID doc type, ID number)</text><rect fill="#E3E3E3" height="51.2422" rx="2.5" ry="2.5" style="stroke:#181818;stroke-width:0.5;" width="96" x="2755" y="1331.0098"/><text fill="#000000" font-family="sans-serif" font-size="14" lengthAdjust="spacing" textLength="75" x="2765.5" y="1353.1172">collaborator</text><text fill="#000000" font-family="sans-serif" font-size="14" lengthAdjust="spacing" textLength="82" x="2762" y="1371.7383">:Collaborator</text><line style="stroke:#181818;stroke-width:1.0;" x1="2296" x2="2338" y1="1416.543" y2="1416.543"/><line style="stroke:#181818;stroke-width:1.0;" x1="2338" x2="2338" y1="1416.543" y2="1429.543"/><line style="stroke:#181818;stroke-width:1.0;" x1="2297" x2="2338" y1="1429.543" y2="1429.543"/><polygon fill="#181818" points="2307,1425.543,2297,1429.543,2307,1433.543,2303,1429.543" style="stroke:#181818;stroke-width:1.0;"/><text fill="#000000" font-family="sans-serif" font-size="13" font-weight="bold" lengthAdjust="spacing" textLength="14" x="2303" y="1411.2803">36</text><text fill="#000000" font-family="sans-serif" font-size="13" lengthAdjust="spacing" textLength="187" x="2321" y="1411.2803">validateCollaborator(collaborator)</text><polygon fill="#181818" points="956,1456.834,966,1460.834,956,1464.834,960,1460.834" style="stroke:#181818;stroke-width:1.0;"/><line style="stroke:#181818;stroke-width:1.0;" x1="567" x2="962" y1="1460.834" y2="1460.834"/><text fill="#000000" font-family="sans-serif" font-size="13" font-weight="bold" lengthAdjust="spacing" textLength="14" x="574" y="1455.5713">37</text><text fill="#000000" font-family="sans-serif" font-size="13" lengthAdjust="spacing" textLength="216" x="592" y="1455.5713">assignJobToCollaborator(collaborator)</text><polygon fill="#181818" points="1270.5,1488.125,1280.5,1492.125,1270.5,1496.125,1274.5,1492.125" style="stroke:#181818;stroke-width:1.0;"/><line style="stroke:#181818;stroke-width:1.0;" x1="978" x2="1276.5" y1="1492.125" y2="1492.125"/><text fill="#000000" font-family="sans-serif" font-size="13" font-weight="bold" lengthAdjust="spacing" textLength="14" x="985" y="1486.8623">38</text><text fill="#000000" font-family="sans-serif" font-size="13" lengthAdjust="spacing" textLength="202" x="1003" y="1486.8623">getCollaboratorByID(collaboratorID)</text><polygon fill="#181818" points="989,1519.416,979,1523.416,989,1527.416,985,1523.416" style="stroke:#181818;stroke-width:1.0;"/><line style="stroke:#181818;stroke-width:1.0;stroke-dasharray:2.0,2.0;" x1="983" x2="1286.5" y1="1523.416" y2="1523.416"/><text fill="#000000" font-family="sans-serif" font-size="13" font-weight="bold" lengthAdjust="spacing" textLength="14" x="995" y="1518.1533">39</text><text fill="#000000" font-family="sans-serif" font-size="13" lengthAdjust="spacing" textLength="67" x="1013" y="1518.1533">collaborator</text><polygon fill="#181818" points="1416.5,1550.707,1426.5,1554.707,1416.5,1558.707,1420.5,1554.707" style="stroke:#181818;stroke-width:1.0;"/><line style="stroke:#181818;stroke-width:1.0;" x1="978" x2="1422.5" y1="1554.707" y2="1554.707"/><text fill="#000000" font-family="sans-serif" font-size="13" font-weight="bold" lengthAdjust="spacing" textLength="14" x="985" y="1549.4443">40</text><text fill="#000000" font-family="sans-serif" font-size="13" lengthAdjust="spacing" textLength="147" x="1003" y="1549.4443">getJobByName(jobName)</text><polygon fill="#181818" points="989,1581.998,979,1585.998,989,1589.998,985,1585.998" style="stroke:#181818;stroke-width:1.0;"/><line style="stroke:#181818;stroke-width:1.0;stroke-dasharray:2.0,2.0;" x1="983" x2="1432.5" y1="1585.998" y2="1585.998"/><text fill="#000000" font-family="sans-serif" font-size="13" font-weight="bold" lengthAdjust="spacing" textLength="14" x="995" y="1580.7354">41</text><text fill="#000000" font-family="sans-serif" font-size="13" lengthAdjust="spacing" textLength="17" x="1013" y="1580.7354">job</text><polygon fill="#181818" points="2791,1613.2891,2801,1617.2891,2791,1621.2891,2795,1617.2891" style="stroke:#181818;stroke-width:1.0;"/><line style="stroke:#181818;stroke-width:1.0;" x1="978" x2="2797" y1="1617.2891" y2="1617.2891"/><text fill="#000000" font-family="sans-serif" font-size="13" font-weight="bold" lengthAdjust="spacing" textLength="14" x="985" y="1612.0264">42</text><text fill="#000000" font-family="sans-serif" font-size="13" lengthAdjust="spacing" textLength="66" x="1003" y="1612.0264">addJob(job)</text><polygon fill="#181818" points="1298.5,1644.5801,1288.5,1648.5801,1298.5,1652.5801,1294.5,1648.5801" style="stroke:#181818;stroke-width:1.0;"/><line style="stroke:#181818;stroke-width:1.0;" x1="1292.5" x2="2285" y1="1648.5801" y2="1648.5801"/><text fill="#000000" font-family="sans-serif" font-size="13" font-weight="bold" lengthAdjust="spacing" textLength="14" x="1304.5" y="1643.3174">43</text><text fill="#000000" font-family="sans-serif" font-size="13" lengthAdjust="spacing" textLength="169" x="1322.5" y="1643.3174">addCollaborator (collaborator)</text><polygon fill="#181818" points="989,1675.8711,979,1679.8711,989,1683.8711,985,1679.8711" style="stroke:#181818;stroke-width:1.0;"/><line style="stroke:#181818;stroke-width:1.0;stroke-dasharray:2.0,2.0;" x1="983" x2="2290" y1="1679.8711" y2="1679.8711"/><text fill="#000000" font-family="sans-serif" font-size="13" font-weight="bold" lengthAdjust="spacing" textLength="14" x="995" y="1674.6084">44</text><text fill="#000000" font-family="sans-serif" font-size="13" lengthAdjust="spacing" textLength="67" x="1013" y="1674.6084">collaborator</text><polygon fill="#181818" points="578,1707.1621,568,1711.1621,578,1715.1621,574,1711.1621" style="stroke:#181818;stroke-width:1.0;"/><line style="stroke:#181818;stroke-width:1.0;stroke-dasharray:2.0,2.0;" x1="572" x2="972" y1="1711.1621" y2="1711.1621"/><text fill="#000000" font-family="sans-serif" font-size="13" font-weight="bold" lengthAdjust="spacing" textLength="14" x="584" y="1705.8994">45</text><text fill="#000000" font-family="sans-serif" font-size="13" lengthAdjust="spacing" textLength="67" x="602" y="1705.8994">collaborator</text><polygon fill="#181818" points="107,1738.4531,97,1742.4531,107,1746.4531,103,1742.4531" style="stroke:#181818;stroke-width:1.0;"/><line style="stroke:#181818;stroke-width:1.0;" x1="101" x2="561" y1="1742.4531" y2="1742.4531"/><text fill="#000000" font-family="sans-serif" font-size="13" font-weight="bold" lengthAdjust="spacing" textLength="14" x="113" y="1737.1904">46</text><text fill="#000000" font-family="sans-serif" font-size="13" lengthAdjust="spacing" textLength="158" x="131" y="1737.1904">displays operation success</text><!--SRC=[jLXBRziu4BxpLn2vn0qSx5tO3U17cpX8wa1EJXjWGKkChOr4QacwhHVvyHrIbaH9fAHqDxgqicQ- -UR1cM7aQy9o8aY6Cyvuj1SyerY90qMo-fAJw9Niw4OTKue5ZHHXkzGMa7iIy-y9s-4NaagA43aepWxPbWg4plT9JF4BvshBVo0IAIxmsSqX8mo7LFA3YAZ4zuI11N66YSIpvJq2N9L4IKwOmcT1I7U9L5GiU9gIBHS4C9vMHlXfDK9smPaIy7uoi7WCxpfQEPS9Y2PK6fdgX-CcqTw2FosLo38WAkbd5jYMQvZ2SjW4-Pjl6wgtVDlIk6rf28ieA7HuFzpD7bj4PtcU9X5H2MSRAYNyOoJ_cZqyD2L9dfy40DcZrL6A3k0zKxNYawJ2rjXytcncwwOI5pl2adyDUkrmyCpMpWy6n_t9ZmjKR9K28xnkiRTorKfTaR3rtMo-3cVBTOXqxIRVYAAcGX4-FV22Bw-W47406gyIAmw7f2X2JB1jeLQgeA1-qJcs7i2v13YD6W3EFmSgbSGnKGHF6Cde9sHBdqU2QXXJqcsOA_FpnGK05M8D2Ki417PKkUjsqZHOCpSccz_Ans02jYx6zs2tdygMgMg_hB5pMJlZFff-_PYEiLJ7oxZKEAlWoTXGjFK-90ADnZBUyNwHEkD5ABmrEiNRHAWz_03_9N6Mc6w0o_TOG7kOucUMyMq28oM2zWn6ffXc94dhLqL-vEG8fwWO9LEyMkAOHrWTSsfUYjyXzAXz4BM8BAdHs73hXg-RKUb8o9YAjrDz6_QXUR2Xp_j5RyCgjm6-WyxokmQ_6i2sCjUBNl0saVEY3rQ1tFFlKfSTJW414nPNpL3I57O6p1djvgduPXHHJR7HcOHZeF-VLUOkggccz0cDg86tjpVaAeEwiTw4zrzWhpeDnLPD35HNYQQdjG5RCGdxLqJx2jMCTbUgzOUwvEjvZtfgnu3vYPMy5eqze8-TmNEnC-GgTit5ee-X4x3aLwmVmIdhVsYgUaFvh5_xM9xM5YVHufl5rO3tKIpHKDzyC75qhpaJOw67hdy-D4P3WDsh5neSYLxcRi8TN-P7E0P5r8TyyMnwJkzIpdFyvmlSAO3mlk6Tj-EvyOqluRNUufZcUaDaBzqkRLWk-rkoXh_qXaoFBRXu_LRSeKPqTMtG9K9PZDxZTzsiUiDdMnwPeQf6mkko4ywF8ul05yqoY2VAUv6XWHWXxyIpC9mJRgZ76xy-Ua2DNeEySVIK4kgjqolxydDnKTuXFj0p_tutGBGujjz8ccW6ZJpOLu4U87iJ9E3CZi4EzCX_1QgQ_s7dvZC_hfODcDLoH5zPz2nl2tipR5mrH_IFNk3ECZi_VeNCJs0j-jgvXhvxfMrij7hv-uzBR1NqkcG3NOZ0Us8MEJHGwY4sydQsS3lZBen-O7TgqBZMVdh6DhR66kyjXNQRwnu2MCy372SoJybHOfvJOTeybeSeWcEDMYZw3nZsBhQyHpy1]--></g></svg>