<?xml version="1.0" encoding="us-ascii" standalone="no"?><svg xmlns="http://www.w3.org/2000/svg" xmlns:xlink="http://www.w3.org/1999/xlink" contentStyleType="text/css" height="394.8px" preserveAspectRatio="none" style="width:560px;height:394px;background:#FFFFFF;" version="1.1" viewBox="0 0 560 394" width="560.1px" zoomAndPan="magnify"><defs/><g><rect fill="#FFFFFF" height="336.5449" style="stroke:#181818;stroke-width:0.3;" width="3" x="27.3" y="28.0863"/><rect fill="#FFFFFF" height="159.0832" style="stroke:#181818;stroke-width:0.3;" width="3" x="169.2" y="35.0736"/><rect fill="#FFFFFF" height="9.3873" style="stroke:#181818;stroke-width:0.3;" width="3" x="169.2" y="203.5441"/><rect fill="#FFFFFF" height="142.3125" style="stroke:#181818;stroke-width:0.3;" width="3" x="169.2" y="222.3188"/><rect fill="#FFFFFF" height="65.7111" style="stroke:#181818;stroke-width:0.3;" width="3" x="292.5" y="57.5473"/><rect fill="#FFFFFF" height="28.1619" style="stroke:#181818;stroke-width:0.3;" width="3" x="292.5" y="156.6076"/><rect fill="#FFFFFF" height="118.3506" style="stroke:#181818;stroke-width:0.3;" width="3" x="292.5" y="236.8934"/><rect fill="#FFFFFF" height="27.1629" style="stroke:#181818;stroke-width:0.3;" width="3" x="294" y="256.1807"/><rect fill="#FFFFFF" height="9.3873" style="stroke:#181818;stroke-width:0.3;" width="3" x="344.7" y="66.9346"/><rect fill="#FFFFFF" height="38.3385" style="stroke:#181818;stroke-width:0.3;" width="3" x="432.9" y="307.5182"/><rect fill="#FFFFFF" height="9.3873" style="stroke:#181818;stroke-width:0.3;" width="3" x="476.7" y="165.9949"/><rect fill="#FFFFFF" height="9.3873" style="stroke:#181818;stroke-width:0.3;" width="3" x="510.45" y="85.7092"/><rect fill="#FFFFFF" height="9.3873" style="stroke:#181818;stroke-width:0.3;" width="3" x="510.45" y="113.8711"/><line style="stroke:#181818;stroke-width:0.15;stroke-dasharray:5.0,5.0;" x1="28.8" x2="28.8" y1="25.0863" y2="370.0313"/><line style="stroke:#181818;stroke-width:0.15;stroke-dasharray:5.0,5.0;" x1="170.55" x2="170.55" y1="25.0863" y2="370.0313"/><line style="stroke:#181818;stroke-width:0.15;stroke-dasharray:5.0,5.0;" x1="293.85" x2="293.85" y1="47.0168" y2="370.0313"/><line style="stroke:#181818;stroke-width:0.15;stroke-dasharray:5.0,5.0;" x1="346.05" x2="346.05" y1="25.0863" y2="370.0313"/><line style="stroke:#181818;stroke-width:0.15;stroke-dasharray:5.0,5.0;" x1="434.4" x2="434.4" y1="25.0863" y2="370.0313"/><line style="stroke:#181818;stroke-width:0.15;stroke-dasharray:5.0,5.0;" x1="478.2" x2="478.2" y1="25.0863" y2="370.0313"/><line style="stroke:#181818;stroke-width:0.15;stroke-dasharray:5.0,5.0;" x1="511.8" x2="511.8" y1="25.0863" y2="370.0313"/><line style="stroke:#181818;stroke-width:0.15;stroke-dasharray:5.0,5.0;" x1="543.9" x2="543.9" y1="25.0863" y2="370.0313"/><text fill="#000000" font-family="sans-serif" font-size="4.2" lengthAdjust="spacing" textLength="52.8" x="1.5" y="24.0322">Human Resources Manager</text><ellipse cx="28.8" cy="4.05" fill="#E3E3E3" rx="2.4" ry="2.4" style="stroke:#181818;stroke-width:0.15;"/><path d="M28.8,6.45 L28.8,14.55 M24.9,8.85 L32.7,8.85 M28.8,14.55 L24.9,19.05 M28.8,14.55 L32.7,19.05 " fill="none" style="stroke:#181818;stroke-width:0.15;"/><text fill="#000000" font-family="sans-serif" font-size="4.2" lengthAdjust="spacing" textLength="52.8" x="1.5" y="374.2635">Human Resources Manager</text><ellipse cx="28.8" cy="377.8676" fill="#E3E3E3" rx="2.4" ry="2.4" style="stroke:#181818;stroke-width:0.15;"/><path d="M28.8,380.2676 L28.8,388.3676 M24.9,382.6676 L32.7,382.6676 M28.8,388.3676 L24.9,392.8676 M28.8,388.3676 L32.7,392.8676 " fill="none" style="stroke:#181818;stroke-width:0.15;"/><rect fill="#E3E3E3" height="9.7863" rx="0.75" ry="0.75" style="stroke:#181818;stroke-width:0.15;" width="48.3" x="146.55" y="15"/><text fill="#000000" font-family="sans-serif" font-size="4.2" lengthAdjust="spacing" textLength="44.1" x="148.65" y="21.6322">:RegisterCollaboratorUI</text><rect fill="#E3E3E3" height="9.7863" rx="0.75" ry="0.75" style="stroke:#181818;stroke-width:0.15;" width="48.3" x="146.55" y="369.7313"/><text fill="#000000" font-family="sans-serif" font-size="4.2" lengthAdjust="spacing" textLength="44.1" x="148.65" y="376.3635">:RegisterCollaboratorUI</text><rect fill="#E3E3E3" height="9.7863" rx="0.75" ry="0.75" style="stroke:#181818;stroke-width:0.15;" width="63.3" x="262.35" y="369.7313"/><text fill="#000000" font-family="sans-serif" font-size="4.2" lengthAdjust="spacing" textLength="59.1" x="264.45" y="376.3635">:RegisterCollaboratorController</text><rect fill="#E3E3E3" height="9.7863" rx="0.75" ry="0.75" style="stroke:#181818;stroke-width:0.15;" width="29.1" x="331.65" y="15"/><text fill="#000000" font-family="sans-serif" font-size="4.2" lengthAdjust="spacing" textLength="24.9" x="333.75" y="21.6322">:Repositories</text><rect fill="#E3E3E3" height="9.7863" rx="0.75" ry="0.75" style="stroke:#181818;stroke-width:0.15;" width="29.1" x="331.65" y="369.7313"/><text fill="#000000" font-family="sans-serif" font-size="4.2" lengthAdjust="spacing" textLength="24.9" x="333.75" y="376.3635">:Repositories</text><rect fill="#E3E3E3" height="15.3727" rx="0.75" ry="0.75" style="stroke:#181818;stroke-width:0.15;" width="49.2" x="409.8" y="9.4137"/><text fill="#000000" font-family="sans-serif" font-size="4.2" lengthAdjust="spacing" textLength="42.6" x="413.1" y="16.0459">:collaboratorrepository</text><text fill="#000000" font-family="sans-serif" font-size="4.2" lengthAdjust="spacing" textLength="45" x="411.9" y="21.6322">:CollaboratorRepository</text><rect fill="#E3E3E3" height="15.3727" rx="0.75" ry="0.75" style="stroke:#181818;stroke-width:0.15;" width="49.2" x="409.8" y="369.7313"/><text fill="#000000" font-family="sans-serif" font-size="4.2" lengthAdjust="spacing" textLength="42.6" x="413.1" y="376.3635">:collaboratorrepository</text><text fill="#000000" font-family="sans-serif" font-size="4.2" lengthAdjust="spacing" textLength="45" x="411.9" y="381.9498">:CollaboratorRepository</text><rect fill="#E3E3E3" height="15.3727" rx="0.75" ry="0.75" style="stroke:#181818;stroke-width:0.15;" width="32.4" x="462" y="9.4137"/><text fill="#000000" font-family="sans-serif" font-size="4.2" lengthAdjust="spacing" textLength="24.6" x="465.9" y="16.0459">jobrepository</text><text fill="#000000" font-family="sans-serif" font-size="4.2" lengthAdjust="spacing" textLength="28.2" x="464.1" y="21.6322">:JobRepository</text><rect fill="#E3E3E3" height="15.3727" rx="0.75" ry="0.75" style="stroke:#181818;stroke-width:0.15;" width="32.4" x="462" y="369.7313"/><text fill="#000000" font-family="sans-serif" font-size="4.2" lengthAdjust="spacing" textLength="24.6" x="465.9" y="376.3635">jobrepository</text><text fill="#000000" font-family="sans-serif" font-size="4.2" lengthAdjust="spacing" textLength="28.2" x="464.1" y="381.9498">:JobRepository</text><rect fill="#E3E3E3" height="15.3727" rx="0.75" ry="0.75" style="stroke:#181818;stroke-width:0.15;" width="29.1" x="497.4" y="9.4137"/><text fill="#000000" font-family="sans-serif" font-size="4.2" lengthAdjust="spacing" textLength="22.2" x="500.85" y="16.0459">repositories</text><text fill="#000000" font-family="sans-serif" font-size="4.2" lengthAdjust="spacing" textLength="24.9" x="499.5" y="21.6322">:Repositories</text><rect fill="#E3E3E3" height="15.3727" rx="0.75" ry="0.75" style="stroke:#181818;stroke-width:0.15;" width="29.1" x="497.4" y="369.7313"/><text fill="#000000" font-family="sans-serif" font-size="4.2" lengthAdjust="spacing" textLength="22.2" x="500.85" y="376.3635">repositories</text><text fill="#000000" font-family="sans-serif" font-size="4.2" lengthAdjust="spacing" textLength="24.9" x="499.5" y="381.9498">:Repositories</text><rect fill="#E3E3E3" height="15.3727" rx="0.75" ry="0.75" style="stroke:#181818;stroke-width:0.15;" width="28.8" x="529.5" y="9.4137"/><text fill="#000000" font-family="sans-serif" font-size="4.2" lengthAdjust="spacing" textLength="22.5" x="532.65" y="16.0459">collaborator</text><text fill="#000000" font-family="sans-serif" font-size="4.2" lengthAdjust="spacing" textLength="24.6" x="531.6" y="21.6322">:Collaborator</text><rect fill="#E3E3E3" height="15.3727" rx="0.75" ry="0.75" style="stroke:#181818;stroke-width:0.15;" width="28.8" x="529.5" y="369.7313"/><text fill="#000000" font-family="sans-serif" font-size="4.2" lengthAdjust="spacing" textLength="22.5" x="532.65" y="376.3635">collaborator</text><text fill="#000000" font-family="sans-serif" font-size="4.2" lengthAdjust="spacing" textLength="24.6" x="531.6" y="381.9498">:Collaborator</text><rect fill="#FFFFFF" height="336.5449" style="stroke:#181818;stroke-width:0.3;" width="3" x="27.3" y="28.0863"/><rect fill="#FFFFFF" height="159.0832" style="stroke:#181818;stroke-width:0.3;" width="3" x="169.2" y="35.0736"/><rect fill="#FFFFFF" height="9.3873" style="stroke:#181818;stroke-width:0.3;" width="3" x="169.2" y="203.5441"/><rect fill="#FFFFFF" height="142.3125" style="stroke:#181818;stroke-width:0.3;" width="3" x="169.2" y="222.3188"/><rect fill="#FFFFFF" height="65.7111" style="stroke:#181818;stroke-width:0.3;" width="3" x="292.5" y="57.5473"/><rect fill="#FFFFFF" height="28.1619" style="stroke:#181818;stroke-width:0.3;" width="3" x="292.5" y="156.6076"/><rect fill="#FFFFFF" height="118.3506" style="stroke:#181818;stroke-width:0.3;" width="3" x="292.5" y="236.8934"/><rect fill="#FFFFFF" height="27.1629" style="stroke:#181818;stroke-width:0.3;" width="3" x="294" y="256.1807"/><rect fill="#FFFFFF" height="9.3873" style="stroke:#181818;stroke-width:0.3;" width="3" x="344.7" y="66.9346"/><rect fill="#FFFFFF" height="38.3385" style="stroke:#181818;stroke-width:0.3;" width="3" x="432.9" y="307.5182"/><rect fill="#FFFFFF" height="9.3873" style="stroke:#181818;stroke-width:0.3;" width="3" x="476.7" y="165.9949"/><rect fill="#FFFFFF" height="9.3873" style="stroke:#181818;stroke-width:0.3;" width="3" x="510.45" y="85.7092"/><rect fill="#FFFFFF" height="9.3873" style="stroke:#181818;stroke-width:0.3;" width="3" x="510.45" y="113.8711"/><polygon fill="#181818" points="165.6,33.8736,168.6,35.0736,165.6,36.2736,166.8,35.0736" style="stroke:#181818;stroke-width:0.3;"/><line style="stroke:#181818;stroke-width:0.3;" x1="30.3" x2="167.4" y1="35.0736" y2="35.0736"/><text fill="#000000" font-family="sans-serif" font-size="3.9" font-weight="bold" lengthAdjust="spacing" textLength="2.1" x="32.4" y="33.4948">1</text><text fill="#000000" font-family="sans-serif" font-size="3.9" lengthAdjust="spacing" textLength="51.6" x="35.7" y="33.4948">asks to register a collaborator</text><polygon fill="#181818" points="258.75,43.2609,261.75,44.4609,258.75,45.6609,259.95,44.4609" style="stroke:#181818;stroke-width:0.3;"/><line style="stroke:#181818;stroke-width:0.3;" x1="172.2" x2="260.55" y1="44.4609" y2="44.4609"/><text fill="#000000" font-family="sans-serif" font-size="3.9" font-weight="bold" lengthAdjust="spacing" textLength="2.1" x="174.3" y="42.8821">2</text><text fill="#000000" font-family="sans-serif" font-size="3.9" lengthAdjust="spacing" textLength="10.8" x="177.6" y="42.8821">create</text><rect fill="#E3E3E3" height="9.7863" rx="0.75" ry="0.75" style="stroke:#181818;stroke-width:0.15;" width="63.3" x="262.35" y="37.4736"/><text fill="#000000" font-family="sans-serif" font-size="4.2" lengthAdjust="spacing" textLength="59.1" x="264.45" y="44.1059">:RegisterCollaboratorController</text><polygon fill="#181818" points="288.9,56.3473,291.9,57.5473,288.9,58.7473,290.1,57.5473" style="stroke:#181818;stroke-width:0.3;"/><line style="stroke:#181818;stroke-width:0.3;" x1="172.2" x2="290.7" y1="57.5473" y2="57.5473"/><text fill="#000000" font-family="sans-serif" font-size="3.9" font-weight="bold" lengthAdjust="spacing" textLength="2.1" x="174.3" y="55.9685">3</text><text fill="#000000" font-family="sans-serif" font-size="3.9" lengthAdjust="spacing" textLength="47.1" x="177.6" y="55.9685">getCollaboratorRepository()</text><polygon fill="#181818" points="341.1,65.7346,344.1,66.9346,341.1,68.1346,342.3,66.9346" style="stroke:#181818;stroke-width:0.3;"/><line style="stroke:#181818;stroke-width:0.3;" x1="295.5" x2="342.9" y1="66.9346" y2="66.9346"/><text fill="#000000" font-family="sans-serif" font-size="3.9" font-weight="bold" lengthAdjust="spacing" textLength="2.1" x="297.6" y="65.3558">4</text><text fill="#000000" font-family="sans-serif" font-size="3.9" lengthAdjust="spacing" textLength="22.5" x="300.9" y="65.3558">getInstance()</text><polygon fill="#181818" points="298.8,75.1219,295.8,76.3219,298.8,77.5219,297.6,76.3219" style="stroke:#181818;stroke-width:0.3;"/><line style="stroke:#181818;stroke-width:0.3;stroke-dasharray:2.0,2.0;" x1="297" x2="345.9" y1="76.3219" y2="76.3219"/><text fill="#000000" font-family="sans-serif" font-size="3.9" font-weight="bold" lengthAdjust="spacing" textLength="2.1" x="300.6" y="74.7431">5</text><text fill="#000000" font-family="sans-serif" font-size="3.9" lengthAdjust="spacing" textLength="20.1" x="303.9" y="74.7431">repositories</text><polygon fill="#181818" points="506.85,84.5092,509.85,85.7092,506.85,86.9092,508.05,85.7092" style="stroke:#181818;stroke-width:0.3;"/><line style="stroke:#181818;stroke-width:0.3;" x1="295.5" x2="508.65" y1="85.7092" y2="85.7092"/><text fill="#000000" font-family="sans-serif" font-size="3.9" font-weight="bold" lengthAdjust="spacing" textLength="2.1" x="297.6" y="84.1304">6</text><text fill="#000000" font-family="sans-serif" font-size="3.9" lengthAdjust="spacing" textLength="47.1" x="300.9" y="84.1304">getCollaboratorRepository()</text><polygon fill="#181818" points="298.8,93.8965,295.8,95.0965,298.8,96.2965,297.6,95.0965" style="stroke:#181818;stroke-width:0.3;"/><line style="stroke:#181818;stroke-width:0.3;stroke-dasharray:2.0,2.0;" x1="297" x2="511.65" y1="95.0965" y2="95.0965"/><text fill="#000000" font-family="sans-serif" font-size="3.9" font-weight="bold" lengthAdjust="spacing" textLength="2.1" x="300.6" y="93.5177">7</text><text fill="#000000" font-family="sans-serif" font-size="3.9" lengthAdjust="spacing" textLength="37.2" x="303.9" y="93.5177">collaboratorrepository</text><polygon fill="#181818" points="288.9,103.2838,291.9,104.4838,288.9,105.6838,290.1,104.4838" style="stroke:#181818;stroke-width:0.3;"/><line style="stroke:#181818;stroke-width:0.3;" x1="172.2" x2="290.7" y1="104.4838" y2="104.4838"/><text fill="#000000" font-family="sans-serif" font-size="3.9" font-weight="bold" lengthAdjust="spacing" textLength="2.1" x="174.3" y="102.905">8</text><text fill="#000000" font-family="sans-serif" font-size="3.9" lengthAdjust="spacing" textLength="32.4" x="177.6" y="102.905">getJobRepository()</text><polygon fill="#181818" points="506.85,112.6711,509.85,113.8711,506.85,115.0711,508.05,113.8711" style="stroke:#181818;stroke-width:0.3;"/><line style="stroke:#181818;stroke-width:0.3;" x1="295.5" x2="508.65" y1="113.8711" y2="113.8711"/><text fill="#000000" font-family="sans-serif" font-size="3.9" font-weight="bold" lengthAdjust="spacing" textLength="2.1" x="297.6" y="112.2923">9</text><text fill="#000000" font-family="sans-serif" font-size="3.9" lengthAdjust="spacing" textLength="32.4" x="300.9" y="112.2923">getJobRepository()</text><polygon fill="#181818" points="297.3,122.0584,294.3,123.2584,297.3,124.4584,296.1,123.2584" style="stroke:#181818;stroke-width:0.3;"/><line style="stroke:#181818;stroke-width:0.3;stroke-dasharray:2.0,2.0;" x1="295.5" x2="511.65" y1="123.2584" y2="123.2584"/><text fill="#000000" font-family="sans-serif" font-size="3.9" font-weight="bold" lengthAdjust="spacing" textLength="4.2" x="299.1" y="121.6796">10</text><text fill="#000000" font-family="sans-serif" font-size="3.9" lengthAdjust="spacing" textLength="22.2" x="304.5" y="121.6796">jobrepository</text><polygon fill="#181818" points="33.6,136.633,30.6,137.833,33.6,139.033,32.4,137.833" style="stroke:#181818;stroke-width:0.3;"/><line style="stroke:#181818;stroke-width:0.3;stroke-dasharray:2.0,2.0;" x1="31.8" x2="168.9" y1="137.833" y2="137.833"/><text fill="#000000" font-family="sans-serif" font-size="3.9" font-weight="bold" lengthAdjust="spacing" textLength="4.2" x="35.4" y="133.6605">11</text><text fill="#000000" font-family="sans-serif" font-size="3.9" lengthAdjust="spacing" textLength="99.3" x="40.8" y="131.0669">requests data (name, birthdate, admission date, address,</text><text fill="#000000" font-family="sans-serif" font-size="3.9" lengthAdjust="spacing" textLength="126.3" x="40.8" y="136.2542">mobile contact, email contact, taxpayer number, ID doc type, ID number)</text><polygon fill="#181818" points="165.6,146.0203,168.6,147.2203,165.6,148.4203,166.8,147.2203" style="stroke:#181818;stroke-width:0.3;"/><line style="stroke:#181818;stroke-width:0.3;" x1="30.3" x2="167.4" y1="147.2203" y2="147.2203"/><text fill="#000000" font-family="sans-serif" font-size="3.9" font-weight="bold" lengthAdjust="spacing" textLength="4.2" x="32.4" y="145.6415">12</text><text fill="#000000" font-family="sans-serif" font-size="3.9" lengthAdjust="spacing" textLength="36.6" x="37.8" y="145.6415">types requested data</text><polygon fill="#181818" points="288.9,155.4076,291.9,156.6076,288.9,157.8076,290.1,156.6076" style="stroke:#181818;stroke-width:0.3;"/><line style="stroke:#181818;stroke-width:0.3;" x1="172.2" x2="290.7" y1="156.6076" y2="156.6076"/><text fill="#000000" font-family="sans-serif" font-size="3.9" font-weight="bold" lengthAdjust="spacing" textLength="4.2" x="174.3" y="155.0288">13</text><text fill="#000000" font-family="sans-serif" font-size="3.9" lengthAdjust="spacing" textLength="15.9" x="179.7" y="155.0288">getJobs()</text><polygon fill="#181818" points="473.1,164.7949,476.1,165.9949,473.1,167.1949,474.3,165.9949" style="stroke:#181818;stroke-width:0.3;"/><line style="stroke:#181818;stroke-width:0.3;" x1="295.5" x2="474.9" y1="165.9949" y2="165.9949"/><text fill="#000000" font-family="sans-serif" font-size="3.9" font-weight="bold" lengthAdjust="spacing" textLength="4.2" x="297.6" y="164.4161">14</text><text fill="#000000" font-family="sans-serif" font-size="3.9" lengthAdjust="spacing" textLength="15.9" x="303" y="164.4161">getJobs()</text><polygon fill="#181818" points="298.8,174.1822,295.8,175.3822,298.8,176.5822,297.6,175.3822" style="stroke:#181818;stroke-width:0.3;"/><line style="stroke:#181818;stroke-width:0.3;stroke-dasharray:2.0,2.0;" x1="297" x2="477.9" y1="175.3822" y2="175.3822"/><text fill="#000000" font-family="sans-serif" font-size="3.9" font-weight="bold" lengthAdjust="spacing" textLength="4.2" x="300.6" y="173.8034">15</text><text fill="#000000" font-family="sans-serif" font-size="3.9" lengthAdjust="spacing" textLength="19.2" x="306" y="173.8034">List&lt;Jobs&gt;</text><polygon fill="#181818" points="175.5,183.5695,172.5,184.7695,175.5,185.9695,174.3,184.7695" style="stroke:#181818;stroke-width:0.3;"/><line style="stroke:#181818;stroke-width:0.3;stroke-dasharray:2.0,2.0;" x1="173.7" x2="293.7" y1="184.7695" y2="184.7695"/><text fill="#000000" font-family="sans-serif" font-size="3.9" font-weight="bold" lengthAdjust="spacing" textLength="4.2" x="177.3" y="183.1907">16</text><text fill="#000000" font-family="sans-serif" font-size="3.9" lengthAdjust="spacing" textLength="19.2" x="182.7" y="183.1907">List&lt;Jobs&gt;</text><polygon fill="#181818" points="33.6,192.9568,30.6,194.1568,33.6,195.3568,32.4,194.1568" style="stroke:#181818;stroke-width:0.3;"/><line style="stroke:#181818;stroke-width:0.3;stroke-dasharray:2.0,2.0;" x1="31.8" x2="170.4" y1="194.1568" y2="194.1568"/><text fill="#000000" font-family="sans-serif" font-size="3.9" font-weight="bold" lengthAdjust="spacing" textLength="4.2" x="35.4" y="192.578">17</text><text fill="#000000" font-family="sans-serif" font-size="3.9" lengthAdjust="spacing" textLength="64.5" x="40.8" y="192.578">shows job list and asks to select one</text><polygon fill="#181818" points="165.6,202.3441,168.6,203.5441,165.6,204.7441,166.8,203.5441" style="stroke:#181818;stroke-width:0.3;"/><line style="stroke:#181818;stroke-width:0.3;" x1="30.3" x2="167.4" y1="203.5441" y2="203.5441"/><text fill="#000000" font-family="sans-serif" font-size="3.9" font-weight="bold" lengthAdjust="spacing" textLength="4.2" x="32.4" y="201.9653">18</text><text fill="#000000" font-family="sans-serif" font-size="3.9" lengthAdjust="spacing" textLength="18.9" x="37.8" y="201.9653">selects job</text><polygon fill="#181818" points="33.6,211.7314,30.6,212.9314,33.6,214.1314,32.4,212.9314" style="stroke:#181818;stroke-width:0.3;"/><line style="stroke:#181818;stroke-width:0.3;stroke-dasharray:2.0,2.0;" x1="31.8" x2="170.4" y1="212.9314" y2="212.9314"/><text fill="#000000" font-family="sans-serif" font-size="3.9" font-weight="bold" lengthAdjust="spacing" textLength="4.2" x="35.4" y="211.3526">19</text><text fill="#000000" font-family="sans-serif" font-size="3.9" lengthAdjust="spacing" textLength="98.7" x="40.8" y="211.3526">shows typed and selected data and asks for confirmation</text><polygon fill="#181818" points="165.6,221.1188,168.6,222.3188,165.6,223.5187,166.8,222.3188" style="stroke:#181818;stroke-width:0.3;"/><line style="stroke:#181818;stroke-width:0.3;" x1="30.3" x2="167.4" y1="222.3188" y2="222.3188"/><text fill="#000000" font-family="sans-serif" font-size="3.9" font-weight="bold" lengthAdjust="spacing" textLength="4.2" x="32.4" y="220.7399">20</text><text fill="#000000" font-family="sans-serif" font-size="3.9" lengthAdjust="spacing" textLength="23.4" x="37.8" y="220.7399">confirms data</text><polygon fill="#181818" points="288.9,235.6934,291.9,236.8934,288.9,238.0934,290.1,236.8934" style="stroke:#181818;stroke-width:0.3;"/><line style="stroke:#181818;stroke-width:0.3;" x1="172.2" x2="290.7" y1="236.8934" y2="236.8934"/><text fill="#000000" font-family="sans-serif" font-size="3.9" font-weight="bold" lengthAdjust="spacing" textLength="4.2" x="174.3" y="232.7209">21</text><text fill="#000000" font-family="sans-serif" font-size="3.9" lengthAdjust="spacing" textLength="108" x="179.7" y="230.1272">registerCollaborator(name, birthdate, admission date, address,</text><text fill="#000000" font-family="sans-serif" font-size="3.9" lengthAdjust="spacing" textLength="102.3" x="179.7" y="235.3146">mobile contact, email contact, ID doc type, ID number, job)</text><line style="stroke:#181818;stroke-width:0.3;" x1="295.5" x2="309.6" y1="252.2807" y2="252.2807"/><line style="stroke:#181818;stroke-width:0.3;" x1="309.6" x2="309.6" y1="252.2807" y2="256.1807"/><line style="stroke:#181818;stroke-width:0.3;" x1="297.3" x2="309.6" y1="256.1807" y2="256.1807"/><polygon fill="#181818" points="300.3,254.9807,297.3,256.1807,300.3,257.3807,299.1,256.1807" style="stroke:#181818;stroke-width:0.3;"/><text fill="#000000" font-family="sans-serif" font-size="3.9" font-weight="bold" lengthAdjust="spacing" textLength="4.2" x="299.1" y="250.7019">22</text><text fill="#000000" font-family="sans-serif" font-size="3.9" lengthAdjust="spacing" textLength="39.6" x="304.5" y="250.7019">getHRMFromSession()</text><rect fill="none" height="12.9756" style="stroke:#000000;stroke-width:0.44999999999999996;" width="65.1" x="261.45" y="260.0807"/><path d="M261.45,260.0807 L280.05,260.0807 L280.05,262.7807 L277.05,265.7807 L261.45,265.7807 L261.45,260.0807 " fill="#EEEEEE" style="stroke:#000000;stroke-width:0.6;"/><text fill="#000000" font-family="sans-serif" font-size="3.9" font-weight="bold" lengthAdjust="spacing" textLength="5.1" x="265.35" y="264.8892">ref</text><text fill="#000000" font-family="sans-serif" font-size="3.6" lengthAdjust="spacing" textLength="14.7" x="286.65" y="270.8654">Get HRM</text><line style="stroke:#181818;stroke-width:0.3;stroke-dasharray:2.0,2.0;" x1="297" x2="309.6" y1="283.0436" y2="283.0436"/><line style="stroke:#181818;stroke-width:0.3;stroke-dasharray:2.0,2.0;" x1="309.6" x2="309.6" y1="283.0436" y2="286.9436"/><line style="stroke:#181818;stroke-width:0.3;stroke-dasharray:2.0,2.0;" x1="295.5" x2="309.6" y1="286.9436" y2="286.9436"/><polygon fill="#181818" points="298.5,285.7436,295.5,286.9436,298.5,288.1436,297.3,286.9436" style="stroke:#181818;stroke-width:0.3;"/><text fill="#000000" font-family="sans-serif" font-size="3.9" font-weight="bold" lengthAdjust="spacing" textLength="4.2" x="299.1" y="281.4647">23</text><text fill="#000000" font-family="sans-serif" font-size="3.9" lengthAdjust="spacing" textLength="6.6" x="304.5" y="281.4647">hrm</text><polygon fill="#181818" points="429.3,306.3182,432.3,307.5182,429.3,308.7182,430.5,307.5182" style="stroke:#181818;stroke-width:0.3;"/><line style="stroke:#181818;stroke-width:0.3;" x1="295.5" x2="431.1" y1="307.5182" y2="307.5182"/><text fill="#000000" font-family="sans-serif" font-size="3.9" font-weight="bold" lengthAdjust="spacing" textLength="4.2" x="297.6" y="303.3457">24</text><text fill="#000000" font-family="sans-serif" font-size="3.9" lengthAdjust="spacing" textLength="108" x="303" y="300.7521">registerCollaborator(name, birthdate, admission date, address,</text><text fill="#000000" font-family="sans-serif" font-size="3.9" lengthAdjust="spacing" textLength="126.3" x="303" y="305.9394">mobile contact, email contact, taxpayer number, ID doc type, ID number)</text><rect fill="none" height="12.9756" style="stroke:#000000;stroke-width:0.44999999999999996;" width="51" x="408.9" y="309.9182"/><path d="M408.9,309.9182 L427.5,309.9182 L427.5,312.6182 L424.5,315.6182 L408.9,315.6182 L408.9,309.9182 " fill="#EEEEEE" style="stroke:#000000;stroke-width:0.6;"/><text fill="#000000" font-family="sans-serif" font-size="3.9" font-weight="bold" lengthAdjust="spacing" textLength="5.1" x="412.8" y="314.7267">ref</text><text fill="#000000" font-family="sans-serif" font-size="3.6" lengthAdjust="spacing" textLength="35.4" x="416.7" y="320.7029">Register Collaborator</text><rect fill="none" height="12.9756" style="stroke:#000000;stroke-width:0.44999999999999996;" width="51" x="408.9" y="324.3938"/><path d="M408.9,324.3938 L427.5,324.3938 L427.5,327.0938 L424.5,330.0938 L408.9,330.0938 L408.9,324.3938 " fill="#EEEEEE" style="stroke:#000000;stroke-width:0.6;"/><text fill="#000000" font-family="sans-serif" font-size="3.9" font-weight="bold" lengthAdjust="spacing" textLength="5.1" x="412.8" y="329.2022">ref</text><text fill="#000000" font-family="sans-serif" font-size="3.6" lengthAdjust="spacing" textLength="18.3" x="425.25" y="335.1785">Assign Job</text><polygon fill="#181818" points="298.8,344.6566,295.8,345.8566,298.8,347.0566,297.6,345.8566" style="stroke:#181818;stroke-width:0.3;"/><line style="stroke:#181818;stroke-width:0.3;stroke-dasharray:2.0,2.0;" x1="297" x2="434.1" y1="345.8566" y2="345.8566"/><text fill="#000000" font-family="sans-serif" font-size="3.9" font-weight="bold" lengthAdjust="spacing" textLength="4.2" x="300.6" y="344.2778">25</text><text fill="#000000" font-family="sans-serif" font-size="3.9" lengthAdjust="spacing" textLength="20.1" x="306" y="344.2778">collaborator</text><polygon fill="#181818" points="175.5,354.0439,172.5,355.2439,175.5,356.4439,174.3,355.2439" style="stroke:#181818;stroke-width:0.3;"/><line style="stroke:#181818;stroke-width:0.3;stroke-dasharray:2.0,2.0;" x1="173.7" x2="293.7" y1="355.2439" y2="355.2439"/><text fill="#000000" font-family="sans-serif" font-size="3.9" font-weight="bold" lengthAdjust="spacing" textLength="4.2" x="177.3" y="353.6651">26</text><text fill="#000000" font-family="sans-serif" font-size="3.9" lengthAdjust="spacing" textLength="20.1" x="182.7" y="353.6651">collaborator</text><polygon fill="#181818" points="32.1,363.4313,29.1,364.6312,32.1,365.8313,30.9,364.6312" style="stroke:#181818;stroke-width:0.3;"/><line style="stroke:#181818;stroke-width:0.3;" x1="30.3" x2="170.4" y1="364.6312" y2="364.6312"/><text fill="#000000" font-family="sans-serif" font-size="3.9" font-weight="bold" lengthAdjust="spacing" textLength="4.2" x="33.9" y="363.0524">27</text><text fill="#000000" font-family="sans-serif" font-size="3.9" lengthAdjust="spacing" textLength="47.4" x="39.3" y="363.0524">displays operation success</text><!--SRC=[jLVRRk8m47ttLupwqelW1z2g4WlQBOYggxHzwuj91l0siREsQOlKZz-9avAR4zBLra_OENDcF5TZdeLCkUO994ggSATLWc3r7favVabv-CotU6yFCOB6q7AvZQi0i-EHUXLo2niU6sICxwsI-sIDch7pdOWGDahPjNfZFBHAmzdDFk4I0ZHghqCqSCibQT1dm0rCvxUCUAq8HSgbXRD9W5jXBEgPYcE-LfeJn-F2WHyN0x0p9QscVQ5WzX2iMbAfCeAW0et370yEzoAxBTsd8H9M5EWZ-abEgffBcbnpK2VvhTOrqQLQDoIM3GbTCPG4MdR_MaqVwX9LEnlMvJRThQRVxuBf_2vWMNZ42xVeWi2WMBI1yJNv6YOayMp0Aig3tC_0eQgX53fIKOZOELGMyOo9BcET4C-VFHfh8EAMmuNa2LwoAleyr9ZHkAWrQQxTyTKL4UMm6g828S0MhJyq5tM5fULEPVsRuo9EJtxaAXRIK7s4s2JjMqU5lgmRJfCjdrtZmWUPiyjq6SuRuJyO-E6eB24_u_nEtxZCxiOwFUCoslxoP4CksQEfJ2XtfLgzqas6kg8fzoKUg3MNuHVlXvGbSQgAHx0MskxeW7xoA17624h6ZtsaqPWHFCb4hGNDbP1wD6aP0IPSnENMyhUK7wZFvFDa18ivH2e4UqZHRV9pyZrhjgeCOZvCmyZPrlPVEwJ64v6-dk2BzJBeO-lWfcRV3Lq6bK9UKU_zbf5Viy6rsykUs-qyryb-EWtCJhsQBF4W9WhWCZhE2uCnlHn0oRn5LxYo-T0CNOvsLAmrJ3hKPk6EdCvSkeXuQSM6NXwKLnkX4suf5uSOKk3pn6wRmhoJHdlU8F-p9lmbCCgyTSa6PEpx-plp9MqvA6-2sn_q5Bn7Ps0ZWq_KWiODg1UgsDR4pjPFj43ihNEKKPlgc9M5PJkTC6yMdhnPyFLH6Tof_BxigSxIem7h7lp5UwnwlKwqrzkVKJSb7sqbB8lwxDJ1EjNCgltC_uJi6KC1ArOFeBE_XLqkQkPMUqvGRvX094mQyuC1bQ9shGJCFgJ_CSRNKYhRx5Nz5m00]--></g></svg>