<?xml version="1.0" encoding="us-ascii" standalone="no"?><svg xmlns="http://www.w3.org/2000/svg" xmlns:xlink="http://www.w3.org/1999/xlink" contentStyleType="text/css" height="521.7px" preserveAspectRatio="none" style="width:563px;height:521px;background:#FFFFFF;" version="1.1" viewBox="0 0 563 521" width="563.1px" zoomAndPan="magnify"><defs/><g><!--class ApplicationSession--><g id="elem_ApplicationSession"><rect codeLine="11" fill="#F1F1F1" height="25.5727" id="ApplicationSession" rx="0.75" ry="0.75" style="stroke:#181818;stroke-width:0.15;" width="45.3" x="473.85" y="135.15"/><ellipse cx="478.35" cy="139.95" fill="#ADD1B2" rx="3.3" ry="3.3" style="stroke:#181818;stroke-width:0.3;"/><path d="M479.1797,138.7125 Q479.2266,138.6469 479.2828,138.6141 Q479.3391,138.5812 479.4047,138.5812 Q479.5172,138.5812 479.5875,138.6609 Q479.6578,138.7359 479.6578,138.9188 L479.6578,139.3547 Q479.6578,139.5375 479.5875,139.6172 Q479.5172,139.6969 479.4047,139.6969 Q479.3016,139.6969 479.2406,139.6359 Q479.1797,139.5797 479.1469,139.425 Q479.1328,139.3172 479.0766,139.2609 Q478.9781,139.1484 478.7953,139.0828 Q478.6125,139.0172 478.425,139.0172 Q478.1953,139.0172 478.0031,139.1156 Q477.8156,139.2141 477.6656,139.4391 Q477.5203,139.6641 477.5203,139.9734 L477.5203,140.3016 Q477.5203,140.6719 477.7875,140.9203 Q478.0547,141.1641 478.5328,141.1641 Q478.8141,141.1641 479.0109,141.0891 Q479.1281,141.0422 479.2547,140.9109 Q479.3344,140.8312 479.3766,140.8078 Q479.4234,140.7844 479.4844,140.7844 Q479.5828,140.7844 479.6578,140.8641 Q479.7375,140.9391 479.7375,141.0422 Q479.7375,141.1453 479.6344,141.2672 Q479.4844,141.4406 479.2453,141.5391 Q478.9219,141.675 478.5328,141.675 Q478.0781,141.675 477.7172,141.4875 Q477.4219,141.3375 477.2156,141.0187 Q477.0094,140.6953 477.0094,140.3109 L477.0094,139.9641 Q477.0094,139.5656 477.1922,139.2234 Q477.3797,138.8766 477.7078,138.6938 Q478.0359,138.5063 478.4063,138.5063 Q478.6266,138.5063 478.8187,138.5578 Q479.0156,138.6047 479.1797,138.7125 Z " fill="#000000"/><text fill="#000000" font-family="sans-serif" font-size="4.2" lengthAdjust="spacing" textLength="35.7" x="482.55" y="141.6891">ApplicationSession</text><line style="stroke:#181818;stroke-width:0.15;" x1="474.15" x2="518.85" y1="144.75" y2="144.75"/><line style="stroke:#181818;stroke-width:0.15;" x1="474.15" x2="518.85" y1="147.15" y2="147.15"/><text fill="#000000" font-family="sans-serif" font-size="4.2" lengthAdjust="spacing" textLength="38.4" x="475.65" y="152.8822">+static getInstance()</text><text fill="#000000" font-family="sans-serif" font-size="4.2" lengthAdjust="spacing" textLength="40.8" x="475.65" y="158.4686">+getCurrentSession()</text></g><!--class UserSession--><g id="elem_UserSession"><rect codeLine="17" fill="#F1F1F1" height="19.9863" id="UserSession" rx="0.75" ry="0.75" style="stroke:#181818;stroke-width:0.15;" width="33.9" x="463.35" y="234.6"/><ellipse cx="468.12" cy="239.4" fill="#ADD1B2" rx="3.3" ry="3.3" style="stroke:#181818;stroke-width:0.3;"/><path d="M468.9497,238.1625 Q468.9966,238.0969 469.0528,238.0641 Q469.1091,238.0313 469.1747,238.0313 Q469.2872,238.0313 469.3575,238.1109 Q469.4278,238.1859 469.4278,238.3687 L469.4278,238.8047 Q469.4278,238.9875 469.3575,239.0672 Q469.2872,239.1469 469.1747,239.1469 Q469.0716,239.1469 469.0106,239.0859 Q468.9497,239.0297 468.9169,238.875 Q468.9028,238.7672 468.8466,238.7109 Q468.7481,238.5984 468.5653,238.5328 Q468.3825,238.4672 468.195,238.4672 Q467.9653,238.4672 467.7731,238.5656 Q467.5856,238.6641 467.4356,238.8891 Q467.2903,239.1141 467.2903,239.4234 L467.2903,239.7516 Q467.2903,240.1219 467.5575,240.3703 Q467.8247,240.6141 468.3028,240.6141 Q468.5841,240.6141 468.7809,240.5391 Q468.8981,240.4922 469.0247,240.3609 Q469.1044,240.2813 469.1466,240.2578 Q469.1934,240.2344 469.2544,240.2344 Q469.3528,240.2344 469.4278,240.3141 Q469.5075,240.3891 469.5075,240.4922 Q469.5075,240.5953 469.4044,240.7172 Q469.2544,240.8906 469.0153,240.9891 Q468.6919,241.125 468.3028,241.125 Q467.8481,241.125 467.4872,240.9375 Q467.1919,240.7875 466.9856,240.4688 Q466.7794,240.1453 466.7794,239.7609 L466.7794,239.4141 Q466.7794,239.0156 466.9622,238.6734 Q467.1497,238.3266 467.4778,238.1437 Q467.8059,237.9562 468.1763,237.9562 Q468.3966,237.9562 468.5888,238.0078 Q468.7856,238.0547 468.9497,238.1625 Z " fill="#000000"/><text fill="#000000" font-family="sans-serif" font-size="4.2" lengthAdjust="spacing" textLength="23.7" x="472.38" y="241.1391">UserSession</text><line style="stroke:#181818;stroke-width:0.15;" x1="463.65" x2="496.95" y1="244.2" y2="244.2"/><line style="stroke:#181818;stroke-width:0.15;" x1="463.65" x2="496.95" y1="246.6" y2="246.6"/><text fill="#000000" font-family="sans-serif" font-size="4.2" lengthAdjust="spacing" textLength="30.3" x="465.15" y="252.3322">+getUserEmail()</text></g><!--class Collaborator--><g id="elem_Collaborator"><rect codeLine="22" fill="#F1F1F1" height="70.2633" id="Collaborator" rx="0.75" ry="0.75" style="stroke:#181818;stroke-width:0.15;" width="47.1" x="101.25" y="389.1"/><ellipse cx="112.095" cy="393.9" fill="#ADD1B2" rx="3.3" ry="3.3" style="stroke:#181818;stroke-width:0.3;"/><path d="M112.9247,392.6625 Q112.9716,392.5969 113.0278,392.5641 Q113.0841,392.5313 113.1497,392.5313 Q113.2622,392.5313 113.3325,392.6109 Q113.4028,392.6859 113.4028,392.8688 L113.4028,393.3047 Q113.4028,393.4875 113.3325,393.5672 Q113.2622,393.6469 113.1497,393.6469 Q113.0466,393.6469 112.9856,393.5859 Q112.9247,393.5297 112.8919,393.375 Q112.8778,393.2672 112.8216,393.2109 Q112.7231,393.0984 112.5403,393.0328 Q112.3575,392.9672 112.17,392.9672 Q111.9403,392.9672 111.7481,393.0656 Q111.5606,393.1641 111.4106,393.3891 Q111.2653,393.6141 111.2653,393.9234 L111.2653,394.2516 Q111.2653,394.6219 111.5325,394.8703 Q111.7997,395.1141 112.2778,395.1141 Q112.5591,395.1141 112.7559,395.0391 Q112.8731,394.9922 112.9997,394.8609 Q113.0794,394.7813 113.1216,394.7578 Q113.1684,394.7344 113.2294,394.7344 Q113.3278,394.7344 113.4028,394.8141 Q113.4825,394.8891 113.4825,394.9922 Q113.4825,395.0953 113.3794,395.2172 Q113.2294,395.3906 112.9903,395.4891 Q112.6669,395.625 112.2778,395.625 Q111.8231,395.625 111.4622,395.4375 Q111.1669,395.2875 110.9606,394.9688 Q110.7544,394.6453 110.7544,394.2609 L110.7544,393.9141 Q110.7544,393.5156 110.9372,393.1734 Q111.1247,392.8266 111.4528,392.6438 Q111.7809,392.4563 112.1512,392.4563 Q112.3716,392.4563 112.5637,392.5078 Q112.7606,392.5547 112.9247,392.6625 Z " fill="#000000"/><text fill="#000000" font-family="sans-serif" font-size="4.2" lengthAdjust="spacing" textLength="23.4" x="117.705" y="395.6391">Collaborator</text><line style="stroke:#181818;stroke-width:0.15;" x1="101.55" x2="148.05" y1="398.7" y2="398.7"/><text fill="#000000" font-family="sans-serif" font-size="4.2" lengthAdjust="spacing" textLength="25.5" x="103.05" y="404.4322">-name: String</text><text fill="#000000" font-family="sans-serif" font-size="4.2" lengthAdjust="spacing" textLength="31.8" x="103.05" y="410.0186">-birthdate: String</text><text fill="#000000" font-family="sans-serif" font-size="4.2" lengthAdjust="spacing" textLength="43.5" x="103.05" y="415.6049">-admission date: String</text><text fill="#000000" font-family="sans-serif" font-size="4.2" lengthAdjust="spacing" textLength="30.3" x="103.05" y="421.1912">-address: String</text><text fill="#000000" font-family="sans-serif" font-size="4.2" lengthAdjust="spacing" textLength="36.6" x="103.05" y="426.7775">-mobile Contact: int</text><text fill="#000000" font-family="sans-serif" font-size="4.2" lengthAdjust="spacing" textLength="39.9" x="103.05" y="432.3639">-email contact: String</text><text fill="#000000" font-family="sans-serif" font-size="4.2" lengthAdjust="spacing" textLength="40.2" x="103.05" y="437.9502">-taxpayer number: int</text><text fill="#000000" font-family="sans-serif" font-size="4.2" lengthAdjust="spacing" textLength="36.3" x="103.05" y="443.5365">-ID doc type: String</text><text fill="#000000" font-family="sans-serif" font-size="4.2" lengthAdjust="spacing" textLength="27.9" x="103.05" y="449.1229">-ID number: int</text><line style="stroke:#181818;stroke-width:0.15;" x1="101.55" x2="148.05" y1="451.377" y2="451.377"/><text fill="#000000" font-family="sans-serif" font-size="4.2" lengthAdjust="spacing" textLength="27" x="103.05" y="457.1092">+addSkill(skill)</text></g><!--class CollaboratorRepository--><g id="elem_CollaboratorRepository"><rect codeLine="35" fill="#F1F1F1" height="109.3676" id="CollaboratorRepository" rx="0.75" ry="0.75" style="stroke:#181818;stroke-width:0.15;" width="110.7" x="283.65" y="189.9"/><ellipse cx="315.825" cy="194.7" fill="#ADD1B2" rx="3.3" ry="3.3" style="stroke:#181818;stroke-width:0.3;"/><path d="M316.6547,193.4625 Q316.7016,193.3969 316.7578,193.3641 Q316.8141,193.3312 316.8797,193.3312 Q316.9922,193.3312 317.0625,193.4109 Q317.1328,193.4859 317.1328,193.6688 L317.1328,194.1047 Q317.1328,194.2875 317.0625,194.3672 Q316.9922,194.4469 316.8797,194.4469 Q316.7766,194.4469 316.7156,194.3859 Q316.6547,194.3297 316.6219,194.175 Q316.6078,194.0672 316.5516,194.0109 Q316.4531,193.8984 316.2703,193.8328 Q316.0875,193.7672 315.9,193.7672 Q315.6703,193.7672 315.4781,193.8656 Q315.2906,193.9641 315.1406,194.1891 Q314.9953,194.4141 314.9953,194.7234 L314.9953,195.0516 Q314.9953,195.4219 315.2625,195.6703 Q315.5297,195.9141 316.0078,195.9141 Q316.2891,195.9141 316.4859,195.8391 Q316.6031,195.7922 316.7297,195.6609 Q316.8094,195.5812 316.8516,195.5578 Q316.8984,195.5344 316.9594,195.5344 Q317.0578,195.5344 317.1328,195.6141 Q317.2125,195.6891 317.2125,195.7922 Q317.2125,195.8953 317.1094,196.0172 Q316.9594,196.1906 316.7203,196.2891 Q316.3969,196.425 316.0078,196.425 Q315.5531,196.425 315.1922,196.2375 Q314.8969,196.0875 314.6906,195.7687 Q314.4844,195.4453 314.4844,195.0609 L314.4844,194.7141 Q314.4844,194.3156 314.6672,193.9734 Q314.8547,193.6266 315.1828,193.4438 Q315.5109,193.2563 315.8812,193.2563 Q316.1016,193.2563 316.2938,193.3078 Q316.4906,193.3547 316.6547,193.4625 Z " fill="#000000"/><text fill="#000000" font-family="sans-serif" font-size="4.2" lengthAdjust="spacing" textLength="43.8" x="321.975" y="196.4391">CollaboratorRepository</text><line style="stroke:#181818;stroke-width:0.15;" x1="283.95" x2="394.05" y1="199.5" y2="199.5"/><text fill="#000000" font-family="sans-serif" font-size="4.2" lengthAdjust="spacing" textLength="62.1" x="285.45" y="205.2322">-List&lt;Collaborator&gt; collaborators</text><line style="stroke:#181818;stroke-width:0.15;" x1="283.95" x2="394.05" y1="207.4863" y2="207.4863"/><text fill="#000000" font-family="sans-serif" font-size="4.2" lengthAdjust="spacing" textLength="105" x="285.45" y="213.2186">+Optional&lt;Collaborator&gt; add(Collaborator collaborator)</text><text fill="#000000" font-family="sans-serif" font-size="4.2" lengthAdjust="spacing" textLength="92.1" x="285.45" y="218.8049">+Collaborator getCollaboratorByID(int IDnumber)</text><text fill="#000000" font-family="sans-serif" font-size="4.2" lengthAdjust="spacing" textLength="77.4" x="285.45" y="224.3912">+List&lt;Collaborator&gt; getCollaboratorList()</text><text fill="#000000" font-family="sans-serif" font-size="4.2" lengthAdjust="spacing" textLength="83.1" x="285.45" y="229.9775">+addCollaborator(Collaborator collaborator)</text><text fill="#000000" font-family="sans-serif" font-size="4.2" lengthAdjust="spacing" textLength="87" x="285.45" y="235.5639">+Optional&lt;Collaborator&gt; registerCollaborator(</text><text fill="#000000" font-family="sans-serif" font-size="4.2" lengthAdjust="spacing" textLength="25.2" x="285.45" y="241.1502">name: String,</text><text fill="#000000" font-family="sans-serif" font-size="4.2" lengthAdjust="spacing" textLength="31.5" x="285.45" y="246.7365">birthdate: String,</text><text fill="#000000" font-family="sans-serif" font-size="4.2" lengthAdjust="spacing" textLength="42" x="285.45" y="252.3229">admissiondate: String,</text><text fill="#000000" font-family="sans-serif" font-size="4.2" lengthAdjust="spacing" textLength="30" x="285.45" y="257.9092">address: String,</text><text fill="#000000" font-family="sans-serif" font-size="4.2" lengthAdjust="spacing" textLength="20.4" x="285.45" y="263.4955">mobile: int,</text><text fill="#000000" font-family="sans-serif" font-size="4.2" lengthAdjust="spacing" textLength="24.6" x="285.45" y="269.0818">email: String,</text><text fill="#000000" font-family="sans-serif" font-size="4.2" lengthAdjust="spacing" textLength="24.3" x="285.45" y="274.6682">taxpayer: int,</text><text fill="#000000" font-family="sans-serif" font-size="4.2" lengthAdjust="spacing" textLength="33.6" x="285.45" y="280.2545">IDdoctype: String,</text><text fill="#000000" font-family="sans-serif" font-size="4.2" lengthAdjust="spacing" textLength="26.7" x="285.45" y="285.8408">IDnumber: int)</text><text fill="#000000" font-family="sans-serif" font-size="4.2" lengthAdjust="spacing" textLength="107.1" x="285.45" y="291.4271">+boolean validateCollaborator(Collaborator collaborator)</text><text fill="#000000" font-family="sans-serif" font-size="4.2" lengthAdjust="spacing" textLength="98.1" x="285.45" y="297.0135">+void updateCollaborator(Collaborator collaborator)</text></g><!--class Organization--><g id="elem_Organization"><rect codeLine="46" fill="#F1F1F1" height="42.3316" id="Organization" rx="0.75" ry="0.75" style="stroke:#181818;stroke-width:0.15;" width="37.8" x="72.9" y="323.1"/><ellipse cx="79.29" cy="327.9" fill="#ADD1B2" rx="3.3" ry="3.3" style="stroke:#181818;stroke-width:0.3;"/><path d="M80.1197,326.6625 Q80.1666,326.5969 80.2228,326.5641 Q80.2791,326.5313 80.3447,326.5313 Q80.4572,326.5313 80.5275,326.6109 Q80.5978,326.6859 80.5978,326.8688 L80.5978,327.3047 Q80.5978,327.4875 80.5275,327.5672 Q80.4572,327.6469 80.3447,327.6469 Q80.2416,327.6469 80.1806,327.5859 Q80.1197,327.5297 80.0869,327.375 Q80.0728,327.2672 80.0166,327.2109 Q79.9181,327.0984 79.7353,327.0328 Q79.5525,326.9672 79.365,326.9672 Q79.1353,326.9672 78.9431,327.0656 Q78.7556,327.1641 78.6056,327.3891 Q78.4603,327.6141 78.4603,327.9234 L78.4603,328.2516 Q78.4603,328.6219 78.7275,328.8703 Q78.9947,329.1141 79.4728,329.1141 Q79.7541,329.1141 79.9509,329.0391 Q80.0681,328.9922 80.1947,328.8609 Q80.2744,328.7813 80.3166,328.7578 Q80.3634,328.7344 80.4244,328.7344 Q80.5228,328.7344 80.5978,328.8141 Q80.6775,328.8891 80.6775,328.9922 Q80.6775,329.0953 80.5744,329.2172 Q80.4244,329.3906 80.1853,329.4891 Q79.8619,329.625 79.4728,329.625 Q79.0181,329.625 78.6572,329.4375 Q78.3619,329.2875 78.1556,328.9688 Q77.9494,328.6453 77.9494,328.2609 L77.9494,327.9141 Q77.9494,327.5156 78.1322,327.1734 Q78.3197,326.8266 78.6478,326.6438 Q78.9759,326.4563 79.3463,326.4563 Q79.5666,326.4563 79.7588,326.5078 Q79.9556,326.5547 80.1197,326.6625 Z " fill="#000000"/><text fill="#000000" font-family="sans-serif" font-size="4.2" lengthAdjust="spacing" textLength="24" x="83.91" y="329.6391">Organization</text><line style="stroke:#181818;stroke-width:0.15;" x1="73.2" x2="110.4" y1="332.7" y2="332.7"/><text fill="#000000" font-family="sans-serif" font-size="4.2" lengthAdjust="spacing" textLength="24.3" x="74.7" y="338.4322">-String name</text><text fill="#000000" font-family="sans-serif" font-size="4.2" lengthAdjust="spacing" textLength="34.2" x="74.7" y="344.0186">-String vatNumber</text><text fill="#000000" font-family="sans-serif" font-size="4.2" lengthAdjust="spacing" textLength="29.1" x="74.7" y="349.6049">-String address</text><text fill="#000000" font-family="sans-serif" font-size="4.2" lengthAdjust="spacing" textLength="25.8" x="74.7" y="355.1912">-String phone</text><text fill="#000000" font-family="sans-serif" font-size="4.2" lengthAdjust="spacing" textLength="23.7" x="74.7" y="360.7775">-String email</text><line style="stroke:#181818;stroke-width:0.15;" x1="73.2" x2="110.4" y1="363.0316" y2="363.0316"/></g><!--class OrganizationRepository--><g id="elem_OrganizationRepository"><rect codeLine="54" fill="#F1F1F1" height="42.3316" id="OrganizationRepository" rx="0.75" ry="0.75" style="stroke:#181818;stroke-width:0.15;" width="131.1" x="83.25" y="223.5"/><ellipse cx="125.325" cy="228.3" fill="#ADD1B2" rx="3.3" ry="3.3" style="stroke:#181818;stroke-width:0.3;"/><path d="M126.1547,227.0625 Q126.2016,226.9969 126.2578,226.9641 Q126.3141,226.9313 126.3797,226.9313 Q126.4922,226.9313 126.5625,227.0109 Q126.6328,227.0859 126.6328,227.2687 L126.6328,227.7047 Q126.6328,227.8875 126.5625,227.9672 Q126.4922,228.0469 126.3797,228.0469 Q126.2766,228.0469 126.2156,227.9859 Q126.1547,227.9297 126.1219,227.775 Q126.1078,227.6672 126.0516,227.6109 Q125.9531,227.4984 125.7703,227.4328 Q125.5875,227.3672 125.4,227.3672 Q125.1703,227.3672 124.9781,227.4656 Q124.7906,227.5641 124.6406,227.7891 Q124.4953,228.0141 124.4953,228.3234 L124.4953,228.6516 Q124.4953,229.0219 124.7625,229.2703 Q125.0297,229.5141 125.5078,229.5141 Q125.7891,229.5141 125.9859,229.4391 Q126.1031,229.3922 126.2297,229.2609 Q126.3094,229.1813 126.3516,229.1578 Q126.3984,229.1344 126.4594,229.1344 Q126.5578,229.1344 126.6328,229.2141 Q126.7125,229.2891 126.7125,229.3922 Q126.7125,229.4953 126.6094,229.6172 Q126.4594,229.7906 126.2203,229.8891 Q125.8969,230.025 125.5078,230.025 Q125.0531,230.025 124.6922,229.8375 Q124.3969,229.6875 124.1906,229.3688 Q123.9844,229.0453 123.9844,228.6609 L123.9844,228.3141 Q123.9844,227.9156 124.1672,227.5734 Q124.3547,227.2266 124.6828,227.0438 Q125.0109,226.8563 125.3813,226.8563 Q125.6016,226.8563 125.7937,226.9078 Q125.9906,226.9547 126.1547,227.0625 Z " fill="#000000"/><text fill="#000000" font-family="sans-serif" font-size="4.2" lengthAdjust="spacing" textLength="44.4" x="131.475" y="230.0391">OrganizationRepository</text><line style="stroke:#181818;stroke-width:0.15;" x1="83.55" x2="214.05" y1="233.1" y2="233.1"/><line style="stroke:#181818;stroke-width:0.15;" x1="83.55" x2="214.05" y1="235.5" y2="235.5"/><text fill="#000000" font-family="sans-serif" font-size="4.2" lengthAdjust="spacing" textLength="112.5" x="85.05" y="241.2322">+Optional&lt;Organization&gt; getOrganizationByHRM(HRM hrm)</text><text fill="#000000" font-family="sans-serif" font-size="4.2" lengthAdjust="spacing" textLength="111.3" x="85.05" y="246.8186">+Optional&lt;Organization&gt; getOrganizationByVFM(VFM vfm)</text><text fill="#000000" font-family="sans-serif" font-size="4.2" lengthAdjust="spacing" textLength="127.5" x="85.05" y="252.4049">+Optional&lt;Organization&gt; getOrganizationByHRMEmail(String email)</text><text fill="#000000" font-family="sans-serif" font-size="4.2" lengthAdjust="spacing" textLength="106.8" x="85.05" y="257.9912">+Optional&lt;Organization&gt; add(Organization organization)</text><text fill="#000000" font-family="sans-serif" font-size="4.2" lengthAdjust="spacing" textLength="108.9" x="85.05" y="263.5775">+boolean validateOrganization(Organization organization)</text></g><!--class Repositories--><g id="elem_Repositories"><rect codeLine="62" fill="#F1F1F1" height="36.7453" id="Repositories" rx="0.75" ry="0.75" style="stroke:#181818;stroke-width:0.15;" width="107.4" x="265.5" y="129.6"/><ellipse cx="306.075" cy="134.4" fill="#ADD1B2" rx="3.3" ry="3.3" style="stroke:#181818;stroke-width:0.3;"/><path d="M306.9047,133.1625 Q306.9516,133.0969 307.0078,133.0641 Q307.0641,133.0313 307.1297,133.0313 Q307.2422,133.0313 307.3125,133.1109 Q307.3828,133.1859 307.3828,133.3688 L307.3828,133.8047 Q307.3828,133.9875 307.3125,134.0672 Q307.2422,134.1469 307.1297,134.1469 Q307.0266,134.1469 306.9656,134.0859 Q306.9047,134.0297 306.8719,133.875 Q306.8578,133.7672 306.8016,133.7109 Q306.7031,133.5984 306.5203,133.5328 Q306.3375,133.4672 306.15,133.4672 Q305.9203,133.4672 305.7281,133.5656 Q305.5406,133.6641 305.3906,133.8891 Q305.2453,134.1141 305.2453,134.4234 L305.2453,134.7516 Q305.2453,135.1219 305.5125,135.3703 Q305.7797,135.6141 306.2578,135.6141 Q306.5391,135.6141 306.7359,135.5391 Q306.8531,135.4922 306.9797,135.3609 Q307.0594,135.2813 307.1016,135.2578 Q307.1484,135.2344 307.2094,135.2344 Q307.3078,135.2344 307.3828,135.3141 Q307.4625,135.3891 307.4625,135.4922 Q307.4625,135.5953 307.3594,135.7172 Q307.2094,135.8906 306.9703,135.9891 Q306.6469,136.125 306.2578,136.125 Q305.8031,136.125 305.4422,135.9375 Q305.1469,135.7875 304.9406,135.4688 Q304.7344,135.1453 304.7344,134.7609 L304.7344,134.4141 Q304.7344,134.0156 304.9172,133.6734 Q305.1047,133.3266 305.4328,133.1437 Q305.7609,132.9562 306.1312,132.9562 Q306.3516,132.9562 306.5438,133.0078 Q306.7406,133.0547 306.9047,133.1625 Z " fill="#000000"/><text fill="#000000" font-family="sans-serif" font-size="4.2" lengthAdjust="spacing" textLength="23.7" x="312.225" y="136.1391">Repositories</text><line style="stroke:#181818;stroke-width:0.15;" x1="265.8" x2="372.6" y1="139.2" y2="139.2"/><line style="stroke:#181818;stroke-width:0.15;" x1="265.8" x2="372.6" y1="141.6" y2="141.6"/><text fill="#000000" font-family="sans-serif" font-size="4.2" lengthAdjust="spacing" textLength="54.6" x="267.3" y="147.3322">+getInstance() : Repositories</text><text fill="#000000" font-family="sans-serif" font-size="4.2" lengthAdjust="spacing" textLength="102.6" x="267.3" y="152.9186">+getCollaboratorRepository() : CollaboratorRepository</text><text fill="#000000" font-family="sans-serif" font-size="4.2" lengthAdjust="spacing" textLength="69" x="267.3" y="158.5049">+getJobRepository() : JobRepository</text><text fill="#000000" font-family="sans-serif" font-size="4.2" lengthAdjust="spacing" textLength="103.8" x="267.3" y="164.0912">+getOrganizationRepository() : OrganizationRepository</text></g><!--class RegisterCollaboratorController--><g id="elem_RegisterCollaboratorController"><rect codeLine="69" fill="#F1F1F1" height="103.7813" id="RegisterCollaboratorController" rx="0.75" ry="0.75" style="stroke:#181818;stroke-width:0.15;" width="123.9" x="331.05" y="2.1"/><ellipse cx="362.775" cy="6.9" fill="#ADD1B2" rx="3.3" ry="3.3" style="stroke:#181818;stroke-width:0.3;"/><path d="M363.6047,5.6625 Q363.6516,5.5969 363.7078,5.5641 Q363.7641,5.5313 363.8297,5.5313 Q363.9422,5.5313 364.0125,5.6109 Q364.0828,5.6859 364.0828,5.8687 L364.0828,6.3047 Q364.0828,6.4875 364.0125,6.5672 Q363.9422,6.6469 363.8297,6.6469 Q363.7266,6.6469 363.6656,6.5859 Q363.6047,6.5297 363.5719,6.375 Q363.5578,6.2672 363.5016,6.2109 Q363.4031,6.0984 363.2203,6.0328 Q363.0375,5.9672 362.85,5.9672 Q362.6203,5.9672 362.4281,6.0656 Q362.2406,6.1641 362.0906,6.3891 Q361.9453,6.6141 361.9453,6.9234 L361.9453,7.2516 Q361.9453,7.6219 362.2125,7.8703 Q362.4797,8.1141 362.9578,8.1141 Q363.2391,8.1141 363.4359,8.0391 Q363.5531,7.9922 363.6797,7.8609 Q363.7594,7.7813 363.8016,7.7578 Q363.8484,7.7344 363.9094,7.7344 Q364.0078,7.7344 364.0828,7.8141 Q364.1625,7.8891 364.1625,7.9922 Q364.1625,8.0953 364.0594,8.2172 Q363.9094,8.3906 363.6703,8.4891 Q363.3469,8.625 362.9578,8.625 Q362.5031,8.625 362.1422,8.4375 Q361.8469,8.2875 361.6406,7.9688 Q361.4344,7.6453 361.4344,7.2609 L361.4344,6.9141 Q361.4344,6.5156 361.6172,6.1734 Q361.8047,5.8266 362.1328,5.6438 Q362.4609,5.4563 362.8313,5.4563 Q363.0516,5.4563 363.2438,5.5078 Q363.4406,5.5547 363.6047,5.6625 Z " fill="#000000"/><text fill="#000000" font-family="sans-serif" font-size="4.2" lengthAdjust="spacing" textLength="57.9" x="368.925" y="8.6391">RegisterCollaboratorController</text><line style="stroke:#181818;stroke-width:0.15;" x1="331.35" x2="454.65" y1="11.7" y2="11.7"/><line style="stroke:#181818;stroke-width:0.15;" x1="331.35" x2="454.65" y1="14.1" y2="14.1"/><text fill="#000000" font-family="sans-serif" font-size="4.2" lengthAdjust="spacing" textLength="100.2" x="332.85" y="19.8322">+CollaboratorRepository getCollaboratorRepository()</text><text fill="#000000" font-family="sans-serif" font-size="4.2" lengthAdjust="spacing" textLength="101.4" x="332.85" y="25.4186">+OrganizationRepository getOrganizationRepository()</text><text fill="#000000" font-family="sans-serif" font-size="4.2" lengthAdjust="spacing" textLength="107.4" x="332.85" y="31.0049">+AuthenticationRepository getAuthenticationRepository()</text><text fill="#000000" font-family="sans-serif" font-size="4.2" lengthAdjust="spacing" textLength="66.6" x="332.85" y="36.5912">+JobRepository getJobRepository()</text><text fill="#000000" font-family="sans-serif" font-size="4.2" lengthAdjust="spacing" textLength="55.5" x="332.85" y="42.1775">+HRM getHRMFromSession()</text><text fill="#000000" font-family="sans-serif" font-size="4.2" lengthAdjust="spacing" textLength="119.1" x="332.85" y="47.7639">+Optional&lt;Collaborator&gt; registerCollaborator(HRManager hrm,</text><text fill="#000000" font-family="sans-serif" font-size="4.2" lengthAdjust="spacing" textLength="25.2" x="332.85" y="53.3502">name: String,</text><text fill="#000000" font-family="sans-serif" font-size="4.2" lengthAdjust="spacing" textLength="31.5" x="332.85" y="58.9365">birthdate: String,</text><text fill="#000000" font-family="sans-serif" font-size="4.2" lengthAdjust="spacing" textLength="42" x="332.85" y="64.5229">admissiondate: String,</text><text fill="#000000" font-family="sans-serif" font-size="4.2" lengthAdjust="spacing" textLength="30" x="332.85" y="70.1092">address: String,</text><text fill="#000000" font-family="sans-serif" font-size="4.2" lengthAdjust="spacing" textLength="20.4" x="332.85" y="75.6955">mobile: int,</text><text fill="#000000" font-family="sans-serif" font-size="4.2" lengthAdjust="spacing" textLength="24.6" x="332.85" y="81.2818">email: String,</text><text fill="#000000" font-family="sans-serif" font-size="4.2" lengthAdjust="spacing" textLength="39.9" x="332.85" y="86.8682">taxpayer number: int,</text><text fill="#000000" font-family="sans-serif" font-size="4.2" lengthAdjust="spacing" textLength="33.6" x="332.85" y="92.4545">IDdoctype: String,</text><text fill="#000000" font-family="sans-serif" font-size="4.2" lengthAdjust="spacing" textLength="26.7" x="332.85" y="98.0408">IDnumber: int)</text><text fill="#000000" font-family="sans-serif" font-size="4.2" lengthAdjust="spacing" textLength="107.1" x="332.85" y="103.6271">+void assignJobToCollaborator(collaboratorID, jobName)</text></g><!--class RegisterCollaboratorUI--><g id="elem_RegisterCollaboratorUI"><rect codeLine="79" fill="#F1F1F1" height="75.8496" id="RegisterCollaboratorUI" rx="0.75" ry="0.75" style="stroke:#181818;stroke-width:0.15;" width="112.5" x="208.05" y="16.05"/><ellipse cx="241.575" cy="20.85" fill="#ADD1B2" rx="3.3" ry="3.3" style="stroke:#181818;stroke-width:0.3;"/><path d="M242.4047,19.6125 Q242.4516,19.5469 242.5078,19.5141 Q242.5641,19.4813 242.6297,19.4813 Q242.7422,19.4813 242.8125,19.5609 Q242.8828,19.6359 242.8828,19.8187 L242.8828,20.2547 Q242.8828,20.4375 242.8125,20.5172 Q242.7422,20.5969 242.6297,20.5969 Q242.5266,20.5969 242.4656,20.5359 Q242.4047,20.4797 242.3719,20.325 Q242.3578,20.2172 242.3016,20.1609 Q242.2031,20.0484 242.0203,19.9828 Q241.8375,19.9172 241.65,19.9172 Q241.4203,19.9172 241.2281,20.0156 Q241.0406,20.1141 240.8906,20.3391 Q240.7453,20.5641 240.7453,20.8734 L240.7453,21.2016 Q240.7453,21.5719 241.0125,21.8203 Q241.2797,22.0641 241.7578,22.0641 Q242.0391,22.0641 242.2359,21.9891 Q242.3531,21.9422 242.4797,21.8109 Q242.5594,21.7313 242.6016,21.7078 Q242.6484,21.6844 242.7094,21.6844 Q242.8078,21.6844 242.8828,21.7641 Q242.9625,21.8391 242.9625,21.9422 Q242.9625,22.0453 242.8594,22.1672 Q242.7094,22.3406 242.4703,22.4391 Q242.1469,22.575 241.7578,22.575 Q241.3031,22.575 240.9422,22.3875 Q240.6469,22.2375 240.4406,21.9188 Q240.2344,21.5953 240.2344,21.2109 L240.2344,20.8641 Q240.2344,20.4656 240.4172,20.1234 Q240.6047,19.7766 240.9328,19.5938 Q241.2609,19.4063 241.6313,19.4063 Q241.8516,19.4063 242.0438,19.4578 Q242.2406,19.5047 242.4047,19.6125 Z " fill="#000000"/><text fill="#000000" font-family="sans-serif" font-size="4.2" lengthAdjust="spacing" textLength="42.9" x="247.725" y="22.5891">RegisterCollaboratorUI</text><line style="stroke:#181818;stroke-width:0.15;" x1="208.35" x2="320.25" y1="25.65" y2="25.65"/><line style="stroke:#181818;stroke-width:0.15;" x1="208.35" x2="320.25" y1="28.05" y2="28.05"/><text fill="#000000" font-family="sans-serif" font-size="4.2" lengthAdjust="spacing" textLength="66.3" x="209.85" y="33.7822">+String requestCollaboratorName()</text><text fill="#000000" font-family="sans-serif" font-size="4.2" lengthAdjust="spacing" textLength="73.2" x="209.85" y="39.3686">+String requestCollaboratorBirthDate()</text><text fill="#000000" font-family="sans-serif" font-size="4.2" lengthAdjust="spacing" textLength="83.7" x="209.85" y="44.9549">+String requestCollaboratorAdmissionDate()</text><text fill="#000000" font-family="sans-serif" font-size="4.2" lengthAdjust="spacing" textLength="71.1" x="209.85" y="50.5412">+String requestCollaboratorAddress()</text><text fill="#000000" font-family="sans-serif" font-size="4.2" lengthAdjust="spacing" textLength="61.2" x="209.85" y="56.1275">+int requestCollaboratorMobile()</text><text fill="#000000" font-family="sans-serif" font-size="4.2" lengthAdjust="spacing" textLength="65.7" x="209.85" y="61.7139">+String requestCollaboratorEmail()</text><text fill="#000000" font-family="sans-serif" font-size="4.2" lengthAdjust="spacing" textLength="81.3" x="209.85" y="67.3002">+int requestCollaboratorTaxpayerNumber()</text><text fill="#000000" font-family="sans-serif" font-size="4.2" lengthAdjust="spacing" textLength="72.6" x="209.85" y="72.8865">+String requestCollaboratorDocType()</text><text fill="#000000" font-family="sans-serif" font-size="4.2" lengthAdjust="spacing" textLength="67.5" x="209.85" y="78.4729">+int requestCollaboratorIDNumber()</text><text fill="#000000" font-family="sans-serif" font-size="4.2" lengthAdjust="spacing" textLength="108.9" x="209.85" y="84.0592">+void assignJobToCollaborator(Collaborator collaborator)</text><text fill="#000000" font-family="sans-serif" font-size="4.2" lengthAdjust="spacing" textLength="30.9" x="209.85" y="89.6455">+Job selectJob()</text></g><!--class HRManager--><g id="elem_HRManager"><rect codeLine="93" fill="#F1F1F1" height="36.7453" id="HRManager" rx="0.75" ry="0.75" style="stroke:#181818;stroke-width:0.15;" width="32.1" x="67.95" y="483"/><ellipse cx="72.45" cy="487.8" fill="#ADD1B2" rx="3.3" ry="3.3" style="stroke:#181818;stroke-width:0.3;"/><path d="M73.2797,486.5625 Q73.3266,486.4969 73.3828,486.4641 Q73.4391,486.4313 73.5047,486.4313 Q73.6172,486.4313 73.6875,486.5109 Q73.7578,486.5859 73.7578,486.7687 L73.7578,487.2047 Q73.7578,487.3875 73.6875,487.4672 Q73.6172,487.5469 73.5047,487.5469 Q73.4016,487.5469 73.3406,487.4859 Q73.2797,487.4297 73.2469,487.275 Q73.2328,487.1672 73.1766,487.1109 Q73.0781,486.9984 72.8953,486.9328 Q72.7125,486.8672 72.525,486.8672 Q72.2953,486.8672 72.1031,486.9656 Q71.9156,487.0641 71.7656,487.2891 Q71.6203,487.5141 71.6203,487.8234 L71.6203,488.1516 Q71.6203,488.5219 71.8875,488.7703 Q72.1547,489.0141 72.6328,489.0141 Q72.9141,489.0141 73.1109,488.9391 Q73.2281,488.8922 73.3547,488.7609 Q73.4344,488.6813 73.4766,488.6578 Q73.5234,488.6344 73.5844,488.6344 Q73.6828,488.6344 73.7578,488.7141 Q73.8375,488.7891 73.8375,488.8922 Q73.8375,488.9953 73.7344,489.1172 Q73.5844,489.2906 73.3453,489.3891 Q73.0219,489.525 72.6328,489.525 Q72.1781,489.525 71.8172,489.3375 Q71.5219,489.1875 71.3156,488.8688 Q71.1094,488.5453 71.1094,488.1609 L71.1094,487.8141 Q71.1094,487.4156 71.2922,487.0734 Q71.4797,486.7266 71.8078,486.5438 Q72.1359,486.3563 72.5063,486.3563 Q72.7266,486.3563 72.9188,486.4078 Q73.1156,486.4547 73.2797,486.5625 Z " fill="#000000"/><text fill="#000000" font-family="sans-serif" font-size="4.2" lengthAdjust="spacing" textLength="22.5" x="76.65" y="489.5391">HRManager</text><line style="stroke:#181818;stroke-width:0.15;" x1="68.25" x2="99.75" y1="492.6" y2="492.6"/><text fill="#000000" font-family="sans-serif" font-size="4.2" lengthAdjust="spacing" textLength="24.3" x="69.75" y="498.3322">-String name</text><text fill="#000000" font-family="sans-serif" font-size="4.2" lengthAdjust="spacing" textLength="27.6" x="69.75" y="503.9186">-int vatNumber</text><text fill="#000000" font-family="sans-serif" font-size="4.2" lengthAdjust="spacing" textLength="23.7" x="69.75" y="509.5049">-String email</text><text fill="#000000" font-family="sans-serif" font-size="4.2" lengthAdjust="spacing" textLength="21.6" x="69.75" y="515.0912">-int number</text><line style="stroke:#181818;stroke-width:0.15;" x1="68.25" x2="99.75" y1="517.3453" y2="517.3453"/></g><g id="elem_GMN12"><path d="M465.45,47.25 L465.45,52.8 L455.028,54 L465.45,55.2 L465.45,60.6246 A0,0 0 0 0 465.45,60.6246 L561.15,60.6246 A0,0 0 0 0 561.15,60.6246 L561.15,50.25 L558.15,47.25 L465.45,47.25 A0,0 0 0 0 465.45,47.25 " fill="#FEFFDD" style="stroke:#181818;stroke-width:0.15;"/><path d="M558.15,47.25 L558.15,50.25 L561.15,50.25 L558.15,47.25 " fill="#FEFFDD" style="stroke:#181818;stroke-width:0.15;"/><text fill="#000000" font-family="sans-serif" font-size="3.9" lengthAdjust="spacing" textLength="89.4" x="467.25" y="52.9585">- Collaborator data is obtained from the HRM's input</text><text fill="#000000" font-family="sans-serif" font-size="3.9" lengthAdjust="spacing" textLength="65.1" x="467.25" y="58.1458">- Updates the Collaborator Repository</text></g><g id="elem_GMN15"><path d="M110.7,497.25 L110.7,505.4373 L184.5,505.4373 L184.5,500.25 L181.5,497.25 L110.7,497.25 " fill="#FEFFDD" style="stroke:#181818;stroke-width:0.15;"/><path d="M181.5,497.25 L181.5,500.25 L184.5,500.25 L181.5,497.25 " fill="#FEFFDD" style="stroke:#181818;stroke-width:0.3;"/><text fill="#000000" font-family="sans-serif" font-size="3.9" lengthAdjust="spacing" textLength="67.5" x="112.5" y="502.9585">- HRM initiates collaborator registration</text></g><g id="elem_GMN18"><path d="M101.85,47.25 L101.85,60.6246 A0,0 0 0 0 101.85,60.6246 L197.55,60.6246 A0,0 0 0 0 197.55,60.6246 L197.55,55.2 L207.909,54 L197.55,52.8 L197.55,50.25 L194.55,47.25 L101.85,47.25 A0,0 0 0 0 101.85,47.25 " fill="#FEFFDD" style="stroke:#181818;stroke-width:0.15;"/><path d="M194.55,47.25 L194.55,50.25 L197.55,50.25 L194.55,47.25 " fill="#FEFFDD" style="stroke:#181818;stroke-width:0.15;"/><text fill="#000000" font-family="sans-serif" font-size="3.9" lengthAdjust="spacing" textLength="88.8" x="103.65" y="52.9585">- UI for HRM to input and confirm collaborator name</text><text fill="#000000" font-family="sans-serif" font-size="3.9" lengthAdjust="spacing" textLength="89.4" x="103.65" y="58.1458">- Communicates with RegisterCollaboratorController</text></g><g id="elem_GMN21"><path d="M225,240.6 L225,248.7873 L273,248.7873 L273,243.6 L270,240.6 L225,240.6 " fill="#FEFFDD" style="stroke:#181818;stroke-width:0.15;"/><path d="M270,240.6 L270,243.6 L273,243.6 L270,240.6 " fill="#FEFFDD" style="stroke:#181818;stroke-width:0.3;"/><text fill="#000000" font-family="sans-serif" font-size="3.9" lengthAdjust="spacing" textLength="41.7" x="226.8" y="246.3085">- Manages collaborators</text></g><g id="elem_GMN24"><path d="M1.8,340.2 L1.8,348.3873 L62.4,348.3873 L62.4,343.2 L59.4,340.2 L1.8,340.2 " fill="#FEFFDD" style="stroke:#181818;stroke-width:0.15;"/><path d="M59.4,340.2 L59.4,343.2 L62.4,343.2 L59.4,340.2 " fill="#FEFFDD" style="stroke:#181818;stroke-width:0.3;"/><text fill="#000000" font-family="sans-serif" font-size="3.9" lengthAdjust="spacing" textLength="54.3" x="3.6" y="345.9085">- Handles organizational details</text></g><!--class JobRepository--><g id="elem_JobRepository"><rect fill="#F1F1F1" height="14.4" id="JobRepository" rx="0.75" ry="0.75" style="stroke:#181818;stroke-width:0.15;" width="36.6" x="405" y="237.45"/><ellipse cx="409.5" cy="242.25" fill="#ADD1B2" rx="3.3" ry="3.3" style="stroke:#181818;stroke-width:0.3;"/><path d="M410.3297,241.0125 Q410.3766,240.9469 410.4328,240.9141 Q410.4891,240.8813 410.5547,240.8813 Q410.6672,240.8813 410.7375,240.9609 Q410.8078,241.0359 410.8078,241.2188 L410.8078,241.6547 Q410.8078,241.8375 410.7375,241.9172 Q410.6672,241.9969 410.5547,241.9969 Q410.4516,241.9969 410.3906,241.9359 Q410.3297,241.8797 410.2969,241.725 Q410.2828,241.6172 410.2266,241.5609 Q410.1281,241.4484 409.9453,241.3828 Q409.7625,241.3172 409.575,241.3172 Q409.3453,241.3172 409.1531,241.4156 Q408.9656,241.5141 408.8156,241.7391 Q408.6703,241.9641 408.6703,242.2734 L408.6703,242.6016 Q408.6703,242.9719 408.9375,243.2203 Q409.2047,243.4641 409.6828,243.4641 Q409.9641,243.4641 410.1609,243.3891 Q410.2781,243.3422 410.4047,243.2109 Q410.4844,243.1313 410.5266,243.1078 Q410.5734,243.0844 410.6344,243.0844 Q410.7328,243.0844 410.8078,243.1641 Q410.8875,243.2391 410.8875,243.3422 Q410.8875,243.4453 410.7844,243.5672 Q410.6344,243.7406 410.3953,243.8391 Q410.0719,243.975 409.6828,243.975 Q409.2281,243.975 408.8672,243.7875 Q408.5719,243.6375 408.3656,243.3188 Q408.1594,242.9953 408.1594,242.6109 L408.1594,242.2641 Q408.1594,241.8656 408.3422,241.5234 Q408.5297,241.1766 408.8578,240.9937 Q409.1859,240.8062 409.5563,240.8062 Q409.7766,240.8062 409.9688,240.8578 Q410.1656,240.9047 410.3297,241.0125 Z " fill="#000000"/><text fill="#000000" font-family="sans-serif" font-size="4.2" lengthAdjust="spacing" textLength="27" x="413.7" y="243.9891">JobRepository</text><line style="stroke:#181818;stroke-width:0.15;" x1="405.3" x2="441.3" y1="247.05" y2="247.05"/><line style="stroke:#181818;stroke-width:0.15;" x1="405.3" x2="441.3" y1="249.45" y2="249.45"/></g><!--link HRManager to GMN15--><g id="link_HRManager_GMN15"><path d="M100.068,501.3 C103.026,501.3 105.201,501.3 105.201,501.3 C105.201,501.3 107.538,501.3 110.661,501.3 " fill="none" id="HRManager-GMN15" style="stroke:#181818;stroke-width:0.3;stroke-dasharray:7.0,7.0;"/></g><!--link GMN21 to CollaboratorRepository--><g id="link_GMN21_CollaboratorRepository"><path d="M273.072,244.65 C276.561,244.65 279,244.65 279,244.65 C279,244.65 280.818,244.65 283.557,244.65 " fill="none" id="GMN21-CollaboratorRepository" style="stroke:#181818;stroke-width:0.3;stroke-dasharray:7.0,7.0;"/></g><!--link GMN24 to Organization--><g id="link_GMN24_Organization"><path d="M62.415,344.25 C67.23,344.25 71.901,344.25 71.901,344.25 C71.901,344.25 72.252,344.25 72.861,344.25 " fill="none" id="GMN24-Organization" style="stroke:#181818;stroke-width:0.3;stroke-dasharray:7.0,7.0;"/></g><!--link Repositories to Repositories--><g id="link_Repositories_Repositories"><path codeLine="122" d="M372.939,143.082 C379.272,143.964 383.4,145.572 383.4,147.9 C383.4,150.228 381.0548,151.5877 374.7218,152.4697 " fill="none" id="Repositories-to-Repositories" style="stroke:#181818;stroke-width:0.3;"/><polygon fill="#181818" points="372.939,152.718,375.7787,153.5341,374.4247,152.5111,375.4477,151.157,372.939,152.718" style="stroke:#181818;stroke-width:0.3;"/><text fill="#000000" font-family="sans-serif" font-size="3.9" lengthAdjust="spacing" textLength="14.7" x="385.2" y="149.5585">instance</text></g><!--link ApplicationSession to ApplicationSession--><g id="link_ApplicationSession_ApplicationSession"><path codeLine="123" d="M519.198,142.329 C525.15,142.659 529.65,144.516 529.65,147.9 C529.65,151.284 526.9472,153.0414 520.9952,153.3714 " fill="none" id="ApplicationSession-to-ApplicationSession" style="stroke:#181818;stroke-width:0.3;"/><polygon fill="#181818" points="519.198,153.471,521.9603,154.5197,520.6957,153.388,521.8274,152.1234,519.198,153.471" style="stroke:#181818;stroke-width:0.3;"/><text fill="#000000" font-family="sans-serif" font-size="3.9" lengthAdjust="spacing" textLength="14.7" x="531.45" y="149.5585">instance</text></g><!--link RegisterCollaboratorUI to RegisterCollaboratorController--><g id="link_RegisterCollaboratorUI_RegisterCollaboratorController"><path codeLine="125" d="M320.655,54 C323.949,54 325.734,54 329.235,54 " fill="none" id="RegisterCollaboratorUI-to-RegisterCollaboratorController" style="stroke:#181818;stroke-width:0.3;stroke-dasharray:7.0,7.0;"/><polygon fill="#181818" points="331.035,54,328.335,52.8,329.535,54,328.335,55.2,331.035,54" style="stroke:#181818;stroke-width:0.3;"/></g><!--link RegisterCollaboratorController to Repositories--><g id="link_RegisterCollaboratorController_Repositories"><path codeLine="127" d="M352.107,105.999 C345.423,114.45 340.0331,121.2646 334.5911,128.1406 " fill="none" id="RegisterCollaboratorController-to-Repositories" style="stroke:#181818;stroke-width:0.3;"/><polygon fill="#181818" points="333.474,129.552,336.0906,128.1796,334.4049,128.3758,334.2087,126.6901,333.474,129.552" style="stroke:#181818;stroke-width:0.3;"/><text fill="#000000" font-family="sans-serif" font-size="3.9" lengthAdjust="spacing" textLength="32.4" x="343.5" y="119.4085">retrieves instances</text></g><!--link RegisterCollaboratorController to OrganizationRepository--><g id="link_RegisterCollaboratorController_OrganizationRepository"><path codeLine="130" d="M330.96,101.937 C327.741,104.409 325.8,105.9 325.8,105.9 C325.8,105.9 219.9,129.6 219.9,129.6 C219.9,129.6 183.213,188.8079 162.705,221.9069 " fill="none" id="RegisterCollaboratorController-to-OrganizationRepository" style="stroke:#181818;stroke-width:0.3;stroke-dasharray:7.0,7.0;"/><polygon fill="#181818" points="161.757,223.437,164.1991,221.7739,162.547,222.1619,162.159,220.5098,161.757,223.437" style="stroke:#181818;stroke-width:0.3;"/><text fill="#000000" font-family="sans-serif" font-size="3.9" lengthAdjust="spacing" textLength="39.6" x="220.2" y="149.5585">organizationRepository</text></g><!--link RegisterCollaboratorController to JobRepository--><g id="link_RegisterCollaboratorController_JobRepository"><path codeLine="131" d="M401.241,105.981 C408.636,152.367 418.5436,214.5104 421.8976,235.5494 " fill="none" id="RegisterCollaboratorController-to-JobRepository" style="stroke:#181818;stroke-width:0.3;stroke-dasharray:7.0,7.0;"/><polygon fill="#181818" points="422.181,237.327,422.941,234.4718,421.9449,235.8457,420.5709,234.8496,422.181,237.327" style="stroke:#181818;stroke-width:0.3;"/><text fill="#000000" font-family="sans-serif" font-size="3.9" lengthAdjust="spacing" textLength="23.7" x="411" y="149.5585">jobRepository</text></g><!--link Repositories to OrganizationRepository--><g id="link_Repositories_OrganizationRepository"><path codeLine="133" d="M276.093,166.248 C249.174,177.519 219.6,189.9 219.6,189.9 C219.6,189.9 197.3627,207.0006 177.3977,222.3576 " fill="none" id="Repositories-to-OrganizationRepository" style="stroke:#181818;stroke-width:0.3;"/><polygon fill="#181818" points="175.971,223.455,178.8428,222.76,177.16,222.5405,177.3795,220.8577,175.971,223.455" style="stroke:#181818;stroke-width:0.3;"/><text fill="#000000" font-family="sans-serif" font-size="3.9" lengthAdjust="spacing" textLength="2.1" x="176.5647" y="220.1177">1</text></g><!--link Repositories to CollaboratorRepository--><g id="link_Repositories_CollaboratorRepository"><path codeLine="134" d="M322.923,166.284 C324.336,173.139 325.6614,179.5841 327.4104,188.0651 " fill="none" id="Repositories-to-CollaboratorRepository" style="stroke:#181818;stroke-width:0.3;"/><polygon fill="#181818" points="327.774,189.828,328.4039,186.9413,327.471,188.3589,326.0534,187.426,327.774,189.828" style="stroke:#181818;stroke-width:0.3;"/><text fill="#000000" font-family="sans-serif" font-size="3.9" lengthAdjust="spacing" textLength="2.1" x="325.1561" y="186.5207">1</text></g><!--link Repositories to JobRepository--><g id="link_Repositories_JobRepository"><path codeLine="135" d="M353.997,166.248 C375.726,177.519 399.6,189.9 399.6,189.9 C399.6,189.9 413.1318,220.9855 419.5308,235.6915 " fill="none" id="Repositories-to-JobRepository" style="stroke:#181818;stroke-width:0.3;"/><polygon fill="#181818" points="420.249,237.342,420.2721,234.3874,419.6505,235.9666,418.0714,235.345,420.249,237.342" style="stroke:#181818;stroke-width:0.3;"/><text fill="#000000" font-family="sans-serif" font-size="3.9" lengthAdjust="spacing" textLength="2.1" x="417.1494" y="234.0582">1</text></g><!--link OrganizationRepository to Organization--><g id="link_OrganizationRepository_Organization"><path codeLine="137" d="M136.782,265.824 C127.098,282.645 114.4421,304.6231 104.7491,321.4591 " fill="none" id="OrganizationRepository-to-Organization" style="stroke:#181818;stroke-width:0.3;"/><polygon fill="#181818" points="103.851,323.019,106.2381,321.2778,104.5994,321.7191,104.1582,320.0804,103.851,323.019" style="stroke:#181818;stroke-width:0.3;"/><text fill="#000000" font-family="sans-serif" font-size="3.9" lengthAdjust="spacing" textLength="13.8" x="112.2" y="312.9085">persists</text><text fill="#000000" font-family="sans-serif" font-size="3.9" lengthAdjust="spacing" textLength="1.5" x="103.5164" y="319.678">*</text></g><!--link ApplicationSession to UserSession--><g id="link_ApplicationSession_UserSession"><path codeLine="138" d="M494.4,160.671 C491.136,180.03 485.2221,215.14 482.2551,232.747 " fill="none" id="ApplicationSession-to-UserSession" style="stroke:#181818;stroke-width:0.3;"/><polygon fill="#181818" points="481.956,234.522,483.588,232.0589,482.2053,233.0429,481.2213,231.6601,481.956,234.522" style="stroke:#181818;stroke-width:0.3;"/><text fill="#000000" font-family="sans-serif" font-size="3.9" lengthAdjust="spacing" textLength="21.6" x="492" y="179.7085">userSession</text><text fill="#000000" font-family="sans-serif" font-size="3.9" lengthAdjust="spacing" textLength="2.1" x="479.9715" y="231.2329">1</text></g><!--link RegisterCollaboratorController to Organization--><g id="link_RegisterCollaboratorController_Organization"><path codeLine="140" d="M330.96,101.937 C327.741,104.409 325.8,105.9 325.8,105.9 C325.8,105.9 258.3,114.9 258.3,114.9 C258.3,114.9 195.9,129.6 195.9,129.6 C195.9,129.6 78,189.9 78,189.9 C78,189.9 78,299.4 78,299.4 C78,299.4 81.1935,309.7046 84.7725,321.2606 " fill="none" id="RegisterCollaboratorController-to-Organization" style="stroke:#181818;stroke-width:0.3;stroke-dasharray:7.0,7.0;"/><polygon fill="#181818" points="85.305,322.98,85.6525,320.0458,84.8612,321.5471,83.3599,320.7559,85.305,322.98" style="stroke:#181818;stroke-width:0.3;"/><text fill="#000000" font-family="sans-serif" font-size="3.9" lengthAdjust="spacing" textLength="21" x="106.2" y="179.7085">organization</text><text fill="#000000" font-family="sans-serif" font-size="3.9" lengthAdjust="spacing" textLength="2.1" x="82.4623" y="319.7465">1</text></g><!--link RegisterCollaboratorController to ApplicationSession--><g id="link_RegisterCollaboratorController_ApplicationSession"><path codeLine="141" d="M454.887,105.957 C461.343,111.345 465.6,114.9 465.6,114.9 C465.6,114.9 474.7616,124.5958 483.4946,133.8358 " fill="none" id="RegisterCollaboratorController-to-ApplicationSession" style="stroke:#181818;stroke-width:0.3;stroke-dasharray:7.0,7.0;"/><polygon fill="#181818" points="484.731,135.144,483.7485,132.3575,483.7007,134.0539,482.0043,134.006,484.731,135.144" style="stroke:#181818;stroke-width:0.3;"/></g><!--link RegisterCollaboratorController to UserSession--><g id="link_RegisterCollaboratorController_UserSession"><path codeLine="142" d="M423.474,105.981 C431.22,119.121 437.4,129.6 437.4,129.6 C437.4,129.6 465.6387,205.131 476.0127,232.881 " fill="none" id="RegisterCollaboratorController-to-UserSession" style="stroke:#181818;stroke-width:0.3;stroke-dasharray:7.0,7.0;"/><polygon fill="#181818" points="476.643,234.567,476.8216,231.6177,476.1177,233.162,474.5735,232.4581,476.643,234.567" style="stroke:#181818;stroke-width:0.3;"/></g><!--link Organization to Collaborator--><g id="link_Organization_Collaborator"><path codeLine="143" d="M100.515,365.502 C103.521,372.735 106.2861,379.3799 109.6281,387.4199 " fill="none" id="Organization-to-Collaborator" style="stroke:#181818;stroke-width:0.3;"/><polygon fill="#181818" points="110.319,389.082,110.3907,386.1282,109.7433,387.6969,108.1746,387.0494,110.319,389.082" style="stroke:#181818;stroke-width:0.3;"/><text fill="#000000" font-family="sans-serif" font-size="3.9" lengthAdjust="spacing" textLength="9" x="106.8" y="378.9085">owns</text><text fill="#000000" font-family="sans-serif" font-size="3.9" lengthAdjust="spacing" textLength="2.1" x="99.1695" y="372.0562">1</text><text fill="#000000" font-family="sans-serif" font-size="3.9" lengthAdjust="spacing" textLength="1.5" x="107.8433" y="385.7782">*</text></g><!--link Collaborator to HRManager--><g id="link_Collaborator_HRManager"><path codeLine="144" d="M106.191,459.393 C101.841,467.55 98.2268,474.3226 94.4588,481.3906 " fill="none" id="Collaborator-to-HRManager" style="stroke:#181818;stroke-width:0.3;"/><polygon fill="#181818" points="93.612,482.979,95.9411,481.1609,94.3176,481.6553,93.8232,480.0319,93.612,482.979" style="stroke:#181818;stroke-width:0.3;"/><text fill="#000000" font-family="sans-serif" font-size="3.9" lengthAdjust="spacing" textLength="17.7" x="101.1" y="472.8085">createdBy</text></g><!--link Organization to HRManager--><g id="link_Organization_HRManager"><path codeLine="146" d="M86.574,365.52 C83.697,377.076 80.7,389.1 80.7,389.1 C80.7,389.1 80.7,459.3 80.7,459.3 C80.7,459.3 81.5391,469.8866 82.4301,481.1576 " fill="none" id="Organization-to-HRManager" style="stroke:#181818;stroke-width:0.3;"/><polygon fill="#181818" points="82.572,482.952,83.5555,480.1658,82.4538,481.4567,81.163,480.355,82.572,482.952" style="stroke:#181818;stroke-width:0.3;"/><text fill="#000000" font-family="sans-serif" font-size="3.9" lengthAdjust="spacing" textLength="14.7" x="81" y="425.8585">employs</text><text fill="#000000" font-family="sans-serif" font-size="3.9" lengthAdjust="spacing" textLength="1.5" x="80.8202" y="479.6408">*</text></g><!--SRC=[xHZRJYity7s_OdHU2EKYe52fKOKAXDE6mW51e2zzSNQTnCLhRsrlQ4xLV-_OkzdOcytjeQfKBL98TcwUcsTc1_RqEnCPKII5L0ePJvHCAHYLqmWMg8p4xsHCNyoCKr0qDaICUK2X9oIH7qoCOKIu3b2S2Mfc6OLCyfbzY62l0IkLaP7F5tEYzPKnYWrpG_kn52_iAuKJ9DhZT6J0I51iF36GCAiJam9HZWkkieopc5ZO2zNQek2l2EpV0MY3Y1Z6rFG5_XOnxUpFSGYyoPMYmfHy5lLt9VTLKxKi49aiuZObZ9Vq1VcDv9mCfI96gfBy20H9QHTUq2unBa53fima8QOE9qdAt67GY4mKgbA3fdB8C4WtKXWIcoumOKeCjUf1F4S4N8RycP4PLI3oT4YLpzRlGI9Zi36gCI6cJdvWjNfvPvntjFs_7oryvplZcMPIC_mnAzno1FTCcnzyaajKTV6a8oVzCRCX9Rn6YOTs0b_xhFi5Qu2tOVQUhsVzNWTjG9CAYqgU1gLgd9QYKrAZ5ZvgeqOhZ55qZ4Af2cJ1RyBFcqDyNaeQ2wmoPXaHP8i55QdYWcSVNNxu-7bIL1Jz7cQ2dmW5q4k2qhAXb9mI0LF2cLLa9xTC9KiWptRYMsJPeneJmRwwgp_FhK9PT_42m9IOBqxt05fwAe1b4ob2NkSjxwhxvzQosukqJ-LooGTSptv-VkZW1oOgtT-9yUtpGmS_C1tjo8Yd5MNBDskj27lN0YTBxw7Wh8VV9r_7kuXYvK56TH75Wx1UGpUWgIYQYuoZRqPLd7ToM6C881LTSw0TGpFApyxdXhjjIxN2Pwhcbgweb6lCAmjASmwkKRhWkyhD13jUsJ13pbMuEM_Wf0O_5bGsgH67NvznmF1Qwwvr42KGWQE8idVayB-iYdxlswauklg6oS360dqra85zVbthzmxXTpdyWXRkRqgYrtuvNnpC2vIYV-HK1nbZ9PMZpZgoQ-l27dfg2zghkMUtfdSEhoXjqsqWUt11s49UDNEjapOeGrOK-osazcGym4XkajllrIIk3UtwlbTS9T2KuoYBlyAvSv7syocorjCGOfKCEjfIiwh8H4bZ3n3Iq7AEbgCD1QheW84XUAC8C0roQ0YEyWcCy883rWohyvx6uxBS57olhgThXmna-BMIYiIfjAHPvO92cAqeJ333d4ZVdMNXKAvWBGjqhmuhB7tjbvhsOOI2x1duak5C089oS7WUCPM6not6YXkPfhcmfH9L-c1cij6TddAXTgkR5PvJE48l3SYhJFMhV-azj8QZ1B__4Wu9nI1o7UWLjEAZo_3PrhMY9KSDxroMl07gCKMhYjdnvIRVHPkQwH6-a8fbXHN5Eq6dL5TQw6Ypi6DKQ4LxxGPUz8ErXSomVNPjlVSarBsFrdmw_RHopcWaNfL9ZSHtjUDNcEp8lmaLGUKpgZGQh9jpeJp2UuL6bjnxeTxAONNxQ-xVIaRJTc0Bjk3bFz31AZNtIL3PKBaFWVu8W9PoKT2x42kA5IEvhZky4kaJqpJZSeOf2p_Y9SrJ7lsBYvhjrZ7jqgLTkhHBbtRfqYvTsgLBktHfboxjqgLTkhHBbtRfqYvTsgLBktHfbox_owNB4oV2l3xSmzJw7_bEZyzEpiwFl-qC9ZbyfaCulO3Jxxld9zsJ2_ZrTW0MlHzrVdgw1orp5LD8RCMqwnGtYD-HAO7d7CS-ErmzPbJSzNwP0-1MJ9cI8iMnCBfxUrWGV7T-TCqCl525ci3RGzIZ8v9pWnonJB0HuH2UdPvTd4NtH8npj0XpnaGt4WMhMHUU1ly0]--></g></svg>