<?xml version="1.0" encoding="us-ascii" standalone="no"?><svg xmlns="http://www.w3.org/2000/svg" xmlns:xlink="http://www.w3.org/1999/xlink" contentStyleType="text/css" height="479px" preserveAspectRatio="none" style="width:672px;height:479px;background:#FFFFFF;" version="1.1" viewBox="0 0 672 479" width="672px" zoomAndPan="magnify"><defs/><g><rect fill="#FFFFFF" height="314.9102" style="stroke:#181818;stroke-width:1.0;" width="10" x="152" y="90.5332"/><rect fill="#FFFFFF" height="31.291" style="stroke:#181818;stroke-width:1.0;" width="10" x="317" y="148.1152"/><rect fill="#FFFFFF" height="31.291" style="stroke:#181818;stroke-width:1.0;" width="10" x="464" y="210.6973"/><rect fill="#FFFFFF" height="31.291" style="stroke:#181818;stroke-width:1.0;" width="10" x="597" y="273.2793"/><rect fill="#FFFFFF" height="31.291" style="stroke:#181818;stroke-width:1.0;" width="10" x="597" y="335.8613"/><rect fill="none" height="269.6191" style="stroke:#000000;stroke-width:1.5;" width="606" x="60.5" y="105.5332"/><line style="stroke:#181818;stroke-width:0.5;stroke-dasharray:5.0,5.0;" x1="156.5" x2="156.5" y1="57.2422" y2="423.4434"/><line style="stroke:#181818;stroke-width:0.5;stroke-dasharray:5.0,5.0;" x1="321.5" x2="321.5" y1="57.2422" y2="423.4434"/><line style="stroke:#181818;stroke-width:0.5;stroke-dasharray:5.0,5.0;" x1="468.5" x2="468.5" y1="57.2422" y2="423.4434"/><line style="stroke:#181818;stroke-width:0.5;stroke-dasharray:5.0,5.0;" x1="601.5" x2="601.5" y1="57.2422" y2="423.4434"/><rect fill="#E3E3E3" height="32.6211" rx="2.5" ry="2.5" style="stroke:#181818;stroke-width:0.5;" width="173" x="70.5" y="23.6211"/><text fill="#000000" font-family="sans-serif" font-size="14" lengthAdjust="spacing" textLength="159" x="77.5" y="45.7285">:PostponeEntryController</text><rect fill="#E3E3E3" height="32.6211" rx="2.5" ry="2.5" style="stroke:#181818;stroke-width:0.5;" width="173" x="70.5" y="422.4434"/><text fill="#000000" font-family="sans-serif" font-size="14" lengthAdjust="spacing" textLength="159" x="77.5" y="444.5508">:PostponeEntryController</text><rect fill="#E3E3E3" height="32.6211" rx="2.5" ry="2.5" style="stroke:#181818;stroke-width:0.5;" width="137" x="253.5" y="23.6211"/><text fill="#000000" font-family="sans-serif" font-size="14" lengthAdjust="spacing" textLength="123" x="260.5" y="45.7285">:ApplicationSession</text><rect fill="#E3E3E3" height="32.6211" rx="2.5" ry="2.5" style="stroke:#181818;stroke-width:0.5;" width="137" x="253.5" y="422.4434"/><text fill="#000000" font-family="sans-serif" font-size="14" lengthAdjust="spacing" textLength="123" x="260.5" y="444.5508">:ApplicationSession</text><rect fill="#E3E3E3" height="51.2422" rx="2.5" ry="2.5" style="stroke:#181818;stroke-width:0.5;" width="137" x="400.5" y="5"/><text fill="#000000" font-family="sans-serif" font-size="14" lengthAdjust="spacing" textLength="74" x="432" y="27.1074">appSession</text><text fill="#000000" font-family="sans-serif" font-size="14" lengthAdjust="spacing" textLength="123" x="407.5" y="45.7285">:ApplicationSession</text><rect fill="#E3E3E3" height="51.2422" rx="2.5" ry="2.5" style="stroke:#181818;stroke-width:0.5;" width="137" x="400.5" y="422.4434"/><text fill="#000000" font-family="sans-serif" font-size="14" lengthAdjust="spacing" textLength="74" x="432" y="444.5508">appSession</text><text fill="#000000" font-family="sans-serif" font-size="14" lengthAdjust="spacing" textLength="123" x="407.5" y="463.1719">:ApplicationSession</text><rect fill="#E3E3E3" height="51.2422" rx="2.5" ry="2.5" style="stroke:#181818;stroke-width:0.5;" width="109" x="547.5" y="5"/><text fill="#000000" font-family="sans-serif" font-size="14" lengthAdjust="spacing" textLength="95" x="554.5" y="27.1074">currentSession</text><text fill="#000000" font-family="sans-serif" font-size="14" lengthAdjust="spacing" textLength="83" x="560.5" y="45.7285">:UserSession</text><rect fill="#E3E3E3" height="51.2422" rx="2.5" ry="2.5" style="stroke:#181818;stroke-width:0.5;" width="109" x="547.5" y="422.4434"/><text fill="#000000" font-family="sans-serif" font-size="14" lengthAdjust="spacing" textLength="95" x="554.5" y="444.5508">currentSession</text><text fill="#000000" font-family="sans-serif" font-size="14" lengthAdjust="spacing" textLength="83" x="560.5" y="463.1719">:UserSession</text><rect fill="#FFFFFF" height="314.9102" style="stroke:#181818;stroke-width:1.0;" width="10" x="152" y="90.5332"/><rect fill="#FFFFFF" height="31.291" style="stroke:#181818;stroke-width:1.0;" width="10" x="317" y="148.1152"/><rect fill="#FFFFFF" height="31.291" style="stroke:#181818;stroke-width:1.0;" width="10" x="464" y="210.6973"/><rect fill="#FFFFFF" height="31.291" style="stroke:#181818;stroke-width:1.0;" width="10" x="597" y="273.2793"/><rect fill="#FFFFFF" height="31.291" style="stroke:#181818;stroke-width:1.0;" width="10" x="597" y="335.8613"/><polygon fill="#181818" points="140,86.5332,150,90.5332,140,94.5332,144,90.5332" style="stroke:#181818;stroke-width:1.0;"/><line style="stroke:#181818;stroke-width:1.0;" x1="0" x2="146" y1="90.5332" y2="90.5332"/><text fill="#000000" font-family="sans-serif" font-size="13" lengthAdjust="spacing" textLength="133" x="7" y="85.2705">getGSMFromSession()</text><path d="M60.5,105.5332 L161.5,105.5332 L161.5,114.8242 L151.5,124.8242 L60.5,124.8242 L60.5,105.5332 " fill="#EEEEEE" style="stroke:#000000;stroke-width:1.5;"/><rect fill="none" height="269.6191" style="stroke:#000000;stroke-width:1.5;" width="606" x="60.5" y="105.5332"/><text fill="#000000" font-family="sans-serif" font-size="13" font-weight="bold" lengthAdjust="spacing" textLength="56" x="75.5" y="120.5615">Get GSM</text><polygon fill="#181818" points="305,144.1152,315,148.1152,305,152.1152,309,148.1152" style="stroke:#181818;stroke-width:1.0;"/><line style="stroke:#181818;stroke-width:1.0;" x1="162" x2="311" y1="148.1152" y2="148.1152"/><text fill="#000000" font-family="sans-serif" font-size="13" lengthAdjust="spacing" textLength="75" x="169" y="142.8525">getInstance()</text><polygon fill="#181818" points="173,175.4063,163,179.4063,173,183.4063,169,179.4063" style="stroke:#181818;stroke-width:1.0;"/><line style="stroke:#181818;stroke-width:1.0;" x1="167" x2="321" y1="179.4063" y2="179.4063"/><text fill="#000000" font-family="sans-serif" font-size="13" lengthAdjust="spacing" textLength="68" x="179" y="174.1436">appSession</text><polygon fill="#181818" points="452,206.6973,462,210.6973,452,214.6973,456,210.6973" style="stroke:#181818;stroke-width:1.0;"/><line style="stroke:#181818;stroke-width:1.0;" x1="162" x2="458" y1="210.6973" y2="210.6973"/><text fill="#000000" font-family="sans-serif" font-size="13" lengthAdjust="spacing" textLength="115" x="169" y="205.4346">getCurrentSession()</text><polygon fill="#181818" points="173,237.9883,163,241.9883,173,245.9883,169,241.9883" style="stroke:#181818;stroke-width:1.0;"/><line style="stroke:#181818;stroke-width:1.0;stroke-dasharray:2.0,2.0;" x1="167" x2="468" y1="241.9883" y2="241.9883"/><text fill="#000000" font-family="sans-serif" font-size="13" lengthAdjust="spacing" textLength="87" x="179" y="236.7256">currentSession</text><polygon fill="#181818" points="585,269.2793,595,273.2793,585,277.2793,589,273.2793" style="stroke:#181818;stroke-width:1.0;"/><line style="stroke:#181818;stroke-width:1.0;" x1="162" x2="591" y1="273.2793" y2="273.2793"/><text fill="#000000" font-family="sans-serif" font-size="13" lengthAdjust="spacing" textLength="133" x="169" y="268.0166">email = getUserEmail()</text><polygon fill="#181818" points="173,300.5703,163,304.5703,173,308.5703,169,304.5703" style="stroke:#181818;stroke-width:1.0;"/><line style="stroke:#181818;stroke-width:1.0;stroke-dasharray:2.0,2.0;" x1="167" x2="601" y1="304.5703" y2="304.5703"/><text fill="#000000" font-family="sans-serif" font-size="13" lengthAdjust="spacing" textLength="31" x="179" y="299.3076">email</text><polygon fill="#181818" points="585,331.8613,595,335.8613,585,339.8613,589,335.8613" style="stroke:#181818;stroke-width:1.0;"/><line style="stroke:#181818;stroke-width:1.0;" x1="162" x2="591" y1="335.8613" y2="335.8613"/><text fill="#000000" font-family="sans-serif" font-size="13" lengthAdjust="spacing" textLength="136" x="169" y="330.5986">getGSMByEmail(email)</text><polygon fill="#181818" points="173,363.1523,163,367.1523,173,371.1523,169,367.1523" style="stroke:#181818;stroke-width:1.0;"/><line style="stroke:#181818;stroke-width:1.0;stroke-dasharray:2.0,2.0;" x1="167" x2="601" y1="367.1523" y2="367.1523"/><text fill="#000000" font-family="sans-serif" font-size="13" lengthAdjust="spacing" textLength="25" x="179" y="361.8896">gsm</text><polygon fill="#181818" points="11,401.4434,1,405.4434,11,409.4434,7,405.4434" style="stroke:#181818;stroke-width:1.0;"/><line style="stroke:#181818;stroke-width:1.0;stroke-dasharray:2.0,2.0;" x1="5" x2="156" y1="405.4434" y2="405.4434"/><text fill="#000000" font-family="sans-serif" font-size="13" font-weight="bold" lengthAdjust="spacing" textLength="14" x="17" y="400.1807">15</text><text fill="#000000" font-family="sans-serif" font-size="13" lengthAdjust="spacing" textLength="25" x="35" y="400.1807">gsm</text><!--SRC=[dLAzJiCm4Dxp5ASkmD21WIK2f5AL2Wb4HM13GbVdcbfDRCk-07rxRATDapOmS4EiNBw_kzXjf39eiO9AAotMLbS4R6jANFl5eDXWGHblIm9BWb4LPHVWrfZhBwaAM67fAF5rjfOvmKfhNkhlnCDO2cbGCOpIXNPijAAPOhkTQl_KPKbs1EXW-lhoU0IV65DAWIoroiWvVqJansInw2FHc1tWNVt6EY69sbfIV22-ER9THZRBiibpChwDsI25WdYUFTtxJUrWvnS92fQVoDJaJy1NONLjO4uC7XqxeQA6rmhfezI3SdwVWhp87jEAnH6XKw41koGf7EPjGJdroIU-UzjfR-mXynuzLFHkpVjx6memwDziCmMgK9Pm4wA4XS_2wr2AtVPxGPfU9qiK6ufmp3vEqVpAksrZ7sN-bo5S2rVz4I5qIUNnn9grggibMRYyYfthyRWhqw77-_G3]--></g></svg>