<?xml version="1.0" encoding="us-ascii" standalone="no"?><svg xmlns="http://www.w3.org/2000/svg" xmlns:xlink="http://www.w3.org/1999/xlink" contentStyleType="text/css" height="1231px" preserveAspectRatio="none" style="width:1448px;height:1231px;background:#FFFFFF;" version="1.1" viewBox="0 0 1448 1231" width="1448px" zoomAndPan="magnify"><defs/><g><rect fill="#FFFFFF" height="1037.0215" style="stroke:#181818;stroke-width:1.0;" width="10" x="78.5" y="93.6211"/><rect fill="#FFFFFF" height="587.2383" style="stroke:#181818;stroke-width:1.0;" width="10" x="448.5" y="116.9121"/><rect fill="#FFFFFF" height="93.873" style="stroke:#181818;stroke-width:1.0;" width="10" x="448.5" y="735.4414"/><rect fill="#FFFFFF" height="31.291" style="stroke:#181818;stroke-width:1.0;" width="10" x="448.5" y="860.6055"/><rect fill="#FFFFFF" height="207.4551" style="stroke:#181818;stroke-width:1.0;" width="10" x="448.5" y="923.1875"/><rect fill="#FFFFFF" height="514.6563" style="stroke:#181818;stroke-width:1.0;" width="10" x="693.5" y="158.2031"/><rect fill="#FFFFFF" height="90.543" style="stroke:#181818;stroke-width:1.0;" width="10" x="698.5" y="262.4063"/><rect fill="#FFFFFF" height="137.873" style="stroke:#181818;stroke-width:1.0;" width="10" x="693.5" y="954.4785"/><rect fill="#FFFFFF" height="31.291" style="stroke:#181818;stroke-width:1.0;" width="10" x="861.5" y="191.8242"/><rect fill="#FFFFFF" height="31.291" style="stroke:#181818;stroke-width:1.0;" width="10" x="968.5" y="391.2402"/><rect fill="#FFFFFF" height="31.291" style="stroke:#181818;stroke-width:1.0;" width="10" x="1094.5" y="485.1133"/><rect fill="#FFFFFF" height="31.291" style="stroke:#181818;stroke-width:1.0;" width="10" x="1203.5" y="610.2773"/><rect fill="#FFFFFF" height="31.291" style="stroke:#181818;stroke-width:1.0;" width="10" x="1203.5" y="766.7324"/><rect fill="#FFFFFF" height="128.873" style="stroke:#181818;stroke-width:1.0;" width="10" x="1203.5" y="1010.7695"/><rect fill="#FFFFFF" height="42.291" style="stroke:#181818;stroke-width:1.0;" width="10" x="1208.5" y="1050.0605"/><line style="stroke:#181818;stroke-width:0.5;stroke-dasharray:5.0,5.0;" x1="83" x2="83" y1="83.6211" y2="1148.6426"/><line style="stroke:#181818;stroke-width:0.5;stroke-dasharray:5.0,5.0;" x1="453" x2="453" y1="83.6211" y2="1148.6426"/><line style="stroke:#181818;stroke-width:0.5;stroke-dasharray:5.0,5.0;" x1="698" x2="698" y1="156.7227" y2="1148.6426"/><line style="stroke:#181818;stroke-width:0.5;stroke-dasharray:5.0,5.0;" x1="866" x2="866" y1="83.6211" y2="1148.6426"/><line style="stroke:#181818;stroke-width:0.5;stroke-dasharray:5.0,5.0;" x1="973" x2="973" y1="83.6211" y2="1148.6426"/><line style="stroke:#181818;stroke-width:0.5;stroke-dasharray:5.0,5.0;" x1="1099" x2="1099" y1="83.6211" y2="1148.6426"/><line style="stroke:#181818;stroke-width:0.5;stroke-dasharray:5.0,5.0;" x1="1208" x2="1208" y1="83.6211" y2="1148.6426"/><text fill="#000000" font-family="sans-serif" font-size="14" lengthAdjust="spacing" textLength="151" x="5" y="80.1074">Green Spaces Manager</text><ellipse cx="83.5" cy="13.5" fill="#E3E3E3" rx="8" ry="8" style="stroke:#181818;stroke-width:0.5;"/><path d="M83.5,21.5 L83.5,48.5 M70.5,29.5 L96.5,29.5 M83.5,48.5 L70.5,63.5 M83.5,48.5 L96.5,63.5 " fill="none" style="stroke:#181818;stroke-width:0.5;"/><text fill="#000000" font-family="sans-serif" font-size="14" lengthAdjust="spacing" textLength="151" x="5" y="1162.75">Green Spaces Manager</text><ellipse cx="83.5" cy="1174.7637" fill="#E3E3E3" rx="8" ry="8" style="stroke:#181818;stroke-width:0.5;"/><path d="M83.5,1182.7637 L83.5,1209.7637 M70.5,1190.7637 L96.5,1190.7637 M83.5,1209.7637 L70.5,1224.7637 M83.5,1209.7637 L96.5,1224.7637 " fill="none" style="stroke:#181818;stroke-width:0.5;"/><rect fill="#E3E3E3" height="32.6211" rx="2.5" ry="2.5" style="stroke:#181818;stroke-width:0.5;" width="123" x="392" y="50"/><text fill="#000000" font-family="sans-serif" font-size="14" lengthAdjust="spacing" textLength="109" x="399" y="72.1074">:PostponeEntryUI</text><rect fill="#E3E3E3" height="32.6211" rx="2.5" ry="2.5" style="stroke:#181818;stroke-width:0.5;" width="123" x="392" y="1147.6426"/><text fill="#000000" font-family="sans-serif" font-size="14" lengthAdjust="spacing" textLength="109" x="399" y="1169.75">:PostponeEntryUI</text><rect fill="#E3E3E3" height="32.6211" rx="2.5" ry="2.5" style="stroke:#181818;stroke-width:0.5;" width="173" x="612" y="1147.6426"/><text fill="#000000" font-family="sans-serif" font-size="14" lengthAdjust="spacing" textLength="159" x="619" y="1169.75">:PostponeEntryController</text><rect fill="#E3E3E3" height="32.6211" rx="2.5" ry="2.5" style="stroke:#181818;stroke-width:0.5;" width="97" x="818" y="50"/><text fill="#000000" font-family="sans-serif" font-size="14" lengthAdjust="spacing" textLength="83" x="825" y="72.1074">:Repositories</text><rect fill="#E3E3E3" height="32.6211" rx="2.5" ry="2.5" style="stroke:#181818;stroke-width:0.5;" width="97" x="818" y="1147.6426"/><text fill="#000000" font-family="sans-serif" font-size="14" lengthAdjust="spacing" textLength="83" x="825" y="1169.75">:Repositories</text><rect fill="#E3E3E3" height="51.2422" rx="2.5" ry="2.5" style="stroke:#181818;stroke-width:0.5;" width="97" x="925" y="31.3789"/><text fill="#000000" font-family="sans-serif" font-size="14" lengthAdjust="spacing" textLength="74" x="936.5" y="53.4863">repositories</text><text fill="#000000" font-family="sans-serif" font-size="14" lengthAdjust="spacing" textLength="83" x="932" y="72.1074">:Repositories</text><rect fill="#E3E3E3" height="51.2422" rx="2.5" ry="2.5" style="stroke:#181818;stroke-width:0.5;" width="97" x="925" y="1147.6426"/><text fill="#000000" font-family="sans-serif" font-size="14" lengthAdjust="spacing" textLength="74" x="936.5" y="1169.75">repositories</text><text fill="#000000" font-family="sans-serif" font-size="14" lengthAdjust="spacing" textLength="83" x="932" y="1188.3711">:Repositories</text><rect fill="#E3E3E3" height="51.2422" rx="2.5" ry="2.5" style="stroke:#181818;stroke-width:0.5;" width="135" x="1032" y="31.3789"/><text fill="#000000" font-family="sans-serif" font-size="14" lengthAdjust="spacing" textLength="116" x="1041.5" y="53.4863">agendaRepository</text><text fill="#000000" font-family="sans-serif" font-size="14" lengthAdjust="spacing" textLength="121" x="1039" y="72.1074">:AgendaRepository</text><rect fill="#E3E3E3" height="51.2422" rx="2.5" ry="2.5" style="stroke:#181818;stroke-width:0.5;" width="135" x="1032" y="1147.6426"/><text fill="#000000" font-family="sans-serif" font-size="14" lengthAdjust="spacing" textLength="116" x="1041.5" y="1169.75">agendaRepository</text><text fill="#000000" font-family="sans-serif" font-size="14" lengthAdjust="spacing" textLength="121" x="1039" y="1188.3711">:AgendaRepository</text><rect fill="#E3E3E3" height="32.6211" rx="2.5" ry="2.5" style="stroke:#181818;stroke-width:0.5;" width="63" x="1177" y="50"/><text fill="#000000" font-family="sans-serif" font-size="14" lengthAdjust="spacing" textLength="49" x="1184" y="72.1074">Agenda</text><rect fill="#E3E3E3" height="32.6211" rx="2.5" ry="2.5" style="stroke:#181818;stroke-width:0.5;" width="63" x="1177" y="1147.6426"/><text fill="#000000" font-family="sans-serif" font-size="14" lengthAdjust="spacing" textLength="49" x="1184" y="1169.75">Agenda</text><rect fill="#FFFFFF" height="1037.0215" style="stroke:#181818;stroke-width:1.0;" width="10" x="78.5" y="93.6211"/><rect fill="#FFFFFF" height="587.2383" style="stroke:#181818;stroke-width:1.0;" width="10" x="448.5" y="116.9121"/><rect fill="#FFFFFF" height="93.873" style="stroke:#181818;stroke-width:1.0;" width="10" x="448.5" y="735.4414"/><rect fill="#FFFFFF" height="31.291" style="stroke:#181818;stroke-width:1.0;" width="10" x="448.5" y="860.6055"/><rect fill="#FFFFFF" height="207.4551" style="stroke:#181818;stroke-width:1.0;" width="10" x="448.5" y="923.1875"/><rect fill="#FFFFFF" height="514.6563" style="stroke:#181818;stroke-width:1.0;" width="10" x="693.5" y="158.2031"/><rect fill="#FFFFFF" height="90.543" style="stroke:#181818;stroke-width:1.0;" width="10" x="698.5" y="262.4063"/><rect fill="#FFFFFF" height="137.873" style="stroke:#181818;stroke-width:1.0;" width="10" x="693.5" y="954.4785"/><rect fill="#FFFFFF" height="31.291" style="stroke:#181818;stroke-width:1.0;" width="10" x="861.5" y="191.8242"/><rect fill="#FFFFFF" height="31.291" style="stroke:#181818;stroke-width:1.0;" width="10" x="968.5" y="391.2402"/><rect fill="#FFFFFF" height="31.291" style="stroke:#181818;stroke-width:1.0;" width="10" x="1094.5" y="485.1133"/><rect fill="#FFFFFF" height="31.291" style="stroke:#181818;stroke-width:1.0;" width="10" x="1203.5" y="610.2773"/><rect fill="#FFFFFF" height="31.291" style="stroke:#181818;stroke-width:1.0;" width="10" x="1203.5" y="766.7324"/><rect fill="#FFFFFF" height="128.873" style="stroke:#181818;stroke-width:1.0;" width="10" x="1203.5" y="1010.7695"/><rect fill="#FFFFFF" height="42.291" style="stroke:#181818;stroke-width:1.0;" width="10" x="1208.5" y="1050.0605"/><polygon fill="#181818" points="436.5,112.9121,446.5,116.9121,436.5,120.9121,440.5,116.9121" style="stroke:#181818;stroke-width:1.0;"/><line style="stroke:#181818;stroke-width:1.0;" x1="88.5" x2="442.5" y1="116.9121" y2="116.9121"/><text fill="#000000" font-family="sans-serif" font-size="13" font-weight="bold" lengthAdjust="spacing" textLength="7" x="95.5" y="111.6494">1</text><text fill="#000000" font-family="sans-serif" font-size="13" lengthAdjust="spacing" textLength="330" x="106.5" y="111.6494">asks to postpone an entry in the Agenda to a future date.</text><polygon fill="#181818" points="600,144.2031,610,148.2031,600,152.2031,604,148.2031" style="stroke:#181818;stroke-width:1.0;"/><line style="stroke:#181818;stroke-width:1.0;" x1="458.5" x2="606" y1="148.2031" y2="148.2031"/><text fill="#000000" font-family="sans-serif" font-size="13" font-weight="bold" lengthAdjust="spacing" textLength="7" x="465.5" y="142.9404">2</text><text fill="#000000" font-family="sans-serif" font-size="13" lengthAdjust="spacing" textLength="36" x="476.5" y="142.9404">create</text><rect fill="#E3E3E3" height="32.6211" rx="2.5" ry="2.5" style="stroke:#181818;stroke-width:0.5;" width="173" x="612" y="124.9121"/><text fill="#000000" font-family="sans-serif" font-size="14" lengthAdjust="spacing" textLength="159" x="619" y="147.0195">:PostponeEntryController</text><polygon fill="#181818" points="849.5,187.8242,859.5,191.8242,849.5,195.8242,853.5,191.8242" style="stroke:#181818;stroke-width:1.0;"/><line style="stroke:#181818;stroke-width:1.0;" x1="703.5" x2="855.5" y1="191.8242" y2="191.8242"/><text fill="#000000" font-family="sans-serif" font-size="13" font-weight="bold" lengthAdjust="spacing" textLength="7" x="710.5" y="186.5615">3</text><text fill="#000000" font-family="sans-serif" font-size="13" lengthAdjust="spacing" textLength="75" x="721.5" y="186.5615">getInstance()</text><polygon fill="#181818" points="714.5,219.1152,704.5,223.1152,714.5,227.1152,710.5,223.1152" style="stroke:#181818;stroke-width:1.0;"/><line style="stroke:#181818;stroke-width:1.0;stroke-dasharray:2.0,2.0;" x1="708.5" x2="865.5" y1="223.1152" y2="223.1152"/><text fill="#000000" font-family="sans-serif" font-size="13" font-weight="bold" lengthAdjust="spacing" textLength="7" x="720.5" y="217.8525">4</text><text fill="#000000" font-family="sans-serif" font-size="13" lengthAdjust="spacing" textLength="67" x="731.5" y="217.8525">repositories</text><line style="stroke:#181818;stroke-width:1.0;" x1="703.5" x2="750.5" y1="249.4063" y2="249.4063"/><line style="stroke:#181818;stroke-width:1.0;" x1="750.5" x2="750.5" y1="249.4063" y2="262.4063"/><line style="stroke:#181818;stroke-width:1.0;" x1="709.5" x2="750.5" y1="262.4063" y2="262.4063"/><polygon fill="#181818" points="719.5,258.4063,709.5,262.4063,719.5,266.4063,715.5,262.4063" style="stroke:#181818;stroke-width:1.0;"/><text fill="#000000" font-family="sans-serif" font-size="13" font-weight="bold" lengthAdjust="spacing" textLength="7" x="715.5" y="244.1436">5</text><text fill="#000000" font-family="sans-serif" font-size="13" lengthAdjust="spacing" textLength="133" x="726.5" y="244.1436">getGSMFromSession()</text><rect fill="none" height="43.252" style="stroke:#000000;stroke-width:1.5;" width="179" x="609" y="275.4063"/><path d="M609,275.4063 L671,275.4063 L671,284.4063 L661,294.4063 L609,294.4063 L609,275.4063 " fill="#EEEEEE" style="stroke:#000000;stroke-width:2.0;"/><text fill="#000000" font-family="sans-serif" font-size="13" font-weight="bold" lengthAdjust="spacing" textLength="17" x="622" y="291.4346">ref</text><text fill="#000000" font-family="sans-serif" font-size="12" lengthAdjust="spacing" textLength="48" x="674.5" y="311.3555">Get GSM</text><line style="stroke:#181818;stroke-width:1.0;stroke-dasharray:2.0,2.0;" x1="708.5" x2="750.5" y1="351.9492" y2="351.9492"/><line style="stroke:#181818;stroke-width:1.0;stroke-dasharray:2.0,2.0;" x1="750.5" x2="750.5" y1="351.9492" y2="364.9492"/><line style="stroke:#181818;stroke-width:1.0;stroke-dasharray:2.0,2.0;" x1="703.5" x2="750.5" y1="364.9492" y2="364.9492"/><polygon fill="#181818" points="713.5,360.9492,703.5,364.9492,713.5,368.9492,709.5,364.9492" style="stroke:#181818;stroke-width:1.0;"/><text fill="#000000" font-family="sans-serif" font-size="13" font-weight="bold" lengthAdjust="spacing" textLength="7" x="715.5" y="346.6865">6</text><text fill="#000000" font-family="sans-serif" font-size="13" lengthAdjust="spacing" textLength="25" x="726.5" y="346.6865">gsm</text><polygon fill="#181818" points="956.5,387.2402,966.5,391.2402,956.5,395.2402,960.5,391.2402" style="stroke:#181818;stroke-width:1.0;"/><line style="stroke:#181818;stroke-width:1.0;" x1="703.5" x2="962.5" y1="391.2402" y2="391.2402"/><text fill="#000000" font-family="sans-serif" font-size="13" font-weight="bold" lengthAdjust="spacing" textLength="7" x="710.5" y="385.9775">7</text><text fill="#000000" font-family="sans-serif" font-size="13" lengthAdjust="spacing" textLength="132" x="721.5" y="385.9775">getAgendaRepository()</text><polygon fill="#181818" points="714.5,418.5313,704.5,422.5313,714.5,426.5313,710.5,422.5313" style="stroke:#181818;stroke-width:1.0;"/><line style="stroke:#181818;stroke-width:1.0;" x1="708.5" x2="972.5" y1="422.5313" y2="422.5313"/><text fill="#000000" font-family="sans-serif" font-size="13" font-weight="bold" lengthAdjust="spacing" textLength="7" x="720.5" y="417.2686">8</text><text fill="#000000" font-family="sans-serif" font-size="13" lengthAdjust="spacing" textLength="106" x="731.5" y="417.2686">AgendaRepository</text><polygon fill="#181818" points="681.5,449.8223,691.5,453.8223,681.5,457.8223,685.5,453.8223" style="stroke:#181818;stroke-width:1.0;"/><line style="stroke:#181818;stroke-width:1.0;" x1="458.5" x2="687.5" y1="453.8223" y2="453.8223"/><text fill="#000000" font-family="sans-serif" font-size="13" font-weight="bold" lengthAdjust="spacing" textLength="7" x="465.5" y="448.5596">9</text><text fill="#000000" font-family="sans-serif" font-size="13" lengthAdjust="spacing" textLength="141" x="476.5" y="448.5596">getAgendaByGSM(gsm)</text><polygon fill="#181818" points="1082.5,481.1133,1092.5,485.1133,1082.5,489.1133,1086.5,485.1133" style="stroke:#181818;stroke-width:1.0;"/><line style="stroke:#181818;stroke-width:1.0;" x1="703.5" x2="1088.5" y1="485.1133" y2="485.1133"/><text fill="#000000" font-family="sans-serif" font-size="13" font-weight="bold" lengthAdjust="spacing" textLength="14" x="710.5" y="479.8506">10</text><text fill="#000000" font-family="sans-serif" font-size="13" lengthAdjust="spacing" textLength="141" x="728.5" y="479.8506">getAgendaByGSM(gsm)</text><polygon fill="#181818" points="714.5,512.4043,704.5,516.4043,714.5,520.4043,710.5,516.4043" style="stroke:#181818;stroke-width:1.0;"/><line style="stroke:#181818;stroke-width:1.0;stroke-dasharray:2.0,2.0;" x1="708.5" x2="1098.5" y1="516.4043" y2="516.4043"/><text fill="#000000" font-family="sans-serif" font-size="13" font-weight="bold" lengthAdjust="spacing" textLength="14" x="720.5" y="511.1416">11</text><text fill="#000000" font-family="sans-serif" font-size="13" lengthAdjust="spacing" textLength="42" x="738.5" y="511.1416">agenda</text><polygon fill="#181818" points="469.5,543.6953,459.5,547.6953,469.5,551.6953,465.5,547.6953" style="stroke:#181818;stroke-width:1.0;"/><line style="stroke:#181818;stroke-width:1.0;stroke-dasharray:2.0,2.0;" x1="463.5" x2="692.5" y1="547.6953" y2="547.6953"/><text fill="#000000" font-family="sans-serif" font-size="13" font-weight="bold" lengthAdjust="spacing" textLength="14" x="475.5" y="542.4326">12</text><text fill="#000000" font-family="sans-serif" font-size="13" lengthAdjust="spacing" textLength="42" x="493.5" y="542.4326">agenda</text><polygon fill="#181818" points="681.5,574.9863,691.5,578.9863,681.5,582.9863,685.5,578.9863" style="stroke:#181818;stroke-width:1.0;"/><line style="stroke:#181818;stroke-width:1.0;" x1="458.5" x2="687.5" y1="578.9863" y2="578.9863"/><text fill="#000000" font-family="sans-serif" font-size="13" font-weight="bold" lengthAdjust="spacing" textLength="14" x="465.5" y="573.7236">13</text><text fill="#000000" font-family="sans-serif" font-size="13" lengthAdjust="spacing" textLength="111" x="483.5" y="573.7236">getAgendaEntries()</text><polygon fill="#181818" points="1191.5,606.2773,1201.5,610.2773,1191.5,614.2773,1195.5,610.2773" style="stroke:#181818;stroke-width:1.0;"/><line style="stroke:#181818;stroke-width:1.0;" x1="703.5" x2="1197.5" y1="610.2773" y2="610.2773"/><text fill="#000000" font-family="sans-serif" font-size="13" font-weight="bold" lengthAdjust="spacing" textLength="14" x="710.5" y="605.0146">14</text><text fill="#000000" font-family="sans-serif" font-size="13" lengthAdjust="spacing" textLength="111" x="728.5" y="605.0146">getAgendaEntries()</text><polygon fill="#181818" points="714.5,637.5684,704.5,641.5684,714.5,645.5684,710.5,641.5684" style="stroke:#181818;stroke-width:1.0;"/><line style="stroke:#181818;stroke-width:1.0;stroke-dasharray:2.0,2.0;" x1="708.5" x2="1207.5" y1="641.5684" y2="641.5684"/><text fill="#000000" font-family="sans-serif" font-size="13" font-weight="bold" lengthAdjust="spacing" textLength="14" x="720.5" y="636.3057">15</text><text fill="#000000" font-family="sans-serif" font-size="13" lengthAdjust="spacing" textLength="83" x="738.5" y="636.3057">agendaEntries</text><polygon fill="#181818" points="469.5,668.8594,459.5,672.8594,469.5,676.8594,465.5,672.8594" style="stroke:#181818;stroke-width:1.0;"/><line style="stroke:#181818;stroke-width:1.0;stroke-dasharray:2.0,2.0;" x1="463.5" x2="697.5" y1="672.8594" y2="672.8594"/><text fill="#000000" font-family="sans-serif" font-size="13" font-weight="bold" lengthAdjust="spacing" textLength="14" x="475.5" y="667.5967">16</text><text fill="#000000" font-family="sans-serif" font-size="13" lengthAdjust="spacing" textLength="83" x="493.5" y="667.5967">agendaEntries</text><polygon fill="#181818" points="99.5,700.1504,89.5,704.1504,99.5,708.1504,95.5,704.1504" style="stroke:#181818;stroke-width:1.0;"/><line style="stroke:#181818;stroke-width:1.0;stroke-dasharray:2.0,2.0;" x1="93.5" x2="452.5" y1="704.1504" y2="704.1504"/><text fill="#000000" font-family="sans-serif" font-size="13" font-weight="bold" lengthAdjust="spacing" textLength="14" x="105.5" y="698.8877">17</text><text fill="#000000" font-family="sans-serif" font-size="13" lengthAdjust="spacing" textLength="251" x="123.5" y="698.8877">shows list of entries and asks to select one</text><polygon fill="#181818" points="436.5,731.4414,446.5,735.4414,436.5,739.4414,440.5,735.4414" style="stroke:#181818;stroke-width:1.0;"/><line style="stroke:#181818;stroke-width:1.0;" x1="88.5" x2="442.5" y1="735.4414" y2="735.4414"/><text fill="#000000" font-family="sans-serif" font-size="13" font-weight="bold" lengthAdjust="spacing" textLength="14" x="95.5" y="730.1787">18</text><text fill="#000000" font-family="sans-serif" font-size="13" lengthAdjust="spacing" textLength="75" x="113.5" y="730.1787">selects entry</text><polygon fill="#181818" points="1191.5,762.7324,1201.5,766.7324,1191.5,770.7324,1195.5,766.7324" style="stroke:#181818;stroke-width:1.0;"/><line style="stroke:#181818;stroke-width:1.0;" x1="458.5" x2="1197.5" y1="766.7324" y2="766.7324"/><text fill="#000000" font-family="sans-serif" font-size="13" font-weight="bold" lengthAdjust="spacing" textLength="14" x="465.5" y="761.4697">19</text><text fill="#000000" font-family="sans-serif" font-size="13" lengthAdjust="spacing" textLength="106" x="483.5" y="761.4697">get(selectedIndex)</text><polygon fill="#181818" points="469.5,794.0234,459.5,798.0234,469.5,802.0234,465.5,798.0234" style="stroke:#181818;stroke-width:1.0;"/><line style="stroke:#181818;stroke-width:1.0;stroke-dasharray:2.0,2.0;" x1="463.5" x2="1207.5" y1="798.0234" y2="798.0234"/><text fill="#000000" font-family="sans-serif" font-size="13" font-weight="bold" lengthAdjust="spacing" textLength="14" x="475.5" y="792.7607">20</text><text fill="#000000" font-family="sans-serif" font-size="13" lengthAdjust="spacing" textLength="73" x="493.5" y="792.7607">agendaEntry</text><polygon fill="#181818" points="99.5,825.3145,89.5,829.3145,99.5,833.3145,95.5,829.3145" style="stroke:#181818;stroke-width:1.0;"/><line style="stroke:#181818;stroke-width:1.0;stroke-dasharray:2.0,2.0;" x1="93.5" x2="452.5" y1="829.3145" y2="829.3145"/><text fill="#000000" font-family="sans-serif" font-size="13" font-weight="bold" lengthAdjust="spacing" textLength="14" x="105.5" y="824.0518">21</text><text fill="#000000" font-family="sans-serif" font-size="13" lengthAdjust="spacing" textLength="221" x="123.5" y="824.0518">requests date to postpone the entry to</text><polygon fill="#181818" points="436.5,856.6055,446.5,860.6055,436.5,864.6055,440.5,860.6055" style="stroke:#181818;stroke-width:1.0;"/><line style="stroke:#181818;stroke-width:1.0;" x1="88.5" x2="442.5" y1="860.6055" y2="860.6055"/><text fill="#000000" font-family="sans-serif" font-size="13" font-weight="bold" lengthAdjust="spacing" textLength="14" x="95.5" y="855.3428">22</text><text fill="#000000" font-family="sans-serif" font-size="13" lengthAdjust="spacing" textLength="61" x="113.5" y="855.3428">types date</text><polygon fill="#181818" points="99.5,887.8965,89.5,891.8965,99.5,895.8965,95.5,891.8965" style="stroke:#181818;stroke-width:1.0;"/><line style="stroke:#181818;stroke-width:1.0;stroke-dasharray:2.0,2.0;" x1="93.5" x2="452.5" y1="891.8965" y2="891.8965"/><text fill="#000000" font-family="sans-serif" font-size="13" font-weight="bold" lengthAdjust="spacing" textLength="14" x="105.5" y="886.6338">23</text><text fill="#000000" font-family="sans-serif" font-size="13" lengthAdjust="spacing" textLength="219" x="123.5" y="886.6338">shows data and requests confirmation</text><polygon fill="#181818" points="436.5,919.1875,446.5,923.1875,436.5,927.1875,440.5,923.1875" style="stroke:#181818;stroke-width:1.0;"/><line style="stroke:#181818;stroke-width:1.0;" x1="88.5" x2="442.5" y1="923.1875" y2="923.1875"/><text fill="#000000" font-family="sans-serif" font-size="13" font-weight="bold" lengthAdjust="spacing" textLength="14" x="95.5" y="917.9248">24</text><text fill="#000000" font-family="sans-serif" font-size="13" lengthAdjust="spacing" textLength="78" x="113.5" y="917.9248">confirms data</text><polygon fill="#181818" points="681.5,950.4785,691.5,954.4785,681.5,958.4785,685.5,954.4785" style="stroke:#181818;stroke-width:1.0;"/><line style="stroke:#181818;stroke-width:1.0;" x1="458.5" x2="687.5" y1="954.4785" y2="954.4785"/><text fill="#000000" font-family="sans-serif" font-size="13" font-weight="bold" lengthAdjust="spacing" textLength="14" x="465.5" y="949.2158">25</text><text fill="#000000" font-family="sans-serif" font-size="13" lengthAdjust="spacing" textLength="198" x="483.5" y="949.2158">postponeEntry(agendaEntry, date)</text><polygon fill="#181818" points="1191.5,1006.7695,1201.5,1010.7695,1191.5,1014.7695,1195.5,1010.7695" style="stroke:#181818;stroke-width:1.0;"/><line style="stroke:#181818;stroke-width:1.0;" x1="703.5" x2="1197.5" y1="1010.7695" y2="1010.7695"/><text fill="#000000" font-family="sans-serif" font-size="13" font-weight="bold" lengthAdjust="spacing" textLength="14" x="710.5" y="1005.5068">26</text><text fill="#000000" font-family="sans-serif" font-size="13" lengthAdjust="spacing" textLength="198" x="728.5" y="1005.5068">postponeEntry(agendaEntry, date)</text><line style="stroke:#181818;stroke-width:1.0;" x1="1213.5" x2="1260.5" y1="1037.0605" y2="1037.0605"/><line style="stroke:#181818;stroke-width:1.0;" x1="1260.5" x2="1260.5" y1="1037.0605" y2="1050.0605"/><line style="stroke:#181818;stroke-width:1.0;" x1="1219.5" x2="1260.5" y1="1050.0605" y2="1050.0605"/><polygon fill="#181818" points="1229.5,1046.0605,1219.5,1050.0605,1229.5,1054.0605,1225.5,1050.0605" style="stroke:#181818;stroke-width:1.0;"/><text fill="#000000" font-family="sans-serif" font-size="13" font-weight="bold" lengthAdjust="spacing" textLength="14" x="1225.5" y="1031.7979">27</text><text fill="#000000" font-family="sans-serif" font-size="13" lengthAdjust="spacing" textLength="198" x="1243.5" y="1031.7979">postponeEntry(agendaEntry, date)</text><line style="stroke:#181818;stroke-width:1.0;stroke-dasharray:2.0,2.0;" x1="1218.5" x2="1260.5" y1="1091.3516" y2="1091.3516"/><line style="stroke:#181818;stroke-width:1.0;stroke-dasharray:2.0,2.0;" x1="1260.5" x2="1260.5" y1="1091.3516" y2="1104.3516"/><line style="stroke:#181818;stroke-width:1.0;stroke-dasharray:2.0,2.0;" x1="1213.5" x2="1260.5" y1="1104.3516" y2="1104.3516"/><polygon fill="#181818" points="1223.5,1100.3516,1213.5,1104.3516,1223.5,1108.3516,1219.5,1104.3516" style="stroke:#181818;stroke-width:1.0;"/><text fill="#000000" font-family="sans-serif" font-size="13" font-weight="bold" lengthAdjust="spacing" textLength="14" x="1225.5" y="1086.0889">28</text><text fill="#000000" font-family="sans-serif" font-size="13" lengthAdjust="spacing" textLength="22" x="1243.5" y="1086.0889">true</text><polygon fill="#181818" points="94.5,1126.6426,84.5,1130.6426,94.5,1134.6426,90.5,1130.6426" style="stroke:#181818;stroke-width:1.0;"/><line style="stroke:#181818;stroke-width:1.0;stroke-dasharray:2.0,2.0;" x1="88.5" x2="452.5" y1="1130.6426" y2="1130.6426"/><text fill="#000000" font-family="sans-serif" font-size="13" font-weight="bold" lengthAdjust="spacing" textLength="14" x="100.5" y="1125.3799">29</text><text fill="#000000" font-family="sans-serif" font-size="13" lengthAdjust="spacing" textLength="158" x="118.5" y="1125.3799">displays operation success</text><!--SRC=[hLV1Rk8m4BtxAqQz5AhjVW27Icnt5o6rKWNjRIzkCa3KO6TjfssaVloERKYS4C1frmSGoSnxzflnpA1VCb5mnRUmbK8c6oMt24QLo7Jzfk392r_ZqbGvWiB4SB7EGmEzuQbyoyGQLZpNo1WlZHJbzXaLOvURB4LOIMcUvJlZYP4ABcOAKS2Ia573FHS4how0QvZ-l6S4Qh8aAxWmS35vaDeKKk0lOLJrD7TMJ_DJHhUIFcMUxo1l7nTt7VC55b9dj9CCjREf7rJBp1wEjjzsKO777t48y70tVMnxq954oXjWyffs7laJBzf-tiY_cZ4hMFRA3Jfb6EmM_O3h6z819cJuei58A7OQ01U0LWV819WDUJf4Qy9XLPfI8QI4-Bs1gqb8M7O9mIA6QoAoV1EA_TyIjT7MdSD8y2sEMMXzcIYqC4xoBioDUtnrHK3UZBLCwZquvzQhSDct5gidOWIyHZCNcX8qmT7uA4PtrTHzQH2DObVVhgvt9xVwDLaJ3PlYVzhUNZdtxQIQBUz_quLVejQP50C4YmtMmLAu0lcAwZ13JguP6g3DnZjGmWyBt4wTG1wzZGS8OXGXo3uGjcRuG7GBGsmeQbPNVixxECRcZ5rQDkIW4PJDhGzE-QEYI8v8td6aJDD5l_VmPALI6-yrNGGtrnVpJoK4aSObdY_cdYXQs31_RFEZod8cUMfPPyDzcqFDJk-Gm8Exn4CA5glR6Oe-tGPI-Bkw4xlLwVH6lcd8Csr0hbmt9LXgh6dTRJNcD0a1zLlMGRKzr4E6NThRQz-PsK7JZSeg7_Pzu4OU4jEvIF5zQCKu9sydaXsHApRq5ipOoN42MnECdLhy26DadxnzOv2f2lHG_MFD_Y4xEjxueBlPnaQwtbuYnIfJMsweIR8ZvoE6Ne9mXpiSJz4_-xZSwRtbHJZXZe98V7Dd7hE8rlpnyT5-qDI20GHdqyYcp2SmlrfiBA7xv_A50dEoaJV9Ce4qqqNEAmsoGEKo0tIPqByPtPUl8IkDyVy0]--></g></svg>