<?xml version="1.0" encoding="us-ascii" standalone="no"?><svg xmlns="http://www.w3.org/2000/svg" xmlns:xlink="http://www.w3.org/1999/xlink" contentStyleType="text/css" height="1164px" preserveAspectRatio="none" style="width:2270px;height:1164px;background:#FFFFFF;" version="1.1" viewBox="0 0 2270 1164" width="2270px" zoomAndPan="magnify"><defs/><g><!--class ApplicationSession--><g id="elem_ApplicationSession"><rect codeLine="9" fill="#F1F1F1" height="85.2422" id="ApplicationSession" rx="2.5" ry="2.5" style="stroke:#181818;stroke-width:0.5;" width="151" x="1995.5" y="427.5"/><ellipse cx="2010.5" cy="443.5" fill="#ADD1B2" rx="11" ry="11" style="stroke:#181818;stroke-width:1.0;"/><path d="M2013.2656,439.375 Q2013.4219,439.1563 2013.6094,439.0469 Q2013.7969,438.9375 2014.0156,438.9375 Q2014.3906,438.9375 2014.625,439.2031 Q2014.8594,439.4531 2014.8594,440.0625 L2014.8594,441.5156 Q2014.8594,442.125 2014.625,442.3906 Q2014.3906,442.6563 2014.0156,442.6563 Q2013.6719,442.6563 2013.4688,442.4531 Q2013.2656,442.2656 2013.1563,441.75 Q2013.1094,441.3906 2012.9219,441.2031 Q2012.5938,440.8281 2011.9844,440.6094 Q2011.375,440.3906 2010.75,440.3906 Q2009.9844,440.3906 2009.3438,440.7188 Q2008.7188,441.0469 2008.2188,441.7969 Q2007.7344,442.5469 2007.7344,443.5781 L2007.7344,444.6719 Q2007.7344,445.9063 2008.625,446.7344 Q2009.5156,447.5469 2011.1094,447.5469 Q2012.0469,447.5469 2012.7031,447.2969 Q2013.0938,447.1406 2013.5156,446.7031 Q2013.7813,446.4375 2013.9219,446.3594 Q2014.0781,446.2813 2014.2813,446.2813 Q2014.6094,446.2813 2014.8594,446.5469 Q2015.125,446.7969 2015.125,447.1406 Q2015.125,447.4844 2014.7813,447.8906 Q2014.2813,448.4688 2013.4844,448.7969 Q2012.4063,449.25 2011.1094,449.25 Q2009.5938,449.25 2008.3906,448.625 Q2007.4063,448.125 2006.7188,447.0625 Q2006.0313,445.9844 2006.0313,444.7031 L2006.0313,443.5469 Q2006.0313,442.2188 2006.6406,441.0781 Q2007.2656,439.9219 2008.3594,439.3125 Q2009.4531,438.6875 2010.6875,438.6875 Q2011.4219,438.6875 2012.0625,438.8594 Q2012.7188,439.0156 2013.2656,439.375 Z " fill="#000000"/><text fill="#000000" font-family="sans-serif" font-size="14" lengthAdjust="spacing" textLength="119" x="2024.5" y="449.2969">ApplicationSession</text><line style="stroke:#181818;stroke-width:0.5;" x1="1996.5" x2="2145.5" y1="459.5" y2="459.5"/><line style="stroke:#181818;stroke-width:0.5;" x1="1996.5" x2="2145.5" y1="467.5" y2="467.5"/><text fill="#000000" font-family="sans-serif" font-size="14" lengthAdjust="spacing" textLength="128" x="2001.5" y="486.6074">+static getInstance()</text><text fill="#000000" font-family="sans-serif" font-size="14" lengthAdjust="spacing" textLength="136" x="2001.5" y="505.2285">+getCurrentSession()</text></g><!--class UserSession--><g id="elem_UserSession"><rect codeLine="15" fill="#F1F1F1" height="66.6211" id="UserSession" rx="2.5" ry="2.5" style="stroke:#181818;stroke-width:0.5;" width="113" x="1932.5" y="759"/><ellipse cx="1948.4" cy="775" fill="#ADD1B2" rx="11" ry="11" style="stroke:#181818;stroke-width:1.0;"/><path d="M1951.1656,770.875 Q1951.3219,770.6563 1951.5094,770.5469 Q1951.6969,770.4375 1951.9156,770.4375 Q1952.2906,770.4375 1952.525,770.7031 Q1952.7594,770.9531 1952.7594,771.5625 L1952.7594,773.0156 Q1952.7594,773.625 1952.525,773.8906 Q1952.2906,774.1563 1951.9156,774.1563 Q1951.5719,774.1563 1951.3688,773.9531 Q1951.1656,773.7656 1951.0563,773.25 Q1951.0094,772.8906 1950.8219,772.7031 Q1950.4938,772.3281 1949.8844,772.1094 Q1949.275,771.8906 1948.65,771.8906 Q1947.8844,771.8906 1947.2438,772.2188 Q1946.6188,772.5469 1946.1188,773.2969 Q1945.6344,774.0469 1945.6344,775.0781 L1945.6344,776.1719 Q1945.6344,777.4063 1946.525,778.2344 Q1947.4156,779.0469 1949.0094,779.0469 Q1949.9469,779.0469 1950.6031,778.7969 Q1950.9938,778.6406 1951.4156,778.2031 Q1951.6813,777.9375 1951.8219,777.8594 Q1951.9781,777.7813 1952.1813,777.7813 Q1952.5094,777.7813 1952.7594,778.0469 Q1953.025,778.2969 1953.025,778.6406 Q1953.025,778.9844 1952.6813,779.3906 Q1952.1813,779.9688 1951.3844,780.2969 Q1950.3063,780.75 1949.0094,780.75 Q1947.4938,780.75 1946.2906,780.125 Q1945.3063,779.625 1944.6188,778.5625 Q1943.9313,777.4844 1943.9313,776.2031 L1943.9313,775.0469 Q1943.9313,773.7188 1944.5406,772.5781 Q1945.1656,771.4219 1946.2594,770.8125 Q1947.3531,770.1875 1948.5875,770.1875 Q1949.3219,770.1875 1949.9625,770.3594 Q1950.6188,770.5156 1951.1656,770.875 Z " fill="#000000"/><text fill="#000000" font-family="sans-serif" font-size="14" lengthAdjust="spacing" textLength="79" x="1962.6" y="780.7969">UserSession</text><line style="stroke:#181818;stroke-width:0.5;" x1="1933.5" x2="2044.5" y1="791" y2="791"/><line style="stroke:#181818;stroke-width:0.5;" x1="1933.5" x2="2044.5" y1="799" y2="799"/><text fill="#000000" font-family="sans-serif" font-size="14" lengthAdjust="spacing" textLength="101" x="1938.5" y="818.1074">+getUserEmail()</text></g><!--class AgendaEntry--><g id="elem_AgendaEntry"><rect codeLine="20" fill="#F1F1F1" height="345.9375" id="AgendaEntry" rx="2.5" ry="2.5" style="stroke:#181818;stroke-width:0.5;" width="743" x="204.5" y="297"/><ellipse cx="530.75" cy="313" fill="#ADD1B2" rx="11" ry="11" style="stroke:#181818;stroke-width:1.0;"/><path d="M533.5156,308.875 Q533.6719,308.6563 533.8594,308.5469 Q534.0469,308.4375 534.2656,308.4375 Q534.6406,308.4375 534.875,308.7031 Q535.1094,308.9531 535.1094,309.5625 L535.1094,311.0156 Q535.1094,311.625 534.875,311.8906 Q534.6406,312.1563 534.2656,312.1563 Q533.9219,312.1563 533.7188,311.9531 Q533.5156,311.7656 533.4063,311.25 Q533.3594,310.8906 533.1719,310.7031 Q532.8438,310.3281 532.2344,310.1094 Q531.625,309.8906 531,309.8906 Q530.2344,309.8906 529.5938,310.2188 Q528.9688,310.5469 528.4688,311.2969 Q527.9844,312.0469 527.9844,313.0781 L527.9844,314.1719 Q527.9844,315.4063 528.875,316.2344 Q529.7656,317.0469 531.3594,317.0469 Q532.2969,317.0469 532.9531,316.7969 Q533.3438,316.6406 533.7656,316.2031 Q534.0313,315.9375 534.1719,315.8594 Q534.3281,315.7813 534.5313,315.7813 Q534.8594,315.7813 535.1094,316.0469 Q535.375,316.2969 535.375,316.6406 Q535.375,316.9844 535.0313,317.3906 Q534.5313,317.9688 533.7344,318.2969 Q532.6563,318.75 531.3594,318.75 Q529.8438,318.75 528.6406,318.125 Q527.6563,317.625 526.9688,316.5625 Q526.2813,315.4844 526.2813,314.2031 L526.2813,313.0469 Q526.2813,311.7188 526.8906,310.5781 Q527.5156,309.4219 528.6094,308.8125 Q529.7031,308.1875 530.9375,308.1875 Q531.6719,308.1875 532.3125,308.3594 Q532.9688,308.5156 533.5156,308.875 Z " fill="#000000"/><text fill="#000000" font-family="sans-serif" font-size="14" lengthAdjust="spacing" textLength="82" x="551.25" y="318.7969">AgendaEntry</text><line style="stroke:#181818;stroke-width:0.5;" x1="205.5" x2="946.5" y1="329" y2="329"/><text fill="#000000" font-family="sans-serif" font-size="14" lengthAdjust="spacing" textLength="72" x="210.5" y="348.1074">-title: String</text><text fill="#000000" font-family="sans-serif" font-size="14" lengthAdjust="spacing" textLength="147" x="210.5" y="366.7285">-taskDescription: String</text><text fill="#000000" font-family="sans-serif" font-size="14" lengthAdjust="spacing" textLength="101" x="210.5" y="385.3496">-urgency: String</text><text fill="#000000" font-family="sans-serif" font-size="14" lengthAdjust="spacing" textLength="102" x="210.5" y="403.9707">-duration: String</text><text fill="#000000" font-family="sans-serif" font-size="14" lengthAdjust="spacing" textLength="241" x="210.5" y="422.5918">-associatedGreenSpace: GreenSpace</text><text fill="#000000" font-family="sans-serif" font-size="14" lengthAdjust="spacing" textLength="153" x="210.5" y="441.2129">-associatedTeam: Team</text><text fill="#000000" font-family="sans-serif" font-size="14" lengthAdjust="spacing" textLength="218" x="210.5" y="459.834">-associatedVehicles: List&lt;Vehicle&gt;</text><text fill="#000000" font-family="sans-serif" font-size="14" lengthAdjust="spacing" textLength="88" x="210.5" y="478.4551">-status: String</text><text fill="#000000" font-family="sans-serif" font-size="14" lengthAdjust="spacing" textLength="135" x="210.5" y="497.0762">-startDate: LocalDate</text><line style="stroke:#181818;stroke-width:0.5;" x1="205.5" x2="946.5" y1="504.5898" y2="504.5898"/><text fill="#000000" font-family="sans-serif" font-size="14" lengthAdjust="spacing" textLength="731" x="210.5" y="523.6973">+AgendaEntry(String title, String taskDescription, String urgency, String duration, String status, LocalDate startDate)</text><text fill="#000000" font-family="sans-serif" font-size="14" lengthAdjust="spacing" textLength="338" x="210.5" y="542.3184">+boolean addGreenSpace(GreenSpace greenSpace)</text><text fill="#000000" font-family="sans-serif" font-size="14" lengthAdjust="spacing" textLength="204" x="210.5" y="560.9395">+boolean addTeam(Team team)</text><text fill="#000000" font-family="sans-serif" font-size="14" lengthAdjust="spacing" textLength="237" x="210.5" y="579.5605">+boolean addVehicle(Vehicle vehicle)</text><text fill="#000000" font-family="sans-serif" font-size="14" lengthAdjust="spacing" textLength="168" x="210.5" y="598.1816">+boolean equals(Object o)</text><text fill="#000000" font-family="sans-serif" font-size="14" lengthAdjust="spacing" textLength="102" x="210.5" y="616.8027">+int hashCode()</text><text fill="#000000" font-family="sans-serif" font-size="14" lengthAdjust="spacing" textLength="138" x="210.5" y="635.4238">+AgendaEntry clone()</text></g><!--class Agenda--><g id="elem_Agenda"><rect codeLine="39" fill="#F1F1F1" height="215.5898" id="Agenda" rx="2.5" ry="2.5" style="stroke:#181818;stroke-width:0.5;" width="460" x="1055" y="942"/><ellipse cx="1256.25" cy="958" fill="#ADD1B2" rx="11" ry="11" style="stroke:#181818;stroke-width:1.0;"/><path d="M1259.0156,953.875 Q1259.1719,953.6563 1259.3594,953.5469 Q1259.5469,953.4375 1259.7656,953.4375 Q1260.1406,953.4375 1260.375,953.7031 Q1260.6094,953.9531 1260.6094,954.5625 L1260.6094,956.0156 Q1260.6094,956.625 1260.375,956.8906 Q1260.1406,957.1563 1259.7656,957.1563 Q1259.4219,957.1563 1259.2188,956.9531 Q1259.0156,956.7656 1258.9063,956.25 Q1258.8594,955.8906 1258.6719,955.7031 Q1258.3438,955.3281 1257.7344,955.1094 Q1257.125,954.8906 1256.5,954.8906 Q1255.7344,954.8906 1255.0938,955.2188 Q1254.4688,955.5469 1253.9688,956.2969 Q1253.4844,957.0469 1253.4844,958.0781 L1253.4844,959.1719 Q1253.4844,960.4063 1254.375,961.2344 Q1255.2656,962.0469 1256.8594,962.0469 Q1257.7969,962.0469 1258.4531,961.7969 Q1258.8438,961.6406 1259.2656,961.2031 Q1259.5313,960.9375 1259.6719,960.8594 Q1259.8281,960.7813 1260.0313,960.7813 Q1260.3594,960.7813 1260.6094,961.0469 Q1260.875,961.2969 1260.875,961.6406 Q1260.875,961.9844 1260.5313,962.3906 Q1260.0313,962.9688 1259.2344,963.2969 Q1258.1563,963.75 1256.8594,963.75 Q1255.3438,963.75 1254.1406,963.125 Q1253.1563,962.625 1252.4688,961.5625 Q1251.7813,960.4844 1251.7813,959.2031 L1251.7813,958.0469 Q1251.7813,956.7188 1252.3906,955.5781 Q1253.0156,954.4219 1254.1094,953.8125 Q1255.2031,953.1875 1256.4375,953.1875 Q1257.1719,953.1875 1257.8125,953.3594 Q1258.4688,953.5156 1259.0156,953.875 Z " fill="#000000"/><text fill="#000000" font-family="sans-serif" font-size="14" lengthAdjust="spacing" textLength="49" x="1276.75" y="963.7969">Agenda</text><line style="stroke:#181818;stroke-width:0.5;" x1="1056" x2="1514" y1="974" y2="974"/><text fill="#000000" font-family="sans-serif" font-size="14" lengthAdjust="spacing" textLength="176" x="1061" y="993.1074">-entries: List&lt;AgendaEntry&gt;</text><text fill="#000000" font-family="sans-serif" font-size="14" lengthAdjust="spacing" textLength="70" x="1061" y="1011.7285">-gsm: GSM</text><line style="stroke:#181818;stroke-width:0.5;" x1="1056" x2="1514" y1="1019.2422" y2="1019.2422"/><text fill="#000000" font-family="sans-serif" font-size="14" lengthAdjust="spacing" textLength="303" x="1061" y="1038.3496">+Agenda(List&lt;AgendaEntry&gt; entries, GSM gsm)</text><text fill="#000000" font-family="sans-serif" font-size="14" lengthAdjust="spacing" textLength="248" x="1061" y="1056.9707">+boolean addEntry(AgendaEntry entry)</text><text fill="#000000" font-family="sans-serif" font-size="14" lengthAdjust="spacing" textLength="448" x="1061" y="1075.5918">+boolean postponeEntry(AgendaEntry entry, LocalDate postponeDate)</text><text fill="#000000" font-family="sans-serif" font-size="14" lengthAdjust="spacing" textLength="265" x="1061" y="1094.2129">+boolean cancelEntry(AgendaEntry entry)</text><text fill="#000000" font-family="sans-serif" font-size="14" lengthAdjust="spacing" textLength="168" x="1061" y="1112.834">+boolean equals(Object o)</text><text fill="#000000" font-family="sans-serif" font-size="14" lengthAdjust="spacing" textLength="102" x="1061" y="1131.4551">+int hashCode()</text><text fill="#000000" font-family="sans-serif" font-size="14" lengthAdjust="spacing" textLength="138" x="1061" y="1150.0762">+AgendaEntry clone()</text></g><!--class AgendaRepository--><g id="elem_AgendaRepository"><rect codeLine="51" fill="#F1F1F1" height="141.1055" id="AgendaRepository" rx="2.5" ry="2.5" style="stroke:#181818;stroke-width:0.5;" width="260" x="1356" y="722"/><ellipse cx="1423.25" cy="738" fill="#ADD1B2" rx="11" ry="11" style="stroke:#181818;stroke-width:1.0;"/><path d="M1426.0156,733.875 Q1426.1719,733.6563 1426.3594,733.5469 Q1426.5469,733.4375 1426.7656,733.4375 Q1427.1406,733.4375 1427.375,733.7031 Q1427.6094,733.9531 1427.6094,734.5625 L1427.6094,736.0156 Q1427.6094,736.625 1427.375,736.8906 Q1427.1406,737.1563 1426.7656,737.1563 Q1426.4219,737.1563 1426.2188,736.9531 Q1426.0156,736.7656 1425.9063,736.25 Q1425.8594,735.8906 1425.6719,735.7031 Q1425.3438,735.3281 1424.7344,735.1094 Q1424.125,734.8906 1423.5,734.8906 Q1422.7344,734.8906 1422.0938,735.2188 Q1421.4688,735.5469 1420.9688,736.2969 Q1420.4844,737.0469 1420.4844,738.0781 L1420.4844,739.1719 Q1420.4844,740.4063 1421.375,741.2344 Q1422.2656,742.0469 1423.8594,742.0469 Q1424.7969,742.0469 1425.4531,741.7969 Q1425.8438,741.6406 1426.2656,741.2031 Q1426.5313,740.9375 1426.6719,740.8594 Q1426.8281,740.7813 1427.0313,740.7813 Q1427.3594,740.7813 1427.6094,741.0469 Q1427.875,741.2969 1427.875,741.6406 Q1427.875,741.9844 1427.5313,742.3906 Q1427.0313,742.9688 1426.2344,743.2969 Q1425.1563,743.75 1423.8594,743.75 Q1422.3438,743.75 1421.1406,743.125 Q1420.1563,742.625 1419.4688,741.5625 Q1418.7813,740.4844 1418.7813,739.2031 L1418.7813,738.0469 Q1418.7813,736.7188 1419.3906,735.5781 Q1420.0156,734.4219 1421.1094,733.8125 Q1422.2031,733.1875 1423.4375,733.1875 Q1424.1719,733.1875 1424.8125,733.3594 Q1425.4688,733.5156 1426.0156,733.875 Z " fill="#000000"/><text fill="#000000" font-family="sans-serif" font-size="14" lengthAdjust="spacing" textLength="117" x="1443.75" y="743.7969">AgendaRepository</text><line style="stroke:#181818;stroke-width:0.5;" x1="1357" x2="1615" y1="754" y2="754"/><text fill="#000000" font-family="sans-serif" font-size="14" lengthAdjust="spacing" textLength="151" x="1362" y="773.1074">-List&lt;Agenda&gt; agendas</text><line style="stroke:#181818;stroke-width:0.5;" x1="1357" x2="1615" y1="780.6211" y2="780.6211"/><text fill="#000000" font-family="sans-serif" font-size="14" lengthAdjust="spacing" textLength="247" x="1362" y="799.7285">+boolean addAgenda(Agenda agenda)</text><text fill="#000000" font-family="sans-serif" font-size="14" lengthAdjust="spacing" textLength="185" x="1362" y="818.3496">+List&lt;Agenda&gt; getAgendas()</text><text fill="#000000" font-family="sans-serif" font-size="14" lengthAdjust="spacing" textLength="248" x="1362" y="836.9707">+Agenda getAgendaByGSM(GSM gsm)</text><text fill="#000000" font-family="sans-serif" font-size="14" lengthAdjust="spacing" textLength="247" x="1362" y="855.5918">+boolean addAgenda(Agenda agenda)</text></g><!--class Repositories--><g id="elem_Repositories"><rect codeLine="59" fill="#F1F1F1" height="85.2422" id="Repositories" rx="2.5" ry="2.5" style="stroke:#181818;stroke-width:0.5;" width="296" x="1338" y="427.5"/><ellipse cx="1442.25" cy="443.5" fill="#ADD1B2" rx="11" ry="11" style="stroke:#181818;stroke-width:1.0;"/><path d="M1445.0156,439.375 Q1445.1719,439.1563 1445.3594,439.0469 Q1445.5469,438.9375 1445.7656,438.9375 Q1446.1406,438.9375 1446.375,439.2031 Q1446.6094,439.4531 1446.6094,440.0625 L1446.6094,441.5156 Q1446.6094,442.125 1446.375,442.3906 Q1446.1406,442.6563 1445.7656,442.6563 Q1445.4219,442.6563 1445.2188,442.4531 Q1445.0156,442.2656 1444.9063,441.75 Q1444.8594,441.3906 1444.6719,441.2031 Q1444.3438,440.8281 1443.7344,440.6094 Q1443.125,440.3906 1442.5,440.3906 Q1441.7344,440.3906 1441.0938,440.7188 Q1440.4688,441.0469 1439.9688,441.7969 Q1439.4844,442.5469 1439.4844,443.5781 L1439.4844,444.6719 Q1439.4844,445.9063 1440.375,446.7344 Q1441.2656,447.5469 1442.8594,447.5469 Q1443.7969,447.5469 1444.4531,447.2969 Q1444.8438,447.1406 1445.2656,446.7031 Q1445.5313,446.4375 1445.6719,446.3594 Q1445.8281,446.2813 1446.0313,446.2813 Q1446.3594,446.2813 1446.6094,446.5469 Q1446.875,446.7969 1446.875,447.1406 Q1446.875,447.4844 1446.5313,447.8906 Q1446.0313,448.4688 1445.2344,448.7969 Q1444.1563,449.25 1442.8594,449.25 Q1441.3438,449.25 1440.1406,448.625 Q1439.1563,448.125 1438.4688,447.0625 Q1437.7813,445.9844 1437.7813,444.7031 L1437.7813,443.5469 Q1437.7813,442.2188 1438.3906,441.0781 Q1439.0156,439.9219 1440.1094,439.3125 Q1441.2031,438.6875 1442.4375,438.6875 Q1443.1719,438.6875 1443.8125,438.8594 Q1444.4688,439.0156 1445.0156,439.375 Z " fill="#000000"/><text fill="#000000" font-family="sans-serif" font-size="14" lengthAdjust="spacing" textLength="79" x="1462.75" y="449.2969">Repositories</text><line style="stroke:#181818;stroke-width:0.5;" x1="1339" x2="1633" y1="459.5" y2="459.5"/><line style="stroke:#181818;stroke-width:0.5;" x1="1339" x2="1633" y1="467.5" y2="467.5"/><text fill="#000000" font-family="sans-serif" font-size="14" lengthAdjust="spacing" textLength="182" x="1344" y="486.6074">+getInstance() : Repositories</text><text fill="#000000" font-family="sans-serif" font-size="14" lengthAdjust="spacing" textLength="284" x="1344" y="505.2285">+getAgendaRepository() : AgendaRepository</text></g><!--class PostponeEntryUI--><g id="elem_PostponeEntryUI"><rect codeLine="64" fill="#F1F1F1" height="196.9688" id="PostponeEntryUI" rx="2.5" ry="2.5" style="stroke:#181818;stroke-width:0.5;" width="271" x="862.5" y="21"/><ellipse cx="941.25" cy="37" fill="#ADD1B2" rx="11" ry="11" style="stroke:#181818;stroke-width:1.0;"/><path d="M944.0156,32.875 Q944.1719,32.6563 944.3594,32.5469 Q944.5469,32.4375 944.7656,32.4375 Q945.1406,32.4375 945.375,32.7031 Q945.6094,32.9531 945.6094,33.5625 L945.6094,35.0156 Q945.6094,35.625 945.375,35.8906 Q945.1406,36.1563 944.7656,36.1563 Q944.4219,36.1563 944.2188,35.9531 Q944.0156,35.7656 943.9063,35.25 Q943.8594,34.8906 943.6719,34.7031 Q943.3438,34.3281 942.7344,34.1094 Q942.125,33.8906 941.5,33.8906 Q940.7344,33.8906 940.0938,34.2188 Q939.4688,34.5469 938.9688,35.2969 Q938.4844,36.0469 938.4844,37.0781 L938.4844,38.1719 Q938.4844,39.4063 939.375,40.2344 Q940.2656,41.0469 941.8594,41.0469 Q942.7969,41.0469 943.4531,40.7969 Q943.8438,40.6406 944.2656,40.2031 Q944.5313,39.9375 944.6719,39.8594 Q944.8281,39.7813 945.0313,39.7813 Q945.3594,39.7813 945.6094,40.0469 Q945.875,40.2969 945.875,40.6406 Q945.875,40.9844 945.5313,41.3906 Q945.0313,41.9688 944.2344,42.2969 Q943.1563,42.75 941.8594,42.75 Q940.3438,42.75 939.1406,42.125 Q938.1563,41.625 937.4688,40.5625 Q936.7813,39.4844 936.7813,38.2031 L936.7813,37.0469 Q936.7813,35.7188 937.3906,34.5781 Q938.0156,33.4219 939.1094,32.8125 Q940.2031,32.1875 941.4375,32.1875 Q942.1719,32.1875 942.8125,32.3594 Q943.4688,32.5156 944.0156,32.875 Z " fill="#000000"/><text fill="#000000" font-family="sans-serif" font-size="14" lengthAdjust="spacing" textLength="105" x="961.75" y="42.7969">PostponeEntryUI</text><line style="stroke:#181818;stroke-width:0.5;" x1="863.5" x2="1132.5" y1="53" y2="53"/><text fill="#000000" font-family="sans-serif" font-size="14" lengthAdjust="spacing" textLength="227" x="868.5" y="72.1074">-controller: PostponeEntryController</text><text fill="#000000" font-family="sans-serif" font-size="14" lengthAdjust="spacing" textLength="176" x="868.5" y="90.7285">-agendaEntry: AgendaEntry</text><line style="stroke:#181818;stroke-width:0.5;" x1="863.5" x2="1132.5" y1="98.2422" y2="98.2422"/><text fill="#000000" font-family="sans-serif" font-size="14" lengthAdjust="spacing" textLength="259" x="868.5" y="117.3496">+PostponeEntryController getController()</text><text fill="#000000" font-family="sans-serif" font-size="14" lengthAdjust="spacing" textLength="69" x="868.5" y="135.9707">+void run()</text><text fill="#000000" font-family="sans-serif" font-size="14" lengthAdjust="spacing" textLength="119" x="868.5" y="154.5918">+void submitData()</text><text fill="#000000" font-family="sans-serif" font-size="14" lengthAdjust="spacing" textLength="126" x="868.5" y="173.2129">+void requestData()</text><text fill="#000000" font-family="sans-serif" font-size="14" lengthAdjust="spacing" textLength="234" x="868.5" y="191.834">+AgendaEntry requestAgendaEntry()</text><text fill="#000000" font-family="sans-serif" font-size="14" lengthAdjust="spacing" textLength="224" x="868.5" y="210.4551">+LocalDate requestPostponeDate()</text></g><!--class PostponeEntryController--><g id="elem_PostponeEntryController"><rect codeLine="75" fill="#F1F1F1" height="178.3477" id="PostponeEntryController" rx="2.5" ry="2.5" style="stroke:#181818;stroke-width:0.5;" width="749" x="1514.5" y="30.5"/><ellipse cx="1807.25" cy="46.5" fill="#ADD1B2" rx="11" ry="11" style="stroke:#181818;stroke-width:1.0;"/><path d="M1810.0156,42.375 Q1810.1719,42.1563 1810.3594,42.0469 Q1810.5469,41.9375 1810.7656,41.9375 Q1811.1406,41.9375 1811.375,42.2031 Q1811.6094,42.4531 1811.6094,43.0625 L1811.6094,44.5156 Q1811.6094,45.125 1811.375,45.3906 Q1811.1406,45.6563 1810.7656,45.6563 Q1810.4219,45.6563 1810.2188,45.4531 Q1810.0156,45.2656 1809.9063,44.75 Q1809.8594,44.3906 1809.6719,44.2031 Q1809.3438,43.8281 1808.7344,43.6094 Q1808.125,43.3906 1807.5,43.3906 Q1806.7344,43.3906 1806.0938,43.7188 Q1805.4688,44.0469 1804.9688,44.7969 Q1804.4844,45.5469 1804.4844,46.5781 L1804.4844,47.6719 Q1804.4844,48.9063 1805.375,49.7344 Q1806.2656,50.5469 1807.8594,50.5469 Q1808.7969,50.5469 1809.4531,50.2969 Q1809.8438,50.1406 1810.2656,49.7031 Q1810.5313,49.4375 1810.6719,49.3594 Q1810.8281,49.2813 1811.0313,49.2813 Q1811.3594,49.2813 1811.6094,49.5469 Q1811.875,49.7969 1811.875,50.1406 Q1811.875,50.4844 1811.5313,50.8906 Q1811.0313,51.4688 1810.2344,51.7969 Q1809.1563,52.25 1807.8594,52.25 Q1806.3438,52.25 1805.1406,51.625 Q1804.1563,51.125 1803.4688,50.0625 Q1802.7813,48.9844 1802.7813,47.7031 L1802.7813,46.5469 Q1802.7813,45.2188 1803.3906,44.0781 Q1804.0156,42.9219 1805.1094,42.3125 Q1806.2031,41.6875 1807.4375,41.6875 Q1808.1719,41.6875 1808.8125,41.8594 Q1809.4688,42.0156 1810.0156,42.375 Z " fill="#000000"/><text fill="#000000" font-family="sans-serif" font-size="14" lengthAdjust="spacing" textLength="155" x="1827.75" y="52.2969">PostponeEntryController</text><line style="stroke:#181818;stroke-width:0.5;" x1="1515.5" x2="2262.5" y1="62.5" y2="62.5"/><text fill="#000000" font-family="sans-serif" font-size="14" lengthAdjust="spacing" textLength="246" x="1520.5" y="81.6074">-agendaRepository: AgendaRepository</text><text fill="#000000" font-family="sans-serif" font-size="14" lengthAdjust="spacing" textLength="328" x="1520.5" y="100.2285">-authenticationRepository: AuthenticationRepository</text><line style="stroke:#181818;stroke-width:0.5;" x1="1515.5" x2="2262.5" y1="107.7422" y2="107.7422"/><text fill="#000000" font-family="sans-serif" font-size="14" lengthAdjust="spacing" textLength="737" x="1520.5" y="126.8496">+PostponeEntryController(AgendaRepository agendaRepository, AuthenticationRepository authenticationRepository)</text><text fill="#000000" font-family="sans-serif" font-size="14" lengthAdjust="spacing" textLength="276" x="1520.5" y="145.4707">+AgendaRepository getAgendaRepository()</text><text fill="#000000" font-family="sans-serif" font-size="14" lengthAdjust="spacing" textLength="358" x="1520.5" y="164.0918">+AuthenticationRepository getAuthenticationRepository()</text><text fill="#000000" font-family="sans-serif" font-size="14" lengthAdjust="spacing" textLength="487" x="1520.5" y="182.7129">+Optional&lt;AgendaEntry&gt; postponeEntry(AgendaEntry entry, LocalDate date)</text><text fill="#000000" font-family="sans-serif" font-size="14" lengthAdjust="spacing" textLength="187" x="1520.5" y="201.334">+GSM getGSMFromSession()</text></g><!--class GSM--><g id="elem_GSM"><rect codeLine="85" fill="#F1F1F1" height="122.4844" id="GSM" rx="2.5" ry="2.5" style="stroke:#181818;stroke-width:0.5;" width="124" x="674" y="58.5"/><ellipse cx="716.45" cy="74.5" fill="#ADD1B2" rx="11" ry="11" style="stroke:#181818;stroke-width:1.0;"/><path d="M719.2156,70.375 Q719.3719,70.1563 719.5594,70.0469 Q719.7469,69.9375 719.9656,69.9375 Q720.3406,69.9375 720.575,70.2031 Q720.8094,70.4531 720.8094,71.0625 L720.8094,72.5156 Q720.8094,73.125 720.575,73.3906 Q720.3406,73.6563 719.9656,73.6563 Q719.6219,73.6563 719.4188,73.4531 Q719.2156,73.2656 719.1063,72.75 Q719.0594,72.3906 718.8719,72.2031 Q718.5438,71.8281 717.9344,71.6094 Q717.325,71.3906 716.7,71.3906 Q715.9344,71.3906 715.2938,71.7188 Q714.6688,72.0469 714.1688,72.7969 Q713.6844,73.5469 713.6844,74.5781 L713.6844,75.6719 Q713.6844,76.9063 714.575,77.7344 Q715.4656,78.5469 717.0594,78.5469 Q717.9969,78.5469 718.6531,78.2969 Q719.0438,78.1406 719.4656,77.7031 Q719.7313,77.4375 719.8719,77.3594 Q720.0281,77.2813 720.2313,77.2813 Q720.5594,77.2813 720.8094,77.5469 Q721.075,77.7969 721.075,78.1406 Q721.075,78.4844 720.7313,78.8906 Q720.2313,79.4688 719.4344,79.7969 Q718.3563,80.25 717.0594,80.25 Q715.5438,80.25 714.3406,79.625 Q713.3563,79.125 712.6688,78.0625 Q711.9813,76.9844 711.9813,75.7031 L711.9813,74.5469 Q711.9813,73.2188 712.5906,72.0781 Q713.2156,70.9219 714.3094,70.3125 Q715.4031,69.6875 716.6375,69.6875 Q717.3719,69.6875 718.0125,69.8594 Q718.6688,70.0156 719.2156,70.375 Z " fill="#000000"/><text fill="#000000" font-family="sans-serif" font-size="14" lengthAdjust="spacing" textLength="31" x="736.55" y="80.2969">GSM</text><line style="stroke:#181818;stroke-width:0.5;" x1="675" x2="797" y1="90.5" y2="90.5"/><text fill="#000000" font-family="sans-serif" font-size="14" lengthAdjust="spacing" textLength="81" x="680" y="109.6074">-String name</text><text fill="#000000" font-family="sans-serif" font-size="14" lengthAdjust="spacing" textLength="92" x="680" y="128.2285">-int vatNumber</text><text fill="#000000" font-family="sans-serif" font-size="14" lengthAdjust="spacing" textLength="79" x="680" y="146.8496">-String email</text><text fill="#000000" font-family="sans-serif" font-size="14" lengthAdjust="spacing" textLength="112" x="680" y="165.4707">-int phonenumber</text><line style="stroke:#181818;stroke-width:0.5;" x1="675" x2="797" y1="172.9844" y2="172.9844"/></g><g id="elem_GMN11"><path d="M1169,97 L1169,141.582 L1479,141.582 L1479,107 L1469,97 L1169,97 " fill="#FEFFDD" style="stroke:#181818;stroke-width:0.5;"/><path d="M1469,97 L1469,107 L1479,107 L1469,97 " fill="#FEFFDD" style="stroke:#181818;stroke-width:1.0;"/><text fill="#000000" font-family="sans-serif" font-size="13" lengthAdjust="spacing" textLength="289" x="1175" y="116.0283">- Selected AgendaEntry is read from GSM's input.</text><text fill="#000000" font-family="sans-serif" font-size="13" lengthAdjust="spacing" textLength="161" x="1175" y="133.3193">- Updates the AgendaEntry.</text></g><g id="elem_GMN14"><path d="M6,97 L6,141.582 L278,141.582 L278,107 L268,97 L6,97 " fill="#FEFFDD" style="stroke:#181818;stroke-width:0.5;"/><path d="M268,97 L268,107 L278,107 L268,97 " fill="#FEFFDD" style="stroke:#181818;stroke-width:1.0;"/><text fill="#000000" font-family="sans-serif" font-size="13" lengthAdjust="spacing" textLength="251" x="12" y="116.0283">- Responsible for postponing Agenda Entry.</text><text fill="#000000" font-family="sans-serif" font-size="13" lengthAdjust="spacing" textLength="246" x="12" y="133.3193">- Communicates with the PostponeEntryUI</text></g><g id="elem_GMN17"><path d="M313,88.5 L313,150.373 L639,150.373 L639,98.5 L629,88.5 L313,88.5 " fill="#FEFFDD" style="stroke:#181818;stroke-width:0.5;"/><path d="M629,88.5 L629,98.5 L639,98.5 L629,88.5 " fill="#FEFFDD" style="stroke:#181818;stroke-width:1.0;"/><text fill="#000000" font-family="sans-serif" font-size="13" lengthAdjust="spacing" textLength="271" x="319" y="107.5283">- UI for GSM to postpone entries in the Agenda</text><text fill="#000000" font-family="sans-serif" font-size="13" lengthAdjust="spacing" textLength="267" x="319" y="124.8193">- Communicates with PostponeEntryController</text><text fill="#000000" font-family="sans-serif" font-size="13" lengthAdjust="spacing" textLength="305" x="319" y="142.1104">- Receives repositories from PostponeEntryController</text></g><g id="elem_GMN20"><path d="M982.5,447.5 L982.5,466 L947.62,470 L982.5,474 L982.5,492.082 A0,0 0 0 0 982.5,492.082 L1231.5,492.082 A0,0 0 0 0 1231.5,492.082 L1231.5,457.5 L1221.5,447.5 L982.5,447.5 A0,0 0 0 0 982.5,447.5 " fill="#FEFFDD" style="stroke:#181818;stroke-width:0.5;"/><path d="M1221.5,447.5 L1221.5,457.5 L1231.5,457.5 L1221.5,447.5 " fill="#FEFFDD" style="stroke:#181818;stroke-width:0.5;"/><text fill="#000000" font-family="sans-serif" font-size="13" lengthAdjust="spacing" textLength="228" x="988.5" y="466.5283">- Registered by the GSM in the Agenda</text><text fill="#000000" font-family="sans-serif" font-size="13" lengthAdjust="spacing" textLength="144" x="988.5" y="483.8193">- Postponed by the GSM</text></g><!--link GMN11 to PostponeEntryController--><g id="link_GMN11_PostponeEntryController"><path d="M1479.1,119.5 C1498.85,119.5 1512.33,119.5 1512.33,119.5 C1512.33,119.5 1513.07,119.5 1514.45,119.5 " fill="none" id="GMN11-PostponeEntryController" style="stroke:#181818;stroke-width:1.0;stroke-dasharray:7.0,7.0;"/></g><!--link GMN14 to GSM--><g id="link_GMN14_GSM"><path d="M176.09,96.8 C225.85,63.68 312.5,6 312.5,6 C312.5,6 638.5,6 638.5,6 C638.5,6 656,21 656,21 C656,21 669.98,38.21 686.24,58.24 " fill="none" id="GMN14-GSM" style="stroke:#181818;stroke-width:1.0;stroke-dasharray:7.0,7.0;"/></g><!--link GMN17 to PostponeEntryUI--><g id="link_GMN17_PostponeEntryUI"><path d="M529.97,88.49 C588.44,54.88 673.5,6 673.5,6 C673.5,6 797.5,6 797.5,6 C797.5,6 826.43,22.38 862.32,42.69 " fill="none" id="GMN17-PostponeEntryUI" style="stroke:#181818;stroke-width:1.0;stroke-dasharray:7.0,7.0;"/></g><!--link GSM to AgendaEntry--><g id="link_GSM_AgendaEntry"><path codeLine="113" d="M708.31,180.81 C693.42,213.24 676.7233,249.6072 657.5933,291.2772 " fill="none" id="GSM-to-AgendaEntry" style="stroke:#181818;stroke-width:1.0;"/><polygon fill="#181818" points="655.09,296.73,662.4802,290.2196,657.1761,292.186,655.2097,286.8819,655.09,296.73" style="stroke:#181818;stroke-width:1.0;"/><text fill="#000000" font-family="sans-serif" font-size="13" lengthAdjust="spacing" textLength="60" x="677" y="263.0283">postpones</text></g><!--link GSM to Agenda--><g id="link_GSM_Agenda"><path codeLine="114" d="M798.14,176.09 C822.62,197.98 845,218 845,218 C845,218 1249,297 1249,297 C1249,297 1269.623,727.8869 1279.573,935.6669 " fill="none" id="GSM-to-Agenda" style="stroke:#181818;stroke-width:1.0;"/><polygon fill="#181818" points="1279.86,941.66,1283.4249,932.479,1279.6208,936.6657,1275.4341,932.8616,1279.86,941.66" style="stroke:#181818;stroke-width:1.0;"/><text fill="#000000" font-family="sans-serif" font-size="13" lengthAdjust="spacing" textLength="28" x="1269" y="688.0283">uses</text></g><!--link AgendaEntry to Agenda--><g id="link_AgendaEntry_Agenda"><path codeLine="115" d="M787.28,643.25 C906.15,740.15 1046.1897,854.3086 1148.8497,938.0086 " fill="none" id="AgendaEntry-to-Agenda" style="stroke:#181818;stroke-width:1.0;"/><polygon fill="#181818" points="1153.5,941.8,1149.0522,933.0127,1149.6248,938.6405,1143.997,939.213,1153.5,941.8" style="stroke:#181818;stroke-width:1.0;"/><text fill="#000000" font-family="sans-serif" font-size="13" lengthAdjust="spacing" textLength="51" x="1048" y="798.0283">shown in</text></g><!--link GSM to PostponeEntryUI--><g id="link_GSM_PostponeEntryUI"><path codeLine="116" d="M798.09,119.5 C817.54,119.5 833.81,119.5 856.27,119.5 " fill="none" id="GSM-to-PostponeEntryUI" style="stroke:#181818;stroke-width:1.0;"/><polygon fill="#181818" points="862.27,119.5,853.27,115.5,857.27,119.5,853.27,123.5,862.27,119.5" style="stroke:#181818;stroke-width:1.0;"/><text fill="#000000" font-family="sans-serif" font-size="13" lengthAdjust="spacing" textLength="28" x="816.25" y="112.5283">uses</text></g><!--link Repositories to Repositories--><g id="link_Repositories_Repositories"><path codeLine="118" d="M1634.27,434.43 C1655.07,440.23 1669,452.09 1669,470 C1669,487.91 1660.8495,498.1584 1640.0495,503.9584 " fill="none" id="Repositories-to-Repositories" style="stroke:#181818;stroke-width:1.0;"/><polygon fill="#181818" points="1634.27,505.57,1644.0137,507.0056,1639.0863,504.227,1641.8649,499.2996,1634.27,505.57" style="stroke:#181818;stroke-width:1.0;"/><text fill="#000000" font-family="sans-serif" font-size="13" lengthAdjust="spacing" textLength="49" x="1675" y="475.5283">instance</text></g><!--link ApplicationSession to ApplicationSession--><g id="link_ApplicationSession_ApplicationSession"><path codeLine="119" d="M2146.66,430.63 C2166.5,432.96 2181.5,446.09 2181.5,470 C2181.5,493.91 2172.459,506.3402 2152.619,508.6702 " fill="none" id="ApplicationSession-to-ApplicationSession" style="stroke:#181818;stroke-width:1.0;"/><polygon fill="#181818" points="2146.66,509.37,2156.0651,512.293,2151.6259,508.7868,2155.132,504.3476,2146.66,509.37" style="stroke:#181818;stroke-width:1.0;"/><text fill="#000000" font-family="sans-serif" font-size="13" lengthAdjust="spacing" textLength="49" x="2187.5" y="475.5283">instance</text></g><!--link PostponeEntryUI to PostponeEntryController--><g id="link_PostponeEntryUI_PostponeEntryController"><path codeLine="121" d="M1133.59,29.24 C1154.06,15.61 1168.5,6 1168.5,6 C1168.5,6 1478.5,6 1478.5,6 C1478.5,6 1509.6171,14.6007 1561.2871,28.8907 " fill="none" id="PostponeEntryUI-to-PostponeEntryController" style="stroke:#181818;stroke-width:1.0;stroke-dasharray:7.0,7.0;"/><polygon fill="#181818" points="1567.07,30.49,1559.4619,24.2357,1562.2509,29.1572,1557.3294,31.9463,1567.07,30.49" style="stroke:#181818;stroke-width:1.0;"/></g><!--link PostponeEntryController to Repositories--><g id="link_PostponeEntryController_Repositories"><path codeLine="123" d="M1721.91,208.53 C1680.15,230.53 1647,248 1647,248 C1647,248 1566.453,358.5605 1519.813,422.5805 " fill="none" id="PostponeEntryController-to-Repositories" style="stroke:#181818;stroke-width:1.0;"/><polygon fill="#181818" points="1516.28,427.43,1524.8125,422.511,1519.2242,423.3887,1518.3465,417.8004,1516.28,427.43" style="stroke:#181818;stroke-width:1.0;"/><text fill="#000000" font-family="sans-serif" font-size="13" lengthAdjust="spacing" textLength="108" x="1648" y="263.0283">retrieves instances</text></g><!--link Repositories to AgendaRepository--><g id="link_Repositories_AgendaRepository"><path codeLine="125" d="M1486,512.57 C1486,565.59 1486,652.02 1486,715.87 " fill="none" id="Repositories-to-AgendaRepository" style="stroke:#181818;stroke-width:1.0;"/><polygon fill="#181818" points="1486,721.87,1490,712.87,1486,716.87,1482,712.87,1486,721.87" style="stroke:#181818;stroke-width:1.0;"/><text fill="#000000" font-family="sans-serif" font-size="13" lengthAdjust="spacing" textLength="56" x="1487" y="688.0283">accesses</text></g><!--link PostponeEntryController to AgendaRepository--><g id="link_PostponeEntryController_AgendaRepository"><path codeLine="127" d="M1845.5,208.75 C1823.75,252.88 1802,297 1802,297 C1802,297 1730,643 1730,643 C1730,643 1669.015,680.11 1605.625,718.7 " fill="none" id="PostponeEntryController-to-AgendaRepository" style="stroke:#181818;stroke-width:1.0;stroke-dasharray:7.0,7.0;"/><polygon fill="#181818" points="1600.5,721.82,1610.2675,720.5567,1604.7708,719.22,1606.1076,713.7234,1600.5,721.82" style="stroke:#181818;stroke-width:1.0;"/><text fill="#000000" font-family="sans-serif" font-size="13" lengthAdjust="spacing" textLength="104" x="1803" y="475.5283">agendaRepository</text></g><!--link ApplicationSession to UserSession--><g id="link_ApplicationSession_UserSession"><path codeLine="129" d="M2060.36,512.57 C2043.85,577.1 2013.8876,694.2373 1998.8676,752.9273 " fill="none" id="ApplicationSession-to-UserSession" style="stroke:#181818;stroke-width:1.0;"/><polygon fill="#181818" points="1997.38,758.74,2003.4865,751.0127,1998.6197,753.8961,1995.7363,749.0293,1997.38,758.74" style="stroke:#181818;stroke-width:1.0;"/><text fill="#000000" font-family="sans-serif" font-size="13" lengthAdjust="spacing" textLength="72" x="2018" y="688.0283">userSession</text><text fill="#000000" font-family="sans-serif" font-size="13" lengthAdjust="spacing" textLength="7" x="1991.3103" y="747.7764">1</text></g><!--link PostponeEntryController to ApplicationSession--><g id="link_PostponeEntryController_ApplicationSession"><path codeLine="131" d="M1943.65,208.71 C1957.24,230.63 1968,248 1968,248 C1968,248 2019.2552,357.9717 2049.0952,421.9917 " fill="none" id="PostponeEntryController-to-ApplicationSession" style="stroke:#181818;stroke-width:1.0;stroke-dasharray:7.0,7.0;"/><polygon fill="#181818" points="2051.63,427.43,2051.4533,417.5827,2049.5177,422.8981,2044.2023,420.9625,2051.63,427.43" style="stroke:#181818;stroke-width:1.0;"/></g><!--link PostponeEntryController to UserSession--><g id="link_PostponeEntryController_UserSession"><path codeLine="132" d="M1902.12,208.57 C1924.57,359.14 1968.4357,653.5155 1983.2357,752.8355 " fill="none" id="PostponeEntryController-to-UserSession" style="stroke:#181818;stroke-width:1.0;stroke-dasharray:7.0,7.0;"/><polygon fill="#181818" points="1984.12,758.77,1986.7498,749.2787,1983.3831,753.8246,1978.8372,750.4578,1984.12,758.77" style="stroke:#181818;stroke-width:1.0;"/></g><!--link AgendaRepository to Agenda--><g id="link_AgendaRepository_Agenda"><path codeLine="134" d="M1431.08,863.32 C1412.01,887.55 1393.8899,910.5944 1373.0099,937.1344 " fill="none" id="AgendaRepository-to-Agenda" style="stroke:#181818;stroke-width:1.0;stroke-dasharray:7.0,7.0;"/><polygon fill="#181818" points="1369.3,941.85,1378.0086,937.2499,1372.3916,937.9204,1371.7212,932.3034,1369.3,941.85" style="stroke:#181818;stroke-width:1.0;"/><text fill="#000000" font-family="sans-serif" font-size="13" lengthAdjust="spacing" textLength="36" x="1405" y="908.0283">stores</text></g><!--SRC=[hLTTRziw37tthn3sKWzjWjrNuo90rtsWmEusBElU5PknjSgI9yafik7-zr6oRCko7NJ0-X1BvA587j9KVQKVcMYeeZMffP1vfMGDnAWMab7JqFoHbh0tPmv4GMweA7a8q1Kjv1CJ9JbIhaCDPmBCkG7II7wsc-HgGIcLaKbWbNEgzQqnYXrQ0_Uv57ls4yYh974QSjiqdENKC5I0rlX8VYK4_ww9DYZEIGdcNk1Qv92-z2gKtRLAWJ3U23N_zqS-Q53nMMXWnMzhodY8lIr15FIjCEfCEko666OuP6IFCOkobr7z-0PqhbXZGusqhS9ZydCaBLf55y3eLkQC6YZUAm2nnvAWjt4zWtq5McV4_ivKtw1YEGUTaGzCct_zTkTnbi1MH-vHgCmRD4ORcLDkbvwaW8oqi-cuk27zRih28FVv3_i-yq7GHN8pUXp3w4jwa9835OGM0I_fk2Jbi5mmiUoazeSO_5a0U6fI_oIdxXaZuKUBRPz-Edp7TuF8Nis48HNLrPqinYOCUoVdKi2yiOQUmavLRAXJODdNgjHOu_Vx_oPdfpDqVz2DnLgZXLIx0eRHMQDpZ6oaDWr6lG8FYzL3b-gLsnUJFzFdNwRt2s1ap4Z_ycv2TdU4kgTE8deyjRv07UYb0qsiSM9qIvrsMcymo5-ViGHfK8PdU1dY7oB7MhhOhwTpZcGJI0-8qtR0M3Xw-HoM-E7UauGps2Z9EQXiYhWR50v7nm9aOJLSC2k6RZ8FEy_SIRA2g5Q4MzqUQcO709s0i450X-Am2xms75E-S4EdUiZde673jbcB-bUGy4Za0hKErfeAkzlVMXFuYkOIO-cibUCmRbRFNGqbv2w0BtPG1rtpO4rMTDxqaxiBA9_EgJ-OBeMVAjVTJ0E3ZtVupyl2rMu1RgHk-fj5q1ewWHqY9se-jlN1DV280NlhZw2cmhX41yEJXSGOE1nn7XqllWzxu3Yre9Zq9DFOSxGWHmpOXdUbqKVJcgqpUMXiSfeWWQ7LDi4biOuZz-u2sE2hhp48pGvuKHsbwicqkVY1uez1x9siwrROug2V9sOgvonwyzVynJ0NyxtpQQasSgXZV_5WTa4spc0UmIKMlq0Ex0IMjc04ElhMpABW5Iih5_ra9jcJInpWeB12XxCBqkOGnRiPl8Iem8MrsMnsuU7Pm8AEr1bfDGh3XWYLkf9F0YFeh7OntTuwcLm629liCxJlReLa_h-oHIz80vialWEskrMUaxNnkC5F0Z4FJ85jYPDhYixTB1blE9j46Q4vmbtwQrwtssN3U2Olye9EN_pp8lmM88xkuSlWijlvLyabUFZ5aSn27lF0Za09vlmR]--></g></svg>