<?xml version="1.0" encoding="us-ascii" standalone="no"?><svg xmlns="http://www.w3.org/2000/svg" xmlns:xlink="http://www.w3.org/1999/xlink" contentStyleType="text/css" height="1347px" preserveAspectRatio="none" style="width:1943px;height:1347px;background:#FFFFFF;" version="1.1" viewBox="0 0 1943 1347" width="1943px" zoomAndPan="magnify"><defs/><g><!--class ApplicationSession--><g id="elem_ApplicationSession"><rect codeLine="9" fill="#F1F1F1" height="85.2422" id="ApplicationSession" rx="2.5" ry="2.5" style="stroke:#181818;stroke-width:0.5;" width="151" x="1470.5" y="316"/><ellipse cx="1485.5" cy="332" fill="#ADD1B2" rx="11" ry="11" style="stroke:#181818;stroke-width:1.0;"/><path d="M1488.2656,327.875 Q1488.4219,327.6563 1488.6094,327.5469 Q1488.7969,327.4375 1489.0156,327.4375 Q1489.3906,327.4375 1489.625,327.7031 Q1489.8594,327.9531 1489.8594,328.5625 L1489.8594,330.0156 Q1489.8594,330.625 1489.625,330.8906 Q1489.3906,331.1563 1489.0156,331.1563 Q1488.6719,331.1563 1488.4688,330.9531 Q1488.2656,330.7656 1488.1563,330.25 Q1488.1094,329.8906 1487.9219,329.7031 Q1487.5938,329.3281 1486.9844,329.1094 Q1486.375,328.8906 1485.75,328.8906 Q1484.9844,328.8906 1484.3438,329.2188 Q1483.7188,329.5469 1483.2188,330.2969 Q1482.7344,331.0469 1482.7344,332.0781 L1482.7344,333.1719 Q1482.7344,334.4063 1483.625,335.2344 Q1484.5156,336.0469 1486.1094,336.0469 Q1487.0469,336.0469 1487.7031,335.7969 Q1488.0938,335.6406 1488.5156,335.2031 Q1488.7813,334.9375 1488.9219,334.8594 Q1489.0781,334.7813 1489.2813,334.7813 Q1489.6094,334.7813 1489.8594,335.0469 Q1490.125,335.2969 1490.125,335.6406 Q1490.125,335.9844 1489.7813,336.3906 Q1489.2813,336.9688 1488.4844,337.2969 Q1487.4063,337.75 1486.1094,337.75 Q1484.5938,337.75 1483.3906,337.125 Q1482.4063,336.625 1481.7188,335.5625 Q1481.0313,334.4844 1481.0313,333.2031 L1481.0313,332.0469 Q1481.0313,330.7188 1481.6406,329.5781 Q1482.2656,328.4219 1483.3594,327.8125 Q1484.4531,327.1875 1485.6875,327.1875 Q1486.4219,327.1875 1487.0625,327.3594 Q1487.7188,327.5156 1488.2656,327.875 Z " fill="#000000"/><text fill="#000000" font-family="sans-serif" font-size="14" lengthAdjust="spacing" textLength="119" x="1499.5" y="337.7969">ApplicationSession</text><line style="stroke:#181818;stroke-width:0.5;" x1="1471.5" x2="1620.5" y1="348" y2="348"/><line style="stroke:#181818;stroke-width:0.5;" x1="1471.5" x2="1620.5" y1="356" y2="356"/><text fill="#000000" font-family="sans-serif" font-size="14" lengthAdjust="spacing" textLength="128" x="1476.5" y="375.1074">+static getInstance()</text><text fill="#000000" font-family="sans-serif" font-size="14" lengthAdjust="spacing" textLength="136" x="1476.5" y="393.7285">+getCurrentSession()</text></g><!--class UserSession--><g id="elem_UserSession"><rect codeLine="15" fill="#F1F1F1" height="66.6211" id="UserSession" rx="2.5" ry="2.5" style="stroke:#181818;stroke-width:0.5;" width="113" x="1539.5" y="517"/><ellipse cx="1555.4" cy="533" fill="#ADD1B2" rx="11" ry="11" style="stroke:#181818;stroke-width:1.0;"/><path d="M1558.1656,528.875 Q1558.3219,528.6563 1558.5094,528.5469 Q1558.6969,528.4375 1558.9156,528.4375 Q1559.2906,528.4375 1559.525,528.7031 Q1559.7594,528.9531 1559.7594,529.5625 L1559.7594,531.0156 Q1559.7594,531.625 1559.525,531.8906 Q1559.2906,532.1563 1558.9156,532.1563 Q1558.5719,532.1563 1558.3688,531.9531 Q1558.1656,531.7656 1558.0563,531.25 Q1558.0094,530.8906 1557.8219,530.7031 Q1557.4938,530.3281 1556.8844,530.1094 Q1556.275,529.8906 1555.65,529.8906 Q1554.8844,529.8906 1554.2438,530.2188 Q1553.6188,530.5469 1553.1188,531.2969 Q1552.6344,532.0469 1552.6344,533.0781 L1552.6344,534.1719 Q1552.6344,535.4063 1553.525,536.2344 Q1554.4156,537.0469 1556.0094,537.0469 Q1556.9469,537.0469 1557.6031,536.7969 Q1557.9938,536.6406 1558.4156,536.2031 Q1558.6813,535.9375 1558.8219,535.8594 Q1558.9781,535.7813 1559.1813,535.7813 Q1559.5094,535.7813 1559.7594,536.0469 Q1560.025,536.2969 1560.025,536.6406 Q1560.025,536.9844 1559.6813,537.3906 Q1559.1813,537.9688 1558.3844,538.2969 Q1557.3063,538.75 1556.0094,538.75 Q1554.4938,538.75 1553.2906,538.125 Q1552.3063,537.625 1551.6188,536.5625 Q1550.9313,535.4844 1550.9313,534.2031 L1550.9313,533.0469 Q1550.9313,531.7188 1551.5406,530.5781 Q1552.1656,529.4219 1553.2594,528.8125 Q1554.3531,528.1875 1555.5875,528.1875 Q1556.3219,528.1875 1556.9625,528.3594 Q1557.6188,528.5156 1558.1656,528.875 Z " fill="#000000"/><text fill="#000000" font-family="sans-serif" font-size="14" lengthAdjust="spacing" textLength="79" x="1569.6" y="538.7969">UserSession</text><line style="stroke:#181818;stroke-width:0.5;" x1="1540.5" x2="1651.5" y1="549" y2="549"/><line style="stroke:#181818;stroke-width:0.5;" x1="1540.5" x2="1651.5" y1="557" y2="557"/><text fill="#000000" font-family="sans-serif" font-size="14" lengthAdjust="spacing" textLength="101" x="1545.5" y="576.1074">+getUserEmail()</text></g><!--class AgendaEntry--><g id="elem_AgendaEntry"><rect codeLine="20" fill="#F1F1F1" height="345.9375" id="AgendaEntry" rx="2.5" ry="2.5" style="stroke:#181818;stroke-width:0.5;" width="743" x="909.5" y="995"/><ellipse cx="1235.75" cy="1011" fill="#ADD1B2" rx="11" ry="11" style="stroke:#181818;stroke-width:1.0;"/><path d="M1238.5156,1006.875 Q1238.6719,1006.6563 1238.8594,1006.5469 Q1239.0469,1006.4375 1239.2656,1006.4375 Q1239.6406,1006.4375 1239.875,1006.7031 Q1240.1094,1006.9531 1240.1094,1007.5625 L1240.1094,1009.0156 Q1240.1094,1009.625 1239.875,1009.8906 Q1239.6406,1010.1563 1239.2656,1010.1563 Q1238.9219,1010.1563 1238.7188,1009.9531 Q1238.5156,1009.7656 1238.4063,1009.25 Q1238.3594,1008.8906 1238.1719,1008.7031 Q1237.8438,1008.3281 1237.2344,1008.1094 Q1236.625,1007.8906 1236,1007.8906 Q1235.2344,1007.8906 1234.5938,1008.2188 Q1233.9688,1008.5469 1233.4688,1009.2969 Q1232.9844,1010.0469 1232.9844,1011.0781 L1232.9844,1012.1719 Q1232.9844,1013.4063 1233.875,1014.2344 Q1234.7656,1015.0469 1236.3594,1015.0469 Q1237.2969,1015.0469 1237.9531,1014.7969 Q1238.3438,1014.6406 1238.7656,1014.2031 Q1239.0313,1013.9375 1239.1719,1013.8594 Q1239.3281,1013.7813 1239.5313,1013.7813 Q1239.8594,1013.7813 1240.1094,1014.0469 Q1240.375,1014.2969 1240.375,1014.6406 Q1240.375,1014.9844 1240.0313,1015.3906 Q1239.5313,1015.9688 1238.7344,1016.2969 Q1237.6563,1016.75 1236.3594,1016.75 Q1234.8438,1016.75 1233.6406,1016.125 Q1232.6563,1015.625 1231.9688,1014.5625 Q1231.2813,1013.4844 1231.2813,1012.2031 L1231.2813,1011.0469 Q1231.2813,1009.7188 1231.8906,1008.5781 Q1232.5156,1007.4219 1233.6094,1006.8125 Q1234.7031,1006.1875 1235.9375,1006.1875 Q1236.6719,1006.1875 1237.3125,1006.3594 Q1237.9688,1006.5156 1238.5156,1006.875 Z " fill="#000000"/><text fill="#000000" font-family="sans-serif" font-size="14" lengthAdjust="spacing" textLength="82" x="1256.25" y="1016.7969">AgendaEntry</text><line style="stroke:#181818;stroke-width:0.5;" x1="910.5" x2="1651.5" y1="1027" y2="1027"/><text fill="#000000" font-family="sans-serif" font-size="14" lengthAdjust="spacing" textLength="72" x="915.5" y="1046.1074">-title: String</text><text fill="#000000" font-family="sans-serif" font-size="14" lengthAdjust="spacing" textLength="147" x="915.5" y="1064.7285">-taskDescription: String</text><text fill="#000000" font-family="sans-serif" font-size="14" lengthAdjust="spacing" textLength="101" x="915.5" y="1083.3496">-urgency: String</text><text fill="#000000" font-family="sans-serif" font-size="14" lengthAdjust="spacing" textLength="102" x="915.5" y="1101.9707">-duration: String</text><text fill="#000000" font-family="sans-serif" font-size="14" lengthAdjust="spacing" textLength="241" x="915.5" y="1120.5918">-associatedGreenSpace: GreenSpace</text><text fill="#000000" font-family="sans-serif" font-size="14" lengthAdjust="spacing" textLength="153" x="915.5" y="1139.2129">-associatedTeam: Team</text><text fill="#000000" font-family="sans-serif" font-size="14" lengthAdjust="spacing" textLength="218" x="915.5" y="1157.834">-associatedVehicles: List&lt;Vehicle&gt;</text><text fill="#000000" font-family="sans-serif" font-size="14" lengthAdjust="spacing" textLength="88" x="915.5" y="1176.4551">-status: String</text><text fill="#000000" font-family="sans-serif" font-size="14" lengthAdjust="spacing" textLength="135" x="915.5" y="1195.0762">-startDate: LocalDate</text><line style="stroke:#181818;stroke-width:0.5;" x1="910.5" x2="1651.5" y1="1202.5898" y2="1202.5898"/><text fill="#000000" font-family="sans-serif" font-size="14" lengthAdjust="spacing" textLength="731" x="915.5" y="1221.6973">+AgendaEntry(String title, String taskDescription, String urgency, String duration, String status, LocalDate startDate)</text><text fill="#000000" font-family="sans-serif" font-size="14" lengthAdjust="spacing" textLength="338" x="915.5" y="1240.3184">+boolean addGreenSpace(GreenSpace greenSpace)</text><text fill="#000000" font-family="sans-serif" font-size="14" lengthAdjust="spacing" textLength="204" x="915.5" y="1258.9395">+boolean addTeam(Team team)</text><text fill="#000000" font-family="sans-serif" font-size="14" lengthAdjust="spacing" textLength="237" x="915.5" y="1277.5605">+boolean addVehicle(Vehicle vehicle)</text><text fill="#000000" font-family="sans-serif" font-size="14" lengthAdjust="spacing" textLength="168" x="915.5" y="1296.1816">+boolean equals(Object o)</text><text fill="#000000" font-family="sans-serif" font-size="14" lengthAdjust="spacing" textLength="102" x="915.5" y="1314.8027">+int hashCode()</text><text fill="#000000" font-family="sans-serif" font-size="14" lengthAdjust="spacing" textLength="138" x="915.5" y="1333.4238">+AgendaEntry clone()</text></g><!--class Agenda--><g id="elem_Agenda"><rect codeLine="39" fill="#F1F1F1" height="215.5898" id="Agenda" rx="2.5" ry="2.5" style="stroke:#181818;stroke-width:0.5;" width="460" x="1051" y="700"/><ellipse cx="1252.25" cy="716" fill="#ADD1B2" rx="11" ry="11" style="stroke:#181818;stroke-width:1.0;"/><path d="M1255.0156,711.875 Q1255.1719,711.6563 1255.3594,711.5469 Q1255.5469,711.4375 1255.7656,711.4375 Q1256.1406,711.4375 1256.375,711.7031 Q1256.6094,711.9531 1256.6094,712.5625 L1256.6094,714.0156 Q1256.6094,714.625 1256.375,714.8906 Q1256.1406,715.1563 1255.7656,715.1563 Q1255.4219,715.1563 1255.2188,714.9531 Q1255.0156,714.7656 1254.9063,714.25 Q1254.8594,713.8906 1254.6719,713.7031 Q1254.3438,713.3281 1253.7344,713.1094 Q1253.125,712.8906 1252.5,712.8906 Q1251.7344,712.8906 1251.0938,713.2188 Q1250.4688,713.5469 1249.9688,714.2969 Q1249.4844,715.0469 1249.4844,716.0781 L1249.4844,717.1719 Q1249.4844,718.4063 1250.375,719.2344 Q1251.2656,720.0469 1252.8594,720.0469 Q1253.7969,720.0469 1254.4531,719.7969 Q1254.8438,719.6406 1255.2656,719.2031 Q1255.5313,718.9375 1255.6719,718.8594 Q1255.8281,718.7813 1256.0313,718.7813 Q1256.3594,718.7813 1256.6094,719.0469 Q1256.875,719.2969 1256.875,719.6406 Q1256.875,719.9844 1256.5313,720.3906 Q1256.0313,720.9688 1255.2344,721.2969 Q1254.1563,721.75 1252.8594,721.75 Q1251.3438,721.75 1250.1406,721.125 Q1249.1563,720.625 1248.4688,719.5625 Q1247.7813,718.4844 1247.7813,717.2031 L1247.7813,716.0469 Q1247.7813,714.7188 1248.3906,713.5781 Q1249.0156,712.4219 1250.1094,711.8125 Q1251.2031,711.1875 1252.4375,711.1875 Q1253.1719,711.1875 1253.8125,711.3594 Q1254.4688,711.5156 1255.0156,711.875 Z " fill="#000000"/><text fill="#000000" font-family="sans-serif" font-size="14" lengthAdjust="spacing" textLength="49" x="1272.75" y="721.7969">Agenda</text><line style="stroke:#181818;stroke-width:0.5;" x1="1052" x2="1510" y1="732" y2="732"/><text fill="#000000" font-family="sans-serif" font-size="14" lengthAdjust="spacing" textLength="176" x="1057" y="751.1074">-entries: List&lt;AgendaEntry&gt;</text><text fill="#000000" font-family="sans-serif" font-size="14" lengthAdjust="spacing" textLength="70" x="1057" y="769.7285">-gsm: GSM</text><line style="stroke:#181818;stroke-width:0.5;" x1="1052" x2="1510" y1="777.2422" y2="777.2422"/><text fill="#000000" font-family="sans-serif" font-size="14" lengthAdjust="spacing" textLength="303" x="1057" y="796.3496">+Agenda(List&lt;AgendaEntry&gt; entries, GSM gsm)</text><text fill="#000000" font-family="sans-serif" font-size="14" lengthAdjust="spacing" textLength="248" x="1057" y="814.9707">+boolean addEntry(AgendaEntry entry)</text><text fill="#000000" font-family="sans-serif" font-size="14" lengthAdjust="spacing" textLength="448" x="1057" y="833.5918">+boolean postponeEntry(AgendaEntry entry, LocalDate postponeDate)</text><text fill="#000000" font-family="sans-serif" font-size="14" lengthAdjust="spacing" textLength="265" x="1057" y="852.2129">+boolean cancelEntry(AgendaEntry entry)</text><text fill="#000000" font-family="sans-serif" font-size="14" lengthAdjust="spacing" textLength="168" x="1057" y="870.834">+boolean equals(Object o)</text><text fill="#000000" font-family="sans-serif" font-size="14" lengthAdjust="spacing" textLength="102" x="1057" y="889.4551">+int hashCode()</text><text fill="#000000" font-family="sans-serif" font-size="14" lengthAdjust="spacing" textLength="138" x="1057" y="908.0762">+AgendaEntry clone()</text></g><!--class AgendaRepository--><g id="elem_AgendaRepository"><rect codeLine="51" fill="#F1F1F1" height="141.1055" id="AgendaRepository" rx="2.5" ry="2.5" style="stroke:#181818;stroke-width:0.5;" width="260" x="1151" y="480"/><ellipse cx="1218.25" cy="496" fill="#ADD1B2" rx="11" ry="11" style="stroke:#181818;stroke-width:1.0;"/><path d="M1221.0156,491.875 Q1221.1719,491.6563 1221.3594,491.5469 Q1221.5469,491.4375 1221.7656,491.4375 Q1222.1406,491.4375 1222.375,491.7031 Q1222.6094,491.9531 1222.6094,492.5625 L1222.6094,494.0156 Q1222.6094,494.625 1222.375,494.8906 Q1222.1406,495.1563 1221.7656,495.1563 Q1221.4219,495.1563 1221.2188,494.9531 Q1221.0156,494.7656 1220.9063,494.25 Q1220.8594,493.8906 1220.6719,493.7031 Q1220.3438,493.3281 1219.7344,493.1094 Q1219.125,492.8906 1218.5,492.8906 Q1217.7344,492.8906 1217.0938,493.2188 Q1216.4688,493.5469 1215.9688,494.2969 Q1215.4844,495.0469 1215.4844,496.0781 L1215.4844,497.1719 Q1215.4844,498.4063 1216.375,499.2344 Q1217.2656,500.0469 1218.8594,500.0469 Q1219.7969,500.0469 1220.4531,499.7969 Q1220.8438,499.6406 1221.2656,499.2031 Q1221.5313,498.9375 1221.6719,498.8594 Q1221.8281,498.7813 1222.0313,498.7813 Q1222.3594,498.7813 1222.6094,499.0469 Q1222.875,499.2969 1222.875,499.6406 Q1222.875,499.9844 1222.5313,500.3906 Q1222.0313,500.9688 1221.2344,501.2969 Q1220.1563,501.75 1218.8594,501.75 Q1217.3438,501.75 1216.1406,501.125 Q1215.1563,500.625 1214.4688,499.5625 Q1213.7813,498.4844 1213.7813,497.2031 L1213.7813,496.0469 Q1213.7813,494.7188 1214.3906,493.5781 Q1215.0156,492.4219 1216.1094,491.8125 Q1217.2031,491.1875 1218.4375,491.1875 Q1219.1719,491.1875 1219.8125,491.3594 Q1220.4688,491.5156 1221.0156,491.875 Z " fill="#000000"/><text fill="#000000" font-family="sans-serif" font-size="14" lengthAdjust="spacing" textLength="117" x="1238.75" y="501.7969">AgendaRepository</text><line style="stroke:#181818;stroke-width:0.5;" x1="1152" x2="1410" y1="512" y2="512"/><text fill="#000000" font-family="sans-serif" font-size="14" lengthAdjust="spacing" textLength="151" x="1157" y="531.1074">-List&lt;Agenda&gt; agendas</text><line style="stroke:#181818;stroke-width:0.5;" x1="1152" x2="1410" y1="538.6211" y2="538.6211"/><text fill="#000000" font-family="sans-serif" font-size="14" lengthAdjust="spacing" textLength="247" x="1157" y="557.7285">+boolean addAgenda(Agenda agenda)</text><text fill="#000000" font-family="sans-serif" font-size="14" lengthAdjust="spacing" textLength="185" x="1157" y="576.3496">+List&lt;Agenda&gt; getAgendas()</text><text fill="#000000" font-family="sans-serif" font-size="14" lengthAdjust="spacing" textLength="248" x="1157" y="594.9707">+Agenda getAgendaByGSM(GSM gsm)</text><text fill="#000000" font-family="sans-serif" font-size="14" lengthAdjust="spacing" textLength="247" x="1157" y="613.5918">+boolean addAgenda(Agenda agenda)</text></g><!--class Repositories--><g id="elem_Repositories"><rect codeLine="59" fill="#F1F1F1" height="85.2422" id="Repositories" rx="2.5" ry="2.5" style="stroke:#181818;stroke-width:0.5;" width="296" x="884" y="316"/><ellipse cx="988.25" cy="332" fill="#ADD1B2" rx="11" ry="11" style="stroke:#181818;stroke-width:1.0;"/><path d="M991.0156,327.875 Q991.1719,327.6563 991.3594,327.5469 Q991.5469,327.4375 991.7656,327.4375 Q992.1406,327.4375 992.375,327.7031 Q992.6094,327.9531 992.6094,328.5625 L992.6094,330.0156 Q992.6094,330.625 992.375,330.8906 Q992.1406,331.1563 991.7656,331.1563 Q991.4219,331.1563 991.2188,330.9531 Q991.0156,330.7656 990.9063,330.25 Q990.8594,329.8906 990.6719,329.7031 Q990.3438,329.3281 989.7344,329.1094 Q989.125,328.8906 988.5,328.8906 Q987.7344,328.8906 987.0938,329.2188 Q986.4688,329.5469 985.9688,330.2969 Q985.4844,331.0469 985.4844,332.0781 L985.4844,333.1719 Q985.4844,334.4063 986.375,335.2344 Q987.2656,336.0469 988.8594,336.0469 Q989.7969,336.0469 990.4531,335.7969 Q990.8438,335.6406 991.2656,335.2031 Q991.5313,334.9375 991.6719,334.8594 Q991.8281,334.7813 992.0313,334.7813 Q992.3594,334.7813 992.6094,335.0469 Q992.875,335.2969 992.875,335.6406 Q992.875,335.9844 992.5313,336.3906 Q992.0313,336.9688 991.2344,337.2969 Q990.1563,337.75 988.8594,337.75 Q987.3438,337.75 986.1406,337.125 Q985.1563,336.625 984.4688,335.5625 Q983.7813,334.4844 983.7813,333.2031 L983.7813,332.0469 Q983.7813,330.7188 984.3906,329.5781 Q985.0156,328.4219 986.1094,327.8125 Q987.2031,327.1875 988.4375,327.1875 Q989.1719,327.1875 989.8125,327.3594 Q990.4688,327.5156 991.0156,327.875 Z " fill="#000000"/><text fill="#000000" font-family="sans-serif" font-size="14" lengthAdjust="spacing" textLength="79" x="1008.75" y="337.7969">Repositories</text><line style="stroke:#181818;stroke-width:0.5;" x1="885" x2="1179" y1="348" y2="348"/><line style="stroke:#181818;stroke-width:0.5;" x1="885" x2="1179" y1="356" y2="356"/><text fill="#000000" font-family="sans-serif" font-size="14" lengthAdjust="spacing" textLength="182" x="890" y="375.1074">+getInstance() : Repositories</text><text fill="#000000" font-family="sans-serif" font-size="14" lengthAdjust="spacing" textLength="284" x="890" y="393.7285">+getAgendaRepository() : AgendaRepository</text></g><!--class PostponeEntryUI--><g id="elem_PostponeEntryUI"><rect codeLine="64" fill="#F1F1F1" height="215.5898" id="PostponeEntryUI" rx="2.5" ry="2.5" style="stroke:#181818;stroke-width:0.5;" width="271" x="712.5" y="21"/><ellipse cx="791.25" cy="37" fill="#ADD1B2" rx="11" ry="11" style="stroke:#181818;stroke-width:1.0;"/><path d="M794.0156,32.875 Q794.1719,32.6563 794.3594,32.5469 Q794.5469,32.4375 794.7656,32.4375 Q795.1406,32.4375 795.375,32.7031 Q795.6094,32.9531 795.6094,33.5625 L795.6094,35.0156 Q795.6094,35.625 795.375,35.8906 Q795.1406,36.1563 794.7656,36.1563 Q794.4219,36.1563 794.2188,35.9531 Q794.0156,35.7656 793.9063,35.25 Q793.8594,34.8906 793.6719,34.7031 Q793.3438,34.3281 792.7344,34.1094 Q792.125,33.8906 791.5,33.8906 Q790.7344,33.8906 790.0938,34.2188 Q789.4688,34.5469 788.9688,35.2969 Q788.4844,36.0469 788.4844,37.0781 L788.4844,38.1719 Q788.4844,39.4063 789.375,40.2344 Q790.2656,41.0469 791.8594,41.0469 Q792.7969,41.0469 793.4531,40.7969 Q793.8438,40.6406 794.2656,40.2031 Q794.5313,39.9375 794.6719,39.8594 Q794.8281,39.7813 795.0313,39.7813 Q795.3594,39.7813 795.6094,40.0469 Q795.875,40.2969 795.875,40.6406 Q795.875,40.9844 795.5313,41.3906 Q795.0313,41.9688 794.2344,42.2969 Q793.1563,42.75 791.8594,42.75 Q790.3438,42.75 789.1406,42.125 Q788.1563,41.625 787.4688,40.5625 Q786.7813,39.4844 786.7813,38.2031 L786.7813,37.0469 Q786.7813,35.7188 787.3906,34.5781 Q788.0156,33.4219 789.1094,32.8125 Q790.2031,32.1875 791.4375,32.1875 Q792.1719,32.1875 792.8125,32.3594 Q793.4688,32.5156 794.0156,32.875 Z " fill="#000000"/><text fill="#000000" font-family="sans-serif" font-size="14" lengthAdjust="spacing" textLength="105" x="811.75" y="42.7969">PostponeEntryUI</text><line style="stroke:#181818;stroke-width:0.5;" x1="713.5" x2="982.5" y1="53" y2="53"/><text fill="#000000" font-family="sans-serif" font-size="14" lengthAdjust="spacing" textLength="227" x="718.5" y="72.1074">-controller: PostponeEntryController</text><text fill="#000000" font-family="sans-serif" font-size="14" lengthAdjust="spacing" textLength="176" x="718.5" y="90.7285">-agendaEntry: AgendaEntry</text><text fill="#000000" font-family="sans-serif" font-size="14" lengthAdjust="spacing" textLength="166" x="718.5" y="109.3496">-postponeDate: LocalDate</text><line style="stroke:#181818;stroke-width:0.5;" x1="713.5" x2="982.5" y1="116.8633" y2="116.8633"/><text fill="#000000" font-family="sans-serif" font-size="14" lengthAdjust="spacing" textLength="259" x="718.5" y="135.9707">+PostponeEntryController getController()</text><text fill="#000000" font-family="sans-serif" font-size="14" lengthAdjust="spacing" textLength="69" x="718.5" y="154.5918">+void run()</text><text fill="#000000" font-family="sans-serif" font-size="14" lengthAdjust="spacing" textLength="119" x="718.5" y="173.2129">+void submitData()</text><text fill="#000000" font-family="sans-serif" font-size="14" lengthAdjust="spacing" textLength="126" x="718.5" y="191.834">+void requestData()</text><text fill="#000000" font-family="sans-serif" font-size="14" lengthAdjust="spacing" textLength="234" x="718.5" y="210.4551">+AgendaEntry requestAgendaEntry()</text><text fill="#000000" font-family="sans-serif" font-size="14" lengthAdjust="spacing" textLength="224" x="718.5" y="229.0762">+LocalDate requestPostponeDate()</text></g><!--class PostponeEntryController--><g id="elem_PostponeEntryController"><rect codeLine="76" fill="#F1F1F1" height="178.3477" id="PostponeEntryController" rx="2.5" ry="2.5" style="stroke:#181818;stroke-width:0.5;" width="749" x="1018.5" y="40"/><ellipse cx="1311.25" cy="56" fill="#ADD1B2" rx="11" ry="11" style="stroke:#181818;stroke-width:1.0;"/><path d="M1314.0156,51.875 Q1314.1719,51.6563 1314.3594,51.5469 Q1314.5469,51.4375 1314.7656,51.4375 Q1315.1406,51.4375 1315.375,51.7031 Q1315.6094,51.9531 1315.6094,52.5625 L1315.6094,54.0156 Q1315.6094,54.625 1315.375,54.8906 Q1315.1406,55.1563 1314.7656,55.1563 Q1314.4219,55.1563 1314.2188,54.9531 Q1314.0156,54.7656 1313.9063,54.25 Q1313.8594,53.8906 1313.6719,53.7031 Q1313.3438,53.3281 1312.7344,53.1094 Q1312.125,52.8906 1311.5,52.8906 Q1310.7344,52.8906 1310.0938,53.2188 Q1309.4688,53.5469 1308.9688,54.2969 Q1308.4844,55.0469 1308.4844,56.0781 L1308.4844,57.1719 Q1308.4844,58.4063 1309.375,59.2344 Q1310.2656,60.0469 1311.8594,60.0469 Q1312.7969,60.0469 1313.4531,59.7969 Q1313.8438,59.6406 1314.2656,59.2031 Q1314.5313,58.9375 1314.6719,58.8594 Q1314.8281,58.7813 1315.0313,58.7813 Q1315.3594,58.7813 1315.6094,59.0469 Q1315.875,59.2969 1315.875,59.6406 Q1315.875,59.9844 1315.5313,60.3906 Q1315.0313,60.9688 1314.2344,61.2969 Q1313.1563,61.75 1311.8594,61.75 Q1310.3438,61.75 1309.1406,61.125 Q1308.1563,60.625 1307.4688,59.5625 Q1306.7813,58.4844 1306.7813,57.2031 L1306.7813,56.0469 Q1306.7813,54.7188 1307.3906,53.5781 Q1308.0156,52.4219 1309.1094,51.8125 Q1310.2031,51.1875 1311.4375,51.1875 Q1312.1719,51.1875 1312.8125,51.3594 Q1313.4688,51.5156 1314.0156,51.875 Z " fill="#000000"/><text fill="#000000" font-family="sans-serif" font-size="14" lengthAdjust="spacing" textLength="155" x="1331.75" y="61.7969">PostponeEntryController</text><line style="stroke:#181818;stroke-width:0.5;" x1="1019.5" x2="1766.5" y1="72" y2="72"/><text fill="#000000" font-family="sans-serif" font-size="14" lengthAdjust="spacing" textLength="246" x="1024.5" y="91.1074">-agendaRepository: AgendaRepository</text><text fill="#000000" font-family="sans-serif" font-size="14" lengthAdjust="spacing" textLength="328" x="1024.5" y="109.7285">-authenticationRepository: AuthenticationRepository</text><line style="stroke:#181818;stroke-width:0.5;" x1="1019.5" x2="1766.5" y1="117.2422" y2="117.2422"/><text fill="#000000" font-family="sans-serif" font-size="14" lengthAdjust="spacing" textLength="737" x="1024.5" y="136.3496">+PostponeEntryController(AgendaRepository agendaRepository, AuthenticationRepository authenticationRepository)</text><text fill="#000000" font-family="sans-serif" font-size="14" lengthAdjust="spacing" textLength="276" x="1024.5" y="154.9707">+AgendaRepository getAgendaRepository()</text><text fill="#000000" font-family="sans-serif" font-size="14" lengthAdjust="spacing" textLength="358" x="1024.5" y="173.5918">+AuthenticationRepository getAuthenticationRepository()</text><text fill="#000000" font-family="sans-serif" font-size="14" lengthAdjust="spacing" textLength="487" x="1024.5" y="192.2129">+Optional&lt;AgendaEntry&gt; postponeEntry(AgendaEntry entry, LocalDate date)</text><text fill="#000000" font-family="sans-serif" font-size="14" lengthAdjust="spacing" textLength="187" x="1024.5" y="210.834">+GSM getGSMFromSession()</text></g><g id="elem_GMN10"><path d="M6,106.5 L6,151.082 L316,151.082 L316,116.5 L306,106.5 L6,106.5 " fill="#FEFFDD" style="stroke:#181818;stroke-width:0.5;"/><path d="M306,106.5 L306,116.5 L316,116.5 L306,106.5 " fill="#FEFFDD" style="stroke:#181818;stroke-width:1.0;"/><text fill="#000000" font-family="sans-serif" font-size="13" lengthAdjust="spacing" textLength="289" x="12" y="125.5283">- Selected AgendaEntry is read from GSM's input.</text><text fill="#000000" font-family="sans-serif" font-size="13" lengthAdjust="spacing" textLength="161" x="12" y="142.8193">- Updates the AgendaEntry.</text></g><g id="elem_GMN13"><path d="M351,98 L351,159.873 A0,0 0 0 0 351,159.873 L677,159.873 A0,0 0 0 0 677,159.873 L677,133 L712.25,129 L677,125 L677,108 L667,98 L351,98 A0,0 0 0 0 351,98 " fill="#FEFFDD" style="stroke:#181818;stroke-width:0.5;"/><path d="M667,98 L667,108 L677,108 L667,98 " fill="#FEFFDD" style="stroke:#181818;stroke-width:0.5;"/><text fill="#000000" font-family="sans-serif" font-size="13" lengthAdjust="spacing" textLength="271" x="357" y="117.0283">- UI for GSM to postpone entries in the Agenda</text><text fill="#000000" font-family="sans-serif" font-size="13" lengthAdjust="spacing" textLength="267" x="357" y="134.3193">- Communicates with PostponeEntryController</text><text fill="#000000" font-family="sans-serif" font-size="13" lengthAdjust="spacing" textLength="305" x="357" y="151.6104">- Receives repositories from PostponeEntryController</text></g><g id="elem_GMN16"><path d="M1687.5,1145.5 L1687.5,1164 L1652.62,1168 L1687.5,1172 L1687.5,1190.082 A0,0 0 0 0 1687.5,1190.082 L1936.5,1190.082 A0,0 0 0 0 1936.5,1190.082 L1936.5,1155.5 L1926.5,1145.5 L1687.5,1145.5 A0,0 0 0 0 1687.5,1145.5 " fill="#FEFFDD" style="stroke:#181818;stroke-width:0.5;"/><path d="M1926.5,1145.5 L1926.5,1155.5 L1936.5,1155.5 L1926.5,1145.5 " fill="#FEFFDD" style="stroke:#181818;stroke-width:0.5;"/><text fill="#000000" font-family="sans-serif" font-size="13" lengthAdjust="spacing" textLength="228" x="1693.5" y="1164.5283">- Registered by the GSM in the Agenda</text><text fill="#000000" font-family="sans-serif" font-size="13" lengthAdjust="spacing" textLength="144" x="1693.5" y="1181.8193">- Postponed by the GSM</text></g><!--link GMN10 to PostponeEntryController--><g id="link_GMN10_PostponeEntryController"><path d="M195.76,106.44 C250.46,70.93 350.5,6 350.5,6 C350.5,6 983.5,6 983.5,6 C983.5,6 1032.44,20.7 1096.48,39.94 " fill="none" id="GMN10-PostponeEntryController" style="stroke:#181818;stroke-width:1.0;stroke-dasharray:7.0,7.0;"/></g><!--link Agenda to AgendaEntry--><g id="link_Agenda_AgendaEntry"><path codeLine="101" d="M1281,916.41 C1281,941.13 1281,962.02 1281,988.72 " fill="none" id="Agenda-to-AgendaEntry" style="stroke:#181818;stroke-width:1.0;"/><polygon fill="#181818" points="1281,994.72,1285,985.72,1281,989.72,1277,985.72,1281,994.72" style="stroke:#181818;stroke-width:1.0;"/><text fill="#000000" font-family="sans-serif" font-size="13" lengthAdjust="spacing" textLength="37" x="1282" y="961.0283">shows</text></g><!--link Repositories to Repositories--><g id="link_Repositories_Repositories"><path codeLine="103" d="M1180.27,344.74 C1201.07,346.99 1215,351.57 1215,358.5 C1215,365.43 1207.0352,369.3647 1186.2352,371.6147 " fill="none" id="Repositories-to-Repositories" style="stroke:#181818;stroke-width:1.0;"/><polygon fill="#181818" points="1180.27,372.26,1189.648,375.2689,1185.241,371.7223,1188.7876,367.3153,1180.27,372.26" style="stroke:#181818;stroke-width:1.0;"/><text fill="#000000" font-family="sans-serif" font-size="13" lengthAdjust="spacing" textLength="49" x="1221" y="364.0283">instance</text></g><!--link ApplicationSession to ApplicationSession--><g id="link_ApplicationSession_ApplicationSession"><path codeLine="104" d="M1621.66,343.27 C1641.5,344.17 1656.5,349.25 1656.5,358.5 C1656.5,367.75 1647.4938,372.5581 1627.6538,373.4581 " fill="none" id="ApplicationSession-to-ApplicationSession" style="stroke:#181818;stroke-width:1.0;"/><polygon fill="#181818" points="1621.66,373.73,1630.832,377.318,1626.6549,373.5034,1630.4695,369.3263,1621.66,373.73" style="stroke:#181818;stroke-width:1.0;"/><text fill="#000000" font-family="sans-serif" font-size="13" lengthAdjust="spacing" textLength="49" x="1662.5" y="364.0283">instance</text></g><!--link PostponeEntryUI to PostponeEntryController--><g id="link_PostponeEntryUI_PostponeEntryController"><path codeLine="106" d="M983.82,129 C997.99,129 1004.21,129 1012.46,129 " fill="none" id="PostponeEntryUI-to-PostponeEntryController" style="stroke:#181818;stroke-width:1.0;stroke-dasharray:7.0,7.0;"/><polygon fill="#181818" points="1018.46,129,1009.46,125,1013.46,129,1009.46,133,1018.46,129" style="stroke:#181818;stroke-width:1.0;"/></g><!--link PostponeEntryController to Repositories--><g id="link_PostponeEntryController_Repositories"><path codeLine="108" d="M1253.17,218.12 C1199.83,251.74 1146.5559,285.3007 1103.1959,312.6307 " fill="none" id="PostponeEntryController-to-Repositories" style="stroke:#181818;stroke-width:1.0;"/><polygon fill="#181818" points="1098.12,315.83,1107.8667,314.4149,1102.3499,313.1639,1103.6009,307.6471,1098.12,315.83" style="stroke:#181818;stroke-width:1.0;"/><text fill="#000000" font-family="sans-serif" font-size="13" lengthAdjust="spacing" textLength="108" x="1171" y="282.0283">retrieves instances</text></g><!--link Repositories to AgendaRepository--><g id="link_Repositories_AgendaRepository"><path codeLine="110" d="M1086.64,401.2 C1116.85,424.25 1150.4008,449.8393 1185.0108,476.2593 " fill="none" id="Repositories-to-AgendaRepository" style="stroke:#181818;stroke-width:1.0;"/><polygon fill="#181818" points="1189.78,479.9,1185.0533,471.2595,1185.8056,476.8661,1180.199,477.6185,1189.78,479.9" style="stroke:#181818;stroke-width:1.0;"/><text fill="#000000" font-family="sans-serif" font-size="13" lengthAdjust="spacing" textLength="56" x="1151" y="446.0283">accesses</text></g><!--link PostponeEntryController to AgendaRepository--><g id="link_PostponeEntryController_AgendaRepository"><path codeLine="112" d="M1369.45,218.2 C1348.66,296.06 1320.3182,402.2532 1301.1582,473.9932 " fill="none" id="PostponeEntryController-to-AgendaRepository" style="stroke:#181818;stroke-width:1.0;stroke-dasharray:7.0,7.0;"/><polygon fill="#181818" points="1299.61,479.79,1305.7968,472.1269,1300.9002,474.9593,1298.0677,470.0626,1299.61,479.79" style="stroke:#181818;stroke-width:1.0;"/><text fill="#000000" font-family="sans-serif" font-size="13" lengthAdjust="spacing" textLength="104" x="1344" y="364.0283">agendaRepository</text></g><!--link ApplicationSession to UserSession--><g id="link_ApplicationSession_UserSession"><path codeLine="114" d="M1556.97,401.2 C1566.11,435.93 1577.4345,478.9272 1585.8445,510.9172 " fill="none" id="ApplicationSession-to-UserSession" style="stroke:#181818;stroke-width:1.0;"/><polygon fill="#181818" points="1587.37,516.72,1588.9503,506.9987,1586.0987,511.8843,1581.2132,509.0328,1587.37,516.72" style="stroke:#181818;stroke-width:1.0;"/><text fill="#000000" font-family="sans-serif" font-size="13" lengthAdjust="spacing" textLength="72" x="1571" y="446.0283">userSession</text><text fill="#000000" font-family="sans-serif" font-size="13" lengthAdjust="spacing" textLength="7" x="1578.0577" y="505.7525">1</text></g><!--link PostponeEntryController to ApplicationSession--><g id="link_PostponeEntryController_ApplicationSession"><path codeLine="116" d="M1452.37,218.28 C1474.97,251.88 1496.322,283.6209 1514.672,310.9109 " fill="none" id="PostponeEntryController-to-ApplicationSession" style="stroke:#181818;stroke-width:1.0;stroke-dasharray:7.0,7.0;"/><polygon fill="#181818" points="1518.02,315.89,1516.3174,306.1894,1515.23,311.7408,1509.6787,310.6534,1518.02,315.89" style="stroke:#181818;stroke-width:1.0;"/></g><!--link PostponeEntryController to UserSession--><g id="link_PostponeEntryController_UserSession"><path codeLine="117" d="M1546.93,218.1 C1630.94,266.17 1718,316 1718,316 C1718,316 1718,401 1718,401 C1718,401 1662.4994,468.5644 1626.5794,512.2744 " fill="none" id="PostponeEntryController-to-UserSession" style="stroke:#181818;stroke-width:1.0;stroke-dasharray:7.0,7.0;"/><polygon fill="#181818" points="1622.77,516.91,1631.5745,512.4963,1625.9445,513.047,1625.3937,507.4171,1622.77,516.91" style="stroke:#181818;stroke-width:1.0;"/></g><!--link AgendaRepository to Agenda--><g id="link_AgendaRepository_Agenda"><path codeLine="119" d="M1281,621.32 C1281,645.55 1281,667.31 1281,693.85 " fill="none" id="AgendaRepository-to-Agenda" style="stroke:#181818;stroke-width:1.0;stroke-dasharray:7.0,7.0;"/><polygon fill="#181818" points="1281,699.85,1285,690.85,1281,694.85,1277,690.85,1281,699.85" style="stroke:#181818;stroke-width:1.0;"/><text fill="#000000" font-family="sans-serif" font-size="13" lengthAdjust="spacing" textLength="36" x="1282" y="666.0283">stores</text></g><!--SRC=[hLPBZzis4BxhLn2vh89T6-bL21RORjB0G8i4SRTtcXhBxDAaGbAxS8FyzmufIXgzZ1Ie3oOvyyrxEEADUvQwvfQVsTbe8qxMd85vsq0sS6ekdda5UtzHm2m8ptMbAC2TU6bUfQxOaIj7EKfgy9SQM6tK9HoocmMciTvaH4eexjo3zrOU6WyxOVHU_WFiNPP53dkeQoK5zn8Pu1mksVUCuU-MEOzamIhmEurxBI1_crX8Usoi1UsJ479-T2gV7DYfBXG8v8zdBXN5FbIWI_vHUtjXBNR3lFGA2hP7dtNLqRXx_W1EM5a7LoVSng8QSPbGoyRo1J2QDK9o3-Kd2w3tM1AqDkndi3-1dmiM_cUil-0aXG9NiD-by-_JyJxXGW8RDp6FHEi_e33A6C5LsAOaaMJahKoRYplMdSPPwEaf_lxSHTuJMa_k1ek36rr93yOeu9hnakGb7xQiwhSB8Y4xUVXZ7lyM02arULhPIxjEaV2jmRRFFn_-nhl1JCUMshCJTwT7KmvDI7j7AADXtbXzJs6dMjdNYKXsjQeSrlZJ_e-Hxdo6xXJT1MmGMWYrBI3rBWXTfiZQE5-ZrojmMgmEkbGl4Iwc-acR_tDwlm9w9hr9btT3itlFU5nTDabFIcqgK0jw6q4ZQPmOxTRbBJS9zFHVBrY2d9JX9wpq_lUUOosZxxVZESUA4QG3JCEEm2bniFA5blXfbvA4CzXRenJOOenux1aHnuS25BGQaKbROZn9RjUKngdTdr9MNumicMqqFRhcS9PXEF0H29i772NJ3abSEi9IKVikJf0ln7FQKcjUVoV969AyaFO8Q_m9EpzzqKRm5SwrZEMpDf-wSRUgTzKLcZi2N-ok5hfc8OYiy9Bev_YTu6eym_x3v2dJnBbjvnruN7x3Xmtzx6k3G0L772Z7gmsz1uLZ1yfHuqY7ZS5BTaIjmSYDmt5KDtuRHPxgu85Z62MLscQuPS5mTiNyqwxLiMD7OsC0tlJ1TvCShH7jKU3HdC-D3Zb5zglqfwjHVGK1yWL266Icn73Mn2REMrcTelUZInuqLpWHmMB63fVeP8XXuk-cjq9Hn4GQWPlDFTLVu4lJlBei6qr2n8pE1LfhHs8sVoW6z0ALo6JJ0RYzNyr9jdR_D_WUrdF7B8JolSG2jkPcmIJ1sLKh61S8Tq5YpUfskomu7JgBUK6ZRtvvGn_2ADgGP_5ri_Cd-JKuVMvdCvU7EB3YIC6O_mK0]--></g></svg>